<?xml version="1.0" encoding="UTF-8" standalone="no"?>
<!DOCTYPE svg PUBLIC "-//W3C//DTD SVG 1.1//EN"
 "http://www.w3.org/Graphics/SVG/1.1/DTD/svg11.dtd">
<!-- Generated by graphviz version 9.0.0 (20230911.1827)
 -->
<!-- Title: __construct Pages: 1 -->
<svg width="396pt" height="147pt"
 viewBox="0.00 0.00 395.75 147.00" xmlns="http://www.w3.org/2000/svg" xmlns:xlink="http://www.w3.org/1999/xlink">
<g id="graph0" class="graph" transform="scale(1 1) rotate(0) translate(4 143)">
<title>__construct</title>
<!-- Node1 -->
<g id="Node000001" class="node">
<title>Node1</title>
<g id="a_Node000001"><a xlink:title="Override constructor, delay most of the actual work to the execute() method.">
<polygon fill="#999999" stroke="#666666" points="67,-77 0,-77 0,-57 67,-57 67,-77"/>
<text text-anchor="middle" x="33.5" y="-63.5" font-family="Helvetica,sans-Serif" font-size="10.00">__construct</text>
</a>
</g>
</g>
<!-- Node2 -->
<g id="Node000002" class="node">
<title>Node2</title>
<g id="a_Node000002"><a xlink:href="interface_o_c_a_1_1_c_a_f_e_v_d_b_1_1_database_1_1_legacy_1_1_p_m_e_1_1_i_options.html#a9c9bae4e44ee76a926fa7ecdc49dd8b5" target="_top" xlink:title=" ">
<polygon fill="white" stroke="#666666" points="236.75,-139 103,-139 103,-95 236.75,-95 236.75,-139"/>
<text text-anchor="start" x="111" y="-125.5" font-family="Helvetica,sans-Serif" font-size="10.00">OCA\CAFEVDB\Database</text>
<text text-anchor="start" x="111" y="-113.5" font-family="Helvetica,sans-Serif" font-size="10.00">\Legacy\PME\IOptions</text>
<text text-anchor="middle" x="169.88" y="-101.5" font-family="Helvetica,sans-Serif" font-size="10.00">\getArrayCopy</text>
</a>
</g>
</g>
<!-- Node1&#45;&gt;Node2 -->
<g id="edge1_Node000001_Node000002" class="edge">
<title>Node1&#45;&gt;Node2</title>
<g id="a_edge1_Node000001_Node000002"><a xlink:title=" ">
<path fill="none" stroke="#63b8ff" d="M62.67,-77.48C73.13,-81.37 85.52,-85.99 98.09,-90.66"/>
<polygon fill="#63b8ff" stroke="#63b8ff" points="96.63,-93.85 107.22,-94.06 99.07,-87.29 96.63,-93.85"/>
</a>
</g>
</g>
<!-- Node3 -->
<g id="Node000003" class="node">
<title>Node3</title>
<g id="a_Node000003"><a xlink:href="class_o_c_a_1_1_c_a_f_e_v_d_b_1_1_database_1_1_legacy_1_1_p_m_e_1_1_p_h_p_my_edit.html#af811153ae1e03339da641bbc02ff09ac" target="_top" xlink:title=" ">
<polygon fill="white" stroke="#666666" points="197.75,-77 142,-77 142,-57 197.75,-57 197.75,-77"/>
<text text-anchor="middle" x="169.88" y="-63.5" font-family="Helvetica,sans-Serif" font-size="10.00">queryLog</text>
</a>
</g>
</g>
<!-- Node1&#45;&gt;Node3 -->
<g id="edge2_Node000001_Node000003" class="edge">
<title>Node1&#45;&gt;Node3</title>
<g id="a_edge2_Node000001_Node000003"><a xlink:title=" ">
<path fill="none" stroke="#63b8ff" d="M67.37,-67C86.38,-67 110.39,-67 130.29,-67"/>
<polygon fill="#63b8ff" stroke="#63b8ff" points="130.25,-70.5 140.25,-67 130.25,-63.5 130.25,-70.5"/>
</a>
</g>
</g>
<!-- Node4 -->
<g id="Node000004" class="node">
<title>Node4</title>
<g id="a_Node000004"><a xlink:href="class_o_c_a_1_1_c_a_f_e_v_d_b_1_1_database_1_1_legacy_1_1_p_m_e_1_1_p_h_p_my_edit.html#a673b5e9db470a52ea28b56a44e23e2d0" target="_top" xlink:title=" ">
<polygon fill="white" stroke="#666666" points="201.5,-39 138.25,-39 138.25,-19 201.5,-19 201.5,-39"/>
<text text-anchor="middle" x="169.88" y="-25.5" font-family="Helvetica,sans-Serif" font-size="10.00">setOptions</text>
</a>
</g>
</g>
<!-- Node1&#45;&gt;Node4 -->
<g id="edge3_Node000001_Node000004" class="edge">
<title>Node1&#45;&gt;Node4</title>
<g id="a_edge3_Node000001_Node000004"><a xlink:title=" ">
<path fill="none" stroke="#63b8ff" d="M67.37,-57.7C85.43,-52.6 108,-46.21 127.28,-40.76"/>
<polygon fill="#63b8ff" stroke="#63b8ff" points="128.06,-44.18 136.73,-38.09 126.15,-37.44 128.06,-44.18"/>
</a>
</g>
</g>
<!-- Node5 -->
<g id="Node000005" class="node">
<title>Node5</title>
<g id="a_Node000005"><a xlink:href="class_o_c_a_1_1_c_a_f_e_v_d_b_1_1_database_1_1_legacy_1_1_p_m_e_1_1_p_h_p_my_edit.html#a970a343ac82f4301586c841461814201" target="_top" xlink:title=" ">
<polygon fill="white" stroke="#666666" points="380.62,-58 279.88,-58 279.88,-38 380.62,-38 380.62,-58"/>
<text text-anchor="middle" x="330.25" y="-44.5" font-family="Helvetica,sans-Serif" font-size="10.00">determineOperation</text>
</a>
</g>
</g>
<!-- Node4&#45;&gt;Node5 -->
<g id="edge4_Node000004_Node000005" class="edge">
<title>Node4&#45;&gt;Node5</title>
<g id="a_edge4_Node000004_Node000005"><a xlink:title=" ">
<path fill="none" stroke="#63b8ff" d="M201.79,-32.71C220.65,-34.97 245.43,-37.94 268.12,-40.67"/>
<polygon fill="#63b8ff" stroke="#63b8ff" points="267.56,-44.12 277.9,-41.84 268.39,-37.17 267.56,-44.12"/>
</a>
</g>
</g>
<!-- Node6 -->
<g id="Node000006" class="node">
<title>Node6</title>
<g id="a_Node000006"><a xlink:href="class_o_c_a_1_1_c_a_f_e_v_d_b_1_1_database_1_1_legacy_1_1_p_m_e_1_1_p_h_p_my_edit.html#aa5b8f517224bb51714ebbafdc093db1a" target="_top" xlink:title="{}">
<polygon fill="white" stroke="#666666" points="387.75,-20 272.75,-20 272.75,0 387.75,0 387.75,-20"/>
<text text-anchor="middle" x="330.25" y="-6.5" font-family="Helvetica,sans-Serif" font-size="10.00">make_language_labels</text>
</a>
</g>
</g>
<!-- Node4&#45;&gt;Node6 -->
<g id="edge5_Node000004_Node000006" class="edge">
<title>Node4&#45;&gt;Node6</title>
<g id="a_edge5_Node000004_Node000006"><a xlink:title=" ">
<path fill="none" stroke="#63b8ff" d="M201.79,-25.29C218.73,-23.26 240.43,-20.66 261.11,-18.18"/>
<polygon fill="#63b8ff" stroke="#63b8ff" points="261.44,-21.66 270.95,-16.99 260.6,-14.71 261.44,-21.66"/>
</a>
</g>
</g>
</g>
</svg>
