<?xml version="1.0" encoding="UTF-8" standalone="no"?>
<!DOCTYPE svg PUBLIC "-//W3C//DTD SVG 1.1//EN"
 "http://www.w3.org/Graphics/SVG/1.1/DTD/svg11.dtd">
<!-- Generated by graphviz version 8.0.3 (20230416.2022)
 -->
<!-- Title: __construct Pages: 1 -->
<!--zoomable 214 -->
<svg id="main" version="1.1" xmlns="http://www.w3.org/2000/svg" xmlns:xlink="http://www.w3.org/1999/xlink" xml:space="preserve" onload="init(evt)">
<style type="text/css"><![CDATA[
.edge:hover path { stroke: red; }
.edge:hover polygon { stroke: red; fill: red; }
]]></style>
<script type="text/javascript"><![CDATA[
var edges = document.getElementsByTagName('g');
if (edges && edges.length) {
  for (var i=0;i<edges.length;i++) {
    if (edges[i].id.substr(0,4)=='edge') {
      edges[i].setAttribute('class','edge');
    }
  }
}
]]></script>
        <defs>
                <circle id="rim" cx="0" cy="0" r="7"/>
                <circle id="rim2" cx="0" cy="0" r="3.5"/>
                <g id="zoomPlus">
                        <use xlink:href="#rim" fill="#404040">
                                <set attributeName="fill" to="#808080" begin="zoomplus.mouseover" end="zoomplus.mouseout"/>
                        </use>
                        <path d="M-4,0h8M0,-4v8" fill="none" stroke="white" stroke-width="1.5" pointer-events="none"/>
                </g>
                <g id="zoomMin">
                        <use xlink:href="#rim" fill="#404040">
                                <set attributeName="fill" to="#808080" begin="zoomminus.mouseover" end="zoomminus.mouseout"/>
                        </use>
                        <path d="M-4,0h8" fill="none" stroke="white" stroke-width="1.5" pointer-events="none"/>
                </g>
                <g id="dirArrow">
                        <path fill="none" stroke="white" stroke-width="1.5" d="M0,-3.0v7 M-2.5,-0.5L0,-3.0L2.5,-0.5"/>
                </g>
               <g id="resetDef">
                       <use xlink:href="#rim2" fill="#404040">
                               <set attributeName="fill" to="#808080" begin="reset.mouseover" end="reset.mouseout"/>
                       </use>
               </g>
        </defs>

<script type="text/javascript">
var viewWidth = 686;
var viewHeight = 214;
var sectionId = 'dynsection-0';
</script>
<script xlink:href="svgpan.js"/>
<svg id="graph" class="graph">
<g id="viewport">
<title>__construct</title>
<!-- Node1 -->
<g id="node1" class="node">
<title>Node1</title>
<g id="a_node1"><a xlink:title="{}">
<polygon fill="#999999" stroke="#666666" points="68,-119 0,-119 0,-100 68,-100 68,-119"/>
<text text-anchor="middle" x="34" y="-107" font-family="Helvetica,sans-Serif" font-size="10.00">__construct</text>
</a>
</g>
</g>
<!-- Node2 -->
<g id="node2" class="node">
<title>Node2</title>
<g id="a_node2"><a xlink:href="class_o_c_a_1_1_c_a_f_e_v_d_b_1_1_service_1_1_authorization_service.html#a8021dbb46c192641c85416c68d99fc66" target="_top" xlink:title="Basic check for authorization.">
<polygon fill="white" stroke="#666666" points="229,-154 104,-154 104,-113 229,-113 229,-154"/>
<text text-anchor="start" x="112" y="-142" font-family="Helvetica,sans-Serif" font-size="10.00">OCA\CAFEVDB\Service</text>
<text text-anchor="start" x="112" y="-131" font-family="Helvetica,sans-Serif" font-size="10.00">\AuthorizationService</text>
<text text-anchor="middle" x="166.5" y="-120" font-family="Helvetica,sans-Serif" font-size="10.00">\authorized</text>
</a>
</g>
</g>
<!-- Node1&#45;&gt;Node2 -->
<g id="edge1" class="edge">
<title>Node1&#45;&gt;Node2</title>
<path fill="none" stroke="#63b8ff" d="M68.27,-115.62C75.95,-117.03 84.41,-118.59 93.04,-120.17"/>
<polygon fill="#63b8ff" stroke="#63b8ff" points="92.14,-123.75 102.61,-122.12 93.41,-116.87 92.14,-123.75"/>
</g>
<!-- Node3 -->
<g id="node3" class="node">
<title>Node3</title>
<g id="a_node3"><a xlink:href="class_o_c_a_1_1_c_a_f_e_v_d_b_1_1_service_1_1_encryption_service.html#a4efe39e6059783c9439d484de8bf2590" target="_top" xlink:title="Bind $this to the given userId and password, for instance during listeners for password&#45;change etc.">
<polygon fill="white" stroke="#666666" points="184,-95 149,-95 149,-76 184,-76 184,-95"/>
<text text-anchor="middle" x="166.5" y="-83" font-family="Helvetica,sans-Serif" font-size="10.00">bind</text>
</a>
</g>
</g>
<!-- Node1&#45;&gt;Node3 -->
<g id="edge2" class="edge">
<title>Node1&#45;&gt;Node3</title>
<path fill="none" stroke="#63b8ff" d="M68.27,-103.38C89.83,-99.42 117.59,-94.31 137.92,-90.57"/>
<polygon fill="#63b8ff" stroke="#63b8ff" points="138.44,-93.85 147.65,-88.6 137.18,-86.97 138.44,-93.85"/>
</g>
<!-- Node4 -->
<g id="node4" class="node">
<title>Node4</title>
<g id="a_node4"><a xlink:href="class_o_c_a_1_1_c_a_f_e_v_d_b_1_1_service_1_1_encryption_service.html#ae0e6a2643a679ae23f2975018436da50" target="_top" xlink:title="Initialize the global symmetric app encryption key used to encrypt shared data.">
<polygon fill="white" stroke="#666666" points="375,-132 265,-132 265,-113 375,-113 375,-132"/>
<text text-anchor="middle" x="320" y="-120" font-family="Helvetica,sans-Serif" font-size="10.00">initAppEncryptionKey</text>
</a>
</g>
</g>
<!-- Node3&#45;&gt;Node4 -->
<g id="edge3" class="edge">
<title>Node3&#45;&gt;Node4</title>
<path fill="none" stroke="#63b8ff" d="M184.29,-89.6C204.33,-94.49 238.76,-102.9 267.8,-110"/>
<polygon fill="#63b8ff" stroke="#63b8ff" points="266.68,-113.57 277.22,-112.54 268.34,-106.77 266.68,-113.57"/>
</g>
<!-- Node11 -->
<g id="node11" class="node">
<title>Node11</title>
<g id="a_node11"><a xlink:href="class_o_c_a_1_1_c_a_f_e_v_d_b_1_1_service_1_1_encryption_service.html#a830652bacd2fe88b917967c2db01e092" target="_top" xlink:title=" ">
<polygon fill="white" stroke="#666666" points="360.5,-57 279.5,-57 279.5,-38 360.5,-38 360.5,-57"/>
<text text-anchor="middle" x="320" y="-45" font-family="Helvetica,sans-Serif" font-size="10.00">initAppKeyPair</text>
</a>
</g>
</g>
<!-- Node3&#45;&gt;Node11 -->
<g id="edge10" class="edge">
<title>Node3&#45;&gt;Node11</title>
<path fill="none" stroke="#63b8ff" d="M184.29,-81.29C204.53,-76.21 239.47,-67.45 268.7,-60.12"/>
<polygon fill="#63b8ff" stroke="#63b8ff" points="269.32,-63.32 278.17,-57.49 267.61,-56.53 269.32,-63.32"/>
</g>
<!-- Node13 -->
<g id="node13" class="node">
<title>Node13</title>
<g id="a_node13"><a xlink:href="class_o_c_a_1_1_c_a_f_e_v_d_b_1_1_service_1_1_encryption_service.html#ad340ac2983f99f3d7695db636ec83c6d" target="_top" xlink:title="Initialize the per&#45;user public/private key pair, which inparticular is used to propagate the app&#39;s en...">
<polygon fill="white" stroke="#666666" points="362.5,-95 277.5,-95 277.5,-76 362.5,-76 362.5,-95"/>
<text text-anchor="middle" x="320" y="-83" font-family="Helvetica,sans-Serif" font-size="10.00">initUserKeyPair</text>
</a>
</g>
</g>
<!-- Node3&#45;&gt;Node13 -->
<g id="edge13" class="edge">
<title>Node3&#45;&gt;Node13</title>
<path fill="none" stroke="#63b8ff" d="M184.29,-85.5C204.03,-85.5 237.76,-85.5 266.53,-85.5"/>
<polygon fill="#63b8ff" stroke="#63b8ff" points="266.27,-89 276.27,-85.5 266.27,-82 266.27,-89"/>
</g>
<!-- Node5 -->
<g id="node5" class="node">
<title>Node5</title>
<g id="a_node5"><a xlink:href="class_o_c_a_1_1_c_a_f_e_v_d_b_1_1_service_1_1_encryption_service.html#ac00a76ffe038ef8a433357bd4114bb52" target="_top" xlink:title="Test if we a bound to a user.">
<polygon fill="white" stroke="#666666" points="490,-206 447,-206 447,-187 490,-187 490,-206"/>
<text text-anchor="middle" x="468.5" y="-194" font-family="Helvetica,sans-Serif" font-size="10.00">bound</text>
</a>
</g>
</g>
<!-- Node4&#45;&gt;Node5 -->
<g id="edge4" class="edge">
<title>Node4&#45;&gt;Node5</title>
<path fill="none" stroke="#63b8ff" d="M334.43,-132.35C351.51,-144.51 382.26,-165.23 411,-178.5 418.93,-182.16 427.81,-185.37 436.13,-188.03"/>
<polygon fill="#63b8ff" stroke="#63b8ff" points="435.05,-191.66 445.64,-191.19 437.07,-184.96 435.05,-191.66"/>
</g>
<!-- Node6 -->
<g id="node6" class="node">
<title>Node6</title>
<g id="a_node6"><a xlink:href="class_o_c_a_1_1_c_a_f_e_v_d_b_1_1_service_1_1_encryption_service.html#a7f3eb9937785e05b6d3e638fc187072c" target="_top" xlink:title="Fetch the value for the given key and possibly decrypt it.">
<polygon fill="white" stroke="#666666" points="510,-169 427,-169 427,-150 510,-150 510,-169"/>
<text text-anchor="middle" x="468.5" y="-157" font-family="Helvetica,sans-Serif" font-size="10.00">getConfigValue</text>
</a>
</g>
</g>
<!-- Node4&#45;&gt;Node6 -->
<g id="edge5" class="edge">
<title>Node4&#45;&gt;Node6</title>
<path fill="none" stroke="#63b8ff" d="M360.26,-132.42C377.91,-136.87 398.95,-142.19 417.7,-146.92"/>
<polygon fill="#63b8ff" stroke="#63b8ff" points="416.58,-150.5 427.13,-149.56 418.29,-143.72 416.58,-150.5"/>
</g>
<!-- Node8 -->
<g id="node8" class="node">
<title>Node8</title>
<g id="a_node8"><a xlink:href="class_o_c_a_1_1_c_a_f_e_v_d_b_1_1_service_1_1_encryption_service.html#a89044dae403670e1950421f9500ab7e4" target="_top" xlink:title=" ">
<polygon fill="white" stroke="#666666" points="526,-95 411,-95 411,-76 526,-76 526,-95"/>
<text text-anchor="middle" x="468.5" y="-83" font-family="Helvetica,sans-Serif" font-size="10.00">getUserEncryptionKey</text>
</a>
</g>
</g>
<!-- Node4&#45;&gt;Node8 -->
<g id="edge7" class="edge">
<title>Node4&#45;&gt;Node8</title>
<path fill="none" stroke="#63b8ff" d="M360.26,-112.58C377.91,-108.13 398.95,-102.81 417.7,-98.08"/>
<polygon fill="#63b8ff" stroke="#63b8ff" points="418.29,-101.28 427.13,-95.44 416.58,-94.5 418.29,-101.28"/>
</g>
<!-- Node10 -->
<g id="node10" class="node">
<title>Node10</title>
<g id="a_node10"><a xlink:href="class_o_c_a_1_1_c_a_f_e_v_d_b_1_1_service_1_1_encryption_service.html#af00d9a637dd0c0e25a62685bad893023" target="_top" xlink:title=" ">
<polygon fill="white" stroke="#666666" points="500.5,-132 436.5,-132 436.5,-113 500.5,-113 500.5,-132"/>
<text text-anchor="middle" x="468.5" y="-120" font-family="Helvetica,sans-Serif" font-size="10.00">verifyHash</text>
</a>
</g>
</g>
<!-- Node4&#45;&gt;Node10 -->
<g id="edge9" class="edge">
<title>Node4&#45;&gt;Node10</title>
<path fill="none" stroke="#63b8ff" d="M375.13,-122.5C391.66,-122.5 409.59,-122.5 425.21,-122.5"/>
<polygon fill="#63b8ff" stroke="#63b8ff" points="425.13,-126 435.13,-122.5 425.13,-119 425.13,-126"/>
</g>
<!-- Node7 -->
<g id="node7" class="node">
<title>Node7</title>
<g id="a_node7"><a xlink:href="class_o_c_a_1_1_c_a_f_e_v_d_b_1_1_service_1_1_encryption_service.html#a6c2a8487a2ff84a0fa4530de4d61d83b" target="_top" xlink:title="A short&#45;cut, redirecting to the stock functions for the app.">
<polygon fill="white" stroke="#666666" points="655.5,-150 584.5,-150 584.5,-131 655.5,-131 655.5,-150"/>
<text text-anchor="middle" x="620" y="-138" font-family="Helvetica,sans-Serif" font-size="10.00">getAppValue</text>
</a>
</g>
</g>
<!-- Node6&#45;&gt;Node7 -->
<g id="edge6" class="edge">
<title>Node6&#45;&gt;Node7</title>
<path fill="none" stroke="#63b8ff" d="M510.35,-154.31C529.9,-151.82 553.37,-148.84 573.49,-146.28"/>
<polygon fill="#63b8ff" stroke="#63b8ff" points="573.8,-149.65 583.28,-144.91 572.92,-142.7 573.8,-149.65"/>
</g>
<!-- Node9 -->
<g id="node9" class="node">
<title>Node9</title>
<g id="a_node9"><a xlink:href="class_o_c_a_1_1_c_a_f_e_v_d_b_1_1_service_1_1_encryption_service.html#adb19126b250726643c9e37b9a15dc6f2" target="_top" xlink:title="Get and decrypt an personal &#39;user&#39; value encrypted with the public key of key&#45;pair.">
<polygon fill="white" stroke="#666666" points="678,-95 562,-95 562,-76 678,-76 678,-95"/>
<text text-anchor="middle" x="620" y="-83" font-family="Helvetica,sans-Serif" font-size="10.00">getSharedPrivateValue</text>
</a>
</g>
</g>
<!-- Node8&#45;&gt;Node9 -->
<g id="edge8" class="edge">
<title>Node8&#45;&gt;Node9</title>
<path fill="none" stroke="#63b8ff" d="M526.45,-85.5C534.39,-85.5 542.62,-85.5 550.74,-85.5"/>
<polygon fill="#63b8ff" stroke="#63b8ff" points="550.72,-89 560.72,-85.5 550.72,-82 550.72,-89"/>
</g>
<!-- Node11&#45;&gt;Node7 -->
<g id="edge12" class="edge">
<title>Node11&#45;&gt;Node7</title>
<path fill="none" stroke="#63b8ff" d="M360.92,-43.55C403.88,-41.03 473.15,-42.09 526,-67.5 546.68,-77.44 544.18,-90.05 562,-104.5 571.21,-111.96 582.05,-119.15 591.79,-125.12"/>
<polygon fill="#63b8ff" stroke="#63b8ff" points="589.68,-128.53 600.06,-130.64 593.26,-122.52 589.68,-128.53"/>
</g>
<!-- Node12 -->
<g id="node12" class="node">
<title>Node12</title>
<g id="a_node12"><a xlink:href="class_o_c_a_1_1_c_a_f_e_v_d_b_1_1_service_1_1_encryption_service.html#aef02d325583d49207e4852023acf572d" target="_top" xlink:title=" ">
<polygon fill="white" stroke="#666666" points="524,-19 413,-19 413,0 524,0 524,-19"/>
<text text-anchor="middle" x="468.5" y="-7" font-family="Helvetica,sans-Serif" font-size="10.00">getAppEncryptionKey</text>
</a>
</g>
</g>
<!-- Node11&#45;&gt;Node12 -->
<g id="edge11" class="edge">
<title>Node11&#45;&gt;Node12</title>
<path fill="none" stroke="#63b8ff" d="M359.49,-37.52C377.59,-32.82 399.37,-27.17 418.62,-22.18"/>
<polygon fill="#63b8ff" stroke="#63b8ff" points="419.21,-25.38 428.01,-19.48 417.45,-18.61 419.21,-25.38"/>
</g>
<!-- Node13&#45;&gt;Node8 -->
<g id="edge14" class="edge">
<title>Node13&#45;&gt;Node8</title>
<path fill="none" stroke="#63b8ff" d="M362.98,-85.5C374.49,-85.5 387.27,-85.5 399.83,-85.5"/>
<polygon fill="#63b8ff" stroke="#63b8ff" points="399.77,-89 409.77,-85.5 399.77,-82 399.77,-89"/>
</g>
</g>
</svg>
        <g id="navigator" transform="translate(0 0)" fill="#404254">
                <rect fill="#f2f5e9" fill-opacity="0.5" stroke="#606060" stroke-width=".5" x="0" y="0" width="60" height="60"/>
                <use id="zoomplus" xlink:href="#zoomPlus" x="17" y="9" onmousedown="handleZoom(evt,'in')"/>
                <use id="zoomminus" xlink:href="#zoomMin" x="42" y="9" onmousedown="handleZoom(evt,'out')"/>
                <use id="reset" xlink:href="#resetDef" x="30" y="36" onmousedown="handleReset()"/>
                <g id="arrowUp" xlink:href="#dirArrow" transform="translate(30 24)" onmousedown="handlePan(0,-1)">
                  <use xlink:href="#rim" fill="#404040">
                        <set attributeName="fill" to="#808080" begin="arrowUp.mouseover" end="arrowUp.mouseout"/>
                  </use>
                  <path fill="none" stroke="white" stroke-width="1.5" d="M0,-3.0v7 M-2.5,-0.5L0,-3.0L2.5,-0.5"/>
                </g>
                <g id="arrowRight" xlink:href="#dirArrow" transform="rotate(90) translate(36 -43)" onmousedown="handlePan(1,0)">
                  <use xlink:href="#rim" fill="#404040">
                        <set attributeName="fill" to="#808080" begin="arrowRight.mouseover" end="arrowRight.mouseout"/>
                  </use>
                  <path fill="none" stroke="white" stroke-width="1.5" d="M0,-3.0v7 M-2.5,-0.5L0,-3.0L2.5,-0.5"/>
                </g>
                <g id="arrowDown" xlink:href="#dirArrow" transform="rotate(180) translate(-30 -48)" onmousedown="handlePan(0,1)">
                  <use xlink:href="#rim" fill="#404040">
                        <set attributeName="fill" to="#808080" begin="arrowDown.mouseover" end="arrowDown.mouseout"/>
                  </use>
                  <path fill="none" stroke="white" stroke-width="1.5" d="M0,-3.0v7 M-2.5,-0.5L0,-3.0L2.5,-0.5"/>
                </g>
                <g id="arrowLeft" xlink:href="#dirArrow" transform="rotate(270) translate(-36 17)" onmousedown="handlePan(-1,0)">
                  <use xlink:href="#rim" fill="#404040">
                        <set attributeName="fill" to="#808080" begin="arrowLeft.mouseover" end="arrowLeft.mouseout"/>
                  </use>
                  <path fill="none" stroke="white" stroke-width="1.5" d="M0,-3.0v7 M-2.5,-0.5L0,-3.0L2.5,-0.5"/>
                </g>
        </g>
        <svg viewBox="0 0 15 15" width="100%" height="30px" preserveAspectRatio="xMaxYMin meet">
         <g id="arrow_out" transform="scale(0.3 0.3)">
          <a xlink:href="class_o_c_a_1_1_c_a_f_e_v_d_b_1_1_service_1_1_encryption_service_aa164135a7474a6c9d34b7bee20056a4d_cgraph_org.svg" target="_base">
           <rect id="button" ry="5" rx="5" y="6" x="6" height="38" width="38"
                fill="#f2f5e9" fill-opacity="0.5" stroke="#606060" stroke-width="1.0"/>
           <path id="arrow"
             d="M 11.500037,31.436501 C 11.940474,20.09759 22.043105,11.32322 32.158766,21.979434 L 37.068811,17.246167 C 37.068811,17.246167 37.088388,32 37.088388,32 L 22.160133,31.978069 C 22.160133,31.978069 26.997745,27.140456 26.997745,27.140456 C 18.528582,18.264221 13.291696,25.230495 11.500037,31.436501 z"
             style="fill:#404040;"/>
          </a>
         </g>
        </svg>
</svg>
