<?xml version="1.0" encoding="UTF-8" standalone="no"?>
<!DOCTYPE svg PUBLIC "-//W3C//DTD SVG 1.1//EN"
 "http://www.w3.org/Graphics/SVG/1.1/DTD/svg11.dtd">
<!-- Generated by graphviz version 8.0.3 (20230416.2022)
 -->
<!-- Title: getGroup Pages: 1 -->
<svg width="207pt" height="101pt"
 viewBox="0.00 0.00 207.00 101.00" xmlns="http://www.w3.org/2000/svg" xmlns:xlink="http://www.w3.org/1999/xlink">
<g id="graph0" class="graph" transform="scale(1 1) rotate(0) translate(4 97)">
<title>getGroup</title>
<!-- Node1 -->
<g id="node1" class="node">
<title>Node1</title>
<g id="a_node1"><a xlink:title=" ">
<polygon fill="#999999" stroke="#666666" points="199,-56 143,-56 143,-37 199,-37 199,-56"/>
<text text-anchor="middle" x="171" y="-44" font-family="Helvetica,sans-Serif" font-size="10.00">getGroup</text>
</a>
</g>
</g>
<!-- Node2 -->
<g id="node2" class="node">
<title>Node2</title>
<g id="a_node2"><a xlink:href="class_o_c_a_1_1_c_a_f_e_v_d_b_1_1_service_1_1_config_service.html#adeb37b77de6c78ae8303acd786f08ebf" target="_top" xlink:title="Return all the sub&#45;admins of the given or the configured orchestra group.">
<polygon fill="white" stroke="#666666" points="107,-93 0,-93 0,-74 107,-74 107,-93"/>
<text text-anchor="middle" x="53.5" y="-81" font-family="Helvetica,sans-Serif" font-size="10.00">getGroupSubAdmins</text>
</a>
</g>
</g>
<!-- Node1&#45;&gt;Node2 -->
<g id="edge1" class="edge">
<title>Node1&#45;&gt;Node2</title>
<path fill="none" stroke="#63b8ff" d="M132.48,-58.52C117.23,-63.4 99.83,-68.98 85.34,-73.62"/>
<polygon fill="#63b8ff" stroke="#63b8ff" points="133.17,-61.65 141.63,-55.27 131.04,-54.99 133.17,-61.65"/>
</g>
<!-- Node3 -->
<g id="node3" class="node">
<title>Node3</title>
<g id="a_node3"><a xlink:href="class_o_c_a_1_1_c_a_f_e_v_d_b_1_1_service_1_1_config_service.html#a8c408b160c3fecad5096a23d49209fa6" target="_top" xlink:title="Return the dedicated admin&#45;group if it exists.">
<polygon fill="white" stroke="#666666" points="104,-56 3,-56 3,-37 104,-37 104,-56"/>
<text text-anchor="middle" x="53.5" y="-44" font-family="Helvetica,sans-Serif" font-size="10.00">getSubAdminGroup</text>
</a>
</g>
</g>
<!-- Node1&#45;&gt;Node3 -->
<g id="edge2" class="edge">
<title>Node1&#45;&gt;Node3</title>
<path fill="none" stroke="#63b8ff" d="M131.89,-46.5C123.06,-46.5 113.54,-46.5 104.29,-46.5"/>
<polygon fill="#63b8ff" stroke="#63b8ff" points="131.63,-50 141.63,-46.5 131.63,-43 131.63,-50"/>
</g>
<!-- Node4 -->
<g id="node4" class="node">
<title>Node4</title>
<g id="a_node4"><a xlink:href="class_o_c_a_1_1_c_a_f_e_v_d_b_1_1_service_1_1_config_service.html#a4eb4832e8e3774063978db6e58d29edc" target="_top" xlink:title=" ">
<polygon fill="white" stroke="#666666" points="106.5,-19 0.5,-19 0.5,0 106.5,0 106.5,-19"/>
<text text-anchor="middle" x="53.5" y="-7" font-family="Helvetica,sans-Serif" font-size="10.00">isSubAdminOfGroup</text>
</a>
</g>
</g>
<!-- Node1&#45;&gt;Node4 -->
<g id="edge3" class="edge">
<title>Node1&#45;&gt;Node4</title>
<path fill="none" stroke="#63b8ff" d="M132.48,-34.48C117.23,-29.6 99.83,-24.02 85.34,-19.38"/>
<polygon fill="#63b8ff" stroke="#63b8ff" points="131.04,-38.01 141.63,-37.73 133.17,-31.35 131.04,-38.01"/>
</g>
</g>
</svg>
