<?xml version="1.0" encoding="UTF-8" standalone="no"?>
<!DOCTYPE svg PUBLIC "-//W3C//DTD SVG 1.1//EN"
 "http://www.w3.org/Graphics/SVG/1.1/DTD/svg11.dtd">
<!-- Generated by graphviz version 9.0.0 (20230911.1827)
 -->
<!-- Title: ban Pages: 1 -->
<svg width="247pt" height="90pt"
 viewBox="0.00 0.00 247.00 90.00" xmlns="http://www.w3.org/2000/svg" xmlns:xlink="http://www.w3.org/1999/xlink">
<g id="graph0" class="graph" transform="scale(1 1) rotate(0) translate(4 86)">
<title>ban</title>
<!-- Node1 -->
<g id="Node000001" class="node">
<title>Node1</title>
<g id="a_Node000001"><a xlink:title="Ban a SEPA&#45;mandate (timeout, withdrawn, erroneous data etc.).">
<polygon fill="#999999" stroke="#666666" points="31.75,-57 0,-57 0,-37 31.75,-37 31.75,-57"/>
<text text-anchor="middle" x="15.88" y="-43.5" font-family="Helvetica,sans-Serif" font-size="10.00">ban</text>
</a>
</g>
</g>
<!-- Node2 -->
<g id="Node000002" class="node">
<title>Node2</title>
<g id="a_Node000002"><a xlink:href="class_o_c_a_1_1_c_a_f_e_v_d_b_1_1_database_1_1_doctrine_1_1_o_r_m_1_1_repositories_1_1_sepa_debit_mandates_repository.html#aa83dc5c73575593e20ef022264c93b7c" target="_top" xlink:title="Find a SEPA&#45;mandate by either its primary key or its mandate reference; no&#45;op if $idOrReference alrea...">
<polygon fill="white" stroke="#666666" points="184.25,-82 122.5,-82 122.5,-62 184.25,-62 184.25,-82"/>
<text text-anchor="middle" x="153.38" y="-68.5" font-family="Helvetica,sans-Serif" font-size="10.00">findOneBy</text>
</a>
</g>
</g>
<!-- Node1&#45;&gt;Node2 -->
<g id="edge1_Node000001_Node000002" class="edge">
<title>Node1&#45;&gt;Node2</title>
<g id="a_edge1_Node000001_Node000002"><a xlink:title=" ">
<path fill="none" stroke="#63b8ff" d="M32.16,-49.82C51.17,-53.33 84.4,-59.46 111.11,-64.39"/>
<polygon fill="#63b8ff" stroke="#63b8ff" points="110.14,-67.77 120.61,-66.14 111.41,-60.88 110.14,-67.77"/>
</a>
</g>
</g>
<!-- Node3 -->
<g id="Node000003" class="node">
<title>Node3</title>
<g id="a_Node000003"><a xlink:href="class_o_c_a_1_1_c_a_f_e_v_d_b_1_1_database_1_1_doctrine_1_1_o_r_m_1_1_repositories_1_1_entity_repository.html#ae2b0e1dbe7640aefaf7d54c6a94d08fe" target="_top" xlink:title="Public export of parent function.">
<polygon fill="white" stroke="#666666" points="239,-44 67.75,-44 67.75,0 239,0 239,-44"/>
<text text-anchor="start" x="75.75" y="-30.5" font-family="Helvetica,sans-Serif" font-size="10.00">OCA\CAFEVDB\Database</text>
<text text-anchor="start" x="75.75" y="-18.5" font-family="Helvetica,sans-Serif" font-size="10.00">\Doctrine\ORM\Repositories</text>
<text text-anchor="middle" x="153.38" y="-6.5" font-family="Helvetica,sans-Serif" font-size="10.00">\EntityRepository\getEntityManager</text>
</a>
</g>
</g>
<!-- Node1&#45;&gt;Node3 -->
<g id="edge2_Node000001_Node000003" class="edge">
<title>Node1&#45;&gt;Node3</title>
<g id="a_edge2_Node000001_Node000003"><a xlink:title=" ">
<path fill="none" stroke="#63b8ff" d="M32.16,-44.18C38.77,-42.96 47.11,-41.42 56.29,-39.73"/>
<polygon fill="#63b8ff" stroke="#63b8ff" points="56.72,-43.21 65.92,-37.95 55.45,-36.32 56.72,-43.21"/>
</a>
</g>
</g>
</g>
</svg>
