<?xml version="1.0" encoding="UTF-8" standalone="no"?>
<!DOCTYPE svg PUBLIC "-//W3C//DTD SVG 1.1//EN"
 "http://www.w3.org/Graphics/SVG/1.1/DTD/svg11.dtd">
<!-- Generated by graphviz version 9.0.0 (20230911.1827)
 -->
<!-- Title: EncryptedFilesRepository Pages: 1 -->
<svg width="137pt" height="196pt"
 viewBox="0.00 0.00 136.50 196.00" xmlns="http://www.w3.org/2000/svg" xmlns:xlink="http://www.w3.org/1999/xlink">
<g id="graph0" class="graph" transform="scale(1 1) rotate(0) translate(4 192)">
<title>EncryptedFilesRepository</title>
<!-- Node1 -->
<g id="Node000001" class="node">
<title>Node1</title>
<g id="a_Node000001"><a xlink:title="Entity&#45;repository for encrypted file enitites.">
<polygon fill="#999999" stroke="#666666" points="128.5,-20 0,-20 0,0 128.5,0 128.5,-20"/>
<text text-anchor="middle" x="64.25" y="-6.5" font-family="Helvetica,sans-Serif" font-size="10.00">EncryptedFilesRepository</text>
</a>
</g>
</g>
<!-- Node2 -->
<g id="Node000002" class="node">
<title>Node2</title>
<g id="a_Node000002"><a xlink:href="class_o_c_a_1_1_c_a_f_e_v_d_b_1_1_database_1_1_doctrine_1_1_o_r_m_1_1_repositories_1_1_files_repository.html" target="_top" xlink:title="Entity&#45;repository for file enitites.">
<polygon fill="white" stroke="#666666" points="106.38,-76 22.12,-76 22.12,-56 106.38,-56 106.38,-76"/>
<text text-anchor="middle" x="64.25" y="-62.5" font-family="Helvetica,sans-Serif" font-size="10.00">FilesRepository</text>
</a>
</g>
</g>
<!-- Node2&#45;&gt;Node1 -->
<g id="edge1_Node000001_Node000002" class="edge">
<title>Node2&#45;&gt;Node1</title>
<g id="a_edge1_Node000001_Node000002"><a xlink:title=" ">
<path fill="none" stroke="#63b8ff" d="M64.25,-44.13C64.25,-35.9 64.25,-26.85 64.25,-20.3"/>
<polygon fill="#63b8ff" stroke="#63b8ff" points="60.75,-44.08 64.25,-54.08 67.75,-44.08 60.75,-44.08"/>
</a>
</g>
</g>
<!-- Node3 -->
<g id="Node000003" class="node">
<title>Node3</title>
<g id="a_Node000003"><a xlink:href="class_o_c_a_1_1_c_a_f_e_v_d_b_1_1_database_1_1_doctrine_1_1_o_r_m_1_1_repositories_1_1_entity_repository.html" target="_top" xlink:title="Base class for all of our repositories.">
<polygon fill="white" stroke="#666666" points="108.62,-132 19.88,-132 19.88,-112 108.62,-112 108.62,-132"/>
<text text-anchor="middle" x="64.25" y="-118.5" font-family="Helvetica,sans-Serif" font-size="10.00">EntityRepository</text>
</a>
</g>
</g>
<!-- Node3&#45;&gt;Node2 -->
<g id="edge2_Node000002_Node000003" class="edge">
<title>Node3&#45;&gt;Node2</title>
<g id="a_edge2_Node000002_Node000003"><a xlink:title=" ">
<path fill="none" stroke="#63b8ff" d="M64.25,-100.13C64.25,-91.9 64.25,-82.85 64.25,-76.3"/>
<polygon fill="#63b8ff" stroke="#63b8ff" points="60.75,-100.08 64.25,-110.08 67.75,-100.08 60.75,-100.08"/>
</a>
</g>
</g>
<!-- Node4 -->
<g id="Node000004" class="node">
<title>Node4</title>
<g id="a_Node000004"><a xlink:title=" ">
<polygon fill="white" stroke="#bfbfbf" points="108.62,-188 19.88,-188 19.88,-168 108.62,-168 108.62,-188"/>
<text text-anchor="middle" x="64.25" y="-174.5" font-family="Helvetica,sans-Serif" font-size="10.00">EntityRepository</text>
</a>
</g>
</g>
<!-- Node4&#45;&gt;Node3 -->
<g id="edge3_Node000003_Node000004" class="edge">
<title>Node4&#45;&gt;Node3</title>
<g id="a_edge3_Node000003_Node000004"><a xlink:title=" ">
<path fill="none" stroke="#63b8ff" d="M64.25,-156.13C64.25,-147.9 64.25,-138.85 64.25,-132.3"/>
<polygon fill="#63b8ff" stroke="#63b8ff" points="60.75,-156.08 64.25,-166.08 67.75,-156.08 60.75,-156.08"/>
</a>
</g>
</g>
</g>
</svg>
