<?xml version="1.0" encoding="UTF-8" standalone="no"?>
<!DOCTYPE svg PUBLIC "-//W3C//DTD SVG 1.1//EN"
 "http://www.w3.org/Graphics/SVG/1.1/DTD/svg11.dtd">
<!-- Generated by graphviz version 7.1.0 (20230121.1956)
 -->
<!-- Title: slugifyFileName Pages: 1 -->
<svg width="292pt" height="108pt"
 viewBox="0.00 0.00 292.00 108.00" xmlns="http://www.w3.org/2000/svg" xmlns:xlink="http://www.w3.org/1999/xlink">
<g id="graph0" class="graph" transform="scale(1 1) rotate(0) translate(4 104)">
<title>slugifyFileName</title>
<!-- Node1 -->
<g id="node1" class="node">
<title>Node1</title>
<g id="a_node1"><a xlink:title=" ">
<polygon fill="#999999" stroke="#666666" points="284,-59 197,-59 197,-40 284,-40 284,-59"/>
<text text-anchor="middle" x="240.5" y="-47" font-family="Helvetica,sans-Serif" font-size="10.00">slugifyFileName</text>
</a>
</g>
</g>
<!-- Node2 -->
<g id="node2" class="node">
<title>Node2</title>
<g id="a_node2"><a xlink:href="class_o_c_a_1_1_c_a_f_e_v_d_b_1_1_listener_1_1_participant_field_cloud_folder_listener.html#ae8c2f7e758fc6ecdf76269ec0173d4b3" target="_top" xlink:title="Reconstruct the field from the label, assuming the file&#45;name has the format LABEL&#45;JohnDoe....">
<polygon fill="white" stroke="#666666" points="161,-100 0,-100 0,-59 161,-59 161,-100"/>
<text text-anchor="start" x="8" y="-88" font-family="Helvetica,sans-Serif" font-size="10.00">OCA\CAFEVDB\Listener</text>
<text text-anchor="start" x="8" y="-77" font-family="Helvetica,sans-Serif" font-size="10.00">\ParticipantFieldCloudFolder</text>
<text text-anchor="middle" x="80.5" y="-66" font-family="Helvetica,sans-Serif" font-size="10.00">Listener\getOptionFromFileName</text>
</a>
</g>
</g>
<!-- Node1&#45;&gt;Node2 -->
<g id="edge1" class="edge">
<title>Node1&#45;&gt;Node2</title>
<path fill="none" stroke="#63b8ff" d="M185.6,-59.73C177.79,-61.22 169.62,-62.77 161.43,-64.32"/>
<polygon fill="#63b8ff" stroke="#63b8ff" points="186.08,-63.2 195.26,-57.9 184.78,-56.33 186.08,-63.2"/>
</g>
<!-- Node3 -->
<g id="node3" class="node">
<title>Node3</title>
<g id="a_node3"><a xlink:href="class_o_c_a_1_1_c_a_f_e_v_d_b_1_1_service_1_1_project_service.html#a4d2f0d701bacfd21d282006c86785ba3" target="_top" xlink:title="Avoid duplicated &quot;extensions&quot; in file&#45;names, i.e.">
<polygon fill="white" stroke="#666666" points="146,-41 15,-41 15,0 146,0 146,-41"/>
<text text-anchor="start" x="23" y="-29" font-family="Helvetica,sans-Serif" font-size="10.00">OCA\CAFEVDB\Service</text>
<text text-anchor="start" x="23" y="-18" font-family="Helvetica,sans-Serif" font-size="10.00">\ProjectService\participant</text>
<text text-anchor="middle" x="80.5" y="-7" font-family="Helvetica,sans-Serif" font-size="10.00">Filename</text>
</a>
</g>
</g>
<!-- Node1&#45;&gt;Node3 -->
<g id="edge2" class="edge">
<title>Node1&#45;&gt;Node3</title>
<path fill="none" stroke="#63b8ff" d="M185.47,-39.58C172.85,-37.27 159.29,-34.78 146.27,-32.39"/>
<polygon fill="#63b8ff" stroke="#63b8ff" points="184.79,-43.02 195.25,-41.38 186.05,-36.13 184.79,-43.02"/>
</g>
</g>
</svg>
