<?xml version="1.0" encoding="UTF-8" standalone="no"?>
<!DOCTYPE svg PUBLIC "-//W3C//DTD SVG 1.1//EN"
 "http://www.w3.org/Graphics/SVG/1.1/DTD/svg11.dtd">
<!-- Generated by graphviz version 8.0.3 (20230416.2022)
 -->
<!-- Title: getOptionByLabel Pages: 1 -->
<svg width="443pt" height="86pt"
 viewBox="0.00 0.00 443.00 86.00" xmlns="http://www.w3.org/2000/svg" xmlns:xlink="http://www.w3.org/1999/xlink">
<g id="graph0" class="graph" transform="scale(1 1) rotate(0) translate(4 82)">
<title>getOptionByLabel</title>
<!-- Node1 -->
<g id="node1" class="node">
<title>Node1</title>
<g id="a_node1"><a xlink:title="Search an option by its label.">
<polygon fill="#999999" stroke="#666666" points="94,-48.5 0,-48.5 0,-29.5 94,-29.5 94,-48.5"/>
<text text-anchor="middle" x="47" y="-36.5" font-family="Helvetica,sans-Serif" font-size="10.00">getOptionByLabel</text>
</a>
</g>
</g>
<!-- Node2 -->
<g id="node2" class="node">
<title>Node2</title>
<g id="a_node2"><a xlink:href="class_o_c_a_1_1_c_a_f_e_v_d_b_1_1_database_1_1_doctrine_1_1_util.html#aafe8e2082bd107d572aa76086a06b24e" target="_top" xlink:title="Convenience function.">
<polygon fill="white" stroke="#666666" points="265,-54 130,-54 130,-24 265,-24 265,-54"/>
<text text-anchor="start" x="138" y="-42" font-family="Helvetica,sans-Serif" font-size="10.00">OCA\CAFEVDB\Database</text>
<text text-anchor="middle" x="197.5" y="-31" font-family="Helvetica,sans-Serif" font-size="10.00">\Doctrine\Util\criteriaWhere</text>
</a>
</g>
</g>
<!-- Node1&#45;&gt;Node2 -->
<g id="edge1" class="edge">
<title>Node1&#45;&gt;Node2</title>
<path fill="none" stroke="#63b8ff" d="M94.17,-39C101.99,-39 110.29,-39 118.65,-39"/>
<polygon fill="#63b8ff" stroke="#63b8ff" points="118.64,-42.5 128.64,-39 118.64,-35.5 118.64,-42.5"/>
</g>
<!-- Node3 -->
<g id="node3" class="node">
<title>Node3</title>
<g id="a_node3"><a xlink:href="class_o_c_a_1_1_c_a_f_e_v_d_b_1_1_database_1_1_doctrine_1_1_util.html#af2691c40495d429502e48d4824f0b080" target="_top" xlink:title="Convenience function to generate Collections\Criteria.">
<polygon fill="white" stroke="#666666" points="435,-78 301,-78 301,-48 435,-48 435,-78"/>
<text text-anchor="start" x="309" y="-66" font-family="Helvetica,sans-Serif" font-size="10.00">OCA\CAFEVDB\Database</text>
<text text-anchor="middle" x="368" y="-55" font-family="Helvetica,sans-Serif" font-size="10.00">\Doctrine\Util\criteria</text>
</a>
</g>
</g>
<!-- Node2&#45;&gt;Node3 -->
<g id="edge2" class="edge">
<title>Node2&#45;&gt;Node3</title>
<path fill="none" stroke="#63b8ff" d="M265.1,-48.49C273.22,-49.64 281.57,-50.83 289.83,-52.01"/>
<polygon fill="#63b8ff" stroke="#63b8ff" points="289.22,-55.6 299.61,-53.54 290.21,-48.67 289.22,-55.6"/>
</g>
<!-- Node4 -->
<g id="node4" class="node">
<title>Node4</title>
<g id="a_node4"><a xlink:href="class_o_c_a_1_1_c_a_f_e_v_d_b_1_1_database_1_1_doctrine_1_1_util.html#ae987ce50626dd3e4a9b255037433c776" target="_top" xlink:title="Convenience function to generate CollectionsxpressionBuilder.">
<polygon fill="white" stroke="#666666" points="435,-30 301,-30 301,0 435,0 435,-30"/>
<text text-anchor="start" x="309" y="-18" font-family="Helvetica,sans-Serif" font-size="10.00">OCA\CAFEVDB\Database</text>
<text text-anchor="middle" x="368" y="-7" font-family="Helvetica,sans-Serif" font-size="10.00">\Doctrine\Util\criteriaExpr</text>
</a>
</g>
</g>
<!-- Node2&#45;&gt;Node4 -->
<g id="edge3" class="edge">
<title>Node2&#45;&gt;Node4</title>
<path fill="none" stroke="#63b8ff" d="M265.1,-29.51C273.22,-28.36 281.57,-27.17 289.83,-25.99"/>
<polygon fill="#63b8ff" stroke="#63b8ff" points="290.21,-29.33 299.61,-24.46 289.22,-22.4 290.21,-29.33"/>
</g>
</g>
</svg>
