<?xml version="1.0" encoding="UTF-8" standalone="no"?>
<!DOCTYPE svg PUBLIC "-//W3C//DTD SVG 1.1//EN"
 "http://www.w3.org/Graphics/SVG/1.1/DTD/svg11.dtd">
<!-- Generated by graphviz version 9.0.0 (20230911.1827)
 -->
<!-- Title: getUserValue Pages: 1 -->
<svg width="621pt" height="117pt"
 viewBox="0.00 0.00 620.75 117.46" xmlns="http://www.w3.org/2000/svg" xmlns:xlink="http://www.w3.org/1999/xlink">
<g id="graph0" class="graph" transform="scale(1 1) rotate(0) translate(4 113.46)">
<title>getUserValue</title>
<!-- Node1 -->
<g id="Node000001" class="node">
<title>Node1</title>
<g id="a_Node000001"><a xlink:title=" ">
<polygon fill="#999999" stroke="#666666" points="74.5,-52.46 0,-52.46 0,-32.46 74.5,-32.46 74.5,-52.46"/>
<text text-anchor="middle" x="37.25" y="-38.96" font-family="Helvetica,sans-Serif" font-size="10.00">getUserValue</text>
</a>
</g>
</g>
<!-- Node2 -->
<g id="Node000002" class="node">
<title>Node2</title>
<g id="a_Node000002"><a xlink:href="class_o_c_a_1_1_c_a_f_e_v_d_b_1_1_service_1_1_config_service.html#a3c0a8ca944cfd5a62a77b1c2cc2b49a8" target="_top" xlink:title=" ">
<polygon fill="white" stroke="#666666" points="194,-71.46 110.5,-71.46 110.5,-51.46 194,-51.46 194,-71.46"/>
<text text-anchor="middle" x="152.25" y="-57.96" font-family="Helvetica,sans-Serif" font-size="10.00">getCloudConfig</text>
</a>
</g>
</g>
<!-- Node1&#45;&gt;Node2 -->
<g id="edge1_Node000001_Node000002" class="edge">
<title>Node1&#45;&gt;Node2</title>
<g id="a_edge1_Node000001_Node000002"><a xlink:title=" ">
<path fill="none" stroke="#63b8ff" d="M74.94,-48.63C82.56,-49.91 90.73,-51.29 98.79,-52.64"/>
<polygon fill="#63b8ff" stroke="#63b8ff" points="98.11,-56.08 108.56,-54.28 99.27,-49.17 98.11,-56.08"/>
</a>
</g>
</g>
<!-- Node3 -->
<g id="Node000003" class="node">
<title>Node3</title>
<g id="a_Node000003"><a xlink:href="class_o_c_a_1_1_c_a_f_e_v_d_b_1_1_service_1_1_config_service.html#a05f6aa1ffae6295260d9f1cca016bf33" target="_top" xlink:title=" ">
<polygon fill="white" stroke="#666666" points="181.62,-33.46 122.88,-33.46 122.88,-13.46 181.62,-13.46 181.62,-33.46"/>
<text text-anchor="middle" x="152.25" y="-19.96" font-family="Helvetica,sans-Serif" font-size="10.00">getUserId</text>
</a>
</g>
</g>
<!-- Node1&#45;&gt;Node3 -->
<g id="edge2_Node000001_Node000003" class="edge">
<title>Node1&#45;&gt;Node3</title>
<g id="a_edge2_Node000001_Node000003"><a xlink:title=" ">
<path fill="none" stroke="#63b8ff" d="M74.94,-36.29C86.66,-34.32 99.68,-32.13 111.6,-30.13"/>
<polygon fill="#63b8ff" stroke="#63b8ff" points="111.84,-33.64 121.12,-28.53 110.68,-26.74 111.84,-33.64"/>
</a>
</g>
</g>
<!-- Node4 -->
<g id="Node000004" class="node">
<title>Node4</title>
<g id="a_Node000004"><a xlink:href="class_o_c_a_1_1_c_a_f_e_v_d_b_1_1_service_1_1_config_service.html#a8be64a59621bfe298a4109ce08229ecd" target="_top" xlink:title=" ">
<polygon fill="white" stroke="#666666" points="280.5,-33.46 230,-33.46 230,-13.46 280.5,-13.46 280.5,-33.46"/>
<text text-anchor="middle" x="255.25" y="-19.96" font-family="Helvetica,sans-Serif" font-size="10.00">getUser</text>
</a>
</g>
</g>
<!-- Node3&#45;&gt;Node4 -->
<g id="edge3_Node000003_Node000004" class="edge">
<title>Node3&#45;&gt;Node4</title>
<g id="a_edge3_Node000003_Node000004"><a xlink:title=" ">
<path fill="none" stroke="#63b8ff" d="M181.92,-23.46C193.21,-23.46 206.29,-23.46 218.21,-23.46"/>
<polygon fill="#63b8ff" stroke="#63b8ff" points="218.11,-26.96 228.11,-23.46 218.11,-19.96 218.11,-26.96"/>
</a>
</g>
</g>
<!-- Node5 -->
<g id="Node000005" class="node">
<title>Node5</title>
<g id="a_Node000005"><a xlink:href="class_o_c_a_1_1_c_a_f_e_v_d_b_1_1_service_1_1_config_service.html#a9645249ef330a927cede315afee62d5a" target="_top" xlink:title=" ">
<polygon fill="white" stroke="#666666" points="404.5,-109.46 316.5,-109.46 316.5,-89.46 404.5,-89.46 404.5,-109.46"/>
<text text-anchor="middle" x="360.5" y="-95.96" font-family="Helvetica,sans-Serif" font-size="10.00">getUserManager</text>
</a>
</g>
</g>
<!-- Node4&#45;&gt;Node5 -->
<g id="edge4_Node000004_Node000005" class="edge">
<title>Node4&#45;&gt;Node5</title>
<g id="a_edge4_Node000004_Node000005"><a xlink:title=" ">
<path fill="none" stroke="#63b8ff" d="M266.81,-33.75C278.43,-44.78 297.93,-62.47 316.5,-75.46 320.44,-78.22 324.72,-80.92 329.01,-83.47"/>
<polygon fill="#63b8ff" stroke="#63b8ff" points="327.12,-86.42 337.54,-88.3 330.57,-80.33 327.12,-86.42"/>
</a>
</g>
</g>
<!-- Node6 -->
<g id="Node000006" class="node">
<title>Node6</title>
<g id="a_Node000006"><a xlink:href="class_o_c_a_1_1_c_a_f_e_v_d_b_1_1_service_1_1_config_service.html#a8e80f766c9aa0f817b358aa67422985a" target="_top" xlink:title=" ">
<polygon fill="white" stroke="#666666" points="612.75,-52.46 527,-52.46 527,-32.46 612.75,-32.46 612.75,-52.46"/>
<text text-anchor="middle" x="569.88" y="-38.96" font-family="Helvetica,sans-Serif" font-size="10.00">getUserSession</text>
</a>
</g>
</g>
<!-- Node4&#45;&gt;Node6 -->
<g id="edge5_Node000004_Node000006" class="edge">
<title>Node4&#45;&gt;Node6</title>
<g id="a_edge5_Node000004_Node000006"><a xlink:title=" ">
<path fill="none" stroke="#63b8ff" d="M280.76,-33.06C291.54,-36.79 304.47,-40.61 316.5,-42.46 384.4,-52.91 463.79,-50.56 515.13,-47.17"/>
<polygon fill="#63b8ff" stroke="#63b8ff" points="515.36,-50.67 525.09,-46.47 514.87,-43.68 515.36,-50.67"/>
</a>
</g>
</g>
<!-- Node7 -->
<g id="Node000007" class="node">
<title>Node7</title>
<g id="a_Node000007"><a xlink:href="class_o_c_a_1_1_c_a_f_e_v_d_b_1_1_service_1_1_config_service.html#a6cacbeb3555df4a292566b2e1b9bb574" target="_top" xlink:title="Install a new user id.">
<polygon fill="white" stroke="#666666" points="389.88,-33.46 331.12,-33.46 331.12,-13.46 389.88,-13.46 389.88,-33.46"/>
<text text-anchor="middle" x="360.5" y="-19.96" font-family="Helvetica,sans-Serif" font-size="10.00">setUserId</text>
</a>
</g>
</g>
<!-- Node4&#45;&gt;Node7 -->
<g id="edge6_Node000004_Node000007" class="edge">
<title>Node4&#45;&gt;Node7</title>
<g id="a_edge6_Node000004_Node000007"><a xlink:title=" ">
<path fill="none" stroke="#63b8ff" d="M280.98,-17.6C292.61,-16.76 306.76,-16.51 319.83,-16.88"/>
<polygon fill="#63b8ff" stroke="#63b8ff" points="319.3,-20.36 329.44,-17.29 319.6,-13.36 319.3,-20.36"/>
</a>
</g>
</g>
<!-- Node7&#45;&gt;Node4 -->
<g id="edge7_Node000007_Node000004" class="edge">
<title>Node7&#45;&gt;Node4</title>
<g id="a_edge7_Node000007_Node000004"><a xlink:title=" ">
<path fill="none" stroke="#63b8ff" d="M330.95,-29.57C318.95,-30.29 304.84,-30.4 292.15,-29.93"/>
<polygon fill="#63b8ff" stroke="#63b8ff" points="292.67,-26.45 282.49,-29.4 292.29,-33.44 292.67,-26.45"/>
</a>
</g>
</g>
<!-- Node8 -->
<g id="Node000008" class="node">
<title>Node8</title>
<g id="a_Node000008"><a xlink:href="class_o_c_a_1_1_c_a_f_e_v_d_b_1_1_service_1_1_config_service.html#a7b6e5c12813dec3c45ec9531820c539a" target="_top" xlink:title="Install a new user.">
<polygon fill="white" stroke="#666666" points="491,-33.46 440.5,-33.46 440.5,-13.46 491,-13.46 491,-33.46"/>
<text text-anchor="middle" x="465.75" y="-19.96" font-family="Helvetica,sans-Serif" font-size="10.00">setUser</text>
</a>
</g>
</g>
<!-- Node7&#45;&gt;Node8 -->
<g id="edge8_Node000007_Node000008" class="edge">
<title>Node7&#45;&gt;Node8</title>
<g id="a_edge8_Node000007_Node000008"><a xlink:title=" ">
<path fill="none" stroke="#63b8ff" d="M390.26,-23.46C402.32,-23.46 416.47,-23.46 429.18,-23.46"/>
<polygon fill="#63b8ff" stroke="#63b8ff" points="428.82,-26.96 438.82,-23.46 428.82,-19.96 428.82,-26.96"/>
</a>
</g>
</g>
<!-- Node8&#45;&gt;Node4 -->
<g id="edge9_Node000008_Node000004" class="edge">
<title>Node8&#45;&gt;Node4</title>
<g id="a_edge9_Node000008_Node000004"><a xlink:title=" ">
<path fill="none" stroke="#63b8ff" d="M440.24,-13.86C429.46,-10.13 416.53,-6.32 404.5,-4.46 365.84,1.49 355.16,1.49 316.5,-4.46 308.32,-5.72 299.73,-7.89 291.68,-10.32"/>
<polygon fill="#63b8ff" stroke="#63b8ff" points="290.63,-6.98 282.2,-13.4 292.79,-13.64 290.63,-6.98"/>
</a>
</g>
</g>
<!-- Node8&#45;&gt;Node6 -->
<g id="edge10_Node000008_Node000006" class="edge">
<title>Node8&#45;&gt;Node6</title>
<g id="a_edge10_Node000008_Node000006"><a xlink:title=" ">
<path fill="none" stroke="#63b8ff" d="M491.47,-28.06C498.86,-29.44 507.26,-31 515.74,-32.58"/>
<polygon fill="#63b8ff" stroke="#63b8ff" points="514.89,-35.98 525.36,-34.37 516.17,-29.1 514.89,-35.98"/>
</a>
</g>
</g>
</g>
</svg>
