<?xml version="1.0" encoding="UTF-8" standalone="no"?>
<!DOCTYPE svg PUBLIC "-//W3C//DTD SVG 1.1//EN"
 "http://www.w3.org/Graphics/SVG/1.1/DTD/svg11.dtd">
<!-- Generated by graphviz version 9.0.0 (20230911.1827)
 -->
<!-- Title: getGroup Pages: 1 -->
<svg width="206pt" height="104pt"
 viewBox="0.00 0.00 205.75 104.00" xmlns="http://www.w3.org/2000/svg" xmlns:xlink="http://www.w3.org/1999/xlink">
<g id="graph0" class="graph" transform="scale(1 1) rotate(0) translate(4 100)">
<title>getGroup</title>
<!-- Node1 -->
<g id="Node000001" class="node">
<title>Node1</title>
<g id="a_Node000001"><a xlink:title=" ">
<polygon fill="#999999" stroke="#666666" points="197.75,-58 142,-58 142,-38 197.75,-38 197.75,-58"/>
<text text-anchor="middle" x="169.88" y="-44.5" font-family="Helvetica,sans-Serif" font-size="10.00">getGroup</text>
</a>
</g>
</g>
<!-- Node2 -->
<g id="Node000002" class="node">
<title>Node2</title>
<g id="a_Node000002"><a xlink:href="class_o_c_a_1_1_c_a_f_e_v_d_b_1_1_service_1_1_config_service.html#adeb37b77de6c78ae8303acd786f08ebf" target="_top" xlink:title="Return all the sub&#45;admins of the given or the configured orchestra group.">
<polygon fill="white" stroke="#666666" points="106,-96 0,-96 0,-76 106,-76 106,-96"/>
<text text-anchor="middle" x="53" y="-82.5" font-family="Helvetica,sans-Serif" font-size="10.00">getGroupSubAdmins</text>
</a>
</g>
</g>
<!-- Node1&#45;&gt;Node2 -->
<g id="edge1_Node000001_Node000002" class="edge">
<title>Node1&#45;&gt;Node2</title>
<g id="a_edge1_Node000001_Node000002"><a xlink:title=" ">
<path fill="none" stroke="#63b8ff" d="M130.86,-60.58C116.15,-65.44 99.52,-70.94 85.5,-75.58"/>
<polygon fill="#63b8ff" stroke="#63b8ff" points="131.82,-63.94 140.21,-57.48 129.62,-57.3 131.82,-63.94"/>
</a>
</g>
</g>
<!-- Node3 -->
<g id="Node000003" class="node">
<title>Node3</title>
<g id="a_Node000003"><a xlink:href="class_o_c_a_1_1_c_a_f_e_v_d_b_1_1_service_1_1_config_service.html#a8c408b160c3fecad5096a23d49209fa6" target="_top" xlink:title="Return the dedicated admin&#45;group if it exists.">
<polygon fill="white" stroke="#666666" points="103.38,-58 2.62,-58 2.62,-38 103.38,-38 103.38,-58"/>
<text text-anchor="middle" x="53" y="-44.5" font-family="Helvetica,sans-Serif" font-size="10.00">getSubAdminGroup</text>
</a>
</g>
</g>
<!-- Node1&#45;&gt;Node3 -->
<g id="edge2_Node000001_Node000003" class="edge">
<title>Node1&#45;&gt;Node3</title>
<g id="a_edge2_Node000001_Node000003"><a xlink:title=" ">
<path fill="none" stroke="#63b8ff" d="M130.39,-48C121.77,-48 112.52,-48 103.52,-48"/>
<polygon fill="#63b8ff" stroke="#63b8ff" points="130.14,-51.5 140.14,-48 130.14,-44.5 130.14,-51.5"/>
</a>
</g>
</g>
<!-- Node4 -->
<g id="Node000004" class="node">
<title>Node4</title>
<g id="a_Node000004"><a xlink:href="class_o_c_a_1_1_c_a_f_e_v_d_b_1_1_service_1_1_config_service.html#a4eb4832e8e3774063978db6e58d29edc" target="_top" xlink:title=" ">
<polygon fill="white" stroke="#666666" points="105.62,-20 0.38,-20 0.38,0 105.62,0 105.62,-20"/>
<text text-anchor="middle" x="53" y="-6.5" font-family="Helvetica,sans-Serif" font-size="10.00">isSubAdminOfGroup</text>
</a>
</g>
</g>
<!-- Node1&#45;&gt;Node4 -->
<g id="edge3_Node000001_Node000004" class="edge">
<title>Node1&#45;&gt;Node4</title>
<g id="a_edge3_Node000001_Node000004"><a xlink:title=" ">
<path fill="none" stroke="#63b8ff" d="M130.86,-35.42C116.15,-30.56 99.52,-25.06 85.5,-20.42"/>
<polygon fill="#63b8ff" stroke="#63b8ff" points="129.62,-38.7 140.21,-38.52 131.82,-32.06 129.62,-38.7"/>
</a>
</g>
</g>
</g>
</svg>
