<?xml version="1.0" encoding="UTF-8" standalone="no"?>
<!DOCTYPE svg PUBLIC "-//W3C//DTD SVG 1.1//EN"
 "http://www.w3.org/Graphics/SVG/1.1/DTD/svg11.dtd">
<!-- Generated by graphviz version 7.1.0 (20230121.1956)
 -->
<!-- Title: metaData Pages: 1 -->
<!--zoomable 103 -->
<svg id="main" version="1.1" xmlns="http://www.w3.org/2000/svg" xmlns:xlink="http://www.w3.org/1999/xlink" xml:space="preserve" onload="init(evt)">
<style type="text/css"><![CDATA[
.edge:hover path { stroke: red; }
.edge:hover polygon { stroke: red; fill: red; }
]]></style>
<script type="text/javascript"><![CDATA[
var edges = document.getElementsByTagName('g');
if (edges && edges.length) {
  for (var i=0;i<edges.length;i++) {
    if (edges[i].id.substr(0,4)=='edge') {
      edges[i].setAttribute('class','edge');
    }
  }
}
]]></script>
        <defs>
                <circle id="rim" cx="0" cy="0" r="7"/>
                <circle id="rim2" cx="0" cy="0" r="3.5"/>
                <g id="zoomPlus">
                        <use xlink:href="#rim" fill="#404040">
                                <set attributeName="fill" to="#808080" begin="zoomplus.mouseover" end="zoomplus.mouseout"/>
                        </use>
                        <path d="M-4,0h8M0,-4v8" fill="none" stroke="white" stroke-width="1.5" pointer-events="none"/>
                </g>
                <g id="zoomMin">
                        <use xlink:href="#rim" fill="#404040">
                                <set attributeName="fill" to="#808080" begin="zoomminus.mouseover" end="zoomminus.mouseout"/>
                        </use>
                        <path d="M-4,0h8" fill="none" stroke="white" stroke-width="1.5" pointer-events="none"/>
                </g>
                <g id="dirArrow">
                        <path fill="none" stroke="white" stroke-width="1.5" d="M0,-3.0v7 M-2.5,-0.5L0,-3.0L2.5,-0.5"/>
                </g>
               <g id="resetDef">
                       <use xlink:href="#rim2" fill="#404040">
                               <set attributeName="fill" to="#808080" begin="reset.mouseover" end="reset.mouseout"/>
                       </use>
               </g>
        </defs>

<script type="text/javascript">
var viewWidth = 570;
var viewHeight = 103;
var sectionId = 'dynsection-9';
</script>
<script xlink:href="svgpan.js"/>
<svg id="graph" class="graph">
<g id="viewport">
<title>metaData</title>
<!-- Node1 -->
<g id="node1" class="node">
<title>Node1</title>
<g id="a_node1"><a xlink:title="Return new&#45;line formatted meta&#45;data for the current or the given number and region.">
<polygon fill="#999999" stroke="#666666" points="59,-75 0,-75 0,-56 59,-56 59,-75"/>
<text text-anchor="middle" x="29.5" y="-63" font-family="Helvetica,sans-Serif" font-size="10.00">metaData</text>
</a>
</g>
</g>
<!-- Node2 -->
<g id="node2" class="node">
<title>Node2</title>
<g id="a_node2"><a xlink:href="class_o_c_a_1_1_c_a_f_e_v_d_b_1_1_service_1_1_phone_number_service.html#a1f54caac71fbe16692d752e9648eaaf5" target="_top" xlink:title=" ">
<polygon fill="white" stroke="#666666" points="309,-95 241,-95 241,-76 309,-76 309,-95"/>
<text text-anchor="middle" x="275" y="-83" font-family="Helvetica,sans-Serif" font-size="10.00">getBackend</text>
</a>
</g>
</g>
<!-- Node1&#45;&gt;Node2 -->
<g id="edge1" class="edge">
<title>Node1&#45;&gt;Node2</title>
<path fill="none" stroke="#63b8ff" d="M58.06,-75.47C69.35,-79.07 82.64,-82.68 95,-84.5 140.5,-91.19 193.21,-90.48 229.59,-88.69"/>
<polygon fill="#63b8ff" stroke="#63b8ff" points="229.49,-92.2 239.29,-88.16 229.11,-85.21 229.49,-92.2"/>
</g>
<!-- Node4 -->
<g id="node4" class="node">
<title>Node4</title>
<g id="a_node4"><a xlink:href="class_o_c_a_1_1_c_a_f_e_v_d_b_1_1_service_1_1_phone_number_service.html#ac21f7fb8408ebe0b0e46c11e280dcf24" target="_top" xlink:title="Lazy initializer for the number&#45;type&#45;to&#45;locale conversion.">
<polygon fill="white" stroke="#666666" points="205,-75 95,-75 95,-56 205,-56 205,-75"/>
<text text-anchor="middle" x="150" y="-63" font-family="Helvetica,sans-Serif" font-size="10.00">translateNumberType</text>
</a>
</g>
</g>
<!-- Node1&#45;&gt;Node4 -->
<g id="edge3" class="edge">
<title>Node1&#45;&gt;Node4</title>
<path fill="none" stroke="#63b8ff" d="M59.49,-65.5C66.84,-65.5 75.03,-65.5 83.4,-65.5"/>
<polygon fill="#63b8ff" stroke="#63b8ff" points="83.34,-69 93.34,-65.5 83.34,-62 83.34,-69"/>
</g>
<!-- Node5 -->
<g id="node5" class="node">
<title>Node5</title>
<g id="a_node5"><a xlink:href="class_o_c_a_1_1_c_a_f_e_v_d_b_1_1_service_1_1_phone_number_service.html#a8c950d27bc55749ec38cd0ade17222f5" target="_top" xlink:title=" ">
<polygon fill="white" stroke="#666666" points="175,-38 125,-38 125,-19 175,-19 175,-38"/>
<text text-anchor="middle" x="150" y="-26" font-family="Helvetica,sans-Serif" font-size="10.00">validate</text>
</a>
</g>
</g>
<!-- Node1&#45;&gt;Node5 -->
<g id="edge4" class="edge">
<title>Node1&#45;&gt;Node5</title>
<path fill="none" stroke="#63b8ff" d="M59.49,-56.45C75.9,-51.32 96.55,-44.88 113.88,-39.47"/>
<polygon fill="#63b8ff" stroke="#63b8ff" points="114.76,-42.86 123.26,-36.54 112.67,-36.18 114.76,-42.86"/>
</g>
<!-- Node3 -->
<g id="node3" class="node">
<title>Node3</title>
<g id="a_node3"><a xlink:href="class_o_c_a_1_1_c_a_f_e_v_d_b_1_1_service_1_1_phone_number_service.html#a08a954d92f510f5df4e347a7557ba5e8" target="_top" xlink:title=" ">
<polygon fill="white" stroke="#666666" points="562,-57 473,-57 473,-38 562,-38 562,-57"/>
<text text-anchor="middle" x="517.5" y="-45" font-family="Helvetica,sans-Serif" font-size="10.00">initializeDefaults</text>
</a>
</g>
</g>
<!-- Node2&#45;&gt;Node3 -->
<g id="edge2" class="edge">
<title>Node2&#45;&gt;Node3</title>
<path fill="none" stroke="#63b8ff" d="M309.47,-82.7C342.15,-79.7 393.22,-74.29 437,-66.5 446.95,-64.73 457.51,-62.48 467.58,-60.14"/>
<polygon fill="#63b8ff" stroke="#63b8ff" points="468.29,-63.57 477.21,-57.85 466.67,-56.76 468.29,-63.57"/>
</g>
<!-- Node5&#45;&gt;Node2 -->
<g id="edge5" class="edge">
<title>Node5&#45;&gt;Node2</title>
<path fill="none" stroke="#63b8ff" d="M175.26,-36.08C184.68,-39.27 195.48,-43.24 205,-47.5 219.63,-54.05 235.32,-62.56 248.04,-69.87"/>
<polygon fill="#63b8ff" stroke="#63b8ff" points="246.23,-72.87 256.63,-74.9 249.77,-66.83 246.23,-72.87"/>
</g>
<!-- Node6 -->
<g id="node6" class="node">
<title>Node6</title>
<g id="a_node6"><a xlink:href="class_o_c_a_1_1_c_a_f_e_v_d_b_1_1_service_1_1_phone_number_service.html#a17afded57ab95f68179da65bde0e5f0c" target="_top" xlink:title=" ">
<polygon fill="white" stroke="#666666" points="437,-57 345,-57 345,-38 437,-38 437,-57"/>
<text text-anchor="middle" x="391" y="-45" font-family="Helvetica,sans-Serif" font-size="10.00">getDefaultRegion</text>
</a>
</g>
</g>
<!-- Node5&#45;&gt;Node6 -->
<g id="edge6" class="edge">
<title>Node5&#45;&gt;Node6</title>
<path fill="none" stroke="#63b8ff" d="M175.23,-30.43C212,-33.35 282.93,-38.99 333.2,-42.98"/>
<polygon fill="#63b8ff" stroke="#63b8ff" points="332.79,-46.46 343.04,-43.77 333.35,-39.49 332.79,-46.46"/>
</g>
<!-- Node7 -->
<g id="node7" class="node">
<title>Node7</title>
<g id="a_node7"><a xlink:href="class_o_c_a_1_1_c_a_f_e_v_d_b_1_1_service_1_1_phone_number_service.html#a5e70683882a307d0d4c7ef1b3e546747" target="_top" xlink:title="Add the default area code if the number does not start with + or 0, and do some other normalization,...">
<polygon fill="white" stroke="#666666" points="304.5,-19 245.5,-19 245.5,0 304.5,0 304.5,-19"/>
<text text-anchor="middle" x="275" y="-7" font-family="Helvetica,sans-Serif" font-size="10.00">normalize</text>
</a>
</g>
</g>
<!-- Node5&#45;&gt;Node7 -->
<g id="edge8" class="edge">
<title>Node5&#45;&gt;Node7</title>
<path fill="none" stroke="#63b8ff" d="M175.3,-24.75C192.08,-22.15 214.77,-18.65 234.17,-15.65"/>
<polygon fill="#63b8ff" stroke="#63b8ff" points="234.59,-19.13 243.94,-14.14 233.52,-12.21 234.59,-19.13"/>
</g>
<!-- Node6&#45;&gt;Node3 -->
<g id="edge7" class="edge">
<title>Node6&#45;&gt;Node3</title>
<path fill="none" stroke="#63b8ff" d="M437.3,-47.5C445.14,-47.5 453.38,-47.5 461.45,-47.5"/>
<polygon fill="#63b8ff" stroke="#63b8ff" points="461.18,-51 471.18,-47.5 461.18,-44 461.18,-51"/>
</g>
<!-- Node8 -->
<g id="node8" class="node">
<title>Node8</title>
<g id="a_node8"><a xlink:href="class_o_c_a_1_1_c_a_f_e_v_d_b_1_1_service_1_1_phone_number_service.html#a97eaa8dc5677e033634c7b612474b521" target="_top" xlink:title=" ">
<polygon fill="white" stroke="#666666" points="434.5,-20 347.5,-20 347.5,-1 434.5,-1 434.5,-20"/>
<text text-anchor="middle" x="391" y="-8" font-family="Helvetica,sans-Serif" font-size="10.00">getDefaultPrefix</text>
</a>
</g>
</g>
<!-- Node7&#45;&gt;Node8 -->
<g id="edge9" class="edge">
<title>Node7&#45;&gt;Node8</title>
<path fill="none" stroke="#63b8ff" d="M304.77,-9.75C314.16,-9.83 324.93,-9.93 335.58,-10.02"/>
<polygon fill="#63b8ff" stroke="#63b8ff" points="335.47,-13.52 345.5,-10.11 335.53,-6.52 335.47,-13.52"/>
</g>
<!-- Node8&#45;&gt;Node3 -->
<g id="edge10" class="edge">
<title>Node8&#45;&gt;Node3</title>
<path fill="none" stroke="#63b8ff" d="M425.36,-20.42C439.74,-24.69 456.75,-29.74 472.17,-34.32"/>
<polygon fill="#63b8ff" stroke="#63b8ff" points="471.01,-37.63 481.59,-37.13 473,-30.92 471.01,-37.63"/>
</g>
</g>
</svg>
        <g id="navigator" transform="translate(0 0)" fill="#404254">
                <rect fill="#f2f5e9" fill-opacity="0.5" stroke="#606060" stroke-width=".5" x="0" y="0" width="60" height="60"/>
                <use id="zoomplus" xlink:href="#zoomPlus" x="17" y="9" onmousedown="handleZoom(evt,'in')"/>
                <use id="zoomminus" xlink:href="#zoomMin" x="42" y="9" onmousedown="handleZoom(evt,'out')"/>
                <use id="reset" xlink:href="#resetDef" x="30" y="36" onmousedown="handleReset()"/>
                <g id="arrowUp" xlink:href="#dirArrow" transform="translate(30 24)" onmousedown="handlePan(0,-1)">
                  <use xlink:href="#rim" fill="#404040">
                        <set attributeName="fill" to="#808080" begin="arrowUp.mouseover" end="arrowUp.mouseout"/>
                  </use>
                  <path fill="none" stroke="white" stroke-width="1.5" d="M0,-3.0v7 M-2.5,-0.5L0,-3.0L2.5,-0.5"/>
                </g>
                <g id="arrowRight" xlink:href="#dirArrow" transform="rotate(90) translate(36 -43)" onmousedown="handlePan(1,0)">
                  <use xlink:href="#rim" fill="#404040">
                        <set attributeName="fill" to="#808080" begin="arrowRight.mouseover" end="arrowRight.mouseout"/>
                  </use>
                  <path fill="none" stroke="white" stroke-width="1.5" d="M0,-3.0v7 M-2.5,-0.5L0,-3.0L2.5,-0.5"/>
                </g>
                <g id="arrowDown" xlink:href="#dirArrow" transform="rotate(180) translate(-30 -48)" onmousedown="handlePan(0,1)">
                  <use xlink:href="#rim" fill="#404040">
                        <set attributeName="fill" to="#808080" begin="arrowDown.mouseover" end="arrowDown.mouseout"/>
                  </use>
                  <path fill="none" stroke="white" stroke-width="1.5" d="M0,-3.0v7 M-2.5,-0.5L0,-3.0L2.5,-0.5"/>
                </g>
                <g id="arrowLeft" xlink:href="#dirArrow" transform="rotate(270) translate(-36 17)" onmousedown="handlePan(-1,0)">
                  <use xlink:href="#rim" fill="#404040">
                        <set attributeName="fill" to="#808080" begin="arrowLeft.mouseover" end="arrowLeft.mouseout"/>
                  </use>
                  <path fill="none" stroke="white" stroke-width="1.5" d="M0,-3.0v7 M-2.5,-0.5L0,-3.0L2.5,-0.5"/>
                </g>
        </g>
        <svg viewBox="0 0 15 15" width="100%" height="30px" preserveAspectRatio="xMaxYMin meet">
         <g id="arrow_out" transform="scale(0.3 0.3)">
          <a xlink:href="class_o_c_a_1_1_c_a_f_e_v_d_b_1_1_service_1_1_phone_number_service_ab5d979416900f9fed11ab7285356c356_cgraph_org.svg" target="_base">
           <rect id="button" ry="5" rx="5" y="6" x="6" height="38" width="38"
                fill="#f2f5e9" fill-opacity="0.5" stroke="#606060" stroke-width="1.0"/>
           <path id="arrow"
             d="M 11.500037,31.436501 C 11.940474,20.09759 22.043105,11.32322 32.158766,21.979434 L 37.068811,17.246167 C 37.068811,17.246167 37.088388,32 37.088388,32 L 22.160133,31.978069 C 22.160133,31.978069 26.997745,27.140456 26.997745,27.140456 C 18.528582,18.264221 13.291696,25.230495 11.500037,31.436501 z"
             style="fill:#404040;"/>
          </a>
         </g>
        </svg>
</svg>
