<?xml version="1.0" encoding="UTF-8" standalone="no"?>
<!DOCTYPE svg PUBLIC "-//W3C//DTD SVG 1.1//EN"
 "http://www.w3.org/Graphics/SVG/1.1/DTD/svg11.dtd">
<!-- Generated by graphviz version 7.1.0 (20230121.1956)
 -->
<!-- Title: sanitizePersist Pages: 1 -->
<svg width="359pt" height="86pt"
 viewBox="0.00 0.00 359.00 86.00" xmlns="http://www.w3.org/2000/svg" xmlns:xlink="http://www.w3.org/1999/xlink">
<g id="graph0" class="graph" transform="scale(1 1) rotate(0) translate(4 82)">
<title>sanitizePersist</title>
<!-- Node1 -->
<g id="node1" class="node">
<title>Node1</title>
<g id="a_node1"><a xlink:title="{{Call sanitize(SANITIZE_PERSIST, $flush).void\SanitizerException}}">
<polygon fill="#999999" stroke="#666666" points="81,-59 0,-59 0,-40 81,-40 81,-59"/>
<text text-anchor="middle" x="40.5" y="-47" font-family="Helvetica,sans-Serif" font-size="10.00">sanitizePersist</text>
</a>
</g>
</g>
<!-- Node2 -->
<g id="node2" class="node">
<title>Node2</title>
<g id="a_node2"><a xlink:href="class_o_c_a_1_1_c_a_f_e_v_d_b_1_1_maintenance_1_1_sanitizers_1_1_google_mail_sanitizer.html#a6cfd3fa108b089d483f43cf4142d9e68" target="_top" xlink:title=" ">
<polygon fill="white" stroke="#666666" points="314,-78 240,-78 240,-59 314,-59 314,-78"/>
<text text-anchor="middle" x="277" y="-66" font-family="Helvetica,sans-Serif" font-size="10.00">otherAddress</text>
</a>
</g>
</g>
<!-- Node1&#45;&gt;Node2 -->
<g id="edge1" class="edge">
<title>Node1&#45;&gt;Node2</title>
<path fill="none" stroke="#63b8ff" d="M81.28,-52.72C121.86,-56.01 184.84,-61.11 228.13,-64.62"/>
<polygon fill="#63b8ff" stroke="#63b8ff" points="227.74,-68.1 237.99,-65.42 228.31,-61.12 227.74,-68.1"/>
</g>
<!-- Node3 -->
<g id="node3" class="node">
<title>Node3</title>
<g id="a_node3"><a xlink:href="class_o_c_a_1_1_c_a_f_e_v_d_b_1_1_maintenance_1_1_sanitizers_1_1_google_mail_sanitizer.html#a184909dab34698899937d810a9f5d393" target="_top" xlink:title="{{bool Return \true if the entity is ok to the judgement of this sanitizer, \false otherwise....">
<polygon fill="white" stroke="#666666" points="167,-40 117,-40 117,-21 167,-21 167,-40"/>
<text text-anchor="middle" x="142" y="-28" font-family="Helvetica,sans-Serif" font-size="10.00">validate</text>
</a>
</g>
</g>
<!-- Node1&#45;&gt;Node3 -->
<g id="edge2" class="edge">
<title>Node1&#45;&gt;Node3</title>
<path fill="none" stroke="#63b8ff" d="M81.4,-41.88C89.3,-40.37 97.54,-38.8 105.29,-37.32"/>
<polygon fill="#63b8ff" stroke="#63b8ff" points="105.91,-40.76 115.07,-35.45 104.59,-33.89 105.91,-40.76"/>
</g>
<!-- Node3&#45;&gt;Node2 -->
<g id="edge4" class="edge">
<title>Node3&#45;&gt;Node2</title>
<path fill="none" stroke="#63b8ff" d="M167.43,-38.55C178.29,-42.05 191.24,-46.11 203,-49.5 211.22,-51.87 220.01,-54.27 228.53,-56.53"/>
<polygon fill="#63b8ff" stroke="#63b8ff" points="227.48,-59.87 238.04,-59.02 229.26,-53.1 227.48,-59.87"/>
</g>
<!-- Node4 -->
<g id="node4" class="node">
<title>Node4</title>
<g id="a_node4"><a xlink:href="class_o_c_a_1_1_c_a_f_e_v_d_b_1_1_maintenance_1_1_sanitizers_1_1_abstract_sanitizer.html#ad60c68165a8e9716714c651edc2dd159" target="_top" xlink:title=" ">
<polygon fill="white" stroke="#666666" points="351,-41 203,-41 203,0 351,0 351,-41"/>
<text text-anchor="start" x="211" y="-29" font-family="Helvetica,sans-Serif" font-size="10.00">OCA\CAFEVDB\Maintenance</text>
<text text-anchor="start" x="211" y="-18" font-family="Helvetica,sans-Serif" font-size="10.00">\Sanitizers\AbstractSanitizer</text>
<text text-anchor="middle" x="277" y="-7" font-family="Helvetica,sans-Serif" font-size="10.00">\addMessage</text>
</a>
</g>
</g>
<!-- Node3&#45;&gt;Node4 -->
<g id="edge3" class="edge">
<title>Node3&#45;&gt;Node4</title>
<path fill="none" stroke="#63b8ff" d="M167.39,-28.67C174.43,-28.14 182.54,-27.53 191.09,-26.88"/>
<polygon fill="#63b8ff" stroke="#63b8ff" points="191.31,-30.38 201.02,-26.14 190.79,-23.4 191.31,-30.38"/>
</g>
</g>
</svg>
