<?xml version="1.0" encoding="UTF-8" standalone="no"?>
<!DOCTYPE svg PUBLIC "-//W3C//DTD SVG 1.1//EN"
 "http://www.w3.org/Graphics/SVG/1.1/DTD/svg11.dtd">
<!-- Generated by graphviz version 8.0.3 (20230416.2022)
 -->
<!-- Title: __construct Pages: 1 -->
<svg width="416pt" height="97pt"
 viewBox="0.00 0.00 416.00 97.00" xmlns="http://www.w3.org/2000/svg" xmlns:xlink="http://www.w3.org/1999/xlink">
<g id="graph0" class="graph" transform="scale(1 1) rotate(0) translate(4 93)">
<title>__construct</title>
<!-- Node1 -->
<g id="node1" class="node">
<title>Node1</title>
<g id="a_node1"><a xlink:title="{}">
<polygon fill="#999999" stroke="#666666" points="68,-54 0,-54 0,-35 68,-35 68,-54"/>
<text text-anchor="middle" x="34" y="-42" font-family="Helvetica,sans-Serif" font-size="10.00">__construct</text>
</a>
</g>
</g>
<!-- Node2 -->
<g id="node2" class="node">
<title>Node2</title>
<g id="a_node2"><a xlink:href="class_o_c_a_1_1_c_a_f_e_v_d_b_1_1_database_1_1_doctrine_1_1_o_r_m_1_1_entities_1_1_encrypted_file.html#a2c46956a30b29141fd3b93833d3f94e2" target="_top" xlink:title="Add the given musician to the list of owners.">
<polygon fill="white" stroke="#666666" points="201.5,-78 140.5,-78 140.5,-59 201.5,-59 201.5,-78"/>
<text text-anchor="middle" x="171" y="-66" font-family="Helvetica,sans-Serif" font-size="10.00">addOwner</text>
</a>
</g>
</g>
<!-- Node1&#45;&gt;Node2 -->
<g id="edge1" class="edge">
<title>Node1&#45;&gt;Node2</title>
<path fill="none" stroke="#63b8ff" d="M68.37,-50.43C86.86,-53.72 109.99,-57.83 129.51,-61.3"/>
<polygon fill="#63b8ff" stroke="#63b8ff" points="128.77,-64.9 139.23,-63.21 130,-58.01 128.77,-64.9"/>
</g>
<!-- Node4 -->
<g id="node4" class="node">
<title>Node4</title>
<g id="a_node4"><a xlink:href="class_o_c_a_1_1_c_a_f_e_v_d_b_1_1_database_1_1_doctrine_1_1_o_r_m_1_1_entities_1_1_file.html#a0b7feca9a4a78e5d4e484d09193b7011" target="_top" xlink:title="Set FileData.">
<polygon fill="white" stroke="#666666" points="238,-41 104,-41 104,0 238,0 238,-41"/>
<text text-anchor="start" x="112" y="-29" font-family="Helvetica,sans-Serif" font-size="10.00">OCA\CAFEVDB\Database</text>
<text text-anchor="start" x="112" y="-18" font-family="Helvetica,sans-Serif" font-size="10.00">\Doctrine\ORM\Entities</text>
<text text-anchor="middle" x="171" y="-7" font-family="Helvetica,sans-Serif" font-size="10.00">\File\setFileData</text>
</a>
</g>
</g>
<!-- Node1&#45;&gt;Node4 -->
<g id="edge3" class="edge">
<title>Node1&#45;&gt;Node4</title>
<path fill="none" stroke="#63b8ff" d="M68.37,-38.57C75.98,-37.22 84.37,-35.72 92.97,-34.2"/>
<polygon fill="#63b8ff" stroke="#63b8ff" points="93.29,-37.51 102.52,-32.32 92.06,-30.62 93.29,-37.51"/>
</g>
<!-- Node3 -->
<g id="node3" class="node">
<title>Node3</title>
<g id="a_node3"><a xlink:href="class_o_c_a_1_1_c_a_f_e_v_d_b_1_1_database_1_1_doctrine_1_1_o_r_m_1_1_entities_1_1_musician.html#a12251d0c022e9e21c137a105ff683f13" target="_top" xlink:title="Get id.">
<polygon fill="white" stroke="#666666" points="408,-89 274,-89 274,-48 408,-48 408,-89"/>
<text text-anchor="start" x="282" y="-77" font-family="Helvetica,sans-Serif" font-size="10.00">OCA\CAFEVDB\Database</text>
<text text-anchor="start" x="282" y="-66" font-family="Helvetica,sans-Serif" font-size="10.00">\Doctrine\ORM\Entities</text>
<text text-anchor="middle" x="341" y="-55" font-family="Helvetica,sans-Serif" font-size="10.00">\Musician\getId</text>
</a>
</g>
</g>
<!-- Node2&#45;&gt;Node3 -->
<g id="edge2" class="edge">
<title>Node2&#45;&gt;Node3</title>
<path fill="none" stroke="#63b8ff" d="M201.65,-68.5C218.73,-68.5 241.07,-68.5 262.8,-68.5"/>
<polygon fill="#63b8ff" stroke="#63b8ff" points="262.73,-72 272.73,-68.5 262.73,-65 262.73,-72"/>
</g>
</g>
</svg>
