<?xml version="1.0" encoding="UTF-8" standalone="no"?>
<!DOCTYPE svg PUBLIC "-//W3C//DTD SVG 1.1//EN"
 "http://www.w3.org/Graphics/SVG/1.1/DTD/svg11.dtd">
<!-- Generated by graphviz version 7.1.0 (20230121.1956)
 -->
<!-- Title: initializeDefaults Pages: 1 -->
<svg width="510pt" height="154pt"
 viewBox="0.00 0.00 510.00 154.00" xmlns="http://www.w3.org/2000/svg" xmlns:xlink="http://www.w3.org/1999/xlink">
<g id="graph0" class="graph" transform="scale(1 1) rotate(0) translate(4 150)">
<title>initializeDefaults</title>
<!-- Node1 -->
<g id="node1" class="node">
<title>Node1</title>
<g id="a_node1"><a xlink:title=" ">
<polygon fill="#999999" stroke="#666666" points="502,-57 413,-57 413,-38 502,-38 502,-57"/>
<text text-anchor="middle" x="457.5" y="-45" font-family="Helvetica,sans-Serif" font-size="10.00">initializeDefaults</text>
</a>
</g>
</g>
<!-- Node2 -->
<g id="node2" class="node">
<title>Node2</title>
<g id="a_node2"><a xlink:href="class_o_c_a_1_1_c_a_f_e_v_d_b_1_1_service_1_1_phone_number_service.html#a1f54caac71fbe16692d752e9648eaaf5" target="_top" xlink:title=" ">
<polygon fill="white" stroke="#666666" points="249,-95 181,-95 181,-76 249,-76 249,-95"/>
<text text-anchor="middle" x="215" y="-83" font-family="Helvetica,sans-Serif" font-size="10.00">getBackend</text>
</a>
</g>
</g>
<!-- Node1&#45;&gt;Node2 -->
<g id="edge1" class="edge">
<title>Node1&#45;&gt;Node2</title>
<path fill="none" stroke="#63b8ff" d="M407.58,-60.14C397.51,-62.48 386.95,-64.73 377,-66.5 333.22,-74.29 282.15,-79.7 249.47,-82.7"/>
<polygon fill="#63b8ff" stroke="#63b8ff" points="408.29,-63.57 417.21,-57.85 406.67,-56.76 408.29,-63.57"/>
</g>
<!-- Node7 -->
<g id="node7" class="node">
<title>Node7</title>
<g id="a_node7"><a xlink:href="class_o_c_a_1_1_c_a_f_e_v_d_b_1_1_service_1_1_phone_number_service.html#a97eaa8dc5677e033634c7b612474b521" target="_top" xlink:title=" ">
<polygon fill="white" stroke="#666666" points="374.5,-20 287.5,-20 287.5,-1 374.5,-1 374.5,-20"/>
<text text-anchor="middle" x="331" y="-8" font-family="Helvetica,sans-Serif" font-size="10.00">getDefaultPrefix</text>
</a>
</g>
</g>
<!-- Node1&#45;&gt;Node7 -->
<g id="edge9" class="edge">
<title>Node1&#45;&gt;Node7</title>
<path fill="none" stroke="#63b8ff" d="M412.26,-34.35C396.86,-29.78 379.84,-24.72 365.46,-20.44"/>
<polygon fill="#63b8ff" stroke="#63b8ff" points="411.1,-37.66 421.69,-37.15 413.1,-30.95 411.1,-37.66"/>
</g>
<!-- Node9 -->
<g id="node9" class="node">
<title>Node9</title>
<g id="a_node9"><a xlink:href="class_o_c_a_1_1_c_a_f_e_v_d_b_1_1_service_1_1_phone_number_service.html#a17afded57ab95f68179da65bde0e5f0c" target="_top" xlink:title=" ">
<polygon fill="white" stroke="#666666" points="377,-57 285,-57 285,-38 377,-38 377,-57"/>
<text text-anchor="middle" x="331" y="-45" font-family="Helvetica,sans-Serif" font-size="10.00">getDefaultRegion</text>
</a>
</g>
</g>
<!-- Node1&#45;&gt;Node9 -->
<g id="edge12" class="edge">
<title>Node1&#45;&gt;Node9</title>
<path fill="none" stroke="#63b8ff" d="M401.35,-47.5C393.27,-47.5 385.03,-47.5 377.18,-47.5"/>
<polygon fill="#63b8ff" stroke="#63b8ff" points="401.09,-51 411.09,-47.5 401.09,-44 401.09,-51"/>
</g>
<!-- Node3 -->
<g id="node3" class="node">
<title>Node3</title>
<g id="a_node3"><a xlink:href="class_o_c_a_1_1_c_a_f_e_v_d_b_1_1_service_1_1_phone_number_service.html#adb4c68b625c6083466b2fa516a6ad314" target="_top" xlink:title=" ">
<polygon fill="white" stroke="#666666" points="51.5,-146 7.5,-146 7.5,-127 51.5,-127 51.5,-146"/>
<text text-anchor="middle" x="29.5" y="-134" font-family="Helvetica,sans-Serif" font-size="10.00">format</text>
</a>
</g>
</g>
<!-- Node2&#45;&gt;Node3 -->
<g id="edge2" class="edge">
<title>Node2&#45;&gt;Node3</title>
<path fill="none" stroke="#63b8ff" d="M169.68,-97.82C132.3,-108.21 80.45,-122.62 51.75,-130.59"/>
<polygon fill="#63b8ff" stroke="#63b8ff" points="170.61,-101.19 179.31,-95.14 168.74,-94.45 170.61,-101.19"/>
</g>
<!-- Node4 -->
<g id="node4" class="node">
<title>Node4</title>
<g id="a_node4"><a xlink:href="class_o_c_a_1_1_c_a_f_e_v_d_b_1_1_service_1_1_phone_number_service.html#abac0564af0134547ded00c16b5c873ea" target="_top" xlink:title=" ">
<polygon fill="white" stroke="#666666" points="56,-104 3,-104 3,-85 56,-85 56,-104"/>
<text text-anchor="middle" x="29.5" y="-92" font-family="Helvetica,sans-Serif" font-size="10.00">isMobile</text>
</a>
</g>
</g>
<!-- Node2&#45;&gt;Node4 -->
<g id="edge3" class="edge">
<title>Node2&#45;&gt;Node4</title>
<path fill="none" stroke="#63b8ff" d="M169.3,-87.69C133.89,-89.43 85.66,-91.79 56.38,-93.23"/>
<polygon fill="#63b8ff" stroke="#63b8ff" points="169.44,-91.19 179.26,-87.2 169.1,-84.2 169.44,-91.19"/>
</g>
<!-- Node5 -->
<g id="node5" class="node">
<title>Node5</title>
<g id="a_node5"><a xlink:href="class_o_c_a_1_1_c_a_f_e_v_d_b_1_1_service_1_1_phone_number_service.html#ab5d979416900f9fed11ab7285356c356" target="_top" xlink:title="Return new&#45;line formatted meta&#45;data for the current or the given number and region.">
<polygon fill="white" stroke="#666666" points="59,-57 0,-57 0,-38 59,-38 59,-57"/>
<text text-anchor="middle" x="29.5" y="-45" font-family="Helvetica,sans-Serif" font-size="10.00">metaData</text>
</a>
</g>
</g>
<!-- Node2&#45;&gt;Node5 -->
<g id="edge4" class="edge">
<title>Node2&#45;&gt;Node5</title>
<path fill="none" stroke="#63b8ff" d="M169.65,-76.31C135.34,-69.21 88.85,-59.58 59.26,-53.46"/>
<polygon fill="#63b8ff" stroke="#63b8ff" points="168.79,-79.71 179.29,-78.31 170.2,-72.86 168.79,-79.71"/>
</g>
<!-- Node6 -->
<g id="node6" class="node">
<title>Node6</title>
<g id="a_node6"><a xlink:href="class_o_c_a_1_1_c_a_f_e_v_d_b_1_1_service_1_1_phone_number_service.html#a8c950d27bc55749ec38cd0ade17222f5" target="_top" xlink:title=" ">
<polygon fill="white" stroke="#666666" points="145,-38 95,-38 95,-19 145,-19 145,-38"/>
<text text-anchor="middle" x="120" y="-26" font-family="Helvetica,sans-Serif" font-size="10.00">validate</text>
</a>
</g>
</g>
<!-- Node2&#45;&gt;Node6 -->
<g id="edge5" class="edge">
<title>Node2&#45;&gt;Node6</title>
<path fill="none" stroke="#63b8ff" d="M188.24,-69.71C171.83,-59.66 151.09,-46.94 137.01,-38.31"/>
<polygon fill="#63b8ff" stroke="#63b8ff" points="186.16,-72.54 196.51,-74.78 189.81,-66.57 186.16,-72.54"/>
</g>
<!-- Node6&#45;&gt;Node3 -->
<g id="edge6" class="edge">
<title>Node6&#45;&gt;Node3</title>
<path fill="none" stroke="#63b8ff" d="M107.42,-48.01C96.24,-66.02 78.22,-93 59,-113.5 54.56,-118.23 49.14,-122.84 44.22,-126.68"/>
<polygon fill="#63b8ff" stroke="#63b8ff" points="110.32,-49.98 112.52,-39.62 104.34,-46.35 110.32,-49.98"/>
</g>
<!-- Node6&#45;&gt;Node4 -->
<g id="edge7" class="edge">
<title>Node6&#45;&gt;Node4</title>
<path fill="none" stroke="#63b8ff" d="M96.89,-44.99C80.24,-57.41 57.95,-74.03 43.9,-84.51"/>
<polygon fill="#63b8ff" stroke="#63b8ff" points="98.8,-47.93 104.73,-39.14 94.62,-42.32 98.8,-47.93"/>
</g>
<!-- Node6&#45;&gt;Node5 -->
<g id="edge8" class="edge">
<title>Node6&#45;&gt;Node5</title>
<path fill="none" stroke="#63b8ff" d="M83.77,-36.06C75.68,-37.8 67.16,-39.63 59.37,-41.3"/>
<polygon fill="#63b8ff" stroke="#63b8ff" points="84.29,-39.53 93.34,-34.01 82.83,-32.69 84.29,-39.53"/>
</g>
<!-- Node8 -->
<g id="node8" class="node">
<title>Node8</title>
<g id="a_node8"><a xlink:href="class_o_c_a_1_1_c_a_f_e_v_d_b_1_1_service_1_1_phone_number_service.html#a5e70683882a307d0d4c7ef1b3e546747" target="_top" xlink:title="Add the default area code if the number does not start with + or 0, and do some other normalization,...">
<polygon fill="white" stroke="#666666" points="244.5,-19 185.5,-19 185.5,0 244.5,0 244.5,-19"/>
<text text-anchor="middle" x="215" y="-7" font-family="Helvetica,sans-Serif" font-size="10.00">normalize</text>
</a>
</g>
</g>
<!-- Node7&#45;&gt;Node8 -->
<g id="edge10" class="edge">
<title>Node7&#45;&gt;Node8</title>
<path fill="none" stroke="#63b8ff" d="M275.76,-10.02C265.07,-9.93 254.26,-9.84 244.82,-9.75"/>
<polygon fill="#63b8ff" stroke="#63b8ff" points="275.68,-13.52 285.71,-10.11 275.74,-6.52 275.68,-13.52"/>
</g>
<!-- Node8&#45;&gt;Node6 -->
<g id="edge11" class="edge">
<title>Node8&#45;&gt;Node6</title>
<path fill="none" stroke="#63b8ff" d="M173.9,-17.69C164.13,-19.69 153.98,-21.76 145.21,-23.55"/>
<polygon fill="#63b8ff" stroke="#63b8ff" points="174.5,-21.14 183.6,-15.71 173.1,-14.28 174.5,-21.14"/>
</g>
<!-- Node9&#45;&gt;Node6 -->
<g id="edge13" class="edge">
<title>Node9&#45;&gt;Node6</title>
<path fill="none" stroke="#63b8ff" d="M273.23,-42.34C231.39,-38.54 176.56,-33.55 145.42,-30.72"/>
<polygon fill="#63b8ff" stroke="#63b8ff" points="272.87,-45.82 283.14,-43.24 273.5,-38.85 272.87,-45.82"/>
</g>
</g>
</svg>
