<?xml version="1.0" encoding="UTF-8" standalone="no"?>
<!DOCTYPE svg PUBLIC "-//W3C//DTD SVG 1.1//EN"
 "http://www.w3.org/Graphics/SVG/1.1/DTD/svg11.dtd">
<!-- Generated by graphviz version 9.0.0 (20230911.1827)
 -->
<!-- Title: getFolderByName Pages: 1 -->
<svg width="443pt" height="90pt"
 viewBox="0.00 0.00 443.00 90.00" xmlns="http://www.w3.org/2000/svg" xmlns:xlink="http://www.w3.org/1999/xlink">
<g id="graph0" class="graph" transform="scale(1 1) rotate(0) translate(4 86)">
<title>getFolderByName</title>
<!-- Node1 -->
<g id="Node000001" class="node">
<title>Node1</title>
<g id="a_Node000001"><a xlink:title=" ">
<polygon fill="#999999" stroke="#666666" points="94.75,-51 0,-51 0,-31 94.75,-31 94.75,-51"/>
<text text-anchor="middle" x="47.38" y="-37.5" font-family="Helvetica,sans-Serif" font-size="10.00">getFolderByName</text>
</a>
</g>
</g>
<!-- Node2 -->
<g id="Node000002" class="node">
<title>Node2</title>
<g id="a_Node000002"><a xlink:href="class_o_c_a_1_1_c_a_f_e_v_d_b_1_1_database_1_1_doctrine_1_1_util.html#aafe8e2082bd107d572aa76086a06b24e" target="_top" xlink:title="Convenience function.">
<polygon fill="white" stroke="#666666" points="265.25,-57 130.75,-57 130.75,-25 265.25,-25 265.25,-57"/>
<text text-anchor="start" x="138.75" y="-43.5" font-family="Helvetica,sans-Serif" font-size="10.00">OCA\CAFEVDB\Database</text>
<text text-anchor="middle" x="198" y="-31.5" font-family="Helvetica,sans-Serif" font-size="10.00">\Doctrine\Util\criteriaWhere</text>
</a>
</g>
</g>
<!-- Node1&#45;&gt;Node2 -->
<g id="edge1_Node000001_Node000002" class="edge">
<title>Node1&#45;&gt;Node2</title>
<g id="a_edge1_Node000001_Node000002"><a xlink:title=" ">
<path fill="none" stroke="#63b8ff" d="M94.99,-41C102.72,-41 110.91,-41 119.16,-41"/>
<polygon fill="#63b8ff" stroke="#63b8ff" points="118.89,-44.5 128.89,-41 118.89,-37.5 118.89,-44.5"/>
</a>
</g>
</g>
<!-- Node3 -->
<g id="Node000003" class="node">
<title>Node3</title>
<g id="a_Node000003"><a xlink:href="class_o_c_a_1_1_c_a_f_e_v_d_b_1_1_database_1_1_doctrine_1_1_util.html#af2691c40495d429502e48d4824f0b080" target="_top" xlink:title="Convenience function to generate Collections\Criteria.">
<polygon fill="white" stroke="#666666" points="435,-82 301.25,-82 301.25,-50 435,-50 435,-82"/>
<text text-anchor="start" x="309.25" y="-68.5" font-family="Helvetica,sans-Serif" font-size="10.00">OCA\CAFEVDB\Database</text>
<text text-anchor="middle" x="368.12" y="-56.5" font-family="Helvetica,sans-Serif" font-size="10.00">\Doctrine\Util\criteria</text>
</a>
</g>
</g>
<!-- Node2&#45;&gt;Node3 -->
<g id="edge2_Node000002_Node000003" class="edge">
<title>Node2&#45;&gt;Node3</title>
<g id="a_edge2_Node000002_Node000003"><a xlink:title=" ">
<path fill="none" stroke="#63b8ff" d="M265.45,-50.88C273.37,-52.06 281.51,-53.27 289.57,-54.47"/>
<polygon fill="#63b8ff" stroke="#63b8ff" points="288.98,-57.92 299.39,-55.93 290.01,-50.99 288.98,-57.92"/>
</a>
</g>
</g>
<!-- Node4 -->
<g id="Node000004" class="node">
<title>Node4</title>
<g id="a_Node000004"><a xlink:href="class_o_c_a_1_1_c_a_f_e_v_d_b_1_1_database_1_1_doctrine_1_1_util.html#ae987ce50626dd3e4a9b255037433c776" target="_top" xlink:title="Convenience function to generate CollectionsxpressionBuilder.">
<polygon fill="white" stroke="#666666" points="435,-32 301.25,-32 301.25,0 435,0 435,-32"/>
<text text-anchor="start" x="309.25" y="-18.5" font-family="Helvetica,sans-Serif" font-size="10.00">OCA\CAFEVDB\Database</text>
<text text-anchor="middle" x="368.12" y="-6.5" font-family="Helvetica,sans-Serif" font-size="10.00">\Doctrine\Util\criteriaExpr</text>
</a>
</g>
</g>
<!-- Node2&#45;&gt;Node4 -->
<g id="edge3_Node000002_Node000004" class="edge">
<title>Node2&#45;&gt;Node4</title>
<g id="a_edge3_Node000002_Node000004"><a xlink:title=" ">
<path fill="none" stroke="#63b8ff" d="M265.45,-31.12C273.37,-29.94 281.51,-28.73 289.57,-27.53"/>
<polygon fill="#63b8ff" stroke="#63b8ff" points="290.01,-31.01 299.39,-26.07 288.98,-24.08 290.01,-31.01"/>
</a>
</g>
</g>
</g>
</svg>
