<?xml version="1.0" encoding="UTF-8" standalone="no"?>
<!DOCTYPE svg PUBLIC "-//W3C//DTD SVG 1.1//EN"
 "http://www.w3.org/Graphics/SVG/1.1/DTD/svg11.dtd">
<!-- Generated by graphviz version 8.0.3 (20230416.2022)
 -->
<!-- Title: isReachable Pages: 1 -->
<svg width="202pt" height="64pt"
 viewBox="0.00 0.00 202.00 64.00" xmlns="http://www.w3.org/2000/svg" xmlns:xlink="http://www.w3.org/1999/xlink">
<g id="graph0" class="graph" transform="scale(1 1) rotate(0) translate(4 60)">
<title>isReachable</title>
<!-- Node1 -->
<g id="node1" class="node">
<title>Node1</title>
<g id="a_node1"><a xlink:title="Check whether the mailing&#45;lists server is configured and reachable.">
<polygon fill="#999999" stroke="#666666" points="71,-37 0,-37 0,-18 71,-18 71,-37"/>
<text text-anchor="middle" x="35.5" y="-25" font-family="Helvetica,sans-Serif" font-size="10.00">isReachable</text>
</a>
</g>
</g>
<!-- Node2 -->
<g id="node2" class="node">
<title>Node2</title>
<g id="a_node2"><a xlink:href="class_o_c_a_1_1_c_a_f_e_v_d_b_1_1_service_1_1_mailing_lists_service.html#a021665eed2f119c5beed4adeaebd8f96" target="_top" xlink:title="Obtain the server configuration, this is rather for testing in order to check the basic connectivity.">
<polygon fill="white" stroke="#666666" points="194,-56 107,-56 107,-37 194,-37 194,-56"/>
<text text-anchor="middle" x="150.5" y="-44" font-family="Helvetica,sans-Serif" font-size="10.00">getServerConfig</text>
</a>
</g>
</g>
<!-- Node1&#45;&gt;Node2 -->
<g id="edge1" class="edge">
<title>Node1&#45;&gt;Node2</title>
<path fill="none" stroke="#63b8ff" d="M71.33,-33.36C79.08,-34.66 87.48,-36.07 95.8,-37.47"/>
<polygon fill="#63b8ff" stroke="#63b8ff" points="95.18,-41.08 105.62,-39.29 96.34,-34.18 95.18,-41.08"/>
</g>
<!-- Node3 -->
<g id="node3" class="node">
<title>Node3</title>
<g id="a_node3"><a xlink:href="class_o_c_a_1_1_c_a_f_e_v_d_b_1_1_service_1_1_mailing_lists_service.html#a70860ad31d1b9217e6da0ba4759ad3a3" target="_top" xlink:title=" ">
<polygon fill="white" stroke="#666666" points="186,-19 115,-19 115,0 186,0 186,-19"/>
<text text-anchor="middle" x="150.5" y="-7" font-family="Helvetica,sans-Serif" font-size="10.00">isConfigured</text>
</a>
</g>
</g>
<!-- Node1&#45;&gt;Node3 -->
<g id="edge2" class="edge">
<title>Node1&#45;&gt;Node3</title>
<path fill="none" stroke="#63b8ff" d="M71.33,-21.95C81.64,-20.31 93.08,-18.49 103.96,-16.75"/>
<polygon fill="#63b8ff" stroke="#63b8ff" points="104.27,-20.09 113.59,-15.06 103.17,-13.18 104.27,-20.09"/>
</g>
</g>
</svg>
