<?xml version="1.0" encoding="UTF-8" standalone="no"?>
<!DOCTYPE svg PUBLIC "-//W3C//DTD SVG 1.1//EN"
 "http://www.w3.org/Graphics/SVG/1.1/DTD/svg11.dtd">
<!-- Generated by graphviz version 12.2.1 (20241206.2353)
 -->
<!-- Title: flattenVCard Pages: 1 -->
<svg width="385pt" height="66pt"
 viewBox="0.00 0.00 385.25 66.00" xmlns="http://www.w3.org/2000/svg" xmlns:xlink="http://www.w3.org/1999/xlink">
<g id="graph0" class="graph" transform="scale(1 1) rotate(0) translate(4 62)">
<title>flattenVCard</title>
<!-- Node1 -->
<g id="Node000001" class="node">
<title>Node1</title>
<g id="a_Node000001"><a xlink:title=" ">
<polygon fill="#999999" stroke="#666666" points="377.25,-39 306.5,-39 306.5,-19 377.25,-19 377.25,-39"/>
<text text-anchor="middle" x="341.88" y="-25.5" font-family="Helvetica,sans-Serif" font-size="10.00">flattenVCard</text>
</a>
</g>
</g>
<!-- Node2 -->
<g id="Node000002" class="node">
<title>Node2</title>
<g id="a_Node000002"><a xlink:href="class_o_c_a_1_1_c_a_f_e_v_d_b_1_1_service_1_1_contacts_service.html#ab0542a315d1c61500f4204117d9c22d3" target="_top" xlink:title="Import the given vCard into the musician data&#45;base.">
<polygon fill="white" stroke="#666666" points="264.88,-58 194.12,-58 194.12,-38 264.88,-38 264.88,-58"/>
<text text-anchor="middle" x="229.5" y="-44.5" font-family="Helvetica,sans-Serif" font-size="10.00">importVCard</text>
</a>
</g>
</g>
<!-- Node1&#45;&gt;Node2 -->
<g id="edge1_Node000001_Node000002" class="edge">
<title>Node1&#45;&gt;Node2</title>
<g id="a_edge1_Node000001_Node000002"><a xlink:title=" ">
<path fill="none" stroke="#63b8ff" d="M295.13,-36.87C285.06,-38.61 274.54,-40.42 265,-42.06"/>
<polygon fill="#63b8ff" stroke="#63b8ff" points="295.5,-40.36 304.76,-35.22 294.31,-33.46 295.5,-40.36"/>
</a>
</g>
</g>
<!-- Node3 -->
<g id="Node000003" class="node">
<title>Node3</title>
<g id="a_Node000003"><a xlink:href="class_o_c_a_1_1_c_a_f_e_v_d_b_1_1_service_1_1_contacts_service.html#a56e6ef69f101590ed68f16667e9fbc15" target="_top" xlink:title="Merge a musician entity into an existing contact.">
<polygon fill="white" stroke="#666666" points="270.5,-20 188.5,-20 188.5,0 270.5,0 270.5,-20"/>
<text text-anchor="middle" x="229.5" y="-6.5" font-family="Helvetica,sans-Serif" font-size="10.00">mergeMusician</text>
</a>
</g>
</g>
<!-- Node1&#45;&gt;Node3 -->
<g id="edge2_Node000001_Node000003" class="edge">
<title>Node1&#45;&gt;Node3</title>
<g id="a_edge2_Node000001_Node000003"><a xlink:title=" ">
<path fill="none" stroke="#63b8ff" d="M295.11,-21.12C287.04,-19.73 278.69,-18.3 270.79,-16.93"/>
<polygon fill="#63b8ff" stroke="#63b8ff" points="294.31,-24.54 304.76,-22.78 295.5,-17.64 294.31,-24.54"/>
</a>
</g>
</g>
<!-- Node4 -->
<g id="Node000004" class="node">
<title>Node4</title>
<g id="a_Node000004"><a xlink:href="class_o_c_a_1_1_c_a_f_e_v_d_b_1_1_service_1_1_contacts_service.html#a9a76b4850f9d0170d97e06a2eba76165" target="_top" xlink:title="Register a pre&#45;commit action in order to merge changed data into a linked addressbook.">
<polygon fill="white" stroke="#666666" points="152.5,-20 0,-20 0,0 152.5,0 152.5,-20"/>
<text text-anchor="middle" x="76.25" y="-6.5" font-family="Helvetica,sans-Serif" font-size="10.00">registerContactSynchronization</text>
</a>
</g>
</g>
<!-- Node3&#45;&gt;Node4 -->
<g id="edge3_Node000003_Node000004" class="edge">
<title>Node3&#45;&gt;Node4</title>
<g id="a_edge3_Node000003_Node000004"><a xlink:title=" ">
<path fill="none" stroke="#63b8ff" d="M176.95,-10C169.21,-10 161.1,-10 152.98,-10"/>
<polygon fill="#63b8ff" stroke="#63b8ff" points="176.85,-13.5 186.85,-10 176.85,-6.5 176.85,-13.5"/>
</a>
</g>
</g>
</g>
</svg>
