<?xml version="1.0" encoding="UTF-8" standalone="no"?>
<!DOCTYPE svg PUBLIC "-//W3C//DTD SVG 1.1//EN"
 "http://www.w3.org/Graphics/SVG/1.1/DTD/svg11.dtd">
<!-- Generated by graphviz version 7.1.0 (20230121.1956)
 -->
<!-- Title: file_exists Pages: 1 -->
<svg width="529pt" height="65pt"
 viewBox="0.00 0.00 529.00 65.00" xmlns="http://www.w3.org/2000/svg" xmlns:xlink="http://www.w3.org/1999/xlink">
<g id="graph0" class="graph" transform="scale(1 1) rotate(0) translate(4 61)">
<title>file_exists</title>
<!-- Node1 -->
<g id="node1" class="node">
<title>Node1</title>
<g id="a_node1"><a xlink:title="{}">
<polygon fill="#999999" stroke="#666666" points="61,-38 0,-38 0,-19 61,-19 61,-38"/>
<text text-anchor="middle" x="30.5" y="-26" font-family="Helvetica,sans-Serif" font-size="10.00">file_exists</text>
</a>
</g>
</g>
<!-- Node2 -->
<g id="node2" class="node">
<title>Node2</title>
<g id="a_node2"><a xlink:href="class_o_c_a_1_1_c_a_f_e_v_d_b_1_1_storage_1_1_database_1_1_storage.html#a7ec90cd17ef214d5fe4280b13d7c144a" target="_top" xlink:title="Fetch the file entity corresponding to file&#45;name.">
<polygon fill="white" stroke="#666666" points="267,-38 173,-38 173,-19 267,-19 267,-38"/>
<text text-anchor="middle" x="220" y="-26" font-family="Helvetica,sans-Serif" font-size="10.00">fileFromFileName</text>
</a>
</g>
</g>
<!-- Node1&#45;&gt;Node2 -->
<g id="edge1" class="edge">
<title>Node1&#45;&gt;Node2</title>
<path fill="none" stroke="#63b8ff" d="M61.21,-28.5C88,-28.5 128.15,-28.5 161.24,-28.5"/>
<polygon fill="#63b8ff" stroke="#63b8ff" points="161.11,-32 171.11,-28.5 161.11,-25 161.11,-32"/>
</g>
<!-- Node6 -->
<g id="node6" class="node">
<title>Node6</title>
<g id="a_node6"><a xlink:href="class_o_c_a_1_1_c_a_f_e_v_d_b_1_1_storage_1_1_database_1_1_storage.html#a5877dd78fbe10fb5f3ee3d25e3fbe11e" target="_top" xlink:title="{}">
<polygon fill="white" stroke="#666666" points="137,-19 97,-19 97,0 137,0 137,-19"/>
<text text-anchor="middle" x="117" y="-7" font-family="Helvetica,sans-Serif" font-size="10.00">is_dir</text>
</a>
</g>
</g>
<!-- Node1&#45;&gt;Node6 -->
<g id="edge5" class="edge">
<title>Node1&#45;&gt;Node6</title>
<path fill="none" stroke="#63b8ff" d="M61.05,-21.85C68.98,-20.07 77.57,-18.14 85.55,-16.35"/>
<polygon fill="#63b8ff" stroke="#63b8ff" points="86.19,-19.79 95.18,-14.18 84.65,-12.96 86.19,-19.79"/>
</g>
<!-- Node3 -->
<g id="node3" class="node">
<title>Node3</title>
<g id="a_node3"><a xlink:href="class_o_c_a_1_1_c_a_f_e_v_d_b_1_1_storage_1_1_database_1_1_storage.html#ab721841df814a2337039d39cc03da82a" target="_top" xlink:title=" ">
<polygon fill="white" stroke="#666666" points="360,-57 303,-57 303,-38 360,-38 360,-57"/>
<text text-anchor="middle" x="331.5" y="-45" font-family="Helvetica,sans-Serif" font-size="10.00">buildPath</text>
</a>
</g>
</g>
<!-- Node2&#45;&gt;Node3 -->
<g id="edge2" class="edge">
<title>Node2&#45;&gt;Node3</title>
<path fill="none" stroke="#63b8ff" d="M267.44,-36.56C275.41,-37.94 283.63,-39.37 291.38,-40.71"/>
<polygon fill="#63b8ff" stroke="#63b8ff" points="290.77,-44.16 301.22,-42.42 291.97,-37.26 290.77,-44.16"/>
</g>
<!-- Node4 -->
<g id="node4" class="node">
<title>Node4</title>
<g id="a_node4"><a xlink:href="class_o_c_a_1_1_c_a_f_e_v_d_b_1_1_storage_1_1_database_1_1_storage.html#aa8e4fc68bcf28c10413b664b7d89ae81" target="_top" xlink:title="Slightly modified pathinfo() function which also normalized directories before computing the componen...">
<polygon fill="white" stroke="#666666" points="357.5,-20 305.5,-20 305.5,-1 357.5,-1 357.5,-20"/>
<text text-anchor="middle" x="331.5" y="-8" font-family="Helvetica,sans-Serif" font-size="10.00">pathInfo</text>
</a>
</g>
</g>
<!-- Node2&#45;&gt;Node4 -->
<g id="edge3" class="edge">
<title>Node2&#45;&gt;Node4</title>
<path fill="none" stroke="#63b8ff" d="M267.44,-20.87C276.33,-19.4 285.53,-17.89 294.06,-16.49"/>
<polygon fill="#63b8ff" stroke="#63b8ff" points="294.39,-19.98 303.69,-14.91 293.25,-13.08 294.39,-19.98"/>
</g>
<!-- Node5 -->
<g id="node5" class="node">
<title>Node5</title>
<g id="a_node5"><a xlink:href="class_o_c_a_1_1_c_a_f_e_v_d_b_1_1_storage_1_1_database_1_1_storage.html#ac5c1b62ecc9eb2ebe08f1e8c7ee2b283" target="_top" xlink:title="Attach self::PATH_SEPARATOR to the dirname if it is not the root directory.">
<polygon fill="white" stroke="#666666" points="521,-20 396,-20 396,-1 521,-1 521,-20"/>
<text text-anchor="middle" x="458.5" y="-8" font-family="Helvetica,sans-Serif" font-size="10.00">normalizeDirectoryName</text>
</a>
</g>
</g>
<!-- Node4&#45;&gt;Node5 -->
<g id="edge4" class="edge">
<title>Node4&#45;&gt;Node5</title>
<path fill="none" stroke="#63b8ff" d="M357.8,-10.5C365.69,-10.5 374.83,-10.5 384.31,-10.5"/>
<polygon fill="#63b8ff" stroke="#63b8ff" points="384.03,-14 394.03,-10.5 384.03,-7 384.03,-14"/>
</g>
<!-- Node6&#45;&gt;Node2 -->
<g id="edge6" class="edge">
<title>Node6&#45;&gt;Node2</title>
<path fill="none" stroke="#63b8ff" d="M137.47,-13.16C144.57,-14.5 152.99,-16.08 161.7,-17.72"/>
<polygon fill="#63b8ff" stroke="#63b8ff" points="160.82,-21.12 171.3,-19.53 162.12,-14.24 160.82,-21.12"/>
</g>
</g>
</svg>
