<?xml version="1.0" encoding="UTF-8" standalone="no"?>
<!DOCTYPE svg PUBLIC "-//W3C//DTD SVG 1.1//EN"
 "http://www.w3.org/Graphics/SVG/1.1/DTD/svg11.dtd">
<!-- Generated by graphviz version 8.0.3 (20230416.2022)
 -->
<!-- Title: setFileNameCache Pages: 1 -->
<svg width="466pt" height="92pt"
 viewBox="0.00 0.00 466.00 91.50" xmlns="http://www.w3.org/2000/svg" xmlns:xlink="http://www.w3.org/1999/xlink">
<g id="graph0" class="graph" transform="scale(1 1) rotate(0) translate(4 87.5)">
<title>setFileNameCache</title>
<!-- Node1 -->
<g id="node1" class="node">
<title>Node1</title>
<g id="a_node1"><a xlink:title="Insert a &quot;cache&quot; entry.">
<polygon fill="#999999" stroke="#666666" points="101,-54 0,-54 0,-35 101,-35 101,-54"/>
<text text-anchor="middle" x="50.5" y="-42" font-family="Helvetica,sans-Serif" font-size="10.00">setFileNameCache</text>
</a>
</g>
</g>
<!-- Node2 -->
<g id="node2" class="node">
<title>Node2</title>
<g id="a_node2"><a xlink:href="class_o_c_a_1_1_c_a_f_e_v_d_b_1_1_storage_1_1_database_1_1_storage.html#ab721841df814a2337039d39cc03da82a" target="_top" xlink:title=" ">
<polygon fill="white" stroke="#666666" points="279,-83.5 137,-83.5 137,-53.5 279,-53.5 279,-83.5"/>
<text text-anchor="start" x="145" y="-71.5" font-family="Helvetica,sans-Serif" font-size="10.00">OCA\CAFEVDB\Storage</text>
<text text-anchor="middle" x="208" y="-60.5" font-family="Helvetica,sans-Serif" font-size="10.00">\Database\Storage\buildPath</text>
</a>
</g>
</g>
<!-- Node1&#45;&gt;Node2 -->
<g id="edge1" class="edge">
<title>Node1&#45;&gt;Node2</title>
<path fill="none" stroke="#63b8ff" d="M101.13,-52.16C109.07,-53.38 117.45,-54.68 125.9,-55.98"/>
<polygon fill="#63b8ff" stroke="#63b8ff" points="125.17,-59.57 135.59,-57.63 126.24,-52.65 125.17,-59.57"/>
</g>
<!-- Node3 -->
<g id="node3" class="node">
<title>Node3</title>
<g id="a_node3"><a xlink:href="class_o_c_a_1_1_c_a_f_e_v_d_b_1_1_storage_1_1_database_1_1_storage.html#aa8e4fc68bcf28c10413b664b7d89ae81" target="_top" xlink:title="Slightly modified pathinfo() function which also normalized directories before computing the componen...">
<polygon fill="white" stroke="#666666" points="276.5,-35.5 139.5,-35.5 139.5,-5.5 276.5,-5.5 276.5,-35.5"/>
<text text-anchor="start" x="147.5" y="-23.5" font-family="Helvetica,sans-Serif" font-size="10.00">OCA\CAFEVDB\Storage</text>
<text text-anchor="middle" x="208" y="-12.5" font-family="Helvetica,sans-Serif" font-size="10.00">\Database\Storage\pathInfo</text>
</a>
</g>
</g>
<!-- Node1&#45;&gt;Node3 -->
<g id="edge2" class="edge">
<title>Node1&#45;&gt;Node3</title>
<path fill="none" stroke="#63b8ff" d="M101.13,-36.84C109.82,-35.5 119.05,-34.07 128.29,-32.65"/>
<polygon fill="#63b8ff" stroke="#63b8ff" points="128.78,-35.96 138.13,-30.98 127.71,-29.04 128.78,-35.96"/>
</g>
<!-- Node4 -->
<g id="node4" class="node">
<title>Node4</title>
<g id="a_node4"><a xlink:href="class_o_c_a_1_1_c_a_f_e_v_d_b_1_1_storage_1_1_database_1_1_storage.html#ac5c1b62ecc9eb2ebe08f1e8c7ee2b283" target="_top" xlink:title="Attach self::PATH_SEPARATOR to the dirname if it is not the root directory.">
<polygon fill="white" stroke="#666666" points="458,-41 315,-41 315,0 458,0 458,-41"/>
<text text-anchor="start" x="323" y="-29" font-family="Helvetica,sans-Serif" font-size="10.00">OCA\CAFEVDB\Storage</text>
<text text-anchor="start" x="323" y="-18" font-family="Helvetica,sans-Serif" font-size="10.00">\Database\Storage\normalize</text>
<text text-anchor="middle" x="386.5" y="-7" font-family="Helvetica,sans-Serif" font-size="10.00">DirectoryName</text>
</a>
</g>
</g>
<!-- Node3&#45;&gt;Node4 -->
<g id="edge3" class="edge">
<title>Node3&#45;&gt;Node4</title>
<path fill="none" stroke="#63b8ff" d="M276.99,-20.5C285.76,-20.5 294.81,-20.5 303.77,-20.5"/>
<polygon fill="#63b8ff" stroke="#63b8ff" points="303.63,-24 313.62,-20.5 303.62,-17 303.63,-24"/>
</g>
</g>
</svg>
