<?xml version="1.0" encoding="UTF-8" standalone="no"?>
<!DOCTYPE svg PUBLIC "-//W3C//DTD SVG 1.1//EN"
 "http://www.w3.org/Graphics/SVG/1.1/DTD/svg11.dtd">
<!-- Generated by graphviz version 8.0.3 (20230416.2022)
 -->
<!-- Title: SentEmailsRepository Pages: 1 -->
<svg width="122pt" height="137pt"
 viewBox="0.00 0.00 122.00 137.00" xmlns="http://www.w3.org/2000/svg" xmlns:xlink="http://www.w3.org/1999/xlink">
<g id="graph0" class="graph" transform="scale(1 1) rotate(0) translate(4 133)">
<title>SentEmailsRepository</title>
<!-- Node1 -->
<g id="node1" class="node">
<title>Node1</title>
<g id="a_node1"><a xlink:title="Augment with our FindLikeTrait.">
<polygon fill="#999999" stroke="#666666" points="114,-19 0,-19 0,0 114,0 114,-19"/>
<text text-anchor="middle" x="57" y="-7" font-family="Helvetica,sans-Serif" font-size="10.00">SentEmailsRepository</text>
</a>
</g>
</g>
<!-- Node2 -->
<g id="node2" class="node">
<title>Node2</title>
<g id="a_node2"><a xlink:href="class_o_c_a_1_1_c_a_f_e_v_d_b_1_1_database_1_1_doctrine_1_1_o_r_m_1_1_repositories_1_1_entity_repository.html" target="_top" xlink:title="Base class for all of our repositories.">
<polygon fill="white" stroke="#666666" points="101.5,-74 12.5,-74 12.5,-55 101.5,-55 101.5,-74"/>
<text text-anchor="middle" x="57" y="-62" font-family="Helvetica,sans-Serif" font-size="10.00">EntityRepository</text>
</a>
</g>
</g>
<!-- Node2&#45;&gt;Node1 -->
<g id="edge1" class="edge">
<title>Node2&#45;&gt;Node1</title>
<path fill="none" stroke="#63b8ff" d="M57,-43.93C57,-35.53 57,-26.13 57,-19.44"/>
<polygon fill="#63b8ff" stroke="#63b8ff" points="53.5,-43.75 57,-53.75 60.5,-43.75 53.5,-43.75"/>
</g>
<!-- Node3 -->
<g id="node3" class="node">
<title>Node3</title>
<g id="a_node3"><a xlink:title=" ">
<polygon fill="white" stroke="#bfbfbf" points="101.5,-129 12.5,-129 12.5,-110 101.5,-110 101.5,-129"/>
<text text-anchor="middle" x="57" y="-117" font-family="Helvetica,sans-Serif" font-size="10.00">EntityRepository</text>
</a>
</g>
</g>
<!-- Node3&#45;&gt;Node2 -->
<g id="edge2" class="edge">
<title>Node3&#45;&gt;Node2</title>
<path fill="none" stroke="#63b8ff" d="M57,-98.93C57,-90.53 57,-81.13 57,-74.44"/>
<polygon fill="#63b8ff" stroke="#63b8ff" points="53.5,-98.75 57,-108.75 60.5,-98.75 53.5,-98.75"/>
</g>
</g>
</svg>
