<?xml version="1.0" encoding="UTF-8" standalone="no"?>
<!DOCTYPE svg PUBLIC "-//W3C//DTD SVG 1.1//EN"
 "http://www.w3.org/Graphics/SVG/1.1/DTD/svg11.dtd">
<!-- Generated by graphviz version 8.0.3 (20230416.2022)
 -->
<!-- Title: validate Pages: 1 -->
<svg width="434pt" height="103pt"
 viewBox="0.00 0.00 434.00 103.00" xmlns="http://www.w3.org/2000/svg" xmlns:xlink="http://www.w3.org/1999/xlink">
<g id="graph0" class="graph" transform="scale(1 1) rotate(0) translate(4 99)">
<title>validate</title>
<!-- Node1 -->
<g id="node1" class="node">
<title>Node1</title>
<g id="a_node1"><a xlink:title=" ">
<polygon fill="#999999" stroke="#666666" points="50,-57 0,-57 0,-38 50,-38 50,-57"/>
<text text-anchor="middle" x="25" y="-45" font-family="Helvetica,sans-Serif" font-size="10.00">validate</text>
</a>
</g>
</g>
<!-- Node2 -->
<g id="node2" class="node">
<title>Node2</title>
<g id="a_node2"><a xlink:href="class_o_c_a_1_1_c_a_f_e_v_d_b_1_1_service_1_1_phone_number_service.html#a1f54caac71fbe16692d752e9648eaaf5" target="_top" xlink:title=" ">
<polygon fill="white" stroke="#666666" points="291.5,-95 223.5,-95 223.5,-76 291.5,-76 291.5,-95"/>
<text text-anchor="middle" x="257.5" y="-83" font-family="Helvetica,sans-Serif" font-size="10.00">getBackend</text>
</a>
</g>
</g>
<!-- Node1&#45;&gt;Node2 -->
<g id="edge1" class="edge">
<title>Node1&#45;&gt;Node2</title>
<path fill="none" stroke="#63b8ff" d="M50.23,-56.36C61.05,-60.01 74.03,-63.96 86,-66.5 128.46,-75.5 177.83,-80.41 212.48,-82.97"/>
<polygon fill="#63b8ff" stroke="#63b8ff" points="211.97,-86.51 222.19,-83.72 212.46,-79.53 211.97,-86.51"/>
</g>
<!-- Node4 -->
<g id="node4" class="node">
<title>Node4</title>
<g id="a_node4"><a xlink:href="class_o_c_a_1_1_c_a_f_e_v_d_b_1_1_service_1_1_phone_number_service.html#a17afded57ab95f68179da65bde0e5f0c" target="_top" xlink:title=" ">
<polygon fill="white" stroke="#666666" points="178,-57 86,-57 86,-38 178,-38 178,-57"/>
<text text-anchor="middle" x="132" y="-45" font-family="Helvetica,sans-Serif" font-size="10.00">getDefaultRegion</text>
</a>
</g>
</g>
<!-- Node1&#45;&gt;Node4 -->
<g id="edge3" class="edge">
<title>Node1&#45;&gt;Node4</title>
<path fill="none" stroke="#63b8ff" d="M50.35,-47.5C57.76,-47.5 66.24,-47.5 74.85,-47.5"/>
<polygon fill="#63b8ff" stroke="#63b8ff" points="74.75,-51 84.75,-47.5 74.75,-44 74.75,-51"/>
</g>
<!-- Node5 -->
<g id="node5" class="node">
<title>Node5</title>
<g id="a_node5"><a xlink:href="class_o_c_a_1_1_c_a_f_e_v_d_b_1_1_service_1_1_phone_number_service.html#a5e70683882a307d0d4c7ef1b3e546747" target="_top" xlink:title="Add the default area code if the number does not start with + or 0, and do some other normalization,...">
<polygon fill="white" stroke="#666666" points="161.5,-20 102.5,-20 102.5,-1 161.5,-1 161.5,-20"/>
<text text-anchor="middle" x="132" y="-8" font-family="Helvetica,sans-Serif" font-size="10.00">normalize</text>
</a>
</g>
</g>
<!-- Node1&#45;&gt;Node5 -->
<g id="edge5" class="edge">
<title>Node1&#45;&gt;Node5</title>
<path fill="none" stroke="#63b8ff" d="M50.35,-38.92C62.93,-34.49 78.57,-28.98 92.72,-23.99"/>
<polygon fill="#63b8ff" stroke="#63b8ff" points="93.42,-27.1 101.69,-20.48 91.09,-20.5 93.42,-27.1"/>
</g>
<!-- Node3 -->
<g id="node3" class="node">
<title>Node3</title>
<g id="a_node3"><a xlink:href="class_o_c_a_1_1_c_a_f_e_v_d_b_1_1_service_1_1_phone_number_service.html#a08a954d92f510f5df4e347a7557ba5e8" target="_top" xlink:title=" ">
<polygon fill="white" stroke="#666666" points="426,-57 337,-57 337,-38 426,-38 426,-57"/>
<text text-anchor="middle" x="381.5" y="-45" font-family="Helvetica,sans-Serif" font-size="10.00">initializeDefaults</text>
</a>
</g>
</g>
<!-- Node2&#45;&gt;Node3 -->
<g id="edge2" class="edge">
<title>Node2&#45;&gt;Node3</title>
<path fill="none" stroke="#63b8ff" d="M290.55,-75.52C305.12,-70.98 322.56,-65.55 338.19,-60.68"/>
<polygon fill="#63b8ff" stroke="#63b8ff" points="339.15,-63.73 347.66,-57.42 337.07,-57.05 339.15,-63.73"/>
</g>
<!-- Node4&#45;&gt;Node3 -->
<g id="edge4" class="edge">
<title>Node4&#45;&gt;Node3</title>
<path fill="none" stroke="#63b8ff" d="M178.4,-47.5C219.95,-47.5 281.53,-47.5 325.78,-47.5"/>
<polygon fill="#63b8ff" stroke="#63b8ff" points="325.64,-51 335.64,-47.5 325.64,-44 325.64,-51"/>
</g>
<!-- Node6 -->
<g id="node6" class="node">
<title>Node6</title>
<g id="a_node6"><a xlink:href="class_o_c_a_1_1_c_a_f_e_v_d_b_1_1_service_1_1_phone_number_service.html#a97eaa8dc5677e033634c7b612474b521" target="_top" xlink:title=" ">
<polygon fill="white" stroke="#666666" points="301,-19 214,-19 214,0 301,0 301,-19"/>
<text text-anchor="middle" x="257.5" y="-7" font-family="Helvetica,sans-Serif" font-size="10.00">getDefaultPrefix</text>
</a>
</g>
</g>
<!-- Node5&#45;&gt;Node6 -->
<g id="edge6" class="edge">
<title>Node5&#45;&gt;Node6</title>
<path fill="none" stroke="#63b8ff" d="M161.96,-10.27C174.23,-10.17 188.93,-10.05 203.05,-9.93"/>
<polygon fill="#63b8ff" stroke="#63b8ff" points="202.71,-13.43 212.68,-9.85 202.65,-6.43 202.71,-13.43"/>
</g>
<!-- Node6&#45;&gt;Node3 -->
<g id="edge7" class="edge">
<title>Node6&#45;&gt;Node3</title>
<path fill="none" stroke="#63b8ff" d="M290.55,-19.48C305.12,-24.02 322.56,-29.45 338.19,-34.32"/>
<polygon fill="#63b8ff" stroke="#63b8ff" points="337.07,-37.95 347.66,-37.58 339.15,-31.27 337.07,-37.95"/>
</g>
</g>
</svg>
