<?xml version="1.0" encoding="UTF-8" standalone="no"?>
<!DOCTYPE svg PUBLIC "-//W3C//DTD SVG 1.1//EN"
 "http://www.w3.org/Graphics/SVG/1.1/DTD/svg11.dtd">
<!-- Generated by graphviz version 8.0.3 (20230416.2022)
 -->
<!-- Title: remapEmailRecords Pages: 1 -->
<svg width="375pt" height="27pt"
 viewBox="0.00 0.00 375.00 27.00" xmlns="http://www.w3.org/2000/svg" xmlns:xlink="http://www.w3.org/1999/xlink">
<g id="graph0" class="graph" transform="scale(1 1) rotate(0) translate(4 23)">
<title>remapEmailRecords</title>
<!-- Node1 -->
<g id="node1" class="node">
<title>Node1</title>
<g id="a_node1"><a xlink:title="This function is called at the very start.">
<polygon fill="#999999" stroke="#666666" points="367,-19 262,-19 262,0 367,0 367,-19"/>
<text text-anchor="middle" x="314.5" y="-7" font-family="Helvetica,sans-Serif" font-size="10.00">remapEmailRecords</text>
</a>
</g>
</g>
<!-- Node2 -->
<g id="node2" class="node">
<title>Node2</title>
<g id="a_node2"><a xlink:href="class_o_c_a_1_1_c_a_f_e_v_d_b_1_1_email_form_1_1_recipients_filter.html#a1909f4b7f8129c7790cb75de2ffbe1e4" target="_top" xlink:title="Parse the CGI stuff and compute the list of selected musicians, either for the initial form setup as ...">
<polygon fill="white" stroke="#666666" points="226,-19 175,-19 175,0 226,0 226,-19"/>
<text text-anchor="middle" x="200.5" y="-7" font-family="Helvetica,sans-Serif" font-size="10.00">execute</text>
</a>
</g>
</g>
<!-- Node1&#45;&gt;Node2 -->
<g id="edge1" class="edge">
<title>Node1&#45;&gt;Node2</title>
<path fill="none" stroke="#63b8ff" d="M251.01,-9.5C242.24,-9.5 233.69,-9.5 226.22,-9.5"/>
<polygon fill="#63b8ff" stroke="#63b8ff" points="250.76,-13 260.76,-9.5 250.76,-6 250.76,-13"/>
</g>
<!-- Node3 -->
<g id="node3" class="node">
<title>Node3</title>
<g id="a_node3"><a xlink:href="class_o_c_a_1_1_c_a_f_e_v_d_b_1_1_email_form_1_1_recipients_filter.html#ae40c9dafec946961dfd72815f6764fb8" target="_top" xlink:title=" ">
<polygon fill="white" stroke="#666666" points="139,-19 104,-19 104,0 139,0 139,-19"/>
<text text-anchor="middle" x="121.5" y="-7" font-family="Helvetica,sans-Serif" font-size="10.00">bind</text>
</a>
</g>
</g>
<!-- Node2&#45;&gt;Node3 -->
<g id="edge2" class="edge">
<title>Node2&#45;&gt;Node3</title>
<path fill="none" stroke="#63b8ff" d="M163.71,-9.5C155.16,-9.5 146.43,-9.5 139.21,-9.5"/>
<polygon fill="#63b8ff" stroke="#63b8ff" points="163.71,-13 173.71,-9.5 163.71,-6 163.71,-13"/>
</g>
<!-- Node4 -->
<g id="node4" class="node">
<title>Node4</title>
<g id="a_node4"><a xlink:href="class_o_c_a_1_1_c_a_f_e_v_d_b_1_1_email_form_1_1_recipients_filter.html#a1a3fa621489e73c7386685aa0e152c30" target="_top" xlink:title="{}">
<polygon fill="white" stroke="#666666" points="68,-19 0,-19 0,0 68,0 68,-19"/>
<text text-anchor="middle" x="34" y="-7" font-family="Helvetica,sans-Serif" font-size="10.00">__construct</text>
</a>
</g>
</g>
<!-- Node3&#45;&gt;Node4 -->
<g id="edge3" class="edge">
<title>Node3&#45;&gt;Node4</title>
<path fill="none" stroke="#63b8ff" d="M92.63,-9.5C84.92,-9.5 76.48,-9.5 68.48,-9.5"/>
<polygon fill="#63b8ff" stroke="#63b8ff" points="92.61,-13 102.61,-9.5 92.61,-6 92.61,-13"/>
</g>
</g>
</svg>
