<?xml version="1.0" encoding="UTF-8" standalone="no"?>
<!DOCTYPE svg PUBLIC "-//W3C//DTD SVG 1.1//EN"
 "http://www.w3.org/Graphics/SVG/1.1/DTD/svg11.dtd">
<!-- Generated by graphviz version 9.0.0 (20230911.1827)
 -->
<!-- Title: HaliteAsymmetricKeyStorage Pages: 1 -->
<svg width="166pt" height="196pt"
 viewBox="0.00 0.00 165.75 196.00" xmlns="http://www.w3.org/2000/svg" xmlns:xlink="http://www.w3.org/1999/xlink">
<g id="graph0" class="graph" transform="scale(1 1) rotate(0) translate(4 192)">
<title>HaliteAsymmetricKeyStorage</title>
<!-- Node1 -->
<g id="Node000001" class="node">
<title>Node1</title>
<g id="a_Node000001"><a xlink:title="Key&#45;storage for Halite.">
<polygon fill="#999999" stroke="#666666" points="151.38,-20 6.38,-20 6.38,0 151.38,0 151.38,-20"/>
<text text-anchor="middle" x="78.88" y="-6.5" font-family="Helvetica,sans-Serif" font-size="10.00">HaliteAsymmetricKeyStorage</text>
</a>
</g>
</g>
<!-- Node2 -->
<g id="Node000002" class="node">
<title>Node2</title>
<g id="a_Node000002"><a xlink:href="class_o_c_a_1_1_c_a_f_e_v_d_b_1_1_crypto_1_1_cloud_asymmetric_key_storage.html" target="_top" xlink:title="Key&#45;storage base&#45;class.">
<polygon fill="white" stroke="#666666" points="151.38,-76 6.38,-76 6.38,-56 151.38,-56 151.38,-76"/>
<text text-anchor="middle" x="78.88" y="-62.5" font-family="Helvetica,sans-Serif" font-size="10.00">CloudAsymmetricKeyStorage</text>
</a>
</g>
</g>
<!-- Node2&#45;&gt;Node1 -->
<g id="edge1_Node000001_Node000002" class="edge">
<title>Node2&#45;&gt;Node1</title>
<g id="a_edge1_Node000001_Node000002"><a xlink:title=" ">
<path fill="none" stroke="#63b8ff" d="M78.88,-44.13C78.88,-35.9 78.88,-26.85 78.88,-20.3"/>
<polygon fill="#63b8ff" stroke="#63b8ff" points="75.38,-44.08 78.88,-54.08 82.38,-44.08 75.38,-44.08"/>
</a>
</g>
</g>
<!-- Node3 -->
<g id="Node000003" class="node">
<title>Node3</title>
<g id="a_Node000003"><a xlink:href="class_o_c_a_1_1_c_a_f_e_v_d_b_1_1_crypto_1_1_abstract_asymmetric_key_storage.html" target="_top" xlink:title="Abstract base providing default implementations.">
<polygon fill="white" stroke="#666666" points="157,-132 0.75,-132 0.75,-112 157,-112 157,-132"/>
<text text-anchor="middle" x="78.88" y="-118.5" font-family="Helvetica,sans-Serif" font-size="10.00">AbstractAsymmetricKeyStorage</text>
</a>
</g>
</g>
<!-- Node3&#45;&gt;Node2 -->
<g id="edge2_Node000002_Node000003" class="edge">
<title>Node3&#45;&gt;Node2</title>
<g id="a_edge2_Node000002_Node000003"><a xlink:title=" ">
<path fill="none" stroke="#63b8ff" d="M78.88,-100.13C78.88,-91.9 78.88,-82.85 78.88,-76.3"/>
<polygon fill="#63b8ff" stroke="#63b8ff" points="75.38,-100.08 78.88,-110.08 82.38,-100.08 75.38,-100.08"/>
</a>
</g>
</g>
<!-- Node4 -->
<g id="Node000004" class="node">
<title>Node4</title>
<g id="a_Node000004"><a xlink:href="interface_o_c_a_1_1_c_a_f_e_v_d_b_1_1_crypto_1_1_asymmetric_key_storage_interface.html" target="_top" xlink:title="Key&#45;storage interface.">
<polygon fill="white" stroke="#666666" points="157.75,-188 0,-188 0,-168 157.75,-168 157.75,-188"/>
<text text-anchor="middle" x="78.88" y="-174.5" font-family="Helvetica,sans-Serif" font-size="10.00">AsymmetricKeyStorageInterface</text>
</a>
</g>
</g>
<!-- Node4&#45;&gt;Node3 -->
<g id="edge3_Node000003_Node000004" class="edge">
<title>Node4&#45;&gt;Node3</title>
<g id="a_edge3_Node000003_Node000004"><a xlink:title=" ">
<path fill="none" stroke="#63b8ff" d="M78.88,-156.13C78.88,-147.9 78.88,-138.85 78.88,-132.3"/>
<polygon fill="#63b8ff" stroke="#63b8ff" points="75.38,-156.08 78.88,-166.08 82.38,-156.08 75.38,-156.08"/>
</a>
</g>
</g>
</g>
</svg>
