<?xml version="1.0" encoding="UTF-8" standalone="no"?>
<!DOCTYPE svg PUBLIC "-//W3C//DTD SVG 1.1//EN"
 "http://www.w3.org/Graphics/SVG/1.1/DTD/svg11.dtd">
<!-- Generated by graphviz version 8.0.3 (20230416.2022)
 -->
<!-- Title: render Pages: 1 -->
<svg width="428pt" height="104pt"
 viewBox="0.00 0.00 428.00 104.00" xmlns="http://www.w3.org/2000/svg" xmlns:xlink="http://www.w3.org/1999/xlink">
<g id="graph0" class="graph" transform="scale(1 1) rotate(0) translate(4 100)">
<title>render</title>
<!-- Node1 -->
<g id="node1" class="node">
<title>Node1</title>
<g id="a_node1"><a xlink:title="{Show the underlying template page.This is supposed to echo html code to stdout. This is the default ...">
<polygon fill="#999999" stroke="#666666" points="44,-48.5 0,-48.5 0,-29.5 44,-29.5 44,-48.5"/>
<text text-anchor="middle" x="22" y="-36.5" font-family="Helvetica,sans-Serif" font-size="10.00">render</text>
</a>
</g>
</g>
<!-- Node2 -->
<g id="node2" class="node">
<title>Node2</title>
<g id="a_node2"><a xlink:href="class_o_c_a_1_1_c_a_f_e_v_d_b_1_1_common_1_1_util.html#a3ad8a4109147715b8c5573d1dbdb2d3d" target="_top" xlink:title="Merge $arrays recursively where later arguments in the list override the values of previous arguments...">
<polygon fill="white" stroke="#666666" points="223.5,-78 91.5,-78 91.5,-48 223.5,-48 223.5,-78"/>
<text text-anchor="start" x="99.5" y="-66" font-family="Helvetica,sans-Serif" font-size="10.00">OCA\CAFEVDB\Common</text>
<text text-anchor="middle" x="157.5" y="-55" font-family="Helvetica,sans-Serif" font-size="10.00">\Util\arrayMergeRecursive</text>
</a>
</g>
</g>
<!-- Node1&#45;&gt;Node2 -->
<g id="edge1" class="edge">
<title>Node1&#45;&gt;Node2</title>
<path fill="none" stroke="#63b8ff" d="M44.45,-42.86C54.57,-44.68 67.32,-46.97 80.56,-49.35"/>
<polygon fill="#63b8ff" stroke="#63b8ff" points="79.78,-52.94 90.24,-51.27 81.02,-46.05 79.78,-52.94"/>
</g>
<!-- Node4 -->
<g id="node4" class="node">
<title>Node4</title>
<g id="a_node4"><a xlink:href="class_o_c_a_1_1_c_a_f_e_v_d_b_1_1_page_renderer_1_1_p_m_e_table_view_base.html#aa55b0bcba8682486d2ad67ca15019ab5" target="_top" xlink:title="Run underlying table&#45;manager (phpMyEdit for now).">
<polygon fill="white" stroke="#666666" points="235,-30 80,-30 80,0 235,0 235,-30"/>
<text text-anchor="start" x="88" y="-18" font-family="Helvetica,sans-Serif" font-size="10.00">OCA\CAFEVDB\PageRenderer</text>
<text text-anchor="middle" x="157.5" y="-7" font-family="Helvetica,sans-Serif" font-size="10.00">\PMETableViewBase\execute</text>
</a>
</g>
</g>
<!-- Node1&#45;&gt;Node4 -->
<g id="edge4" class="edge">
<title>Node1&#45;&gt;Node4</title>
<path fill="none" stroke="#63b8ff" d="M44.45,-35.14C51.55,-33.87 59.94,-32.36 68.89,-30.75"/>
<polygon fill="#63b8ff" stroke="#63b8ff" points="69.38,-34.04 78.61,-28.82 68.15,-27.15 69.38,-34.04"/>
</g>
<!-- Node3 -->
<g id="node3" class="node">
<title>Node3</title>
<g id="a_node3"><a xlink:href="class_o_c_a_1_1_c_a_f_e_v_d_b_1_1_common_1_1_util.html#a9396752fa41df5ffcd301d52263367f9" target="_top" xlink:title="Inner work&#45;horse for arrayMergeRecursive.">
<polygon fill="white" stroke="#666666" points="420,-78 271,-78 271,-48 420,-48 420,-78"/>
<text text-anchor="start" x="279" y="-66" font-family="Helvetica,sans-Serif" font-size="10.00">OCA\CAFEVDB\Common</text>
<text text-anchor="middle" x="345.5" y="-55" font-family="Helvetica,sans-Serif" font-size="10.00">\Util\arrayMergeTwoRecursive</text>
</a>
</g>
</g>
<!-- Node2&#45;&gt;Node3 -->
<g id="edge2" class="edge">
<title>Node2&#45;&gt;Node3</title>
<path fill="none" stroke="#63b8ff" d="M223.82,-63C235.55,-63 247.94,-63 260.13,-63"/>
<polygon fill="#63b8ff" stroke="#63b8ff" points="259.77,-66.5 269.77,-63 259.77,-59.5 259.77,-66.5"/>
</g>
<!-- Node3&#45;&gt;Node3 -->
<g id="edge3" class="edge">
<title>Node3&#45;&gt;Node3</title>
<path fill="none" stroke="#63b8ff" d="M312.45,-78.28C305.11,-87.41 316.12,-96 345.5,-96 362.48,-96 373.33,-93.13 378.04,-88.94"/>
<polygon fill="#63b8ff" stroke="#63b8ff" points="381.57,-89.43 378.55,-79.28 374.57,-89.1 381.57,-89.43"/>
</g>
</g>
</svg>
