<?xml version="1.0" encoding="UTF-8" standalone="no"?>
<!DOCTYPE svg PUBLIC "-//W3C//DTD SVG 1.1//EN"
 "http://www.w3.org/Graphics/SVG/1.1/DTD/svg11.dtd">
<!-- Generated by graphviz version 9.0.0 (20230911.1827)
 -->
<!-- Title: newTemporaryFile Pages: 1 -->
<svg width="309pt" height="66pt"
 viewBox="0.00 0.00 308.75 66.00" xmlns="http://www.w3.org/2000/svg" xmlns:xlink="http://www.w3.org/1999/xlink">
<g id="graph0" class="graph" transform="scale(1 1) rotate(0) translate(4 62)">
<title>newTemporaryFile</title>
<!-- Node1 -->
<g id="Node000001" class="node">
<title>Node1</title>
<g id="a_Node000001"><a xlink:title="Generate a random file.">
<polygon fill="#999999" stroke="#666666" points="95.5,-39 0,-39 0,-19 95.5,-19 95.5,-39"/>
<text text-anchor="middle" x="47.75" y="-25.5" font-family="Helvetica,sans-Serif" font-size="10.00">newTemporaryFile</text>
</a>
</g>
</g>
<!-- Node2 -->
<g id="Node000002" class="node">
<title>Node2</title>
<g id="a_Node000002"><a xlink:href="class_o_c_a_1_1_c_a_f_e_v_d_b_1_1_storage_1_1_app_storage.html#a43e2b8de357718737d0fa45498269a3f" target="_top" xlink:title="Ensure a folder exists withtout throwing an exception.">
<polygon fill="white" stroke="#666666" points="203.75,-39 131.5,-39 131.5,-19 203.75,-19 203.75,-39"/>
<text text-anchor="middle" x="167.62" y="-25.5" font-family="Helvetica,sans-Serif" font-size="10.00">ensureFolder</text>
</a>
</g>
</g>
<!-- Node1&#45;&gt;Node2 -->
<g id="edge1_Node000001_Node000002" class="edge">
<title>Node1&#45;&gt;Node2</title>
<g id="a_edge1_Node000001_Node000002"><a xlink:title=" ">
<path fill="none" stroke="#63b8ff" d="M95.68,-29C103.61,-29 111.85,-29 119.79,-29"/>
<polygon fill="#63b8ff" stroke="#63b8ff" points="119.61,-32.5 129.61,-29 119.61,-25.5 119.61,-32.5"/>
</a>
</g>
</g>
<!-- Node3 -->
<g id="Node000003" class="node">
<title>Node3</title>
<g id="a_Node000003"><a xlink:href="class_o_c_a_1_1_c_a_f_e_v_d_b_1_1_storage_1_1_app_storage.html#a330e8edf0ecc220b330e6e6c37058e49" target="_top" xlink:title="Get the folder with name $name.">
<polygon fill="white" stroke="#666666" points="298.5,-58 242,-58 242,-38 298.5,-38 298.5,-58"/>
<text text-anchor="middle" x="270.25" y="-44.5" font-family="Helvetica,sans-Serif" font-size="10.00">getFolder</text>
</a>
</g>
</g>
<!-- Node2&#45;&gt;Node3 -->
<g id="edge2_Node000002_Node000003" class="edge">
<title>Node2&#45;&gt;Node3</title>
<g id="a_edge2_Node000002_Node000003"><a xlink:title=" ">
<path fill="none" stroke="#63b8ff" d="M204.1,-35.7C212.68,-37.32 221.89,-39.06 230.6,-40.7"/>
<polygon fill="#63b8ff" stroke="#63b8ff" points="229.71,-44.1 240.19,-42.51 231.01,-37.22 229.71,-44.1"/>
</a>
</g>
</g>
<!-- Node4 -->
<g id="Node000004" class="node">
<title>Node4</title>
<g id="a_Node000004"><a xlink:href="class_o_c_a_1_1_c_a_f_e_v_d_b_1_1_storage_1_1_app_storage.html#a31956852c940764b8b48f73a7c547c67" target="_top" xlink:title="Create a new folder named $name.">
<polygon fill="white" stroke="#666666" points="300.75,-20 239.75,-20 239.75,0 300.75,0 300.75,-20"/>
<text text-anchor="middle" x="270.25" y="-6.5" font-family="Helvetica,sans-Serif" font-size="10.00">newFolder</text>
</a>
</g>
</g>
<!-- Node2&#45;&gt;Node4 -->
<g id="edge3_Node000002_Node000004" class="edge">
<title>Node2&#45;&gt;Node4</title>
<g id="a_edge3_Node000002_Node000004"><a xlink:title=" ">
<path fill="none" stroke="#63b8ff" d="M204.1,-22.3C211.95,-20.82 220.32,-19.24 228.36,-17.72"/>
<polygon fill="#63b8ff" stroke="#63b8ff" points="228.75,-21.21 237.93,-15.91 227.46,-14.33 228.75,-21.21"/>
</a>
</g>
</g>
</g>
</svg>
