<?xml version="1.0" encoding="UTF-8" standalone="no"?>
<!DOCTYPE svg PUBLIC "-//W3C//DTD SVG 1.1//EN"
 "http://www.w3.org/Graphics/SVG/1.1/DTD/svg11.dtd">
<!-- Generated by graphviz version 9.0.0 (20230911.1827)
 -->
<!-- Title: filemtime Pages: 1 -->
<svg width="690pt" height="123pt"
 viewBox="0.00 0.00 690.25 123.49" xmlns="http://www.w3.org/2000/svg" xmlns:xlink="http://www.w3.org/1999/xlink">
<g id="graph0" class="graph" transform="scale(1 1) rotate(0) translate(4 119.49)">
<title>filemtime</title>
<!-- Node1 -->
<g id="Node000001" class="node">
<title>Node1</title>
<g id="a_Node000001"><a xlink:title="{}">
<polygon fill="#999999" stroke="#666666" points="55.75,-77 0,-77 0,-57 55.75,-57 55.75,-77"/>
<text text-anchor="middle" x="27.88" y="-63.5" font-family="Helvetica,sans-Serif" font-size="10.00">filemtime</text>
</a>
</g>
</g>
<!-- Node2 -->
<g id="Node000002" class="node">
<title>Node2</title>
<g id="a_Node000002"><a xlink:href="class_o_c_a_1_1_c_a_f_e_v_d_b_1_1_storage_1_1_database_1_1_storage.html#a7ec90cd17ef214d5fe4280b13d7c144a" target="_top" xlink:title="Fetch the file entity corresponding to file&#45;name.">
<polygon fill="white" stroke="#666666" points="397.12,-96 303.88,-96 303.88,-76 397.12,-76 397.12,-96"/>
<text text-anchor="middle" x="350.5" y="-82.5" font-family="Helvetica,sans-Serif" font-size="10.00">fileFromFileName</text>
</a>
</g>
</g>
<!-- Node1&#45;&gt;Node2 -->
<g id="edge1_Node000001_Node000002" class="edge">
<title>Node1&#45;&gt;Node2</title>
<g id="a_edge1_Node000001_Node000002"><a xlink:title=" ">
<path fill="none" stroke="#63b8ff" d="M41.39,-77.42C53.43,-86.72 72.58,-99.66 91.75,-105 163.02,-124.86 249.42,-111.25 301.89,-99.05"/>
<polygon fill="#63b8ff" stroke="#63b8ff" points="302.5,-102.51 311.4,-96.76 300.86,-95.7 302.5,-102.51"/>
</a>
</g>
</g>
<!-- Node6 -->
<g id="Node000006" class="node">
<title>Node6</title>
<g id="a_Node000006"><a xlink:href="class_o_c_a_1_1_c_a_f_e_v_d_b_1_1_storage_1_1_database_1_1_storage.html#a9d7ac9f8614357ce6b7358708b9ab040" target="_top" xlink:title=" ">
<polygon fill="white" stroke="#666666" points="235.25,-96 91.75,-96 91.75,-76 235.25,-76 235.25,-96"/>
<text text-anchor="middle" x="163.5" y="-82.5" font-family="Helvetica,sans-Serif" font-size="10.00">getDirectoryModificationTime</text>
</a>
</g>
</g>
<!-- Node1&#45;&gt;Node6 -->
<g id="edge5_Node000001_Node000006" class="edge">
<title>Node1&#45;&gt;Node6</title>
<g id="a_edge5_Node000001_Node000006"><a xlink:title=" ">
<path fill="none" stroke="#63b8ff" d="M56.24,-70.89C63.41,-71.91 71.52,-73.06 79.98,-74.27"/>
<polygon fill="#63b8ff" stroke="#63b8ff" points="79.38,-77.72 89.77,-75.66 80.37,-70.79 79.38,-77.72"/>
</a>
</g>
</g>
<!-- Node7 -->
<g id="Node000007" class="node">
<title>Node7</title>
<g id="a_Node000007"><a xlink:href="class_o_c_a_1_1_c_a_f_e_v_d_b_1_1_storage_1_1_database_1_1_storage.html#a8eb3e49592d26a52be7e8987722d1aa3" target="_top" xlink:title="Get the overall modification time of the entire storage as Unix time&#45;stamp.">
<polygon fill="white" stroke="#666666" points="232.25,-20 94.75,-20 94.75,0 232.25,0 232.25,-20"/>
<text text-anchor="middle" x="163.5" y="-6.5" font-family="Helvetica,sans-Serif" font-size="10.00">getStorageModificationTime</text>
</a>
</g>
</g>
<!-- Node1&#45;&gt;Node7 -->
<g id="edge7_Node000001_Node000007" class="edge">
<title>Node1&#45;&gt;Node7</title>
<g id="a_edge7_Node000001_Node000007"><a xlink:title=" ">
<path fill="none" stroke="#63b8ff" d="M43.24,-56.71C55.59,-48.26 74.15,-36.5 91.75,-29 96.09,-27.15 100.66,-25.43 105.31,-23.86"/>
<polygon fill="#63b8ff" stroke="#63b8ff" points="106.27,-27.22 114.75,-20.88 104.16,-20.55 106.27,-27.22"/>
</a>
</g>
</g>
<!-- Node9 -->
<g id="Node000009" class="node">
<title>Node9</title>
<g id="a_Node000009"><a xlink:href="class_o_c_a_1_1_c_a_f_e_v_d_b_1_1_storage_1_1_database_1_1_storage.html#a5877dd78fbe10fb5f3ee3d25e3fbe11e" target="_top" xlink:title="{}">
<polygon fill="white" stroke="#666666" points="183.12,-58 143.88,-58 143.88,-38 183.12,-38 183.12,-58"/>
<text text-anchor="middle" x="163.5" y="-44.5" font-family="Helvetica,sans-Serif" font-size="10.00">is_dir</text>
</a>
</g>
</g>
<!-- Node1&#45;&gt;Node9 -->
<g id="edge9_Node000001_Node000009" class="edge">
<title>Node1&#45;&gt;Node9</title>
<g id="a_edge9_Node000001_Node000009"><a xlink:title=" ">
<path fill="none" stroke="#63b8ff" d="M56.24,-63.11C78.48,-59.95 109.8,-55.49 132.67,-52.24"/>
<polygon fill="#63b8ff" stroke="#63b8ff" points="132.87,-55.75 142.27,-50.88 131.88,-48.82 132.87,-55.75"/>
</a>
</g>
</g>
<!-- Node3 -->
<g id="Node000003" class="node">
<title>Node3</title>
<g id="a_Node000003"><a xlink:href="class_o_c_a_1_1_c_a_f_e_v_d_b_1_1_storage_1_1_database_1_1_storage.html#ab721841df814a2337039d39cc03da82a" target="_top" xlink:title=" ">
<polygon fill="white" stroke="#666666" points="522.25,-115 465.75,-115 465.75,-95 522.25,-95 522.25,-115"/>
<text text-anchor="middle" x="494" y="-101.5" font-family="Helvetica,sans-Serif" font-size="10.00">buildPath</text>
</a>
</g>
</g>
<!-- Node2&#45;&gt;Node3 -->
<g id="edge2_Node000002_Node000003" class="edge">
<title>Node2&#45;&gt;Node3</title>
<g id="a_edge2_Node000002_Node000003"><a xlink:title=" ">
<path fill="none" stroke="#63b8ff" d="M397.44,-92.17C415.76,-94.63 436.61,-97.43 454.16,-99.78"/>
<polygon fill="#63b8ff" stroke="#63b8ff" points="453.55,-103.23 463.92,-101.1 454.48,-96.3 453.55,-103.23"/>
</a>
</g>
</g>
<!-- Node4 -->
<g id="Node000004" class="node">
<title>Node4</title>
<g id="a_Node000004"><a xlink:href="class_o_c_a_1_1_c_a_f_e_v_d_b_1_1_storage_1_1_database_1_1_storage.html#aa8e4fc68bcf28c10413b664b7d89ae81" target="_top" xlink:title="Slightly modified pathinfo() function which also normalized directories before computing the componen...">
<polygon fill="white" stroke="#666666" points="519.62,-77 468.38,-77 468.38,-57 519.62,-57 519.62,-77"/>
<text text-anchor="middle" x="494" y="-63.5" font-family="Helvetica,sans-Serif" font-size="10.00">pathInfo</text>
</a>
</g>
</g>
<!-- Node2&#45;&gt;Node4 -->
<g id="edge3_Node000002_Node000004" class="edge">
<title>Node2&#45;&gt;Node4</title>
<g id="a_edge3_Node000002_Node000004"><a xlink:title=" ">
<path fill="none" stroke="#63b8ff" d="M397.44,-79.83C416.64,-77.25 438.63,-74.3 456.67,-71.88"/>
<polygon fill="#63b8ff" stroke="#63b8ff" points="456.94,-75.37 466.38,-70.57 456.01,-68.44 456.94,-75.37"/>
</a>
</g>
</g>
<!-- Node5 -->
<g id="Node000005" class="node">
<title>Node5</title>
<g id="a_Node000005"><a xlink:href="class_o_c_a_1_1_c_a_f_e_v_d_b_1_1_storage_1_1_database_1_1_storage.html#ac5c1b62ecc9eb2ebe08f1e8c7ee2b283" target="_top" xlink:title="Attach self::PATH_SEPARATOR to the dirname if it is not the root directory.">
<polygon fill="white" stroke="#666666" points="682.25,-77 558.25,-77 558.25,-57 682.25,-57 682.25,-77"/>
<text text-anchor="middle" x="620.25" y="-63.5" font-family="Helvetica,sans-Serif" font-size="10.00">normalizeDirectoryName</text>
</a>
</g>
</g>
<!-- Node4&#45;&gt;Node5 -->
<g id="edge4_Node000004_Node000005" class="edge">
<title>Node4&#45;&gt;Node5</title>
<g id="a_edge4_Node000004_Node000005"><a xlink:title=" ">
<path fill="none" stroke="#63b8ff" d="M519.85,-67C527.79,-67 537.02,-67 546.59,-67"/>
<polygon fill="#63b8ff" stroke="#63b8ff" points="546.42,-70.5 556.42,-67 546.42,-63.5 546.42,-70.5"/>
</a>
</g>
</g>
<!-- Node6&#45;&gt;Node2 -->
<g id="edge6_Node000006_Node000002" class="edge">
<title>Node6&#45;&gt;Node2</title>
<g id="a_edge6_Node000006_Node000002"><a xlink:title=" ">
<path fill="none" stroke="#63b8ff" d="M235.5,-86C254.22,-86 274.19,-86 292.1,-86"/>
<polygon fill="#63b8ff" stroke="#63b8ff" points="292.02,-89.5 302.02,-86 292.02,-82.5 292.02,-89.5"/>
</a>
</g>
</g>
<!-- Node8 -->
<g id="Node000008" class="node">
<title>Node8</title>
<g id="a_Node000008"><a xlink:href="class_o_c_a_1_1_c_a_f_e_v_d_b_1_1_storage_1_1_database_1_1_storage.html#ae5a252c76f3eca6363a55691f69dd932" target="_top" xlink:title="Return the overall modification time of the entire storage.">
<polygon fill="white" stroke="#666666" points="429.75,-20 271.25,-20 271.25,0 429.75,0 429.75,-20"/>
<text text-anchor="middle" x="350.5" y="-6.5" font-family="Helvetica,sans-Serif" font-size="10.00">getStorageModificationDateTime</text>
</a>
</g>
</g>
<!-- Node7&#45;&gt;Node8 -->
<g id="edge8_Node000007_Node000008" class="edge">
<title>Node7&#45;&gt;Node8</title>
<g id="a_edge8_Node000007_Node000008"><a xlink:title=" ">
<path fill="none" stroke="#63b8ff" d="M232.6,-10C241.36,-10 250.44,-10 259.49,-10"/>
<polygon fill="#63b8ff" stroke="#63b8ff" points="259.4,-13.5 269.4,-10 259.4,-6.5 259.4,-13.5"/>
</a>
</g>
</g>
<!-- Node9&#45;&gt;Node2 -->
<g id="edge10_Node000009_Node000002" class="edge">
<title>Node9&#45;&gt;Node2</title>
<g id="a_edge10_Node000009_Node000002"><a xlink:title=" ">
<path fill="none" stroke="#63b8ff" d="M183.6,-51.92C209.04,-57.15 255.13,-66.62 292.29,-74.25"/>
<polygon fill="#63b8ff" stroke="#63b8ff" points="291.52,-77.66 302.02,-76.25 292.93,-70.81 291.52,-77.66"/>
</a>
</g>
</g>
</g>
</svg>
