<?xml version="1.0" encoding="UTF-8" standalone="no"?>
<!DOCTYPE svg PUBLIC "-//W3C//DTD SVG 1.1//EN"
 "http://www.w3.org/Graphics/SVG/1.1/DTD/svg11.dtd">
<!-- Generated by graphviz version 7.1.0 (20230121.1956)
 -->
<!-- Title: refreshCalendarManager Pages: 1 -->
<svg width="259pt" height="138pt"
 viewBox="0.00 0.00 259.00 138.00" xmlns="http://www.w3.org/2000/svg" xmlns:xlink="http://www.w3.org/1999/xlink">
<g id="graph0" class="graph" transform="scale(1 1) rotate(0) translate(4 134)">
<title>refreshCalendarManager</title>
<!-- Node1 -->
<g id="node1" class="node">
<title>Node1</title>
<g id="a_node1"><a xlink:title="Force \OCA\DAV\CalDAV\CalendarManager to be refreshed.">
<polygon fill="#999999" stroke="#666666" points="251,-74 128,-74 128,-55 251,-55 251,-74"/>
<text text-anchor="middle" x="189.5" y="-62" font-family="Helvetica,sans-Serif" font-size="10.00">refreshCalendarManager</text>
</a>
</g>
</g>
<!-- Node2 -->
<g id="node2" class="node">
<title>Node2</title>
<g id="a_node2"><a xlink:href="class_o_c_a_1_1_c_a_f_e_v_d_b_1_1_service_1_1_cal_dav_service.html#a78d0c710a1daf942261bb03c06797bb5" target="_top" xlink:title="Get a calendar with the given id.">
<polygon fill="white" stroke="#666666" points="83,-130 9,-130 9,-111 83,-111 83,-130"/>
<text text-anchor="middle" x="46" y="-118" font-family="Helvetica,sans-Serif" font-size="10.00">calendarById</text>
</a>
</g>
</g>
<!-- Node1&#45;&gt;Node2 -->
<g id="edge1" class="edge">
<title>Node1&#45;&gt;Node2</title>
<path fill="none" stroke="#63b8ff" d="M152.94,-78.57C127.79,-88.53 94.66,-101.64 72.2,-110.53"/>
<polygon fill="#63b8ff" stroke="#63b8ff" points="154.11,-81.87 162.12,-74.94 151.53,-75.37 154.11,-81.87"/>
</g>
<!-- Node3 -->
<g id="node3" class="node">
<title>Node3</title>
<g id="a_node3"><a xlink:href="class_o_c_a_1_1_c_a_f_e_v_d_b_1_1_service_1_1_cal_dav_service.html#a6200f98c0237694c00c3b0fa2fd0a2ef" target="_top" xlink:title="Get a calendar with the given display name.">
<polygon fill="white" stroke="#666666" points="92,-93 0,-93 0,-74 92,-74 92,-93"/>
<text text-anchor="middle" x="46" y="-81" font-family="Helvetica,sans-Serif" font-size="10.00">calendarByName</text>
</a>
</g>
</g>
<!-- Node1&#45;&gt;Node3 -->
<g id="edge2" class="edge">
<title>Node1&#45;&gt;Node3</title>
<path fill="none" stroke="#63b8ff" d="M116.51,-74.17C108.3,-75.27 100.11,-76.37 92.39,-77.4"/>
<polygon fill="#63b8ff" stroke="#63b8ff" points="116.72,-77.67 126.17,-72.87 115.79,-70.73 116.72,-77.67"/>
</g>
<!-- Node4 -->
<g id="node4" class="node">
<title>Node4</title>
<g id="a_node4"><a xlink:href="class_o_c_a_1_1_c_a_f_e_v_d_b_1_1_service_1_1_cal_dav_service.html#a557a43cc765f714a460217554dd0e5e8" target="_top" xlink:title="Get or create a calendar.">
<polygon fill="white" stroke="#666666" points="87.5,-56 4.5,-56 4.5,-37 87.5,-37 87.5,-56"/>
<text text-anchor="middle" x="46" y="-44" font-family="Helvetica,sans-Serif" font-size="10.00">createCalendar</text>
</a>
</g>
</g>
<!-- Node1&#45;&gt;Node4 -->
<g id="edge3" class="edge">
<title>Node1&#45;&gt;Node4</title>
<path fill="none" stroke="#63b8ff" d="M116.54,-55.35C106.66,-54.09 96.81,-52.84 87.76,-51.69"/>
<polygon fill="#63b8ff" stroke="#63b8ff" points="115.81,-58.78 126.17,-56.57 116.69,-51.84 115.81,-58.78"/>
</g>
<!-- Node5 -->
<g id="node5" class="node">
<title>Node5</title>
<g id="a_node5"><a xlink:href="class_o_c_a_1_1_c_a_f_e_v_d_b_1_1_service_1_1_cal_dav_service.html#aa6fa8b084b8967e7896a7e091ae50868" target="_top" xlink:title="Set the display name.">
<polygon fill="white" stroke="#666666" points="83,-19 9,-19 9,0 83,0 83,-19"/>
<text text-anchor="middle" x="46" y="-7" font-family="Helvetica,sans-Serif" font-size="10.00">displayName</text>
</a>
</g>
</g>
<!-- Node1&#45;&gt;Node5 -->
<g id="edge4" class="edge">
<title>Node1&#45;&gt;Node5</title>
<path fill="none" stroke="#63b8ff" d="M152.34,-50.44C127.35,-40.73 94.71,-28.05 72.43,-19.39"/>
<polygon fill="#63b8ff" stroke="#63b8ff" points="150.88,-53.63 161.46,-53.99 153.41,-47.11 150.88,-53.63"/>
</g>
</g>
</svg>
