<?xml version="1.0" encoding="UTF-8" standalone="no"?>
<!DOCTYPE svg PUBLIC "-//W3C//DTD SVG 1.1//EN"
 "http://www.w3.org/Graphics/SVG/1.1/DTD/svg11.dtd">
<!-- Generated by graphviz version 9.0.0 (20230911.1827)
 -->
<!-- Title: personalizedViewName Pages: 1 -->
<svg width="491pt" height="90pt"
 viewBox="0.00 0.00 491.00 90.00" xmlns="http://www.w3.org/2000/svg" xmlns:xlink="http://www.w3.org/1999/xlink">
<g id="graph0" class="graph" transform="scale(1 1) rotate(0) translate(4 86)">
<title>personalizedViewName</title>
<!-- Node1 -->
<g id="Node000001" class="node">
<title>Node1</title>
<g id="a_Node000001"><a xlink:title=" ">
<polygon fill="#999999" stroke="#666666" points="483,-51 364.25,-51 364.25,-31 483,-31 483,-51"/>
<text text-anchor="middle" x="423.62" y="-37.5" font-family="Helvetica,sans-Serif" font-size="10.00">personalizedViewName</text>
</a>
</g>
</g>
<!-- Node2 -->
<g id="Node000002" class="node">
<title>Node2</title>
<g id="a_Node000002"><a xlink:href="class_o_c_a_1_1_c_a_f_e_v_d_b_1_1_service_1_1_cloud_user_connector_service.html#afd669fc5c9519ec4df86f83338241f86" target="_top" xlink:title="Generate the (My&#45;)SQL statements for defining the personalized single&#45;row musician views.">
<polygon fill="white" stroke="#666666" points="328.25,-57 179.5,-57 179.5,-25 328.25,-25 328.25,-57"/>
<text text-anchor="start" x="187.5" y="-43.5" font-family="Helvetica,sans-Serif" font-size="10.00">generateMusicianPersonalized</text>
<text text-anchor="middle" x="253.88" y="-31.5" font-family="Helvetica,sans-Serif" font-size="10.00">ViewsStatements</text>
</a>
</g>
</g>
<!-- Node1&#45;&gt;Node2 -->
<g id="edge1_Node000001_Node000002" class="edge">
<title>Node1&#45;&gt;Node2</title>
<g id="a_edge1_Node000001_Node000002"><a xlink:title=" ">
<path fill="none" stroke="#63b8ff" d="M352.51,-41C344.6,-41 336.51,-41 328.56,-41"/>
<polygon fill="#63b8ff" stroke="#63b8ff" points="352.44,-44.5 362.44,-41 352.44,-37.5 352.44,-44.5"/>
</a>
</g>
</g>
<!-- Node3 -->
<g id="Node000003" class="node">
<title>Node3</title>
<g id="a_Node000003"><a xlink:href="class_o_c_a_1_1_c_a_f_e_v_d_b_1_1_service_1_1_cloud_user_connector_service.html#a10e78d362d26b66ba16cfd97a46499da" target="_top" xlink:title="Delete the personalized one&#45;row views which give individual orchestra members access to just their ow...">
<polygon fill="white" stroke="#666666" points="143.5,-82 0,-82 0,-50 143.5,-50 143.5,-82"/>
<text text-anchor="start" x="8" y="-68.5" font-family="Helvetica,sans-Serif" font-size="10.00">removeMusicianPersonalized</text>
<text text-anchor="middle" x="71.75" y="-56.5" font-family="Helvetica,sans-Serif" font-size="10.00">Views</text>
</a>
</g>
</g>
<!-- Node2&#45;&gt;Node3 -->
<g id="edge2_Node000002_Node000003" class="edge">
<title>Node2&#45;&gt;Node3</title>
<g id="a_edge2_Node000002_Node000003"><a xlink:title=" ">
<path fill="none" stroke="#63b8ff" d="M167.8,-52.81C159.77,-53.92 151.68,-55.04 143.8,-56.14"/>
<polygon fill="#63b8ff" stroke="#63b8ff" points="168.17,-56.29 177.59,-51.45 167.21,-49.36 168.17,-56.29"/>
</a>
</g>
</g>
<!-- Node4 -->
<g id="Node000004" class="node">
<title>Node4</title>
<g id="a_Node000004"><a xlink:href="class_o_c_a_1_1_c_a_f_e_v_d_b_1_1_service_1_1_cloud_user_connector_service.html#ab8482f7cd6afd7290823d6bfafe1c2a3" target="_top" xlink:title="Update the personalized one&#45;row views which give individual orchestra members access to just their ow...">
<polygon fill="white" stroke="#666666" points="142,-32 1.5,-32 1.5,0 142,0 142,-32"/>
<text text-anchor="start" x="9.5" y="-18.5" font-family="Helvetica,sans-Serif" font-size="10.00">updateMusicianPersonalized</text>
<text text-anchor="middle" x="71.75" y="-6.5" font-family="Helvetica,sans-Serif" font-size="10.00">Views</text>
</a>
</g>
</g>
<!-- Node2&#45;&gt;Node4 -->
<g id="edge3_Node000002_Node000004" class="edge">
<title>Node2&#45;&gt;Node4</title>
<g id="a_edge3_Node000002_Node000004"><a xlink:title=" ">
<path fill="none" stroke="#63b8ff" d="M167.9,-29.21C159.35,-28.02 150.73,-26.82 142.36,-25.66"/>
<polygon fill="#63b8ff" stroke="#63b8ff" points="167.21,-32.64 177.59,-30.55 168.17,-25.71 167.21,-32.64"/>
</a>
</g>
</g>
</g>
</svg>
