<?xml version="1.0" encoding="UTF-8" standalone="no"?>
<!DOCTYPE svg PUBLIC "-//W3C//DTD SVG 1.1//EN"
 "http://www.w3.org/Graphics/SVG/1.1/DTD/svg11.dtd">
<!-- Generated by graphviz version 8.0.3 (20230416.2022)
 -->
<!-- Title: DatabaseStoragesRepository Pages: 1 -->
<svg width="153pt" height="137pt"
 viewBox="0.00 0.00 153.00 137.00" xmlns="http://www.w3.org/2000/svg" xmlns:xlink="http://www.w3.org/1999/xlink">
<g id="graph0" class="graph" transform="scale(1 1) rotate(0) translate(4 133)">
<title>DatabaseStoragesRepository</title>
<!-- Node1 -->
<g id="node1" class="node">
<title>Node1</title>
<g id="a_node1"><a xlink:title="Database repository for DatabaseStorages entities.">
<polygon fill="#999999" stroke="#666666" points="145,-19 0,-19 0,0 145,0 145,-19"/>
<text text-anchor="middle" x="72.5" y="-7" font-family="Helvetica,sans-Serif" font-size="10.00">DatabaseStoragesRepository</text>
</a>
</g>
</g>
<!-- Node2 -->
<g id="node2" class="node">
<title>Node2</title>
<g id="a_node2"><a xlink:href="class_o_c_a_1_1_c_a_f_e_v_d_b_1_1_database_1_1_doctrine_1_1_o_r_m_1_1_repositories_1_1_entity_repository.html" target="_top" xlink:title="Base class for all of our repositories.">
<polygon fill="white" stroke="#666666" points="117,-74 28,-74 28,-55 117,-55 117,-74"/>
<text text-anchor="middle" x="72.5" y="-62" font-family="Helvetica,sans-Serif" font-size="10.00">EntityRepository</text>
</a>
</g>
</g>
<!-- Node2&#45;&gt;Node1 -->
<g id="edge1" class="edge">
<title>Node2&#45;&gt;Node1</title>
<path fill="none" stroke="#63b8ff" d="M72.5,-43.93C72.5,-35.53 72.5,-26.13 72.5,-19.44"/>
<polygon fill="#63b8ff" stroke="#63b8ff" points="69,-43.75 72.5,-53.75 76,-43.75 69,-43.75"/>
</g>
<!-- Node3 -->
<g id="node3" class="node">
<title>Node3</title>
<g id="a_node3"><a xlink:title=" ">
<polygon fill="white" stroke="#bfbfbf" points="117,-129 28,-129 28,-110 117,-110 117,-129"/>
<text text-anchor="middle" x="72.5" y="-117" font-family="Helvetica,sans-Serif" font-size="10.00">EntityRepository</text>
</a>
</g>
</g>
<!-- Node3&#45;&gt;Node2 -->
<g id="edge2" class="edge">
<title>Node3&#45;&gt;Node2</title>
<path fill="none" stroke="#63b8ff" d="M72.5,-98.93C72.5,-90.53 72.5,-81.13 72.5,-74.44"/>
<polygon fill="#63b8ff" stroke="#63b8ff" points="69,-98.75 72.5,-108.75 76,-98.75 69,-98.75"/>
</g>
</g>
</svg>
