<?xml version="1.0" encoding="UTF-8" standalone="no"?>
<!DOCTYPE svg PUBLIC "-//W3C//DTD SVG 1.1//EN"
 "http://www.w3.org/Graphics/SVG/1.1/DTD/svg11.dtd">
<!-- Generated by graphviz version 8.0.3 (20230416.2022)
 -->
<!-- Title: export Pages: 1 -->
<svg width="222pt" height="86pt"
 viewBox="0.00 0.00 222.00 86.00" xmlns="http://www.w3.org/2000/svg" xmlns:xlink="http://www.w3.org/1999/xlink">
<g id="graph0" class="graph" transform="scale(1 1) rotate(0) translate(4 82)">
<title>export</title>
<!-- Node1 -->
<g id="node1" class="node">
<title>Node1</title>
<g id="a_node1"><a xlink:title="Export the stored data for one musician as vCard.">
<polygon fill="#999999" stroke="#666666" points="44,-54 0,-54 0,-35 44,-35 44,-54"/>
<text text-anchor="middle" x="22" y="-42" font-family="Helvetica,sans-Serif" font-size="10.00">export</text>
</a>
</g>
</g>
<!-- Node2 -->
<g id="node2" class="node">
<title>Node2</title>
<g id="a_node2"><a xlink:href="class_o_c_a_1_1_c_a_f_e_v_d_b_1_1_service_1_1_contacts_service.html#a3fc4dd2f88e685006f4e337133bd98a6" target="_top" xlink:title=" ">
<polygon fill="white" stroke="#666666" points="195,-78 99,-78 99,-59 195,-59 195,-78"/>
<text text-anchor="middle" x="147" y="-66" font-family="Helvetica,sans-Serif" font-size="10.00">geoCodingService</text>
</a>
</g>
</g>
<!-- Node1&#45;&gt;Node2 -->
<g id="edge1" class="edge">
<title>Node1&#45;&gt;Node2</title>
<path fill="none" stroke="#63b8ff" d="M44.42,-48.68C56.56,-51.05 72.38,-54.14 87.91,-57.17"/>
<polygon fill="#63b8ff" stroke="#63b8ff" points="87.09,-60.77 97.57,-59.25 88.43,-53.9 87.09,-60.77"/>
</g>
<!-- Node3 -->
<g id="node3" class="node">
<title>Node3</title>
<g id="a_node3"><a xlink:href="class_o_c_a_1_1_c_a_f_e_v_d_b_1_1_database_1_1_doctrine_1_1_o_r_m_1_1_entities_1_1_musician.html#a02a01849f28e2535e888ae4ec87b20f2" target="_top" xlink:title="Get email.">
<polygon fill="white" stroke="#666666" points="214,-41 80,-41 80,0 214,0 214,-41"/>
<text text-anchor="start" x="88" y="-29" font-family="Helvetica,sans-Serif" font-size="10.00">OCA\CAFEVDB\Database</text>
<text text-anchor="start" x="88" y="-18" font-family="Helvetica,sans-Serif" font-size="10.00">\Doctrine\ORM\Entities</text>
<text text-anchor="middle" x="147" y="-7" font-family="Helvetica,sans-Serif" font-size="10.00">\Musician\getEmail</text>
</a>
</g>
</g>
<!-- Node1&#45;&gt;Node3 -->
<g id="edge2" class="edge">
<title>Node1&#45;&gt;Node3</title>
<path fill="none" stroke="#63b8ff" d="M44.42,-40.32C51.6,-38.92 60.06,-37.27 68.99,-35.53"/>
<polygon fill="#63b8ff" stroke="#63b8ff" points="69.49,-38.8 78.63,-33.45 68.15,-31.93 69.49,-38.8"/>
</g>
</g>
</svg>
