<?xml version="1.0" encoding="UTF-8" standalone="no"?>
<!DOCTYPE svg PUBLIC "-//W3C//DTD SVG 1.1//EN"
 "http://www.w3.org/Graphics/SVG/1.1/DTD/svg11.dtd">
<!-- Generated by graphviz version 9.0.0 (20230911.1827)
 -->
<!-- Title: ProjectEvent Pages: 1 -->
<svg width="413pt" height="140pt"
 viewBox="0.00 0.00 412.88 140.00" xmlns="http://www.w3.org/2000/svg" xmlns:xlink="http://www.w3.org/1999/xlink">
<g id="graph0" class="graph" transform="scale(1 1) rotate(0) translate(4 136)">
<title>ProjectEvent</title>
<!-- Node1 -->
<g id="Node000001" class="node">
<title>Node1</title>
<g id="a_Node000001"><a xlink:title="ProjectEvents.">
<polygon fill="#999999" stroke="#666666" points="248.62,-76 176.38,-76 176.38,-56 248.62,-56 248.62,-76"/>
<text text-anchor="middle" x="212.5" y="-62.5" font-family="Helvetica,sans-Serif" font-size="10.00">ProjectEvent</text>
</a>
</g>
</g>
<!-- Node3 -->
<g id="Node000003" class="node">
<title>Node3</title>
<g id="a_Node000003"><a xlink:href="class_o_c_a_1_1_c_a_f_e_v_d_b_1_1_events_1_1_after_project_deleted_event.html" target="_top" xlink:title="Event fired after project deletion.">
<polygon fill="white" stroke="#666666" points="127,-20 0,-20 0,0 127,0 127,-20"/>
<text text-anchor="middle" x="63.5" y="-6.5" font-family="Helvetica,sans-Serif" font-size="10.00">AfterProjectDeletedEvent</text>
</a>
</g>
</g>
<!-- Node1&#45;&gt;Node3 -->
<g id="edge2_Node000001_Node000003" class="edge">
<title>Node1&#45;&gt;Node3</title>
<g id="a_edge2_Node000001_Node000003"><a xlink:title=" ">
<path fill="none" stroke="#63b8ff" d="M176.05,-51.79C149.31,-42.1 113.61,-29.16 89.66,-20.48"/>
<polygon fill="#63b8ff" stroke="#63b8ff" points="174.53,-54.96 185.12,-55.08 176.91,-48.38 174.53,-54.96"/>
</a>
</g>
</g>
<!-- Node4 -->
<g id="Node000004" class="node">
<title>Node4</title>
<g id="a_Node000004"><a xlink:href="class_o_c_a_1_1_c_a_f_e_v_d_b_1_1_events_1_1_before_project_deleted_event.html" target="_top" xlink:title="Fired before the project is actually deleted or soft&#45;deleted.">
<polygon fill="white" stroke="#666666" points="279.75,-20 145.25,-20 145.25,0 279.75,0 279.75,-20"/>
<text text-anchor="middle" x="212.5" y="-6.5" font-family="Helvetica,sans-Serif" font-size="10.00">BeforeProjectDeletedEvent</text>
</a>
</g>
</g>
<!-- Node1&#45;&gt;Node4 -->
<g id="edge3_Node000001_Node000004" class="edge">
<title>Node1&#45;&gt;Node4</title>
<g id="a_edge3_Node000001_Node000004"><a xlink:title=" ">
<path fill="none" stroke="#63b8ff" d="M212.5,-44.13C212.5,-35.9 212.5,-26.85 212.5,-20.3"/>
<polygon fill="#63b8ff" stroke="#63b8ff" points="209,-44.08 212.5,-54.08 216,-44.08 209,-44.08"/>
</a>
</g>
</g>
<!-- Node5 -->
<g id="Node000005" class="node">
<title>Node5</title>
<g id="a_Node000005"><a xlink:href="class_o_c_a_1_1_c_a_f_e_v_d_b_1_1_events_1_1_project_created_event.html" target="_top" xlink:title="Event fired after project creation.">
<polygon fill="white" stroke="#666666" points="404.88,-20 298.12,-20 298.12,0 404.88,0 404.88,-20"/>
<text text-anchor="middle" x="351.5" y="-6.5" font-family="Helvetica,sans-Serif" font-size="10.00">ProjectCreatedEvent</text>
</a>
</g>
</g>
<!-- Node1&#45;&gt;Node5 -->
<g id="edge4_Node000001_Node000005" class="edge">
<title>Node1&#45;&gt;Node5</title>
<g id="a_edge4_Node000001_Node000005"><a xlink:title=" ">
<path fill="none" stroke="#63b8ff" d="M247.17,-51.53C272.04,-41.87 304.95,-29.08 327.1,-20.48"/>
<polygon fill="#63b8ff" stroke="#63b8ff" points="246.18,-48.16 238.12,-55.05 248.71,-54.69 246.18,-48.16"/>
</a>
</g>
</g>
<!-- Node2 -->
<g id="Node000002" class="node">
<title>Node2</title>
<g id="a_Node000002"><a xlink:title=" ">
<polygon fill="white" stroke="#bfbfbf" points="248.62,-132 176.38,-132 176.38,-112 248.62,-112 248.62,-132"/>
<text text-anchor="middle" x="212.5" y="-118.5" font-family="Helvetica,sans-Serif" font-size="10.00">ArrayAccess</text>
</a>
</g>
</g>
<!-- Node2&#45;&gt;Node1 -->
<g id="edge1_Node000001_Node000002" class="edge">
<title>Node2&#45;&gt;Node1</title>
<g id="a_edge1_Node000001_Node000002"><a xlink:title=" ">
<path fill="none" stroke="#63b8ff" d="M212.5,-100.13C212.5,-91.9 212.5,-82.85 212.5,-76.3"/>
<polygon fill="#63b8ff" stroke="#63b8ff" points="209,-100.08 212.5,-110.08 216,-100.08 209,-100.08"/>
</a>
</g>
</g>
</g>
</svg>
