<?xml version="1.0" encoding="UTF-8" standalone="no"?>
<!DOCTYPE svg PUBLIC "-//W3C//DTD SVG 1.1//EN"
 "http://www.w3.org/Graphics/SVG/1.1/DTD/svg11.dtd">
<!-- Generated by graphviz version 9.0.0 (20230911.1827)
 -->
<!-- Title: criteria Pages: 1 -->
<!--zoomable 484 -->

<svg id="main" version="1.1" xmlns="http://www.w3.org/2000/svg" xmlns:xlink="http://www.w3.org/1999/xlink" xml:space="preserve" onload="init(evt)">
<style type="text/css"><![CDATA[
.node, .edge {opacity: 0.7;}
.node.selected, .edge.selected {opacity: 1;}
.edge:hover path { stroke: red; }
.edge:hover polygon { stroke: red; fill: red; }
]]></style>

<defs>
  <circle id="rim" cx="0" cy="0" r="7"/>
  <circle id="rim2" cx="0" cy="0" r="3.5"/>
  <g id="zoomPlus">
    <use xlink:href="#rim" fill="#404040"><set attributeName="fill" to="#808080" begin="zoomplus.mouseover" end="zoomplus.mouseout"/></use>
    <path d="M-4,0h8M0,-4v8" fill="none" stroke="white" stroke-width="1.5" pointer-events="none"/>
  </g>
  <g id="zoomMin">
    <use xlink:href="#rim" fill="#404040"><set attributeName="fill" to="#808080" begin="zoomminus.mouseover" end="zoomminus.mouseout"/></use>
    <path d="M-4,0h8" fill="none" stroke="white" stroke-width="1.5" pointer-events="none"/>
  </g>
  <g id="arrowUp" transform="translate(30 24)">
    <use xlink:href="#rim"/>
    <path pointer-events="none" fill="none" stroke="white" stroke-width="1.5" d="M0,-3.0v7 M-2.5,-0.5L0,-3.0L2.5,-0.5"/>
  </g>
  <g id="arrowRight" transform="rotate(90) translate(36 -43)">
    <use xlink:href="#rim"/>
    <path pointer-events="none" fill="none" stroke="white" stroke-width="1.5" d="M0,-3.0v7 M-2.5,-0.5L0,-3.0L2.5,-0.5"/>
  </g>
  <g id="arrowDown" transform="rotate(180) translate(-30 -48)">
    <use xlink:href="#rim"/>
    <path pointer-events="none" fill="none" stroke="white" stroke-width="1.5" d="M0,-3.0v7 M-2.5,-0.5L0,-3.0L2.5,-0.5"/>
  </g>
  <g id="arrowLeft" transform="rotate(270) translate(-36 17)">
    <use xlink:href="#rim"/>
    <path pointer-events="none" fill="none" stroke="white" stroke-width="1.5" d="M0,-3.0v7 M-2.5,-0.5L0,-3.0L2.5,-0.5"/>
  </g>
  <g id="resetDef">
    <use xlink:href="#rim2" fill="#404040"><set attributeName="fill" to="#808080" begin="reset.mouseover" end="reset.mouseout"/></use>
  </g>
</defs>
<script type="application/ecmascript">
var viewWidth = 409;
var viewHeight = 484;
var sectionId = 'dynsection-0';
</script>
<script type="application/ecmascript" xlink:href="svg.min.js"/>
<svg id="graph" class="graph">
<g id="viewport">
<title>criteria</title>
<!-- Node1 -->
<g id="Node000001" class="node">
<title>Node1</title>
<g id="a_Node000001"><a xlink:title="Convenience function to generate Collections\Criteria.">
<polygon fill="#999999" stroke="#666666" points="400.5,-282 355.25,-282 355.25,-262 400.5,-262 400.5,-282"/>
<text text-anchor="middle" x="377.88" y="-268.5" font-family="Helvetica,sans-Serif" font-size="10.00">criteria</text>
</a>
</g>
</g>
<!-- Node2 -->
<g id="Node000002" class="node">
<title>Node2</title>
<g id="a_Node000002"><a xlink:href="namespace_o_c_a_1_1_c_a_f_e_v_d_b_1_1_traits.html#af2691c40495d429502e48d4824f0b080" target="_top" xlink:title="Convenience function to generate Collections\Criteria.">
<polygon fill="white" stroke="#666666" points="319.25,-310 202.75,-310 202.75,-278 319.25,-278 319.25,-310"/>
<text text-anchor="start" x="210.75" y="-296.5" font-family="Helvetica,sans-Serif" font-size="10.00">OCA\CAFEVDB\Traits</text>
<text text-anchor="middle" x="261" y="-284.5" font-family="Helvetica,sans-Serif" font-size="10.00">\criteria</text>
</a>
</g>
</g>
<!-- Node1&#45;&gt;Node2 -->
<g id="edge1_Node000001_Node000002" class="edge">
<title>Node1&#45;&gt;Node2</title>
<g id="a_edge1_Node000001_Node000002"><a xlink:title=" ">
<path fill="none" stroke="#63b8ff" d="M343.76,-278.34C336.18,-279.79 327.91,-281.38 319.63,-282.96"/>
<polygon fill="#63b8ff" stroke="#63b8ff" points="344.35,-281.79 353.51,-276.47 343.03,-274.92 344.35,-281.79"/>
</a>
</g>
</g>
<!-- Node3 -->
<g id="Node000003" class="node">
<title>Node3</title>
<g id="a_Node000003"><a xlink:href="class_o_c_a_1_1_c_a_f_e_v_d_b_1_1_database_1_1_doctrine_1_1_util.html#aafe8e2082bd107d572aa76086a06b24e" target="_top" xlink:title="Convenience function.">
<polygon fill="white" stroke="#666666" points="297.88,-260 224.12,-260 224.12,-240 297.88,-240 297.88,-260"/>
<text text-anchor="middle" x="261" y="-246.5" font-family="Helvetica,sans-Serif" font-size="10.00">criteriaWhere</text>
</a>
</g>
</g>
<!-- Node1&#45;&gt;Node3 -->
<g id="edge2_Node000001_Node000003" class="edge">
<title>Node1&#45;&gt;Node3</title>
<g id="a_edge2_Node000001_Node000003"><a xlink:title=" ">
<path fill="none" stroke="#63b8ff" d="M343.72,-265.65C329.48,-262.92 312.81,-259.73 298.25,-256.94"/>
<polygon fill="#63b8ff" stroke="#63b8ff" points="343.03,-269.08 353.51,-267.53 344.35,-262.21 343.03,-269.08"/>
</a>
</g>
</g>
<!-- Node4 -->
<g id="Node000004" class="node">
<title>Node4</title>
<g id="a_Node000004"><a xlink:href="namespace_o_c_a_1_1_c_a_f_e_v_d_b_1_1_traits.html#aafe8e2082bd107d572aa76086a06b24e" target="_top" xlink:title=" ">
<polygon fill="white" stroke="#666666" points="141.62,-476 25.12,-476 25.12,-444 141.62,-444 141.62,-476"/>
<text text-anchor="start" x="33.12" y="-462.5" font-family="Helvetica,sans-Serif" font-size="10.00">OCA\CAFEVDB\Traits</text>
<text text-anchor="middle" x="83.38" y="-450.5" font-family="Helvetica,sans-Serif" font-size="10.00">\criteriaWhere</text>
</a>
</g>
</g>
<!-- Node3&#45;&gt;Node4 -->
<g id="edge3_Node000003_Node000004" class="edge">
<title>Node3&#45;&gt;Node4</title>
<g id="a_edge3_Node000003_Node000004"><a xlink:title=" ">
<path fill="none" stroke="#63b8ff" d="M213.36,-260.58C209.41,-262.86 205.77,-265.63 202.75,-269 152.3,-325.16 217.92,-379.5 166.75,-435 160.06,-442.25 151.35,-447.43 142.1,-451.11"/>
<polygon fill="#63b8ff" stroke="#63b8ff" points="214.66,-263.84 222.29,-256.49 211.74,-257.47 214.66,-263.84"/>
</a>
</g>
</g>
<!-- Node5 -->
<g id="Node000005" class="node">
<title>Node5</title>
<g id="a_Node000005"><a xlink:href="class_o_c_a_1_1_c_a_f_e_v_d_b_1_1_database_1_1_doctrine_1_1_o_r_m_1_1_entities_1_1_database_storage_folder.html#aaccc30214fd11a89620910ae83cb2b31" target="_top" xlink:title=" ">
<polygon fill="white" stroke="#666666" points="150.25,-426 16.5,-426 16.5,-370 150.25,-370 150.25,-426"/>
<text text-anchor="start" x="24.5" y="-412.5" font-family="Helvetica,sans-Serif" font-size="10.00">OCA\CAFEVDB\Database</text>
<text text-anchor="start" x="24.5" y="-400.5" font-family="Helvetica,sans-Serif" font-size="10.00">\Doctrine\ORM\Entities</text>
<text text-anchor="start" x="24.5" y="-388.5" font-family="Helvetica,sans-Serif" font-size="10.00">\DatabaseStorageFolder</text>
<text text-anchor="middle" x="83.38" y="-376.5" font-family="Helvetica,sans-Serif" font-size="10.00">\getEntryByName</text>
</a>
</g>
</g>
<!-- Node3&#45;&gt;Node5 -->
<g id="edge4_Node000003_Node000005" class="edge">
<title>Node3&#45;&gt;Node5</title>
<g id="a_edge4_Node000003_Node000005"><a xlink:title=" ">
<path fill="none" stroke="#63b8ff" d="M213.59,-261.27C209.64,-263.41 205.95,-265.96 202.75,-269 170.9,-299.22 197.02,-329.2 166.75,-361 161.99,-366 156.44,-370.37 150.5,-374.18"/>
<polygon fill="#63b8ff" stroke="#63b8ff" points="214.66,-264.62 222.37,-257.35 211.81,-258.23 214.66,-264.62"/>
</a>
</g>
</g>
<!-- Node6 -->
<g id="Node000006" class="node">
<title>Node6</title>
<g id="a_Node000006"><a xlink:href="class_o_c_a_1_1_c_a_f_e_v_d_b_1_1_database_1_1_doctrine_1_1_o_r_m_1_1_entities_1_1_database_storage_folder.html#ae3f26d0c9ab593df3331ca906567a115" target="_top" xlink:title=" ">
<polygon fill="white" stroke="#666666" points="150.25,-352 16.5,-352 16.5,-296 150.25,-296 150.25,-352"/>
<text text-anchor="start" x="24.5" y="-338.5" font-family="Helvetica,sans-Serif" font-size="10.00">OCA\CAFEVDB\Database</text>
<text text-anchor="start" x="24.5" y="-326.5" font-family="Helvetica,sans-Serif" font-size="10.00">\Doctrine\ORM\Entities</text>
<text text-anchor="start" x="24.5" y="-314.5" font-family="Helvetica,sans-Serif" font-size="10.00">\DatabaseStorageFolder</text>
<text text-anchor="middle" x="83.38" y="-302.5" font-family="Helvetica,sans-Serif" font-size="10.00">\getFileByName</text>
</a>
</g>
</g>
<!-- Node3&#45;&gt;Node6 -->
<g id="edge5_Node000003_Node000006" class="edge">
<title>Node3&#45;&gt;Node6</title>
<g id="a_edge5_Node000003_Node000006"><a xlink:title=" ">
<path fill="none" stroke="#63b8ff" d="M215.25,-264.16C211,-265.71 206.77,-267.34 202.75,-269 186.22,-275.83 182.91,-279.33 166.75,-287 160.8,-289.82 154.59,-292.71 148.35,-295.58"/>
<polygon fill="#63b8ff" stroke="#63b8ff" points="216.09,-267.57 224.37,-260.96 213.78,-260.97 216.09,-267.57"/>
</a>
</g>
</g>
<!-- Node7 -->
<g id="Node000007" class="node">
<title>Node7</title>
<g id="a_Node000007"><a xlink:href="class_o_c_a_1_1_c_a_f_e_v_d_b_1_1_database_1_1_doctrine_1_1_o_r_m_1_1_entities_1_1_database_storage_folder.html#ad8bd1b1e4e8f449108639d5add09edb7" target="_top" xlink:title=" ">
<polygon fill="white" stroke="#666666" points="150.25,-278 16.5,-278 16.5,-222 150.25,-222 150.25,-278"/>
<text text-anchor="start" x="24.5" y="-264.5" font-family="Helvetica,sans-Serif" font-size="10.00">OCA\CAFEVDB\Database</text>
<text text-anchor="start" x="24.5" y="-252.5" font-family="Helvetica,sans-Serif" font-size="10.00">\Doctrine\ORM\Entities</text>
<text text-anchor="start" x="24.5" y="-240.5" font-family="Helvetica,sans-Serif" font-size="10.00">\DatabaseStorageFolder</text>
<text text-anchor="middle" x="83.38" y="-228.5" font-family="Helvetica,sans-Serif" font-size="10.00">\getFolderByName</text>
</a>
</g>
</g>
<!-- Node3&#45;&gt;Node7 -->
<g id="edge6_Node000003_Node000007" class="edge">
<title>Node3&#45;&gt;Node7</title>
<g id="a_edge6_Node000003_Node000007"><a xlink:title=" ">
<path fill="none" stroke="#63b8ff" d="M212.61,-250C193.5,-250 171.13,-250 150.47,-250"/>
<polygon fill="#63b8ff" stroke="#63b8ff" points="212.52,-253.5 222.52,-250 212.52,-246.5 212.52,-253.5"/>
</a>
</g>
</g>
<!-- Node8 -->
<g id="Node000008" class="node">
<title>Node8</title>
<g id="a_Node000008"><a xlink:href="class_o_c_a_1_1_c_a_f_e_v_d_b_1_1_database_1_1_doctrine_1_1_o_r_m_1_1_entities_1_1_project_participant_field.html#abba1d644a20b16908a615d2409b81720" target="_top" xlink:title="Filter field&#45;data by musician.">
<polygon fill="white" stroke="#666666" points="150.25,-204 16.5,-204 16.5,-148 150.25,-148 150.25,-204"/>
<text text-anchor="start" x="24.5" y="-190.5" font-family="Helvetica,sans-Serif" font-size="10.00">OCA\CAFEVDB\Database</text>
<text text-anchor="start" x="24.5" y="-178.5" font-family="Helvetica,sans-Serif" font-size="10.00">\Doctrine\ORM\Entities</text>
<text text-anchor="start" x="24.5" y="-166.5" font-family="Helvetica,sans-Serif" font-size="10.00">\ProjectParticipantField</text>
<text text-anchor="middle" x="83.38" y="-154.5" font-family="Helvetica,sans-Serif" font-size="10.00">\getMusicianFieldData</text>
</a>
</g>
</g>
<!-- Node3&#45;&gt;Node8 -->
<g id="edge7_Node000003_Node000008" class="edge">
<title>Node3&#45;&gt;Node8</title>
<g id="a_edge7_Node000003_Node000008"><a xlink:title=" ">
<path fill="none" stroke="#63b8ff" d="M224.76,-235.15C203.55,-226.21 175.86,-214.55 150.69,-203.94"/>
<polygon fill="#63b8ff" stroke="#63b8ff" points="223.24,-238.31 233.81,-238.97 225.96,-231.86 223.24,-238.31"/>
</a>
</g>
</g>
<!-- Node9 -->
<g id="Node000009" class="node">
<title>Node9</title>
<g id="a_Node000009"><a xlink:href="class_o_c_a_1_1_c_a_f_e_v_d_b_1_1_database_1_1_doctrine_1_1_o_r_m_1_1_entities_1_1_project_participant_field_data_option.html#abba1d644a20b16908a615d2409b81720" target="_top" xlink:title="Filter field&#45;data by musician.">
<polygon fill="white" stroke="#666666" points="166.75,-130 0,-130 0,-74 166.75,-74 166.75,-130"/>
<text text-anchor="start" x="8" y="-116.5" font-family="Helvetica,sans-Serif" font-size="10.00">OCA\CAFEVDB\Database</text>
<text text-anchor="start" x="8" y="-104.5" font-family="Helvetica,sans-Serif" font-size="10.00">\Doctrine\ORM\Entities</text>
<text text-anchor="start" x="8" y="-92.5" font-family="Helvetica,sans-Serif" font-size="10.00">\ProjectParticipantFieldDataOption</text>
<text text-anchor="middle" x="83.38" y="-80.5" font-family="Helvetica,sans-Serif" font-size="10.00">\getMusicianFieldData</text>
</a>
</g>
</g>
<!-- Node3&#45;&gt;Node9 -->
<g id="edge8_Node000003_Node000009" class="edge">
<title>Node3&#45;&gt;Node9</title>
<g id="a_edge8_Node000003_Node000009"><a xlink:title=" ">
<path fill="none" stroke="#63b8ff" d="M247.51,-230.25C231.37,-206.05 201.21,-165.04 166.75,-139 162.75,-135.98 158.46,-133.13 154.02,-130.46"/>
<polygon fill="#63b8ff" stroke="#63b8ff" points="244.51,-232.06 252.9,-238.53 250.38,-228.24 244.51,-232.06"/>
</a>
</g>
</g>
<!-- Node10 -->
<g id="Node000010" class="node">
<title>Node10</title>
<g id="a_Node000010"><a xlink:href="class_o_c_a_1_1_c_a_f_e_v_d_b_1_1_database_1_1_doctrine_1_1_o_r_m_1_1_entities_1_1_project_participant_field.html#a89b1874ae24baa224ffd642bbb1f6437" target="_top" xlink:title="Search an option by its label.">
<polygon fill="white" stroke="#666666" points="150.25,-56 16.5,-56 16.5,0 150.25,0 150.25,-56"/>
<text text-anchor="start" x="24.5" y="-42.5" font-family="Helvetica,sans-Serif" font-size="10.00">OCA\CAFEVDB\Database</text>
<text text-anchor="start" x="24.5" y="-30.5" font-family="Helvetica,sans-Serif" font-size="10.00">\Doctrine\ORM\Entities</text>
<text text-anchor="start" x="24.5" y="-18.5" font-family="Helvetica,sans-Serif" font-size="10.00">\ProjectParticipantField</text>
<text text-anchor="middle" x="83.38" y="-6.5" font-family="Helvetica,sans-Serif" font-size="10.00">\getOptionByLabel</text>
</a>
</g>
</g>
<!-- Node3&#45;&gt;Node10 -->
<g id="edge9_Node000003_Node000010" class="edge">
<title>Node3&#45;&gt;Node10</title>
<g id="a_edge9_Node000003_Node000010"><a xlink:title=" ">
<path fill="none" stroke="#63b8ff" d="M254.52,-229.1C243.7,-191.59 216.24,-112.33 166.75,-65 161.88,-60.34 156.32,-56.2 150.44,-52.54"/>
<polygon fill="#63b8ff" stroke="#63b8ff" points="251.01,-229.56 257.05,-238.26 257.76,-227.69 251.01,-229.56"/>
</a>
</g>
</g>
</g>
</svg>

<g id="navigator" transform="translate(0 0)" fill="#404254">
  <rect fill="#f2f5e9" fill-opacity="0.5" stroke="#606060" stroke-width=".5" x="0" y="0" width="60" height="60"/>
  <use id="zoomplus" xlink:href="#zoomPlus" x="17" y="9" onmousedown="handleZoom(evt,'in')"/>
  <use id="zoomminus" xlink:href="#zoomMin" x="42" y="9" onmousedown="handleZoom(evt,'out')"/>
  <use id="reset" xlink:href="#resetDef" x="30" y="36" onmousedown="handleReset()"/>
   <use id="arrowup" xlink:href="#arrowUp" x="0" y="0" onmousedown="handlePan(0,-1)"/>
  <use id="arrowright" xlink:href="#arrowRight" x="0" y="0" onmousedown="handlePan(1,0)"/>
  <use id="arrowdown" xlink:href="#arrowDown" x="0" y="0" onmousedown="handlePan(0,1)"/>
  <use id="arrowleft" xlink:href="#arrowLeft" x="0" y="0" onmousedown="handlePan(-1,0)"/>
</g>
<svg viewBox="0 0 15 15" width="100%" height="30px" preserveAspectRatio="xMaxYMin meet">
 <g id="arrow_out" transform="scale(0.3 0.3)">
  <a xlink:href="class_o_c_a_1_1_c_a_f_e_v_d_b_1_1_database_1_1_doctrine_1_1_util_af2691c40495d429502e48d4824f0b080_icgraph_org.svg" target="_base">
   <rect id="button" ry="5" rx="5" y="6" x="6" height="38" width="38"
        fill="#f2f5e9" fill-opacity="0.5" stroke="#606060" stroke-width="1.0"/>
   <path id="arrow"
     d="M 11.500037,31.436501 C 11.940474,20.09759 22.043105,11.32322 32.158766,21.979434 L 37.068811,17.246167 C 37.068811,17.246167 37.088388,32 37.088388,32 L 22.160133,31.978069 C 22.160133,31.978069 26.997745,27.140456 26.997745,27.140456 C 18.528582,18.264221 13.291696,25.230495 11.500037,31.436501 z"
     style="fill:#404040;"/>
  </a>
 </g>
</svg>

<style type='text/css'>
<![CDATA[
[data-mouse-over-selected='false'] { opacity: 0.7; }
[data-mouse-over-selected='true']  { opacity: 1.0; }
]]>
</style>
<script type="application/ecmascript"><![CDATA[
document.addEventListener('DOMContentLoaded', (event) => {
  highlightEdges();
  highlightAdjacentNodes();
});
]]></script>
</svg>
