<?xml version="1.0" encoding="UTF-8" standalone="no"?>
<!DOCTYPE svg PUBLIC "-//W3C//DTD SVG 1.1//EN"
 "http://www.w3.org/Graphics/SVG/1.1/DTD/svg11.dtd">
<!-- Generated by graphviz version 7.1.0 (20230121.1956)
 -->
<!-- Title: run Pages: 1 -->
<svg width="158pt" height="64pt"
 viewBox="0.00 0.00 158.00 64.00" xmlns="http://www.w3.org/2000/svg" xmlns:xlink="http://www.w3.org/1999/xlink">
<g id="graph0" class="graph" transform="scale(1 1) rotate(0) translate(4 60)">
<title>run</title>
<!-- Node1 -->
<g id="node1" class="node">
<title>Node1</title>
<g id="a_node1"><a xlink:title="{}">
<polygon fill="#999999" stroke="#666666" points="30,-37 0,-37 0,-18 30,-18 30,-37"/>
<text text-anchor="middle" x="15" y="-25" font-family="Helvetica,sans-Serif" font-size="10.00">run</text>
</a>
</g>
</g>
<!-- Node2 -->
<g id="node2" class="node">
<title>Node2</title>
<g id="a_node2"><a xlink:href="class_o_c_a_1_1_c_a_f_e_v_d_b_1_1_background_job_1_1_scan_files.html#ad96a963cd4332dd43709f1e93807cab1" target="_top" xlink:title="Find a storage which have unindexed files and return a user with access to the storage.">
<polygon fill="white" stroke="#666666" points="150,-56 66,-56 66,-37 150,-37 150,-56"/>
<text text-anchor="middle" x="108" y="-44" font-family="Helvetica,sans-Serif" font-size="10.00">getUserToScan</text>
</a>
</g>
</g>
<!-- Node1&#45;&gt;Node2 -->
<g id="edge1" class="edge">
<title>Node1&#45;&gt;Node2</title>
<path fill="none" stroke="#63b8ff" d="M30.22,-30.47C37.04,-31.89 45.68,-33.7 54.69,-35.58"/>
<polygon fill="#63b8ff" stroke="#63b8ff" points="53.77,-38.96 64.28,-37.58 55.2,-32.11 53.77,-38.96"/>
</g>
<!-- Node3 -->
<g id="node3" class="node">
<title>Node3</title>
<g id="a_node3"><a xlink:href="class_o_c_a_1_1_c_a_f_e_v_d_b_1_1_background_job_1_1_scan_files.html#a6a832c72ed05fa0b747e6651dc984638" target="_top" xlink:title=" ">
<polygon fill="white" stroke="#666666" points="141,-19 75,-19 75,0 141,0 141,-19"/>
<text text-anchor="middle" x="108" y="-7" font-family="Helvetica,sans-Serif" font-size="10.00">runScanner</text>
</a>
</g>
</g>
<!-- Node1&#45;&gt;Node3 -->
<g id="edge2" class="edge">
<title>Node1&#45;&gt;Node3</title>
<path fill="none" stroke="#63b8ff" d="M30.22,-24.69C39.33,-22.89 51.68,-20.44 63.81,-18.04"/>
<polygon fill="#63b8ff" stroke="#63b8ff" points="64.17,-21.54 73.3,-16.17 62.81,-14.67 64.17,-21.54"/>
</g>
</g>
</svg>
