<?xml version="1.0" encoding="UTF-8" standalone="no"?>
<!DOCTYPE svg PUBLIC "-//W3C//DTD SVG 1.1//EN"
 "http://www.w3.org/Graphics/SVG/1.1/DTD/svg11.dtd">
<!-- Generated by graphviz version 8.0.3 (20230416.2022)
 -->
<!-- Title: Exception Pages: 1 -->
<svg width="434pt" height="175pt"
 viewBox="0.00 0.00 434.00 175.00" xmlns="http://www.w3.org/2000/svg" xmlns:xlink="http://www.w3.org/1999/xlink">
<g id="graph0" class="graph" transform="scale(1 1) rotate(0) translate(4 171)">
<title>Exception</title>
<!-- Node1 -->
<g id="node1" class="node">
<title>Node1</title>
<g id="a_node1"><a xlink:title="Exception class abstaction.">
<polygon fill="#999999" stroke="#666666" points="60,-74 0,-74 0,-55 60,-55 60,-74"/>
<text text-anchor="middle" x="30" y="-62" font-family="Helvetica,sans-Serif" font-size="10.00">Exception</text>
</a>
</g>
</g>
<!-- Node1&#45;&gt;Node1 -->
<g id="edge1" class="edge">
<title>Node1&#45;&gt;Node1</title>
<path fill="none" stroke="#63b8ff" d="M17.54,-85.1C18.97,-89.13 23.13,-92 30,-92 42.22,-92 45.84,-82.94 40.88,-74.37"/>
<polygon fill="#63b8ff" stroke="#63b8ff" points="21.12,-85.77 19.12,-75.37 14.2,-84.75 21.12,-85.77"/>
</g>
<!-- Node1&#45;&gt;Node1 -->
<g id="edge2" class="edge">
<title>Node1&#45;&gt;Node1</title>
<path fill="none" stroke="#63b8ff" d="M7.05,-82.66C-1.03,-96.27 6.62,-110 30,-110 58.23,-110 63.53,-89.98 45.88,-74.33"/>
<polygon fill="#63b8ff" stroke="#63b8ff" points="10.32,-85.22 14.12,-75.33 4.98,-80.69 10.32,-85.22"/>
</g>
<!-- Node2 -->
<g id="node2" class="node">
<title>Node2</title>
<g id="a_node2"><a xlink:href="class_o_c_a_1_1_c_a_f_e_v_d_b_1_1_toolkit_1_1_exceptions_1_1_archive_exception.html" target="_top" xlink:title="Transparent archive extraction exception.">
<polygon fill="white" stroke="#666666" points="215.5,-130 122.5,-130 122.5,-111 215.5,-111 215.5,-130"/>
<text text-anchor="middle" x="169" y="-118" font-family="Helvetica,sans-Serif" font-size="10.00">ArchiveException</text>
</a>
</g>
</g>
<!-- Node1&#45;&gt;Node2 -->
<g id="edge3" class="edge">
<title>Node1&#45;&gt;Node2</title>
<path fill="none" stroke="#63b8ff" d="M53.79,-79.98C65.9,-87.64 81.29,-96.51 96,-102.5 104.23,-105.86 113.26,-108.71 122.05,-111.09"/>
<polygon fill="#63b8ff" stroke="#63b8ff" points="56.15,-76.69 45.86,-74.17 52.33,-82.56 56.15,-76.69"/>
</g>
<!-- Node6 -->
<g id="node6" class="node">
<title>Node6</title>
<g id="a_node6"><a xlink:href="class_o_c_a_1_1_c_a_f_e_v_d_b_1_1_toolkit_1_1_exceptions_1_1_authorization_exception.html" target="_top" xlink:title="Thrown to signal that somethings needs additional authorization.">
<polygon fill="white" stroke="#666666" points="227.5,-93 110.5,-93 110.5,-74 227.5,-74 227.5,-93"/>
<text text-anchor="middle" x="169" y="-81" font-family="Helvetica,sans-Serif" font-size="10.00">AuthorizationException</text>
</a>
</g>
</g>
<!-- Node1&#45;&gt;Node6 -->
<g id="edge7" class="edge">
<title>Node1&#45;&gt;Node6</title>
<path fill="none" stroke="#63b8ff" d="M71.14,-70.07C83.36,-71.76 97.04,-73.66 110.18,-75.48"/>
<polygon fill="#63b8ff" stroke="#63b8ff" points="71.78,-66.48 61.39,-68.58 70.81,-73.42 71.78,-66.48"/>
</g>
<!-- Node7 -->
<g id="node7" class="node">
<title>Node7</title>
<g id="a_node7"><a xlink:href="class_o_c_a_1_1_c_a_f_e_v_d_b_1_1_toolkit_1_1_exceptions_1_1_enduser_notification_exception.html" target="_top" xlink:title="This exception should provide an error message which informs an end&#45;user about an error.">
<polygon fill="white" stroke="#666666" points="242,-56 96,-56 96,-37 242,-37 242,-56"/>
<text text-anchor="middle" x="169" y="-44" font-family="Helvetica,sans-Serif" font-size="10.00">EnduserNotificationException</text>
</a>
</g>
</g>
<!-- Node1&#45;&gt;Node7 -->
<g id="edge8" class="edge">
<title>Node1&#45;&gt;Node7</title>
<path fill="none" stroke="#63b8ff" d="M71.22,-59.22C78.93,-58.2 87.22,-57.11 95.59,-56.01"/>
<polygon fill="#63b8ff" stroke="#63b8ff" points="70.85,-55.87 61.39,-60.64 71.76,-62.81 70.85,-55.87"/>
</g>
<!-- Node8 -->
<g id="node8" class="node">
<title>Node8</title>
<g id="a_node8"><a xlink:href="class_o_c_a_1_1_c_a_f_e_v_d_b_1_1_toolkit_1_1_exceptions_1_1_php_session_exception.html" target="_top" xlink:title="Thrown if there is something wrong with the access to the PHP session.">
<polygon fill="white" stroke="#666666" points="225.5,-19 112.5,-19 112.5,0 225.5,0 225.5,-19"/>
<text text-anchor="middle" x="169" y="-7" font-family="Helvetica,sans-Serif" font-size="10.00">PhpSessionException</text>
</a>
</g>
</g>
<!-- Node1&#45;&gt;Node8 -->
<g id="edge9" class="edge">
<title>Node1&#45;&gt;Node8</title>
<path fill="none" stroke="#63b8ff" d="M55.47,-49.05C67.36,-42.05 82.07,-34.1 96,-28.5 104.64,-25.03 114.11,-22.01 123.27,-19.46"/>
<polygon fill="#63b8ff" stroke="#63b8ff" points="53.97,-46.48 47.23,-54.64 57.59,-52.47 53.97,-46.48"/>
</g>
<!-- Node3 -->
<g id="node3" class="node">
<title>Node3</title>
<g id="a_node3"><a xlink:href="class_o_c_a_1_1_c_a_f_e_v_d_b_1_1_toolkit_1_1_exceptions_1_1_archive_cannot_open_exception.html" target="_top" xlink:title="Transparent archive extraction exception.">
<polygon fill="white" stroke="#666666" points="426,-167 278,-167 278,-148 426,-148 426,-167"/>
<text text-anchor="middle" x="352" y="-155" font-family="Helvetica,sans-Serif" font-size="10.00">ArchiveCannotOpenException</text>
</a>
</g>
</g>
<!-- Node2&#45;&gt;Node3 -->
<g id="edge4" class="edge">
<title>Node2&#45;&gt;Node3</title>
<path fill="none" stroke="#63b8ff" d="M226.19,-131.99C250.52,-136.96 278.73,-142.73 302.17,-147.52"/>
<polygon fill="#63b8ff" stroke="#63b8ff" points="227.17,-128.41 216.67,-129.84 225.77,-135.27 227.17,-128.41"/>
</g>
<!-- Node4 -->
<g id="node4" class="node">
<title>Node4</title>
<g id="a_node4"><a xlink:href="class_o_c_a_1_1_c_a_f_e_v_d_b_1_1_toolkit_1_1_exceptions_1_1_archive_not_open_exception.html" target="_top" xlink:title="Transparent archive extraction exception.">
<polygon fill="white" stroke="#666666" points="418,-130 286,-130 286,-111 418,-111 418,-130"/>
<text text-anchor="middle" x="352" y="-118" font-family="Helvetica,sans-Serif" font-size="10.00">ArchiveNotOpenException</text>
</a>
</g>
</g>
<!-- Node2&#45;&gt;Node4 -->
<g id="edge5" class="edge">
<title>Node2&#45;&gt;Node4</title>
<path fill="none" stroke="#63b8ff" d="M226.67,-120.5C245.34,-120.5 266.24,-120.5 285.51,-120.5"/>
<polygon fill="#63b8ff" stroke="#63b8ff" points="226.67,-117 216.67,-120.5 226.67,-124 226.67,-117"/>
</g>
<!-- Node5 -->
<g id="node5" class="node">
<title>Node5</title>
<g id="a_node5"><a xlink:href="class_o_c_a_1_1_c_a_f_e_v_d_b_1_1_toolkit_1_1_exceptions_1_1_archive_too_large_exception.html" target="_top" xlink:title="Transparent archive extraction exception.">
<polygon fill="white" stroke="#666666" points="418.5,-93 285.5,-93 285.5,-74 418.5,-74 418.5,-93"/>
<text text-anchor="middle" x="352" y="-81" font-family="Helvetica,sans-Serif" font-size="10.00">ArchiveTooLargeException</text>
</a>
</g>
</g>
<!-- Node2&#45;&gt;Node5 -->
<g id="edge6" class="edge">
<title>Node2&#45;&gt;Node5</title>
<path fill="none" stroke="#63b8ff" d="M226.19,-109.01C250.52,-104.04 278.73,-98.27 302.17,-93.48"/>
<polygon fill="#63b8ff" stroke="#63b8ff" points="225.77,-105.73 216.67,-111.16 227.17,-112.59 225.77,-105.73"/>
</g>
<!-- Node9 -->
<g id="node9" class="node">
<title>Node9</title>
<g id="a_node9"><a xlink:href="class_o_c_a_1_1_c_a_f_e_v_d_b_1_1_toolkit_1_1_exceptions_1_1_session_still_open_exception.html" target="_top" xlink:title=" ">
<polygon fill="white" stroke="#666666" points="419.5,-19 284.5,-19 284.5,0 419.5,0 419.5,-19"/>
<text text-anchor="middle" x="352" y="-7" font-family="Helvetica,sans-Serif" font-size="10.00">SessionStillOpenException</text>
</a>
</g>
</g>
<!-- Node8&#45;&gt;Node9 -->
<g id="edge10" class="edge">
<title>Node8&#45;&gt;Node9</title>
<path fill="none" stroke="#63b8ff" d="M236.4,-9.5C252.01,-9.5 268.64,-9.5 284.27,-9.5"/>
<polygon fill="#63b8ff" stroke="#63b8ff" points="236.78,-6 226.78,-9.5 236.78,-13 236.78,-6"/>
</g>
</g>
</svg>
