<?xml version="1.0" encoding="UTF-8" standalone="no"?>
<!DOCTYPE svg PUBLIC "-//W3C//DTD SVG 1.1//EN"
 "http://www.w3.org/Graphics/SVG/1.1/DTD/svg11.dtd">
<!-- Generated by graphviz version 8.0.3 (20230416.2022)
 -->
<!-- Title: InstrumentInsurance Pages: 1 -->
<svg width="174pt" height="137pt"
 viewBox="0.00 0.00 174.00 137.00" xmlns="http://www.w3.org/2000/svg" xmlns:xlink="http://www.w3.org/1999/xlink">
<g id="graph0" class="graph" transform="scale(1 1) rotate(0) translate(4 133)">
<title>InstrumentInsurance</title>
<!-- Node1 -->
<g id="node1" class="node">
<title>Node1</title>
<g id="a_node1"><a xlink:title="DO NOT EDIT THIS FILE &#45; IT WAS CREATED BY DOCTRINE&#39;S PROXY GENERATOR.">
<polygon fill="#999999" stroke="#666666" points="152,-19 46,-19 46,0 152,0 152,-19"/>
<text text-anchor="middle" x="99" y="-7" font-family="Helvetica,sans-Serif" font-size="10.00">InstrumentInsurance</text>
</a>
</g>
</g>
<!-- Node2 -->
<g id="node2" class="node">
<title>Node2</title>
<g id="a_node2"><a xlink:href="class_o_c_a_1_1_c_a_f_e_v_d_b_1_1_database_1_1_doctrine_1_1_o_r_m_1_1_entities_1_1_instrument_insurance.html" target="_top" xlink:title="InstrumentInsurance.">
<polygon fill="white" stroke="#666666" points="106,-74 0,-74 0,-55 106,-55 106,-74"/>
<text text-anchor="middle" x="53" y="-62" font-family="Helvetica,sans-Serif" font-size="10.00">InstrumentInsurance</text>
</a>
</g>
</g>
<!-- Node2&#45;&gt;Node1 -->
<g id="edge1" class="edge">
<title>Node2&#45;&gt;Node1</title>
<path fill="none" stroke="#63b8ff" d="M67.76,-46.5C75.57,-37.5 84.84,-26.82 91.24,-19.44"/>
<polygon fill="#63b8ff" stroke="#63b8ff" points="64.51,-43.9 60.6,-53.75 69.79,-48.49 64.51,-43.9"/>
</g>
<!-- Node3 -->
<g id="node3" class="node">
<title>Node3</title>
<g id="a_node3"><a xlink:title=" ">
<polygon fill="white" stroke="#bfbfbf" points="89.5,-129 16.5,-129 16.5,-110 89.5,-110 89.5,-129"/>
<text text-anchor="middle" x="53" y="-117" font-family="Helvetica,sans-Serif" font-size="10.00">ArrayAccess</text>
</a>
</g>
</g>
<!-- Node3&#45;&gt;Node2 -->
<g id="edge2" class="edge">
<title>Node3&#45;&gt;Node2</title>
<path fill="none" stroke="#63b8ff" d="M53,-98.93C53,-90.53 53,-81.13 53,-74.44"/>
<polygon fill="#63b8ff" stroke="#63b8ff" points="49.5,-98.75 53,-108.75 56.5,-98.75 49.5,-98.75"/>
</g>
<!-- Node4 -->
<g id="node4" class="node">
<title>Node4</title>
<g id="a_node4"><a xlink:title=" ">
<polygon fill="white" stroke="#bfbfbf" points="166,-74 124,-74 124,-55 166,-55 166,-74"/>
<text text-anchor="middle" x="145" y="-62" font-family="Helvetica,sans-Serif" font-size="10.00">Proxy</text>
</a>
</g>
</g>
<!-- Node4&#45;&gt;Node1 -->
<g id="edge3" class="edge">
<title>Node4&#45;&gt;Node1</title>
<path fill="none" stroke="#63b8ff" d="M130.24,-46.5C122.43,-37.5 113.16,-26.82 106.76,-19.44"/>
<polygon fill="#63b8ff" stroke="#63b8ff" points="128.21,-48.49 137.4,-53.75 133.49,-43.9 128.21,-48.49"/>
</g>
</g>
</svg>
