<?xml version="1.0" encoding="UTF-8" standalone="no"?>
<!DOCTYPE svg PUBLIC "-//W3C//DTD SVG 1.1//EN"
 "http://www.w3.org/Graphics/SVG/1.1/DTD/svg11.dtd">
<!-- Generated by graphviz version 9.0.0 (20230911.1827)
 -->
<!-- Title: UndoableFileSystemNodeRemove Pages: 1 -->
<svg width="256pt" height="252pt"
 viewBox="0.00 0.00 256.38 252.00" xmlns="http://www.w3.org/2000/svg" xmlns:xlink="http://www.w3.org/1999/xlink">
<g id="graph0" class="graph" transform="scale(1 1) rotate(0) translate(4 248)">
<title>UndoableFileSystemNodeRemove</title>
<!-- Node1 -->
<g id="Node000001" class="node">
<title>Node1</title>
<g id="a_Node000001"><a xlink:title="Remove the given path which may either point to a file or folder.">
<polygon fill="#999999" stroke="#666666" points="204.25,-76 37.5,-76 37.5,-56 204.25,-56 204.25,-76"/>
<text text-anchor="middle" x="120.88" y="-62.5" font-family="Helvetica,sans-Serif" font-size="10.00">UndoableFileSystemNodeRemove</text>
</a>
</g>
</g>
<!-- Node5 -->
<g id="Node000005" class="node">
<title>Node5</title>
<g id="a_Node000005"><a xlink:href="class_o_c_a_1_1_c_a_f_e_v_d_b_1_1_common_1_1_undoable_file_remove.html" target="_top" xlink:title="Remove the given node, which must be a regular file.">
<polygon fill="white" stroke="#666666" points="109.75,-20 0,-20 0,0 109.75,0 109.75,-20"/>
<text text-anchor="middle" x="54.88" y="-6.5" font-family="Helvetica,sans-Serif" font-size="10.00">UndoableFileRemove</text>
</a>
</g>
</g>
<!-- Node1&#45;&gt;Node5 -->
<g id="edge4_Node000001_Node000005" class="edge">
<title>Node1&#45;&gt;Node5</title>
<g id="a_edge4_Node000001_Node000005"><a xlink:title=" ">
<path fill="none" stroke="#63b8ff" d="M100.59,-48.4C89.3,-39.17 75.66,-28.01 66.24,-20.3"/>
<polygon fill="#63b8ff" stroke="#63b8ff" points="98.25,-51.01 108.21,-54.64 102.68,-45.59 98.25,-51.01"/>
</a>
</g>
</g>
<!-- Node6 -->
<g id="Node000006" class="node">
<title>Node6</title>
<g id="a_Node000006"><a xlink:href="class_o_c_a_1_1_c_a_f_e_v_d_b_1_1_common_1_1_undoable_folder_remove.html" target="_top" xlink:title="Remove the given node, which must be a folder.">
<polygon fill="white" stroke="#666666" points="248.38,-20 127.38,-20 127.38,0 248.38,0 248.38,-20"/>
<text text-anchor="middle" x="187.88" y="-6.5" font-family="Helvetica,sans-Serif" font-size="10.00">UndoableFolderRemove</text>
</a>
</g>
</g>
<!-- Node1&#45;&gt;Node6 -->
<g id="edge5_Node000001_Node000006" class="edge">
<title>Node1&#45;&gt;Node6</title>
<g id="a_edge5_Node000001_Node000006"><a xlink:title=" ">
<path fill="none" stroke="#63b8ff" d="M141.47,-48.4C152.93,-39.17 166.77,-28.01 176.34,-20.3"/>
<polygon fill="#63b8ff" stroke="#63b8ff" points="139.31,-45.64 133.72,-54.64 143.71,-51.09 139.31,-45.64"/>
</a>
</g>
</g>
<!-- Node2 -->
<g id="Node000002" class="node">
<title>Node2</title>
<g id="a_Node000002"><a xlink:href="class_o_c_a_1_1_c_a_f_e_v_d_b_1_1_common_1_1_abstract_file_system_undoable.html" target="_top" xlink:title="Base for file&#45;system related IUndoable implementations.">
<polygon fill="white" stroke="#666666" points="192.62,-132 49.12,-132 49.12,-112 192.62,-112 192.62,-132"/>
<text text-anchor="middle" x="120.88" y="-118.5" font-family="Helvetica,sans-Serif" font-size="10.00">AbstractFileSystemUndoable</text>
</a>
</g>
</g>
<!-- Node2&#45;&gt;Node1 -->
<g id="edge1_Node000001_Node000002" class="edge">
<title>Node2&#45;&gt;Node1</title>
<g id="a_edge1_Node000001_Node000002"><a xlink:title=" ">
<path fill="none" stroke="#63b8ff" d="M120.88,-100.13C120.88,-91.9 120.88,-82.85 120.88,-76.3"/>
<polygon fill="#63b8ff" stroke="#63b8ff" points="117.38,-100.08 120.88,-110.08 124.38,-100.08 117.38,-100.08"/>
</a>
</g>
</g>
<!-- Node3 -->
<g id="Node000003" class="node">
<title>Node3</title>
<g id="a_Node000003"><a xlink:href="class_o_c_a_1_1_c_a_f_e_v_d_b_1_1_common_1_1_abstract_undoable.html" target="_top" xlink:title="Default implementation for some methods.">
<polygon fill="white" stroke="#666666" points="167.88,-188 73.88,-188 73.88,-168 167.88,-168 167.88,-188"/>
<text text-anchor="middle" x="120.88" y="-174.5" font-family="Helvetica,sans-Serif" font-size="10.00">AbstractUndoable</text>
</a>
</g>
</g>
<!-- Node3&#45;&gt;Node2 -->
<g id="edge2_Node000002_Node000003" class="edge">
<title>Node3&#45;&gt;Node2</title>
<g id="a_edge2_Node000002_Node000003"><a xlink:title=" ">
<path fill="none" stroke="#63b8ff" d="M120.88,-156.13C120.88,-147.9 120.88,-138.85 120.88,-132.3"/>
<polygon fill="#63b8ff" stroke="#63b8ff" points="117.38,-156.08 120.88,-166.08 124.38,-156.08 117.38,-156.08"/>
</a>
</g>
</g>
<!-- Node4 -->
<g id="Node000004" class="node">
<title>Node4</title>
<g id="a_Node000004"><a xlink:href="interface_o_c_a_1_1_c_a_f_e_v_d_b_1_1_common_1_1_i_undoable.html" target="_top" xlink:title="Simplistic do&#45;undo interface in order to be stacked into a do&#45;undo&#45;list.">
<polygon fill="white" stroke="#666666" points="151,-244 90.75,-244 90.75,-224 151,-224 151,-244"/>
<text text-anchor="middle" x="120.88" y="-230.5" font-family="Helvetica,sans-Serif" font-size="10.00">IUndoable</text>
</a>
</g>
</g>
<!-- Node4&#45;&gt;Node3 -->
<g id="edge3_Node000003_Node000004" class="edge">
<title>Node4&#45;&gt;Node3</title>
<g id="a_edge3_Node000003_Node000004"><a xlink:title=" ">
<path fill="none" stroke="#63b8ff" d="M120.88,-212.13C120.88,-203.9 120.88,-194.85 120.88,-188.3"/>
<polygon fill="#63b8ff" stroke="#63b8ff" points="117.38,-212.08 120.88,-222.08 124.38,-212.08 117.38,-212.08"/>
</a>
</g>
</g>
</g>
</svg>
