<?xml version="1.0" encoding="UTF-8" standalone="no"?>
<!DOCTYPE svg PUBLIC "-//W3C//DTD SVG 1.1//EN"
 "http://www.w3.org/Graphics/SVG/1.1/DTD/svg11.dtd">
<!-- Generated by graphviz version 8.0.3 (20230416.2022)
 -->
<!-- Title: ArchiveException Pages: 1 -->
<svg width="458pt" height="192pt"
 viewBox="0.00 0.00 457.50 192.00" xmlns="http://www.w3.org/2000/svg" xmlns:xlink="http://www.w3.org/1999/xlink">
<g id="graph0" class="graph" transform="scale(1 1) rotate(0) translate(4 188)">
<title>ArchiveException</title>
<!-- Node1 -->
<g id="node1" class="node">
<title>Node1</title>
<g id="a_node1"><a xlink:title="Transparent archive extraction exception.">
<polygon fill="#999999" stroke="#666666" points="278.5,-74 185.5,-74 185.5,-55 278.5,-55 278.5,-74"/>
<text text-anchor="middle" x="232" y="-62" font-family="Helvetica,sans-Serif" font-size="10.00">ArchiveException</text>
</a>
</g>
</g>
<!-- Node4 -->
<g id="node4" class="node">
<title>Node4</title>
<g id="a_node4"><a xlink:href="class_o_c_a_1_1_c_a_f_e_v_d_b_1_1_toolkit_1_1_exceptions_1_1_archive_cannot_open_exception.html" target="_top" xlink:title="Transparent archive extraction exception.">
<polygon fill="white" stroke="#666666" points="148,-19 0,-19 0,0 148,0 148,-19"/>
<text text-anchor="middle" x="74" y="-7" font-family="Helvetica,sans-Serif" font-size="10.00">ArchiveCannotOpenException</text>
</a>
</g>
</g>
<!-- Node1&#45;&gt;Node4 -->
<g id="edge3" class="edge">
<title>Node1&#45;&gt;Node4</title>
<path fill="none" stroke="#63b8ff" d="M195.06,-51.11C166.13,-41.41 126.58,-28.14 100.67,-19.45"/>
<polygon fill="#63b8ff" stroke="#63b8ff" points="193.6,-54.65 204.2,-54.51 195.83,-48.01 193.6,-54.65"/>
</g>
<!-- Node5 -->
<g id="node5" class="node">
<title>Node5</title>
<g id="a_node5"><a xlink:href="class_o_c_a_1_1_c_a_f_e_v_d_b_1_1_toolkit_1_1_exceptions_1_1_archive_not_open_exception.html" target="_top" xlink:title="Transparent archive extraction exception.">
<polygon fill="white" stroke="#666666" points="298,-19 166,-19 166,0 298,0 298,-19"/>
<text text-anchor="middle" x="232" y="-7" font-family="Helvetica,sans-Serif" font-size="10.00">ArchiveNotOpenException</text>
</a>
</g>
</g>
<!-- Node1&#45;&gt;Node5 -->
<g id="edge4" class="edge">
<title>Node1&#45;&gt;Node5</title>
<path fill="none" stroke="#63b8ff" d="M232,-43.93C232,-35.53 232,-26.13 232,-19.44"/>
<polygon fill="#63b8ff" stroke="#63b8ff" points="228.5,-43.75 232,-53.75 235.5,-43.75 228.5,-43.75"/>
</g>
<!-- Node6 -->
<g id="node6" class="node">
<title>Node6</title>
<g id="a_node6"><a xlink:href="class_o_c_a_1_1_c_a_f_e_v_d_b_1_1_toolkit_1_1_exceptions_1_1_archive_too_large_exception.html" target="_top" xlink:title="Transparent archive extraction exception.">
<polygon fill="white" stroke="#666666" points="449.5,-19 316.5,-19 316.5,0 449.5,0 449.5,-19"/>
<text text-anchor="middle" x="383" y="-7" font-family="Helvetica,sans-Serif" font-size="10.00">ArchiveTooLargeException</text>
</a>
</g>
</g>
<!-- Node1&#45;&gt;Node6 -->
<g id="edge5" class="edge">
<title>Node1&#45;&gt;Node6</title>
<path fill="none" stroke="#63b8ff" d="M267.66,-50.98C295.28,-41.29 332.86,-28.1 357.51,-19.45"/>
<polygon fill="#63b8ff" stroke="#63b8ff" points="266.89,-47.89 258.62,-54.51 269.21,-54.5 266.89,-47.89"/>
</g>
<!-- Node2 -->
<g id="node2" class="node">
<title>Node2</title>
<g id="a_node2"><a xlink:href="class_o_c_a_1_1_c_a_f_e_v_d_b_1_1_toolkit_1_1_exceptions_1_1_exception.html" target="_top" xlink:title="Exception class abstaction.">
<polygon fill="white" stroke="#666666" points="262,-129 202,-129 202,-110 262,-110 262,-129"/>
<text text-anchor="middle" x="232" y="-117" font-family="Helvetica,sans-Serif" font-size="10.00">Exception</text>
</a>
</g>
</g>
<!-- Node2&#45;&gt;Node1 -->
<g id="edge1" class="edge">
<title>Node2&#45;&gt;Node1</title>
<path fill="none" stroke="#63b8ff" d="M232,-98.93C232,-90.53 232,-81.13 232,-74.44"/>
<polygon fill="#63b8ff" stroke="#63b8ff" points="228.5,-98.75 232,-108.75 235.5,-98.75 228.5,-98.75"/>
</g>
<!-- Node3 -->
<g id="node3" class="node">
<title>Node3</title>
<g id="a_node3"><a xlink:title=" ">
<polygon fill="white" stroke="#bfbfbf" points="262,-184 202,-184 202,-165 262,-165 262,-184"/>
<text text-anchor="middle" x="232" y="-172" font-family="Helvetica,sans-Serif" font-size="10.00">Exception</text>
</a>
</g>
</g>
<!-- Node3&#45;&gt;Node2 -->
<g id="edge2" class="edge">
<title>Node3&#45;&gt;Node2</title>
<path fill="none" stroke="#63b8ff" d="M232,-153.93C232,-145.53 232,-136.13 232,-129.44"/>
<polygon fill="#63b8ff" stroke="#63b8ff" points="228.5,-153.75 232,-163.75 235.5,-153.75 228.5,-153.75"/>
</g>
</g>
</svg>
