<?xml version="1.0" encoding="UTF-8" standalone="no"?>
<!DOCTYPE svg PUBLIC "-//W3C//DTD SVG 1.1//EN"
 "http://www.w3.org/Graphics/SVG/1.1/DTD/svg11.dtd">
<!-- Generated by graphviz version 7.1.0 (20230121.1956)
 -->
<!-- Title: configured Pages: 1 -->
<svg width="238pt" height="212pt"
 viewBox="0.00 0.00 238.00 212.00" xmlns="http://www.w3.org/2000/svg" xmlns:xlink="http://www.w3.org/1999/xlink">
<g id="graph0" class="graph" transform="scale(1 1) rotate(0) translate(4 208)">
<title>configured</title>
<!-- Node1 -->
<g id="node1" class="node">
<title>Node1</title>
<g id="a_node1"><a xlink:title="Return an array with necessary configuration items, being either true or false, depending the checks ...">
<polygon fill="#999999" stroke="#666666" points="62,-111 0,-111 0,-92 62,-92 62,-111"/>
<text text-anchor="middle" x="31" y="-99" font-family="Helvetica,sans-Serif" font-size="10.00">configured</text>
</a>
</g>
</g>
<!-- Node2 -->
<g id="node2" class="node">
<title>Node2</title>
<g id="a_node2"><a xlink:href="class_o_c_a_1_1_c_a_f_e_v_d_b_1_1_service_1_1_config_check_service.html#abe484932e47748f91bd875c24618c2c8" target="_top" xlink:title="Check whether we have data&#45;base access by connecting to the data&#45;base server and selecting the config...">
<polygon fill="white" stroke="#666666" points="216,-204 112,-204 112,-185 216,-185 216,-204"/>
<text text-anchor="middle" x="164" y="-192" font-family="Helvetica,sans-Serif" font-size="10.00">databaseAccessible</text>
</a>
</g>
</g>
<!-- Node1&#45;&gt;Node2 -->
<g id="edge1" class="edge">
<title>Node1&#45;&gt;Node2</title>
<path fill="none" stroke="#63b8ff" d="M37.97,-111.41C48.21,-127.54 70.66,-159.37 98,-176.5 100.02,-177.76 102.12,-178.94 104.29,-180.03"/>
<polygon fill="#63b8ff" stroke="#63b8ff" points="102.83,-183.22 113.4,-183.98 105.61,-176.79 102.83,-183.22"/>
</g>
<!-- Node3 -->
<g id="node3" class="node">
<title>Node3</title>
<g id="a_node3"><a xlink:href="class_o_c_a_1_1_c_a_f_e_v_d_b_1_1_service_1_1_config_check_service.html#a5ffead28fa0e9af899c4a790555f4162" target="_top" xlink:title=" ">
<polygon fill="white" stroke="#666666" points="222,-167 106,-167 106,-148 222,-148 222,-167"/>
<text text-anchor="middle" x="164" y="-155" font-family="Helvetica,sans-Serif" font-size="10.00">noUnappliedMigrations</text>
</a>
</g>
</g>
<!-- Node1&#45;&gt;Node3 -->
<g id="edge2" class="edge">
<title>Node1&#45;&gt;Node3</title>
<path fill="none" stroke="#63b8ff" d="M46.65,-111.38C59.67,-119.8 79.46,-131.74 98,-139.5 101.84,-141.11 105.88,-142.62 109.97,-144.02"/>
<polygon fill="#63b8ff" stroke="#63b8ff" points="108.83,-147.33 119.42,-147.04 110.96,-140.67 108.83,-147.33"/>
</g>
<!-- Node4 -->
<g id="node4" class="node">
<title>Node4</title>
<g id="a_node4"><a xlink:href="class_o_c_a_1_1_c_a_f_e_v_d_b_1_1_service_1_1_config_check_service.html#af14e4a90cbf23a06903be97acf0b8613" target="_top" xlink:title=" ">
<polygon fill="white" stroke="#666666" points="230,-130 98,-130 98,-111 230,-111 230,-130"/>
<text text-anchor="middle" x="164" y="-118" font-family="Helvetica,sans-Serif" font-size="10.00">sharedAddressBooksExist</text>
</a>
</g>
</g>
<!-- Node1&#45;&gt;Node4 -->
<g id="edge3" class="edge">
<title>Node1&#45;&gt;Node4</title>
<path fill="none" stroke="#63b8ff" d="M62.38,-105.91C69.74,-106.97 77.94,-108.16 86.39,-109.39"/>
<polygon fill="#63b8ff" stroke="#63b8ff" points="85.7,-112.82 96.1,-110.8 86.7,-105.9 85.7,-112.82"/>
</g>
<!-- Node5 -->
<g id="node5" class="node">
<title>Node5</title>
<g id="a_node5"><a xlink:href="class_o_c_a_1_1_c_a_f_e_v_d_b_1_1_service_1_1_config_check_service.html#a6f152b7d3b0f5ee7a4b2269d58251cb7" target="_top" xlink:title="We require that the share&#45;owner owns a directory shared with the orchestra group.">
<polygon fill="white" stroke="#666666" points="214.5,-93 113.5,-93 113.5,-74 214.5,-74 214.5,-93"/>
<text text-anchor="middle" x="164" y="-81" font-family="Helvetica,sans-Serif" font-size="10.00">sharedFolderExists</text>
</a>
</g>
</g>
<!-- Node1&#45;&gt;Node5 -->
<g id="edge4" class="edge">
<title>Node1&#45;&gt;Node5</title>
<path fill="none" stroke="#63b8ff" d="M62.38,-97.33C74.13,-95.71 88.03,-93.8 101.67,-91.93"/>
<polygon fill="#63b8ff" stroke="#63b8ff" points="102.1,-95.4 111.53,-90.57 101.15,-88.47 102.1,-95.4"/>
</g>
<!-- Node6 -->
<g id="node6" class="node">
<title>Node6</title>
<g id="a_node6"><a xlink:href="class_o_c_a_1_1_c_a_f_e_v_d_b_1_1_service_1_1_config_check_service.html#a68f667537c720241cca484d98c248029" target="_top" xlink:title="Return true if the share&#45;group is set as application configuration option and exists.">
<polygon fill="white" stroke="#666666" points="211.5,-56 116.5,-56 116.5,-37 211.5,-37 211.5,-56"/>
<text text-anchor="middle" x="164" y="-44" font-family="Helvetica,sans-Serif" font-size="10.00">shareGroupExists</text>
</a>
</g>
</g>
<!-- Node1&#45;&gt;Node6 -->
<g id="edge5" class="edge">
<title>Node1&#45;&gt;Node6</title>
<path fill="none" stroke="#63b8ff" d="M47.8,-91.62C60.88,-83.76 80.15,-72.88 98,-65.5 102.9,-63.47 108.1,-61.57 113.33,-59.81"/>
<polygon fill="#63b8ff" stroke="#63b8ff" points="114.12,-63.23 122.59,-56.87 112,-56.56 114.12,-63.23"/>
</g>
<!-- Node7 -->
<g id="node7" class="node">
<title>Node7</title>
<g id="a_node7"><a xlink:href="class_o_c_a_1_1_c_a_f_e_v_d_b_1_1_service_1_1_config_check_service.html#a68d96928eccd8ec709df328b328c05b3" target="_top" xlink:title="Return true if the share&#45;owner exists and belongs to the orchestra user group (and only to this group...">
<polygon fill="white" stroke="#666666" points="212.5,-19 115.5,-19 115.5,0 212.5,0 212.5,-19"/>
<text text-anchor="middle" x="164" y="-7" font-family="Helvetica,sans-Serif" font-size="10.00">shareOwnerExists</text>
</a>
</g>
</g>
<!-- Node1&#45;&gt;Node7 -->
<g id="edge6" class="edge">
<title>Node1&#45;&gt;Node7</title>
<path fill="none" stroke="#63b8ff" d="M38.07,-91.9C48.43,-76.27 71.08,-45.38 98,-28.5 100.75,-26.77 103.67,-25.2 106.69,-23.76"/>
<polygon fill="#63b8ff" stroke="#63b8ff" points="107.92,-27.04 115.81,-19.97 105.23,-20.57 107.92,-27.04"/>
</g>
</g>
</svg>
