<?xml version="1.0" encoding="UTF-8" standalone="no"?>
<!DOCTYPE svg PUBLIC "-//W3C//DTD SVG 1.1//EN"
 "http://www.w3.org/Graphics/SVG/1.1/DTD/svg11.dtd">
<!-- Generated by graphviz version 8.0.3 (20230416.2022)
 -->
<!-- Title: filterHistory Pages: 1 -->
<svg width="573pt" height="179pt"
 viewBox="0.00 0.00 573.00 179.00" xmlns="http://www.w3.org/2000/svg" xmlns:xlink="http://www.w3.org/1999/xlink">
<g id="graph0" class="graph" transform="scale(1 1) rotate(0) translate(4 175)">
<title>filterHistory</title>
<!-- Node1 -->
<g id="node1" class="node">
<title>Node1</title>
<g id="a_node1"><a xlink:title=" ">
<polygon fill="#999999" stroke="#666666" points="565,-95 498,-95 498,-76 565,-76 565,-95"/>
<text text-anchor="middle" x="531.5" y="-83" font-family="Helvetica,sans-Serif" font-size="10.00">filterHistory</text>
</a>
</g>
</g>
<!-- Node1&#45;&gt;Node1 -->
<g id="edge6" class="edge">
<title>Node1&#45;&gt;Node1</title>
<path fill="none" stroke="#63b8ff" d="M552.49,-105.76C550.28,-109.97 543.29,-113 531.5,-113 511.11,-113 505.06,-103.94 513.34,-95.37"/>
<polygon fill="#63b8ff" stroke="#63b8ff" points="555.66,-105.1 549.66,-96.37 548.91,-106.94 555.66,-105.1"/>
</g>
<!-- Node2 -->
<g id="node2" class="node">
<title>Node2</title>
<g id="a_node2"><a xlink:href="class_o_c_a_1_1_c_a_f_e_v_d_b_1_1_email_form_1_1_recipients_filter.html#abb68032ee09c309fa68ede14a34e348d" target="_top" xlink:title=" ">
<polygon fill="white" stroke="#666666" points="333,-171 262,-171 262,-152 333,-152 333,-171"/>
<text text-anchor="middle" x="297.5" y="-159" font-family="Helvetica,sans-Serif" font-size="10.00">applyHistory</text>
</a>
</g>
</g>
<!-- Node1&#45;&gt;Node2 -->
<g id="edge1" class="edge">
<title>Node1&#45;&gt;Node2</title>
<path fill="none" stroke="#63b8ff" d="M512.85,-102.93C499.89,-114.67 481.24,-129.42 462,-137.5 420.07,-155.1 367.39,-160.11 333.34,-161.37"/>
<polygon fill="#63b8ff" stroke="#63b8ff" points="514.97,-105.81 519.86,-96.41 510.18,-100.71 514.97,-105.81"/>
</g>
<!-- Node3 -->
<g id="node3" class="node">
<title>Node3</title>
<g id="a_node3"><a xlink:href="class_o_c_a_1_1_c_a_f_e_v_d_b_1_1_email_form_1_1_recipients_filter.html#a1909f4b7f8129c7790cb75de2ffbe1e4" target="_top" xlink:title="Parse the CGI stuff and compute the list of selected musicians, either for the initial form setup as ...">
<polygon fill="white" stroke="#666666" points="226,-95 175,-95 175,-76 226,-76 226,-95"/>
<text text-anchor="middle" x="200.5" y="-83" font-family="Helvetica,sans-Serif" font-size="10.00">execute</text>
</a>
</g>
</g>
<!-- Node1&#45;&gt;Node3 -->
<g id="edge5" class="edge">
<title>Node1&#45;&gt;Node3</title>
<path fill="none" stroke="#63b8ff" d="M491.21,-98.35C481.74,-100.9 471.6,-103.19 462,-104.5 373.9,-116.49 350.08,-111.65 262,-99.5 250.15,-97.87 237.2,-95.02 226.33,-92.31"/>
<polygon fill="#63b8ff" stroke="#63b8ff" points="491.88,-101.52 500.53,-95.41 489.95,-94.79 491.88,-101.52"/>
</g>
<!-- Node6 -->
<g id="node6" class="node">
<title>Node6</title>
<g id="a_node6"><a xlink:href="class_o_c_a_1_1_c_a_f_e_v_d_b_1_1_email_form_1_1_recipients_filter.html#ab85bd7c01c06a6b1507047bfd28f941c" target="_top" xlink:title="Load the history from the session data.">
<polygon fill="white" stroke="#666666" points="330.5,-57 264.5,-57 264.5,-38 330.5,-38 330.5,-57"/>
<text text-anchor="middle" x="297.5" y="-45" font-family="Helvetica,sans-Serif" font-size="10.00">loadHistory</text>
</a>
</g>
</g>
<!-- Node1&#45;&gt;Node6 -->
<g id="edge7" class="edge">
<title>Node1&#45;&gt;Node6</title>
<path fill="none" stroke="#63b8ff" d="M487.01,-73.13C478.75,-71.05 470.14,-69.06 462,-67.5 416.92,-58.86 364.1,-53.19 330.96,-50.17"/>
<polygon fill="#63b8ff" stroke="#63b8ff" points="486.05,-76.76 496.61,-75.89 487.81,-69.98 486.05,-76.76"/>
</g>
<!-- Node7 -->
<g id="node7" class="node">
<title>Node7</title>
<g id="a_node7"><a xlink:href="class_o_c_a_1_1_c_a_f_e_v_d_b_1_1_email_form_1_1_recipients_filter.html#adc12d97d4d6b670014369f82669309c1" target="_top" xlink:title="Push the current filter selection onto the undo&#45;history stack.">
<polygon fill="white" stroke="#666666" points="450,-95 381,-95 381,-76 450,-76 450,-95"/>
<text text-anchor="middle" x="415.5" y="-83" font-family="Helvetica,sans-Serif" font-size="10.00">pushHistory</text>
</a>
</g>
</g>
<!-- Node1&#45;&gt;Node7 -->
<g id="edge9" class="edge">
<title>Node1&#45;&gt;Node7</title>
<path fill="none" stroke="#63b8ff" d="M486.71,-85.5C474.59,-85.5 461.63,-85.5 450.19,-85.5"/>
<polygon fill="#63b8ff" stroke="#63b8ff" points="486.53,-89 496.53,-85.5 486.53,-82 486.53,-89"/>
</g>
<!-- Node8 -->
<g id="node8" class="node">
<title>Node8</title>
<g id="a_node8"><a xlink:href="class_o_c_a_1_1_c_a_f_e_v_d_b_1_1_email_form_1_1_recipients_filter.html#a30a395e6e48481531a93ec374c412775" target="_top" xlink:title="Compose a default history record for the initial state.">
<polygon fill="white" stroke="#666666" points="462,-19 369,-19 369,0 462,0 462,-19"/>
<text text-anchor="middle" x="415.5" y="-7" font-family="Helvetica,sans-Serif" font-size="10.00">setDefaultHistory</text>
</a>
</g>
</g>
<!-- Node1&#45;&gt;Node8 -->
<g id="edge11" class="edge">
<title>Node1&#45;&gt;Node8</title>
<path fill="none" stroke="#63b8ff" d="M510.41,-68.86C497.08,-58.17 478.98,-44.32 462,-33.5 454.02,-28.41 444.84,-23.42 436.83,-19.32"/>
<polygon fill="#63b8ff" stroke="#63b8ff" points="507.84,-72.09 517.8,-75.68 512.25,-66.66 507.84,-72.09"/>
</g>
<!-- Node2&#45;&gt;Node3 -->
<g id="edge2" class="edge">
<title>Node2&#45;&gt;Node3</title>
<path fill="none" stroke="#63b8ff" d="M272.71,-145.43C269.08,-142.84 265.41,-140.14 262,-137.5 244.04,-123.59 224.26,-106.16 212.37,-95.43"/>
<polygon fill="#63b8ff" stroke="#63b8ff" points="270.28,-148.7 280.49,-151.55 274.29,-142.96 270.28,-148.7"/>
</g>
<!-- Node4 -->
<g id="node4" class="node">
<title>Node4</title>
<g id="a_node4"><a xlink:href="class_o_c_a_1_1_c_a_f_e_v_d_b_1_1_email_form_1_1_recipients_filter.html#ae40c9dafec946961dfd72815f6764fb8" target="_top" xlink:title=" ">
<polygon fill="white" stroke="#666666" points="139,-95 104,-95 104,-76 139,-76 139,-95"/>
<text text-anchor="middle" x="121.5" y="-83" font-family="Helvetica,sans-Serif" font-size="10.00">bind</text>
</a>
</g>
</g>
<!-- Node3&#45;&gt;Node4 -->
<g id="edge3" class="edge">
<title>Node3&#45;&gt;Node4</title>
<path fill="none" stroke="#63b8ff" d="M163.71,-85.5C155.16,-85.5 146.43,-85.5 139.21,-85.5"/>
<polygon fill="#63b8ff" stroke="#63b8ff" points="163.71,-89 173.71,-85.5 163.71,-82 163.71,-89"/>
</g>
<!-- Node5 -->
<g id="node5" class="node">
<title>Node5</title>
<g id="a_node5"><a xlink:href="class_o_c_a_1_1_c_a_f_e_v_d_b_1_1_email_form_1_1_recipients_filter.html#a1a3fa621489e73c7386685aa0e152c30" target="_top" xlink:title="{}">
<polygon fill="white" stroke="#666666" points="68,-95 0,-95 0,-76 68,-76 68,-95"/>
<text text-anchor="middle" x="34" y="-83" font-family="Helvetica,sans-Serif" font-size="10.00">__construct</text>
</a>
</g>
</g>
<!-- Node4&#45;&gt;Node5 -->
<g id="edge4" class="edge">
<title>Node4&#45;&gt;Node5</title>
<path fill="none" stroke="#63b8ff" d="M92.63,-85.5C84.92,-85.5 76.48,-85.5 68.48,-85.5"/>
<polygon fill="#63b8ff" stroke="#63b8ff" points="92.61,-89 102.61,-85.5 92.61,-82 92.61,-89"/>
</g>
<!-- Node6&#45;&gt;Node3 -->
<g id="edge8" class="edge">
<title>Node6&#45;&gt;Node3</title>
<path fill="none" stroke="#63b8ff" d="M261.61,-61.46C249.89,-66.14 237.07,-71.27 226.29,-75.58"/>
<polygon fill="#63b8ff" stroke="#63b8ff" points="262.55,-64.45 270.54,-57.48 259.96,-57.95 262.55,-64.45"/>
</g>
<!-- Node7&#45;&gt;Node3 -->
<g id="edge10" class="edge">
<title>Node7&#45;&gt;Node3</title>
<path fill="none" stroke="#63b8ff" d="M369.89,-85.5C326.32,-85.5 261.61,-85.5 226.44,-85.5"/>
<polygon fill="#63b8ff" stroke="#63b8ff" points="369.75,-89 379.75,-85.5 369.75,-82 369.75,-89"/>
</g>
<!-- Node8&#45;&gt;Node3 -->
<g id="edge12" class="edge">
<title>Node8&#45;&gt;Node3</title>
<path fill="none" stroke="#63b8ff" d="M358.12,-8.78C328.31,-10.36 291.82,-15.51 262,-29.5 239.19,-40.2 219.15,-62.65 208.85,-75.65"/>
<polygon fill="#63b8ff" stroke="#63b8ff" points="357.92,-12.25 367.77,-8.35 357.64,-5.25 357.92,-12.25"/>
</g>
<!-- Node8&#45;&gt;Node6 -->
<g id="edge13" class="edge">
<title>Node8&#45;&gt;Node6</title>
<path fill="none" stroke="#63b8ff" d="M373.62,-22.89C358.86,-27.73 342.47,-33.1 328.77,-37.58"/>
<polygon fill="#63b8ff" stroke="#63b8ff" points="374.61,-25.92 383.02,-19.48 372.43,-19.27 374.61,-25.92"/>
</g>
</g>
</svg>
