<?xml version="1.0" encoding="UTF-8" standalone="no"?>
<!DOCTYPE svg PUBLIC "-//W3C//DTD SVG 1.1//EN"
 "http://www.w3.org/Graphics/SVG/1.1/DTD/svg11.dtd">
<!-- Generated by graphviz version 7.1.0 (20230121.1956)
 -->
<!-- Title: recipientsExceptProject Pages: 1 -->
<svg width="875pt" height="187pt"
 viewBox="0.00 0.00 875.00 186.60" xmlns="http://www.w3.org/2000/svg" xmlns:xlink="http://www.w3.org/1999/xlink">
<g id="graph0" class="graph" transform="scale(1 1) rotate(0) translate(4 182.6)">
<title>recipientsExceptProject</title>
<!-- Node1 -->
<g id="node1" class="node">
<title>Node1</title>
<g id="a_node1"><a xlink:title=" ">
<polygon fill="#999999" stroke="#666666" points="867,-63.8 747,-63.8 747,-44.8 867,-44.8 867,-63.8"/>
<text text-anchor="middle" x="807" y="-51.8" font-family="Helvetica,sans-Serif" font-size="10.00">recipientsExceptProject</text>
</a>
</g>
</g>
<!-- Node2 -->
<g id="node2" class="node">
<title>Node2</title>
<g id="a_node2"><a xlink:href="class_o_c_a_1_1_c_a_f_e_v_d_b_1_1_email_form_1_1_recipients_filter.html#a0835860e0bc6047f3eff6a9941dbbcf4" target="_top" xlink:title=" ">
<polygon fill="white" stroke="#666666" points="711,-101.8 625,-101.8 625,-82.8 711,-82.8 711,-101.8"/>
<text text-anchor="middle" x="668" y="-89.8" font-family="Helvetica,sans-Serif" font-size="10.00">defaultByStatus</text>
</a>
</g>
</g>
<!-- Node1&#45;&gt;Node2 -->
<g id="edge1" class="edge">
<title>Node1&#45;&gt;Node2</title>
<path fill="none" stroke="#63b8ff" d="M758.99,-67.34C741.23,-72.27 721.32,-77.79 704.75,-82.38"/>
<polygon fill="#63b8ff" stroke="#63b8ff" points="759.85,-70.73 768.55,-64.69 757.97,-63.99 759.85,-70.73"/>
</g>
<!-- Node3 -->
<g id="node3" class="node">
<title>Node3</title>
<g id="a_node3"><a xlink:href="class_o_c_a_1_1_c_a_f_e_v_d_b_1_1_email_form_1_1_recipients_filter.html#a1909f4b7f8129c7790cb75de2ffbe1e4" target="_top" xlink:title="Parse the CGI stuff and compute the list of selected musicians, either for the initial form setup as ...">
<polygon fill="white" stroke="#666666" points="226,-101.8 175,-101.8 175,-82.8 226,-82.8 226,-101.8"/>
<text text-anchor="middle" x="200.5" y="-89.8" font-family="Helvetica,sans-Serif" font-size="10.00">execute</text>
</a>
</g>
</g>
<!-- Node1&#45;&gt;Node3 -->
<g id="edge12" class="edge">
<title>Node1&#45;&gt;Node3</title>
<path fill="none" stroke="#63b8ff" d="M762.29,-41.35C667.24,-15.6 436.3,33.88 262,-35.3 237.86,-44.88 217.75,-69.17 207.95,-82.74"/>
<polygon fill="#63b8ff" stroke="#63b8ff" points="761.16,-44.67 771.73,-43.96 763.03,-37.93 761.16,-44.67"/>
</g>
<!-- Node2&#45;&gt;Node3 -->
<g id="edge2" class="edge">
<title>Node2&#45;&gt;Node3</title>
<path fill="none" stroke="#63b8ff" d="M643.08,-108.16C628.18,-117.19 608.23,-127.77 589,-133.3 449.15,-173.46 397.25,-202.97 262,-149.3 237.86,-139.72 217.75,-115.43 207.95,-101.85"/>
<polygon fill="#63b8ff" stroke="#63b8ff" points="644.63,-111.32 651.25,-103.04 640.91,-105.39 644.63,-111.32"/>
</g>
<!-- Node6 -->
<g id="node6" class="node">
<title>Node6</title>
<g id="a_node6"><a xlink:href="class_o_c_a_1_1_c_a_f_e_v_d_b_1_1_email_form_1_1_recipients_filter.html#a9ae6e956522f1d298f15c4b2a07f0bd7" target="_top" xlink:title="Get the current filter.">
<polygon fill="white" stroke="#666666" points="377,-139.8 262,-139.8 262,-120.8 377,-120.8 377,-139.8"/>
<text text-anchor="middle" x="319.5" y="-127.8" font-family="Helvetica,sans-Serif" font-size="10.00">initMemberStatusFilter</text>
</a>
</g>
</g>
<!-- Node2&#45;&gt;Node6 -->
<g id="edge5" class="edge">
<title>Node2&#45;&gt;Node6</title>
<path fill="none" stroke="#63b8ff" d="M620.61,-104.95C610.27,-107.39 599.32,-109.69 589,-111.3 516.51,-122.61 431.95,-127.19 377.38,-129.05"/>
<polygon fill="#63b8ff" stroke="#63b8ff" points="621.18,-108.42 630.06,-102.63 619.51,-101.62 621.18,-108.42"/>
</g>
<!-- Node7 -->
<g id="node7" class="node">
<title>Node7</title>
<g id="a_node7"><a xlink:href="class_o_c_a_1_1_c_a_f_e_v_d_b_1_1_email_form_1_1_recipients_filter.html#a30a395e6e48481531a93ec374c412775" target="_top" xlink:title="Compose a default history record for the initial state.">
<polygon fill="white" stroke="#666666" points="547.5,-101.8 454.5,-101.8 454.5,-82.8 547.5,-82.8 547.5,-101.8"/>
<text text-anchor="middle" x="501" y="-89.8" font-family="Helvetica,sans-Serif" font-size="10.00">setDefaultHistory</text>
</a>
</g>
</g>
<!-- Node2&#45;&gt;Node7 -->
<g id="edge7" class="edge">
<title>Node2&#45;&gt;Node7</title>
<path fill="none" stroke="#63b8ff" d="M613.12,-92.3C592.02,-92.3 568.07,-92.3 547.82,-92.3"/>
<polygon fill="#63b8ff" stroke="#63b8ff" points="612.99,-95.8 622.99,-92.3 612.99,-88.8 612.99,-95.8"/>
</g>
<!-- Node9 -->
<g id="node9" class="node">
<title>Node9</title>
<g id="a_node9"><a xlink:href="class_o_c_a_1_1_c_a_f_e_v_d_b_1_1_email_form_1_1_recipients_filter.html#a29389bb5db716e59f8a94e5083f8b58e" target="_top" xlink:title="Substitute the recipients by the announcements mailing list if possible.">
<polygon fill="white" stroke="#666666" points="589,-64.8 413,-64.8 413,-45.8 589,-45.8 589,-64.8"/>
<text text-anchor="middle" x="501" y="-52.8" font-family="Helvetica,sans-Serif" font-size="10.00">substituteAnnouncementsMailingList</text>
</a>
</g>
</g>
<!-- Node2&#45;&gt;Node9 -->
<g id="edge11" class="edge">
<title>Node2&#45;&gt;Node9</title>
<path fill="none" stroke="#63b8ff" d="M616.46,-79.72C607.33,-77.52 597.89,-75.3 589,-73.3 576.96,-70.59 563.95,-67.81 551.75,-65.28"/>
<polygon fill="#63b8ff" stroke="#63b8ff" points="615.37,-83.05 625.91,-82.01 617.02,-76.25 615.37,-83.05"/>
</g>
<!-- Node4 -->
<g id="node4" class="node">
<title>Node4</title>
<g id="a_node4"><a xlink:href="class_o_c_a_1_1_c_a_f_e_v_d_b_1_1_email_form_1_1_recipients_filter.html#ae40c9dafec946961dfd72815f6764fb8" target="_top" xlink:title=" ">
<polygon fill="white" stroke="#666666" points="139,-101.8 104,-101.8 104,-82.8 139,-82.8 139,-101.8"/>
<text text-anchor="middle" x="121.5" y="-89.8" font-family="Helvetica,sans-Serif" font-size="10.00">bind</text>
</a>
</g>
</g>
<!-- Node3&#45;&gt;Node4 -->
<g id="edge3" class="edge">
<title>Node3&#45;&gt;Node4</title>
<path fill="none" stroke="#63b8ff" d="M163.43,-92.3C154.96,-92.3 146.35,-92.3 139.21,-92.3"/>
<polygon fill="#63b8ff" stroke="#63b8ff" points="163.2,-95.8 173.2,-92.3 163.2,-88.8 163.2,-95.8"/>
</g>
<!-- Node5 -->
<g id="node5" class="node">
<title>Node5</title>
<g id="a_node5"><a xlink:href="class_o_c_a_1_1_c_a_f_e_v_d_b_1_1_email_form_1_1_recipients_filter.html#a1a3fa621489e73c7386685aa0e152c30" target="_top" xlink:title="{}">
<polygon fill="white" stroke="#666666" points="68,-101.8 0,-101.8 0,-82.8 68,-82.8 68,-101.8"/>
<text text-anchor="middle" x="34" y="-89.8" font-family="Helvetica,sans-Serif" font-size="10.00">__construct</text>
</a>
</g>
</g>
<!-- Node4&#45;&gt;Node5 -->
<g id="edge4" class="edge">
<title>Node4&#45;&gt;Node5</title>
<path fill="none" stroke="#63b8ff" d="M92.36,-92.3C84.72,-92.3 76.38,-92.3 68.48,-92.3"/>
<polygon fill="#63b8ff" stroke="#63b8ff" points="92.09,-95.8 102.09,-92.3 92.09,-88.8 92.09,-95.8"/>
</g>
<!-- Node6&#45;&gt;Node3 -->
<g id="edge6" class="edge">
<title>Node6&#45;&gt;Node3</title>
<path fill="none" stroke="#63b8ff" d="M276.96,-116.81C259.96,-111.29 240.87,-105.08 226.14,-100.3"/>
<polygon fill="#63b8ff" stroke="#63b8ff" points="275.73,-120.09 286.32,-119.85 277.89,-113.43 275.73,-120.09"/>
</g>
<!-- Node7&#45;&gt;Node3 -->
<g id="edge8" class="edge">
<title>Node7&#45;&gt;Node3</title>
<path fill="none" stroke="#63b8ff" d="M442.69,-92.3C377.41,-92.3 273.69,-92.3 226.43,-92.3"/>
<polygon fill="#63b8ff" stroke="#63b8ff" points="442.5,-95.8 452.5,-92.3 442.5,-88.8 442.5,-95.8"/>
</g>
<!-- Node8 -->
<g id="node8" class="node">
<title>Node8</title>
<g id="a_node8"><a xlink:href="class_o_c_a_1_1_c_a_f_e_v_d_b_1_1_email_form_1_1_recipients_filter.html#ab85bd7c01c06a6b1507047bfd28f941c" target="_top" xlink:title="Load the history from the session data.">
<polygon fill="white" stroke="#666666" points="352.5,-63.8 286.5,-63.8 286.5,-44.8 352.5,-44.8 352.5,-63.8"/>
<text text-anchor="middle" x="319.5" y="-51.8" font-family="Helvetica,sans-Serif" font-size="10.00">loadHistory</text>
</a>
</g>
</g>
<!-- Node7&#45;&gt;Node8 -->
<g id="edge9" class="edge">
<title>Node7&#45;&gt;Node8</title>
<path fill="none" stroke="#63b8ff" d="M443.13,-80.26C413.35,-73.95 377.96,-66.46 352.87,-61.15"/>
<polygon fill="#63b8ff" stroke="#63b8ff" points="442.25,-83.65 452.76,-82.3 443.7,-76.8 442.25,-83.65"/>
</g>
<!-- Node8&#45;&gt;Node3 -->
<g id="edge10" class="edge">
<title>Node8&#45;&gt;Node3</title>
<path fill="none" stroke="#63b8ff" d="M276.96,-67.79C259.96,-73.31 240.87,-79.51 226.14,-84.29"/>
<polygon fill="#63b8ff" stroke="#63b8ff" points="277.89,-71.17 286.32,-64.75 275.73,-64.51 277.89,-71.17"/>
</g>
</g>
</svg>
