<?xml version="1.0" encoding="UTF-8" standalone="no"?>
<!DOCTYPE svg PUBLIC "-//W3C//DTD SVG 1.1//EN"
 "http://www.w3.org/Graphics/SVG/1.1/DTD/svg11.dtd">
<!-- Generated by graphviz version 7.1.0 (20230121.1956)
 -->
<!-- Title: ParticipantFieldsAddLiabilities Pages: 1 -->
<svg width="155pt" height="137pt"
 viewBox="0.00 0.00 155.00 137.00" xmlns="http://www.w3.org/2000/svg" xmlns:xlink="http://www.w3.org/1999/xlink">
<g id="graph0" class="graph" transform="scale(1 1) rotate(0) translate(4 133)">
<title>ParticipantFieldsAddLiabilities</title>
<!-- Node1 -->
<g id="node1" class="node">
<title>Node1</title>
<g id="a_node1"><a xlink:title="Change participantAccess field to enum.">
<polygon fill="#999999" stroke="#666666" points="147,-19 0,-19 0,0 147,0 147,-19"/>
<text text-anchor="middle" x="73.5" y="-7" font-family="Helvetica,sans-Serif" font-size="10.00">ParticipantFieldsAddLiabilities</text>
</a>
</g>
</g>
<!-- Node2 -->
<g id="node2" class="node">
<title>Node2</title>
<g id="a_node2"><a xlink:href="class_o_c_a_1_1_c_a_f_e_v_d_b_1_1_maintenance_1_1_migrations_1_1_abstract_migration.html" target="_top" xlink:title="Abstract migration class, the derived classes have to fill AbstractMigration::$sql.">
<polygon fill="white" stroke="#666666" points="120,-74 27,-74 27,-55 120,-55 120,-74"/>
<text text-anchor="middle" x="73.5" y="-62" font-family="Helvetica,sans-Serif" font-size="10.00">AbstractMigration</text>
</a>
</g>
</g>
<!-- Node2&#45;&gt;Node1 -->
<g id="edge1" class="edge">
<title>Node2&#45;&gt;Node1</title>
<path fill="none" stroke="#63b8ff" d="M73.5,-43.35C73.5,-35.1 73.5,-25.97 73.5,-19.44"/>
<polygon fill="#63b8ff" stroke="#63b8ff" points="70,-43.23 73.5,-53.23 77,-43.23 70,-43.23"/>
</g>
<!-- Node3 -->
<g id="node3" class="node">
<title>Node3</title>
<g id="a_node3"><a xlink:href="interface_o_c_a_1_1_c_a_f_e_v_d_b_1_1_maintenance_1_1_i_migration.html" target="_top" xlink:title="Uni&#45;directional migrations for the orchestra DB.">
<polygon fill="white" stroke="#666666" points="103,-129 44,-129 44,-110 103,-110 103,-129"/>
<text text-anchor="middle" x="73.5" y="-117" font-family="Helvetica,sans-Serif" font-size="10.00">IMigration</text>
</a>
</g>
</g>
<!-- Node3&#45;&gt;Node2 -->
<g id="edge2" class="edge">
<title>Node3&#45;&gt;Node2</title>
<path fill="none" stroke="#63b8ff" d="M73.5,-98.35C73.5,-90.1 73.5,-80.97 73.5,-74.44"/>
<polygon fill="#63b8ff" stroke="#63b8ff" points="70,-98.23 73.5,-108.23 77,-98.23 70,-98.23"/>
</g>
</g>
</svg>
