<?xml version="1.0" encoding="UTF-8" standalone="no"?>
<!DOCTYPE svg PUBLIC "-//W3C//DTD SVG 1.1//EN"
 "http://www.w3.org/Graphics/SVG/1.1/DTD/svg11.dtd">
<!-- Generated by graphviz version 7.1.0 (20230121.1956)
 -->
<!-- Title: open Pages: 1 -->
<!--zoomable 249 -->
<svg id="main" version="1.1" xmlns="http://www.w3.org/2000/svg" xmlns:xlink="http://www.w3.org/1999/xlink" xml:space="preserve" onload="init(evt)">
<style type="text/css"><![CDATA[
.edge:hover path { stroke: red; }
.edge:hover polygon { stroke: red; fill: red; }
]]></style>
<script type="text/javascript"><![CDATA[
var edges = document.getElementsByTagName('g');
if (edges && edges.length) {
  for (var i=0;i<edges.length;i++) {
    if (edges[i].id.substr(0,4)=='edge') {
      edges[i].setAttribute('class','edge');
    }
  }
}
]]></script>
        <defs>
                <circle id="rim" cx="0" cy="0" r="7"/>
                <circle id="rim2" cx="0" cy="0" r="3.5"/>
                <g id="zoomPlus">
                        <use xlink:href="#rim" fill="#404040">
                                <set attributeName="fill" to="#808080" begin="zoomplus.mouseover" end="zoomplus.mouseout"/>
                        </use>
                        <path d="M-4,0h8M0,-4v8" fill="none" stroke="white" stroke-width="1.5" pointer-events="none"/>
                </g>
                <g id="zoomMin">
                        <use xlink:href="#rim" fill="#404040">
                                <set attributeName="fill" to="#808080" begin="zoomminus.mouseover" end="zoomminus.mouseout"/>
                        </use>
                        <path d="M-4,0h8" fill="none" stroke="white" stroke-width="1.5" pointer-events="none"/>
                </g>
                <g id="dirArrow">
                        <path fill="none" stroke="white" stroke-width="1.5" d="M0,-3.0v7 M-2.5,-0.5L0,-3.0L2.5,-0.5"/>
                </g>
               <g id="resetDef">
                       <use xlink:href="#rim2" fill="#404040">
                               <set attributeName="fill" to="#808080" begin="reset.mouseover" end="reset.mouseout"/>
                       </use>
               </g>
        </defs>

<script type="text/javascript">
var viewWidth = 631;
var viewHeight = 249;
var sectionId = 'dynsection-10';
</script>
<script xlink:href="svgpan.js"/>
<svg id="graph" class="graph">
<g id="viewport">
<title>open</title>
<!-- Node1 -->
<g id="node1" class="node">
<title>Node1</title>
<g id="a_node1"><a xlink:title=" ">
<polygon fill="#999999" stroke="#666666" points="38,-98 0,-98 0,-79 38,-79 38,-98"/>
<text text-anchor="middle" x="19" y="-86" font-family="Helvetica,sans-Serif" font-size="10.00">open</text>
</a>
</g>
</g>
<!-- Node2 -->
<g id="node2" class="node">
<title>Node2</title>
<g id="a_node2"><a xlink:href="class_o_c_a_1_1_c_a_f_e_v_d_b_1_1_toolkit_1_1_service_1_1_archive_service.html#a2af13dd8e56c5d7af6c1e805d5156219" target="_top" xlink:title="Check whether the given file can be opened.">
<polygon fill="white" stroke="#666666" points="180,-173 124,-173 124,-154 180,-154 180,-173"/>
<text text-anchor="middle" x="152" y="-161" font-family="Helvetica,sans-Serif" font-size="10.00">canOpen</text>
</a>
</g>
</g>
<!-- Node1&#45;&gt;Node2 -->
<g id="edge1" class="edge">
<title>Node1&#45;&gt;Node2</title>
<path fill="none" stroke="#63b8ff" d="M26.43,-98.22C35.47,-111.09 53.19,-133.56 74,-145.5 85.58,-152.14 99.47,-156.34 112.25,-158.98"/>
<polygon fill="#63b8ff" stroke="#63b8ff" points="111.62,-162.43 122.08,-160.74 112.85,-155.54 111.62,-162.43"/>
</g>
<!-- Node3 -->
<g id="node3" class="node">
<title>Node3</title>
<g id="a_node3"><a xlink:href="class_o_c_a_1_1_c_a_f_e_v_d_b_1_1_toolkit_1_1_service_1_1_archive_service.html#adb7197696a0127bef42768cfb61ec66b" target="_top" xlink:title=" ">
<polygon fill="white" stroke="#666666" points="192,-136 112,-136 112,-117 192,-117 192,-136"/>
<text text-anchor="middle" x="152" y="-124" font-family="Helvetica,sans-Serif" font-size="10.00">getArchiveInfo</text>
</a>
</g>
</g>
<!-- Node1&#45;&gt;Node3 -->
<g id="edge2" class="edge">
<title>Node1&#45;&gt;Node3</title>
<path fill="none" stroke="#63b8ff" d="M38.49,-93.86C55.89,-98.91 82.63,-106.67 105.68,-113.35"/>
<polygon fill="#63b8ff" stroke="#63b8ff" points="104.61,-116.69 115.19,-116.11 106.56,-109.96 104.61,-116.69"/>
</g>
<!-- Node9 -->
<g id="node9" class="node">
<title>Node9</title>
<g id="a_node9"><a xlink:href="class_o_c_a_1_1_c_a_f_e_v_d_b_1_1_toolkit_1_1_service_1_1_archive_service.html#ac4bb04636b9ff49d1eb1bce172994d36" target="_top" xlink:title="Guard against undefined $this&#45;&gt;l.">
<polygon fill="white" stroke="#666666" points="623,-117 594,-117 594,-98 623,-98 623,-117"/>
<text text-anchor="middle" x="608.5" y="-105" font-family="Helvetica,sans-Serif" font-size="10.00">t</text>
</a>
</g>
</g>
<!-- Node1&#45;&gt;Node9 -->
<g id="edge12" class="edge">
<title>Node1&#45;&gt;Node9</title>
<path fill="none" stroke="#63b8ff" d="M38.11,-89.01C106.29,-90.96 353.95,-98.15 558,-105.5 565.9,-105.78 574.5,-106.12 582.29,-106.44"/>
<polygon fill="#63b8ff" stroke="#63b8ff" points="581.98,-109.93 592.12,-106.84 582.27,-102.93 581.98,-109.93"/>
</g>
<!-- Node10 -->
<g id="node10" class="node">
<title>Node10</title>
<g id="a_node10"><a xlink:href="class_o_c_a_1_1_c_a_f_e_v_d_b_1_1_toolkit_1_1_backend_1_1_archive_backend.html#a2714bd86f40228fd9c4b045566c433f5" target="_top" xlink:title="{}">
<polygon fill="white" stroke="#666666" points="230,-38.5 74,-38.5 74,-8.5 230,-8.5 230,-38.5"/>
<text text-anchor="start" x="82" y="-26.5" font-family="Helvetica,sans-Serif" font-size="10.00">OCA\CAFEVDB\Toolkit</text>
<text text-anchor="middle" x="152" y="-15.5" font-family="Helvetica,sans-Serif" font-size="10.00">\Backend\ArchiveBackend\open</text>
</a>
</g>
</g>
<!-- Node1&#45;&gt;Node10 -->
<g id="edge10" class="edge">
<title>Node1&#45;&gt;Node10</title>
<path fill="none" stroke="#63b8ff" d="M34.77,-78.61C45.43,-71.7 60.29,-62.48 74,-55.5 82.25,-51.3 91.19,-47.19 99.96,-43.41"/>
<polygon fill="#63b8ff" stroke="#63b8ff" points="101.26,-46.66 109.11,-39.54 98.53,-40.21 101.26,-46.66"/>
</g>
<!-- Node4 -->
<g id="node4" class="node">
<title>Node4</title>
<g id="a_node4"><a xlink:href="class_o_c_a_1_1_c_a_f_e_v_d_b_1_1_toolkit_1_1_service_1_1_archive_service.html#a841a7efc4a56f2bc0e0175bb56411be2" target="_top" xlink:title="Return a proposal for the extraction destination.">
<polygon fill="white" stroke="#666666" points="391.5,-241 275.5,-241 275.5,-222 391.5,-222 391.5,-241"/>
<text text-anchor="middle" x="333.5" y="-229" font-family="Helvetica,sans-Serif" font-size="10.00">getArchiveFolderName</text>
</a>
</g>
</g>
<!-- Node3&#45;&gt;Node4 -->
<g id="edge3" class="edge">
<title>Node3&#45;&gt;Node4</title>
<path fill="none" stroke="#63b8ff" d="M192.21,-129.75C205.27,-132.41 219.23,-137.14 230,-145.5 256.71,-166.22 239.67,-191.3 266,-212.5 267.72,-213.88 269.53,-215.17 271.42,-216.36"/>
<polygon fill="#63b8ff" stroke="#63b8ff" points="269.54,-219.32 280.02,-220.86 272.79,-213.12 269.54,-219.32"/>
</g>
<!-- Node5 -->
<g id="node5" class="node">
<title>Node5</title>
<g id="a_node5"><a xlink:href="namespace_o_c_a_1_1_c_a_f_e_v_d_b_1_1_toolkit_1_1_traits.html#a32db872c14509fccd1b29071f894ddb7" target="_top" xlink:title=" ">
<polygon fill="white" stroke="#666666" points="401,-203.5 266,-203.5 266,-173.5 401,-173.5 401,-203.5"/>
<text text-anchor="start" x="274" y="-191.5" font-family="Helvetica,sans-Serif" font-size="10.00">OCA\CAFEVDB\Toolkit</text>
<text text-anchor="middle" x="333.5" y="-180.5" font-family="Helvetica,sans-Serif" font-size="10.00">\Traits\getClassBaseName</text>
</a>
</g>
</g>
<!-- Node3&#45;&gt;Node5 -->
<g id="edge4" class="edge">
<title>Node3&#45;&gt;Node5</title>
<path fill="none" stroke="#63b8ff" d="M192.34,-134.26C204.6,-137.19 218.03,-140.94 230,-145.5 246.91,-151.94 249.45,-157.19 266,-164.5 269.37,-165.99 272.86,-167.46 276.4,-168.89"/>
<polygon fill="#63b8ff" stroke="#63b8ff" points="275.1,-172.14 285.68,-172.52 277.64,-165.62 275.1,-172.14"/>
</g>
<!-- Node6 -->
<g id="node6" class="node">
<title>Node6</title>
<g id="a_node6"><a xlink:href="class_o_c_a_1_1_c_a_f_e_v_d_b_1_1_toolkit_1_1_service_1_1_archive_service.html#a2e9079a65d5beb0113b23bf5fac58125" target="_top" xlink:title="Return the name of the top&#45;level folder for the case that there is only a single folder at folder nes...">
<polygon fill="white" stroke="#666666" points="401,-155 266,-155 266,-136 401,-136 401,-155"/>
<text text-anchor="middle" x="333.5" y="-143" font-family="Helvetica,sans-Serif" font-size="10.00">getCommonDirectoryPrefix</text>
</a>
</g>
</g>
<!-- Node3&#45;&gt;Node6 -->
<g id="edge5" class="edge">
<title>Node3&#45;&gt;Node6</title>
<path fill="none" stroke="#63b8ff" d="M192.39,-130.67C210.59,-132.6 232.87,-134.95 254.26,-137.22"/>
<polygon fill="#63b8ff" stroke="#63b8ff" points="253.86,-140.7 264.17,-138.27 254.6,-133.73 253.86,-140.7"/>
</g>
<!-- Node3&#45;&gt;Node9 -->
<g id="edge9" class="edge">
<title>Node3&#45;&gt;Node9</title>
<path fill="none" stroke="#63b8ff" d="M192.14,-124.86C283.32,-121.05 507.77,-111.67 582.7,-108.54"/>
<polygon fill="#63b8ff" stroke="#63b8ff" points="582.41,-112.05 592.26,-108.14 582.12,-105.06 582.41,-112.05"/>
</g>
<!-- Node7 -->
<g id="node7" class="node">
<title>Node7</title>
<g id="a_node7"><a xlink:href="namespace_o_c_a_1_1_c_a_f_e_v_d_b_1_1_toolkit_1_1_traits.html#afeccc115bd3157d8f327e1d48b44af46" target="_top" xlink:title=" ">
<polygon fill="white" stroke="#666666" points="558,-203.5 437,-203.5 437,-173.5 558,-173.5 558,-203.5"/>
<text text-anchor="start" x="445" y="-191.5" font-family="Helvetica,sans-Serif" font-size="10.00">OCA\CAFEVDB\Toolkit</text>
<text text-anchor="middle" x="497.5" y="-180.5" font-family="Helvetica,sans-Serif" font-size="10.00">\Traits\getCommonPath</text>
</a>
</g>
</g>
<!-- Node6&#45;&gt;Node7 -->
<g id="edge6" class="edge">
<title>Node6&#45;&gt;Node7</title>
<path fill="none" stroke="#63b8ff" d="M372.07,-155.47C388.48,-159.83 408.27,-165.08 427.18,-170.1"/>
<polygon fill="#63b8ff" stroke="#63b8ff" points="426.16,-173.45 436.72,-172.63 427.96,-166.68 426.16,-173.45"/>
</g>
<!-- Node8 -->
<g id="node8" class="node">
<title>Node8</title>
<g id="a_node8"><a xlink:href="class_o_c_a_1_1_c_a_f_e_v_d_b_1_1_toolkit_1_1_service_1_1_archive_service.html#a7010e197d8dce475dfdd443c11dd7ee9" target="_top" xlink:title=" ">
<polygon fill="white" stroke="#666666" points="523,-155 472,-155 472,-136 523,-136 523,-155"/>
<text text-anchor="middle" x="497.5" y="-143" font-family="Helvetica,sans-Serif" font-size="10.00">getFiles</text>
</a>
</g>
</g>
<!-- Node6&#45;&gt;Node8 -->
<g id="edge7" class="edge">
<title>Node6&#45;&gt;Node8</title>
<path fill="none" stroke="#63b8ff" d="M401.33,-145.5C421.58,-145.5 443.05,-145.5 460.47,-145.5"/>
<polygon fill="#63b8ff" stroke="#63b8ff" points="460.3,-149 470.3,-145.5 460.3,-142 460.3,-149"/>
</g>
<!-- Node8&#45;&gt;Node9 -->
<g id="edge8" class="edge">
<title>Node8&#45;&gt;Node9</title>
<path fill="none" stroke="#63b8ff" d="M523.23,-136.88C541.06,-130.66 565.02,-122.31 582.83,-116.1"/>
<polygon fill="#63b8ff" stroke="#63b8ff" points="583.8,-119.47 592.09,-112.87 581.5,-112.86 583.8,-119.47"/>
</g>
<!-- Node11 -->
<g id="node11" class="node">
<title>Node11</title>
<g id="a_node11"><a xlink:href="class_o_c_a_1_1_c_a_f_e_v_d_b_1_1_toolkit_1_1_backend_1_1_archive_formats.html#adc591104b34d61e56698d5a2d843b031" target="_top" xlink:title="Fetch all drivers matching the given abilities.">
<polygon fill="white" stroke="#666666" points="398.5,-41 268.5,-41 268.5,0 398.5,0 398.5,-41"/>
<text text-anchor="start" x="276.5" y="-29" font-family="Helvetica,sans-Serif" font-size="10.00">OCA\CAFEVDB\Toolkit</text>
<text text-anchor="start" x="276.5" y="-18" font-family="Helvetica,sans-Serif" font-size="10.00">\Backend\ArchiveFormats</text>
<text text-anchor="middle" x="333.5" y="-7" font-family="Helvetica,sans-Serif" font-size="10.00">\getFormatDrivers</text>
</a>
</g>
</g>
<!-- Node10&#45;&gt;Node11 -->
<g id="edge11" class="edge">
<title>Node10&#45;&gt;Node11</title>
<path fill="none" stroke="#63b8ff" d="M230.43,-22.21C239.2,-22.06 248.14,-21.91 256.89,-21.76"/>
<polygon fill="#63b8ff" stroke="#63b8ff" points="256.8,-25.27 266.74,-21.6 256.69,-18.27 256.8,-25.27"/>
</g>
</g>
</svg>
        <g id="navigator" transform="translate(0 0)" fill="#404254">
                <rect fill="#f2f5e9" fill-opacity="0.5" stroke="#606060" stroke-width=".5" x="0" y="0" width="60" height="60"/>
                <use id="zoomplus" xlink:href="#zoomPlus" x="17" y="9" onmousedown="handleZoom(evt,'in')"/>
                <use id="zoomminus" xlink:href="#zoomMin" x="42" y="9" onmousedown="handleZoom(evt,'out')"/>
                <use id="reset" xlink:href="#resetDef" x="30" y="36" onmousedown="handleReset()"/>
                <g id="arrowUp" xlink:href="#dirArrow" transform="translate(30 24)" onmousedown="handlePan(0,-1)">
                  <use xlink:href="#rim" fill="#404040">
                        <set attributeName="fill" to="#808080" begin="arrowUp.mouseover" end="arrowUp.mouseout"/>
                  </use>
                  <path fill="none" stroke="white" stroke-width="1.5" d="M0,-3.0v7 M-2.5,-0.5L0,-3.0L2.5,-0.5"/>
                </g>
                <g id="arrowRight" xlink:href="#dirArrow" transform="rotate(90) translate(36 -43)" onmousedown="handlePan(1,0)">
                  <use xlink:href="#rim" fill="#404040">
                        <set attributeName="fill" to="#808080" begin="arrowRight.mouseover" end="arrowRight.mouseout"/>
                  </use>
                  <path fill="none" stroke="white" stroke-width="1.5" d="M0,-3.0v7 M-2.5,-0.5L0,-3.0L2.5,-0.5"/>
                </g>
                <g id="arrowDown" xlink:href="#dirArrow" transform="rotate(180) translate(-30 -48)" onmousedown="handlePan(0,1)">
                  <use xlink:href="#rim" fill="#404040">
                        <set attributeName="fill" to="#808080" begin="arrowDown.mouseover" end="arrowDown.mouseout"/>
                  </use>
                  <path fill="none" stroke="white" stroke-width="1.5" d="M0,-3.0v7 M-2.5,-0.5L0,-3.0L2.5,-0.5"/>
                </g>
                <g id="arrowLeft" xlink:href="#dirArrow" transform="rotate(270) translate(-36 17)" onmousedown="handlePan(-1,0)">
                  <use xlink:href="#rim" fill="#404040">
                        <set attributeName="fill" to="#808080" begin="arrowLeft.mouseover" end="arrowLeft.mouseout"/>
                  </use>
                  <path fill="none" stroke="white" stroke-width="1.5" d="M0,-3.0v7 M-2.5,-0.5L0,-3.0L2.5,-0.5"/>
                </g>
        </g>
        <svg viewBox="0 0 15 15" width="100%" height="30px" preserveAspectRatio="xMaxYMin meet">
         <g id="arrow_out" transform="scale(0.3 0.3)">
          <a xlink:href="class_o_c_a_1_1_c_a_f_e_v_d_b_1_1_toolkit_1_1_service_1_1_archive_service_ad1d53e5cbdc6d39c917e86f2ae794aeb_cgraph_org.svg" target="_base">
           <rect id="button" ry="5" rx="5" y="6" x="6" height="38" width="38"
                fill="#f2f5e9" fill-opacity="0.5" stroke="#606060" stroke-width="1.0"/>
           <path id="arrow"
             d="M 11.500037,31.436501 C 11.940474,20.09759 22.043105,11.32322 32.158766,21.979434 L 37.068811,17.246167 C 37.068811,17.246167 37.088388,32 37.088388,32 L 22.160133,31.978069 C 22.160133,31.978069 26.997745,27.140456 26.997745,27.140456 C 18.528582,18.264221 13.291696,25.230495 11.500037,31.436501 z"
             style="fill:#404040;"/>
          </a>
         </g>
        </svg>
</svg>
