<?xml version="1.0" encoding="UTF-8" standalone="no"?>
<!DOCTYPE svg PUBLIC "-//W3C//DTD SVG 1.1//EN"
 "http://www.w3.org/Graphics/SVG/1.1/DTD/svg11.dtd">
<!-- Generated by graphviz version 8.0.3 (20230416.2022)
 -->
<!-- Title: __call Pages: 1 -->
<svg width="127pt" height="64pt"
 viewBox="0.00 0.00 127.00 64.00" xmlns="http://www.w3.org/2000/svg" xmlns:xlink="http://www.w3.org/1999/xlink">
<g id="graph0" class="graph" transform="scale(1 1) rotate(0) translate(4 60)">
<title>__call</title>
<!-- Node1 -->
<g id="node1" class="node">
<title>Node1</title>
<g id="a_node1"><a xlink:title="{}">
<polygon fill="#999999" stroke="#666666" points="42,-37 0,-37 0,-18 42,-18 42,-37"/>
<text text-anchor="middle" x="21" y="-25" font-family="Helvetica,sans-Serif" font-size="10.00">__call</text>
</a>
</g>
</g>
<!-- Node2 -->
<g id="node2" class="node">
<title>Node2</title>
<g id="a_node2"><a xlink:href="class_o_c_a_1_1_c_a_f_e_v_d_b_1_1_database_1_1_cloud_1_1_synchronized.html#a8c152f6ef1c779ffd79d5c7ee4d37721" target="_top" xlink:title=" ">
<polygon fill="white" stroke="#666666" points="119,-56 78,-56 78,-37 119,-37 119,-56"/>
<text text-anchor="middle" x="98.5" y="-44" font-family="Helvetica,sans-Serif" font-size="10.00">entity</text>
</a>
</g>
</g>
<!-- Node1&#45;&gt;Node2 -->
<g id="edge1" class="edge">
<title>Node1&#45;&gt;Node2</title>
<path fill="none" stroke="#63b8ff" d="M42.23,-32.59C49.89,-34.52 58.77,-36.75 67.15,-38.86"/>
<polygon fill="#63b8ff" stroke="#63b8ff" points="66.18,-42.48 76.73,-41.53 67.89,-35.69 66.18,-42.48"/>
</g>
<!-- Node3 -->
<g id="node3" class="node">
<title>Node3</title>
<g id="a_node3"><a xlink:href="class_o_c_a_1_1_c_a_f_e_v_d_b_1_1_database_1_1_cloud_1_1_synchronized.html#a1ba50cbde423b0b17031ea550a599ae8" target="_top" xlink:title=" ">
<polygon fill="white" stroke="#666666" points="114.5,-19 82.5,-19 82.5,0 114.5,0 114.5,-19"/>
<text text-anchor="middle" x="98.5" y="-7" font-family="Helvetica,sans-Serif" font-size="10.00">find</text>
</a>
</g>
</g>
<!-- Node1&#45;&gt;Node3 -->
<g id="edge2" class="edge">
<title>Node1&#45;&gt;Node3</title>
<path fill="none" stroke="#63b8ff" d="M42.23,-22.68C51.27,-20.52 62.04,-17.95 71.65,-15.66"/>
<polygon fill="#63b8ff" stroke="#63b8ff" points="72.33,-18.86 81.24,-13.14 70.71,-12.05 72.33,-18.86"/>
</g>
</g>
</svg>
