<?xml version="1.0" encoding="UTF-8" standalone="no"?>
<!DOCTYPE svg PUBLIC "-//W3C//DTD SVG 1.1//EN"
 "http://www.w3.org/Graphics/SVG/1.1/DTD/svg11.dtd">
<!-- Generated by graphviz version 7.1.0 (20230121.1956)
 -->
<!-- Title: DatabaseEntityNotUniqueException Pages: 1 -->
<svg width="182pt" height="192pt"
 viewBox="0.00 0.00 182.00 192.00" xmlns="http://www.w3.org/2000/svg" xmlns:xlink="http://www.w3.org/1999/xlink">
<g id="graph0" class="graph" transform="scale(1 1) rotate(0) translate(4 188)">
<title>DatabaseEntityNotUniqueException</title>
<!-- Node1 -->
<g id="node1" class="node">
<title>Node1</title>
<g id="a_node1"><a xlink:title="Thrown if more than one entity is found when there should be only one.">
<polygon fill="#999999" stroke="#666666" points="174,-19 0,-19 0,0 174,0 174,-19"/>
<text text-anchor="middle" x="87" y="-7" font-family="Helvetica,sans-Serif" font-size="10.00">DatabaseEntityNotUniqueException</text>
</a>
</g>
</g>
<!-- Node2 -->
<g id="node2" class="node">
<title>Node2</title>
<g id="a_node2"><a xlink:href="class_o_c_a_1_1_c_a_f_e_v_d_b_1_1_exceptions_1_1_database_exception.html" target="_top" xlink:title="Base&#45;class for database exceptions.">
<polygon fill="white" stroke="#666666" points="138,-74 36,-74 36,-55 138,-55 138,-74"/>
<text text-anchor="middle" x="87" y="-62" font-family="Helvetica,sans-Serif" font-size="10.00">DatabaseException</text>
</a>
</g>
</g>
<!-- Node2&#45;&gt;Node1 -->
<g id="edge1" class="edge">
<title>Node2&#45;&gt;Node1</title>
<path fill="none" stroke="#63b8ff" d="M87,-43.35C87,-35.1 87,-25.97 87,-19.44"/>
<polygon fill="#63b8ff" stroke="#63b8ff" points="83.5,-43.23 87,-53.23 90.5,-43.23 83.5,-43.23"/>
</g>
<!-- Node3 -->
<g id="node3" class="node">
<title>Node3</title>
<g id="a_node3"><a xlink:href="class_o_c_a_1_1_c_a_f_e_v_d_b_1_1_exceptions_1_1_exception.html" target="_top" xlink:title="General abstraction base&#45;class.">
<polygon fill="white" stroke="#666666" points="117,-129 57,-129 57,-110 117,-110 117,-129"/>
<text text-anchor="middle" x="87" y="-117" font-family="Helvetica,sans-Serif" font-size="10.00">Exception</text>
</a>
</g>
</g>
<!-- Node3&#45;&gt;Node2 -->
<g id="edge2" class="edge">
<title>Node3&#45;&gt;Node2</title>
<path fill="none" stroke="#63b8ff" d="M87,-98.35C87,-90.1 87,-80.97 87,-74.44"/>
<polygon fill="#63b8ff" stroke="#63b8ff" points="83.5,-98.23 87,-108.23 90.5,-98.23 83.5,-98.23"/>
</g>
<!-- Node4 -->
<g id="node4" class="node">
<title>Node4</title>
<g id="a_node4"><a xlink:title=" ">
<polygon fill="white" stroke="#bfbfbf" points="127.5,-184 46.5,-184 46.5,-165 127.5,-165 127.5,-184"/>
<text text-anchor="middle" x="87" y="-172" font-family="Helvetica,sans-Serif" font-size="10.00">CoreException</text>
</a>
</g>
</g>
<!-- Node4&#45;&gt;Node3 -->
<g id="edge3" class="edge">
<title>Node4&#45;&gt;Node3</title>
<path fill="none" stroke="#63b8ff" d="M87,-153.35C87,-145.1 87,-135.97 87,-129.44"/>
<polygon fill="#63b8ff" stroke="#63b8ff" points="83.5,-153.23 87,-163.23 90.5,-153.23 83.5,-153.23"/>
</g>
</g>
</svg>
