<?xml version="1.0" encoding="UTF-8" standalone="no"?>
<!DOCTYPE svg PUBLIC "-//W3C//DTD SVG 1.1//EN"
 "http://www.w3.org/Graphics/SVG/1.1/DTD/svg11.dtd">
<!-- Generated by graphviz version 9.0.0 (20230911.1827)
 -->
<!-- Title: getFontsFolder Pages: 1 -->
<svg width="766pt" height="157pt"
 viewBox="0.00 0.00 766.25 157.05" xmlns="http://www.w3.org/2000/svg" xmlns:xlink="http://www.w3.org/1999/xlink">
<g id="graph0" class="graph" transform="scale(1 1) rotate(0) translate(4 153.05)">
<title>getFontsFolder</title>
<!-- Node1 -->
<g id="Node000001" class="node">
<title>Node1</title>
<g id="a_Node000001"><a xlink:title=" ">
<polygon fill="#999999" stroke="#666666" points="758.25,-115 677,-115 677,-95 758.25,-95 758.25,-115"/>
<text text-anchor="middle" x="717.62" y="-101.5" font-family="Helvetica,sans-Serif" font-size="10.00">getFontsFolder</text>
</a>
</g>
</g>
<!-- Node2 -->
<g id="Node000002" class="node">
<title>Node2</title>
<g id="a_Node000002"><a xlink:href="class_o_c_a_1_1_c_a_f_e_v_d_b_1_1_service_1_1_font_service.html#a607337401225854431cb0f7f9605d3d8" target="_top" xlink:title=" ">
<polygon fill="white" stroke="#666666" points="497.5,-134 404.25,-134 404.25,-114 497.5,-114 497.5,-134"/>
<text text-anchor="middle" x="450.88" y="-120.5" font-family="Helvetica,sans-Serif" font-size="10.00">findOfficeFontFile</text>
</a>
</g>
</g>
<!-- Node1&#45;&gt;Node2 -->
<g id="edge1_Node000001_Node000002" class="edge">
<title>Node1&#45;&gt;Node2</title>
<g id="a_edge1_Node000001_Node000002"><a xlink:title=" ">
<path fill="none" stroke="#63b8ff" d="M665.52,-108.67C616.99,-112.15 544.7,-117.34 497.92,-120.7"/>
<polygon fill="#63b8ff" stroke="#63b8ff" points="665.47,-112.18 675.19,-107.97 664.97,-105.2 665.47,-112.18"/>
</a>
</g>
</g>
<!-- Node3 -->
<g id="Node000003" class="node">
<title>Node3</title>
<g id="a_Node000003"><a xlink:href="class_o_c_a_1_1_c_a_f_e_v_d_b_1_1_service_1_1_font_service.html#a6b55501d93b01c9bb65dea8c403db037" target="_top" xlink:title="Populate the true&#45;type fonts folder with font&#45;files from the system or from other sources (download?...">
<polygon fill="white" stroke="#666666" points="367.12,-134 262.62,-134 262.62,-114 367.12,-114 367.12,-134"/>
<text text-anchor="middle" x="314.88" y="-120.5" font-family="Helvetica,sans-Serif" font-size="10.00">populateFontsFolder</text>
</a>
</g>
</g>
<!-- Node1&#45;&gt;Node3 -->
<g id="edge11_Node000001_Node000003" class="edge">
<title>Node1&#45;&gt;Node3</title>
<g id="a_edge11_Node000001_Node000003"><a xlink:title=" ">
<path fill="none" stroke="#63b8ff" d="M676.27,-118.83C664.97,-122.28 652.6,-125.65 641,-128 537.66,-148.92 509.09,-154.14 404.25,-143 388.18,-141.29 370.73,-137.88 355.62,-134.42"/>
<polygon fill="#63b8ff" stroke="#63b8ff" points="677.22,-122.2 685.71,-115.85 675.12,-115.52 677.22,-122.2"/>
</a>
</g>
</g>
<!-- Node4 -->
<g id="Node000004" class="node">
<title>Node4</title>
<g id="a_Node000004"><a xlink:href="class_o_c_a_1_1_c_a_f_e_v_d_b_1_1_service_1_1_font_service.html#a77513dce29558f6d1474fb786b9ef885" target="_top" xlink:title=" ">
<polygon fill="white" stroke="#666666" points="641,-96 533.5,-96 533.5,-76 641,-76 641,-96"/>
<text text-anchor="middle" x="587.25" y="-82.5" font-family="Helvetica,sans-Serif" font-size="10.00">getFontsFolderName</text>
</a>
</g>
</g>
<!-- Node1&#45;&gt;Node4 -->
<g id="edge3_Node000001_Node000004" class="edge">
<title>Node1&#45;&gt;Node4</title>
<g id="a_edge3_Node000001_Node000004"><a xlink:title=" ">
<path fill="none" stroke="#63b8ff" d="M665.38,-97.42C657.48,-96.25 649.3,-95.04 641.36,-93.86"/>
<polygon fill="#63b8ff" stroke="#63b8ff" points="664.81,-100.87 675.21,-98.87 665.83,-93.94 664.81,-100.87"/>
</a>
</g>
</g>
<!-- Node5 -->
<g id="Node000005" class="node">
<title>Node5</title>
<g id="a_Node000005"><a xlink:href="class_o_c_a_1_1_c_a_f_e_v_d_b_1_1_service_1_1_font_service.html#a7c3d0f3a25e3212aaf9c467682244f42" target="_top" xlink:title="Delete all files in the app&#39;s font folder and clear all cache entries.">
<polygon fill="white" stroke="#666666" points="496.75,-20 405,-20 405,0 496.75,0 496.75,-20"/>
<text text-anchor="middle" x="450.88" y="-6.5" font-family="Helvetica,sans-Serif" font-size="10.00">purgeFontsFolder</text>
</a>
</g>
</g>
<!-- Node1&#45;&gt;Node5 -->
<g id="edge12_Node000001_Node000005" class="edge">
<title>Node1&#45;&gt;Node5</title>
<g id="a_edge12_Node000001_Node000005"><a xlink:title=" ">
<path fill="none" stroke="#63b8ff" d="M688.13,-89.21C674.18,-81.87 656.99,-73.37 641,-67 591.62,-47.32 532.71,-30.58 493.9,-20.43"/>
<polygon fill="#63b8ff" stroke="#63b8ff" points="686.28,-92.19 696.75,-93.83 689.59,-86.02 686.28,-92.19"/>
</a>
</g>
</g>
<!-- Node2&#45;&gt;Node3 -->
<g id="edge2_Node000002_Node000003" class="edge">
<title>Node2&#45;&gt;Node3</title>
<g id="a_edge2_Node000002_Node000003"><a xlink:title=" ">
<path fill="none" stroke="#63b8ff" d="M392.32,-124C384.1,-124 375.69,-124 367.59,-124"/>
<polygon fill="#63b8ff" stroke="#63b8ff" points="392.25,-127.5 402.25,-124 392.25,-120.5 392.25,-127.5"/>
</a>
</g>
</g>
<!-- Node4&#45;&gt;Node2 -->
<g id="edge4_Node000004_Node000002" class="edge">
<title>Node4&#45;&gt;Node2</title>
<g id="a_edge4_Node000004_Node000002"><a xlink:title=" ">
<path fill="none" stroke="#63b8ff" d="M538.24,-99.58C521.98,-104.18 504.09,-109.23 488.83,-113.55"/>
<polygon fill="#63b8ff" stroke="#63b8ff" points="539.05,-102.99 547.72,-96.9 537.14,-96.25 539.05,-102.99"/>
</a>
</g>
</g>
<!-- Node4&#45;&gt;Node3 -->
<g id="edge5_Node000004_Node000003" class="edge">
<title>Node4&#45;&gt;Node3</title>
<g id="a_edge5_Node000004_Node000003"><a xlink:title=" ">
<path fill="none" stroke="#63b8ff" d="M522.08,-91C487.12,-94.15 443.18,-98.8 404.25,-105 389.68,-107.32 373.9,-110.5 359.75,-113.59"/>
<polygon fill="#63b8ff" stroke="#63b8ff" points="521.93,-94.53 531.58,-90.16 521.32,-87.55 521.93,-94.53"/>
</a>
</g>
</g>
<!-- Node4&#45;&gt;Node5 -->
<g id="edge6_Node000004_Node000005" class="edge">
<title>Node4&#45;&gt;Node5</title>
<g id="a_edge6_Node000004_Node000005"><a xlink:title=" ">
<path fill="none" stroke="#63b8ff" d="M562.56,-69.15C545.07,-57.12 520.41,-41.01 497.5,-29 491.72,-25.97 485.36,-23.07 479.26,-20.48"/>
<polygon fill="#63b8ff" stroke="#63b8ff" points="560.52,-72 570.72,-74.84 564.52,-66.25 560.52,-72"/>
</a>
</g>
</g>
<!-- Node6 -->
<g id="Node000006" class="node">
<title>Node6</title>
<g id="a_Node000006"><a xlink:href="class_o_c_a_1_1_c_a_f_e_v_d_b_1_1_service_1_1_font_service.html#a11370c328f78412deb89ea3a113e01dc" target="_top" xlink:title="Scan the app&#39;s fonts folder and return the contents grouped by font family.">
<polygon fill="white" stroke="#666666" points="495.25,-58 406.5,-58 406.5,-38 495.25,-38 495.25,-58"/>
<text text-anchor="middle" x="450.88" y="-44.5" font-family="Helvetica,sans-Serif" font-size="10.00">scanFontsFolder</text>
</a>
</g>
</g>
<!-- Node4&#45;&gt;Node6 -->
<g id="edge7_Node000004_Node000006" class="edge">
<title>Node4&#45;&gt;Node6</title>
<g id="a_edge7_Node000004_Node000006"><a xlink:title=" ">
<path fill="none" stroke="#63b8ff" d="M538.24,-72.42C521.98,-67.82 504.09,-62.77 488.83,-58.45"/>
<polygon fill="#63b8ff" stroke="#63b8ff" points="537.14,-75.75 547.72,-75.1 539.05,-69.01 537.14,-75.75"/>
</a>
</g>
</g>
<!-- Node7 -->
<g id="Node000007" class="node">
<title>Node7</title>
<g id="a_Node000007"><a xlink:href="class_o_c_a_1_1_c_a_f_e_v_d_b_1_1_service_1_1_font_service.html#ad4a3b7b4eedfc6652afc11bd2f63a89e" target="_top" xlink:title="Obtain the cached contents of the font&#45;folder, grouped by family.">
<polygon fill="white" stroke="#666666" points="368.25,-58 261.5,-58 261.5,-38 368.25,-38 368.25,-58"/>
<text text-anchor="middle" x="314.88" y="-44.5" font-family="Helvetica,sans-Serif" font-size="10.00">getFontFolderEntries</text>
</a>
</g>
</g>
<!-- Node6&#45;&gt;Node7 -->
<g id="edge8_Node000006_Node000007" class="edge">
<title>Node6&#45;&gt;Node7</title>
<g id="a_edge8_Node000006_Node000007"><a xlink:title=" ">
<path fill="none" stroke="#63b8ff" d="M395.06,-48C386.29,-48 377.24,-48 368.52,-48"/>
<polygon fill="#63b8ff" stroke="#63b8ff" points="394.86,-51.5 404.86,-48 394.86,-44.5 394.86,-51.5"/>
</a>
</g>
</g>
<!-- Node8 -->
<g id="Node000008" class="node">
<title>Node8</title>
<g id="a_Node000008"><a xlink:href="class_o_c_a_1_1_c_a_f_e_v_d_b_1_1_service_1_1_font_service.html#a4f12fbd8873025e70264e416c3cb9308" target="_top" xlink:title="Check whether the given font.">
<polygon fill="white" stroke="#666666" points="225.5,-58 142.75,-58 142.75,-38 225.5,-38 225.5,-58"/>
<text text-anchor="middle" x="184.12" y="-44.5" font-family="Helvetica,sans-Serif" font-size="10.00">isFontAvailable</text>
</a>
</g>
</g>
<!-- Node7&#45;&gt;Node8 -->
<g id="edge9_Node000007_Node000008" class="edge">
<title>Node7&#45;&gt;Node8</title>
<g id="a_edge9_Node000007_Node000008"><a xlink:title=" ">
<path fill="none" stroke="#63b8ff" d="M249.68,-48C241.54,-48 233.39,-48 225.76,-48"/>
<polygon fill="#63b8ff" stroke="#63b8ff" points="249.62,-51.5 259.62,-48 249.62,-44.5 249.62,-51.5"/>
</a>
</g>
</g>
<!-- Node9 -->
<g id="Node000009" class="node">
<title>Node9</title>
<g id="a_Node000009"><a xlink:href="class_o_c_a_1_1_c_a_f_e_v_d_b_1_1_service_1_1_font_service.html#a5e7ba34cff754351f6d70869594408fa" target="_top" xlink:title="Return the chosen font&#45;default if it is available and set, otherwise one of the installed fonts.">
<polygon fill="white" stroke="#666666" points="106.75,-58 0,-58 0,-38 106.75,-38 106.75,-58"/>
<text text-anchor="middle" x="53.38" y="-44.5" font-family="Helvetica,sans-Serif" font-size="10.00">getDefaultFontName</text>
</a>
</g>
</g>
<!-- Node8&#45;&gt;Node9 -->
<g id="edge10_Node000008_Node000009" class="edge">
<title>Node8&#45;&gt;Node9</title>
<g id="a_edge10_Node000008_Node000009"><a xlink:title=" ">
<path fill="none" stroke="#63b8ff" d="M131.06,-48C123.17,-48 115.02,-48 107.11,-48"/>
<polygon fill="#63b8ff" stroke="#63b8ff" points="130.87,-51.5 140.87,-48 130.87,-44.5 130.87,-51.5"/>
</a>
</g>
</g>
</g>
</svg>
