<?xml version="1.0" encoding="UTF-8" standalone="no"?>
<!DOCTYPE svg PUBLIC "-//W3C//DTD SVG 1.1//EN"
 "http://www.w3.org/Graphics/SVG/1.1/DTD/svg11.dtd">
<!-- Generated by graphviz version 9.0.0 (20230911.1827)
 -->
<!-- Title: LazyUpdateGeoCoding Pages: 1 -->
<svg width="125pt" height="140pt"
 viewBox="0.00 0.00 125.25 140.00" xmlns="http://www.w3.org/2000/svg" xmlns:xlink="http://www.w3.org/1999/xlink">
<g id="graph0" class="graph" transform="scale(1 1) rotate(0) translate(4 136)">
<title>LazyUpdateGeoCoding</title>
<!-- Node1 -->
<g id="Node000001" class="node">
<title>Node1</title>
<g id="a_Node000001"><a xlink:title="This cannot work ATM as it needs an authenticated user.">
<polygon fill="#999999" stroke="#666666" points="117.25,-76 0,-76 0,-56 117.25,-56 117.25,-76"/>
<text text-anchor="middle" x="58.62" y="-62.5" font-family="Helvetica,sans-Serif" font-size="10.00">LazyUpdateGeoCoding</text>
</a>
</g>
</g>
<!-- Node3 -->
<g id="Node000003" class="node">
<title>Node3</title>
<g id="a_Node000003"><a xlink:href="class_o_c_a_1_1_c_a_f_e_v_d_b_1_1_background_job_1_1_bulk_update_geo_coding.html" target="_top" xlink:title="Gradually sync with remote geo&#45;coding providers.">
<polygon fill="white" stroke="#666666" points="116.5,-20 0.75,-20 0.75,0 116.5,0 116.5,-20"/>
<text text-anchor="middle" x="58.62" y="-6.5" font-family="Helvetica,sans-Serif" font-size="10.00">BulkUpdateGeoCoding</text>
</a>
</g>
</g>
<!-- Node1&#45;&gt;Node3 -->
<g id="edge2_Node000001_Node000003" class="edge">
<title>Node1&#45;&gt;Node3</title>
<g id="a_edge2_Node000001_Node000003"><a xlink:title=" ">
<path fill="none" stroke="#63b8ff" d="M58.62,-44.13C58.62,-35.9 58.62,-26.85 58.62,-20.3"/>
<polygon fill="#63b8ff" stroke="#63b8ff" points="55.13,-44.08 58.63,-54.08 62.13,-44.08 55.13,-44.08"/>
</a>
</g>
</g>
<!-- Node2 -->
<g id="Node000002" class="node">
<title>Node2</title>
<g id="a_Node000002"><a xlink:title=" ">
<polygon fill="white" stroke="#bfbfbf" points="88,-132 29.25,-132 29.25,-112 88,-112 88,-132"/>
<text text-anchor="middle" x="58.62" y="-118.5" font-family="Helvetica,sans-Serif" font-size="10.00">TimedJob</text>
</a>
</g>
</g>
<!-- Node2&#45;&gt;Node1 -->
<g id="edge1_Node000001_Node000002" class="edge">
<title>Node2&#45;&gt;Node1</title>
<g id="a_edge1_Node000001_Node000002"><a xlink:title=" ">
<path fill="none" stroke="#63b8ff" d="M58.62,-100.13C58.62,-91.9 58.62,-82.85 58.62,-76.3"/>
<polygon fill="#63b8ff" stroke="#63b8ff" points="55.13,-100.08 58.63,-110.08 62.13,-100.08 55.13,-100.08"/>
</a>
</g>
</g>
</g>
</svg>
