<?xml version="1.0" encoding="UTF-8" standalone="no"?>
<!DOCTYPE svg PUBLIC "-//W3C//DTD SVG 1.1//EN"
 "http://www.w3.org/Graphics/SVG/1.1/DTD/svg11.dtd">
<!-- Generated by graphviz version 8.0.3 (20230416.2022)
 -->
<!-- Title: tooltipSlug Pages: 1 -->
<!--zoomable 326 -->
<svg id="main" version="1.1" xmlns="http://www.w3.org/2000/svg" xmlns:xlink="http://www.w3.org/1999/xlink" xml:space="preserve" onload="init(evt)">
<style type="text/css"><![CDATA[
.edge:hover path { stroke: red; }
.edge:hover polygon { stroke: red; fill: red; }
]]></style>
<script type="text/javascript"><![CDATA[
var edges = document.getElementsByTagName('g');
if (edges && edges.length) {
  for (var i=0;i<edges.length;i++) {
    if (edges[i].id.substr(0,4)=='edge') {
      edges[i].setAttribute('class','edge');
    }
  }
}
]]></script>
        <defs>
                <circle id="rim" cx="0" cy="0" r="7"/>
                <circle id="rim2" cx="0" cy="0" r="3.5"/>
                <g id="zoomPlus">
                        <use xlink:href="#rim" fill="#404040">
                                <set attributeName="fill" to="#808080" begin="zoomplus.mouseover" end="zoomplus.mouseout"/>
                        </use>
                        <path d="M-4,0h8M0,-4v8" fill="none" stroke="white" stroke-width="1.5" pointer-events="none"/>
                </g>
                <g id="zoomMin">
                        <use xlink:href="#rim" fill="#404040">
                                <set attributeName="fill" to="#808080" begin="zoomminus.mouseover" end="zoomminus.mouseout"/>
                        </use>
                        <path d="M-4,0h8" fill="none" stroke="white" stroke-width="1.5" pointer-events="none"/>
                </g>
                <g id="dirArrow">
                        <path fill="none" stroke="white" stroke-width="1.5" d="M0,-3.0v7 M-2.5,-0.5L0,-3.0L2.5,-0.5"/>
                </g>
               <g id="resetDef">
                       <use xlink:href="#rim2" fill="#404040">
                               <set attributeName="fill" to="#808080" begin="reset.mouseover" end="reset.mouseout"/>
                       </use>
               </g>
        </defs>

<script type="text/javascript">
var viewWidth = 521;
var viewHeight = 326;
var sectionId = 'dynsection-49';
</script>
<script xlink:href="svgpan.js"/>
<svg id="graph" class="graph">
<g id="viewport">
<title>tooltipSlug</title>
<!-- Node1 -->
<g id="node1" class="node">
<title>Node1</title>
<g id="a_node1"><a xlink:title="Generate a &quot;unified&quot; tooltip&#45;slug in order to obtain tool&#45;tips from the ToolTipsService.">
<polygon fill="#999999" stroke="#666666" points="513,-72.5 451,-72.5 451,-53.5 513,-53.5 513,-72.5"/>
<text text-anchor="middle" x="482" y="-60.5" font-family="Helvetica,sans-Serif" font-size="10.00">tooltipSlug</text>
</a>
</g>
</g>
<!-- Node2 -->
<g id="node2" class="node">
<title>Node2</title>
<g id="a_node2"><a xlink:href="class_o_c_a_1_1_c_a_f_e_v_d_b_1_1_page_renderer_1_1_p_m_e_table_view_base.html#a8a9d6dd0754451d7214ed760a2179bd4" target="_top" xlink:title="Add a &quot;slug&quot; as tooltips&#45;index and css&#45;class.">
<polygon fill="white" stroke="#666666" points="415,-72.5 363,-72.5 363,-53.5 415,-53.5 415,-72.5"/>
<text text-anchor="middle" x="389" y="-60.5" font-family="Helvetica,sans-Serif" font-size="10.00">addSlug</text>
</a>
</g>
</g>
<!-- Node1&#45;&gt;Node2 -->
<g id="edge1" class="edge">
<title>Node1&#45;&gt;Node2</title>
<path fill="none" stroke="#63b8ff" d="M439.9,-63C431.52,-63 422.94,-63 415.31,-63"/>
<polygon fill="#63b8ff" stroke="#63b8ff" points="439.7,-66.5 449.7,-63 439.7,-59.5 439.7,-66.5"/>
</g>
<!-- Node3 -->
<g id="node3" class="node">
<title>Node3</title>
<g id="a_node3"><a xlink:href="class_o_c_a_1_1_c_a_f_e_v_d_b_1_1_page_renderer_1_1_p_m_e_table_view_base.html#a4bc3294be95e06a40ae3bdc7d5419749" target="_top" xlink:title="Generate a join&#45;table field, given join&#45;table and field name.">
<polygon fill="white" stroke="#666666" points="327,-144.5 224,-144.5 224,-125.5 327,-125.5 327,-144.5"/>
<text text-anchor="middle" x="275.5" y="-132.5" font-family="Helvetica,sans-Serif" font-size="10.00">makeJoinTableField</text>
</a>
</g>
</g>
<!-- Node2&#45;&gt;Node3 -->
<g id="edge2" class="edge">
<title>Node2&#45;&gt;Node3</title>
<path fill="none" stroke="#63b8ff" d="M363.94,-78.54C342,-92.71 310.25,-113.21 291.66,-125.21"/>
<polygon fill="#63b8ff" stroke="#63b8ff" points="365.46,-81.08 371.96,-72.71 361.66,-75.19 365.46,-81.08"/>
</g>
<!-- Node7 -->
<g id="node7" class="node">
<title>Node7</title>
<g id="a_node7"><a xlink:href="class_o_c_a_1_1_c_a_f_e_v_d_b_1_1_page_renderer_1_1_project_instrumentation_numbers.html#ab91557ae1e08e1183c76c9ce39edfe33" target="_top" xlink:title="{Show the underlying template page.This is supposed to echo html code to stdout. This is the default ...">
<polygon fill="white" stroke="#666666" points="188,-78 0,-78 0,-48 188,-48 188,-78"/>
<text text-anchor="start" x="8" y="-66" font-family="Helvetica,sans-Serif" font-size="10.00">OCA\CAFEVDB\PageRenderer</text>
<text text-anchor="middle" x="94" y="-55" font-family="Helvetica,sans-Serif" font-size="10.00">\ProjectInstrumentationNumbers\render</text>
</a>
</g>
</g>
<!-- Node2&#45;&gt;Node7 -->
<g id="edge10" class="edge">
<title>Node2&#45;&gt;Node7</title>
<path fill="none" stroke="#63b8ff" d="M351.55,-63C310.95,-63 243.74,-63 188.29,-63"/>
<polygon fill="#63b8ff" stroke="#63b8ff" points="351.51,-66.5 361.51,-63 351.51,-59.5 351.51,-66.5"/>
</g>
<!-- Node8 -->
<g id="node8" class="node">
<title>Node8</title>
<g id="a_node8"><a xlink:href="class_o_c_a_1_1_c_a_f_e_v_d_b_1_1_page_renderer_1_1_project_participant_fields.html#ab91557ae1e08e1183c76c9ce39edfe33" target="_top" xlink:title="{Show the underlying template page.This is supposed to echo html code to stdout. This is the default ...">
<polygon fill="white" stroke="#666666" points="171.5,-30 16.5,-30 16.5,0 171.5,0 171.5,-30"/>
<text text-anchor="start" x="24.5" y="-18" font-family="Helvetica,sans-Serif" font-size="10.00">OCA\CAFEVDB\PageRenderer</text>
<text text-anchor="middle" x="94" y="-7" font-family="Helvetica,sans-Serif" font-size="10.00">\ProjectParticipantFields\render</text>
</a>
</g>
</g>
<!-- Node2&#45;&gt;Node8 -->
<g id="edge11" class="edge">
<title>Node2&#45;&gt;Node8</title>
<path fill="none" stroke="#63b8ff" d="M351.89,-57.08C307.24,-49.77 230.02,-37.12 171.87,-27.59"/>
<polygon fill="#63b8ff" stroke="#63b8ff" points="351.08,-60.66 361.51,-58.82 352.21,-53.75 351.08,-60.66"/>
</g>
<!-- Node4 -->
<g id="node4" class="node">
<title>Node4</title>
<g id="a_node4"><a xlink:href="class_o_c_a_1_1_c_a_f_e_v_d_b_1_1_page_renderer_1_1_instrument_families.html#ab91557ae1e08e1183c76c9ce39edfe33" target="_top" xlink:title="{Show the underlying template page.This is supposed to echo html code to stdout. This is the default ...">
<polygon fill="white" stroke="#666666" points="171.5,-270 16.5,-270 16.5,-240 171.5,-240 171.5,-270"/>
<text text-anchor="start" x="24.5" y="-258" font-family="Helvetica,sans-Serif" font-size="10.00">OCA\CAFEVDB\PageRenderer</text>
<text text-anchor="middle" x="94" y="-247" font-family="Helvetica,sans-Serif" font-size="10.00">\InstrumentFamilies\render</text>
</a>
</g>
</g>
<!-- Node3&#45;&gt;Node4 -->
<g id="edge3" class="edge">
<title>Node3&#45;&gt;Node4</title>
<path fill="none" stroke="#63b8ff" d="M262.58,-153.88C247.77,-175.76 220.44,-211.33 188,-231 182.58,-234.28 176.72,-237.12 170.67,-239.58"/>
<polygon fill="#63b8ff" stroke="#63b8ff" points="265.92,-156.17 268.48,-145.89 260.06,-152.33 265.92,-156.17"/>
</g>
<!-- Node5 -->
<g id="node5" class="node">
<title>Node5</title>
<g id="a_node5"><a xlink:href="class_o_c_a_1_1_c_a_f_e_v_d_b_1_1_page_renderer_1_1_instrument_insurances.html#ab91557ae1e08e1183c76c9ce39edfe33" target="_top" xlink:title="{Show the underlying template page.This is supposed to echo html code to stdout. This is the default ...">
<polygon fill="white" stroke="#666666" points="171.5,-222 16.5,-222 16.5,-192 171.5,-192 171.5,-222"/>
<text text-anchor="start" x="24.5" y="-210" font-family="Helvetica,sans-Serif" font-size="10.00">OCA\CAFEVDB\PageRenderer</text>
<text text-anchor="middle" x="94" y="-199" font-family="Helvetica,sans-Serif" font-size="10.00">\InstrumentInsurances\render</text>
</a>
</g>
</g>
<!-- Node3&#45;&gt;Node5 -->
<g id="edge4" class="edge">
<title>Node3&#45;&gt;Node5</title>
<path fill="none" stroke="#63b8ff" d="M250.31,-150.61C233.41,-160.97 210,-174.22 188,-183 180.1,-186.15 171.66,-189 163.2,-191.54"/>
<polygon fill="#63b8ff" stroke="#63b8ff" points="251.83,-153.17 258.46,-144.9 248.12,-147.23 251.83,-153.17"/>
</g>
<!-- Node6 -->
<g id="node6" class="node">
<title>Node6</title>
<g id="a_node6"><a xlink:href="class_o_c_a_1_1_c_a_f_e_v_d_b_1_1_page_renderer_1_1_instruments.html#ab91557ae1e08e1183c76c9ce39edfe33" target="_top" xlink:title="{Show the underlying template page.This is supposed to echo html code to stdout. This is the default ...">
<polygon fill="white" stroke="#666666" points="171.5,-174 16.5,-174 16.5,-144 171.5,-144 171.5,-174"/>
<text text-anchor="start" x="24.5" y="-162" font-family="Helvetica,sans-Serif" font-size="10.00">OCA\CAFEVDB\PageRenderer</text>
<text text-anchor="middle" x="94" y="-151" font-family="Helvetica,sans-Serif" font-size="10.00">\Instruments\render</text>
</a>
</g>
</g>
<!-- Node3&#45;&gt;Node6 -->
<g id="edge5" class="edge">
<title>Node3&#45;&gt;Node6</title>
<path fill="none" stroke="#63b8ff" d="M212.73,-143.26C199.58,-145.02 185.54,-146.89 171.9,-148.72"/>
<polygon fill="#63b8ff" stroke="#63b8ff" points="213.09,-146.61 222.54,-141.81 212.17,-139.67 213.09,-146.61"/>
</g>
<!-- Node3&#45;&gt;Node7 -->
<g id="edge6" class="edge">
<title>Node3&#45;&gt;Node7</title>
<path fill="none" stroke="#63b8ff" d="M250.31,-119.39C233.41,-109.03 210,-95.78 188,-87 180.1,-83.85 171.66,-81 163.2,-78.46"/>
<polygon fill="#63b8ff" stroke="#63b8ff" points="248.12,-122.77 258.46,-125.1 251.83,-116.83 248.12,-122.77"/>
</g>
<!-- Node3&#45;&gt;Node8 -->
<g id="edge7" class="edge">
<title>Node3&#45;&gt;Node8</title>
<path fill="none" stroke="#63b8ff" d="M262.58,-116.12C247.77,-94.24 220.44,-58.67 188,-39 182.58,-35.72 176.72,-32.88 170.67,-30.42"/>
<polygon fill="#63b8ff" stroke="#63b8ff" points="260.06,-117.67 268.48,-124.11 265.92,-113.83 260.06,-117.67"/>
</g>
<!-- Node9 -->
<g id="node9" class="node">
<title>Node9</title>
<g id="a_node9"><a xlink:href="class_o_c_a_1_1_c_a_f_e_v_d_b_1_1_page_renderer_1_1_project_participants.html#ab91557ae1e08e1183c76c9ce39edfe33" target="_top" xlink:title="{Show the underlying template page.This is supposed to echo html code to stdout. This is the default ...">
<polygon fill="white" stroke="#666666" points="171.5,-126 16.5,-126 16.5,-96 171.5,-96 171.5,-126"/>
<text text-anchor="start" x="24.5" y="-114" font-family="Helvetica,sans-Serif" font-size="10.00">OCA\CAFEVDB\PageRenderer</text>
<text text-anchor="middle" x="94" y="-103" font-family="Helvetica,sans-Serif" font-size="10.00">\ProjectParticipants\render</text>
</a>
</g>
</g>
<!-- Node3&#45;&gt;Node9 -->
<g id="edge8" class="edge">
<title>Node3&#45;&gt;Node9</title>
<path fill="none" stroke="#63b8ff" d="M212.73,-126.74C199.58,-124.98 185.54,-123.11 171.9,-121.28"/>
<polygon fill="#63b8ff" stroke="#63b8ff" points="212.17,-130.33 222.54,-128.19 213.09,-123.39 212.17,-130.33"/>
</g>
<!-- Node10 -->
<g id="node10" class="node">
<title>Node10</title>
<g id="a_node10"><a xlink:href="class_o_c_a_1_1_c_a_f_e_v_d_b_1_1_page_renderer_1_1_sepa_bulk_transactions.html#ab91557ae1e08e1183c76c9ce39edfe33" target="_top" xlink:title="{Show the underlying template page.This is supposed to echo html code to stdout. This is the default ...">
<polygon fill="white" stroke="#666666" points="171.5,-318 16.5,-318 16.5,-288 171.5,-288 171.5,-318"/>
<text text-anchor="start" x="24.5" y="-306" font-family="Helvetica,sans-Serif" font-size="10.00">OCA\CAFEVDB\PageRenderer</text>
<text text-anchor="middle" x="94" y="-295" font-family="Helvetica,sans-Serif" font-size="10.00">\SepaBulkTransactions\render</text>
</a>
</g>
</g>
<!-- Node3&#45;&gt;Node10 -->
<g id="edge9" class="edge">
<title>Node3&#45;&gt;Node10</title>
<path fill="none" stroke="#63b8ff" d="M268.09,-154.96C256.98,-186.32 231.09,-246.84 188,-279 183.06,-282.69 177.6,-285.82 171.88,-288.46"/>
<polygon fill="#63b8ff" stroke="#63b8ff" points="271.63,-156.43 271.52,-145.84 265,-154.19 271.63,-156.43"/>
</g>
</g>
</svg>
        <g id="navigator" transform="translate(0 0)" fill="#404254">
                <rect fill="#f2f5e9" fill-opacity="0.5" stroke="#606060" stroke-width=".5" x="0" y="0" width="60" height="60"/>
                <use id="zoomplus" xlink:href="#zoomPlus" x="17" y="9" onmousedown="handleZoom(evt,'in')"/>
                <use id="zoomminus" xlink:href="#zoomMin" x="42" y="9" onmousedown="handleZoom(evt,'out')"/>
                <use id="reset" xlink:href="#resetDef" x="30" y="36" onmousedown="handleReset()"/>
                <g id="arrowUp" xlink:href="#dirArrow" transform="translate(30 24)" onmousedown="handlePan(0,-1)">
                  <use xlink:href="#rim" fill="#404040">
                        <set attributeName="fill" to="#808080" begin="arrowUp.mouseover" end="arrowUp.mouseout"/>
                  </use>
                  <path fill="none" stroke="white" stroke-width="1.5" d="M0,-3.0v7 M-2.5,-0.5L0,-3.0L2.5,-0.5"/>
                </g>
                <g id="arrowRight" xlink:href="#dirArrow" transform="rotate(90) translate(36 -43)" onmousedown="handlePan(1,0)">
                  <use xlink:href="#rim" fill="#404040">
                        <set attributeName="fill" to="#808080" begin="arrowRight.mouseover" end="arrowRight.mouseout"/>
                  </use>
                  <path fill="none" stroke="white" stroke-width="1.5" d="M0,-3.0v7 M-2.5,-0.5L0,-3.0L2.5,-0.5"/>
                </g>
                <g id="arrowDown" xlink:href="#dirArrow" transform="rotate(180) translate(-30 -48)" onmousedown="handlePan(0,1)">
                  <use xlink:href="#rim" fill="#404040">
                        <set attributeName="fill" to="#808080" begin="arrowDown.mouseover" end="arrowDown.mouseout"/>
                  </use>
                  <path fill="none" stroke="white" stroke-width="1.5" d="M0,-3.0v7 M-2.5,-0.5L0,-3.0L2.5,-0.5"/>
                </g>
                <g id="arrowLeft" xlink:href="#dirArrow" transform="rotate(270) translate(-36 17)" onmousedown="handlePan(-1,0)">
                  <use xlink:href="#rim" fill="#404040">
                        <set attributeName="fill" to="#808080" begin="arrowLeft.mouseover" end="arrowLeft.mouseout"/>
                  </use>
                  <path fill="none" stroke="white" stroke-width="1.5" d="M0,-3.0v7 M-2.5,-0.5L0,-3.0L2.5,-0.5"/>
                </g>
        </g>
        <svg viewBox="0 0 15 15" width="100%" height="30px" preserveAspectRatio="xMaxYMin meet">
         <g id="arrow_out" transform="scale(0.3 0.3)">
          <a xlink:href="class_o_c_a_1_1_c_a_f_e_v_d_b_1_1_page_renderer_1_1_p_m_e_table_view_base_a166d2dbd24c4913a9461c5813bbb4232_icgraph_org.svg" target="_base">
           <rect id="button" ry="5" rx="5" y="6" x="6" height="38" width="38"
                fill="#f2f5e9" fill-opacity="0.5" stroke="#606060" stroke-width="1.0"/>
           <path id="arrow"
             d="M 11.500037,31.436501 C 11.940474,20.09759 22.043105,11.32322 32.158766,21.979434 L 37.068811,17.246167 C 37.068811,17.246167 37.088388,32 37.088388,32 L 22.160133,31.978069 C 22.160133,31.978069 26.997745,27.140456 26.997745,27.140456 C 18.528582,18.264221 13.291696,25.230495 11.500037,31.436501 z"
             style="fill:#404040;"/>
          </a>
         </g>
        </svg>
</svg>
