<?xml version="1.0" encoding="UTF-8" standalone="no"?>
<!DOCTYPE svg PUBLIC "-//W3C//DTD SVG 1.1//EN"
 "http://www.w3.org/Graphics/SVG/1.1/DTD/svg11.dtd">
<!-- Generated by graphviz version 9.0.0 (20230911.1827)
 -->
<!-- Title: EncryptedFileData Pages: 1 -->
<svg width="164pt" height="196pt"
 viewBox="0.00 0.00 164.25 196.00" xmlns="http://www.w3.org/2000/svg" xmlns:xlink="http://www.w3.org/1999/xlink">

<svg id="main" version="1.1" xmlns="http://www.w3.org/2000/svg" xmlns:xlink="http://www.w3.org/1999/xlink" xml:space="preserve" onload="init(evt)">
<style type="text/css"><![CDATA[
.node, .edge {opacity: 0.7;}
.node.selected, .edge.selected {opacity: 1;}
.edge:hover path { stroke: red; }
.edge:hover polygon { stroke: red; fill: red; }
]]></style>
<script type="application/ecmascript" xlink:href="svg.min.js"/>
<svg id="graph" class="graph">
<g id="graph0" class="graph" transform="scale(1 1) rotate(0) translate(4 192)">
<title>EncryptedFileData</title>
<!-- Node1 -->
<g id="Node000001" class="node">
<title>Node1</title>
<g id="a_Node000001"><a xlink:title="DO NOT EDIT THIS FILE &#45; IT WAS CREATED BY DOCTRINE&#39;S PROXY GENERATOR.">
<polygon fill="#999999" stroke="#666666" points="140,-20 43,-20 43,0 140,0 140,-20"/>
<text text-anchor="middle" x="91.5" y="-6.5" font-family="Helvetica,sans-Serif" font-size="10.00">EncryptedFileData</text>
</a>
</g>
</g>
<!-- Node2 -->
<g id="Node000002" class="node">
<title>Node2</title>
<g id="a_Node000002"><a xlink:href="class_o_c_a_1_1_c_a_f_e_v_d_b_1_1_database_1_1_doctrine_1_1_o_r_m_1_1_entities_1_1_encrypted_file_data.html" target="_top" xlink:title="EncryptedFileData.">
<polygon fill="white" stroke="#666666" points="97,-76 0,-76 0,-56 97,-56 97,-76"/>
<text text-anchor="middle" x="48.5" y="-62.5" font-family="Helvetica,sans-Serif" font-size="10.00">EncryptedFileData</text>
</a>
</g>
</g>
<!-- Node2&#45;&gt;Node1 -->
<g id="edge1_Node000001_Node000002" class="edge">
<title>Node2&#45;&gt;Node1</title>
<g id="a_edge1_Node000001_Node000002"><a xlink:title=" ">
<path fill="none" stroke="#63b8ff" d="M63.06,-46.72C70.13,-37.84 78.32,-27.55 84.1,-20.3"/>
<polygon fill="#63b8ff" stroke="#63b8ff" points="60.42,-44.41 56.93,-54.41 65.9,-48.77 60.42,-44.41"/>
</a>
</g>
</g>
<!-- Node3 -->
<g id="Node000003" class="node">
<title>Node3</title>
<g id="a_Node000003"><a xlink:href="class_o_c_a_1_1_c_a_f_e_v_d_b_1_1_database_1_1_doctrine_1_1_o_r_m_1_1_entities_1_1_file_data.html" target="_top" xlink:title="FileData.">
<polygon fill="white" stroke="#666666" points="74.88,-132 22.12,-132 22.12,-112 74.88,-112 74.88,-132"/>
<text text-anchor="middle" x="48.5" y="-118.5" font-family="Helvetica,sans-Serif" font-size="10.00">FileData</text>
</a>
</g>
</g>
<!-- Node3&#45;&gt;Node2 -->
<g id="edge2_Node000002_Node000003" class="edge">
<title>Node3&#45;&gt;Node2</title>
<g id="a_edge2_Node000002_Node000003"><a xlink:title=" ">
<path fill="none" stroke="#63b8ff" d="M48.5,-100.13C48.5,-91.9 48.5,-82.85 48.5,-76.3"/>
<polygon fill="#63b8ff" stroke="#63b8ff" points="45,-100.08 48.5,-110.08 52,-100.08 45,-100.08"/>
</a>
</g>
</g>
<!-- Node4 -->
<g id="Node000004" class="node">
<title>Node4</title>
<g id="a_Node000004"><a xlink:title=" ">
<polygon fill="white" stroke="#bfbfbf" points="84.62,-188 12.38,-188 12.38,-168 84.62,-168 84.62,-188"/>
<text text-anchor="middle" x="48.5" y="-174.5" font-family="Helvetica,sans-Serif" font-size="10.00">ArrayAccess</text>
</a>
</g>
</g>
<!-- Node4&#45;&gt;Node3 -->
<g id="edge3_Node000003_Node000004" class="edge">
<title>Node4&#45;&gt;Node3</title>
<g id="a_edge3_Node000003_Node000004"><a xlink:title=" ">
<path fill="none" stroke="#63b8ff" d="M48.5,-156.13C48.5,-147.9 48.5,-138.85 48.5,-132.3"/>
<polygon fill="#63b8ff" stroke="#63b8ff" points="45,-156.08 48.5,-166.08 52,-156.08 45,-156.08"/>
</a>
</g>
</g>
<!-- Node5 -->
<g id="Node000005" class="node">
<title>Node5</title>
<g id="a_Node000005"><a xlink:title=" ">
<polygon fill="white" stroke="#bfbfbf" points="156.25,-76 114.75,-76 114.75,-56 156.25,-56 156.25,-76"/>
<text text-anchor="middle" x="135.5" y="-62.5" font-family="Helvetica,sans-Serif" font-size="10.00">Proxy</text>
</a>
</g>
</g>
<!-- Node5&#45;&gt;Node1 -->
<g id="edge4_Node000001_Node000005" class="edge">
<title>Node5&#45;&gt;Node1</title>
<g id="a_edge4_Node000001_Node000005"><a xlink:title=" ">
<path fill="none" stroke="#63b8ff" d="M120.61,-46.72C113.37,-37.84 104.98,-27.55 99.08,-20.3"/>
<polygon fill="#63b8ff" stroke="#63b8ff" points="117.85,-48.88 126.88,-54.42 123.28,-44.46 117.85,-48.88"/>
</a>
</g>
</g>
</g>
</svg>
</svg>

<style type='text/css'>
<![CDATA[
[data-mouse-over-selected='false'] { opacity: 0.7; }
[data-mouse-over-selected='true']  { opacity: 1.0; }
]]>
</style>
<script type="application/ecmascript"><![CDATA[
document.addEventListener('DOMContentLoaded', (event) => {
  highlightEdges();
  highlightAdjacentNodes();
});
]]></script>
</svg>
