<?xml version="1.0" encoding="UTF-8" standalone="no"?>
<!DOCTYPE svg PUBLIC "-//W3C//DTD SVG 1.1//EN"
 "http://www.w3.org/Graphics/SVG/1.1/DTD/svg11.dtd">
<!-- Generated by graphviz version 9.0.0 (20230911.1827)
 -->
<!-- Title: logQuery Pages: 1 -->
<svg width="244pt" height="28pt"
 viewBox="0.00 0.00 244.25 28.00" xmlns="http://www.w3.org/2000/svg" xmlns:xlink="http://www.w3.org/1999/xlink">
<g id="graph0" class="graph" transform="scale(1 1) rotate(0) translate(4 24)">
<title>logQuery</title>
<!-- Node1 -->
<g id="Node000001" class="node">
<title>Node1</title>
<g id="a_Node000001"><a xlink:title="{}">
<polygon fill="#999999" stroke="#666666" points="55,-20 0,-20 0,0 55,0 55,-20"/>
<text text-anchor="middle" x="27.5" y="-6.5" font-family="Helvetica,sans-Serif" font-size="10.00">logQuery</text>
</a>
</g>
</g>
<!-- Node2 -->
<g id="Node000002" class="node">
<title>Node2</title>
<g id="a_Node000002"><a xlink:href="class_o_c_a_1_1_c_a_f_e_v_d_b_1_1_database_1_1_legacy_1_1_p_m_e_1_1_p_h_p_my_edit.html#a7929c701d876cbbef86103e9ab6c8b33" target="_top" xlink:title="{}">
<polygon fill="white" stroke="#666666" points="144.5,-20 91,-20 91,0 144.5,0 144.5,-20"/>
<text text-anchor="middle" x="117.75" y="-6.5" font-family="Helvetica,sans-Serif" font-size="10.00">myquery</text>
</a>
</g>
</g>
<!-- Node1&#45;&gt;Node2 -->
<g id="edge1_Node000001_Node000002" class="edge">
<title>Node1&#45;&gt;Node2</title>
<g id="a_edge1_Node000001_Node000002"><a xlink:title=" ">
<path fill="none" stroke="#63b8ff" d="M55.46,-10C62.95,-10 71.22,-10 79.21,-10"/>
<polygon fill="#63b8ff" stroke="#63b8ff" points="79.05,-13.5 89.05,-10 79.05,-6.5 79.05,-13.5"/>
</a>
</g>
</g>
<!-- Node3 -->
<g id="Node000003" class="node">
<title>Node3</title>
<g id="a_Node000003"><a xlink:href="class_o_c_a_1_1_c_a_f_e_v_d_b_1_1_database_1_1_legacy_1_1_p_m_e_1_1_p_h_p_my_edit.html#af811153ae1e03339da641bbc02ff09ac" target="_top" xlink:title=" ">
<polygon fill="white" stroke="#666666" points="236.25,-20 180.5,-20 180.5,0 236.25,0 236.25,-20"/>
<text text-anchor="middle" x="208.38" y="-6.5" font-family="Helvetica,sans-Serif" font-size="10.00">queryLog</text>
</a>
</g>
</g>
<!-- Node2&#45;&gt;Node3 -->
<g id="edge2_Node000002_Node000003" class="edge">
<title>Node2&#45;&gt;Node3</title>
<g id="a_edge2_Node000002_Node000003"><a xlink:title=" ">
<path fill="none" stroke="#63b8ff" d="M144.86,-10C152.34,-10 160.66,-10 168.72,-10"/>
<polygon fill="#63b8ff" stroke="#63b8ff" points="168.71,-13.5 178.71,-10 168.71,-6.5 168.71,-13.5"/>
</a>
</g>
</g>
</g>
</svg>
