<?xml version="1.0" encoding="UTF-8" standalone="no"?>
<!DOCTYPE svg PUBLIC "-//W3C//DTD SVG 1.1//EN"
 "http://www.w3.org/Graphics/SVG/1.1/DTD/svg11.dtd">
<!-- Generated by graphviz version 8.0.3 (20230416.2022)
 -->
<!-- Title: HaliteSymmetricStreamCryptor Pages: 1 -->
<svg width="161pt" height="137pt"
 viewBox="0.00 0.00 161.00 137.00" xmlns="http://www.w3.org/2000/svg" xmlns:xlink="http://www.w3.org/1999/xlink">
<g id="graph0" class="graph" transform="scale(1 1) rotate(0) translate(4 133)">
<title>HaliteSymmetricStreamCryptor</title>
<!-- Node1 -->
<g id="node1" class="node">
<title>Node1</title>
<g id="a_node1"><a xlink:title="Lik HaliteSymmetricCryptor, but use the stream&#45;versions which work on chunks of 1M and thus scale bet...">
<polygon fill="#999999" stroke="#666666" points="153,-19 0,-19 0,0 153,0 153,-19"/>
<text text-anchor="middle" x="76.5" y="-7" font-family="Helvetica,sans-Serif" font-size="10.00">HaliteSymmetricStreamCryptor</text>
</a>
</g>
</g>
<!-- Node2 -->
<g id="node2" class="node">
<title>Node2</title>
<g id="a_node2"><a xlink:href="interface_o_c_a_1_1_c_a_f_e_v_d_b_1_1_crypto_1_1_symmetric_cryptor_interface.html" target="_top" xlink:title="Just there in order to branch depending on container specialization.">
<polygon fill="white" stroke="#666666" points="143.5,-74 9.5,-74 9.5,-55 143.5,-55 143.5,-74"/>
<text text-anchor="middle" x="76.5" y="-62" font-family="Helvetica,sans-Serif" font-size="10.00">SymmetricCryptorInterface</text>
</a>
</g>
</g>
<!-- Node2&#45;&gt;Node1 -->
<g id="edge1" class="edge">
<title>Node2&#45;&gt;Node1</title>
<path fill="none" stroke="#63b8ff" d="M76.5,-43.93C76.5,-35.53 76.5,-26.13 76.5,-19.44"/>
<polygon fill="#63b8ff" stroke="#63b8ff" points="73,-43.75 76.5,-53.75 80,-43.75 73,-43.75"/>
</g>
<!-- Node3 -->
<g id="node3" class="node">
<title>Node3</title>
<g id="a_node3"><a xlink:href="interface_o_c_a_1_1_c_a_f_e_v_d_b_1_1_crypto_1_1_i_cryptor.html" target="_top" xlink:title="Simple wrapper interface.">
<polygon fill="white" stroke="#666666" points="102.5,-129 50.5,-129 50.5,-110 102.5,-110 102.5,-129"/>
<text text-anchor="middle" x="76.5" y="-117" font-family="Helvetica,sans-Serif" font-size="10.00">ICryptor</text>
</a>
</g>
</g>
<!-- Node3&#45;&gt;Node2 -->
<g id="edge2" class="edge">
<title>Node3&#45;&gt;Node2</title>
<path fill="none" stroke="#63b8ff" d="M76.5,-98.93C76.5,-90.53 76.5,-81.13 76.5,-74.44"/>
<polygon fill="#63b8ff" stroke="#63b8ff" points="73,-98.75 76.5,-108.75 80,-98.75 73,-98.75"/>
</g>
</g>
</svg>
