<?xml version="1.0" encoding="UTF-8" standalone="no"?>
<!DOCTYPE svg PUBLIC "-//W3C//DTD SVG 1.1//EN"
 "http://www.w3.org/Graphics/SVG/1.1/DTD/svg11.dtd">
<!-- Generated by graphviz version 9.0.0 (20230911.1827)
 -->
<!-- Title: configured Pages: 1 -->
<svg width="237pt" height="218pt"
 viewBox="0.00 0.00 236.50 218.00" xmlns="http://www.w3.org/2000/svg" xmlns:xlink="http://www.w3.org/1999/xlink">
<g id="graph0" class="graph" transform="scale(1 1) rotate(0) translate(4 214)">
<title>configured</title>
<!-- Node1 -->
<g id="Node000001" class="node">
<title>Node1</title>
<g id="a_Node000001"><a xlink:title="Return an array with necessary configuration items, being either true or false, depending the checks ...">
<polygon fill="#999999" stroke="#666666" points="61,-115 0,-115 0,-95 61,-95 61,-115"/>
<text text-anchor="middle" x="30.5" y="-101.5" font-family="Helvetica,sans-Serif" font-size="10.00">configured</text>
</a>
</g>
</g>
<!-- Node2 -->
<g id="Node000002" class="node">
<title>Node2</title>
<g id="a_Node000002"><a xlink:href="class_o_c_a_1_1_c_a_f_e_v_d_b_1_1_service_1_1_config_check_service.html#abe484932e47748f91bd875c24618c2c8" target="_top" xlink:title="Check whether we have data&#45;base access by connecting to the data&#45;base server and selecting the config...">
<polygon fill="white" stroke="#666666" points="214.62,-210 110.88,-210 110.88,-190 214.62,-190 214.62,-210"/>
<text text-anchor="middle" x="162.75" y="-196.5" font-family="Helvetica,sans-Serif" font-size="10.00">databaseAccessible</text>
</a>
</g>
</g>
<!-- Node1&#45;&gt;Node2 -->
<g id="edge1_Node000001_Node000002" class="edge">
<title>Node1&#45;&gt;Node2</title>
<g id="a_edge1_Node000001_Node000002"><a xlink:title=" ">
<path fill="none" stroke="#63b8ff" d="M37.57,-115.27C47.77,-131.63 69.91,-163.54 97,-181 99.24,-182.45 101.6,-183.78 104.03,-185.02"/>
<polygon fill="#63b8ff" stroke="#63b8ff" points="102.41,-188.14 112.98,-188.97 105.24,-181.73 102.41,-188.14"/>
</a>
</g>
</g>
<!-- Node3 -->
<g id="Node000003" class="node">
<title>Node3</title>
<g id="a_Node000003"><a xlink:href="class_o_c_a_1_1_c_a_f_e_v_d_b_1_1_service_1_1_config_check_service.html#a5ffead28fa0e9af899c4a790555f4162" target="_top" xlink:title=" ">
<polygon fill="white" stroke="#666666" points="220.25,-172 105.25,-172 105.25,-152 220.25,-152 220.25,-172"/>
<text text-anchor="middle" x="162.75" y="-158.5" font-family="Helvetica,sans-Serif" font-size="10.00">noUnappliedMigrations</text>
</a>
</g>
</g>
<!-- Node1&#45;&gt;Node3 -->
<g id="edge2_Node000001_Node000003" class="edge">
<title>Node1&#45;&gt;Node3</title>
<g id="a_edge2_Node000001_Node000003"><a xlink:title=" ">
<path fill="none" stroke="#63b8ff" d="M47.09,-115.48C60.02,-123.82 79.12,-135.32 97,-143 101.06,-144.74 105.33,-146.39 109.66,-147.92"/>
<polygon fill="#63b8ff" stroke="#63b8ff" points="108.44,-151.2 119.03,-151.03 110.64,-144.56 108.44,-151.2"/>
</a>
</g>
</g>
<!-- Node4 -->
<g id="Node000004" class="node">
<title>Node4</title>
<g id="a_Node000004"><a xlink:href="class_o_c_a_1_1_c_a_f_e_v_d_b_1_1_service_1_1_config_check_service.html#af14e4a90cbf23a06903be97acf0b8613" target="_top" xlink:title=" ">
<polygon fill="white" stroke="#666666" points="228.5,-134 97,-134 97,-114 228.5,-114 228.5,-134"/>
<text text-anchor="middle" x="162.75" y="-120.5" font-family="Helvetica,sans-Serif" font-size="10.00">sharedAddressBooksExist</text>
</a>
</g>
</g>
<!-- Node1&#45;&gt;Node4 -->
<g id="edge3_Node000001_Node000004" class="edge">
<title>Node1&#45;&gt;Node4</title>
<g id="a_edge3_Node000001_Node000004"><a xlink:title=" ">
<path fill="none" stroke="#63b8ff" d="M61.38,-109.36C68.75,-110.43 76.97,-111.63 85.45,-112.87"/>
<polygon fill="#63b8ff" stroke="#63b8ff" points="84.81,-116.31 95.21,-114.29 85.82,-109.39 84.81,-116.31"/>
</a>
</g>
</g>
<!-- Node5 -->
<g id="Node000005" class="node">
<title>Node5</title>
<g id="a_Node000005"><a xlink:href="class_o_c_a_1_1_c_a_f_e_v_d_b_1_1_service_1_1_config_check_service.html#a6f152b7d3b0f5ee7a4b2269d58251cb7" target="_top" xlink:title="We require that the share&#45;owner owns a directory shared with the orchestra group.">
<polygon fill="white" stroke="#666666" points="212.75,-96 112.75,-96 112.75,-76 212.75,-76 212.75,-96"/>
<text text-anchor="middle" x="162.75" y="-82.5" font-family="Helvetica,sans-Serif" font-size="10.00">sharedFolderExists</text>
</a>
</g>
</g>
<!-- Node1&#45;&gt;Node5 -->
<g id="edge4_Node000001_Node000005" class="edge">
<title>Node1&#45;&gt;Node5</title>
<g id="a_edge4_Node000001_Node000005"><a xlink:title=" ">
<path fill="none" stroke="#63b8ff" d="M61.38,-100.64C73.29,-98.9 87.46,-96.84 101.33,-94.81"/>
<polygon fill="#63b8ff" stroke="#63b8ff" points="101.46,-98.33 110.85,-93.42 100.45,-91.4 101.46,-98.33"/>
</a>
</g>
</g>
<!-- Node6 -->
<g id="Node000006" class="node">
<title>Node6</title>
<g id="a_Node000006"><a xlink:href="class_o_c_a_1_1_c_a_f_e_v_d_b_1_1_service_1_1_config_check_service.html#a68f667537c720241cca484d98c248029" target="_top" xlink:title="Return true if the share&#45;group is set as application configuration option and exists.">
<polygon fill="white" stroke="#666666" points="209.75,-58 115.75,-58 115.75,-38 209.75,-38 209.75,-58"/>
<text text-anchor="middle" x="162.75" y="-44.5" font-family="Helvetica,sans-Serif" font-size="10.00">shareGroupExists</text>
</a>
</g>
</g>
<!-- Node1&#45;&gt;Node6 -->
<g id="edge5_Node000001_Node000006" class="edge">
<title>Node1&#45;&gt;Node6</title>
<g id="a_edge5_Node000001_Node000006"><a xlink:title=" ">
<path fill="none" stroke="#63b8ff" d="M47.09,-94.52C60.02,-86.18 79.12,-74.68 97,-67 101.06,-65.26 105.33,-63.61 109.66,-62.08"/>
<polygon fill="#63b8ff" stroke="#63b8ff" points="110.64,-65.44 119.03,-58.97 108.44,-58.8 110.64,-65.44"/>
</a>
</g>
</g>
<!-- Node7 -->
<g id="Node000007" class="node">
<title>Node7</title>
<g id="a_Node000007"><a xlink:href="class_o_c_a_1_1_c_a_f_e_v_d_b_1_1_service_1_1_config_check_service.html#a68d96928eccd8ec709df328b328c05b3" target="_top" xlink:title="Return true if the share&#45;owner exists and belongs to the orchestra user group (and only to this group...">
<polygon fill="white" stroke="#666666" points="210.88,-20 114.62,-20 114.62,0 210.88,0 210.88,-20"/>
<text text-anchor="middle" x="162.75" y="-6.5" font-family="Helvetica,sans-Serif" font-size="10.00">shareOwnerExists</text>
</a>
</g>
</g>
<!-- Node1&#45;&gt;Node7 -->
<g id="edge6_Node000001_Node000007" class="edge">
<title>Node1&#45;&gt;Node7</title>
<g id="a_edge6_Node000001_Node000007"><a xlink:title=" ">
<path fill="none" stroke="#63b8ff" d="M37.57,-94.73C47.77,-78.37 69.91,-46.46 97,-29 99.24,-27.55 101.6,-26.22 104.03,-24.98"/>
<polygon fill="#63b8ff" stroke="#63b8ff" points="105.24,-28.27 112.98,-21.03 102.41,-21.86 105.24,-28.27"/>
</a>
</g>
</g>
</g>
</svg>
