<?xml version="1.0" encoding="UTF-8" standalone="no"?>
<!DOCTYPE svg PUBLIC "-//W3C//DTD SVG 1.1//EN"
 "http://www.w3.org/Graphics/SVG/1.1/DTD/svg11.dtd">
<!-- Generated by graphviz version 7.1.0 (20230121.1956)
 -->
<!-- Title: headerText Pages: 1 -->
<svg width="387pt" height="230pt"
 viewBox="0.00 0.00 387.00 230.00" xmlns="http://www.w3.org/2000/svg" xmlns:xlink="http://www.w3.org/1999/xlink">
<g id="graph0" class="graph" transform="scale(1 1) rotate(0) translate(4 226)">
<title>headerText</title>
<!-- Node1 -->
<g id="node1" class="node">
<title>Node1</title>
<g id="a_node1"><a xlink:title="{Header text informations.Display in popup in order not to bloat the small header space....">
<polygon fill="#999999" stroke="#666666" points="65,-120.5 0,-120.5 0,-101.5 65,-101.5 65,-120.5"/>
<text text-anchor="middle" x="32.5" y="-108.5" font-family="Helvetica,sans-Serif" font-size="10.00">headerText</text>
</a>
</g>
</g>
<!-- Node2 -->
<g id="node2" class="node">
<title>Node2</title>
<g id="a_node2"><a xlink:href="class_o_c_a_1_1_c_a_f_e_v_d_b_1_1_page_renderer_1_1_instrument_families.html#a9ed08d50f5d820b52e7108eea8a169e5" target="_top" xlink:title="{string Short title for heading. }">
<polygon fill="white" stroke="#666666" points="158,-120.5 101,-120.5 101,-101.5 158,-101.5 158,-120.5"/>
<text text-anchor="middle" x="129.5" y="-108.5" font-family="Helvetica,sans-Serif" font-size="10.00">shortTitle</text>
</a>
</g>
</g>
<!-- Node1&#45;&gt;Node2 -->
<g id="edge1" class="edge">
<title>Node1&#45;&gt;Node2</title>
<path fill="none" stroke="#63b8ff" d="M65.4,-111C73.08,-111 81.37,-111 89.33,-111"/>
<polygon fill="#63b8ff" stroke="#63b8ff" points="89.15,-114.5 99.15,-111 89.15,-107.5 89.15,-114.5"/>
</g>
<!-- Node3 -->
<g id="node3" class="node">
<title>Node3</title>
<g id="a_node3"><a xlink:href="class_o_c_a_1_1_c_a_f_e_v_d_b_1_1_page_renderer_1_1_p_m_e_table_view_base.html#aab9f60dec77a4ef2a6e6da285185427a" target="_top" xlink:title=" ">
<polygon fill="white" stroke="#666666" points="371.5,-222 201.5,-222 201.5,-192 371.5,-192 371.5,-222"/>
<text text-anchor="start" x="209.5" y="-210" font-family="Helvetica,sans-Serif" font-size="10.00">OCA\CAFEVDB\PageRenderer</text>
<text text-anchor="middle" x="286.5" y="-199" font-family="Helvetica,sans-Serif" font-size="10.00">\PMETableViewBase\addOperation</text>
</a>
</g>
</g>
<!-- Node2&#45;&gt;Node3 -->
<g id="edge2" class="edge">
<title>Node2&#45;&gt;Node3</title>
<path fill="none" stroke="#63b8ff" d="M136.23,-120.56C146.05,-136.1 167.61,-166.74 194,-183 196.16,-184.33 198.39,-185.59 200.68,-186.77"/>
<polygon fill="#63b8ff" stroke="#63b8ff" points="199.09,-189.9 209.63,-190.92 202.03,-183.54 199.09,-189.9"/>
</g>
<!-- Node4 -->
<g id="node4" class="node">
<title>Node4</title>
<g id="a_node4"><a xlink:href="class_o_c_a_1_1_c_a_f_e_v_d_b_1_1_page_renderer_1_1_p_m_e_table_view_base.html#a7b8022d67f12132e31e2230161afcf46" target="_top" xlink:title=" ">
<polygon fill="white" stroke="#666666" points="379,-174 194,-174 194,-144 379,-144 379,-174"/>
<text text-anchor="start" x="202" y="-162" font-family="Helvetica,sans-Serif" font-size="10.00">OCA\CAFEVDB\PageRenderer</text>
<text text-anchor="middle" x="286.5" y="-151" font-family="Helvetica,sans-Serif" font-size="10.00">\PMETableViewBase\changeOperation</text>
</a>
</g>
</g>
<!-- Node2&#45;&gt;Node4 -->
<g id="edge3" class="edge">
<title>Node2&#45;&gt;Node4</title>
<path fill="none" stroke="#63b8ff" d="M155.02,-120.95C166.72,-125.53 180.98,-130.84 194,-135 200.01,-136.92 206.28,-138.8 212.6,-140.62"/>
<polygon fill="#63b8ff" stroke="#63b8ff" points="211.2,-143.86 221.77,-143.2 213.09,-137.12 211.2,-143.86"/>
</g>
<!-- Node5 -->
<g id="node5" class="node">
<title>Node5</title>
<g id="a_node5"><a xlink:href="class_o_c_a_1_1_c_a_f_e_v_d_b_1_1_page_renderer_1_1_p_m_e_table_view_base.html#a9dc9d571bb59ca28ec0cc2bd28fe0159" target="_top" xlink:title=" ">
<polygon fill="white" stroke="#666666" points="374,-126 199,-126 199,-96 374,-96 374,-126"/>
<text text-anchor="start" x="207" y="-114" font-family="Helvetica,sans-Serif" font-size="10.00">OCA\CAFEVDB\PageRenderer</text>
<text text-anchor="middle" x="286.5" y="-103" font-family="Helvetica,sans-Serif" font-size="10.00">\PMETableViewBase\copyOperation</text>
</a>
</g>
</g>
<!-- Node2&#45;&gt;Node5 -->
<g id="edge4" class="edge">
<title>Node2&#45;&gt;Node5</title>
<path fill="none" stroke="#63b8ff" d="M158.21,-111C166.72,-111 176.61,-111 187.05,-111"/>
<polygon fill="#63b8ff" stroke="#63b8ff" points="187.04,-114.5 197.04,-111 187.04,-107.5 187.04,-114.5"/>
</g>
<!-- Node6 -->
<g id="node6" class="node">
<title>Node6</title>
<g id="a_node6"><a xlink:href="class_o_c_a_1_1_c_a_f_e_v_d_b_1_1_page_renderer_1_1_p_m_e_table_view_base.html#a9d19c525d1f80491f1c916ffdaab92f9" target="_top" xlink:title=" ">
<polygon fill="white" stroke="#666666" points="376.5,-78 196.5,-78 196.5,-48 376.5,-48 376.5,-78"/>
<text text-anchor="start" x="204.5" y="-66" font-family="Helvetica,sans-Serif" font-size="10.00">OCA\CAFEVDB\PageRenderer</text>
<text text-anchor="middle" x="286.5" y="-55" font-family="Helvetica,sans-Serif" font-size="10.00">\PMETableViewBase\deleteOperation</text>
</a>
</g>
</g>
<!-- Node2&#45;&gt;Node6 -->
<g id="edge5" class="edge">
<title>Node2&#45;&gt;Node6</title>
<path fill="none" stroke="#63b8ff" d="M155.02,-101.05C166.72,-96.47 180.98,-91.16 194,-87 200.01,-85.08 206.28,-83.2 212.6,-81.38"/>
<polygon fill="#63b8ff" stroke="#63b8ff" points="213.09,-84.88 221.77,-78.8 211.2,-78.14 213.09,-84.88"/>
</g>
<!-- Node7 -->
<g id="node7" class="node">
<title>Node7</title>
<g id="a_node7"><a xlink:href="class_o_c_a_1_1_c_a_f_e_v_d_b_1_1_page_renderer_1_1_p_m_e_table_view_base.html#a7f9c4bce2f800cbf5e81b80f1f751fff" target="_top" xlink:title=" ">
<polygon fill="white" stroke="#666666" points="373.5,-30 199.5,-30 199.5,0 373.5,0 373.5,-30"/>
<text text-anchor="start" x="207.5" y="-18" font-family="Helvetica,sans-Serif" font-size="10.00">OCA\CAFEVDB\PageRenderer</text>
<text text-anchor="middle" x="286.5" y="-7" font-family="Helvetica,sans-Serif" font-size="10.00">\PMETableViewBase\viewOperation</text>
</a>
</g>
</g>
<!-- Node2&#45;&gt;Node7 -->
<g id="edge6" class="edge">
<title>Node2&#45;&gt;Node7</title>
<path fill="none" stroke="#63b8ff" d="M136.23,-101.44C146.05,-85.9 167.61,-55.26 194,-39 196.16,-37.67 198.39,-36.41 200.68,-35.23"/>
<polygon fill="#63b8ff" stroke="#63b8ff" points="202.03,-38.46 209.63,-31.08 199.09,-32.1 202.03,-38.46"/>
</g>
</g>
</svg>
