<?xml version="1.0" encoding="UTF-8" standalone="no"?>
<!DOCTYPE svg PUBLIC "-//W3C//DTD SVG 1.1//EN"
 "http://www.w3.org/Graphics/SVG/1.1/DTD/svg11.dtd">
<!-- Generated by graphviz version 7.1.0 (20230121.1956)
 -->
<!-- Title: __construct Pages: 1 -->
<svg width="385pt" height="120pt"
 viewBox="0.00 0.00 385.00 120.00" xmlns="http://www.w3.org/2000/svg" xmlns:xlink="http://www.w3.org/1999/xlink">
<g id="graph0" class="graph" transform="scale(1 1) rotate(0) translate(4 116)">
<title>__construct</title>
<!-- Node1 -->
<g id="node1" class="node">
<title>Node1</title>
<g id="a_node1"><a xlink:title="{}">
<polygon fill="#999999" stroke="#666666" points="68,-75 0,-75 0,-56 68,-56 68,-75"/>
<text text-anchor="middle" x="34" y="-63" font-family="Helvetica,sans-Serif" font-size="10.00">__construct</text>
</a>
</g>
</g>
<!-- Node2 -->
<g id="node2" class="node">
<title>Node2</title>
<g id="a_node2"><a xlink:href="class_o_c_a_1_1_c_a_f_e_v_d_b_1_1_service_1_1_config_service.html#af3b3d2dae405ec96b29b4072ef4824a2" target="_top" xlink:title=" ">
<polygon fill="white" stroke="#666666" points="203,-112 104,-112 104,-93 203,-93 203,-112"/>
<text text-anchor="middle" x="153.5" y="-100" font-family="Helvetica,sans-Serif" font-size="10.00">dateTimeFormatter</text>
</a>
</g>
</g>
<!-- Node1&#45;&gt;Node2 -->
<g id="edge1" class="edge">
<title>Node1&#45;&gt;Node2</title>
<path fill="none" stroke="#63b8ff" d="M66.49,-75.42C79.92,-79.65 95.8,-84.65 110.23,-89.19"/>
<polygon fill="#63b8ff" stroke="#63b8ff" points="108.89,-92.44 119.48,-92.1 110.99,-85.76 108.89,-92.44"/>
</g>
<!-- Node3 -->
<g id="node3" class="node">
<title>Node3</title>
<g id="a_node3"><a xlink:href="class_o_c_a_1_1_c_a_f_e_v_d_b_1_1_service_1_1_config_service.html#a753a0c5fa9ab0a7aad9e5626571a35f0" target="_top" xlink:title=" ">
<polygon fill="white" stroke="#666666" points="201,-75 106,-75 106,-56 201,-56 201,-75"/>
<text text-anchor="middle" x="153.5" y="-63" font-family="Helvetica,sans-Serif" font-size="10.00">encryptionService</text>
</a>
</g>
</g>
<!-- Node1&#45;&gt;Node3 -->
<g id="edge2" class="edge">
<title>Node1&#45;&gt;Node3</title>
<path fill="none" stroke="#63b8ff" d="M68.36,-65.5C76.56,-65.5 85.59,-65.5 94.58,-65.5"/>
<polygon fill="#63b8ff" stroke="#63b8ff" points="94.39,-69 104.39,-65.5 94.39,-62 94.39,-69"/>
</g>
<!-- Node4 -->
<g id="node4" class="node">
<title>Node4</title>
<g id="a_node4"><a xlink:href="class_o_c_a_1_1_c_a_f_e_v_d_b_1_1_service_1_1_config_service.html#a6cacbeb3555df4a292566b2e1b9bb574" target="_top" xlink:title="Install a new user id.">
<polygon fill="white" stroke="#666666" points="183,-38 124,-38 124,-19 183,-19 183,-38"/>
<text text-anchor="middle" x="153.5" y="-26" font-family="Helvetica,sans-Serif" font-size="10.00">setUserId</text>
</a>
</g>
</g>
<!-- Node1&#45;&gt;Node4 -->
<g id="edge3" class="edge">
<title>Node1&#45;&gt;Node4</title>
<path fill="none" stroke="#63b8ff" d="M66.49,-55.58C80.82,-51.07 97.93,-45.68 113.11,-40.9"/>
<polygon fill="#63b8ff" stroke="#63b8ff" points="113.81,-44.35 122.3,-38.01 111.71,-37.67 113.81,-44.35"/>
</g>
<!-- Node5 -->
<g id="node5" class="node">
<title>Node5</title>
<g id="a_node5"><a xlink:href="class_o_c_a_1_1_c_a_f_e_v_d_b_1_1_service_1_1_config_service.html#a8be64a59621bfe298a4109ce08229ecd" target="_top" xlink:title=" ">
<polygon fill="white" stroke="#666666" points="377,-38 326,-38 326,-19 377,-19 377,-38"/>
<text text-anchor="middle" x="351.5" y="-26" font-family="Helvetica,sans-Serif" font-size="10.00">getUser</text>
</a>
</g>
</g>
<!-- Node4&#45;&gt;Node5 -->
<g id="edge4" class="edge">
<title>Node4&#45;&gt;Node5</title>
<path fill="none" stroke="#63b8ff" d="M183.42,-28.5C218.11,-28.5 276.29,-28.5 314.03,-28.5"/>
<polygon fill="#63b8ff" stroke="#63b8ff" points="313.99,-32 323.99,-28.5 313.99,-25 313.99,-32"/>
</g>
<!-- Node6 -->
<g id="node6" class="node">
<title>Node6</title>
<g id="a_node6"><a xlink:href="class_o_c_a_1_1_c_a_f_e_v_d_b_1_1_service_1_1_config_service.html#a7b6e5c12813dec3c45ec9531820c539a" target="_top" xlink:title="Install a new user.">
<polygon fill="white" stroke="#666666" points="290,-19 239,-19 239,0 290,0 290,-19"/>
<text text-anchor="middle" x="264.5" y="-7" font-family="Helvetica,sans-Serif" font-size="10.00">setUser</text>
</a>
</g>
</g>
<!-- Node4&#45;&gt;Node6 -->
<g id="edge5" class="edge">
<title>Node4&#45;&gt;Node6</title>
<path fill="none" stroke="#63b8ff" d="M183.42,-23.46C196.96,-21.1 213.22,-18.26 227.54,-15.77"/>
<polygon fill="#63b8ff" stroke="#63b8ff" points="227.78,-19.28 237.03,-14.11 226.58,-12.38 227.78,-19.28"/>
</g>
<!-- Node6&#45;&gt;Node5 -->
<g id="edge6" class="edge">
<title>Node6&#45;&gt;Node5</title>
<path fill="none" stroke="#63b8ff" d="M290.09,-15C297.77,-16.71 306.41,-18.65 314.71,-20.5"/>
<polygon fill="#63b8ff" stroke="#63b8ff" points="313.68,-23.85 324.2,-22.62 315.2,-17.02 313.68,-23.85"/>
</g>
</g>
</svg>
