<?xml version="1.0" encoding="UTF-8" standalone="no"?>
<!DOCTYPE svg PUBLIC "-//W3C//DTD SVG 1.1//EN"
 "http://www.w3.org/Graphics/SVG/1.1/DTD/svg11.dtd">
<!-- Generated by graphviz version 9.0.0 (20230911.1827)
 -->
<!-- Title: RecryptionFailedException Pages: 1 -->
<svg width="141pt" height="196pt"
 viewBox="0.00 0.00 141.00 196.00" xmlns="http://www.w3.org/2000/svg" xmlns:xlink="http://www.w3.org/1999/xlink">

<svg id="main" version="1.1" xmlns="http://www.w3.org/2000/svg" xmlns:xlink="http://www.w3.org/1999/xlink" xml:space="preserve" onload="init(evt)">
<style type="text/css"><![CDATA[
.node, .edge {opacity: 0.7;}
.node.selected, .edge.selected {opacity: 1;}
.edge:hover path { stroke: red; }
.edge:hover polygon { stroke: red; fill: red; }
]]></style>
<script type="application/ecmascript" xlink:href="svg.min.js"/>
<svg id="graph" class="graph">
<g id="graph0" class="graph" transform="scale(1 1) rotate(0) translate(4 192)">
<title>RecryptionFailedException</title>
<!-- Node1 -->
<g id="Node000001" class="node">
<title>Node1</title>
<g id="a_Node000001"><a xlink:title=" ">
<polygon fill="#999999" stroke="#666666" points="133,-20 0,-20 0,0 133,0 133,-20"/>
<text text-anchor="middle" x="66.5" y="-6.5" font-family="Helvetica,sans-Serif" font-size="10.00">RecryptionFailedException</text>
</a>
</g>
</g>
<!-- Node2 -->
<g id="Node000002" class="node">
<title>Node2</title>
<g id="a_Node000002"><a xlink:href="class_o_c_a_1_1_c_a_f_e_v_d_b_1_1_exceptions_1_1_encryption_exception.html" target="_top" xlink:title="Base class for other exceptions.">
<polygon fill="white" stroke="#666666" points="119.5,-76 13.5,-76 13.5,-56 119.5,-56 119.5,-76"/>
<text text-anchor="middle" x="66.5" y="-62.5" font-family="Helvetica,sans-Serif" font-size="10.00">EncryptionException</text>
</a>
</g>
</g>
<!-- Node2&#45;&gt;Node1 -->
<g id="edge1_Node000001_Node000002" class="edge">
<title>Node2&#45;&gt;Node1</title>
<g id="a_edge1_Node000001_Node000002"><a xlink:title=" ">
<path fill="none" stroke="#63b8ff" d="M66.5,-44.13C66.5,-35.9 66.5,-26.85 66.5,-20.3"/>
<polygon fill="#63b8ff" stroke="#63b8ff" points="63,-44.08 66.5,-54.08 70,-44.08 63,-44.08"/>
</a>
</g>
</g>
<!-- Node3 -->
<g id="Node000003" class="node">
<title>Node3</title>
<g id="a_Node000003"><a xlink:href="class_o_c_a_1_1_c_a_f_e_v_d_b_1_1_exceptions_1_1_exception.html" target="_top" xlink:title="General abstraction base&#45;class.">
<polygon fill="white" stroke="#666666" points="96.25,-132 36.75,-132 36.75,-112 96.25,-112 96.25,-132"/>
<text text-anchor="middle" x="66.5" y="-118.5" font-family="Helvetica,sans-Serif" font-size="10.00">Exception</text>
</a>
</g>
</g>
<!-- Node3&#45;&gt;Node2 -->
<g id="edge2_Node000002_Node000003" class="edge">
<title>Node3&#45;&gt;Node2</title>
<g id="a_edge2_Node000002_Node000003"><a xlink:title=" ">
<path fill="none" stroke="#63b8ff" d="M66.5,-100.13C66.5,-91.9 66.5,-82.85 66.5,-76.3"/>
<polygon fill="#63b8ff" stroke="#63b8ff" points="63,-100.08 66.5,-110.08 70,-100.08 63,-100.08"/>
</a>
</g>
</g>
<!-- Node4 -->
<g id="Node000004" class="node">
<title>Node4</title>
<g id="a_Node000004"><a xlink:title=" ">
<polygon fill="white" stroke="#bfbfbf" points="106.75,-188 26.25,-188 26.25,-168 106.75,-168 106.75,-188"/>
<text text-anchor="middle" x="66.5" y="-174.5" font-family="Helvetica,sans-Serif" font-size="10.00">CoreException</text>
</a>
</g>
</g>
<!-- Node4&#45;&gt;Node3 -->
<g id="edge3_Node000003_Node000004" class="edge">
<title>Node4&#45;&gt;Node3</title>
<g id="a_edge3_Node000003_Node000004"><a xlink:title=" ">
<path fill="none" stroke="#63b8ff" d="M66.5,-156.13C66.5,-147.9 66.5,-138.85 66.5,-132.3"/>
<polygon fill="#63b8ff" stroke="#63b8ff" points="63,-156.08 66.5,-166.08 70,-156.08 63,-156.08"/>
</a>
</g>
</g>
</g>
</svg>
</svg>

<style type='text/css'>
<![CDATA[
[data-mouse-over-selected='false'] { opacity: 0.7; }
[data-mouse-over-selected='true']  { opacity: 1.0; }
]]>
</style>
<script type="application/ecmascript"><![CDATA[
document.addEventListener('DOMContentLoaded', (event) => {
  highlightEdges();
  highlightAdjacentNodes();
});
]]></script>
</svg>
