<?xml version="1.0" encoding="UTF-8" standalone="no"?>
<!DOCTYPE svg PUBLIC "-//W3C//DTD SVG 1.1//EN"
 "http://www.w3.org/Graphics/SVG/1.1/DTD/svg11.dtd">
<!-- Generated by graphviz version 8.0.3 (20230416.2022)
 -->
<!-- Title: restoreKeyPair Pages: 1 -->
<svg width="200pt" height="64pt"
 viewBox="0.00 0.00 200.00 64.00" xmlns="http://www.w3.org/2000/svg" xmlns:xlink="http://www.w3.org/1999/xlink">
<g id="graph0" class="graph" transform="scale(1 1) rotate(0) translate(4 60)">
<title>restoreKeyPair</title>
<!-- Node1 -->
<g id="node1" class="node">
<title>Node1</title>
<g id="a_node1"><a xlink:title="{Restores a backup previously generated by backupKeyPair().Overwrites the currently active key&#45;pair w...">
<polygon fill="#999999" stroke="#666666" points="81,-37 0,-37 0,-18 81,-18 81,-37"/>
<text text-anchor="middle" x="40.5" y="-25" font-family="Helvetica,sans-Serif" font-size="10.00">restoreKeyPair</text>
</a>
</g>
</g>
<!-- Node2 -->
<g id="node2" class="node">
<title>Node2</title>
<g id="a_node2"><a xlink:href="class_o_c_a_1_1_c_a_f_e_v_d_b_1_1_crypto_1_1_cloud_asymmetric_key_storage.html#a22f229329d340dcd3fb629e91c9b95b9" target="_top" xlink:title=" ">
<polygon fill="white" stroke="#666666" points="192,-56 117,-56 117,-37 192,-37 192,-56"/>
<text text-anchor="middle" x="154.5" y="-44" font-family="Helvetica,sans-Serif" font-size="10.00">getUserValue</text>
</a>
</g>
</g>
<!-- Node1&#45;&gt;Node2 -->
<g id="edge1" class="edge">
<title>Node1&#45;&gt;Node2</title>
<path fill="none" stroke="#63b8ff" d="M81.3,-34.25C89.35,-35.62 97.88,-37.06 106.15,-38.47"/>
<polygon fill="#63b8ff" stroke="#63b8ff" points="105.37,-42.06 115.82,-40.28 106.54,-35.15 105.37,-42.06"/>
</g>
<!-- Node3 -->
<g id="node3" class="node">
<title>Node3</title>
<g id="a_node3"><a xlink:href="class_o_c_a_1_1_c_a_f_e_v_d_b_1_1_crypto_1_1_cloud_asymmetric_key_storage.html#aafad48628125d0a5bcbbe6e1fddbe1ea" target="_top" xlink:title=" ">
<polygon fill="white" stroke="#666666" points="192,-19 117,-19 117,0 192,0 192,-19"/>
<text text-anchor="middle" x="154.5" y="-7" font-family="Helvetica,sans-Serif" font-size="10.00">setUserValue</text>
</a>
</g>
</g>
<!-- Node1&#45;&gt;Node3 -->
<g id="edge2" class="edge">
<title>Node1&#45;&gt;Node3</title>
<path fill="none" stroke="#63b8ff" d="M81.3,-21.1C89.35,-19.81 97.88,-18.44 106.15,-17.11"/>
<polygon fill="#63b8ff" stroke="#63b8ff" points="106.5,-20.44 115.82,-15.4 105.39,-13.53 106.5,-20.44"/>
</g>
</g>
</svg>
