<?xml version="1.0" encoding="UTF-8" standalone="no"?>
<!DOCTYPE svg PUBLIC "-//W3C//DTD SVG 1.1//EN"
 "http://www.w3.org/Graphics/SVG/1.1/DTD/svg11.dtd">
<!-- Generated by graphviz version 8.0.3 (20230416.2022)
 -->
<!-- Title: ProjectBalanceSupportingDocumentsStorage Pages: 1 -->
<svg width="137pt" height="148pt"
 viewBox="0.00 0.00 137.00 148.00" xmlns="http://www.w3.org/2000/svg" xmlns:xlink="http://www.w3.org/1999/xlink">
<g id="graph0" class="graph" transform="scale(1 1) rotate(0) translate(4 144)">
<title>ProjectBalanceSupportingDocumentsStorage</title>
<!-- Node1 -->
<g id="node1" class="node">
<title>Node1</title>
<g id="a_node1"><a xlink:title="Storage implementation for data&#45;base storage, including access to encrypted entities.">
<polygon fill="#999999" stroke="#666666" points="129,-30 0,-30 0,0 129,0 129,-30"/>
<text text-anchor="start" x="8" y="-18" font-family="Helvetica,sans-Serif" font-size="10.00">ProjectBalanceSupporting</text>
<text text-anchor="middle" x="64.5" y="-7" font-family="Helvetica,sans-Serif" font-size="10.00">DocumentsStorage</text>
</a>
</g>
</g>
<!-- Node2 -->
<g id="node2" class="node">
<title>Node2</title>
<g id="a_node2"><a xlink:href="class_o_c_a_1_1_c_a_f_e_v_d_b_1_1_storage_1_1_database_1_1_storage.html" target="_top" xlink:title="Storage implementation for data&#45;base storage, including access to encrypted entities.">
<polygon fill="white" stroke="#666666" points="89.5,-85 39.5,-85 39.5,-66 89.5,-66 89.5,-85"/>
<text text-anchor="middle" x="64.5" y="-73" font-family="Helvetica,sans-Serif" font-size="10.00">Storage</text>
</a>
</g>
</g>
<!-- Node2&#45;&gt;Node1 -->
<g id="edge1" class="edge">
<title>Node2&#45;&gt;Node1</title>
<path fill="none" stroke="#63b8ff" d="M64.5,-55.08C64.5,-46.92 64.5,-37.6 64.5,-30.11"/>
<polygon fill="#63b8ff" stroke="#63b8ff" points="61,-54.87 64.5,-64.87 68,-54.87 61,-54.87"/>
</g>
<!-- Node3 -->
<g id="node3" class="node">
<title>Node3</title>
<g id="a_node3"><a xlink:title=" ">
<polygon fill="white" stroke="#bfbfbf" points="108,-140 21,-140 21,-121 108,-121 108,-140"/>
<text text-anchor="middle" x="64.5" y="-128" font-family="Helvetica,sans-Serif" font-size="10.00">AbstractStorage</text>
</a>
</g>
</g>
<!-- Node3&#45;&gt;Node2 -->
<g id="edge2" class="edge">
<title>Node3&#45;&gt;Node2</title>
<path fill="none" stroke="#63b8ff" d="M64.5,-109.93C64.5,-101.53 64.5,-92.13 64.5,-85.44"/>
<polygon fill="#63b8ff" stroke="#63b8ff" points="61,-109.75 64.5,-119.75 68,-109.75 61,-109.75"/>
</g>
</g>
</svg>
