<?xml version="1.0" encoding="UTF-8" standalone="no"?>
<!DOCTYPE svg PUBLIC "-//W3C//DTD SVG 1.1//EN"
 "http://www.w3.org/Graphics/SVG/1.1/DTD/svg11.dtd">
<!-- Generated by graphviz version 8.0.3 (20230416.2022)
 -->
<!-- Title: getQuotedName Pages: 1 -->
<svg width="459pt" height="212pt"
 viewBox="0.00 0.00 459.00 212.00" xmlns="http://www.w3.org/2000/svg" xmlns:xlink="http://www.w3.org/1999/xlink">
<g id="graph0" class="graph" transform="scale(1 1) rotate(0) translate(4 208)">
<title>getQuotedName</title>
<!-- Node1 -->
<g id="node1" class="node">
<title>Node1</title>
<g id="a_node1"><a xlink:title=" ">
<polygon fill="#999999" stroke="#666666" points="451,-111 363,-111 363,-92 451,-92 451,-111"/>
<text text-anchor="middle" x="407" y="-99" font-family="Helvetica,sans-Serif" font-size="10.00">getQuotedName</text>
</a>
</g>
</g>
<!-- Node2 -->
<g id="node2" class="node">
<title>Node2</title>
<g id="a_node2"><a xlink:href="class_o_c_a_1_1_c_a_f_e_v_d_b_1_1_database_1_1_doctrine_1_1_o_r_m_1_1_mapping_1_1_reserved_word_quote_strategy.html#ad957e0cdeb2c619713428b68dc977154" target="_top" xlink:title="{}">
<polygon fill="white" stroke="#666666" points="293,-204 203,-204 203,-185 293,-185 293,-204"/>
<text text-anchor="middle" x="248" y="-192" font-family="Helvetica,sans-Serif" font-size="10.00">getColumnName</text>
</a>
</g>
</g>
<!-- Node1&#45;&gt;Node2 -->
<g id="edge1" class="edge">
<title>Node1&#45;&gt;Node2</title>
<path fill="none" stroke="#63b8ff" d="M392.04,-119.43C377.62,-136.7 353.53,-162.24 327,-176.5 316.72,-182.03 304.78,-185.86 293.39,-188.53"/>
<polygon fill="#63b8ff" stroke="#63b8ff" points="395.09,-122.23 398.67,-112.26 389.65,-117.83 395.09,-122.23"/>
</g>
<!-- Node4 -->
<g id="node4" class="node">
<title>Node4</title>
<g id="a_node4"><a xlink:href="class_o_c_a_1_1_c_a_f_e_v_d_b_1_1_database_1_1_doctrine_1_1_o_r_m_1_1_mapping_1_1_reserved_word_quote_strategy.html#ad9d8f4be3703d051523559249a9a170f" target="_top" xlink:title="{}">
<polygon fill="white" stroke="#666666" points="302,-167 194,-167 194,-148 302,-148 302,-167"/>
<text text-anchor="middle" x="248" y="-155" font-family="Helvetica,sans-Serif" font-size="10.00">getJoinColumnName</text>
</a>
</g>
</g>
<!-- Node1&#45;&gt;Node4 -->
<g id="edge3" class="edge">
<title>Node1&#45;&gt;Node4</title>
<path fill="none" stroke="#63b8ff" d="M378.67,-116.5C363.74,-124.21 344.74,-133.27 327,-139.5 318.21,-142.58 308.68,-145.29 299.4,-147.6"/>
<polygon fill="#63b8ff" stroke="#63b8ff" points="380.08,-119.19 387.29,-111.43 376.81,-113 380.08,-119.19"/>
</g>
<!-- Node5 -->
<g id="node5" class="node">
<title>Node5</title>
<g id="a_node5"><a xlink:href="class_o_c_a_1_1_c_a_f_e_v_d_b_1_1_database_1_1_doctrine_1_1_o_r_m_1_1_mapping_1_1_reserved_word_quote_strategy.html#aad5137b3576f7823dc4cb9e43754b7d9" target="_top" xlink:title="{}">
<polygon fill="white" stroke="#666666" points="297,-130 199,-130 199,-111 297,-111 297,-130"/>
<text text-anchor="middle" x="248" y="-118" font-family="Helvetica,sans-Serif" font-size="10.00">getJoinTableName</text>
</a>
</g>
</g>
<!-- Node1&#45;&gt;Node5 -->
<g id="edge4" class="edge">
<title>Node1&#45;&gt;Node5</title>
<path fill="none" stroke="#63b8ff" d="M351.94,-108.04C334.23,-110.19 314.69,-112.55 297.43,-114.64"/>
<polygon fill="#63b8ff" stroke="#63b8ff" points="352.18,-111.42 361.68,-106.74 351.34,-104.47 352.18,-111.42"/>
</g>
<!-- Node6 -->
<g id="node6" class="node">
<title>Node6</title>
<g id="a_node6"><a xlink:href="class_o_c_a_1_1_c_a_f_e_v_d_b_1_1_database_1_1_doctrine_1_1_o_r_m_1_1_mapping_1_1_reserved_word_quote_strategy.html#a09e4c8d23bbafd9b520505c97c8de04d" target="_top" xlink:title="{}">
<polygon fill="white" stroke="#666666" points="327,-93 169,-93 169,-74 327,-74 327,-93"/>
<text text-anchor="middle" x="248" y="-81" font-family="Helvetica,sans-Serif" font-size="10.00">getReferencedJoinColumnName</text>
</a>
</g>
</g>
<!-- Node1&#45;&gt;Node6 -->
<g id="edge5" class="edge">
<title>Node1&#45;&gt;Node6</title>
<path fill="none" stroke="#63b8ff" d="M351.81,-95.29C343.92,-94.38 335.67,-93.44 327.42,-92.49"/>
<polygon fill="#63b8ff" stroke="#63b8ff" points="351.35,-98.87 361.68,-96.53 352.15,-91.92 351.35,-98.87"/>
</g>
<!-- Node7 -->
<g id="node7" class="node">
<title>Node7</title>
<g id="a_node7"><a xlink:href="class_o_c_a_1_1_c_a_f_e_v_d_b_1_1_database_1_1_doctrine_1_1_o_r_m_1_1_mapping_1_1_reserved_word_quote_strategy.html#a8ce3a9ad43a7da369e9e1192ae890fa8" target="_top" xlink:title="{}">
<polygon fill="white" stroke="#666666" points="298,-56 198,-56 198,-37 298,-37 298,-56"/>
<text text-anchor="middle" x="248" y="-44" font-family="Helvetica,sans-Serif" font-size="10.00">getSequenceName</text>
</a>
</g>
</g>
<!-- Node1&#45;&gt;Node7 -->
<g id="edge6" class="edge">
<title>Node1&#45;&gt;Node7</title>
<path fill="none" stroke="#63b8ff" d="M377.36,-86.87C362.59,-79.73 344.13,-71.43 327,-65.5 317.12,-62.08 306.34,-59.03 296.02,-56.44"/>
<polygon fill="#63b8ff" stroke="#63b8ff" points="375.42,-90.3 385.94,-91.58 378.51,-84.02 375.42,-90.3"/>
</g>
<!-- Node8 -->
<g id="node8" class="node">
<title>Node8</title>
<g id="a_node8"><a xlink:href="class_o_c_a_1_1_c_a_f_e_v_d_b_1_1_database_1_1_doctrine_1_1_o_r_m_1_1_mapping_1_1_reserved_word_quote_strategy.html#a9a41f117978bad1e9662feb3002f13ec" target="_top" xlink:title="{}">
<polygon fill="white" stroke="#666666" points="288,-19 208,-19 208,0 288,0 288,-19"/>
<text text-anchor="middle" x="248" y="-7" font-family="Helvetica,sans-Serif" font-size="10.00">getTableName</text>
</a>
</g>
</g>
<!-- Node1&#45;&gt;Node8 -->
<g id="edge7" class="edge">
<title>Node1&#45;&gt;Node8</title>
<path fill="none" stroke="#63b8ff" d="M391.44,-83.58C376.86,-66.84 352.92,-42.41 327,-28.5 315.09,-22.11 301,-17.83 288.1,-14.99"/>
<polygon fill="#63b8ff" stroke="#63b8ff" points="389.03,-85.16 398.17,-90.54 394.38,-80.64 389.03,-85.16"/>
</g>
<!-- Node3 -->
<g id="node3" class="node">
<title>Node3</title>
<g id="a_node3"><a xlink:href="class_o_c_a_1_1_c_a_f_e_v_d_b_1_1_database_1_1_doctrine_1_1_o_r_m_1_1_mapping_1_1_reserved_word_quote_strategy.html#a4d2a910060620c757a95685a2fe81d16" target="_top" xlink:title="{}">
<polygon fill="white" stroke="#666666" points="133,-204 0,-204 0,-185 133,-185 133,-204"/>
<text text-anchor="middle" x="66.5" y="-192" font-family="Helvetica,sans-Serif" font-size="10.00">getIdentifierColumnNames</text>
</a>
</g>
</g>
<!-- Node2&#45;&gt;Node3 -->
<g id="edge2" class="edge">
<title>Node2&#45;&gt;Node3</title>
<path fill="none" stroke="#63b8ff" d="M191.77,-194.5C173.32,-194.5 152.58,-194.5 133.41,-194.5"/>
<polygon fill="#63b8ff" stroke="#63b8ff" points="191.63,-198 201.63,-194.5 191.63,-191 191.63,-198"/>
</g>
</g>
</svg>
