<?xml version="1.0" encoding="UTF-8" standalone="no"?>
<!DOCTYPE svg PUBLIC "-//W3C//DTD SVG 1.1//EN"
 "http://www.w3.org/Graphics/SVG/1.1/DTD/svg11.dtd">
<!-- Generated by graphviz version 9.0.0 (20230911.1827)
 -->
<!-- Title: DefaultOptions Pages: 1 -->
<svg width="156pt" height="196pt"
 viewBox="0.00 0.00 156.00 196.00" xmlns="http://www.w3.org/2000/svg" xmlns:xlink="http://www.w3.org/1999/xlink">
<g id="graph0" class="graph" transform="scale(1 1) rotate(0) translate(4 192)">
<title>DefaultOptions</title>
<!-- Node1 -->
<g id="Node000001" class="node">
<title>Node1</title>
<g id="a_Node000001"><a xlink:title="Default legacy PME options object.">
<polygon fill="#999999" stroke="#666666" points="113.5,-76 32.25,-76 32.25,-56 113.5,-56 113.5,-76"/>
<text text-anchor="middle" x="72.88" y="-62.5" font-family="Helvetica,sans-Serif" font-size="10.00">DefaultOptions</text>
</a>
</g>
</g>
<!-- Node5 -->
<g id="Node000005" class="node">
<title>Node5</title>
<g id="a_Node000005"><a xlink:href="class_o_c_a_1_1_c_a_f_e_v_d_b_1_1_page_renderer_1_1_p_m_e_1_1_config.html" target="_top" xlink:title="Default Legacy PME options.">
<polygon fill="white" stroke="#666666" points="95.12,-20 50.62,-20 50.62,0 95.12,0 95.12,-20"/>
<text text-anchor="middle" x="72.88" y="-6.5" font-family="Helvetica,sans-Serif" font-size="10.00">Config</text>
</a>
</g>
</g>
<!-- Node1&#45;&gt;Node5 -->
<g id="edge4_Node000001_Node000005" class="edge">
<title>Node1&#45;&gt;Node5</title>
<g id="a_edge4_Node000001_Node000005"><a xlink:title=" ">
<path fill="none" stroke="#63b8ff" d="M72.88,-44.13C72.88,-35.9 72.88,-26.85 72.88,-20.3"/>
<polygon fill="#63b8ff" stroke="#63b8ff" points="69.38,-44.08 72.88,-54.08 76.38,-44.08 69.38,-44.08"/>
</a>
</g>
</g>
<!-- Node2 -->
<g id="Node000002" class="node">
<title>Node2</title>
<g id="a_Node000002"><a xlink:title=" ">
<polygon fill="white" stroke="#bfbfbf" points="67.75,-132 0,-132 0,-112 67.75,-112 67.75,-132"/>
<text text-anchor="middle" x="33.88" y="-118.5" font-family="Helvetica,sans-Serif" font-size="10.00">ArrayObject</text>
</a>
</g>
</g>
<!-- Node2&#45;&gt;Node1 -->
<g id="edge1_Node000001_Node000002" class="edge">
<title>Node2&#45;&gt;Node1</title>
<g id="a_edge1_Node000001_Node000002"><a xlink:title=" ">
<path fill="none" stroke="#63b8ff" d="M47.28,-102.44C53.65,-93.62 60.98,-83.47 66.16,-76.3"/>
<polygon fill="#63b8ff" stroke="#63b8ff" points="44.57,-100.21 41.55,-110.37 50.25,-104.31 44.57,-100.21"/>
</a>
</g>
</g>
<!-- Node3 -->
<g id="Node000003" class="node">
<title>Node3</title>
<g id="a_Node000003"><a xlink:href="interface_o_c_a_1_1_c_a_f_e_v_d_b_1_1_database_1_1_legacy_1_1_p_m_e_1_1_i_options.html" target="_top" xlink:title="PME legacy options interface.">
<polygon fill="white" stroke="#666666" points="138.25,-132 85.5,-132 85.5,-112 138.25,-112 138.25,-132"/>
<text text-anchor="middle" x="111.88" y="-118.5" font-family="Helvetica,sans-Serif" font-size="10.00">IOptions</text>
</a>
</g>
</g>
<!-- Node3&#45;&gt;Node1 -->
<g id="edge2_Node000001_Node000003" class="edge">
<title>Node3&#45;&gt;Node1</title>
<g id="a_edge2_Node000001_Node000003"><a xlink:title=" ">
<path fill="none" stroke="#63b8ff" d="M98.47,-102.44C92.1,-93.62 84.77,-83.47 79.59,-76.3"/>
<polygon fill="#63b8ff" stroke="#63b8ff" points="95.5,-104.31 104.2,-110.37 101.18,-100.21 95.5,-104.31"/>
</a>
</g>
</g>
<!-- Node4 -->
<g id="Node000004" class="node">
<title>Node4</title>
<g id="a_Node000004"><a xlink:title=" ">
<polygon fill="white" stroke="#bfbfbf" points="148,-188 75.75,-188 75.75,-168 148,-168 148,-188"/>
<text text-anchor="middle" x="111.88" y="-174.5" font-family="Helvetica,sans-Serif" font-size="10.00">ArrayAccess</text>
</a>
</g>
</g>
<!-- Node4&#45;&gt;Node3 -->
<g id="edge3_Node000003_Node000004" class="edge">
<title>Node4&#45;&gt;Node3</title>
<g id="a_edge3_Node000003_Node000004"><a xlink:title=" ">
<path fill="none" stroke="#63b8ff" d="M111.88,-156.13C111.88,-147.9 111.88,-138.85 111.88,-132.3"/>
<polygon fill="#63b8ff" stroke="#63b8ff" points="108.38,-156.08 111.88,-166.08 115.38,-156.08 108.38,-156.08"/>
</a>
</g>
</g>
</g>
</svg>
