<?xml version="1.0" encoding="UTF-8" standalone="no"?>
<!DOCTYPE svg PUBLIC "-//W3C//DTD SVG 1.1//EN"
 "http://www.w3.org/Graphics/SVG/1.1/DTD/svg11.dtd">
<!-- Generated by graphviz version 7.1.0 (20230121.1956)
 -->
<!-- Title: ScanFiles Pages: 1 -->
<svg width="170pt" height="93pt"
 viewBox="0.00 0.00 169.50 93.00" xmlns="http://www.w3.org/2000/svg" xmlns:xlink="http://www.w3.org/1999/xlink">
<g id="graph0" class="graph" transform="scale(1 1) rotate(0) translate(4 89)">
<title>ScanFiles</title>
<!-- Node1 -->
<g id="node1" class="node">
<title>Node1</title>
<g id="a_node1"><a xlink:title="Class ScanFiles is a background job used to run the file scanner over the user accounts to ensure int...">
<polygon fill="#999999" stroke="#666666" points="104.5,-19 44.5,-19 44.5,0 104.5,0 104.5,-19"/>
<text text-anchor="middle" x="74.5" y="-7" font-family="Helvetica,sans-Serif" font-size="10.00">ScanFiles</text>
</a>
</g>
</g>
<!-- Node2 -->
<g id="node2" class="node">
<title>Node2</title>
<g id="a_node2"><a xlink:title=" ">
<polygon fill="white" stroke="#bfbfbf" points="59,-85 0,-85 0,-66 59,-66 59,-85"/>
<text text-anchor="middle" x="29.5" y="-73" font-family="Helvetica,sans-Serif" font-size="10.00">TimedJob</text>
</a>
</g>
</g>
<!-- Node2&#45;&gt;Node1 -->
<g id="edge1" class="edge">
<title>Node2&#45;&gt;Node1</title>
<path fill="none" stroke="#63b8ff" d="M42.23,-56.4C50.75,-44.27 61.6,-28.84 68.3,-19.32"/>
<polygon fill="#63b8ff" stroke="#63b8ff" points="39.52,-54.17 36.63,-64.36 45.24,-58.2 39.52,-54.17"/>
</g>
<!-- Node3 -->
<g id="node3" class="node">
<title>Node3</title>
<g id="a_node3"><a xlink:title=" ">
<polygon fill="white" stroke="#bfbfbf" points="161.5,-85 77.5,-85 77.5,-66 161.5,-66 161.5,-85"/>
<text text-anchor="middle" x="119.5" y="-73" font-family="Helvetica,sans-Serif" font-size="10.00">LoggerInterface</text>
</a>
</g>
</g>
<!-- Node3&#45;&gt;Node1 -->
<g id="edge2" class="edge">
<title>Node3&#45;&gt;Node1</title>
<path fill="none" stroke="#9a32cd" stroke-dasharray="5,2" d="M106.77,-56.4C98.25,-44.27 87.4,-28.84 80.7,-19.32"/>
<polygon fill="#9a32cd" stroke="#9a32cd" points="103.76,-58.2 112.37,-64.36 109.48,-54.17 103.76,-58.2"/>
<text text-anchor="middle" x="117" y="-40" font-family="Helvetica,sans-Serif" font-size="10.00"> $logger</text>
</g>
</g>
</svg>
