<?xml version="1.0" encoding="UTF-8" standalone="no"?>
<!DOCTYPE svg PUBLIC "-//W3C//DTD SVG 1.1//EN"
 "http://www.w3.org/Graphics/SVG/1.1/DTD/svg11.dtd">
<!-- Generated by graphviz version 7.1.0 (20230121.1956)
 -->
<!-- Title: EncryptionException Pages: 1 -->
<!--zoomable 261 -->
<svg id="main" version="1.1" xmlns="http://www.w3.org/2000/svg" xmlns:xlink="http://www.w3.org/1999/xlink" xml:space="preserve" onload="init(evt)">
<style type="text/css"><![CDATA[
.edge:hover path { stroke: red; }
.edge:hover polygon { stroke: red; fill: red; }
]]></style>
<script type="text/javascript"><![CDATA[
var edges = document.getElementsByTagName('g');
if (edges && edges.length) {
  for (var i=0;i<edges.length;i++) {
    if (edges[i].id.substr(0,4)=='edge') {
      edges[i].setAttribute('class','edge');
    }
  }
}
]]></script>
        <defs>
                <circle id="rim" cx="0" cy="0" r="7"/>
                <circle id="rim2" cx="0" cy="0" r="3.5"/>
                <g id="zoomPlus">
                        <use xlink:href="#rim" fill="#404040">
                                <set attributeName="fill" to="#808080" begin="zoomplus.mouseover" end="zoomplus.mouseout"/>
                        </use>
                        <path d="M-4,0h8M0,-4v8" fill="none" stroke="white" stroke-width="1.5" pointer-events="none"/>
                </g>
                <g id="zoomMin">
                        <use xlink:href="#rim" fill="#404040">
                                <set attributeName="fill" to="#808080" begin="zoomminus.mouseover" end="zoomminus.mouseout"/>
                        </use>
                        <path d="M-4,0h8" fill="none" stroke="white" stroke-width="1.5" pointer-events="none"/>
                </g>
                <g id="dirArrow">
                        <path fill="none" stroke="white" stroke-width="1.5" d="M0,-3.0v7 M-2.5,-0.5L0,-3.0L2.5,-0.5"/>
                </g>
               <g id="resetDef">
                       <use xlink:href="#rim2" fill="#404040">
                               <set attributeName="fill" to="#808080" begin="reset.mouseover" end="reset.mouseout"/>
                       </use>
               </g>
        </defs>

<script type="text/javascript">
var viewWidth = 507;
var viewHeight = 261;
var sectionId = 'dynsection-0';
</script>
<script xlink:href="svgpan.js"/>
<svg id="graph" class="graph">
<g id="viewport">
<title>EncryptionException</title>
<!-- Node1 -->
<g id="node1" class="node">
<title>Node1</title>
<g id="a_node1"><a xlink:title="Base class for other exceptions.">
<polygon fill="#999999" stroke="#666666" points="320,-141.5 213,-141.5 213,-122.5 320,-122.5 320,-141.5"/>
<text text-anchor="middle" x="266.5" y="-129.5" font-family="Helvetica,sans-Serif" font-size="10.00">EncryptionException</text>
</a>
</g>
</g>
<!-- Node4 -->
<g id="node4" class="node">
<title>Node4</title>
<g id="a_node4"><a xlink:href="class_o_c_a_1_1_c_a_f_e_v_d_b_1_1_exceptions_1_1_cannot_decrypt_exception.html" target="_top" xlink:title=" ">
<polygon fill="white" stroke="#666666" points="490.5,-252.5 364.5,-252.5 364.5,-233.5 490.5,-233.5 490.5,-252.5"/>
<text text-anchor="middle" x="427.5" y="-240.5" font-family="Helvetica,sans-Serif" font-size="10.00">CannotDecryptException</text>
</a>
</g>
</g>
<!-- Node1&#45;&gt;Node4 -->
<g id="edge3" class="edge">
<title>Node1&#45;&gt;Node4</title>
<path fill="none" stroke="#63b8ff" d="M280.59,-151.19C296.1,-172.45 323.94,-206.21 356,-225 361.56,-228.26 367.7,-230.93 373.97,-233.12"/>
<polygon fill="#63b8ff" stroke="#63b8ff" points="283.5,-149.25 274.87,-143.11 277.79,-153.3 283.5,-149.25"/>
</g>
<!-- Node5 -->
<g id="node5" class="node">
<title>Node5</title>
<g id="a_node5"><a xlink:href="class_o_c_a_1_1_c_a_f_e_v_d_b_1_1_exceptions_1_1_cannot_encrypt_exception.html" target="_top" xlink:title=" ">
<polygon fill="white" stroke="#666666" points="490,-215.5 365,-215.5 365,-196.5 490,-196.5 490,-215.5"/>
<text text-anchor="middle" x="427.5" y="-203.5" font-family="Helvetica,sans-Serif" font-size="10.00">CannotEncryptException</text>
</a>
</g>
</g>
<!-- Node1&#45;&gt;Node5 -->
<g id="edge4" class="edge">
<title>Node1&#45;&gt;Node5</title>
<path fill="none" stroke="#63b8ff" d="M289.47,-148.67C306.75,-161.07 331.85,-177.59 356,-188 363.31,-191.15 371.29,-193.84 379.17,-196.11"/>
<polygon fill="#63b8ff" stroke="#63b8ff" points="291.62,-145.9 281.49,-142.81 287.48,-151.55 291.62,-145.9"/>
</g>
<!-- Node6 -->
<g id="node6" class="node">
<title>Node6</title>
<g id="a_node6"><a xlink:href="class_o_c_a_1_1_c_a_f_e_v_d_b_1_1_exceptions_1_1_decryption_failed_exception.html" target="_top" xlink:title=" ">
<polygon fill="white" stroke="#666666" points="494.5,-178.5 360.5,-178.5 360.5,-159.5 494.5,-159.5 494.5,-178.5"/>
<text text-anchor="middle" x="427.5" y="-166.5" font-family="Helvetica,sans-Serif" font-size="10.00">DecryptionFailedException</text>
</a>
</g>
</g>
<!-- Node1&#45;&gt;Node6 -->
<g id="edge5" class="edge">
<title>Node1&#45;&gt;Node6</title>
<path fill="none" stroke="#63b8ff" d="M321.14,-144.48C341.55,-149.23 364.51,-154.57 383.77,-159.06"/>
<polygon fill="#63b8ff" stroke="#63b8ff" points="322.12,-141.12 311.58,-142.26 320.53,-147.93 322.12,-141.12"/>
</g>
<!-- Node7 -->
<g id="node7" class="node">
<title>Node7</title>
<g id="a_node7"><a xlink:href="class_o_c_a_1_1_c_a_f_e_v_d_b_1_1_exceptions_1_1_encryption_failed_exception.html" target="_top" xlink:title=" ">
<polygon fill="white" stroke="#666666" points="494,-141.5 361,-141.5 361,-122.5 494,-122.5 494,-141.5"/>
<text text-anchor="middle" x="427.5" y="-129.5" font-family="Helvetica,sans-Serif" font-size="10.00">EncryptionFailedException</text>
</a>
</g>
</g>
<!-- Node1&#45;&gt;Node7 -->
<g id="edge6" class="edge">
<title>Node1&#45;&gt;Node7</title>
<path fill="none" stroke="#63b8ff" d="M331.87,-132C341.4,-132 351.22,-132 360.77,-132"/>
<polygon fill="#63b8ff" stroke="#63b8ff" points="331.96,-128.5 321.96,-132 331.96,-135.5 331.96,-128.5"/>
</g>
<!-- Node8 -->
<g id="node8" class="node">
<title>Node8</title>
<g id="a_node8"><a xlink:href="class_o_c_a_1_1_c_a_f_e_v_d_b_1_1_exceptions_1_1_encryption_key_exception.html" target="_top" xlink:title=" ">
<polygon fill="white" stroke="#666666" points="489.5,-104.5 365.5,-104.5 365.5,-85.5 489.5,-85.5 489.5,-104.5"/>
<text text-anchor="middle" x="427.5" y="-92.5" font-family="Helvetica,sans-Serif" font-size="10.00">EncryptionKeyException</text>
</a>
</g>
</g>
<!-- Node1&#45;&gt;Node8 -->
<g id="edge7" class="edge">
<title>Node1&#45;&gt;Node8</title>
<path fill="none" stroke="#63b8ff" d="M321.14,-119.52C341.55,-114.77 364.51,-109.43 383.77,-104.94"/>
<polygon fill="#63b8ff" stroke="#63b8ff" points="320.53,-116.07 311.58,-121.74 322.12,-122.88 320.53,-116.07"/>
</g>
<!-- Node9 -->
<g id="node9" class="node">
<title>Node9</title>
<g id="a_node9"><a xlink:href="class_o_c_a_1_1_c_a_f_e_v_d_b_1_1_exceptions_1_1_recryption_failed_exception.html" target="_top" xlink:title=" ">
<polygon fill="white" stroke="#666666" points="494.5,-67.5 360.5,-67.5 360.5,-48.5 494.5,-48.5 494.5,-67.5"/>
<text text-anchor="middle" x="427.5" y="-55.5" font-family="Helvetica,sans-Serif" font-size="10.00">RecryptionFailedException</text>
</a>
</g>
</g>
<!-- Node1&#45;&gt;Node9 -->
<g id="edge8" class="edge">
<title>Node1&#45;&gt;Node9</title>
<path fill="none" stroke="#63b8ff" d="M289.47,-115.33C306.75,-102.93 331.85,-86.41 356,-76 363.31,-72.85 371.29,-70.16 379.17,-67.89"/>
<polygon fill="#63b8ff" stroke="#63b8ff" points="287.48,-112.45 281.49,-121.19 291.62,-118.1 287.48,-112.45"/>
</g>
<!-- Node10 -->
<g id="node10" class="node">
<title>Node10</title>
<g id="a_node10"><a xlink:href="class_o_c_a_1_1_c_a_f_e_v_d_b_1_1_exceptions_1_1_recryption_request_not_found_exception.html" target="_top" xlink:title=" ">
<polygon fill="white" stroke="#666666" points="499,-30 356,-30 356,0 499,0 499,-30"/>
<text text-anchor="start" x="364" y="-18" font-family="Helvetica,sans-Serif" font-size="10.00">RecryptionRequestNotFound</text>
<text text-anchor="middle" x="427.5" y="-7" font-family="Helvetica,sans-Serif" font-size="10.00">Exception</text>
</a>
</g>
</g>
<!-- Node1&#45;&gt;Node10 -->
<g id="edge9" class="edge">
<title>Node1&#45;&gt;Node10</title>
<path fill="none" stroke="#63b8ff" d="M281.11,-112.94C296.92,-92.07 324.86,-58.92 356,-39 361.01,-35.79 366.5,-32.97 372.12,-30.48"/>
<polygon fill="#63b8ff" stroke="#63b8ff" points="278.38,-110.74 275.26,-120.87 284.01,-114.9 278.38,-110.74"/>
</g>
<!-- Node2 -->
<g id="node2" class="node">
<title>Node2</title>
<g id="a_node2"><a xlink:href="class_o_c_a_1_1_c_a_f_e_v_d_b_1_1_exceptions_1_1_exception.html" target="_top" xlink:title="General abstraction base&#45;class.">
<polygon fill="white" stroke="#666666" points="177,-141.5 117,-141.5 117,-122.5 177,-122.5 177,-141.5"/>
<text text-anchor="middle" x="147" y="-129.5" font-family="Helvetica,sans-Serif" font-size="10.00">Exception</text>
</a>
</g>
</g>
<!-- Node2&#45;&gt;Node1 -->
<g id="edge1" class="edge">
<title>Node2&#45;&gt;Node1</title>
<path fill="none" stroke="#63b8ff" d="M188.69,-132C196.45,-132 204.68,-132 212.75,-132"/>
<polygon fill="#63b8ff" stroke="#63b8ff" points="188.86,-128.5 178.86,-132 188.86,-135.5 188.86,-128.5"/>
</g>
<!-- Node3 -->
<g id="node3" class="node">
<title>Node3</title>
<g id="a_node3"><a xlink:title=" ">
<polygon fill="white" stroke="#bfbfbf" points="81,-141.5 0,-141.5 0,-122.5 81,-122.5 81,-141.5"/>
<text text-anchor="middle" x="40.5" y="-129.5" font-family="Helvetica,sans-Serif" font-size="10.00">CoreException</text>
</a>
</g>
</g>
<!-- Node3&#45;&gt;Node2 -->
<g id="edge2" class="edge">
<title>Node3&#45;&gt;Node2</title>
<path fill="none" stroke="#63b8ff" d="M92.8,-132C101.01,-132 109.25,-132 116.71,-132"/>
<polygon fill="#63b8ff" stroke="#63b8ff" points="92.82,-128.5 82.82,-132 92.82,-135.5 92.82,-128.5"/>
</g>
</g>
</svg>
        <g id="navigator" transform="translate(0 0)" fill="#404254">
                <rect fill="#f2f5e9" fill-opacity="0.5" stroke="#606060" stroke-width=".5" x="0" y="0" width="60" height="60"/>
                <use id="zoomplus" xlink:href="#zoomPlus" x="17" y="9" onmousedown="handleZoom(evt,'in')"/>
                <use id="zoomminus" xlink:href="#zoomMin" x="42" y="9" onmousedown="handleZoom(evt,'out')"/>
                <use id="reset" xlink:href="#resetDef" x="30" y="36" onmousedown="handleReset()"/>
                <g id="arrowUp" xlink:href="#dirArrow" transform="translate(30 24)" onmousedown="handlePan(0,-1)">
                  <use xlink:href="#rim" fill="#404040">
                        <set attributeName="fill" to="#808080" begin="arrowUp.mouseover" end="arrowUp.mouseout"/>
                  </use>
                  <path fill="none" stroke="white" stroke-width="1.5" d="M0,-3.0v7 M-2.5,-0.5L0,-3.0L2.5,-0.5"/>
                </g>
                <g id="arrowRight" xlink:href="#dirArrow" transform="rotate(90) translate(36 -43)" onmousedown="handlePan(1,0)">
                  <use xlink:href="#rim" fill="#404040">
                        <set attributeName="fill" to="#808080" begin="arrowRight.mouseover" end="arrowRight.mouseout"/>
                  </use>
                  <path fill="none" stroke="white" stroke-width="1.5" d="M0,-3.0v7 M-2.5,-0.5L0,-3.0L2.5,-0.5"/>
                </g>
                <g id="arrowDown" xlink:href="#dirArrow" transform="rotate(180) translate(-30 -48)" onmousedown="handlePan(0,1)">
                  <use xlink:href="#rim" fill="#404040">
                        <set attributeName="fill" to="#808080" begin="arrowDown.mouseover" end="arrowDown.mouseout"/>
                  </use>
                  <path fill="none" stroke="white" stroke-width="1.5" d="M0,-3.0v7 M-2.5,-0.5L0,-3.0L2.5,-0.5"/>
                </g>
                <g id="arrowLeft" xlink:href="#dirArrow" transform="rotate(270) translate(-36 17)" onmousedown="handlePan(-1,0)">
                  <use xlink:href="#rim" fill="#404040">
                        <set attributeName="fill" to="#808080" begin="arrowLeft.mouseover" end="arrowLeft.mouseout"/>
                  </use>
                  <path fill="none" stroke="white" stroke-width="1.5" d="M0,-3.0v7 M-2.5,-0.5L0,-3.0L2.5,-0.5"/>
                </g>
        </g>
        <svg viewBox="0 0 15 15" width="100%" height="30px" preserveAspectRatio="xMaxYMin meet">
         <g id="arrow_out" transform="scale(0.3 0.3)">
          <a xlink:href="class_o_c_a_1_1_c_a_f_e_v_d_b_1_1_exceptions_1_1_encryption_exception__inherit__graph_org.svg" target="_base">
           <rect id="button" ry="5" rx="5" y="6" x="6" height="38" width="38"
                fill="#f2f5e9" fill-opacity="0.5" stroke="#606060" stroke-width="1.0"/>
           <path id="arrow"
             d="M 11.500037,31.436501 C 11.940474,20.09759 22.043105,11.32322 32.158766,21.979434 L 37.068811,17.246167 C 37.068811,17.246167 37.088388,32 37.088388,32 L 22.160133,31.978069 C 22.160133,31.978069 26.997745,27.140456 26.997745,27.140456 C 18.528582,18.264221 13.291696,25.230495 11.500037,31.436501 z"
             style="fill:#404040;"/>
          </a>
         </g>
        </svg>
</svg>
