<?xml version="1.0" encoding="UTF-8" standalone="no"?>
<!DOCTYPE svg PUBLIC "-//W3C//DTD SVG 1.1//EN"
 "http://www.w3.org/Graphics/SVG/1.1/DTD/svg11.dtd">
<!-- Generated by graphviz version 8.0.3 (20230416.2022)
 -->
<!-- Title: UndoableFileSystemNodeRemove Pages: 1 -->
<svg width="175pt" height="192pt"
 viewBox="0.00 0.00 175.00 192.00" xmlns="http://www.w3.org/2000/svg" xmlns:xlink="http://www.w3.org/1999/xlink">
<g id="graph0" class="graph" transform="scale(1 1) rotate(0) translate(4 188)">
<title>UndoableFileSystemNodeRemove</title>
<!-- Node1 -->
<g id="node1" class="node">
<title>Node1</title>
<g id="a_node1"><a xlink:title="Remove the given path which may either point to a file or folder.">
<polygon fill="#999999" stroke="#666666" points="167,-19 0,-19 0,0 167,0 167,-19"/>
<text text-anchor="middle" x="83.5" y="-7" font-family="Helvetica,sans-Serif" font-size="10.00">UndoableFileSystemNodeRemove</text>
</a>
</g>
</g>
<!-- Node2 -->
<g id="node2" class="node">
<title>Node2</title>
<g id="a_node2"><a xlink:href="class_o_c_a_1_1_c_a_f_e_v_d_b_1_1_common_1_1_abstract_file_system_undoable.html" target="_top" xlink:title="Base for file&#45;system related IUndoable implementations.">
<polygon fill="white" stroke="#666666" points="155.5,-74 11.5,-74 11.5,-55 155.5,-55 155.5,-74"/>
<text text-anchor="middle" x="83.5" y="-62" font-family="Helvetica,sans-Serif" font-size="10.00">AbstractFileSystemUndoable</text>
</a>
</g>
</g>
<!-- Node2&#45;&gt;Node1 -->
<g id="edge1" class="edge">
<title>Node2&#45;&gt;Node1</title>
<path fill="none" stroke="#63b8ff" d="M83.5,-43.93C83.5,-35.53 83.5,-26.13 83.5,-19.44"/>
<polygon fill="#63b8ff" stroke="#63b8ff" points="80,-43.75 83.5,-53.75 87,-43.75 80,-43.75"/>
</g>
<!-- Node3 -->
<g id="node3" class="node">
<title>Node3</title>
<g id="a_node3"><a xlink:href="class_o_c_a_1_1_c_a_f_e_v_d_b_1_1_common_1_1_abstract_undoable.html" target="_top" xlink:title="Default implementation for some methods.">
<polygon fill="white" stroke="#666666" points="131,-129 36,-129 36,-110 131,-110 131,-129"/>
<text text-anchor="middle" x="83.5" y="-117" font-family="Helvetica,sans-Serif" font-size="10.00">AbstractUndoable</text>
</a>
</g>
</g>
<!-- Node3&#45;&gt;Node2 -->
<g id="edge2" class="edge">
<title>Node3&#45;&gt;Node2</title>
<path fill="none" stroke="#63b8ff" d="M83.5,-98.93C83.5,-90.53 83.5,-81.13 83.5,-74.44"/>
<polygon fill="#63b8ff" stroke="#63b8ff" points="80,-98.75 83.5,-108.75 87,-98.75 80,-98.75"/>
</g>
<!-- Node4 -->
<g id="node4" class="node">
<title>Node4</title>
<g id="a_node4"><a xlink:href="interface_o_c_a_1_1_c_a_f_e_v_d_b_1_1_common_1_1_i_undoable.html" target="_top" xlink:title="Simplistic do&#45;undo interface in order to be stacked into a do&#45;undo&#45;list.">
<polygon fill="white" stroke="#666666" points="114,-184 53,-184 53,-165 114,-165 114,-184"/>
<text text-anchor="middle" x="83.5" y="-172" font-family="Helvetica,sans-Serif" font-size="10.00">IUndoable</text>
</a>
</g>
</g>
<!-- Node4&#45;&gt;Node3 -->
<g id="edge3" class="edge">
<title>Node4&#45;&gt;Node3</title>
<path fill="none" stroke="#63b8ff" d="M83.5,-153.93C83.5,-145.53 83.5,-136.13 83.5,-129.44"/>
<polygon fill="#63b8ff" stroke="#63b8ff" points="80,-153.75 83.5,-163.75 87,-153.75 80,-153.75"/>
</g>
</g>
</svg>
