<?xml version="1.0" encoding="UTF-8" standalone="no"?>
<!DOCTYPE svg PUBLIC "-//W3C//DTD SVG 1.1//EN"
 "http://www.w3.org/Graphics/SVG/1.1/DTD/svg11.dtd">
<!-- Generated by graphviz version 7.1.0 (20230121.1956)
 -->
<!-- Title: getSubscriptionStatus Pages: 1 -->
<svg width="572pt" height="64pt"
 viewBox="0.00 0.00 572.00 64.00" xmlns="http://www.w3.org/2000/svg" xmlns:xlink="http://www.w3.org/1999/xlink">
<g id="graph0" class="graph" transform="scale(1 1) rotate(0) translate(4 60)">
<title>getSubscriptionStatus</title>
<!-- Node1 -->
<g id="node1" class="node">
<title>Node1</title>
<g id="a_node1"><a xlink:title="Return a brief status for the requested list and email address.">
<polygon fill="#999999" stroke="#666666" points="113,-37 0,-37 0,-18 113,-18 113,-37"/>
<text text-anchor="middle" x="56.5" y="-25" font-family="Helvetica,sans-Serif" font-size="10.00">getSubscriptionStatus</text>
</a>
</g>
</g>
<!-- Node2 -->
<g id="node2" class="node">
<title>Node2</title>
<g id="a_node2"><a xlink:href="class_o_c_a_1_1_c_a_f_e_v_d_b_1_1_service_1_1_mailing_lists_service.html#afca2835840699d3b8c7db3ab0c596cd5" target="_top" xlink:title="Find the basic information about a subscription for the given email.">
<polygon fill="white" stroke="#666666" points="251.5,-56 167.5,-56 167.5,-37 251.5,-37 251.5,-56"/>
<text text-anchor="middle" x="209.5" y="-44" font-family="Helvetica,sans-Serif" font-size="10.00">getSubscription</text>
</a>
</g>
</g>
<!-- Node1&#45;&gt;Node2 -->
<g id="edge1" class="edge">
<title>Node1&#45;&gt;Node2</title>
<path fill="none" stroke="#63b8ff" d="M113.3,-34.52C127.21,-36.27 142.09,-38.14 155.84,-39.87"/>
<polygon fill="#63b8ff" stroke="#63b8ff" points="155.23,-43.32 165.59,-41.1 156.11,-36.38 155.23,-43.32"/>
</g>
<!-- Node6 -->
<g id="node6" class="node">
<title>Node6</title>
<g id="a_node6"><a xlink:href="class_o_c_a_1_1_c_a_f_e_v_d_b_1_1_service_1_1_mailing_lists_service.html#ade1a05b11f9d74137ad1ee533133decf" target="_top" xlink:title="Get or check for a pending invitation (=== email confirmation request) for the given subscription&#45;add...">
<polygon fill="white" stroke="#666666" points="270,-19 149,-19 149,0 270,0 270,-19"/>
<text text-anchor="middle" x="209.5" y="-7" font-family="Helvetica,sans-Serif" font-size="10.00">getSubscriptionRequest</text>
</a>
</g>
</g>
<!-- Node1&#45;&gt;Node6 -->
<g id="edge5" class="edge">
<title>Node1&#45;&gt;Node6</title>
<path fill="none" stroke="#63b8ff" d="M113.3,-20.85C121.12,-19.92 129.25,-18.95 137.31,-17.99"/>
<polygon fill="#63b8ff" stroke="#63b8ff" points="137.6,-21.48 147.12,-16.82 136.77,-14.53 137.6,-21.48"/>
</g>
<!-- Node3 -->
<g id="node3" class="node">
<title>Node3</title>
<g id="a_node3"><a xlink:href="class_o_c_a_1_1_c_a_f_e_v_d_b_1_1_service_1_1_mailing_lists_service.html#afee0c31807c7ddcd4265d994df850134" target="_top" xlink:title="Ensure that the given string is a list&#45;id, if it is a FQDN then try to retrieve the list&#45;id.">
<polygon fill="white" stroke="#666666" points="376,-37 306,-37 306,-18 376,-18 376,-37"/>
<text text-anchor="middle" x="341" y="-25" font-family="Helvetica,sans-Serif" font-size="10.00">ensureListId</text>
</a>
</g>
</g>
<!-- Node2&#45;&gt;Node3 -->
<g id="edge2" class="edge">
<title>Node2&#45;&gt;Node3</title>
<path fill="none" stroke="#63b8ff" d="M251.83,-40.44C265.36,-38.45 280.47,-36.23 294.31,-34.2"/>
<polygon fill="#63b8ff" stroke="#63b8ff" points="294.68,-37.69 304.07,-32.77 293.67,-30.76 294.68,-37.69"/>
</g>
<!-- Node4 -->
<g id="node4" class="node">
<title>Node4</title>
<g id="a_node4"><a xlink:href="class_o_c_a_1_1_c_a_f_e_v_d_b_1_1_service_1_1_mailing_lists_service.html#ae79714b9375ce65edd9c71e2d97e06ab" target="_top" xlink:title="Fetch the list&#45;id of the given list.">
<polygon fill="white" stroke="#666666" points="466,-37 412,-37 412,-18 466,-18 466,-37"/>
<text text-anchor="middle" x="439" y="-25" font-family="Helvetica,sans-Serif" font-size="10.00">getListId</text>
</a>
</g>
</g>
<!-- Node3&#45;&gt;Node4 -->
<g id="edge3" class="edge">
<title>Node3&#45;&gt;Node4</title>
<path fill="none" stroke="#63b8ff" d="M376.39,-27.5C384.1,-27.5 392.33,-27.5 400.18,-27.5"/>
<polygon fill="#63b8ff" stroke="#63b8ff" points="400.17,-31 410.17,-27.5 400.17,-24 400.17,-31"/>
</g>
<!-- Node5 -->
<g id="node5" class="node">
<title>Node5</title>
<g id="a_node5"><a xlink:href="class_o_c_a_1_1_c_a_f_e_v_d_b_1_1_service_1_1_mailing_lists_service.html#a651ae4ad1c33811d0e985204bd2e35b8" target="_top" xlink:title=" ">
<polygon fill="white" stroke="#666666" points="564,-37 502,-37 502,-18 564,-18 564,-37"/>
<text text-anchor="middle" x="533" y="-25" font-family="Helvetica,sans-Serif" font-size="10.00">getListInfo</text>
</a>
</g>
</g>
<!-- Node4&#45;&gt;Node5 -->
<g id="edge4" class="edge">
<title>Node4&#45;&gt;Node5</title>
<path fill="none" stroke="#63b8ff" d="M466.12,-27.5C473.63,-27.5 482.01,-27.5 490.22,-27.5"/>
<polygon fill="#63b8ff" stroke="#63b8ff" points="490.08,-31 500.08,-27.5 490.08,-24 490.08,-31"/>
</g>
<!-- Node6&#45;&gt;Node3 -->
<g id="edge6" class="edge">
<title>Node6&#45;&gt;Node3</title>
<path fill="none" stroke="#63b8ff" d="M270.32,-17.82C278.33,-18.93 286.44,-20.06 294.16,-21.13"/>
<polygon fill="#63b8ff" stroke="#63b8ff" points="293.62,-24.59 304.01,-22.5 294.59,-17.65 293.62,-24.59"/>
</g>
</g>
</svg>
