<?xml version="1.0" encoding="UTF-8" standalone="no"?>
<!DOCTYPE svg PUBLIC "-//W3C//DTD SVG 1.1//EN"
 "http://www.w3.org/Graphics/SVG/1.1/DTD/svg11.dtd">
<!-- Generated by graphviz version 7.1.0 (20230121.1956)
 -->
<!-- Title: __construct Pages: 1 -->
<!--zoomable 707 -->
<svg id="main" version="1.1" xmlns="http://www.w3.org/2000/svg" xmlns:xlink="http://www.w3.org/1999/xlink" xml:space="preserve" onload="init(evt)">
<style type="text/css"><![CDATA[
.edge:hover path { stroke: red; }
.edge:hover polygon { stroke: red; fill: red; }
]]></style>
<script type="text/javascript"><![CDATA[
var edges = document.getElementsByTagName('g');
if (edges && edges.length) {
  for (var i=0;i<edges.length;i++) {
    if (edges[i].id.substr(0,4)=='edge') {
      edges[i].setAttribute('class','edge');
    }
  }
}
]]></script>
        <defs>
                <circle id="rim" cx="0" cy="0" r="7"/>
                <circle id="rim2" cx="0" cy="0" r="3.5"/>
                <g id="zoomPlus">
                        <use xlink:href="#rim" fill="#404040">
                                <set attributeName="fill" to="#808080" begin="zoomplus.mouseover" end="zoomplus.mouseout"/>
                        </use>
                        <path d="M-4,0h8M0,-4v8" fill="none" stroke="white" stroke-width="1.5" pointer-events="none"/>
                </g>
                <g id="zoomMin">
                        <use xlink:href="#rim" fill="#404040">
                                <set attributeName="fill" to="#808080" begin="zoomminus.mouseover" end="zoomminus.mouseout"/>
                        </use>
                        <path d="M-4,0h8" fill="none" stroke="white" stroke-width="1.5" pointer-events="none"/>
                </g>
                <g id="dirArrow">
                        <path fill="none" stroke="white" stroke-width="1.5" d="M0,-3.0v7 M-2.5,-0.5L0,-3.0L2.5,-0.5"/>
                </g>
               <g id="resetDef">
                       <use xlink:href="#rim2" fill="#404040">
                               <set attributeName="fill" to="#808080" begin="reset.mouseover" end="reset.mouseout"/>
                       </use>
               </g>
        </defs>

<script type="text/javascript">
var viewWidth = 947;
var viewHeight = 707;
var sectionId = 'dynsection-0';
</script>
<script xlink:href="svgpan.js"/>
<svg id="graph" class="graph">
<g id="viewport">
<title>__construct</title>
<!-- Node1 -->
<g id="node1" class="node">
<title>Node1</title>
<g id="a_node1"><a xlink:title="{}">
<polygon fill="#999999" stroke="#666666" points="68,-341 0,-341 0,-322 68,-322 68,-341"/>
<text text-anchor="middle" x="34" y="-329" font-family="Helvetica,sans-Serif" font-size="10.00">__construct</text>
</a>
</g>
</g>
<!-- Node2 -->
<g id="node2" class="node">
<title>Node2</title>
<g id="a_node2"><a xlink:href="class_o_c_a_1_1_c_a_f_e_v_d_b_1_1_email_form_1_1_recipients_filter.html#ae40c9dafec946961dfd72815f6764fb8" target="_top" xlink:title=" ">
<polygon fill="white" stroke="#666666" points="139,-341 104,-341 104,-322 139,-322 139,-341"/>
<text text-anchor="middle" x="121.5" y="-329" font-family="Helvetica,sans-Serif" font-size="10.00">bind</text>
</a>
</g>
</g>
<!-- Node1&#45;&gt;Node2 -->
<g id="edge1" class="edge">
<title>Node1&#45;&gt;Node2</title>
<path fill="none" stroke="#63b8ff" d="M68.3,-331.5C76.3,-331.5 84.77,-331.5 92.5,-331.5"/>
<polygon fill="#63b8ff" stroke="#63b8ff" points="92.36,-335 102.36,-331.5 92.36,-328 92.36,-335"/>
</g>
<!-- Node3 -->
<g id="node3" class="node">
<title>Node3</title>
<g id="a_node3"><a xlink:href="class_o_c_a_1_1_c_a_f_e_v_d_b_1_1_email_form_1_1_recipients_filter.html#a1497fe5acb2403ca1873ec2fd4b790fe" target="_top" xlink:title="Fetch a CGI&#45;variable out of the form&#45;select name&#45;space.">
<polygon fill="white" stroke="#666666" points="750,-510 697,-510 697,-491 750,-491 750,-510"/>
<text text-anchor="middle" x="723.5" y="-498" font-family="Helvetica,sans-Serif" font-size="10.00">cgiValue</text>
</a>
</g>
</g>
<!-- Node2&#45;&gt;Node3 -->
<g id="edge2" class="edge">
<title>Node2&#45;&gt;Node3</title>
<path fill="none" stroke="#63b8ff" d="M125.97,-341.36C142.16,-385.66 215.03,-566.95 345,-632.5 459.04,-690.02 516.98,-645.66 628,-582.5 658.67,-565.05 688.46,-536.74 706.14,-518.37"/>
<polygon fill="#63b8ff" stroke="#63b8ff" points="708.45,-521.02 712.76,-511.34 703.36,-516.22 708.45,-521.02"/>
</g>
<!-- Node4 -->
<g id="node4" class="node">
<title>Node4</title>
<g id="a_node4"><a xlink:href="class_o_c_a_1_1_c_a_f_e_v_d_b_1_1_email_form_1_1_recipients_filter.html#a1909f4b7f8129c7790cb75de2ffbe1e4" target="_top" xlink:title="Parse the CGI stuff and compute the list of selected musicians, either for the initial form setup as ...">
<polygon fill="white" stroke="#666666" points="267.5,-341 216.5,-341 216.5,-322 267.5,-322 267.5,-341"/>
<text text-anchor="middle" x="242" y="-329" font-family="Helvetica,sans-Serif" font-size="10.00">execute</text>
</a>
</g>
</g>
<!-- Node2&#45;&gt;Node4 -->
<g id="edge3" class="edge">
<title>Node2&#45;&gt;Node4</title>
<path fill="none" stroke="#63b8ff" d="M139.48,-331.5C156.43,-331.5 183.02,-331.5 204.74,-331.5"/>
<polygon fill="#63b8ff" stroke="#63b8ff" points="204.7,-335 214.7,-331.5 204.7,-328 204.7,-335"/>
</g>
<!-- Node28 -->
<g id="node28" class="node">
<title>Node28</title>
<g id="a_node28"><a xlink:href="class_o_c_a_1_1_c_a_f_e_v_d_b_1_1_service_1_1_request_parameter_service.html#aeafd6890cfd4ba9b30cb9706b2a12373" target="_top" xlink:title=" ">
<polygon fill="white" stroke="#666666" points="309,-304 175,-304 175,-263 309,-263 309,-304"/>
<text text-anchor="start" x="183" y="-292" font-family="Helvetica,sans-Serif" font-size="10.00">OCA\CAFEVDB\Service</text>
<text text-anchor="start" x="183" y="-281" font-family="Helvetica,sans-Serif" font-size="10.00">\RequestParameterService</text>
<text text-anchor="middle" x="242" y="-270" font-family="Helvetica,sans-Serif" font-size="10.00">\getParam</text>
</a>
</g>
</g>
<!-- Node2&#45;&gt;Node28 -->
<g id="edge42" class="edge">
<title>Node2&#45;&gt;Node28</title>
<path fill="none" stroke="#63b8ff" d="M139.48,-324.62C149.98,-320.37 164.19,-314.61 178.64,-308.76"/>
<polygon fill="#63b8ff" stroke="#63b8ff" points="179.8,-312.07 187.76,-305.07 177.17,-305.58 179.8,-312.07"/>
</g>
<!-- Node4&#45;&gt;Node3 -->
<g id="edge8" class="edge">
<title>Node4&#45;&gt;Node3</title>
<path fill="none" stroke="#63b8ff" d="M244.73,-341.28C251.08,-373.82 276.39,-478.67 345,-519.5 455,-584.96 616.54,-539.63 687.21,-514.34"/>
<polygon fill="#63b8ff" stroke="#63b8ff" points="688.15,-517.73 696.33,-511 685.74,-511.16 688.15,-517.73"/>
</g>
<!-- Node5 -->
<g id="node5" class="node">
<title>Node5</title>
<g id="a_node5"><a xlink:href="class_o_c_a_1_1_c_a_f_e_v_d_b_1_1_email_form_1_1_recipients_filter.html#ac721d278c1106843d05dc3b9176b5fb9" target="_top" xlink:title=" ">
<polygon fill="white" stroke="#666666" points="477,-322 345,-322 345,-303 477,-303 477,-322"/>
<text text-anchor="middle" x="411" y="-310" font-family="Helvetica,sans-Serif" font-size="10.00">announcementsMailingList</text>
</a>
</g>
</g>
<!-- Node4&#45;&gt;Node5 -->
<g id="edge4" class="edge">
<title>Node4&#45;&gt;Node5</title>
<path fill="none" stroke="#63b8ff" d="M267.64,-328.7C285.19,-326.7 309.79,-323.9 333.61,-321.19"/>
<polygon fill="#63b8ff" stroke="#63b8ff" points="333.79,-324.69 343.33,-320.09 333,-317.74 333.79,-324.69"/>
</g>
<!-- Node6 -->
<g id="node6" class="node">
<title>Node6</title>
<g id="a_node6"><a xlink:href="class_o_c_a_1_1_c_a_f_e_v_d_b_1_1_email_form_1_1_recipients_filter.html#abb68032ee09c309fa68ede14a34e348d" target="_top" xlink:title=" ">
<polygon fill="white" stroke="#666666" points="606,-320 535,-320 535,-301 606,-301 606,-320"/>
<text text-anchor="middle" x="570.5" y="-308" font-family="Helvetica,sans-Serif" font-size="10.00">applyHistory</text>
</a>
</g>
</g>
<!-- Node4&#45;&gt;Node6 -->
<g id="edge5" class="edge">
<title>Node4&#45;&gt;Node6</title>
<path fill="none" stroke="#63b8ff" d="M267.85,-325.64C280.4,-322.36 295.73,-317.85 309,-312.5 325.78,-305.74 327.44,-297.85 345,-293.5 405.51,-278.51 477.76,-288.8 523.63,-298.68"/>
<polygon fill="#63b8ff" stroke="#63b8ff" points="522.7,-302.06 533.23,-300.84 524.24,-295.23 522.7,-302.06"/>
</g>
<!-- Node7 -->
<g id="node7" class="node">
<title>Node7</title>
<g id="a_node7"><a xlink:href="class_o_c_a_1_1_c_a_f_e_v_d_b_1_1_email_form_1_1_recipients_filter.html#ab5ee0276791cc2947df51b32bc6c7ba6" target="_top" xlink:title=" ">
<polygon fill="white" stroke="#666666" points="757,-320 690,-320 690,-301 757,-301 757,-320"/>
<text text-anchor="middle" x="723.5" y="-308" font-family="Helvetica,sans-Serif" font-size="10.00">filterHistory</text>
</a>
</g>
</g>
<!-- Node4&#45;&gt;Node7 -->
<g id="edge19" class="edge">
<title>Node4&#45;&gt;Node7</title>
<path fill="none" stroke="#63b8ff" d="M267.86,-332.9C329.21,-336.01 492.67,-342.18 628,-328.5 644.71,-326.81 662.88,-323.67 678.78,-320.48"/>
<polygon fill="#63b8ff" stroke="#63b8ff" points="679.35,-323.94 688.42,-318.48 677.92,-317.08 679.35,-323.94"/>
</g>
<!-- Node8 -->
<g id="node8" class="node">
<title>Node8</title>
<g id="a_node8"><a xlink:href="class_o_c_a_1_1_c_a_f_e_v_d_b_1_1_email_form_1_1_recipients_filter.html#a0835860e0bc6047f3eff6a9941dbbcf4" target="_top" xlink:title=" ">
<polygon fill="white" stroke="#666666" points="766.5,-170 680.5,-170 680.5,-151 766.5,-151 766.5,-170"/>
<text text-anchor="middle" x="723.5" y="-158" font-family="Helvetica,sans-Serif" font-size="10.00">defaultByStatus</text>
</a>
</g>
</g>
<!-- Node4&#45;&gt;Node8 -->
<g id="edge9" class="edge">
<title>Node4&#45;&gt;Node8</title>
<path fill="none" stroke="#63b8ff" d="M267.88,-330.43C281.85,-328.5 298.53,-323.77 309,-312.5 361.88,-255.62 284.69,-190.44 345,-141.5 442.67,-62.25 502.84,-129.04 628,-141.5 642.19,-142.91 657.41,-145.49 671.39,-148.3"/>
<polygon fill="#63b8ff" stroke="#63b8ff" points="670.31,-151.65 680.82,-150.28 671.75,-144.8 670.31,-151.65"/>
</g>
<!-- Node9 -->
<g id="node9" class="node">
<title>Node9</title>
<g id="a_node9"><a xlink:href="class_o_c_a_1_1_c_a_f_e_v_d_b_1_1_email_form_1_1_recipients_filter.html#a75227e334f1b3d4bd04bcc2ddf2c9c5d" target="_top" xlink:title=" ">
<polygon fill="white" stroke="#666666" points="939,-132 819,-132 819,-113 939,-113 939,-132"/>
<text text-anchor="middle" x="879" y="-120" font-family="Helvetica,sans-Serif" font-size="10.00">recipientsExceptProject</text>
</a>
</g>
</g>
<!-- Node4&#45;&gt;Node9 -->
<g id="edge38" class="edge">
<title>Node4&#45;&gt;Node9</title>
<path fill="none" stroke="#63b8ff" d="M267.72,-330.62C281.82,-328.78 298.67,-324.06 309,-312.5 372.95,-240.89 271.67,-161.47 345,-99.5 415.06,-40.29 695.77,-86.47 819.23,-110.4"/>
<polygon fill="#63b8ff" stroke="#63b8ff" points="818.35,-113.8 828.84,-112.28 819.69,-106.93 818.35,-113.8"/>
</g>
<!-- Node10 -->
<g id="node10" class="node">
<title>Node10</title>
<g id="a_node10"><a xlink:href="class_o_c_a_1_1_c_a_f_e_v_d_b_1_1_email_form_1_1_recipients_filter.html#a91325e5bf1c1dafd989c072cdd289f7e" target="_top" xlink:title="Decode the check&#45;boxes which select the set of users we consider basically.">
<polygon fill="white" stroke="#666666" points="462.5,-623 359.5,-623 359.5,-604 462.5,-604 462.5,-623"/>
<text text-anchor="middle" x="411" y="-611" font-family="Helvetica,sans-Serif" font-size="10.00">determineUserBase</text>
</a>
</g>
</g>
<!-- Node4&#45;&gt;Node10 -->
<g id="edge11" class="edge">
<title>Node4&#45;&gt;Node10</title>
<path fill="none" stroke="#63b8ff" d="M243.73,-341.39C247.14,-380.12 264.89,-522.92 345,-595.5 346.43,-596.8 347.95,-598 349.53,-599.12"/>
<polygon fill="#63b8ff" stroke="#63b8ff" points="347.51,-601.99 357.93,-603.89 350.96,-595.91 347.51,-601.99"/>
</g>
<!-- Node13 -->
<g id="node13" class="node">
<title>Node13</title>
<g id="a_node13"><a xlink:href="class_o_c_a_1_1_c_a_f_e_v_d_b_1_1_email_form_1_1_recipients_filter.html#aa88d3b6470fc695c0e977cf6652e03ae" target="_top" xlink:title="Fetch the instruments filter from the CGI parameters.">
<polygon fill="white" stroke="#666666" points="467,-473 355,-473 355,-454 467,-454 467,-473"/>
<text text-anchor="middle" x="411" y="-461" font-family="Helvetica,sans-Serif" font-size="10.00">fetchInstrumentsFilter</text>
</a>
</g>
</g>
<!-- Node4&#45;&gt;Node13 -->
<g id="edge15" class="edge">
<title>Node4&#45;&gt;Node13</title>
<path fill="none" stroke="#63b8ff" d="M249.08,-341.32C263.16,-363.24 300.23,-416.4 345,-444.5 347.75,-446.23 350.67,-447.81 353.69,-449.24"/>
<polygon fill="#63b8ff" stroke="#63b8ff" points="352.23,-452.43 362.81,-453.03 354.91,-445.96 352.23,-452.43"/>
</g>
<!-- Node15 -->
<g id="node15" class="node">
<title>Node15</title>
<g id="a_node15"><a xlink:href="class_o_c_a_1_1_c_a_f_e_v_d_b_1_1_email_form_1_1_recipients_filter.html#a4cc3ae15ce5ef543b8c9775626cb9acc" target="_top" xlink:title="Fill $this&#45;&gt;memberStatusNames with values.">
<polygon fill="white" stroke="#666666" points="473.5,-56 348.5,-56 348.5,-37 473.5,-37 473.5,-56"/>
<text text-anchor="middle" x="411" y="-44" font-family="Helvetica,sans-Serif" font-size="10.00">getMemberStatusNames</text>
</a>
</g>
</g>
<!-- Node4&#45;&gt;Node15 -->
<g id="edge20" class="edge">
<title>Node4&#45;&gt;Node15</title>
<path fill="none" stroke="#63b8ff" d="M267.81,-330.7C281.93,-328.88 298.79,-324.16 309,-312.5 380.63,-230.68 276.42,-154.89 345,-70.5 347.66,-67.23 350.81,-64.4 354.27,-61.96"/>
<polygon fill="#63b8ff" stroke="#63b8ff" points="355.77,-65.13 362.7,-57.11 352.28,-59.06 355.77,-65.13"/>
</g>
<!-- Node16 -->
<g id="node16" class="node">
<title>Node16</title>
<g id="a_node16"><a xlink:href="class_o_c_a_1_1_c_a_f_e_v_d_b_1_1_email_form_1_1_recipients_filter.html#a3325d0555cf869086e12761d8a7dbfc8" target="_top" xlink:title="Fetch the list of musicians for the given context (project/global).">
<polygon fill="white" stroke="#666666" points="466.5,-19 355.5,-19 355.5,0 466.5,0 466.5,-19"/>
<text text-anchor="middle" x="411" y="-7" font-family="Helvetica,sans-Serif" font-size="10.00">getMusiciansFromDB</text>
</a>
</g>
</g>
<!-- Node4&#45;&gt;Node16 -->
<g id="edge21" class="edge">
<title>Node4&#45;&gt;Node16</title>
<path fill="none" stroke="#63b8ff" d="M267.9,-330.78C282.06,-328.99 298.92,-324.27 309,-312.5 392.04,-215.52 261.47,-124.06 345,-27.5 345.45,-26.97 345.92,-26.46 346.41,-25.97"/>
<polygon fill="#63b8ff" stroke="#63b8ff" points="348.28,-28.95 354.01,-20.04 343.97,-23.43 348.28,-28.95"/>
</g>
<!-- Node17 -->
<g id="node17" class="node">
<title>Node17</title>
<g id="a_node17"><a xlink:href="class_o_c_a_1_1_c_a_f_e_v_d_b_1_1_email_form_1_1_recipients_filter.html#a9ae6e956522f1d298f15c4b2a07f0bd7" target="_top" xlink:title="Get the current filter.">
<polygon fill="white" stroke="#666666" points="628,-283 513,-283 513,-264 628,-264 628,-283"/>
<text text-anchor="middle" x="570.5" y="-271" font-family="Helvetica,sans-Serif" font-size="10.00">initMemberStatusFilter</text>
</a>
</g>
</g>
<!-- Node4&#45;&gt;Node17 -->
<g id="edge22" class="edge">
<title>Node4&#45;&gt;Node17</title>
<path fill="none" stroke="#63b8ff" d="M267.75,-326.93C280.56,-323.95 296.15,-319.31 309,-312.5 327.4,-302.74 325.56,-289.98 345,-282.5 394.84,-263.32 455.57,-262.08 501.3,-265.08"/>
<polygon fill="#63b8ff" stroke="#63b8ff" points="500.84,-268.55 511.07,-265.81 501.36,-261.57 500.84,-268.55"/>
</g>
<!-- Node18 -->
<g id="node18" class="node">
<title>Node18</title>
<g id="a_node18"><a xlink:href="class_o_c_a_1_1_c_a_f_e_v_d_b_1_1_email_form_1_1_recipients_filter.html#ab85bd7c01c06a6b1507047bfd28f941c" target="_top" xlink:title="Load the history from the session data.">
<polygon fill="white" stroke="#666666" points="444,-208 378,-208 378,-189 444,-189 444,-208"/>
<text text-anchor="middle" x="411" y="-196" font-family="Helvetica,sans-Serif" font-size="10.00">loadHistory</text>
</a>
</g>
</g>
<!-- Node4&#45;&gt;Node18 -->
<g id="edge25" class="edge">
<title>Node4&#45;&gt;Node18</title>
<path fill="none" stroke="#63b8ff" d="M267.83,-329.63C281.44,-327.41 297.77,-322.66 309,-312.5 340.95,-283.6 314.13,-252.55 345,-222.5 351.17,-216.49 358.98,-211.96 367.02,-208.56"/>
<polygon fill="#63b8ff" stroke="#63b8ff" points="367.99,-211.94 376.19,-205.23 365.6,-205.36 367.99,-211.94"/>
</g>
<!-- Node19 -->
<g id="node19" class="node">
<title>Node19</title>
<g id="a_node19"><a xlink:href="class_o_c_a_1_1_c_a_f_e_v_d_b_1_1_email_form_1_1_recipients_filter.html#a30a395e6e48481531a93ec374c412775" target="_top" xlink:title="Compose a default history record for the initial state.">
<polygon fill="white" stroke="#666666" points="617,-170 524,-170 524,-151 617,-151 617,-170"/>
<text text-anchor="middle" x="570.5" y="-158" font-family="Helvetica,sans-Serif" font-size="10.00">setDefaultHistory</text>
</a>
</g>
</g>
<!-- Node4&#45;&gt;Node19 -->
<g id="edge40" class="edge">
<title>Node4&#45;&gt;Node19</title>
<path fill="none" stroke="#63b8ff" d="M267.97,-330.16C281.79,-328.13 298.29,-323.38 309,-312.5 351.96,-268.85 297.98,-218.74 345,-179.5 391.39,-140.79 463.53,-141.87 513.46,-148.83"/>
<polygon fill="#63b8ff" stroke="#63b8ff" points="512.79,-152.27 523.21,-150.31 513.85,-145.35 512.79,-152.27"/>
</g>
<!-- Node24 -->
<g id="node24" class="node">
<title>Node24</title>
<g id="a_node24"><a xlink:href="class_o_c_a_1_1_c_a_f_e_v_d_b_1_1_email_form_1_1_recipients_filter.html#a3b27a17301b2e6acb457bafbd268a6c6" target="_top" xlink:title=" ">
<polygon fill="white" stroke="#666666" points="457,-586 365,-586 365,-567 457,-567 457,-586"/>
<text text-anchor="middle" x="411" y="-574" font-family="Helvetica,sans-Serif" font-size="10.00">projectMailingList</text>
</a>
</g>
</g>
<!-- Node4&#45;&gt;Node24 -->
<g id="edge34" class="edge">
<title>Node4&#45;&gt;Node24</title>
<path fill="none" stroke="#63b8ff" d="M244.78,-341.46C251.44,-375.81 277.97,-490.55 345,-552.5 348.78,-555.99 353.11,-558.99 357.7,-561.56"/>
<polygon fill="#63b8ff" stroke="#63b8ff" points="356.17,-564.7 366.7,-565.86 359.19,-558.39 356.17,-564.7"/>
</g>
<!-- Node25 -->
<g id="node25" class="node">
<title>Node25</title>
<g id="a_node25"><a xlink:href="class_o_c_a_1_1_c_a_f_e_v_d_b_1_1_email_form_1_1_recipients_filter.html#adc12d97d4d6b670014369f82669309c1" target="_top" xlink:title="Push the current filter selection onto the undo&#45;history stack.">
<polygon fill="white" stroke="#666666" points="605,-398 536,-398 536,-379 605,-379 605,-398"/>
<text text-anchor="middle" x="570.5" y="-386" font-family="Helvetica,sans-Serif" font-size="10.00">pushHistory</text>
</a>
</g>
</g>
<!-- Node4&#45;&gt;Node25 -->
<g id="edge35" class="edge">
<title>Node4&#45;&gt;Node25</title>
<path fill="none" stroke="#63b8ff" d="M267.76,-341.1C288.18,-348.63 318.06,-358.77 345,-364.5 406.37,-377.56 478.76,-383.67 524.4,-386.42"/>
<polygon fill="#63b8ff" stroke="#63b8ff" points="523.99,-389.9 534.18,-386.97 524.39,-382.91 523.99,-389.9"/>
</g>
<!-- Node26 -->
<g id="node26" class="node">
<title>Node26</title>
<g id="a_node26"><a xlink:href="class_o_c_a_1_1_c_a_f_e_v_d_b_1_1_email_form_1_1_recipients_filter.html#a14e60602822b0301e2ece2c15c4e0d82" target="_top" xlink:title="This function is called at the very start.">
<polygon fill="white" stroke="#666666" points="463.5,-510 358.5,-510 358.5,-491 463.5,-491 463.5,-510"/>
<text text-anchor="middle" x="411" y="-498" font-family="Helvetica,sans-Serif" font-size="10.00">remapEmailRecords</text>
</a>
</g>
</g>
<!-- Node4&#45;&gt;Node26 -->
<g id="edge39" class="edge">
<title>Node4&#45;&gt;Node26</title>
<path fill="none" stroke="#63b8ff" d="M246.78,-341.38C257.63,-368.41 291.58,-444.08 345,-482.5 346.54,-483.6 348.14,-484.64 349.79,-485.61"/>
<polygon fill="#63b8ff" stroke="#63b8ff" points="347.83,-488.55 358.35,-489.85 350.94,-482.28 347.83,-488.55"/>
</g>
<!-- Node27 -->
<g id="node27" class="node">
<title>Node27</title>
<g id="a_node27"><a xlink:href="class_o_c_a_1_1_c_a_f_e_v_d_b_1_1_email_form_1_1_recipients_filter.html#a0eece8535c88d9bc8da320736157b53b" target="_top" xlink:title="Store the history to somewhere, probably the session&#45;data.">
<polygon fill="white" stroke="#666666" points="446,-436 376,-436 376,-417 446,-417 446,-436"/>
<text text-anchor="middle" x="411" y="-424" font-family="Helvetica,sans-Serif" font-size="10.00">storeHistory</text>
</a>
</g>
</g>
<!-- Node4&#45;&gt;Node27 -->
<g id="edge41" class="edge">
<title>Node4&#45;&gt;Node27</title>
<path fill="none" stroke="#63b8ff" d="M254.91,-341.31C273.32,-356.11 310.19,-384.34 345,-402.5 352.1,-406.21 359.91,-409.61 367.58,-412.61"/>
<polygon fill="#63b8ff" stroke="#63b8ff" points="366.22,-415.84 376.81,-416.06 368.66,-409.29 366.22,-415.84"/>
</g>
<!-- Node6&#45;&gt;Node7 -->
<g id="edge6" class="edge">
<title>Node6&#45;&gt;Node7</title>
<path fill="none" stroke="#63b8ff" d="M606.14,-310.5C627.59,-310.5 655.34,-310.5 678.36,-310.5"/>
<polygon fill="#63b8ff" stroke="#63b8ff" points="678.06,-314 688.06,-310.5 678.06,-307 678.06,-314"/>
</g>
<!-- Node7&#45;&gt;Node7 -->
<g id="edge7" class="edge">
<title>Node7&#45;&gt;Node7</title>
<path fill="none" stroke="#63b8ff" d="M699.55,-320.37C688.62,-328.94 696.61,-338 723.5,-338 738.63,-338 747.77,-335.13 750.93,-331.1"/>
<polygon fill="#63b8ff" stroke="#63b8ff" points="754.34,-330.24 747.92,-321.81 747.68,-332.4 754.34,-330.24"/>
</g>
<!-- Node8&#45;&gt;Node9 -->
<g id="edge10" class="edge">
<title>Node8&#45;&gt;Node9</title>
<path fill="none" stroke="#63b8ff" d="M764.83,-150.52C783.7,-145.84 806.4,-140.22 826.5,-135.25"/>
<polygon fill="#63b8ff" stroke="#63b8ff" points="827.34,-138.65 836.2,-132.85 825.66,-131.85 827.34,-138.65"/>
</g>
<!-- Node10&#45;&gt;Node3 -->
<g id="edge12" class="edge">
<title>Node10&#45;&gt;Node3</title>
<path fill="none" stroke="#63b8ff" d="M448.11,-603.55C457.52,-600.94 467.64,-598.13 477,-595.5 544.18,-576.63 563.47,-579.04 628,-552.5 652.43,-542.45 678.64,-527.68 697.24,-516.45"/>
<polygon fill="#63b8ff" stroke="#63b8ff" points="699.01,-519.47 705.7,-511.26 695.35,-513.51 699.01,-519.47"/>
</g>
<!-- Node11 -->
<g id="node11" class="node">
<title>Node11</title>
<g id="a_node11"><a xlink:href="class_o_c_a_1_1_c_a_f_e_v_d_b_1_1_email_form_1_1_recipients_filter.html#a37ce309e4090903297fa1c705634537d" target="_top" xlink:title="The default user base.">
<polygon fill="white" stroke="#666666" points="615,-699 526,-699 526,-680 615,-680 615,-699"/>
<text text-anchor="middle" x="570.5" y="-687" font-family="Helvetica,sans-Serif" font-size="10.00">defaultUserBase</text>
</a>
</g>
</g>
<!-- Node10&#45;&gt;Node11 -->
<g id="edge13" class="edge">
<title>Node10&#45;&gt;Node11</title>
<path fill="none" stroke="#63b8ff" d="M432.59,-623.44C459.59,-636.46 507.2,-659.44 538.55,-674.57"/>
<polygon fill="#63b8ff" stroke="#63b8ff" points="537.01,-677.71 547.54,-678.9 540.06,-671.41 537.01,-677.71"/>
</g>
<!-- Node12 -->
<g id="node12" class="node">
<title>Node12</title>
<g id="a_node12"><a xlink:href="class_o_c_a_1_1_c_a_f_e_v_d_b_1_1_email_form_1_1_recipients_filter.html#a180e59b5c87d178df0b6929526f2c38a" target="_top" xlink:title=" ">
<polygon fill="white" stroke="#666666" points="768.5,-699 678.5,-699 678.5,-680 768.5,-680 768.5,-699"/>
<text text-anchor="middle" x="723.5" y="-687" font-family="Helvetica,sans-Serif" font-size="10.00">frozenRecipients</text>
</a>
</g>
</g>
<!-- Node11&#45;&gt;Node12 -->
<g id="edge14" class="edge">
<title>Node11&#45;&gt;Node12</title>
<path fill="none" stroke="#63b8ff" d="M615.18,-689.5C631.24,-689.5 649.66,-689.5 666.65,-689.5"/>
<polygon fill="#63b8ff" stroke="#63b8ff" points="666.62,-693 676.62,-689.5 666.62,-686 666.62,-693"/>
</g>
<!-- Node13&#45;&gt;Node3 -->
<g id="edge16" class="edge">
<title>Node13&#45;&gt;Node3</title>
<path fill="none" stroke="#63b8ff" d="M462.99,-473.47C478.96,-476.35 496.67,-479.31 513,-481.5 573.09,-489.56 643.34,-495.16 685.31,-498.1"/>
<polygon fill="#63b8ff" stroke="#63b8ff" points="684.89,-501.58 695.11,-498.77 685.37,-494.59 684.89,-501.58"/>
</g>
<!-- Node14 -->
<g id="node14" class="node">
<title>Node14</title>
<g id="a_node14"><a xlink:href="class_o_c_a_1_1_c_a_f_e_v_d_b_1_1_email_form_1_1_recipients_filter.html#a2765950b3322c101496bb711b89709ed" target="_top" xlink:title=" ">
<polygon fill="white" stroke="#666666" points="615,-472 526,-472 526,-453 615,-453 615,-472"/>
<text text-anchor="middle" x="570.5" y="-460" font-family="Helvetica,sans-Serif" font-size="10.00">instrumentsFilter</text>
</a>
</g>
</g>
<!-- Node13&#45;&gt;Node14 -->
<g id="edge17" class="edge">
<title>Node13&#45;&gt;Node14</title>
<path fill="none" stroke="#63b8ff" d="M467.09,-463.15C482.35,-463.05 498.93,-462.95 514.21,-462.85"/>
<polygon fill="#63b8ff" stroke="#63b8ff" points="514.11,-466.35 524.09,-462.79 514.07,-459.35 514.11,-466.35"/>
</g>
<!-- Node14&#45;&gt;Node3 -->
<g id="edge18" class="edge">
<title>Node14&#45;&gt;Node3</title>
<path fill="none" stroke="#63b8ff" d="M611.17,-472.48C634.24,-478.29 663.12,-485.56 685.68,-491.23"/>
<polygon fill="#63b8ff" stroke="#63b8ff" points="684.82,-494.63 695.37,-493.67 686.53,-487.84 684.82,-494.63"/>
</g>
<!-- Node17&#45;&gt;Node3 -->
<g id="edge23" class="edge">
<title>Node17&#45;&gt;Node3</title>
<path fill="none" stroke="#63b8ff" d="M615.76,-283.47C620.19,-285.64 624.39,-288.28 628,-291.5 658.03,-318.23 699.48,-432.82 715.65,-480.04"/>
<polygon fill="#63b8ff" stroke="#63b8ff" points="712.27,-480.96 718.79,-489.3 718.9,-478.71 712.27,-480.96"/>
</g>
<!-- Node17&#45;&gt;Node8 -->
<g id="edge24" class="edge">
<title>Node17&#45;&gt;Node8</title>
<path fill="none" stroke="#63b8ff" d="M581.05,-263.69C604.68,-239.42 664,-178.5 664,-178.5 666.02,-177.27 668.13,-176.11 670.3,-175.03"/>
<polygon fill="#63b8ff" stroke="#63b8ff" points="671.6,-178.28 679.39,-171.09 668.82,-171.85 671.6,-178.28"/>
</g>
<!-- Node18&#45;&gt;Node7 -->
<g id="edge26" class="edge">
<title>Node18&#45;&gt;Node7</title>
<path fill="none" stroke="#63b8ff" d="M444.39,-203.95C487.45,-211.85 565.41,-228.45 628,-254.5 653.7,-265.19 680.82,-281.9 699.38,-294.28"/>
<polygon fill="#63b8ff" stroke="#63b8ff" points="697.26,-297.07 707.49,-299.8 701.19,-291.29 697.26,-297.07"/>
</g>
<!-- Node18&#45;&gt;Node19 -->
<g id="edge27" class="edge">
<title>Node18&#45;&gt;Node19</title>
<path fill="none" stroke="#63b8ff" d="M444.25,-190.72C465.23,-185.66 493.06,-178.94 517.17,-173.13"/>
<polygon fill="#63b8ff" stroke="#63b8ff" points="517.92,-176.54 526.82,-170.8 516.28,-169.74 517.92,-176.54"/>
</g>
<!-- Node21 -->
<g id="node21" class="node">
<title>Node21</title>
<g id="a_node21"><a xlink:href="class_o_c_a_1_1_c_a_f_e_v_d_b_1_1_email_form_1_1_recipients_filter.html#a69438f7e0899945b1e31f677ce1251af" target="_top" xlink:title="Validate the given history records, return false on error.">
<polygon fill="white" stroke="#666666" points="611.5,-207 529.5,-207 529.5,-188 611.5,-188 611.5,-207"/>
<text text-anchor="middle" x="570.5" y="-195" font-family="Helvetica,sans-Serif" font-size="10.00">validateHistory</text>
</a>
</g>
</g>
<!-- Node18&#45;&gt;Node21 -->
<g id="edge31" class="edge">
<title>Node18&#45;&gt;Node21</title>
<path fill="none" stroke="#63b8ff" d="M444.25,-198.3C465.46,-198.16 493.68,-197.98 517.97,-197.83"/>
<polygon fill="#63b8ff" stroke="#63b8ff" points="517.67,-201.33 527.65,-197.77 517.63,-194.33 517.67,-201.33"/>
</g>
<!-- Node19&#45;&gt;Node7 -->
<g id="edge30" class="edge">
<title>Node19&#45;&gt;Node7</title>
<path fill="none" stroke="#63b8ff" d="M613.41,-170.45C618.58,-172.64 623.59,-175.29 628,-178.5 649.49,-194.13 690.6,-258.37 710.76,-291.11"/>
<polygon fill="#63b8ff" stroke="#63b8ff" points="707.53,-292.54 715.73,-299.25 713.51,-288.89 707.53,-292.54"/>
</g>
<!-- Node19&#45;&gt;Node8 -->
<g id="edge29" class="edge">
<title>Node19&#45;&gt;Node8</title>
<path fill="none" stroke="#63b8ff" d="M617.21,-160.5C633.44,-160.5 651.84,-160.5 668.68,-160.5"/>
<polygon fill="#63b8ff" stroke="#63b8ff" points="668.52,-164 678.52,-160.5 668.52,-157 668.52,-164"/>
</g>
<!-- Node20 -->
<g id="node20" class="node">
<title>Node20</title>
<g id="a_node20"><a xlink:href="class_o_c_a_1_1_c_a_f_e_v_d_b_1_1_email_form_1_1_recipients_filter.html#a9ceb14e2f27e74da6d3f47217cafac78" target="_top" xlink:title=" ">
<polygon fill="white" stroke="#666666" points="774,-133 673,-133 673,-114 774,-114 774,-133"/>
<text text-anchor="middle" x="723.5" y="-121" font-family="Helvetica,sans-Serif" font-size="10.00">basicRecipientsSet</text>
</a>
</g>
</g>
<!-- Node19&#45;&gt;Node20 -->
<g id="edge28" class="edge">
<title>Node19&#45;&gt;Node20</title>
<path fill="none" stroke="#63b8ff" d="M611.97,-150.58C630.08,-146.15 651.64,-140.86 670.9,-136.14"/>
<polygon fill="#63b8ff" stroke="#63b8ff" points="671.57,-139.58 680.45,-133.8 669.91,-132.78 671.57,-139.58"/>
</g>
<!-- Node22 -->
<g id="node22" class="node">
<title>Node22</title>
<g id="a_node22"><a xlink:href="class_o_c_a_1_1_c_a_f_e_v_d_b_1_1_email_form_1_1_recipients_filter.html#aeeefa163256bf7669c5591e228f57850" target="_top" xlink:title="Validate all history records.">
<polygon fill="white" stroke="#666666" points="783,-207 664,-207 664,-188 783,-188 783,-207"/>
<text text-anchor="middle" x="723.5" y="-195" font-family="Helvetica,sans-Serif" font-size="10.00">validateHistoryRecords</text>
</a>
</g>
</g>
<!-- Node21&#45;&gt;Node22 -->
<g id="edge32" class="edge">
<title>Node21&#45;&gt;Node22</title>
<path fill="none" stroke="#63b8ff" d="M611.97,-197.5C624.39,-197.5 638.43,-197.5 652.25,-197.5"/>
<polygon fill="#63b8ff" stroke="#63b8ff" points="652.24,-201 662.24,-197.5 652.24,-194 652.24,-201"/>
</g>
<!-- Node23 -->
<g id="node23" class="node">
<title>Node23</title>
<g id="a_node23"><a xlink:href="class_o_c_a_1_1_c_a_f_e_v_d_b_1_1_email_form_1_1_recipients_filter.html#a356c7d5f6dcee2bfc20c2285237a341f" target="_top" xlink:title="Validate one history entry.">
<polygon fill="white" stroke="#666666" points="935.5,-207 822.5,-207 822.5,-188 935.5,-188 935.5,-207"/>
<text text-anchor="middle" x="879" y="-195" font-family="Helvetica,sans-Serif" font-size="10.00">validateHistoryRecord</text>
</a>
</g>
</g>
<!-- Node22&#45;&gt;Node23 -->
<g id="edge33" class="edge">
<title>Node22&#45;&gt;Node23</title>
<path fill="none" stroke="#63b8ff" d="M783.41,-197.5C792.33,-197.5 801.58,-197.5 810.66,-197.5"/>
<polygon fill="#63b8ff" stroke="#63b8ff" points="810.51,-201 820.51,-197.5 810.51,-194 810.51,-201"/>
</g>
<!-- Node25&#45;&gt;Node3 -->
<g id="edge36" class="edge">
<title>Node25&#45;&gt;Node3</title>
<path fill="none" stroke="#63b8ff" d="M584.9,-398.44C610.93,-417.75 668.58,-460.5 700.37,-484.09"/>
<polygon fill="#63b8ff" stroke="#63b8ff" points="698.01,-486.7 708.13,-489.84 702.18,-481.07 698.01,-486.7"/>
</g>
<!-- Node25&#45;&gt;Node7 -->
<g id="edge37" class="edge">
<title>Node25&#45;&gt;Node7</title>
<path fill="none" stroke="#63b8ff" d="M596.54,-378.61C606.45,-374.5 617.88,-369.52 628,-364.5 651.74,-352.72 677.83,-337.64 696.58,-326.41"/>
<polygon fill="#63b8ff" stroke="#63b8ff" points="698.38,-329.41 705.13,-321.24 694.76,-323.42 698.38,-329.41"/>
</g>
</g>
</svg>
        <g id="navigator" transform="translate(0 0)" fill="#404254">
                <rect fill="#f2f5e9" fill-opacity="0.5" stroke="#606060" stroke-width=".5" x="0" y="0" width="60" height="60"/>
                <use id="zoomplus" xlink:href="#zoomPlus" x="17" y="9" onmousedown="handleZoom(evt,'in')"/>
                <use id="zoomminus" xlink:href="#zoomMin" x="42" y="9" onmousedown="handleZoom(evt,'out')"/>
                <use id="reset" xlink:href="#resetDef" x="30" y="36" onmousedown="handleReset()"/>
                <g id="arrowUp" xlink:href="#dirArrow" transform="translate(30 24)" onmousedown="handlePan(0,-1)">
                  <use xlink:href="#rim" fill="#404040">
                        <set attributeName="fill" to="#808080" begin="arrowUp.mouseover" end="arrowUp.mouseout"/>
                  </use>
                  <path fill="none" stroke="white" stroke-width="1.5" d="M0,-3.0v7 M-2.5,-0.5L0,-3.0L2.5,-0.5"/>
                </g>
                <g id="arrowRight" xlink:href="#dirArrow" transform="rotate(90) translate(36 -43)" onmousedown="handlePan(1,0)">
                  <use xlink:href="#rim" fill="#404040">
                        <set attributeName="fill" to="#808080" begin="arrowRight.mouseover" end="arrowRight.mouseout"/>
                  </use>
                  <path fill="none" stroke="white" stroke-width="1.5" d="M0,-3.0v7 M-2.5,-0.5L0,-3.0L2.5,-0.5"/>
                </g>
                <g id="arrowDown" xlink:href="#dirArrow" transform="rotate(180) translate(-30 -48)" onmousedown="handlePan(0,1)">
                  <use xlink:href="#rim" fill="#404040">
                        <set attributeName="fill" to="#808080" begin="arrowDown.mouseover" end="arrowDown.mouseout"/>
                  </use>
                  <path fill="none" stroke="white" stroke-width="1.5" d="M0,-3.0v7 M-2.5,-0.5L0,-3.0L2.5,-0.5"/>
                </g>
                <g id="arrowLeft" xlink:href="#dirArrow" transform="rotate(270) translate(-36 17)" onmousedown="handlePan(-1,0)">
                  <use xlink:href="#rim" fill="#404040">
                        <set attributeName="fill" to="#808080" begin="arrowLeft.mouseover" end="arrowLeft.mouseout"/>
                  </use>
                  <path fill="none" stroke="white" stroke-width="1.5" d="M0,-3.0v7 M-2.5,-0.5L0,-3.0L2.5,-0.5"/>
                </g>
        </g>
        <svg viewBox="0 0 15 15" width="100%" height="30px" preserveAspectRatio="xMaxYMin meet">
         <g id="arrow_out" transform="scale(0.3 0.3)">
          <a xlink:href="class_o_c_a_1_1_c_a_f_e_v_d_b_1_1_email_form_1_1_recipients_filter_a1a3fa621489e73c7386685aa0e152c30_cgraph_org.svg" target="_base">
           <rect id="button" ry="5" rx="5" y="6" x="6" height="38" width="38"
                fill="#f2f5e9" fill-opacity="0.5" stroke="#606060" stroke-width="1.0"/>
           <path id="arrow"
             d="M 11.500037,31.436501 C 11.940474,20.09759 22.043105,11.32322 32.158766,21.979434 L 37.068811,17.246167 C 37.068811,17.246167 37.088388,32 37.088388,32 L 22.160133,31.978069 C 22.160133,31.978069 26.997745,27.140456 26.997745,27.140456 C 18.528582,18.264221 13.291696,25.230495 11.500037,31.436501 z"
             style="fill:#404040;"/>
          </a>
         </g>
        </svg>
</svg>
