<?xml version="1.0" encoding="UTF-8" standalone="no"?>
<!DOCTYPE svg PUBLIC "-//W3C//DTD SVG 1.1//EN"
 "http://www.w3.org/Graphics/SVG/1.1/DTD/svg11.dtd">
<!-- Generated by graphviz version 8.0.3 (20230416.2022)
 -->
<!-- Title: legacyRecordToEntityId Pages: 1 -->
<svg width="499pt" height="70pt"
 viewBox="0.00 0.00 499.00 69.50" xmlns="http://www.w3.org/2000/svg" xmlns:xlink="http://www.w3.org/1999/xlink">
<g id="graph0" class="graph" transform="scale(1 1) rotate(0) translate(4 65.5)">
<title>legacyRecordToEntityId</title>
<!-- Node1 -->
<g id="node1" class="node">
<title>Node1</title>
<g id="a_node1"><a xlink:title="Convert the given legacy PHPMyEdit record id as given by the member variable PHPMyEdit::rec to someth...">
<polygon fill="#999999" stroke="#666666" points="491,-42.5 370,-42.5 370,-23.5 491,-23.5 491,-42.5"/>
<text text-anchor="middle" x="430.5" y="-30.5" font-family="Helvetica,sans-Serif" font-size="10.00">legacyRecordToEntityId</text>
</a>
</g>
</g>
<!-- Node2 -->
<g id="node2" class="node">
<title>Node2</title>
<g id="a_node2"><a xlink:href="class_o_c_a_1_1_c_a_f_e_v_d_b_1_1_page_renderer_1_1_p_m_e_table_view_base.html#a55f854e5c60ee53f8fc408fbd4127ac1" target="_top" xlink:title="This trigger simply deletes the given entity and prevents the legacy PHPMyEdit class to do the deleti...">
<polygon fill="white" stroke="#666666" points="334,-61.5 191,-61.5 191,-42.5 334,-42.5 334,-61.5"/>
<text text-anchor="middle" x="262.5" y="-49.5" font-family="Helvetica,sans-Serif" font-size="10.00">beforeDeleteSimplyDoDelete</text>
</a>
</g>
</g>
<!-- Node1&#45;&gt;Node2 -->
<g id="edge1" class="edge">
<title>Node1&#45;&gt;Node2</title>
<path fill="none" stroke="#63b8ff" d="M358.71,-41.1C350.64,-42.03 342.43,-42.97 334.37,-43.89"/>
<polygon fill="#63b8ff" stroke="#63b8ff" points="359.03,-44.47 368.57,-39.86 358.24,-37.52 359.03,-44.47"/>
</g>
<!-- Node3 -->
<g id="node3" class="node">
<title>Node3</title>
<g id="a_node3"><a xlink:href="class_o_c_a_1_1_c_a_f_e_v_d_b_1_1_page_renderer_1_1_p_m_e_table_view_base.html#a05ff3063af06ba0e1c19849c99234b1c" target="_top" xlink:title="Convert the given legacy PHPMyEdit record id as given by the member variable PHPMyEdit::rec to someth...">
<polygon fill="white" stroke="#666666" points="319,-24.5 206,-24.5 206,-5.5 319,-5.5 319,-24.5"/>
<text text-anchor="middle" x="262.5" y="-12.5" font-family="Helvetica,sans-Serif" font-size="10.00">legacyRecordToEntity</text>
</a>
</g>
</g>
<!-- Node1&#45;&gt;Node3 -->
<g id="edge2" class="edge">
<title>Node1&#45;&gt;Node3</title>
<path fill="none" stroke="#63b8ff" d="M358.69,-25.32C345.58,-23.9 332.06,-22.43 319.47,-21.07"/>
<polygon fill="#63b8ff" stroke="#63b8ff" points="358.25,-28.9 368.57,-26.5 359.01,-21.94 358.25,-28.9"/>
</g>
<!-- Node4 -->
<g id="node4" class="node">
<title>Node4</title>
<g id="a_node4"><a xlink:href="class_o_c_a_1_1_c_a_f_e_v_d_b_1_1_page_renderer_1_1_musicians.html#af5fcd7270e0aafbf684fba2b7fbea4bd" target="_top" xlink:title="This is a phpMyEdit before&#45;SOMETHING trigger.">
<polygon fill="white" stroke="#666666" points="155,-30 0,-30 0,0 155,0 155,-30"/>
<text text-anchor="start" x="8" y="-18" font-family="Helvetica,sans-Serif" font-size="10.00">OCA\CAFEVDB\PageRenderer</text>
<text text-anchor="middle" x="77.5" y="-7" font-family="Helvetica,sans-Serif" font-size="10.00">\Musicians\beforeDeleteTrigger</text>
</a>
</g>
</g>
<!-- Node3&#45;&gt;Node4 -->
<g id="edge3" class="edge">
<title>Node3&#45;&gt;Node4</title>
<path fill="none" stroke="#63b8ff" d="M194.97,-15C182.08,-15 168.47,-15 155.28,-15"/>
<polygon fill="#63b8ff" stroke="#63b8ff" points="194.6,-18.5 204.6,-15 194.6,-11.5 194.6,-18.5"/>
</g>
</g>
</svg>
