<?xml version="1.0" encoding="UTF-8" standalone="no"?>
<!DOCTYPE svg PUBLIC "-//W3C//DTD SVG 1.1//EN"
 "http://www.w3.org/Graphics/SVG/1.1/DTD/svg11.dtd">
<!-- Generated by graphviz version 8.0.3 (20230416.2022)
 -->
<!-- Title: otherAddress Pages: 1 -->
<svg width="285pt" height="46pt"
 viewBox="0.00 0.00 285.00 46.00" xmlns="http://www.w3.org/2000/svg" xmlns:xlink="http://www.w3.org/1999/xlink">
<g id="graph0" class="graph" transform="scale(1 1) rotate(0) translate(4 42)">
<title>otherAddress</title>
<!-- Node1 -->
<g id="node1" class="node">
<title>Node1</title>
<g id="a_node1"><a xlink:title=" ">
<polygon fill="#999999" stroke="#666666" points="277,-38 203,-38 203,-19 277,-19 277,-38"/>
<text text-anchor="middle" x="240" y="-26" font-family="Helvetica,sans-Serif" font-size="10.00">otherAddress</text>
</a>
</g>
</g>
<!-- Node2 -->
<g id="node2" class="node">
<title>Node2</title>
<g id="a_node2"><a xlink:href="class_o_c_a_1_1_c_a_f_e_v_d_b_1_1_maintenance_1_1_sanitizers_1_1_google_mail_sanitizer.html#ab6f35bf773b3e078c9f9acd8e4f8de84" target="_top" xlink:title="{{Call sanitize(SANITIZE_PERSIST, $flush).void\SanitizerException}}">
<polygon fill="white" stroke="#666666" points="81,-38 0,-38 0,-19 81,-19 81,-38"/>
<text text-anchor="middle" x="40.5" y="-26" font-family="Helvetica,sans-Serif" font-size="10.00">sanitizePersist</text>
</a>
</g>
</g>
<!-- Node1&#45;&gt;Node2 -->
<g id="edge1" class="edge">
<title>Node1&#45;&gt;Node2</title>
<path fill="none" stroke="#63b8ff" d="M191.79,-28.5C158.05,-28.5 113.14,-28.5 81.23,-28.5"/>
<polygon fill="#63b8ff" stroke="#63b8ff" points="191.78,-32 201.78,-28.5 191.78,-25 191.78,-32"/>
</g>
<!-- Node3 -->
<g id="node3" class="node">
<title>Node3</title>
<g id="a_node3"><a xlink:href="class_o_c_a_1_1_c_a_f_e_v_d_b_1_1_maintenance_1_1_sanitizers_1_1_google_mail_sanitizer.html#a184909dab34698899937d810a9f5d393" target="_top" xlink:title="{{bool Return \true if the entity is ok to the judgement of this sanitizer, \false otherwise....">
<polygon fill="white" stroke="#666666" points="167,-19 117,-19 117,0 167,0 167,-19"/>
<text text-anchor="middle" x="142" y="-7" font-family="Helvetica,sans-Serif" font-size="10.00">validate</text>
</a>
</g>
</g>
<!-- Node1&#45;&gt;Node3 -->
<g id="edge2" class="edge">
<title>Node1&#45;&gt;Node3</title>
<path fill="none" stroke="#63b8ff" d="M192.02,-19.2C183.51,-17.52 174.95,-15.82 167.42,-14.33"/>
<polygon fill="#63b8ff" stroke="#63b8ff" points="191.22,-22.81 201.71,-21.32 192.58,-15.94 191.22,-22.81"/>
</g>
<!-- Node3&#45;&gt;Node2 -->
<g id="edge3" class="edge">
<title>Node3&#45;&gt;Node2</title>
<path fill="none" stroke="#63b8ff" d="M105.94,-16.2C98.03,-17.71 89.58,-19.32 81.48,-20.87"/>
<polygon fill="#63b8ff" stroke="#63b8ff" points="106.49,-19.46 115.66,-14.15 105.18,-12.59 106.49,-19.46"/>
</g>
</g>
</svg>
