<?xml version="1.0" encoding="UTF-8" standalone="no"?>
<!DOCTYPE svg PUBLIC "-//W3C//DTD SVG 1.1//EN"
 "http://www.w3.org/Graphics/SVG/1.1/DTD/svg11.dtd">
<!-- Generated by graphviz version 7.1.0 (20230121.1956)
 -->
<!-- Title: criteriaWhere Pages: 1 -->
<svg width="285pt" height="458pt"
 viewBox="0.00 0.00 285.00 458.00" xmlns="http://www.w3.org/2000/svg" xmlns:xlink="http://www.w3.org/1999/xlink">
<g id="graph0" class="graph" transform="scale(1 1) rotate(0) translate(4 454)">
<title>criteriaWhere</title>
<!-- Node1 -->
<g id="node1" class="node">
<title>Node1</title>
<g id="a_node1"><a xlink:title="Convenience function.">
<polygon fill="#999999" stroke="#666666" points="277,-245.5 203,-245.5 203,-226.5 277,-226.5 277,-245.5"/>
<text text-anchor="middle" x="240" y="-233.5" font-family="Helvetica,sans-Serif" font-size="10.00">criteriaWhere</text>
</a>
</g>
</g>
<!-- Node2 -->
<g id="node2" class="node">
<title>Node2</title>
<g id="a_node2"><a xlink:href="namespace_o_c_a_1_1_c_a_f_e_v_d_b_1_1_traits.html#aafe8e2082bd107d572aa76086a06b24e" target="_top" xlink:title=" ">
<polygon fill="white" stroke="#666666" points="142,-450 25,-450 25,-420 142,-420 142,-450"/>
<text text-anchor="start" x="33" y="-438" font-family="Helvetica,sans-Serif" font-size="10.00">OCA\CAFEVDB\Traits</text>
<text text-anchor="middle" x="83.5" y="-427" font-family="Helvetica,sans-Serif" font-size="10.00">\criteriaWhere</text>
</a>
</g>
</g>
<!-- Node1&#45;&gt;Node2 -->
<g id="edge1" class="edge">
<title>Node1&#45;&gt;Node2</title>
<path fill="none" stroke="#63b8ff" d="M236.34,-256.79C230.54,-293.38 213.35,-369.37 167,-411 159.9,-417.38 151.19,-422.07 142.12,-425.51"/>
<polygon fill="#63b8ff" stroke="#63b8ff" points="239.77,-257.5 237.73,-247.11 232.84,-256.51 239.77,-257.5"/>
</g>
<!-- Node3 -->
<g id="node3" class="node">
<title>Node3</title>
<g id="a_node3"><a xlink:href="class_o_c_a_1_1_c_a_f_e_v_d_b_1_1_database_1_1_doctrine_1_1_o_r_m_1_1_entities_1_1_database_storage_folder.html#aaccc30214fd11a89620910ae83cb2b31" target="_top" xlink:title=" ">
<polygon fill="white" stroke="#666666" points="150.5,-402 16.5,-402 16.5,-350 150.5,-350 150.5,-402"/>
<text text-anchor="start" x="24.5" y="-390" font-family="Helvetica,sans-Serif" font-size="10.00">OCA\CAFEVDB\Database</text>
<text text-anchor="start" x="24.5" y="-379" font-family="Helvetica,sans-Serif" font-size="10.00">\Doctrine\ORM\Entities</text>
<text text-anchor="start" x="24.5" y="-368" font-family="Helvetica,sans-Serif" font-size="10.00">\DatabaseStorageFolder</text>
<text text-anchor="middle" x="83.5" y="-357" font-family="Helvetica,sans-Serif" font-size="10.00">\getEntryByName</text>
</a>
</g>
</g>
<!-- Node1&#45;&gt;Node3 -->
<g id="edge2" class="edge">
<title>Node1&#45;&gt;Node3</title>
<path fill="none" stroke="#63b8ff" d="M229.79,-255.82C218.11,-279.03 195.97,-317.31 167,-341 162.06,-345.04 156.59,-348.68 150.88,-351.95"/>
<polygon fill="#63b8ff" stroke="#63b8ff" points="232.79,-257.66 234,-247.13 226.49,-254.6 232.79,-257.66"/>
</g>
<!-- Node4 -->
<g id="node4" class="node">
<title>Node4</title>
<g id="a_node4"><a xlink:href="class_o_c_a_1_1_c_a_f_e_v_d_b_1_1_database_1_1_doctrine_1_1_o_r_m_1_1_entities_1_1_database_storage_folder.html#ae3f26d0c9ab593df3331ca906567a115" target="_top" xlink:title=" ">
<polygon fill="white" stroke="#666666" points="150.5,-332 16.5,-332 16.5,-280 150.5,-280 150.5,-332"/>
<text text-anchor="start" x="24.5" y="-320" font-family="Helvetica,sans-Serif" font-size="10.00">OCA\CAFEVDB\Database</text>
<text text-anchor="start" x="24.5" y="-309" font-family="Helvetica,sans-Serif" font-size="10.00">\Doctrine\ORM\Entities</text>
<text text-anchor="start" x="24.5" y="-298" font-family="Helvetica,sans-Serif" font-size="10.00">\DatabaseStorageFolder</text>
<text text-anchor="middle" x="83.5" y="-287" font-family="Helvetica,sans-Serif" font-size="10.00">\getFileByName</text>
</a>
</g>
</g>
<!-- Node1&#45;&gt;Node4 -->
<g id="edge3" class="edge">
<title>Node1&#45;&gt;Node4</title>
<path fill="none" stroke="#63b8ff" d="M209.09,-250.96C196.21,-257.3 180.94,-264.66 167,-271 160.77,-273.83 154.24,-276.73 147.71,-279.58"/>
<polygon fill="#63b8ff" stroke="#63b8ff" points="210.5,-254.17 217.91,-246.6 207.39,-247.9 210.5,-254.17"/>
</g>
<!-- Node5 -->
<g id="node5" class="node">
<title>Node5</title>
<g id="a_node5"><a xlink:href="class_o_c_a_1_1_c_a_f_e_v_d_b_1_1_database_1_1_doctrine_1_1_o_r_m_1_1_entities_1_1_database_storage_folder.html#ad8bd1b1e4e8f449108639d5add09edb7" target="_top" xlink:title=" ">
<polygon fill="white" stroke="#666666" points="150.5,-262 16.5,-262 16.5,-210 150.5,-210 150.5,-262"/>
<text text-anchor="start" x="24.5" y="-250" font-family="Helvetica,sans-Serif" font-size="10.00">OCA\CAFEVDB\Database</text>
<text text-anchor="start" x="24.5" y="-239" font-family="Helvetica,sans-Serif" font-size="10.00">\Doctrine\ORM\Entities</text>
<text text-anchor="start" x="24.5" y="-228" font-family="Helvetica,sans-Serif" font-size="10.00">\DatabaseStorageFolder</text>
<text text-anchor="middle" x="83.5" y="-217" font-family="Helvetica,sans-Serif" font-size="10.00">\getFolderByName</text>
</a>
</g>
</g>
<!-- Node1&#45;&gt;Node5 -->
<g id="edge4" class="edge">
<title>Node1&#45;&gt;Node5</title>
<path fill="none" stroke="#63b8ff" d="M191.4,-236C178.57,-236 164.45,-236 150.79,-236"/>
<polygon fill="#63b8ff" stroke="#63b8ff" points="191.26,-239.5 201.26,-236 191.26,-232.5 191.26,-239.5"/>
</g>
<!-- Node6 -->
<g id="node6" class="node">
<title>Node6</title>
<g id="a_node6"><a xlink:href="class_o_c_a_1_1_c_a_f_e_v_d_b_1_1_database_1_1_doctrine_1_1_o_r_m_1_1_entities_1_1_project_participant_field.html#abba1d644a20b16908a615d2409b81720" target="_top" xlink:title="Filter field&#45;data by musician.">
<polygon fill="white" stroke="#666666" points="150.5,-192 16.5,-192 16.5,-140 150.5,-140 150.5,-192"/>
<text text-anchor="start" x="24.5" y="-180" font-family="Helvetica,sans-Serif" font-size="10.00">OCA\CAFEVDB\Database</text>
<text text-anchor="start" x="24.5" y="-169" font-family="Helvetica,sans-Serif" font-size="10.00">\Doctrine\ORM\Entities</text>
<text text-anchor="start" x="24.5" y="-158" font-family="Helvetica,sans-Serif" font-size="10.00">\ProjectParticipantField</text>
<text text-anchor="middle" x="83.5" y="-147" font-family="Helvetica,sans-Serif" font-size="10.00">\getMusicianFieldData</text>
</a>
</g>
</g>
<!-- Node1&#45;&gt;Node6 -->
<g id="edge5" class="edge">
<title>Node1&#45;&gt;Node6</title>
<path fill="none" stroke="#63b8ff" d="M209.09,-221.04C196.21,-214.7 180.94,-207.34 167,-201 160.77,-198.17 154.24,-195.27 147.71,-192.42"/>
<polygon fill="#63b8ff" stroke="#63b8ff" points="207.39,-224.1 217.91,-225.4 210.5,-217.83 207.39,-224.1"/>
</g>
<!-- Node7 -->
<g id="node7" class="node">
<title>Node7</title>
<g id="a_node7"><a xlink:href="class_o_c_a_1_1_c_a_f_e_v_d_b_1_1_database_1_1_doctrine_1_1_o_r_m_1_1_entities_1_1_project_participant_field_data_option.html#abba1d644a20b16908a615d2409b81720" target="_top" xlink:title="Filter field&#45;data by musician.">
<polygon fill="white" stroke="#666666" points="167,-122 0,-122 0,-70 167,-70 167,-122"/>
<text text-anchor="start" x="8" y="-110" font-family="Helvetica,sans-Serif" font-size="10.00">OCA\CAFEVDB\Database</text>
<text text-anchor="start" x="8" y="-99" font-family="Helvetica,sans-Serif" font-size="10.00">\Doctrine\ORM\Entities</text>
<text text-anchor="start" x="8" y="-88" font-family="Helvetica,sans-Serif" font-size="10.00">\ProjectParticipantFieldDataOption</text>
<text text-anchor="middle" x="83.5" y="-77" font-family="Helvetica,sans-Serif" font-size="10.00">\getMusicianFieldData</text>
</a>
</g>
</g>
<!-- Node1&#45;&gt;Node7 -->
<g id="edge6" class="edge">
<title>Node1&#45;&gt;Node7</title>
<path fill="none" stroke="#63b8ff" d="M229.79,-216.18C218.11,-192.97 195.97,-154.69 167,-131 163.15,-127.85 158.97,-124.94 154.6,-122.26"/>
<polygon fill="#63b8ff" stroke="#63b8ff" points="226.49,-217.4 234,-224.87 232.79,-214.34 226.49,-217.4"/>
</g>
<!-- Node8 -->
<g id="node8" class="node">
<title>Node8</title>
<g id="a_node8"><a xlink:href="class_o_c_a_1_1_c_a_f_e_v_d_b_1_1_database_1_1_doctrine_1_1_o_r_m_1_1_entities_1_1_project_participant_field.html#a89b1874ae24baa224ffd642bbb1f6437" target="_top" xlink:title="Search an option by its label.">
<polygon fill="white" stroke="#666666" points="150.5,-52 16.5,-52 16.5,0 150.5,0 150.5,-52"/>
<text text-anchor="start" x="24.5" y="-40" font-family="Helvetica,sans-Serif" font-size="10.00">OCA\CAFEVDB\Database</text>
<text text-anchor="start" x="24.5" y="-29" font-family="Helvetica,sans-Serif" font-size="10.00">\Doctrine\ORM\Entities</text>
<text text-anchor="start" x="24.5" y="-18" font-family="Helvetica,sans-Serif" font-size="10.00">\ProjectParticipantField</text>
<text text-anchor="middle" x="83.5" y="-7" font-family="Helvetica,sans-Serif" font-size="10.00">\getOptionByLabel</text>
</a>
</g>
</g>
<!-- Node1&#45;&gt;Node8 -->
<g id="edge7" class="edge">
<title>Node1&#45;&gt;Node8</title>
<path fill="none" stroke="#63b8ff" d="M235.73,-215.24C229.05,-179.29 210.61,-105.09 167,-61 162.19,-56.13 156.59,-51.91 150.62,-48.24"/>
<polygon fill="#63b8ff" stroke="#63b8ff" points="232.22,-215.49 237.37,-224.76 239.12,-214.31 232.22,-215.49"/>
</g>
</g>
</svg>
