<?xml version="1.0" encoding="UTF-8" standalone="no"?>
<!DOCTYPE svg PUBLIC "-//W3C//DTD SVG 1.1//EN"
 "http://www.w3.org/Graphics/SVG/1.1/DTD/svg11.dtd">
<!-- Generated by graphviz version 8.0.3 (20230416.2022)
 -->
<!-- Title: getUri Pages: 1 -->
<svg width="240pt" height="27pt"
 viewBox="0.00 0.00 240.00 27.00" xmlns="http://www.w3.org/2000/svg" xmlns:xlink="http://www.w3.org/1999/xlink">
<g id="graph0" class="graph" transform="scale(1 1) rotate(0) translate(4 23)">
<title>getUri</title>
<!-- Node1 -->
<g id="node1" class="node">
<title>Node1</title>
<g id="a_node1"><a xlink:title="{}">
<polygon fill="#999999" stroke="#666666" points="232,-19 189,-19 189,0 232,0 232,-19"/>
<text text-anchor="middle" x="210.5" y="-7" font-family="Helvetica,sans-Serif" font-size="10.00">getUri</text>
</a>
</g>
</g>
<!-- Node2 -->
<g id="node2" class="node">
<title>Node2</title>
<g id="a_node2"><a xlink:href="class_o_c_a_1_1_c_a_f_e_v_d_b_1_1_address_book_1_1_contacts_address_book.html#a7594853934d47ab95f6e0950822e57a0" target="_top" xlink:title="The search() function has to return its result in a certain format, generate that for a single VCard ...">
<polygon fill="white" stroke="#666666" points="153,-19 82,-19 82,0 153,0 153,-19"/>
<text text-anchor="middle" x="117.5" y="-7" font-family="Helvetica,sans-Serif" font-size="10.00">vCard2Array</text>
</a>
</g>
</g>
<!-- Node1&#45;&gt;Node2 -->
<g id="edge1" class="edge">
<title>Node1&#45;&gt;Node2</title>
<path fill="none" stroke="#63b8ff" d="M178.11,-9.5C170.12,-9.5 161.5,-9.5 153.35,-9.5"/>
<polygon fill="#63b8ff" stroke="#63b8ff" points="177.85,-13 187.85,-9.5 177.85,-6 177.85,-13"/>
</g>
<!-- Node3 -->
<g id="node3" class="node">
<title>Node3</title>
<g id="a_node3"><a xlink:href="class_o_c_a_1_1_c_a_f_e_v_d_b_1_1_address_book_1_1_contacts_address_book.html#ade10913924a42fd235b6a31b5ad468db" target="_top" xlink:title="{}">
<polygon fill="white" stroke="#666666" points="46,-19 0,-19 0,0 46,0 46,-19"/>
<text text-anchor="middle" x="23" y="-7" font-family="Helvetica,sans-Serif" font-size="10.00">search</text>
</a>
</g>
</g>
<!-- Node2&#45;&gt;Node3 -->
<g id="edge2" class="edge">
<title>Node2&#45;&gt;Node3</title>
<path fill="none" stroke="#63b8ff" d="M70.58,-9.5C62.17,-9.5 53.75,-9.5 46.42,-9.5"/>
<polygon fill="#63b8ff" stroke="#63b8ff" points="70.53,-13 80.53,-9.5 70.53,-6 70.53,-13"/>
</g>
</g>
</svg>
