<?xml version="1.0" encoding="UTF-8" standalone="no"?>
<!DOCTYPE svg PUBLIC "-//W3C//DTD SVG 1.1//EN"
 "http://www.w3.org/Graphics/SVG/1.1/DTD/svg11.dtd">
<!-- Generated by graphviz version 7.1.0 (20230121.1956)
 -->
<!-- Title: initAppEncryptionKey Pages: 1 -->
<svg width="421pt" height="138pt"
 viewBox="0.00 0.00 421.00 138.00" xmlns="http://www.w3.org/2000/svg" xmlns:xlink="http://www.w3.org/1999/xlink">
<g id="graph0" class="graph" transform="scale(1 1) rotate(0) translate(4 134)">
<title>initAppEncryptionKey</title>
<!-- Node1 -->
<g id="node1" class="node">
<title>Node1</title>
<g id="a_node1"><a xlink:title="Initialize the global symmetric app encryption key used to encrypt shared data.">
<polygon fill="#999999" stroke="#666666" points="110,-74 0,-74 0,-55 110,-55 110,-74"/>
<text text-anchor="middle" x="55" y="-62" font-family="Helvetica,sans-Serif" font-size="10.00">initAppEncryptionKey</text>
</a>
</g>
</g>
<!-- Node2 -->
<g id="node2" class="node">
<title>Node2</title>
<g id="a_node2"><a xlink:href="class_o_c_a_1_1_c_a_f_e_v_d_b_1_1_service_1_1_encryption_service.html#ac00a76ffe038ef8a433357bd4114bb52" target="_top" xlink:title="Test if we a bound to a user.">
<polygon fill="white" stroke="#666666" points="225,-130 182,-130 182,-111 225,-111 225,-130"/>
<text text-anchor="middle" x="203.5" y="-118" font-family="Helvetica,sans-Serif" font-size="10.00">bound</text>
</a>
</g>
</g>
<!-- Node1&#45;&gt;Node2 -->
<g id="edge1" class="edge">
<title>Node1&#45;&gt;Node2</title>
<path fill="none" stroke="#63b8ff" d="M77.97,-74.44C96.05,-82.46 122.45,-93.8 146,-102.5 153.94,-105.43 162.61,-108.34 170.72,-110.94"/>
<polygon fill="#63b8ff" stroke="#63b8ff" points="169.65,-114.27 180.24,-113.91 171.74,-107.59 169.65,-114.27"/>
</g>
<!-- Node3 -->
<g id="node3" class="node">
<title>Node3</title>
<g id="a_node3"><a xlink:href="class_o_c_a_1_1_c_a_f_e_v_d_b_1_1_service_1_1_encryption_service.html#a7f3eb9937785e05b6d3e638fc187072c" target="_top" xlink:title="Fetch the value for the given key and possibly decrypt it.">
<polygon fill="white" stroke="#666666" points="245,-93 162,-93 162,-74 245,-74 245,-93"/>
<text text-anchor="middle" x="203.5" y="-81" font-family="Helvetica,sans-Serif" font-size="10.00">getConfigValue</text>
</a>
</g>
</g>
<!-- Node1&#45;&gt;Node3 -->
<g id="edge2" class="edge">
<title>Node1&#45;&gt;Node3</title>
<path fill="none" stroke="#63b8ff" d="M110.13,-71.52C123.37,-73.24 137.51,-75.07 150.64,-76.77"/>
<polygon fill="#63b8ff" stroke="#63b8ff" points="150,-80.22 160.37,-78.04 150.9,-73.28 150,-80.22"/>
</g>
<!-- Node5 -->
<g id="node5" class="node">
<title>Node5</title>
<g id="a_node5"><a xlink:href="class_o_c_a_1_1_c_a_f_e_v_d_b_1_1_service_1_1_encryption_service.html#a89044dae403670e1950421f9500ab7e4" target="_top" xlink:title=" ">
<polygon fill="white" stroke="#666666" points="261,-56 146,-56 146,-37 261,-37 261,-56"/>
<text text-anchor="middle" x="203.5" y="-44" font-family="Helvetica,sans-Serif" font-size="10.00">getUserEncryptionKey</text>
</a>
</g>
</g>
<!-- Node1&#45;&gt;Node5 -->
<g id="edge4" class="edge">
<title>Node1&#45;&gt;Node5</title>
<path fill="none" stroke="#63b8ff" d="M110.13,-57.85C118,-56.88 126.18,-55.88 134.29,-54.88"/>
<polygon fill="#63b8ff" stroke="#63b8ff" points="134.64,-58.36 144.14,-53.67 133.79,-51.42 134.64,-58.36"/>
</g>
<!-- Node7 -->
<g id="node7" class="node">
<title>Node7</title>
<g id="a_node7"><a xlink:href="class_o_c_a_1_1_c_a_f_e_v_d_b_1_1_service_1_1_encryption_service.html#af00d9a637dd0c0e25a62685bad893023" target="_top" xlink:title=" ">
<polygon fill="white" stroke="#666666" points="235.5,-19 171.5,-19 171.5,0 235.5,0 235.5,-19"/>
<text text-anchor="middle" x="203.5" y="-7" font-family="Helvetica,sans-Serif" font-size="10.00">verifyHash</text>
</a>
</g>
</g>
<!-- Node1&#45;&gt;Node7 -->
<g id="edge6" class="edge">
<title>Node1&#45;&gt;Node7</title>
<path fill="none" stroke="#63b8ff" d="M79.92,-54.51C97.98,-47.07 123.41,-36.81 146,-28.5 150.96,-26.68 156.19,-24.82 161.38,-23.03"/>
<polygon fill="#63b8ff" stroke="#63b8ff" points="162.13,-26.47 170.46,-19.93 159.87,-19.85 162.13,-26.47"/>
</g>
<!-- Node4 -->
<g id="node4" class="node">
<title>Node4</title>
<g id="a_node4"><a xlink:href="class_o_c_a_1_1_c_a_f_e_v_d_b_1_1_service_1_1_encryption_service.html#a6c2a8487a2ff84a0fa4530de4d61d83b" target="_top" xlink:title="A short&#45;cut, redirecting to the stock functions for the app.">
<polygon fill="white" stroke="#666666" points="390.5,-93 319.5,-93 319.5,-74 390.5,-74 390.5,-93"/>
<text text-anchor="middle" x="355" y="-81" font-family="Helvetica,sans-Serif" font-size="10.00">getAppValue</text>
</a>
</g>
</g>
<!-- Node3&#45;&gt;Node4 -->
<g id="edge3" class="edge">
<title>Node3&#45;&gt;Node4</title>
<path fill="none" stroke="#63b8ff" d="M245.35,-83.5C264.72,-83.5 287.94,-83.5 307.93,-83.5"/>
<polygon fill="#63b8ff" stroke="#63b8ff" points="307.77,-87 317.77,-83.5 307.77,-80 307.77,-87"/>
</g>
<!-- Node6 -->
<g id="node6" class="node">
<title>Node6</title>
<g id="a_node6"><a xlink:href="class_o_c_a_1_1_c_a_f_e_v_d_b_1_1_service_1_1_encryption_service.html#adb19126b250726643c9e37b9a15dc6f2" target="_top" xlink:title="Get and decrypt an personal &#39;user&#39; value encrypted with the public key of key&#45;pair.">
<polygon fill="white" stroke="#666666" points="413,-56 297,-56 297,-37 413,-37 413,-56"/>
<text text-anchor="middle" x="355" y="-44" font-family="Helvetica,sans-Serif" font-size="10.00">getSharedPrivateValue</text>
</a>
</g>
</g>
<!-- Node5&#45;&gt;Node6 -->
<g id="edge5" class="edge">
<title>Node5&#45;&gt;Node6</title>
<path fill="none" stroke="#63b8ff" d="M261.45,-46.5C269.3,-46.5 277.43,-46.5 285.46,-46.5"/>
<polygon fill="#63b8ff" stroke="#63b8ff" points="285.2,-50 295.2,-46.5 285.2,-43 285.2,-50"/>
</g>
</g>
</svg>
