<?xml version="1.0" encoding="UTF-8" standalone="no"?>
<!DOCTYPE svg PUBLIC "-//W3C//DTD SVG 1.1//EN"
 "http://www.w3.org/Graphics/SVG/1.1/DTD/svg11.dtd">
<!-- Generated by graphviz version 9.0.0 (20230911.1827)
 -->
<!-- Title: scanFontsFolder Pages: 1 -->
<svg width="501pt" height="28pt"
 viewBox="0.00 0.00 501.00 28.00" xmlns="http://www.w3.org/2000/svg" xmlns:xlink="http://www.w3.org/1999/xlink">
<g id="graph0" class="graph" transform="scale(1 1) rotate(0) translate(4 24)">
<title>scanFontsFolder</title>
<!-- Node1 -->
<g id="Node000001" class="node">
<title>Node1</title>
<g id="a_Node000001"><a xlink:title="Scan the app&#39;s fonts folder and return the contents grouped by font family.">
<polygon fill="#999999" stroke="#666666" points="493,-20 404.25,-20 404.25,0 493,0 493,-20"/>
<text text-anchor="middle" x="448.62" y="-6.5" font-family="Helvetica,sans-Serif" font-size="10.00">scanFontsFolder</text>
</a>
</g>
</g>
<!-- Node2 -->
<g id="Node000002" class="node">
<title>Node2</title>
<g id="a_Node000002"><a xlink:href="class_o_c_a_1_1_c_a_f_e_v_d_b_1_1_service_1_1_font_service.html#ad4a3b7b4eedfc6652afc11bd2f63a89e" target="_top" xlink:title="Obtain the cached contents of the font&#45;folder, grouped by family.">
<polygon fill="white" stroke="#666666" points="368.25,-20 261.5,-20 261.5,0 368.25,0 368.25,-20"/>
<text text-anchor="middle" x="314.88" y="-6.5" font-family="Helvetica,sans-Serif" font-size="10.00">getFontFolderEntries</text>
</a>
</g>
</g>
<!-- Node1&#45;&gt;Node2 -->
<g id="edge1_Node000001_Node000002" class="edge">
<title>Node1&#45;&gt;Node2</title>
<g id="a_edge1_Node000001_Node000002"><a xlink:title=" ">
<path fill="none" stroke="#63b8ff" d="M392.44,-10C384.59,-10 376.52,-10 368.71,-10"/>
<polygon fill="#63b8ff" stroke="#63b8ff" points="392.24,-13.5 402.24,-10 392.24,-6.5 392.24,-13.5"/>
</a>
</g>
</g>
<!-- Node3 -->
<g id="Node000003" class="node">
<title>Node3</title>
<g id="a_Node000003"><a xlink:href="class_o_c_a_1_1_c_a_f_e_v_d_b_1_1_service_1_1_font_service.html#a4f12fbd8873025e70264e416c3cb9308" target="_top" xlink:title="Check whether the given font.">
<polygon fill="white" stroke="#666666" points="225.5,-20 142.75,-20 142.75,0 225.5,0 225.5,-20"/>
<text text-anchor="middle" x="184.12" y="-6.5" font-family="Helvetica,sans-Serif" font-size="10.00">isFontAvailable</text>
</a>
</g>
</g>
<!-- Node2&#45;&gt;Node3 -->
<g id="edge2_Node000002_Node000003" class="edge">
<title>Node2&#45;&gt;Node3</title>
<g id="a_edge2_Node000002_Node000003"><a xlink:title=" ">
<path fill="none" stroke="#63b8ff" d="M249.68,-10C241.54,-10 233.39,-10 225.76,-10"/>
<polygon fill="#63b8ff" stroke="#63b8ff" points="249.62,-13.5 259.62,-10 249.62,-6.5 249.62,-13.5"/>
</a>
</g>
</g>
<!-- Node4 -->
<g id="Node000004" class="node">
<title>Node4</title>
<g id="a_Node000004"><a xlink:href="class_o_c_a_1_1_c_a_f_e_v_d_b_1_1_service_1_1_font_service.html#a5e7ba34cff754351f6d70869594408fa" target="_top" xlink:title="Return the chosen font&#45;default if it is available and set, otherwise one of the installed fonts.">
<polygon fill="white" stroke="#666666" points="106.75,-20 0,-20 0,0 106.75,0 106.75,-20"/>
<text text-anchor="middle" x="53.38" y="-6.5" font-family="Helvetica,sans-Serif" font-size="10.00">getDefaultFontName</text>
</a>
</g>
</g>
<!-- Node3&#45;&gt;Node4 -->
<g id="edge3_Node000003_Node000004" class="edge">
<title>Node3&#45;&gt;Node4</title>
<g id="a_edge3_Node000003_Node000004"><a xlink:title=" ">
<path fill="none" stroke="#63b8ff" d="M131.06,-10C123.17,-10 115.02,-10 107.11,-10"/>
<polygon fill="#63b8ff" stroke="#63b8ff" points="130.87,-13.5 140.87,-10 130.87,-6.5 130.87,-13.5"/>
</a>
</g>
</g>
</g>
</svg>
