<?xml version="1.0" encoding="UTF-8" standalone="no"?>
<!DOCTYPE svg PUBLIC "-//W3C//DTD SVG 1.1//EN"
 "http://www.w3.org/Graphics/SVG/1.1/DTD/svg11.dtd">
<!-- Generated by graphviz version 9.0.0 (20230911.1827)
 -->
<!-- Title: ArchiveException Pages: 1 -->
<svg width="101pt" height="140pt"
 viewBox="0.00 0.00 100.50 140.00" xmlns="http://www.w3.org/2000/svg" xmlns:xlink="http://www.w3.org/1999/xlink">
<g id="graph0" class="graph" transform="scale(1 1) rotate(0) translate(4 136)">
<title>ArchiveException</title>
<!-- Node1 -->
<g id="Node000001" class="node">
<title>Node1</title>
<g id="a_Node000001"><a xlink:title="Transparent archive extraction exception.">
<polygon fill="#999999" stroke="#666666" points="92.5,-20 0,-20 0,0 92.5,0 92.5,-20"/>
<text text-anchor="middle" x="46.25" y="-6.5" font-family="Helvetica,sans-Serif" font-size="10.00">ArchiveException</text>
</a>
</g>
</g>
<!-- Node2 -->
<g id="Node000002" class="node">
<title>Node2</title>
<g id="a_Node000002"><a xlink:href="class_o_c_a_1_1_c_a_f_e_v_d_b_1_1_toolkit_1_1_exceptions_1_1_exception.html" target="_top" xlink:title="Exception class abstaction.">
<polygon fill="white" stroke="#666666" points="76,-76 16.5,-76 16.5,-56 76,-56 76,-76"/>
<text text-anchor="middle" x="46.25" y="-62.5" font-family="Helvetica,sans-Serif" font-size="10.00">Exception</text>
</a>
</g>
</g>
<!-- Node2&#45;&gt;Node1 -->
<g id="edge1_Node000001_Node000002" class="edge">
<title>Node2&#45;&gt;Node1</title>
<g id="a_edge1_Node000001_Node000002"><a xlink:title=" ">
<path fill="none" stroke="#63b8ff" d="M46.25,-44.13C46.25,-35.9 46.25,-26.85 46.25,-20.3"/>
<polygon fill="#63b8ff" stroke="#63b8ff" points="42.75,-44.08 46.25,-54.08 49.75,-44.08 42.75,-44.08"/>
</a>
</g>
</g>
<!-- Node3 -->
<g id="Node000003" class="node">
<title>Node3</title>
<g id="a_Node000003"><a xlink:title=" ">
<polygon fill="white" stroke="#bfbfbf" points="76,-132 16.5,-132 16.5,-112 76,-112 76,-132"/>
<text text-anchor="middle" x="46.25" y="-118.5" font-family="Helvetica,sans-Serif" font-size="10.00">Exception</text>
</a>
</g>
</g>
<!-- Node3&#45;&gt;Node2 -->
<g id="edge2_Node000002_Node000003" class="edge">
<title>Node3&#45;&gt;Node2</title>
<g id="a_edge2_Node000002_Node000003"><a xlink:title=" ">
<path fill="none" stroke="#63b8ff" d="M46.25,-100.13C46.25,-91.9 46.25,-82.85 46.25,-76.3"/>
<polygon fill="#63b8ff" stroke="#63b8ff" points="42.75,-100.08 46.25,-110.08 49.75,-100.08 42.75,-100.08"/>
</a>
</g>
</g>
</g>
</svg>
