<?xml version="1.0" encoding="UTF-8" standalone="no"?>
<!DOCTYPE svg PUBLIC "-//W3C//DTD SVG 1.1//EN"
 "http://www.w3.org/Graphics/SVG/1.1/DTD/svg11.dtd">
<!-- Generated by graphviz version 7.1.0 (20230121.1956)
 -->
<!-- Title: projectEventData Pages: 1 -->
<svg width="536pt" height="172pt"
 viewBox="0.00 0.00 536.00 171.50" xmlns="http://www.w3.org/2000/svg" xmlns:xlink="http://www.w3.org/1999/xlink">
<g id="graph0" class="graph" transform="scale(1 1) rotate(0) translate(4 167.5)">
<title>projectEventData</title>
<!-- Node1 -->
<g id="node1" class="node">
<title>Node1</title>
<g id="a_node1"><a xlink:title="Return event data for given project id and calendar id.">
<polygon fill="#999999" stroke="#666666" points="92,-123 0,-123 0,-104 92,-104 92,-123"/>
<text text-anchor="middle" x="46" y="-111" font-family="Helvetica,sans-Serif" font-size="10.00">projectEventData</text>
</a>
</g>
</g>
<!-- Node2 -->
<g id="node2" class="node">
<title>Node2</title>
<g id="a_node2"><a xlink:href="class_o_c_a_1_1_c_a_f_e_v_d_b_1_1_service_1_1_events_service.html#a8dbd777ef286c3c4b57fa2b6a6a4c205" target="_top" xlink:title=" ">
<polygon fill="white" stroke="#666666" points="218,-160 128,-160 128,-141 218,-141 218,-160"/>
<text text-anchor="middle" x="173" y="-148" font-family="Helvetica,sans-Serif" font-size="10.00">defaultCalendars</text>
</a>
</g>
</g>
<!-- Node1&#45;&gt;Node2 -->
<g id="edge1" class="edge">
<title>Node1&#45;&gt;Node2</title>
<path fill="none" stroke="#63b8ff" d="M80.5,-123.42C94.93,-127.69 112.01,-132.74 127.49,-137.32"/>
<polygon fill="#63b8ff" stroke="#63b8ff" points="126.38,-140.65 136.96,-140.13 128.36,-133.93 126.38,-140.65"/>
</g>
<!-- Node3 -->
<g id="node3" class="node">
<title>Node3</title>
<g id="a_node3"><a xlink:href="class_o_c_a_1_1_c_a_f_e_v_d_b_1_1_service_1_1_events_service.html#ac575a2bdf3198bf0d0af5d4c13c3b90f" target="_top" xlink:title="Form an array with the most relevant event data.">
<polygon fill="white" stroke="#666666" points="204,-123 142,-123 142,-104 204,-104 204,-123"/>
<text text-anchor="middle" x="173" y="-111" font-family="Helvetica,sans-Serif" font-size="10.00">eventData</text>
</a>
</g>
</g>
<!-- Node1&#45;&gt;Node3 -->
<g id="edge2" class="edge">
<title>Node1&#45;&gt;Node3</title>
<path fill="none" stroke="#63b8ff" d="M92.48,-113.5C104.86,-113.5 118.2,-113.5 130.36,-113.5"/>
<polygon fill="#63b8ff" stroke="#63b8ff" points="130.06,-117 140.06,-113.5 130.06,-110 130.06,-117"/>
</g>
<!-- Node5 -->
<g id="node5" class="node">
<title>Node5</title>
<g id="a_node5"><a xlink:href="class_o_c_a_1_1_c_a_f_e_v_d_b_1_1_service_1_1_events_service.html#a2167926c53943f936dd0d8cfb9794449" target="_top" xlink:title="Fetch the list of events associated with $projectId.">
<polygon fill="white" stroke="#666666" points="196,-86 150,-86 150,-67 196,-67 196,-86"/>
<text text-anchor="middle" x="173" y="-74" font-family="Helvetica,sans-Serif" font-size="10.00">events</text>
</a>
</g>
</g>
<!-- Node1&#45;&gt;Node5 -->
<g id="edge4" class="edge">
<title>Node1&#45;&gt;Node5</title>
<path fill="none" stroke="#63b8ff" d="M80.5,-103.58C98.62,-98.22 120.92,-91.62 138.96,-86.28"/>
<polygon fill="#63b8ff" stroke="#63b8ff" points="139.8,-89.68 148.4,-83.49 137.82,-82.97 139.8,-89.68"/>
</g>
<!-- Node4 -->
<g id="node4" class="node">
<title>Node4</title>
<g id="a_node4"><a xlink:href="class_o_c_a_1_1_c_a_f_e_v_d_b_1_1_service_1_1_events_service.html#a1ea272c980bff9ed87a7d69a7e5402c0" target="_top" xlink:title="Form start and end date and time in given timezone and locale.">
<polygon fill="white" stroke="#666666" points="326.5,-123 258.5,-123 258.5,-104 326.5,-104 326.5,-123"/>
<text text-anchor="middle" x="292.5" y="-111" font-family="Helvetica,sans-Serif" font-size="10.00">eventTimes</text>
</a>
</g>
</g>
<!-- Node3&#45;&gt;Node4 -->
<g id="edge3" class="edge">
<title>Node3&#45;&gt;Node4</title>
<path fill="none" stroke="#63b8ff" d="M204.26,-113.5C217.24,-113.5 232.68,-113.5 246.93,-113.5"/>
<polygon fill="#63b8ff" stroke="#63b8ff" points="246.52,-117 256.52,-113.5 246.52,-110 246.52,-117"/>
</g>
<!-- Node6 -->
<g id="node6" class="node">
<title>Node6</title>
<g id="a_node6"><a xlink:href="class_o_c_a_1_1_c_a_f_e_v_d_b_1_1_service_1_1_events_service.html#adb10e26ac6192b69880597d9384f9685" target="_top" xlink:title="Augment the database entity by calendar data.">
<polygon fill="white" stroke="#666666" points="325.5,-86 259.5,-86 259.5,-67 325.5,-67 325.5,-86"/>
<text text-anchor="middle" x="292.5" y="-74" font-family="Helvetica,sans-Serif" font-size="10.00">makeEvent</text>
</a>
</g>
</g>
<!-- Node5&#45;&gt;Node6 -->
<g id="edge5" class="edge">
<title>Node5&#45;&gt;Node6</title>
<path fill="none" stroke="#63b8ff" d="M196.38,-76.5C210.95,-76.5 230.43,-76.5 247.98,-76.5"/>
<polygon fill="#63b8ff" stroke="#63b8ff" points="247.93,-80 257.93,-76.5 247.93,-73 247.93,-80"/>
</g>
<!-- Node11 -->
<g id="node11" class="node">
<title>Node11</title>
<g id="a_node11"><a xlink:href="class_o_c_a_1_1_c_a_f_e_v_d_b_1_1_service_1_1_events_service.html#ad13d1d67b2cf64476789ff3e3bf2a802" target="_top" xlink:title=" ">
<polygon fill="white" stroke="#666666" points="331,-49 254,-49 254,-30 331,-30 331,-49"/>
<text text-anchor="middle" x="292.5" y="-37" font-family="Helvetica,sans-Serif" font-size="10.00">projectEvents</text>
</a>
</g>
</g>
<!-- Node5&#45;&gt;Node11 -->
<g id="edge10" class="edge">
<title>Node5&#45;&gt;Node11</title>
<path fill="none" stroke="#63b8ff" d="M196.38,-69.45C211.27,-64.77 231.29,-58.46 249.13,-52.84"/>
<polygon fill="#63b8ff" stroke="#63b8ff" points="249.95,-56.25 258.44,-49.91 247.85,-49.58 249.95,-56.25"/>
</g>
<!-- Node7 -->
<g id="node7" class="node">
<title>Node7</title>
<g id="a_node7"><a xlink:href="class_o_c_a_1_1_c_a_f_e_v_d_b_1_1_service_1_1_v_calendar_service.html#a20bce1060035becc1a931e3cd65aeecc" target="_top" xlink:title=" ">
<polygon fill="white" stroke="#666666" points="520.5,-163.5 374.5,-163.5 374.5,-133.5 520.5,-133.5 520.5,-163.5"/>
<text text-anchor="start" x="382.5" y="-151.5" font-family="Helvetica,sans-Serif" font-size="10.00">OCA\CAFEVDB\Service</text>
<text text-anchor="middle" x="447.5" y="-140.5" font-family="Helvetica,sans-Serif" font-size="10.00">\VCalendarService\getDTEnd</text>
</a>
</g>
</g>
<!-- Node6&#45;&gt;Node7 -->
<g id="edge6" class="edge">
<title>Node6&#45;&gt;Node7</title>
<path fill="none" stroke="#63b8ff" d="M314.96,-86.4C320.32,-89.14 325.97,-92.25 331,-95.5 348.26,-106.65 348.83,-114.91 367,-124.5 369.87,-126.01 372.85,-127.45 375.89,-128.8"/>
<polygon fill="#63b8ff" stroke="#63b8ff" points="374.47,-132 385.06,-132.54 377.12,-125.52 374.47,-132"/>
</g>
<!-- Node8 -->
<g id="node8" class="node">
<title>Node8</title>
<g id="a_node8"><a xlink:href="class_o_c_a_1_1_c_a_f_e_v_d_b_1_1_service_1_1_v_calendar_service.html#aa25cdcd89ba57212663eaafec422453d" target="_top" xlink:title=" ">
<polygon fill="white" stroke="#666666" points="528,-115.5 367,-115.5 367,-85.5 528,-85.5 528,-115.5"/>
<text text-anchor="start" x="375" y="-103.5" font-family="Helvetica,sans-Serif" font-size="10.00">OCA\CAFEVDB\Service</text>
<text text-anchor="middle" x="447.5" y="-92.5" font-family="Helvetica,sans-Serif" font-size="10.00">\VCalendarService\getVCalendar</text>
</a>
</g>
</g>
<!-- Node6&#45;&gt;Node8 -->
<g id="edge7" class="edge">
<title>Node6&#45;&gt;Node8</title>
<path fill="none" stroke="#63b8ff" d="M325.95,-81.59C334.87,-82.99 345,-84.58 355.51,-86.23"/>
<polygon fill="#63b8ff" stroke="#63b8ff" points="354.65,-89.63 365.07,-87.73 355.73,-82.72 354.65,-89.63"/>
</g>
<!-- Node9 -->
<g id="node9" class="node">
<title>Node9</title>
<g id="a_node9"><a xlink:href="class_o_c_a_1_1_c_a_f_e_v_d_b_1_1_service_1_1_v_calendar_service.html#a2dad03f32dc06c2aa1711b0f2243c18d" target="_top" xlink:title="Return a reference to the object contained in a Sabre VCALENDAR object.">
<polygon fill="white" stroke="#666666" points="522.5,-67.5 372.5,-67.5 372.5,-37.5 522.5,-37.5 522.5,-67.5"/>
<text text-anchor="start" x="380.5" y="-55.5" font-family="Helvetica,sans-Serif" font-size="10.00">OCA\CAFEVDB\Service</text>
<text text-anchor="middle" x="447.5" y="-44.5" font-family="Helvetica,sans-Serif" font-size="10.00">\VCalendarService\getVObject</text>
</a>
</g>
</g>
<!-- Node6&#45;&gt;Node9 -->
<g id="edge8" class="edge">
<title>Node6&#45;&gt;Node9</title>
<path fill="none" stroke="#63b8ff" d="M325.95,-71.41C336.46,-69.76 348.66,-67.85 361.18,-65.88"/>
<polygon fill="#63b8ff" stroke="#63b8ff" points="361.4,-69.39 370.74,-64.38 360.32,-62.48 361.4,-69.39"/>
</g>
<!-- Node10 -->
<g id="node10" class="node">
<title>Node10</title>
<g id="a_node10"><a xlink:href="class_o_c_a_1_1_c_a_f_e_v_d_b_1_1_service_1_1_events_service.html#a8aa4a7a29d5680924f966b2fbc64a901" target="_top" xlink:title="Unconditionally unregister the given event with the given project.">
<polygon fill="white" stroke="#666666" points="477,-19 418,-19 418,0 477,0 477,-19"/>
<text text-anchor="middle" x="447.5" y="-7" font-family="Helvetica,sans-Serif" font-size="10.00">unregister</text>
</a>
</g>
</g>
<!-- Node6&#45;&gt;Node10 -->
<g id="edge9" class="edge">
<title>Node6&#45;&gt;Node10</title>
<path fill="none" stroke="#63b8ff" d="M316.59,-66.52C321.47,-64.11 326.5,-61.39 331,-58.5 348.52,-47.24 348.38,-37.83 367,-28.5 379.26,-22.35 393.6,-18.14 406.7,-15.27"/>
<polygon fill="#63b8ff" stroke="#63b8ff" points="407.19,-18.75 416.32,-13.38 405.84,-11.88 407.19,-18.75"/>
</g>
</g>
</svg>
