<?xml version="1.0" encoding="UTF-8" standalone="no"?>
<!DOCTYPE svg PUBLIC "-//W3C//DTD SVG 1.1//EN"
 "http://www.w3.org/Graphics/SVG/1.1/DTD/svg11.dtd">
<!-- Generated by graphviz version 8.0.3 (20230416.2022)
 -->
<!-- Title: MusicianEmailEvent Pages: 1 -->
<svg width="365pt" height="212pt"
 viewBox="0.00 0.00 365.00 212.00" xmlns="http://www.w3.org/2000/svg" xmlns:xlink="http://www.w3.org/1999/xlink">
<g id="graph0" class="graph" transform="scale(1 1) rotate(0) translate(4 208)">
<title>MusicianEmailEvent</title>
<!-- Node1 -->
<g id="node1" class="node">
<title>Node1</title>
<g id="a_node1"><a xlink:title="Base class for musician email events.">
<polygon fill="#999999" stroke="#666666" points="184,-111 78,-111 78,-92 184,-92 184,-111"/>
<text text-anchor="middle" x="131" y="-99" font-family="Helvetica,sans-Serif" font-size="10.00">MusicianEmailEvent</text>
</a>
</g>
</g>
<!-- Node3 -->
<g id="node3" class="node">
<title>Node3</title>
<g id="a_node3"><a xlink:href="class_o_c_a_1_1_c_a_f_e_v_d_b_1_1_events_1_1_post_change_musician_email.html" target="_top" xlink:title="Event fired by the Musician entity through a life&#45;cycle hook after the email address is changed.">
<polygon fill="white" stroke="#666666" points="355.5,-204 221.5,-204 221.5,-185 355.5,-185 355.5,-204"/>
<text text-anchor="middle" x="288.5" y="-192" font-family="Helvetica,sans-Serif" font-size="10.00">PostChangeMusicianEmail</text>
</a>
</g>
</g>
<!-- Node1&#45;&gt;Node3 -->
<g id="edge2" class="edge">
<title>Node1&#45;&gt;Node3</title>
<path fill="none" stroke="#63b8ff" d="M147.89,-118.99C164.35,-136.06 191.59,-161.59 220,-176.5 226.12,-179.71 232.86,-182.39 239.65,-184.6"/>
<polygon fill="#63b8ff" stroke="#63b8ff" points="151.13,-117.25 141.72,-112.37 146.03,-122.05 151.13,-117.25"/>
</g>
<!-- Node4 -->
<g id="node4" class="node">
<title>Node4</title>
<g id="a_node4"><a xlink:href="class_o_c_a_1_1_c_a_f_e_v_d_b_1_1_events_1_1_post_persist_musician_email.html" target="_top" xlink:title="Event fired by the Musician entity through a life&#45;cycle hook after a new email address has been persi...">
<polygon fill="white" stroke="#666666" points="354,-167 223,-167 223,-148 354,-148 354,-167"/>
<text text-anchor="middle" x="288.5" y="-155" font-family="Helvetica,sans-Serif" font-size="10.00">PostPersistMusicianEmail</text>
</a>
</g>
</g>
<!-- Node1&#45;&gt;Node4 -->
<g id="edge3" class="edge">
<title>Node1&#45;&gt;Node4</title>
<path fill="none" stroke="#63b8ff" d="M162.42,-115.95C179.18,-123.57 200.47,-132.72 220,-139.5 228.36,-142.4 237.45,-145.11 246.16,-147.51"/>
<polygon fill="#63b8ff" stroke="#63b8ff" points="164.19,-112.45 153.64,-111.44 161.25,-118.81 164.19,-112.45"/>
</g>
<!-- Node5 -->
<g id="node5" class="node">
<title>Node5</title>
<g id="a_node5"><a xlink:href="class_o_c_a_1_1_c_a_f_e_v_d_b_1_1_events_1_1_post_remove_musician_email.html" target="_top" xlink:title="Event fired by the Musician entity through a life&#45;cycle hook after the email address is changed.">
<polygon fill="white" stroke="#666666" points="357,-130 220,-130 220,-111 357,-111 357,-130"/>
<text text-anchor="middle" x="288.5" y="-118" font-family="Helvetica,sans-Serif" font-size="10.00">PostRemoveMusicianEmail</text>
</a>
</g>
</g>
<!-- Node1&#45;&gt;Node5 -->
<g id="edge4" class="edge">
<title>Node1&#45;&gt;Node5</title>
<path fill="none" stroke="#63b8ff" d="M195.09,-109.21C203.19,-110.2 211.51,-111.22 219.69,-112.21"/>
<polygon fill="#63b8ff" stroke="#63b8ff" points="195.56,-105.62 185.21,-107.88 194.71,-112.57 195.56,-105.62"/>
</g>
<!-- Node6 -->
<g id="node6" class="node">
<title>Node6</title>
<g id="a_node6"><a xlink:href="class_o_c_a_1_1_c_a_f_e_v_d_b_1_1_events_1_1_pre_change_musician_email.html" target="_top" xlink:title="Event fired by the Musician entity through a life&#45;cycle hook before the email address is changed.">
<polygon fill="white" stroke="#666666" points="353,-93 224,-93 224,-74 353,-74 353,-93"/>
<text text-anchor="middle" x="288.5" y="-81" font-family="Helvetica,sans-Serif" font-size="10.00">PreChangeMusicianEmail</text>
</a>
</g>
</g>
<!-- Node1&#45;&gt;Node6 -->
<g id="edge5" class="edge">
<title>Node1&#45;&gt;Node6</title>
<path fill="none" stroke="#63b8ff" d="M195.06,-94.2C204.45,-93.11 214.14,-91.99 223.54,-90.9"/>
<polygon fill="#63b8ff" stroke="#63b8ff" points="194.74,-90.83 185.21,-95.46 195.55,-97.78 194.74,-90.83"/>
</g>
<!-- Node7 -->
<g id="node7" class="node">
<title>Node7</title>
<g id="a_node7"><a xlink:href="class_o_c_a_1_1_c_a_f_e_v_d_b_1_1_events_1_1_pre_persist_musician_email.html" target="_top" xlink:title="Event fired by the Musician entity through a life&#45;cycle hook after a new email address has been persi...">
<polygon fill="white" stroke="#666666" points="351.5,-56 225.5,-56 225.5,-37 351.5,-37 351.5,-56"/>
<text text-anchor="middle" x="288.5" y="-44" font-family="Helvetica,sans-Serif" font-size="10.00">PrePersistMusicianEmail</text>
</a>
</g>
</g>
<!-- Node1&#45;&gt;Node7 -->
<g id="edge6" class="edge">
<title>Node1&#45;&gt;Node7</title>
<path fill="none" stroke="#63b8ff" d="M163.14,-87.18C179.79,-79.83 200.78,-71.07 220,-64.5 228.49,-61.6 237.72,-58.87 246.54,-56.46"/>
<polygon fill="#63b8ff" stroke="#63b8ff" points="162.08,-84.26 154.38,-91.54 164.94,-90.65 162.08,-84.26"/>
</g>
<!-- Node8 -->
<g id="node8" class="node">
<title>Node8</title>
<g id="a_node8"><a xlink:href="class_o_c_a_1_1_c_a_f_e_v_d_b_1_1_events_1_1_pre_remove_musician_email.html" target="_top" xlink:title="Event fired by the Musician entity through a life&#45;cycle hook after the email address is changed.">
<polygon fill="white" stroke="#666666" points="354.5,-19 222.5,-19 222.5,0 354.5,0 354.5,-19"/>
<text text-anchor="middle" x="288.5" y="-7" font-family="Helvetica,sans-Serif" font-size="10.00">PreRemoveMusicianEmail</text>
</a>
</g>
</g>
<!-- Node1&#45;&gt;Node8 -->
<g id="edge7" class="edge">
<title>Node1&#45;&gt;Node8</title>
<path fill="none" stroke="#63b8ff" d="M148.21,-83.99C164.72,-67.15 191.85,-42.15 220,-27.5 226.13,-24.31 232.88,-21.65 239.67,-19.43"/>
<polygon fill="#63b8ff" stroke="#63b8ff" points="146.38,-80.87 141.99,-90.52 151.44,-85.72 146.38,-80.87"/>
</g>
<!-- Node2 -->
<g id="node2" class="node">
<title>Node2</title>
<g id="a_node2"><a xlink:title=" ">
<polygon fill="white" stroke="#bfbfbf" points="42,-111 0,-111 0,-92 42,-92 42,-111"/>
<text text-anchor="middle" x="21" y="-99" font-family="Helvetica,sans-Serif" font-size="10.00">Event</text>
</a>
</g>
</g>
<!-- Node2&#45;&gt;Node1 -->
<g id="edge1" class="edge">
<title>Node2&#45;&gt;Node1</title>
<path fill="none" stroke="#63b8ff" d="M53.05,-101.5C60.83,-101.5 69.39,-101.5 77.89,-101.5"/>
<polygon fill="#63b8ff" stroke="#63b8ff" points="53.31,-98 43.31,-101.5 53.31,-105 53.31,-98"/>
</g>
</g>
</svg>
