<?xml version="1.0" encoding="UTF-8" standalone="no"?>
<!DOCTYPE svg PUBLIC "-//W3C//DTD SVG 1.1//EN"
 "http://www.w3.org/Graphics/SVG/1.1/DTD/svg11.dtd">
<!-- Generated by graphviz version 8.0.3 (20230416.2022)
 -->
<!-- Title: Exception Pages: 1 -->
<!--zoomable 778 -->
<svg id="main" version="1.1" xmlns="http://www.w3.org/2000/svg" xmlns:xlink="http://www.w3.org/1999/xlink" xml:space="preserve" onload="init(evt)">
<style type="text/css"><![CDATA[
.edge:hover path { stroke: red; }
.edge:hover polygon { stroke: red; fill: red; }
]]></style>
<script type="text/javascript"><![CDATA[
var edges = document.getElementsByTagName('g');
if (edges && edges.length) {
  for (var i=0;i<edges.length;i++) {
    if (edges[i].id.substr(0,4)=='edge') {
      edges[i].setAttribute('class','edge');
    }
  }
}
]]></script>
        <defs>
                <circle id="rim" cx="0" cy="0" r="7"/>
                <circle id="rim2" cx="0" cy="0" r="3.5"/>
                <g id="zoomPlus">
                        <use xlink:href="#rim" fill="#404040">
                                <set attributeName="fill" to="#808080" begin="zoomplus.mouseover" end="zoomplus.mouseout"/>
                        </use>
                        <path d="M-4,0h8M0,-4v8" fill="none" stroke="white" stroke-width="1.5" pointer-events="none"/>
                </g>
                <g id="zoomMin">
                        <use xlink:href="#rim" fill="#404040">
                                <set attributeName="fill" to="#808080" begin="zoomminus.mouseover" end="zoomminus.mouseout"/>
                        </use>
                        <path d="M-4,0h8" fill="none" stroke="white" stroke-width="1.5" pointer-events="none"/>
                </g>
                <g id="dirArrow">
                        <path fill="none" stroke="white" stroke-width="1.5" d="M0,-3.0v7 M-2.5,-0.5L0,-3.0L2.5,-0.5"/>
                </g>
               <g id="resetDef">
                       <use xlink:href="#rim2" fill="#404040">
                               <set attributeName="fill" to="#808080" begin="reset.mouseover" end="reset.mouseout"/>
                       </use>
               </g>
        </defs>

<script type="text/javascript">
var viewWidth = 601;
var viewHeight = 778;
var sectionId = 'dynsection-0';
</script>
<script xlink:href="svgpan.js"/>
<svg id="graph" class="graph">
<g id="viewport">
<title>Exception</title>
<!-- Node1 -->
<g id="node1" class="node">
<title>Node1</title>
<g id="a_node1"><a xlink:title="General abstraction base&#45;class.">
<polygon fill="#999999" stroke="#666666" points="177,-253 117,-253 117,-234 177,-234 177,-253"/>
<text text-anchor="middle" x="147" y="-241" font-family="Helvetica,sans-Serif" font-size="10.00">Exception</text>
</a>
</g>
</g>
<!-- Node3 -->
<g id="node3" class="node">
<title>Node3</title>
<g id="a_node3"><a xlink:href="class_o_c_a_1_1_c_a_f_e_v_d_b_1_1_exceptions_1_1_calendar_exception.html" target="_top" xlink:title="General abstraction base&#45;class.">
<polygon fill="white" stroke="#666666" points="347.5,-702 248.5,-702 248.5,-683 347.5,-683 347.5,-702"/>
<text text-anchor="middle" x="298" y="-690" font-family="Helvetica,sans-Serif" font-size="10.00">CalendarException</text>
</a>
</g>
</g>
<!-- Node1&#45;&gt;Node3 -->
<g id="edge2" class="edge">
<title>Node1&#45;&gt;Node3</title>
<path fill="none" stroke="#63b8ff" d="M148.42,-264.11C150.26,-319.3 160.12,-474.05 213,-588.5 231.3,-628.11 268.02,-665.63 286.24,-682.77"/>
<polygon fill="#63b8ff" stroke="#63b8ff" points="151.9,-264.25 148.13,-254.35 144.9,-264.45 151.9,-264.25"/>
</g>
<!-- Node5 -->
<g id="node5" class="node">
<title>Node5</title>
<g id="a_node5"><a xlink:href="class_o_c_a_1_1_c_a_f_e_v_d_b_1_1_exceptions_1_1_config_locked_exception.html" target="_top" xlink:title=" ">
<polygon fill="white" stroke="#666666" points="358,-579 238,-579 238,-560 358,-560 358,-579"/>
<text text-anchor="middle" x="298" y="-567" font-family="Helvetica,sans-Serif" font-size="10.00">ConfigLockedException</text>
</a>
</g>
</g>
<!-- Node1&#45;&gt;Node5 -->
<g id="edge4" class="edge">
<title>Node1&#45;&gt;Node5</title>
<path fill="none" stroke="#63b8ff" d="M149.48,-264.14C154.39,-326.39 172.13,-510.5 213,-551.5 219.84,-558.37 228.63,-562.91 237.93,-565.86"/>
<polygon fill="#63b8ff" stroke="#63b8ff" points="152.92,-264.1 148.67,-254.4 145.94,-264.63 152.92,-264.1"/>
</g>
<!-- Node6 -->
<g id="node6" class="node">
<title>Node6</title>
<g id="a_node6"><a xlink:href="class_o_c_a_1_1_c_a_f_e_v_d_b_1_1_exceptions_1_1_database_exception.html" target="_top" xlink:title="Base&#45;class for database exceptions.">
<polygon fill="white" stroke="#666666" points="349,-542 247,-542 247,-523 349,-523 349,-542"/>
<text text-anchor="middle" x="298" y="-530" font-family="Helvetica,sans-Serif" font-size="10.00">DatabaseException</text>
</a>
</g>
</g>
<!-- Node1&#45;&gt;Node6 -->
<g id="edge5" class="edge">
<title>Node1&#45;&gt;Node6</title>
<path fill="none" stroke="#63b8ff" d="M158.03,-262.96C187.05,-319.25 270.4,-480.9 291.89,-522.59"/>
<polygon fill="#63b8ff" stroke="#63b8ff" points="160.82,-261.73 153.13,-254.45 154.6,-264.94 160.82,-261.73"/>
</g>
<!-- Node15 -->
<g id="node15" class="node">
<title>Node15</title>
<g id="a_node15"><a xlink:href="class_o_c_a_1_1_c_a_f_e_v_d_b_1_1_exceptions_1_1_database_storage_exception.html" target="_top" xlink:title="Exception class tag for the database storage backend.">
<polygon fill="white" stroke="#666666" points="366,-327 230,-327 230,-308 366,-308 366,-327"/>
<text text-anchor="middle" x="298" y="-315" font-family="Helvetica,sans-Serif" font-size="10.00">DatabaseStorageException</text>
</a>
</g>
</g>
<!-- Node1&#45;&gt;Node15 -->
<g id="edge14" class="edge">
<title>Node1&#45;&gt;Node15</title>
<path fill="none" stroke="#63b8ff" d="M163.66,-261.06C175.88,-273.66 193.92,-290.02 213,-299.5 219.54,-302.75 226.66,-305.42 233.89,-307.6"/>
<polygon fill="#63b8ff" stroke="#63b8ff" points="166.58,-258.99 157.2,-254.07 161.47,-263.77 166.58,-258.99"/>
</g>
<!-- Node16 -->
<g id="node16" class="node">
<title>Node16</title>
<g id="a_node16"><a xlink:href="class_o_c_a_1_1_c_a_f_e_v_d_b_1_1_exceptions_1_1_encryption_exception.html" target="_top" xlink:title="Base class for other exceptions.">
<polygon fill="white" stroke="#666666" points="351.5,-290 244.5,-290 244.5,-271 351.5,-271 351.5,-290"/>
<text text-anchor="middle" x="298" y="-278" font-family="Helvetica,sans-Serif" font-size="10.00">EncryptionException</text>
</a>
</g>
</g>
<!-- Node1&#45;&gt;Node16 -->
<g id="edge15" class="edge">
<title>Node1&#45;&gt;Node16</title>
<path fill="none" stroke="#63b8ff" d="M187.6,-255.58C195.96,-257.98 204.75,-260.41 213,-262.5 224.13,-265.32 236.17,-268.07 247.56,-270.54"/>
<polygon fill="#63b8ff" stroke="#63b8ff" points="188.9,-252.02 178.32,-252.57 186.93,-258.74 188.9,-252.02"/>
</g>
<!-- Node24 -->
<g id="node24" class="node">
<title>Node24</title>
<g id="a_node24"><a xlink:href="class_o_c_a_1_1_c_a_f_e_v_d_b_1_1_exceptions_1_1_enduser_notification_exception.html" target="_top" xlink:title="This exception should provide an error message which informs an end&#45;user about an error.">
<polygon fill="white" stroke="#666666" points="371,-253 225,-253 225,-234 371,-234 371,-253"/>
<text text-anchor="middle" x="298" y="-241" font-family="Helvetica,sans-Serif" font-size="10.00">EnduserNotificationException</text>
</a>
</g>
</g>
<!-- Node1&#45;&gt;Node24 -->
<g id="edge23" class="edge">
<title>Node1&#45;&gt;Node24</title>
<path fill="none" stroke="#63b8ff" d="M188.23,-243.5C199.53,-243.5 212.17,-243.5 224.72,-243.5"/>
<polygon fill="#63b8ff" stroke="#63b8ff" points="188.44,-240 178.44,-243.5 188.44,-247 188.44,-240"/>
</g>
<!-- Node25 -->
<g id="node25" class="node">
<title>Node25</title>
<g id="a_node25"><a xlink:href="class_o_c_a_1_1_c_a_f_e_v_d_b_1_1_exceptions_1_1_missing_projects_folder_exception.html" target="_top" xlink:title=" ">
<polygon fill="white" stroke="#666666" points="376.5,-216 219.5,-216 219.5,-197 376.5,-197 376.5,-216"/>
<text text-anchor="middle" x="298" y="-204" font-family="Helvetica,sans-Serif" font-size="10.00">MissingProjectsFolderException</text>
</a>
</g>
</g>
<!-- Node1&#45;&gt;Node25 -->
<g id="edge24" class="edge">
<title>Node1&#45;&gt;Node25</title>
<path fill="none" stroke="#63b8ff" d="M187.6,-231.42C195.96,-229.02 204.75,-226.59 213,-224.5 224.13,-221.68 236.17,-218.93 247.56,-216.46"/>
<polygon fill="#63b8ff" stroke="#63b8ff" points="186.93,-228.26 178.32,-234.43 188.9,-234.98 186.93,-228.26"/>
</g>
<!-- Node26 -->
<g id="node26" class="node">
<title>Node26</title>
<g id="a_node26"><a xlink:href="class_o_c_a_1_1_c_a_f_e_v_d_b_1_1_exceptions_1_1_php_session_exception.html" target="_top" xlink:title="Base for other exceptions.">
<polygon fill="white" stroke="#666666" points="354.5,-179 241.5,-179 241.5,-160 354.5,-160 354.5,-179"/>
<text text-anchor="middle" x="298" y="-167" font-family="Helvetica,sans-Serif" font-size="10.00">PhpSessionException</text>
</a>
</g>
</g>
<!-- Node1&#45;&gt;Node26 -->
<g id="edge25" class="edge">
<title>Node1&#45;&gt;Node26</title>
<path fill="none" stroke="#63b8ff" d="M163.66,-225.94C175.88,-213.34 193.92,-196.98 213,-187.5 221.82,-183.12 231.67,-179.8 241.44,-177.29"/>
<polygon fill="#63b8ff" stroke="#63b8ff" points="161.47,-223.23 157.2,-232.93 166.58,-228.01 161.47,-223.23"/>
</g>
<!-- Node28 -->
<g id="node28" class="node">
<title>Node28</title>
<g id="a_node28"><a xlink:href="class_o_c_a_1_1_c_a_f_e_v_d_b_1_1_exceptions_1_1_progress_status_not_found_exception.html" target="_top" xlink:title=" ">
<polygon fill="white" stroke="#666666" points="383,-142 213,-142 213,-123 383,-123 383,-142"/>
<text text-anchor="middle" x="298" y="-130" font-family="Helvetica,sans-Serif" font-size="10.00">ProgressStatusNotFoundException</text>
</a>
</g>
</g>
<!-- Node1&#45;&gt;Node28 -->
<g id="edge27" class="edge">
<title>Node1&#45;&gt;Node28</title>
<path fill="none" stroke="#63b8ff" d="M156.34,-223.82C166.5,-202.34 185.75,-168.59 213,-150.5 217.85,-147.28 223.17,-144.63 228.7,-142.44"/>
<polygon fill="#63b8ff" stroke="#63b8ff" points="152.77,-222.24 151.86,-232.79 159.15,-225.11 152.77,-222.24"/>
</g>
<!-- Node29 -->
<g id="node29" class="node">
<title>Node29</title>
<g id="a_node29"><a xlink:href="class_o_c_a_1_1_c_a_f_e_v_d_b_1_1_exceptions_1_1_sanitizer_exception.html" target="_top" xlink:title="Exceptions thrown by the database sanitizers.">
<polygon fill="white" stroke="#666666" points="347,-93 249,-93 249,-74 347,-74 347,-93"/>
<text text-anchor="middle" x="298" y="-81" font-family="Helvetica,sans-Serif" font-size="10.00">SanitizerException</text>
</a>
</g>
</g>
<!-- Node1&#45;&gt;Node29 -->
<g id="edge28" class="edge">
<title>Node1&#45;&gt;Node29</title>
<path fill="none" stroke="#63b8ff" d="M153,-223.18C160.99,-194.79 179.29,-143.37 213,-113.5 223.32,-104.36 236.61,-97.95 249.57,-93.47"/>
<polygon fill="#63b8ff" stroke="#63b8ff" points="149.36,-222.25 150.19,-232.81 156.13,-224.04 149.36,-222.25"/>
</g>
<!-- Node33 -->
<g id="node33" class="node">
<title>Node33</title>
<g id="a_node33"><a xlink:href="class_o_c_a_1_1_c_a_f_e_v_d_b_1_1_exceptions_1_1_substitution_exception.html" target="_top" xlink:title=" ">
<polygon fill="white" stroke="#666666" points="354,-56 242,-56 242,-37 354,-37 354,-56"/>
<text text-anchor="middle" x="298" y="-44" font-family="Helvetica,sans-Serif" font-size="10.00">SubstitutionException</text>
</a>
</g>
</g>
<!-- Node1&#45;&gt;Node33 -->
<g id="edge32" class="edge">
<title>Node1&#45;&gt;Node33</title>
<path fill="none" stroke="#63b8ff" d="M149.22,-222.94C152.6,-185.45 165.32,-106.05 213,-64.5 221.1,-57.45 231.28,-52.94 241.74,-50.1"/>
<polygon fill="#63b8ff" stroke="#63b8ff" points="145.68,-222.3 148.42,-232.54 152.66,-222.83 145.68,-222.3"/>
</g>
<!-- Node2 -->
<g id="node2" class="node">
<title>Node2</title>
<g id="a_node2"><a xlink:title=" ">
<polygon fill="white" stroke="#bfbfbf" points="81,-253 0,-253 0,-234 81,-234 81,-253"/>
<text text-anchor="middle" x="40.5" y="-241" font-family="Helvetica,sans-Serif" font-size="10.00">CoreException</text>
</a>
</g>
</g>
<!-- Node2&#45;&gt;Node1 -->
<g id="edge1" class="edge">
<title>Node2&#45;&gt;Node1</title>
<path fill="none" stroke="#63b8ff" d="M92.24,-243.5C100.63,-243.5 109.08,-243.5 116.71,-243.5"/>
<polygon fill="#63b8ff" stroke="#63b8ff" points="92.31,-240 82.31,-243.5 92.31,-247 92.31,-240"/>
</g>
<!-- Node4 -->
<g id="node4" class="node">
<title>Node4</title>
<g id="a_node4"><a xlink:href="class_o_c_a_1_1_c_a_f_e_v_d_b_1_1_exceptions_1_1_calendar_entry_not_found_exception.html" target="_top" xlink:title="General abstraction base&#45;class.">
<polygon fill="white" stroke="#666666" points="588.5,-770 423.5,-770 423.5,-751 588.5,-751 588.5,-770"/>
<text text-anchor="middle" x="506" y="-758" font-family="Helvetica,sans-Serif" font-size="10.00">CalendarEntryNotFoundException</text>
</a>
</g>
</g>
<!-- Node3&#45;&gt;Node4 -->
<g id="edge3" class="edge">
<title>Node3&#45;&gt;Node4</title>
<path fill="none" stroke="#63b8ff" d="M330.18,-706.95C354.09,-717.6 388.13,-731.86 419,-741.5 429.95,-744.92 441.86,-747.96 453.24,-750.56"/>
<polygon fill="#63b8ff" stroke="#63b8ff" points="331.83,-703.4 321.27,-702.48 328.95,-709.78 331.83,-703.4"/>
</g>
<!-- Node7 -->
<g id="node7" class="node">
<title>Node7</title>
<g id="a_node7"><a xlink:href="class_o_c_a_1_1_c_a_f_e_v_d_b_1_1_exceptions_1_1_database_cloud_connector_view_exception.html" target="_top" xlink:title="Thrown during generation of the cloud&#45;user connector views.">
<polygon fill="white" stroke="#666666" points="581.5,-732.5 430.5,-732.5 430.5,-702.5 581.5,-702.5 581.5,-732.5"/>
<text text-anchor="start" x="438.5" y="-720.5" font-family="Helvetica,sans-Serif" font-size="10.00">DatabaseCloudConnectorView</text>
<text text-anchor="middle" x="506" y="-709.5" font-family="Helvetica,sans-Serif" font-size="10.00">Exception</text>
</a>
</g>
</g>
<!-- Node6&#45;&gt;Node7 -->
<g id="edge6" class="edge">
<title>Node6&#45;&gt;Node7</title>
<path fill="none" stroke="#63b8ff" d="M359.55,-537.68C368.25,-540.71 376.46,-545.12 383,-551.5 429.63,-596.94 373.51,-646.92 419,-693.5 422.36,-696.94 426.16,-699.9 430.26,-702.44"/>
<polygon fill="#63b8ff" stroke="#63b8ff" points="360.76,-534.1 350.18,-534.73 358.85,-540.84 360.76,-534.1"/>
</g>
<!-- Node8 -->
<g id="node8" class="node">
<title>Node8</title>
<g id="a_node8"><a xlink:href="class_o_c_a_1_1_c_a_f_e_v_d_b_1_1_exceptions_1_1_database_entity_not_found_exception.html" target="_top" xlink:title="Thrown if an entity could not be found.">
<polygon fill="white" stroke="#666666" points="591,-684 421,-684 421,-665 591,-665 591,-684"/>
<text text-anchor="middle" x="506" y="-672" font-family="Helvetica,sans-Serif" font-size="10.00">DatabaseEntityNotFoundException</text>
</a>
</g>
</g>
<!-- Node6&#45;&gt;Node8 -->
<g id="edge7" class="edge">
<title>Node6&#45;&gt;Node8</title>
<path fill="none" stroke="#63b8ff" d="M359.7,-538.36C368.24,-541.32 376.36,-545.54 383,-551.5 419.71,-584.45 382.02,-623.84 419,-656.5 422.66,-659.73 426.75,-662.44 431.1,-664.7"/>
<polygon fill="#63b8ff" stroke="#63b8ff" points="360.72,-534.73 350.15,-535.34 358.8,-541.46 360.72,-534.73"/>
</g>
<!-- Node9 -->
<g id="node9" class="node">
<title>Node9</title>
<g id="a_node9"><a xlink:href="class_o_c_a_1_1_c_a_f_e_v_d_b_1_1_exceptions_1_1_database_entity_not_unique_exception.html" target="_top" xlink:title="Thrown if more than one entity is found when there should be only one.">
<polygon fill="white" stroke="#666666" points="593,-647 419,-647 419,-628 593,-628 593,-647"/>
<text text-anchor="middle" x="506" y="-635" font-family="Helvetica,sans-Serif" font-size="10.00">DatabaseEntityNotUniqueException</text>
</a>
</g>
</g>
<!-- Node6&#45;&gt;Node9 -->
<g id="edge8" class="edge">
<title>Node6&#45;&gt;Node9</title>
<path fill="none" stroke="#63b8ff" d="M359.5,-539.55C367.93,-542.37 376.06,-546.22 383,-551.5 409.91,-571.96 392.04,-598.11 419,-618.5 423.88,-622.19 429.33,-625.19 435.06,-627.63"/>
<polygon fill="#63b8ff" stroke="#63b8ff" points="360.72,-535.98 350.14,-536.62 358.81,-542.71 360.72,-535.98"/>
</g>
<!-- Node10 -->
<g id="node10" class="node">
<title>Node10</title>
<g id="a_node10"><a xlink:href="class_o_c_a_1_1_c_a_f_e_v_d_b_1_1_exceptions_1_1_database_inconsistent_value_exception.html" target="_top" xlink:title="Thrown if inconsistencies are detected.">
<polygon fill="white" stroke="#666666" points="574,-609.5 438,-609.5 438,-579.5 574,-579.5 574,-609.5"/>
<text text-anchor="start" x="446" y="-597.5" font-family="Helvetica,sans-Serif" font-size="10.00">DatabaseInconsistentValue</text>
<text text-anchor="middle" x="506" y="-586.5" font-family="Helvetica,sans-Serif" font-size="10.00">Exception</text>
</a>
</g>
</g>
<!-- Node6&#45;&gt;Node10 -->
<g id="edge9" class="edge">
<title>Node6&#45;&gt;Node10</title>
<path fill="none" stroke="#63b8ff" d="M360.01,-544.3C367.84,-546.4 375.67,-548.79 383,-551.5 399.97,-557.77 402.19,-563.81 419,-570.5 426.78,-573.6 435.1,-576.45 443.39,-579.04"/>
<polygon fill="#63b8ff" stroke="#63b8ff" points="360.93,-540.67 350.38,-541.63 359.22,-547.46 360.93,-540.67"/>
</g>
<!-- Node11 -->
<g id="node11" class="node">
<title>Node11</title>
<g id="a_node11"><a xlink:href="class_o_c_a_1_1_c_a_f_e_v_d_b_1_1_exceptions_1_1_database_invalid_field_exception.html" target="_top" xlink:title="Thrown if a field has an incompatible type for the operation.">
<polygon fill="white" stroke="#666666" points="582,-561 430,-561 430,-542 582,-542 582,-561"/>
<text text-anchor="middle" x="506" y="-549" font-family="Helvetica,sans-Serif" font-size="10.00">DatabaseInvalidFieldException</text>
</a>
</g>
</g>
<!-- Node6&#45;&gt;Node11 -->
<g id="edge10" class="edge">
<title>Node6&#45;&gt;Node11</title>
<path fill="none" stroke="#63b8ff" d="M360.18,-538.14C382.03,-540.16 406.91,-542.45 429.8,-544.56"/>
<polygon fill="#63b8ff" stroke="#63b8ff" points="360.67,-534.58 350.39,-537.15 360.03,-541.55 360.67,-534.58"/>
</g>
<!-- Node12 -->
<g id="node12" class="node">
<title>Node12</title>
<g id="a_node12"><a xlink:href="class_o_c_a_1_1_c_a_f_e_v_d_b_1_1_exceptions_1_1_database_migration_exception.html" target="_top" xlink:title="Thrown during database migrations.">
<polygon fill="white" stroke="#666666" points="577,-524 435,-524 435,-505 577,-505 577,-524"/>
<text text-anchor="middle" x="506" y="-512" font-family="Helvetica,sans-Serif" font-size="10.00">DatabaseMigrationException</text>
</a>
</g>
</g>
<!-- Node6&#45;&gt;Node12 -->
<g id="edge11" class="edge">
<title>Node6&#45;&gt;Node12</title>
<path fill="none" stroke="#63b8ff" d="M360.21,-527.15C383.56,-525.11 410.37,-522.77 434.52,-520.66"/>
<polygon fill="#63b8ff" stroke="#63b8ff" points="360.05,-523.74 350.39,-528.1 360.66,-530.71 360.05,-523.74"/>
</g>
<!-- Node13 -->
<g id="node13" class="node">
<title>Node13</title>
<g id="a_node13"><a xlink:href="class_o_c_a_1_1_c_a_f_e_v_d_b_1_1_exceptions_1_1_database_readonly_exception.html" target="_top" xlink:title="Thrown when trying to mute data which should not be muted.">
<polygon fill="white" stroke="#666666" points="577.5,-487 434.5,-487 434.5,-468 577.5,-468 577.5,-487"/>
<text text-anchor="middle" x="506" y="-475" font-family="Helvetica,sans-Serif" font-size="10.00">DatabaseReadonlyException</text>
</a>
</g>
</g>
<!-- Node6&#45;&gt;Node13 -->
<g id="edge12" class="edge">
<title>Node6&#45;&gt;Node13</title>
<path fill="none" stroke="#63b8ff" d="M340.34,-519.27C363.38,-512.11 392.65,-503.35 419,-496.5 431.28,-493.31 444.64,-490.19 457.09,-487.43"/>
<polygon fill="#63b8ff" stroke="#63b8ff" points="339.4,-516.21 330.9,-522.54 341.49,-522.89 339.4,-516.21"/>
</g>
<!-- Node14 -->
<g id="node14" class="node">
<title>Node14</title>
<g id="a_node14"><a xlink:href="class_o_c_a_1_1_c_a_f_e_v_d_b_1_1_exceptions_1_1_database_transaction_not_active_exception.html" target="_top" xlink:title="Thrown when trying to fiddle with an active transaction but there is none.">
<polygon fill="white" stroke="#666666" points="582.5,-449.5 429.5,-449.5 429.5,-419.5 582.5,-419.5 582.5,-449.5"/>
<text text-anchor="start" x="437.5" y="-437.5" font-family="Helvetica,sans-Serif" font-size="10.00">DatabaseTransactionNotActive</text>
<text text-anchor="middle" x="506" y="-426.5" font-family="Helvetica,sans-Serif" font-size="10.00">Exception</text>
</a>
</g>
</g>
<!-- Node6&#45;&gt;Node14 -->
<g id="edge13" class="edge">
<title>Node6&#45;&gt;Node14</title>
<path fill="none" stroke="#63b8ff" d="M321.15,-516.55C344.53,-500.34 382.91,-475.39 419,-459.5 427.11,-455.93 435.87,-452.71 444.6,-449.86"/>
<polygon fill="#63b8ff" stroke="#63b8ff" points="319.56,-514.1 313.39,-522.72 323.59,-519.83 319.56,-514.1"/>
</g>
<!-- Node17 -->
<g id="node17" class="node">
<title>Node17</title>
<g id="a_node17"><a xlink:href="class_o_c_a_1_1_c_a_f_e_v_d_b_1_1_exceptions_1_1_cannot_decrypt_exception.html" target="_top" xlink:title=" ">
<polygon fill="white" stroke="#666666" points="569,-401 443,-401 443,-382 569,-382 569,-401"/>
<text text-anchor="middle" x="506" y="-389" font-family="Helvetica,sans-Serif" font-size="10.00">CannotDecryptException</text>
</a>
</g>
</g>
<!-- Node16&#45;&gt;Node17 -->
<g id="edge16" class="edge">
<title>Node16&#45;&gt;Node17</title>
<path fill="none" stroke="#63b8ff" d="M362.3,-288.23C369.76,-290.98 376.88,-294.65 383,-299.5 411.66,-322.22 390.16,-351.01 419,-373.5 425.98,-378.94 434.21,-382.84 442.77,-385.62"/>
<polygon fill="#63b8ff" stroke="#63b8ff" points="363.57,-284.64 352.98,-285 361.48,-291.33 363.57,-284.64"/>
</g>
<!-- Node18 -->
<g id="node18" class="node">
<title>Node18</title>
<g id="a_node18"><a xlink:href="class_o_c_a_1_1_c_a_f_e_v_d_b_1_1_exceptions_1_1_cannot_encrypt_exception.html" target="_top" xlink:title=" ">
<polygon fill="white" stroke="#666666" points="568.5,-364 443.5,-364 443.5,-345 568.5,-345 568.5,-364"/>
<text text-anchor="middle" x="506" y="-352" font-family="Helvetica,sans-Serif" font-size="10.00">CannotEncryptException</text>
</a>
</g>
</g>
<!-- Node16&#45;&gt;Node18 -->
<g id="edge17" class="edge">
<title>Node16&#45;&gt;Node18</title>
<path fill="none" stroke="#63b8ff" d="M362.14,-290.56C369.41,-292.94 376.53,-295.87 383,-299.5 403.02,-310.72 398.89,-325.45 419,-336.5 426.49,-340.62 434.81,-343.79 443.25,-346.24"/>
<polygon fill="#63b8ff" stroke="#63b8ff" points="363.39,-286.99 352.81,-287.57 361.44,-293.71 363.39,-286.99"/>
</g>
<!-- Node19 -->
<g id="node19" class="node">
<title>Node19</title>
<g id="a_node19"><a xlink:href="class_o_c_a_1_1_c_a_f_e_v_d_b_1_1_exceptions_1_1_decryption_failed_exception.html" target="_top" xlink:title=" ">
<polygon fill="white" stroke="#666666" points="573,-327 439,-327 439,-308 573,-308 573,-327"/>
<text text-anchor="middle" x="506" y="-315" font-family="Helvetica,sans-Serif" font-size="10.00">DecryptionFailedException</text>
</a>
</g>
</g>
<!-- Node16&#45;&gt;Node19 -->
<g id="edge18" class="edge">
<title>Node16&#45;&gt;Node19</title>
<path fill="none" stroke="#63b8ff" d="M362.59,-291.92C390.37,-296.91 422.67,-302.71 449.47,-307.53"/>
<polygon fill="#63b8ff" stroke="#63b8ff" points="363.24,-288.3 352.78,-289.98 362.01,-295.19 363.24,-288.3"/>
</g>
<!-- Node20 -->
<g id="node20" class="node">
<title>Node20</title>
<g id="a_node20"><a xlink:href="class_o_c_a_1_1_c_a_f_e_v_d_b_1_1_exceptions_1_1_encryption_failed_exception.html" target="_top" xlink:title=" ">
<polygon fill="white" stroke="#666666" points="572.5,-290 439.5,-290 439.5,-271 572.5,-271 572.5,-290"/>
<text text-anchor="middle" x="506" y="-278" font-family="Helvetica,sans-Serif" font-size="10.00">EncryptionFailedException</text>
</a>
</g>
</g>
<!-- Node16&#45;&gt;Node20 -->
<g id="edge19" class="edge">
<title>Node16&#45;&gt;Node20</title>
<path fill="none" stroke="#63b8ff" d="M362.66,-280.5C386.92,-280.5 414.61,-280.5 439.07,-280.5"/>
<polygon fill="#63b8ff" stroke="#63b8ff" points="362.78,-277 352.78,-280.5 362.78,-284 362.78,-277"/>
</g>
<!-- Node21 -->
<g id="node21" class="node">
<title>Node21</title>
<g id="a_node21"><a xlink:href="class_o_c_a_1_1_c_a_f_e_v_d_b_1_1_exceptions_1_1_encryption_key_exception.html" target="_top" xlink:title=" ">
<polygon fill="white" stroke="#666666" points="568,-253 444,-253 444,-234 568,-234 568,-253"/>
<text text-anchor="middle" x="506" y="-241" font-family="Helvetica,sans-Serif" font-size="10.00">EncryptionKeyException</text>
</a>
</g>
</g>
<!-- Node16&#45;&gt;Node21 -->
<g id="edge20" class="edge">
<title>Node16&#45;&gt;Node21</title>
<path fill="none" stroke="#63b8ff" d="M362.59,-269.08C390.37,-264.09 422.67,-258.29 449.47,-253.47"/>
<polygon fill="#63b8ff" stroke="#63b8ff" points="362.01,-265.81 352.78,-271.02 363.24,-272.7 362.01,-265.81"/>
</g>
<!-- Node22 -->
<g id="node22" class="node">
<title>Node22</title>
<g id="a_node22"><a xlink:href="class_o_c_a_1_1_c_a_f_e_v_d_b_1_1_exceptions_1_1_recryption_failed_exception.html" target="_top" xlink:title=" ">
<polygon fill="white" stroke="#666666" points="573,-216 439,-216 439,-197 573,-197 573,-216"/>
<text text-anchor="middle" x="506" y="-204" font-family="Helvetica,sans-Serif" font-size="10.00">RecryptionFailedException</text>
</a>
</g>
</g>
<!-- Node16&#45;&gt;Node22 -->
<g id="edge21" class="edge">
<title>Node16&#45;&gt;Node22</title>
<path fill="none" stroke="#63b8ff" d="M362.43,-271.25C369.6,-268.95 376.62,-266.08 383,-262.5 403.28,-251.11 398.69,-235.84 419,-224.5 425.13,-221.08 431.83,-218.31 438.7,-216.06"/>
<polygon fill="#63b8ff" stroke="#63b8ff" points="361.53,-268.15 352.85,-274.23 363.43,-274.89 361.53,-268.15"/>
</g>
<!-- Node23 -->
<g id="node23" class="node">
<title>Node23</title>
<g id="a_node23"><a xlink:href="class_o_c_a_1_1_c_a_f_e_v_d_b_1_1_exceptions_1_1_recryption_request_not_found_exception.html" target="_top" xlink:title=" ">
<polygon fill="white" stroke="#666666" points="577.5,-178.5 434.5,-178.5 434.5,-148.5 577.5,-148.5 577.5,-178.5"/>
<text text-anchor="start" x="442.5" y="-166.5" font-family="Helvetica,sans-Serif" font-size="10.00">RecryptionRequestNotFound</text>
<text text-anchor="middle" x="506" y="-155.5" font-family="Helvetica,sans-Serif" font-size="10.00">Exception</text>
</a>
</g>
</g>
<!-- Node16&#45;&gt;Node23 -->
<g id="edge22" class="edge">
<title>Node16&#45;&gt;Node23</title>
<path fill="none" stroke="#63b8ff" d="M362.3,-273.61C369.76,-270.93 376.88,-267.32 383,-262.5 412.05,-239.62 390.67,-211.25 419,-187.5 423.63,-183.62 428.85,-180.36 434.37,-177.63"/>
<polygon fill="#63b8ff" stroke="#63b8ff" points="361.54,-270.48 352.98,-276.72 363.56,-277.18 361.54,-270.48"/>
</g>
<!-- Node27 -->
<g id="node27" class="node">
<title>Node27</title>
<g id="a_node27"><a xlink:href="class_o_c_a_1_1_c_a_f_e_v_d_b_1_1_exceptions_1_1_session_still_open_exception.html" target="_top" xlink:title=" ">
<polygon fill="white" stroke="#666666" points="573.5,-130 438.5,-130 438.5,-111 573.5,-111 573.5,-130"/>
<text text-anchor="middle" x="506" y="-118" font-family="Helvetica,sans-Serif" font-size="10.00">SessionStillOpenException</text>
</a>
</g>
</g>
<!-- Node26&#45;&gt;Node27 -->
<g id="edge26" class="edge">
<title>Node26&#45;&gt;Node27</title>
<path fill="none" stroke="#63b8ff" d="M356.52,-157.08C365.41,-154.99 374.47,-152.76 383,-150.5 399.17,-146.21 402.82,-143.75 419,-139.5 431.13,-136.31 444.31,-133.22 456.62,-130.48"/>
<polygon fill="#63b8ff" stroke="#63b8ff" points="355.76,-153.9 346.8,-159.56 357.33,-160.72 355.76,-153.9"/>
</g>
<!-- Node30 -->
<g id="node30" class="node">
<title>Node30</title>
<g id="a_node30"><a xlink:href="class_o_c_a_1_1_c_a_f_e_v_d_b_1_1_exceptions_1_1_sanitizer_failed_exception.html" target="_top" xlink:title="Exception thrown if the respective sanitizer operation is not implemented.">
<polygon fill="white" stroke="#666666" points="568.5,-93 443.5,-93 443.5,-74 568.5,-74 568.5,-93"/>
<text text-anchor="middle" x="506" y="-81" font-family="Helvetica,sans-Serif" font-size="10.00">SanitizerFailedException</text>
</a>
</g>
</g>
<!-- Node29&#45;&gt;Node30 -->
<g id="edge29" class="edge">
<title>Node29&#45;&gt;Node30</title>
<path fill="none" stroke="#63b8ff" d="M358.04,-83.5C384.74,-83.5 416.3,-83.5 443.31,-83.5"/>
<polygon fill="#63b8ff" stroke="#63b8ff" points="358.3,-80 348.3,-83.5 358.3,-87 358.3,-80"/>
</g>
<!-- Node31 -->
<g id="node31" class="node">
<title>Node31</title>
<g id="a_node31"><a xlink:href="class_o_c_a_1_1_c_a_f_e_v_d_b_1_1_exceptions_1_1_sanitizer_not_implemented_exception.html" target="_top" xlink:title="Exception thrown if the respective sanitizer operation is not implemented.">
<polygon fill="white" stroke="#666666" points="591,-56 421,-56 421,-37 591,-37 591,-56"/>
<text text-anchor="middle" x="506" y="-44" font-family="Helvetica,sans-Serif" font-size="10.00">SanitizerNotImplementedException</text>
</a>
</g>
</g>
<!-- Node29&#45;&gt;Node31 -->
<g id="edge30" class="edge">
<title>Node29&#45;&gt;Node31</title>
<path fill="none" stroke="#63b8ff" d="M358.01,-72.9C386.74,-67.74 421.09,-61.57 449.35,-56.49"/>
<polygon fill="#63b8ff" stroke="#63b8ff" points="357.52,-69.61 348.3,-74.83 358.76,-76.5 357.52,-69.61"/>
</g>
<!-- Node32 -->
<g id="node32" class="node">
<title>Node32</title>
<g id="a_node32"><a xlink:href="class_o_c_a_1_1_c_a_f_e_v_d_b_1_1_exceptions_1_1_sanitizer_not_needed_exception.html" target="_top" xlink:title="Exception thrown if the respective sanitizer operation is not implemented.">
<polygon fill="white" stroke="#666666" points="580,-19 432,-19 432,0 580,0 580,-19"/>
<text text-anchor="middle" x="506" y="-7" font-family="Helvetica,sans-Serif" font-size="10.00">SanitizerNotNeededException</text>
</a>
</g>
</g>
<!-- Node29&#45;&gt;Node32 -->
<g id="edge31" class="edge">
<title>Node29&#45;&gt;Node32</title>
<path fill="none" stroke="#63b8ff" d="M358,-74.72C366.69,-72.15 375.3,-68.81 383,-64.5 403.02,-53.28 398.89,-38.55 419,-27.5 424.88,-24.27 431.28,-21.61 437.85,-19.43"/>
<polygon fill="#63b8ff" stroke="#63b8ff" points="357.19,-71.58 348.4,-77.51 358.97,-78.35 357.19,-71.58"/>
</g>
</g>
</svg>
        <g id="navigator" transform="translate(0 0)" fill="#404254">
                <rect fill="#f2f5e9" fill-opacity="0.5" stroke="#606060" stroke-width=".5" x="0" y="0" width="60" height="60"/>
                <use id="zoomplus" xlink:href="#zoomPlus" x="17" y="9" onmousedown="handleZoom(evt,'in')"/>
                <use id="zoomminus" xlink:href="#zoomMin" x="42" y="9" onmousedown="handleZoom(evt,'out')"/>
                <use id="reset" xlink:href="#resetDef" x="30" y="36" onmousedown="handleReset()"/>
                <g id="arrowUp" xlink:href="#dirArrow" transform="translate(30 24)" onmousedown="handlePan(0,-1)">
                  <use xlink:href="#rim" fill="#404040">
                        <set attributeName="fill" to="#808080" begin="arrowUp.mouseover" end="arrowUp.mouseout"/>
                  </use>
                  <path fill="none" stroke="white" stroke-width="1.5" d="M0,-3.0v7 M-2.5,-0.5L0,-3.0L2.5,-0.5"/>
                </g>
                <g id="arrowRight" xlink:href="#dirArrow" transform="rotate(90) translate(36 -43)" onmousedown="handlePan(1,0)">
                  <use xlink:href="#rim" fill="#404040">
                        <set attributeName="fill" to="#808080" begin="arrowRight.mouseover" end="arrowRight.mouseout"/>
                  </use>
                  <path fill="none" stroke="white" stroke-width="1.5" d="M0,-3.0v7 M-2.5,-0.5L0,-3.0L2.5,-0.5"/>
                </g>
                <g id="arrowDown" xlink:href="#dirArrow" transform="rotate(180) translate(-30 -48)" onmousedown="handlePan(0,1)">
                  <use xlink:href="#rim" fill="#404040">
                        <set attributeName="fill" to="#808080" begin="arrowDown.mouseover" end="arrowDown.mouseout"/>
                  </use>
                  <path fill="none" stroke="white" stroke-width="1.5" d="M0,-3.0v7 M-2.5,-0.5L0,-3.0L2.5,-0.5"/>
                </g>
                <g id="arrowLeft" xlink:href="#dirArrow" transform="rotate(270) translate(-36 17)" onmousedown="handlePan(-1,0)">
                  <use xlink:href="#rim" fill="#404040">
                        <set attributeName="fill" to="#808080" begin="arrowLeft.mouseover" end="arrowLeft.mouseout"/>
                  </use>
                  <path fill="none" stroke="white" stroke-width="1.5" d="M0,-3.0v7 M-2.5,-0.5L0,-3.0L2.5,-0.5"/>
                </g>
        </g>
        <svg viewBox="0 0 15 15" width="100%" height="30px" preserveAspectRatio="xMaxYMin meet">
         <g id="arrow_out" transform="scale(0.3 0.3)">
          <a xlink:href="class_o_c_a_1_1_c_a_f_e_v_d_b_1_1_exceptions_1_1_exception__inherit__graph_org.svg" target="_base">
           <rect id="button" ry="5" rx="5" y="6" x="6" height="38" width="38"
                fill="#f2f5e9" fill-opacity="0.5" stroke="#606060" stroke-width="1.0"/>
           <path id="arrow"
             d="M 11.500037,31.436501 C 11.940474,20.09759 22.043105,11.32322 32.158766,21.979434 L 37.068811,17.246167 C 37.068811,17.246167 37.088388,32 37.088388,32 L 22.160133,31.978069 C 22.160133,31.978069 26.997745,27.140456 26.997745,27.140456 C 18.528582,18.264221 13.291696,25.230495 11.500037,31.436501 z"
             style="fill:#404040;"/>
          </a>
         </g>
        </svg>
</svg>
