<?xml version="1.0" encoding="UTF-8" standalone="no"?>
<!DOCTYPE svg PUBLIC "-//W3C//DTD SVG 1.1//EN"
 "http://www.w3.org/Graphics/SVG/1.1/DTD/svg11.dtd">
<!-- Generated by graphviz version 8.0.3 (20230416.2022)
 -->
<!-- Title: personalizedViewName Pages: 1 -->
<svg width="492pt" height="86pt"
 viewBox="0.00 0.00 492.00 86.00" xmlns="http://www.w3.org/2000/svg" xmlns:xlink="http://www.w3.org/1999/xlink">
<g id="graph0" class="graph" transform="scale(1 1) rotate(0) translate(4 82)">
<title>personalizedViewName</title>
<!-- Node1 -->
<g id="node1" class="node">
<title>Node1</title>
<g id="a_node1"><a xlink:title=" ">
<polygon fill="#999999" stroke="#666666" points="484,-48.5 365,-48.5 365,-29.5 484,-29.5 484,-48.5"/>
<text text-anchor="middle" x="424.5" y="-36.5" font-family="Helvetica,sans-Serif" font-size="10.00">personalizedViewName</text>
</a>
</g>
</g>
<!-- Node2 -->
<g id="node2" class="node">
<title>Node2</title>
<g id="a_node2"><a xlink:href="class_o_c_a_1_1_c_a_f_e_v_d_b_1_1_service_1_1_cloud_user_connector_service.html#afd669fc5c9519ec4df86f83338241f86" target="_top" xlink:title="Generate the (My&#45;)SQL statements for defining the personalized single&#45;row musician views.">
<polygon fill="white" stroke="#666666" points="329,-54 180,-54 180,-24 329,-24 329,-54"/>
<text text-anchor="start" x="188" y="-42" font-family="Helvetica,sans-Serif" font-size="10.00">generateMusicianPersonalized</text>
<text text-anchor="middle" x="254.5" y="-31" font-family="Helvetica,sans-Serif" font-size="10.00">ViewsStatements</text>
</a>
</g>
</g>
<!-- Node1&#45;&gt;Node2 -->
<g id="edge1" class="edge">
<title>Node1&#45;&gt;Node2</title>
<path fill="none" stroke="#63b8ff" d="M353.84,-39C345.73,-39 337.45,-39 329.29,-39"/>
<polygon fill="#63b8ff" stroke="#63b8ff" points="353.74,-42.5 363.74,-39 353.74,-35.5 353.74,-42.5"/>
</g>
<!-- Node3 -->
<g id="node3" class="node">
<title>Node3</title>
<g id="a_node3"><a xlink:href="class_o_c_a_1_1_c_a_f_e_v_d_b_1_1_service_1_1_cloud_user_connector_service.html#a10e78d362d26b66ba16cfd97a46499da" target="_top" xlink:title="Delete the personalized one&#45;row views which give individual orchestra members access to just their ow...">
<polygon fill="white" stroke="#666666" points="144,-78 0,-78 0,-48 144,-48 144,-78"/>
<text text-anchor="start" x="8" y="-66" font-family="Helvetica,sans-Serif" font-size="10.00">removeMusicianPersonalized</text>
<text text-anchor="middle" x="72" y="-55" font-family="Helvetica,sans-Serif" font-size="10.00">Views</text>
</a>
</g>
</g>
<!-- Node2&#45;&gt;Node3 -->
<g id="edge2" class="edge">
<title>Node2&#45;&gt;Node3</title>
<path fill="none" stroke="#63b8ff" d="M168.89,-50.25C160.73,-51.33 152.51,-52.43 144.49,-53.49"/>
<polygon fill="#63b8ff" stroke="#63b8ff" points="169.11,-53.62 178.56,-48.83 168.19,-46.68 169.11,-53.62"/>
</g>
<!-- Node4 -->
<g id="node4" class="node">
<title>Node4</title>
<g id="a_node4"><a xlink:href="class_o_c_a_1_1_c_a_f_e_v_d_b_1_1_service_1_1_cloud_user_connector_service.html#ab8482f7cd6afd7290823d6bfafe1c2a3" target="_top" xlink:title="Update the personalized one&#45;row views which give individual orchestra members access to just their ow...">
<polygon fill="white" stroke="#666666" points="142.5,-30 1.5,-30 1.5,0 142.5,0 142.5,-30"/>
<text text-anchor="start" x="9.5" y="-18" font-family="Helvetica,sans-Serif" font-size="10.00">updateMusicianPersonalized</text>
<text text-anchor="middle" x="72" y="-7" font-family="Helvetica,sans-Serif" font-size="10.00">Views</text>
</a>
</g>
</g>
<!-- Node2&#45;&gt;Node4 -->
<g id="edge3" class="edge">
<title>Node2&#45;&gt;Node4</title>
<path fill="none" stroke="#63b8ff" d="M168.93,-27.76C160.16,-26.59 151.33,-25.41 142.75,-24.27"/>
<polygon fill="#63b8ff" stroke="#63b8ff" points="168.19,-31.32 178.56,-29.17 169.11,-24.38 168.19,-31.32"/>
</g>
</g>
</svg>
