<?xml version="1.0" encoding="UTF-8" standalone="no"?>
<!DOCTYPE svg PUBLIC "-//W3C//DTD SVG 1.1//EN"
 "http://www.w3.org/Graphics/SVG/1.1/DTD/svg11.dtd">
<!-- Generated by graphviz version 9.0.0 (20230911.1827)
 -->
<!-- Title: InstrumentFamilies Pages: 1 -->
<svg width="224pt" height="210pt"
 viewBox="0.00 0.00 224.00 210.00" xmlns="http://www.w3.org/2000/svg" xmlns:xlink="http://www.w3.org/1999/xlink">

<svg id="main" version="1.1" xmlns="http://www.w3.org/2000/svg" xmlns:xlink="http://www.w3.org/1999/xlink" xml:space="preserve" onload="init(evt)">
<style type="text/css"><![CDATA[
.node, .edge {opacity: 0.7;}
.node.selected, .edge.selected {opacity: 1;}
.edge:hover path { stroke: red; }
.edge:hover polygon { stroke: red; fill: red; }
]]></style>
<script type="application/ecmascript" xlink:href="svg.min.js"/>
<svg id="graph" class="graph">
<g id="graph0" class="graph" transform="scale(1 1) rotate(0) translate(4 206)">
<title>InstrumentFamilies</title>
<!-- Node1 -->
<g id="Node000001" class="node">
<title>Node1</title>
<g id="a_Node000001"><a xlink:title="Table generator for Instruments table.">
<polygon fill="#999999" stroke="#666666" points="164.5,-20 65.25,-20 65.25,0 164.5,0 164.5,-20"/>
<text text-anchor="middle" x="114.88" y="-6.5" font-family="Helvetica,sans-Serif" font-size="10.00">InstrumentFamilies</text>
</a>
</g>
</g>
<!-- Node2 -->
<g id="Node000002" class="node">
<title>Node2</title>
<g id="a_Node000002"><a xlink:href="class_o_c_a_1_1_c_a_f_e_v_d_b_1_1_page_renderer_1_1_p_m_e_table_view_base.html" target="_top" xlink:title="Base for phpMyEdit based table&#45;views.">
<polygon fill="white" stroke="#666666" points="167.5,-77 62.25,-77 62.25,-57 167.5,-57 167.5,-77"/>
<text text-anchor="middle" x="114.88" y="-63.5" font-family="Helvetica,sans-Serif" font-size="10.00">PMETableViewBase</text>
</a>
</g>
</g>
<!-- Node2&#45;&gt;Node1 -->
<g id="edge1_Node000001_Node000002" class="edge">
<title>Node2&#45;&gt;Node1</title>
<g id="a_edge1_Node000001_Node000002"><a xlink:title=" ">
<path fill="none" stroke="#63b8ff" d="M114.88,-45.69C114.88,-36.97 114.88,-27.22 114.88,-20.28"/>
<polygon fill="#63b8ff" stroke="#63b8ff" points="111.38,-45.4 114.88,-55.4 118.38,-45.4 111.38,-45.4"/>
</a>
</g>
</g>
<!-- Node3 -->
<g id="Node000003" class="node">
<title>Node3</title>
<g id="a_Node000003"><a xlink:href="class_o_c_a_1_1_c_a_f_e_v_d_b_1_1_page_renderer_1_1_renderer.html" target="_top" xlink:title="Abstract base HTML renderer.">
<polygon fill="white" stroke="#666666" points="55.75,-145 0,-145 0,-125 55.75,-125 55.75,-145"/>
<text text-anchor="middle" x="27.88" y="-131.5" font-family="Helvetica,sans-Serif" font-size="10.00">Renderer</text>
</a>
</g>
</g>
<!-- Node3&#45;&gt;Node2 -->
<g id="edge2_Node000002_Node000003" class="edge">
<title>Node3&#45;&gt;Node2</title>
<g id="a_edge2_Node000002_Node000003"><a xlink:title=" ">
<path fill="none" stroke="#63b8ff" d="M49.38,-117.69C66.07,-105.03 88.62,-87.92 102.43,-77.44"/>
<polygon fill="#63b8ff" stroke="#63b8ff" points="47.4,-114.8 41.55,-123.63 51.63,-120.37 47.4,-114.8"/>
</a>
</g>
</g>
<!-- Node4 -->
<g id="Node000004" class="node">
<title>Node4</title>
<g id="a_Node000004"><a xlink:href="interface_o_c_a_1_1_c_a_f_e_v_d_b_1_1_page_renderer_1_1_i_renderer.html" target="_top" xlink:title="HTML Renderer interface.">
<polygon fill="white" stroke="#666666" points="100.25,-202 41.5,-202 41.5,-182 100.25,-182 100.25,-202"/>
<text text-anchor="middle" x="70.88" y="-188.5" font-family="Helvetica,sans-Serif" font-size="10.00">IRenderer</text>
</a>
</g>
</g>
<!-- Node4&#45;&gt;Node3 -->
<g id="edge3_Node000003_Node000004" class="edge">
<title>Node4&#45;&gt;Node3</title>
<g id="a_edge3_Node000003_Node000004"><a xlink:title=" ">
<path fill="none" stroke="#63b8ff" d="M56.85,-173.06C49.6,-163.79 41.05,-152.86 35.13,-145.28"/>
<polygon fill="#63b8ff" stroke="#63b8ff" points="53.93,-175 62.84,-180.73 59.44,-170.69 53.93,-175"/>
</a>
</g>
</g>
<!-- Node5 -->
<g id="Node000005" class="node">
<title>Node5</title>
<g id="a_Node000005"><a xlink:href="interface_o_c_a_1_1_c_a_f_e_v_d_b_1_1_page_renderer_1_1_i_page_renderer.html" target="_top" xlink:title="Page&#45;renderer interface.">
<polygon fill="white" stroke="#666666" points="155.5,-145 74.25,-145 74.25,-125 155.5,-125 155.5,-145"/>
<text text-anchor="middle" x="114.88" y="-131.5" font-family="Helvetica,sans-Serif" font-size="10.00">IPageRenderer</text>
</a>
</g>
</g>
<!-- Node4&#45;&gt;Node5 -->
<g id="edge5_Node000005_Node000004" class="edge">
<title>Node4&#45;&gt;Node5</title>
<g id="a_edge5_Node000005_Node000004"><a xlink:title=" ">
<path fill="none" stroke="#63b8ff" d="M85.22,-173.06C92.64,-163.79 101.39,-152.86 107.45,-145.28"/>
<polygon fill="#63b8ff" stroke="#63b8ff" points="82.6,-170.74 79.09,-180.74 88.07,-175.11 82.6,-170.74"/>
</a>
</g>
</g>
<!-- Node5&#45;&gt;Node2 -->
<g id="edge4_Node000002_Node000005" class="edge">
<title>Node5&#45;&gt;Node2</title>
<g id="a_edge4_Node000002_Node000005"><a xlink:title=" ">
<path fill="none" stroke="#63b8ff" d="M114.88,-113.28C114.88,-101.27 114.88,-86.74 114.88,-77.44"/>
<polygon fill="#63b8ff" stroke="#63b8ff" points="111.38,-113.03 114.88,-123.03 118.38,-113.03 111.38,-113.03"/>
</a>
</g>
</g>
<!-- Node6 -->
<g id="Node000006" class="node">
<title>Node6</title>
<g id="a_Node000006"><a xlink:title=" ">
<polygon fill="white" stroke="#bfbfbf" points="216,-145 173.75,-145 173.75,-125 216,-125 216,-145"/>
<text text-anchor="middle" x="194.88" y="-131.5" font-family="Helvetica,sans-Serif" font-size="10.00">IL10N</text>
</a>
</g>
</g>
<!-- Node6&#45;&gt;Node2 -->
<g id="edge6_Node000002_Node000006" class="edge">
<title>Node6&#45;&gt;Node2</title>
<g id="a_edge6_Node000002_Node000006"><a xlink:title=" ">
<path fill="none" stroke="#9a32cd" stroke-dasharray="5,2" d="M174.67,-117.33C159.37,-104.71 138.9,-87.82 126.32,-77.44"/>
<polygon fill="#9a32cd" stroke="#9a32cd" points="172.3,-119.92 182.25,-123.58 176.76,-114.52 172.3,-119.92"/>
</a>
</g>
<text text-anchor="middle" x="167.12" y="-97.5" font-family="Helvetica,sans-Serif" font-size="10.00" fill="grey"> $l</text>
</g>
</g>
</svg>
</svg>

<style type='text/css'>
<![CDATA[
[data-mouse-over-selected='false'] { opacity: 0.7; }
[data-mouse-over-selected='true']  { opacity: 1.0; }
]]>
</style>
<script type="application/ecmascript"><![CDATA[
document.addEventListener('DOMContentLoaded', (event) => {
  highlightEdges();
  highlightAdjacentNodes();
});
]]></script>
</svg>
