<?xml version="1.0" encoding="UTF-8" standalone="no"?>
<!DOCTYPE svg PUBLIC "-//W3C//DTD SVG 1.1//EN"
 "http://www.w3.org/Graphics/SVG/1.1/DTD/svg11.dtd">
<!-- Generated by graphviz version 9.0.0 (20230911.1827)
 -->
<!-- Title: t Pages: 1 -->
<svg width="511pt" height="180pt"
 viewBox="0.00 0.00 511.05 180.00" xmlns="http://www.w3.org/2000/svg" xmlns:xlink="http://www.w3.org/1999/xlink">
<g id="graph0" class="graph" transform="scale(1 1) rotate(0) translate(4 176)">
<title>t</title>
<!-- Node1 -->
<g id="Node000001" class="node">
<title>Node1</title>
<g id="a_Node000001"><a xlink:title="Guard against undefined $this&#45;&gt;l.">
<polygon fill="#999999" stroke="#666666" points="503.05,-96 474.25,-96 474.25,-76 503.05,-76 503.05,-96"/>
<text text-anchor="middle" x="488.65" y="-82.5" font-family="Helvetica,sans-Serif" font-size="10.00">t</text>
</a>
</g>
</g>
<!-- Node2 -->
<g id="Node000002" class="node">
<title>Node2</title>
<g id="a_Node000002"><a xlink:href="class_o_c_a_1_1_c_a_f_e_v_d_b_1_1_toolkit_1_1_service_1_1_archive_service.html#adb7197696a0127bef42768cfb61ec66b" target="_top" xlink:title=" ">
<polygon fill="white" stroke="#666666" points="152,-134 73,-134 73,-114 152,-114 152,-134"/>
<text text-anchor="middle" x="112.5" y="-120.5" font-family="Helvetica,sans-Serif" font-size="10.00">getArchiveInfo</text>
</a>
</g>
</g>
<!-- Node1&#45;&gt;Node2 -->
<g id="edge1_Node000001_Node000002" class="edge">
<title>Node1&#45;&gt;Node2</title>
<g id="a_edge1_Node000001_Node000002"><a xlink:title=" ">
<path fill="none" stroke="#63b8ff" d="M463.77,-96.89C455.81,-100.05 446.8,-103.15 438.25,-105 336.82,-126.92 213.68,-127.16 152.26,-125.55"/>
<polygon fill="#63b8ff" stroke="#63b8ff" points="464.92,-100.2 472.76,-93.08 462.19,-93.76 464.92,-100.2"/>
</a>
</g>
</g>
<!-- Node3 -->
<g id="Node000003" class="node">
<title>Node3</title>
<g id="a_Node000003"><a xlink:href="class_o_c_a_1_1_c_a_f_e_v_d_b_1_1_toolkit_1_1_service_1_1_archive_service.html#ad1d53e5cbdc6d39c917e86f2ae794aeb" target="_top" xlink:title=" ">
<polygon fill="white" stroke="#666666" points="37,-96 0,-96 0,-76 37,-76 37,-96"/>
<text text-anchor="middle" x="18.5" y="-82.5" font-family="Helvetica,sans-Serif" font-size="10.00">open</text>
</a>
</g>
</g>
<!-- Node1&#45;&gt;Node3 -->
<g id="edge8_Node000001_Node000003" class="edge">
<title>Node1&#45;&gt;Node3</title>
<g id="a_edge8_Node000001_Node000003"><a xlink:title=" ">
<path fill="none" stroke="#63b8ff" d="M463.22,-74.57C455.42,-71.48 446.63,-68.56 438.25,-67 403.4,-60.53 393.93,-66.01 358.5,-67 235.64,-70.44 88.04,-80.88 37.49,-84.64"/>
<polygon fill="#63b8ff" stroke="#63b8ff" points="461.82,-77.78 472.39,-78.49 464.57,-71.34 461.82,-77.78"/>
</a>
</g>
</g>
<!-- Node4 -->
<g id="Node000004" class="node">
<title>Node4</title>
<g id="a_Node000004"><a xlink:href="class_o_c_a_1_1_c_a_f_e_v_d_b_1_1_toolkit_1_1_service_1_1_archive_service.html#a8e072029c19d353dc983217e60927514" target="_top" xlink:title=" ">
<polygon fill="white" stroke="#666666" points="438.25,-96 358.5,-96 358.5,-76 438.25,-76 438.25,-96"/>
<text text-anchor="middle" x="398.38" y="-82.5" font-family="Helvetica,sans-Serif" font-size="10.00">getFileContent</text>
</a>
</g>
</g>
<!-- Node1&#45;&gt;Node4 -->
<g id="edge3_Node000001_Node000004" class="edge">
<title>Node1&#45;&gt;Node4</title>
<g id="a_edge3_Node000001_Node000004"><a xlink:title=" ">
<path fill="none" stroke="#63b8ff" d="M462.39,-86C454.98,-86 446.68,-86 438.61,-86"/>
<polygon fill="#63b8ff" stroke="#63b8ff" points="462.34,-89.5 472.34,-86 462.34,-82.5 462.34,-89.5"/>
</a>
</g>
</g>
<!-- Node5 -->
<g id="Node000005" class="node">
<title>Node5</title>
<g id="a_Node000005"><a xlink:href="class_o_c_a_1_1_c_a_f_e_v_d_b_1_1_toolkit_1_1_service_1_1_archive_service.html#a7010e197d8dce475dfdd443c11dd7ee9" target="_top" xlink:title=" ">
<polygon fill="white" stroke="#666666" points="423.62,-172 373.12,-172 373.12,-152 423.62,-152 423.62,-172"/>
<text text-anchor="middle" x="398.38" y="-158.5" font-family="Helvetica,sans-Serif" font-size="10.00">getFiles</text>
</a>
</g>
</g>
<!-- Node1&#45;&gt;Node5 -->
<g id="edge4_Node000001_Node000005" class="edge">
<title>Node1&#45;&gt;Node5</title>
<g id="a_edge4_Node000001_Node000005"><a xlink:title=" ">
<path fill="none" stroke="#63b8ff" d="M471.98,-104.75C462.75,-115.19 450.51,-128.04 438.25,-138 432.09,-143 424.81,-147.76 418.23,-151.7"/>
<polygon fill="#63b8ff" stroke="#63b8ff" points="474.37,-107.34 478.25,-97.48 469.07,-102.76 474.37,-107.34"/>
</a>
</g>
</g>
<!-- Node7 -->
<g id="Node000007" class="node">
<title>Node7</title>
<g id="a_Node000007"><a xlink:href="class_o_c_a_1_1_c_a_f_e_v_d_b_1_1_toolkit_1_1_service_1_1_archive_service.html#a1f29d353d4da2916ea353d956f7f54af" target="_top" xlink:title=" ">
<polygon fill="white" stroke="#666666" points="436.75,-20 360,-20 360,0 436.75,0 436.75,-20"/>
<text text-anchor="middle" x="398.38" y="-6.5" font-family="Helvetica,sans-Serif" font-size="10.00">getFileStream</text>
</a>
</g>
</g>
<!-- Node1&#45;&gt;Node7 -->
<g id="edge7_Node000001_Node000007" class="edge">
<title>Node1&#45;&gt;Node7</title>
<g id="a_edge7_Node000001_Node000007"><a xlink:title=" ">
<path fill="none" stroke="#63b8ff" d="M471.98,-67.25C462.75,-56.81 450.51,-43.96 438.25,-34 432.09,-29 424.81,-24.24 418.23,-20.3"/>
<polygon fill="#63b8ff" stroke="#63b8ff" points="469.07,-69.24 478.25,-74.52 474.37,-64.66 469.07,-69.24"/>
</a>
</g>
</g>
<!-- Node2&#45;&gt;Node3 -->
<g id="edge2_Node000002_Node000003" class="edge">
<title>Node2&#45;&gt;Node3</title>
<g id="a_edge2_Node000002_Node000003"><a xlink:title=" ">
<path fill="none" stroke="#63b8ff" d="M76.08,-109.37C62.82,-103.89 48.32,-97.9 37.32,-93.36"/>
<polygon fill="#63b8ff" stroke="#63b8ff" points="74.38,-112.46 84.96,-113.04 77.06,-105.99 74.38,-112.46"/>
</a>
</g>
</g>
<!-- Node6 -->
<g id="Node000006" class="node">
<title>Node6</title>
<g id="a_Node000006"><a xlink:href="class_o_c_a_1_1_c_a_f_e_v_d_b_1_1_toolkit_1_1_service_1_1_archive_service.html#a2e9079a65d5beb0113b23bf5fac58125" target="_top" xlink:title="Return the name of the top&#45;level folder for the case that there is only a single folder at folder nes...">
<polygon fill="white" stroke="#666666" points="322.5,-172 188,-172 188,-152 322.5,-152 322.5,-172"/>
<text text-anchor="middle" x="255.25" y="-158.5" font-family="Helvetica,sans-Serif" font-size="10.00">getCommonDirectoryPrefix</text>
</a>
</g>
</g>
<!-- Node5&#45;&gt;Node6 -->
<g id="edge5_Node000005_Node000006" class="edge">
<title>Node5&#45;&gt;Node6</title>
<g id="a_edge5_Node000005_Node000006"><a xlink:title=" ">
<path fill="none" stroke="#63b8ff" d="M361.28,-162C349.58,-162 336.19,-162 322.99,-162"/>
<polygon fill="#63b8ff" stroke="#63b8ff" points="361.28,-165.5 371.28,-162 361.28,-158.5 361.28,-165.5"/>
</a>
</g>
</g>
<!-- Node6&#45;&gt;Node2 -->
<g id="edge6_Node000006_Node000002" class="edge">
<title>Node6&#45;&gt;Node2</title>
<g id="a_edge6_Node000006_Node000002"><a xlink:title=" ">
<path fill="none" stroke="#63b8ff" d="M204.45,-148.55C187.29,-143.92 168.34,-138.81 152.21,-134.45"/>
<polygon fill="#63b8ff" stroke="#63b8ff" points="203.39,-151.89 213.96,-151.12 205.21,-145.14 203.39,-151.89"/>
</a>
</g>
</g>
</g>
</svg>
