<?xml version="1.0" encoding="UTF-8" standalone="no"?>
<!DOCTYPE svg PUBLIC "-//W3C//DTD SVG 1.1//EN"
 "http://www.w3.org/Graphics/SVG/1.1/DTD/svg11.dtd">
<!-- Generated by graphviz version 9.0.0 (20230911.1827)
 -->
<!-- Title: getSubscription Pages: 1 -->
<svg width="621pt" height="240pt"
 viewBox="0.00 0.00 621.00 240.16" xmlns="http://www.w3.org/2000/svg" xmlns:xlink="http://www.w3.org/1999/xlink">
<g id="graph0" class="graph" transform="scale(1 1) rotate(0) translate(4 236.16)">
<title>getSubscription</title>
<!-- Node1 -->
<g id="Node000001" class="node">
<title>Node1</title>
<g id="a_Node000001"><a xlink:title="Find the basic information about a subscription for the given email.">
<polygon fill="#999999" stroke="#666666" points="613,-134 529.5,-134 529.5,-114 613,-114 613,-134"/>
<text text-anchor="middle" x="571.25" y="-120.5" font-family="Helvetica,sans-Serif" font-size="10.00">getSubscription</text>
</a>
</g>
</g>
<!-- Node2 -->
<g id="Node000002" class="node">
<title>Node2</title>
<g id="a_Node000002"><a xlink:href="class_o_c_a_1_1_c_a_f_e_v_d_b_1_1_service_1_1_mailing_lists_service.html#a9dcedfe5d7713b75758ec7098197aa8b" target="_top" xlink:title="Configure the given list as an announcements&#45;only list.">
<polygon fill="white" stroke="#666666" points="142,-96 0,-96 0,-76 142,-76 142,-96"/>
<text text-anchor="middle" x="71" y="-82.5" font-family="Helvetica,sans-Serif" font-size="10.00">configureAnnouncementsList</text>
</a>
</g>
</g>
<!-- Node1&#45;&gt;Node2 -->
<g id="edge1_Node000001_Node000002" class="edge">
<title>Node1&#45;&gt;Node2</title>
<g id="a_edge1_Node000001_Node000002"><a xlink:title=" ">
<path fill="none" stroke="#63b8ff" d="M560.77,-144.34C548.77,-167.34 525.73,-203.61 493.5,-219 438.96,-245.05 417.79,-223.34 357.5,-219 277.1,-213.21 249.98,-229.29 178,-193 131.77,-169.69 93.64,-118.43 78.74,-96.4"/>
<polygon fill="#63b8ff" stroke="#63b8ff" points="563.78,-146.13 565.09,-135.61 557.51,-143.02 563.78,-146.13"/>
</a>
</g>
</g>
<!-- Node3 -->
<g id="Node000003" class="node">
<title>Node3</title>
<g id="a_Node000003"><a xlink:href="class_o_c_a_1_1_c_a_f_e_v_d_b_1_1_service_1_1_mailing_lists_service.html#ae62eae7d1bae43dae28edc191f40da81" target="_top" xlink:title="Fetch the subscription preferences.">
<polygon fill="white" stroke="#666666" points="493.5,-210 357.5,-210 357.5,-190 493.5,-190 493.5,-210"/>
<text text-anchor="middle" x="425.5" y="-196.5" font-family="Helvetica,sans-Serif" font-size="10.00">getSubscriptionPreferences</text>
</a>
</g>
</g>
<!-- Node1&#45;&gt;Node3 -->
<g id="edge2_Node000001_Node000003" class="edge">
<title>Node1&#45;&gt;Node3</title>
<g id="a_edge2_Node000001_Node000003"><a xlink:title=" ">
<path fill="none" stroke="#63b8ff" d="M548.12,-141.19C533.26,-152.17 512.93,-166.14 493.5,-176 483.25,-181.2 471.61,-185.79 460.94,-189.53"/>
<polygon fill="#63b8ff" stroke="#63b8ff" points="549.94,-144.21 555.82,-135.39 545.72,-138.62 549.94,-144.21"/>
</a>
</g>
</g>
<!-- Node4 -->
<g id="Node000004" class="node">
<title>Node4</title>
<g id="a_Node000004"><a xlink:href="class_o_c_a_1_1_c_a_f_e_v_d_b_1_1_controller_1_1_project_participants_controller.html#a51746b27963d94b96e7519f4c78a571c" target="_top" xlink:title="Fetch the delivery states for the given email.">
<polygon fill="white" stroke="#666666" points="321.5,-184 178,-184 178,-140 321.5,-140 321.5,-184"/>
<text text-anchor="start" x="186" y="-170.5" font-family="Helvetica,sans-Serif" font-size="10.00">OCA\CAFEVDB\Controller</text>
<text text-anchor="start" x="186" y="-158.5" font-family="Helvetica,sans-Serif" font-size="10.00">\ProjectParticipantsController</text>
<text text-anchor="middle" x="249.75" y="-146.5" font-family="Helvetica,sans-Serif" font-size="10.00">\mailingListDeliveryStatus</text>
</a>
</g>
</g>
<!-- Node1&#45;&gt;Node4 -->
<g id="edge6_Node000001_Node000004" class="edge">
<title>Node1&#45;&gt;Node4</title>
<g id="a_edge6_Node000001_Node000004"><a xlink:title=" ">
<path fill="none" stroke="#63b8ff" d="M522.48,-137.11C512.94,-139.37 502.95,-141.47 493.5,-143 436.12,-152.28 370.35,-157.08 321.75,-159.52"/>
<polygon fill="#63b8ff" stroke="#63b8ff" points="523.07,-140.57 531.95,-134.78 521.4,-133.77 523.07,-140.57"/>
</a>
</g>
</g>
<!-- Node5 -->
<g id="Node000005" class="node">
<title>Node5</title>
<g id="a_Node000005"><a xlink:href="class_o_c_a_1_1_c_a_f_e_v_d_b_1_1_service_1_1_mailing_lists_service.html#a80b3751e479bc6620f7007cdd019869b" target="_top" xlink:title="Return a brief status for the requested list and email address.">
<polygon fill="white" stroke="#666666" points="481.5,-134 369.5,-134 369.5,-114 481.5,-114 481.5,-134"/>
<text text-anchor="middle" x="425.5" y="-120.5" font-family="Helvetica,sans-Serif" font-size="10.00">getSubscriptionStatus</text>
</a>
</g>
</g>
<!-- Node1&#45;&gt;Node5 -->
<g id="edge4_Node000001_Node000005" class="edge">
<title>Node1&#45;&gt;Node5</title>
<g id="a_edge4_Node000001_Node000005"><a xlink:title=" ">
<path fill="none" stroke="#63b8ff" d="M517.7,-124C506.05,-124 493.66,-124 481.9,-124"/>
<polygon fill="#63b8ff" stroke="#63b8ff" points="517.54,-127.5 527.54,-124 517.54,-120.5 517.54,-127.5"/>
</a>
</g>
</g>
<!-- Node6 -->
<g id="Node000006" class="node">
<title>Node6</title>
<g id="a_Node000006"><a xlink:href="class_o_c_a_1_1_c_a_f_e_v_d_b_1_1_service_1_1_mailing_lists_service.html#a56dd65a95afc760129f3e87827317339" target="_top" xlink:title="Patch the membership config for the given email address.">
<polygon fill="white" stroke="#666666" points="287.38,-96 212.12,-96 212.12,-76 287.38,-76 287.38,-96"/>
<text text-anchor="middle" x="249.75" y="-82.5" font-family="Helvetica,sans-Serif" font-size="10.00">patchMember</text>
</a>
</g>
</g>
<!-- Node1&#45;&gt;Node6 -->
<g id="edge7_Node000001_Node000006" class="edge">
<title>Node1&#45;&gt;Node6</title>
<g id="a_edge7_Node000001_Node000006"><a xlink:title=" ">
<path fill="none" stroke="#63b8ff" d="M522.48,-110.89C512.94,-108.63 502.95,-106.53 493.5,-105 421.1,-93.29 335.33,-88.72 287.58,-87"/>
<polygon fill="#63b8ff" stroke="#63b8ff" points="521.4,-114.23 531.95,-113.22 523.07,-107.43 521.4,-114.23"/>
</a>
</g>
</g>
<!-- Node7 -->
<g id="Node000007" class="node">
<title>Node7</title>
<g id="a_Node000007"><a xlink:href="class_o_c_a_1_1_c_a_f_e_v_d_b_1_1_service_1_1_mailing_lists_service.html#ae49603ed5d837ed0c36ce27d6171576c" target="_top" xlink:title="Set the subscription preferences.">
<polygon fill="white" stroke="#666666" points="493.5,-58 357.5,-58 357.5,-38 493.5,-38 493.5,-58"/>
<text text-anchor="middle" x="425.5" y="-44.5" font-family="Helvetica,sans-Serif" font-size="10.00">setSubscriptionPreferences</text>
</a>
</g>
</g>
<!-- Node1&#45;&gt;Node7 -->
<g id="edge9_Node000001_Node000007" class="edge">
<title>Node1&#45;&gt;Node7</title>
<g id="a_edge9_Node000001_Node000007"><a xlink:title=" ">
<path fill="none" stroke="#63b8ff" d="M548.12,-106.81C533.26,-95.83 512.93,-81.86 493.5,-72 483.25,-66.8 471.61,-62.21 460.94,-58.47"/>
<polygon fill="#63b8ff" stroke="#63b8ff" points="545.72,-109.38 555.82,-112.61 549.94,-103.79 545.72,-109.38"/>
</a>
</g>
</g>
<!-- Node10 -->
<g id="Node000010" class="node">
<title>Node10</title>
<g id="a_Node000010"><a xlink:href="class_o_c_a_1_1_c_a_f_e_v_d_b_1_1_service_1_1_mailing_lists_service.html#adb5ee6484051ff49357847bc6b203409" target="_top" xlink:title="Unsubscribe the given email&#45;address.">
<polygon fill="white" stroke="#666666" points="459.75,-20 391.25,-20 391.25,0 459.75,0 459.75,-20"/>
<text text-anchor="middle" x="425.5" y="-6.5" font-family="Helvetica,sans-Serif" font-size="10.00">unsubscribe</text>
</a>
</g>
</g>
<!-- Node1&#45;&gt;Node10 -->
<g id="edge13_Node000001_Node000010" class="edge">
<title>Node1&#45;&gt;Node10</title>
<g id="a_edge13_Node000001_Node000010"><a xlink:title=" ">
<path fill="none" stroke="#63b8ff" d="M559.14,-103.87C546.17,-82.22 522.71,-48.3 493.5,-29 483.51,-22.4 471.23,-18.07 459.92,-15.23"/>
<polygon fill="#63b8ff" stroke="#63b8ff" points="556.01,-105.45 564.04,-112.36 562.07,-101.95 556.01,-105.45"/>
</a>
</g>
</g>
<!-- Node3&#45;&gt;Node4 -->
<g id="edge3_Node000003_Node000004" class="edge">
<title>Node3&#45;&gt;Node4</title>
<g id="a_edge3_Node000003_Node000004"><a xlink:title=" ">
<path fill="none" stroke="#63b8ff" d="M365.59,-187.12C351.57,-184.05 336.46,-180.75 321.96,-177.57"/>
<polygon fill="#63b8ff" stroke="#63b8ff" points="364.57,-190.47 375.08,-189.19 366.06,-183.64 364.57,-190.47"/>
</a>
</g>
</g>
<!-- Node5&#45;&gt;Node4 -->
<g id="edge5_Node000005_Node000004" class="edge">
<title>Node5&#45;&gt;Node4</title>
<g id="a_edge5_Node000005_Node000004"><a xlink:title=" ">
<path fill="none" stroke="#63b8ff" d="M365.59,-136.88C351.57,-139.95 336.46,-143.25 321.96,-146.43"/>
<polygon fill="#63b8ff" stroke="#63b8ff" points="366.06,-140.36 375.08,-134.81 364.57,-133.53 366.06,-140.36"/>
</a>
</g>
</g>
<!-- Node6&#45;&gt;Node2 -->
<g id="edge8_Node000006_Node000002" class="edge">
<title>Node6&#45;&gt;Node2</title>
<g id="a_edge8_Node000006_Node000002"><a xlink:title=" ">
<path fill="none" stroke="#63b8ff" d="M200.35,-86C182.42,-86 161.7,-86 142.21,-86"/>
<polygon fill="#63b8ff" stroke="#63b8ff" points="200.18,-89.5 210.18,-86 200.18,-82.5 200.18,-89.5"/>
</a>
</g>
</g>
<!-- Node8 -->
<g id="Node000008" class="node">
<title>Node8</title>
<g id="a_Node000008"><a xlink:href="class_o_c_a_1_1_c_a_f_e_v_d_b_1_1_service_1_1_mailing_lists_service.html#aae6bb5b400c885119ac384eb304b42dd" target="_top" xlink:title="Subscribe a victim to the email&#45;list.">
<polygon fill="white" stroke="#666666" points="278.75,-58 220.75,-58 220.75,-38 278.75,-38 278.75,-58"/>
<text text-anchor="middle" x="249.75" y="-44.5" font-family="Helvetica,sans-Serif" font-size="10.00">subscribe</text>
</a>
</g>
</g>
<!-- Node7&#45;&gt;Node8 -->
<g id="edge10_Node000007_Node000008" class="edge">
<title>Node7&#45;&gt;Node8</title>
<g id="a_edge10_Node000007_Node000008"><a xlink:title=" ">
<path fill="none" stroke="#63b8ff" d="M346.08,-48C322.21,-48 297.48,-48 279.2,-48"/>
<polygon fill="#63b8ff" stroke="#63b8ff" points="345.81,-51.5 355.81,-48 345.81,-44.5 345.81,-51.5"/>
</a>
</g>
</g>
<!-- Node8&#45;&gt;Node2 -->
<g id="edge11_Node000008_Node000002" class="edge">
<title>Node8&#45;&gt;Node2</title>
<g id="a_edge11_Node000008_Node000002"><a xlink:title=" ">
<path fill="none" stroke="#63b8ff" d="M209.33,-56.48C183.14,-62.11 148.58,-69.54 120.68,-75.53"/>
<polygon fill="#63b8ff" stroke="#63b8ff" points="209.83,-59.95 218.87,-54.42 208.36,-53.1 209.83,-59.95"/>
</a>
</g>
</g>
<!-- Node9 -->
<g id="Node000009" class="node">
<title>Node9</title>
<g id="a_Node000009"><a xlink:href="class_o_c_a_1_1_c_a_f_e_v_d_b_1_1_service_1_1_mailing_lists_service.html#ad9ddb4782eae69fecac300b4851f524a" target="_top" xlink:title="Just send an invitation.">
<polygon fill="white" stroke="#666666" points="90.62,-58 51.38,-58 51.38,-38 90.62,-38 90.62,-58"/>
<text text-anchor="middle" x="71" y="-44.5" font-family="Helvetica,sans-Serif" font-size="10.00">invite</text>
</a>
</g>
</g>
<!-- Node8&#45;&gt;Node9 -->
<g id="edge12_Node000008_Node000009" class="edge">
<title>Node8&#45;&gt;Node9</title>
<g id="a_edge12_Node000008_Node000009"><a xlink:title=" ">
<path fill="none" stroke="#63b8ff" d="M209.04,-48C172.26,-48 119.15,-48 91.07,-48"/>
<polygon fill="#63b8ff" stroke="#63b8ff" points="208.84,-51.5 218.84,-48 208.84,-44.5 208.84,-51.5"/>
</a>
</g>
</g>
</g>
</svg>
