<?xml version="1.0" encoding="UTF-8" standalone="no"?>
<!DOCTYPE svg PUBLIC "-//W3C//DTD SVG 1.1//EN"
 "http://www.w3.org/Graphics/SVG/1.1/DTD/svg11.dtd">
<!-- Generated by graphviz version 8.0.3 (20230416.2022)
 -->
<!-- Title: listOperation Pages: 1 -->
<svg width="270pt" height="134pt"
 viewBox="0.00 0.00 270.00 134.00" xmlns="http://www.w3.org/2000/svg" xmlns:xlink="http://www.w3.org/1999/xlink">
<g id="graph0" class="graph" transform="scale(1 1) rotate(0) translate(4 130)">
<title>listOperation</title>
<!-- Node1 -->
<g id="node1" class="node">
<title>Node1</title>
<g id="a_node1"><a xlink:title=" ">
<polygon fill="#999999" stroke="#666666" points="262,-72.5 191,-72.5 191,-53.5 262,-53.5 262,-72.5"/>
<text text-anchor="middle" x="226.5" y="-60.5" font-family="Helvetica,sans-Serif" font-size="10.00">listOperation</text>
</a>
</g>
</g>
<!-- Node2 -->
<g id="node2" class="node">
<title>Node2</title>
<g id="a_node2"><a xlink:href="class_o_c_a_1_1_c_a_f_e_v_d_b_1_1_page_renderer_1_1_musicians.html#aedbe7e4eb4663ebadebc04cff5118d09" target="_top" xlink:title="{}">
<polygon fill="white" stroke="#666666" points="155,-126 0,-126 0,-96 155,-96 155,-126"/>
<text text-anchor="start" x="8" y="-114" font-family="Helvetica,sans-Serif" font-size="10.00">OCA\CAFEVDB\PageRenderer</text>
<text text-anchor="middle" x="77.5" y="-103" font-family="Helvetica,sans-Serif" font-size="10.00">\Musicians\__construct</text>
</a>
</g>
</g>
<!-- Node1&#45;&gt;Node2 -->
<g id="edge1" class="edge">
<title>Node1&#45;&gt;Node2</title>
<path fill="none" stroke="#63b8ff" d="M186.45,-76.48C176.23,-79.96 165.22,-83.66 155,-87 146.4,-89.81 137.24,-92.74 128.35,-95.55"/>
<polygon fill="#63b8ff" stroke="#63b8ff" points="187.41,-79.51 195.74,-72.97 185.15,-72.89 187.41,-79.51"/>
</g>
<!-- Node3 -->
<g id="node3" class="node">
<title>Node3</title>
<g id="a_node3"><a xlink:href="class_o_c_a_1_1_c_a_f_e_v_d_b_1_1_page_renderer_1_1_projects.html#a0ba829686a51abb98b01ff5197102247" target="_top" xlink:title="{}">
<polygon fill="white" stroke="#666666" points="155,-78 0,-78 0,-48 155,-48 155,-78"/>
<text text-anchor="start" x="8" y="-66" font-family="Helvetica,sans-Serif" font-size="10.00">OCA\CAFEVDB\PageRenderer</text>
<text text-anchor="middle" x="77.5" y="-55" font-family="Helvetica,sans-Serif" font-size="10.00">\Projects\__construct</text>
</a>
</g>
</g>
<!-- Node1&#45;&gt;Node3 -->
<g id="edge2" class="edge">
<title>Node1&#45;&gt;Node3</title>
<path fill="none" stroke="#63b8ff" d="M179.69,-63C171.93,-63 163.69,-63 155.39,-63"/>
<polygon fill="#63b8ff" stroke="#63b8ff" points="179.66,-66.5 189.66,-63 179.66,-59.5 179.66,-66.5"/>
</g>
<!-- Node4 -->
<g id="node4" class="node">
<title>Node4</title>
<g id="a_node4"><a xlink:href="class_o_c_a_1_1_c_a_f_e_v_d_b_1_1_page_renderer_1_1_projects.html#a4971c7a07753f11eb8b95ff168d8be64" target="_top" xlink:title="{{bool }}">
<polygon fill="white" stroke="#666666" points="155,-30 0,-30 0,0 155,0 155,-30"/>
<text text-anchor="start" x="8" y="-18" font-family="Helvetica,sans-Serif" font-size="10.00">OCA\CAFEVDB\PageRenderer</text>
<text text-anchor="middle" x="77.5" y="-7" font-family="Helvetica,sans-Serif" font-size="10.00">\Projects\needPhpSession</text>
</a>
</g>
</g>
<!-- Node1&#45;&gt;Node4 -->
<g id="edge3" class="edge">
<title>Node1&#45;&gt;Node4</title>
<path fill="none" stroke="#63b8ff" d="M186.45,-49.52C176.23,-46.04 165.22,-42.34 155,-39 146.4,-36.19 137.24,-33.26 128.35,-30.45"/>
<polygon fill="#63b8ff" stroke="#63b8ff" points="185.15,-53.11 195.74,-53.03 187.41,-46.49 185.15,-53.11"/>
</g>
</g>
</svg>
