<?xml version="1.0" encoding="UTF-8" standalone="no"?>
<!DOCTYPE svg PUBLIC "-//W3C//DTD SVG 1.1//EN"
 "http://www.w3.org/Graphics/SVG/1.1/DTD/svg11.dtd">
<!-- Generated by graphviz version 7.1.0 (20230121.1956)
 -->
<!-- Title: remove Pages: 1 -->
<svg width="344pt" height="134pt"
 viewBox="0.00 0.00 344.00 134.00" xmlns="http://www.w3.org/2000/svg" xmlns:xlink="http://www.w3.org/1999/xlink">
<g id="graph0" class="graph" transform="scale(1 1) rotate(0) translate(4 130)">
<title>remove</title>
<!-- Node1 -->
<g id="node1" class="node">
<title>Node1</title>
<g id="a_node1"><a xlink:title="Delete the given mandate if it is not used.">
<polygon fill="#999999" stroke="#666666" points="49,-76 0,-76 0,-57 49,-57 49,-76"/>
<text text-anchor="middle" x="24.5" y="-64" font-family="Helvetica,sans-Serif" font-size="10.00">remove</text>
</a>
</g>
</g>
<!-- Node2 -->
<g id="node2" class="node">
<title>Node2</title>
<g id="a_node2"><a xlink:href="class_o_c_a_1_1_c_a_f_e_v_d_b_1_1_database_1_1_doctrine_1_1_o_r_m_1_1_repositories_1_1_sepa_debit_mandates_repository.html#a3435ec579db5b0ae00575b8f516a8e24" target="_top" xlink:title="Ban a SEPA&#45;mandate (timeout, withdrawn, erroneous data etc.).">
<polygon fill="white" stroke="#666666" points="122.5,-95 90.5,-95 90.5,-76 122.5,-76 122.5,-95"/>
<text text-anchor="middle" x="106.5" y="-83" font-family="Helvetica,sans-Serif" font-size="10.00">ban</text>
</a>
</g>
</g>
<!-- Node1&#45;&gt;Node2 -->
<g id="edge1" class="edge">
<title>Node1&#45;&gt;Node2</title>
<path fill="none" stroke="#63b8ff" d="M49.07,-72.1C58.51,-74.34 69.42,-76.93 79.12,-79.23"/>
<polygon fill="#63b8ff" stroke="#63b8ff" points="78.16,-82.6 88.7,-81.51 79.78,-75.79 78.16,-82.6"/>
</g>
<!-- Node3 -->
<g id="node3" class="node">
<title>Node3</title>
<g id="a_node3"><a xlink:href="class_o_c_a_1_1_c_a_f_e_v_d_b_1_1_database_1_1_doctrine_1_1_o_r_m_1_1_repositories_1_1_sepa_debit_mandates_repository.html#aa83dc5c73575593e20ef022264c93b7c" target="_top" xlink:title="Find a SEPA&#45;mandate by either its primary key or its mandate reference; no&#45;op if $idOrReference alrea...">
<polygon fill="white" stroke="#666666" points="281,-126 219,-126 219,-107 281,-107 281,-126"/>
<text text-anchor="middle" x="250" y="-114" font-family="Helvetica,sans-Serif" font-size="10.00">findOneBy</text>
</a>
</g>
</g>
<!-- Node1&#45;&gt;Node3 -->
<g id="edge4" class="edge">
<title>Node1&#45;&gt;Node3</title>
<path fill="none" stroke="#63b8ff" d="M36.9,-76.26C48.26,-85.35 66.62,-98.4 85,-104.5 124.99,-117.78 173.38,-119.74 207.2,-119.01"/>
<polygon fill="#63b8ff" stroke="#63b8ff" points="207.11,-122.52 217,-118.71 206.89,-115.52 207.11,-122.52"/>
</g>
<!-- Node4 -->
<g id="node4" class="node">
<title>Node4</title>
<g id="a_node4"><a xlink:href="class_o_c_a_1_1_c_a_f_e_v_d_b_1_1_database_1_1_doctrine_1_1_o_r_m_1_1_repositories_1_1_entity_repository.html#ae2b0e1dbe7640aefaf7d54c6a94d08fe" target="_top" xlink:title="Public export of parent function.">
<polygon fill="white" stroke="#666666" points="336,-82 164,-82 164,-41 336,-41 336,-82"/>
<text text-anchor="start" x="172" y="-70" font-family="Helvetica,sans-Serif" font-size="10.00">OCA\CAFEVDB\Database</text>
<text text-anchor="start" x="172" y="-59" font-family="Helvetica,sans-Serif" font-size="10.00">\Doctrine\ORM\Repositories</text>
<text text-anchor="middle" x="250" y="-48" font-family="Helvetica,sans-Serif" font-size="10.00">\EntityRepository\getEntityManager</text>
</a>
</g>
</g>
<!-- Node1&#45;&gt;Node4 -->
<g id="edge5" class="edge">
<title>Node1&#45;&gt;Node4</title>
<path fill="none" stroke="#63b8ff" d="M49.42,-65.96C74.17,-65.41 114.45,-64.51 152.37,-63.66"/>
<polygon fill="#63b8ff" stroke="#63b8ff" points="152.08,-67.17 162,-63.45 151.92,-60.17 152.08,-67.17"/>
</g>
<!-- Node5 -->
<g id="node5" class="node">
<title>Node5</title>
<g id="a_node5"><a xlink:href="class_o_c_a_1_1_c_a_f_e_v_d_b_1_1_database_1_1_doctrine_1_1_o_r_m_1_1_repositories_1_1_sepa_debit_mandates_repository.html#a797cbefa38da929fb4dac2e9ef8b64ae" target="_top" xlink:title="Fetch usage information about the given identifier.">
<polygon fill="white" stroke="#666666" points="128,-19 85,-19 85,0 128,0 128,-19"/>
<text text-anchor="middle" x="106.5" y="-7" font-family="Helvetica,sans-Serif" font-size="10.00">usage</text>
</a>
</g>
</g>
<!-- Node1&#45;&gt;Node5 -->
<g id="edge6" class="edge">
<title>Node1&#45;&gt;Node5</title>
<path fill="none" stroke="#63b8ff" d="M39.43,-56.57C51.37,-48.07 68.77,-35.67 82.73,-25.73"/>
<polygon fill="#63b8ff" stroke="#63b8ff" points="84.38,-28.85 90.49,-20.19 80.32,-23.15 84.38,-28.85"/>
</g>
<!-- Node2&#45;&gt;Node3 -->
<g id="edge2" class="edge">
<title>Node2&#45;&gt;Node3</title>
<path fill="none" stroke="#63b8ff" d="M122.91,-88.88C143.06,-93.29 179.12,-101.19 207.53,-107.41"/>
<polygon fill="#63b8ff" stroke="#63b8ff" points="206.78,-110.83 217.3,-109.55 208.28,-104 206.78,-110.83"/>
</g>
<!-- Node2&#45;&gt;Node4 -->
<g id="edge3" class="edge">
<title>Node2&#45;&gt;Node4</title>
<path fill="none" stroke="#63b8ff" d="M122.91,-82.89C130.78,-81.55 141.08,-79.8 152.41,-77.88"/>
<polygon fill="#63b8ff" stroke="#63b8ff" points="152.77,-81.37 162.04,-76.25 151.59,-74.47 152.77,-81.37"/>
</g>
</g>
</svg>
