<?xml version="1.0" encoding="UTF-8" standalone="no"?>
<!DOCTYPE svg PUBLIC "-//W3C//DTD SVG 1.1//EN"
 "http://www.w3.org/Graphics/SVG/1.1/DTD/svg11.dtd">
<!-- Generated by graphviz version 8.0.3 (20230416.2022)
 -->
<!-- Title: stringize Pages: 1 -->
<svg width="160pt" height="64pt"
 viewBox="0.00 0.00 160.00 64.00" xmlns="http://www.w3.org/2000/svg" xmlns:xlink="http://www.w3.org/1999/xlink">
<g id="graph0" class="graph" transform="scale(1 1) rotate(0) translate(4 60)">
<title>stringize</title>
<!-- Node1 -->
<g id="node1" class="node">
<title>Node1</title>
<g id="a_node1"><a xlink:title=" ">
<polygon fill="#999999" stroke="#666666" points="152,-37 99,-37 99,-18 152,-18 152,-37"/>
<text text-anchor="middle" x="125.5" y="-25" font-family="Helvetica,sans-Serif" font-size="10.00">stringize</text>
</a>
</g>
</g>
<!-- Node2 -->
<g id="node2" class="node">
<title>Node2</title>
<g id="a_node2"><a xlink:href="class_o_c_a_1_1_c_a_f_e_v_d_b_1_1_database_1_1_doctrine_1_1_o_r_m_1_1_entities_1_1_change_log.html#ae830cc5f80999046c344dccda36b0bc7" target="_top" xlink:title="Set newval.">
<polygon fill="white" stroke="#666666" points="63,-56 0,-56 0,-37 63,-37 63,-56"/>
<text text-anchor="middle" x="31.5" y="-44" font-family="Helvetica,sans-Serif" font-size="10.00">setNewval</text>
</a>
</g>
</g>
<!-- Node1&#45;&gt;Node2 -->
<g id="edge1" class="edge">
<title>Node1&#45;&gt;Node2</title>
<path fill="none" stroke="#63b8ff" d="M88.31,-34.97C80.01,-36.69 71.26,-38.5 63.21,-40.16"/>
<polygon fill="#63b8ff" stroke="#63b8ff" points="88.79,-38.24 97.87,-32.79 87.37,-31.39 88.79,-38.24"/>
</g>
<!-- Node3 -->
<g id="node3" class="node">
<title>Node3</title>
<g id="a_node3"><a xlink:href="class_o_c_a_1_1_c_a_f_e_v_d_b_1_1_database_1_1_doctrine_1_1_o_r_m_1_1_entities_1_1_change_log.html#af6f028866f512143422f8ea096b0bfb7" target="_top" xlink:title="Set oldval.">
<polygon fill="white" stroke="#666666" points="60.5,-19 2.5,-19 2.5,0 60.5,0 60.5,-19"/>
<text text-anchor="middle" x="31.5" y="-7" font-family="Helvetica,sans-Serif" font-size="10.00">setOldval</text>
</a>
</g>
</g>
<!-- Node1&#45;&gt;Node3 -->
<g id="edge2" class="edge">
<title>Node1&#45;&gt;Node3</title>
<path fill="none" stroke="#63b8ff" d="M88.18,-20.39C79.11,-18.62 69.52,-16.74 60.9,-15.06"/>
<polygon fill="#63b8ff" stroke="#63b8ff" points="87.39,-24 97.87,-22.49 88.73,-17.13 87.39,-24"/>
</g>
</g>
</svg>
