<?xml version="1.0" encoding="UTF-8" standalone="no"?>
<!DOCTYPE svg PUBLIC "-//W3C//DTD SVG 1.1//EN"
 "http://www.w3.org/Graphics/SVG/1.1/DTD/svg11.dtd">
<!-- Generated by graphviz version 8.0.3 (20230416.2022)
 -->
<!-- Title: extractInstrumentRanking Pages: 1 -->
<svg width="473pt" height="218pt"
 viewBox="0.00 0.00 473.00 217.50" xmlns="http://www.w3.org/2000/svg" xmlns:xlink="http://www.w3.org/1999/xlink">
<g id="graph0" class="graph" transform="scale(1 1) rotate(0) translate(4 213.5)">
<title>extractInstrumentRanking</title>
<!-- Node1 -->
<g id="node1" class="node">
<title>Node1</title>
<g id="a_node1"><a xlink:title="The ranking of the mussician&#39;s instruments is implicitly stored in the order of the instrument ids.">
<polygon fill="#999999" stroke="#666666" points="129,-110.5 0,-110.5 0,-91.5 129,-91.5 129,-110.5"/>
<text text-anchor="middle" x="64.5" y="-98.5" font-family="Helvetica,sans-Serif" font-size="10.00">extractInstrumentRanking</text>
</a>
</g>
</g>
<!-- Node2 -->
<g id="node2" class="node">
<title>Node2</title>
<g id="a_node2"><a xlink:href="class_o_c_a_1_1_c_a_f_e_v_d_b_1_1_page_renderer_1_1_p_m_e_table_view_base.html#a586e3ce7bc155a85dae0bbe3149e4181" target="_top" xlink:title="Be noisy if debugging is enabled.">
<polygon fill="white" stroke="#666666" points="420.5,-209.5 377.5,-209.5 377.5,-190.5 420.5,-190.5 420.5,-209.5"/>
<text text-anchor="middle" x="399" y="-197.5" font-family="Helvetica,sans-Serif" font-size="10.00">debug</text>
</a>
</g>
</g>
<!-- Node1&#45;&gt;Node2 -->
<g id="edge1" class="edge">
<title>Node1&#45;&gt;Node2</title>
<path fill="none" stroke="#63b8ff" d="M73.88,-110.82C89.64,-128.51 125.67,-165.33 165,-181 232.77,-208.01 320.26,-206.46 366.35,-203.14"/>
<polygon fill="#63b8ff" stroke="#63b8ff" points="366.45,-206.56 376.14,-202.27 365.89,-199.58 366.45,-206.56"/>
</g>
<!-- Node3 -->
<g id="node3" class="node">
<title>Node3</title>
<g id="a_node3"><a xlink:href="class_o_c_a_1_1_c_a_f_e_v_d_b_1_1_page_renderer_1_1_p_m_e_table_view_base.html#a0160798c24d6bddc98d5192235a59982" target="_top" xlink:title=" ">
<polygon fill="white" stroke="#666666" points="277,-171.5 185,-171.5 185,-152.5 277,-152.5 277,-171.5"/>
<text text-anchor="middle" x="231" y="-159.5" font-family="Helvetica,sans-Serif" font-size="10.00">debugPrintValues</text>
</a>
</g>
</g>
<!-- Node1&#45;&gt;Node3 -->
<g id="edge2" class="edge">
<title>Node1&#45;&gt;Node3</title>
<path fill="none" stroke="#63b8ff" d="M86.96,-110.9C106.92,-119.91 137.62,-133.26 165,-143 170.82,-145.07 176.99,-147.09 183.11,-149"/>
<polygon fill="#63b8ff" stroke="#63b8ff" points="181.74,-152.54 192.32,-152.08 183.76,-145.84 181.74,-152.54"/>
</g>
<!-- Node5 -->
<g id="node5" class="node">
<title>Node5</title>
<g id="a_node5"><a xlink:href="class_o_c_a_1_1_c_a_f_e_v_d_b_1_1_common_1_1_util.html#a0bef3dc2eedd594dab3a84b15d183c36" target="_top" xlink:title="A preg_explode() wrapper with some extra features.">
<polygon fill="white" stroke="#666666" points="297,-116 165,-116 165,-86 297,-86 297,-116"/>
<text text-anchor="start" x="173" y="-104" font-family="Helvetica,sans-Serif" font-size="10.00">OCA\CAFEVDB\Common</text>
<text text-anchor="middle" x="231" y="-93" font-family="Helvetica,sans-Serif" font-size="10.00">\Util\explode</text>
</a>
</g>
</g>
<!-- Node1&#45;&gt;Node5 -->
<g id="edge5" class="edge">
<title>Node1&#45;&gt;Node5</title>
<path fill="none" stroke="#63b8ff" d="M129.1,-101C137.21,-101 145.57,-101 153.86,-101"/>
<polygon fill="#63b8ff" stroke="#63b8ff" points="153.67,-104.5 163.67,-101 153.67,-97.5 153.67,-104.5"/>
</g>
<!-- Node7 -->
<g id="node7" class="node">
<title>Node7</title>
<g id="a_node7"><a xlink:href="class_o_c_a_1_1_c_a_f_e_v_d_b_1_1_page_renderer_1_1_p_m_e_table_view_base.html#abe18704ee0189ac55323c93db488770c" target="_top" xlink:title="The name of the field&#45;descriptor for a join&#45;table field referencing a master&#45;join&#45;table.">
<polygon fill="white" stroke="#666666" points="282,-67.5 180,-67.5 180,-48.5 282,-48.5 282,-67.5"/>
<text text-anchor="middle" x="231" y="-55.5" font-family="Helvetica,sans-Serif" font-size="10.00">joinTableFieldName</text>
</a>
</g>
</g>
<!-- Node1&#45;&gt;Node7 -->
<g id="edge8" class="edge">
<title>Node1&#45;&gt;Node7</title>
<path fill="none" stroke="#63b8ff" d="M103.65,-91.03C126.72,-85 156.36,-77.25 181.13,-70.77"/>
<polygon fill="#63b8ff" stroke="#63b8ff" points="181.98,-73.91 190.77,-67.99 180.21,-67.14 181.98,-73.91"/>
</g>
<!-- Node8 -->
<g id="node8" class="node">
<title>Node8</title>
<g id="a_node8"><a xlink:href="class_o_c_a_1_1_c_a_f_e_v_d_b_1_1_common_1_1_util.html#aa61d3de43b26061a4d0097306931c64f" target="_top" xlink:title="Remove all whitespace.">
<polygon fill="white" stroke="#666666" points="297,-30 165,-30 165,0 297,0 297,-30"/>
<text text-anchor="start" x="173" y="-18" font-family="Helvetica,sans-Serif" font-size="10.00">OCA\CAFEVDB\Common</text>
<text text-anchor="middle" x="231" y="-7" font-family="Helvetica,sans-Serif" font-size="10.00">\Util\removeSpaces</text>
</a>
</g>
</g>
<!-- Node1&#45;&gt;Node8 -->
<g id="edge9" class="edge">
<title>Node1&#45;&gt;Node8</title>
<path fill="none" stroke="#63b8ff" d="M79.47,-91.01C98.26,-77.89 133.01,-54.67 165,-39 168.08,-37.49 171.28,-36.02 174.53,-34.6"/>
<polygon fill="#63b8ff" stroke="#63b8ff" points="175.51,-37.57 183.39,-30.49 172.82,-31.11 175.51,-37.57"/>
</g>
<!-- Node3&#45;&gt;Node2 -->
<g id="edge4" class="edge">
<title>Node3&#45;&gt;Node2</title>
<path fill="none" stroke="#63b8ff" d="M275.61,-171.98C304.23,-178.54 340.98,-186.95 366.71,-192.84"/>
<polygon fill="#63b8ff" stroke="#63b8ff" points="365.82,-196.45 376.35,-195.27 367.38,-189.63 365.82,-196.45"/>
</g>
<!-- Node4 -->
<g id="node4" class="node">
<title>Node4</title>
<g id="a_node4"><a xlink:href="class_o_c_a_1_1_c_a_f_e_v_d_b_1_1_common_1_1_util.html#a709d772c597d8bc18d170300a8cabbb7" target="_top" xlink:title=" ">
<polygon fill="white" stroke="#666666" points="465,-172 333,-172 333,-142 465,-142 465,-172"/>
<text text-anchor="start" x="341" y="-160" font-family="Helvetica,sans-Serif" font-size="10.00">OCA\CAFEVDB\Common</text>
<text text-anchor="middle" x="399" y="-149" font-family="Helvetica,sans-Serif" font-size="10.00">\Util\arraySliceKeys</text>
</a>
</g>
</g>
<!-- Node3&#45;&gt;Node4 -->
<g id="edge3" class="edge">
<title>Node3&#45;&gt;Node4</title>
<path fill="none" stroke="#63b8ff" d="M277.36,-160.63C291.11,-160.22 306.61,-159.75 321.8,-159.3"/>
<polygon fill="#63b8ff" stroke="#63b8ff" points="321.89,-162.76 331.78,-158.96 321.68,-155.77 321.89,-162.76"/>
</g>
<!-- Node5&#45;&gt;Node5 -->
<g id="edge6" class="edge">
<title>Node5&#45;&gt;Node5</title>
<path fill="none" stroke="#63b8ff" d="M201.73,-116.28C195.23,-125.41 204.98,-134 231,-134 246.04,-134 255.65,-131.13 259.82,-126.94"/>
<polygon fill="#63b8ff" stroke="#63b8ff" points="263.34,-127.41 260.27,-117.28 256.35,-127.12 263.34,-127.41"/>
</g>
<!-- Node6 -->
<g id="node6" class="node">
<title>Node6</title>
<g id="a_node6"><a xlink:href="class_o_c_a_1_1_c_a_f_e_v_d_b_1_1_common_1_1_util.html#a33027424113469f92dd6e70bcd90953f" target="_top" xlink:title="Un&#45;escape delimiters in the given value.">
<polygon fill="white" stroke="#666666" points="465,-116 333,-116 333,-86 465,-86 465,-116"/>
<text text-anchor="start" x="341" y="-104" font-family="Helvetica,sans-Serif" font-size="10.00">OCA\CAFEVDB\Common</text>
<text text-anchor="middle" x="399" y="-93" font-family="Helvetica,sans-Serif" font-size="10.00">\Util\unescapeDelimiter</text>
</a>
</g>
</g>
<!-- Node5&#45;&gt;Node6 -->
<g id="edge7" class="edge">
<title>Node5&#45;&gt;Node6</title>
<path fill="none" stroke="#63b8ff" d="M297.13,-101C305.22,-101 313.54,-101 321.77,-101"/>
<polygon fill="#63b8ff" stroke="#63b8ff" points="321.51,-104.5 331.51,-101 321.51,-97.5 321.51,-104.5"/>
</g>
<!-- Node9 -->
<g id="node9" class="node">
<title>Node9</title>
<g id="a_node9"><a xlink:href="class_o_c_a_1_1_c_a_f_e_v_d_b_1_1_common_1_1_util.html#a420255eaf134f40b32155f8138cde030" target="_top" xlink:title="Normalize spaces and commas after and before spaces.">
<polygon fill="white" stroke="#666666" points="465,-30 333,-30 333,0 465,0 465,-30"/>
<text text-anchor="start" x="341" y="-18" font-family="Helvetica,sans-Serif" font-size="10.00">OCA\CAFEVDB\Common</text>
<text text-anchor="middle" x="399" y="-7" font-family="Helvetica,sans-Serif" font-size="10.00">\Util\normalizeSpaces</text>
</a>
</g>
</g>
<!-- Node8&#45;&gt;Node9 -->
<g id="edge10" class="edge">
<title>Node8&#45;&gt;Node9</title>
<path fill="none" stroke="#63b8ff" d="M297.13,-15C305.22,-15 313.54,-15 321.77,-15"/>
<polygon fill="#63b8ff" stroke="#63b8ff" points="321.51,-18.5 331.51,-15 321.51,-11.5 321.51,-18.5"/>
</g>
</g>
</svg>
