<?xml version="1.0" encoding="UTF-8" standalone="no"?>
<!DOCTYPE svg PUBLIC "-//W3C//DTD SVG 1.1//EN"
 "http://www.w3.org/Graphics/SVG/1.1/DTD/svg11.dtd">
<!-- Generated by graphviz version 7.1.0 (20230121.1956)
 -->
<!-- Title: debug Pages: 1 -->
<svg width="260pt" height="82pt"
 viewBox="0.00 0.00 260.00 82.00" xmlns="http://www.w3.org/2000/svg" xmlns:xlink="http://www.w3.org/1999/xlink">
<g id="graph0" class="graph" transform="scale(1 1) rotate(0) translate(4 78)">
<title>debug</title>
<!-- Node1 -->
<g id="node1" class="node">
<title>Node1</title>
<g id="a_node1"><a xlink:title="Enable debug&#45;messages.">
<polygon fill="#999999" stroke="#666666" points="252,-55 209,-55 209,-36 252,-36 252,-55"/>
<text text-anchor="middle" x="230.5" y="-43" font-family="Helvetica,sans-Serif" font-size="10.00">debug</text>
</a>
</g>
</g>
<!-- Node1&#45;&gt;Node1 -->
<g id="edge2" class="edge">
<title>Node1&#45;&gt;Node1</title>
<path fill="none" stroke="#63b8ff" d="M246.74,-66.43C244.71,-70.29 239.3,-73 230.5,-73 214.42,-73 209.64,-63.94 216.18,-55.37"/>
<polygon fill="#63b8ff" stroke="#63b8ff" points="250.24,-66.12 245.08,-56.86 243.34,-67.31 250.24,-66.12"/>
</g>
<!-- Node2 -->
<g id="node2" class="node">
<title>Node2</title>
<g id="a_node2"><a xlink:href="class_o_c_a_1_1_c_a_f_e_v_d_b_1_1_service_1_1_tool_tips_service.html#a0340edf73e04bf904b07c56070d2d834" target="_top" xlink:title="{}">
<polygon fill="white" stroke="#666666" points="173,-74 105,-74 105,-55 173,-55 173,-74"/>
<text text-anchor="middle" x="139" y="-62" font-family="Helvetica,sans-Serif" font-size="10.00">__construct</text>
</a>
</g>
</g>
<!-- Node1&#45;&gt;Node2 -->
<g id="edge1" class="edge">
<title>Node1&#45;&gt;Node2</title>
<path fill="none" stroke="#63b8ff" d="M197.69,-52.25C189.77,-53.94 181.25,-55.74 173.26,-57.44"/>
<polygon fill="#63b8ff" stroke="#63b8ff" points="198.21,-55.72 207.26,-50.22 196.75,-48.87 198.21,-55.72"/>
</g>
<!-- Node3 -->
<g id="node3" class="node">
<title>Node3</title>
<g id="a_node3"><a xlink:href="class_o_c_a_1_1_c_a_f_e_v_d_b_1_1_service_1_1_tool_tips_service.html#afa7ed4ea9907527ec2359bd5e03e6bfc" target="_top" xlink:title="Return a translated tool&#45;tip for the given key.">
<polygon fill="white" stroke="#666666" points="158,-37 120,-37 120,-18 158,-18 158,-37"/>
<text text-anchor="middle" x="139" y="-25" font-family="Helvetica,sans-Serif" font-size="10.00">fetch</text>
</a>
</g>
</g>
<!-- Node1&#45;&gt;Node3 -->
<g id="edge3" class="edge">
<title>Node1&#45;&gt;Node3</title>
<path fill="none" stroke="#63b8ff" d="M197.67,-39.1C184.43,-36.44 169.55,-33.44 158.22,-31.16"/>
<polygon fill="#63b8ff" stroke="#63b8ff" points="196.76,-42.49 207.26,-41.03 198.14,-35.62 196.76,-42.49"/>
</g>
<!-- Node4 -->
<g id="node4" class="node">
<title>Node4</title>
<g id="a_node4"><a xlink:href="class_o_c_a_1_1_c_a_f_e_v_d_b_1_1_service_1_1_tool_tips_service.html#a2fa83c64b65bfcd6ae01aa378370f012" target="_top" xlink:title="{}">
<polygon fill="white" stroke="#666666" points="69,-56 0,-56 0,-37 69,-37 69,-56"/>
<text text-anchor="middle" x="34.5" y="-44" font-family="Helvetica,sans-Serif" font-size="10.00">offsetExists</text>
</a>
</g>
</g>
<!-- Node3&#45;&gt;Node4 -->
<g id="edge4" class="edge">
<title>Node3&#45;&gt;Node4</title>
<path fill="none" stroke="#63b8ff" d="M108.68,-32.94C96.43,-35.21 82.11,-37.86 69.41,-40.21"/>
<polygon fill="#63b8ff" stroke="#63b8ff" points="108.99,-36.44 118.19,-31.17 107.72,-29.55 108.99,-36.44"/>
</g>
<!-- Node5 -->
<g id="node5" class="node">
<title>Node5</title>
<g id="a_node5"><a xlink:href="class_o_c_a_1_1_c_a_f_e_v_d_b_1_1_service_1_1_tool_tips_service.html#a3d6a26d211a99287459a423d3965f11f" target="_top" xlink:title="{}">
<polygon fill="white" stroke="#666666" points="63,-19 6,-19 6,0 63,0 63,-19"/>
<text text-anchor="middle" x="34.5" y="-7" font-family="Helvetica,sans-Serif" font-size="10.00">offsetGet</text>
</a>
</g>
</g>
<!-- Node3&#45;&gt;Node5 -->
<g id="edge5" class="edge">
<title>Node3&#45;&gt;Node5</title>
<path fill="none" stroke="#63b8ff" d="M108.5,-22.32C94.28,-19.82 77.32,-16.84 63.32,-14.39"/>
<polygon fill="#63b8ff" stroke="#63b8ff" points="107.73,-25.74 118.18,-24.02 108.94,-18.84 107.73,-25.74"/>
</g>
</g>
</svg>
