<?xml version="1.0" encoding="UTF-8" standalone="no"?>
<!DOCTYPE svg PUBLIC "-//W3C//DTD SVG 1.1//EN"
 "http://www.w3.org/Graphics/SVG/1.1/DTD/svg11.dtd">
<!-- Generated by graphviz version 8.0.3 (20230416.2022)
 -->
<!-- Title: queryLog Pages: 1 -->
<svg width="272pt" height="101pt"
 viewBox="0.00 0.00 272.00 101.00" xmlns="http://www.w3.org/2000/svg" xmlns:xlink="http://www.w3.org/1999/xlink">
<g id="graph0" class="graph" transform="scale(1 1) rotate(0) translate(4 97)">
<title>queryLog</title>
<!-- Node1 -->
<g id="node1" class="node">
<title>Node1</title>
<g id="a_node1"><a xlink:title=" ">
<polygon fill="#999999" stroke="#666666" points="264,-56 208,-56 208,-37 264,-37 264,-56"/>
<text text-anchor="middle" x="236" y="-44" font-family="Helvetica,sans-Serif" font-size="10.00">queryLog</text>
</a>
</g>
</g>
<!-- Node2 -->
<g id="node2" class="node">
<title>Node2</title>
<g id="a_node2"><a xlink:href="class_o_c_a_1_1_c_a_f_e_v_d_b_1_1_database_1_1_legacy_1_1_p_m_e_1_1_p_h_p_my_edit.html#a5e186c5bc8073d195a08e40f7e7a88df" target="_top" xlink:title="Override constructor, delay most of the actual work to the execute() method.">
<polygon fill="white" stroke="#666666" points="166,-93 98,-93 98,-74 166,-74 166,-93"/>
<text text-anchor="middle" x="132" y="-81" font-family="Helvetica,sans-Serif" font-size="10.00">__construct</text>
</a>
</g>
</g>
<!-- Node1&#45;&gt;Node2 -->
<g id="edge1" class="edge">
<title>Node1&#45;&gt;Node2</title>
<path fill="none" stroke="#63b8ff" d="M197.65,-60.05C185.33,-64.52 171.85,-69.41 160.41,-73.56"/>
<polygon fill="#63b8ff" stroke="#63b8ff" points="198.46,-63.12 206.67,-56.42 196.07,-56.54 198.46,-63.12"/>
</g>
<!-- Node3 -->
<g id="node3" class="node">
<title>Node3</title>
<g id="a_node3"><a xlink:href="class_o_c_a_1_1_c_a_f_e_v_d_b_1_1_database_1_1_legacy_1_1_p_m_e_1_1_p_h_p_my_edit.html#aa75da3e61a121d70baf072eac711f662" target="_top" xlink:title=" ">
<polygon fill="white" stroke="#666666" points="172,-56 92,-56 92,-37 172,-37 172,-56"/>
<text text-anchor="middle" x="132" y="-44" font-family="Helvetica,sans-Serif" font-size="10.00">clearQueryLog</text>
</a>
</g>
</g>
<!-- Node1&#45;&gt;Node3 -->
<g id="edge2" class="edge">
<title>Node1&#45;&gt;Node3</title>
<path fill="none" stroke="#63b8ff" d="M196.76,-46.5C188.76,-46.5 180.33,-46.5 172.3,-46.5"/>
<polygon fill="#63b8ff" stroke="#63b8ff" points="196.67,-50 206.67,-46.5 196.67,-43 196.67,-50"/>
</g>
<!-- Node4 -->
<g id="node4" class="node">
<title>Node4</title>
<g id="a_node4"><a xlink:href="class_o_c_a_1_1_c_a_f_e_v_d_b_1_1_database_1_1_legacy_1_1_p_m_e_1_1_p_h_p_my_edit.html#a7929c701d876cbbef86103e9ab6c8b33" target="_top" xlink:title="{}">
<polygon fill="white" stroke="#666666" points="159,-19 105,-19 105,0 159,0 159,-19"/>
<text text-anchor="middle" x="132" y="-7" font-family="Helvetica,sans-Serif" font-size="10.00">myquery</text>
</a>
</g>
</g>
<!-- Node1&#45;&gt;Node4 -->
<g id="edge3" class="edge">
<title>Node1&#45;&gt;Node4</title>
<path fill="none" stroke="#63b8ff" d="M197.4,-32.86C184.76,-28.28 170.94,-23.26 159.35,-19.06"/>
<polygon fill="#63b8ff" stroke="#63b8ff" points="196.07,-36.46 206.67,-36.58 198.46,-29.88 196.07,-36.46"/>
</g>
<!-- Node5 -->
<g id="node5" class="node">
<title>Node5</title>
<g id="a_node5"><a xlink:href="class_o_c_a_1_1_c_a_f_e_v_d_b_1_1_database_1_1_legacy_1_1_p_m_e_1_1_p_h_p_my_edit.html#aea5a722b6408a1bc28308efe47b7add9" target="_top" xlink:title="{}">
<polygon fill="white" stroke="#666666" points="56,-19 0,-19 0,0 56,0 56,-19"/>
<text text-anchor="middle" x="28" y="-7" font-family="Helvetica,sans-Serif" font-size="10.00">logQuery</text>
</a>
</g>
</g>
<!-- Node4&#45;&gt;Node5 -->
<g id="edge4" class="edge">
<title>Node4&#45;&gt;Node5</title>
<path fill="none" stroke="#63b8ff" d="M93.76,-9.5C81.34,-9.5 67.76,-9.5 56.25,-9.5"/>
<polygon fill="#63b8ff" stroke="#63b8ff" points="93.73,-13 103.73,-9.5 93.73,-6 93.73,-13"/>
</g>
</g>
</svg>
