<?xml version="1.0" encoding="UTF-8" standalone="no"?>
<!DOCTYPE svg PUBLIC "-//W3C//DTD SVG 1.1//EN"
 "http://www.w3.org/Graphics/SVG/1.1/DTD/svg11.dtd">
<!-- Generated by graphviz version 12.2.1 (20241206.2353)
 -->
<!-- Title: getSubscription Pages: 1 -->
<!--zoomable 218 -->

<svg id="main" version="1.1" xmlns="http://www.w3.org/2000/svg" xmlns:xlink="http://www.w3.org/1999/xlink" xml:space="preserve" onload="init(evt)">

<style type="text/css"><![CDATA[
.node, .edge {opacity: 0.7;}
.node.selected, .edge.selected {opacity: 1;}
.edge:hover path { stroke: red; }
.edge:hover polygon { stroke: red; fill: red; }
]]></style>

<defs>
  <circle id="rim" cx="0" cy="0" r="7"/>
  <circle id="rim2" cx="0" cy="0" r="3.5"/>
  <g id="zoomPlus">
    <use xlink:href="#rim" fill="#404040"><set attributeName="fill" to="#808080" begin="zoomplus.mouseover" end="zoomplus.mouseout"/></use>
    <path d="M-4,0h8M0,-4v8" fill="none" stroke="white" stroke-width="1.5" pointer-events="none"/>
  </g>
  <g id="zoomMin">
    <use xlink:href="#rim" fill="#404040"><set attributeName="fill" to="#808080" begin="zoomminus.mouseover" end="zoomminus.mouseout"/></use>
    <path d="M-4,0h8" fill="none" stroke="white" stroke-width="1.5" pointer-events="none"/>
  </g>
  <g id="arrowUp" transform="translate(30 24)">
    <use xlink:href="#rim"/>
    <path pointer-events="none" fill="none" stroke="white" stroke-width="1.5" d="M0,-3.0v7 M-2.5,-0.5L0,-3.0L2.5,-0.5"/>
  </g>
  <g id="arrowRight" transform="rotate(90) translate(36 -43)">
    <use xlink:href="#rim"/>
    <path pointer-events="none" fill="none" stroke="white" stroke-width="1.5" d="M0,-3.0v7 M-2.5,-0.5L0,-3.0L2.5,-0.5"/>
  </g>
  <g id="arrowDown" transform="rotate(180) translate(-30 -48)">
    <use xlink:href="#rim"/>
    <path pointer-events="none" fill="none" stroke="white" stroke-width="1.5" d="M0,-3.0v7 M-2.5,-0.5L0,-3.0L2.5,-0.5"/>
  </g>
  <g id="arrowLeft" transform="rotate(270) translate(-36 17)">
    <use xlink:href="#rim"/>
    <path pointer-events="none" fill="none" stroke="white" stroke-width="1.5" d="M0,-3.0v7 M-2.5,-0.5L0,-3.0L2.5,-0.5"/>
  </g>
  <g id="resetDef">
    <use xlink:href="#rim2" fill="#404040"><set attributeName="fill" to="#808080" begin="reset.mouseover" end="reset.mouseout"/></use>
  </g>
</defs>
<script type="application/ecmascript">
var viewWidth = 518;
var viewHeight = 218;
var sectionId = 'dynsection-16';
</script>
<script type="application/ecmascript" xlink:href="svg.min.js"/>
<svg id="graph" class="graph">
<g id="viewport">
<title>getSubscription</title>
<!-- Node1 -->
<g id="Node000001" class="node">
<title>Node1</title>
<g id="a_Node000001"><a xlink:title="Find the basic information about a subscription for the given email.">
<polygon fill="#999999" stroke="#666666" points="510.25,-115 426.75,-115 426.75,-95 510.25,-95 510.25,-115"/>
<text text-anchor="middle" x="468.5" y="-101.5" font-family="Helvetica,sans-Serif" font-size="10.00">getSubscription</text>
</a>
</g>
</g>
<!-- Node2 -->
<g id="Node000002" class="node">
<title>Node2</title>
<g id="a_Node000002"><a xlink:href="class_o_c_a_1_1_c_a_f_e_v_d_b_1_1_service_1_1_mailing_lists_service.html#ae62eae7d1bae43dae28edc191f40da81" target="_top" xlink:title="Fetch the subscription preferences.">
<polygon fill="white" stroke="#666666" points="390.75,-210 254.75,-210 254.75,-190 390.75,-190 390.75,-210"/>
<text text-anchor="middle" x="322.75" y="-196.5" font-family="Helvetica,sans-Serif" font-size="10.00">getSubscriptionPreferences</text>
</a>
</g>
</g>
<!-- Node1&#45;&gt;Node2 -->
<g id="edge1_Node000001_Node000002" class="edge">
<title>Node1&#45;&gt;Node2</title>
<g id="a_edge1_Node000001_Node000002"><a xlink:title=" ">
<path fill="none" stroke="#63b8ff" d="M451.27,-123.77C436.77,-139.55 414.23,-161.76 390.75,-176 381.66,-181.51 371.12,-186.03 361.13,-189.6"/>
<polygon fill="#63b8ff" stroke="#63b8ff" points="453.76,-126.24 457.82,-116.45 448.54,-121.57 453.76,-126.24"/>
</a>
</g>
</g>
<!-- Node3 -->
<g id="Node000003" class="node">
<title>Node3</title>
<g id="a_Node000003"><a xlink:href="class_o_c_a_1_1_c_a_f_e_v_d_b_1_1_controller_1_1_project_participants_controller.html#a51746b27963d94b96e7519f4c78a571c" target="_top" xlink:title="Fetch the delivery states for the given email.">
<polygon fill="white" stroke="#666666" points="218.75,-184 75.25,-184 75.25,-140 218.75,-140 218.75,-184"/>
<text text-anchor="start" x="83.25" y="-170.5" font-family="Helvetica,sans-Serif" font-size="10.00">OCA\CAFEVDB\Controller</text>
<text text-anchor="start" x="83.25" y="-158.5" font-family="Helvetica,sans-Serif" font-size="10.00">\ProjectParticipantsController</text>
<text text-anchor="middle" x="147" y="-146.5" font-family="Helvetica,sans-Serif" font-size="10.00">\mailingListDeliveryStatus</text>
</a>
</g>
</g>
<!-- Node1&#45;&gt;Node3 -->
<g id="edge5_Node000001_Node000003" class="edge">
<title>Node1&#45;&gt;Node3</title>
<g id="a_edge5_Node000001_Node000003"><a xlink:title=" ">
<path fill="none" stroke="#63b8ff" d="M441.48,-121C427.06,-129.04 408.51,-138.1 390.75,-143 334.41,-158.53 268.12,-162.83 219.07,-163.49"/>
<polygon fill="#63b8ff" stroke="#63b8ff" points="442.95,-124.19 449.86,-116.15 439.45,-118.13 442.95,-124.19"/>
</a>
</g>
</g>
<!-- Node4 -->
<g id="Node000004" class="node">
<title>Node4</title>
<g id="a_Node000004"><a xlink:href="class_o_c_a_1_1_c_a_f_e_v_d_b_1_1_service_1_1_mailing_lists_service.html#a80b3751e479bc6620f7007cdd019869b" target="_top" xlink:title="Return a brief status for the requested list and email address.">
<polygon fill="white" stroke="#666666" points="378.75,-134 266.75,-134 266.75,-114 378.75,-114 378.75,-134"/>
<text text-anchor="middle" x="322.75" y="-120.5" font-family="Helvetica,sans-Serif" font-size="10.00">getSubscriptionStatus</text>
</a>
</g>
</g>
<!-- Node1&#45;&gt;Node4 -->
<g id="edge3_Node000001_Node000004" class="edge">
<title>Node1&#45;&gt;Node4</title>
<g id="a_edge3_Node000001_Node000004"><a xlink:title=" ">
<path fill="none" stroke="#63b8ff" d="M414.95,-111.95C403.3,-113.49 390.91,-115.12 379.15,-116.68"/>
<polygon fill="#63b8ff" stroke="#63b8ff" points="415.35,-115.42 424.81,-110.64 414.43,-108.48 415.35,-115.42"/>
</a>
</g>
</g>
<!-- Node5 -->
<g id="Node000005" class="node">
<title>Node5</title>
<g id="a_Node000005"><a xlink:href="class_o_c_a_1_1_c_a_f_e_v_d_b_1_1_service_1_1_mailing_lists_service.html#a56dd65a95afc760129f3e87827317339" target="_top" xlink:title="Patch the membership config for the given email address.">
<polygon fill="white" stroke="#666666" points="360.38,-96 285.12,-96 285.12,-76 360.38,-76 360.38,-96"/>
<text text-anchor="middle" x="322.75" y="-82.5" font-family="Helvetica,sans-Serif" font-size="10.00">patchMember</text>
</a>
</g>
</g>
<!-- Node1&#45;&gt;Node5 -->
<g id="edge6_Node000001_Node000005" class="edge">
<title>Node1&#45;&gt;Node5</title>
<g id="a_edge6_Node000001_Node000005"><a xlink:title=" ">
<path fill="none" stroke="#63b8ff" d="M415.03,-98.06C396.95,-95.67 377.1,-93.05 360.54,-90.86"/>
<polygon fill="#63b8ff" stroke="#63b8ff" points="414.43,-101.52 424.81,-99.36 415.35,-94.58 414.43,-101.52"/>
</a>
</g>
</g>
<!-- Node6 -->
<g id="Node000006" class="node">
<title>Node6</title>
<g id="a_Node000006"><a xlink:href="class_o_c_a_1_1_c_a_f_e_v_d_b_1_1_service_1_1_mailing_lists_service.html#ae49603ed5d837ed0c36ce27d6171576c" target="_top" xlink:title="Set the subscription preferences.">
<polygon fill="white" stroke="#666666" points="390.75,-58 254.75,-58 254.75,-38 390.75,-38 390.75,-58"/>
<text text-anchor="middle" x="322.75" y="-44.5" font-family="Helvetica,sans-Serif" font-size="10.00">setSubscriptionPreferences</text>
</a>
</g>
</g>
<!-- Node1&#45;&gt;Node6 -->
<g id="edge7_Node000001_Node000006" class="edge">
<title>Node1&#45;&gt;Node6</title>
<g id="a_edge7_Node000001_Node000006"><a xlink:title=" ">
<path fill="none" stroke="#63b8ff" d="M438.89,-89.27C424.69,-81.87 407.11,-73.31 390.75,-67 382.63,-63.87 373.77,-60.99 365.24,-58.48"/>
<polygon fill="#63b8ff" stroke="#63b8ff" points="437.2,-92.34 447.67,-93.93 440.48,-86.15 437.2,-92.34"/>
</a>
</g>
</g>
<!-- Node9 -->
<g id="Node000009" class="node">
<title>Node9</title>
<g id="a_Node000009"><a xlink:href="class_o_c_a_1_1_c_a_f_e_v_d_b_1_1_service_1_1_mailing_lists_service.html#adb5ee6484051ff49357847bc6b203409" target="_top" xlink:title="Unsubscribe the given email&#45;address.">
<polygon fill="white" stroke="#666666" points="357,-20 288.5,-20 288.5,0 357,0 357,-20"/>
<text text-anchor="middle" x="322.75" y="-6.5" font-family="Helvetica,sans-Serif" font-size="10.00">unsubscribe</text>
</a>
</g>
</g>
<!-- Node1&#45;&gt;Node9 -->
<g id="edge10_Node000001_Node000009" class="edge">
<title>Node1&#45;&gt;Node9</title>
<g id="a_edge10_Node000001_Node000009"><a xlink:title=" ">
<path fill="none" stroke="#63b8ff" d="M453.11,-86.05C439.01,-68.77 416.03,-43.76 390.75,-29 380.62,-23.09 368.55,-18.93 357.46,-16.04"/>
<polygon fill="#63b8ff" stroke="#63b8ff" points="450.09,-87.88 459.04,-93.55 455.58,-83.54 450.09,-87.88"/>
</a>
</g>
</g>
<!-- Node2&#45;&gt;Node3 -->
<g id="edge2_Node000002_Node000003" class="edge">
<title>Node2&#45;&gt;Node3</title>
<g id="a_edge2_Node000002_Node000003"><a xlink:title=" ">
<path fill="none" stroke="#63b8ff" d="M262.84,-187.12C248.82,-184.05 233.71,-180.75 219.21,-177.57"/>
<polygon fill="#63b8ff" stroke="#63b8ff" points="261.82,-190.47 272.33,-189.19 263.31,-183.64 261.82,-190.47"/>
</a>
</g>
</g>
<!-- Node4&#45;&gt;Node3 -->
<g id="edge4_Node000004_Node000003" class="edge">
<title>Node4&#45;&gt;Node3</title>
<g id="a_edge4_Node000004_Node000003"><a xlink:title=" ">
<path fill="none" stroke="#63b8ff" d="M262.84,-136.88C248.82,-139.95 233.71,-143.25 219.21,-146.43"/>
<polygon fill="#63b8ff" stroke="#63b8ff" points="263.31,-140.36 272.33,-134.81 261.82,-133.53 263.31,-140.36"/>
</a>
</g>
</g>
<!-- Node7 -->
<g id="Node000007" class="node">
<title>Node7</title>
<g id="a_Node000007"><a xlink:href="class_o_c_a_1_1_c_a_f_e_v_d_b_1_1_service_1_1_mailing_lists_service.html#aae6bb5b400c885119ac384eb304b42dd" target="_top" xlink:title="Subscribe a victim to the email&#45;list.">
<polygon fill="white" stroke="#666666" points="176,-58 118,-58 118,-38 176,-38 176,-58"/>
<text text-anchor="middle" x="147" y="-44.5" font-family="Helvetica,sans-Serif" font-size="10.00">subscribe</text>
</a>
</g>
</g>
<!-- Node6&#45;&gt;Node7 -->
<g id="edge8_Node000006_Node000007" class="edge">
<title>Node6&#45;&gt;Node7</title>
<g id="a_edge8_Node000006_Node000007"><a xlink:title=" ">
<path fill="none" stroke="#63b8ff" d="M243.33,-48C219.46,-48 194.73,-48 176.45,-48"/>
<polygon fill="#63b8ff" stroke="#63b8ff" points="243.06,-51.5 253.06,-48 243.06,-44.5 243.06,-51.5"/>
</a>
</g>
</g>
<!-- Node8 -->
<g id="Node000008" class="node">
<title>Node8</title>
<g id="a_Node000008"><a xlink:href="class_o_c_a_1_1_c_a_f_e_v_d_b_1_1_service_1_1_mailing_lists_service.html#ad9ddb4782eae69fecac300b4851f524a" target="_top" xlink:title="Just send an invitation.">
<polygon fill="white" stroke="#666666" points="39.25,-58 0,-58 0,-38 39.25,-38 39.25,-58"/>
<text text-anchor="middle" x="19.62" y="-44.5" font-family="Helvetica,sans-Serif" font-size="10.00">invite</text>
</a>
</g>
</g>
<!-- Node7&#45;&gt;Node8 -->
<g id="edge9_Node000007_Node000008" class="edge">
<title>Node7&#45;&gt;Node8</title>
<g id="a_edge9_Node000007_Node000008"><a xlink:title=" ">
<path fill="none" stroke="#63b8ff" d="M106.07,-48C83.83,-48 57.18,-48 39.62,-48"/>
<polygon fill="#63b8ff" stroke="#63b8ff" points="106.04,-51.5 116.04,-48 106.04,-44.5 106.04,-51.5"/>
</a>
</g>
</g>
</g>
</svg>

<g id="navigator" transform="translate(0 0)" fill="#404254">
  <rect fill="#f2f5e9" fill-opacity="0.5" stroke="#606060" stroke-width=".5" x="0" y="0" width="60" height="60"/>
  <use id="zoomplus" xlink:href="#zoomPlus" x="17" y="9" onmousedown="handleZoom(evt,'in')"/>
  <use id="zoomminus" xlink:href="#zoomMin" x="42" y="9" onmousedown="handleZoom(evt,'out')"/>
  <use id="reset" xlink:href="#resetDef" x="30" y="36" onmousedown="handleReset()"/>
   <use id="arrowup" xlink:href="#arrowUp" x="0" y="0" onmousedown="handlePan(0,-1)"/>
  <use id="arrowright" xlink:href="#arrowRight" x="0" y="0" onmousedown="handlePan(1,0)"/>
  <use id="arrowdown" xlink:href="#arrowDown" x="0" y="0" onmousedown="handlePan(0,1)"/>
  <use id="arrowleft" xlink:href="#arrowLeft" x="0" y="0" onmousedown="handlePan(-1,0)"/>
</g>
<svg viewBox="0 0 15 15" width="100%" height="30px" preserveAspectRatio="xMaxYMin meet">
 <g id="arrow_out" transform="scale(0.3 0.3)">
  <a xlink:href="class_o_c_a_1_1_c_a_f_e_v_d_b_1_1_service_1_1_mailing_lists_service_afca2835840699d3b8c7db3ab0c596cd5_icgraph_org.svg" target="_base">
   <rect id="button" ry="5" rx="5" y="6" x="6" height="38" width="38"
        fill="#f2f5e9" fill-opacity="0.5" stroke="#606060" stroke-width="1.0"/>
   <path id="arrow"
     d="M 11.500037,31.436501 C 11.940474,20.09759 22.043105,11.32322 32.158766,21.979434 L 37.068811,17.246167 C 37.068811,17.246167 37.088388,32 37.088388,32 L 22.160133,31.978069 C 22.160133,31.978069 26.997745,27.140456 26.997745,27.140456 C 18.528582,18.264221 13.291696,25.230495 11.500037,31.436501 z"
     style="fill:#404040;"/>
  </a>
 </g>
</svg>

<style type='text/css'>
<![CDATA[
[data-mouse-over-selected='false'] { opacity: 0.7; }
[data-mouse-over-selected='true']  { opacity: 1.0; }
]]>
</style>
<script type="application/ecmascript"><![CDATA[
document.addEventListener('DOMContentLoaded', (event) => {
  highlightEdges();
  highlightAdjacentNodes();
});
]]></script>
</svg>
