<?xml version="1.0" encoding="UTF-8" standalone="no"?>
<!DOCTYPE svg PUBLIC "-//W3C//DTD SVG 1.1//EN"
 "http://www.w3.org/Graphics/SVG/1.1/DTD/svg11.dtd">
<!-- Generated by graphviz version 8.0.3 (20230416.2022)
 -->
<!-- Title: viewName Pages: 1 -->
<svg width="591pt" height="142pt"
 viewBox="0.00 0.00 591.00 142.00" xmlns="http://www.w3.org/2000/svg" xmlns:xlink="http://www.w3.org/1999/xlink">
<g id="graph0" class="graph" transform="scale(1 1) rotate(0) translate(4 138)">
<title>viewName</title>
<!-- Node1 -->
<g id="node1" class="node">
<title>Node1</title>
<g id="a_node1"><a xlink:title=" ">
<polygon fill="#999999" stroke="#666666" points="583,-74 520,-74 520,-55 583,-55 583,-74"/>
<text text-anchor="middle" x="551.5" y="-62" font-family="Helvetica,sans-Serif" font-size="10.00">viewName</text>
</a>
</g>
</g>
<!-- Node2 -->
<g id="node2" class="node">
<title>Node2</title>
<g id="a_node2"><a xlink:href="class_o_c_a_1_1_c_a_f_e_v_d_b_1_1_service_1_1_cloud_user_connector_service.html#a1a19b48267e2ba917d0226da1acdcb25" target="_top" xlink:title="Generate a config array for the user_sql app &quot;as of now&quot;.">
<polygon fill="white" stroke="#666666" points="483.5,-133 365.5,-133 365.5,-114 483.5,-114 483.5,-133"/>
<text text-anchor="middle" x="424.5" y="-121" font-family="Helvetica,sans-Serif" font-size="10.00">generateUserSqlConfig</text>
</a>
</g>
</g>
<!-- Node1&#45;&gt;Node2 -->
<g id="edge1" class="edge">
<title>Node1&#45;&gt;Node2</title>
<path fill="none" stroke="#63b8ff" d="M525.9,-79.93C513.58,-87.29 498.29,-95.91 484,-102.5 475.18,-106.57 465.33,-110.37 456.27,-113.59"/>
<polygon fill="#63b8ff" stroke="#63b8ff" points="527.33,-82.54 534.05,-74.36 523.69,-76.56 527.33,-82.54"/>
</g>
<!-- Node4 -->
<g id="node4" class="node">
<title>Node4</title>
<g id="a_node4"><a xlink:href="class_o_c_a_1_1_c_a_f_e_v_d_b_1_1_service_1_1_cloud_user_connector_service.html#a891ee9425b9ec2b464cd8d38c8f5bc9a" target="_top" xlink:title=" ">
<polygon fill="white" stroke="#666666" points="484,-93 365,-93 365,-74 484,-74 484,-93"/>
<text text-anchor="middle" x="424.5" y="-81" font-family="Helvetica,sans-Serif" font-size="10.00">personalizedViewName</text>
</a>
</g>
</g>
<!-- Node1&#45;&gt;Node4 -->
<g id="edge3" class="edge">
<title>Node1&#45;&gt;Node4</title>
<path fill="none" stroke="#63b8ff" d="M508.86,-70.83C500.99,-72.03 492.62,-73.3 484.33,-74.56"/>
<polygon fill="#63b8ff" stroke="#63b8ff" points="509.24,-74.16 518.6,-69.2 508.19,-67.24 509.24,-74.16"/>
</g>
<!-- Node8 -->
<g id="node8" class="node">
<title>Node8</title>
<g id="a_node8"><a xlink:href="class_o_c_a_1_1_c_a_f_e_v_d_b_1_1_service_1_1_cloud_user_connector_service.html#ac82adab72318c73cb5c69f91bde1782e" target="_top" xlink:title="Delete the user&#45;sql views.">
<polygon fill="white" stroke="#666666" points="480,-56 369,-56 369,-37 480,-37 480,-56"/>
<text text-anchor="middle" x="424.5" y="-44" font-family="Helvetica,sans-Serif" font-size="10.00">removeUserSqlViews</text>
</a>
</g>
</g>
<!-- Node1&#45;&gt;Node8 -->
<g id="edge7" class="edge">
<title>Node1&#45;&gt;Node8</title>
<path fill="none" stroke="#63b8ff" d="M508.86,-58.5C499.74,-57.19 489.94,-55.78 480.39,-54.4"/>
<polygon fill="#63b8ff" stroke="#63b8ff" points="508.2,-62.09 518.6,-60.05 509.2,-55.16 508.2,-62.09"/>
</g>
<!-- Node9 -->
<g id="node9" class="node">
<title>Node9</title>
<g id="a_node9"><a xlink:href="class_o_c_a_1_1_c_a_f_e_v_d_b_1_1_service_1_1_cloud_user_connector_service.html#a93f6d9da1bc4c1797b708227e1a1d40f" target="_top" xlink:title="Update the views interacting with the Nextcloud user_sql backend and update their grants.">
<polygon fill="white" stroke="#666666" points="478.5,-19 370.5,-19 370.5,0 478.5,0 478.5,-19"/>
<text text-anchor="middle" x="424.5" y="-7" font-family="Helvetica,sans-Serif" font-size="10.00">updateUserSqlViews</text>
</a>
</g>
</g>
<!-- Node1&#45;&gt;Node9 -->
<g id="edge8" class="edge">
<title>Node1&#45;&gt;Node9</title>
<path fill="none" stroke="#63b8ff" d="M525.73,-49.09C513.48,-41.89 498.29,-33.59 484,-27.5 477.06,-24.54 469.47,-21.84 462.12,-19.48"/>
<polygon fill="#63b8ff" stroke="#63b8ff" points="523.47,-52.42 533.85,-54.56 527.07,-46.41 523.47,-52.42"/>
</g>
<!-- Node3 -->
<g id="node3" class="node">
<title>Node3</title>
<g id="a_node3"><a xlink:href="class_o_c_a_1_1_c_a_f_e_v_d_b_1_1_service_1_1_cloud_user_connector_service.html#a738d301bd56cac033014f9e648939e42" target="_top" xlink:title="For the moment this just fills in our own app&#45;config.">
<polygon fill="white" stroke="#666666" points="305,-134 204,-134 204,-115 305,-115 305,-134"/>
<text text-anchor="middle" x="254.5" y="-122" font-family="Helvetica,sans-Serif" font-size="10.00">writeUserSqlConfig</text>
</a>
</g>
</g>
<!-- Node2&#45;&gt;Node3 -->
<g id="edge2" class="edge">
<title>Node2&#45;&gt;Node3</title>
<path fill="none" stroke="#63b8ff" d="M354.52,-123.91C338.03,-124.01 320.74,-124.11 305.3,-124.2"/>
<polygon fill="#63b8ff" stroke="#63b8ff" points="354.23,-127.41 364.21,-123.85 354.19,-120.41 354.23,-127.41"/>
</g>
<!-- Node5 -->
<g id="node5" class="node">
<title>Node5</title>
<g id="a_node5"><a xlink:href="class_o_c_a_1_1_c_a_f_e_v_d_b_1_1_service_1_1_cloud_user_connector_service.html#afd669fc5c9519ec4df86f83338241f86" target="_top" xlink:title="Generate the (My&#45;)SQL statements for defining the personalized single&#45;row musician views.">
<polygon fill="white" stroke="#666666" points="329,-96.5 180,-96.5 180,-66.5 329,-66.5 329,-96.5"/>
<text text-anchor="start" x="188" y="-84.5" font-family="Helvetica,sans-Serif" font-size="10.00">generateMusicianPersonalized</text>
<text text-anchor="middle" x="254.5" y="-73.5" font-family="Helvetica,sans-Serif" font-size="10.00">ViewsStatements</text>
</a>
</g>
</g>
<!-- Node4&#45;&gt;Node5 -->
<g id="edge4" class="edge">
<title>Node4&#45;&gt;Node5</title>
<path fill="none" stroke="#63b8ff" d="M353.84,-82.67C345.73,-82.57 337.45,-82.48 329.29,-82.38"/>
<polygon fill="#63b8ff" stroke="#63b8ff" points="353.7,-86.18 363.74,-82.8 353.78,-79.18 353.7,-86.18"/>
</g>
<!-- Node6 -->
<g id="node6" class="node">
<title>Node6</title>
<g id="a_node6"><a xlink:href="class_o_c_a_1_1_c_a_f_e_v_d_b_1_1_service_1_1_cloud_user_connector_service.html#a10e78d362d26b66ba16cfd97a46499da" target="_top" xlink:title="Delete the personalized one&#45;row views which give individual orchestra members access to just their ow...">
<polygon fill="white" stroke="#666666" points="144,-120.5 0,-120.5 0,-90.5 144,-90.5 144,-120.5"/>
<text text-anchor="start" x="8" y="-108.5" font-family="Helvetica,sans-Serif" font-size="10.00">removeMusicianPersonalized</text>
<text text-anchor="middle" x="72" y="-97.5" font-family="Helvetica,sans-Serif" font-size="10.00">Views</text>
</a>
</g>
</g>
<!-- Node5&#45;&gt;Node6 -->
<g id="edge5" class="edge">
<title>Node5&#45;&gt;Node6</title>
<path fill="none" stroke="#63b8ff" d="M168.89,-92.75C160.73,-93.83 152.51,-94.93 144.49,-95.99"/>
<polygon fill="#63b8ff" stroke="#63b8ff" points="169.11,-96.12 178.56,-91.33 168.19,-89.18 169.11,-96.12"/>
</g>
<!-- Node7 -->
<g id="node7" class="node">
<title>Node7</title>
<g id="a_node7"><a xlink:href="class_o_c_a_1_1_c_a_f_e_v_d_b_1_1_service_1_1_cloud_user_connector_service.html#ab8482f7cd6afd7290823d6bfafe1c2a3" target="_top" xlink:title="Update the personalized one&#45;row views which give individual orchestra members access to just their ow...">
<polygon fill="white" stroke="#666666" points="142.5,-72.5 1.5,-72.5 1.5,-42.5 142.5,-42.5 142.5,-72.5"/>
<text text-anchor="start" x="9.5" y="-60.5" font-family="Helvetica,sans-Serif" font-size="10.00">updateMusicianPersonalized</text>
<text text-anchor="middle" x="72" y="-49.5" font-family="Helvetica,sans-Serif" font-size="10.00">Views</text>
</a>
</g>
</g>
<!-- Node5&#45;&gt;Node7 -->
<g id="edge6" class="edge">
<title>Node5&#45;&gt;Node7</title>
<path fill="none" stroke="#63b8ff" d="M168.93,-70.26C160.16,-69.09 151.33,-67.91 142.75,-66.77"/>
<polygon fill="#63b8ff" stroke="#63b8ff" points="168.19,-73.82 178.56,-71.67 169.11,-66.88 168.19,-73.82"/>
</g>
</g>
</svg>
