<?xml version="1.0" encoding="UTF-8" standalone="no"?>
<!DOCTYPE svg PUBLIC "-//W3C//DTD SVG 1.1//EN"
 "http://www.w3.org/Graphics/SVG/1.1/DTD/svg11.dtd">
<!-- Generated by graphviz version 9.0.0 (20230911.1827)
 -->
<!-- Title: getDirectoryModificationTime Pages: 1 -->
<svg width="533pt" height="66pt"
 viewBox="0.00 0.00 533.25 66.00" xmlns="http://www.w3.org/2000/svg" xmlns:xlink="http://www.w3.org/1999/xlink">
<g id="graph0" class="graph" transform="scale(1 1) rotate(0) translate(4 62)">
<title>getDirectoryModificationTime</title>
<!-- Node1 -->
<g id="Node000001" class="node">
<title>Node1</title>
<g id="a_Node000001"><a xlink:title=" ">
<polygon fill="#999999" stroke="#666666" points="143.5,-39 0,-39 0,-19 143.5,-19 143.5,-39"/>
<text text-anchor="middle" x="71.75" y="-25.5" font-family="Helvetica,sans-Serif" font-size="10.00">getDirectoryModificationTime</text>
</a>
</g>
</g>
<!-- Node2 -->
<g id="Node000002" class="node">
<title>Node2</title>
<g id="a_Node000002"><a xlink:href="class_o_c_a_1_1_c_a_f_e_v_d_b_1_1_storage_1_1_database_1_1_storage.html#a7ec90cd17ef214d5fe4280b13d7c144a" target="_top" xlink:title="Fetch the file entity corresponding to file&#45;name.">
<polygon fill="white" stroke="#666666" points="272.75,-39 179.5,-39 179.5,-19 272.75,-19 272.75,-39"/>
<text text-anchor="middle" x="226.12" y="-25.5" font-family="Helvetica,sans-Serif" font-size="10.00">fileFromFileName</text>
</a>
</g>
</g>
<!-- Node1&#45;&gt;Node2 -->
<g id="edge1_Node000001_Node000002" class="edge">
<title>Node1&#45;&gt;Node2</title>
<g id="a_edge1_Node000001_Node000002"><a xlink:title=" ">
<path fill="none" stroke="#63b8ff" d="M143.58,-29C151.73,-29 159.96,-29 167.89,-29"/>
<polygon fill="#63b8ff" stroke="#63b8ff" points="167.75,-32.5 177.75,-29 167.75,-25.5 167.75,-32.5"/>
</a>
</g>
</g>
<!-- Node3 -->
<g id="Node000003" class="node">
<title>Node3</title>
<g id="a_Node000003"><a xlink:href="class_o_c_a_1_1_c_a_f_e_v_d_b_1_1_storage_1_1_database_1_1_storage.html#ab721841df814a2337039d39cc03da82a" target="_top" xlink:title=" ">
<polygon fill="white" stroke="#666666" points="365.25,-58 308.75,-58 308.75,-38 365.25,-38 365.25,-58"/>
<text text-anchor="middle" x="337" y="-44.5" font-family="Helvetica,sans-Serif" font-size="10.00">buildPath</text>
</a>
</g>
</g>
<!-- Node2&#45;&gt;Node3 -->
<g id="edge2_Node000002_Node000003" class="edge">
<title>Node2&#45;&gt;Node3</title>
<g id="a_edge2_Node000002_Node000003"><a xlink:title=" ">
<path fill="none" stroke="#63b8ff" d="M272.98,-37C281.1,-38.42 289.49,-39.88 297.38,-41.26"/>
<polygon fill="#63b8ff" stroke="#63b8ff" points="296.57,-44.67 307.03,-42.94 297.78,-37.78 296.57,-44.67"/>
</a>
</g>
</g>
<!-- Node4 -->
<g id="Node000004" class="node">
<title>Node4</title>
<g id="a_Node000004"><a xlink:href="class_o_c_a_1_1_c_a_f_e_v_d_b_1_1_storage_1_1_database_1_1_storage.html#aa8e4fc68bcf28c10413b664b7d89ae81" target="_top" xlink:title="Slightly modified pathinfo() function which also normalized directories before computing the componen...">
<polygon fill="white" stroke="#666666" points="362.62,-20 311.38,-20 311.38,0 362.62,0 362.62,-20"/>
<text text-anchor="middle" x="337" y="-6.5" font-family="Helvetica,sans-Serif" font-size="10.00">pathInfo</text>
</a>
</g>
</g>
<!-- Node2&#45;&gt;Node4 -->
<g id="edge3_Node000002_Node000004" class="edge">
<title>Node2&#45;&gt;Node4</title>
<g id="a_edge3_Node000002_Node000004"><a xlink:title=" ">
<path fill="none" stroke="#63b8ff" d="M272.98,-21C281.93,-19.44 291.2,-17.82 299.78,-16.32"/>
<polygon fill="#63b8ff" stroke="#63b8ff" points="300.23,-19.8 309.48,-14.63 299.03,-12.9 300.23,-19.8"/>
</a>
</g>
</g>
<!-- Node5 -->
<g id="Node000005" class="node">
<title>Node5</title>
<g id="a_Node000005"><a xlink:href="class_o_c_a_1_1_c_a_f_e_v_d_b_1_1_storage_1_1_database_1_1_storage.html#ac5c1b62ecc9eb2ebe08f1e8c7ee2b283" target="_top" xlink:title="Attach self::PATH_SEPARATOR to the dirname if it is not the root directory.">
<polygon fill="white" stroke="#666666" points="525.25,-20 401.25,-20 401.25,0 525.25,0 525.25,-20"/>
<text text-anchor="middle" x="463.25" y="-6.5" font-family="Helvetica,sans-Serif" font-size="10.00">normalizeDirectoryName</text>
</a>
</g>
</g>
<!-- Node4&#45;&gt;Node5 -->
<g id="edge4_Node000004_Node000005" class="edge">
<title>Node4&#45;&gt;Node5</title>
<g id="a_edge4_Node000004_Node000005"><a xlink:title=" ">
<path fill="none" stroke="#63b8ff" d="M362.85,-10C370.79,-10 380.02,-10 389.59,-10"/>
<polygon fill="#63b8ff" stroke="#63b8ff" points="389.42,-13.5 399.42,-10 389.42,-6.5 389.42,-13.5"/>
</a>
</g>
</g>
</g>
</svg>
