<?xml version="1.0" encoding="UTF-8" standalone="no"?>
<!DOCTYPE svg PUBLIC "-//W3C//DTD SVG 1.1//EN"
 "http://www.w3.org/Graphics/SVG/1.1/DTD/svg11.dtd">
<!-- Generated by graphviz version 8.0.3 (20230416.2022)
 -->
<!-- Title: getLocale Pages: 1 -->
<svg width="219pt" height="193pt"
 viewBox="0.00 0.00 219.00 193.00" xmlns="http://www.w3.org/2000/svg" xmlns:xlink="http://www.w3.org/1999/xlink">
<g id="graph0" class="graph" transform="scale(1 1) rotate(0) translate(4 189)">
<title>getLocale</title>
<!-- Node1 -->
<g id="node1" class="node">
<title>Node1</title>
<g id="a_node1"><a xlink:title="Return the locale as string, e.g.">
<polygon fill="#999999" stroke="#666666" points="211,-93 152,-93 152,-74 211,-74 211,-93"/>
<text text-anchor="middle" x="181.5" y="-81" font-family="Helvetica,sans-Serif" font-size="10.00">getLocale</text>
</a>
</g>
</g>
<!-- Node2 -->
<g id="node2" class="node">
<title>Node2</title>
<g id="a_node2"><a xlink:href="class_o_c_a_1_1_c_a_f_e_v_d_b_1_1_service_1_1_config_service.html#a36b4b01cbb88f7176a72e268695c0d6f" target="_top" xlink:title="Convert a float value in the given or default locale.">
<polygon fill="white" stroke="#666666" points="87.5,-185 28.5,-185 28.5,-166 87.5,-166 87.5,-185"/>
<text text-anchor="middle" x="58" y="-173" font-family="Helvetica,sans-Serif" font-size="10.00">floatValue</text>
</a>
</g>
</g>
<!-- Node1&#45;&gt;Node2 -->
<g id="edge1" class="edge">
<title>Node1&#45;&gt;Node2</title>
<path fill="none" stroke="#63b8ff" d="M168.54,-102.32C157,-119.06 138.05,-143.06 116,-157.5 107.58,-163.02 97.36,-166.94 87.91,-169.68"/>
<polygon fill="#63b8ff" stroke="#63b8ff" points="171.83,-104.7 174.45,-94.43 166,-100.82 171.83,-104.7"/>
</g>
<!-- Node3 -->
<g id="node3" class="node">
<title>Node3</title>
<g id="a_node3"><a xlink:href="class_o_c_a_1_1_c_a_f_e_v_d_b_1_1_service_1_1_config_service.html#ad50ea5d1877a5adc2e231dc935b7bffc" target="_top" xlink:title="Return the language part of the current or given locale.">
<polygon fill="white" stroke="#666666" points="94,-148 22,-148 22,-129 94,-129 94,-148"/>
<text text-anchor="middle" x="58" y="-136" font-family="Helvetica,sans-Serif" font-size="10.00">getLanguage</text>
</a>
</g>
</g>
<!-- Node1&#45;&gt;Node3 -->
<g id="edge2" class="edge">
<title>Node1&#45;&gt;Node3</title>
<path fill="none" stroke="#63b8ff" d="M156.16,-99.12C144.34,-106.27 129.76,-114.46 116,-120.5 109.16,-123.5 101.66,-126.24 94.41,-128.62"/>
<polygon fill="#63b8ff" stroke="#63b8ff" points="157.68,-101.68 164.35,-93.44 154,-95.72 157.68,-101.68"/>
</g>
<!-- Node4 -->
<g id="node4" class="node">
<title>Node4</title>
<g id="a_node4"><a xlink:href="class_o_c_a_1_1_c_a_f_e_v_d_b_1_1_service_1_1_config_service.html#aebf35da354e45247c2ee85031bfa3a82" target="_top" xlink:title=" ">
<polygon fill="white" stroke="#666666" points="112,-93 4,-93 4,-74 112,-74 112,-93"/>
<text text-anchor="middle" x="58" y="-81" font-family="Helvetica,sans-Serif" font-size="10.00">localeCountryNames</text>
</a>
</g>
</g>
<!-- Node1&#45;&gt;Node4 -->
<g id="edge3" class="edge">
<title>Node1&#45;&gt;Node4</title>
<path fill="none" stroke="#63b8ff" d="M140.99,-83.5C131.85,-83.5 121.97,-83.5 112.35,-83.5"/>
<polygon fill="#63b8ff" stroke="#63b8ff" points="140.71,-87 150.71,-83.5 140.71,-80 140.71,-87"/>
</g>
<!-- Node5 -->
<g id="node5" class="node">
<title>Node5</title>
<g id="a_node5"><a xlink:href="class_o_c_a_1_1_c_a_f_e_v_d_b_1_1_service_1_1_config_service.html#a4c1dc0e4e1b0686a92c0f6486e91b7c6" target="_top" xlink:title=" ">
<polygon fill="white" stroke="#666666" points="116,-56 0,-56 0,-37 116,-37 116,-56"/>
<text text-anchor="middle" x="58" y="-44" font-family="Helvetica,sans-Serif" font-size="10.00">localeLanguageNames</text>
</a>
</g>
</g>
<!-- Node1&#45;&gt;Node5 -->
<g id="edge5" class="edge">
<title>Node1&#45;&gt;Node5</title>
<path fill="none" stroke="#63b8ff" d="M141.49,-71.62C125.34,-66.7 106.83,-61.07 91.44,-56.38"/>
<polygon fill="#63b8ff" stroke="#63b8ff" points="140.12,-75.17 150.71,-74.73 142.16,-68.47 140.12,-75.17"/>
</g>
<!-- Node6 -->
<g id="node6" class="node">
<title>Node6</title>
<g id="a_node6"><a xlink:href="class_o_c_a_1_1_c_a_f_e_v_d_b_1_1_service_1_1_config_service.html#aaeb05cf94149de0821a30628a8c7bcef" target="_top" xlink:title="Convert $value to a currency value in the given or the user&#39;s locale.">
<polygon fill="white" stroke="#666666" points="93,-19 23,-19 23,0 93,0 93,-19"/>
<text text-anchor="middle" x="58" y="-7" font-family="Helvetica,sans-Serif" font-size="10.00">moneyValue</text>
</a>
</g>
</g>
<!-- Node1&#45;&gt;Node6 -->
<g id="edge6" class="edge">
<title>Node1&#45;&gt;Node6</title>
<path fill="none" stroke="#63b8ff" d="M163.76,-66.03C151.49,-54.07 133.91,-38.61 116,-28.5 109.01,-24.55 101.06,-21.26 93.37,-18.59"/>
<polygon fill="#63b8ff" stroke="#63b8ff" points="160.8,-68.03 170.34,-72.64 165.76,-63.09 160.8,-68.03"/>
</g>
<!-- Node4&#45;&gt;Node4 -->
<g id="edge4" class="edge">
<title>Node4&#45;&gt;Node4</title>
<path fill="none" stroke="#63b8ff" d="M80.35,-103.76C78,-107.97 70.55,-111 58,-111 36.29,-111 29.85,-101.94 38.67,-93.37"/>
<polygon fill="#63b8ff" stroke="#63b8ff" points="83.48,-103 77.33,-94.37 76.76,-104.95 83.48,-103"/>
</g>
</g>
</svg>
