<?xml version="1.0" encoding="UTF-8" standalone="no"?>
<!DOCTYPE svg PUBLIC "-//W3C//DTD SVG 1.1//EN"
 "http://www.w3.org/Graphics/SVG/1.1/DTD/svg11.dtd">
<!-- Generated by graphviz version 7.1.0 (20230121.1956)
 -->
<!-- Title: onCalendarObjectCreated Pages: 1 -->
<svg width="485pt" height="230pt"
 viewBox="0.00 0.00 485.00 230.00" xmlns="http://www.w3.org/2000/svg" xmlns:xlink="http://www.w3.org/1999/xlink">
<g id="graph0" class="graph" transform="scale(1 1) rotate(0) translate(4 226)">
<title>onCalendarObjectCreated</title>
<!-- Node1 -->
<g id="node1" class="node">
<title>Node1</title>
<g id="a_node1"><a xlink:title=" ">
<polygon fill="#999999" stroke="#666666" points="129,-138.5 0,-138.5 0,-119.5 129,-119.5 129,-138.5"/>
<text text-anchor="middle" x="64.5" y="-126.5" font-family="Helvetica,sans-Serif" font-size="10.00">onCalendarObjectCreated</text>
</a>
</g>
</g>
<!-- Node2 -->
<g id="node2" class="node">
<title>Node2</title>
<g id="a_node2"><a xlink:href="class_o_c_a_1_1_c_a_f_e_v_d_b_1_1_service_1_1_events_service.html#a8dbd777ef286c3c4b57fa2b6a6a4c205" target="_top" xlink:title=" ">
<polygon fill="white" stroke="#666666" points="262.5,-157.5 172.5,-157.5 172.5,-138.5 262.5,-138.5 262.5,-157.5"/>
<text text-anchor="middle" x="217.5" y="-145.5" font-family="Helvetica,sans-Serif" font-size="10.00">defaultCalendars</text>
</a>
</g>
</g>
<!-- Node1&#45;&gt;Node2 -->
<g id="edge1" class="edge">
<title>Node1&#45;&gt;Node2</title>
<path fill="none" stroke="#63b8ff" d="M129.1,-137C139.64,-138.33 150.5,-139.7 160.83,-140.99"/>
<polygon fill="#63b8ff" stroke="#63b8ff" points="160.35,-144.46 170.71,-142.24 161.23,-137.52 160.35,-144.46"/>
</g>
<!-- Node3 -->
<g id="node3" class="node">
<title>Node3</title>
<g id="a_node3"><a xlink:href="class_o_c_a_1_1_c_a_f_e_v_d_b_1_1_service_1_1_events_service.html#a9c5b6c8d51d88794475b33331e1afa98" target="_top" xlink:title="Parse the respective event data and make sure the ProjectEvents table is uptodate.">
<polygon fill="white" stroke="#666666" points="270,-120.5 165,-120.5 165,-101.5 270,-101.5 270,-120.5"/>
<text text-anchor="middle" x="217.5" y="-108.5" font-family="Helvetica,sans-Serif" font-size="10.00">syncCalendarObject</text>
</a>
</g>
</g>
<!-- Node1&#45;&gt;Node3 -->
<g id="edge2" class="edge">
<title>Node1&#45;&gt;Node3</title>
<path fill="none" stroke="#63b8ff" d="M129.1,-121.42C137.21,-120.45 145.5,-119.46 153.6,-118.5"/>
<polygon fill="#63b8ff" stroke="#63b8ff" points="153.86,-121.99 163.37,-117.33 153.03,-115.04 153.86,-121.99"/>
</g>
<!-- Node4 -->
<g id="node4" class="node">
<title>Node4</title>
<g id="a_node4"><a xlink:href="class_o_c_a_1_1_c_a_f_e_v_d_b_1_1_service_1_1_v_calendar_service.html#a7b56dda98a141d37413cf9829d8321a1" target="_top" xlink:title="Return the category list for the given object.">
<polygon fill="white" stroke="#666666" points="472.5,-222 310.5,-222 310.5,-192 472.5,-192 472.5,-222"/>
<text text-anchor="start" x="318.5" y="-210" font-family="Helvetica,sans-Serif" font-size="10.00">OCA\CAFEVDB\Service</text>
<text text-anchor="middle" x="391.5" y="-199" font-family="Helvetica,sans-Serif" font-size="10.00">\VCalendarService\getCategories</text>
</a>
</g>
</g>
<!-- Node3&#45;&gt;Node4 -->
<g id="edge3" class="edge">
<title>Node3&#45;&gt;Node4</title>
<path fill="none" stroke="#63b8ff" d="M254.38,-120.92C259.93,-123.37 265.35,-126.36 270,-130 292.43,-147.54 282.91,-166.33 306,-183 307.57,-184.14 309.2,-185.22 310.87,-186.25"/>
<polygon fill="#63b8ff" stroke="#63b8ff" points="309.03,-189.24 319.5,-190.89 312.35,-183.07 309.03,-189.24"/>
</g>
<!-- Node5 -->
<g id="node5" class="node">
<title>Node5</title>
<g id="a_node5"><a xlink:href="class_o_c_a_1_1_c_a_f_e_v_d_b_1_1_service_1_1_v_calendar_service.html#aec5da185922e02ddaa7d9eb7e851fcb0" target="_top" xlink:title=" ">
<polygon fill="white" stroke="#666666" points="456.5,-174 326.5,-174 326.5,-144 456.5,-144 456.5,-174"/>
<text text-anchor="start" x="334.5" y="-162" font-family="Helvetica,sans-Serif" font-size="10.00">OCA\CAFEVDB\Service</text>
<text text-anchor="middle" x="391.5" y="-151" font-family="Helvetica,sans-Serif" font-size="10.00">\VCalendarService\getUid</text>
</a>
</g>
</g>
<!-- Node3&#45;&gt;Node5 -->
<g id="edge4" class="edge">
<title>Node3&#45;&gt;Node5</title>
<path fill="none" stroke="#63b8ff" d="M254.14,-120.95C274.45,-126.61 300.54,-133.9 324.46,-140.57"/>
<polygon fill="#63b8ff" stroke="#63b8ff" points="323.23,-143.86 333.8,-143.18 325.11,-137.12 323.23,-143.86"/>
</g>
<!-- Node6 -->
<g id="node6" class="node">
<title>Node6</title>
<g id="a_node6"><a xlink:href="class_o_c_a_1_1_c_a_f_e_v_d_b_1_1_service_1_1_v_calendar_service.html#aa25cdcd89ba57212663eaafec422453d" target="_top" xlink:title=" ">
<polygon fill="white" stroke="#666666" points="472,-126 311,-126 311,-96 472,-96 472,-126"/>
<text text-anchor="start" x="319" y="-114" font-family="Helvetica,sans-Serif" font-size="10.00">OCA\CAFEVDB\Service</text>
<text text-anchor="middle" x="391.5" y="-103" font-family="Helvetica,sans-Serif" font-size="10.00">\VCalendarService\getVCalendar</text>
</a>
</g>
</g>
<!-- Node3&#45;&gt;Node6 -->
<g id="edge5" class="edge">
<title>Node3&#45;&gt;Node6</title>
<path fill="none" stroke="#63b8ff" d="M270.11,-111C279.38,-111 289.29,-111 299.3,-111"/>
<polygon fill="#63b8ff" stroke="#63b8ff" points="299.1,-114.5 309.1,-111 299.1,-107.5 299.1,-114.5"/>
</g>
<!-- Node7 -->
<g id="node7" class="node">
<title>Node7</title>
<g id="a_node7"><a xlink:href="class_o_c_a_1_1_c_a_f_e_v_d_b_1_1_service_1_1_v_calendar_service.html#a2dad03f32dc06c2aa1711b0f2243c18d" target="_top" xlink:title="Return a reference to the object contained in a Sabre VCALENDAR object.">
<polygon fill="white" stroke="#666666" points="466.5,-78 316.5,-78 316.5,-48 466.5,-48 466.5,-78"/>
<text text-anchor="start" x="324.5" y="-66" font-family="Helvetica,sans-Serif" font-size="10.00">OCA\CAFEVDB\Service</text>
<text text-anchor="middle" x="391.5" y="-55" font-family="Helvetica,sans-Serif" font-size="10.00">\VCalendarService\getVObject</text>
</a>
</g>
</g>
<!-- Node3&#45;&gt;Node7 -->
<g id="edge6" class="edge">
<title>Node3&#45;&gt;Node7</title>
<path fill="none" stroke="#63b8ff" d="M254.14,-101.05C274.45,-95.39 300.54,-88.1 324.46,-81.43"/>
<polygon fill="#63b8ff" stroke="#63b8ff" points="325.11,-84.88 333.8,-78.82 323.23,-78.14 325.11,-84.88"/>
</g>
<!-- Node8 -->
<g id="node8" class="node">
<title>Node8</title>
<g id="a_node8"><a xlink:href="class_o_c_a_1_1_c_a_f_e_v_d_b_1_1_service_1_1_v_calendar_service.html#a74115b9298d21b9cbf1ef88796d1b1b7" target="_top" xlink:title="Return the type of the respective calendar object.">
<polygon fill="white" stroke="#666666" points="477,-30 306,-30 306,0 477,0 477,-30"/>
<text text-anchor="start" x="314" y="-18" font-family="Helvetica,sans-Serif" font-size="10.00">OCA\CAFEVDB\Service</text>
<text text-anchor="middle" x="391.5" y="-7" font-family="Helvetica,sans-Serif" font-size="10.00">\VCalendarService\getVObjectType</text>
</a>
</g>
</g>
<!-- Node3&#45;&gt;Node8 -->
<g id="edge7" class="edge">
<title>Node3&#45;&gt;Node8</title>
<path fill="none" stroke="#63b8ff" d="M227.76,-101.1C242.76,-85.65 273.94,-55.8 306,-39 309.01,-37.42 312.14,-35.94 315.34,-34.54"/>
<polygon fill="#63b8ff" stroke="#63b8ff" points="316.36,-37.9 324.34,-30.94 313.76,-31.4 316.36,-37.9"/>
</g>
</g>
</svg>
