<?xml version="1.0" encoding="UTF-8" standalone="no"?>
<!DOCTYPE svg PUBLIC "-//W3C//DTD SVG 1.1//EN"
 "http://www.w3.org/Graphics/SVG/1.1/DTD/svg11.dtd">
<!-- Generated by graphviz version 8.0.3 (20230416.2022)
 -->
<!-- Title: validateRecord Pages: 1 -->
<svg width="370pt" height="27pt"
 viewBox="0.00 0.00 370.00 27.00" xmlns="http://www.w3.org/2000/svg" xmlns:xlink="http://www.w3.org/1999/xlink">
<g id="graph0" class="graph" transform="scale(1 1) rotate(0) translate(4 23)">
<title>validateRecord</title>
<!-- Node1 -->
<g id="node1" class="node">
<title>Node1</title>
<g id="a_node1"><a xlink:title="Validate one history entry.">
<polygon fill="#999999" stroke="#666666" points="362,-19 280,-19 280,0 362,0 362,-19"/>
<text text-anchor="middle" x="321" y="-7" font-family="Helvetica,sans-Serif" font-size="10.00">validateRecord</text>
</a>
</g>
</g>
<!-- Node2 -->
<g id="node2" class="node">
<title>Node2</title>
<g id="a_node2"><a xlink:href="class_o_c_a_1_1_c_a_f_e_v_d_b_1_1_service_1_1_history_service.html#a6a72e82192c52470a66981c68ae2300c" target="_top" xlink:title="Validate all history records.">
<polygon fill="white" stroke="#666666" points="244,-19 157,-19 157,0 244,0 244,-19"/>
<text text-anchor="middle" x="200.5" y="-7" font-family="Helvetica,sans-Serif" font-size="10.00">validateRecords</text>
</a>
</g>
</g>
<!-- Node1&#45;&gt;Node2 -->
<g id="edge1" class="edge">
<title>Node1&#45;&gt;Node2</title>
<path fill="none" stroke="#63b8ff" d="M268.62,-9.5C260.47,-9.5 252.12,-9.5 244.19,-9.5"/>
<polygon fill="#63b8ff" stroke="#63b8ff" points="268.55,-13 278.55,-9.5 268.55,-6 268.55,-13"/>
</g>
<!-- Node3 -->
<g id="node3" class="node">
<title>Node3</title>
<g id="a_node3"><a xlink:href="class_o_c_a_1_1_c_a_f_e_v_d_b_1_1_service_1_1_history_service.html#a209c2a40ceaef87a5f2e66954aeefc19" target="_top" xlink:title="Validate the given history records, return false on error.">
<polygon fill="white" stroke="#666666" points="121,-19 71,-19 71,0 121,0 121,-19"/>
<text text-anchor="middle" x="96" y="-7" font-family="Helvetica,sans-Serif" font-size="10.00">validate</text>
</a>
</g>
</g>
<!-- Node2&#45;&gt;Node3 -->
<g id="edge2" class="edge">
<title>Node2&#45;&gt;Node3</title>
<path fill="none" stroke="#63b8ff" d="M145.78,-9.5C137.2,-9.5 128.71,-9.5 121.28,-9.5"/>
<polygon fill="#63b8ff" stroke="#63b8ff" points="145.62,-13 155.62,-9.5 145.62,-6 145.62,-13"/>
</g>
<!-- Node4 -->
<g id="node4" class="node">
<title>Node4</title>
<g id="a_node4"><a xlink:href="class_o_c_a_1_1_c_a_f_e_v_d_b_1_1_service_1_1_history_service.html#a4dcaa8f72c8423d4de25a9e87fa6f3e4" target="_top" xlink:title="Load the history state.">
<polygon fill="white" stroke="#666666" points="35,-19 0,-19 0,0 35,0 35,-19"/>
<text text-anchor="middle" x="17.5" y="-7" font-family="Helvetica,sans-Serif" font-size="10.00">load</text>
</a>
</g>
</g>
<!-- Node3&#45;&gt;Node4 -->
<g id="edge3" class="edge">
<title>Node3&#45;&gt;Node4</title>
<path fill="none" stroke="#63b8ff" d="M59.82,-9.5C51.28,-9.5 42.53,-9.5 35.29,-9.5"/>
<polygon fill="#63b8ff" stroke="#63b8ff" points="59.79,-13 69.79,-9.5 59.79,-6 59.79,-13"/>
</g>
</g>
</svg>
