<?xml version="1.0" encoding="UTF-8" standalone="no"?>
<!DOCTYPE svg PUBLIC "-//W3C//DTD SVG 1.1//EN"
 "http://www.w3.org/Graphics/SVG/1.1/DTD/svg11.dtd">
<!-- Generated by graphviz version 8.0.3 (20230416.2022)
 -->
<!-- Title: isUpdatable Pages: 1 -->
<svg width="930pt" height="92pt"
 viewBox="0.00 0.00 930.00 91.50" xmlns="http://www.w3.org/2000/svg" xmlns:xlink="http://www.w3.org/1999/xlink">
<g id="graph0" class="graph" transform="scale(1 1) rotate(0) translate(4 87.5)">
<title>isUpdatable</title>
<!-- Node1 -->
<g id="node1" class="node">
<title>Node1</title>
<g id="a_node1"><a xlink:title="{{}}">
<polygon fill="#999999" stroke="#666666" points="68,-54 0,-54 0,-35 68,-35 68,-54"/>
<text text-anchor="middle" x="34" y="-42" font-family="Helvetica,sans-Serif" font-size="10.00">isUpdatable</text>
</a>
</g>
</g>
<!-- Node2 -->
<g id="node2" class="node">
<title>Node2</title>
<g id="a_node2"><a xlink:href="class_o_c_a_1_1_c_a_f_e_v_d_b_1_1_storage_1_1_database_1_1_storage.html#adeb1bc07330c61c5b94a88bc857fa7c2" target="_top" xlink:title="{}">
<polygon fill="white" stroke="#666666" points="230,-65 104,-65 104,-24 230,-24 230,-65"/>
<text text-anchor="start" x="112" y="-53" font-family="Helvetica,sans-Serif" font-size="10.00">OCA\CAFEVDB\Storage</text>
<text text-anchor="start" x="112" y="-42" font-family="Helvetica,sans-Serif" font-size="10.00">\Database\Storage\file</text>
<text text-anchor="middle" x="167" y="-31" font-family="Helvetica,sans-Serif" font-size="10.00">_exists</text>
</a>
</g>
</g>
<!-- Node1&#45;&gt;Node2 -->
<g id="edge1" class="edge">
<title>Node1&#45;&gt;Node2</title>
<path fill="none" stroke="#63b8ff" d="M68.4,-44.5C75.96,-44.5 84.29,-44.5 92.8,-44.5"/>
<polygon fill="#63b8ff" stroke="#63b8ff" points="92.62,-48 102.62,-44.5 92.62,-41 92.62,-48"/>
</g>
<!-- Node3 -->
<g id="node3" class="node">
<title>Node3</title>
<g id="a_node3"><a xlink:href="class_o_c_a_1_1_c_a_f_e_v_d_b_1_1_storage_1_1_database_1_1_storage.html#a7ec90cd17ef214d5fe4280b13d7c144a" target="_top" xlink:title="Fetch the file entity corresponding to file&#45;name.">
<polygon fill="white" stroke="#666666" points="565,-65 428,-65 428,-24 565,-24 565,-65"/>
<text text-anchor="start" x="436" y="-53" font-family="Helvetica,sans-Serif" font-size="10.00">OCA\CAFEVDB\Storage</text>
<text text-anchor="start" x="436" y="-42" font-family="Helvetica,sans-Serif" font-size="10.00">\Database\Storage\fileFrom</text>
<text text-anchor="middle" x="496.5" y="-31" font-family="Helvetica,sans-Serif" font-size="10.00">FileName</text>
</a>
</g>
</g>
<!-- Node2&#45;&gt;Node3 -->
<g id="edge2" class="edge">
<title>Node2&#45;&gt;Node3</title>
<path fill="none" stroke="#63b8ff" d="M230.47,-46.7C242.27,-47.03 254.51,-47.32 266,-47.5 321.99,-48.36 336.01,-48.31 392,-47.5 400,-47.38 408.34,-47.22 416.67,-47.02"/>
<polygon fill="#63b8ff" stroke="#63b8ff" points="416.67,-50.5 426.58,-46.75 416.5,-43.5 416.67,-50.5"/>
</g>
<!-- Node7 -->
<g id="node7" class="node">
<title>Node7</title>
<g id="a_node7"><a xlink:href="class_o_c_a_1_1_c_a_f_e_v_d_b_1_1_storage_1_1_database_1_1_storage.html#a5877dd78fbe10fb5f3ee3d25e3fbe11e" target="_top" xlink:title="{}">
<polygon fill="white" stroke="#666666" points="392,-38.5 266,-38.5 266,-8.5 392,-8.5 392,-38.5"/>
<text text-anchor="start" x="274" y="-26.5" font-family="Helvetica,sans-Serif" font-size="10.00">OCA\CAFEVDB\Storage</text>
<text text-anchor="middle" x="329" y="-15.5" font-family="Helvetica,sans-Serif" font-size="10.00">\Database\Storage\is_dir</text>
</a>
</g>
</g>
<!-- Node2&#45;&gt;Node7 -->
<g id="edge6" class="edge">
<title>Node2&#45;&gt;Node7</title>
<path fill="none" stroke="#63b8ff" d="M230.32,-36.32C238.37,-35.26 246.68,-34.17 254.88,-33.1"/>
<polygon fill="#63b8ff" stroke="#63b8ff" points="255.13,-36.46 264.59,-31.69 254.22,-29.52 255.13,-36.46"/>
</g>
<!-- Node4 -->
<g id="node4" class="node">
<title>Node4</title>
<g id="a_node4"><a xlink:href="class_o_c_a_1_1_c_a_f_e_v_d_b_1_1_storage_1_1_database_1_1_storage.html#ab721841df814a2337039d39cc03da82a" target="_top" xlink:title=" ">
<polygon fill="white" stroke="#666666" points="743,-83.5 601,-83.5 601,-53.5 743,-53.5 743,-83.5"/>
<text text-anchor="start" x="609" y="-71.5" font-family="Helvetica,sans-Serif" font-size="10.00">OCA\CAFEVDB\Storage</text>
<text text-anchor="middle" x="672" y="-60.5" font-family="Helvetica,sans-Serif" font-size="10.00">\Database\Storage\buildPath</text>
</a>
</g>
</g>
<!-- Node3&#45;&gt;Node4 -->
<g id="edge3" class="edge">
<title>Node3&#45;&gt;Node4</title>
<path fill="none" stroke="#63b8ff" d="M565.08,-53.85C573.21,-54.97 581.59,-56.13 589.89,-57.28"/>
<polygon fill="#63b8ff" stroke="#63b8ff" points="589.36,-60.88 599.75,-58.78 590.32,-53.94 589.36,-60.88"/>
</g>
<!-- Node5 -->
<g id="node5" class="node">
<title>Node5</title>
<g id="a_node5"><a xlink:href="class_o_c_a_1_1_c_a_f_e_v_d_b_1_1_storage_1_1_database_1_1_storage.html#aa8e4fc68bcf28c10413b664b7d89ae81" target="_top" xlink:title="Slightly modified pathinfo() function which also normalized directories before computing the componen...">
<polygon fill="white" stroke="#666666" points="740.5,-35.5 603.5,-35.5 603.5,-5.5 740.5,-5.5 740.5,-35.5"/>
<text text-anchor="start" x="611.5" y="-23.5" font-family="Helvetica,sans-Serif" font-size="10.00">OCA\CAFEVDB\Storage</text>
<text text-anchor="middle" x="672" y="-12.5" font-family="Helvetica,sans-Serif" font-size="10.00">\Database\Storage\pathInfo</text>
</a>
</g>
</g>
<!-- Node3&#45;&gt;Node5 -->
<g id="edge4" class="edge">
<title>Node3&#45;&gt;Node5</title>
<path fill="none" stroke="#63b8ff" d="M565.08,-35.15C574.04,-33.91 583.28,-32.63 592.41,-31.37"/>
<polygon fill="#63b8ff" stroke="#63b8ff" points="592.61,-34.74 602.04,-29.9 591.65,-27.8 592.61,-34.74"/>
</g>
<!-- Node6 -->
<g id="node6" class="node">
<title>Node6</title>
<g id="a_node6"><a xlink:href="class_o_c_a_1_1_c_a_f_e_v_d_b_1_1_storage_1_1_database_1_1_storage.html#ac5c1b62ecc9eb2ebe08f1e8c7ee2b283" target="_top" xlink:title="Attach self::PATH_SEPARATOR to the dirname if it is not the root directory.">
<polygon fill="white" stroke="#666666" points="922,-41 779,-41 779,0 922,0 922,-41"/>
<text text-anchor="start" x="787" y="-29" font-family="Helvetica,sans-Serif" font-size="10.00">OCA\CAFEVDB\Storage</text>
<text text-anchor="start" x="787" y="-18" font-family="Helvetica,sans-Serif" font-size="10.00">\Database\Storage\normalize</text>
<text text-anchor="middle" x="850.5" y="-7" font-family="Helvetica,sans-Serif" font-size="10.00">DirectoryName</text>
</a>
</g>
</g>
<!-- Node5&#45;&gt;Node6 -->
<g id="edge5" class="edge">
<title>Node5&#45;&gt;Node6</title>
<path fill="none" stroke="#63b8ff" d="M740.99,-20.5C749.76,-20.5 758.81,-20.5 767.77,-20.5"/>
<polygon fill="#63b8ff" stroke="#63b8ff" points="767.63,-24 777.62,-20.5 767.62,-17 767.63,-24"/>
</g>
<!-- Node7&#45;&gt;Node3 -->
<g id="edge7" class="edge">
<title>Node7&#45;&gt;Node3</title>
<path fill="none" stroke="#63b8ff" d="M392.1,-31.38C400.13,-32.4 408.45,-33.45 416.71,-34.5"/>
<polygon fill="#63b8ff" stroke="#63b8ff" points="416.15,-38.09 426.51,-35.87 417.03,-31.14 416.15,-38.09"/>
</g>
</g>
</svg>
