<?xml version="1.0" encoding="UTF-8" standalone="no"?>
<!DOCTYPE svg PUBLIC "-//W3C//DTD SVG 1.1//EN"
 "http://www.w3.org/Graphics/SVG/1.1/DTD/svg11.dtd">
<!-- Generated by graphviz version 8.0.3 (20230416.2022)
 -->
<!-- Title: getMailHeaders Pages: 1 -->
<svg width="245pt" height="64pt"
 viewBox="0.00 0.00 245.00 64.00" xmlns="http://www.w3.org/2000/svg" xmlns:xlink="http://www.w3.org/1999/xlink">
<g id="graph0" class="graph" transform="scale(1 1) rotate(0) translate(4 60)">
<title>getMailHeaders</title>
<!-- Node1 -->
<g id="node1" class="node">
<title>Node1</title>
<g id="a_node1"><a xlink:title="Returns the complete headers, but not the body.">
<polygon fill="#999999" stroke="#666666" points="237,-37 152,-37 152,-18 237,-18 237,-37"/>
<text text-anchor="middle" x="194.5" y="-25" font-family="Helvetica,sans-Serif" font-size="10.00">getMailHeaders</text>
</a>
</g>
</g>
<!-- Node2 -->
<g id="node2" class="node">
<title>Node2</title>
<g id="a_node2"><a xlink:href="class_o_c_a_1_1_c_a_f_e_v_d_b_1_1_common_1_1_p_h_p_mailer.html#a705aa0508caf1e7c3e6ea4443fe1f1c6" target="_top" xlink:title="{}">
<polygon fill="white" stroke="#666666" points="116,-56 0,-56 0,-37 116,-37 116,-56"/>
<text text-anchor="middle" x="58" y="-44" font-family="Helvetica,sans-Serif" font-size="10.00">getSentMIMEMessage</text>
</a>
</g>
</g>
<!-- Node1&#45;&gt;Node2 -->
<g id="edge1" class="edge">
<title>Node1&#45;&gt;Node2</title>
<path fill="none" stroke="#63b8ff" d="M140.85,-34.94C132.73,-36.08 124.32,-37.27 116.11,-38.43"/>
<polygon fill="#63b8ff" stroke="#63b8ff" points="141.27,-38.27 150.68,-33.41 140.29,-31.34 141.27,-38.27"/>
</g>
<!-- Node3 -->
<g id="node3" class="node">
<title>Node3</title>
<g id="a_node3"><a xlink:href="class_o_c_a_1_1_c_a_f_e_v_d_b_1_1_common_1_1_p_h_p_mailer.html#a12bcef5130168b80d3d52dc82213f19a" target="_top" xlink:title="Create a message and send it.">
<polygon fill="white" stroke="#666666" points="77,-19 39,-19 39,0 77,0 77,-19"/>
<text text-anchor="middle" x="58" y="-7" font-family="Helvetica,sans-Serif" font-size="10.00">send</text>
</a>
</g>
</g>
<!-- Node1&#45;&gt;Node3 -->
<g id="edge2" class="edge">
<title>Node1&#45;&gt;Node3</title>
<path fill="none" stroke="#63b8ff" d="M140.86,-20.46C118.35,-17.44 93.54,-14.12 77.2,-11.94"/>
<polygon fill="#63b8ff" stroke="#63b8ff" points="140.3,-24.05 150.68,-21.9 141.23,-17.11 140.3,-24.05"/>
</g>
</g>
</svg>
