<?xml version="1.0" encoding="UTF-8" standalone="no"?>
<!DOCTYPE svg PUBLIC "-//W3C//DTD SVG 1.1//EN"
 "http://www.w3.org/Graphics/SVG/1.1/DTD/svg11.dtd">
<!-- Generated by graphviz version 9.0.0 (20230911.1827)
 -->
<!-- Title: Synchronized Pages: 1 -->
<svg width="151pt" height="140pt"
 viewBox="0.00 0.00 150.75 140.00" xmlns="http://www.w3.org/2000/svg" xmlns:xlink="http://www.w3.org/1999/xlink">
<g id="graph0" class="graph" transform="scale(1 1) rotate(0) translate(4 136)">
<title>Synchronized</title>
<!-- Node1 -->
<g id="Node000001" class="node">
<title>Node1</title>
<g id="a_Node000001"><a xlink:title="A synchronized is a tuple of an entity and a mapper which writes all data straight through to the dat...">
<polygon fill="#999999" stroke="#666666" points="109,-76 33.75,-76 33.75,-56 109,-56 109,-76"/>
<text text-anchor="middle" x="71.38" y="-62.5" font-family="Helvetica,sans-Serif" font-size="10.00">Synchronized</text>
</a>
</g>
</g>
<!-- Node3 -->
<g id="Node000003" class="node">
<title>Node3</title>
<g id="a_Node000003"><a xlink:href="class_o_c_a_1_1_c_a_f_e_v_d_b_1_1_database_1_1_cloud_1_1_synchronized_1_1_synchronized_progress_status.html" target="_top" xlink:title=" ">
<polygon fill="white" stroke="#666666" points="142.75,-20 0,-20 0,0 142.75,0 142.75,-20"/>
<text text-anchor="middle" x="71.38" y="-6.5" font-family="Helvetica,sans-Serif" font-size="10.00">SynchronizedProgressStatus</text>
</a>
</g>
</g>
<!-- Node1&#45;&gt;Node3 -->
<g id="edge2_Node000001_Node000003" class="edge">
<title>Node1&#45;&gt;Node3</title>
<g id="a_edge2_Node000001_Node000003"><a xlink:title=" ">
<path fill="none" stroke="#63b8ff" d="M71.38,-44.13C71.38,-35.9 71.38,-26.85 71.38,-20.3"/>
<polygon fill="#63b8ff" stroke="#63b8ff" points="67.88,-44.08 71.38,-54.08 74.88,-44.08 67.88,-44.08"/>
</a>
</g>
</g>
<!-- Node2 -->
<g id="Node000002" class="node">
<title>Node2</title>
<g id="a_Node000002"><a xlink:title=" ">
<polygon fill="white" stroke="#bfbfbf" points="102.62,-132 40.12,-132 40.12,-112 102.62,-112 102.62,-132"/>
<text text-anchor="middle" x="71.38" y="-118.5" font-family="Helvetica,sans-Serif" font-size="10.00">QBMapper</text>
</a>
</g>
</g>
<!-- Node2&#45;&gt;Node1 -->
<g id="edge1_Node000001_Node000002" class="edge">
<title>Node2&#45;&gt;Node1</title>
<g id="a_edge1_Node000001_Node000002"><a xlink:title=" ">
<path fill="none" stroke="#63b8ff" d="M71.38,-100.13C71.38,-91.9 71.38,-82.85 71.38,-76.3"/>
<polygon fill="#63b8ff" stroke="#63b8ff" points="67.88,-100.08 71.38,-110.08 74.88,-100.08 67.88,-100.08"/>
</a>
</g>
</g>
</g>
</svg>
