<?xml version="1.0" encoding="UTF-8" standalone="no"?>
<!DOCTYPE svg PUBLIC "-//W3C//DTD SVG 1.1//EN"
 "http://www.w3.org/Graphics/SVG/1.1/DTD/svg11.dtd">
<!-- Generated by graphviz version 9.0.0 (20230911.1827)
 -->
<!-- Title: getRoot Pages: 1 -->
<svg width="508pt" height="102pt"
 viewBox="0.00 0.00 508.25 102.00" xmlns="http://www.w3.org/2000/svg" xmlns:xlink="http://www.w3.org/1999/xlink">
<g id="graph0" class="graph" transform="scale(1 1) rotate(0) translate(4 98)">
<title>getRoot</title>
<!-- Node1 -->
<g id="Node000001" class="node">
<title>Node1</title>
<g id="a_Node000001"><a xlink:title=" ">
<polygon fill="#999999" stroke="#666666" points="500.25,-48 449.75,-48 449.75,-28 500.25,-28 500.25,-48"/>
<text text-anchor="middle" x="475" y="-34.5" font-family="Helvetica,sans-Serif" font-size="10.00">getRoot</text>
</a>
</g>
</g>
<!-- Node2 -->
<g id="Node000002" class="node">
<title>Node2</title>
<g id="a_Node000002"><a xlink:href="class_o_c_a_1_1_c_a_f_e_v_d_b_1_1_database_1_1_doctrine_1_1_o_r_m_1_1_entities_1_1_project.html#a213742d9e35e53456aad8935feb01a94" target="_top" xlink:title="Get financialBalanceDocumentsFolder.">
<polygon fill="white" stroke="#666666" points="413.75,-94 223,-94 223,-38 413.75,-38 413.75,-94"/>
<text text-anchor="start" x="231" y="-80.5" font-family="Helvetica,sans-Serif" font-size="10.00">OCA\CAFEVDB\Database</text>
<text text-anchor="start" x="231" y="-68.5" font-family="Helvetica,sans-Serif" font-size="10.00">\Doctrine\ORM\Entities</text>
<text text-anchor="start" x="231" y="-56.5" font-family="Helvetica,sans-Serif" font-size="10.00">\Project\getFinancialBalanceDocuments</text>
<text text-anchor="middle" x="318.38" y="-44.5" font-family="Helvetica,sans-Serif" font-size="10.00">Folder</text>
</a>
</g>
</g>
<!-- Node1&#45;&gt;Node2 -->
<g id="edge1_Node000001_Node000002" class="edge">
<title>Node1&#45;&gt;Node2</title>
<g id="a_edge1_Node000001_Node000002"><a xlink:title=" ">
<path fill="none" stroke="#63b8ff" d="M438.39,-44.45C430.89,-45.81 422.65,-47.3 414.1,-48.85"/>
<polygon fill="#63b8ff" stroke="#63b8ff" points="438.79,-47.93 448.01,-42.71 437.55,-41.04 438.79,-47.93"/>
</a>
</g>
</g>
<!-- Node4 -->
<g id="Node000004" class="node">
<title>Node4</title>
<g id="a_Node000004"><a xlink:href="class_o_c_a_1_1_c_a_f_e_v_d_b_1_1_database_1_1_doctrine_1_1_o_r_m_1_1_entities_1_1_database_storage_dir_entry.html#a2ee306b3cf5ab89be63cfdef2db1000d" target="_top" xlink:title=" ">
<polygon fill="white" stroke="#666666" points="350,-20 286.75,-20 286.75,0 350,0 350,-20"/>
<text text-anchor="middle" x="318.38" y="-6.5" font-family="Helvetica,sans-Serif" font-size="10.00">getStorage</text>
</a>
</g>
</g>
<!-- Node1&#45;&gt;Node4 -->
<g id="edge3_Node000001_Node000004" class="edge">
<title>Node1&#45;&gt;Node4</title>
<g id="a_edge3_Node000001_Node000004"><a xlink:title=" ">
<path fill="none" stroke="#63b8ff" d="M438.38,-31.55C411.8,-26.74 375.84,-20.23 350.43,-15.62"/>
<polygon fill="#63b8ff" stroke="#63b8ff" points="437.55,-34.96 448.01,-33.29 438.79,-28.07 437.55,-34.96"/>
</a>
</g>
</g>
<!-- Node3 -->
<g id="Node000003" class="node">
<title>Node3</title>
<g id="a_Node000003"><a xlink:href="class_o_c_a_1_1_c_a_f_e_v_d_b_1_1_database_1_1_doctrine_1_1_o_r_m_1_1_entities_1_1_project.html#a68fe84419dad9f47730413755f8fd253" target="_top" xlink:title="Recurse to the balance documents folder and return its contents.">
<polygon fill="white" stroke="#666666" points="187,-94 0,-94 0,-38 187,-38 187,-94"/>
<text text-anchor="start" x="8" y="-80.5" font-family="Helvetica,sans-Serif" font-size="10.00">OCA\CAFEVDB\Database</text>
<text text-anchor="start" x="8" y="-68.5" font-family="Helvetica,sans-Serif" font-size="10.00">\Doctrine\ORM\Entities</text>
<text text-anchor="start" x="8" y="-56.5" font-family="Helvetica,sans-Serif" font-size="10.00">\Project\getFinancialBalanceSupporting</text>
<text text-anchor="middle" x="93.5" y="-44.5" font-family="Helvetica,sans-Serif" font-size="10.00">Documents</text>
</a>
</g>
</g>
<!-- Node2&#45;&gt;Node3 -->
<g id="edge2_Node000002_Node000003" class="edge">
<title>Node2&#45;&gt;Node3</title>
<g id="a_edge2_Node000002_Node000003"><a xlink:title=" ">
<path fill="none" stroke="#63b8ff" d="M211.04,-66C203.17,-66 195.26,-66 187.48,-66"/>
<polygon fill="#63b8ff" stroke="#63b8ff" points="211.02,-69.5 221.02,-66 211.02,-62.5 211.02,-69.5"/>
</a>
</g>
</g>
</g>
</svg>
