<?xml version="1.0" encoding="UTF-8" standalone="no"?>
<!DOCTYPE svg PUBLIC "-//W3C//DTD SVG 1.1//EN"
 "http://www.w3.org/Graphics/SVG/1.1/DTD/svg11.dtd">
<!-- Generated by graphviz version 9.0.0 (20230911.1827)
 -->
<!-- Title: load Pages: 1 -->
<svg width="368pt" height="28pt"
 viewBox="0.00 0.00 367.50 28.00" xmlns="http://www.w3.org/2000/svg" xmlns:xlink="http://www.w3.org/1999/xlink">
<g id="graph0" class="graph" transform="scale(1 1) rotate(0) translate(4 24)">
<title>load</title>
<!-- Node1 -->
<g id="Node000001" class="node">
<title>Node1</title>
<g id="a_Node000001"><a xlink:title="Load the history state.">
<polygon fill="#999999" stroke="#666666" points="34,-20 0,-20 0,0 34,0 34,-20"/>
<text text-anchor="middle" x="17" y="-6.5" font-family="Helvetica,sans-Serif" font-size="10.00">load</text>
</a>
</g>
</g>
<!-- Node2 -->
<g id="Node000002" class="node">
<title>Node2</title>
<g id="a_Node000002"><a xlink:href="class_o_c_a_1_1_c_a_f_e_v_d_b_1_1_service_1_1_history_service.html#a209c2a40ceaef87a5f2e66954aeefc19" target="_top" xlink:title="Validate the given history records, return false on error.">
<polygon fill="white" stroke="#666666" points="119.75,-20 70,-20 70,0 119.75,0 119.75,-20"/>
<text text-anchor="middle" x="94.88" y="-6.5" font-family="Helvetica,sans-Serif" font-size="10.00">validate</text>
</a>
</g>
</g>
<!-- Node1&#45;&gt;Node2 -->
<g id="edge1_Node000001_Node000002" class="edge">
<title>Node1&#45;&gt;Node2</title>
<g id="a_edge1_Node000001_Node000002"><a xlink:title=" ">
<path fill="none" stroke="#63b8ff" d="M34.46,-10C41.46,-10 49.9,-10 58.19,-10"/>
<polygon fill="#63b8ff" stroke="#63b8ff" points="58.15,-13.5 68.15,-10 58.15,-6.5 58.15,-13.5"/>
</a>
</g>
</g>
<!-- Node3 -->
<g id="Node000003" class="node">
<title>Node3</title>
<g id="a_Node000003"><a xlink:href="class_o_c_a_1_1_c_a_f_e_v_d_b_1_1_service_1_1_history_service.html#a6a72e82192c52470a66981c68ae2300c" target="_top" xlink:title="Validate all history records.">
<polygon fill="white" stroke="#666666" points="242.25,-20 155.75,-20 155.75,0 242.25,0 242.25,-20"/>
<text text-anchor="middle" x="199" y="-6.5" font-family="Helvetica,sans-Serif" font-size="10.00">validateRecords</text>
</a>
</g>
</g>
<!-- Node2&#45;&gt;Node3 -->
<g id="edge2_Node000002_Node000003" class="edge">
<title>Node2&#45;&gt;Node3</title>
<g id="a_edge2_Node000002_Node000003"><a xlink:title=" ">
<path fill="none" stroke="#63b8ff" d="M120.08,-10C127.38,-10 135.7,-10 144.12,-10"/>
<polygon fill="#63b8ff" stroke="#63b8ff" points="144.08,-13.5 154.08,-10 144.08,-6.5 144.08,-13.5"/>
</a>
</g>
</g>
<!-- Node4 -->
<g id="Node000004" class="node">
<title>Node4</title>
<g id="a_Node000004"><a xlink:href="class_o_c_a_1_1_c_a_f_e_v_d_b_1_1_service_1_1_history_service.html#a7ed7cb21ddeff13466b698d248318b56" target="_top" xlink:title="Validate one history entry.">
<polygon fill="white" stroke="#666666" points="359.5,-20 278.25,-20 278.25,0 359.5,0 359.5,-20"/>
<text text-anchor="middle" x="318.88" y="-6.5" font-family="Helvetica,sans-Serif" font-size="10.00">validateRecord</text>
</a>
</g>
</g>
<!-- Node3&#45;&gt;Node4 -->
<g id="edge3_Node000003_Node000004" class="edge">
<title>Node3&#45;&gt;Node4</title>
<g id="a_edge3_Node000003_Node000004"><a xlink:title=" ">
<path fill="none" stroke="#63b8ff" d="M242.56,-10C250.44,-10 258.76,-10 266.87,-10"/>
<polygon fill="#63b8ff" stroke="#63b8ff" points="266.62,-13.5 276.62,-10 266.62,-6.5 266.62,-13.5"/>
</a>
</g>
</g>
</g>
</svg>
