<?xml version="1.0" encoding="UTF-8" standalone="no"?>
<!DOCTYPE svg PUBLIC "-//W3C//DTD SVG 1.1//EN"
 "http://www.w3.org/Graphics/SVG/1.1/DTD/svg11.dtd">
<!-- Generated by graphviz version 12.2.1 (20241206.2353)
 -->
<!-- Title: setUser Pages: 1 -->
<svg width="269pt" height="66pt"
 viewBox="0.00 0.00 269.00 66.00" xmlns="http://www.w3.org/2000/svg" xmlns:xlink="http://www.w3.org/1999/xlink">

<svg id="main" version="1.1" xmlns="http://www.w3.org/2000/svg" xmlns:xlink="http://www.w3.org/1999/xlink" xml:space="preserve">

<style type="text/css"><![CDATA[
.node, .edge {opacity: 0.7;}
.node.selected, .edge.selected {opacity: 1;}
.edge:hover path { stroke: red; }
.edge:hover polygon { stroke: red; fill: red; }
]]></style>
<script type="application/ecmascript" xlink:href="svg.min.js"/>
<svg id="graph" class="graph">
<g id="graph0" class="graph" transform="scale(1 1) rotate(0) translate(4 62)">
<title>setUser</title>
<!-- Node1 -->
<g id="Node000001" class="node">
<title>Node1</title>
<g id="a_Node000001"><a xlink:title="Install a new user.">
<polygon fill="#999999" stroke="#666666" points="50.5,-39 0,-39 0,-19 50.5,-19 50.5,-39"/>
<text text-anchor="middle" x="25.25" y="-25.5" font-family="Helvetica,sans-Serif" font-size="10.00">setUser</text>
</a>
</g>
</g>
<!-- Node2 -->
<g id="Node000002" class="node">
<title>Node2</title>
<g id="a_Node000002"><a xlink:href="class_o_c_a_1_1_c_a_f_e_v_d_b_1_1_service_1_1_config_service.html#a8be64a59621bfe298a4109ce08229ecd" target="_top" xlink:title=" ">
<polygon fill="white" stroke="#666666" points="137,-58 86.5,-58 86.5,-38 137,-38 137,-58"/>
<text text-anchor="middle" x="111.75" y="-44.5" font-family="Helvetica,sans-Serif" font-size="10.00">getUser</text>
</a>
</g>
</g>
<!-- Node1&#45;&gt;Node2 -->
<g id="edge1_Node000001_Node000002" class="edge">
<title>Node1&#45;&gt;Node2</title>
<g id="a_edge1_Node000001_Node000002"><a xlink:title=" ">
<path fill="none" stroke="#63b8ff" d="M50.69,-34.5C58.24,-36.19 66.73,-38.1 74.89,-39.94"/>
<polygon fill="#63b8ff" stroke="#63b8ff" points="74.07,-43.34 84.59,-42.12 75.61,-36.51 74.07,-43.34"/>
</a>
</g>
</g>
<!-- Node4 -->
<g id="Node000004" class="node">
<title>Node4</title>
<g id="a_Node000004"><a xlink:href="class_o_c_a_1_1_c_a_f_e_v_d_b_1_1_service_1_1_config_service.html#a8e80f766c9aa0f817b358aa67422985a" target="_top" xlink:title=" ">
<polygon fill="white" stroke="#666666" points="259.88,-20 174.12,-20 174.12,0 259.88,0 259.88,-20"/>
<text text-anchor="middle" x="217" y="-6.5" font-family="Helvetica,sans-Serif" font-size="10.00">getUserSession</text>
</a>
</g>
</g>
<!-- Node1&#45;&gt;Node4 -->
<g id="edge4_Node000001_Node000004" class="edge">
<title>Node1&#45;&gt;Node4</title>
<g id="a_edge4_Node000001_Node000004"><a xlink:title=" ">
<path fill="none" stroke="#63b8ff" d="M50.67,-26.55C78.88,-23.73 126.13,-19 162.91,-15.32"/>
<polygon fill="#63b8ff" stroke="#63b8ff" points="162.85,-18.84 172.45,-14.36 162.15,-11.87 162.85,-18.84"/>
</a>
</g>
</g>
<!-- Node3 -->
<g id="Node000003" class="node">
<title>Node3</title>
<g id="a_Node000003"><a xlink:href="class_o_c_a_1_1_c_a_f_e_v_d_b_1_1_service_1_1_config_service.html#a9645249ef330a927cede315afee62d5a" target="_top" xlink:title=" ">
<polygon fill="white" stroke="#666666" points="261,-58 173,-58 173,-38 261,-38 261,-58"/>
<text text-anchor="middle" x="217" y="-44.5" font-family="Helvetica,sans-Serif" font-size="10.00">getUserManager</text>
</a>
</g>
</g>
<!-- Node2&#45;&gt;Node3 -->
<g id="edge2_Node000002_Node000003" class="edge">
<title>Node2&#45;&gt;Node3</title>
<g id="a_edge2_Node000002_Node000003"><a xlink:title=" ">
<path fill="none" stroke="#63b8ff" d="M137.48,-48C144.7,-48 152.89,-48 161.19,-48"/>
<polygon fill="#63b8ff" stroke="#63b8ff" points="160.99,-51.5 170.99,-48 160.99,-44.5 160.99,-51.5"/>
</a>
</g>
</g>
<!-- Node2&#45;&gt;Node4 -->
<g id="edge3_Node000002_Node000004" class="edge">
<title>Node2&#45;&gt;Node4</title>
<g id="a_edge3_Node000002_Node000004"><a xlink:title=" ">
<path fill="none" stroke="#63b8ff" d="M137.48,-38.9C149.32,-34.54 163.78,-29.22 177.04,-24.34"/>
<polygon fill="#63b8ff" stroke="#63b8ff" points="178.23,-27.63 186.4,-20.89 175.81,-21.06 178.23,-27.63"/>
</a>
</g>
</g>
</g>
</svg>
</svg>

<style type='text/css'>
<![CDATA[
[data-mouse-over-selected='false'] { opacity: 0.7; }
[data-mouse-over-selected='true']  { opacity: 1.0; }
]]>
</style>
<script type="application/ecmascript"><![CDATA[
document.addEventListener('DOMContentLoaded', (event) => {
  highlightEdges();
  highlightAdjacentNodes();
});
]]></script>
</svg>
