<?xml version="1.0" encoding="UTF-8" standalone="no"?>
<!DOCTYPE svg PUBLIC "-//W3C//DTD SVG 1.1//EN"
 "http://www.w3.org/Graphics/SVG/1.1/DTD/svg11.dtd">
<!-- Generated by graphviz version 9.0.0 (20230911.1827)
 -->
<!-- Title: getSlugPostfix Pages: 1 -->
<svg width="418pt" height="114pt"
 viewBox="0.00 0.00 418.25 114.00" xmlns="http://www.w3.org/2000/svg" xmlns:xlink="http://www.w3.org/1999/xlink">
<g id="graph0" class="graph" transform="scale(1 1) rotate(0) translate(4 110)">
<title>getSlugPostfix</title>
<!-- Node1 -->
<g id="Node000001" class="node">
<title>Node1</title>
<g id="a_Node000001"><a xlink:title=" ">
<polygon fill="#999999" stroke="#666666" points="410.25,-44 330.5,-44 330.5,-24 410.25,-24 410.25,-44"/>
<text text-anchor="middle" x="370.38" y="-30.5" font-family="Helvetica,sans-Serif" font-size="10.00">getSlugPostfix</text>
</a>
</g>
</g>
<!-- Node2 -->
<g id="Node000002" class="node">
<title>Node2</title>
<g id="a_Node000002"><a xlink:href="class_o_c_a_1_1_c_a_f_e_v_d_b_1_1_service_1_1_musician_service.html#aa0225a6afe69f35c314ad6b3954b254a" target="_top" xlink:title=" ">
<polygon fill="white" stroke="#666666" points="288.5,-63 202,-63 202,-43 288.5,-43 288.5,-63"/>
<text text-anchor="middle" x="245.25" y="-49.5" font-family="Helvetica,sans-Serif" font-size="10.00">slugifyFileName</text>
</a>
</g>
</g>
<!-- Node1&#45;&gt;Node2 -->
<g id="edge1_Node000001_Node000002" class="edge">
<title>Node1&#45;&gt;Node2</title>
<g id="a_edge1_Node000001_Node000002"><a xlink:title=" ">
<path fill="none" stroke="#63b8ff" d="M318.93,-41.78C308.85,-43.34 298.35,-44.96 288.58,-46.47"/>
<polygon fill="#63b8ff" stroke="#63b8ff" points="319.23,-45.28 328.58,-40.29 318.17,-38.36 319.23,-45.28"/>
</a>
</g>
</g>
<!-- Node5 -->
<g id="Node000005" class="node">
<title>Node5</title>
<g id="a_Node000005"><a xlink:href="class_o_c_a_1_1_c_a_f_e_v_d_b_1_1_service_1_1_musician_service.html#a4971ad9d5b387e930636d1b27281e242" target="_top" xlink:title=" ">
<polygon fill="white" stroke="#666666" points="294.5,-25 196,-25 196,-5 294.5,-5 294.5,-25"/>
<text text-anchor="middle" x="245.25" y="-11.5" font-family="Helvetica,sans-Serif" font-size="10.00">unSlugifyFileName</text>
</a>
</g>
</g>
<!-- Node1&#45;&gt;Node5 -->
<g id="edge4_Node000001_Node000005" class="edge">
<title>Node1&#45;&gt;Node5</title>
<g id="a_edge4_Node000001_Node000005"><a xlink:title=" ">
<path fill="none" stroke="#63b8ff" d="M318.96,-26.22C310.94,-24.98 302.65,-23.7 294.67,-22.47"/>
<polygon fill="#63b8ff" stroke="#63b8ff" points="318.17,-29.64 328.58,-27.71 319.23,-22.72 318.17,-29.64"/>
</a>
</g>
</g>
<!-- Node3 -->
<g id="Node000003" class="node">
<title>Node3</title>
<g id="a_Node000003"><a xlink:href="class_o_c_a_1_1_c_a_f_e_v_d_b_1_1_listener_1_1_participant_field_cloud_folder_listener.html#ae8c2f7e758fc6ecdf76269ec0173d4b3" target="_top" xlink:title="Reconstruct the field from the label, assuming the file&#45;name has the format LABEL&#45;JohnDoe....">
<polygon fill="white" stroke="#666666" points="160,-106 0,-106 0,-62 160,-62 160,-106"/>
<text text-anchor="start" x="8" y="-92.5" font-family="Helvetica,sans-Serif" font-size="10.00">OCA\CAFEVDB\Listener</text>
<text text-anchor="start" x="8" y="-80.5" font-family="Helvetica,sans-Serif" font-size="10.00">\ParticipantFieldCloudFolder</text>
<text text-anchor="middle" x="80" y="-68.5" font-family="Helvetica,sans-Serif" font-size="10.00">Listener\getOptionFromFileName</text>
</a>
</g>
</g>
<!-- Node2&#45;&gt;Node3 -->
<g id="edge2_Node000002_Node000003" class="edge">
<title>Node2&#45;&gt;Node3</title>
<g id="a_edge2_Node000002_Node000003"><a xlink:title=" ">
<path fill="none" stroke="#63b8ff" d="M190.67,-63.18C180.92,-65.03 170.57,-66.99 160.28,-68.95"/>
<polygon fill="#63b8ff" stroke="#63b8ff" points="191.13,-66.65 200.3,-61.35 189.82,-59.77 191.13,-66.65"/>
</a>
</g>
</g>
<!-- Node4 -->
<g id="Node000004" class="node">
<title>Node4</title>
<g id="a_Node000004"><a xlink:href="class_o_c_a_1_1_c_a_f_e_v_d_b_1_1_service_1_1_project_service.html#a4d2f0d701bacfd21d282006c86785ba3" target="_top" xlink:title="Avoid duplicated &quot;extensions&quot; in file&#45;names, i.e.">
<polygon fill="white" stroke="#666666" points="145.38,-44 14.62,-44 14.62,0 145.38,0 145.38,-44"/>
<text text-anchor="start" x="22.62" y="-30.5" font-family="Helvetica,sans-Serif" font-size="10.00">OCA\CAFEVDB\Service</text>
<text text-anchor="start" x="22.62" y="-18.5" font-family="Helvetica,sans-Serif" font-size="10.00">\ProjectService\participant</text>
<text text-anchor="middle" x="80" y="-6.5" font-family="Helvetica,sans-Serif" font-size="10.00">Filename</text>
</a>
</g>
</g>
<!-- Node2&#45;&gt;Node4 -->
<g id="edge3_Node000002_Node000004" class="edge">
<title>Node2&#45;&gt;Node4</title>
<g id="a_edge3_Node000002_Node000004"><a xlink:title=" ">
<path fill="none" stroke="#63b8ff" d="M190.6,-42.81C176.26,-40.09 160.6,-37.12 145.73,-34.29"/>
<polygon fill="#63b8ff" stroke="#63b8ff" points="189.82,-46.23 200.3,-44.65 191.13,-39.35 189.82,-46.23"/>
</a>
</g>
</g>
</g>
</svg>
