<?xml version="1.0" encoding="UTF-8" standalone="no"?>
<!DOCTYPE svg PUBLIC "-//W3C//DTD SVG 1.1//EN"
 "http://www.w3.org/Graphics/SVG/1.1/DTD/svg11.dtd">
<!-- Generated by graphviz version 8.0.3 (20230416.2022)
 -->
<!-- Title: beforeInsertDoInsertAll Pages: 1 -->
<svg width="629pt" height="453pt"
 viewBox="0.00 0.00 629.00 452.50" xmlns="http://www.w3.org/2000/svg" xmlns:xlink="http://www.w3.org/1999/xlink">
<g id="graph0" class="graph" transform="scale(1 1) rotate(0) translate(4 448.5)">
<title>beforeInsertDoInsertAll</title>
<!-- Node1 -->
<g id="node1" class="node">
<title>Node1</title>
<g id="a_node1"><a xlink:title="Before insert&#45;trigger which ideally should insert all data such that nothing remains to be done for p...">
<polygon fill="#999999" stroke="#666666" points="117,-239.5 0,-239.5 0,-220.5 117,-220.5 117,-239.5"/>
<text text-anchor="middle" x="58.5" y="-227.5" font-family="Helvetica,sans-Serif" font-size="10.00">beforeInsertDoInsertAll</text>
</a>
</g>
</g>
<!-- Node2 -->
<g id="node2" class="node">
<title>Node2</title>
<g id="a_node2"><a xlink:href="class_o_c_a_1_1_c_a_f_e_v_d_b_1_1_page_renderer_1_1_p_m_e_table_view_base.html#ad92070c3daaf56e870af042e4ebf3b78" target="_top" xlink:title="Slice the given entity id by the given keys and return a composite key joined with self::COMP_KEY_SEP...">
<polygon fill="white" stroke="#666666" points="269.5,-444.5 168.5,-444.5 168.5,-425.5 269.5,-425.5 269.5,-444.5"/>
<text text-anchor="middle" x="219" y="-432.5" font-family="Helvetica,sans-Serif" font-size="10.00">compositeKeySlice</text>
</a>
</g>
</g>
<!-- Node1&#45;&gt;Node2 -->
<g id="edge1" class="edge">
<title>Node1&#45;&gt;Node2</title>
<path fill="none" stroke="#63b8ff" d="M61.86,-239.8C69.57,-269.8 96.82,-361.34 153,-411 157.17,-414.69 161.97,-417.83 167.01,-420.5"/>
<polygon fill="#63b8ff" stroke="#63b8ff" points="165.4,-424.07 175.94,-425.07 168.32,-417.71 165.4,-424.07"/>
</g>
<!-- Node3 -->
<g id="node3" class="node">
<title>Node3</title>
<g id="a_node3"><a xlink:href="class_o_c_a_1_1_c_a_f_e_v_d_b_1_1_page_renderer_1_1_p_m_e_table_view_base.html#a586e3ce7bc155a85dae0bbe3149e4181" target="_top" xlink:title="Be noisy if debugging is enabled.">
<polygon fill="white" stroke="#666666" points="408.5,-406.5 365.5,-406.5 365.5,-387.5 408.5,-387.5 408.5,-406.5"/>
<text text-anchor="middle" x="387" y="-394.5" font-family="Helvetica,sans-Serif" font-size="10.00">debug</text>
</a>
</g>
</g>
<!-- Node1&#45;&gt;Node3 -->
<g id="edge2" class="edge">
<title>Node1&#45;&gt;Node3</title>
<path fill="none" stroke="#63b8ff" d="M62.3,-239.81C70.73,-267.28 98.66,-345.1 153,-378 216.03,-416.15 306.83,-409.75 354.32,-402.8"/>
<polygon fill="#63b8ff" stroke="#63b8ff" points="354.81,-406.11 364.15,-401.09 353.72,-399.19 354.81,-406.11"/>
</g>
<!-- Node4 -->
<g id="node4" class="node">
<title>Node4</title>
<g id="a_node4"><a xlink:href="class_o_c_a_1_1_c_a_f_e_v_d_b_1_1_page_renderer_1_1_p_m_e_table_view_base.html#a0160798c24d6bddc98d5192235a59982" target="_top" xlink:title=" ">
<polygon fill="white" stroke="#666666" points="265,-368.5 173,-368.5 173,-349.5 265,-349.5 265,-368.5"/>
<text text-anchor="middle" x="219" y="-356.5" font-family="Helvetica,sans-Serif" font-size="10.00">debugPrintValues</text>
</a>
</g>
</g>
<!-- Node1&#45;&gt;Node4 -->
<g id="edge3" class="edge">
<title>Node1&#45;&gt;Node4</title>
<path fill="none" stroke="#63b8ff" d="M65.78,-239.84C79.32,-260.33 113.27,-307.91 153,-335 158.61,-338.82 164.9,-342.13 171.31,-344.96"/>
<polygon fill="#63b8ff" stroke="#63b8ff" points="169.8,-348.53 180.39,-349.02 172.42,-342.03 169.8,-348.53"/>
</g>
<!-- Node6 -->
<g id="node6" class="node">
<title>Node6</title>
<g id="a_node6"><a xlink:href="class_o_c_a_1_1_c_a_f_e_v_d_b_1_1_common_1_1_util.html#a0bef3dc2eedd594dab3a84b15d183c36" target="_top" xlink:title="A preg_explode() wrapper with some extra features.">
<polygon fill="white" stroke="#666666" points="453,-293 321,-293 321,-263 453,-263 453,-293"/>
<text text-anchor="start" x="329" y="-281" font-family="Helvetica,sans-Serif" font-size="10.00">OCA\CAFEVDB\Common</text>
<text text-anchor="middle" x="387" y="-270" font-family="Helvetica,sans-Serif" font-size="10.00">\Util\explode</text>
</a>
</g>
</g>
<!-- Node1&#45;&gt;Node6 -->
<g id="edge6" class="edge">
<title>Node1&#45;&gt;Node6</title>
<path fill="none" stroke="#63b8ff" d="M68.07,-239.91C83.2,-256.58 116.54,-289.59 153,-302 211.69,-321.98 283.12,-309.65 331.3,-296.4"/>
<polygon fill="#63b8ff" stroke="#63b8ff" points="332.16,-299.51 340.81,-293.4 330.24,-292.78 332.16,-299.51"/>
</g>
<!-- Node8 -->
<g id="node8" class="node">
<title>Node8</title>
<g id="a_node8"><a xlink:href="class_o_c_a_1_1_c_a_f_e_v_d_b_1_1_common_1_1_util.html#a224e0cc0562d0f2642f19e9f8fb03596" target="_top" xlink:title="Explode a string of the form.">
<polygon fill="white" stroke="#666666" points="285,-293 153,-293 153,-263 285,-263 285,-293"/>
<text text-anchor="start" x="161" y="-281" font-family="Helvetica,sans-Serif" font-size="10.00">OCA\CAFEVDB\Common</text>
<text text-anchor="middle" x="219" y="-270" font-family="Helvetica,sans-Serif" font-size="10.00">\Util\explodeIndexed</text>
</a>
</g>
</g>
<!-- Node1&#45;&gt;Node8 -->
<g id="edge9" class="edge">
<title>Node1&#45;&gt;Node8</title>
<path fill="none" stroke="#63b8ff" d="M92.34,-239.95C110.97,-245.59 134.88,-252.83 156.84,-259.48"/>
<polygon fill="#63b8ff" stroke="#63b8ff" points="155.51,-263.04 166.1,-262.58 157.54,-256.34 155.51,-263.04"/>
</g>
<!-- Node9 -->
<g id="node9" class="node">
<title>Node9</title>
<g id="a_node9"><a xlink:href="class_o_c_a_1_1_c_a_f_e_v_d_b_1_1_common_1_1_util.html#a1c7326cf6f827db64c27bbb89f64dd7d" target="_top" xlink:title="Explode a string of the form.">
<polygon fill="white" stroke="#666666" points="285,-245 153,-245 153,-215 285,-215 285,-245"/>
<text text-anchor="start" x="161" y="-233" font-family="Helvetica,sans-Serif" font-size="10.00">OCA\CAFEVDB\Common</text>
<text text-anchor="middle" x="219" y="-222" font-family="Helvetica,sans-Serif" font-size="10.00">\Util\explodeIndexedMulti</text>
</a>
</g>
</g>
<!-- Node1&#45;&gt;Node9 -->
<g id="edge11" class="edge">
<title>Node1&#45;&gt;Node9</title>
<path fill="none" stroke="#63b8ff" d="M117.17,-230C125.17,-230 133.49,-230 141.76,-230"/>
<polygon fill="#63b8ff" stroke="#63b8ff" points="141.59,-233.5 151.59,-230 141.59,-226.5 141.59,-233.5"/>
</g>
<!-- Node10 -->
<g id="node10" class="node">
<title>Node10</title>
<g id="a_node10"><a xlink:href="class_o_c_a_1_1_c_a_f_e_v_d_b_1_1_page_renderer_1_1_p_m_e_table_view_base.html#a5974458d91d622f2f455643f17af9417" target="_top" xlink:title="Find the recursion end&#45;point for a nested join description.">
<polygon fill="white" stroke="#666666" points="272.5,-178.5 165.5,-178.5 165.5,-159.5 272.5,-159.5 272.5,-178.5"/>
<text text-anchor="middle" x="219" y="-166.5" font-family="Helvetica,sans-Serif" font-size="10.00">findJoinColumnPivot</text>
</a>
</g>
</g>
<!-- Node1&#45;&gt;Node10 -->
<g id="edge13" class="edge">
<title>Node1&#45;&gt;Node10</title>
<path fill="none" stroke="#63b8ff" d="M85.32,-220.06C111.68,-209.92 152.82,-194.09 182.3,-182.74"/>
<polygon fill="#63b8ff" stroke="#63b8ff" points="183.12,-185.79 191.19,-178.93 180.6,-179.26 183.12,-185.79"/>
</g>
<!-- Node11 -->
<g id="node11" class="node">
<title>Node11</title>
<g id="a_node11"><a xlink:href="class_o_c_a_1_1_c_a_f_e_v_d_b_1_1_page_renderer_1_1_p_m_e_table_view_base.html#a52152c1de369b4179e8e391899eca24a" target="_top" xlink:title="Inverse of self::joinTableFieldName().">
<polygon fill="white" stroke="#666666" points="257,-141.5 181,-141.5 181,-122.5 257,-122.5 257,-141.5"/>
<text text-anchor="middle" x="219" y="-129.5" font-family="Helvetica,sans-Serif" font-size="10.00">joinTableField</text>
</a>
</g>
</g>
<!-- Node1&#45;&gt;Node11 -->
<g id="edge15" class="edge">
<title>Node1&#45;&gt;Node11</title>
<path fill="none" stroke="#63b8ff" d="M68.28,-220.06C83.74,-203.17 117.54,-168.86 153,-150 158.5,-147.08 164.51,-144.59 170.6,-142.49"/>
<polygon fill="#63b8ff" stroke="#63b8ff" points="171.32,-145.62 179.82,-139.3 169.23,-138.93 171.32,-145.62"/>
</g>
<!-- Node12 -->
<g id="node12" class="node">
<title>Node12</title>
<g id="a_node12"><a xlink:href="class_o_c_a_1_1_c_a_f_e_v_d_b_1_1_page_renderer_1_1_p_m_e_table_view_base.html#abe18704ee0189ac55323c93db488770c" target="_top" xlink:title="The name of the field&#45;descriptor for a join&#45;table field referencing a master&#45;join&#45;table.">
<polygon fill="white" stroke="#666666" points="270,-104.5 168,-104.5 168,-85.5 270,-85.5 270,-104.5"/>
<text text-anchor="middle" x="219" y="-92.5" font-family="Helvetica,sans-Serif" font-size="10.00">joinTableFieldName</text>
</a>
</g>
</g>
<!-- Node1&#45;&gt;Node12 -->
<g id="edge16" class="edge">
<title>Node1&#45;&gt;Node12</title>
<path fill="none" stroke="#63b8ff" d="M64.55,-220.11C76.62,-197.5 109.38,-141.79 153,-113 154.99,-111.69 157.06,-110.47 159.21,-109.35"/>
<polygon fill="#63b8ff" stroke="#63b8ff" points="160.29,-112.25 167.96,-104.94 157.41,-105.87 160.29,-112.25"/>
</g>
<!-- Node13 -->
<g id="node13" class="node">
<title>Node13</title>
<g id="a_node13"><a xlink:href="class_o_c_a_1_1_c_a_f_e_v_d_b_1_1_page_renderer_1_1_p_m_e_table_view_base.html#a67e29f07640bea5f1c3132bb88270a2b" target="_top" xlink:title="The name of the master join table field which triggers PME to actually do the join.">
<polygon fill="white" stroke="#666666" points="285,-67.5 153,-67.5 153,-48.5 285,-48.5 285,-67.5"/>
<text text-anchor="middle" x="219" y="-55.5" font-family="Helvetica,sans-Serif" font-size="10.00">joinTableMasterFieldName</text>
</a>
</g>
</g>
<!-- Node1&#45;&gt;Node13 -->
<g id="edge17" class="edge">
<title>Node1&#45;&gt;Node13</title>
<path fill="none" stroke="#63b8ff" d="M62.53,-220.32C71.54,-193.13 100.87,-115.44 153,-76 154.48,-74.88 156.02,-73.84 157.61,-72.85"/>
<polygon fill="#63b8ff" stroke="#63b8ff" points="158.93,-75.6 166.21,-67.91 155.72,-69.37 158.93,-75.6"/>
</g>
<!-- Node14 -->
<g id="node14" class="node">
<title>Node14</title>
<g id="a_node14"><a xlink:href="class_o_c_a_1_1_c_a_f_e_v_d_b_1_1_common_1_1_util.html#a62e9094de93176fae4478b7eae96d61f" target="_top" xlink:title="Unset all array elements with value $value.">
<polygon fill="white" stroke="#666666" points="285,-30 153,-30 153,0 285,0 285,-30"/>
<text text-anchor="start" x="161" y="-18" font-family="Helvetica,sans-Serif" font-size="10.00">OCA\CAFEVDB\Common</text>
<text text-anchor="middle" x="219" y="-7" font-family="Helvetica,sans-Serif" font-size="10.00">\Util\unsetValue</text>
</a>
</g>
</g>
<!-- Node1&#45;&gt;Node14 -->
<g id="edge18" class="edge">
<title>Node1&#45;&gt;Node14</title>
<path fill="none" stroke="#63b8ff" d="M61.59,-220.11C68.67,-188.93 94.64,-91.71 153,-39 154.03,-38.07 155.1,-37.18 156.2,-36.31"/>
<polygon fill="#63b8ff" stroke="#63b8ff" points="157.8,-38.79 164.21,-30.35 153.94,-32.95 157.8,-38.79"/>
</g>
<!-- Node4&#45;&gt;Node3 -->
<g id="edge5" class="edge">
<title>Node4&#45;&gt;Node3</title>
<path fill="none" stroke="#63b8ff" d="M263.61,-368.98C292.23,-375.54 328.98,-383.95 354.71,-389.84"/>
<polygon fill="#63b8ff" stroke="#63b8ff" points="353.82,-393.45 364.35,-392.27 355.38,-386.63 353.82,-393.45"/>
</g>
<!-- Node5 -->
<g id="node5" class="node">
<title>Node5</title>
<g id="a_node5"><a xlink:href="class_o_c_a_1_1_c_a_f_e_v_d_b_1_1_common_1_1_util.html#a709d772c597d8bc18d170300a8cabbb7" target="_top" xlink:title=" ">
<polygon fill="white" stroke="#666666" points="453,-369 321,-369 321,-339 453,-339 453,-369"/>
<text text-anchor="start" x="329" y="-357" font-family="Helvetica,sans-Serif" font-size="10.00">OCA\CAFEVDB\Common</text>
<text text-anchor="middle" x="387" y="-346" font-family="Helvetica,sans-Serif" font-size="10.00">\Util\arraySliceKeys</text>
</a>
</g>
</g>
<!-- Node4&#45;&gt;Node5 -->
<g id="edge4" class="edge">
<title>Node4&#45;&gt;Node5</title>
<path fill="none" stroke="#63b8ff" d="M265.36,-357.63C279.11,-357.22 294.61,-356.75 309.8,-356.3"/>
<polygon fill="#63b8ff" stroke="#63b8ff" points="309.89,-359.76 319.78,-355.96 309.68,-352.77 309.89,-359.76"/>
</g>
<!-- Node6&#45;&gt;Node6 -->
<g id="edge7" class="edge">
<title>Node6&#45;&gt;Node6</title>
<path fill="none" stroke="#63b8ff" d="M357.47,-293.28C350.91,-302.41 360.75,-311 387,-311 402.18,-311 411.87,-308.13 416.08,-303.94"/>
<polygon fill="#63b8ff" stroke="#63b8ff" points="419.6,-304.42 416.53,-294.28 412.61,-304.12 419.6,-304.42"/>
</g>
<!-- Node7 -->
<g id="node7" class="node">
<title>Node7</title>
<g id="a_node7"><a xlink:href="class_o_c_a_1_1_c_a_f_e_v_d_b_1_1_common_1_1_util.html#a33027424113469f92dd6e70bcd90953f" target="_top" xlink:title="Un&#45;escape delimiters in the given value.">
<polygon fill="white" stroke="#666666" points="621,-293 489,-293 489,-263 621,-263 621,-293"/>
<text text-anchor="start" x="497" y="-281" font-family="Helvetica,sans-Serif" font-size="10.00">OCA\CAFEVDB\Common</text>
<text text-anchor="middle" x="555" y="-270" font-family="Helvetica,sans-Serif" font-size="10.00">\Util\unescapeDelimiter</text>
</a>
</g>
</g>
<!-- Node6&#45;&gt;Node7 -->
<g id="edge8" class="edge">
<title>Node6&#45;&gt;Node7</title>
<path fill="none" stroke="#63b8ff" d="M453.13,-278C461.22,-278 469.54,-278 477.77,-278"/>
<polygon fill="#63b8ff" stroke="#63b8ff" points="477.51,-281.5 487.51,-278 477.51,-274.5 477.51,-281.5"/>
</g>
<!-- Node8&#45;&gt;Node6 -->
<g id="edge10" class="edge">
<title>Node8&#45;&gt;Node6</title>
<path fill="none" stroke="#63b8ff" d="M285.13,-278C293.22,-278 301.54,-278 309.77,-278"/>
<polygon fill="#63b8ff" stroke="#63b8ff" points="309.51,-281.5 319.51,-278 309.51,-274.5 309.51,-281.5"/>
</g>
<!-- Node9&#45;&gt;Node6 -->
<g id="edge12" class="edge">
<title>Node9&#45;&gt;Node6</title>
<path fill="none" stroke="#63b8ff" d="M273.44,-245.45C288.99,-249.95 306.13,-254.9 322.25,-259.57"/>
<polygon fill="#63b8ff" stroke="#63b8ff" points="321.08,-263.16 331.66,-262.58 323.03,-256.44 321.08,-263.16"/>
</g>
<!-- Node10&#45;&gt;Node10 -->
<g id="edge14" class="edge">
<title>Node10&#45;&gt;Node10</title>
<path fill="none" stroke="#63b8ff" d="M193.87,-178.87C182.41,-187.44 190.79,-196.5 219,-196.5 235.75,-196.5 245.51,-193.3 248.27,-188.92"/>
<polygon fill="#63b8ff" stroke="#63b8ff" points="251.18,-187.78 244.13,-179.87 244.71,-190.45 251.18,-187.78"/>
</g>
</g>
</svg>
