<?xml version="1.0" encoding="UTF-8" standalone="no"?>
<!DOCTYPE svg PUBLIC "-//W3C//DTD SVG 1.1//EN"
 "http://www.w3.org/Graphics/SVG/1.1/DTD/svg11.dtd">
<!-- Generated by graphviz version 9.0.0 (20230911.1827)
 -->
<!-- Title: joinTableFieldName Pages: 1 -->
<svg width="499pt" height="375pt"
 viewBox="0.00 0.00 498.50 375.00" xmlns="http://www.w3.org/2000/svg" xmlns:xlink="http://www.w3.org/1999/xlink">
<g id="graph0" class="graph" transform="scale(1 1) rotate(0) translate(4 371)">
<title>joinTableFieldName</title>
<!-- Node1 -->
<g id="Node000001" class="node">
<title>Node1</title>
<g id="a_Node000001"><a xlink:title="The name of the field&#45;descriptor for a join&#45;table field referencing a master&#45;join&#45;table.">
<polygon fill="#999999" stroke="#666666" points="490.5,-191 389,-191 389,-171 490.5,-171 490.5,-191"/>
<text text-anchor="middle" x="439.75" y="-177.5" font-family="Helvetica,sans-Serif" font-size="10.00">joinTableFieldName</text>
</a>
</g>
</g>
<!-- Node2 -->
<g id="Node000002" class="node">
<title>Node2</title>
<g id="a_Node000002"><a xlink:href="class_o_c_a_1_1_c_a_f_e_v_d_b_1_1_page_renderer_1_1_p_m_e_table_view_base.html#a936748b21bb69d2a3f9d51e14ce2cd87" target="_top" xlink:title="Before insert&#45;trigger which ideally should insert all data such that nothing remains to be done for p...">
<polygon fill="white" stroke="#666666" points="346.25,-324 229.75,-324 229.75,-304 346.25,-304 346.25,-324"/>
<text text-anchor="middle" x="288" y="-310.5" font-family="Helvetica,sans-Serif" font-size="10.00">beforeInsertDoInsertAll</text>
</a>
</g>
</g>
<!-- Node1&#45;&gt;Node2 -->
<g id="edge1_Node000001_Node000002" class="edge">
<title>Node1&#45;&gt;Node2</title>
<g id="a_edge1_Node000001_Node000002"><a xlink:title=" ">
<path fill="none" stroke="#63b8ff" d="M427.62,-201.1C413.28,-225.3 386.2,-265.72 353,-290 345.34,-295.6 336.21,-300.05 327.29,-303.51"/>
<polygon fill="#63b8ff" stroke="#63b8ff" points="430.58,-202.96 432.53,-192.55 424.51,-199.48 430.58,-202.96"/>
</a>
</g>
</g>
<!-- Node3 -->
<g id="Node000003" class="node">
<title>Node3</title>
<g id="a_Node000003"><a xlink:href="class_o_c_a_1_1_c_a_f_e_v_d_b_1_1_page_renderer_1_1_project_instrumentation_numbers.html#ab91557ae1e08e1183c76c9ce39edfe33" target="_top" xlink:title="{Show the underlying template page.This is supposed to echo html code to stdout. This is the default ...">
<polygon fill="white" stroke="#666666" points="187,-367 0,-367 0,-335 187,-335 187,-367"/>
<text text-anchor="start" x="8" y="-353.5" font-family="Helvetica,sans-Serif" font-size="10.00">OCA\CAFEVDB\PageRenderer</text>
<text text-anchor="middle" x="93.5" y="-341.5" font-family="Helvetica,sans-Serif" font-size="10.00">\ProjectInstrumentationNumbers\render</text>
</a>
</g>
</g>
<!-- Node1&#45;&gt;Node3 -->
<g id="edge17_Node000001_Node000003" class="edge">
<title>Node1&#45;&gt;Node3</title>
<g id="a_edge17_Node000001_Node000003"><a xlink:title=" ">
<path fill="none" stroke="#63b8ff" d="M433.6,-202.54C424.13,-236.84 400.45,-303.03 353,-333 304.31,-363.75 239.69,-368.25 187.24,-365.06"/>
<polygon fill="#63b8ff" stroke="#63b8ff" points="436.96,-203.5 436.08,-192.94 430.19,-201.75 436.96,-203.5"/>
</a>
</g>
</g>
<!-- Node4 -->
<g id="Node000004" class="node">
<title>Node4</title>
<g id="a_Node000004"><a xlink:href="class_o_c_a_1_1_c_a_f_e_v_d_b_1_1_page_renderer_1_1_project_participant_fields.html#ab91557ae1e08e1183c76c9ce39edfe33" target="_top" xlink:title="{Show the underlying template page.This is supposed to echo html code to stdout. This is the default ...">
<polygon fill="white" stroke="#666666" points="170.5,-317 16.5,-317 16.5,-285 170.5,-285 170.5,-317"/>
<text text-anchor="start" x="24.5" y="-303.5" font-family="Helvetica,sans-Serif" font-size="10.00">OCA\CAFEVDB\PageRenderer</text>
<text text-anchor="middle" x="93.5" y="-291.5" font-family="Helvetica,sans-Serif" font-size="10.00">\ProjectParticipantFields\render</text>
</a>
</g>
</g>
<!-- Node1&#45;&gt;Node4 -->
<g id="edge18_Node000001_Node000004" class="edge">
<title>Node1&#45;&gt;Node4</title>
<g id="a_edge18_Node000001_Node000004"><a xlink:title=" ">
<path fill="none" stroke="#63b8ff" d="M423.25,-199.78C407.49,-217.52 381.41,-243.38 353,-257 295.73,-284.45 224.12,-295.04 170.8,-299.01"/>
<polygon fill="#63b8ff" stroke="#63b8ff" points="425.65,-202.36 429.52,-192.5 420.34,-197.8 425.65,-202.36"/>
</a>
</g>
</g>
<!-- Node5 -->
<g id="Node000005" class="node">
<title>Node5</title>
<g id="a_Node000005"><a xlink:href="class_o_c_a_1_1_c_a_f_e_v_d_b_1_1_page_renderer_1_1_p_m_e_table_view_base.html#a882a0897b82d354409342d1c195c2f4d" target="_top" xlink:title="Before update&#45;trigger which ideally should update all data such that nothing remains to do for phpMyE...">
<polygon fill="white" stroke="#666666" points="353,-248 223,-248 223,-228 353,-228 353,-248"/>
<text text-anchor="middle" x="288" y="-234.5" font-family="Helvetica,sans-Serif" font-size="10.00">beforeUpdateDoUpdateAll</text>
</a>
</g>
</g>
<!-- Node1&#45;&gt;Node5 -->
<g id="edge4_Node000001_Node000005" class="edge">
<title>Node1&#45;&gt;Node5</title>
<g id="a_edge4_Node000001_Node000005"><a xlink:title=" ">
<path fill="none" stroke="#63b8ff" d="M406.83,-196.32C390.87,-203.68 371.13,-212.32 353,-219 344.73,-222.04 335.74,-224.96 327.17,-227.54"/>
<polygon fill="#63b8ff" stroke="#63b8ff" points="408.26,-199.51 415.84,-192.11 405.3,-193.17 408.26,-199.51"/>
</a>
</g>
</g>
<!-- Node6 -->
<g id="Node000006" class="node">
<title>Node6</title>
<g id="a_Node000006"><a xlink:href="class_o_c_a_1_1_c_a_f_e_v_d_b_1_1_page_renderer_1_1_p_m_e_table_view_base.html#a763e239fc74171e9cd55b9f42e8de27b" target="_top" xlink:title="Possibly regenerate the user&#45;id slug.">
<polygon fill="white" stroke="#666666" points="335,-96 241,-96 241,-76 335,-76 335,-96"/>
<text text-anchor="middle" x="288" y="-82.5" font-family="Helvetica,sans-Serif" font-size="10.00">ensureUserIdSlug</text>
</a>
</g>
</g>
<!-- Node1&#45;&gt;Node6 -->
<g id="edge6_Node000001_Node000006" class="edge">
<title>Node1&#45;&gt;Node6</title>
<g id="a_edge6_Node000001_Node000006"><a xlink:title=" ">
<path fill="none" stroke="#63b8ff" d="M420.34,-162.62C403.84,-146.96 378.4,-124.72 353,-110 343.76,-104.65 333.11,-100.09 323.17,-96.43"/>
<polygon fill="#63b8ff" stroke="#63b8ff" points="417.82,-165.06 427.44,-169.5 422.69,-160.03 417.82,-165.06"/>
</a>
</g>
</g>
<!-- Node7 -->
<g id="Node000007" class="node">
<title>Node7</title>
<g id="a_Node000007"><a xlink:href="class_o_c_a_1_1_c_a_f_e_v_d_b_1_1_page_renderer_1_1_p_m_e_table_view_base.html#ac4930892b628989ea570c18ef64c0b4b" target="_top" xlink:title="The ranking of the mussician&#39;s instruments is implicitly stored in the order of the instrument ids.">
<polygon fill="white" stroke="#666666" points="352.25,-58 223.75,-58 223.75,-38 352.25,-38 352.25,-58"/>
<text text-anchor="middle" x="288" y="-44.5" font-family="Helvetica,sans-Serif" font-size="10.00">extractInstrumentRanking</text>
</a>
</g>
</g>
<!-- Node1&#45;&gt;Node7 -->
<g id="edge7_Node000001_Node000007" class="edge">
<title>Node1&#45;&gt;Node7</title>
<g id="a_edge7_Node000001_Node000007"><a xlink:title=" ">
<path fill="none" stroke="#63b8ff" d="M428.73,-160.68C415.08,-135.09 388.26,-91.5 353,-67 348.05,-63.56 342.47,-60.74 336.72,-58.42"/>
<polygon fill="#63b8ff" stroke="#63b8ff" points="425.53,-162.11 433.22,-169.4 431.75,-158.91 425.53,-162.11"/>
</a>
</g>
</g>
<!-- Node8 -->
<g id="Node000008" class="node">
<title>Node8</title>
<g id="a_Node000008"><a xlink:href="class_o_c_a_1_1_c_a_f_e_v_d_b_1_1_page_renderer_1_1_p_m_e_table_view_base.html#a313b024a1964fbcb383e097117af8bd3" target="_top" xlink:title="Compute the index into the phpMyEdit field&#45;description data of the given $tableInfo and $column.">
<polygon fill="white" stroke="#666666" points="317,-20 259,-20 259,0 317,0 317,-20"/>
<text text-anchor="middle" x="288" y="-6.5" font-family="Helvetica,sans-Serif" font-size="10.00">fieldIndex</text>
</a>
</g>
</g>
<!-- Node1&#45;&gt;Node8 -->
<g id="edge8_Node000001_Node000008" class="edge">
<title>Node1&#45;&gt;Node8</title>
<g id="a_edge8_Node000001_Node000008"><a xlink:title=" ">
<path fill="none" stroke="#63b8ff" d="M432.63,-160.13C421.92,-127.31 396.68,-63.81 353,-29 342.85,-20.91 329.33,-16.26 317.33,-13.59"/>
<polygon fill="#63b8ff" stroke="#63b8ff" points="429.16,-160.77 435.47,-169.28 435.84,-158.69 429.16,-160.77"/>
</a>
</g>
</g>
<!-- Node9 -->
<g id="Node000009" class="node">
<title>Node9</title>
<g id="a_Node000009"><a xlink:href="class_o_c_a_1_1_c_a_f_e_v_d_b_1_1_page_renderer_1_1_p_m_e_table_view_base.html#a4bc3294be95e06a40ae3bdc7d5419749" target="_top" xlink:title="Generate a join&#45;table field, given join&#45;table and field name.">
<polygon fill="white" stroke="#666666" points="339.12,-210 236.88,-210 236.88,-190 339.12,-190 339.12,-210"/>
<text text-anchor="middle" x="288" y="-196.5" font-family="Helvetica,sans-Serif" font-size="10.00">makeJoinTableField</text>
</a>
</g>
</g>
<!-- Node1&#45;&gt;Node9 -->
<g id="edge9_Node000001_Node000009" class="edge">
<title>Node1&#45;&gt;Node9</title>
<g id="a_edge9_Node000001_Node000009"><a xlink:title=" ">
<path fill="none" stroke="#63b8ff" d="M377.85,-188.73C365.08,-190.35 351.75,-192.04 339.41,-193.6"/>
<polygon fill="#63b8ff" stroke="#63b8ff" points="377.9,-192.25 387.38,-187.52 377.02,-185.3 377.9,-192.25"/>
</a>
</g>
</g>
<!-- Node13 -->
<g id="Node000013" class="node">
<title>Node13</title>
<g id="a_Node000013"><a xlink:href="class_o_c_a_1_1_c_a_f_e_v_d_b_1_1_page_renderer_1_1_project_participants.html#ab91557ae1e08e1183c76c9ce39edfe33" target="_top" xlink:title="{Show the underlying template page.This is supposed to echo html code to stdout. This is the default ...">
<polygon fill="white" stroke="#666666" points="170.5,-117 16.5,-117 16.5,-85 170.5,-85 170.5,-117"/>
<text text-anchor="start" x="24.5" y="-103.5" font-family="Helvetica,sans-Serif" font-size="10.00">OCA\CAFEVDB\PageRenderer</text>
<text text-anchor="middle" x="93.5" y="-91.5" font-family="Helvetica,sans-Serif" font-size="10.00">\ProjectParticipants\render</text>
</a>
</g>
</g>
<!-- Node1&#45;&gt;Node13 -->
<g id="edge19_Node000001_Node000013" class="edge">
<title>Node1&#45;&gt;Node13</title>
<g id="a_edge19_Node000001_Node000013"><a xlink:title=" ">
<path fill="none" stroke="#63b8ff" d="M377.4,-170.88C333.96,-163.2 274.51,-151.66 223,-138 206.7,-133.68 203.15,-130.87 187,-126 177.44,-123.12 167.29,-120.21 157.33,-117.46"/>
<polygon fill="#63b8ff" stroke="#63b8ff" points="376.7,-174.31 387.15,-172.58 377.9,-167.42 376.7,-174.31"/>
</a>
</g>
</g>
<!-- Node14 -->
<g id="Node000014" class="node">
<title>Node14</title>
<g id="a_Node000014"><a xlink:href="class_o_c_a_1_1_c_a_f_e_v_d_b_1_1_page_renderer_1_1_sepa_bulk_transactions.html#ab91557ae1e08e1183c76c9ce39edfe33" target="_top" xlink:title="{Show the underlying template page.This is supposed to echo html code to stdout. This is the default ...">
<polygon fill="white" stroke="#666666" points="170.5,-67 16.5,-67 16.5,-35 170.5,-35 170.5,-67"/>
<text text-anchor="start" x="24.5" y="-53.5" font-family="Helvetica,sans-Serif" font-size="10.00">OCA\CAFEVDB\PageRenderer</text>
<text text-anchor="middle" x="93.5" y="-41.5" font-family="Helvetica,sans-Serif" font-size="10.00">\SepaBulkTransactions\render</text>
</a>
</g>
</g>
<!-- Node1&#45;&gt;Node14 -->
<g id="edge20_Node000001_Node000014" class="edge">
<title>Node1&#45;&gt;Node14</title>
<g id="a_edge20_Node000001_Node000014"><a xlink:title=" ">
<path fill="none" stroke="#63b8ff" d="M410.84,-165.08C394.4,-156.19 372.97,-145.44 353,-138 297.14,-117.18 276.32,-131.64 223,-105 204.62,-95.82 205.31,-85.32 187,-76 180.63,-72.75 173.78,-69.89 166.81,-67.38"/>
<polygon fill="#63b8ff" stroke="#63b8ff" points="409.09,-168.11 419.54,-169.86 412.47,-161.97 409.09,-168.11"/>
</a>
</g>
</g>
<!-- Node2&#45;&gt;Node3 -->
<g id="edge2_Node000002_Node000003" class="edge">
<title>Node2&#45;&gt;Node3</title>
<g id="a_edge2_Node000002_Node000003"><a xlink:title=" ">
<path fill="none" stroke="#63b8ff" d="M221.62,-326.57C208.26,-329.13 194.02,-331.87 180.07,-334.55"/>
<polygon fill="#63b8ff" stroke="#63b8ff" points="221.96,-330.06 231.12,-324.74 220.64,-323.19 221.96,-330.06"/>
</a>
</g>
</g>
<!-- Node2&#45;&gt;Node4 -->
<g id="edge3_Node000002_Node000004" class="edge">
<title>Node2&#45;&gt;Node4</title>
<g id="a_edge3_Node000002_Node000004"><a xlink:title=" ">
<path fill="none" stroke="#63b8ff" d="M218.05,-309.34C202.77,-308.31 186.49,-307.21 170.94,-306.16"/>
<polygon fill="#63b8ff" stroke="#63b8ff" points="217.78,-312.83 227.99,-310.02 218.25,-305.85 217.78,-312.83"/>
</a>
</g>
</g>
<!-- Node5&#45;&gt;Node4 -->
<g id="edge5_Node000005_Node000004" class="edge">
<title>Node5&#45;&gt;Node4</title>
<g id="a_edge5_Node000005_Node000004"><a xlink:title=" ">
<path fill="none" stroke="#63b8ff" d="M248.29,-252.43C239.94,-255.57 231.17,-258.88 223,-262 206.96,-268.13 203.31,-270.64 187,-276 177.99,-278.96 168.41,-281.84 158.95,-284.53"/>
<polygon fill="#63b8ff" stroke="#63b8ff" points="249.38,-255.76 257.52,-248.97 246.92,-249.2 249.38,-255.76"/>
</a>
</g>
</g>
<!-- Node9&#45;&gt;Node3 -->
<g id="edge13_Node000009_Node000003" class="edge">
<title>Node9&#45;&gt;Node3</title>
<g id="a_edge13_Node000009_Node000003"><a xlink:title=" ">
<path fill="none" stroke="#63b8ff" d="M226.87,-215.67C225.52,-216.71 224.23,-217.82 223,-219 186.89,-253.84 223.54,-291.61 187,-326 183.49,-329.31 179.58,-332.18 175.42,-334.69"/>
<polygon fill="#63b8ff" stroke="#63b8ff" points="228.54,-218.76 235.23,-210.54 224.87,-212.79 228.54,-218.76"/>
</a>
</g>
</g>
<!-- Node9&#45;&gt;Node4 -->
<g id="edge14_Node000009_Node000004" class="edge">
<title>Node9&#45;&gt;Node4</title>
<g id="a_edge14_Node000009_Node000004"><a xlink:title=" ">
<path fill="none" stroke="#63b8ff" d="M227.87,-215.68C226.19,-216.72 224.56,-217.82 223,-219 199.11,-237.09 211.11,-258.21 187,-276 182.05,-279.65 176.59,-282.78 170.89,-285.44"/>
<polygon fill="#63b8ff" stroke="#63b8ff" points="229.38,-218.84 236.67,-211.15 226.18,-212.61 229.38,-218.84"/>
</a>
</g>
</g>
<!-- Node10 -->
<g id="Node000010" class="node">
<title>Node10</title>
<g id="a_Node000010"><a xlink:href="class_o_c_a_1_1_c_a_f_e_v_d_b_1_1_page_renderer_1_1_instrument_families.html#ab91557ae1e08e1183c76c9ce39edfe33" target="_top" xlink:title="{Show the underlying template page.This is supposed to echo html code to stdout. This is the default ...">
<polygon fill="white" stroke="#666666" points="170.5,-267 16.5,-267 16.5,-235 170.5,-235 170.5,-267"/>
<text text-anchor="start" x="24.5" y="-253.5" font-family="Helvetica,sans-Serif" font-size="10.00">OCA\CAFEVDB\PageRenderer</text>
<text text-anchor="middle" x="93.5" y="-241.5" font-family="Helvetica,sans-Serif" font-size="10.00">\InstrumentFamilies\render</text>
</a>
</g>
</g>
<!-- Node9&#45;&gt;Node10 -->
<g id="edge10_Node000009_Node000010" class="edge">
<title>Node9&#45;&gt;Node10</title>
<g id="a_edge10_Node000009_Node000010"><a xlink:title=" ">
<path fill="none" stroke="#63b8ff" d="M236.72,-213.32C212.21,-219.81 182.51,-227.68 156.61,-234.55"/>
<polygon fill="#63b8ff" stroke="#63b8ff" points="237.35,-216.78 246.12,-210.83 235.55,-210.01 237.35,-216.78"/>
</a>
</g>
</g>
<!-- Node11 -->
<g id="Node000011" class="node">
<title>Node11</title>
<g id="a_Node000011"><a xlink:href="class_o_c_a_1_1_c_a_f_e_v_d_b_1_1_page_renderer_1_1_instrument_insurances.html#ab91557ae1e08e1183c76c9ce39edfe33" target="_top" xlink:title="{Show the underlying template page.This is supposed to echo html code to stdout. This is the default ...">
<polygon fill="white" stroke="#666666" points="170.5,-217 16.5,-217 16.5,-185 170.5,-185 170.5,-217"/>
<text text-anchor="start" x="24.5" y="-203.5" font-family="Helvetica,sans-Serif" font-size="10.00">OCA\CAFEVDB\PageRenderer</text>
<text text-anchor="middle" x="93.5" y="-191.5" font-family="Helvetica,sans-Serif" font-size="10.00">\InstrumentInsurances\render</text>
</a>
</g>
</g>
<!-- Node9&#45;&gt;Node11 -->
<g id="edge11_Node000009_Node000011" class="edge">
<title>Node9&#45;&gt;Node11</title>
<g id="a_edge11_Node000009_Node000011"><a xlink:title=" ">
<path fill="none" stroke="#63b8ff" d="M225.31,-200.32C207.98,-200.41 188.92,-200.51 170.84,-200.6"/>
<polygon fill="#63b8ff" stroke="#63b8ff" points="224.93,-203.82 234.91,-200.27 224.89,-196.82 224.93,-203.82"/>
</a>
</g>
</g>
<!-- Node12 -->
<g id="Node000012" class="node">
<title>Node12</title>
<g id="a_Node000012"><a xlink:href="class_o_c_a_1_1_c_a_f_e_v_d_b_1_1_page_renderer_1_1_instruments.html#ab91557ae1e08e1183c76c9ce39edfe33" target="_top" xlink:title="{Show the underlying template page.This is supposed to echo html code to stdout. This is the default ...">
<polygon fill="white" stroke="#666666" points="170.5,-167 16.5,-167 16.5,-135 170.5,-135 170.5,-167"/>
<text text-anchor="start" x="24.5" y="-153.5" font-family="Helvetica,sans-Serif" font-size="10.00">OCA\CAFEVDB\PageRenderer</text>
<text text-anchor="middle" x="93.5" y="-141.5" font-family="Helvetica,sans-Serif" font-size="10.00">\Instruments\render</text>
</a>
</g>
</g>
<!-- Node9&#45;&gt;Node12 -->
<g id="edge12_Node000009_Node000012" class="edge">
<title>Node9&#45;&gt;Node12</title>
<g id="a_edge12_Node000009_Node000012"><a xlink:title=" ">
<path fill="none" stroke="#63b8ff" d="M235.09,-186.79C211.7,-180.83 183.85,-173.74 159.13,-167.45"/>
<polygon fill="#63b8ff" stroke="#63b8ff" points="234.15,-190.16 244.71,-189.23 235.88,-183.38 234.15,-190.16"/>
</a>
</g>
</g>
<!-- Node9&#45;&gt;Node13 -->
<g id="edge15_Node000009_Node000013" class="edge">
<title>Node9&#45;&gt;Node13</title>
<g id="a_edge15_Node000009_Node000013"><a xlink:title=" ">
<path fill="none" stroke="#63b8ff" d="M237.91,-185.09C232.63,-182.48 227.54,-179.47 223,-176 201.25,-159.37 209.52,-141.58 187,-126 181.94,-122.5 176.41,-119.49 170.65,-116.89"/>
<polygon fill="#63b8ff" stroke="#63b8ff" points="236.25,-188.18 246.82,-189 239.07,-181.77 236.25,-188.18"/>
</a>
</g>
</g>
<!-- Node9&#45;&gt;Node14 -->
<g id="edge16_Node000009_Node000014" class="edge">
<title>Node9&#45;&gt;Node14</title>
<g id="a_edge16_Node000009_Node000014"><a xlink:title=" ">
<path fill="none" stroke="#63b8ff" d="M266.21,-182.53C252.93,-170.76 235.85,-154.44 223,-138 203.37,-112.9 212.28,-95.39 187,-76 181.98,-72.15 176.42,-68.9 170.58,-66.14"/>
<polygon fill="#63b8ff" stroke="#63b8ff" points="263.71,-185 273.55,-188.91 268.29,-179.71 263.71,-185"/>
</a>
</g>
</g>
</g>
</svg>
