<?xml version="1.0" encoding="UTF-8" standalone="no"?>
<!DOCTYPE svg PUBLIC "-//W3C//DTD SVG 1.1//EN"
 "http://www.w3.org/Graphics/SVG/1.1/DTD/svg11.dtd">
<!-- Generated by graphviz version 8.0.3 (20230416.2022)
 -->
<!-- Title: bound Pages: 1 -->
<svg width="458pt" height="138pt"
 viewBox="0.00 0.00 458.00 138.00" xmlns="http://www.w3.org/2000/svg" xmlns:xlink="http://www.w3.org/1999/xlink">
<g id="graph0" class="graph" transform="scale(1 1) rotate(0) translate(4 134)">
<title>bound</title>
<!-- Node1 -->
<g id="node1" class="node">
<title>Node1</title>
<g id="a_node1"><a xlink:title="Test if we a bound to a user.">
<polygon fill="#999999" stroke="#666666" points="450,-74 407,-74 407,-55 450,-55 450,-74"/>
<text text-anchor="middle" x="428.5" y="-62" font-family="Helvetica,sans-Serif" font-size="10.00">bound</text>
</a>
</g>
</g>
<!-- Node2 -->
<g id="node2" class="node">
<title>Node2</title>
<g id="a_node2"><a xlink:href="class_o_c_a_1_1_c_a_f_e_v_d_b_1_1_service_1_1_encryption_service.html#abe6eb1d9123c44415874b24b087452e5" target="_top" xlink:title="Check the validity of the encryption key.">
<polygon fill="white" stroke="#666666" points="363,-130 263,-130 263,-111 363,-111 363,-130"/>
<text text-anchor="middle" x="313" y="-118" font-family="Helvetica,sans-Serif" font-size="10.00">encryptionKeyValid</text>
</a>
</g>
</g>
<!-- Node1&#45;&gt;Node2 -->
<g id="edge1" class="edge">
<title>Node1&#45;&gt;Node2</title>
<path fill="none" stroke="#63b8ff" d="M406.47,-80.75C396.19,-88.13 383.39,-96.53 371,-102.5 364.64,-105.56 357.64,-108.27 350.79,-110.59"/>
<polygon fill="#63b8ff" stroke="#63b8ff" points="408.16,-83.12 414.12,-74.36 404,-77.49 408.16,-83.12"/>
</g>
<!-- Node3 -->
<g id="node3" class="node">
<title>Node3</title>
<g id="a_node3"><a xlink:href="class_o_c_a_1_1_c_a_f_e_v_d_b_1_1_service_1_1_encryption_service.html#a05f6aa1ffae6295260d9f1cca016bf33" target="_top" xlink:title=" ">
<polygon fill="white" stroke="#666666" points="342.5,-93 283.5,-93 283.5,-74 342.5,-74 342.5,-93"/>
<text text-anchor="middle" x="313" y="-81" font-family="Helvetica,sans-Serif" font-size="10.00">getUserId</text>
</a>
</g>
</g>
<!-- Node1&#45;&gt;Node3 -->
<g id="edge2" class="edge">
<title>Node1&#45;&gt;Node3</title>
<path fill="none" stroke="#63b8ff" d="M395.84,-69.8C379.21,-72.58 358.99,-75.97 342.81,-78.68"/>
<polygon fill="#63b8ff" stroke="#63b8ff" points="396.4,-73.09 405.68,-67.98 395.24,-66.18 396.4,-73.09"/>
</g>
<!-- Node4 -->
<g id="node4" class="node">
<title>Node4</title>
<g id="a_node4"><a xlink:href="class_o_c_a_1_1_c_a_f_e_v_d_b_1_1_service_1_1_encryption_service.html#ae0e6a2643a679ae23f2975018436da50" target="_top" xlink:title="Initialize the global symmetric app encryption key used to encrypt shared data.">
<polygon fill="white" stroke="#666666" points="368,-56 258,-56 258,-37 368,-37 368,-56"/>
<text text-anchor="middle" x="313" y="-44" font-family="Helvetica,sans-Serif" font-size="10.00">initAppEncryptionKey</text>
</a>
</g>
</g>
<!-- Node1&#45;&gt;Node4 -->
<g id="edge3" class="edge">
<title>Node1&#45;&gt;Node4</title>
<path fill="none" stroke="#63b8ff" d="M395.99,-59.5C387.37,-58.14 377.76,-56.61 368.25,-55.1"/>
<polygon fill="#63b8ff" stroke="#63b8ff" points="395.26,-63.09 405.68,-61.2 396.35,-56.18 395.26,-63.09"/>
</g>
<!-- Node7 -->
<g id="node7" class="node">
<title>Node7</title>
<g id="a_node7"><a xlink:href="class_o_c_a_1_1_c_a_f_e_v_d_b_1_1_service_1_1_encryption_service.html#a7b0aa8b8719a53937db5141fbfe039b3" target="_top" xlink:title="Encrypt the given value with the user&#39;s public key.">
<polygon fill="white" stroke="#666666" points="371,-19 255,-19 255,0 371,0 371,-19"/>
<text text-anchor="middle" x="313" y="-7" font-family="Helvetica,sans-Serif" font-size="10.00">setSharedPrivateValue</text>
</a>
</g>
</g>
<!-- Node1&#45;&gt;Node7 -->
<g id="edge6" class="edge">
<title>Node1&#45;&gt;Node7</title>
<path fill="none" stroke="#63b8ff" d="M405.69,-48.2C395.53,-41.15 383.04,-33.21 371,-27.5 364.62,-24.48 357.61,-21.79 350.76,-19.47"/>
<polygon fill="#63b8ff" stroke="#63b8ff" points="403.47,-51.63 413.64,-54.6 407.54,-45.93 403.47,-51.63"/>
</g>
<!-- Node5 -->
<g id="node5" class="node">
<title>Node5</title>
<g id="a_node5"><a xlink:href="class_o_c_a_1_1_c_a_f_e_v_d_b_1_1_service_1_1_encryption_service.html#a4efe39e6059783c9439d484de8bf2590" target="_top" xlink:title="Bind $this to the given userId and password, for instance during listeners for password&#45;change etc.">
<polygon fill="white" stroke="#666666" points="179,-56 144,-56 144,-37 179,-37 179,-56"/>
<text text-anchor="middle" x="161.5" y="-44" font-family="Helvetica,sans-Serif" font-size="10.00">bind</text>
</a>
</g>
</g>
<!-- Node4&#45;&gt;Node5 -->
<g id="edge4" class="edge">
<title>Node4&#45;&gt;Node5</title>
<path fill="none" stroke="#63b8ff" d="M246.72,-46.5C221.91,-46.5 195.69,-46.5 179.22,-46.5"/>
<polygon fill="#63b8ff" stroke="#63b8ff" points="246.6,-50 256.6,-46.5 246.6,-43 246.6,-50"/>
</g>
<!-- Node6 -->
<g id="node6" class="node">
<title>Node6</title>
<g id="a_node6"><a xlink:href="class_o_c_a_1_1_c_a_f_e_v_d_b_1_1_service_1_1_encryption_service.html#aa164135a7474a6c9d34b7bee20056a4d" target="_top" xlink:title="{}">
<polygon fill="white" stroke="#666666" points="68,-56 0,-56 0,-37 68,-37 68,-56"/>
<text text-anchor="middle" x="34" y="-44" font-family="Helvetica,sans-Serif" font-size="10.00">__construct</text>
</a>
</g>
</g>
<!-- Node5&#45;&gt;Node6 -->
<g id="edge5" class="edge">
<title>Node5&#45;&gt;Node6</title>
<path fill="none" stroke="#63b8ff" d="M132.66,-46.5C113.67,-46.5 88.42,-46.5 68.35,-46.5"/>
<polygon fill="#63b8ff" stroke="#63b8ff" points="132.57,-50 142.57,-46.5 132.57,-43 132.57,-50"/>
</g>
<!-- Node8 -->
<g id="node8" class="node">
<title>Node8</title>
<g id="a_node8"><a xlink:href="class_o_c_a_1_1_c_a_f_e_v_d_b_1_1_service_1_1_encryption_service.html#a9c5f710d18ae121852e4bdeffe4a6c3d" target="_top" xlink:title="Set the encryption key for the current or the given user.">
<polygon fill="white" stroke="#666666" points="219,-19 104,-19 104,0 219,0 219,-19"/>
<text text-anchor="middle" x="161.5" y="-7" font-family="Helvetica,sans-Serif" font-size="10.00">setUserEncryptionKey</text>
</a>
</g>
</g>
<!-- Node7&#45;&gt;Node8 -->
<g id="edge7" class="edge">
<title>Node7&#45;&gt;Node8</title>
<path fill="none" stroke="#63b8ff" d="M243.68,-9.5C235.59,-9.5 227.39,-9.5 219.47,-9.5"/>
<polygon fill="#63b8ff" stroke="#63b8ff" points="243.63,-13 253.63,-9.5 243.63,-6 243.63,-13"/>
</g>
</g>
</svg>
