<?xml version="1.0" encoding="UTF-8" standalone="no"?>
<!DOCTYPE svg PUBLIC "-//W3C//DTD SVG 1.1//EN"
 "http://www.w3.org/Graphics/SVG/1.1/DTD/svg11.dtd">
<!-- Generated by graphviz version 8.0.3 (20230416.2022)
 -->
<!-- Title: generateEvent Pages: 1 -->
<svg width="225pt" height="64pt"
 viewBox="0.00 0.00 225.00 64.00" xmlns="http://www.w3.org/2000/svg" xmlns:xlink="http://www.w3.org/1999/xlink">
<g id="graph0" class="graph" transform="scale(1 1) rotate(0) translate(4 60)">
<title>generateEvent</title>
<!-- Node1 -->
<g id="node1" class="node">
<title>Node1</title>
<g id="a_node1"><a xlink:title="Exports an event and convert all times to UTC.">
<polygon fill="#999999" stroke="#666666" points="80,-37 0,-37 0,-18 80,-18 80,-37"/>
<text text-anchor="middle" x="40" y="-25" font-family="Helvetica,sans-Serif" font-size="10.00">generateEvent</text>
</a>
</g>
</g>
<!-- Node2 -->
<g id="node2" class="node">
<title>Node2</title>
<g id="a_node2"><a xlink:href="class_o_c_a_1_1_c_a_f_e_v_d_b_1_1_controller_1_1_legacy_events_controller.html#a66debc077e1a747c0da16f296c9487c7" target="_top" xlink:title="Fixes new line breaks (fixes problems with Apple iCal).">
<polygon fill="white" stroke="#666666" points="204.5,-56 128.5,-56 128.5,-37 204.5,-37 204.5,-56"/>
<text text-anchor="middle" x="166.5" y="-44" font-family="Helvetica,sans-Serif" font-size="10.00">fixLineBreaks</text>
</a>
</g>
</g>
<!-- Node1&#45;&gt;Node2 -->
<g id="edge1" class="edge">
<title>Node1&#45;&gt;Node2</title>
<path fill="none" stroke="#63b8ff" d="M80.39,-33.51C92.18,-35.31 105.25,-37.3 117.52,-39.18"/>
<polygon fill="#63b8ff" stroke="#63b8ff" points="116.65,-42.74 127.06,-40.79 117.7,-35.82 116.65,-42.74"/>
</g>
<!-- Node3 -->
<g id="node3" class="node">
<title>Node3</title>
<g id="a_node3"><a xlink:href="class_o_c_a_1_1_c_a_f_e_v_d_b_1_1_controller_1_1_legacy_events_controller.html#ab7d3c1c71289090ef10741bd4be4331a" target="_top" xlink:title="Serializes the VEVENT/VTODO/VJOURNAL with UTC dates.">
<polygon fill="white" stroke="#666666" points="217,-19 116,-19 116,0 217,0 217,-19"/>
<text text-anchor="middle" x="166.5" y="-7" font-family="Helvetica,sans-Serif" font-size="10.00">generateEventData</text>
</a>
</g>
</g>
<!-- Node1&#45;&gt;Node3 -->
<g id="edge2" class="edge">
<title>Node1&#45;&gt;Node3</title>
<path fill="none" stroke="#63b8ff" d="M80.39,-21.8C88.31,-20.66 96.79,-19.43 105.23,-18.21"/>
<polygon fill="#63b8ff" stroke="#63b8ff" points="105.45,-21.57 114.85,-16.68 104.45,-14.65 105.45,-21.57"/>
</g>
</g>
</svg>
