<?xml version="1.0" encoding="UTF-8" standalone="no"?>
<!DOCTYPE svg PUBLIC "-//W3C//DTD SVG 1.1//EN"
 "http://www.w3.org/Graphics/SVG/1.1/DTD/svg11.dtd">
<!-- Generated by graphviz version 9.0.0 (20230911.1827)
 -->
<!-- Title: recipientsExceptProject Pages: 1 -->
<svg width="871pt" height="187pt"
 viewBox="0.00 0.00 870.75 186.60" xmlns="http://www.w3.org/2000/svg" xmlns:xlink="http://www.w3.org/1999/xlink">
<g id="graph0" class="graph" transform="scale(1 1) rotate(0) translate(4 182.6)">
<title>recipientsExceptProject</title>
<!-- Node1 -->
<g id="Node000001" class="node">
<title>Node1</title>
<g id="a_Node000001"><a xlink:title=" ">
<polygon fill="#999999" stroke="#666666" points="862.75,-64.33 743.25,-64.33 743.25,-44.33 862.75,-44.33 862.75,-64.33"/>
<text text-anchor="middle" x="803" y="-50.83" font-family="Helvetica,sans-Serif" font-size="10.00">recipientsExceptProject</text>
</a>
</g>
</g>
<!-- Node2 -->
<g id="Node000002" class="node">
<title>Node2</title>
<g id="a_Node000002"><a xlink:href="class_o_c_a_1_1_c_a_f_e_v_d_b_1_1_email_form_1_1_recipients_filter.html#a0835860e0bc6047f3eff6a9941dbbcf4" target="_top" xlink:title=" ">
<polygon fill="white" stroke="#666666" points="707.25,-102.33 621.5,-102.33 621.5,-82.33 707.25,-82.33 707.25,-102.33"/>
<text text-anchor="middle" x="664.38" y="-88.83" font-family="Helvetica,sans-Serif" font-size="10.00">defaultByStatus</text>
</a>
</g>
</g>
<!-- Node1&#45;&gt;Node2 -->
<g id="edge1_Node000001_Node000002" class="edge">
<title>Node1&#45;&gt;Node2</title>
<g id="a_edge1_Node000001_Node000002"><a xlink:title=" ">
<path fill="none" stroke="#63b8ff" d="M753.66,-67.78C737,-72.41 718.61,-77.53 702.95,-81.88"/>
<polygon fill="#63b8ff" stroke="#63b8ff" points="754.15,-71.27 762.85,-65.22 752.27,-64.53 754.15,-71.27"/>
</a>
</g>
</g>
<!-- Node3 -->
<g id="Node000003" class="node">
<title>Node3</title>
<g id="a_Node000003"><a xlink:href="class_o_c_a_1_1_c_a_f_e_v_d_b_1_1_email_form_1_1_recipients_filter.html#a1909f4b7f8129c7790cb75de2ffbe1e4" target="_top" xlink:title="Parse the CGI stuff and compute the list of selected musicians, either for the initial form setup as ...">
<polygon fill="white" stroke="#666666" points="223.5,-102.33 173,-102.33 173,-82.33 223.5,-82.33 223.5,-102.33"/>
<text text-anchor="middle" x="198.25" y="-88.83" font-family="Helvetica,sans-Serif" font-size="10.00">execute</text>
</a>
</g>
</g>
<!-- Node1&#45;&gt;Node3 -->
<g id="edge12_Node000001_Node000003" class="edge">
<title>Node1&#45;&gt;Node3</title>
<g id="a_edge12_Node000001_Node000003"><a xlink:title=" ">
<path fill="none" stroke="#63b8ff" d="M756.31,-40.83C660.25,-14.93 431.99,33.33 259.5,-35.33 235.95,-44.71 216.31,-68.13 206.33,-81.86"/>
<polygon fill="#63b8ff" stroke="#63b8ff" points="755.33,-44.19 765.9,-43.46 757.18,-37.44 755.33,-44.19"/>
</a>
</g>
</g>
<!-- Node2&#45;&gt;Node3 -->
<g id="edge2_Node000002_Node000003" class="edge">
<title>Node2&#45;&gt;Node3</title>
<g id="a_edge2_Node000002_Node000003"><a xlink:title=" ">
<path fill="none" stroke="#63b8ff" d="M638.66,-108.7C623.88,-117.62 604.35,-127.91 585.5,-133.33 446.09,-173.42 394.28,-202.98 259.5,-149.33 235.95,-139.96 216.31,-116.53 206.33,-102.81"/>
<polygon fill="#63b8ff" stroke="#63b8ff" points="640.16,-111.89 646.79,-103.63 636.46,-105.95 640.16,-111.89"/>
</a>
</g>
</g>
<!-- Node6 -->
<g id="Node000006" class="node">
<title>Node6</title>
<g id="a_Node000006"><a xlink:href="class_o_c_a_1_1_c_a_f_e_v_d_b_1_1_email_form_1_1_recipients_filter.html#a9ae6e956522f1d298f15c4b2a07f0bd7" target="_top" xlink:title="Get the current filter.">
<polygon fill="white" stroke="#666666" points="373.75,-140.33 259.5,-140.33 259.5,-120.33 373.75,-120.33 373.75,-140.33"/>
<text text-anchor="middle" x="316.62" y="-126.83" font-family="Helvetica,sans-Serif" font-size="10.00">initMemberStatusFilter</text>
</a>
</g>
</g>
<!-- Node2&#45;&gt;Node6 -->
<g id="edge5_Node000002_Node000006" class="edge">
<title>Node2&#45;&gt;Node6</title>
<g id="a_edge5_Node000002_Node000006"><a xlink:title=" ">
<path fill="none" stroke="#63b8ff" d="M614.91,-105.49C605.23,-107.74 595.09,-109.83 585.5,-111.33 513.07,-122.66 428.54,-127.24 374.12,-129.09"/>
<polygon fill="#63b8ff" stroke="#63b8ff" points="615.64,-108.92 624.53,-103.16 613.99,-102.11 615.64,-108.92"/>
</a>
</g>
</g>
<!-- Node7 -->
<g id="Node000007" class="node">
<title>Node7</title>
<g id="a_Node000007"><a xlink:href="class_o_c_a_1_1_c_a_f_e_v_d_b_1_1_email_form_1_1_recipients_filter.html#a30a395e6e48481531a93ec374c412775" target="_top" xlink:title="Compose a default history record for the initial state.">
<polygon fill="white" stroke="#666666" points="543.88,-102.33 451.38,-102.33 451.38,-82.33 543.88,-82.33 543.88,-102.33"/>
<text text-anchor="middle" x="497.62" y="-88.83" font-family="Helvetica,sans-Serif" font-size="10.00">setDefaultHistory</text>
</a>
</g>
</g>
<!-- Node2&#45;&gt;Node7 -->
<g id="edge7_Node000002_Node000007" class="edge">
<title>Node2&#45;&gt;Node7</title>
<g id="a_edge7_Node000002_Node000007"><a xlink:title=" ">
<path fill="none" stroke="#63b8ff" d="M609.95,-92.33C588.77,-92.33 564.66,-92.33 544.31,-92.33"/>
<polygon fill="#63b8ff" stroke="#63b8ff" points="609.86,-95.83 619.86,-92.33 609.86,-88.83 609.86,-95.83"/>
</a>
</g>
</g>
<!-- Node9 -->
<g id="Node000009" class="node">
<title>Node9</title>
<g id="a_Node000009"><a xlink:href="class_o_c_a_1_1_c_a_f_e_v_d_b_1_1_email_form_1_1_recipients_filter.html#a29389bb5db716e59f8a94e5083f8b58e" target="_top" xlink:title="Substitute the recipients by the announcements mailing list if possible.">
<polygon fill="white" stroke="#666666" points="585.5,-64.33 409.75,-64.33 409.75,-44.33 585.5,-44.33 585.5,-64.33"/>
<text text-anchor="middle" x="497.62" y="-50.83" font-family="Helvetica,sans-Serif" font-size="10.00">substituteAnnouncementsMailingList</text>
</a>
</g>
</g>
<!-- Node2&#45;&gt;Node9 -->
<g id="edge11_Node000002_Node000009" class="edge">
<title>Node2&#45;&gt;Node9</title>
<g id="a_edge11_Node000002_Node000009"><a xlink:title=" ">
<path fill="none" stroke="#63b8ff" d="M610.27,-79.2C601.98,-77.2 593.52,-75.19 585.5,-73.33 573.17,-70.48 559.82,-67.51 547.38,-64.78"/>
<polygon fill="#63b8ff" stroke="#63b8ff" points="609.37,-82.58 619.92,-81.54 611.02,-75.78 609.37,-82.58"/>
</a>
</g>
</g>
<!-- Node4 -->
<g id="Node000004" class="node">
<title>Node4</title>
<g id="a_Node000004"><a xlink:href="class_o_c_a_1_1_c_a_f_e_v_d_b_1_1_email_form_1_1_recipients_filter.html#a977b1615a5175561d17eebf08eca7a08" target="_top" xlink:title=" ">
<polygon fill="white" stroke="#666666" points="137,-102.33 103,-102.33 103,-82.33 137,-82.33 137,-102.33"/>
<text text-anchor="middle" x="120" y="-88.83" font-family="Helvetica,sans-Serif" font-size="10.00">bind</text>
</a>
</g>
</g>
<!-- Node3&#45;&gt;Node4 -->
<g id="edge3_Node000003_Node000004" class="edge">
<title>Node3&#45;&gt;Node4</title>
<g id="a_edge3_Node000003_Node000004"><a xlink:title=" ">
<path fill="none" stroke="#63b8ff" d="M161.35,-92.33C152.85,-92.33 144.19,-92.33 137.09,-92.33"/>
<polygon fill="#63b8ff" stroke="#63b8ff" points="161.19,-95.83 171.19,-92.33 161.19,-88.83 161.19,-95.83"/>
</a>
</g>
</g>
<!-- Node5 -->
<g id="Node000005" class="node">
<title>Node5</title>
<g id="a_Node000005"><a xlink:href="class_o_c_a_1_1_c_a_f_e_v_d_b_1_1_email_form_1_1_recipients_filter.html#a5e6588671446c37e33137cae8265c389" target="_top" xlink:title="{}">
<polygon fill="white" stroke="#666666" points="67,-102.33 0,-102.33 0,-82.33 67,-82.33 67,-102.33"/>
<text text-anchor="middle" x="33.5" y="-88.83" font-family="Helvetica,sans-Serif" font-size="10.00">__construct</text>
</a>
</g>
</g>
<!-- Node4&#45;&gt;Node5 -->
<g id="edge4_Node000004_Node000005" class="edge">
<title>Node4&#45;&gt;Node5</title>
<g id="a_edge4_Node000004_Node000005"><a xlink:title=" ">
<path fill="none" stroke="#63b8ff" d="M91.36,-92.33C83.64,-92.33 75.17,-92.33 67.19,-92.33"/>
<polygon fill="#63b8ff" stroke="#63b8ff" points="91.19,-95.83 101.19,-92.33 91.19,-88.83 91.19,-95.83"/>
</a>
</g>
</g>
<!-- Node6&#45;&gt;Node3 -->
<g id="edge6_Node000006_Node000003" class="edge">
<title>Node6&#45;&gt;Node3</title>
<g id="a_edge6_Node000006_Node000003"><a xlink:title=" ">
<path fill="none" stroke="#63b8ff" d="M272.98,-116.41C256.45,-111.01 238.12,-105.03 223.87,-100.37"/>
<polygon fill="#63b8ff" stroke="#63b8ff" points="271.49,-119.6 282.08,-119.38 273.66,-112.95 271.49,-119.6"/>
</a>
</g>
</g>
<!-- Node7&#45;&gt;Node3 -->
<g id="edge8_Node000007_Node000003" class="edge">
<title>Node7&#45;&gt;Node3</title>
<g id="a_edge8_Node000007_Node000003"><a xlink:title=" ">
<path fill="none" stroke="#63b8ff" d="M439.84,-92.33C374.67,-92.33 270.77,-92.33 223.76,-92.33"/>
<polygon fill="#63b8ff" stroke="#63b8ff" points="439.62,-95.83 449.62,-92.33 439.62,-88.83 439.62,-95.83"/>
</a>
</g>
</g>
<!-- Node8 -->
<g id="Node000008" class="node">
<title>Node8</title>
<g id="a_Node000008"><a xlink:href="class_o_c_a_1_1_c_a_f_e_v_d_b_1_1_email_form_1_1_recipients_filter.html#ab85bd7c01c06a6b1507047bfd28f941c" target="_top" xlink:title="Load the history from the session data.">
<polygon fill="white" stroke="#666666" points="349.38,-64.33 283.88,-64.33 283.88,-44.33 349.38,-44.33 349.38,-64.33"/>
<text text-anchor="middle" x="316.62" y="-50.83" font-family="Helvetica,sans-Serif" font-size="10.00">loadHistory</text>
</a>
</g>
</g>
<!-- Node7&#45;&gt;Node8 -->
<g id="edge9_Node000007_Node000008" class="edge">
<title>Node7&#45;&gt;Node8</title>
<g id="a_edge9_Node000007_Node000008"><a xlink:title=" ">
<path fill="none" stroke="#63b8ff" d="M439.88,-80.29C410.08,-73.96 374.65,-66.44 349.63,-61.13"/>
<polygon fill="#63b8ff" stroke="#63b8ff" points="439,-83.68 449.51,-82.33 440.46,-76.83 439,-83.68"/>
</a>
</g>
</g>
<!-- Node8&#45;&gt;Node3 -->
<g id="edge10_Node000008_Node000003" class="edge">
<title>Node8&#45;&gt;Node3</title>
<g id="a_edge10_Node000008_Node000003"><a xlink:title=" ">
<path fill="none" stroke="#63b8ff" d="M272.98,-68.26C256.45,-73.65 238.12,-79.64 223.87,-84.29"/>
<polygon fill="#63b8ff" stroke="#63b8ff" points="273.66,-71.72 282.08,-65.29 271.49,-65.06 273.66,-71.72"/>
</a>
</g>
</g>
</g>
</svg>
