<?xml version="1.0" encoding="UTF-8" standalone="no"?>
<!DOCTYPE svg PUBLIC "-//W3C//DTD SVG 1.1//EN"
 "http://www.w3.org/Graphics/SVG/1.1/DTD/svg11.dtd">
<!-- Generated by graphviz version 8.0.3 (20230416.2022)
 -->
<!-- Title: setOptions Pages: 1 -->
<svg width="224pt" height="64pt"
 viewBox="0.00 0.00 224.00 64.00" xmlns="http://www.w3.org/2000/svg" xmlns:xlink="http://www.w3.org/1999/xlink">
<g id="graph0" class="graph" transform="scale(1 1) rotate(0) translate(4 60)">
<title>setOptions</title>
<!-- Node1 -->
<g id="node1" class="node">
<title>Node1</title>
<g id="a_node1"><a xlink:title=" ">
<polygon fill="#999999" stroke="#666666" points="64,-37 0,-37 0,-18 64,-18 64,-37"/>
<text text-anchor="middle" x="32" y="-25" font-family="Helvetica,sans-Serif" font-size="10.00">setOptions</text>
</a>
</g>
</g>
<!-- Node2 -->
<g id="node2" class="node">
<title>Node2</title>
<g id="a_node2"><a xlink:href="class_o_c_a_1_1_c_a_f_e_v_d_b_1_1_database_1_1_legacy_1_1_p_m_e_1_1_p_h_p_my_edit.html#a970a343ac82f4301586c841461814201" target="_top" xlink:title=" ">
<polygon fill="white" stroke="#666666" points="208.5,-56 107.5,-56 107.5,-37 208.5,-37 208.5,-56"/>
<text text-anchor="middle" x="158" y="-44" font-family="Helvetica,sans-Serif" font-size="10.00">determineOperation</text>
</a>
</g>
</g>
<!-- Node1&#45;&gt;Node2 -->
<g id="edge1" class="edge">
<title>Node1&#45;&gt;Node2</title>
<path fill="none" stroke="#63b8ff" d="M64.29,-32.29C74.19,-33.81 85.48,-35.54 96.69,-37.26"/>
<polygon fill="#63b8ff" stroke="#63b8ff" points="95.96,-40.84 106.38,-38.9 97.02,-33.92 95.96,-40.84"/>
</g>
<!-- Node3 -->
<g id="node3" class="node">
<title>Node3</title>
<g id="a_node3"><a xlink:href="class_o_c_a_1_1_c_a_f_e_v_d_b_1_1_database_1_1_legacy_1_1_p_m_e_1_1_p_h_p_my_edit.html#aa5b8f517224bb51714ebbafdc093db1a" target="_top" xlink:title="{}">
<polygon fill="white" stroke="#666666" points="216,-19 100,-19 100,0 216,0 216,-19"/>
<text text-anchor="middle" x="158" y="-7" font-family="Helvetica,sans-Serif" font-size="10.00">make_language_labels</text>
</a>
</g>
</g>
<!-- Node1&#45;&gt;Node3 -->
<g id="edge2" class="edge">
<title>Node1&#45;&gt;Node3</title>
<path fill="none" stroke="#63b8ff" d="M64.29,-22.96C71.86,-21.86 80.24,-20.64 88.78,-19.4"/>
<polygon fill="#63b8ff" stroke="#63b8ff" points="89.25,-22.73 98.64,-17.83 88.24,-15.8 89.25,-22.73"/>
</g>
</g>
</svg>
