<?xml version="1.0" encoding="UTF-8" standalone="no"?>
<!DOCTYPE svg PUBLIC "-//W3C//DTD SVG 1.1//EN"
 "http://www.w3.org/Graphics/SVG/1.1/DTD/svg11.dtd">
<!-- Generated by graphviz version 9.0.0 (20230911.1827)
 -->
<!-- Title: getSecretary Pages: 1 -->
<svg width="591pt" height="28pt"
 viewBox="0.00 0.00 591.00 28.00" xmlns="http://www.w3.org/2000/svg" xmlns:xlink="http://www.w3.org/1999/xlink">
<g id="graph0" class="graph" transform="scale(1 1) rotate(0) translate(4 24)">
<title>getSecretary</title>
<!-- Node1 -->
<g id="Node000001" class="node">
<title>Node1</title>
<g id="a_Node000001"><a xlink:title=" ">
<polygon fill="#999999" stroke="#666666" points="71.5,-20 0,-20 0,0 71.5,0 71.5,-20"/>
<text text-anchor="middle" x="35.75" y="-6.5" font-family="Helvetica,sans-Serif" font-size="10.00">getSecretary</text>
</a>
</g>
</g>
<!-- Node2 -->
<g id="Node000002" class="node">
<title>Node2</title>
<g id="a_Node000002"><a xlink:href="class_o_c_a_1_1_c_a_f_e_v_d_b_1_1_service_1_1_organizational_roles_service.html#a0be55a4885c7fb3d52f6511a4452cdbc" target="_top" xlink:title=" ">
<polygon fill="white" stroke="#666666" points="272.75,-20 107.5,-20 107.5,0 272.75,0 272.75,-20"/>
<text text-anchor="middle" x="190.12" y="-6.5" font-family="Helvetica,sans-Serif" font-size="10.00">dedicatedBoardMemberParticipant</text>
</a>
</g>
</g>
<!-- Node1&#45;&gt;Node2 -->
<g id="edge1_Node000001_Node000002" class="edge">
<title>Node1&#45;&gt;Node2</title>
<g id="a_edge1_Node000001_Node000002"><a xlink:title=" ">
<path fill="none" stroke="#63b8ff" d="M71.71,-10C79.16,-10 87.37,-10 95.87,-10"/>
<polygon fill="#63b8ff" stroke="#63b8ff" points="95.68,-13.5 105.68,-10 95.68,-6.5 95.68,-13.5"/>
</a>
</g>
</g>
<!-- Node3 -->
<g id="Node000003" class="node">
<title>Node3</title>
<g id="a_Node000003"><a xlink:href="class_o_c_a_1_1_c_a_f_e_v_d_b_1_1_service_1_1_organizational_roles_service.html#a13cb759047e308ad9b9a05ab45fccddd" target="_top" xlink:title="Return an array with all members of the executive board.">
<polygon fill="white" stroke="#666666" points="432.75,-20 308.75,-20 308.75,0 432.75,0 432.75,-20"/>
<text text-anchor="middle" x="370.75" y="-6.5" font-family="Helvetica,sans-Serif" font-size="10.00">executiveBoardMembers</text>
</a>
</g>
</g>
<!-- Node2&#45;&gt;Node3 -->
<g id="edge2_Node000002_Node000003" class="edge">
<title>Node2&#45;&gt;Node3</title>
<g id="a_edge2_Node000002_Node000003"><a xlink:title=" ">
<path fill="none" stroke="#63b8ff" d="M273.12,-10C281.07,-10 289.09,-10 296.94,-10"/>
<polygon fill="#63b8ff" stroke="#63b8ff" points="296.78,-13.5 306.78,-10 296.78,-6.5 296.78,-13.5"/>
</a>
</g>
</g>
<!-- Node4 -->
<g id="Node000004" class="node">
<title>Node4</title>
<g id="a_Node000004"><a xlink:href="class_o_c_a_1_1_c_a_f_e_v_d_b_1_1_service_1_1_organizational_roles_service.html#aae8d36c62eaa47e32dcfba2644e60a53" target="_top" xlink:title="Return the project entity for the executive board.">
<polygon fill="white" stroke="#666666" points="583,-20 468.75,-20 468.75,0 583,0 583,-20"/>
<text text-anchor="middle" x="525.88" y="-6.5" font-family="Helvetica,sans-Serif" font-size="10.00">executiveBoardProject</text>
</a>
</g>
</g>
<!-- Node3&#45;&gt;Node4 -->
<g id="edge3_Node000003_Node000004" class="edge">
<title>Node3&#45;&gt;Node4</title>
<g id="a_edge3_Node000003_Node000004"><a xlink:title=" ">
<path fill="none" stroke="#63b8ff" d="M433.15,-10C440.98,-10 449.02,-10 456.94,-10"/>
<polygon fill="#63b8ff" stroke="#63b8ff" points="456.91,-13.5 466.91,-10 456.91,-6.5 456.91,-13.5"/>
</a>
</g>
</g>
</g>
</svg>
