<?xml version="1.0" encoding="UTF-8" standalone="no"?>
<!DOCTYPE svg PUBLIC "-//W3C//DTD SVG 1.1//EN"
 "http://www.w3.org/Graphics/SVG/1.1/DTD/svg11.dtd">
<!-- Generated by graphviz version 7.1.0 (20230121.1956)
 -->
<!-- Title: joinTableMasterFieldName Pages: 1 -->
<svg width="531pt" height="326pt"
 viewBox="0.00 0.00 531.00 326.00" xmlns="http://www.w3.org/2000/svg" xmlns:xlink="http://www.w3.org/1999/xlink">
<g id="graph0" class="graph" transform="scale(1 1) rotate(0) translate(4 322)">
<title>joinTableMasterFieldName</title>
<!-- Node1 -->
<g id="node1" class="node">
<title>Node1</title>
<g id="a_node1"><a xlink:title="The name of the master join table field which triggers PME to actually do the join.">
<polygon fill="#999999" stroke="#666666" points="523,-237.5 391,-237.5 391,-218.5 523,-218.5 523,-237.5"/>
<text text-anchor="middle" x="457" y="-225.5" font-family="Helvetica,sans-Serif" font-size="10.00">joinTableMasterFieldName</text>
</a>
</g>
</g>
<!-- Node2 -->
<g id="node2" class="node">
<title>Node2</title>
<g id="a_node2"><a xlink:href="class_o_c_a_1_1_c_a_f_e_v_d_b_1_1_page_renderer_1_1_p_m_e_table_view_base.html#a936748b21bb69d2a3f9d51e14ce2cd87" target="_top" xlink:title="Before insert&#45;trigger which ideally should insert all data such that nothing remains to be done for p...">
<polygon fill="white" stroke="#666666" points="348,-264.5 231,-264.5 231,-245.5 348,-245.5 348,-264.5"/>
<text text-anchor="middle" x="289.5" y="-252.5" font-family="Helvetica,sans-Serif" font-size="10.00">beforeInsertDoInsertAll</text>
</a>
</g>
</g>
<!-- Node1&#45;&gt;Node2 -->
<g id="edge1" class="edge">
<title>Node1&#45;&gt;Node2</title>
<path fill="none" stroke="#63b8ff" d="M383.65,-239.8C371.86,-241.73 359.77,-243.7 348.38,-245.56"/>
<polygon fill="#63b8ff" stroke="#63b8ff" points="384.04,-243.29 393.35,-238.22 382.92,-236.38 384.04,-243.29"/>
</g>
<!-- Node5 -->
<g id="node5" class="node">
<title>Node5</title>
<g id="a_node5"><a xlink:href="class_o_c_a_1_1_c_a_f_e_v_d_b_1_1_page_renderer_1_1_p_m_e_table_view_base.html#a882a0897b82d354409342d1c195c2f4d" target="_top" xlink:title="Before update&#45;trigger which ideally should update all data such that nothing remains to do for phpMyE...">
<polygon fill="white" stroke="#666666" points="355,-306.5 224,-306.5 224,-287.5 355,-287.5 355,-306.5"/>
<text text-anchor="middle" x="289.5" y="-294.5" font-family="Helvetica,sans-Serif" font-size="10.00">beforeUpdateDoUpdateAll</text>
</a>
</g>
</g>
<!-- Node1&#45;&gt;Node5 -->
<g id="edge4" class="edge">
<title>Node1&#45;&gt;Node5</title>
<path fill="none" stroke="#63b8ff" d="M425.42,-242.75C405.54,-252.13 378.96,-264.29 355,-274 343.65,-278.6 330.99,-283.22 319.92,-287.1"/>
<polygon fill="#63b8ff" stroke="#63b8ff" points="426.82,-245.96 434.35,-238.5 423.82,-239.63 426.82,-245.96"/>
</g>
<!-- Node6 -->
<g id="node6" class="node">
<title>Node6</title>
<g id="a_node6"><a xlink:href="class_o_c_a_1_1_c_a_f_e_v_d_b_1_1_page_renderer_1_1_p_m_e_table_view_base.html#a61a318b7b87e25880772a49534c096ff" target="_top" xlink:title="Define a basic join&#45;structure for phpMyEdit by using the information from self::$joinStructure.">
<polygon fill="white" stroke="#666666" points="340,-211.5 239,-211.5 239,-192.5 340,-192.5 340,-211.5"/>
<text text-anchor="middle" x="289.5" y="-199.5" font-family="Helvetica,sans-Serif" font-size="10.00">defineJoinStructure</text>
</a>
</g>
</g>
<!-- Node1&#45;&gt;Node6 -->
<g id="edge6" class="edge">
<title>Node1&#45;&gt;Node6</title>
<path fill="none" stroke="#63b8ff" d="M381.46,-216.29C367.58,-214.11 353.4,-211.88 340.49,-209.85"/>
<polygon fill="#63b8ff" stroke="#63b8ff" points="380.57,-219.69 390.99,-217.79 381.66,-212.78 380.57,-219.69"/>
</g>
<!-- Node12 -->
<g id="node12" class="node">
<title>Node12</title>
<g id="a_node12"><a xlink:href="class_o_c_a_1_1_c_a_f_e_v_d_b_1_1_page_renderer_1_1_p_m_e_table_view_base.html#a4bc3294be95e06a40ae3bdc7d5419749" target="_top" xlink:title="Generate a join&#45;table field, given join&#45;table and field name.">
<polygon fill="white" stroke="#666666" points="341,-171.5 238,-171.5 238,-152.5 341,-152.5 341,-171.5"/>
<text text-anchor="middle" x="289.5" y="-159.5" font-family="Helvetica,sans-Serif" font-size="10.00">makeJoinTableField</text>
</a>
</g>
</g>
<!-- Node1&#45;&gt;Node12 -->
<g id="edge14" class="edge">
<title>Node1&#45;&gt;Node12</title>
<path fill="none" stroke="#63b8ff" d="M424.27,-213.38C404.51,-204.47 378.47,-193.1 355,-184 344.08,-179.77 331.96,-175.52 321.2,-171.9"/>
<polygon fill="#63b8ff" stroke="#63b8ff" points="422.61,-216.47 433.16,-217.41 425.5,-210.09 422.61,-216.47"/>
</g>
<!-- Node3 -->
<g id="node3" class="node">
<title>Node3</title>
<g id="a_node3"><a xlink:href="class_o_c_a_1_1_c_a_f_e_v_d_b_1_1_page_renderer_1_1_project_instrumentation_numbers.html#ab91557ae1e08e1183c76c9ce39edfe33" target="_top" xlink:title="{Show the underlying template page.This is supposed to echo html code to stdout. This is the default ...">
<polygon fill="white" stroke="#666666" points="188,-270 0,-270 0,-240 188,-240 188,-270"/>
<text text-anchor="start" x="8" y="-258" font-family="Helvetica,sans-Serif" font-size="10.00">OCA\CAFEVDB\PageRenderer</text>
<text text-anchor="middle" x="94" y="-247" font-family="Helvetica,sans-Serif" font-size="10.00">\ProjectInstrumentationNumbers\render</text>
</a>
</g>
</g>
<!-- Node2&#45;&gt;Node3 -->
<g id="edge2" class="edge">
<title>Node2&#45;&gt;Node3</title>
<path fill="none" stroke="#63b8ff" d="M219.5,-255C209.39,-255 198.84,-255 188.34,-255"/>
<polygon fill="#63b8ff" stroke="#63b8ff" points="219.19,-258.5 229.19,-255 219.19,-251.5 219.19,-258.5"/>
</g>
<!-- Node4 -->
<g id="node4" class="node">
<title>Node4</title>
<g id="a_node4"><a xlink:href="class_o_c_a_1_1_c_a_f_e_v_d_b_1_1_page_renderer_1_1_project_participant_fields.html#ab91557ae1e08e1183c76c9ce39edfe33" target="_top" xlink:title="{Show the underlying template page.This is supposed to echo html code to stdout. This is the default ...">
<polygon fill="white" stroke="#666666" points="171.5,-318 16.5,-318 16.5,-288 171.5,-288 171.5,-318"/>
<text text-anchor="start" x="24.5" y="-306" font-family="Helvetica,sans-Serif" font-size="10.00">OCA\CAFEVDB\PageRenderer</text>
<text text-anchor="middle" x="94" y="-295" font-family="Helvetica,sans-Serif" font-size="10.00">\ProjectParticipantFields\render</text>
</a>
</g>
</g>
<!-- Node2&#45;&gt;Node4 -->
<g id="edge3" class="edge">
<title>Node2&#45;&gt;Node4</title>
<path fill="none" stroke="#63b8ff" d="M237.48,-267.66C212.85,-273.77 183.09,-281.15 157.14,-287.58"/>
<polygon fill="#63b8ff" stroke="#63b8ff" points="238.07,-271.11 246.94,-265.31 236.39,-264.32 238.07,-271.11"/>
</g>
<!-- Node5&#45;&gt;Node4 -->
<g id="edge5" class="edge">
<title>Node5&#45;&gt;Node4</title>
<path fill="none" stroke="#63b8ff" d="M212.07,-299.37C198.85,-299.78 185.09,-300.21 171.86,-300.62"/>
<polygon fill="#63b8ff" stroke="#63b8ff" points="212.13,-302.87 222.02,-299.06 211.91,-295.87 212.13,-302.87"/>
</g>
<!-- Node6&#45;&gt;Node3 -->
<g id="edge10" class="edge">
<title>Node6&#45;&gt;Node3</title>
<path fill="none" stroke="#63b8ff" d="M244.05,-215.12C226.61,-220.19 206.39,-225.97 188,-231 177.54,-233.86 166.4,-236.81 155.6,-239.63"/>
<polygon fill="#63b8ff" stroke="#63b8ff" points="245,-218.49 253.61,-212.33 243.03,-211.77 245,-218.49"/>
</g>
<!-- Node6&#45;&gt;Node4 -->
<g id="edge11" class="edge">
<title>Node6&#45;&gt;Node4</title>
<path fill="none" stroke="#63b8ff" d="M255.31,-217.05C244.78,-222.58 233.44,-229.37 224,-237 204.88,-252.45 208.86,-266 188,-279 182.76,-282.26 177.1,-285.08 171.24,-287.52"/>
<polygon fill="#63b8ff" stroke="#63b8ff" points="256.73,-220.25 264.11,-212.64 253.6,-213.99 256.73,-220.25"/>
</g>
<!-- Node7 -->
<g id="node7" class="node">
<title>Node7</title>
<g id="a_node7"><a xlink:href="class_o_c_a_1_1_c_a_f_e_v_d_b_1_1_page_renderer_1_1_instrument_families.html#ab91557ae1e08e1183c76c9ce39edfe33" target="_top" xlink:title="{Show the underlying template page.This is supposed to echo html code to stdout. This is the default ...">
<polygon fill="white" stroke="#666666" points="171.5,-126 16.5,-126 16.5,-96 171.5,-96 171.5,-126"/>
<text text-anchor="start" x="24.5" y="-114" font-family="Helvetica,sans-Serif" font-size="10.00">OCA\CAFEVDB\PageRenderer</text>
<text text-anchor="middle" x="94" y="-103" font-family="Helvetica,sans-Serif" font-size="10.00">\InstrumentFamilies\render</text>
</a>
</g>
</g>
<!-- Node6&#45;&gt;Node7 -->
<g id="edge7" class="edge">
<title>Node6&#45;&gt;Node7</title>
<path fill="none" stroke="#63b8ff" d="M235.55,-187.71C231.49,-185.74 227.59,-183.51 224,-181 202.73,-166.11 209.72,-149.22 188,-135 182.98,-131.71 177.53,-128.87 171.87,-126.42"/>
<polygon fill="#63b8ff" stroke="#63b8ff" points="233.88,-190.8 244.46,-191.5 236.63,-184.36 233.88,-190.8"/>
</g>
<!-- Node8 -->
<g id="node8" class="node">
<title>Node8</title>
<g id="a_node8"><a xlink:href="class_o_c_a_1_1_c_a_f_e_v_d_b_1_1_page_renderer_1_1_instrument_insurances.html#ab91557ae1e08e1183c76c9ce39edfe33" target="_top" xlink:title="{Show the underlying template page.This is supposed to echo html code to stdout. This is the default ...">
<polygon fill="white" stroke="#666666" points="171.5,-78 16.5,-78 16.5,-48 171.5,-48 171.5,-78"/>
<text text-anchor="start" x="24.5" y="-66" font-family="Helvetica,sans-Serif" font-size="10.00">OCA\CAFEVDB\PageRenderer</text>
<text text-anchor="middle" x="94" y="-55" font-family="Helvetica,sans-Serif" font-size="10.00">\InstrumentInsurances\render</text>
</a>
</g>
</g>
<!-- Node6&#45;&gt;Node8 -->
<g id="edge8" class="edge">
<title>Node6&#45;&gt;Node8</title>
<path fill="none" stroke="#63b8ff" d="M230.92,-186.5C228.46,-184.85 226.13,-183.02 224,-181 191.57,-150.18 221.37,-116.79 188,-87 183.15,-82.67 177.62,-79.1 171.73,-76.16"/>
<polygon fill="#63b8ff" stroke="#63b8ff" points="229.21,-189.56 239.66,-191.31 232.59,-183.43 229.21,-189.56"/>
</g>
<!-- Node9 -->
<g id="node9" class="node">
<title>Node9</title>
<g id="a_node9"><a xlink:href="class_o_c_a_1_1_c_a_f_e_v_d_b_1_1_page_renderer_1_1_instruments.html#ab91557ae1e08e1183c76c9ce39edfe33" target="_top" xlink:title="{Show the underlying template page.This is supposed to echo html code to stdout. This is the default ...">
<polygon fill="white" stroke="#666666" points="171.5,-30 16.5,-30 16.5,0 171.5,0 171.5,-30"/>
<text text-anchor="start" x="24.5" y="-18" font-family="Helvetica,sans-Serif" font-size="10.00">OCA\CAFEVDB\PageRenderer</text>
<text text-anchor="middle" x="94" y="-7" font-family="Helvetica,sans-Serif" font-size="10.00">\Instruments\render</text>
</a>
</g>
</g>
<!-- Node6&#45;&gt;Node9 -->
<g id="edge9" class="edge">
<title>Node6&#45;&gt;Node9</title>
<path fill="none" stroke="#63b8ff" d="M229.77,-186.17C227.7,-184.6 225.77,-182.89 224,-181 179.52,-133.46 233.94,-85.14 188,-39 183.29,-34.27 177.79,-30.44 171.85,-27.33"/>
<polygon fill="#63b8ff" stroke="#63b8ff" points="227.86,-189.1 238.22,-191.3 231.49,-183.12 227.86,-189.1"/>
</g>
<!-- Node10 -->
<g id="node10" class="node">
<title>Node10</title>
<g id="a_node10"><a xlink:href="class_o_c_a_1_1_c_a_f_e_v_d_b_1_1_page_renderer_1_1_project_participants.html#ab91557ae1e08e1183c76c9ce39edfe33" target="_top" xlink:title="{Show the underlying template page.This is supposed to echo html code to stdout. This is the default ...">
<polygon fill="white" stroke="#666666" points="171.5,-222 16.5,-222 16.5,-192 171.5,-192 171.5,-222"/>
<text text-anchor="start" x="24.5" y="-210" font-family="Helvetica,sans-Serif" font-size="10.00">OCA\CAFEVDB\PageRenderer</text>
<text text-anchor="middle" x="94" y="-199" font-family="Helvetica,sans-Serif" font-size="10.00">\ProjectParticipants\render</text>
</a>
</g>
</g>
<!-- Node6&#45;&gt;Node10 -->
<g id="edge12" class="edge">
<title>Node6&#45;&gt;Node10</title>
<path fill="none" stroke="#63b8ff" d="M227.36,-203.58C209.7,-204.04 190.2,-204.54 171.72,-205.02"/>
<polygon fill="#63b8ff" stroke="#63b8ff" points="227.25,-207.08 237.16,-203.33 227.07,-200.09 227.25,-207.08"/>
</g>
<!-- Node11 -->
<g id="node11" class="node">
<title>Node11</title>
<g id="a_node11"><a xlink:href="class_o_c_a_1_1_c_a_f_e_v_d_b_1_1_page_renderer_1_1_sepa_bulk_transactions.html#ab91557ae1e08e1183c76c9ce39edfe33" target="_top" xlink:title="{Show the underlying template page.This is supposed to echo html code to stdout. This is the default ...">
<polygon fill="white" stroke="#666666" points="171.5,-174 16.5,-174 16.5,-144 171.5,-144 171.5,-174"/>
<text text-anchor="start" x="24.5" y="-162" font-family="Helvetica,sans-Serif" font-size="10.00">OCA\CAFEVDB\PageRenderer</text>
<text text-anchor="middle" x="94" y="-151" font-family="Helvetica,sans-Serif" font-size="10.00">\SepaBulkTransactions\render</text>
</a>
</g>
</g>
<!-- Node6&#45;&gt;Node11 -->
<g id="edge13" class="edge">
<title>Node6&#45;&gt;Node11</title>
<path fill="none" stroke="#63b8ff" d="M232.53,-189.56C211.34,-184.85 186.95,-179.43 164.65,-174.48"/>
<polygon fill="#63b8ff" stroke="#63b8ff" points="231.62,-192.95 242.14,-191.7 233.14,-186.11 231.62,-192.95"/>
</g>
<!-- Node12&#45;&gt;Node3 -->
<g id="edge18" class="edge">
<title>Node12&#45;&gt;Node3</title>
<path fill="none" stroke="#63b8ff" d="M237.17,-176.31C232.53,-178.54 228.06,-181.09 224,-184 202.63,-199.35 209.94,-216.47 188,-231 182.99,-234.31 177.56,-237.17 171.91,-239.63"/>
<polygon fill="#63b8ff" stroke="#63b8ff" points="238.26,-179.64 246.1,-172.52 235.53,-173.2 238.26,-179.64"/>
</g>
<!-- Node12&#45;&gt;Node4 -->
<g id="edge19" class="edge">
<title>Node12&#45;&gt;Node4</title>
<path fill="none" stroke="#63b8ff" d="M232.72,-177.2C229.58,-179.2 226.64,-181.45 224,-184 191.54,-215.39 221.63,-248.87 188,-279 183.16,-283.34 177.63,-286.91 171.74,-289.86"/>
<polygon fill="#63b8ff" stroke="#63b8ff" points="234.06,-180.45 241.26,-172.68 230.79,-174.26 234.06,-180.45"/>
</g>
<!-- Node12&#45;&gt;Node7 -->
<g id="edge15" class="edge">
<title>Node12&#45;&gt;Node7</title>
<path fill="none" stroke="#63b8ff" d="M241.11,-149.17C224.34,-144.65 205.34,-139.57 188,-135 177.36,-132.2 166.02,-129.24 155.06,-126.41"/>
<polygon fill="#63b8ff" stroke="#63b8ff" points="239.74,-152.42 250.31,-151.64 241.56,-145.66 239.74,-152.42"/>
</g>
<!-- Node12&#45;&gt;Node8 -->
<g id="edge16" class="edge">
<title>Node12&#45;&gt;Node8</title>
<path fill="none" stroke="#63b8ff" d="M269.9,-144.57C250.76,-127.54 219.38,-102.04 188,-87 181.23,-83.76 173.97,-80.91 166.6,-78.43"/>
<polygon fill="#63b8ff" stroke="#63b8ff" points="267.38,-147.01 277.14,-151.15 272.09,-141.83 267.38,-147.01"/>
</g>
<!-- Node12&#45;&gt;Node9 -->
<g id="edge17" class="edge">
<title>Node12&#45;&gt;Node9</title>
<path fill="none" stroke="#63b8ff" d="M277.82,-142.26C261.94,-114.82 229.44,-65.51 188,-39 182.8,-35.68 177.17,-32.81 171.32,-30.34"/>
<polygon fill="#63b8ff" stroke="#63b8ff" points="274.74,-143.92 282.68,-150.93 280.84,-140.49 274.74,-143.92"/>
</g>
<!-- Node12&#45;&gt;Node10 -->
<g id="edge20" class="edge">
<title>Node12&#45;&gt;Node10</title>
<path fill="none" stroke="#63b8ff" d="M234.44,-174.57C211.79,-179.84 185.22,-186.02 161.4,-191.56"/>
<polygon fill="#63b8ff" stroke="#63b8ff" points="235.13,-178 244.08,-172.33 233.55,-171.19 235.13,-178"/>
</g>
<!-- Node12&#45;&gt;Node11 -->
<g id="edge21" class="edge">
<title>Node12&#45;&gt;Node11</title>
<path fill="none" stroke="#63b8ff" d="M226.49,-161.04C209.07,-160.77 189.91,-160.47 171.74,-160.19"/>
<polygon fill="#63b8ff" stroke="#63b8ff" points="226.09,-164.53 236.15,-161.19 226.2,-157.53 226.09,-164.53"/>
</g>
</g>
</svg>
