<?xml version="1.0" encoding="UTF-8" standalone="no"?>
<!DOCTYPE svg PUBLIC "-//W3C//DTD SVG 1.1//EN"
 "http://www.w3.org/Graphics/SVG/1.1/DTD/svg11.dtd">
<!-- Generated by graphviz version 9.0.0 (20230911.1827)
 -->
<!-- Title: __construct Pages: 1 -->
<svg width="298pt" height="28pt"
 viewBox="0.00 0.00 298.25 28.00" xmlns="http://www.w3.org/2000/svg" xmlns:xlink="http://www.w3.org/1999/xlink">
<g id="graph0" class="graph" transform="scale(1 1) rotate(0) translate(4 24)">
<title>__construct</title>
<!-- Node1 -->
<g id="Node000001" class="node">
<title>Node1</title>
<g id="a_Node000001"><a xlink:title=" ">
<polygon fill="#999999" stroke="#666666" points="67,-20 0,-20 0,0 67,0 67,-20"/>
<text text-anchor="middle" x="33.5" y="-6.5" font-family="Helvetica,sans-Serif" font-size="10.00">__construct</text>
</a>
</g>
</g>
<!-- Node2 -->
<g id="Node000002" class="node">
<title>Node2</title>
<g id="a_Node000002"><a xlink:href="class_o_c_a_1_1_c_a_f_e_v_d_b_1_1_crypto_1_1_open_s_s_l_asymmetric_cryptor.html#af4b5ea16dfd9778be36d28ebdba0fec8" target="_top" xlink:title="{AsymmetricCryptorInterface $this}">
<polygon fill="white" stroke="#666666" points="180.5,-20 103,-20 103,0 180.5,0 180.5,-20"/>
<text text-anchor="middle" x="141.75" y="-6.5" font-family="Helvetica,sans-Serif" font-size="10.00">setPrivateKey</text>
</a>
</g>
</g>
<!-- Node1&#45;&gt;Node2 -->
<g id="edge1_Node000001_Node000002" class="edge">
<title>Node1&#45;&gt;Node2</title>
<g id="a_edge1_Node000001_Node000002"><a xlink:title=" ">
<path fill="none" stroke="#63b8ff" d="M67.25,-10C74.87,-10 83.16,-10 91.33,-10"/>
<polygon fill="#63b8ff" stroke="#63b8ff" points="91.2,-13.5 101.2,-10 91.2,-6.5 91.2,-13.5"/>
</a>
</g>
</g>
<!-- Node3 -->
<g id="Node000003" class="node">
<title>Node3</title>
<g id="a_Node000003"><a xlink:href="class_o_c_a_1_1_c_a_f_e_v_d_b_1_1_crypto_1_1_open_s_s_l_asymmetric_cryptor.html#af880329ca734527233d2e890499b8416" target="_top" xlink:title="{AsymmetricCryptorInterface $this}">
<polygon fill="white" stroke="#666666" points="290.25,-20 216.5,-20 216.5,0 290.25,0 290.25,-20"/>
<text text-anchor="middle" x="253.38" y="-6.5" font-family="Helvetica,sans-Serif" font-size="10.00">setPublicKey</text>
</a>
</g>
</g>
<!-- Node2&#45;&gt;Node3 -->
<g id="edge2_Node000002_Node000003" class="edge">
<title>Node2&#45;&gt;Node3</title>
<g id="a_edge2_Node000002_Node000003"><a xlink:title=" ">
<path fill="none" stroke="#63b8ff" d="M180.78,-10C188.51,-10 196.73,-10 204.74,-10"/>
<polygon fill="#63b8ff" stroke="#63b8ff" points="204.74,-13.5 214.74,-10 204.74,-6.5 204.74,-13.5"/>
</a>
</g>
</g>
</g>
</svg>
