<?xml version="1.0" encoding="UTF-8" standalone="no"?>
<!DOCTYPE svg PUBLIC "-//W3C//DTD SVG 1.1//EN"
 "http://www.w3.org/Graphics/SVG/1.1/DTD/svg11.dtd">
<!-- Generated by graphviz version 8.0.3 (20230416.2022)
 -->
<!-- Title: createFolder Pages: 1 -->
<!--zoomable 139 -->
<svg id="main" version="1.1" xmlns="http://www.w3.org/2000/svg" xmlns:xlink="http://www.w3.org/1999/xlink" xml:space="preserve" onload="init(evt)">
<style type="text/css"><![CDATA[
.edge:hover path { stroke: red; }
.edge:hover polygon { stroke: red; fill: red; }
]]></style>
<script type="text/javascript"><![CDATA[
var edges = document.getElementsByTagName('g');
if (edges && edges.length) {
  for (var i=0;i<edges.length;i++) {
    if (edges[i].id.substr(0,4)=='edge') {
      edges[i].setAttribute('class','edge');
    }
  }
}
]]></script>
        <defs>
                <circle id="rim" cx="0" cy="0" r="7"/>
                <circle id="rim2" cx="0" cy="0" r="3.5"/>
                <g id="zoomPlus">
                        <use xlink:href="#rim" fill="#404040">
                                <set attributeName="fill" to="#808080" begin="zoomplus.mouseover" end="zoomplus.mouseout"/>
                        </use>
                        <path d="M-4,0h8M0,-4v8" fill="none" stroke="white" stroke-width="1.5" pointer-events="none"/>
                </g>
                <g id="zoomMin">
                        <use xlink:href="#rim" fill="#404040">
                                <set attributeName="fill" to="#808080" begin="zoomminus.mouseover" end="zoomminus.mouseout"/>
                        </use>
                        <path d="M-4,0h8" fill="none" stroke="white" stroke-width="1.5" pointer-events="none"/>
                </g>
                <g id="dirArrow">
                        <path fill="none" stroke="white" stroke-width="1.5" d="M0,-3.0v7 M-2.5,-0.5L0,-3.0L2.5,-0.5"/>
                </g>
               <g id="resetDef">
                       <use xlink:href="#rim2" fill="#404040">
                               <set attributeName="fill" to="#808080" begin="reset.mouseover" end="reset.mouseout"/>
                       </use>
               </g>
        </defs>

<script type="text/javascript">
var viewWidth = 914;
var viewHeight = 139;
var sectionId = 'dynsection-4';
</script>
<script xlink:href="svgpan.js"/>
<svg id="graph" class="graph">
<g id="viewport">
<title>createFolder</title>
<!-- Node1 -->
<g id="node1" class="node">
<title>Node1</title>
<g id="a_node1"><a xlink:title="Create a shared folder and set appropriate permissions.">
<polygon fill="#999999" stroke="#666666" points="71,-75 0,-75 0,-56 71,-56 71,-75"/>
<text text-anchor="middle" x="35.5" y="-63" font-family="Helvetica,sans-Serif" font-size="10.00">createFolder</text>
</a>
</g>
</g>
<!-- Node2 -->
<g id="node2" class="node">
<title>Node2</title>
<g id="a_node2"><a xlink:href="class_o_c_a_1_1_c_a_f_e_v_d_b_1_1_toolkit_1_1_service_1_1_group_folders_service.html#a8148448c37311dced215dca1c67a66e0" target="_top" xlink:title="Add a single group to the given shared folder.">
<polygon fill="white" stroke="#666666" points="208.5,-131 112.5,-131 112.5,-112 208.5,-112 208.5,-131"/>
<text text-anchor="middle" x="160.5" y="-119" font-family="Helvetica,sans-Serif" font-size="10.00">addGroupToFolder</text>
</a>
</g>
</g>
<!-- Node1&#45;&gt;Node2 -->
<g id="edge1" class="edge">
<title>Node1&#45;&gt;Node2</title>
<path fill="none" stroke="#63b8ff" d="M52.92,-75.35C66.97,-83.53 87.89,-95.14 107,-103.5 110.41,-104.99 113.99,-106.45 117.61,-107.84"/>
<polygon fill="#63b8ff" stroke="#63b8ff" points="116.21,-111.42 126.81,-111.57 118.62,-104.85 116.21,-111.42"/>
</g>
<!-- Node3 -->
<g id="node3" class="node">
<title>Node3</title>
<g id="a_node3"><a xlink:href="class_o_c_a_1_1_c_a_f_e_v_d_b_1_1_toolkit_1_1_service_1_1_group_folders_service.html#a3f43811af00573cb21e27cb201c49623" target="_top" xlink:title=" ">
<polygon fill="white" stroke="#666666" points="214,-94 107,-94 107,-75 214,-75 214,-94"/>
<text text-anchor="middle" x="160.5" y="-82" font-family="Helvetica,sans-Serif" font-size="10.00">addManagerToFolder</text>
</a>
</g>
</g>
<!-- Node1&#45;&gt;Node3 -->
<g id="edge2" class="edge">
<title>Node1&#45;&gt;Node3</title>
<path fill="none" stroke="#63b8ff" d="M71.42,-70.89C79.11,-72.08 87.49,-73.38 95.92,-74.68"/>
<polygon fill="#63b8ff" stroke="#63b8ff" points="95.16,-78.26 105.57,-76.32 96.22,-71.34 95.16,-78.26"/>
</g>
<!-- Node4 -->
<g id="node4" class="node">
<title>Node4</title>
<g id="a_node4"><a xlink:href="class_o_c_a_1_1_c_a_f_e_v_d_b_1_1_toolkit_1_1_service_1_1_group_folders_service.html#a4d4c99de2d9c451fa1e4f4cb2123fb04" target="_top" xlink:title="Obtain the shared folder data for the given mount&#45;point.">
<polygon fill="white" stroke="#666666" points="189,-57 132,-57 132,-38 189,-38 189,-57"/>
<text text-anchor="middle" x="160.5" y="-45" font-family="Helvetica,sans-Serif" font-size="10.00">getFolder</text>
</a>
</g>
</g>
<!-- Node1&#45;&gt;Node4 -->
<g id="edge3" class="edge">
<title>Node1&#45;&gt;Node4</title>
<path fill="none" stroke="#63b8ff" d="M71.42,-60.39C86.88,-58.13 105.13,-55.46 120.99,-53.14"/>
<polygon fill="#63b8ff" stroke="#63b8ff" points="121.13,-56.51 130.52,-51.59 120.12,-49.58 121.13,-56.51"/>
</g>
<!-- Node11 -->
<g id="node11" class="node">
<title>Node11</title>
<g id="a_node11"><a xlink:href="class_o_c_a_1_1_c_a_f_e_v_d_b_1_1_toolkit_1_1_service_1_1_group_folders_service.html#a2c5736677056d73dbd8d456de4babd92" target="_top" xlink:title=" ">
<polygon fill="white" stroke="#666666" points="327.5,-19 250.5,-19 250.5,0 327.5,0 327.5,-19"/>
<text text-anchor="middle" x="289" y="-7" font-family="Helvetica,sans-Serif" font-size="10.00">getFolderById</text>
</a>
</g>
</g>
<!-- Node1&#45;&gt;Node11 -->
<g id="edge11" class="edge">
<title>Node1&#45;&gt;Node11</title>
<path fill="none" stroke="#63b8ff" d="M51.19,-55.67C64.97,-46.96 86.49,-34.71 107,-28.5 150.44,-15.35 202.11,-10.98 239.11,-9.67"/>
<polygon fill="#63b8ff" stroke="#63b8ff" points="239.2,-13.14 249.09,-9.35 239,-6.14 239.2,-13.14"/>
</g>
<!-- Node5 -->
<g id="node5" class="node">
<title>Node5</title>
<g id="a_node5"><a xlink:href="class_o_c_a_1_1_c_a_f_e_v_d_b_1_1_toolkit_1_1_service_1_1_group_folders_service.html#a7e14d6479c6ecacdf6ec831270d1b99b" target="_top" xlink:title=" ">
<polygon fill="white" stroke="#666666" points="328,-95 250,-95 250,-76 328,-76 328,-95"/>
<text text-anchor="middle" x="289" y="-83" font-family="Helvetica,sans-Serif" font-size="10.00">ensureFolders</text>
</a>
</g>
</g>
<!-- Node4&#45;&gt;Node5 -->
<g id="edge4" class="edge">
<title>Node4&#45;&gt;Node5</title>
<path fill="none" stroke="#63b8ff" d="M189.26,-55.84C205.43,-60.7 226.18,-66.93 244.48,-72.43"/>
<polygon fill="#63b8ff" stroke="#63b8ff" points="243.34,-76.04 253.92,-75.56 245.35,-69.33 243.34,-76.04"/>
</g>
<!-- Node7 -->
<g id="node7" class="node">
<title>Node7</title>
<g id="a_node7"><a xlink:href="namespace_o_c_a_1_1_c_a_f_e_v_d_b_1_1_toolkit_1_1_traits.html#a4d87f4e47d18fb535d235414c357f821" target="_top" xlink:title="Log a debug message.">
<polygon fill="white" stroke="#666666" points="592,-62.5 471,-62.5 471,-32.5 592,-32.5 592,-62.5"/>
<text text-anchor="start" x="479" y="-50.5" font-family="Helvetica,sans-Serif" font-size="10.00">OCA\CAFEVDB\Toolkit</text>
<text text-anchor="middle" x="531.5" y="-39.5" font-family="Helvetica,sans-Serif" font-size="10.00">\Traits\logDebug</text>
</a>
</g>
</g>
<!-- Node4&#45;&gt;Node7 -->
<g id="edge10" class="edge">
<title>Node4&#45;&gt;Node7</title>
<path fill="none" stroke="#63b8ff" d="M189.23,-47.5C246.18,-47.5 377.82,-47.5 459.95,-47.5"/>
<polygon fill="#63b8ff" stroke="#63b8ff" points="459.7,-51 469.7,-47.5 459.7,-44 459.7,-51"/>
</g>
<!-- Node6 -->
<g id="node6" class="node">
<title>Node6</title>
<g id="a_node6"><a xlink:href="class_o_c_a_1_1_c_a_f_e_v_d_b_1_1_toolkit_1_1_service_1_1_group_folders_service.html#acb65d3f859f30837e4b9f7ea14b88b9c" target="_top" xlink:title="Fetch and cache all shared folders from the groupfolders app.">
<polygon fill="white" stroke="#666666" points="435,-95 364,-95 364,-76 435,-76 435,-95"/>
<text text-anchor="middle" x="399.5" y="-83" font-family="Helvetica,sans-Serif" font-size="10.00">fetchFolders</text>
</a>
</g>
</g>
<!-- Node5&#45;&gt;Node6 -->
<g id="edge5" class="edge">
<title>Node5&#45;&gt;Node6</title>
<path fill="none" stroke="#63b8ff" d="M328.25,-85.5C336.22,-85.5 344.7,-85.5 352.9,-85.5"/>
<polygon fill="#63b8ff" stroke="#63b8ff" points="352.85,-89 362.85,-85.5 352.85,-82 352.85,-89"/>
</g>
<!-- Node6&#45;&gt;Node7 -->
<g id="edge6" class="edge">
<title>Node6&#45;&gt;Node7</title>
<path fill="none" stroke="#63b8ff" d="M434.66,-75.52C444.79,-72.55 456.23,-69.21 467.59,-65.89"/>
<polygon fill="#63b8ff" stroke="#63b8ff" points="468.34,-69.03 476.95,-62.86 466.37,-62.31 468.34,-69.03"/>
</g>
<!-- Node8 -->
<g id="node8" class="node">
<title>Node8</title>
<g id="a_node8"><a xlink:href="namespace_o_c_a_1_1_c_a_f_e_v_d_b_1_1_toolkit_1_1_traits.html#a15cbaddba041ee5582b2bec28a58c7c9" target="_top" xlink:title="Log the given message at the specified level.">
<polygon fill="white" stroke="#666666" points="749,-62.5 628,-62.5 628,-32.5 749,-32.5 749,-62.5"/>
<text text-anchor="start" x="636" y="-50.5" font-family="Helvetica,sans-Serif" font-size="10.00">OCA\CAFEVDB\Toolkit</text>
<text text-anchor="middle" x="688.5" y="-39.5" font-family="Helvetica,sans-Serif" font-size="10.00">\Traits\log</text>
</a>
</g>
</g>
<!-- Node7&#45;&gt;Node8 -->
<g id="edge7" class="edge">
<title>Node7&#45;&gt;Node8</title>
<path fill="none" stroke="#63b8ff" d="M592.43,-47.5C600.39,-47.5 608.62,-47.5 616.75,-47.5"/>
<polygon fill="#63b8ff" stroke="#63b8ff" points="616.73,-51 626.73,-47.5 616.73,-44 616.73,-51"/>
</g>
<!-- Node9 -->
<g id="node9" class="node">
<title>Node9</title>
<g id="a_node9"><a xlink:href="namespace_o_c_a_1_1_c_a_f_e_v_d_b_1_1_toolkit_1_1_traits.html#a97e3b3adabf67bc7d3650ed14214ddaa" target="_top" xlink:title="Return the stored logger class.">
<polygon fill="white" stroke="#666666" points="906,-86.5 785,-86.5 785,-56.5 906,-56.5 906,-86.5"/>
<text text-anchor="start" x="793" y="-74.5" font-family="Helvetica,sans-Serif" font-size="10.00">OCA\CAFEVDB\Toolkit</text>
<text text-anchor="middle" x="845.5" y="-63.5" font-family="Helvetica,sans-Serif" font-size="10.00">\Traits\logger</text>
</a>
</g>
</g>
<!-- Node8&#45;&gt;Node9 -->
<g id="edge8" class="edge">
<title>Node8&#45;&gt;Node9</title>
<path fill="none" stroke="#63b8ff" d="M749.43,-56.78C757.48,-58.03 765.81,-59.32 774.02,-60.59"/>
<polygon fill="#63b8ff" stroke="#63b8ff" points="773.31,-64.17 783.73,-62.25 774.39,-57.26 773.31,-64.17"/>
</g>
<!-- Node10 -->
<g id="node10" class="node">
<title>Node10</title>
<g id="a_node10"><a xlink:href="namespace_o_c_a_1_1_c_a_f_e_v_d_b_1_1_toolkit_1_1_traits.html#ab690a84fb4e720f43308bc354c392bee" target="_top" xlink:title="Map PSR log&#45;levels to ILogger log&#45;levels as the PsrLoggerAdapter only understands those.">
<polygon fill="white" stroke="#666666" points="906,-38.5 785,-38.5 785,-8.5 906,-8.5 906,-38.5"/>
<text text-anchor="start" x="793" y="-26.5" font-family="Helvetica,sans-Serif" font-size="10.00">OCA\CAFEVDB\Toolkit</text>
<text text-anchor="middle" x="845.5" y="-15.5" font-family="Helvetica,sans-Serif" font-size="10.00">\Traits\mapLogLevels</text>
</a>
</g>
</g>
<!-- Node8&#45;&gt;Node10 -->
<g id="edge9" class="edge">
<title>Node8&#45;&gt;Node10</title>
<path fill="none" stroke="#63b8ff" d="M749.43,-38.22C757.48,-36.97 765.81,-35.68 774.02,-34.41"/>
<polygon fill="#63b8ff" stroke="#63b8ff" points="774.39,-37.74 783.73,-32.75 773.31,-30.83 774.39,-37.74"/>
</g>
<!-- Node11&#45;&gt;Node7 -->
<g id="edge12" class="edge">
<title>Node11&#45;&gt;Node7</title>
<path fill="none" stroke="#63b8ff" d="M327.84,-15.48C363.21,-21.07 416.89,-29.55 460.13,-36.38"/>
<polygon fill="#63b8ff" stroke="#63b8ff" points="459.45,-39.98 469.88,-38.08 460.54,-33.06 459.45,-39.98"/>
</g>
</g>
</svg>
        <g id="navigator" transform="translate(0 0)" fill="#404254">
                <rect fill="#f2f5e9" fill-opacity="0.5" stroke="#606060" stroke-width=".5" x="0" y="0" width="60" height="60"/>
                <use id="zoomplus" xlink:href="#zoomPlus" x="17" y="9" onmousedown="handleZoom(evt,'in')"/>
                <use id="zoomminus" xlink:href="#zoomMin" x="42" y="9" onmousedown="handleZoom(evt,'out')"/>
                <use id="reset" xlink:href="#resetDef" x="30" y="36" onmousedown="handleReset()"/>
                <g id="arrowUp" xlink:href="#dirArrow" transform="translate(30 24)" onmousedown="handlePan(0,-1)">
                  <use xlink:href="#rim" fill="#404040">
                        <set attributeName="fill" to="#808080" begin="arrowUp.mouseover" end="arrowUp.mouseout"/>
                  </use>
                  <path fill="none" stroke="white" stroke-width="1.5" d="M0,-3.0v7 M-2.5,-0.5L0,-3.0L2.5,-0.5"/>
                </g>
                <g id="arrowRight" xlink:href="#dirArrow" transform="rotate(90) translate(36 -43)" onmousedown="handlePan(1,0)">
                  <use xlink:href="#rim" fill="#404040">
                        <set attributeName="fill" to="#808080" begin="arrowRight.mouseover" end="arrowRight.mouseout"/>
                  </use>
                  <path fill="none" stroke="white" stroke-width="1.5" d="M0,-3.0v7 M-2.5,-0.5L0,-3.0L2.5,-0.5"/>
                </g>
                <g id="arrowDown" xlink:href="#dirArrow" transform="rotate(180) translate(-30 -48)" onmousedown="handlePan(0,1)">
                  <use xlink:href="#rim" fill="#404040">
                        <set attributeName="fill" to="#808080" begin="arrowDown.mouseover" end="arrowDown.mouseout"/>
                  </use>
                  <path fill="none" stroke="white" stroke-width="1.5" d="M0,-3.0v7 M-2.5,-0.5L0,-3.0L2.5,-0.5"/>
                </g>
                <g id="arrowLeft" xlink:href="#dirArrow" transform="rotate(270) translate(-36 17)" onmousedown="handlePan(-1,0)">
                  <use xlink:href="#rim" fill="#404040">
                        <set attributeName="fill" to="#808080" begin="arrowLeft.mouseover" end="arrowLeft.mouseout"/>
                  </use>
                  <path fill="none" stroke="white" stroke-width="1.5" d="M0,-3.0v7 M-2.5,-0.5L0,-3.0L2.5,-0.5"/>
                </g>
        </g>
        <svg viewBox="0 0 15 15" width="100%" height="30px" preserveAspectRatio="xMaxYMin meet">
         <g id="arrow_out" transform="scale(0.3 0.3)">
          <a xlink:href="class_o_c_a_1_1_c_a_f_e_v_d_b_1_1_toolkit_1_1_service_1_1_group_folders_service_ab6b826e4a8edcd655850277fbb5e9e74_cgraph_org.svg" target="_base">
           <rect id="button" ry="5" rx="5" y="6" x="6" height="38" width="38"
                fill="#f2f5e9" fill-opacity="0.5" stroke="#606060" stroke-width="1.0"/>
           <path id="arrow"
             d="M 11.500037,31.436501 C 11.940474,20.09759 22.043105,11.32322 32.158766,21.979434 L 37.068811,17.246167 C 37.068811,17.246167 37.088388,32 37.088388,32 L 22.160133,31.978069 C 22.160133,31.978069 26.997745,27.140456 26.997745,27.140456 C 18.528582,18.264221 13.291696,25.230495 11.500037,31.436501 z"
             style="fill:#404040;"/>
          </a>
         </g>
        </svg>
</svg>
