<?xml version="1.0" encoding="UTF-8" standalone="no"?>
<!DOCTYPE svg PUBLIC "-//W3C//DTD SVG 1.1//EN"
 "http://www.w3.org/Graphics/SVG/1.1/DTD/svg11.dtd">
<!-- Generated by graphviz version 9.0.0 (20230911.1827)
 -->
<!-- Title: SepaBulkTransactions Pages: 1 -->
<svg width="242pt" height="221pt"
 viewBox="0.00 0.00 242.38 221.00" xmlns="http://www.w3.org/2000/svg" xmlns:xlink="http://www.w3.org/1999/xlink">

<svg id="main" version="1.1" xmlns="http://www.w3.org/2000/svg" xmlns:xlink="http://www.w3.org/1999/xlink" xml:space="preserve" onload="init(evt)">
<style type="text/css"><![CDATA[
.node, .edge {opacity: 0.7;}
.node.selected, .edge.selected {opacity: 1;}
.edge:hover path { stroke: red; }
.edge:hover polygon { stroke: red; fill: red; }
]]></style>
<script type="application/ecmascript" xlink:href="svg.min.js"/>
<svg id="graph" class="graph">
<g id="graph0" class="graph" transform="scale(1 1) rotate(0) translate(4 217)">
<title>SepaBulkTransactions</title>
<!-- Node1 -->
<g id="Node000001" class="node">
<title>Node1</title>
<g id="a_Node000001"><a xlink:title="TBD.">
<polygon fill="#999999" stroke="#666666" points="219,-20 104.75,-20 104.75,0 219,0 219,-20"/>
<text text-anchor="middle" x="161.88" y="-6.5" font-family="Helvetica,sans-Serif" font-size="10.00">SepaBulkTransactions</text>
</a>
</g>
</g>
<!-- Node2 -->
<g id="Node000002" class="node">
<title>Node2</title>
<g id="a_Node000002"><a xlink:href="class_o_c_a_1_1_c_a_f_e_v_d_b_1_1_page_renderer_1_1_p_m_e_table_view_base.html" target="_top" xlink:title="Base for phpMyEdit based table&#45;views.">
<polygon fill="white" stroke="#666666" points="167.5,-88 62.25,-88 62.25,-68 167.5,-68 167.5,-88"/>
<text text-anchor="middle" x="114.88" y="-74.5" font-family="Helvetica,sans-Serif" font-size="10.00">PMETableViewBase</text>
</a>
</g>
</g>
<!-- Node2&#45;&gt;Node1 -->
<g id="edge1_Node000001_Node000002" class="edge">
<title>Node2&#45;&gt;Node1</title>
<g id="a_edge1_Node000001_Node000002"><a xlink:title=" ">
<path fill="none" stroke="#63b8ff" d="M128.04,-58.52C136.86,-46.13 148.11,-30.33 155.15,-20.44"/>
<polygon fill="#63b8ff" stroke="#63b8ff" points="125.44,-56.13 122.49,-66.31 131.14,-60.2 125.44,-56.13"/>
</a>
</g>
</g>
<!-- Node3 -->
<g id="Node000003" class="node">
<title>Node3</title>
<g id="a_Node000003"><a xlink:href="class_o_c_a_1_1_c_a_f_e_v_d_b_1_1_page_renderer_1_1_renderer.html" target="_top" xlink:title="Abstract base HTML renderer.">
<polygon fill="white" stroke="#666666" points="55.75,-156 0,-156 0,-136 55.75,-136 55.75,-156"/>
<text text-anchor="middle" x="27.88" y="-142.5" font-family="Helvetica,sans-Serif" font-size="10.00">Renderer</text>
</a>
</g>
</g>
<!-- Node3&#45;&gt;Node2 -->
<g id="edge2_Node000002_Node000003" class="edge">
<title>Node3&#45;&gt;Node2</title>
<g id="a_edge2_Node000002_Node000003"><a xlink:title=" ">
<path fill="none" stroke="#63b8ff" d="M49.38,-128.69C66.07,-116.03 88.62,-98.92 102.43,-88.44"/>
<polygon fill="#63b8ff" stroke="#63b8ff" points="47.4,-125.8 41.55,-134.63 51.63,-131.37 47.4,-125.8"/>
</a>
</g>
</g>
<!-- Node4 -->
<g id="Node000004" class="node">
<title>Node4</title>
<g id="a_Node000004"><a xlink:href="interface_o_c_a_1_1_c_a_f_e_v_d_b_1_1_page_renderer_1_1_i_renderer.html" target="_top" xlink:title="HTML Renderer interface.">
<polygon fill="white" stroke="#666666" points="100.25,-213 41.5,-213 41.5,-193 100.25,-193 100.25,-213"/>
<text text-anchor="middle" x="70.88" y="-199.5" font-family="Helvetica,sans-Serif" font-size="10.00">IRenderer</text>
</a>
</g>
</g>
<!-- Node4&#45;&gt;Node3 -->
<g id="edge3_Node000003_Node000004" class="edge">
<title>Node4&#45;&gt;Node3</title>
<g id="a_edge3_Node000003_Node000004"><a xlink:title=" ">
<path fill="none" stroke="#63b8ff" d="M56.85,-184.06C49.6,-174.79 41.05,-163.86 35.13,-156.28"/>
<polygon fill="#63b8ff" stroke="#63b8ff" points="53.93,-186 62.84,-191.73 59.44,-181.69 53.93,-186"/>
</a>
</g>
</g>
<!-- Node5 -->
<g id="Node000005" class="node">
<title>Node5</title>
<g id="a_Node000005"><a xlink:href="interface_o_c_a_1_1_c_a_f_e_v_d_b_1_1_page_renderer_1_1_i_page_renderer.html" target="_top" xlink:title="Page&#45;renderer interface.">
<polygon fill="white" stroke="#666666" points="155.5,-156 74.25,-156 74.25,-136 155.5,-136 155.5,-156"/>
<text text-anchor="middle" x="114.88" y="-142.5" font-family="Helvetica,sans-Serif" font-size="10.00">IPageRenderer</text>
</a>
</g>
</g>
<!-- Node4&#45;&gt;Node5 -->
<g id="edge5_Node000005_Node000004" class="edge">
<title>Node4&#45;&gt;Node5</title>
<g id="a_edge5_Node000005_Node000004"><a xlink:title=" ">
<path fill="none" stroke="#63b8ff" d="M85.22,-184.06C92.64,-174.79 101.39,-163.86 107.45,-156.28"/>
<polygon fill="#63b8ff" stroke="#63b8ff" points="82.6,-181.74 79.09,-191.74 88.07,-186.11 82.6,-181.74"/>
</a>
</g>
</g>
<!-- Node5&#45;&gt;Node2 -->
<g id="edge4_Node000002_Node000005" class="edge">
<title>Node5&#45;&gt;Node2</title>
<g id="a_edge4_Node000002_Node000005"><a xlink:title=" ">
<path fill="none" stroke="#63b8ff" d="M114.88,-124.28C114.88,-112.27 114.88,-97.74 114.88,-88.44"/>
<polygon fill="#63b8ff" stroke="#63b8ff" points="111.38,-124.03 114.88,-134.03 118.38,-124.03 111.38,-124.03"/>
</a>
</g>
</g>
<!-- Node6 -->
<g id="Node000006" class="node">
<title>Node6</title>
<g id="a_Node000006"><a xlink:title=" ">
<polygon fill="white" stroke="#bfbfbf" points="216,-156 173.75,-156 173.75,-136 216,-136 216,-156"/>
<text text-anchor="middle" x="194.88" y="-142.5" font-family="Helvetica,sans-Serif" font-size="10.00">IL10N</text>
</a>
</g>
</g>
<!-- Node6&#45;&gt;Node2 -->
<g id="edge6_Node000002_Node000006" class="edge">
<title>Node6&#45;&gt;Node2</title>
<g id="a_edge6_Node000002_Node000006"><a xlink:title=" ">
<path fill="none" stroke="#9a32cd" stroke-dasharray="5,2" d="M174.67,-128.33C159.37,-115.71 138.9,-98.82 126.32,-88.44"/>
<polygon fill="#9a32cd" stroke="#9a32cd" points="172.3,-130.92 182.25,-134.58 176.76,-125.52 172.3,-130.92"/>
</a>
</g>
<text text-anchor="middle" x="168.12" y="-108.5" font-family="Helvetica,sans-Serif" font-size="10.00" fill="grey"> $l</text>
</g>
<!-- Node7 -->
<g id="Node000007" class="node">
<title>Node7</title>
<g id="a_Node000007"><a xlink:title=" ">
<polygon fill="white" stroke="#bfbfbf" points="234.38,-88 185.38,-88 185.38,-68 234.38,-68 234.38,-88"/>
<text text-anchor="middle" x="209.88" y="-74.5" font-family="Helvetica,sans-Serif" font-size="10.00">Entities</text>
</a>
</g>
</g>
<!-- Node7&#45;&gt;Node1 -->
<g id="edge7_Node000001_Node000007" class="edge">
<title>Node7&#45;&gt;Node1</title>
<g id="a_edge7_Node000001_Node000007"><a xlink:title=" ">
<path fill="none" stroke="#9a32cd" stroke-dasharray="5,2" d="M196.43,-58.52C187.42,-46.13 175.93,-30.33 168.74,-20.44"/>
<polygon fill="#9a32cd" stroke="#9a32cd" points="193.4,-60.29 202.11,-66.32 199.06,-56.17 193.4,-60.29"/>
</a>
</g>
<text text-anchor="middle" x="208.62" y="-40.5" font-family="Helvetica,sans-Serif" font-size="10.00" fill="grey"> $project</text>
</g>
</g>
</svg>
</svg>

<style type='text/css'>
<![CDATA[
[data-mouse-over-selected='false'] { opacity: 0.7; }
[data-mouse-over-selected='true']  { opacity: 1.0; }
]]>
</style>
<script type="application/ecmascript"><![CDATA[
document.addEventListener('DOMContentLoaded', (event) => {
  highlightEdges();
  highlightAdjacentNodes();
});
]]></script>
</svg>
