<?xml version="1.0" encoding="UTF-8" standalone="no"?>
<!DOCTYPE svg PUBLIC "-//W3C//DTD SVG 1.1//EN"
 "http://www.w3.org/Graphics/SVG/1.1/DTD/svg11.dtd">
<!-- Generated by graphviz version 9.0.0 (20230911.1827)
 -->
<!-- Title: pathInfo Pages: 1 -->
<svg width="811pt" height="360pt"
 viewBox="0.00 0.00 810.50 360.00" xmlns="http://www.w3.org/2000/svg" xmlns:xlink="http://www.w3.org/1999/xlink">
<g id="graph0" class="graph" transform="scale(1 1) rotate(0) translate(4 356)">
<title>pathInfo</title>
<!-- Node1 -->
<g id="Node000001" class="node">
<title>Node1</title>
<g id="a_Node000001"><a xlink:title="Slightly modified pathinfo() function which also normalized directories before computing the componen...">
<polygon fill="#999999" stroke="#666666" points="802.5,-139 751.25,-139 751.25,-119 802.5,-119 802.5,-139"/>
<text text-anchor="middle" x="776.88" y="-125.5" font-family="Helvetica,sans-Serif" font-size="10.00">pathInfo</text>
</a>
</g>
</g>
<!-- Node2 -->
<g id="Node000002" class="node">
<title>Node2</title>
<g id="a_Node000002"><a xlink:href="class_o_c_a_1_1_c_a_f_e_v_d_b_1_1_storage_1_1_database_1_1_storage.html#a7ec90cd17ef214d5fe4280b13d7c144a" target="_top" xlink:title="Fetch the file entity corresponding to file&#45;name.">
<polygon fill="white" stroke="#666666" points="706.62,-177 613.38,-177 613.38,-157 706.62,-157 706.62,-177"/>
<text text-anchor="middle" x="660" y="-163.5" font-family="Helvetica,sans-Serif" font-size="10.00">fileFromFileName</text>
</a>
</g>
</g>
<!-- Node1&#45;&gt;Node2 -->
<g id="edge1_Node000001_Node000002" class="edge">
<title>Node1&#45;&gt;Node2</title>
<g id="a_edge1_Node000001_Node000002"><a xlink:title=" ">
<path fill="none" stroke="#63b8ff" d="M740.31,-140.76C725.01,-145.83 707.27,-151.69 692.45,-156.6"/>
<polygon fill="#63b8ff" stroke="#63b8ff" points="741.12,-144.18 749.51,-137.72 738.92,-137.54 741.12,-144.18"/>
</a>
</g>
</g>
<!-- Node18 -->
<g id="Node000018" class="node">
<title>Node18</title>
<g id="a_Node000018"><a xlink:href="class_o_c_a_1_1_c_a_f_e_v_d_b_1_1_storage_1_1_database_1_1_storage.html#ac7863b39b783ea3446d2af5d5b251a32" target="_top" xlink:title="Insert a &quot;cache&quot; entry.">
<polygon fill="white" stroke="#666666" points="710,-139 610,-139 610,-119 710,-119 710,-139"/>
<text text-anchor="middle" x="660" y="-125.5" font-family="Helvetica,sans-Serif" font-size="10.00">setFileNameCache</text>
</a>
</g>
</g>
<!-- Node1&#45;&gt;Node18 -->
<g id="edge24_Node000001_Node000018" class="edge">
<title>Node1&#45;&gt;Node18</title>
<g id="a_edge24_Node000001_Node000018"><a xlink:title=" ">
<path fill="none" stroke="#63b8ff" d="M739.73,-129C730.43,-129 720.27,-129 710.43,-129"/>
<polygon fill="#63b8ff" stroke="#63b8ff" points="739.44,-132.5 749.44,-129 739.44,-125.5 739.44,-132.5"/>
</a>
</g>
</g>
<!-- Node19 -->
<g id="Node000019" class="node">
<title>Node19</title>
<g id="a_Node000019"><a xlink:href="class_o_c_a_1_1_c_a_f_e_v_d_b_1_1_storage_1_1_database_1_1_storage.html#a6adbf5f98e24ede0698c3c8cabf43067" target="_top" xlink:title="Remove a &quot;cache&quot; entry.">
<polygon fill="white" stroke="#666666" points="715.25,-101 604.75,-101 604.75,-81 715.25,-81 715.25,-101"/>
<text text-anchor="middle" x="660" y="-87.5" font-family="Helvetica,sans-Serif" font-size="10.00">unsetFileNameCache</text>
</a>
</g>
</g>
<!-- Node1&#45;&gt;Node19 -->
<g id="edge25_Node000001_Node000019" class="edge">
<title>Node1&#45;&gt;Node19</title>
<g id="a_edge25_Node000001_Node000019"><a xlink:title=" ">
<path fill="none" stroke="#63b8ff" d="M740.31,-117.24C725.01,-112.17 707.27,-106.31 692.45,-101.4"/>
<polygon fill="#63b8ff" stroke="#63b8ff" points="738.92,-120.46 749.51,-120.28 741.12,-113.82 738.92,-120.46"/>
</a>
</g>
</g>
<!-- Node3 -->
<g id="Node000003" class="node">
<title>Node3</title>
<g id="a_Node000003"><a xlink:href="class_o_c_a_1_1_c_a_f_e_v_d_b_1_1_storage_1_1_database_1_1_storage.html#adeb1bc07330c61c5b94a88bc857fa7c2" target="_top" xlink:title="{}">
<polygon fill="white" stroke="#666666" points="356.25,-272 296,-272 296,-252 356.25,-252 356.25,-272"/>
<text text-anchor="middle" x="326.12" y="-258.5" font-family="Helvetica,sans-Serif" font-size="10.00">file_exists</text>
</a>
</g>
</g>
<!-- Node2&#45;&gt;Node3 -->
<g id="edge2_Node000002_Node000003" class="edge">
<title>Node2&#45;&gt;Node3</title>
<g id="a_edge2_Node000002_Node000003"><a xlink:title=" ">
<path fill="none" stroke="#63b8ff" d="M637.65,-184.04C620.16,-197.09 594.22,-214.42 568.75,-224 495.81,-251.42 403.29,-259.06 356.74,-261.18"/>
<polygon fill="#63b8ff" stroke="#63b8ff" points="639.43,-187.08 645.24,-178.22 635.17,-181.52 639.43,-187.08"/>
</a>
</g>
</g>
<!-- Node7 -->
<g id="Node000007" class="node">
<title>Node7</title>
<g id="a_Node000007"><a xlink:href="class_o_c_a_1_1_c_a_f_e_v_d_b_1_1_storage_1_1_database_1_1_storage.html#ae16b6afbab9462a9af681b9393af361e" target="_top" xlink:title="{}">
<polygon fill="white" stroke="#666666" points="354,-196 298.25,-196 298.25,-176 354,-176 354,-196"/>
<text text-anchor="middle" x="326.12" y="-182.5" font-family="Helvetica,sans-Serif" font-size="10.00">filemtime</text>
</a>
</g>
</g>
<!-- Node2&#45;&gt;Node7 -->
<g id="edge7_Node000002_Node000007" class="edge">
<title>Node2&#45;&gt;Node7</title>
<g id="a_edge7_Node000002_Node000007"><a xlink:title=" ">
<path fill="none" stroke="#63b8ff" d="M630.35,-182.54C613.06,-191.02 590.28,-200.65 568.75,-205 491.86,-220.53 469.91,-216.1 392.25,-205 379.54,-203.18 365.85,-199.47 354.31,-195.8"/>
<polygon fill="#63b8ff" stroke="#63b8ff" points="631.66,-185.79 639,-178.15 628.49,-179.55 631.66,-185.79"/>
</a>
</g>
</g>
<!-- Node9 -->
<g id="Node000009" class="node">
<title>Node9</title>
<g id="a_Node000009"><a xlink:href="class_o_c_a_1_1_c_a_f_e_v_d_b_1_1_storage_1_1_database_1_1_storage.html#ad22e004288b7149fe24fb166f4cff9ee" target="_top" xlink:title="{}">
<polygon fill="white" stroke="#666666" points="349.5,-82 302.75,-82 302.75,-62 349.5,-62 349.5,-82"/>
<text text-anchor="middle" x="326.12" y="-68.5" font-family="Helvetica,sans-Serif" font-size="10.00">filesize</text>
</a>
</g>
</g>
<!-- Node2&#45;&gt;Node9 -->
<g id="edge9_Node000002_Node000009" class="edge">
<title>Node2&#45;&gt;Node9</title>
<g id="a_edge9_Node000002_Node000009"><a xlink:title=" ">
<path fill="none" stroke="#63b8ff" d="M615.89,-152.56C612.09,-151.09 608.33,-149.56 604.75,-148 588.17,-140.77 585.75,-135.18 568.75,-129 493.34,-101.57 470.04,-110.69 392.25,-91 378.09,-87.42 362.37,-82.85 349.92,-79.09"/>
<polygon fill="#63b8ff" stroke="#63b8ff" points="614.55,-155.8 625.15,-156 616.99,-149.24 614.55,-155.8"/>
</a>
</g>
</g>
<!-- Node12 -->
<g id="Node000012" class="node">
<title>Node12</title>
<g id="a_Node000012"><a xlink:href="class_o_c_a_1_1_c_a_f_e_v_d_b_1_1_storage_1_1_database_1_1_storage.html#a9d7ac9f8614357ce6b7358708b9ab040" target="_top" xlink:title=" ">
<polygon fill="white" stroke="#666666" points="552.25,-196 408.75,-196 408.75,-176 552.25,-176 552.25,-196"/>
<text text-anchor="middle" x="480.5" y="-182.5" font-family="Helvetica,sans-Serif" font-size="10.00">getDirectoryModificationTime</text>
</a>
</g>
</g>
<!-- Node2&#45;&gt;Node12 -->
<g id="edge12_Node000002_Node000012" class="edge">
<title>Node2&#45;&gt;Node12</title>
<g id="a_edge12_Node000002_Node000012"><a xlink:title=" ">
<path fill="none" stroke="#63b8ff" d="M602.11,-173.09C586.34,-174.78 569.02,-176.63 552.55,-178.39"/>
<polygon fill="#63b8ff" stroke="#63b8ff" points="602.21,-176.6 611.78,-172.05 601.47,-169.64 602.21,-176.6"/>
</a>
</g>
</g>
<!-- Node13 -->
<g id="Node000013" class="node">
<title>Node13</title>
<g id="a_Node000013"><a xlink:href="class_o_c_a_1_1_c_a_f_e_v_d_b_1_1_storage_1_1_database_1_1_project_balance_supporting_documents_storage.html#ae4876df7e6054a7651ab7363c175822e" target="_top" xlink:title="{}">
<polygon fill="white" stroke="#666666" points="568.75,-82 392.25,-82 392.25,-38 568.75,-38 568.75,-82"/>
<text text-anchor="start" x="400.25" y="-68.5" font-family="Helvetica,sans-Serif" font-size="10.00">OCA\CAFEVDB\Storage</text>
<text text-anchor="start" x="400.25" y="-56.5" font-family="Helvetica,sans-Serif" font-size="10.00">\Database\ProjectBalanceSupporting</text>
<text text-anchor="middle" x="480.5" y="-44.5" font-family="Helvetica,sans-Serif" font-size="10.00">DocumentsStorage\getRootFolder</text>
</a>
</g>
</g>
<!-- Node2&#45;&gt;Node13 -->
<g id="edge14_Node000002_Node000013" class="edge">
<title>Node2&#45;&gt;Node13</title>
<g id="a_edge14_Node000002_Node000013"><a xlink:title=" ">
<path fill="none" stroke="#63b8ff" d="M609.54,-151.29C607.88,-150.26 606.28,-149.16 604.75,-148 582.39,-130.96 590.64,-113.64 568.75,-96 562.37,-90.86 555.15,-86.35 547.67,-82.43"/>
<polygon fill="#63b8ff" stroke="#63b8ff" points="607.72,-154.29 618.2,-155.83 610.97,-148.09 607.72,-154.29"/>
</a>
</g>
</g>
<!-- Node14 -->
<g id="Node000014" class="node">
<title>Node14</title>
<g id="a_Node000014"><a xlink:href="class_o_c_a_1_1_c_a_f_e_v_d_b_1_1_storage_1_1_database_1_1_storage.html#a5877dd78fbe10fb5f3ee3d25e3fbe11e" target="_top" xlink:title="{}">
<polygon fill="white" stroke="#666666" points="500.12,-158 460.88,-158 460.88,-138 500.12,-138 500.12,-158"/>
<text text-anchor="middle" x="480.5" y="-144.5" font-family="Helvetica,sans-Serif" font-size="10.00">is_dir</text>
</a>
</g>
</g>
<!-- Node2&#45;&gt;Node14 -->
<g id="edge15_Node000002_Node000014" class="edge">
<title>Node2&#45;&gt;Node14</title>
<g id="a_edge15_Node000002_Node000014"><a xlink:title=" ">
<path fill="none" stroke="#63b8ff" d="M602.24,-160.92C567.28,-157.18 524.68,-152.62 500.56,-150.04"/>
<polygon fill="#63b8ff" stroke="#63b8ff" points="601.47,-164.36 611.78,-161.95 602.21,-157.4 601.47,-164.36"/>
</a>
</g>
</g>
<!-- Node16 -->
<g id="Node000016" class="node">
<title>Node16</title>
<g id="a_Node000016"><a xlink:href="class_o_c_a_1_1_c_a_f_e_v_d_b_1_1_storage_1_1_database_1_1_storage.html#a893a92915f20d637be8bcee4201900a5" target="_top" xlink:title="{}">
<polygon fill="white" stroke="#666666" points="496.75,-20 464.25,-20 464.25,0 496.75,0 496.75,-20"/>
<text text-anchor="middle" x="480.5" y="-6.5" font-family="Helvetica,sans-Serif" font-size="10.00">stat</text>
</a>
</g>
</g>
<!-- Node2&#45;&gt;Node16 -->
<g id="edge21_Node000002_Node000016" class="edge">
<title>Node2&#45;&gt;Node16</title>
<g id="a_edge21_Node000002_Node000016"><a xlink:title=" ">
<path fill="none" stroke="#63b8ff" d="M607.02,-150.18C606.23,-149.48 605.47,-148.76 604.75,-148 566.53,-108.09 609.34,-66.49 568.75,-29 549.16,-10.91 516.51,-8.55 497.19,-8.95"/>
<polygon fill="#63b8ff" stroke="#63b8ff" points="604.86,-152.94 615.07,-155.74 608.83,-147.18 604.86,-152.94"/>
</a>
</g>
</g>
<!-- Node17 -->
<g id="Node000017" class="node">
<title>Node17</title>
<g id="a_Node000017"><a xlink:href="class_o_c_a_1_1_c_a_f_e_v_d_b_1_1_storage_1_1_database_1_1_storage.html#ad6244fc254de2b00ab567e4e0b82a4b3" target="_top" xlink:title="{}">
<polygon fill="white" stroke="#666666" points="346.88,-328 305.38,-328 305.38,-308 346.88,-308 346.88,-328"/>
<text text-anchor="middle" x="326.12" y="-314.5" font-family="Helvetica,sans-Serif" font-size="10.00">unlink</text>
</a>
</g>
</g>
<!-- Node2&#45;&gt;Node17 -->
<g id="edge22_Node000002_Node000017" class="edge">
<title>Node2&#45;&gt;Node17</title>
<g id="a_edge22_Node000002_Node000017"><a xlink:title=" ">
<path fill="none" stroke="#63b8ff" d="M644.3,-186.36C628,-206.48 599.87,-237.43 568.75,-255 494,-297.2 390.34,-311.81 347.2,-316.26"/>
<polygon fill="#63b8ff" stroke="#63b8ff" points="646.94,-188.67 650.38,-178.64 641.44,-184.33 646.94,-188.67"/>
</a>
</g>
</g>
<!-- Node4 -->
<g id="Node000004" class="node">
<title>Node4</title>
<g id="a_Node000004"><a xlink:href="class_o_c_a_1_1_c_a_f_e_v_d_b_1_1_storage_1_1_database_1_1_storage.html#a4572a171f5a258fb746f2ec694f377ee" target="_top" xlink:title="{}">
<polygon fill="white" stroke="#666666" points="191.75,-334 151.75,-334 151.75,-314 191.75,-314 191.75,-334"/>
<text text-anchor="middle" x="171.75" y="-320.5" font-family="Helvetica,sans-Serif" font-size="10.00">fopen</text>
</a>
</g>
</g>
<!-- Node3&#45;&gt;Node4 -->
<g id="edge3_Node000003_Node000004" class="edge">
<title>Node3&#45;&gt;Node4</title>
<g id="a_edge3_Node000003_Node000004"><a xlink:title=" ">
<path fill="none" stroke="#63b8ff" d="M303.58,-279.16C291.41,-288.07 275.56,-298.44 260,-305 237.72,-314.4 210.19,-319.4 192.09,-321.87"/>
<polygon fill="#63b8ff" stroke="#63b8ff" points="305.41,-282.17 311.27,-273.34 301.18,-276.58 305.41,-282.17"/>
</a>
</g>
</g>
<!-- Node5 -->
<g id="Node000005" class="node">
<title>Node5</title>
<g id="a_Node000005"><a xlink:href="class_o_c_a_1_1_c_a_f_e_v_d_b_1_1_storage_1_1_database_1_1_storage.html#ab7218f0ad1a09fdb0e0157d2beadbfb2" target="_top" xlink:title="{}">
<polygon fill="white" stroke="#666666" points="204.12,-296 139.38,-296 139.38,-276 204.12,-276 204.12,-296"/>
<text text-anchor="middle" x="171.75" y="-282.5" font-family="Helvetica,sans-Serif" font-size="10.00">isReadable</text>
</a>
</g>
</g>
<!-- Node3&#45;&gt;Node5 -->
<g id="edge5_Node000003_Node000005" class="edge">
<title>Node3&#45;&gt;Node5</title>
<g id="a_edge5_Node000003_Node000005"><a xlink:title=" ">
<path fill="none" stroke="#63b8ff" d="M284.38,-268.42C259.29,-272.37 227.6,-277.36 204.4,-281.01"/>
<polygon fill="#63b8ff" stroke="#63b8ff" points="284.92,-271.88 294.25,-266.86 283.83,-264.96 284.92,-271.88"/>
</a>
</g>
</g>
<!-- Node6 -->
<g id="Node000006" class="node">
<title>Node6</title>
<g id="a_Node000006"><a xlink:href="class_o_c_a_1_1_c_a_f_e_v_d_b_1_1_storage_1_1_database_1_1_project_balance_supporting_documents_storage.html#a8899a09a9d81b77b06ec4e371278d536" target="_top" xlink:title="{{}}">
<polygon fill="white" stroke="#666666" points="260,-258 83.5,-258 83.5,-214 260,-214 260,-258"/>
<text text-anchor="start" x="91.5" y="-244.5" font-family="Helvetica,sans-Serif" font-size="10.00">OCA\CAFEVDB\Storage</text>
<text text-anchor="start" x="91.5" y="-232.5" font-family="Helvetica,sans-Serif" font-size="10.00">\Database\ProjectBalanceSupporting</text>
<text text-anchor="middle" x="171.75" y="-220.5" font-family="Helvetica,sans-Serif" font-size="10.00">DocumentsStorage\isUpdatable</text>
</a>
</g>
</g>
<!-- Node3&#45;&gt;Node6 -->
<g id="edge6_Node000003_Node000006" class="edge">
<title>Node3&#45;&gt;Node6</title>
<g id="a_edge6_Node000003_Node000006"><a xlink:title=" ">
<path fill="none" stroke="#63b8ff" d="M284.43,-255.06C276.88,-253.77 268.73,-252.38 260.39,-250.95"/>
<polygon fill="#63b8ff" stroke="#63b8ff" points="283.81,-258.5 294.25,-256.73 284.98,-251.6 283.81,-258.5"/>
</a>
</g>
</g>
<!-- Node4&#45;&gt;Node4 -->
<g id="edge4_Node000004_Node000004" class="edge">
<title>Node4&#45;&gt;Node4</title>
<g id="a_edge4_Node000004_Node000004"><a xlink:title=" ">
<path fill="none" stroke="#63b8ff" d="M199.45,-340.76C200.26,-346.93 191.03,-352 171.75,-352 143.71,-352 136.92,-341.28 151.38,-332.03"/>
<polygon fill="#63b8ff" stroke="#63b8ff" points="202.2,-338.6 193.1,-333.19 196.84,-343.1 202.2,-338.6"/>
</a>
</g>
</g>
<!-- Node8 -->
<g id="Node000008" class="node">
<title>Node8</title>
<g id="a_Node000008"><a xlink:href="class_o_c_a_1_1_c_a_f_e_v_d_b_1_1_storage_1_1_database_1_1_storage.html#ae949e0991a703081d8b1c95f871e5025" target="_top" xlink:title="{}">
<polygon fill="white" stroke="#666666" points="206,-196 137.5,-196 137.5,-176 206,-176 206,-196"/>
<text text-anchor="middle" x="171.75" y="-182.5" font-family="Helvetica,sans-Serif" font-size="10.00">hasUpdated</text>
</a>
</g>
</g>
<!-- Node7&#45;&gt;Node8 -->
<g id="edge8_Node000007_Node000008" class="edge">
<title>Node7&#45;&gt;Node8</title>
<g id="a_edge8_Node000007_Node000008"><a xlink:title=" ">
<path fill="none" stroke="#63b8ff" d="M286.39,-186C261.71,-186 230.05,-186 206.41,-186"/>
<polygon fill="#63b8ff" stroke="#63b8ff" points="286.37,-189.5 296.37,-186 286.37,-182.5 286.37,-189.5"/>
</a>
</g>
</g>
<!-- Node10 -->
<g id="Node000010" class="node">
<title>Node10</title>
<g id="a_Node000010"><a xlink:href="class_o_c_a_1_1_c_a_f_e_v_d_b_1_1_storage_1_1_database_1_1_storage.html#ae93aaa5a52d031b9df08764bda508255" target="_top" xlink:title="{}">
<polygon fill="white" stroke="#666666" points="192.5,-101 151,-101 151,-81 192.5,-81 192.5,-101"/>
<text text-anchor="middle" x="171.75" y="-87.5" font-family="Helvetica,sans-Serif" font-size="10.00">is_file</text>
</a>
</g>
</g>
<!-- Node9&#45;&gt;Node10 -->
<g id="edge10_Node000009_Node000010" class="edge">
<title>Node9&#45;&gt;Node10</title>
<g id="a_edge10_Node000009_Node000010"><a xlink:title=" ">
<path fill="none" stroke="#63b8ff" d="M291.04,-76.25C260.84,-80.02 217.77,-85.39 192.8,-88.5"/>
<polygon fill="#63b8ff" stroke="#63b8ff" points="291.32,-79.74 300.81,-75.03 290.45,-72.8 291.32,-79.74"/>
</a>
</g>
</g>
<!-- Node11 -->
<g id="Node000011" class="node">
<title>Node11</title>
<g id="a_Node000011"><a xlink:href="class_o_c_a_1_1_c_a_f_e_v_d_b_1_1_storage_1_1_database_1_1_storage.html#a5dfe312b58b1d4f0dddbe0d1cf96fa2e" target="_top" xlink:title="{}">
<polygon fill="white" stroke="#666666" points="47.5,-120 0,-120 0,-100 47.5,-100 47.5,-120"/>
<text text-anchor="middle" x="23.75" y="-106.5" font-family="Helvetica,sans-Serif" font-size="10.00">filetype</text>
</a>
</g>
</g>
<!-- Node10&#45;&gt;Node11 -->
<g id="edge11_Node000010_Node000011" class="edge">
<title>Node10&#45;&gt;Node11</title>
<g id="a_edge11_Node000010_Node000011"><a xlink:title=" ">
<path fill="none" stroke="#63b8ff" d="M139.42,-95.08C111.93,-98.66 72.59,-103.77 47.87,-106.99"/>
<polygon fill="#63b8ff" stroke="#63b8ff" points="139.79,-98.56 149.25,-93.8 138.89,-91.62 139.79,-98.56"/>
</a>
</g>
</g>
<!-- Node12&#45;&gt;Node7 -->
<g id="edge13_Node000012_Node000007" class="edge">
<title>Node12&#45;&gt;Node7</title>
<g id="a_edge13_Node000012_Node000007"><a xlink:title=" ">
<path fill="none" stroke="#63b8ff" d="M397.36,-186C381.86,-186 366.68,-186 354.43,-186"/>
<polygon fill="#63b8ff" stroke="#63b8ff" points="397.15,-189.5 407.15,-186 397.15,-182.5 397.15,-189.5"/>
</a>
</g>
</g>
<!-- Node14&#45;&gt;Node3 -->
<g id="edge16_Node000014_Node000003" class="edge">
<title>Node14&#45;&gt;Node3</title>
<g id="a_edge16_Node000014_Node000003"><a xlink:title=" ">
<path fill="none" stroke="#63b8ff" d="M449.31,-149.08C431.42,-150.98 409.05,-155.7 392.25,-167 375.74,-178.1 345.55,-229.35 332.92,-251.62"/>
<polygon fill="#63b8ff" stroke="#63b8ff" points="449.38,-152.58 459.07,-148.29 448.82,-145.6 449.38,-152.58"/>
</a>
</g>
</g>
<!-- Node14&#45;&gt;Node7 -->
<g id="edge17_Node000014_Node000007" class="edge">
<title>Node14&#45;&gt;Node7</title>
<g id="a_edge17_Node000014_Node000007"><a xlink:title=" ">
<path fill="none" stroke="#63b8ff" d="M449.8,-153.93C432.87,-157.45 411.29,-162.15 392.25,-167 379.69,-170.19 365.9,-174.15 354.26,-177.63"/>
<polygon fill="#63b8ff" stroke="#63b8ff" points="450.11,-157.44 459.21,-152.01 448.71,-150.58 450.11,-157.44"/>
</a>
</g>
</g>
<!-- Node14&#45;&gt;Node9 -->
<g id="edge18_Node000014_Node000009" class="edge">
<title>Node14&#45;&gt;Node9</title>
<g id="a_edge18_Node000014_Node000009"><a xlink:title=" ">
<path fill="none" stroke="#63b8ff" d="M449.23,-143.33C431.79,-139.77 409.9,-133.76 392.25,-124 373.26,-113.5 373.4,-104.31 356.25,-91 352.43,-88.04 348.16,-85.07 344.08,-82.39"/>
<polygon fill="#63b8ff" stroke="#63b8ff" points="448.52,-146.76 458.99,-145.15 449.8,-139.88 448.52,-146.76"/>
</a>
</g>
</g>
<!-- Node14&#45;&gt;Node11 -->
<g id="edge19_Node000014_Node000011" class="edge">
<title>Node14&#45;&gt;Node11</title>
<g id="a_edge19_Node000014_Node000011"><a xlink:title=" ">
<path fill="none" stroke="#63b8ff" d="M449.11,-145.46C363.78,-138.33 123.28,-118.23 47.75,-111.92"/>
<polygon fill="#63b8ff" stroke="#63b8ff" points="448.77,-148.94 459.03,-146.29 449.36,-141.97 448.77,-148.94"/>
</a>
</g>
</g>
<!-- Node15 -->
<g id="Node000015" class="node">
<title>Node15</title>
<g id="a_Node000015"><a xlink:href="class_o_c_a_1_1_c_a_f_e_v_d_b_1_1_storage_1_1_database_1_1_storage.html#a1ca869d721a349a2b5efaaca3dffc49d" target="_top" xlink:title="{}">
<polygon fill="white" stroke="#666666" points="349.88,-120 302.38,-120 302.38,-100 349.88,-100 349.88,-120"/>
<text text-anchor="middle" x="326.12" y="-106.5" font-family="Helvetica,sans-Serif" font-size="10.00">opendir</text>
</a>
</g>
</g>
<!-- Node14&#45;&gt;Node15 -->
<g id="edge20_Node000014_Node000015" class="edge">
<title>Node14&#45;&gt;Node15</title>
<g id="a_edge20_Node000014_Node000015"><a xlink:title=" ">
<path fill="none" stroke="#63b8ff" d="M449.39,-140.49C420.3,-133.24 376.86,-122.4 350.35,-115.79"/>
<polygon fill="#63b8ff" stroke="#63b8ff" points="448.49,-143.87 459.04,-142.9 450.19,-137.08 448.49,-143.87"/>
</a>
</g>
</g>
<!-- Node17&#45;&gt;Node4 -->
<g id="edge23_Node000017_Node000004" class="edge">
<title>Node17&#45;&gt;Node4</title>
<g id="a_edge23_Node000017_Node000004"><a xlink:title=" ">
<path fill="none" stroke="#63b8ff" d="M293.59,-319.24C263.03,-320.45 217.67,-322.23 192.1,-323.24"/>
<polygon fill="#63b8ff" stroke="#63b8ff" points="293.52,-322.75 303.38,-318.86 293.25,-315.75 293.52,-322.75"/>
</a>
</g>
</g>
</g>
</svg>
