<?xml version="1.0" encoding="UTF-8" standalone="no"?>
<!DOCTYPE svg PUBLIC "-//W3C//DTD SVG 1.1//EN"
 "http://www.w3.org/Graphics/SVG/1.1/DTD/svg11.dtd">
<!-- Generated by graphviz version 8.0.3 (20230416.2022)
 -->
<!-- Title: configureAnnouncementsList Pages: 1 -->
<!--zoomable 179 -->
<svg id="main" version="1.1" xmlns="http://www.w3.org/2000/svg" xmlns:xlink="http://www.w3.org/1999/xlink" xml:space="preserve" onload="init(evt)">
<style type="text/css"><![CDATA[
.edge:hover path { stroke: red; }
.edge:hover polygon { stroke: red; fill: red; }
]]></style>
<script type="text/javascript"><![CDATA[
var edges = document.getElementsByTagName('g');
if (edges && edges.length) {
  for (var i=0;i<edges.length;i++) {
    if (edges[i].id.substr(0,4)=='edge') {
      edges[i].setAttribute('class','edge');
    }
  }
}
]]></script>
        <defs>
                <circle id="rim" cx="0" cy="0" r="7"/>
                <circle id="rim2" cx="0" cy="0" r="3.5"/>
                <g id="zoomPlus">
                        <use xlink:href="#rim" fill="#404040">
                                <set attributeName="fill" to="#808080" begin="zoomplus.mouseover" end="zoomplus.mouseout"/>
                        </use>
                        <path d="M-4,0h8M0,-4v8" fill="none" stroke="white" stroke-width="1.5" pointer-events="none"/>
                </g>
                <g id="zoomMin">
                        <use xlink:href="#rim" fill="#404040">
                                <set attributeName="fill" to="#808080" begin="zoomminus.mouseover" end="zoomminus.mouseout"/>
                        </use>
                        <path d="M-4,0h8" fill="none" stroke="white" stroke-width="1.5" pointer-events="none"/>
                </g>
                <g id="dirArrow">
                        <path fill="none" stroke="white" stroke-width="1.5" d="M0,-3.0v7 M-2.5,-0.5L0,-3.0L2.5,-0.5"/>
                </g>
               <g id="resetDef">
                       <use xlink:href="#rim2" fill="#404040">
                               <set attributeName="fill" to="#808080" begin="reset.mouseover" end="reset.mouseout"/>
                       </use>
               </g>
        </defs>

<script type="text/javascript">
var viewWidth = 856;
var viewHeight = 179;
var sectionId = 'dynsection-2';
</script>
<script xlink:href="svgpan.js"/>
<svg id="graph" class="graph">
<g id="viewport">
<title>configureAnnouncementsList</title>
<!-- Node1 -->
<g id="node1" class="node">
<title>Node1</title>
<g id="a_node1"><a xlink:title="Configure the given list as an announcements&#45;only list.">
<polygon fill="#999999" stroke="#666666" points="143,-132 0,-132 0,-113 143,-113 143,-132"/>
<text text-anchor="middle" x="71.5" y="-120" font-family="Helvetica,sans-Serif" font-size="10.00">configureAnnouncementsList</text>
</a>
</g>
</g>
<!-- Node2 -->
<g id="node2" class="node">
<title>Node2</title>
<g id="a_node2"><a xlink:href="class_o_c_a_1_1_c_a_f_e_v_d_b_1_1_service_1_1_mailing_lists_service.html#afee0c31807c7ddcd4265d994df850134" target="_top" xlink:title="Ensure that the given string is a list&#45;id, if it is a FQDN then try to retrieve the list&#45;id.">
<polygon fill="white" stroke="#666666" points="660,-132 590,-132 590,-113 660,-113 660,-132"/>
<text text-anchor="middle" x="625" y="-120" font-family="Helvetica,sans-Serif" font-size="10.00">ensureListId</text>
</a>
</g>
</g>
<!-- Node1&#45;&gt;Node2 -->
<g id="edge1" class="edge">
<title>Node1&#45;&gt;Node2</title>
<path fill="none" stroke="#63b8ff" d="M98.31,-132.36C119.6,-139.97 150.79,-149.96 179,-154.5 343.65,-181 390.38,-173.76 554,-141.5 562.7,-139.79 571.9,-137.58 580.68,-135.28"/>
<polygon fill="#63b8ff" stroke="#63b8ff" points="581.37,-138.44 590.11,-132.45 579.54,-131.69 581.37,-138.44"/>
</g>
<!-- Node5 -->
<g id="node5" class="node">
<title>Node5</title>
<g id="a_node5"><a xlink:href="class_o_c_a_1_1_c_a_f_e_v_d_b_1_1_service_1_1_mailing_lists_service.html#afca2835840699d3b8c7db3ab0c596cd5" target="_top" xlink:title="Find the basic information about a subscription for the given email.">
<polygon fill="white" stroke="#666666" points="550,-132 466,-132 466,-113 550,-113 550,-132"/>
<text text-anchor="middle" x="508" y="-120" font-family="Helvetica,sans-Serif" font-size="10.00">getSubscription</text>
</a>
</g>
</g>
<!-- Node1&#45;&gt;Node5 -->
<g id="edge4" class="edge">
<title>Node1&#45;&gt;Node5</title>
<path fill="none" stroke="#63b8ff" d="M136.88,-132.46C207.89,-141.93 325.42,-153.14 426,-141.5 437.86,-140.13 450.51,-137.66 462.21,-134.95"/>
<polygon fill="#63b8ff" stroke="#63b8ff" points="462.73,-138.18 471.62,-132.41 461.08,-131.37 462.73,-138.18"/>
</g>
<!-- Node6 -->
<g id="node6" class="node">
<title>Node6</title>
<g id="a_node6"><a xlink:href="class_o_c_a_1_1_c_a_f_e_v_d_b_1_1_service_1_1_mailing_lists_service.html#a56dd65a95afc760129f3e87827317339" target="_top" xlink:title="Patch the membership config for the given email address.">
<polygon fill="white" stroke="#666666" points="395.5,-132 319.5,-132 319.5,-113 395.5,-113 395.5,-132"/>
<text text-anchor="middle" x="357.5" y="-120" font-family="Helvetica,sans-Serif" font-size="10.00">patchMember</text>
</a>
</g>
</g>
<!-- Node1&#45;&gt;Node6 -->
<g id="edge6" class="edge">
<title>Node1&#45;&gt;Node6</title>
<path fill="none" stroke="#63b8ff" d="M143.43,-122.5C194.78,-122.5 262.82,-122.5 308.05,-122.5"/>
<polygon fill="#63b8ff" stroke="#63b8ff" points="308.04,-126 318.04,-122.5 308.04,-119 308.04,-126"/>
</g>
<!-- Node7 -->
<g id="node7" class="node">
<title>Node7</title>
<g id="a_node7"><a xlink:href="class_o_c_a_1_1_c_a_f_e_v_d_b_1_1_service_1_1_mailing_lists_service.html#a244d78e268200be66803a1a2aed8b863" target="_top" xlink:title="Set the list config.">
<polygon fill="white" stroke="#666666" points="253,-94 179,-94 179,-75 253,-75 253,-94"/>
<text text-anchor="middle" x="216" y="-82" font-family="Helvetica,sans-Serif" font-size="10.00">setListConfig</text>
</a>
</g>
</g>
<!-- Node1&#45;&gt;Node7 -->
<g id="edge8" class="edge">
<title>Node1&#45;&gt;Node7</title>
<path fill="none" stroke="#63b8ff" d="M109.94,-112.52C127.81,-107.75 149.37,-102 168.3,-96.95"/>
<polygon fill="#63b8ff" stroke="#63b8ff" points="169.03,-100.11 177.79,-94.16 167.23,-93.35 169.03,-100.11"/>
</g>
<!-- Node8 -->
<g id="node8" class="node">
<title>Node8</title>
<g id="a_node8"><a xlink:href="class_o_c_a_1_1_c_a_f_e_v_d_b_1_1_service_1_1_mailing_lists_service.html#aae6bb5b400c885119ac384eb304b42dd" target="_top" xlink:title="Subscribe a victim to the email&#45;list.">
<polygon fill="white" stroke="#666666" points="245.5,-57 186.5,-57 186.5,-38 245.5,-38 245.5,-57"/>
<text text-anchor="middle" x="216" y="-45" font-family="Helvetica,sans-Serif" font-size="10.00">subscribe</text>
</a>
</g>
</g>
<!-- Node1&#45;&gt;Node8 -->
<g id="edge9" class="edge">
<title>Node1&#45;&gt;Node8</title>
<path fill="none" stroke="#63b8ff" d="M91.42,-112.54C115.83,-99.69 158.5,-77.24 186.76,-62.37"/>
<polygon fill="#63b8ff" stroke="#63b8ff" points="188.23,-65.02 195.45,-57.26 184.97,-58.82 188.23,-65.02"/>
</g>
<!-- Node3 -->
<g id="node3" class="node">
<title>Node3</title>
<g id="a_node3"><a xlink:href="class_o_c_a_1_1_c_a_f_e_v_d_b_1_1_service_1_1_mailing_lists_service.html#ae79714b9375ce65edd9c71e2d97e06ab" target="_top" xlink:title="Fetch the list&#45;id of the given list.">
<polygon fill="white" stroke="#666666" points="750,-132 696,-132 696,-113 750,-113 750,-132"/>
<text text-anchor="middle" x="723" y="-120" font-family="Helvetica,sans-Serif" font-size="10.00">getListId</text>
</a>
</g>
</g>
<!-- Node2&#45;&gt;Node3 -->
<g id="edge2" class="edge">
<title>Node2&#45;&gt;Node3</title>
<path fill="none" stroke="#63b8ff" d="M660.39,-122.5C668.29,-122.5 676.72,-122.5 684.73,-122.5"/>
<polygon fill="#63b8ff" stroke="#63b8ff" points="684.68,-126 694.68,-122.5 684.68,-119 684.68,-126"/>
</g>
<!-- Node4 -->
<g id="node4" class="node">
<title>Node4</title>
<g id="a_node4"><a xlink:href="class_o_c_a_1_1_c_a_f_e_v_d_b_1_1_service_1_1_mailing_lists_service.html#a651ae4ad1c33811d0e985204bd2e35b8" target="_top" xlink:title=" ">
<polygon fill="white" stroke="#666666" points="848,-132 786,-132 786,-113 848,-113 848,-132"/>
<text text-anchor="middle" x="817" y="-120" font-family="Helvetica,sans-Serif" font-size="10.00">getListInfo</text>
</a>
</g>
</g>
<!-- Node3&#45;&gt;Node4 -->
<g id="edge3" class="edge">
<title>Node3&#45;&gt;Node4</title>
<path fill="none" stroke="#63b8ff" d="M750.12,-122.5C757.8,-122.5 766.4,-122.5 774.78,-122.5"/>
<polygon fill="#63b8ff" stroke="#63b8ff" points="774.59,-126 784.59,-122.5 774.59,-119 774.59,-126"/>
</g>
<!-- Node5&#45;&gt;Node2 -->
<g id="edge5" class="edge">
<title>Node5&#45;&gt;Node2</title>
<path fill="none" stroke="#63b8ff" d="M550.19,-122.5C559.46,-122.5 569.34,-122.5 578.76,-122.5"/>
<polygon fill="#63b8ff" stroke="#63b8ff" points="578.54,-126 588.54,-122.5 578.54,-119 578.54,-126"/>
</g>
<!-- Node6&#45;&gt;Node5 -->
<g id="edge7" class="edge">
<title>Node6&#45;&gt;Node5</title>
<path fill="none" stroke="#63b8ff" d="M395.97,-122.5C413.8,-122.5 435.4,-122.5 454.8,-122.5"/>
<polygon fill="#63b8ff" stroke="#63b8ff" points="454.62,-126 464.62,-122.5 454.62,-119 454.62,-126"/>
</g>
<!-- Node8&#45;&gt;Node2 -->
<g id="edge10" class="edge">
<title>Node8&#45;&gt;Node2</title>
<path fill="none" stroke="#63b8ff" d="M245.96,-48.66C286.51,-50.66 362.38,-55.71 426,-67.5 481.75,-77.83 544.59,-96.53 584.23,-109.23"/>
<polygon fill="#63b8ff" stroke="#63b8ff" points="582.93,-112.81 593.53,-112.56 585.09,-106.15 582.93,-112.81"/>
</g>
<!-- Node9 -->
<g id="node9" class="node">
<title>Node9</title>
<g id="a_node9"><a xlink:href="class_o_c_a_1_1_c_a_f_e_v_d_b_1_1_service_1_1_mailing_lists_service.html#ad654c2587cb078497126748b25639556" target="_top" xlink:title=" ">
<polygon fill="white" stroke="#666666" points="406,-19 309,-19 309,0 406,0 406,-19"/>
<text text-anchor="middle" x="357.5" y="-7" font-family="Helvetica,sans-Serif" font-size="10.00">getServerVersions</text>
</a>
</g>
</g>
<!-- Node8&#45;&gt;Node9 -->
<g id="edge11" class="edge">
<title>Node8&#45;&gt;Node9</title>
<path fill="none" stroke="#63b8ff" d="M245.9,-39.63C264.27,-34.62 288.47,-28.03 309.54,-22.29"/>
<polygon fill="#63b8ff" stroke="#63b8ff" points="310.19,-25.47 318.92,-19.47 308.35,-18.72 310.19,-25.47"/>
</g>
<!-- Node11 -->
<g id="node11" class="node">
<title>Node11</title>
<g id="a_node11"><a xlink:href="class_o_c_a_1_1_c_a_f_e_v_d_b_1_1_service_1_1_mailing_lists_service.html#ae49603ed5d837ed0c36ce27d6171576c" target="_top" xlink:title="Set the subscription preferences.">
<polygon fill="white" stroke="#666666" points="426,-95 289,-95 289,-76 426,-76 426,-95"/>
<text text-anchor="middle" x="357.5" y="-83" font-family="Helvetica,sans-Serif" font-size="10.00">setSubscriptionPreferences</text>
</a>
</g>
</g>
<!-- Node8&#45;&gt;Node11 -->
<g id="edge13" class="edge">
<title>Node8&#45;&gt;Node11</title>
<path fill="none" stroke="#63b8ff" d="M245.9,-55.37C264.27,-60.38 288.47,-66.97 309.54,-72.71"/>
<polygon fill="#63b8ff" stroke="#63b8ff" points="308.35,-76.28 318.92,-75.53 310.19,-69.53 308.35,-76.28"/>
</g>
<!-- Node10 -->
<g id="node10" class="node">
<title>Node10</title>
<g id="a_node10"><a xlink:href="class_o_c_a_1_1_c_a_f_e_v_d_b_1_1_service_1_1_mailing_lists_service.html#a4cd47312ba83aa234d85affa07109dc2" target="_top" xlink:title="MAJOR.MINOR.REVISION.">
<polygon fill="white" stroke="#666666" points="554,-19 462,-19 462,0 554,0 554,-19"/>
<text text-anchor="middle" x="508" y="-7" font-family="Helvetica,sans-Serif" font-size="10.00">combinedVersion</text>
</a>
</g>
</g>
<!-- Node9&#45;&gt;Node10 -->
<g id="edge12" class="edge">
<title>Node9&#45;&gt;Node10</title>
<path fill="none" stroke="#63b8ff" d="M406.3,-9.5C420.42,-9.5 436.01,-9.5 450.62,-9.5"/>
<polygon fill="#63b8ff" stroke="#63b8ff" points="450.56,-13 460.56,-9.5 450.56,-6 450.56,-13"/>
</g>
<!-- Node11&#45;&gt;Node5 -->
<g id="edge14" class="edge">
<title>Node11&#45;&gt;Node5</title>
<path fill="none" stroke="#63b8ff" d="M398.3,-95.42C416.19,-99.87 437.51,-105.19 456.52,-109.92"/>
<polygon fill="#63b8ff" stroke="#63b8ff" points="455.55,-113.54 466.09,-112.56 457.24,-106.74 455.55,-113.54"/>
</g>
</g>
</svg>
        <g id="navigator" transform="translate(0 0)" fill="#404254">
                <rect fill="#f2f5e9" fill-opacity="0.5" stroke="#606060" stroke-width=".5" x="0" y="0" width="60" height="60"/>
                <use id="zoomplus" xlink:href="#zoomPlus" x="17" y="9" onmousedown="handleZoom(evt,'in')"/>
                <use id="zoomminus" xlink:href="#zoomMin" x="42" y="9" onmousedown="handleZoom(evt,'out')"/>
                <use id="reset" xlink:href="#resetDef" x="30" y="36" onmousedown="handleReset()"/>
                <g id="arrowUp" xlink:href="#dirArrow" transform="translate(30 24)" onmousedown="handlePan(0,-1)">
                  <use xlink:href="#rim" fill="#404040">
                        <set attributeName="fill" to="#808080" begin="arrowUp.mouseover" end="arrowUp.mouseout"/>
                  </use>
                  <path fill="none" stroke="white" stroke-width="1.5" d="M0,-3.0v7 M-2.5,-0.5L0,-3.0L2.5,-0.5"/>
                </g>
                <g id="arrowRight" xlink:href="#dirArrow" transform="rotate(90) translate(36 -43)" onmousedown="handlePan(1,0)">
                  <use xlink:href="#rim" fill="#404040">
                        <set attributeName="fill" to="#808080" begin="arrowRight.mouseover" end="arrowRight.mouseout"/>
                  </use>
                  <path fill="none" stroke="white" stroke-width="1.5" d="M0,-3.0v7 M-2.5,-0.5L0,-3.0L2.5,-0.5"/>
                </g>
                <g id="arrowDown" xlink:href="#dirArrow" transform="rotate(180) translate(-30 -48)" onmousedown="handlePan(0,1)">
                  <use xlink:href="#rim" fill="#404040">
                        <set attributeName="fill" to="#808080" begin="arrowDown.mouseover" end="arrowDown.mouseout"/>
                  </use>
                  <path fill="none" stroke="white" stroke-width="1.5" d="M0,-3.0v7 M-2.5,-0.5L0,-3.0L2.5,-0.5"/>
                </g>
                <g id="arrowLeft" xlink:href="#dirArrow" transform="rotate(270) translate(-36 17)" onmousedown="handlePan(-1,0)">
                  <use xlink:href="#rim" fill="#404040">
                        <set attributeName="fill" to="#808080" begin="arrowLeft.mouseover" end="arrowLeft.mouseout"/>
                  </use>
                  <path fill="none" stroke="white" stroke-width="1.5" d="M0,-3.0v7 M-2.5,-0.5L0,-3.0L2.5,-0.5"/>
                </g>
        </g>
        <svg viewBox="0 0 15 15" width="100%" height="30px" preserveAspectRatio="xMaxYMin meet">
         <g id="arrow_out" transform="scale(0.3 0.3)">
          <a xlink:href="class_o_c_a_1_1_c_a_f_e_v_d_b_1_1_service_1_1_mailing_lists_service_a9dcedfe5d7713b75758ec7098197aa8b_cgraph_org.svg" target="_base">
           <rect id="button" ry="5" rx="5" y="6" x="6" height="38" width="38"
                fill="#f2f5e9" fill-opacity="0.5" stroke="#606060" stroke-width="1.0"/>
           <path id="arrow"
             d="M 11.500037,31.436501 C 11.940474,20.09759 22.043105,11.32322 32.158766,21.979434 L 37.068811,17.246167 C 37.068811,17.246167 37.088388,32 37.088388,32 L 22.160133,31.978069 C 22.160133,31.978069 26.997745,27.140456 26.997745,27.140456 C 18.528582,18.264221 13.291696,25.230495 11.500037,31.436501 z"
             style="fill:#404040;"/>
          </a>
         </g>
        </svg>
</svg>
