<?xml version="1.0" encoding="UTF-8" standalone="no"?>
<!DOCTYPE svg PUBLIC "-//W3C//DTD SVG 1.1//EN"
 "http://www.w3.org/Graphics/SVG/1.1/DTD/svg11.dtd">
<!-- Generated by graphviz version 8.0.3 (20230416.2022)
 -->
<!-- Title: implode Pages: 1 -->
<svg width="220pt" height="101pt"
 viewBox="0.00 0.00 220.00 101.00" xmlns="http://www.w3.org/2000/svg" xmlns:xlink="http://www.w3.org/1999/xlink">
<g id="graph0" class="graph" transform="scale(1 1) rotate(0) translate(4 97)">
<title>implode</title>
<!-- Node1 -->
<g id="node1" class="node">
<title>Node1</title>
<g id="a_node1"><a xlink:title="Counter&#45;part to self::explode().">
<polygon fill="#999999" stroke="#666666" points="212,-56 162,-56 162,-37 212,-37 212,-56"/>
<text text-anchor="middle" x="187" y="-44" font-family="Helvetica,sans-Serif" font-size="10.00">implode</text>
</a>
</g>
</g>
<!-- Node1&#45;&gt;Node1 -->
<g id="edge2" class="edge">
<title>Node1&#45;&gt;Node1</title>
<path fill="none" stroke="#63b8ff" d="M209.44,-66.76C207.08,-70.97 199.6,-74 187,-74 165.2,-74 158.73,-64.94 167.59,-56.37"/>
<polygon fill="#63b8ff" stroke="#63b8ff" points="212.57,-65.99 206.41,-57.37 205.85,-67.95 212.57,-65.99"/>
</g>
<!-- Node2 -->
<g id="node2" class="node">
<title>Node2</title>
<g id="a_node2"><a xlink:href="class_o_c_a_1_1_c_a_f_e_v_d_b_1_1_common_1_1_util.html#a77dcbf8345d8d173550c859774518f20" target="_top" xlink:title="Dumps a string into a traditional hex dump for programmers, in a format similar to the output of the ...">
<polygon fill="white" stroke="#666666" points="92.5,-93 33.5,-93 33.5,-74 92.5,-74 92.5,-93"/>
<text text-anchor="middle" x="63" y="-81" font-family="Helvetica,sans-Serif" font-size="10.00">hexDump</text>
</a>
</g>
</g>
<!-- Node1&#45;&gt;Node2 -->
<g id="edge1" class="edge">
<title>Node1&#45;&gt;Node2</title>
<path fill="none" stroke="#63b8ff" d="M151.1,-57.71C142.88,-60.3 134.14,-63.03 126,-65.5 115.17,-68.79 103.23,-72.28 92.75,-75.31"/>
<polygon fill="#63b8ff" stroke="#63b8ff" points="152.05,-60.76 160.52,-54.4 149.93,-54.09 152.05,-60.76"/>
</g>
<!-- Node3 -->
<g id="node3" class="node">
<title>Node3</title>
<g id="a_node3"><a xlink:href="class_o_c_a_1_1_c_a_f_e_v_d_b_1_1_common_1_1_util.html#ac076b416133f71e89ae0c7732436300d" target="_top" xlink:title="Undo self::explodeIndexedMulti().">
<polygon fill="white" stroke="#666666" points="116,-56 10,-56 10,-37 116,-37 116,-56"/>
<text text-anchor="middle" x="63" y="-44" font-family="Helvetica,sans-Serif" font-size="10.00">implodeIndexedMulti</text>
</a>
</g>
</g>
<!-- Node1&#45;&gt;Node3 -->
<g id="edge3" class="edge">
<title>Node1&#45;&gt;Node3</title>
<path fill="none" stroke="#63b8ff" d="M150.92,-46.5C140.13,-46.5 128.02,-46.5 116.34,-46.5"/>
<polygon fill="#63b8ff" stroke="#63b8ff" points="150.6,-50 160.6,-46.5 150.6,-43 150.6,-50"/>
</g>
<!-- Node4 -->
<g id="node4" class="node">
<title>Node4</title>
<g id="a_node4"><a xlink:href="class_o_c_a_1_1_c_a_f_e_v_d_b_1_1_common_1_1_util.html#ae7d345a0cb6a0cc4e54913f819db998d" target="_top" xlink:title="Shorten the given string by iteratively reducing the size of its camel&#45;case components until it fits ...">
<polygon fill="white" stroke="#666666" points="126,-19 0,-19 0,0 126,0 126,-19"/>
<text text-anchor="middle" x="63" y="-7" font-family="Helvetica,sans-Serif" font-size="10.00">shortenCamelCaseString</text>
</a>
</g>
</g>
<!-- Node1&#45;&gt;Node4 -->
<g id="edge4" class="edge">
<title>Node1&#45;&gt;Node4</title>
<path fill="none" stroke="#63b8ff" d="M151.42,-36.01C134.24,-30.8 113.59,-24.54 96.68,-19.41"/>
<polygon fill="#63b8ff" stroke="#63b8ff" points="150.02,-39.55 160.6,-39.1 152.05,-32.85 150.02,-39.55"/>
</g>
</g>
</svg>
