<?xml version="1.0" encoding="UTF-8" standalone="no"?>
<!DOCTYPE svg PUBLIC "-//W3C//DTD SVG 1.1//EN"
 "http://www.w3.org/Graphics/SVG/1.1/DTD/svg11.dtd">
<!-- Generated by graphviz version 8.0.3 (20230416.2022)
 -->
<!-- Title: bind Pages: 1 -->
<!--zoomable 707 -->
<svg id="main" version="1.1" xmlns="http://www.w3.org/2000/svg" xmlns:xlink="http://www.w3.org/1999/xlink" xml:space="preserve" onload="init(evt)">
<style type="text/css"><![CDATA[
.edge:hover path { stroke: red; }
.edge:hover polygon { stroke: red; fill: red; }
]]></style>
<script type="text/javascript"><![CDATA[
var edges = document.getElementsByTagName('g');
if (edges && edges.length) {
  for (var i=0;i<edges.length;i++) {
    if (edges[i].id.substr(0,4)=='edge') {
      edges[i].setAttribute('class','edge');
    }
  }
}
]]></script>
        <defs>
                <circle id="rim" cx="0" cy="0" r="7"/>
                <circle id="rim2" cx="0" cy="0" r="3.5"/>
                <g id="zoomPlus">
                        <use xlink:href="#rim" fill="#404040">
                                <set attributeName="fill" to="#808080" begin="zoomplus.mouseover" end="zoomplus.mouseout"/>
                        </use>
                        <path d="M-4,0h8M0,-4v8" fill="none" stroke="white" stroke-width="1.5" pointer-events="none"/>
                </g>
                <g id="zoomMin">
                        <use xlink:href="#rim" fill="#404040">
                                <set attributeName="fill" to="#808080" begin="zoomminus.mouseover" end="zoomminus.mouseout"/>
                        </use>
                        <path d="M-4,0h8" fill="none" stroke="white" stroke-width="1.5" pointer-events="none"/>
                </g>
                <g id="dirArrow">
                        <path fill="none" stroke="white" stroke-width="1.5" d="M0,-3.0v7 M-2.5,-0.5L0,-3.0L2.5,-0.5"/>
                </g>
               <g id="resetDef">
                       <use xlink:href="#rim2" fill="#404040">
                               <set attributeName="fill" to="#808080" begin="reset.mouseover" end="reset.mouseout"/>
                       </use>
               </g>
        </defs>

<script type="text/javascript">
var viewWidth = 843;
var viewHeight = 707;
var sectionId = 'dynsection-5';
</script>
<script xlink:href="svgpan.js"/>
<svg id="graph" class="graph">
<g id="viewport">
<title>bind</title>
<!-- Node1 -->
<g id="node1" class="node">
<title>Node1</title>
<g id="a_node1"><a xlink:title=" ">
<polygon fill="#999999" stroke="#666666" points="35,-341 0,-341 0,-322 35,-322 35,-341"/>
<text text-anchor="middle" x="17.5" y="-329" font-family="Helvetica,sans-Serif" font-size="10.00">bind</text>
</a>
</g>
</g>
<!-- Node2 -->
<g id="node2" class="node">
<title>Node2</title>
<g id="a_node2"><a xlink:href="class_o_c_a_1_1_c_a_f_e_v_d_b_1_1_email_form_1_1_recipients_filter.html#a1497fe5acb2403ca1873ec2fd4b790fe" target="_top" xlink:title="Fetch a CGI&#45;variable out of the form&#45;select name&#45;space.">
<polygon fill="white" stroke="#666666" points="646,-510 593,-510 593,-491 646,-491 646,-510"/>
<text text-anchor="middle" x="619.5" y="-498" font-family="Helvetica,sans-Serif" font-size="10.00">cgiValue</text>
</a>
</g>
</g>
<!-- Node1&#45;&gt;Node2 -->
<g id="edge1" class="edge">
<title>Node1&#45;&gt;Node2</title>
<path fill="none" stroke="#63b8ff" d="M21.97,-341.36C38.16,-385.66 111.03,-566.95 241,-632.5 355.04,-690.02 412.98,-645.66 524,-582.5 554.94,-564.9 585,-536.22 602.62,-517.87"/>
<polygon fill="#63b8ff" stroke="#63b8ff" points="604.5,-520.92 608.8,-511.24 599.4,-516.12 604.5,-520.92"/>
</g>
<!-- Node3 -->
<g id="node3" class="node">
<title>Node3</title>
<g id="a_node3"><a xlink:href="class_o_c_a_1_1_c_a_f_e_v_d_b_1_1_email_form_1_1_recipients_filter.html#a1909f4b7f8129c7790cb75de2ffbe1e4" target="_top" xlink:title="Parse the CGI stuff and compute the list of selected musicians, either for the initial form setup as ...">
<polygon fill="white" stroke="#666666" points="163.5,-341 112.5,-341 112.5,-322 163.5,-322 163.5,-341"/>
<text text-anchor="middle" x="138" y="-329" font-family="Helvetica,sans-Serif" font-size="10.00">execute</text>
</a>
</g>
</g>
<!-- Node1&#45;&gt;Node3 -->
<g id="edge2" class="edge">
<title>Node1&#45;&gt;Node3</title>
<path fill="none" stroke="#63b8ff" d="M35.48,-331.5C52.59,-331.5 79.52,-331.5 101.34,-331.5"/>
<polygon fill="#63b8ff" stroke="#63b8ff" points="101.21,-335 111.21,-331.5 101.21,-328 101.21,-335"/>
</g>
<!-- Node27 -->
<g id="node27" class="node">
<title>Node27</title>
<g id="a_node27"><a xlink:href="class_o_c_a_1_1_c_a_f_e_v_d_b_1_1_service_1_1_request_parameter_service.html#aeafd6890cfd4ba9b30cb9706b2a12373" target="_top" xlink:title=" ">
<polygon fill="white" stroke="#666666" points="205,-304 71,-304 71,-263 205,-263 205,-304"/>
<text text-anchor="start" x="79" y="-292" font-family="Helvetica,sans-Serif" font-size="10.00">OCA\CAFEVDB\Service</text>
<text text-anchor="start" x="79" y="-281" font-family="Helvetica,sans-Serif" font-size="10.00">\RequestParameterService</text>
<text text-anchor="middle" x="138" y="-270" font-family="Helvetica,sans-Serif" font-size="10.00">\getParam</text>
</a>
</g>
</g>
<!-- Node1&#45;&gt;Node27 -->
<g id="edge41" class="edge">
<title>Node1&#45;&gt;Node27</title>
<path fill="none" stroke="#63b8ff" d="M35.48,-324.62C46.09,-320.33 60.46,-314.5 75.06,-308.59"/>
<polygon fill="#63b8ff" stroke="#63b8ff" points="76.2,-311.5 84.16,-304.5 73.58,-305.01 76.2,-311.5"/>
</g>
<!-- Node3&#45;&gt;Node2 -->
<g id="edge7" class="edge">
<title>Node3&#45;&gt;Node2</title>
<path fill="none" stroke="#63b8ff" d="M140.73,-341.28C147.08,-373.82 172.39,-478.67 241,-519.5 351.22,-585.1 513.21,-539.45 583.65,-514.19"/>
<polygon fill="#63b8ff" stroke="#63b8ff" points="584.57,-517.21 592.75,-510.48 582.16,-510.64 584.57,-517.21"/>
</g>
<!-- Node4 -->
<g id="node4" class="node">
<title>Node4</title>
<g id="a_node4"><a xlink:href="class_o_c_a_1_1_c_a_f_e_v_d_b_1_1_email_form_1_1_recipients_filter.html#ac721d278c1106843d05dc3b9176b5fb9" target="_top" xlink:title=" ">
<polygon fill="white" stroke="#666666" points="373,-322 241,-322 241,-303 373,-303 373,-322"/>
<text text-anchor="middle" x="307" y="-310" font-family="Helvetica,sans-Serif" font-size="10.00">announcementsMailingList</text>
</a>
</g>
</g>
<!-- Node3&#45;&gt;Node4 -->
<g id="edge3" class="edge">
<title>Node3&#45;&gt;Node4</title>
<path fill="none" stroke="#63b8ff" d="M163.64,-328.7C181.27,-326.69 206.01,-323.88 229.93,-321.15"/>
<polygon fill="#63b8ff" stroke="#63b8ff" points="230.3,-324.52 239.84,-319.91 229.5,-317.57 230.3,-324.52"/>
</g>
<!-- Node5 -->
<g id="node5" class="node">
<title>Node5</title>
<g id="a_node5"><a xlink:href="class_o_c_a_1_1_c_a_f_e_v_d_b_1_1_email_form_1_1_recipients_filter.html#abb68032ee09c309fa68ede14a34e348d" target="_top" xlink:title=" ">
<polygon fill="white" stroke="#666666" points="502,-320 431,-320 431,-301 502,-301 502,-320"/>
<text text-anchor="middle" x="466.5" y="-308" font-family="Helvetica,sans-Serif" font-size="10.00">applyHistory</text>
</a>
</g>
</g>
<!-- Node3&#45;&gt;Node5 -->
<g id="edge4" class="edge">
<title>Node3&#45;&gt;Node5</title>
<path fill="none" stroke="#63b8ff" d="M163.85,-325.64C176.4,-322.36 191.73,-317.85 205,-312.5 221.78,-305.74 223.44,-297.85 241,-293.5 301.77,-278.45 374.37,-288.88 420.21,-298.81"/>
<polygon fill="#63b8ff" stroke="#63b8ff" points="419.18,-302.39 429.7,-301.17 420.72,-295.56 419.18,-302.39"/>
</g>
<!-- Node6 -->
<g id="node6" class="node">
<title>Node6</title>
<g id="a_node6"><a xlink:href="class_o_c_a_1_1_c_a_f_e_v_d_b_1_1_email_form_1_1_recipients_filter.html#ab5ee0276791cc2947df51b32bc6c7ba6" target="_top" xlink:title=" ">
<polygon fill="white" stroke="#666666" points="653,-320 586,-320 586,-301 653,-301 653,-320"/>
<text text-anchor="middle" x="619.5" y="-308" font-family="Helvetica,sans-Serif" font-size="10.00">filterHistory</text>
</a>
</g>
</g>
<!-- Node3&#45;&gt;Node6 -->
<g id="edge18" class="edge">
<title>Node3&#45;&gt;Node6</title>
<path fill="none" stroke="#63b8ff" d="M163.86,-332.9C225.21,-336.01 388.67,-342.18 524,-328.5 540.88,-326.79 559.24,-323.61 575.25,-320.39"/>
<polygon fill="#63b8ff" stroke="#63b8ff" points="575.83,-323.63 584.91,-318.17 574.4,-316.78 575.83,-323.63"/>
</g>
<!-- Node7 -->
<g id="node7" class="node">
<title>Node7</title>
<g id="a_node7"><a xlink:href="class_o_c_a_1_1_c_a_f_e_v_d_b_1_1_email_form_1_1_recipients_filter.html#a0835860e0bc6047f3eff6a9941dbbcf4" target="_top" xlink:title=" ">
<polygon fill="white" stroke="#666666" points="662.5,-170 576.5,-170 576.5,-151 662.5,-151 662.5,-170"/>
<text text-anchor="middle" x="619.5" y="-158" font-family="Helvetica,sans-Serif" font-size="10.00">defaultByStatus</text>
</a>
</g>
</g>
<!-- Node3&#45;&gt;Node7 -->
<g id="edge8" class="edge">
<title>Node3&#45;&gt;Node7</title>
<path fill="none" stroke="#63b8ff" d="M163.88,-330.43C177.85,-328.5 194.53,-323.77 205,-312.5 257.88,-255.62 180.69,-190.44 241,-141.5 338.67,-62.25 398.84,-129.04 524,-141.5 538.33,-142.93 553.71,-145.54 567.81,-148.38"/>
<polygon fill="#63b8ff" stroke="#63b8ff" points="566.79,-151.96 577.3,-150.59 568.23,-145.11 566.79,-151.96"/>
</g>
<!-- Node8 -->
<g id="node8" class="node">
<title>Node8</title>
<g id="a_node8"><a xlink:href="class_o_c_a_1_1_c_a_f_e_v_d_b_1_1_email_form_1_1_recipients_filter.html#a75227e334f1b3d4bd04bcc2ddf2c9c5d" target="_top" xlink:title=" ">
<polygon fill="white" stroke="#666666" points="835,-132 715,-132 715,-113 835,-113 835,-132"/>
<text text-anchor="middle" x="775" y="-120" font-family="Helvetica,sans-Serif" font-size="10.00">recipientsExceptProject</text>
</a>
</g>
</g>
<!-- Node3&#45;&gt;Node8 -->
<g id="edge37" class="edge">
<title>Node3&#45;&gt;Node8</title>
<path fill="none" stroke="#63b8ff" d="M163.72,-330.62C177.82,-328.78 194.67,-324.06 205,-312.5 268.95,-240.89 167.67,-161.47 241,-99.5 311.13,-40.23 592.33,-86.56 715.6,-110.47"/>
<polygon fill="#63b8ff" stroke="#63b8ff" points="714.83,-114.09 725.32,-112.58 716.18,-107.22 714.83,-114.09"/>
</g>
<!-- Node9 -->
<g id="node9" class="node">
<title>Node9</title>
<g id="a_node9"><a xlink:href="class_o_c_a_1_1_c_a_f_e_v_d_b_1_1_email_form_1_1_recipients_filter.html#a91325e5bf1c1dafd989c072cdd289f7e" target="_top" xlink:title="Decode the check&#45;boxes which select the set of users we consider basically.">
<polygon fill="white" stroke="#666666" points="358.5,-623 255.5,-623 255.5,-604 358.5,-604 358.5,-623"/>
<text text-anchor="middle" x="307" y="-611" font-family="Helvetica,sans-Serif" font-size="10.00">determineUserBase</text>
</a>
</g>
</g>
<!-- Node3&#45;&gt;Node9 -->
<g id="edge10" class="edge">
<title>Node3&#45;&gt;Node9</title>
<path fill="none" stroke="#63b8ff" d="M139.73,-341.39C143.14,-380.12 160.89,-522.92 241,-595.5 242.56,-596.92 244.23,-598.22 245.97,-599.42"/>
<polygon fill="#63b8ff" stroke="#63b8ff" points="243.81,-602.79 254.25,-604.63 247.24,-596.69 243.81,-602.79"/>
</g>
<!-- Node12 -->
<g id="node12" class="node">
<title>Node12</title>
<g id="a_node12"><a xlink:href="class_o_c_a_1_1_c_a_f_e_v_d_b_1_1_email_form_1_1_recipients_filter.html#aa88d3b6470fc695c0e977cf6652e03ae" target="_top" xlink:title="Fetch the instruments filter from the CGI parameters.">
<polygon fill="white" stroke="#666666" points="363,-473 251,-473 251,-454 363,-454 363,-473"/>
<text text-anchor="middle" x="307" y="-461" font-family="Helvetica,sans-Serif" font-size="10.00">fetchInstrumentsFilter</text>
</a>
</g>
</g>
<!-- Node3&#45;&gt;Node12 -->
<g id="edge14" class="edge">
<title>Node3&#45;&gt;Node12</title>
<path fill="none" stroke="#63b8ff" d="M145.08,-341.32C159.16,-363.24 196.23,-416.4 241,-444.5 243.94,-446.34 247.06,-448.01 250.29,-449.53"/>
<polygon fill="#63b8ff" stroke="#63b8ff" points="248.62,-453.04 259.2,-453.61 251.29,-446.57 248.62,-453.04"/>
</g>
<!-- Node14 -->
<g id="node14" class="node">
<title>Node14</title>
<g id="a_node14"><a xlink:href="class_o_c_a_1_1_c_a_f_e_v_d_b_1_1_email_form_1_1_recipients_filter.html#a4cc3ae15ce5ef543b8c9775626cb9acc" target="_top" xlink:title="Fill $this&#45;&gt;memberStatusNames with values.">
<polygon fill="white" stroke="#666666" points="369.5,-56 244.5,-56 244.5,-37 369.5,-37 369.5,-56"/>
<text text-anchor="middle" x="307" y="-44" font-family="Helvetica,sans-Serif" font-size="10.00">getMemberStatusNames</text>
</a>
</g>
</g>
<!-- Node3&#45;&gt;Node14 -->
<g id="edge19" class="edge">
<title>Node3&#45;&gt;Node14</title>
<path fill="none" stroke="#63b8ff" d="M163.81,-330.7C177.93,-328.88 194.79,-324.16 205,-312.5 276.63,-230.68 172.42,-154.89 241,-70.5 243.74,-67.13 247,-64.23 250.57,-61.74"/>
<polygon fill="#63b8ff" stroke="#63b8ff" points="252.06,-64.35 259.01,-56.35 248.59,-58.28 252.06,-64.35"/>
</g>
<!-- Node15 -->
<g id="node15" class="node">
<title>Node15</title>
<g id="a_node15"><a xlink:href="class_o_c_a_1_1_c_a_f_e_v_d_b_1_1_email_form_1_1_recipients_filter.html#a3325d0555cf869086e12761d8a7dbfc8" target="_top" xlink:title="Fetch the list of musicians for the given context (project/global).">
<polygon fill="white" stroke="#666666" points="362.5,-19 251.5,-19 251.5,0 362.5,0 362.5,-19"/>
<text text-anchor="middle" x="307" y="-7" font-family="Helvetica,sans-Serif" font-size="10.00">getMusiciansFromDB</text>
</a>
</g>
</g>
<!-- Node3&#45;&gt;Node15 -->
<g id="edge20" class="edge">
<title>Node3&#45;&gt;Node15</title>
<path fill="none" stroke="#63b8ff" d="M163.9,-330.78C178.06,-328.99 194.92,-324.27 205,-312.5 288.04,-215.52 157.47,-124.06 241,-27.5 241.55,-26.87 242.11,-26.26 242.7,-25.67"/>
<polygon fill="#63b8ff" stroke="#63b8ff" points="244.42,-27.99 250.2,-19.11 240.15,-22.44 244.42,-27.99"/>
</g>
<!-- Node16 -->
<g id="node16" class="node">
<title>Node16</title>
<g id="a_node16"><a xlink:href="class_o_c_a_1_1_c_a_f_e_v_d_b_1_1_email_form_1_1_recipients_filter.html#a9ae6e956522f1d298f15c4b2a07f0bd7" target="_top" xlink:title="Get the current filter.">
<polygon fill="white" stroke="#666666" points="524,-283 409,-283 409,-264 524,-264 524,-283"/>
<text text-anchor="middle" x="466.5" y="-271" font-family="Helvetica,sans-Serif" font-size="10.00">initMemberStatusFilter</text>
</a>
</g>
</g>
<!-- Node3&#45;&gt;Node16 -->
<g id="edge21" class="edge">
<title>Node3&#45;&gt;Node16</title>
<path fill="none" stroke="#63b8ff" d="M163.75,-326.93C176.56,-323.95 192.15,-319.31 205,-312.5 223.4,-302.74 221.56,-289.98 241,-282.5 291.05,-263.24 352.09,-262.07 397.88,-265.11"/>
<polygon fill="#63b8ff" stroke="#63b8ff" points="397.35,-268.66 407.58,-265.92 397.87,-261.68 397.35,-268.66"/>
</g>
<!-- Node17 -->
<g id="node17" class="node">
<title>Node17</title>
<g id="a_node17"><a xlink:href="class_o_c_a_1_1_c_a_f_e_v_d_b_1_1_email_form_1_1_recipients_filter.html#ab85bd7c01c06a6b1507047bfd28f941c" target="_top" xlink:title="Load the history from the session data.">
<polygon fill="white" stroke="#666666" points="340,-208 274,-208 274,-189 340,-189 340,-208"/>
<text text-anchor="middle" x="307" y="-196" font-family="Helvetica,sans-Serif" font-size="10.00">loadHistory</text>
</a>
</g>
</g>
<!-- Node3&#45;&gt;Node17 -->
<g id="edge24" class="edge">
<title>Node3&#45;&gt;Node17</title>
<path fill="none" stroke="#63b8ff" d="M163.83,-329.63C177.44,-327.41 193.77,-322.66 205,-312.5 236.95,-283.6 210.13,-252.55 241,-222.5 247.24,-216.42 255.15,-211.86 263.29,-208.45"/>
<polygon fill="#63b8ff" stroke="#63b8ff" points="264.4,-211.41 272.61,-204.71 262.02,-204.83 264.4,-211.41"/>
</g>
<!-- Node18 -->
<g id="node18" class="node">
<title>Node18</title>
<g id="a_node18"><a xlink:href="class_o_c_a_1_1_c_a_f_e_v_d_b_1_1_email_form_1_1_recipients_filter.html#a30a395e6e48481531a93ec374c412775" target="_top" xlink:title="Compose a default history record for the initial state.">
<polygon fill="white" stroke="#666666" points="513,-170 420,-170 420,-151 513,-151 513,-170"/>
<text text-anchor="middle" x="466.5" y="-158" font-family="Helvetica,sans-Serif" font-size="10.00">setDefaultHistory</text>
</a>
</g>
</g>
<!-- Node3&#45;&gt;Node18 -->
<g id="edge39" class="edge">
<title>Node3&#45;&gt;Node18</title>
<path fill="none" stroke="#63b8ff" d="M163.97,-330.16C177.79,-328.13 194.29,-323.38 205,-312.5 247.96,-268.85 193.98,-218.74 241,-179.5 287.58,-140.62 360.14,-141.88 410.09,-148.92"/>
<polygon fill="#63b8ff" stroke="#63b8ff" points="409.29,-152.49 419.7,-150.54 410.35,-145.57 409.29,-152.49"/>
</g>
<!-- Node23 -->
<g id="node23" class="node">
<title>Node23</title>
<g id="a_node23"><a xlink:href="class_o_c_a_1_1_c_a_f_e_v_d_b_1_1_email_form_1_1_recipients_filter.html#a3b27a17301b2e6acb457bafbd268a6c6" target="_top" xlink:title=" ">
<polygon fill="white" stroke="#666666" points="353,-586 261,-586 261,-567 353,-567 353,-586"/>
<text text-anchor="middle" x="307" y="-574" font-family="Helvetica,sans-Serif" font-size="10.00">projectMailingList</text>
</a>
</g>
</g>
<!-- Node3&#45;&gt;Node23 -->
<g id="edge33" class="edge">
<title>Node3&#45;&gt;Node23</title>
<path fill="none" stroke="#63b8ff" d="M140.78,-341.46C147.44,-375.81 173.97,-490.55 241,-552.5 244.98,-556.18 249.58,-559.31 254.45,-561.97"/>
<polygon fill="#63b8ff" stroke="#63b8ff" points="252.53,-565.4 263.07,-566.52 255.52,-559.08 252.53,-565.4"/>
</g>
<!-- Node24 -->
<g id="node24" class="node">
<title>Node24</title>
<g id="a_node24"><a xlink:href="class_o_c_a_1_1_c_a_f_e_v_d_b_1_1_email_form_1_1_recipients_filter.html#adc12d97d4d6b670014369f82669309c1" target="_top" xlink:title="Push the current filter selection onto the undo&#45;history stack.">
<polygon fill="white" stroke="#666666" points="501,-398 432,-398 432,-379 501,-379 501,-398"/>
<text text-anchor="middle" x="466.5" y="-386" font-family="Helvetica,sans-Serif" font-size="10.00">pushHistory</text>
</a>
</g>
</g>
<!-- Node3&#45;&gt;Node24 -->
<g id="edge34" class="edge">
<title>Node3&#45;&gt;Node24</title>
<path fill="none" stroke="#63b8ff" d="M163.76,-341.1C184.18,-348.63 214.06,-358.77 241,-364.5 302.63,-377.62 375.38,-383.72 420.98,-386.45"/>
<polygon fill="#63b8ff" stroke="#63b8ff" points="420.51,-389.99 430.69,-387.06 420.9,-383 420.51,-389.99"/>
</g>
<!-- Node25 -->
<g id="node25" class="node">
<title>Node25</title>
<g id="a_node25"><a xlink:href="class_o_c_a_1_1_c_a_f_e_v_d_b_1_1_email_form_1_1_recipients_filter.html#a14e60602822b0301e2ece2c15c4e0d82" target="_top" xlink:title="This function is called at the very start.">
<polygon fill="white" stroke="#666666" points="359.5,-510 254.5,-510 254.5,-491 359.5,-491 359.5,-510"/>
<text text-anchor="middle" x="307" y="-498" font-family="Helvetica,sans-Serif" font-size="10.00">remapEmailRecords</text>
</a>
</g>
</g>
<!-- Node3&#45;&gt;Node25 -->
<g id="edge38" class="edge">
<title>Node3&#45;&gt;Node25</title>
<path fill="none" stroke="#63b8ff" d="M142.78,-341.38C153.63,-368.41 187.58,-444.08 241,-482.5 242.68,-483.7 244.43,-484.83 246.24,-485.88"/>
<polygon fill="#63b8ff" stroke="#63b8ff" points="244.18,-489.26 254.7,-490.52 247.27,-482.97 244.18,-489.26"/>
</g>
<!-- Node26 -->
<g id="node26" class="node">
<title>Node26</title>
<g id="a_node26"><a xlink:href="class_o_c_a_1_1_c_a_f_e_v_d_b_1_1_email_form_1_1_recipients_filter.html#a0eece8535c88d9bc8da320736157b53b" target="_top" xlink:title="Store the history to somewhere, probably the session&#45;data.">
<polygon fill="white" stroke="#666666" points="342,-436 272,-436 272,-417 342,-417 342,-436"/>
<text text-anchor="middle" x="307" y="-424" font-family="Helvetica,sans-Serif" font-size="10.00">storeHistory</text>
</a>
</g>
</g>
<!-- Node3&#45;&gt;Node26 -->
<g id="edge40" class="edge">
<title>Node3&#45;&gt;Node26</title>
<path fill="none" stroke="#63b8ff" d="M150.91,-341.31C169.32,-356.11 206.19,-384.34 241,-402.5 248.27,-406.29 256.27,-409.77 264.1,-412.82"/>
<polygon fill="#63b8ff" stroke="#63b8ff" points="262.63,-416.38 273.23,-416.59 265.08,-409.82 262.63,-416.38"/>
</g>
<!-- Node5&#45;&gt;Node6 -->
<g id="edge5" class="edge">
<title>Node5&#45;&gt;Node6</title>
<path fill="none" stroke="#63b8ff" d="M502.14,-310.5C523.69,-310.5 551.6,-310.5 574.68,-310.5"/>
<polygon fill="#63b8ff" stroke="#63b8ff" points="574.57,-314 584.57,-310.5 574.57,-307 574.57,-314"/>
</g>
<!-- Node6&#45;&gt;Node6 -->
<g id="edge6" class="edge">
<title>Node6&#45;&gt;Node6</title>
<path fill="none" stroke="#63b8ff" d="M595.55,-320.37C584.62,-328.94 592.61,-338 619.5,-338 635.47,-338 644.77,-334.8 647.41,-330.42"/>
<polygon fill="#63b8ff" stroke="#63b8ff" points="650.37,-329.39 643.45,-321.37 643.86,-331.96 650.37,-329.39"/>
</g>
<!-- Node7&#45;&gt;Node8 -->
<g id="edge9" class="edge">
<title>Node7&#45;&gt;Node8</title>
<path fill="none" stroke="#63b8ff" d="M660.83,-150.52C679.88,-145.8 702.83,-140.12 723.06,-135.11"/>
<polygon fill="#63b8ff" stroke="#63b8ff" points="723.81,-138.28 732.67,-132.48 722.12,-131.49 723.81,-138.28"/>
</g>
<!-- Node9&#45;&gt;Node2 -->
<g id="edge11" class="edge">
<title>Node9&#45;&gt;Node2</title>
<path fill="none" stroke="#63b8ff" d="M344.11,-603.55C353.52,-600.94 363.64,-598.13 373,-595.5 440.18,-576.63 459.47,-579.04 524,-552.5 548.66,-542.36 575.13,-527.41 593.76,-516.14"/>
<polygon fill="#63b8ff" stroke="#63b8ff" points="595.3,-518.68 601.99,-510.47 591.64,-512.72 595.3,-518.68"/>
</g>
<!-- Node10 -->
<g id="node10" class="node">
<title>Node10</title>
<g id="a_node10"><a xlink:href="class_o_c_a_1_1_c_a_f_e_v_d_b_1_1_email_form_1_1_recipients_filter.html#a37ce309e4090903297fa1c705634537d" target="_top" xlink:title="The default user base.">
<polygon fill="white" stroke="#666666" points="511,-699 422,-699 422,-680 511,-680 511,-699"/>
<text text-anchor="middle" x="466.5" y="-687" font-family="Helvetica,sans-Serif" font-size="10.00">defaultUserBase</text>
</a>
</g>
</g>
<!-- Node9&#45;&gt;Node10 -->
<g id="edge12" class="edge">
<title>Node9&#45;&gt;Node10</title>
<path fill="none" stroke="#63b8ff" d="M328.59,-623.44C355.83,-636.58 404.04,-659.84 435.37,-674.96"/>
<polygon fill="#63b8ff" stroke="#63b8ff" points="433.38,-678.37 443.9,-679.56 436.42,-672.06 433.38,-678.37"/>
</g>
<!-- Node11 -->
<g id="node11" class="node">
<title>Node11</title>
<g id="a_node11"><a xlink:href="class_o_c_a_1_1_c_a_f_e_v_d_b_1_1_email_form_1_1_recipients_filter.html#a180e59b5c87d178df0b6929526f2c38a" target="_top" xlink:title=" ">
<polygon fill="white" stroke="#666666" points="664.5,-699 574.5,-699 574.5,-680 664.5,-680 664.5,-699"/>
<text text-anchor="middle" x="619.5" y="-687" font-family="Helvetica,sans-Serif" font-size="10.00">frozenRecipients</text>
</a>
</g>
</g>
<!-- Node10&#45;&gt;Node11 -->
<g id="edge13" class="edge">
<title>Node10&#45;&gt;Node11</title>
<path fill="none" stroke="#63b8ff" d="M511.18,-689.5C527.39,-689.5 546.01,-689.5 563.14,-689.5"/>
<polygon fill="#63b8ff" stroke="#63b8ff" points="563.14,-693 573.14,-689.5 563.14,-686 563.14,-693"/>
</g>
<!-- Node12&#45;&gt;Node2 -->
<g id="edge15" class="edge">
<title>Node12&#45;&gt;Node2</title>
<path fill="none" stroke="#63b8ff" d="M358.99,-473.47C374.96,-476.35 392.67,-479.31 409,-481.5 469.34,-489.6 539.94,-495.21 581.85,-498.13"/>
<polygon fill="#63b8ff" stroke="#63b8ff" points="581.4,-501.68 591.62,-498.87 581.88,-494.7 581.4,-501.68"/>
</g>
<!-- Node13 -->
<g id="node13" class="node">
<title>Node13</title>
<g id="a_node13"><a xlink:href="class_o_c_a_1_1_c_a_f_e_v_d_b_1_1_email_form_1_1_recipients_filter.html#a2765950b3322c101496bb711b89709ed" target="_top" xlink:title=" ">
<polygon fill="white" stroke="#666666" points="511,-472 422,-472 422,-453 511,-453 511,-472"/>
<text text-anchor="middle" x="466.5" y="-460" font-family="Helvetica,sans-Serif" font-size="10.00">instrumentsFilter</text>
</a>
</g>
</g>
<!-- Node12&#45;&gt;Node13 -->
<g id="edge16" class="edge">
<title>Node12&#45;&gt;Node13</title>
<path fill="none" stroke="#63b8ff" d="M363.09,-463.15C378.5,-463.05 395.26,-462.95 410.66,-462.85"/>
<polygon fill="#63b8ff" stroke="#63b8ff" points="410.62,-466.34 420.6,-462.78 410.58,-459.34 410.62,-466.34"/>
</g>
<!-- Node13&#45;&gt;Node2 -->
<g id="edge17" class="edge">
<title>Node13&#45;&gt;Node2</title>
<path fill="none" stroke="#63b8ff" d="M507.17,-472.48C530.45,-478.34 559.65,-485.69 582.3,-491.39"/>
<polygon fill="#63b8ff" stroke="#63b8ff" points="581.28,-495 591.84,-494.04 582.99,-488.21 581.28,-495"/>
</g>
<!-- Node16&#45;&gt;Node2 -->
<g id="edge22" class="edge">
<title>Node16&#45;&gt;Node2</title>
<path fill="none" stroke="#63b8ff" d="M511.76,-283.47C516.19,-285.64 520.39,-288.28 524,-291.5 554.1,-318.29 595.66,-433.31 611.75,-480.34"/>
<polygon fill="#63b8ff" stroke="#63b8ff" points="608.75,-481.39 615.28,-489.74 615.38,-479.14 608.75,-481.39"/>
</g>
<!-- Node16&#45;&gt;Node7 -->
<g id="edge23" class="edge">
<title>Node16&#45;&gt;Node7</title>
<path fill="none" stroke="#63b8ff" d="M477.05,-263.69C500.68,-239.42 560,-178.5 560,-178.5 562.18,-177.17 564.47,-175.93 566.82,-174.77"/>
<polygon fill="#63b8ff" stroke="#63b8ff" points="567.97,-177.66 575.78,-170.49 565.21,-171.22 567.97,-177.66"/>
</g>
<!-- Node17&#45;&gt;Node6 -->
<g id="edge25" class="edge">
<title>Node17&#45;&gt;Node6</title>
<path fill="none" stroke="#63b8ff" d="M340.39,-203.95C383.45,-211.85 461.41,-228.45 524,-254.5 549.94,-265.29 577.32,-282.21 595.89,-294.63"/>
<polygon fill="#63b8ff" stroke="#63b8ff" points="593.51,-297.92 603.75,-300.65 597.45,-292.13 593.51,-297.92"/>
</g>
<!-- Node17&#45;&gt;Node18 -->
<g id="edge26" class="edge">
<title>Node17&#45;&gt;Node18</title>
<path fill="none" stroke="#63b8ff" d="M340.25,-190.72C361.42,-185.61 389.57,-178.82 413.82,-172.97"/>
<polygon fill="#63b8ff" stroke="#63b8ff" points="414.39,-176.19 423.29,-170.44 412.75,-169.38 414.39,-176.19"/>
</g>
<!-- Node20 -->
<g id="node20" class="node">
<title>Node20</title>
<g id="a_node20"><a xlink:href="class_o_c_a_1_1_c_a_f_e_v_d_b_1_1_email_form_1_1_recipients_filter.html#a69438f7e0899945b1e31f677ce1251af" target="_top" xlink:title="Validate the given history records, return false on error.">
<polygon fill="white" stroke="#666666" points="507.5,-207 425.5,-207 425.5,-188 507.5,-188 507.5,-207"/>
<text text-anchor="middle" x="466.5" y="-195" font-family="Helvetica,sans-Serif" font-size="10.00">validateHistory</text>
</a>
</g>
</g>
<!-- Node17&#45;&gt;Node20 -->
<g id="edge30" class="edge">
<title>Node17&#45;&gt;Node20</title>
<path fill="none" stroke="#63b8ff" d="M340.25,-198.3C361.56,-198.16 389.94,-197.98 414.3,-197.83"/>
<polygon fill="#63b8ff" stroke="#63b8ff" points="414.19,-201.32 424.17,-197.76 414.14,-194.32 414.19,-201.32"/>
</g>
<!-- Node18&#45;&gt;Node6 -->
<g id="edge29" class="edge">
<title>Node18&#45;&gt;Node6</title>
<path fill="none" stroke="#63b8ff" d="M509.41,-170.45C514.58,-172.64 519.59,-175.29 524,-178.5 545.58,-194.2 586.96,-258.93 607.02,-291.54"/>
<polygon fill="#63b8ff" stroke="#63b8ff" points="604.32,-292.83 612.52,-299.54 610.3,-289.18 604.32,-292.83"/>
</g>
<!-- Node18&#45;&gt;Node7 -->
<g id="edge28" class="edge">
<title>Node18&#45;&gt;Node7</title>
<path fill="none" stroke="#63b8ff" d="M513.21,-160.5C529.59,-160.5 548.2,-160.5 565.16,-160.5"/>
<polygon fill="#63b8ff" stroke="#63b8ff" points="565.03,-164 575.03,-160.5 565.03,-157 565.03,-164"/>
</g>
<!-- Node19 -->
<g id="node19" class="node">
<title>Node19</title>
<g id="a_node19"><a xlink:href="class_o_c_a_1_1_c_a_f_e_v_d_b_1_1_email_form_1_1_recipients_filter.html#a9ceb14e2f27e74da6d3f47217cafac78" target="_top" xlink:title=" ">
<polygon fill="white" stroke="#666666" points="670,-133 569,-133 569,-114 670,-114 670,-133"/>
<text text-anchor="middle" x="619.5" y="-121" font-family="Helvetica,sans-Serif" font-size="10.00">basicRecipientsSet</text>
</a>
</g>
</g>
<!-- Node18&#45;&gt;Node19 -->
<g id="edge27" class="edge">
<title>Node18&#45;&gt;Node19</title>
<path fill="none" stroke="#63b8ff" d="M507.97,-150.58C526.25,-146.11 548.05,-140.76 567.44,-136.01"/>
<polygon fill="#63b8ff" stroke="#63b8ff" points="568.04,-139.22 576.92,-133.44 566.38,-132.42 568.04,-139.22"/>
</g>
<!-- Node21 -->
<g id="node21" class="node">
<title>Node21</title>
<g id="a_node21"><a xlink:href="class_o_c_a_1_1_c_a_f_e_v_d_b_1_1_email_form_1_1_recipients_filter.html#aeeefa163256bf7669c5591e228f57850" target="_top" xlink:title="Validate all history records.">
<polygon fill="white" stroke="#666666" points="679,-207 560,-207 560,-188 679,-188 679,-207"/>
<text text-anchor="middle" x="619.5" y="-195" font-family="Helvetica,sans-Serif" font-size="10.00">validateHistoryRecords</text>
</a>
</g>
</g>
<!-- Node20&#45;&gt;Node21 -->
<g id="edge31" class="edge">
<title>Node20&#45;&gt;Node21</title>
<path fill="none" stroke="#63b8ff" d="M507.97,-197.5C520.64,-197.5 535,-197.5 549.07,-197.5"/>
<polygon fill="#63b8ff" stroke="#63b8ff" points="548.75,-201 558.75,-197.5 548.75,-194 548.75,-201"/>
</g>
<!-- Node22 -->
<g id="node22" class="node">
<title>Node22</title>
<g id="a_node22"><a xlink:href="class_o_c_a_1_1_c_a_f_e_v_d_b_1_1_email_form_1_1_recipients_filter.html#a356c7d5f6dcee2bfc20c2285237a341f" target="_top" xlink:title="Validate one history entry.">
<polygon fill="white" stroke="#666666" points="831.5,-207 718.5,-207 718.5,-188 831.5,-188 831.5,-207"/>
<text text-anchor="middle" x="775" y="-195" font-family="Helvetica,sans-Serif" font-size="10.00">validateHistoryRecord</text>
</a>
</g>
</g>
<!-- Node21&#45;&gt;Node22 -->
<g id="edge32" class="edge">
<title>Node21&#45;&gt;Node22</title>
<path fill="none" stroke="#63b8ff" d="M679.41,-197.5C688.52,-197.5 697.99,-197.5 707.27,-197.5"/>
<polygon fill="#63b8ff" stroke="#63b8ff" points="707.03,-201 717.03,-197.5 707.03,-194 707.03,-201"/>
</g>
<!-- Node24&#45;&gt;Node2 -->
<g id="edge35" class="edge">
<title>Node24&#45;&gt;Node2</title>
<path fill="none" stroke="#63b8ff" d="M480.9,-398.44C507.05,-417.83 565.07,-460.87 596.78,-484.39"/>
<polygon fill="#63b8ff" stroke="#63b8ff" points="594.23,-487.6 604.35,-490.74 598.4,-481.97 594.23,-487.6"/>
</g>
<!-- Node24&#45;&gt;Node6 -->
<g id="edge36" class="edge">
<title>Node24&#45;&gt;Node6</title>
<path fill="none" stroke="#63b8ff" d="M492.54,-378.61C502.45,-374.5 513.88,-369.52 524,-364.5 547.96,-352.61 574.32,-337.36 593.1,-326.1"/>
<polygon fill="#63b8ff" stroke="#63b8ff" points="594.68,-328.63 601.43,-320.46 591.06,-322.64 594.68,-328.63"/>
</g>
</g>
</svg>
        <g id="navigator" transform="translate(0 0)" fill="#404254">
                <rect fill="#f2f5e9" fill-opacity="0.5" stroke="#606060" stroke-width=".5" x="0" y="0" width="60" height="60"/>
                <use id="zoomplus" xlink:href="#zoomPlus" x="17" y="9" onmousedown="handleZoom(evt,'in')"/>
                <use id="zoomminus" xlink:href="#zoomMin" x="42" y="9" onmousedown="handleZoom(evt,'out')"/>
                <use id="reset" xlink:href="#resetDef" x="30" y="36" onmousedown="handleReset()"/>
                <g id="arrowUp" xlink:href="#dirArrow" transform="translate(30 24)" onmousedown="handlePan(0,-1)">
                  <use xlink:href="#rim" fill="#404040">
                        <set attributeName="fill" to="#808080" begin="arrowUp.mouseover" end="arrowUp.mouseout"/>
                  </use>
                  <path fill="none" stroke="white" stroke-width="1.5" d="M0,-3.0v7 M-2.5,-0.5L0,-3.0L2.5,-0.5"/>
                </g>
                <g id="arrowRight" xlink:href="#dirArrow" transform="rotate(90) translate(36 -43)" onmousedown="handlePan(1,0)">
                  <use xlink:href="#rim" fill="#404040">
                        <set attributeName="fill" to="#808080" begin="arrowRight.mouseover" end="arrowRight.mouseout"/>
                  </use>
                  <path fill="none" stroke="white" stroke-width="1.5" d="M0,-3.0v7 M-2.5,-0.5L0,-3.0L2.5,-0.5"/>
                </g>
                <g id="arrowDown" xlink:href="#dirArrow" transform="rotate(180) translate(-30 -48)" onmousedown="handlePan(0,1)">
                  <use xlink:href="#rim" fill="#404040">
                        <set attributeName="fill" to="#808080" begin="arrowDown.mouseover" end="arrowDown.mouseout"/>
                  </use>
                  <path fill="none" stroke="white" stroke-width="1.5" d="M0,-3.0v7 M-2.5,-0.5L0,-3.0L2.5,-0.5"/>
                </g>
                <g id="arrowLeft" xlink:href="#dirArrow" transform="rotate(270) translate(-36 17)" onmousedown="handlePan(-1,0)">
                  <use xlink:href="#rim" fill="#404040">
                        <set attributeName="fill" to="#808080" begin="arrowLeft.mouseover" end="arrowLeft.mouseout"/>
                  </use>
                  <path fill="none" stroke="white" stroke-width="1.5" d="M0,-3.0v7 M-2.5,-0.5L0,-3.0L2.5,-0.5"/>
                </g>
        </g>
        <svg viewBox="0 0 15 15" width="100%" height="30px" preserveAspectRatio="xMaxYMin meet">
         <g id="arrow_out" transform="scale(0.3 0.3)">
          <a xlink:href="class_o_c_a_1_1_c_a_f_e_v_d_b_1_1_email_form_1_1_recipients_filter_ae40c9dafec946961dfd72815f6764fb8_cgraph_org.svg" target="_base">
           <rect id="button" ry="5" rx="5" y="6" x="6" height="38" width="38"
                fill="#f2f5e9" fill-opacity="0.5" stroke="#606060" stroke-width="1.0"/>
           <path id="arrow"
             d="M 11.500037,31.436501 C 11.940474,20.09759 22.043105,11.32322 32.158766,21.979434 L 37.068811,17.246167 C 37.068811,17.246167 37.088388,32 37.088388,32 L 22.160133,31.978069 C 22.160133,31.978069 26.997745,27.140456 26.997745,27.140456 C 18.528582,18.264221 13.291696,25.230495 11.500037,31.436501 z"
             style="fill:#404040;"/>
          </a>
         </g>
        </svg>
</svg>
