<?xml version="1.0" encoding="UTF-8" standalone="no"?>
<!DOCTYPE svg PUBLIC "-//W3C//DTD SVG 1.1//EN"
 "http://www.w3.org/Graphics/SVG/1.1/DTD/svg11.dtd">
<!-- Generated by graphviz version 8.0.3 (20230416.2022)
 -->
<!-- Title: generateKeyPair Pages: 1 -->
<svg width="211pt" height="101pt"
 viewBox="0.00 0.00 211.00 101.00" xmlns="http://www.w3.org/2000/svg" xmlns:xlink="http://www.w3.org/1999/xlink">
<g id="graph0" class="graph" transform="scale(1 1) rotate(0) translate(4 97)">
<title>generateKeyPair</title>
<!-- Node1 -->
<g id="node1" class="node">
<title>Node1</title>
<g id="a_node1"><a xlink:title="{Initialize a private/public key&#45;pair by either retreiving it from the config&#45;space or generating a n...">
<polygon fill="#999999" stroke="#666666" points="89,-56 0,-56 0,-37 89,-37 89,-56"/>
<text text-anchor="middle" x="44.5" y="-44" font-family="Helvetica,sans-Serif" font-size="10.00">generateKeyPair</text>
</a>
</g>
</g>
<!-- Node2 -->
<g id="node2" class="node">
<title>Node2</title>
<g id="a_node2"><a xlink:href="class_o_c_a_1_1_c_a_f_e_v_d_b_1_1_crypto_1_1_cloud_asymmetric_key_storage.html#a617489c8e6b2b5f5094a5df200a66eb4" target="_top" xlink:title="Create a key&#45;pair, but don&#39;t store it.">
<polygon fill="white" stroke="#666666" points="203,-93 125,-93 125,-74 203,-74 203,-93"/>
<text text-anchor="middle" x="164" y="-81" font-family="Helvetica,sans-Serif" font-size="10.00">createKeyPair</text>
</a>
</g>
</g>
<!-- Node1&#45;&gt;Node2 -->
<g id="edge1" class="edge">
<title>Node1&#45;&gt;Node2</title>
<path fill="none" stroke="#63b8ff" d="M76.99,-56.42C90.55,-60.69 106.61,-65.74 121.16,-70.32"/>
<polygon fill="#63b8ff" stroke="#63b8ff" points="119.84,-73.89 130.43,-73.56 121.94,-67.22 119.84,-73.89"/>
</g>
<!-- Node3 -->
<g id="node3" class="node">
<title>Node3</title>
<g id="a_node3"><a xlink:href="class_o_c_a_1_1_c_a_f_e_v_d_b_1_1_crypto_1_1_cloud_asymmetric_key_storage.html#ae61ebfee1a8558f30b68dbd4c3a6d76e" target="_top" xlink:title="Serialize key to string for storage in whatever storage backend.">
<polygon fill="white" stroke="#666666" points="199,-56 129,-56 129,-37 199,-37 199,-56"/>
<text text-anchor="middle" x="164" y="-44" font-family="Helvetica,sans-Serif" font-size="10.00">serializeKey</text>
</a>
</g>
</g>
<!-- Node1&#45;&gt;Node3 -->
<g id="edge2" class="edge">
<title>Node1&#45;&gt;Node3</title>
<path fill="none" stroke="#63b8ff" d="M89.25,-46.5C98.63,-46.5 108.56,-46.5 117.98,-46.5"/>
<polygon fill="#63b8ff" stroke="#63b8ff" points="117.76,-50 127.76,-46.5 117.76,-43 117.76,-50"/>
</g>
<!-- Node4 -->
<g id="node4" class="node">
<title>Node4</title>
<g id="a_node4"><a xlink:href="class_o_c_a_1_1_c_a_f_e_v_d_b_1_1_crypto_1_1_cloud_asymmetric_key_storage.html#aafad48628125d0a5bcbbe6e1fddbe1ea" target="_top" xlink:title=" ">
<polygon fill="white" stroke="#666666" points="201.5,-19 126.5,-19 126.5,0 201.5,0 201.5,-19"/>
<text text-anchor="middle" x="164" y="-7" font-family="Helvetica,sans-Serif" font-size="10.00">setUserValue</text>
</a>
</g>
</g>
<!-- Node1&#45;&gt;Node4 -->
<g id="edge3" class="edge">
<title>Node1&#45;&gt;Node4</title>
<path fill="none" stroke="#63b8ff" d="M76.99,-36.58C90.55,-32.31 106.61,-27.26 121.16,-22.68"/>
<polygon fill="#63b8ff" stroke="#63b8ff" points="121.94,-25.78 130.43,-19.44 119.84,-19.11 121.94,-25.78"/>
</g>
</g>
</svg>
