<?xml version="1.0" encoding="UTF-8" standalone="no"?>
<!DOCTYPE svg PUBLIC "-//W3C//DTD SVG 1.1//EN"
 "http://www.w3.org/Graphics/SVG/1.1/DTD/svg11.dtd">
<!-- Generated by graphviz version 8.0.3 (20230416.2022)
 -->
<!-- Title: InsuranceRates Pages: 1 -->
<svg width="164pt" height="192pt"
 viewBox="0.00 0.00 164.00 192.00" xmlns="http://www.w3.org/2000/svg" xmlns:xlink="http://www.w3.org/1999/xlink">
<g id="graph0" class="graph" transform="scale(1 1) rotate(0) translate(4 188)">
<title>InsuranceRates</title>
<!-- Node1 -->
<g id="node1" class="node">
<title>Node1</title>
<g id="a_node1"><a xlink:title="Table generator for Instruments table.">
<polygon fill="#999999" stroke="#666666" points="114,-19 28,-19 28,0 114,0 114,-19"/>
<text text-anchor="middle" x="71" y="-7" font-family="Helvetica,sans-Serif" font-size="10.00">InsuranceRates</text>
</a>
</g>
</g>
<!-- Node2 -->
<g id="node2" class="node">
<title>Node2</title>
<g id="a_node2"><a xlink:href="class_o_c_a_1_1_c_a_f_e_v_d_b_1_1_page_renderer_1_1_p_m_e_table_view_base.html" target="_top" xlink:title="Base for phpMyEdit based table&#45;views.">
<polygon fill="white" stroke="#666666" points="124,-74 18,-74 18,-55 124,-55 124,-74"/>
<text text-anchor="middle" x="71" y="-62" font-family="Helvetica,sans-Serif" font-size="10.00">PMETableViewBase</text>
</a>
</g>
</g>
<!-- Node2&#45;&gt;Node1 -->
<g id="edge1" class="edge">
<title>Node2&#45;&gt;Node1</title>
<path fill="none" stroke="#63b8ff" d="M71,-43.93C71,-35.53 71,-26.13 71,-19.44"/>
<polygon fill="#63b8ff" stroke="#63b8ff" points="67.5,-43.75 71,-53.75 74.5,-43.75 67.5,-43.75"/>
</g>
<!-- Node3 -->
<g id="node3" class="node">
<title>Node3</title>
<g id="a_node3"><a xlink:href="class_o_c_a_1_1_c_a_f_e_v_d_b_1_1_page_renderer_1_1_renderer.html" target="_top" xlink:title="Abstract base HTML renderer.">
<polygon fill="white" stroke="#666666" points="56,-129 0,-129 0,-110 56,-110 56,-129"/>
<text text-anchor="middle" x="28" y="-117" font-family="Helvetica,sans-Serif" font-size="10.00">Renderer</text>
</a>
</g>
</g>
<!-- Node3&#45;&gt;Node2 -->
<g id="edge2" class="edge">
<title>Node3&#45;&gt;Node2</title>
<path fill="none" stroke="#63b8ff" d="M42.02,-101.22C49.27,-92.28 57.82,-81.74 63.75,-74.44"/>
<polygon fill="#63b8ff" stroke="#63b8ff" points="38.68,-98.78 35.1,-108.75 44.12,-103.19 38.68,-98.78"/>
</g>
<!-- Node4 -->
<g id="node4" class="node">
<title>Node4</title>
<g id="a_node4"><a xlink:href="interface_o_c_a_1_1_c_a_f_e_v_d_b_1_1_page_renderer_1_1_i_renderer.html" target="_top" xlink:title="HTML Renderer interface.">
<polygon fill="white" stroke="#666666" points="100.5,-184 41.5,-184 41.5,-165 100.5,-165 100.5,-184"/>
<text text-anchor="middle" x="71" y="-172" font-family="Helvetica,sans-Serif" font-size="10.00">IRenderer</text>
</a>
</g>
</g>
<!-- Node4&#45;&gt;Node3 -->
<g id="edge3" class="edge">
<title>Node4&#45;&gt;Node3</title>
<path fill="none" stroke="#63b8ff" d="M56.98,-156.22C49.73,-147.28 41.18,-136.74 35.25,-129.44"/>
<polygon fill="#63b8ff" stroke="#63b8ff" points="54.88,-158.19 63.9,-163.75 60.32,-153.78 54.88,-158.19"/>
</g>
<!-- Node5 -->
<g id="node5" class="node">
<title>Node5</title>
<g id="a_node5"><a xlink:href="interface_o_c_a_1_1_c_a_f_e_v_d_b_1_1_page_renderer_1_1_i_page_renderer.html" target="_top" xlink:title="Page&#45;renderer interface.">
<polygon fill="white" stroke="#666666" points="156,-129 74,-129 74,-110 156,-110 156,-129"/>
<text text-anchor="middle" x="115" y="-117" font-family="Helvetica,sans-Serif" font-size="10.00">IPageRenderer</text>
</a>
</g>
</g>
<!-- Node4&#45;&gt;Node5 -->
<g id="edge5" class="edge">
<title>Node4&#45;&gt;Node5</title>
<path fill="none" stroke="#63b8ff" d="M85.12,-156.5C92.58,-147.5 101.45,-136.82 107.58,-129.44"/>
<polygon fill="#63b8ff" stroke="#63b8ff" points="81.96,-153.82 78.27,-163.75 87.35,-158.29 81.96,-153.82"/>
</g>
<!-- Node5&#45;&gt;Node2 -->
<g id="edge4" class="edge">
<title>Node5&#45;&gt;Node2</title>
<path fill="none" stroke="#63b8ff" d="M100.88,-101.5C93.42,-92.5 84.55,-81.82 78.42,-74.44"/>
<polygon fill="#63b8ff" stroke="#63b8ff" points="98.65,-103.29 107.73,-108.75 104.04,-98.82 98.65,-103.29"/>
</g>
</g>
</svg>
