<?xml version="1.0" encoding="UTF-8" standalone="no"?>
<!DOCTYPE svg PUBLIC "-//W3C//DTD SVG 1.1//EN"
 "http://www.w3.org/Graphics/SVG/1.1/DTD/svg11.dtd">
<!-- Generated by graphviz version 7.1.0 (20230121.1956)
 -->
<!-- Title: hasUpdated Pages: 1 -->
<svg width="798pt" height="121pt"
 viewBox="0.00 0.00 798.00 121.03" xmlns="http://www.w3.org/2000/svg" xmlns:xlink="http://www.w3.org/1999/xlink">
<g id="graph0" class="graph" transform="scale(1 1) rotate(0) translate(4 117.03)">
<title>hasUpdated</title>
<!-- Node1 -->
<g id="node1" class="node">
<title>Node1</title>
<g id="a_node1"><a xlink:title="{}">
<polygon fill="#999999" stroke="#666666" points="69,-74 0,-74 0,-55 69,-55 69,-74"/>
<text text-anchor="middle" x="34.5" y="-62" font-family="Helvetica,sans-Serif" font-size="10.00">hasUpdated</text>
</a>
</g>
</g>
<!-- Node2 -->
<g id="node2" class="node">
<title>Node2</title>
<g id="a_node2"><a xlink:href="class_o_c_a_1_1_c_a_f_e_v_d_b_1_1_storage_1_1_database_1_1_storage.html#ae16b6afbab9462a9af681b9393af361e" target="_top" xlink:title="{}">
<polygon fill="white" stroke="#666666" points="161,-74 105,-74 105,-55 161,-55 161,-74"/>
<text text-anchor="middle" x="133" y="-62" font-family="Helvetica,sans-Serif" font-size="10.00">filemtime</text>
</a>
</g>
</g>
<!-- Node1&#45;&gt;Node2 -->
<g id="edge1" class="edge">
<title>Node1&#45;&gt;Node2</title>
<path fill="none" stroke="#63b8ff" d="M69.25,-64.5C77.07,-64.5 85.44,-64.5 93.44,-64.5"/>
<polygon fill="#63b8ff" stroke="#63b8ff" points="93.28,-68 103.28,-64.5 93.28,-61 93.28,-68"/>
</g>
<!-- Node3 -->
<g id="node3" class="node">
<title>Node3</title>
<g id="a_node3"><a xlink:href="class_o_c_a_1_1_c_a_f_e_v_d_b_1_1_storage_1_1_database_1_1_storage.html#a7ec90cd17ef214d5fe4280b13d7c144a" target="_top" xlink:title="Fetch the file entity corresponding to file&#45;name.">
<polygon fill="white" stroke="#666666" points="503.5,-93 409.5,-93 409.5,-74 503.5,-74 503.5,-93"/>
<text text-anchor="middle" x="456.5" y="-81" font-family="Helvetica,sans-Serif" font-size="10.00">fileFromFileName</text>
</a>
</g>
</g>
<!-- Node2&#45;&gt;Node3 -->
<g id="edge2" class="edge">
<title>Node2&#45;&gt;Node3</title>
<path fill="none" stroke="#63b8ff" d="M145.63,-74.21C157.62,-83.55 177.31,-97.02 197,-102.5 269.3,-122.62 357.1,-108.46 409.52,-96.15"/>
<polygon fill="#63b8ff" stroke="#63b8ff" points="410.11,-99.61 419,-93.84 408.46,-92.81 410.11,-99.61"/>
</g>
<!-- Node7 -->
<g id="node7" class="node">
<title>Node7</title>
<g id="a_node7"><a xlink:href="class_o_c_a_1_1_c_a_f_e_v_d_b_1_1_storage_1_1_database_1_1_storage.html#a9d7ac9f8614357ce6b7358708b9ab040" target="_top" xlink:title=" ">
<polygon fill="white" stroke="#666666" points="341,-93 197,-93 197,-74 341,-74 341,-93"/>
<text text-anchor="middle" x="269" y="-81" font-family="Helvetica,sans-Serif" font-size="10.00">getDirectoryModificationTime</text>
</a>
</g>
</g>
<!-- Node2&#45;&gt;Node7 -->
<g id="edge6" class="edge">
<title>Node2&#45;&gt;Node7</title>
<path fill="none" stroke="#63b8ff" d="M161.44,-68.39C168.92,-69.45 177.43,-70.66 186.3,-71.92"/>
<polygon fill="#63b8ff" stroke="#63b8ff" points="185.79,-75.38 196.18,-73.32 186.78,-68.45 185.79,-75.38"/>
</g>
<!-- Node8 -->
<g id="node8" class="node">
<title>Node8</title>
<g id="a_node8"><a xlink:href="class_o_c_a_1_1_c_a_f_e_v_d_b_1_1_storage_1_1_database_1_1_storage.html#a8eb3e49592d26a52be7e8987722d1aa3" target="_top" xlink:title="Get the overall modification time of the entire storage as Unix time&#45;stamp.">
<polygon fill="white" stroke="#666666" points="338,-19 200,-19 200,0 338,0 338,-19"/>
<text text-anchor="middle" x="269" y="-7" font-family="Helvetica,sans-Serif" font-size="10.00">getStorageModificationTime</text>
</a>
</g>
</g>
<!-- Node2&#45;&gt;Node8 -->
<g id="edge8" class="edge">
<title>Node2&#45;&gt;Node8</title>
<path fill="none" stroke="#63b8ff" d="M147.91,-54.77C160.3,-46.49 179.17,-34.82 197,-27.5 201.12,-25.81 205.44,-24.24 209.82,-22.8"/>
<polygon fill="#63b8ff" stroke="#63b8ff" points="210.8,-26.16 219.35,-19.91 208.76,-19.47 210.8,-26.16"/>
</g>
<!-- Node10 -->
<g id="node10" class="node">
<title>Node10</title>
<g id="a_node10"><a xlink:href="class_o_c_a_1_1_c_a_f_e_v_d_b_1_1_storage_1_1_database_1_1_storage.html#a5877dd78fbe10fb5f3ee3d25e3fbe11e" target="_top" xlink:title="{}">
<polygon fill="white" stroke="#666666" points="289,-56 249,-56 249,-37 289,-37 289,-56"/>
<text text-anchor="middle" x="269" y="-44" font-family="Helvetica,sans-Serif" font-size="10.00">is_dir</text>
</a>
</g>
</g>
<!-- Node2&#45;&gt;Node10 -->
<g id="edge10" class="edge">
<title>Node2&#45;&gt;Node10</title>
<path fill="none" stroke="#63b8ff" d="M161.44,-60.81C183.61,-57.84 214.78,-53.65 237.68,-50.57"/>
<polygon fill="#63b8ff" stroke="#63b8ff" points="237.87,-54.08 247.32,-49.28 236.94,-47.14 237.87,-54.08"/>
</g>
<!-- Node4 -->
<g id="node4" class="node">
<title>Node4</title>
<g id="a_node4"><a xlink:href="class_o_c_a_1_1_c_a_f_e_v_d_b_1_1_storage_1_1_database_1_1_storage.html#ab721841df814a2337039d39cc03da82a" target="_top" xlink:title=" ">
<polygon fill="white" stroke="#666666" points="629,-112 572,-112 572,-93 629,-93 629,-112"/>
<text text-anchor="middle" x="600.5" y="-100" font-family="Helvetica,sans-Serif" font-size="10.00">buildPath</text>
</a>
</g>
</g>
<!-- Node3&#45;&gt;Node4 -->
<g id="edge3" class="edge">
<title>Node3&#45;&gt;Node4</title>
<path fill="none" stroke="#63b8ff" d="M504,-89.72C522.31,-92.17 543.1,-94.95 560.6,-97.29"/>
<polygon fill="#63b8ff" stroke="#63b8ff" points="559.69,-100.7 570.06,-98.56 560.61,-93.77 559.69,-100.7"/>
</g>
<!-- Node5 -->
<g id="node5" class="node">
<title>Node5</title>
<g id="a_node5"><a xlink:href="class_o_c_a_1_1_c_a_f_e_v_d_b_1_1_storage_1_1_database_1_1_storage.html#aa8e4fc68bcf28c10413b664b7d89ae81" target="_top" xlink:title="Slightly modified pathinfo() function which also normalized directories before computing the componen...">
<polygon fill="white" stroke="#666666" points="626.5,-75 574.5,-75 574.5,-56 626.5,-56 626.5,-75"/>
<text text-anchor="middle" x="600.5" y="-63" font-family="Helvetica,sans-Serif" font-size="10.00">pathInfo</text>
</a>
</g>
</g>
<!-- Node3&#45;&gt;Node5 -->
<g id="edge4" class="edge">
<title>Node3&#45;&gt;Node5</title>
<path fill="none" stroke="#63b8ff" d="M504,-77.61C523.11,-75.18 544.91,-72.42 562.86,-70.14"/>
<polygon fill="#63b8ff" stroke="#63b8ff" points="563.05,-73.65 572.53,-68.92 562.17,-66.7 563.05,-73.65"/>
</g>
<!-- Node6 -->
<g id="node6" class="node">
<title>Node6</title>
<g id="a_node6"><a xlink:href="class_o_c_a_1_1_c_a_f_e_v_d_b_1_1_storage_1_1_database_1_1_storage.html#ac5c1b62ecc9eb2ebe08f1e8c7ee2b283" target="_top" xlink:title="Attach self::PATH_SEPARATOR to the dirname if it is not the root directory.">
<polygon fill="white" stroke="#666666" points="790,-75 665,-75 665,-56 790,-56 790,-75"/>
<text text-anchor="middle" x="727.5" y="-63" font-family="Helvetica,sans-Serif" font-size="10.00">normalizeDirectoryName</text>
</a>
</g>
</g>
<!-- Node5&#45;&gt;Node6 -->
<g id="edge5" class="edge">
<title>Node5&#45;&gt;Node6</title>
<path fill="none" stroke="#63b8ff" d="M626.8,-65.5C634.69,-65.5 643.83,-65.5 653.31,-65.5"/>
<polygon fill="#63b8ff" stroke="#63b8ff" points="653.03,-69 663.03,-65.5 653.03,-62 653.03,-69"/>
</g>
<!-- Node7&#45;&gt;Node3 -->
<g id="edge7" class="edge">
<title>Node7&#45;&gt;Node3</title>
<path fill="none" stroke="#63b8ff" d="M341.45,-83.5C360.12,-83.5 380.01,-83.5 397.86,-83.5"/>
<polygon fill="#63b8ff" stroke="#63b8ff" points="397.75,-87 407.75,-83.5 397.75,-80 397.75,-87"/>
</g>
<!-- Node9 -->
<g id="node9" class="node">
<title>Node9</title>
<g id="a_node9"><a xlink:href="class_o_c_a_1_1_c_a_f_e_v_d_b_1_1_storage_1_1_database_1_1_storage.html#ae5a252c76f3eca6363a55691f69dd932" target="_top" xlink:title="Return the overall modification time of the entire storage.">
<polygon fill="white" stroke="#666666" points="536,-19 377,-19 377,0 536,0 536,-19"/>
<text text-anchor="middle" x="456.5" y="-7" font-family="Helvetica,sans-Serif" font-size="10.00">getStorageModificationDateTime</text>
</a>
</g>
</g>
<!-- Node8&#45;&gt;Node9 -->
<g id="edge9" class="edge">
<title>Node8&#45;&gt;Node9</title>
<path fill="none" stroke="#63b8ff" d="M338.28,-9.5C347.07,-9.5 356.18,-9.5 365.25,-9.5"/>
<polygon fill="#63b8ff" stroke="#63b8ff" points="365.18,-13 375.18,-9.5 365.18,-6 365.18,-13"/>
</g>
<!-- Node10&#45;&gt;Node3 -->
<g id="edge11" class="edge">
<title>Node10&#45;&gt;Node3</title>
<path fill="none" stroke="#63b8ff" d="M289.15,-50.32C314.66,-55.41 360.88,-64.63 398.14,-72.06"/>
<polygon fill="#63b8ff" stroke="#63b8ff" points="397.4,-75.48 407.89,-74 398.77,-68.62 397.4,-75.48"/>
</g>
</g>
</svg>
