<?xml version="1.0" encoding="UTF-8" standalone="no"?>
<!DOCTYPE svg PUBLIC "-//W3C//DTD SVG 1.1//EN"
 "http://www.w3.org/Graphics/SVG/1.1/DTD/svg11.dtd">
<!-- Generated by graphviz version 9.0.0 (20230911.1827)
 -->
<!-- Title: refreshCalendarManager Pages: 1 -->
<svg width="258pt" height="142pt"
 viewBox="0.00 0.00 257.50 142.00" xmlns="http://www.w3.org/2000/svg" xmlns:xlink="http://www.w3.org/1999/xlink">
<g id="graph0" class="graph" transform="scale(1 1) rotate(0) translate(4 138)">
<title>refreshCalendarManager</title>
<!-- Node1 -->
<g id="Node000001" class="node">
<title>Node1</title>
<g id="a_Node000001"><a xlink:title="Force \OCA\DAV\CalDAV\CalendarManager to be refreshed.">
<polygon fill="#999999" stroke="#666666" points="249.5,-77 127,-77 127,-57 249.5,-57 249.5,-77"/>
<text text-anchor="middle" x="188.25" y="-63.5" font-family="Helvetica,sans-Serif" font-size="10.00">refreshCalendarManager</text>
</a>
</g>
</g>
<!-- Node2 -->
<g id="Node000002" class="node">
<title>Node2</title>
<g id="a_Node000002"><a xlink:href="class_o_c_a_1_1_c_a_f_e_v_d_b_1_1_service_1_1_cal_dav_service.html#a78d0c710a1daf942261bb03c06797bb5" target="_top" xlink:title="Get a calendar with the given id.">
<polygon fill="white" stroke="#666666" points="82,-134 9,-134 9,-114 82,-114 82,-134"/>
<text text-anchor="middle" x="45.5" y="-120.5" font-family="Helvetica,sans-Serif" font-size="10.00">calendarById</text>
</a>
</g>
</g>
<!-- Node1&#45;&gt;Node2 -->
<g id="edge1_Node000001_Node000002" class="edge">
<title>Node1&#45;&gt;Node2</title>
<g id="a_edge1_Node000001_Node000002"><a xlink:title=" ">
<path fill="none" stroke="#63b8ff" d="M151.01,-81.67C126.32,-91.68 94.22,-104.67 72.15,-113.61"/>
<polygon fill="#63b8ff" stroke="#63b8ff" points="152.08,-85.02 160.03,-78.02 149.45,-78.53 152.08,-85.02"/>
</a>
</g>
</g>
<!-- Node3 -->
<g id="Node000003" class="node">
<title>Node3</title>
<g id="a_Node000003"><a xlink:href="class_o_c_a_1_1_c_a_f_e_v_d_b_1_1_service_1_1_cal_dav_service.html#a6200f98c0237694c00c3b0fa2fd0a2ef" target="_top" xlink:title="Get a calendar with the given display name.">
<polygon fill="white" stroke="#666666" points="91,-96 0,-96 0,-76 91,-76 91,-96"/>
<text text-anchor="middle" x="45.5" y="-82.5" font-family="Helvetica,sans-Serif" font-size="10.00">calendarByName</text>
</a>
</g>
</g>
<!-- Node1&#45;&gt;Node3 -->
<g id="edge2_Node000001_Node000003" class="edge">
<title>Node1&#45;&gt;Node3</title>
<g id="a_edge2_Node000001_Node000003"><a xlink:title=" ">
<path fill="none" stroke="#63b8ff" d="M115.5,-76.69C107.23,-77.8 98.99,-78.91 91.23,-79.96"/>
<polygon fill="#63b8ff" stroke="#63b8ff" points="115.8,-80.18 125.24,-75.37 114.86,-73.24 115.8,-80.18"/>
</a>
</g>
</g>
<!-- Node4 -->
<g id="Node000004" class="node">
<title>Node4</title>
<g id="a_Node000004"><a xlink:href="class_o_c_a_1_1_c_a_f_e_v_d_b_1_1_service_1_1_cal_dav_service.html#a557a43cc765f714a460217554dd0e5e8" target="_top" xlink:title="Get or create a calendar.">
<polygon fill="white" stroke="#666666" points="86.5,-58 4.5,-58 4.5,-38 86.5,-38 86.5,-58"/>
<text text-anchor="middle" x="45.5" y="-44.5" font-family="Helvetica,sans-Serif" font-size="10.00">createCalendar</text>
</a>
</g>
</g>
<!-- Node1&#45;&gt;Node4 -->
<g id="edge3_Node000001_Node000004" class="edge">
<title>Node1&#45;&gt;Node4</title>
<g id="a_edge3_Node000001_Node000004"><a xlink:title=" ">
<path fill="none" stroke="#63b8ff" d="M115.55,-57.32C105.61,-55.98 95.71,-54.64 86.63,-53.42"/>
<polygon fill="#63b8ff" stroke="#63b8ff" points="114.86,-60.76 125.24,-58.63 115.8,-53.82 114.86,-60.76"/>
</a>
</g>
</g>
<!-- Node5 -->
<g id="Node000005" class="node">
<title>Node5</title>
<g id="a_Node000005"><a xlink:href="class_o_c_a_1_1_c_a_f_e_v_d_b_1_1_service_1_1_cal_dav_service.html#aa6fa8b084b8967e7896a7e091ae50868" target="_top" xlink:title="Set the display name.">
<polygon fill="white" stroke="#666666" points="82,-20 9,-20 9,0 82,0 82,-20"/>
<text text-anchor="middle" x="45.5" y="-6.5" font-family="Helvetica,sans-Serif" font-size="10.00">displayName</text>
</a>
</g>
</g>
<!-- Node1&#45;&gt;Node5 -->
<g id="edge4_Node000001_Node000005" class="edge">
<title>Node1&#45;&gt;Node5</title>
<g id="a_edge4_Node000001_Node000005"><a xlink:title=" ">
<path fill="none" stroke="#63b8ff" d="M151.01,-52.33C126.32,-42.32 94.22,-29.33 72.15,-20.39"/>
<polygon fill="#63b8ff" stroke="#63b8ff" points="149.45,-55.47 160.03,-55.98 152.08,-48.98 149.45,-55.47"/>
</a>
</g>
</g>
</g>
</svg>
