<?xml version="1.0" encoding="UTF-8" standalone="no"?>
<!DOCTYPE svg PUBLIC "-//W3C//DTD SVG 1.1//EN"
 "http://www.w3.org/Graphics/SVG/1.1/DTD/svg11.dtd">
<!-- Generated by graphviz version 9.0.0 (20230911.1827)
 -->
<!-- Title: increment Pages: 1 -->
<svg width="241pt" height="90pt"
 viewBox="0.00 0.00 241.00 90.00" xmlns="http://www.w3.org/2000/svg" xmlns:xlink="http://www.w3.org/1999/xlink">
<g id="graph0" class="graph" transform="scale(1 1) rotate(0) translate(4 86)">
<title>increment</title>
<!-- Node1 -->
<g id="Node000001" class="node">
<title>Node1</title>
<g id="a_Node000001"><a xlink:title="{Add the given amount to the progress&#45;status counter.bool|int Current value of the counter or false i...">
<polygon fill="#999999" stroke="#666666" points="58.75,-51 0,-51 0,-31 58.75,-31 58.75,-51"/>
<text text-anchor="middle" x="29.38" y="-37.5" font-family="Helvetica,sans-Serif" font-size="10.00">increment</text>
</a>
</g>
</g>
<!-- Node2 -->
<g id="Node000002" class="node">
<title>Node2</title>
<g id="a_Node000002"><a xlink:href="interface_o_c_a_1_1_c_a_f_e_v_d_b_1_1_common_1_1_i_progress_status.html#ad926899d7cac34a3f1a90e552d8eb27d" target="_top" xlink:title="Return the cached value of the current state.">
<polygon fill="white" stroke="#666666" points="233,-82 94.75,-82 94.75,-50 233,-50 233,-82"/>
<text text-anchor="start" x="102.75" y="-68.5" font-family="Helvetica,sans-Serif" font-size="10.00">OCA\CAFEVDB\Common</text>
<text text-anchor="middle" x="163.88" y="-56.5" font-family="Helvetica,sans-Serif" font-size="10.00">\IProgressStatus\getCurrent</text>
</a>
</g>
</g>
<!-- Node1&#45;&gt;Node2 -->
<g id="edge1_Node000001_Node000002" class="edge">
<title>Node1&#45;&gt;Node2</title>
<g id="a_edge1_Node000001_Node000002"><a xlink:title=" ">
<path fill="none" stroke="#63b8ff" d="M59.13,-46.42C66.51,-47.82 74.82,-49.39 83.45,-51.01"/>
<polygon fill="#63b8ff" stroke="#63b8ff" points="82.52,-54.4 93,-52.82 83.82,-47.52 82.52,-54.4"/>
</a>
</g>
</g>
<!-- Node3 -->
<g id="Node000003" class="node">
<title>Node3</title>
<g id="a_Node000003"><a xlink:href="interface_o_c_a_1_1_c_a_f_e_v_d_b_1_1_common_1_1_i_progress_status.html#a60696fa745c7b2fd721f2f3fbbc8d39f" target="_top" xlink:title="Update to the given values, where null arguments are simply ignored.">
<polygon fill="white" stroke="#666666" points="229.62,-32 98.12,-32 98.12,0 229.62,0 229.62,-32"/>
<text text-anchor="start" x="106.12" y="-18.5" font-family="Helvetica,sans-Serif" font-size="10.00">OCA\CAFEVDB\Common</text>
<text text-anchor="middle" x="163.88" y="-6.5" font-family="Helvetica,sans-Serif" font-size="10.00">\IProgressStatus\update</text>
</a>
</g>
</g>
<!-- Node1&#45;&gt;Node3 -->
<g id="edge2_Node000001_Node000003" class="edge">
<title>Node1&#45;&gt;Node3</title>
<g id="a_edge2_Node000001_Node000003"><a xlink:title=" ">
<path fill="none" stroke="#63b8ff" d="M59.13,-35.58C67.42,-34.01 76.89,-32.22 86.65,-30.38"/>
<polygon fill="#63b8ff" stroke="#63b8ff" points="87.08,-33.86 96.26,-28.57 85.78,-26.98 87.08,-33.86"/>
</a>
</g>
</g>
</g>
</svg>
