<?xml version="1.0" encoding="UTF-8" standalone="no"?>
<!DOCTYPE svg PUBLIC "-//W3C//DTD SVG 1.1//EN"
 "http://www.w3.org/Graphics/SVG/1.1/DTD/svg11.dtd">
<!-- Generated by graphviz version 7.1.0 (20230121.1956)
 -->
<!-- Title: ProjectParticipant Pages: 1 -->
<svg width="162pt" height="137pt"
 viewBox="0.00 0.00 162.00 137.00" xmlns="http://www.w3.org/2000/svg" xmlns:xlink="http://www.w3.org/1999/xlink">
<g id="graph0" class="graph" transform="scale(1 1) rotate(0) translate(4 133)">
<title>ProjectParticipant</title>
<!-- Node1 -->
<g id="node1" class="node">
<title>Node1</title>
<g id="a_node1"><a xlink:title="DO NOT EDIT THIS FILE &#45; IT WAS CREATED BY DOCTRINE&#39;S PROXY GENERATOR.">
<polygon fill="#999999" stroke="#666666" points="137,-19 43,-19 43,0 137,0 137,-19"/>
<text text-anchor="middle" x="90" y="-7" font-family="Helvetica,sans-Serif" font-size="10.00">ProjectParticipant</text>
</a>
</g>
</g>
<!-- Node2 -->
<g id="node2" class="node">
<title>Node2</title>
<g id="a_node2"><a xlink:href="class_o_c_a_1_1_c_a_f_e_v_d_b_1_1_database_1_1_doctrine_1_1_o_r_m_1_1_entities_1_1_project_participant.html" target="_top" xlink:title="Entity for project participants.">
<polygon fill="white" stroke="#666666" points="94,-74 0,-74 0,-55 94,-55 94,-74"/>
<text text-anchor="middle" x="47" y="-62" font-family="Helvetica,sans-Serif" font-size="10.00">ProjectParticipant</text>
</a>
</g>
</g>
<!-- Node2&#45;&gt;Node1 -->
<g id="edge1" class="edge">
<title>Node2&#45;&gt;Node1</title>
<path fill="none" stroke="#63b8ff" d="M61.25,-45.93C68.45,-37.06 76.88,-26.67 82.75,-19.44"/>
<polygon fill="#63b8ff" stroke="#63b8ff" points="58.64,-43.6 55.05,-53.57 64.07,-48.01 58.64,-43.6"/>
</g>
<!-- Node3 -->
<g id="node3" class="node">
<title>Node3</title>
<g id="a_node3"><a xlink:title=" ">
<polygon fill="white" stroke="#bfbfbf" points="83.5,-129 10.5,-129 10.5,-110 83.5,-110 83.5,-129"/>
<text text-anchor="middle" x="47" y="-117" font-family="Helvetica,sans-Serif" font-size="10.00">ArrayAccess</text>
</a>
</g>
</g>
<!-- Node3&#45;&gt;Node2 -->
<g id="edge2" class="edge">
<title>Node3&#45;&gt;Node2</title>
<path fill="none" stroke="#63b8ff" d="M47,-98.35C47,-90.1 47,-80.97 47,-74.44"/>
<polygon fill="#63b8ff" stroke="#63b8ff" points="43.5,-98.23 47,-108.23 50.5,-98.23 43.5,-98.23"/>
</g>
<!-- Node4 -->
<g id="node4" class="node">
<title>Node4</title>
<g id="a_node4"><a xlink:title=" ">
<polygon fill="white" stroke="#bfbfbf" points="154,-74 112,-74 112,-55 154,-55 154,-74"/>
<text text-anchor="middle" x="133" y="-62" font-family="Helvetica,sans-Serif" font-size="10.00">Proxy</text>
</a>
</g>
</g>
<!-- Node4&#45;&gt;Node1 -->
<g id="edge3" class="edge">
<title>Node4&#45;&gt;Node1</title>
<path fill="none" stroke="#63b8ff" d="M118.75,-45.93C111.55,-37.06 103.12,-26.67 97.25,-19.44"/>
<polygon fill="#63b8ff" stroke="#63b8ff" points="115.93,-48.01 124.95,-53.57 121.36,-43.6 115.93,-48.01"/>
</g>
</g>
</svg>
