<?xml version="1.0" encoding="UTF-8" standalone="no"?>
<!DOCTYPE svg PUBLIC "-//W3C//DTD SVG 1.1//EN"
 "http://www.w3.org/Graphics/SVG/1.1/DTD/svg11.dtd">
<!-- Generated by graphviz version 7.1.0 (20230121.1956)
 -->
<!-- Title: Mapper Pages: 1 -->
<svg width="210pt" height="137pt"
 viewBox="0.00 0.00 210.00 137.00" xmlns="http://www.w3.org/2000/svg" xmlns:xlink="http://www.w3.org/1999/xlink">
<g id="graph0" class="graph" transform="scale(1 1) rotate(0) translate(4 133)">
<title>Mapper</title>
<!-- Node1 -->
<g id="node1" class="node">
<title>Node1</title>
<g id="a_node1"><a xlink:title="Common mapper base class.">
<polygon fill="#999999" stroke="#666666" points="113.5,-74 64.5,-74 64.5,-55 113.5,-55 113.5,-74"/>
<text text-anchor="middle" x="89" y="-62" font-family="Helvetica,sans-Serif" font-size="10.00">Mapper</text>
</a>
</g>
</g>
<!-- Node3 -->
<g id="node3" class="node">
<title>Node3</title>
<g id="a_node3"><a xlink:href="class_o_c_a_1_1_c_a_f_e_v_d_b_1_1_database_1_1_cloud_1_1_mapper_1_1_blog_mapper.html" target="_top" xlink:title="Mapper for the blog entities.">
<polygon fill="white" stroke="#666666" points="68,-19 0,-19 0,0 68,0 68,-19"/>
<text text-anchor="middle" x="34" y="-7" font-family="Helvetica,sans-Serif" font-size="10.00">BlogMapper</text>
</a>
</g>
</g>
<!-- Node1&#45;&gt;Node3 -->
<g id="edge2" class="edge">
<title>Node1&#45;&gt;Node3</title>
<path fill="none" stroke="#63b8ff" d="M71.65,-46.78C62.25,-37.72 51.02,-26.9 43.28,-19.44"/>
<polygon fill="#63b8ff" stroke="#63b8ff" points="69.2,-49.28 78.83,-53.7 74.06,-44.24 69.2,-49.28"/>
</g>
<!-- Node4 -->
<g id="node4" class="node">
<title>Node4</title>
<g id="a_node4"><a xlink:href="class_o_c_a_1_1_c_a_f_e_v_d_b_1_1_database_1_1_cloud_1_1_mapper_1_1_progress_status_mapper.html" target="_top" xlink:title="Mapper for progress status entities.">
<polygon fill="white" stroke="#666666" points="202,-19 86,-19 86,0 202,0 202,-19"/>
<text text-anchor="middle" x="144" y="-7" font-family="Helvetica,sans-Serif" font-size="10.00">ProgressStatusMapper</text>
</a>
</g>
</g>
<!-- Node1&#45;&gt;Node4 -->
<g id="edge3" class="edge">
<title>Node1&#45;&gt;Node4</title>
<path fill="none" stroke="#63b8ff" d="M106.35,-46.78C115.75,-37.72 126.98,-26.9 134.72,-19.44"/>
<polygon fill="#63b8ff" stroke="#63b8ff" points="103.94,-44.24 99.17,-53.7 108.8,-49.28 103.94,-44.24"/>
</g>
<!-- Node2 -->
<g id="node2" class="node">
<title>Node2</title>
<g id="a_node2"><a xlink:title=" ">
<polygon fill="white" stroke="#bfbfbf" points="120.5,-129 57.5,-129 57.5,-110 120.5,-110 120.5,-129"/>
<text text-anchor="middle" x="89" y="-117" font-family="Helvetica,sans-Serif" font-size="10.00">QBMapper</text>
</a>
</g>
</g>
<!-- Node2&#45;&gt;Node1 -->
<g id="edge1" class="edge">
<title>Node2&#45;&gt;Node1</title>
<path fill="none" stroke="#63b8ff" d="M89,-98.35C89,-90.1 89,-80.97 89,-74.44"/>
<polygon fill="#63b8ff" stroke="#63b8ff" points="85.5,-98.23 89,-108.23 92.5,-98.23 85.5,-98.23"/>
</g>
</g>
</svg>
