<?xml version="1.0" encoding="UTF-8" standalone="no"?>
<!DOCTYPE svg PUBLIC "-//W3C//DTD SVG 1.1//EN"
 "http://www.w3.org/Graphics/SVG/1.1/DTD/svg11.dtd">
<!-- Generated by graphviz version 9.0.0 (20230911.1827)
 -->
<!-- Title: executiveBoardMembers Pages: 1 -->
<svg width="441pt" height="142pt"
 viewBox="0.00 0.00 440.75 142.00" xmlns="http://www.w3.org/2000/svg" xmlns:xlink="http://www.w3.org/1999/xlink">

<svg id="main" version="1.1" xmlns="http://www.w3.org/2000/svg" xmlns:xlink="http://www.w3.org/1999/xlink" xml:space="preserve" onload="init(evt)">
<style type="text/css"><![CDATA[
.node, .edge {opacity: 0.7;}
.node.selected, .edge.selected {opacity: 1;}
.edge:hover path { stroke: red; }
.edge:hover polygon { stroke: red; fill: red; }
]]></style>
<script type="application/ecmascript" xlink:href="svg.min.js"/>
<svg id="graph" class="graph">
<g id="graph0" class="graph" transform="scale(1 1) rotate(0) translate(4 138)">
<title>executiveBoardMembers</title>
<!-- Node1 -->
<g id="Node000001" class="node">
<title>Node1</title>
<g id="a_Node000001"><a xlink:title="Return an array with all members of the executive board.">
<polygon fill="#999999" stroke="#666666" points="432.75,-58 308.75,-58 308.75,-38 432.75,-38 432.75,-58"/>
<text text-anchor="middle" x="370.75" y="-44.5" font-family="Helvetica,sans-Serif" font-size="10.00">executiveBoardMembers</text>
</a>
</g>
</g>
<!-- Node2 -->
<g id="Node000002" class="node">
<title>Node2</title>
<g id="a_Node000002"><a xlink:href="class_o_c_a_1_1_c_a_f_e_v_d_b_1_1_service_1_1_organizational_roles_service.html#a0be55a4885c7fb3d52f6511a4452cdbc" target="_top" xlink:title=" ">
<polygon fill="white" stroke="#666666" points="272.75,-96 107.5,-96 107.5,-76 272.75,-76 272.75,-96"/>
<text text-anchor="middle" x="190.12" y="-82.5" font-family="Helvetica,sans-Serif" font-size="10.00">dedicatedBoardMemberParticipant</text>
</a>
</g>
</g>
<!-- Node1&#45;&gt;Node2 -->
<g id="edge1_Node000001_Node000002" class="edge">
<title>Node1&#45;&gt;Node2</title>
<g id="a_edge1_Node000001_Node000002"><a xlink:title=" ">
<path fill="none" stroke="#63b8ff" d="M309.33,-60.85C286.84,-65.64 261.61,-71.01 240.25,-75.55"/>
<polygon fill="#63b8ff" stroke="#63b8ff" points="309.93,-64.3 318.99,-58.8 308.48,-57.46 309.93,-64.3"/>
</a>
</g>
</g>
<!-- Node6 -->
<g id="Node000006" class="node">
<title>Node6</title>
<g id="a_Node000006"><a xlink:href="class_o_c_a_1_1_c_a_f_e_v_d_b_1_1_service_1_1_organizational_roles_service.html#a704c6157c10be605fb129c98c6f3fd96" target="_top" xlink:title="Get the database entity for the matching executive board member.">
<polygon fill="white" stroke="#666666" points="235.25,-58 145,-58 145,-38 235.25,-38 235.25,-58"/>
<text text-anchor="middle" x="190.12" y="-44.5" font-family="Helvetica,sans-Serif" font-size="10.00">getBoardMember</text>
</a>
</g>
</g>
<!-- Node1&#45;&gt;Node6 -->
<g id="edge5_Node000001_Node000006" class="edge">
<title>Node1&#45;&gt;Node6</title>
<g id="a_edge5_Node000001_Node000006"><a xlink:title=" ">
<path fill="none" stroke="#63b8ff" d="M296.88,-48C276.08,-48 254.05,-48 235.51,-48"/>
<polygon fill="#63b8ff" stroke="#63b8ff" points="296.76,-51.5 306.76,-48 296.76,-44.5 296.76,-51.5"/>
</a>
</g>
</g>
<!-- Node7 -->
<g id="Node000007" class="node">
<title>Node7</title>
<g id="a_Node000007"><a xlink:href="class_o_c_a_1_1_c_a_f_e_v_d_b_1_1_service_1_1_organizational_roles_service.html#a954a17ac83ca105ff1dba71a2337f2d9" target="_top" xlink:title="Check whether the given or currently logged in user is a member of the executive board.">
<polygon fill="white" stroke="#666666" points="232.25,-20 148,-20 148,0 232.25,0 232.25,-20"/>
<text text-anchor="middle" x="190.12" y="-6.5" font-family="Helvetica,sans-Serif" font-size="10.00">isBoardMember</text>
</a>
</g>
</g>
<!-- Node1&#45;&gt;Node7 -->
<g id="edge6_Node000001_Node000007" class="edge">
<title>Node1&#45;&gt;Node7</title>
<g id="a_edge6_Node000001_Node000007"><a xlink:title=" ">
<path fill="none" stroke="#63b8ff" d="M309.52,-35.19C284.26,-29.81 255.53,-23.7 232.69,-18.84"/>
<polygon fill="#63b8ff" stroke="#63b8ff" points="308.48,-38.54 318.99,-37.2 309.93,-31.7 308.48,-38.54"/>
</a>
</g>
</g>
<!-- Node3 -->
<g id="Node000003" class="node">
<title>Node3</title>
<g id="a_Node000003"><a xlink:href="class_o_c_a_1_1_c_a_f_e_v_d_b_1_1_service_1_1_organizational_roles_service.html#a58259e4c7621772baed4e9883b59cc93" target="_top" xlink:title=" ">
<polygon fill="white" stroke="#666666" points="71.12,-134 0.38,-134 0.38,-114 71.12,-114 71.12,-134"/>
<text text-anchor="middle" x="35.75" y="-120.5" font-family="Helvetica,sans-Serif" font-size="10.00">getPresident</text>
</a>
</g>
</g>
<!-- Node2&#45;&gt;Node3 -->
<g id="edge2_Node000002_Node000003" class="edge">
<title>Node2&#45;&gt;Node3</title>
<g id="a_edge2_Node000002_Node000003"><a xlink:title=" ">
<path fill="none" stroke="#63b8ff" d="M136.16,-99.21C114.73,-104.55 90.58,-110.57 71.46,-115.34"/>
<polygon fill="#63b8ff" stroke="#63b8ff" points="136.76,-102.67 145.62,-96.85 135.07,-95.87 136.76,-102.67"/>
</a>
</g>
</g>
<!-- Node4 -->
<g id="Node000004" class="node">
<title>Node4</title>
<g id="a_Node000004"><a xlink:href="class_o_c_a_1_1_c_a_f_e_v_d_b_1_1_service_1_1_organizational_roles_service.html#a8ada6036f348dbf48c7910c53a774206" target="_top" xlink:title=" ">
<polygon fill="white" stroke="#666666" points="71.5,-96 0,-96 0,-76 71.5,-76 71.5,-96"/>
<text text-anchor="middle" x="35.75" y="-82.5" font-family="Helvetica,sans-Serif" font-size="10.00">getSecretary</text>
</a>
</g>
</g>
<!-- Node2&#45;&gt;Node4 -->
<g id="edge3_Node000002_Node000004" class="edge">
<title>Node2&#45;&gt;Node4</title>
<g id="a_edge3_Node000002_Node000004"><a xlink:title=" ">
<path fill="none" stroke="#63b8ff" d="M95.9,-86C87.45,-86 79.3,-86 71.89,-86"/>
<polygon fill="#63b8ff" stroke="#63b8ff" points="95.63,-89.5 105.63,-86 95.63,-82.5 95.63,-89.5"/>
</a>
</g>
</g>
<!-- Node5 -->
<g id="Node000005" class="node">
<title>Node5</title>
<g id="a_Node000005"><a xlink:href="class_o_c_a_1_1_c_a_f_e_v_d_b_1_1_service_1_1_organizational_roles_service.html#acd02402643b391e657040ddf7e1c2613" target="_top" xlink:title=" ">
<polygon fill="white" stroke="#666666" points="71.12,-58 0.38,-58 0.38,-38 71.12,-38 71.12,-58"/>
<text text-anchor="middle" x="35.75" y="-44.5" font-family="Helvetica,sans-Serif" font-size="10.00">getTreasurer</text>
</a>
</g>
</g>
<!-- Node2&#45;&gt;Node5 -->
<g id="edge4_Node000002_Node000005" class="edge">
<title>Node2&#45;&gt;Node5</title>
<g id="a_edge4_Node000002_Node000005"><a xlink:title=" ">
<path fill="none" stroke="#63b8ff" d="M131.84,-72.92C123.66,-70.98 115.36,-68.97 107.5,-67 95.78,-64.06 83.02,-60.69 71.6,-57.61"/>
<polygon fill="#63b8ff" stroke="#63b8ff" points="130.86,-76.29 141.4,-75.17 132.46,-69.47 130.86,-76.29"/>
</a>
</g>
</g>
</g>
</svg>
</svg>

<style type='text/css'>
<![CDATA[
[data-mouse-over-selected='false'] { opacity: 0.7; }
[data-mouse-over-selected='true']  { opacity: 1.0; }
]]>
</style>
<script type="application/ecmascript"><![CDATA[
document.addEventListener('DOMContentLoaded', (event) => {
  highlightEdges();
  highlightAdjacentNodes();
});
]]></script>
</svg>
