<?xml version="1.0" encoding="UTF-8" standalone="no"?>
<!DOCTYPE svg PUBLIC "-//W3C//DTD SVG 1.1//EN"
 "http://www.w3.org/Graphics/SVG/1.1/DTD/svg11.dtd">
<!-- Generated by graphviz version 9.0.0 (20230911.1827)
 -->
<!-- Title: addMessage Pages: 1 -->
<svg width="457pt" height="52pt"
 viewBox="0.00 0.00 456.50 52.00" xmlns="http://www.w3.org/2000/svg" xmlns:xlink="http://www.w3.org/1999/xlink">
<g id="graph0" class="graph" transform="scale(1 1) rotate(0) translate(4 48)">
<title>addMessage</title>
<!-- Node1 -->
<g id="Node000001" class="node">
<title>Node1</title>
<g id="a_Node000001"><a xlink:title=" ">
<polygon fill="#999999" stroke="#666666" points="448.5,-32 377,-32 377,-12 448.5,-12 448.5,-32"/>
<text text-anchor="middle" x="412.75" y="-18.5" font-family="Helvetica,sans-Serif" font-size="10.00">addMessage</text>
</a>
</g>
</g>
<!-- Node2 -->
<g id="Node000002" class="node">
<title>Node2</title>
<g id="a_Node000002"><a xlink:href="class_o_c_a_1_1_c_a_f_e_v_d_b_1_1_maintenance_1_1_sanitizers_1_1_google_mail_sanitizer.html#a184909dab34698899937d810a9f5d393" target="_top" xlink:title="{{bool Return \true if the entity is ok to the judgement of this sanitizer, \false otherwise....">
<polygon fill="white" stroke="#666666" points="341,-44 188.5,-44 188.5,0 341,0 341,-44"/>
<text text-anchor="start" x="196.5" y="-30.5" font-family="Helvetica,sans-Serif" font-size="10.00">OCA\CAFEVDB\Maintenance</text>
<text text-anchor="start" x="196.5" y="-18.5" font-family="Helvetica,sans-Serif" font-size="10.00">\Sanitizers\GoogleMailSanitizer</text>
<text text-anchor="middle" x="264.75" y="-6.5" font-family="Helvetica,sans-Serif" font-size="10.00">\validate</text>
</a>
</g>
</g>
<!-- Node1&#45;&gt;Node2 -->
<g id="edge1_Node000001_Node000002" class="edge">
<title>Node1&#45;&gt;Node2</title>
<g id="a_edge1_Node000001_Node000002"><a xlink:title=" ">
<path fill="none" stroke="#63b8ff" d="M365.43,-22C357.68,-22 349.47,-22 341.21,-22"/>
<polygon fill="#63b8ff" stroke="#63b8ff" points="365.27,-25.5 375.27,-22 365.27,-18.5 365.27,-25.5"/>
</a>
</g>
</g>
<!-- Node3 -->
<g id="Node000003" class="node">
<title>Node3</title>
<g id="a_Node000003"><a xlink:href="class_o_c_a_1_1_c_a_f_e_v_d_b_1_1_maintenance_1_1_sanitizers_1_1_google_mail_sanitizer.html#ab6f35bf773b3e078c9f9acd8e4f8de84" target="_top" xlink:title="{{Call sanitize(SANITIZE_PERSIST, $flush).void\SanitizerException}}">
<polygon fill="white" stroke="#666666" points="152.5,-44 0,-44 0,0 152.5,0 152.5,-44"/>
<text text-anchor="start" x="8" y="-30.5" font-family="Helvetica,sans-Serif" font-size="10.00">OCA\CAFEVDB\Maintenance</text>
<text text-anchor="start" x="8" y="-18.5" font-family="Helvetica,sans-Serif" font-size="10.00">\Sanitizers\GoogleMailSanitizer</text>
<text text-anchor="middle" x="76.25" y="-6.5" font-family="Helvetica,sans-Serif" font-size="10.00">\sanitizePersist</text>
</a>
</g>
</g>
<!-- Node2&#45;&gt;Node3 -->
<g id="edge2_Node000002_Node000003" class="edge">
<title>Node2&#45;&gt;Node3</title>
<g id="a_edge2_Node000002_Node000003"><a xlink:title=" ">
<path fill="none" stroke="#63b8ff" d="M176.91,-22C168.91,-22 160.84,-22 152.95,-22"/>
<polygon fill="#63b8ff" stroke="#63b8ff" points="176.65,-25.5 186.65,-22 176.65,-18.5 176.65,-25.5"/>
</a>
</g>
</g>
</g>
</svg>
