<?xml version="1.0" encoding="UTF-8" standalone="no"?>
<!DOCTYPE svg PUBLIC "-//W3C//DTD SVG 1.1//EN"
 "http://www.w3.org/Graphics/SVG/1.1/DTD/svg11.dtd">
<!-- Generated by graphviz version 8.0.3 (20230416.2022)
 -->
<!-- Title: getFontFolderEntries Pages: 1 -->
<svg width="502pt" height="27pt"
 viewBox="0.00 0.00 502.00 27.00" xmlns="http://www.w3.org/2000/svg" xmlns:xlink="http://www.w3.org/1999/xlink">
<g id="graph0" class="graph" transform="scale(1 1) rotate(0) translate(4 23)">
<title>getFontFolderEntries</title>
<!-- Node1 -->
<g id="node1" class="node">
<title>Node1</title>
<g id="a_node1"><a xlink:title="Obtain the cached contents of the font&#45;folder, grouped by family.">
<polygon fill="#999999" stroke="#666666" points="107,-19 0,-19 0,0 107,0 107,-19"/>
<text text-anchor="middle" x="53.5" y="-7" font-family="Helvetica,sans-Serif" font-size="10.00">getFontFolderEntries</text>
</a>
</g>
</g>
<!-- Node2 -->
<g id="node2" class="node">
<title>Node2</title>
<g id="a_node2"><a xlink:href="class_o_c_a_1_1_c_a_f_e_v_d_b_1_1_service_1_1_font_service.html#a11370c328f78412deb89ea3a113e01dc" target="_top" xlink:title="Scan the app&#39;s fonts folder and return the contents grouped by font family.">
<polygon fill="white" stroke="#666666" points="232,-19 143,-19 143,0 232,0 232,-19"/>
<text text-anchor="middle" x="187.5" y="-7" font-family="Helvetica,sans-Serif" font-size="10.00">scanFontsFolder</text>
</a>
</g>
</g>
<!-- Node1&#45;&gt;Node2 -->
<g id="edge1" class="edge">
<title>Node1&#45;&gt;Node2</title>
<path fill="none" stroke="#63b8ff" d="M107.43,-9.5C115.52,-9.5 123.88,-9.5 132,-9.5"/>
<polygon fill="#63b8ff" stroke="#63b8ff" points="131.87,-13 141.87,-9.5 131.87,-6 131.87,-13"/>
</g>
<!-- Node3 -->
<g id="node3" class="node">
<title>Node3</title>
<g id="a_node3"><a xlink:href="class_o_c_a_1_1_c_a_f_e_v_d_b_1_1_service_1_1_font_service.html#a77513dce29558f6d1474fb786b9ef885" target="_top" xlink:title=" ">
<polygon fill="white" stroke="#666666" points="376,-19 268,-19 268,0 376,0 376,-19"/>
<text text-anchor="middle" x="322" y="-7" font-family="Helvetica,sans-Serif" font-size="10.00">getFontsFolderName</text>
</a>
</g>
</g>
<!-- Node2&#45;&gt;Node3 -->
<g id="edge2" class="edge">
<title>Node2&#45;&gt;Node3</title>
<path fill="none" stroke="#63b8ff" d="M232.25,-9.5C240.11,-9.5 248.46,-9.5 256.76,-9.5"/>
<polygon fill="#63b8ff" stroke="#63b8ff" points="256.6,-13 266.6,-9.5 256.6,-6 256.6,-13"/>
</g>
<!-- Node4 -->
<g id="node4" class="node">
<title>Node4</title>
<g id="a_node4"><a xlink:href="class_o_c_a_1_1_c_a_f_e_v_d_b_1_1_service_1_1_font_service.html#a1548029c9c58b03ee3a95f9d5c143920" target="_top" xlink:title=" ">
<polygon fill="white" stroke="#666666" points="494,-19 412,-19 412,0 494,0 494,-19"/>
<text text-anchor="middle" x="453" y="-7" font-family="Helvetica,sans-Serif" font-size="10.00">getFontsFolder</text>
</a>
</g>
</g>
<!-- Node3&#45;&gt;Node4 -->
<g id="edge3" class="edge">
<title>Node3&#45;&gt;Node4</title>
<path fill="none" stroke="#63b8ff" d="M376.21,-9.5C384.33,-9.5 392.68,-9.5 400.75,-9.5"/>
<polygon fill="#63b8ff" stroke="#63b8ff" points="400.52,-13 410.52,-9.5 400.52,-6 400.52,-13"/>
</g>
</g>
</svg>
