<?xml version="1.0" encoding="UTF-8" standalone="no"?>
<!DOCTYPE svg PUBLIC "-//W3C//DTD SVG 1.1//EN"
 "http://www.w3.org/Graphics/SVG/1.1/DTD/svg11.dtd">
<!-- Generated by graphviz version 8.0.3 (20230416.2022)
 -->
<!-- Title: decryptConfigValues Pages: 1 -->
<svg width="365pt" height="64pt"
 viewBox="0.00 0.00 365.00 64.00" xmlns="http://www.w3.org/2000/svg" xmlns:xlink="http://www.w3.org/1999/xlink">
<g id="graph0" class="graph" transform="scale(1 1) rotate(0) translate(4 60)">
<title>decryptConfigValues</title>
<!-- Node1 -->
<g id="node1" class="node">
<title>Node1</title>
<g id="a_node1"><a xlink:title="Fetch all config values and decrypt them.">
<polygon fill="#999999" stroke="#666666" points="107,-37 0,-37 0,-18 107,-18 107,-37"/>
<text text-anchor="middle" x="53.5" y="-25" font-family="Helvetica,sans-Serif" font-size="10.00">decryptConfigValues</text>
</a>
</g>
</g>
<!-- Node2 -->
<g id="node2" class="node">
<title>Node2</title>
<g id="a_node2"><a xlink:href="class_o_c_a_1_1_c_a_f_e_v_d_b_1_1_service_1_1_config_service.html#aaad6d13926282013d0965a2f6ab3df85" target="_top" xlink:title=" ">
<polygon fill="white" stroke="#666666" points="219.5,-56 149.5,-56 149.5,-37 219.5,-37 219.5,-56"/>
<text text-anchor="middle" x="184.5" y="-44" font-family="Helvetica,sans-Serif" font-size="10.00">getAppKeys</text>
</a>
</g>
</g>
<!-- Node1&#45;&gt;Node2 -->
<g id="edge1" class="edge">
<title>Node1&#45;&gt;Node2</title>
<path fill="none" stroke="#63b8ff" d="M107.34,-35.28C117.66,-36.8 128.4,-38.38 138.44,-39.86"/>
<polygon fill="#63b8ff" stroke="#63b8ff" points="137.61,-43.43 148.01,-41.42 138.63,-36.5 137.61,-43.43"/>
</g>
<!-- Node3 -->
<g id="node3" class="node">
<title>Node3</title>
<g id="a_node3"><a xlink:href="class_o_c_a_1_1_c_a_f_e_v_d_b_1_1_service_1_1_config_service.html#a7f3eb9937785e05b6d3e638fc187072c" target="_top" xlink:title="Get a possibly encrypted config value.">
<polygon fill="white" stroke="#666666" points="226,-19 143,-19 143,0 226,0 226,-19"/>
<text text-anchor="middle" x="184.5" y="-7" font-family="Helvetica,sans-Serif" font-size="10.00">getConfigValue</text>
</a>
</g>
</g>
<!-- Node1&#45;&gt;Node3 -->
<g id="edge2" class="edge">
<title>Node1&#45;&gt;Node3</title>
<path fill="none" stroke="#63b8ff" d="M107.34,-20.13C115.47,-18.99 123.86,-17.82 131.96,-16.69"/>
<polygon fill="#63b8ff" stroke="#63b8ff" points="132.37,-20.03 141.79,-15.18 131.4,-13.1 132.37,-20.03"/>
</g>
<!-- Node4 -->
<g id="node4" class="node">
<title>Node4</title>
<g id="a_node4"><a xlink:href="class_o_c_a_1_1_c_a_f_e_v_d_b_1_1_service_1_1_config_service.html#a753a0c5fa9ab0a7aad9e5626571a35f0" target="_top" xlink:title=" ">
<polygon fill="white" stroke="#666666" points="357,-19 262,-19 262,0 357,0 357,-19"/>
<text text-anchor="middle" x="309.5" y="-7" font-family="Helvetica,sans-Serif" font-size="10.00">encryptionService</text>
</a>
</g>
</g>
<!-- Node3&#45;&gt;Node4 -->
<g id="edge3" class="edge">
<title>Node3&#45;&gt;Node4</title>
<path fill="none" stroke="#63b8ff" d="M226.46,-9.5C234.33,-9.5 242.71,-9.5 250.99,-9.5"/>
<polygon fill="#63b8ff" stroke="#63b8ff" points="250.77,-13 260.77,-9.5 250.77,-6 250.77,-13"/>
</g>
</g>
</svg>
