<?xml version="1.0" encoding="UTF-8" standalone="no"?>
<!DOCTYPE svg PUBLIC "-//W3C//DTD SVG 1.1//EN"
 "http://www.w3.org/Graphics/SVG/1.1/DTD/svg11.dtd">
<!-- Generated by graphviz version 9.0.0 (20230911.1827)
 -->
<!-- Title: getUserId Pages: 1 -->
<svg width="486pt" height="117pt"
 viewBox="0.00 0.00 485.50 117.46" xmlns="http://www.w3.org/2000/svg" xmlns:xlink="http://www.w3.org/1999/xlink">

<svg id="main" version="1.1" xmlns="http://www.w3.org/2000/svg" xmlns:xlink="http://www.w3.org/1999/xlink" xml:space="preserve" onload="init(evt)">
<style type="text/css"><![CDATA[
.node, .edge {opacity: 0.7;}
.node.selected, .edge.selected {opacity: 1;}
.edge:hover path { stroke: red; }
.edge:hover polygon { stroke: red; fill: red; }
]]></style>
<script type="application/ecmascript" xlink:href="svg.min.js"/>
<svg id="graph" class="graph">
<g id="graph0" class="graph" transform="scale(1 1) rotate(0) translate(4 113.46)">
<title>getUserId</title>
<!-- Node1 -->
<g id="Node000001" class="node">
<title>Node1</title>
<g id="a_Node000001"><a xlink:title=" ">
<polygon fill="#999999" stroke="#666666" points="58.75,-33.46 0,-33.46 0,-13.46 58.75,-13.46 58.75,-33.46"/>
<text text-anchor="middle" x="29.38" y="-19.96" font-family="Helvetica,sans-Serif" font-size="10.00">getUserId</text>
</a>
</g>
</g>
<!-- Node2 -->
<g id="Node000002" class="node">
<title>Node2</title>
<g id="a_Node000002"><a xlink:href="class_o_c_a_1_1_c_a_f_e_v_d_b_1_1_service_1_1_config_service.html#a8be64a59621bfe298a4109ce08229ecd" target="_top" xlink:title=" ">
<polygon fill="white" stroke="#666666" points="145.25,-33.46 94.75,-33.46 94.75,-13.46 145.25,-13.46 145.25,-33.46"/>
<text text-anchor="middle" x="120" y="-19.96" font-family="Helvetica,sans-Serif" font-size="10.00">getUser</text>
</a>
</g>
</g>
<!-- Node1&#45;&gt;Node2 -->
<g id="edge1_Node000001_Node000002" class="edge">
<title>Node1&#45;&gt;Node2</title>
<g id="a_edge1_Node000001_Node000002"><a xlink:title=" ">
<path fill="none" stroke="#63b8ff" d="M58.9,-23.46C66.59,-23.46 75,-23.46 83.03,-23.46"/>
<polygon fill="#63b8ff" stroke="#63b8ff" points="82.89,-26.96 92.89,-23.46 82.89,-19.96 82.89,-26.96"/>
</a>
</g>
</g>
<!-- Node3 -->
<g id="Node000003" class="node">
<title>Node3</title>
<g id="a_Node000003"><a xlink:href="class_o_c_a_1_1_c_a_f_e_v_d_b_1_1_service_1_1_config_service.html#a9645249ef330a927cede315afee62d5a" target="_top" xlink:title=" ">
<polygon fill="white" stroke="#666666" points="269.25,-109.46 181.25,-109.46 181.25,-89.46 269.25,-89.46 269.25,-109.46"/>
<text text-anchor="middle" x="225.25" y="-95.96" font-family="Helvetica,sans-Serif" font-size="10.00">getUserManager</text>
</a>
</g>
</g>
<!-- Node2&#45;&gt;Node3 -->
<g id="edge2_Node000002_Node000003" class="edge">
<title>Node2&#45;&gt;Node3</title>
<g id="a_edge2_Node000002_Node000003"><a xlink:title=" ">
<path fill="none" stroke="#63b8ff" d="M131.56,-33.75C143.18,-44.78 162.68,-62.47 181.25,-75.46 185.19,-78.22 189.47,-80.92 193.76,-83.47"/>
<polygon fill="#63b8ff" stroke="#63b8ff" points="191.87,-86.42 202.29,-88.3 195.32,-80.33 191.87,-86.42"/>
</a>
</g>
</g>
<!-- Node4 -->
<g id="Node000004" class="node">
<title>Node4</title>
<g id="a_Node000004"><a xlink:href="class_o_c_a_1_1_c_a_f_e_v_d_b_1_1_service_1_1_config_service.html#a8e80f766c9aa0f817b358aa67422985a" target="_top" xlink:title=" ">
<polygon fill="white" stroke="#666666" points="477.5,-52.46 391.75,-52.46 391.75,-32.46 477.5,-32.46 477.5,-52.46"/>
<text text-anchor="middle" x="434.62" y="-38.96" font-family="Helvetica,sans-Serif" font-size="10.00">getUserSession</text>
</a>
</g>
</g>
<!-- Node2&#45;&gt;Node4 -->
<g id="edge3_Node000002_Node000004" class="edge">
<title>Node2&#45;&gt;Node4</title>
<g id="a_edge3_Node000002_Node000004"><a xlink:title=" ">
<path fill="none" stroke="#63b8ff" d="M145.51,-33.06C156.29,-36.79 169.22,-40.61 181.25,-42.46 249.15,-52.91 328.54,-50.56 379.88,-47.17"/>
<polygon fill="#63b8ff" stroke="#63b8ff" points="380.11,-50.67 389.84,-46.47 379.62,-43.68 380.11,-50.67"/>
</a>
</g>
</g>
<!-- Node5 -->
<g id="Node000005" class="node">
<title>Node5</title>
<g id="a_Node000005"><a xlink:href="class_o_c_a_1_1_c_a_f_e_v_d_b_1_1_service_1_1_config_service.html#a6cacbeb3555df4a292566b2e1b9bb574" target="_top" xlink:title="Install a new user id.">
<polygon fill="white" stroke="#666666" points="254.62,-33.46 195.88,-33.46 195.88,-13.46 254.62,-13.46 254.62,-33.46"/>
<text text-anchor="middle" x="225.25" y="-19.96" font-family="Helvetica,sans-Serif" font-size="10.00">setUserId</text>
</a>
</g>
</g>
<!-- Node2&#45;&gt;Node5 -->
<g id="edge4_Node000002_Node000005" class="edge">
<title>Node2&#45;&gt;Node5</title>
<g id="a_edge4_Node000002_Node000005"><a xlink:title=" ">
<path fill="none" stroke="#63b8ff" d="M145.73,-17.6C157.36,-16.76 171.51,-16.51 184.58,-16.88"/>
<polygon fill="#63b8ff" stroke="#63b8ff" points="184.05,-20.36 194.19,-17.29 184.35,-13.36 184.05,-20.36"/>
</a>
</g>
</g>
<!-- Node5&#45;&gt;Node2 -->
<g id="edge5_Node000005_Node000002" class="edge">
<title>Node5&#45;&gt;Node2</title>
<g id="a_edge5_Node000005_Node000002"><a xlink:title=" ">
<path fill="none" stroke="#63b8ff" d="M195.7,-29.57C183.7,-30.29 169.59,-30.4 156.9,-29.93"/>
<polygon fill="#63b8ff" stroke="#63b8ff" points="157.42,-26.45 147.24,-29.4 157.04,-33.44 157.42,-26.45"/>
</a>
</g>
</g>
<!-- Node6 -->
<g id="Node000006" class="node">
<title>Node6</title>
<g id="a_Node000006"><a xlink:href="class_o_c_a_1_1_c_a_f_e_v_d_b_1_1_service_1_1_config_service.html#a7b6e5c12813dec3c45ec9531820c539a" target="_top" xlink:title="Install a new user.">
<polygon fill="white" stroke="#666666" points="355.75,-33.46 305.25,-33.46 305.25,-13.46 355.75,-13.46 355.75,-33.46"/>
<text text-anchor="middle" x="330.5" y="-19.96" font-family="Helvetica,sans-Serif" font-size="10.00">setUser</text>
</a>
</g>
</g>
<!-- Node5&#45;&gt;Node6 -->
<g id="edge6_Node000005_Node000006" class="edge">
<title>Node5&#45;&gt;Node6</title>
<g id="a_edge6_Node000005_Node000006"><a xlink:title=" ">
<path fill="none" stroke="#63b8ff" d="M255.01,-23.46C267.07,-23.46 281.22,-23.46 293.93,-23.46"/>
<polygon fill="#63b8ff" stroke="#63b8ff" points="293.57,-26.96 303.57,-23.46 293.57,-19.96 293.57,-26.96"/>
</a>
</g>
</g>
<!-- Node6&#45;&gt;Node2 -->
<g id="edge7_Node000006_Node000002" class="edge">
<title>Node6&#45;&gt;Node2</title>
<g id="a_edge7_Node000006_Node000002"><a xlink:title=" ">
<path fill="none" stroke="#63b8ff" d="M304.99,-13.86C294.21,-10.13 281.28,-6.32 269.25,-4.46 230.59,1.49 219.91,1.49 181.25,-4.46 173.07,-5.72 164.48,-7.89 156.43,-10.32"/>
<polygon fill="#63b8ff" stroke="#63b8ff" points="155.38,-6.98 146.95,-13.4 157.54,-13.64 155.38,-6.98"/>
</a>
</g>
</g>
<!-- Node6&#45;&gt;Node4 -->
<g id="edge8_Node000006_Node000004" class="edge">
<title>Node6&#45;&gt;Node4</title>
<g id="a_edge8_Node000006_Node000004"><a xlink:title=" ">
<path fill="none" stroke="#63b8ff" d="M356.22,-28.06C363.61,-29.44 372.01,-31 380.49,-32.58"/>
<polygon fill="#63b8ff" stroke="#63b8ff" points="379.64,-35.98 390.11,-34.37 380.92,-29.1 379.64,-35.98"/>
</a>
</g>
</g>
</g>
</svg>
</svg>

<style type='text/css'>
<![CDATA[
[data-mouse-over-selected='false'] { opacity: 0.7; }
[data-mouse-over-selected='true']  { opacity: 1.0; }
]]>
</style>
<script type="application/ecmascript"><![CDATA[
document.addEventListener('DOMContentLoaded', (event) => {
  highlightEdges();
  highlightAdjacentNodes();
});
]]></script>
</svg>
