<?xml version="1.0" encoding="UTF-8" standalone="no"?>
<!DOCTYPE svg PUBLIC "-//W3C//DTD SVG 1.1//EN"
 "http://www.w3.org/Graphics/SVG/1.1/DTD/svg11.dtd">
<!-- Generated by graphviz version 7.1.0 (20230121.1956)
 -->
<!-- Title: getVObject Pages: 1 -->
<!--zoomable 205 -->
<svg id="main" version="1.1" xmlns="http://www.w3.org/2000/svg" xmlns:xlink="http://www.w3.org/1999/xlink" xml:space="preserve" onload="init(evt)">
<style type="text/css"><![CDATA[
.edge:hover path { stroke: red; }
.edge:hover polygon { stroke: red; fill: red; }
]]></style>
<script type="text/javascript"><![CDATA[
var edges = document.getElementsByTagName('g');
if (edges && edges.length) {
  for (var i=0;i<edges.length;i++) {
    if (edges[i].id.substr(0,4)=='edge') {
      edges[i].setAttribute('class','edge');
    }
  }
}
]]></script>
        <defs>
                <circle id="rim" cx="0" cy="0" r="7"/>
                <circle id="rim2" cx="0" cy="0" r="3.5"/>
                <g id="zoomPlus">
                        <use xlink:href="#rim" fill="#404040">
                                <set attributeName="fill" to="#808080" begin="zoomplus.mouseover" end="zoomplus.mouseout"/>
                        </use>
                        <path d="M-4,0h8M0,-4v8" fill="none" stroke="white" stroke-width="1.5" pointer-events="none"/>
                </g>
                <g id="zoomMin">
                        <use xlink:href="#rim" fill="#404040">
                                <set attributeName="fill" to="#808080" begin="zoomminus.mouseover" end="zoomminus.mouseout"/>
                        </use>
                        <path d="M-4,0h8" fill="none" stroke="white" stroke-width="1.5" pointer-events="none"/>
                </g>
                <g id="dirArrow">
                        <path fill="none" stroke="white" stroke-width="1.5" d="M0,-3.0v7 M-2.5,-0.5L0,-3.0L2.5,-0.5"/>
                </g>
               <g id="resetDef">
                       <use xlink:href="#rim2" fill="#404040">
                               <set attributeName="fill" to="#808080" begin="reset.mouseover" end="reset.mouseout"/>
                       </use>
               </g>
        </defs>

<script type="text/javascript">
var viewWidth = 653;
var viewHeight = 205;
var sectionId = 'dynsection-12';
</script>
<script xlink:href="svgpan.js"/>
<svg id="graph" class="graph">
<g id="viewport">
<title>getVObject</title>
<!-- Node1 -->
<g id="node1" class="node">
<title>Node1</title>
<g id="a_node1"><a xlink:title="Return a reference to the object contained in a Sabre VCALENDAR object.">
<polygon fill="#999999" stroke="#666666" points="645,-143 580,-143 580,-124 645,-124 645,-143"/>
<text text-anchor="middle" x="612.5" y="-131" font-family="Helvetica,sans-Serif" font-size="10.00">getVObject</text>
</a>
</g>
</g>
<!-- Node2 -->
<g id="node2" class="node">
<title>Node2</title>
<g id="a_node2"><a xlink:href="class_o_c_a_1_1_c_a_f_e_v_d_b_1_1_service_1_1_events_service.html#ab266e1b2f40afdf180bc9de4f3a06708" target="_top" xlink:title="Export the given events in ICAL format.">
<polygon fill="white" stroke="#666666" points="543,-196.5 399,-196.5 399,-166.5 543,-166.5 543,-196.5"/>
<text text-anchor="start" x="407" y="-184.5" font-family="Helvetica,sans-Serif" font-size="10.00">OCA\CAFEVDB\Service</text>
<text text-anchor="middle" x="471" y="-173.5" font-family="Helvetica,sans-Serif" font-size="10.00">\EventsService\exportEvents</text>
</a>
</g>
</g>
<!-- Node1&#45;&gt;Node2 -->
<g id="edge1" class="edge">
<title>Node1&#45;&gt;Node2</title>
<path fill="none" stroke="#63b8ff" d="M573.17,-147.28C563.65,-150.66 553.47,-154.24 544,-157.5 535.9,-160.29 527.27,-163.21 518.91,-166.01"/>
<polygon fill="#63b8ff" stroke="#63b8ff" points="574.29,-150.6 582.53,-143.94 571.94,-144 574.29,-150.6"/>
</g>
<!-- Node3 -->
<g id="node3" class="node">
<title>Node3</title>
<g id="a_node3"><a xlink:href="class_o_c_a_1_1_c_a_f_e_v_d_b_1_1_service_1_1_events_service.html#adb10e26ac6192b69880597d9384f9685" target="_top" xlink:title="Augment the database entity by calendar data.">
<polygon fill="white" stroke="#666666" points="539,-148.5 403,-148.5 403,-118.5 539,-118.5 539,-148.5"/>
<text text-anchor="start" x="411" y="-136.5" font-family="Helvetica,sans-Serif" font-size="10.00">OCA\CAFEVDB\Service</text>
<text text-anchor="middle" x="471" y="-125.5" font-family="Helvetica,sans-Serif" font-size="10.00">\EventsService\makeEvent</text>
</a>
</g>
</g>
<!-- Node1&#45;&gt;Node3 -->
<g id="edge2" class="edge">
<title>Node1&#45;&gt;Node3</title>
<path fill="none" stroke="#63b8ff" d="M568.59,-133.5C559.34,-133.5 549.35,-133.5 539.42,-133.5"/>
<polygon fill="#63b8ff" stroke="#63b8ff" points="568.33,-137 578.33,-133.5 568.33,-130 568.33,-137"/>
</g>
<!-- Node7 -->
<g id="node7" class="node">
<title>Node7</title>
<g id="a_node7"><a xlink:href="class_o_c_a_1_1_c_a_f_e_v_d_b_1_1_service_1_1_events_service.html#a9c5b6c8d51d88794475b33331e1afa98" target="_top" xlink:title="Parse the respective event data and make sure the ProjectEvents table is uptodate.">
<polygon fill="white" stroke="#666666" points="544,-100 398,-100 398,-59 544,-59 544,-100"/>
<text text-anchor="start" x="406" y="-88" font-family="Helvetica,sans-Serif" font-size="10.00">OCA\CAFEVDB\Service</text>
<text text-anchor="start" x="406" y="-77" font-family="Helvetica,sans-Serif" font-size="10.00">\EventsService\syncCalendar</text>
<text text-anchor="middle" x="471" y="-66" font-family="Helvetica,sans-Serif" font-size="10.00">Object</text>
</a>
</g>
</g>
<!-- Node1&#45;&gt;Node7 -->
<g id="edge6" class="edge">
<title>Node1&#45;&gt;Node7</title>
<path fill="none" stroke="#63b8ff" d="M575.49,-119.56C560.43,-113.73 542.61,-106.83 526.03,-100.42"/>
<polygon fill="#63b8ff" stroke="#63b8ff" points="573.91,-122.7 584.5,-123.05 576.44,-116.18 573.91,-122.7"/>
</g>
<!-- Node4 -->
<g id="node4" class="node">
<title>Node4</title>
<g id="a_node4"><a xlink:href="class_o_c_a_1_1_c_a_f_e_v_d_b_1_1_service_1_1_events_service.html#a2167926c53943f936dd0d8cfb9794449" target="_top" xlink:title="Fetch the list of events associated with $projectId.">
<polygon fill="white" stroke="#666666" points="342.5,-196.5 217.5,-196.5 217.5,-166.5 342.5,-166.5 342.5,-196.5"/>
<text text-anchor="start" x="225.5" y="-184.5" font-family="Helvetica,sans-Serif" font-size="10.00">OCA\CAFEVDB\Service</text>
<text text-anchor="middle" x="280" y="-173.5" font-family="Helvetica,sans-Serif" font-size="10.00">\EventsService\events</text>
</a>
</g>
</g>
<!-- Node3&#45;&gt;Node4 -->
<g id="edge3" class="edge">
<title>Node3&#45;&gt;Node4</title>
<path fill="none" stroke="#63b8ff" d="M398.08,-151.77C379.5,-156.48 359.68,-161.52 341.73,-166.08"/>
<polygon fill="#63b8ff" stroke="#63b8ff" points="398.86,-155.18 407.69,-149.32 397.14,-148.39 398.86,-155.18"/>
</g>
<!-- Node6 -->
<g id="node6" class="node">
<title>Node6</title>
<g id="a_node6"><a xlink:href="class_o_c_a_1_1_c_a_f_e_v_d_b_1_1_service_1_1_events_service.html#ae8618eeab47bb92ae141f68b7d5ea72f" target="_top" xlink:title="Fetch one specific event and convert start and end to DateTime, also determine allDay.">
<polygon fill="white" stroke="#666666" points="347,-148.5 213,-148.5 213,-118.5 347,-118.5 347,-148.5"/>
<text text-anchor="start" x="221" y="-136.5" font-family="Helvetica,sans-Serif" font-size="10.00">OCA\CAFEVDB\Service</text>
<text text-anchor="middle" x="280" y="-125.5" font-family="Helvetica,sans-Serif" font-size="10.00">\EventsService\fetchEvent</text>
</a>
</g>
</g>
<!-- Node3&#45;&gt;Node6 -->
<g id="edge5" class="edge">
<title>Node3&#45;&gt;Node6</title>
<path fill="none" stroke="#63b8ff" d="M391.07,-133.5C376.56,-133.5 361.55,-133.5 347.45,-133.5"/>
<polygon fill="#63b8ff" stroke="#63b8ff" points="391.05,-137 401.05,-133.5 391.05,-130 391.05,-137"/>
</g>
<!-- Node5 -->
<g id="node5" class="node">
<title>Node5</title>
<g id="a_node5"><a xlink:href="class_o_c_a_1_1_c_a_f_e_v_d_b_1_1_service_1_1_events_service.html#a8beeaea47449131186f3182d74a639de" target="_top" xlink:title="Return event data for given project id and calendar id.">
<polygon fill="white" stroke="#666666" points="162,-196.5 0,-196.5 0,-166.5 162,-166.5 162,-196.5"/>
<text text-anchor="start" x="8" y="-184.5" font-family="Helvetica,sans-Serif" font-size="10.00">OCA\CAFEVDB\Service</text>
<text text-anchor="middle" x="81" y="-173.5" font-family="Helvetica,sans-Serif" font-size="10.00">\EventsService\projectEventData</text>
</a>
</g>
</g>
<!-- Node4&#45;&gt;Node5 -->
<g id="edge4" class="edge">
<title>Node4&#45;&gt;Node5</title>
<path fill="none" stroke="#63b8ff" d="M206,-181.5C191.79,-181.5 176.82,-181.5 162.38,-181.5"/>
<polygon fill="#63b8ff" stroke="#63b8ff" points="205.69,-185 215.69,-181.5 205.69,-178 205.69,-185"/>
</g>
<!-- Node8 -->
<g id="node8" class="node">
<title>Node8</title>
<g id="a_node8"><a xlink:href="class_o_c_a_1_1_c_a_f_e_v_d_b_1_1_service_1_1_events_service.html#a3b6658ae82665c492cf28af4e6277831" target="_top" xlink:title=" ">
<polygon fill="white" stroke="#666666" points="362,-100 198,-100 198,-59 362,-59 362,-100"/>
<text text-anchor="start" x="206" y="-88" font-family="Helvetica,sans-Serif" font-size="10.00">OCA\CAFEVDB\Service</text>
<text text-anchor="start" x="206" y="-77" font-family="Helvetica,sans-Serif" font-size="10.00">\EventsService\onCalendarObject</text>
<text text-anchor="middle" x="280" y="-66" font-family="Helvetica,sans-Serif" font-size="10.00">Created</text>
</a>
</g>
</g>
<!-- Node7&#45;&gt;Node8 -->
<g id="edge7" class="edge">
<title>Node7&#45;&gt;Node8</title>
<path fill="none" stroke="#63b8ff" d="M386.23,-79.5C378.3,-79.5 370.27,-79.5 362.37,-79.5"/>
<polygon fill="#63b8ff" stroke="#63b8ff" points="386.22,-83 396.22,-79.5 386.22,-76 386.22,-83"/>
</g>
<!-- Node9 -->
<g id="node9" class="node">
<title>Node9</title>
<g id="a_node9"><a xlink:href="class_o_c_a_1_1_c_a_f_e_v_d_b_1_1_service_1_1_events_service.html#ad0dad4413ad713821f2a1be6a76fd888" target="_top" xlink:title=" ">
<polygon fill="white" stroke="#666666" points="362,-41 198,-41 198,0 362,0 362,-41"/>
<text text-anchor="start" x="206" y="-29" font-family="Helvetica,sans-Serif" font-size="10.00">OCA\CAFEVDB\Service</text>
<text text-anchor="start" x="206" y="-18" font-family="Helvetica,sans-Serif" font-size="10.00">\EventsService\onCalendarObject</text>
<text text-anchor="middle" x="280" y="-7" font-family="Helvetica,sans-Serif" font-size="10.00">Updated</text>
</a>
</g>
</g>
<!-- Node7&#45;&gt;Node9 -->
<g id="edge8" class="edge">
<title>Node7&#45;&gt;Node9</title>
<path fill="none" stroke="#63b8ff" d="M391.89,-55.12C377.4,-50.59 362.39,-45.91 348.27,-41.5"/>
<polygon fill="#63b8ff" stroke="#63b8ff" points="390.8,-58.44 401.39,-58.08 392.89,-51.76 390.8,-58.44"/>
</g>
</g>
</svg>
        <g id="navigator" transform="translate(0 0)" fill="#404254">
                <rect fill="#f2f5e9" fill-opacity="0.5" stroke="#606060" stroke-width=".5" x="0" y="0" width="60" height="60"/>
                <use id="zoomplus" xlink:href="#zoomPlus" x="17" y="9" onmousedown="handleZoom(evt,'in')"/>
                <use id="zoomminus" xlink:href="#zoomMin" x="42" y="9" onmousedown="handleZoom(evt,'out')"/>
                <use id="reset" xlink:href="#resetDef" x="30" y="36" onmousedown="handleReset()"/>
                <g id="arrowUp" xlink:href="#dirArrow" transform="translate(30 24)" onmousedown="handlePan(0,-1)">
                  <use xlink:href="#rim" fill="#404040">
                        <set attributeName="fill" to="#808080" begin="arrowUp.mouseover" end="arrowUp.mouseout"/>
                  </use>
                  <path fill="none" stroke="white" stroke-width="1.5" d="M0,-3.0v7 M-2.5,-0.5L0,-3.0L2.5,-0.5"/>
                </g>
                <g id="arrowRight" xlink:href="#dirArrow" transform="rotate(90) translate(36 -43)" onmousedown="handlePan(1,0)">
                  <use xlink:href="#rim" fill="#404040">
                        <set attributeName="fill" to="#808080" begin="arrowRight.mouseover" end="arrowRight.mouseout"/>
                  </use>
                  <path fill="none" stroke="white" stroke-width="1.5" d="M0,-3.0v7 M-2.5,-0.5L0,-3.0L2.5,-0.5"/>
                </g>
                <g id="arrowDown" xlink:href="#dirArrow" transform="rotate(180) translate(-30 -48)" onmousedown="handlePan(0,1)">
                  <use xlink:href="#rim" fill="#404040">
                        <set attributeName="fill" to="#808080" begin="arrowDown.mouseover" end="arrowDown.mouseout"/>
                  </use>
                  <path fill="none" stroke="white" stroke-width="1.5" d="M0,-3.0v7 M-2.5,-0.5L0,-3.0L2.5,-0.5"/>
                </g>
                <g id="arrowLeft" xlink:href="#dirArrow" transform="rotate(270) translate(-36 17)" onmousedown="handlePan(-1,0)">
                  <use xlink:href="#rim" fill="#404040">
                        <set attributeName="fill" to="#808080" begin="arrowLeft.mouseover" end="arrowLeft.mouseout"/>
                  </use>
                  <path fill="none" stroke="white" stroke-width="1.5" d="M0,-3.0v7 M-2.5,-0.5L0,-3.0L2.5,-0.5"/>
                </g>
        </g>
        <svg viewBox="0 0 15 15" width="100%" height="30px" preserveAspectRatio="xMaxYMin meet">
         <g id="arrow_out" transform="scale(0.3 0.3)">
          <a xlink:href="class_o_c_a_1_1_c_a_f_e_v_d_b_1_1_service_1_1_v_calendar_service_a2dad03f32dc06c2aa1711b0f2243c18d_icgraph_org.svg" target="_base">
           <rect id="button" ry="5" rx="5" y="6" x="6" height="38" width="38"
                fill="#f2f5e9" fill-opacity="0.5" stroke="#606060" stroke-width="1.0"/>
           <path id="arrow"
             d="M 11.500037,31.436501 C 11.940474,20.09759 22.043105,11.32322 32.158766,21.979434 L 37.068811,17.246167 C 37.068811,17.246167 37.088388,32 37.088388,32 L 22.160133,31.978069 C 22.160133,31.978069 26.997745,27.140456 26.997745,27.140456 C 18.528582,18.264221 13.291696,25.230495 11.500037,31.436501 z"
             style="fill:#404040;"/>
          </a>
         </g>
        </svg>
</svg>
