<?xml version="1.0" encoding="UTF-8" standalone="no"?>
<!DOCTYPE svg PUBLIC "-//W3C//DTD SVG 1.1//EN"
 "http://www.w3.org/Graphics/SVG/1.1/DTD/svg11.dtd">
<!-- Generated by graphviz version 7.1.0 (20230121.1956)
 -->
<!-- Title: bind Pages: 1 -->
<svg width="843pt" height="707pt"
 viewBox="0.00 0.00 843.00 707.00" xmlns="http://www.w3.org/2000/svg" xmlns:xlink="http://www.w3.org/1999/xlink">
<g id="graph0" class="graph" transform="scale(1 1) rotate(0) translate(4 703)">
<title>bind</title>
<!-- Node1 -->
<g id="node1" class="node">
<title>Node1</title>
<g id="a_node1"><a xlink:title=" ">
<polygon fill="#999999" stroke="#666666" points="35,-341 0,-341 0,-322 35,-322 35,-341"/>
<text text-anchor="middle" x="17.5" y="-329" font-family="Helvetica,sans-Serif" font-size="10.00">bind</text>
</a>
</g>
</g>
<!-- Node2 -->
<g id="node2" class="node">
<title>Node2</title>
<g id="a_node2"><a xlink:href="class_o_c_a_1_1_c_a_f_e_v_d_b_1_1_email_form_1_1_recipients_filter.html#a1497fe5acb2403ca1873ec2fd4b790fe" target="_top" xlink:title="Fetch a CGI&#45;variable out of the form&#45;select name&#45;space.">
<polygon fill="white" stroke="#666666" points="646,-510 593,-510 593,-491 646,-491 646,-510"/>
<text text-anchor="middle" x="619.5" y="-498" font-family="Helvetica,sans-Serif" font-size="10.00">cgiValue</text>
</a>
</g>
</g>
<!-- Node1&#45;&gt;Node2 -->
<g id="edge1" class="edge">
<title>Node1&#45;&gt;Node2</title>
<path fill="none" stroke="#63b8ff" d="M21.97,-341.36C38.16,-385.66 111.03,-566.95 241,-632.5 355.04,-690.02 412.98,-645.66 524,-582.5 554.67,-565.05 584.46,-536.74 602.14,-518.37"/>
<polygon fill="#63b8ff" stroke="#63b8ff" points="604.45,-521.02 608.76,-511.34 599.36,-516.22 604.45,-521.02"/>
</g>
<!-- Node3 -->
<g id="node3" class="node">
<title>Node3</title>
<g id="a_node3"><a xlink:href="class_o_c_a_1_1_c_a_f_e_v_d_b_1_1_email_form_1_1_recipients_filter.html#a1909f4b7f8129c7790cb75de2ffbe1e4" target="_top" xlink:title="Parse the CGI stuff and compute the list of selected musicians, either for the initial form setup as ...">
<polygon fill="white" stroke="#666666" points="163.5,-341 112.5,-341 112.5,-322 163.5,-322 163.5,-341"/>
<text text-anchor="middle" x="138" y="-329" font-family="Helvetica,sans-Serif" font-size="10.00">execute</text>
</a>
</g>
</g>
<!-- Node1&#45;&gt;Node3 -->
<g id="edge2" class="edge">
<title>Node1&#45;&gt;Node3</title>
<path fill="none" stroke="#63b8ff" d="M35.48,-331.5C52.43,-331.5 79.02,-331.5 100.74,-331.5"/>
<polygon fill="#63b8ff" stroke="#63b8ff" points="100.7,-335 110.7,-331.5 100.7,-328 100.7,-335"/>
</g>
<!-- Node27 -->
<g id="node27" class="node">
<title>Node27</title>
<g id="a_node27"><a xlink:href="class_o_c_a_1_1_c_a_f_e_v_d_b_1_1_service_1_1_request_parameter_service.html#aeafd6890cfd4ba9b30cb9706b2a12373" target="_top" xlink:title=" ">
<polygon fill="white" stroke="#666666" points="205,-304 71,-304 71,-263 205,-263 205,-304"/>
<text text-anchor="start" x="79" y="-292" font-family="Helvetica,sans-Serif" font-size="10.00">OCA\CAFEVDB\Service</text>
<text text-anchor="start" x="79" y="-281" font-family="Helvetica,sans-Serif" font-size="10.00">\RequestParameterService</text>
<text text-anchor="middle" x="138" y="-270" font-family="Helvetica,sans-Serif" font-size="10.00">\getParam</text>
</a>
</g>
</g>
<!-- Node1&#45;&gt;Node27 -->
<g id="edge41" class="edge">
<title>Node1&#45;&gt;Node27</title>
<path fill="none" stroke="#63b8ff" d="M35.48,-324.62C45.98,-320.37 60.19,-314.61 74.64,-308.76"/>
<polygon fill="#63b8ff" stroke="#63b8ff" points="75.8,-312.07 83.76,-305.07 73.17,-305.58 75.8,-312.07"/>
</g>
<!-- Node3&#45;&gt;Node2 -->
<g id="edge7" class="edge">
<title>Node3&#45;&gt;Node2</title>
<path fill="none" stroke="#63b8ff" d="M140.73,-341.28C147.08,-373.82 172.39,-478.67 241,-519.5 351,-584.96 512.54,-539.63 583.21,-514.34"/>
<polygon fill="#63b8ff" stroke="#63b8ff" points="584.15,-517.73 592.33,-511 581.74,-511.16 584.15,-517.73"/>
</g>
<!-- Node4 -->
<g id="node4" class="node">
<title>Node4</title>
<g id="a_node4"><a xlink:href="class_o_c_a_1_1_c_a_f_e_v_d_b_1_1_email_form_1_1_recipients_filter.html#ac721d278c1106843d05dc3b9176b5fb9" target="_top" xlink:title=" ">
<polygon fill="white" stroke="#666666" points="373,-322 241,-322 241,-303 373,-303 373,-322"/>
<text text-anchor="middle" x="307" y="-310" font-family="Helvetica,sans-Serif" font-size="10.00">announcementsMailingList</text>
</a>
</g>
</g>
<!-- Node3&#45;&gt;Node4 -->
<g id="edge3" class="edge">
<title>Node3&#45;&gt;Node4</title>
<path fill="none" stroke="#63b8ff" d="M163.64,-328.7C181.19,-326.7 205.79,-323.9 229.61,-321.19"/>
<polygon fill="#63b8ff" stroke="#63b8ff" points="229.79,-324.69 239.33,-320.09 229,-317.74 229.79,-324.69"/>
</g>
<!-- Node5 -->
<g id="node5" class="node">
<title>Node5</title>
<g id="a_node5"><a xlink:href="class_o_c_a_1_1_c_a_f_e_v_d_b_1_1_email_form_1_1_recipients_filter.html#abb68032ee09c309fa68ede14a34e348d" target="_top" xlink:title=" ">
<polygon fill="white" stroke="#666666" points="502,-320 431,-320 431,-301 502,-301 502,-320"/>
<text text-anchor="middle" x="466.5" y="-308" font-family="Helvetica,sans-Serif" font-size="10.00">applyHistory</text>
</a>
</g>
</g>
<!-- Node3&#45;&gt;Node5 -->
<g id="edge4" class="edge">
<title>Node3&#45;&gt;Node5</title>
<path fill="none" stroke="#63b8ff" d="M163.85,-325.64C176.4,-322.36 191.73,-317.85 205,-312.5 221.78,-305.74 223.44,-297.85 241,-293.5 301.51,-278.51 373.76,-288.8 419.63,-298.68"/>
<polygon fill="#63b8ff" stroke="#63b8ff" points="418.7,-302.06 429.23,-300.84 420.24,-295.23 418.7,-302.06"/>
</g>
<!-- Node6 -->
<g id="node6" class="node">
<title>Node6</title>
<g id="a_node6"><a xlink:href="class_o_c_a_1_1_c_a_f_e_v_d_b_1_1_email_form_1_1_recipients_filter.html#ab5ee0276791cc2947df51b32bc6c7ba6" target="_top" xlink:title=" ">
<polygon fill="white" stroke="#666666" points="653,-320 586,-320 586,-301 653,-301 653,-320"/>
<text text-anchor="middle" x="619.5" y="-308" font-family="Helvetica,sans-Serif" font-size="10.00">filterHistory</text>
</a>
</g>
</g>
<!-- Node3&#45;&gt;Node6 -->
<g id="edge18" class="edge">
<title>Node3&#45;&gt;Node6</title>
<path fill="none" stroke="#63b8ff" d="M163.86,-332.9C225.21,-336.01 388.67,-342.18 524,-328.5 540.71,-326.81 558.88,-323.67 574.78,-320.48"/>
<polygon fill="#63b8ff" stroke="#63b8ff" points="575.35,-323.94 584.42,-318.48 573.92,-317.08 575.35,-323.94"/>
</g>
<!-- Node7 -->
<g id="node7" class="node">
<title>Node7</title>
<g id="a_node7"><a xlink:href="class_o_c_a_1_1_c_a_f_e_v_d_b_1_1_email_form_1_1_recipients_filter.html#a0835860e0bc6047f3eff6a9941dbbcf4" target="_top" xlink:title=" ">
<polygon fill="white" stroke="#666666" points="662.5,-170 576.5,-170 576.5,-151 662.5,-151 662.5,-170"/>
<text text-anchor="middle" x="619.5" y="-158" font-family="Helvetica,sans-Serif" font-size="10.00">defaultByStatus</text>
</a>
</g>
</g>
<!-- Node3&#45;&gt;Node7 -->
<g id="edge8" class="edge">
<title>Node3&#45;&gt;Node7</title>
<path fill="none" stroke="#63b8ff" d="M163.88,-330.43C177.85,-328.5 194.53,-323.77 205,-312.5 257.88,-255.62 180.69,-190.44 241,-141.5 338.67,-62.25 398.84,-129.04 524,-141.5 538.19,-142.91 553.41,-145.49 567.39,-148.3"/>
<polygon fill="#63b8ff" stroke="#63b8ff" points="566.31,-151.65 576.82,-150.28 567.75,-144.8 566.31,-151.65"/>
</g>
<!-- Node8 -->
<g id="node8" class="node">
<title>Node8</title>
<g id="a_node8"><a xlink:href="class_o_c_a_1_1_c_a_f_e_v_d_b_1_1_email_form_1_1_recipients_filter.html#a75227e334f1b3d4bd04bcc2ddf2c9c5d" target="_top" xlink:title=" ">
<polygon fill="white" stroke="#666666" points="835,-132 715,-132 715,-113 835,-113 835,-132"/>
<text text-anchor="middle" x="775" y="-120" font-family="Helvetica,sans-Serif" font-size="10.00">recipientsExceptProject</text>
</a>
</g>
</g>
<!-- Node3&#45;&gt;Node8 -->
<g id="edge37" class="edge">
<title>Node3&#45;&gt;Node8</title>
<path fill="none" stroke="#63b8ff" d="M163.72,-330.62C177.82,-328.78 194.67,-324.06 205,-312.5 268.95,-240.89 167.67,-161.47 241,-99.5 311.06,-40.29 591.77,-86.47 715.23,-110.4"/>
<polygon fill="#63b8ff" stroke="#63b8ff" points="714.35,-113.8 724.84,-112.28 715.69,-106.93 714.35,-113.8"/>
</g>
<!-- Node9 -->
<g id="node9" class="node">
<title>Node9</title>
<g id="a_node9"><a xlink:href="class_o_c_a_1_1_c_a_f_e_v_d_b_1_1_email_form_1_1_recipients_filter.html#a91325e5bf1c1dafd989c072cdd289f7e" target="_top" xlink:title="Decode the check&#45;boxes which select the set of users we consider basically.">
<polygon fill="white" stroke="#666666" points="358.5,-623 255.5,-623 255.5,-604 358.5,-604 358.5,-623"/>
<text text-anchor="middle" x="307" y="-611" font-family="Helvetica,sans-Serif" font-size="10.00">determineUserBase</text>
</a>
</g>
</g>
<!-- Node3&#45;&gt;Node9 -->
<g id="edge10" class="edge">
<title>Node3&#45;&gt;Node9</title>
<path fill="none" stroke="#63b8ff" d="M139.73,-341.39C143.14,-380.12 160.89,-522.92 241,-595.5 242.43,-596.8 243.95,-598 245.53,-599.12"/>
<polygon fill="#63b8ff" stroke="#63b8ff" points="243.51,-601.99 253.93,-603.89 246.96,-595.91 243.51,-601.99"/>
</g>
<!-- Node12 -->
<g id="node12" class="node">
<title>Node12</title>
<g id="a_node12"><a xlink:href="class_o_c_a_1_1_c_a_f_e_v_d_b_1_1_email_form_1_1_recipients_filter.html#aa88d3b6470fc695c0e977cf6652e03ae" target="_top" xlink:title="Fetch the instruments filter from the CGI parameters.">
<polygon fill="white" stroke="#666666" points="363,-473 251,-473 251,-454 363,-454 363,-473"/>
<text text-anchor="middle" x="307" y="-461" font-family="Helvetica,sans-Serif" font-size="10.00">fetchInstrumentsFilter</text>
</a>
</g>
</g>
<!-- Node3&#45;&gt;Node12 -->
<g id="edge14" class="edge">
<title>Node3&#45;&gt;Node12</title>
<path fill="none" stroke="#63b8ff" d="M145.08,-341.32C159.16,-363.24 196.23,-416.4 241,-444.5 243.75,-446.23 246.67,-447.81 249.69,-449.24"/>
<polygon fill="#63b8ff" stroke="#63b8ff" points="248.23,-452.43 258.81,-453.03 250.91,-445.96 248.23,-452.43"/>
</g>
<!-- Node14 -->
<g id="node14" class="node">
<title>Node14</title>
<g id="a_node14"><a xlink:href="class_o_c_a_1_1_c_a_f_e_v_d_b_1_1_email_form_1_1_recipients_filter.html#a4cc3ae15ce5ef543b8c9775626cb9acc" target="_top" xlink:title="Fill $this&#45;&gt;memberStatusNames with values.">
<polygon fill="white" stroke="#666666" points="369.5,-56 244.5,-56 244.5,-37 369.5,-37 369.5,-56"/>
<text text-anchor="middle" x="307" y="-44" font-family="Helvetica,sans-Serif" font-size="10.00">getMemberStatusNames</text>
</a>
</g>
</g>
<!-- Node3&#45;&gt;Node14 -->
<g id="edge19" class="edge">
<title>Node3&#45;&gt;Node14</title>
<path fill="none" stroke="#63b8ff" d="M163.81,-330.7C177.93,-328.88 194.79,-324.16 205,-312.5 276.63,-230.68 172.42,-154.89 241,-70.5 243.66,-67.23 246.81,-64.4 250.27,-61.96"/>
<polygon fill="#63b8ff" stroke="#63b8ff" points="251.77,-65.13 258.7,-57.11 248.28,-59.06 251.77,-65.13"/>
</g>
<!-- Node15 -->
<g id="node15" class="node">
<title>Node15</title>
<g id="a_node15"><a xlink:href="class_o_c_a_1_1_c_a_f_e_v_d_b_1_1_email_form_1_1_recipients_filter.html#a3325d0555cf869086e12761d8a7dbfc8" target="_top" xlink:title="Fetch the list of musicians for the given context (project/global).">
<polygon fill="white" stroke="#666666" points="362.5,-19 251.5,-19 251.5,0 362.5,0 362.5,-19"/>
<text text-anchor="middle" x="307" y="-7" font-family="Helvetica,sans-Serif" font-size="10.00">getMusiciansFromDB</text>
</a>
</g>
</g>
<!-- Node3&#45;&gt;Node15 -->
<g id="edge20" class="edge">
<title>Node3&#45;&gt;Node15</title>
<path fill="none" stroke="#63b8ff" d="M163.9,-330.78C178.06,-328.99 194.92,-324.27 205,-312.5 288.04,-215.52 157.47,-124.06 241,-27.5 241.45,-26.97 241.92,-26.46 242.41,-25.97"/>
<polygon fill="#63b8ff" stroke="#63b8ff" points="244.28,-28.95 250.01,-20.04 239.97,-23.43 244.28,-28.95"/>
</g>
<!-- Node16 -->
<g id="node16" class="node">
<title>Node16</title>
<g id="a_node16"><a xlink:href="class_o_c_a_1_1_c_a_f_e_v_d_b_1_1_email_form_1_1_recipients_filter.html#a9ae6e956522f1d298f15c4b2a07f0bd7" target="_top" xlink:title="Get the current filter.">
<polygon fill="white" stroke="#666666" points="524,-283 409,-283 409,-264 524,-264 524,-283"/>
<text text-anchor="middle" x="466.5" y="-271" font-family="Helvetica,sans-Serif" font-size="10.00">initMemberStatusFilter</text>
</a>
</g>
</g>
<!-- Node3&#45;&gt;Node16 -->
<g id="edge21" class="edge">
<title>Node3&#45;&gt;Node16</title>
<path fill="none" stroke="#63b8ff" d="M163.75,-326.93C176.56,-323.95 192.15,-319.31 205,-312.5 223.4,-302.74 221.56,-289.98 241,-282.5 290.84,-263.32 351.57,-262.08 397.3,-265.08"/>
<polygon fill="#63b8ff" stroke="#63b8ff" points="396.84,-268.55 407.07,-265.81 397.36,-261.57 396.84,-268.55"/>
</g>
<!-- Node17 -->
<g id="node17" class="node">
<title>Node17</title>
<g id="a_node17"><a xlink:href="class_o_c_a_1_1_c_a_f_e_v_d_b_1_1_email_form_1_1_recipients_filter.html#ab85bd7c01c06a6b1507047bfd28f941c" target="_top" xlink:title="Load the history from the session data.">
<polygon fill="white" stroke="#666666" points="340,-208 274,-208 274,-189 340,-189 340,-208"/>
<text text-anchor="middle" x="307" y="-196" font-family="Helvetica,sans-Serif" font-size="10.00">loadHistory</text>
</a>
</g>
</g>
<!-- Node3&#45;&gt;Node17 -->
<g id="edge24" class="edge">
<title>Node3&#45;&gt;Node17</title>
<path fill="none" stroke="#63b8ff" d="M163.83,-329.63C177.44,-327.41 193.77,-322.66 205,-312.5 236.95,-283.6 210.13,-252.55 241,-222.5 247.17,-216.49 254.98,-211.96 263.02,-208.56"/>
<polygon fill="#63b8ff" stroke="#63b8ff" points="263.99,-211.94 272.19,-205.23 261.6,-205.36 263.99,-211.94"/>
</g>
<!-- Node18 -->
<g id="node18" class="node">
<title>Node18</title>
<g id="a_node18"><a xlink:href="class_o_c_a_1_1_c_a_f_e_v_d_b_1_1_email_form_1_1_recipients_filter.html#a30a395e6e48481531a93ec374c412775" target="_top" xlink:title="Compose a default history record for the initial state.">
<polygon fill="white" stroke="#666666" points="513,-170 420,-170 420,-151 513,-151 513,-170"/>
<text text-anchor="middle" x="466.5" y="-158" font-family="Helvetica,sans-Serif" font-size="10.00">setDefaultHistory</text>
</a>
</g>
</g>
<!-- Node3&#45;&gt;Node18 -->
<g id="edge39" class="edge">
<title>Node3&#45;&gt;Node18</title>
<path fill="none" stroke="#63b8ff" d="M163.97,-330.16C177.79,-328.13 194.29,-323.38 205,-312.5 247.96,-268.85 193.98,-218.74 241,-179.5 287.39,-140.79 359.53,-141.87 409.46,-148.83"/>
<polygon fill="#63b8ff" stroke="#63b8ff" points="408.79,-152.27 419.21,-150.31 409.85,-145.35 408.79,-152.27"/>
</g>
<!-- Node23 -->
<g id="node23" class="node">
<title>Node23</title>
<g id="a_node23"><a xlink:href="class_o_c_a_1_1_c_a_f_e_v_d_b_1_1_email_form_1_1_recipients_filter.html#a3b27a17301b2e6acb457bafbd268a6c6" target="_top" xlink:title=" ">
<polygon fill="white" stroke="#666666" points="353,-586 261,-586 261,-567 353,-567 353,-586"/>
<text text-anchor="middle" x="307" y="-574" font-family="Helvetica,sans-Serif" font-size="10.00">projectMailingList</text>
</a>
</g>
</g>
<!-- Node3&#45;&gt;Node23 -->
<g id="edge33" class="edge">
<title>Node3&#45;&gt;Node23</title>
<path fill="none" stroke="#63b8ff" d="M140.78,-341.46C147.44,-375.81 173.97,-490.55 241,-552.5 244.78,-555.99 249.11,-558.99 253.7,-561.56"/>
<polygon fill="#63b8ff" stroke="#63b8ff" points="252.17,-564.7 262.7,-565.86 255.19,-558.39 252.17,-564.7"/>
</g>
<!-- Node24 -->
<g id="node24" class="node">
<title>Node24</title>
<g id="a_node24"><a xlink:href="class_o_c_a_1_1_c_a_f_e_v_d_b_1_1_email_form_1_1_recipients_filter.html#adc12d97d4d6b670014369f82669309c1" target="_top" xlink:title="Push the current filter selection onto the undo&#45;history stack.">
<polygon fill="white" stroke="#666666" points="501,-398 432,-398 432,-379 501,-379 501,-398"/>
<text text-anchor="middle" x="466.5" y="-386" font-family="Helvetica,sans-Serif" font-size="10.00">pushHistory</text>
</a>
</g>
</g>
<!-- Node3&#45;&gt;Node24 -->
<g id="edge34" class="edge">
<title>Node3&#45;&gt;Node24</title>
<path fill="none" stroke="#63b8ff" d="M163.76,-341.1C184.18,-348.63 214.06,-358.77 241,-364.5 302.37,-377.56 374.76,-383.67 420.4,-386.42"/>
<polygon fill="#63b8ff" stroke="#63b8ff" points="419.99,-389.9 430.18,-386.97 420.39,-382.91 419.99,-389.9"/>
</g>
<!-- Node25 -->
<g id="node25" class="node">
<title>Node25</title>
<g id="a_node25"><a xlink:href="class_o_c_a_1_1_c_a_f_e_v_d_b_1_1_email_form_1_1_recipients_filter.html#a14e60602822b0301e2ece2c15c4e0d82" target="_top" xlink:title="This function is called at the very start.">
<polygon fill="white" stroke="#666666" points="359.5,-510 254.5,-510 254.5,-491 359.5,-491 359.5,-510"/>
<text text-anchor="middle" x="307" y="-498" font-family="Helvetica,sans-Serif" font-size="10.00">remapEmailRecords</text>
</a>
</g>
</g>
<!-- Node3&#45;&gt;Node25 -->
<g id="edge38" class="edge">
<title>Node3&#45;&gt;Node25</title>
<path fill="none" stroke="#63b8ff" d="M142.78,-341.38C153.63,-368.41 187.58,-444.08 241,-482.5 242.54,-483.6 244.14,-484.64 245.79,-485.61"/>
<polygon fill="#63b8ff" stroke="#63b8ff" points="243.83,-488.55 254.35,-489.85 246.94,-482.28 243.83,-488.55"/>
</g>
<!-- Node26 -->
<g id="node26" class="node">
<title>Node26</title>
<g id="a_node26"><a xlink:href="class_o_c_a_1_1_c_a_f_e_v_d_b_1_1_email_form_1_1_recipients_filter.html#a0eece8535c88d9bc8da320736157b53b" target="_top" xlink:title="Store the history to somewhere, probably the session&#45;data.">
<polygon fill="white" stroke="#666666" points="342,-436 272,-436 272,-417 342,-417 342,-436"/>
<text text-anchor="middle" x="307" y="-424" font-family="Helvetica,sans-Serif" font-size="10.00">storeHistory</text>
</a>
</g>
</g>
<!-- Node3&#45;&gt;Node26 -->
<g id="edge40" class="edge">
<title>Node3&#45;&gt;Node26</title>
<path fill="none" stroke="#63b8ff" d="M150.91,-341.31C169.32,-356.11 206.19,-384.34 241,-402.5 248.1,-406.21 255.91,-409.61 263.58,-412.61"/>
<polygon fill="#63b8ff" stroke="#63b8ff" points="262.22,-415.84 272.81,-416.06 264.66,-409.29 262.22,-415.84"/>
</g>
<!-- Node5&#45;&gt;Node6 -->
<g id="edge5" class="edge">
<title>Node5&#45;&gt;Node6</title>
<path fill="none" stroke="#63b8ff" d="M502.14,-310.5C523.59,-310.5 551.34,-310.5 574.36,-310.5"/>
<polygon fill="#63b8ff" stroke="#63b8ff" points="574.06,-314 584.06,-310.5 574.06,-307 574.06,-314"/>
</g>
<!-- Node6&#45;&gt;Node6 -->
<g id="edge6" class="edge">
<title>Node6&#45;&gt;Node6</title>
<path fill="none" stroke="#63b8ff" d="M595.55,-320.37C584.62,-328.94 592.61,-338 619.5,-338 634.63,-338 643.77,-335.13 646.93,-331.1"/>
<polygon fill="#63b8ff" stroke="#63b8ff" points="650.34,-330.24 643.92,-321.81 643.68,-332.4 650.34,-330.24"/>
</g>
<!-- Node7&#45;&gt;Node8 -->
<g id="edge9" class="edge">
<title>Node7&#45;&gt;Node8</title>
<path fill="none" stroke="#63b8ff" d="M660.83,-150.52C679.7,-145.84 702.4,-140.22 722.5,-135.25"/>
<polygon fill="#63b8ff" stroke="#63b8ff" points="723.34,-138.65 732.2,-132.85 721.66,-131.85 723.34,-138.65"/>
</g>
<!-- Node9&#45;&gt;Node2 -->
<g id="edge11" class="edge">
<title>Node9&#45;&gt;Node2</title>
<path fill="none" stroke="#63b8ff" d="M344.11,-603.55C353.52,-600.94 363.64,-598.13 373,-595.5 440.18,-576.63 459.47,-579.04 524,-552.5 548.43,-542.45 574.64,-527.68 593.24,-516.45"/>
<polygon fill="#63b8ff" stroke="#63b8ff" points="595.01,-519.47 601.7,-511.26 591.35,-513.51 595.01,-519.47"/>
</g>
<!-- Node10 -->
<g id="node10" class="node">
<title>Node10</title>
<g id="a_node10"><a xlink:href="class_o_c_a_1_1_c_a_f_e_v_d_b_1_1_email_form_1_1_recipients_filter.html#a37ce309e4090903297fa1c705634537d" target="_top" xlink:title="The default user base.">
<polygon fill="white" stroke="#666666" points="511,-699 422,-699 422,-680 511,-680 511,-699"/>
<text text-anchor="middle" x="466.5" y="-687" font-family="Helvetica,sans-Serif" font-size="10.00">defaultUserBase</text>
</a>
</g>
</g>
<!-- Node9&#45;&gt;Node10 -->
<g id="edge12" class="edge">
<title>Node9&#45;&gt;Node10</title>
<path fill="none" stroke="#63b8ff" d="M328.59,-623.44C355.59,-636.46 403.2,-659.44 434.55,-674.57"/>
<polygon fill="#63b8ff" stroke="#63b8ff" points="433.01,-677.71 443.54,-678.9 436.06,-671.41 433.01,-677.71"/>
</g>
<!-- Node11 -->
<g id="node11" class="node">
<title>Node11</title>
<g id="a_node11"><a xlink:href="class_o_c_a_1_1_c_a_f_e_v_d_b_1_1_email_form_1_1_recipients_filter.html#a180e59b5c87d178df0b6929526f2c38a" target="_top" xlink:title=" ">
<polygon fill="white" stroke="#666666" points="664.5,-699 574.5,-699 574.5,-680 664.5,-680 664.5,-699"/>
<text text-anchor="middle" x="619.5" y="-687" font-family="Helvetica,sans-Serif" font-size="10.00">frozenRecipients</text>
</a>
</g>
</g>
<!-- Node10&#45;&gt;Node11 -->
<g id="edge13" class="edge">
<title>Node10&#45;&gt;Node11</title>
<path fill="none" stroke="#63b8ff" d="M511.18,-689.5C527.24,-689.5 545.66,-689.5 562.65,-689.5"/>
<polygon fill="#63b8ff" stroke="#63b8ff" points="562.62,-693 572.62,-689.5 562.62,-686 562.62,-693"/>
</g>
<!-- Node12&#45;&gt;Node2 -->
<g id="edge15" class="edge">
<title>Node12&#45;&gt;Node2</title>
<path fill="none" stroke="#63b8ff" d="M358.99,-473.47C374.96,-476.35 392.67,-479.31 409,-481.5 469.09,-489.56 539.34,-495.16 581.31,-498.1"/>
<polygon fill="#63b8ff" stroke="#63b8ff" points="580.89,-501.58 591.11,-498.77 581.37,-494.59 580.89,-501.58"/>
</g>
<!-- Node13 -->
<g id="node13" class="node">
<title>Node13</title>
<g id="a_node13"><a xlink:href="class_o_c_a_1_1_c_a_f_e_v_d_b_1_1_email_form_1_1_recipients_filter.html#a2765950b3322c101496bb711b89709ed" target="_top" xlink:title=" ">
<polygon fill="white" stroke="#666666" points="511,-472 422,-472 422,-453 511,-453 511,-472"/>
<text text-anchor="middle" x="466.5" y="-460" font-family="Helvetica,sans-Serif" font-size="10.00">instrumentsFilter</text>
</a>
</g>
</g>
<!-- Node12&#45;&gt;Node13 -->
<g id="edge16" class="edge">
<title>Node12&#45;&gt;Node13</title>
<path fill="none" stroke="#63b8ff" d="M363.09,-463.15C378.35,-463.05 394.93,-462.95 410.21,-462.85"/>
<polygon fill="#63b8ff" stroke="#63b8ff" points="410.11,-466.35 420.09,-462.79 410.07,-459.35 410.11,-466.35"/>
</g>
<!-- Node13&#45;&gt;Node2 -->
<g id="edge17" class="edge">
<title>Node13&#45;&gt;Node2</title>
<path fill="none" stroke="#63b8ff" d="M507.17,-472.48C530.24,-478.29 559.12,-485.56 581.68,-491.23"/>
<polygon fill="#63b8ff" stroke="#63b8ff" points="580.82,-494.63 591.37,-493.67 582.53,-487.84 580.82,-494.63"/>
</g>
<!-- Node16&#45;&gt;Node2 -->
<g id="edge22" class="edge">
<title>Node16&#45;&gt;Node2</title>
<path fill="none" stroke="#63b8ff" d="M511.76,-283.47C516.19,-285.64 520.39,-288.28 524,-291.5 554.03,-318.23 595.48,-432.82 611.65,-480.04"/>
<polygon fill="#63b8ff" stroke="#63b8ff" points="608.27,-480.96 614.79,-489.3 614.9,-478.71 608.27,-480.96"/>
</g>
<!-- Node16&#45;&gt;Node7 -->
<g id="edge23" class="edge">
<title>Node16&#45;&gt;Node7</title>
<path fill="none" stroke="#63b8ff" d="M477.05,-263.69C500.68,-239.42 560,-178.5 560,-178.5 562.02,-177.27 564.13,-176.11 566.3,-175.03"/>
<polygon fill="#63b8ff" stroke="#63b8ff" points="567.6,-178.28 575.39,-171.09 564.82,-171.85 567.6,-178.28"/>
</g>
<!-- Node17&#45;&gt;Node6 -->
<g id="edge25" class="edge">
<title>Node17&#45;&gt;Node6</title>
<path fill="none" stroke="#63b8ff" d="M340.39,-203.95C383.45,-211.85 461.41,-228.45 524,-254.5 549.7,-265.19 576.82,-281.9 595.38,-294.28"/>
<polygon fill="#63b8ff" stroke="#63b8ff" points="593.26,-297.07 603.49,-299.8 597.19,-291.29 593.26,-297.07"/>
</g>
<!-- Node17&#45;&gt;Node18 -->
<g id="edge26" class="edge">
<title>Node17&#45;&gt;Node18</title>
<path fill="none" stroke="#63b8ff" d="M340.25,-190.72C361.23,-185.66 389.06,-178.94 413.17,-173.13"/>
<polygon fill="#63b8ff" stroke="#63b8ff" points="413.92,-176.54 422.82,-170.8 412.28,-169.74 413.92,-176.54"/>
</g>
<!-- Node20 -->
<g id="node20" class="node">
<title>Node20</title>
<g id="a_node20"><a xlink:href="class_o_c_a_1_1_c_a_f_e_v_d_b_1_1_email_form_1_1_recipients_filter.html#a69438f7e0899945b1e31f677ce1251af" target="_top" xlink:title="Validate the given history records, return false on error.">
<polygon fill="white" stroke="#666666" points="507.5,-207 425.5,-207 425.5,-188 507.5,-188 507.5,-207"/>
<text text-anchor="middle" x="466.5" y="-195" font-family="Helvetica,sans-Serif" font-size="10.00">validateHistory</text>
</a>
</g>
</g>
<!-- Node17&#45;&gt;Node20 -->
<g id="edge30" class="edge">
<title>Node17&#45;&gt;Node20</title>
<path fill="none" stroke="#63b8ff" d="M340.25,-198.3C361.46,-198.16 389.68,-197.98 413.97,-197.83"/>
<polygon fill="#63b8ff" stroke="#63b8ff" points="413.67,-201.33 423.65,-197.77 413.63,-194.33 413.67,-201.33"/>
</g>
<!-- Node18&#45;&gt;Node6 -->
<g id="edge29" class="edge">
<title>Node18&#45;&gt;Node6</title>
<path fill="none" stroke="#63b8ff" d="M509.41,-170.45C514.58,-172.64 519.59,-175.29 524,-178.5 545.49,-194.13 586.6,-258.37 606.76,-291.11"/>
<polygon fill="#63b8ff" stroke="#63b8ff" points="603.53,-292.54 611.73,-299.25 609.51,-288.89 603.53,-292.54"/>
</g>
<!-- Node18&#45;&gt;Node7 -->
<g id="edge28" class="edge">
<title>Node18&#45;&gt;Node7</title>
<path fill="none" stroke="#63b8ff" d="M513.21,-160.5C529.44,-160.5 547.84,-160.5 564.68,-160.5"/>
<polygon fill="#63b8ff" stroke="#63b8ff" points="564.52,-164 574.52,-160.5 564.52,-157 564.52,-164"/>
</g>
<!-- Node19 -->
<g id="node19" class="node">
<title>Node19</title>
<g id="a_node19"><a xlink:href="class_o_c_a_1_1_c_a_f_e_v_d_b_1_1_email_form_1_1_recipients_filter.html#a9ceb14e2f27e74da6d3f47217cafac78" target="_top" xlink:title=" ">
<polygon fill="white" stroke="#666666" points="670,-133 569,-133 569,-114 670,-114 670,-133"/>
<text text-anchor="middle" x="619.5" y="-121" font-family="Helvetica,sans-Serif" font-size="10.00">basicRecipientsSet</text>
</a>
</g>
</g>
<!-- Node18&#45;&gt;Node19 -->
<g id="edge27" class="edge">
<title>Node18&#45;&gt;Node19</title>
<path fill="none" stroke="#63b8ff" d="M507.97,-150.58C526.08,-146.15 547.64,-140.86 566.9,-136.14"/>
<polygon fill="#63b8ff" stroke="#63b8ff" points="567.57,-139.58 576.45,-133.8 565.91,-132.78 567.57,-139.58"/>
</g>
<!-- Node21 -->
<g id="node21" class="node">
<title>Node21</title>
<g id="a_node21"><a xlink:href="class_o_c_a_1_1_c_a_f_e_v_d_b_1_1_email_form_1_1_recipients_filter.html#aeeefa163256bf7669c5591e228f57850" target="_top" xlink:title="Validate all history records.">
<polygon fill="white" stroke="#666666" points="679,-207 560,-207 560,-188 679,-188 679,-207"/>
<text text-anchor="middle" x="619.5" y="-195" font-family="Helvetica,sans-Serif" font-size="10.00">validateHistoryRecords</text>
</a>
</g>
</g>
<!-- Node20&#45;&gt;Node21 -->
<g id="edge31" class="edge">
<title>Node20&#45;&gt;Node21</title>
<path fill="none" stroke="#63b8ff" d="M507.97,-197.5C520.39,-197.5 534.43,-197.5 548.25,-197.5"/>
<polygon fill="#63b8ff" stroke="#63b8ff" points="548.24,-201 558.24,-197.5 548.24,-194 548.24,-201"/>
</g>
<!-- Node22 -->
<g id="node22" class="node">
<title>Node22</title>
<g id="a_node22"><a xlink:href="class_o_c_a_1_1_c_a_f_e_v_d_b_1_1_email_form_1_1_recipients_filter.html#a356c7d5f6dcee2bfc20c2285237a341f" target="_top" xlink:title="Validate one history entry.">
<polygon fill="white" stroke="#666666" points="831.5,-207 718.5,-207 718.5,-188 831.5,-188 831.5,-207"/>
<text text-anchor="middle" x="775" y="-195" font-family="Helvetica,sans-Serif" font-size="10.00">validateHistoryRecord</text>
</a>
</g>
</g>
<!-- Node21&#45;&gt;Node22 -->
<g id="edge32" class="edge">
<title>Node21&#45;&gt;Node22</title>
<path fill="none" stroke="#63b8ff" d="M679.41,-197.5C688.33,-197.5 697.58,-197.5 706.66,-197.5"/>
<polygon fill="#63b8ff" stroke="#63b8ff" points="706.51,-201 716.51,-197.5 706.51,-194 706.51,-201"/>
</g>
<!-- Node24&#45;&gt;Node2 -->
<g id="edge35" class="edge">
<title>Node24&#45;&gt;Node2</title>
<path fill="none" stroke="#63b8ff" d="M480.9,-398.44C506.93,-417.75 564.58,-460.5 596.37,-484.09"/>
<polygon fill="#63b8ff" stroke="#63b8ff" points="594.01,-486.7 604.13,-489.84 598.18,-481.07 594.01,-486.7"/>
</g>
<!-- Node24&#45;&gt;Node6 -->
<g id="edge36" class="edge">
<title>Node24&#45;&gt;Node6</title>
<path fill="none" stroke="#63b8ff" d="M492.54,-378.61C502.45,-374.5 513.88,-369.52 524,-364.5 547.74,-352.72 573.83,-337.64 592.58,-326.41"/>
<polygon fill="#63b8ff" stroke="#63b8ff" points="594.38,-329.41 601.13,-321.24 590.76,-323.42 594.38,-329.41"/>
</g>
</g>
</svg>
