<?xml version="1.0" encoding="UTF-8" standalone="no"?>
<!DOCTYPE svg PUBLIC "-//W3C//DTD SVG 1.1//EN"
 "http://www.w3.org/Graphics/SVG/1.1/DTD/svg11.dtd">
<!-- Generated by graphviz version 7.1.0 (20230121.1956)
 -->
<!-- Title: findOneBy Pages: 1 -->
<svg width="257pt" height="103pt"
 viewBox="0.00 0.00 257.00 103.00" xmlns="http://www.w3.org/2000/svg" xmlns:xlink="http://www.w3.org/1999/xlink">
<g id="graph0" class="graph" transform="scale(1 1) rotate(0) translate(4 99)">
<title>findOneBy</title>
<!-- Node1 -->
<g id="node1" class="node">
<title>Node1</title>
<g id="a_node1"><a xlink:title="Find a SEPA&#45;mandate by either its primary key or its mandate reference; no&#45;op if $idOrReference alrea...">
<polygon fill="#999999" stroke="#666666" points="249,-57 187,-57 187,-38 249,-38 249,-57"/>
<text text-anchor="middle" x="218" y="-45" font-family="Helvetica,sans-Serif" font-size="10.00">findOneBy</text>
</a>
</g>
</g>
<!-- Node2 -->
<g id="node2" class="node">
<title>Node2</title>
<g id="a_node2"><a xlink:href="class_o_c_a_1_1_c_a_f_e_v_d_b_1_1_database_1_1_doctrine_1_1_o_r_m_1_1_repositories_1_1_sepa_debit_mandates_repository.html#a3435ec579db5b0ae00575b8f516a8e24" target="_top" xlink:title="Ban a SEPA&#45;mandate (timeout, withdrawn, erroneous data etc.).">
<polygon fill="white" stroke="#666666" points="134,-95 102,-95 102,-76 134,-76 134,-95"/>
<text text-anchor="middle" x="118" y="-83" font-family="Helvetica,sans-Serif" font-size="10.00">ban</text>
</a>
</g>
</g>
<!-- Node1&#45;&gt;Node2 -->
<g id="edge1" class="edge">
<title>Node1&#45;&gt;Node2</title>
<path fill="none" stroke="#63b8ff" d="M180.62,-61.61C164.69,-67.78 146.86,-74.7 134.49,-79.49"/>
<polygon fill="#63b8ff" stroke="#63b8ff" points="181.78,-64.91 189.84,-58.03 179.25,-58.38 181.78,-64.91"/>
</g>
<!-- Node3 -->
<g id="node3" class="node">
<title>Node3</title>
<g id="a_node3"><a xlink:href="class_o_c_a_1_1_c_a_f_e_v_d_b_1_1_database_1_1_doctrine_1_1_o_r_m_1_1_repositories_1_1_sepa_debit_mandates_repository.html#a5592d318f18909a8b81537a3dce08164" target="_top" xlink:title="Delete the given mandate if it is not used.">
<polygon fill="white" stroke="#666666" points="49,-76 0,-76 0,-57 49,-57 49,-76"/>
<text text-anchor="middle" x="24.5" y="-64" font-family="Helvetica,sans-Serif" font-size="10.00">remove</text>
</a>
</g>
</g>
<!-- Node1&#45;&gt;Node3 -->
<g id="edge4" class="edge">
<title>Node1&#45;&gt;Node3</title>
<path fill="none" stroke="#63b8ff" d="M175.3,-51.64C136.75,-55.46 80.83,-61.01 49.35,-64.13"/>
<polygon fill="#63b8ff" stroke="#63b8ff" points="175.54,-55.13 185.15,-50.66 174.85,-48.16 175.54,-55.13"/>
</g>
<!-- Node4 -->
<g id="node4" class="node">
<title>Node4</title>
<g id="a_node4"><a xlink:href="class_o_c_a_1_1_c_a_f_e_v_d_b_1_1_database_1_1_doctrine_1_1_o_r_m_1_1_repositories_1_1_sepa_debit_mandates_repository.html#ae7a438d75ef20ac4e50ba1494b9b062a" target="_top" xlink:title="Find the sepa&#45;mandate with the highest sequence number, if any.">
<polygon fill="white" stroke="#666666" points="151,-19 85,-19 85,0 151,0 151,-19"/>
<text text-anchor="middle" x="118" y="-7" font-family="Helvetica,sans-Serif" font-size="10.00">findNewest</text>
</a>
</g>
</g>
<!-- Node1&#45;&gt;Node4 -->
<g id="edge3" class="edge">
<title>Node1&#45;&gt;Node4</title>
<path fill="none" stroke="#63b8ff" d="M180.64,-33.4C168.65,-28.75 155.58,-23.69 144.58,-19.42"/>
<polygon fill="#63b8ff" stroke="#63b8ff" points="179.25,-36.62 189.84,-36.97 181.78,-30.09 179.25,-36.62"/>
</g>
<!-- Node2&#45;&gt;Node3 -->
<g id="edge2" class="edge">
<title>Node2&#45;&gt;Node3</title>
<path fill="none" stroke="#63b8ff" d="M90.77,-80.05C77.68,-77.33 61.96,-74.07 49.23,-71.43"/>
<polygon fill="#63b8ff" stroke="#63b8ff" points="89.91,-83.45 100.41,-82.05 91.33,-76.59 89.91,-83.45"/>
</g>
</g>
</svg>
