<?xml version="1.0" encoding="UTF-8" standalone="no"?>
<!DOCTYPE svg PUBLIC "-//W3C//DTD SVG 1.1//EN"
 "http://www.w3.org/Graphics/SVG/1.1/DTD/svg11.dtd">
<!-- Generated by graphviz version 8.0.3 (20230416.2022)
 -->
<!-- Title: SessionStillOpenException Pages: 1 -->
<svg width="143pt" height="192pt"
 viewBox="0.00 0.00 143.00 192.00" xmlns="http://www.w3.org/2000/svg" xmlns:xlink="http://www.w3.org/1999/xlink">
<g id="graph0" class="graph" transform="scale(1 1) rotate(0) translate(4 188)">
<title>SessionStillOpenException</title>
<!-- Node1 -->
<g id="node1" class="node">
<title>Node1</title>
<g id="a_node1"><a xlink:title=" ">
<polygon fill="#999999" stroke="#666666" points="135,-19 0,-19 0,0 135,0 135,-19"/>
<text text-anchor="middle" x="67.5" y="-7" font-family="Helvetica,sans-Serif" font-size="10.00">SessionStillOpenException</text>
</a>
</g>
</g>
<!-- Node2 -->
<g id="node2" class="node">
<title>Node2</title>
<g id="a_node2"><a xlink:href="class_o_c_a_1_1_c_a_f_e_v_d_b_1_1_toolkit_1_1_exceptions_1_1_php_session_exception.html" target="_top" xlink:title="Thrown if there is something wrong with the access to the PHP session.">
<polygon fill="white" stroke="#666666" points="124,-74 11,-74 11,-55 124,-55 124,-74"/>
<text text-anchor="middle" x="67.5" y="-62" font-family="Helvetica,sans-Serif" font-size="10.00">PhpSessionException</text>
</a>
</g>
</g>
<!-- Node2&#45;&gt;Node1 -->
<g id="edge1" class="edge">
<title>Node2&#45;&gt;Node1</title>
<path fill="none" stroke="#63b8ff" d="M67.5,-43.93C67.5,-35.53 67.5,-26.13 67.5,-19.44"/>
<polygon fill="#63b8ff" stroke="#63b8ff" points="64,-43.75 67.5,-53.75 71,-43.75 64,-43.75"/>
</g>
<!-- Node3 -->
<g id="node3" class="node">
<title>Node3</title>
<g id="a_node3"><a xlink:href="class_o_c_a_1_1_c_a_f_e_v_d_b_1_1_toolkit_1_1_exceptions_1_1_exception.html" target="_top" xlink:title="Exception class abstaction.">
<polygon fill="white" stroke="#666666" points="97.5,-129 37.5,-129 37.5,-110 97.5,-110 97.5,-129"/>
<text text-anchor="middle" x="67.5" y="-117" font-family="Helvetica,sans-Serif" font-size="10.00">Exception</text>
</a>
</g>
</g>
<!-- Node3&#45;&gt;Node2 -->
<g id="edge2" class="edge">
<title>Node3&#45;&gt;Node2</title>
<path fill="none" stroke="#63b8ff" d="M67.5,-98.93C67.5,-90.53 67.5,-81.13 67.5,-74.44"/>
<polygon fill="#63b8ff" stroke="#63b8ff" points="64,-98.75 67.5,-108.75 71,-98.75 64,-98.75"/>
</g>
<!-- Node4 -->
<g id="node4" class="node">
<title>Node4</title>
<g id="a_node4"><a xlink:title=" ">
<polygon fill="white" stroke="#bfbfbf" points="97.5,-184 37.5,-184 37.5,-165 97.5,-165 97.5,-184"/>
<text text-anchor="middle" x="67.5" y="-172" font-family="Helvetica,sans-Serif" font-size="10.00">Exception</text>
</a>
</g>
</g>
<!-- Node4&#45;&gt;Node3 -->
<g id="edge3" class="edge">
<title>Node4&#45;&gt;Node3</title>
<path fill="none" stroke="#63b8ff" d="M67.5,-153.93C67.5,-145.53 67.5,-136.13 67.5,-129.44"/>
<polygon fill="#63b8ff" stroke="#63b8ff" points="64,-153.75 67.5,-163.75 71,-153.75 64,-153.75"/>
</g>
</g>
</svg>
