<?xml version="1.0" encoding="UTF-8" standalone="no"?>
<!DOCTYPE svg PUBLIC "-//W3C//DTD SVG 1.1//EN"
 "http://www.w3.org/Graphics/SVG/1.1/DTD/svg11.dtd">
<!-- Generated by graphviz version 9.0.0 (20230911.1827)
 -->
<!-- Title: persistInMemoryFileNode Pages: 1 -->
<svg width="318pt" height="362pt"
 viewBox="0.00 0.00 318.25 362.00" xmlns="http://www.w3.org/2000/svg" xmlns:xlink="http://www.w3.org/1999/xlink">
<g id="graph0" class="graph" transform="scale(1 1) rotate(0) translate(4 358)">
<title>persistInMemoryFileNode</title>
<!-- Node1 -->
<g id="Node000001" class="node">
<title>Node1</title>
<g id="a_Node000001"><a xlink:title="Persist an InMemoryFileNode to the database, kind of copy&#45;on&#45;write operation.">
<polygon fill="#999999" stroke="#666666" points="127.75,-187 0,-187 0,-167 127.75,-167 127.75,-187"/>
<text text-anchor="middle" x="63.88" y="-173.5" font-family="Helvetica,sans-Serif" font-size="10.00">persistInMemoryFileNode</text>
</a>
</g>
</g>
<!-- Node2 -->
<g id="Node000002" class="node">
<title>Node2</title>
<g id="a_Node000002"><a xlink:href="class_o_c_a_1_1_c_a_f_e_v_d_b_1_1_storage_1_1_database_1_1_in_memory_file_node.html#ab6db9386e5d9022fd8d30991f0e82891" target="_top" xlink:title=" ">
<polygon fill="white" stroke="#666666" points="310.25,-354 163.75,-354 163.75,-310 310.25,-310 310.25,-354"/>
<text text-anchor="start" x="171.75" y="-340.5" font-family="Helvetica,sans-Serif" font-size="10.00">OCA\CAFEVDB\Storage</text>
<text text-anchor="start" x="171.75" y="-328.5" font-family="Helvetica,sans-Serif" font-size="10.00">\Database\InMemoryFileNode</text>
<text text-anchor="middle" x="237" y="-316.5" font-family="Helvetica,sans-Serif" font-size="10.00">\getFileData</text>
</a>
</g>
</g>
<!-- Node1&#45;&gt;Node2 -->
<g id="edge1_Node000001_Node000002" class="edge">
<title>Node1&#45;&gt;Node2</title>
<g id="a_edge1_Node000001_Node000002"><a xlink:title=" ">
<path fill="none" stroke="#63b8ff" d="M70.71,-187.41C84.24,-210.71 119.96,-267.61 163.75,-301 164.91,-301.88 166.1,-302.75 167.31,-303.59"/>
<polygon fill="#63b8ff" stroke="#63b8ff" points="165.41,-306.53 175.74,-308.88 169.13,-300.6 165.41,-306.53"/>
</a>
</g>
</g>
<!-- Node3 -->
<g id="Node000003" class="node">
<title>Node3</title>
<g id="a_Node000003"><a xlink:href="class_o_c_a_1_1_c_a_f_e_v_d_b_1_1_storage_1_1_database_1_1_in_memory_file_node.html#ac06e9f7b10fca30eb41e41d4dc108b1c" target="_top" xlink:title=" ">
<polygon fill="white" stroke="#666666" points="310.25,-292 163.75,-292 163.75,-248 310.25,-248 310.25,-292"/>
<text text-anchor="start" x="171.75" y="-278.5" font-family="Helvetica,sans-Serif" font-size="10.00">OCA\CAFEVDB\Storage</text>
<text text-anchor="start" x="171.75" y="-266.5" font-family="Helvetica,sans-Serif" font-size="10.00">\Database\InMemoryFileNode</text>
<text text-anchor="middle" x="237" y="-254.5" font-family="Helvetica,sans-Serif" font-size="10.00">\getMimeType</text>
</a>
</g>
</g>
<!-- Node1&#45;&gt;Node3 -->
<g id="edge2_Node000001_Node000003" class="edge">
<title>Node1&#45;&gt;Node3</title>
<g id="a_edge2_Node000001_Node000003"><a xlink:title=" ">
<path fill="none" stroke="#63b8ff" d="M79.86,-187.42C98.86,-200.4 132.88,-222.82 163.75,-239 166.1,-240.23 168.5,-241.45 170.94,-242.66"/>
<polygon fill="#63b8ff" stroke="#63b8ff" points="169.24,-245.72 179.77,-246.87 172.26,-239.41 169.24,-245.72"/>
</a>
</g>
</g>
<!-- Node4 -->
<g id="Node000004" class="node">
<title>Node4</title>
<g id="a_Node000004"><a xlink:href="class_o_c_a_1_1_c_a_f_e_v_d_b_1_1_storage_1_1_database_1_1_in_memory_file_node.html#a3d0963e68bb313b163a73f2803c64600" target="_top" xlink:title=" ">
<polygon fill="white" stroke="#666666" points="310.25,-230 163.75,-230 163.75,-186 310.25,-186 310.25,-230"/>
<text text-anchor="start" x="171.75" y="-216.5" font-family="Helvetica,sans-Serif" font-size="10.00">OCA\CAFEVDB\Storage</text>
<text text-anchor="start" x="171.75" y="-204.5" font-family="Helvetica,sans-Serif" font-size="10.00">\Database\InMemoryFileNode</text>
<text text-anchor="middle" x="237" y="-192.5" font-family="Helvetica,sans-Serif" font-size="10.00">\getName</text>
</a>
</g>
</g>
<!-- Node1&#45;&gt;Node4 -->
<g id="edge3_Node000001_Node000004" class="edge">
<title>Node1&#45;&gt;Node4</title>
<g id="a_edge3_Node000001_Node000004"><a xlink:title=" ">
<path fill="none" stroke="#63b8ff" d="M122.81,-187.5C132.25,-189.21 142.19,-191.01 152.11,-192.8"/>
<polygon fill="#63b8ff" stroke="#63b8ff" points="151.3,-196.21 161.77,-194.55 152.55,-189.33 151.3,-196.21"/>
</a>
</g>
</g>
<!-- Node5 -->
<g id="Node000005" class="node">
<title>Node5</title>
<g id="a_Node000005"><a xlink:href="class_o_c_a_1_1_c_a_f_e_v_d_b_1_1_storage_1_1_database_1_1_in_memory_file_node.html#a95ecaee3537b1ad29b04ef383a57bbae" target="_top" xlink:title=" ">
<polygon fill="white" stroke="#666666" points="310.25,-168 163.75,-168 163.75,-124 310.25,-124 310.25,-168"/>
<text text-anchor="start" x="171.75" y="-154.5" font-family="Helvetica,sans-Serif" font-size="10.00">OCA\CAFEVDB\Storage</text>
<text text-anchor="start" x="171.75" y="-142.5" font-family="Helvetica,sans-Serif" font-size="10.00">\Database\InMemoryFileNode</text>
<text text-anchor="middle" x="237" y="-130.5" font-family="Helvetica,sans-Serif" font-size="10.00">\getParent</text>
</a>
</g>
</g>
<!-- Node1&#45;&gt;Node5 -->
<g id="edge4_Node000001_Node000005" class="edge">
<title>Node1&#45;&gt;Node5</title>
<g id="a_edge4_Node000001_Node000005"><a xlink:title=" ">
<path fill="none" stroke="#63b8ff" d="M122.81,-166.5C132.25,-164.79 142.19,-162.99 152.11,-161.2"/>
<polygon fill="#63b8ff" stroke="#63b8ff" points="152.55,-164.67 161.77,-159.45 151.3,-157.79 152.55,-164.67"/>
</a>
</g>
</g>
<!-- Node6 -->
<g id="Node000006" class="node">
<title>Node6</title>
<g id="a_Node000006"><a xlink:href="class_o_c_a_1_1_c_a_f_e_v_d_b_1_1_storage_1_1_database_1_1_in_memory_file_node.html#a6a47ef9c1ef8b9a53111f4fbe177b90c" target="_top" xlink:title=" ">
<polygon fill="white" stroke="#666666" points="310.25,-106 163.75,-106 163.75,-62 310.25,-62 310.25,-106"/>
<text text-anchor="start" x="171.75" y="-92.5" font-family="Helvetica,sans-Serif" font-size="10.00">OCA\CAFEVDB\Storage</text>
<text text-anchor="start" x="171.75" y="-80.5" font-family="Helvetica,sans-Serif" font-size="10.00">\Database\InMemoryFileNode</text>
<text text-anchor="middle" x="237" y="-68.5" font-family="Helvetica,sans-Serif" font-size="10.00">\getUpdated</text>
</a>
</g>
</g>
<!-- Node1&#45;&gt;Node6 -->
<g id="edge5_Node000001_Node000006" class="edge">
<title>Node1&#45;&gt;Node6</title>
<g id="a_edge5_Node000001_Node000006"><a xlink:title=" ">
<path fill="none" stroke="#63b8ff" d="M79.86,-166.58C98.86,-153.6 132.88,-131.18 163.75,-115 166.1,-113.77 168.5,-112.55 170.94,-111.34"/>
<polygon fill="#63b8ff" stroke="#63b8ff" points="172.26,-114.59 179.77,-107.13 169.24,-108.28 172.26,-114.59"/>
</a>
</g>
</g>
<!-- Node7 -->
<g id="Node000007" class="node">
<title>Node7</title>
<g id="a_Node000007"><a xlink:href="class_o_c_a_1_1_c_a_f_e_v_d_b_1_1_storage_1_1_database_1_1_in_memory_file_node.html#ac45152766c0f56129cbfca39951a4eb6" target="_top" xlink:title=" ">
<polygon fill="white" stroke="#666666" points="310.25,-44 163.75,-44 163.75,0 310.25,0 310.25,-44"/>
<text text-anchor="start" x="171.75" y="-30.5" font-family="Helvetica,sans-Serif" font-size="10.00">OCA\CAFEVDB\Storage</text>
<text text-anchor="start" x="171.75" y="-18.5" font-family="Helvetica,sans-Serif" font-size="10.00">\Database\InMemoryFileNode</text>
<text text-anchor="middle" x="237" y="-6.5" font-family="Helvetica,sans-Serif" font-size="10.00">\setParent</text>
</a>
</g>
</g>
<!-- Node1&#45;&gt;Node7 -->
<g id="edge6_Node000001_Node000007" class="edge">
<title>Node1&#45;&gt;Node7</title>
<g id="a_edge6_Node000001_Node000007"><a xlink:title=" ">
<path fill="none" stroke="#63b8ff" d="M70.71,-166.59C84.24,-143.29 119.96,-86.39 163.75,-53 164.91,-52.12 166.1,-51.25 167.31,-50.41"/>
<polygon fill="#63b8ff" stroke="#63b8ff" points="169.13,-53.4 175.74,-45.12 165.41,-47.47 169.13,-53.4"/>
</a>
</g>
</g>
</g>
</svg>
