<?xml version="1.0" encoding="UTF-8" standalone="no"?>
<!DOCTYPE svg PUBLIC "-//W3C//DTD SVG 1.1//EN"
 "http://www.w3.org/Graphics/SVG/1.1/DTD/svg11.dtd">
<!-- Generated by graphviz version 9.0.0 (20230911.1827)
 -->
<!-- Title: AbstractMigration Pages: 1 -->
<svg width="560pt" height="432pt"
 viewBox="0.00 0.00 559.50 432.00" xmlns="http://www.w3.org/2000/svg" xmlns:xlink="http://www.w3.org/1999/xlink">
<g id="graph0" class="graph" transform="scale(1 1) rotate(0) translate(4 428)">
<title>AbstractMigration</title>
<!-- Node1 -->
<g id="Node000001" class="node">
<title>Node1</title>
<g id="a_Node000001"><a xlink:title="Abstract migration class, the derived classes have to fill AbstractMigration::$sql.">
<polygon fill="#999999" stroke="#666666" points="187.25,-228 94.75,-228 94.75,-208 187.25,-208 187.25,-228"/>
<text text-anchor="middle" x="141" y="-214.5" font-family="Helvetica,sans-Serif" font-size="10.00">AbstractMigration</text>
</a>
</g>
</g>
<!-- Node3 -->
<g id="Node000003" class="node">
<title>Node3</title>
<g id="a_Node000003"><a xlink:href="class_o_c_a_1_1_c_a_f_e_v_d_b_1_1_maintenance_1_1_migrations_1_1_add_project_registration_deadline.html" target="_top" xlink:title="Change participantAccess field to enum.">
<polygon fill="white" stroke="#666666" points="385.5,-424 230.75,-424 230.75,-404 385.5,-404 385.5,-424"/>
<text text-anchor="middle" x="308.12" y="-410.5" font-family="Helvetica,sans-Serif" font-size="10.00">AddProjectRegistrationDeadline</text>
</a>
</g>
</g>
<!-- Node1&#45;&gt;Node3 -->
<g id="edge2_Node000001_Node000003" class="edge">
<title>Node1&#45;&gt;Node3</title>
<g id="a_edge2_Node000001_Node000003"><a xlink:title=" ">
<path fill="none" stroke="#63b8ff" d="M145.52,-239.41C152.86,-276.98 173.47,-354.62 223.25,-395 227.42,-398.39 232.08,-401.2 237.01,-403.52"/>
<polygon fill="#63b8ff" stroke="#63b8ff" points="149.01,-239.03 143.78,-229.81 142.12,-240.27 149.01,-239.03"/>
</a>
</g>
</g>
<!-- Node5 -->
<g id="Node000005" class="node">
<title>Node5</title>
<g id="a_Node000005"><a xlink:href="class_o_c_a_1_1_c_a_f_e_v_d_b_1_1_maintenance_1_1_migrations_1_1_add_run_count_to_migration_records.html" target="_top" xlink:title="Change participantAccess field to enum.">
<polygon fill="white" stroke="#666666" points="390.38,-386 225.88,-386 225.88,-366 390.38,-366 390.38,-386"/>
<text text-anchor="middle" x="308.12" y="-372.5" font-family="Helvetica,sans-Serif" font-size="10.00">AddRunCountToMigrationRecords</text>
</a>
</g>
</g>
<!-- Node1&#45;&gt;Node5 -->
<g id="edge4_Node000001_Node000005" class="edge">
<title>Node1&#45;&gt;Node5</title>
<g id="a_edge4_Node000001_Node000005"><a xlink:title=" ">
<path fill="none" stroke="#63b8ff" d="M148.33,-239.11C158.73,-270.01 182.44,-327.1 223.25,-357 227.95,-360.44 233.16,-363.28 238.62,-365.61"/>
<polygon fill="#63b8ff" stroke="#63b8ff" points="151.72,-238.22 145.35,-229.76 145.05,-240.35 151.72,-238.22"/>
</a>
</g>
</g>
<!-- Node7 -->
<g id="Node000007" class="node">
<title>Node7</title>
<g id="a_Node000007"><a xlink:href="class_o_c_a_1_1_c_a_f_e_v_d_b_1_1_maintenance_1_1_migrations_1_1_create_explode_function.html" target="_top" xlink:title="Remember the id of a mailing list.">
<polygon fill="white" stroke="#666666" points="367.12,-348 249.12,-348 249.12,-328 367.12,-328 367.12,-348"/>
<text text-anchor="middle" x="308.12" y="-334.5" font-family="Helvetica,sans-Serif" font-size="10.00">CreateExplodeFunction</text>
</a>
</g>
</g>
<!-- Node1&#45;&gt;Node7 -->
<g id="edge6_Node000001_Node000007" class="edge">
<title>Node1&#45;&gt;Node7</title>
<g id="a_edge6_Node000001_Node000007"><a xlink:title=" ">
<path fill="none" stroke="#63b8ff" d="M152.55,-238C165.85,-261.2 190.95,-298.84 223.25,-319 230.98,-323.82 239.78,-327.43 248.72,-330.12"/>
<polygon fill="#63b8ff" stroke="#63b8ff" points="155.76,-236.58 147.86,-229.52 149.63,-239.97 155.76,-236.58"/>
</a>
</g>
</g>
<!-- Node9 -->
<g id="Node000009" class="node">
<title>Node9</title>
<g id="a_Node000009"><a xlink:href="class_o_c_a_1_1_c_a_f_e_v_d_b_1_1_maintenance_1_1_migrations_1_1_create_tax_exemption_notices.html" target="_top" xlink:title="Remember the id of a mailing list.">
<polygon fill="white" stroke="#666666" points="378.75,-310 237.5,-310 237.5,-290 378.75,-290 378.75,-310"/>
<text text-anchor="middle" x="308.12" y="-296.5" font-family="Helvetica,sans-Serif" font-size="10.00">CreateTaxExemptionNotices</text>
</a>
</g>
</g>
<!-- Node1&#45;&gt;Node9 -->
<g id="edge8_Node000001_Node000009" class="edge">
<title>Node1&#45;&gt;Node9</title>
<g id="a_edge8_Node000001_Node000009"><a xlink:title=" ">
<path fill="none" stroke="#63b8ff" d="M160.18,-235.92C175.69,-250.22 199.23,-269.66 223.25,-281 230.54,-284.44 238.49,-287.28 246.49,-289.61"/>
<polygon fill="#63b8ff" stroke="#63b8ff" points="162.79,-233.58 153.13,-229.24 157.98,-238.66 162.79,-233.58"/>
</a>
</g>
</g>
<!-- Node11 -->
<g id="Node000011" class="node">
<title>Node11</title>
<g id="a_Node000011"><a xlink:href="class_o_c_a_1_1_c_a_f_e_v_d_b_1_1_maintenance_1_1_migrations_1_1_disable_cloud_accounts_by_default.html" target="_top" xlink:title="Change participantAccess field to enum.">
<polygon fill="white" stroke="#666666" points="387.75,-272 228.5,-272 228.5,-252 387.75,-252 387.75,-272"/>
<text text-anchor="middle" x="308.12" y="-258.5" font-family="Helvetica,sans-Serif" font-size="10.00">DisableCloudAccountsByDefault</text>
</a>
</g>
</g>
<!-- Node1&#45;&gt;Node11 -->
<g id="edge10_Node000001_Node000011" class="edge">
<title>Node1&#45;&gt;Node11</title>
<g id="a_edge10_Node000001_Node000011"><a xlink:title=" ">
<path fill="none" stroke="#63b8ff" d="M184.82,-231.84C197.16,-235.65 210.69,-239.65 223.25,-243 234.5,-246 246.68,-248.94 258.19,-251.57"/>
<polygon fill="#63b8ff" stroke="#63b8ff" points="185.9,-228.51 175.31,-228.87 183.81,-235.19 185.9,-228.51"/>
</a>
</g>
</g>
<!-- Node13 -->
<g id="Node000013" class="node">
<title>Node13</title>
<g id="a_Node000013"><a xlink:href="class_o_c_a_1_1_c_a_f_e_v_d_b_1_1_maintenance_1_1_migrations_1_1_participant_drop_bank_account_columns.html" target="_top" xlink:title="Change participantAccess field to enum.">
<polygon fill="white" stroke="#666666" points="379.12,-234 237.12,-234 237.12,-202 379.12,-202 379.12,-234"/>
<text text-anchor="start" x="245.12" y="-220.5" font-family="Helvetica,sans-Serif" font-size="10.00">ParticipantDropBankAccount</text>
<text text-anchor="middle" x="308.12" y="-208.5" font-family="Helvetica,sans-Serif" font-size="10.00">Columns</text>
</a>
</g>
</g>
<!-- Node1&#45;&gt;Node13 -->
<g id="edge12_Node000001_Node000013" class="edge">
<title>Node1&#45;&gt;Node13</title>
<g id="a_edge12_Node000001_Node000013"><a xlink:title=" ">
<path fill="none" stroke="#63b8ff" d="M198.92,-218C211.07,-218 224.04,-218 236.63,-218"/>
<polygon fill="#63b8ff" stroke="#63b8ff" points="199.07,-214.5 189.07,-218 199.07,-221.5 199.07,-214.5"/>
</a>
</g>
</g>
<!-- Node15 -->
<g id="Node000015" class="node">
<title>Node15</title>
<g id="a_Node000015"><a xlink:href="class_o_c_a_1_1_c_a_f_e_v_d_b_1_1_maintenance_1_1_migrations_1_1_participant_field_access_enum.html" target="_top" xlink:title="Change participantAccess field to enum.">
<polygon fill="white" stroke="#666666" points="379.12,-184 237.12,-184 237.12,-164 379.12,-164 379.12,-184"/>
<text text-anchor="middle" x="308.12" y="-170.5" font-family="Helvetica,sans-Serif" font-size="10.00">ParticipantFieldAccessEnum</text>
</a>
</g>
</g>
<!-- Node1&#45;&gt;Node15 -->
<g id="edge14_Node000001_Node000015" class="edge">
<title>Node1&#45;&gt;Node15</title>
<g id="a_edge14_Node000001_Node000015"><a xlink:title=" ">
<path fill="none" stroke="#63b8ff" d="M184.82,-204.16C197.16,-200.35 210.69,-196.35 223.25,-193 234.5,-190 246.68,-187.06 258.19,-184.43"/>
<polygon fill="#63b8ff" stroke="#63b8ff" points="183.81,-200.81 175.31,-207.13 185.9,-207.49 183.81,-200.81"/>
</a>
</g>
</g>
<!-- Node17 -->
<g id="Node000017" class="node">
<title>Node17</title>
<g id="a_Node000017"><a xlink:href="class_o_c_a_1_1_c_a_f_e_v_d_b_1_1_maintenance_1_1_migrations_1_1_participant_field_drop_unused_columns.html" target="_top" xlink:title="Change participantAccess field to enum.">
<polygon fill="white" stroke="#666666" points="377.25,-146 239,-146 239,-114 377.25,-114 377.25,-146"/>
<text text-anchor="start" x="247" y="-132.5" font-family="Helvetica,sans-Serif" font-size="10.00">ParticipantFieldDropUnused</text>
<text text-anchor="middle" x="308.12" y="-120.5" font-family="Helvetica,sans-Serif" font-size="10.00">Columns</text>
</a>
</g>
</g>
<!-- Node1&#45;&gt;Node17 -->
<g id="edge16_Node000001_Node000017" class="edge">
<title>Node1&#45;&gt;Node17</title>
<g id="a_edge16_Node000001_Node000017"><a xlink:title=" ">
<path fill="none" stroke="#63b8ff" d="M160.91,-200.02C176.55,-186.02 199.89,-167 223.25,-155 229.47,-151.81 236.16,-148.95 242.95,-146.42"/>
<polygon fill="#63b8ff" stroke="#63b8ff" points="158.78,-197.23 153.77,-206.57 163.51,-202.39 158.78,-197.23"/>
</a>
</g>
</g>
<!-- Node19 -->
<g id="Node000019" class="node">
<title>Node19</title>
<g id="a_Node000019"><a xlink:href="class_o_c_a_1_1_c_a_f_e_v_d_b_1_1_maintenance_1_1_migrations_1_1_participant_fields_add_liabilities.html" target="_top" xlink:title="Change participantAccess field to enum.">
<polygon fill="white" stroke="#666666" points="381.38,-96 234.88,-96 234.88,-76 381.38,-76 381.38,-96"/>
<text text-anchor="middle" x="308.12" y="-82.5" font-family="Helvetica,sans-Serif" font-size="10.00">ParticipantFieldsAddLiabilities</text>
</a>
</g>
</g>
<!-- Node1&#45;&gt;Node19 -->
<g id="edge18_Node000001_Node000019" class="edge">
<title>Node1&#45;&gt;Node19</title>
<g id="a_edge18_Node000001_Node000019"><a xlink:title=" ">
<path fill="none" stroke="#63b8ff" d="M151.02,-197.5C163.45,-171.75 188.33,-128.13 223.25,-105 228.48,-101.54 234.25,-98.7 240.24,-96.37"/>
<polygon fill="#63b8ff" stroke="#63b8ff" points="147.99,-195.72 146.96,-206.26 154.34,-198.66 147.99,-195.72"/>
</a>
</g>
</g>
<!-- Node21 -->
<g id="Node000021" class="node">
<title>Node21</title>
<g id="a_Node000021"><a xlink:href="class_o_c_a_1_1_c_a_f_e_v_d_b_1_1_maintenance_1_1_migrations_1_1_project_events_add_absence_fields.html" target="_top" xlink:title="Change participantAccess field to enum.">
<polygon fill="white" stroke="#666666" points="387.75,-58 228.5,-58 228.5,-38 387.75,-38 387.75,-58"/>
<text text-anchor="middle" x="308.12" y="-44.5" font-family="Helvetica,sans-Serif" font-size="10.00">ProjectEventsAddAbsenceFields</text>
</a>
</g>
</g>
<!-- Node1&#45;&gt;Node21 -->
<g id="edge20_Node000001_Node000021" class="edge">
<title>Node1&#45;&gt;Node21</title>
<g id="a_edge20_Node000001_Node000021"><a xlink:title=" ">
<path fill="none" stroke="#63b8ff" d="M147.39,-196.51C156.86,-163.34 179.75,-100.07 223.25,-67 227.77,-63.57 232.79,-60.73 238.07,-58.4"/>
<polygon fill="#63b8ff" stroke="#63b8ff" points="144.01,-195.59 144.79,-206.16 150.77,-197.41 144.01,-195.59"/>
</a>
</g>
</g>
<!-- Node23 -->
<g id="Node000023" class="node">
<title>Node23</title>
<g id="a_Node000023"><a xlink:href="class_o_c_a_1_1_c_a_f_e_v_d_b_1_1_maintenance_1_1_migrations_1_1_sanitize_database_storage_identifiers.html" target="_top" xlink:title="Change participantAccess field to enum.">
<polygon fill="white" stroke="#666666" points="393,-20 223.25,-20 223.25,0 393,0 393,-20"/>
<text text-anchor="middle" x="308.12" y="-6.5" font-family="Helvetica,sans-Serif" font-size="10.00">SanitizeDatabaseStorageIdentifiers</text>
</a>
</g>
</g>
<!-- Node1&#45;&gt;Node23 -->
<g id="edge22_Node000001_Node000023" class="edge">
<title>Node1&#45;&gt;Node23</title>
<g id="a_edge22_Node000001_Node000023"><a xlink:title=" ">
<path fill="none" stroke="#63b8ff" d="M144.83,-196.56C151.23,-157.05 170.59,-72.8 223.25,-29 227.38,-25.56 232.01,-22.72 236.92,-20.36"/>
<polygon fill="#63b8ff" stroke="#63b8ff" points="141.37,-196.01 143.38,-206.41 148.3,-197.03 141.37,-196.01"/>
</a>
</g>
</g>
<!-- Node2 -->
<g id="Node000002" class="node">
<title>Node2</title>
<g id="a_Node000002"><a xlink:href="interface_o_c_a_1_1_c_a_f_e_v_d_b_1_1_maintenance_1_1_i_migration.html" target="_top" xlink:title="Uni&#45;directional migrations for the orchestra DB.">
<polygon fill="white" stroke="#666666" points="58.75,-228 0,-228 0,-208 58.75,-208 58.75,-228"/>
<text text-anchor="middle" x="29.38" y="-214.5" font-family="Helvetica,sans-Serif" font-size="10.00">IMigration</text>
</a>
</g>
</g>
<!-- Node2&#45;&gt;Node1 -->
<g id="edge1_Node000001_Node000002" class="edge">
<title>Node2&#45;&gt;Node1</title>
<g id="a_edge1_Node000001_Node000002"><a xlink:title=" ">
<path fill="none" stroke="#63b8ff" d="M70.55,-218C78.31,-218 86.5,-218 94.43,-218"/>
<polygon fill="#63b8ff" stroke="#63b8ff" points="70.69,-214.5 60.69,-218 70.69,-221.5 70.69,-214.5"/>
</a>
</g>
</g>
<!-- Node4 -->
<g id="Node000004" class="node">
<title>Node4</title>
<g id="a_Node000004"><a xlink:href="class_o_c_a_1_1_c_a_f_e_v_d_b_1_1_maintenance_1_1_migrations_1_1_version20230502230000.html" target="_top" xlink:title="Wrapper class which gives the migration a proper sequence number and redirects to the actual implemen...">
<polygon fill="white" stroke="#666666" points="551.5,-424 429,-424 429,-404 551.5,-404 551.5,-424"/>
<text text-anchor="middle" x="490.25" y="-410.5" font-family="Helvetica,sans-Serif" font-size="10.00">Version20230502230000</text>
</a>
</g>
</g>
<!-- Node3&#45;&gt;Node4 -->
<g id="edge3_Node000003_Node000004" class="edge">
<title>Node3&#45;&gt;Node4</title>
<g id="a_edge3_Node000003_Node000004"><a xlink:title=" ">
<path fill="none" stroke="#63b8ff" d="M396.95,-414C407.72,-414 418.52,-414 428.76,-414"/>
<polygon fill="#63b8ff" stroke="#63b8ff" points="397.29,-410.5 387.29,-414 397.29,-417.5 397.29,-410.5"/>
</a>
</g>
</g>
<!-- Node6 -->
<g id="Node000006" class="node">
<title>Node6</title>
<g id="a_Node000006"><a xlink:href="class_o_c_a_1_1_c_a_f_e_v_d_b_1_1_maintenance_1_1_migrations_1_1_version20240122170000.html" target="_top" xlink:title="Wrapper class which gives the migration a proper sequence number and redirects to the actual implemen...">
<polygon fill="white" stroke="#666666" points="551.5,-386 429,-386 429,-366 551.5,-366 551.5,-386"/>
<text text-anchor="middle" x="490.25" y="-372.5" font-family="Helvetica,sans-Serif" font-size="10.00">Version20240122170000</text>
</a>
</g>
</g>
<!-- Node5&#45;&gt;Node6 -->
<g id="edge5_Node000005_Node000006" class="edge">
<title>Node5&#45;&gt;Node6</title>
<g id="a_edge5_Node000005_Node000006"><a xlink:title=" ">
<path fill="none" stroke="#63b8ff" d="M402.15,-376C411.14,-376 420.1,-376 428.66,-376"/>
<polygon fill="#63b8ff" stroke="#63b8ff" points="402.27,-372.5 392.27,-376 402.27,-379.5 402.27,-372.5"/>
</a>
</g>
</g>
<!-- Node8 -->
<g id="Node000008" class="node">
<title>Node8</title>
<g id="a_Node000008"><a xlink:href="class_o_c_a_1_1_c_a_f_e_v_d_b_1_1_maintenance_1_1_migrations_1_1_version20240214010000.html" target="_top" xlink:title="Wrapper class which gives the migration a proper sequence number and redirects to the actual implemen...">
<polygon fill="white" stroke="#666666" points="551.5,-348 429,-348 429,-328 551.5,-328 551.5,-348"/>
<text text-anchor="middle" x="490.25" y="-334.5" font-family="Helvetica,sans-Serif" font-size="10.00">Version20240214010000</text>
</a>
</g>
</g>
<!-- Node7&#45;&gt;Node8 -->
<g id="edge7_Node000007_Node000008" class="edge">
<title>Node7&#45;&gt;Node8</title>
<g id="a_edge7_Node000007_Node000008"><a xlink:title=" ">
<path fill="none" stroke="#63b8ff" d="M378.8,-338C395.22,-338 412.6,-338 428.59,-338"/>
<polygon fill="#63b8ff" stroke="#63b8ff" points="379.12,-334.5 369.12,-338 379.12,-341.5 379.12,-334.5"/>
</a>
</g>
</g>
<!-- Node10 -->
<g id="Node000010" class="node">
<title>Node10</title>
<g id="a_Node000010"><a xlink:href="class_o_c_a_1_1_c_a_f_e_v_d_b_1_1_maintenance_1_1_migrations_1_1_version20240206153000.html" target="_top" xlink:title="Wrapper class which gives the migration a proper sequence number and redirects to the actual implemen...">
<polygon fill="white" stroke="#666666" points="551.5,-310 429,-310 429,-290 551.5,-290 551.5,-310"/>
<text text-anchor="middle" x="490.25" y="-296.5" font-family="Helvetica,sans-Serif" font-size="10.00">Version20240206153000</text>
</a>
</g>
</g>
<!-- Node9&#45;&gt;Node10 -->
<g id="edge9_Node000009_Node000010" class="edge">
<title>Node9&#45;&gt;Node10</title>
<g id="a_edge9_Node000009_Node000010"><a xlink:title=" ">
<path fill="none" stroke="#63b8ff" d="M390.3,-300C403.23,-300 416.41,-300 428.76,-300"/>
<polygon fill="#63b8ff" stroke="#63b8ff" points="390.54,-296.5 380.54,-300 390.54,-303.5 390.54,-296.5"/>
</a>
</g>
</g>
<!-- Node12 -->
<g id="Node000012" class="node">
<title>Node12</title>
<g id="a_Node000012"><a xlink:href="class_o_c_a_1_1_c_a_f_e_v_d_b_1_1_maintenance_1_1_migrations_1_1_version20230823120000.html" target="_top" xlink:title="Wrapper class which gives the migration a proper sequence number and redirects to the actual implemen...">
<polygon fill="white" stroke="#666666" points="551.5,-272 429,-272 429,-252 551.5,-252 551.5,-272"/>
<text text-anchor="middle" x="490.25" y="-258.5" font-family="Helvetica,sans-Serif" font-size="10.00">Version20230823120000</text>
</a>
</g>
</g>
<!-- Node11&#45;&gt;Node12 -->
<g id="edge11_Node000011_Node000012" class="edge">
<title>Node11&#45;&gt;Node12</title>
<g id="a_edge11_Node000011_Node000012"><a xlink:title=" ">
<path fill="none" stroke="#63b8ff" d="M399.35,-262C409.3,-262 419.26,-262 428.72,-262"/>
<polygon fill="#63b8ff" stroke="#63b8ff" points="399.64,-258.5 389.64,-262 399.64,-265.5 399.64,-258.5"/>
</a>
</g>
</g>
<!-- Node14 -->
<g id="Node000014" class="node">
<title>Node14</title>
<g id="a_Node000014"><a xlink:href="class_o_c_a_1_1_c_a_f_e_v_d_b_1_1_maintenance_1_1_migrations_1_1_version20230227090000.html" target="_top" xlink:title="Wrapper class which gives the migration a proper sequence number and redirects to the actual implemen...">
<polygon fill="white" stroke="#666666" points="551.5,-228 429,-228 429,-208 551.5,-208 551.5,-228"/>
<text text-anchor="middle" x="490.25" y="-214.5" font-family="Helvetica,sans-Serif" font-size="10.00">Version20230227090000</text>
</a>
</g>
</g>
<!-- Node13&#45;&gt;Node14 -->
<g id="edge13_Node000013_Node000014" class="edge">
<title>Node13&#45;&gt;Node14</title>
<g id="a_edge13_Node000013_Node000014"><a xlink:title=" ">
<path fill="none" stroke="#63b8ff" d="M391.04,-218C403.65,-218 416.48,-218 428.52,-218"/>
<polygon fill="#63b8ff" stroke="#63b8ff" points="391.05,-214.5 381.05,-218 391.05,-221.5 391.05,-214.5"/>
</a>
</g>
</g>
<!-- Node16 -->
<g id="Node000016" class="node">
<title>Node16</title>
<g id="a_Node000016"><a xlink:href="class_o_c_a_1_1_c_a_f_e_v_d_b_1_1_maintenance_1_1_migrations_1_1_version20230206204000.html" target="_top" xlink:title="Wrapper class which gives the migration a proper sequence number and redirects to the actual implemen...">
<polygon fill="white" stroke="#666666" points="551.5,-184 429,-184 429,-164 551.5,-164 551.5,-184"/>
<text text-anchor="middle" x="490.25" y="-170.5" font-family="Helvetica,sans-Serif" font-size="10.00">Version20230206204000</text>
</a>
</g>
</g>
<!-- Node15&#45;&gt;Node16 -->
<g id="edge15_Node000015_Node000016" class="edge">
<title>Node15&#45;&gt;Node16</title>
<g id="a_edge15_Node000015_Node000016"><a xlink:title=" ">
<path fill="none" stroke="#63b8ff" d="M391.04,-174C403.65,-174 416.48,-174 428.52,-174"/>
<polygon fill="#63b8ff" stroke="#63b8ff" points="391.05,-170.5 381.05,-174 391.05,-177.5 391.05,-170.5"/>
</a>
</g>
</g>
<!-- Node18 -->
<g id="Node000018" class="node">
<title>Node18</title>
<g id="a_Node000018"><a xlink:href="class_o_c_a_1_1_c_a_f_e_v_d_b_1_1_maintenance_1_1_migrations_1_1_version20230206203000.html" target="_top" xlink:title="Wrapper class which gives the migration a proper sequence number and redirects to the actual implemen...">
<polygon fill="white" stroke="#666666" points="551.5,-140 429,-140 429,-120 551.5,-120 551.5,-140"/>
<text text-anchor="middle" x="490.25" y="-126.5" font-family="Helvetica,sans-Serif" font-size="10.00">Version20230206203000</text>
</a>
</g>
</g>
<!-- Node17&#45;&gt;Node18 -->
<g id="edge17_Node000017_Node000018" class="edge">
<title>Node17&#45;&gt;Node18</title>
<g id="a_edge17_Node000017_Node000018"><a xlink:title=" ">
<path fill="none" stroke="#63b8ff" d="M388.89,-130C402.28,-130 415.98,-130 428.79,-130"/>
<polygon fill="#63b8ff" stroke="#63b8ff" points="389.25,-126.5 379.25,-130 389.25,-133.5 389.25,-126.5"/>
</a>
</g>
</g>
<!-- Node20 -->
<g id="Node000020" class="node">
<title>Node20</title>
<g id="a_Node000020"><a xlink:href="class_o_c_a_1_1_c_a_f_e_v_d_b_1_1_maintenance_1_1_migrations_1_1_version20230207133000.html" target="_top" xlink:title="Wrapper class which gives the migration a proper sequence number and redirects to the actual implemen...">
<polygon fill="white" stroke="#666666" points="551.5,-96 429,-96 429,-76 551.5,-76 551.5,-96"/>
<text text-anchor="middle" x="490.25" y="-82.5" font-family="Helvetica,sans-Serif" font-size="10.00">Version20230207133000</text>
</a>
</g>
</g>
<!-- Node19&#45;&gt;Node20 -->
<g id="edge19_Node000019_Node000020" class="edge">
<title>Node19&#45;&gt;Node20</title>
<g id="a_edge19_Node000019_Node000020"><a xlink:title=" ">
<path fill="none" stroke="#63b8ff" d="M393.25,-86C405.19,-86 417.27,-86 428.64,-86"/>
<polygon fill="#63b8ff" stroke="#63b8ff" points="393.38,-82.5 383.38,-86 393.38,-89.5 393.38,-82.5"/>
</a>
</g>
</g>
<!-- Node22 -->
<g id="Node000022" class="node">
<title>Node22</title>
<g id="a_Node000022"><a xlink:href="class_o_c_a_1_1_c_a_f_e_v_d_b_1_1_maintenance_1_1_migrations_1_1_version20230330110000.html" target="_top" xlink:title="Wrapper class which gives the migration a proper sequence number and redirects to the actual implemen...">
<polygon fill="white" stroke="#666666" points="551.5,-58 429,-58 429,-38 551.5,-38 551.5,-58"/>
<text text-anchor="middle" x="490.25" y="-44.5" font-family="Helvetica,sans-Serif" font-size="10.00">Version20230330110000</text>
</a>
</g>
</g>
<!-- Node21&#45;&gt;Node22 -->
<g id="edge21_Node000021_Node000022" class="edge">
<title>Node21&#45;&gt;Node22</title>
<g id="a_edge21_Node000021_Node000022"><a xlink:title=" ">
<path fill="none" stroke="#63b8ff" d="M399.35,-48C409.3,-48 419.26,-48 428.72,-48"/>
<polygon fill="#63b8ff" stroke="#63b8ff" points="399.64,-44.5 389.64,-48 399.64,-51.5 399.64,-44.5"/>
</a>
</g>
</g>
<!-- Node24 -->
<g id="Node000024" class="node">
<title>Node24</title>
<g id="a_Node000024"><a xlink:href="class_o_c_a_1_1_c_a_f_e_v_d_b_1_1_maintenance_1_1_migrations_1_1_version20240214013000.html" target="_top" xlink:title="Wrapper class which gives the migration a proper sequence number and redirects to the actual implemen...">
<polygon fill="white" stroke="#666666" points="551.5,-20 429,-20 429,0 551.5,0 551.5,-20"/>
<text text-anchor="middle" x="490.25" y="-6.5" font-family="Helvetica,sans-Serif" font-size="10.00">Version20240214013000</text>
</a>
</g>
</g>
<!-- Node23&#45;&gt;Node24 -->
<g id="edge23_Node000023_Node000024" class="edge">
<title>Node23&#45;&gt;Node24</title>
<g id="a_edge23_Node000023_Node000024"><a xlink:title=" ">
<path fill="none" stroke="#63b8ff" d="M404.84,-10C412.93,-10 420.96,-10 428.67,-10"/>
<polygon fill="#63b8ff" stroke="#63b8ff" points="404.9,-6.5 394.9,-10 404.9,-13.5 404.9,-6.5"/>
</a>
</g>
</g>
</g>
</svg>
