<?xml version="1.0" encoding="UTF-8" standalone="no"?>
<!DOCTYPE svg PUBLIC "-//W3C//DTD SVG 1.1//EN"
 "http://www.w3.org/Graphics/SVG/1.1/DTD/svg11.dtd">
<!-- Generated by graphviz version 9.0.0 (20230911.1827)
 -->
<!-- Title: GeoContinent Pages: 1 -->
<svg width="144pt" height="140pt"
 viewBox="0.00 0.00 143.75 140.00" xmlns="http://www.w3.org/2000/svg" xmlns:xlink="http://www.w3.org/1999/xlink">

<svg id="main" version="1.1" xmlns="http://www.w3.org/2000/svg" xmlns:xlink="http://www.w3.org/1999/xlink" xml:space="preserve" onload="init(evt)">
<style type="text/css"><![CDATA[
.node, .edge {opacity: 0.7;}
.node.selected, .edge.selected {opacity: 1;}
.edge:hover path { stroke: red; }
.edge:hover polygon { stroke: red; fill: red; }
]]></style>
<script type="application/ecmascript" xlink:href="svg.min.js"/>
<svg id="graph" class="graph">
<g id="graph0" class="graph" transform="scale(1 1) rotate(0) translate(4 136)">
<title>GeoContinent</title>
<!-- Node1 -->
<g id="Node000001" class="node">
<title>Node1</title>
<g id="a_Node000001"><a xlink:title="DO NOT EDIT THIS FILE &#45; IT WAS CREATED BY DOCTRINE&#39;S PROXY GENERATOR.">
<polygon fill="#999999" stroke="#666666" points="114,-20 38,-20 38,0 114,0 114,-20"/>
<text text-anchor="middle" x="76" y="-6.5" font-family="Helvetica,sans-Serif" font-size="10.00">GeoContinent</text>
</a>
</g>
</g>
<!-- Node2 -->
<g id="Node000002" class="node">
<title>Node2</title>
<g id="a_Node000002"><a xlink:href="class_o_c_a_1_1_c_a_f_e_v_d_b_1_1_database_1_1_doctrine_1_1_o_r_m_1_1_entities_1_1_geo_continent.html" target="_top" xlink:title="GeoContinents.">
<polygon fill="white" stroke="#666666" points="76,-76 0,-76 0,-56 76,-56 76,-76"/>
<text text-anchor="middle" x="38" y="-62.5" font-family="Helvetica,sans-Serif" font-size="10.00">GeoContinent</text>
</a>
</g>
</g>
<!-- Node2&#45;&gt;Node1 -->
<g id="edge1_Node000001_Node000002" class="edge">
<title>Node2&#45;&gt;Node1</title>
<g id="a_edge1_Node000001_Node000002"><a xlink:title=" ">
<path fill="none" stroke="#63b8ff" d="M51.06,-46.44C57.27,-37.62 64.41,-27.47 69.46,-20.3"/>
<polygon fill="#63b8ff" stroke="#63b8ff" points="48.38,-44.16 45.49,-54.36 54.11,-48.19 48.38,-44.16"/>
</a>
</g>
</g>
<!-- Node3 -->
<g id="Node000003" class="node">
<title>Node3</title>
<g id="a_Node000003"><a xlink:title=" ">
<polygon fill="white" stroke="#bfbfbf" points="74.12,-132 1.88,-132 1.88,-112 74.12,-112 74.12,-132"/>
<text text-anchor="middle" x="38" y="-118.5" font-family="Helvetica,sans-Serif" font-size="10.00">ArrayAccess</text>
</a>
</g>
</g>
<!-- Node3&#45;&gt;Node2 -->
<g id="edge2_Node000002_Node000003" class="edge">
<title>Node3&#45;&gt;Node2</title>
<g id="a_edge2_Node000002_Node000003"><a xlink:title=" ">
<path fill="none" stroke="#63b8ff" d="M38,-100.13C38,-91.9 38,-82.85 38,-76.3"/>
<polygon fill="#63b8ff" stroke="#63b8ff" points="34.5,-100.08 38,-110.08 41.5,-100.08 34.5,-100.08"/>
</a>
</g>
</g>
<!-- Node4 -->
<g id="Node000004" class="node">
<title>Node4</title>
<g id="a_Node000004"><a xlink:title=" ">
<polygon fill="white" stroke="#bfbfbf" points="135.75,-76 94.25,-76 94.25,-56 135.75,-56 135.75,-76"/>
<text text-anchor="middle" x="115" y="-62.5" font-family="Helvetica,sans-Serif" font-size="10.00">Proxy</text>
</a>
</g>
</g>
<!-- Node4&#45;&gt;Node1 -->
<g id="edge3_Node000001_Node000004" class="edge">
<title>Node4&#45;&gt;Node1</title>
<g id="a_edge3_Node000001_Node000004"><a xlink:title=" ">
<path fill="none" stroke="#63b8ff" d="M101.59,-46.44C95.23,-37.62 87.89,-27.47 82.72,-20.3"/>
<polygon fill="#63b8ff" stroke="#63b8ff" points="98.63,-48.31 107.32,-54.37 104.3,-44.21 98.63,-48.31"/>
</a>
</g>
</g>
</g>
</svg>
</svg>

<style type='text/css'>
<![CDATA[
[data-mouse-over-selected='false'] { opacity: 0.7; }
[data-mouse-over-selected='true']  { opacity: 1.0; }
]]>
</style>
<script type="application/ecmascript"><![CDATA[
document.addEventListener('DOMContentLoaded', (event) => {
  highlightEdges();
  highlightAdjacentNodes();
});
]]></script>
</svg>
