<?xml version="1.0" encoding="UTF-8" standalone="no"?>
<!DOCTYPE svg PUBLIC "-//W3C//DTD SVG 1.1//EN"
 "http://www.w3.org/Graphics/SVG/1.1/DTD/svg11.dtd">
<!-- Generated by graphviz version 8.0.3 (20230416.2022)
 -->
<!-- Title: fetchFolders Pages: 1 -->
<svg width="411pt" height="64pt"
 viewBox="0.00 0.00 411.00 64.00" xmlns="http://www.w3.org/2000/svg" xmlns:xlink="http://www.w3.org/1999/xlink">
<g id="graph0" class="graph" transform="scale(1 1) rotate(0) translate(4 60)">
<title>fetchFolders</title>
<!-- Node1 -->
<g id="node1" class="node">
<title>Node1</title>
<g id="a_node1"><a xlink:title="Fetch and cache all shared folders from the groupfolders app.">
<polygon fill="#999999" stroke="#666666" points="403,-37 332,-37 332,-18 403,-18 403,-37"/>
<text text-anchor="middle" x="367.5" y="-25" font-family="Helvetica,sans-Serif" font-size="10.00">fetchFolders</text>
</a>
</g>
</g>
<!-- Node2 -->
<g id="node2" class="node">
<title>Node2</title>
<g id="a_node2"><a xlink:href="class_o_c_a_1_1_c_a_f_e_v_d_b_1_1_toolkit_1_1_service_1_1_group_folders_service.html#a7e14d6479c6ecacdf6ec831270d1b99b" target="_top" xlink:title=" ">
<polygon fill="white" stroke="#666666" points="296,-56 218,-56 218,-37 296,-37 296,-56"/>
<text text-anchor="middle" x="257" y="-44" font-family="Helvetica,sans-Serif" font-size="10.00">ensureFolders</text>
</a>
</g>
</g>
<!-- Node1&#45;&gt;Node2 -->
<g id="edge1" class="edge">
<title>Node1&#45;&gt;Node2</title>
<path fill="none" stroke="#63b8ff" d="M320.98,-35.47C312.74,-36.91 304.24,-38.4 296.24,-39.8"/>
<polygon fill="#63b8ff" stroke="#63b8ff" points="321.33,-38.79 330.57,-33.62 320.12,-31.89 321.33,-38.79"/>
</g>
<!-- Node5 -->
<g id="node5" class="node">
<title>Node5</title>
<g id="a_node5"><a xlink:href="class_o_c_a_1_1_c_a_f_e_v_d_b_1_1_toolkit_1_1_service_1_1_group_folders_service.html#ab053279bea70dd2be3ff1676354fd041" target="_top" xlink:title="Return all shared folders matching the given regexp.">
<polygon fill="white" stroke="#666666" points="296,-19 218,-19 218,0 296,0 296,-19"/>
<text text-anchor="middle" x="257" y="-7" font-family="Helvetica,sans-Serif" font-size="10.00">searchFolders</text>
</a>
</g>
</g>
<!-- Node1&#45;&gt;Node5 -->
<g id="edge4" class="edge">
<title>Node1&#45;&gt;Node5</title>
<path fill="none" stroke="#63b8ff" d="M320.98,-19.95C312.74,-18.58 304.24,-17.17 296.24,-15.84"/>
<polygon fill="#63b8ff" stroke="#63b8ff" points="320.13,-23.52 330.57,-21.71 321.28,-16.62 320.13,-23.52"/>
</g>
<!-- Node3 -->
<g id="node3" class="node">
<title>Node3</title>
<g id="a_node3"><a xlink:href="class_o_c_a_1_1_c_a_f_e_v_d_b_1_1_toolkit_1_1_service_1_1_group_folders_service.html#a4d4c99de2d9c451fa1e4f4cb2123fb04" target="_top" xlink:title="Obtain the shared folder data for the given mount&#45;point.">
<polygon fill="white" stroke="#666666" points="173,-56 116,-56 116,-37 173,-37 173,-56"/>
<text text-anchor="middle" x="144.5" y="-44" font-family="Helvetica,sans-Serif" font-size="10.00">getFolder</text>
</a>
</g>
</g>
<!-- Node2&#45;&gt;Node3 -->
<g id="edge2" class="edge">
<title>Node2&#45;&gt;Node3</title>
<path fill="none" stroke="#63b8ff" d="M206.82,-46.5C195.34,-46.5 183.5,-46.5 173.32,-46.5"/>
<polygon fill="#63b8ff" stroke="#63b8ff" points="206.66,-50 216.66,-46.5 206.66,-43 206.66,-50"/>
</g>
<!-- Node4 -->
<g id="node4" class="node">
<title>Node4</title>
<g id="a_node4"><a xlink:href="class_o_c_a_1_1_c_a_f_e_v_d_b_1_1_toolkit_1_1_service_1_1_group_folders_service.html#ab6b826e4a8edcd655850277fbb5e9e74" target="_top" xlink:title="Create a shared folder and set appropriate permissions.">
<polygon fill="white" stroke="#666666" points="71,-56 0,-56 0,-37 71,-37 71,-56"/>
<text text-anchor="middle" x="35.5" y="-44" font-family="Helvetica,sans-Serif" font-size="10.00">createFolder</text>
</a>
</g>
</g>
<!-- Node3&#45;&gt;Node4 -->
<g id="edge3" class="edge">
<title>Node3&#45;&gt;Node4</title>
<path fill="none" stroke="#63b8ff" d="M104.74,-46.5C93.87,-46.5 82.12,-46.5 71.48,-46.5"/>
<polygon fill="#63b8ff" stroke="#63b8ff" points="104.67,-50 114.67,-46.5 104.67,-43 104.67,-50"/>
</g>
<!-- Node6 -->
<g id="node6" class="node">
<title>Node6</title>
<g id="a_node6"><a xlink:href="class_o_c_a_1_1_c_a_f_e_v_d_b_1_1_toolkit_1_1_service_1_1_group_folders_service.html#ad4fb86c5bb03d98824c51cfe67154a56" target="_top" xlink:title=" ">
<polygon fill="white" stroke="#666666" points="182,-19 107,-19 107,0 182,0 182,-19"/>
<text text-anchor="middle" x="144.5" y="-7" font-family="Helvetica,sans-Serif" font-size="10.00">deleteFolders</text>
</a>
</g>
</g>
<!-- Node5&#45;&gt;Node6 -->
<g id="edge5" class="edge">
<title>Node5&#45;&gt;Node6</title>
<path fill="none" stroke="#63b8ff" d="M206.66,-9.5C198.47,-9.5 190.1,-9.5 182.28,-9.5"/>
<polygon fill="#63b8ff" stroke="#63b8ff" points="206.66,-13 216.66,-9.5 206.66,-6 206.66,-13"/>
</g>
</g>
</svg>
