<?xml version="1.0" encoding="UTF-8" standalone="no"?>
<!DOCTYPE svg PUBLIC "-//W3C//DTD SVG 1.1//EN"
 "http://www.w3.org/Graphics/SVG/1.1/DTD/svg11.dtd">
<!-- Generated by graphviz version 9.0.0 (20230911.1827)
 -->
<!-- Title: SepaDebitMandate Pages: 1 -->
<svg width="166pt" height="140pt"
 viewBox="0.00 0.00 166.38 140.00" xmlns="http://www.w3.org/2000/svg" xmlns:xlink="http://www.w3.org/1999/xlink">
<g id="graph0" class="graph" transform="scale(1 1) rotate(0) translate(4 136)">
<title>SepaDebitMandate</title>
<!-- Node1 -->
<g id="Node000001" class="node">
<title>Node1</title>
<g id="a_Node000001"><a xlink:title="DO NOT EDIT THIS FILE &#45; IT WAS CREATED BY DOCTRINE&#39;S PROXY GENERATOR.">
<polygon fill="#999999" stroke="#666666" points="143.25,-20 44,-20 44,0 143.25,0 143.25,-20"/>
<text text-anchor="middle" x="93.62" y="-6.5" font-family="Helvetica,sans-Serif" font-size="10.00">SepaDebitMandate</text>
</a>
</g>
</g>
<!-- Node2 -->
<g id="Node000002" class="node">
<title>Node2</title>
<g id="a_Node000002"><a xlink:href="class_o_c_a_1_1_c_a_f_e_v_d_b_1_1_database_1_1_doctrine_1_1_o_r_m_1_1_entities_1_1_sepa_debit_mandate.html" target="_top" xlink:title="SepaDebitMandate.">
<polygon fill="white" stroke="#666666" points="99.25,-76 0,-76 0,-56 99.25,-56 99.25,-76"/>
<text text-anchor="middle" x="49.62" y="-62.5" font-family="Helvetica,sans-Serif" font-size="10.00">SepaDebitMandate</text>
</a>
</g>
</g>
<!-- Node2&#45;&gt;Node1 -->
<g id="edge1_Node000001_Node000002" class="edge">
<title>Node2&#45;&gt;Node1</title>
<g id="a_edge1_Node000001_Node000002"><a xlink:title=" ">
<path fill="none" stroke="#63b8ff" d="M64.52,-46.72C71.76,-37.84 80.14,-27.55 86.05,-20.3"/>
<polygon fill="#63b8ff" stroke="#63b8ff" points="61.85,-44.46 58.25,-54.42 67.28,-48.88 61.85,-44.46"/>
</a>
</g>
</g>
<!-- Node3 -->
<g id="Node000003" class="node">
<title>Node3</title>
<g id="a_Node000003"><a xlink:title=" ">
<polygon fill="white" stroke="#bfbfbf" points="85.75,-132 13.5,-132 13.5,-112 85.75,-112 85.75,-132"/>
<text text-anchor="middle" x="49.62" y="-118.5" font-family="Helvetica,sans-Serif" font-size="10.00">ArrayAccess</text>
</a>
</g>
</g>
<!-- Node3&#45;&gt;Node2 -->
<g id="edge2_Node000002_Node000003" class="edge">
<title>Node3&#45;&gt;Node2</title>
<g id="a_edge2_Node000002_Node000003"><a xlink:title=" ">
<path fill="none" stroke="#63b8ff" d="M49.62,-100.13C49.62,-91.9 49.62,-82.85 49.62,-76.3"/>
<polygon fill="#63b8ff" stroke="#63b8ff" points="46.13,-100.08 49.63,-110.08 53.13,-100.08 46.13,-100.08"/>
</a>
</g>
</g>
<!-- Node4 -->
<g id="Node000004" class="node">
<title>Node4</title>
<g id="a_Node000004"><a xlink:title=" ">
<polygon fill="white" stroke="#bfbfbf" points="158.38,-76 116.88,-76 116.88,-56 158.38,-56 158.38,-76"/>
<text text-anchor="middle" x="137.62" y="-62.5" font-family="Helvetica,sans-Serif" font-size="10.00">Proxy</text>
</a>
</g>
</g>
<!-- Node4&#45;&gt;Node1 -->
<g id="edge3_Node000001_Node000004" class="edge">
<title>Node4&#45;&gt;Node1</title>
<g id="a_edge3_Node000001_Node000004"><a xlink:title=" ">
<path fill="none" stroke="#63b8ff" d="M122.73,-46.72C115.49,-37.84 107.11,-27.55 101.2,-20.3"/>
<polygon fill="#63b8ff" stroke="#63b8ff" points="119.97,-48.88 129,-54.42 125.4,-44.46 119.97,-48.88"/>
</a>
</g>
</g>
</g>
</svg>
