<?xml version="1.0" encoding="UTF-8" standalone="no"?>
<!DOCTYPE svg PUBLIC "-//W3C//DTD SVG 1.1//EN"
 "http://www.w3.org/Graphics/SVG/1.1/DTD/svg11.dtd">
<!-- Generated by graphviz version 9.0.0 (20230911.1827)
 -->
<!-- Title: open Pages: 1 -->
<!--zoomable 254 -->

<svg id="main" version="1.1" xmlns="http://www.w3.org/2000/svg" xmlns:xlink="http://www.w3.org/1999/xlink" xml:space="preserve" onload="init(evt)">
<style type="text/css"><![CDATA[
.node, .edge {opacity: 0.7;}
.node.selected, .edge.selected {opacity: 1;}
.edge:hover path { stroke: red; }
.edge:hover polygon { stroke: red; fill: red; }
]]></style>

<defs>
  <circle id="rim" cx="0" cy="0" r="7"/>
  <circle id="rim2" cx="0" cy="0" r="3.5"/>
  <g id="zoomPlus">
    <use xlink:href="#rim" fill="#404040"><set attributeName="fill" to="#808080" begin="zoomplus.mouseover" end="zoomplus.mouseout"/></use>
    <path d="M-4,0h8M0,-4v8" fill="none" stroke="white" stroke-width="1.5" pointer-events="none"/>
  </g>
  <g id="zoomMin">
    <use xlink:href="#rim" fill="#404040"><set attributeName="fill" to="#808080" begin="zoomminus.mouseover" end="zoomminus.mouseout"/></use>
    <path d="M-4,0h8" fill="none" stroke="white" stroke-width="1.5" pointer-events="none"/>
  </g>
  <g id="arrowUp" transform="translate(30 24)">
    <use xlink:href="#rim"/>
    <path pointer-events="none" fill="none" stroke="white" stroke-width="1.5" d="M0,-3.0v7 M-2.5,-0.5L0,-3.0L2.5,-0.5"/>
  </g>
  <g id="arrowRight" transform="rotate(90) translate(36 -43)">
    <use xlink:href="#rim"/>
    <path pointer-events="none" fill="none" stroke="white" stroke-width="1.5" d="M0,-3.0v7 M-2.5,-0.5L0,-3.0L2.5,-0.5"/>
  </g>
  <g id="arrowDown" transform="rotate(180) translate(-30 -48)">
    <use xlink:href="#rim"/>
    <path pointer-events="none" fill="none" stroke="white" stroke-width="1.5" d="M0,-3.0v7 M-2.5,-0.5L0,-3.0L2.5,-0.5"/>
  </g>
  <g id="arrowLeft" transform="rotate(270) translate(-36 17)">
    <use xlink:href="#rim"/>
    <path pointer-events="none" fill="none" stroke="white" stroke-width="1.5" d="M0,-3.0v7 M-2.5,-0.5L0,-3.0L2.5,-0.5"/>
  </g>
  <g id="resetDef">
    <use xlink:href="#rim2" fill="#404040"><set attributeName="fill" to="#808080" begin="reset.mouseover" end="reset.mouseout"/></use>
  </g>
</defs>
<script type="application/ecmascript">
var viewWidth = 628;
var viewHeight = 254;
var sectionId = 'dynsection-10';
</script>
<script type="application/ecmascript" xlink:href="svg.min.js"/>
<svg id="graph" class="graph">
<g id="viewport">
<title>open</title>
<!-- Node1 -->
<g id="Node000001" class="node">
<title>Node1</title>
<g id="a_Node000001"><a xlink:title=" ">
<polygon fill="#999999" stroke="#666666" points="37,-101 0,-101 0,-81 37,-81 37,-101"/>
<text text-anchor="middle" x="18.5" y="-87.5" font-family="Helvetica,sans-Serif" font-size="10.00">open</text>
</a>
</g>
</g>
<!-- Node2 -->
<g id="Node000002" class="node">
<title>Node2</title>
<g id="a_Node000002"><a xlink:href="class_o_c_a_1_1_c_a_f_e_v_d_b_1_1_toolkit_1_1_service_1_1_archive_service.html#a2af13dd8e56c5d7af6c1e805d5156219" target="_top" xlink:title="Check whether the given file can be opened.">
<polygon fill="white" stroke="#666666" points="178.25,-177 123.25,-177 123.25,-157 178.25,-157 178.25,-177"/>
<text text-anchor="middle" x="150.75" y="-163.5" font-family="Helvetica,sans-Serif" font-size="10.00">canOpen</text>
</a>
</g>
</g>
<!-- Node1&#45;&gt;Node2 -->
<g id="edge1_Node000001_Node000002" class="edge">
<title>Node1&#45;&gt;Node2</title>
<g id="a_edge1_Node000001_Node000002"><a xlink:title=" ">
<path fill="none" stroke="#63b8ff" d="M26.18,-101.12C35.23,-114.02 52.62,-136.06 73,-148 84.82,-154.92 99.08,-159.33 112.09,-162.14"/>
<polygon fill="#63b8ff" stroke="#63b8ff" points="111.14,-165.53 121.62,-163.94 112.44,-158.65 111.14,-165.53"/>
</a>
</g>
</g>
<!-- Node3 -->
<g id="Node000003" class="node">
<title>Node3</title>
<g id="a_Node000003"><a xlink:href="class_o_c_a_1_1_c_a_f_e_v_d_b_1_1_toolkit_1_1_service_1_1_archive_service.html#adb7197696a0127bef42768cfb61ec66b" target="_top" xlink:title=" ">
<polygon fill="white" stroke="#666666" points="190.25,-139 111.25,-139 111.25,-119 190.25,-119 190.25,-139"/>
<text text-anchor="middle" x="150.75" y="-125.5" font-family="Helvetica,sans-Serif" font-size="10.00">getArchiveInfo</text>
</a>
</g>
</g>
<!-- Node1&#45;&gt;Node3 -->
<g id="edge2_Node000001_Node000003" class="edge">
<title>Node1&#45;&gt;Node3</title>
<g id="a_edge2_Node000001_Node000003"><a xlink:title=" ">
<path fill="none" stroke="#63b8ff" d="M37.34,-96.2C54.22,-101.13 80.31,-108.74 103.1,-115.39"/>
<polygon fill="#63b8ff" stroke="#63b8ff" points="101.94,-118.7 112.52,-118.14 103.9,-111.98 101.94,-118.7"/>
</a>
</g>
</g>
<!-- Node9 -->
<g id="Node000009" class="node">
<title>Node9</title>
<g id="a_Node000009"><a xlink:href="class_o_c_a_1_1_c_a_f_e_v_d_b_1_1_toolkit_1_1_service_1_1_archive_service.html#ac4bb04636b9ff49d1eb1bce172994d36" target="_top" xlink:title="Guard against undefined $this&#45;&gt;l.">
<polygon fill="white" stroke="#666666" points="620.05,-120 591.25,-120 591.25,-100 620.05,-100 620.05,-120"/>
<text text-anchor="middle" x="605.65" y="-106.5" font-family="Helvetica,sans-Serif" font-size="10.00">t</text>
</a>
</g>
</g>
<!-- Node1&#45;&gt;Node9 -->
<g id="edge12_Node000001_Node000009" class="edge">
<title>Node1&#45;&gt;Node9</title>
<g id="a_edge12_Node000001_Node000009"><a xlink:title=" ">
<path fill="none" stroke="#63b8ff" d="M37.08,-91.5C104.3,-93.43 351.58,-100.65 555.25,-108 563.13,-108.28 571.72,-108.62 579.49,-108.94"/>
<polygon fill="#63b8ff" stroke="#63b8ff" points="579.16,-112.43 589.3,-109.34 579.45,-105.43 579.16,-112.43"/>
</a>
</g>
</g>
<!-- Node10 -->
<g id="Node000010" class="node">
<title>Node10</title>
<g id="a_Node000010"><a xlink:href="class_o_c_a_1_1_c_a_f_e_v_d_b_1_1_toolkit_1_1_backend_1_1_archive_backend.html#a2714bd86f40228fd9c4b045566c433f5" target="_top" xlink:title="{}">
<polygon fill="white" stroke="#666666" points="228.5,-41 73,-41 73,-9 228.5,-9 228.5,-41"/>
<text text-anchor="start" x="81" y="-27.5" font-family="Helvetica,sans-Serif" font-size="10.00">OCA\CAFEVDB\Toolkit</text>
<text text-anchor="middle" x="150.75" y="-15.5" font-family="Helvetica,sans-Serif" font-size="10.00">\Backend\ArchiveBackend\open</text>
</a>
</g>
</g>
<!-- Node1&#45;&gt;Node10 -->
<g id="edge10_Node000001_Node000010" class="edge">
<title>Node1&#45;&gt;Node10</title>
<g id="a_edge10_Node000001_Node000010"><a xlink:title=" ">
<path fill="none" stroke="#63b8ff" d="M35.06,-80.56C45.56,-73.73 59.83,-64.85 73,-58 81.05,-53.81 89.75,-49.7 98.3,-45.88"/>
<polygon fill="#63b8ff" stroke="#63b8ff" points="99.46,-49.2 107.22,-41.98 96.65,-42.78 99.46,-49.2"/>
</a>
</g>
</g>
<!-- Node4 -->
<g id="Node000004" class="node">
<title>Node4</title>
<g id="a_Node000004"><a xlink:href="class_o_c_a_1_1_c_a_f_e_v_d_b_1_1_toolkit_1_1_service_1_1_archive_service.html#a841a7efc4a56f2bc0e0175bb56411be2" target="_top" xlink:title="Return a proposal for the extraction destination.">
<polygon fill="white" stroke="#666666" points="389.62,-246 273.87,-246 273.87,-226 389.62,-226 389.62,-246"/>
<text text-anchor="middle" x="331.75" y="-232.5" font-family="Helvetica,sans-Serif" font-size="10.00">getArchiveFolderName</text>
</a>
</g>
</g>
<!-- Node3&#45;&gt;Node4 -->
<g id="edge3_Node000003_Node000004" class="edge">
<title>Node3&#45;&gt;Node4</title>
<g id="a_edge3_Node000003_Node000004"><a xlink:title=" ">
<path fill="none" stroke="#63b8ff" d="M190.49,-132.12C203.64,-134.76 217.71,-139.52 228.5,-148 255.69,-169.38 237.7,-195.13 264.5,-217 265.97,-218.2 267.5,-219.32 269.1,-220.37"/>
<polygon fill="#63b8ff" stroke="#63b8ff" points="266.97,-223.2 277.43,-224.92 270.33,-217.05 266.97,-223.2"/>
</a>
</g>
</g>
<!-- Node5 -->
<g id="Node000005" class="node">
<title>Node5</title>
<g id="a_Node000005"><a xlink:href="namespace_o_c_a_1_1_c_a_f_e_v_d_b_1_1_toolkit_1_1_traits.html#a32db872c14509fccd1b29071f894ddb7" target="_top" xlink:title=" ">
<polygon fill="white" stroke="#666666" points="399,-208 264.5,-208 264.5,-176 399,-176 399,-208"/>
<text text-anchor="start" x="272.5" y="-194.5" font-family="Helvetica,sans-Serif" font-size="10.00">OCA\CAFEVDB\Toolkit</text>
<text text-anchor="middle" x="331.75" y="-182.5" font-family="Helvetica,sans-Serif" font-size="10.00">\Traits\getClassBaseName</text>
</a>
</g>
</g>
<!-- Node3&#45;&gt;Node5 -->
<g id="edge4_Node000003_Node000005" class="edge">
<title>Node3&#45;&gt;Node5</title>
<g id="a_edge4_Node000003_Node000005"><a xlink:title=" ">
<path fill="none" stroke="#63b8ff" d="M190.57,-136.68C202.89,-139.62 216.44,-143.4 228.5,-148 245.41,-154.44 248,-159.57 264.5,-167 267.65,-168.42 270.9,-169.83 274.21,-171.21"/>
<polygon fill="#63b8ff" stroke="#63b8ff" points="272.84,-174.43 283.43,-174.95 275.48,-167.95 272.84,-174.43"/>
</a>
</g>
</g>
<!-- Node6 -->
<g id="Node000006" class="node">
<title>Node6</title>
<g id="a_Node000006"><a xlink:href="class_o_c_a_1_1_c_a_f_e_v_d_b_1_1_toolkit_1_1_service_1_1_archive_service.html#a2e9079a65d5beb0113b23bf5fac58125" target="_top" xlink:title="Return the name of the top&#45;level folder for the case that there is only a single folder at folder nes...">
<polygon fill="white" stroke="#666666" points="399,-158 264.5,-158 264.5,-138 399,-138 399,-158"/>
<text text-anchor="middle" x="331.75" y="-144.5" font-family="Helvetica,sans-Serif" font-size="10.00">getCommonDirectoryPrefix</text>
</a>
</g>
</g>
<!-- Node3&#45;&gt;Node6 -->
<g id="edge5_Node000003_Node000006" class="edge">
<title>Node3&#45;&gt;Node6</title>
<g id="a_edge5_Node000003_Node000006"><a xlink:title=" ">
<path fill="none" stroke="#63b8ff" d="M190.59,-133.12C208.89,-135.07 231.4,-137.45 252.99,-139.75"/>
<polygon fill="#63b8ff" stroke="#63b8ff" points="252.35,-143.2 262.66,-140.77 253.09,-136.24 252.35,-143.2"/>
</a>
</g>
</g>
<!-- Node3&#45;&gt;Node9 -->
<g id="edge9_Node000003_Node000009" class="edge">
<title>Node3&#45;&gt;Node9</title>
<g id="a_edge9_Node000003_Node000009"><a xlink:title=" ">
<path fill="none" stroke="#63b8ff" d="M190.36,-127.38C280.94,-123.58 505.05,-114.18 579.88,-111.04"/>
<polygon fill="#63b8ff" stroke="#63b8ff" points="579.58,-114.55 589.43,-110.64 579.29,-107.56 579.58,-114.55"/>
</a>
</g>
</g>
<!-- Node7 -->
<g id="Node000007" class="node">
<title>Node7</title>
<g id="a_Node000007"><a xlink:href="namespace_o_c_a_1_1_c_a_f_e_v_d_b_1_1_toolkit_1_1_traits.html#afeccc115bd3157d8f327e1d48b44af46" target="_top" xlink:title=" ">
<polygon fill="white" stroke="#666666" points="555.25,-208 435,-208 435,-176 555.25,-176 555.25,-208"/>
<text text-anchor="start" x="443" y="-194.5" font-family="Helvetica,sans-Serif" font-size="10.00">OCA\CAFEVDB\Toolkit</text>
<text text-anchor="middle" x="495.12" y="-182.5" font-family="Helvetica,sans-Serif" font-size="10.00">\Traits\getCommonPath</text>
</a>
</g>
</g>
<!-- Node6&#45;&gt;Node7 -->
<g id="edge6_Node000006_Node000007" class="edge">
<title>Node6&#45;&gt;Node7</title>
<g id="a_edge6_Node000006_Node000007"><a xlink:title=" ">
<path fill="none" stroke="#63b8ff" d="M370.99,-158.43C386.81,-162.74 405.68,-167.88 423.83,-172.83"/>
<polygon fill="#63b8ff" stroke="#63b8ff" points="422.67,-176.15 433.24,-175.4 424.51,-169.39 422.67,-176.15"/>
</a>
</g>
</g>
<!-- Node8 -->
<g id="Node000008" class="node">
<title>Node8</title>
<g id="a_Node000008"><a xlink:href="class_o_c_a_1_1_c_a_f_e_v_d_b_1_1_toolkit_1_1_service_1_1_archive_service.html#a7010e197d8dce475dfdd443c11dd7ee9" target="_top" xlink:title=" ">
<polygon fill="white" stroke="#666666" points="520.38,-158 469.87,-158 469.87,-138 520.38,-138 520.38,-158"/>
<text text-anchor="middle" x="495.12" y="-144.5" font-family="Helvetica,sans-Serif" font-size="10.00">getFiles</text>
</a>
</g>
</g>
<!-- Node6&#45;&gt;Node8 -->
<g id="edge7_Node000006_Node000008" class="edge">
<title>Node6&#45;&gt;Node8</title>
<g id="a_edge7_Node000006_Node000008"><a xlink:title=" ">
<path fill="none" stroke="#63b8ff" d="M399.32,-148C419.49,-148 440.88,-148 458.23,-148"/>
<polygon fill="#63b8ff" stroke="#63b8ff" points="458.02,-151.5 468.02,-148 458.02,-144.5 458.02,-151.5"/>
</a>
</g>
</g>
<!-- Node8&#45;&gt;Node9 -->
<g id="edge8_Node000008_Node000009" class="edge">
<title>Node8&#45;&gt;Node9</title>
<g id="a_edge8_Node000008_Node000009"><a xlink:title=" ">
<path fill="none" stroke="#63b8ff" d="M520.75,-139.38C538.6,-133.13 562.63,-124.71 580.4,-118.49"/>
<polygon fill="#63b8ff" stroke="#63b8ff" points="581.33,-121.87 589.61,-115.27 579.02,-115.27 581.33,-121.87"/>
</a>
</g>
</g>
<!-- Node11 -->
<g id="Node000011" class="node">
<title>Node11</title>
<g id="a_Node000011"><a xlink:href="class_o_c_a_1_1_c_a_f_e_v_d_b_1_1_toolkit_1_1_backend_1_1_archive_formats.html#adc591104b34d61e56698d5a2d843b031" target="_top" xlink:title="Fetch all drivers matching the given abilities.">
<polygon fill="white" stroke="#666666" points="396.37,-44 267.12,-44 267.12,0 396.37,0 396.37,-44"/>
<text text-anchor="start" x="275.12" y="-30.5" font-family="Helvetica,sans-Serif" font-size="10.00">OCA\CAFEVDB\Toolkit</text>
<text text-anchor="start" x="275.12" y="-18.5" font-family="Helvetica,sans-Serif" font-size="10.00">\Backend\ArchiveFormats</text>
<text text-anchor="middle" x="331.75" y="-6.5" font-family="Helvetica,sans-Serif" font-size="10.00">\getFormatDrivers</text>
</a>
</g>
</g>
<!-- Node10&#45;&gt;Node11 -->
<g id="edge11_Node000010_Node000011" class="edge">
<title>Node10&#45;&gt;Node11</title>
<g id="a_edge11_Node000010_Node000011"><a xlink:title=" ">
<path fill="none" stroke="#63b8ff" d="M228.96,-23.71C237.71,-23.56 246.62,-23.41 255.35,-23.26"/>
<polygon fill="#63b8ff" stroke="#63b8ff" points="255.23,-26.77 265.17,-23.1 255.11,-19.77 255.23,-26.77"/>
</a>
</g>
</g>
</g>
</svg>

<g id="navigator" transform="translate(0 0)" fill="#404254">
  <rect fill="#f2f5e9" fill-opacity="0.5" stroke="#606060" stroke-width=".5" x="0" y="0" width="60" height="60"/>
  <use id="zoomplus" xlink:href="#zoomPlus" x="17" y="9" onmousedown="handleZoom(evt,'in')"/>
  <use id="zoomminus" xlink:href="#zoomMin" x="42" y="9" onmousedown="handleZoom(evt,'out')"/>
  <use id="reset" xlink:href="#resetDef" x="30" y="36" onmousedown="handleReset()"/>
   <use id="arrowup" xlink:href="#arrowUp" x="0" y="0" onmousedown="handlePan(0,-1)"/>
  <use id="arrowright" xlink:href="#arrowRight" x="0" y="0" onmousedown="handlePan(1,0)"/>
  <use id="arrowdown" xlink:href="#arrowDown" x="0" y="0" onmousedown="handlePan(0,1)"/>
  <use id="arrowleft" xlink:href="#arrowLeft" x="0" y="0" onmousedown="handlePan(-1,0)"/>
</g>
<svg viewBox="0 0 15 15" width="100%" height="30px" preserveAspectRatio="xMaxYMin meet">
 <g id="arrow_out" transform="scale(0.3 0.3)">
  <a xlink:href="class_o_c_a_1_1_c_a_f_e_v_d_b_1_1_toolkit_1_1_service_1_1_archive_service_ad1d53e5cbdc6d39c917e86f2ae794aeb_cgraph_org.svg" target="_base">
   <rect id="button" ry="5" rx="5" y="6" x="6" height="38" width="38"
        fill="#f2f5e9" fill-opacity="0.5" stroke="#606060" stroke-width="1.0"/>
   <path id="arrow"
     d="M 11.500037,31.436501 C 11.940474,20.09759 22.043105,11.32322 32.158766,21.979434 L 37.068811,17.246167 C 37.068811,17.246167 37.088388,32 37.088388,32 L 22.160133,31.978069 C 22.160133,31.978069 26.997745,27.140456 26.997745,27.140456 C 18.528582,18.264221 13.291696,25.230495 11.500037,31.436501 z"
     style="fill:#404040;"/>
  </a>
 </g>
</svg>

<style type='text/css'>
<![CDATA[
[data-mouse-over-selected='false'] { opacity: 0.7; }
[data-mouse-over-selected='true']  { opacity: 1.0; }
]]>
</style>
<script type="application/ecmascript"><![CDATA[
document.addEventListener('DOMContentLoaded', (event) => {
  highlightEdges();
  highlightAdjacentNodes();
});
]]></script>
</svg>
