<?xml version="1.0" encoding="UTF-8" standalone="no"?>
<!DOCTYPE svg PUBLIC "-//W3C//DTD SVG 1.1//EN"
 "http://www.w3.org/Graphics/SVG/1.1/DTD/svg11.dtd">
<!-- Generated by graphviz version 7.1.0 (20230121.1956)
 -->
<!-- Title: unsetValue Pages: 1 -->
<svg width="530pt" height="157pt"
 viewBox="0.00 0.00 530.00 156.50" xmlns="http://www.w3.org/2000/svg" xmlns:xlink="http://www.w3.org/1999/xlink">
<g id="graph0" class="graph" transform="scale(1 1) rotate(0) translate(4 152.5)">
<title>unsetValue</title>
<!-- Node1 -->
<g id="node1" class="node">
<title>Node1</title>
<g id="a_node1"><a xlink:title="Unset all array elements with value $value.">
<polygon fill="#999999" stroke="#666666" points="522,-78.5 457,-78.5 457,-59.5 522,-59.5 522,-78.5"/>
<text text-anchor="middle" x="489.5" y="-66.5" font-family="Helvetica,sans-Serif" font-size="10.00">unsetValue</text>
</a>
</g>
</g>
<!-- Node2 -->
<g id="node2" class="node">
<title>Node2</title>
<g id="a_node2"><a xlink:href="class_o_c_a_1_1_c_a_f_e_v_d_b_1_1_page_renderer_1_1_p_m_e_table_view_base.html#a936748b21bb69d2a3f9d51e14ce2cd87" target="_top" xlink:title="Before insert&#45;trigger which ideally should insert all data such that nothing remains to be done for p...">
<polygon fill="white" stroke="#666666" points="404.5,-148.5 240.5,-148.5 240.5,-107.5 404.5,-107.5 404.5,-148.5"/>
<text text-anchor="start" x="248.5" y="-136.5" font-family="Helvetica,sans-Serif" font-size="10.00">OCA\CAFEVDB\PageRenderer</text>
<text text-anchor="start" x="248.5" y="-125.5" font-family="Helvetica,sans-Serif" font-size="10.00">\PMETableViewBase\beforeInsert</text>
<text text-anchor="middle" x="322.5" y="-114.5" font-family="Helvetica,sans-Serif" font-size="10.00">DoInsertAll</text>
</a>
</g>
</g>
<!-- Node1&#45;&gt;Node2 -->
<g id="edge1" class="edge">
<title>Node1&#45;&gt;Node2</title>
<path fill="none" stroke="#63b8ff" d="M456.94,-83.39C445.7,-88.29 432.88,-93.63 421,-98 412.61,-101.08 403.73,-104.12 394.89,-107"/>
<polygon fill="#63b8ff" stroke="#63b8ff" points="458.04,-86.73 465.77,-79.48 455.21,-80.33 458.04,-86.73"/>
</g>
<!-- Node5 -->
<g id="node5" class="node">
<title>Node5</title>
<g id="a_node5"><a xlink:href="class_o_c_a_1_1_c_a_f_e_v_d_b_1_1_page_renderer_1_1_p_m_e_table_view_base.html#a882a0897b82d354409342d1c195c2f4d" target="_top" xlink:title="Before update&#45;trigger which ideally should update all data such that nothing remains to do for phpMyE...">
<polygon fill="white" stroke="#666666" points="407.5,-89.5 237.5,-89.5 237.5,-48.5 407.5,-48.5 407.5,-89.5"/>
<text text-anchor="start" x="245.5" y="-77.5" font-family="Helvetica,sans-Serif" font-size="10.00">OCA\CAFEVDB\PageRenderer</text>
<text text-anchor="start" x="245.5" y="-66.5" font-family="Helvetica,sans-Serif" font-size="10.00">\PMETableViewBase\beforeUpdate</text>
<text text-anchor="middle" x="322.5" y="-55.5" font-family="Helvetica,sans-Serif" font-size="10.00">DoUpdateAll</text>
</a>
</g>
</g>
<!-- Node1&#45;&gt;Node5 -->
<g id="edge4" class="edge">
<title>Node1&#45;&gt;Node5</title>
<path fill="none" stroke="#63b8ff" d="M445.52,-69C433.85,-69 420.79,-69 407.68,-69"/>
<polygon fill="#63b8ff" stroke="#63b8ff" points="445.17,-72.5 455.17,-69 445.17,-65.5 445.17,-72.5"/>
</g>
<!-- Node6 -->
<g id="node6" class="node">
<title>Node6</title>
<g id="a_node6"><a xlink:href="class_o_c_a_1_1_c_a_f_e_v_d_b_1_1_page_renderer_1_1_p_m_e_table_view_base.html#a3b9eba5d12a85368107c0ec8204ed95d" target="_top" xlink:title="Unset a value in the input vars of legacy PME triggers.">
<polygon fill="white" stroke="#666666" points="421,-30 224,-30 224,0 421,0 421,-30"/>
<text text-anchor="start" x="232" y="-18" font-family="Helvetica,sans-Serif" font-size="10.00">OCA\CAFEVDB\PageRenderer</text>
<text text-anchor="middle" x="322.5" y="-7" font-family="Helvetica,sans-Serif" font-size="10.00">\PMETableViewBase\unsetRequestValue</text>
</a>
</g>
</g>
<!-- Node1&#45;&gt;Node6 -->
<g id="edge6" class="edge">
<title>Node1&#45;&gt;Node6</title>
<path fill="none" stroke="#63b8ff" d="M458.4,-54.25C446.88,-48.98 433.5,-43.28 421,-39 412.01,-35.92 402.43,-33.07 392.92,-30.48"/>
<polygon fill="#63b8ff" stroke="#63b8ff" points="456.88,-57.41 467.42,-58.48 459.85,-51.07 456.88,-57.41"/>
</g>
<!-- Node3 -->
<g id="node3" class="node">
<title>Node3</title>
<g id="a_node3"><a xlink:href="class_o_c_a_1_1_c_a_f_e_v_d_b_1_1_page_renderer_1_1_project_instrumentation_numbers.html#ab91557ae1e08e1183c76c9ce39edfe33" target="_top" xlink:title="{Show the underlying template page.This is supposed to echo html code to stdout. This is the default ...">
<polygon fill="white" stroke="#666666" points="188,-143 0,-143 0,-113 188,-113 188,-143"/>
<text text-anchor="start" x="8" y="-131" font-family="Helvetica,sans-Serif" font-size="10.00">OCA\CAFEVDB\PageRenderer</text>
<text text-anchor="middle" x="94" y="-120" font-family="Helvetica,sans-Serif" font-size="10.00">\ProjectInstrumentationNumbers\render</text>
</a>
</g>
</g>
<!-- Node2&#45;&gt;Node3 -->
<g id="edge2" class="edge">
<title>Node2&#45;&gt;Node3</title>
<path fill="none" stroke="#63b8ff" d="M228.93,-128C215.57,-128 201.81,-128 188.43,-128"/>
<polygon fill="#63b8ff" stroke="#63b8ff" points="228.53,-131.5 238.53,-128 228.53,-124.5 228.53,-131.5"/>
</g>
<!-- Node4 -->
<g id="node4" class="node">
<title>Node4</title>
<g id="a_node4"><a xlink:href="class_o_c_a_1_1_c_a_f_e_v_d_b_1_1_page_renderer_1_1_project_participant_fields.html#ab91557ae1e08e1183c76c9ce39edfe33" target="_top" xlink:title="{Show the underlying template page.This is supposed to echo html code to stdout. This is the default ...">
<polygon fill="white" stroke="#666666" points="171.5,-90 16.5,-90 16.5,-60 171.5,-60 171.5,-90"/>
<text text-anchor="start" x="24.5" y="-78" font-family="Helvetica,sans-Serif" font-size="10.00">OCA\CAFEVDB\PageRenderer</text>
<text text-anchor="middle" x="94" y="-67" font-family="Helvetica,sans-Serif" font-size="10.00">\ProjectParticipantFields\render</text>
</a>
</g>
</g>
<!-- Node2&#45;&gt;Node4 -->
<g id="edge3" class="edge">
<title>Node2&#45;&gt;Node4</title>
<path fill="none" stroke="#63b8ff" d="M229.01,-106.36C206.29,-101.04 182.43,-95.46 161.23,-90.5"/>
<polygon fill="#63b8ff" stroke="#63b8ff" points="228.04,-109.73 238.57,-108.6 229.64,-102.91 228.04,-109.73"/>
</g>
<!-- Node5&#45;&gt;Node4 -->
<g id="edge5" class="edge">
<title>Node5&#45;&gt;Node4</title>
<path fill="none" stroke="#63b8ff" d="M225.77,-71.54C207.8,-72.01 189.23,-72.5 171.93,-72.96"/>
<polygon fill="#63b8ff" stroke="#63b8ff" points="225.74,-75.04 235.65,-71.27 225.56,-68.04 225.74,-75.04"/>
</g>
</g>
</svg>
