<?xml version="1.0" encoding="UTF-8" standalone="no"?>
<!DOCTYPE svg PUBLIC "-//W3C//DTD SVG 1.1//EN"
 "http://www.w3.org/Graphics/SVG/1.1/DTD/svg11.dtd">
<!-- Generated by graphviz version 8.0.3 (20230416.2022)
 -->
<!-- Title: rename Pages: 1 -->
<svg width="131pt" height="64pt"
 viewBox="0.00 0.00 131.00 64.00" xmlns="http://www.w3.org/2000/svg" xmlns:xlink="http://www.w3.org/1999/xlink">
<g id="graph0" class="graph" transform="scale(1 1) rotate(0) translate(4 60)">
<title>rename</title>
<!-- Node1 -->
<g id="node1" class="node">
<title>Node1</title>
<g id="a_node1"><a xlink:title="Rename $fromPath to $to.">
<polygon fill="#999999" stroke="#666666" points="123,-37 74,-37 74,-18 123,-18 123,-37"/>
<text text-anchor="middle" x="98.5" y="-25" font-family="Helvetica,sans-Serif" font-size="10.00">rename</text>
</a>
</g>
</g>
<!-- Node2 -->
<g id="node2" class="node">
<title>Node2</title>
<g id="a_node2"><a xlink:href="class_o_c_a_1_1_c_a_f_e_v_d_b_1_1_common_1_1_undoable_file_rename.html#abc7aec4383c36f876c7c3b382154ed81" target="_top" xlink:title="{Do something.void}">
<polygon fill="white" stroke="#666666" points="33.5,-56 4.5,-56 4.5,-37 33.5,-37 33.5,-56"/>
<text text-anchor="middle" x="19" y="-44" font-family="Helvetica,sans-Serif" font-size="10.00">do</text>
</a>
</g>
</g>
<!-- Node1&#45;&gt;Node2 -->
<g id="edge1" class="edge">
<title>Node1&#45;&gt;Node2</title>
<path fill="none" stroke="#63b8ff" d="M63.22,-35.91C52.76,-38.47 41.86,-41.14 33.62,-43.16"/>
<polygon fill="#63b8ff" stroke="#63b8ff" points="63.95,-39.08 72.83,-33.3 62.28,-32.29 63.95,-39.08"/>
</g>
<!-- Node3 -->
<g id="node3" class="node">
<title>Node3</title>
<g id="a_node3"><a xlink:href="class_o_c_a_1_1_c_a_f_e_v_d_b_1_1_common_1_1_undoable_file_rename.html#a0347027efc0e46047792065615ac94eb" target="_top" xlink:title="{Undo that what was done by do().void}">
<polygon fill="white" stroke="#666666" points="38,-19 0,-19 0,0 38,0 38,-19"/>
<text text-anchor="middle" x="19" y="-7" font-family="Helvetica,sans-Serif" font-size="10.00">undo</text>
</a>
</g>
</g>
<!-- Node1&#45;&gt;Node3 -->
<g id="edge2" class="edge">
<title>Node1&#45;&gt;Node3</title>
<path fill="none" stroke="#63b8ff" d="M63.26,-19.55C54.69,-17.56 45.82,-15.5 38.37,-13.77"/>
<polygon fill="#63b8ff" stroke="#63b8ff" points="62.29,-23.15 72.83,-22 63.88,-16.33 62.29,-23.15"/>
</g>
</g>
</svg>
