<?xml version="1.0" encoding="UTF-8" standalone="no"?>
<!DOCTYPE svg PUBLIC "-//W3C//DTD SVG 1.1//EN"
 "http://www.w3.org/Graphics/SVG/1.1/DTD/svg11.dtd">
<!-- Generated by graphviz version 8.0.3 (20230416.2022)
 -->
<!-- Title: File Pages: 1 -->
<svg width="148pt" height="192pt"
 viewBox="0.00 0.00 147.50 192.00" xmlns="http://www.w3.org/2000/svg" xmlns:xlink="http://www.w3.org/1999/xlink">
<g id="graph0" class="graph" transform="scale(1 1) rotate(0) translate(4 188)">
<title>File</title>
<!-- Node1 -->
<g id="node1" class="node">
<title>Node1</title>
<g id="a_node1"><a xlink:title="An entity which modesl a file&#45;system file.">
<polygon fill="#999999" stroke="#666666" points="93.5,-129 61.5,-129 61.5,-110 93.5,-110 93.5,-129"/>
<text text-anchor="middle" x="77.5" y="-117" font-family="Helvetica,sans-Serif" font-size="10.00">File</text>
</a>
</g>
</g>
<!-- Node3 -->
<g id="node3" class="node">
<title>Node3</title>
<g id="a_node3"><a xlink:href="class_o_c_a_1_1_c_a_f_e_v_d_b_1_1_database_1_1_doctrine_1_1_o_r_m_1_1_entities_1_1_encrypted_file.html" target="_top" xlink:title="@ORMntity(repositoryClass=&quot;\OCA\CAFEVDB\Database\Doctrine\ORM\Repositories\EncryptedFilesRep...">
<polygon fill="white" stroke="#666666" points="77,-74 0,-74 0,-55 77,-55 77,-74"/>
<text text-anchor="middle" x="38.5" y="-62" font-family="Helvetica,sans-Serif" font-size="10.00">EncryptedFile</text>
</a>
</g>
</g>
<!-- Node1&#45;&gt;Node3 -->
<g id="edge2" class="edge">
<title>Node1&#45;&gt;Node3</title>
<path fill="none" stroke="#63b8ff" d="M64.57,-100.93C58.04,-92.06 50.4,-81.67 45.08,-74.44"/>
<polygon fill="#63b8ff" stroke="#63b8ff" points="62.31,-102.77 71.06,-108.75 67.95,-98.62 62.31,-102.77"/>
</g>
<!-- Node5 -->
<g id="node5" class="node">
<title>Node5</title>
<g id="a_node5"><a xlink:href="class_o_c_a_1_1_c_a_f_e_v_d_b_1_1_database_1_1_doctrine_1_1_o_r_m_1_1_entities_1_1_image.html" target="_top" xlink:title="Image – Meta data for images stored in the data&#45;base.">
<polygon fill="white" stroke="#666666" points="139.5,-74 95.5,-74 95.5,-55 139.5,-55 139.5,-74"/>
<text text-anchor="middle" x="117.5" y="-62" font-family="Helvetica,sans-Serif" font-size="10.00">Image</text>
</a>
</g>
</g>
<!-- Node1&#45;&gt;Node5 -->
<g id="edge4" class="edge">
<title>Node1&#45;&gt;Node5</title>
<path fill="none" stroke="#63b8ff" d="M90.55,-101.22C97.29,-92.28 105.24,-81.74 110.75,-74.44"/>
<polygon fill="#63b8ff" stroke="#63b8ff" points="87.34,-98.66 84.11,-108.75 92.92,-102.87 87.34,-98.66"/>
</g>
<!-- Node2 -->
<g id="node2" class="node">
<title>Node2</title>
<g id="a_node2"><a xlink:title=" ">
<polygon fill="white" stroke="#bfbfbf" points="114,-184 41,-184 41,-165 114,-165 114,-184"/>
<text text-anchor="middle" x="77.5" y="-172" font-family="Helvetica,sans-Serif" font-size="10.00">ArrayAccess</text>
</a>
</g>
</g>
<!-- Node2&#45;&gt;Node1 -->
<g id="edge1" class="edge">
<title>Node2&#45;&gt;Node1</title>
<path fill="none" stroke="#63b8ff" d="M77.5,-153.93C77.5,-145.53 77.5,-136.13 77.5,-129.44"/>
<polygon fill="#63b8ff" stroke="#63b8ff" points="74,-153.75 77.5,-163.75 81,-153.75 74,-153.75"/>
</g>
<!-- Node4 -->
<g id="node4" class="node">
<title>Node4</title>
<g id="a_node4"><a xlink:href="class_o_c_a_1_1_c_a_f_e_v_d_b_1_1_database_1_1_doctrine_1_1_o_r_m_1_1_proxies_1_1_____c_g_____1_6ef50b47521aceb1959204fca53f7eb5.html" target="_top" xlink:title="DO NOT EDIT THIS FILE &#45; IT WAS CREATED BY DOCTRINE&#39;S PROXY GENERATOR.">
<polygon fill="white" stroke="#666666" points="77,-19 0,-19 0,0 77,0 77,-19"/>
<text text-anchor="middle" x="38.5" y="-7" font-family="Helvetica,sans-Serif" font-size="10.00">EncryptedFile</text>
</a>
</g>
</g>
<!-- Node3&#45;&gt;Node4 -->
<g id="edge3" class="edge">
<title>Node3&#45;&gt;Node4</title>
<path fill="none" stroke="#63b8ff" d="M38.5,-43.93C38.5,-35.53 38.5,-26.13 38.5,-19.44"/>
<polygon fill="#63b8ff" stroke="#63b8ff" points="35,-43.75 38.5,-53.75 42,-43.75 35,-43.75"/>
</g>
<!-- Node6 -->
<g id="node6" class="node">
<title>Node6</title>
<g id="a_node6"><a xlink:href="class_o_c_a_1_1_c_a_f_e_v_d_b_1_1_database_1_1_doctrine_1_1_o_r_m_1_1_proxies_1_1_____c_g_____1_d0defa97fb66a7c8d36d3fed3a953ecd.html" target="_top" xlink:title="DO NOT EDIT THIS FILE &#45; IT WAS CREATED BY DOCTRINE&#39;S PROXY GENERATOR.">
<polygon fill="white" stroke="#666666" points="139.5,-19 95.5,-19 95.5,0 139.5,0 139.5,-19"/>
<text text-anchor="middle" x="117.5" y="-7" font-family="Helvetica,sans-Serif" font-size="10.00">Image</text>
</a>
</g>
</g>
<!-- Node5&#45;&gt;Node6 -->
<g id="edge5" class="edge">
<title>Node5&#45;&gt;Node6</title>
<path fill="none" stroke="#63b8ff" d="M117.5,-43.93C117.5,-35.53 117.5,-26.13 117.5,-19.44"/>
<polygon fill="#63b8ff" stroke="#63b8ff" points="114,-43.75 117.5,-53.75 121,-43.75 114,-43.75"/>
</g>
</g>
</svg>
