<?xml version="1.0" encoding="UTF-8" standalone="no"?>
<!DOCTYPE svg PUBLIC "-//W3C//DTD SVG 1.1//EN"
 "http://www.w3.org/Graphics/SVG/1.1/DTD/svg11.dtd">
<!-- Generated by graphviz version 8.0.3 (20230416.2022)
 -->
<!-- Title: subscribe Pages: 1 -->
<svg width="246pt" height="64pt"
 viewBox="0.00 0.00 246.00 64.00" xmlns="http://www.w3.org/2000/svg" xmlns:xlink="http://www.w3.org/1999/xlink">
<g id="graph0" class="graph" transform="scale(1 1) rotate(0) translate(4 60)">
<title>subscribe</title>
<!-- Node1 -->
<g id="node1" class="node">
<title>Node1</title>
<g id="a_node1"><a xlink:title="Subscribe a victim to the email&#45;list.">
<polygon fill="#999999" stroke="#666666" points="238,-37 179,-37 179,-18 238,-18 238,-37"/>
<text text-anchor="middle" x="208.5" y="-25" font-family="Helvetica,sans-Serif" font-size="10.00">subscribe</text>
</a>
</g>
</g>
<!-- Node2 -->
<g id="node2" class="node">
<title>Node2</title>
<g id="a_node2"><a xlink:href="class_o_c_a_1_1_c_a_f_e_v_d_b_1_1_service_1_1_mailing_lists_service.html#a9dcedfe5d7713b75758ec7098197aa8b" target="_top" xlink:title="Configure the given list as an announcements&#45;only list.">
<polygon fill="white" stroke="#666666" points="143,-56 0,-56 0,-37 143,-37 143,-56"/>
<text text-anchor="middle" x="71.5" y="-44" font-family="Helvetica,sans-Serif" font-size="10.00">configureAnnouncementsList</text>
</a>
</g>
</g>
<!-- Node1&#45;&gt;Node2 -->
<g id="edge1" class="edge">
<title>Node1&#45;&gt;Node2</title>
<path fill="none" stroke="#63b8ff" d="M167.7,-33.1C159.98,-34.19 151.67,-35.36 143.3,-36.54"/>
<polygon fill="#63b8ff" stroke="#63b8ff" points="168.12,-36.44 177.54,-31.58 167.15,-29.5 168.12,-36.44"/>
</g>
<!-- Node3 -->
<g id="node3" class="node">
<title>Node3</title>
<g id="a_node3"><a xlink:href="class_o_c_a_1_1_c_a_f_e_v_d_b_1_1_service_1_1_mailing_lists_service.html#ad9ddb4782eae69fecac300b4851f524a" target="_top" xlink:title="Just send an invitation.">
<polygon fill="white" stroke="#666666" points="91.5,-19 51.5,-19 51.5,0 91.5,0 91.5,-19"/>
<text text-anchor="middle" x="71.5" y="-7" font-family="Helvetica,sans-Serif" font-size="10.00">invite</text>
</a>
</g>
</g>
<!-- Node1&#45;&gt;Node3 -->
<g id="edge2" class="edge">
<title>Node1&#45;&gt;Node3</title>
<path fill="none" stroke="#63b8ff" d="M167.89,-22.22C142.85,-18.88 111.6,-14.71 91.84,-12.08"/>
<polygon fill="#63b8ff" stroke="#63b8ff" points="167.16,-25.79 177.54,-23.64 168.09,-18.85 167.16,-25.79"/>
</g>
</g>
</svg>
