<?xml version="1.0" encoding="UTF-8" standalone="no"?>
<!DOCTYPE svg PUBLIC "-//W3C//DTD SVG 1.1//EN"
 "http://www.w3.org/Graphics/SVG/1.1/DTD/svg11.dtd">
<!-- Generated by graphviz version 8.0.3 (20230416.2022)
 -->
<!-- Title: Config Pages: 1 -->
<svg width="158pt" height="192pt"
 viewBox="0.00 0.00 157.50 192.00" xmlns="http://www.w3.org/2000/svg" xmlns:xlink="http://www.w3.org/1999/xlink">
<g id="graph0" class="graph" transform="scale(1 1) rotate(0) translate(4 188)">
<title>Config</title>
<!-- Node1 -->
<g id="node1" class="node">
<title>Node1</title>
<g id="a_node1"><a xlink:title="Default Legacy PME options.">
<polygon fill="#999999" stroke="#666666" points="95.5,-19 50.5,-19 50.5,0 95.5,0 95.5,-19"/>
<text text-anchor="middle" x="73" y="-7" font-family="Helvetica,sans-Serif" font-size="10.00">Config</text>
</a>
</g>
</g>
<!-- Node2 -->
<g id="node2" class="node">
<title>Node2</title>
<g id="a_node2"><a xlink:href="class_o_c_a_1_1_c_a_f_e_v_d_b_1_1_database_1_1_legacy_1_1_p_m_e_1_1_default_options.html" target="_top" xlink:title="Default legacy PME options object.">
<polygon fill="white" stroke="#666666" points="114,-74 32,-74 32,-55 114,-55 114,-74"/>
<text text-anchor="middle" x="73" y="-62" font-family="Helvetica,sans-Serif" font-size="10.00">DefaultOptions</text>
</a>
</g>
</g>
<!-- Node2&#45;&gt;Node1 -->
<g id="edge1" class="edge">
<title>Node2&#45;&gt;Node1</title>
<path fill="none" stroke="#63b8ff" d="M73,-43.93C73,-35.53 73,-26.13 73,-19.44"/>
<polygon fill="#63b8ff" stroke="#63b8ff" points="69.5,-43.75 73,-53.75 76.5,-43.75 69.5,-43.75"/>
</g>
<!-- Node3 -->
<g id="node3" class="node">
<title>Node3</title>
<g id="a_node3"><a xlink:title=" ">
<polygon fill="white" stroke="#bfbfbf" points="68,-129 0,-129 0,-110 68,-110 68,-129"/>
<text text-anchor="middle" x="34" y="-117" font-family="Helvetica,sans-Serif" font-size="10.00">ArrayObject</text>
</a>
</g>
</g>
<!-- Node3&#45;&gt;Node2 -->
<g id="edge2" class="edge">
<title>Node3&#45;&gt;Node2</title>
<path fill="none" stroke="#63b8ff" d="M46.93,-100.93C53.46,-92.06 61.1,-81.67 66.42,-74.44"/>
<polygon fill="#63b8ff" stroke="#63b8ff" points="43.55,-98.62 40.44,-108.75 49.19,-102.77 43.55,-98.62"/>
</g>
<!-- Node4 -->
<g id="node4" class="node">
<title>Node4</title>
<g id="a_node4"><a xlink:href="interface_o_c_a_1_1_c_a_f_e_v_d_b_1_1_database_1_1_legacy_1_1_p_m_e_1_1_i_options.html" target="_top" xlink:title="PME legacy options interface.">
<polygon fill="white" stroke="#666666" points="139.5,-129 86.5,-129 86.5,-110 139.5,-110 139.5,-129"/>
<text text-anchor="middle" x="113" y="-117" font-family="Helvetica,sans-Serif" font-size="10.00">IOptions</text>
</a>
</g>
</g>
<!-- Node4&#45;&gt;Node2 -->
<g id="edge3" class="edge">
<title>Node4&#45;&gt;Node2</title>
<path fill="none" stroke="#63b8ff" d="M99.95,-101.22C93.21,-92.28 85.26,-81.74 79.75,-74.44"/>
<polygon fill="#63b8ff" stroke="#63b8ff" points="97.58,-102.87 106.39,-108.75 103.16,-98.66 97.58,-102.87"/>
</g>
<!-- Node5 -->
<g id="node5" class="node">
<title>Node5</title>
<g id="a_node5"><a xlink:title=" ">
<polygon fill="white" stroke="#bfbfbf" points="149.5,-184 76.5,-184 76.5,-165 149.5,-165 149.5,-184"/>
<text text-anchor="middle" x="113" y="-172" font-family="Helvetica,sans-Serif" font-size="10.00">ArrayAccess</text>
</a>
</g>
</g>
<!-- Node5&#45;&gt;Node4 -->
<g id="edge4" class="edge">
<title>Node5&#45;&gt;Node4</title>
<path fill="none" stroke="#63b8ff" d="M113,-153.93C113,-145.53 113,-136.13 113,-129.44"/>
<polygon fill="#63b8ff" stroke="#63b8ff" points="109.5,-153.75 113,-163.75 116.5,-153.75 109.5,-153.75"/>
</g>
</g>
</svg>
