<?xml version="1.0" encoding="UTF-8" standalone="no"?>
<!DOCTYPE svg PUBLIC "-//W3C//DTD SVG 1.1//EN"
 "http://www.w3.org/Graphics/SVG/1.1/DTD/svg11.dtd">
<!-- Generated by graphviz version 9.0.0 (20230911.1827)
 -->
<!-- Title: getAppLocale Pages: 1 -->
<svg width="315pt" height="104pt"
 viewBox="0.00 0.00 314.75 104.00" xmlns="http://www.w3.org/2000/svg" xmlns:xlink="http://www.w3.org/1999/xlink">

<svg id="main" version="1.1" xmlns="http://www.w3.org/2000/svg" xmlns:xlink="http://www.w3.org/1999/xlink" xml:space="preserve" onload="init(evt)">
<style type="text/css"><![CDATA[
.node, .edge {opacity: 0.7;}
.node.selected, .edge.selected {opacity: 1;}
.edge:hover path { stroke: red; }
.edge:hover polygon { stroke: red; fill: red; }
]]></style>
<script type="application/ecmascript" xlink:href="svg.min.js"/>
<svg id="graph" class="graph">
<g id="graph0" class="graph" transform="scale(1 1) rotate(0) translate(4 100)">
<title>getAppLocale</title>
<!-- Node1 -->
<g id="Node000001" class="node">
<title>Node1</title>
<g id="a_Node000001"><a xlink:title="Get the configured app locale.">
<polygon fill="#999999" stroke="#666666" points="306.75,-58 231.5,-58 231.5,-38 306.75,-38 306.75,-58"/>
<text text-anchor="middle" x="269.12" y="-44.5" font-family="Helvetica,sans-Serif" font-size="10.00">getAppLocale</text>
</a>
</g>
</g>
<!-- Node2 -->
<g id="Node000002" class="node">
<title>Node2</title>
<g id="a_Node000002"><a xlink:href="class_o_c_a_1_1_c_a_f_e_v_d_b_1_1_service_1_1_config_service.html#a8a1ab7bc9d21948223187b45cb724603" target="_top" xlink:title=" ">
<polygon fill="white" stroke="#666666" points="195.5,-96 105.25,-96 105.25,-76 195.5,-76 195.5,-96"/>
<text text-anchor="middle" x="150.38" y="-82.5" font-family="Helvetica,sans-Serif" font-size="10.00">currencyIsoCode</text>
</a>
</g>
</g>
<!-- Node1&#45;&gt;Node2 -->
<g id="edge1_Node000001_Node000002" class="edge">
<title>Node1&#45;&gt;Node2</title>
<g id="a_edge1_Node000001_Node000002"><a xlink:title=" ">
<path fill="none" stroke="#63b8ff" d="M225.18,-61.98C211.39,-66.47 196.36,-71.36 183.48,-75.55"/>
<polygon fill="#63b8ff" stroke="#63b8ff" points="226.05,-65.38 234.47,-58.95 223.88,-58.72 226.05,-65.38"/>
</a>
</g>
</g>
<!-- Node4 -->
<g id="Node000004" class="node">
<title>Node4</title>
<g id="a_Node000004"><a xlink:href="class_o_c_a_1_1_c_a_f_e_v_d_b_1_1_service_1_1_config_service.html#a60eaec9e38afb8bcbe14322b96d80075" target="_top" xlink:title=" ">
<polygon fill="white" stroke="#666666" points="193.62,-58 107.12,-58 107.12,-38 193.62,-38 193.62,-58"/>
<text text-anchor="middle" x="150.38" y="-44.5" font-family="Helvetica,sans-Serif" font-size="10.00">currencySymbol</text>
</a>
</g>
</g>
<!-- Node1&#45;&gt;Node4 -->
<g id="edge3_Node000001_Node000004" class="edge">
<title>Node1&#45;&gt;Node4</title>
<g id="a_edge3_Node000001_Node000004"><a xlink:title=" ">
<path fill="none" stroke="#63b8ff" d="M219.71,-48C211.1,-48 202.2,-48 193.77,-48"/>
<polygon fill="#63b8ff" stroke="#63b8ff" points="219.67,-51.5 229.67,-48 219.67,-44.5 219.67,-51.5"/>
</a>
</g>
</g>
<!-- Node5 -->
<g id="Node000005" class="node">
<title>Node5</title>
<g id="a_Node000005"><a xlink:href="class_o_c_a_1_1_c_a_f_e_v_d_b_1_1_service_1_1_config_service.html#aa2f4a6f1650343e99660cab994aec636" target="_top" xlink:title="Transliterate the given string to the given or default locale.">
<polygon fill="white" stroke="#666666" points="183.88,-20 116.88,-20 116.88,0 183.88,0 183.88,-20"/>
<text text-anchor="middle" x="150.38" y="-6.5" font-family="Helvetica,sans-Serif" font-size="10.00">transliterate</text>
</a>
</g>
</g>
<!-- Node1&#45;&gt;Node5 -->
<g id="edge4_Node000001_Node000005" class="edge">
<title>Node1&#45;&gt;Node5</title>
<g id="a_edge4_Node000001_Node000005"><a xlink:title=" ">
<path fill="none" stroke="#63b8ff" d="M225.18,-34.02C211.39,-29.53 196.36,-24.64 183.48,-20.45"/>
<polygon fill="#63b8ff" stroke="#63b8ff" points="223.88,-37.28 234.47,-37.05 226.05,-30.62 223.88,-37.28"/>
</a>
</g>
</g>
<!-- Node3 -->
<g id="Node000003" class="node">
<title>Node3</title>
<g id="a_Node000003"><a xlink:href="class_o_c_a_1_1_c_a_f_e_v_d_b_1_1_service_1_1_config_service.html#aaeb05cf94149de0821a30628a8c7bcef" target="_top" xlink:title="Convert $value to a currency value in the given or the user&#39;s locale.">
<polygon fill="white" stroke="#666666" points="69.25,-96 0,-96 0,-76 69.25,-76 69.25,-96"/>
<text text-anchor="middle" x="34.62" y="-82.5" font-family="Helvetica,sans-Serif" font-size="10.00">moneyValue</text>
</a>
</g>
</g>
<!-- Node2&#45;&gt;Node3 -->
<g id="edge2_Node000002_Node000003" class="edge">
<title>Node2&#45;&gt;Node3</title>
<g id="a_edge2_Node000002_Node000003"><a xlink:title=" ">
<path fill="none" stroke="#63b8ff" d="M93.8,-86C85.47,-86 77.1,-86 69.41,-86"/>
<polygon fill="#63b8ff" stroke="#63b8ff" points="93.56,-89.5 103.56,-86 93.56,-82.5 93.56,-89.5"/>
</a>
</g>
</g>
</g>
</svg>
</svg>

<style type='text/css'>
<![CDATA[
[data-mouse-over-selected='false'] { opacity: 0.7; }
[data-mouse-over-selected='true']  { opacity: 1.0; }
]]>
</style>
<script type="application/ecmascript"><![CDATA[
document.addEventListener('DOMContentLoaded', (event) => {
  highlightEdges();
  highlightAdjacentNodes();
});
]]></script>
</svg>
