<?xml version="1.0" encoding="UTF-8" standalone="no"?>
<!DOCTYPE svg PUBLIC "-//W3C//DTD SVG 1.1//EN"
 "http://www.w3.org/Graphics/SVG/1.1/DTD/svg11.dtd">
<!-- Generated by graphviz version 9.0.0 (20230911.1827)
 -->
<!-- Title: createVCalendarFromRequest Pages: 1 -->
<svg width="481pt" height="66pt"
 viewBox="0.00 0.00 480.50 66.00" xmlns="http://www.w3.org/2000/svg" xmlns:xlink="http://www.w3.org/1999/xlink">
<g id="graph0" class="graph" transform="scale(1 1) rotate(0) translate(4 62)">
<title>createVCalendarFromRequest</title>
<!-- Node1 -->
<g id="Node000001" class="node">
<title>Node1</title>
<g id="a_Node000001"><a xlink:title="Creates an VCalendar Object from the request data.">
<polygon fill="#999999" stroke="#666666" points="148,-39 0,-39 0,-19 148,-19 148,-39"/>
<text text-anchor="middle" x="74" y="-25.5" font-family="Helvetica,sans-Serif" font-size="10.00">createVCalendarFromRequest</text>
</a>
</g>
</g>
<!-- Node2 -->
<g id="Node000002" class="node">
<title>Node2</title>
<g id="a_Node000002"><a xlink:href="class_o_c_a_1_1_c_a_f_e_v_d_b_1_1_legacy_1_1_calendar_1_1_o_c___calendar___object.html#aedd8ff06659737d2643f2e072371f134" target="_top" xlink:title="Updates an VCalendar Object from the request data.">
<polygon fill="white" stroke="#666666" points="334.25,-39 184,-39 184,-19 334.25,-19 334.25,-39"/>
<text text-anchor="middle" x="259.12" y="-25.5" font-family="Helvetica,sans-Serif" font-size="10.00">updateVCalendarFromRequest</text>
</a>
</g>
</g>
<!-- Node1&#45;&gt;Node2 -->
<g id="edge1_Node000001_Node000002" class="edge">
<title>Node1&#45;&gt;Node2</title>
<g id="a_edge1_Node000001_Node000002"><a xlink:title=" ">
<path fill="none" stroke="#63b8ff" d="M148.43,-29C156.34,-29 164.44,-29 172.48,-29"/>
<polygon fill="#63b8ff" stroke="#63b8ff" points="172.27,-32.5 182.27,-29 172.27,-25.5 172.27,-32.5"/>
</a>
</g>
</g>
<!-- Node3 -->
<g id="Node000003" class="node">
<title>Node3</title>
<g id="a_Node000003"><a xlink:href="class_o_c_a_1_1_c_a_f_e_v_d_b_1_1_legacy_1_1_calendar_1_1_o_c___calendar___object.html#abeb36349d137f59529296be433ce51b4" target="_top" xlink:title="Returns the options for an yearly repeating event which occurs on specific month of the year.">
<polygon fill="white" stroke="#666666" points="472.5,-58 370.25,-58 370.25,-38 472.5,-38 472.5,-58"/>
<text text-anchor="middle" x="421.38" y="-44.5" font-family="Helvetica,sans-Serif" font-size="10.00">getByMonthOptions</text>
</a>
</g>
</g>
<!-- Node2&#45;&gt;Node3 -->
<g id="edge2_Node000002_Node000003" class="edge">
<title>Node2&#45;&gt;Node3</title>
<g id="a_edge2_Node000002_Node000003"><a xlink:title=" ">
<path fill="none" stroke="#63b8ff" d="M334.62,-37.83C342.64,-38.78 350.73,-39.74 358.58,-40.67"/>
<polygon fill="#63b8ff" stroke="#63b8ff" points="358.01,-44.13 368.35,-41.83 358.84,-37.18 358.01,-44.13"/>
</a>
</g>
</g>
<!-- Node4 -->
<g id="Node000004" class="node">
<title>Node4</title>
<g id="a_Node000004"><a xlink:href="class_o_c_a_1_1_c_a_f_e_v_d_b_1_1_legacy_1_1_calendar_1_1_o_c___calendar___object.html#ad515ca85336eabd9bab2062442e733f8" target="_top" xlink:title="Returns the options for an weekly repeating event.">
<polygon fill="white" stroke="#666666" points="469.12,-20 373.62,-20 373.62,0 469.12,0 469.12,-20"/>
<text text-anchor="middle" x="421.38" y="-6.5" font-family="Helvetica,sans-Serif" font-size="10.00">getWeeklyOptions</text>
</a>
</g>
</g>
<!-- Node2&#45;&gt;Node4 -->
<g id="edge3_Node000002_Node000004" class="edge">
<title>Node2&#45;&gt;Node4</title>
<g id="a_edge3_Node000002_Node000004"><a xlink:title=" ">
<path fill="none" stroke="#63b8ff" d="M334.62,-20.17C343.93,-19.06 353.34,-17.95 362.35,-16.88"/>
<polygon fill="#63b8ff" stroke="#63b8ff" points="362.48,-20.39 372,-15.74 361.66,-13.44 362.48,-20.39"/>
</a>
</g>
</g>
</g>
</svg>
