<?xml version="1.0" encoding="UTF-8" standalone="no"?>
<!DOCTYPE svg PUBLIC "-//W3C//DTD SVG 1.1//EN"
 "http://www.w3.org/Graphics/SVG/1.1/DTD/svg11.dtd">
<!-- Generated by graphviz version 9.0.0 (20230911.1827)
 -->
<!-- Title: inGroup Pages: 1 -->
<svg width="626pt" height="155pt"
 viewBox="0.00 0.00 626.00 155.39" xmlns="http://www.w3.org/2000/svg" xmlns:xlink="http://www.w3.org/1999/xlink">
<g id="graph0" class="graph" transform="scale(1 1) rotate(0) translate(4 151.39)">
<title>inGroup</title>
<!-- Node1 -->
<g id="Node000001" class="node">
<title>Node1</title>
<g id="a_Node000001"><a xlink:title=" ">
<polygon fill="#999999" stroke="#666666" points="49.75,-101.39 0,-101.39 0,-81.39 49.75,-81.39 49.75,-101.39"/>
<text text-anchor="middle" x="24.88" y="-87.89" font-family="Helvetica,sans-Serif" font-size="10.00">inGroup</text>
</a>
</g>
</g>
<!-- Node2 -->
<g id="Node000002" class="node">
<title>Node2</title>
<g id="a_Node000002"><a xlink:href="class_o_c_a_1_1_c_a_f_e_v_d_b_1_1_service_1_1_config_service.html#a80ff7d4e6101b55bc46ce120b838b98d" target="_top" xlink:title=" ">
<polygon fill="white" stroke="#666666" points="164.38,-144.39 100.38,-144.39 100.38,-124.39 164.38,-124.39 164.38,-144.39"/>
<text text-anchor="middle" x="132.38" y="-130.89" font-family="Helvetica,sans-Serif" font-size="10.00">getGroupId</text>
</a>
</g>
</g>
<!-- Node1&#45;&gt;Node2 -->
<g id="edge1_Node000001_Node000002" class="edge">
<title>Node1&#45;&gt;Node2</title>
<g id="a_edge1_Node000001_Node000002"><a xlink:title=" ">
<path fill="none" stroke="#63b8ff" d="M50.08,-101.25C63.49,-106.72 80.43,-113.62 95.37,-119.71"/>
<polygon fill="#63b8ff" stroke="#63b8ff" points="93.83,-122.86 104.41,-123.4 96.47,-116.38 93.83,-122.86"/>
</a>
</g>
</g>
<!-- Node5 -->
<g id="Node000005" class="node">
<title>Node5</title>
<g id="a_Node000005"><a xlink:href="class_o_c_a_1_1_c_a_f_e_v_d_b_1_1_service_1_1_config_service.html#ae2621cc27b1048071816b69caf9b945a" target="_top" xlink:title=" ">
<polygon fill="white" stroke="#666666" points="179,-101.39 85.75,-101.39 85.75,-81.39 179,-81.39 179,-101.39"/>
<text text-anchor="middle" x="132.38" y="-87.89" font-family="Helvetica,sans-Serif" font-size="10.00">getGroupManager</text>
</a>
</g>
</g>
<!-- Node1&#45;&gt;Node5 -->
<g id="edge4_Node000001_Node000005" class="edge">
<title>Node1&#45;&gt;Node5</title>
<g id="a_edge4_Node000001_Node000005"><a xlink:title=" ">
<path fill="none" stroke="#63b8ff" d="M50.08,-91.39C57.27,-91.39 65.48,-91.39 73.85,-91.39"/>
<polygon fill="#63b8ff" stroke="#63b8ff" points="73.77,-94.89 83.77,-91.39 73.77,-87.89 73.77,-94.89"/>
</a>
</g>
</g>
<!-- Node6 -->
<g id="Node000006" class="node">
<title>Node6</title>
<g id="a_Node000006"><a xlink:href="class_o_c_a_1_1_c_a_f_e_v_d_b_1_1_service_1_1_config_service.html#a05f6aa1ffae6295260d9f1cca016bf33" target="_top" xlink:title=" ">
<polygon fill="white" stroke="#666666" points="161.75,-54.39 103,-54.39 103,-34.39 161.75,-34.39 161.75,-54.39"/>
<text text-anchor="middle" x="132.38" y="-40.89" font-family="Helvetica,sans-Serif" font-size="10.00">getUserId</text>
</a>
</g>
</g>
<!-- Node1&#45;&gt;Node6 -->
<g id="edge5_Node000001_Node000006" class="edge">
<title>Node1&#45;&gt;Node6</title>
<g id="a_edge5_Node000001_Node000006"><a xlink:title=" ">
<path fill="none" stroke="#63b8ff" d="M49.29,-80.96C63.49,-74.63 81.86,-66.45 97.62,-59.43"/>
<polygon fill="#63b8ff" stroke="#63b8ff" points="98.93,-62.67 106.64,-55.41 96.09,-56.28 98.93,-62.67"/>
</a>
</g>
</g>
<!-- Node3 -->
<g id="Node000003" class="node">
<title>Node3</title>
<g id="a_Node000003"><a xlink:href="class_o_c_a_1_1_c_a_f_e_v_d_b_1_1_service_1_1_config_service.html#a6c2a8487a2ff84a0fa4530de4d61d83b" target="_top" xlink:title="A short&#45;cut, redirecting to the stock functions for the app.">
<polygon fill="white" stroke="#666666" points="285.75,-145.39 215,-145.39 215,-125.39 285.75,-125.39 285.75,-145.39"/>
<text text-anchor="middle" x="250.38" y="-131.89" font-family="Helvetica,sans-Serif" font-size="10.00">getAppValue</text>
</a>
</g>
</g>
<!-- Node2&#45;&gt;Node3 -->
<g id="edge2_Node000002_Node000003" class="edge">
<title>Node2&#45;&gt;Node3</title>
<g id="a_edge2_Node000002_Node000003"><a xlink:title=" ">
<path fill="none" stroke="#63b8ff" d="M164.77,-134.66C176.7,-134.76 190.56,-134.88 203.56,-134.99"/>
<polygon fill="#63b8ff" stroke="#63b8ff" points="203.15,-138.49 213.18,-135.08 203.21,-131.49 203.15,-138.49"/>
</a>
</g>
</g>
<!-- Node4 -->
<g id="Node000004" class="node">
<title>Node4</title>
<g id="a_Node000004"><a xlink:href="class_o_c_a_1_1_c_a_f_e_v_d_b_1_1_service_1_1_config_service.html#a3c0a8ca944cfd5a62a77b1c2cc2b49a8" target="_top" xlink:title=" ">
<polygon fill="white" stroke="#666666" points="407.5,-147.39 324,-147.39 324,-127.39 407.5,-127.39 407.5,-147.39"/>
<text text-anchor="middle" x="365.75" y="-133.89" font-family="Helvetica,sans-Serif" font-size="10.00">getCloudConfig</text>
</a>
</g>
</g>
<!-- Node3&#45;&gt;Node4 -->
<g id="edge3_Node000003_Node000004" class="edge">
<title>Node3&#45;&gt;Node4</title>
<g id="a_edge3_Node000003_Node000004"><a xlink:title=" ">
<path fill="none" stroke="#63b8ff" d="M286.01,-136C294.25,-136.14 303.23,-136.3 312.07,-136.46"/>
<polygon fill="#63b8ff" stroke="#63b8ff" points="311.98,-139.96 322.04,-136.63 312.1,-132.96 311.98,-139.96"/>
</a>
</g>
</g>
<!-- Node7 -->
<g id="Node000007" class="node">
<title>Node7</title>
<g id="a_Node000007"><a xlink:href="class_o_c_a_1_1_c_a_f_e_v_d_b_1_1_service_1_1_config_service.html#a8be64a59621bfe298a4109ce08229ecd" target="_top" xlink:title=" ">
<polygon fill="white" stroke="#666666" points="275.62,-35.39 225.12,-35.39 225.12,-15.39 275.62,-15.39 275.62,-35.39"/>
<text text-anchor="middle" x="250.38" y="-21.89" font-family="Helvetica,sans-Serif" font-size="10.00">getUser</text>
</a>
</g>
</g>
<!-- Node6&#45;&gt;Node7 -->
<g id="edge6_Node000006_Node000007" class="edge">
<title>Node6&#45;&gt;Node7</title>
<g id="a_edge6_Node000006_Node000007"><a xlink:title=" ">
<path fill="none" stroke="#63b8ff" d="M162.05,-39.69C177.75,-37.12 197.34,-33.91 213.98,-31.19"/>
<polygon fill="#63b8ff" stroke="#63b8ff" points="214.16,-34.7 223.46,-29.63 213.02,-27.8 214.16,-34.7"/>
</a>
</g>
</g>
<!-- Node8 -->
<g id="Node000008" class="node">
<title>Node8</title>
<g id="a_Node000008"><a xlink:href="class_o_c_a_1_1_c_a_f_e_v_d_b_1_1_service_1_1_config_service.html#a9645249ef330a927cede315afee62d5a" target="_top" xlink:title=" ">
<polygon fill="white" stroke="#666666" points="409.75,-109.39 321.75,-109.39 321.75,-89.39 409.75,-89.39 409.75,-109.39"/>
<text text-anchor="middle" x="365.75" y="-95.89" font-family="Helvetica,sans-Serif" font-size="10.00">getUserManager</text>
</a>
</g>
</g>
<!-- Node7&#45;&gt;Node8 -->
<g id="edge7_Node000007_Node000008" class="edge">
<title>Node7&#45;&gt;Node8</title>
<g id="a_edge7_Node000007_Node000008"><a xlink:title=" ">
<path fill="none" stroke="#63b8ff" d="M265.09,-35.81C279.05,-46.25 301.48,-62.58 321.75,-75.39 326.1,-78.13 330.77,-80.91 335.38,-83.56"/>
<polygon fill="#63b8ff" stroke="#63b8ff" points="333.47,-86.5 343.9,-88.33 336.89,-80.39 333.47,-86.5"/>
</a>
</g>
</g>
<!-- Node9 -->
<g id="Node000009" class="node">
<title>Node9</title>
<g id="a_Node000009"><a xlink:href="class_o_c_a_1_1_c_a_f_e_v_d_b_1_1_service_1_1_config_service.html#a8e80f766c9aa0f817b358aa67422985a" target="_top" xlink:title=" ">
<polygon fill="white" stroke="#666666" points="618,-52.39 532.25,-52.39 532.25,-32.39 618,-32.39 618,-52.39"/>
<text text-anchor="middle" x="575.12" y="-38.89" font-family="Helvetica,sans-Serif" font-size="10.00">getUserSession</text>
</a>
</g>
</g>
<!-- Node7&#45;&gt;Node9 -->
<g id="edge8_Node000007_Node000009" class="edge">
<title>Node7&#45;&gt;Node9</title>
<g id="a_edge8_Node000007_Node000009"><a xlink:title=" ">
<path fill="none" stroke="#63b8ff" d="M275.87,-32.82C289.28,-36.5 306.27,-40.55 321.75,-42.39 389.96,-50.51 469.29,-48.68 520.53,-46.05"/>
<polygon fill="#63b8ff" stroke="#63b8ff" points="520.66,-49.55 530.46,-45.5 520.28,-42.56 520.66,-49.55"/>
</a>
</g>
</g>
<!-- Node10 -->
<g id="Node000010" class="node">
<title>Node10</title>
<g id="a_Node000010"><a xlink:href="class_o_c_a_1_1_c_a_f_e_v_d_b_1_1_service_1_1_config_service.html#a6cacbeb3555df4a292566b2e1b9bb574" target="_top" xlink:title="Install a new user id.">
<polygon fill="white" stroke="#666666" points="395.12,-33.39 336.38,-33.39 336.38,-13.39 395.12,-13.39 395.12,-33.39"/>
<text text-anchor="middle" x="365.75" y="-19.89" font-family="Helvetica,sans-Serif" font-size="10.00">setUserId</text>
</a>
</g>
</g>
<!-- Node7&#45;&gt;Node10 -->
<g id="edge9_Node000007_Node000010" class="edge">
<title>Node7&#45;&gt;Node10</title>
<g id="a_edge9_Node000007_Node000010"><a xlink:title=" ">
<path fill="none" stroke="#63b8ff" d="M275.98,-19.28C290.23,-17.95 308.52,-17.36 324.79,-17.61"/>
<polygon fill="#63b8ff" stroke="#63b8ff" points="324.59,-21.11 334.68,-17.9 324.79,-14.11 324.59,-21.11"/>
</a>
</g>
</g>
<!-- Node10&#45;&gt;Node7 -->
<g id="edge10_Node000010_Node000007" class="edge">
<title>Node10&#45;&gt;Node7</title>
<g id="a_edge10_Node000010_Node000007"><a xlink:title=" ">
<path fill="none" stroke="#63b8ff" d="M336.2,-29.84C321.41,-31.02 303.2,-31.47 287.44,-31.09"/>
<polygon fill="#63b8ff" stroke="#63b8ff" points="287.62,-27.59 277.49,-30.69 287.34,-34.59 287.62,-27.59"/>
</a>
</g>
</g>
<!-- Node11 -->
<g id="Node000011" class="node">
<title>Node11</title>
<g id="a_Node000011"><a xlink:href="class_o_c_a_1_1_c_a_f_e_v_d_b_1_1_service_1_1_config_service.html#a7b6e5c12813dec3c45ec9531820c539a" target="_top" xlink:title="Install a new user.">
<polygon fill="white" stroke="#666666" points="496.25,-33.39 445.75,-33.39 445.75,-13.39 496.25,-13.39 496.25,-33.39"/>
<text text-anchor="middle" x="471" y="-19.89" font-family="Helvetica,sans-Serif" font-size="10.00">setUser</text>
</a>
</g>
</g>
<!-- Node10&#45;&gt;Node11 -->
<g id="edge11_Node000010_Node000011" class="edge">
<title>Node10&#45;&gt;Node11</title>
<g id="a_edge11_Node000010_Node000011"><a xlink:title=" ">
<path fill="none" stroke="#63b8ff" d="M395.51,-23.39C407.57,-23.39 421.72,-23.39 434.43,-23.39"/>
<polygon fill="#63b8ff" stroke="#63b8ff" points="434.07,-26.89 444.07,-23.39 434.07,-19.89 434.07,-26.89"/>
</a>
</g>
</g>
<!-- Node11&#45;&gt;Node7 -->
<g id="edge12_Node000011_Node000007" class="edge">
<title>Node11&#45;&gt;Node7</title>
<g id="a_edge12_Node000011_Node000007"><a xlink:title=" ">
<path fill="none" stroke="#63b8ff" d="M445.49,-13.79C434.71,-10.06 421.78,-6.24 409.75,-4.39 371.09,1.56 360.45,1.26 321.75,-4.39 310.23,-6.07 297.98,-9.22 286.98,-12.58"/>
<polygon fill="#63b8ff" stroke="#63b8ff" points="285.94,-9.24 277.5,-15.64 288.09,-15.9 285.94,-9.24"/>
</a>
</g>
</g>
<!-- Node11&#45;&gt;Node9 -->
<g id="edge13_Node000011_Node000009" class="edge">
<title>Node11&#45;&gt;Node9</title>
<g id="a_edge13_Node000011_Node000009"><a xlink:title=" ">
<path fill="none" stroke="#63b8ff" d="M496.72,-27.99C504.11,-29.36 512.51,-30.93 520.99,-32.5"/>
<polygon fill="#63b8ff" stroke="#63b8ff" points="520.14,-35.9 530.61,-34.29 521.42,-29.02 520.14,-35.9"/>
</a>
</g>
</g>
</g>
</svg>
