<?xml version="1.0" encoding="UTF-8" standalone="no"?>
<!DOCTYPE svg PUBLIC "-//W3C//DTD SVG 1.1//EN"
 "http://www.w3.org/Graphics/SVG/1.1/DTD/svg11.dtd">
<!-- Generated by graphviz version 8.0.3 (20230416.2022)
 -->
<!-- Title: resolveJoinTableEntity Pages: 1 -->
<svg width="365pt" height="64pt"
 viewBox="0.00 0.00 365.00 64.00" xmlns="http://www.w3.org/2000/svg" xmlns:xlink="http://www.w3.org/1999/xlink">
<g id="graph0" class="graph" transform="scale(1 1) rotate(0) translate(4 60)">
<title>resolveJoinTableEntity</title>
<!-- Node1 -->
<g id="node1" class="node">
<title>Node1</title>
<g id="a_node1"><a xlink:title=" ">
<polygon fill="#999999" stroke="#666666" points="357,-37 242,-37 242,-18 357,-18 357,-37"/>
<text text-anchor="middle" x="299.5" y="-25" font-family="Helvetica,sans-Serif" font-size="10.00">resolveJoinTableEntity</text>
</a>
</g>
</g>
<!-- Node2 -->
<g id="node2" class="node">
<title>Node2</title>
<g id="a_node2"><a xlink:href="class_o_c_a_1_1_c_a_f_e_v_d_b_1_1_database_1_1_doctrine_1_1_o_r_m_1_1_repositories_1_1_images_repository.html#a9c87ed6646d36ad79c36d3d6daeca656" target="_top" xlink:title="Find images for the given &quot;using&quot; entity class.">
<polygon fill="white" stroke="#666666" points="202,-56 130,-56 130,-37 202,-37 202,-56"/>
<text text-anchor="middle" x="166" y="-44" font-family="Helvetica,sans-Serif" font-size="10.00">findForEntity</text>
</a>
</g>
</g>
<!-- Node1&#45;&gt;Node2 -->
<g id="edge1" class="edge">
<title>Node1&#45;&gt;Node2</title>
<path fill="none" stroke="#63b8ff" d="M230.9,-37.27C221.04,-38.69 211.23,-40.11 202.37,-41.39"/>
<polygon fill="#63b8ff" stroke="#63b8ff" points="231.19,-40.62 240.59,-35.72 230.19,-33.69 231.19,-40.62"/>
</g>
<!-- Node4 -->
<g id="node4" class="node">
<title>Node4</title>
<g id="a_node4"><a xlink:href="class_o_c_a_1_1_c_a_f_e_v_d_b_1_1_database_1_1_doctrine_1_1_o_r_m_1_1_repositories_1_1_images_repository.html#a2d2abcadabb2daa70bb36223fa4f5942" target="_top" xlink:title="Complete a possibly incomplete join&#45;table entity class name by looking the parent namespaces of this ...">
<polygon fill="white" stroke="#666666" points="206,-19 126,-19 126,0 206,0 206,-19"/>
<text text-anchor="middle" x="166" y="-7" font-family="Helvetica,sans-Serif" font-size="10.00">joinTableClass</text>
</a>
</g>
</g>
<!-- Node1&#45;&gt;Node4 -->
<g id="edge3" class="edge">
<title>Node1&#45;&gt;Node4</title>
<path fill="none" stroke="#63b8ff" d="M230.89,-18.25C222.43,-17.09 214.01,-15.94 206.2,-14.87"/>
<polygon fill="#63b8ff" stroke="#63b8ff" points="230.2,-21.82 240.59,-19.71 231.15,-14.89 230.2,-21.82"/>
</g>
<!-- Node3 -->
<g id="node3" class="node">
<title>Node3</title>
<g id="a_node3"><a xlink:href="class_o_c_a_1_1_c_a_f_e_v_d_b_1_1_database_1_1_doctrine_1_1_o_r_m_1_1_repositories_1_1_images_repository.html#ae9058a484b4d2461ac8fb60b4c761db8" target="_top" xlink:title="Find the first or only image for the given using entity.">
<polygon fill="white" stroke="#666666" points="90,-56 0,-56 0,-37 90,-37 90,-56"/>
<text text-anchor="middle" x="45" y="-44" font-family="Helvetica,sans-Serif" font-size="10.00">findOneForEntity</text>
</a>
</g>
</g>
<!-- Node2&#45;&gt;Node3 -->
<g id="edge2" class="edge">
<title>Node2&#45;&gt;Node3</title>
<path fill="none" stroke="#63b8ff" d="M118.88,-46.5C109.49,-46.5 99.64,-46.5 90.32,-46.5"/>
<polygon fill="#63b8ff" stroke="#63b8ff" points="118.62,-50 128.62,-46.5 118.62,-43 118.62,-50"/>
</g>
</g>
</svg>
