<?xml version="1.0" encoding="UTF-8" standalone="no"?>
<!DOCTYPE svg PUBLIC "-//W3C//DTD SVG 1.1//EN"
 "http://www.w3.org/Graphics/SVG/1.1/DTD/svg11.dtd">
<!-- Generated by graphviz version 8.0.3 (20230416.2022)
 -->
<!-- Title: entity Pages: 1 -->
<svg width="211pt" height="140pt"
 viewBox="0.00 0.00 211.00 140.00" xmlns="http://www.w3.org/2000/svg" xmlns:xlink="http://www.w3.org/1999/xlink">
<g id="graph0" class="graph" transform="scale(1 1) rotate(0) translate(4 136)">
<title>entity</title>
<!-- Node1 -->
<g id="node1" class="node">
<title>Node1</title>
<g id="a_node1"><a xlink:title=" ">
<polygon fill="#999999" stroke="#666666" points="203,-76 162,-76 162,-57 203,-57 203,-76"/>
<text text-anchor="middle" x="182.5" y="-64" font-family="Helvetica,sans-Serif" font-size="10.00">entity</text>
</a>
</g>
</g>
<!-- Node2 -->
<g id="node2" class="node">
<title>Node2</title>
<g id="a_node2"><a xlink:href="class_o_c_a_1_1_c_a_f_e_v_d_b_1_1_database_1_1_cloud_1_1_synchronized.html#a5234e2ee74d02ed9cdf5e867d1492795" target="_top" xlink:title="{}">
<polygon fill="white" stroke="#666666" points="124,-132 82,-132 82,-113 124,-113 124,-132"/>
<text text-anchor="middle" x="103" y="-120" font-family="Helvetica,sans-Serif" font-size="10.00">__call</text>
</a>
</g>
</g>
<!-- Node1&#45;&gt;Node2 -->
<g id="edge1" class="edge">
<title>Node1&#45;&gt;Node2</title>
<path fill="none" stroke="#63b8ff" d="M159.31,-82.53C145.86,-92.25 129.12,-104.35 117.6,-112.67"/>
<polygon fill="#63b8ff" stroke="#63b8ff" points="160.94,-84.95 167,-76.25 156.85,-79.27 160.94,-84.95"/>
</g>
<!-- Node3 -->
<g id="node3" class="node">
<title>Node3</title>
<g id="a_node3"><a xlink:href="class_o_c_a_1_1_c_a_f_e_v_d_b_1_1_database_1_1_cloud_1_1_synchronized.html#a57291364b6d186af794627f03aefd38c" target="_top" xlink:title="Obtain object from database if it is &quot;clean&quot;, if it is dirty or new (no id) then create or update the...">
<polygon fill="white" stroke="#666666" points="125,-95 81,-95 81,-76 125,-76 125,-95"/>
<text text-anchor="middle" x="103" y="-83" font-family="Helvetica,sans-Serif" font-size="10.00">attach</text>
</a>
</g>
</g>
<!-- Node1&#45;&gt;Node3 -->
<g id="edge2" class="edge">
<title>Node1&#45;&gt;Node3</title>
<path fill="none" stroke="#63b8ff" d="M151.05,-73.96C142.42,-76.08 133.21,-78.34 125.25,-80.29"/>
<polygon fill="#63b8ff" stroke="#63b8ff" points="151.66,-77.17 160.54,-71.39 150,-70.37 151.66,-77.17"/>
</g>
<!-- Node4 -->
<g id="node4" class="node">
<title>Node4</title>
<g id="a_node4"><a xlink:href="class_o_c_a_1_1_c_a_f_e_v_d_b_1_1_database_1_1_cloud_1_1_synchronized.html#a8652674eb0728ffe1e44c3fe253936a1" target="_top" xlink:title="Update multiple properties and write them through to the database if we are in $attached state.">
<polygon fill="white" stroke="#666666" points="44,-76 0,-76 0,-57 44,-57 44,-76"/>
<text text-anchor="middle" x="22" y="-64" font-family="Helvetica,sans-Serif" font-size="10.00">merge</text>
</a>
</g>
</g>
<!-- Node1&#45;&gt;Node4 -->
<g id="edge5" class="edge">
<title>Node1&#45;&gt;Node4</title>
<path fill="none" stroke="#63b8ff" d="M151.03,-66.5C119.7,-66.5 71.73,-66.5 44.27,-66.5"/>
<polygon fill="#63b8ff" stroke="#63b8ff" points="150.75,-70 160.75,-66.5 150.75,-63 150.75,-70"/>
</g>
<!-- Node5 -->
<g id="node5" class="node">
<title>Node5</title>
<g id="a_node5"><a xlink:href="class_o_c_a_1_1_c_a_f_e_v_d_b_1_1_database_1_1_cloud_1_1_synchronized.html#aa4c7e8ce5147b0a22d6f2543c017a937" target="_top" xlink:title="Remove the wrapped entity from the database.">
<polygon fill="white" stroke="#666666" points="126,-19 80,-19 80,0 126,0 126,-19"/>
<text text-anchor="middle" x="103" y="-7" font-family="Helvetica,sans-Serif" font-size="10.00">detach</text>
</a>
</g>
</g>
<!-- Node1&#45;&gt;Node5 -->
<g id="edge4" class="edge">
<title>Node1&#45;&gt;Node5</title>
<path fill="none" stroke="#63b8ff" d="M159.26,-50.14C145.71,-40.18 128.85,-27.78 117.34,-19.31"/>
<polygon fill="#63b8ff" stroke="#63b8ff" points="156.87,-53.47 167,-56.57 161.02,-47.83 156.87,-53.47"/>
</g>
<!-- Node3&#45;&gt;Node4 -->
<g id="edge3" class="edge">
<title>Node3&#45;&gt;Node4</title>
<path fill="none" stroke="#63b8ff" d="M70.19,-77.85C61.46,-75.75 52.2,-73.52 44.23,-71.61"/>
<polygon fill="#63b8ff" stroke="#63b8ff" points="69.29,-81.47 79.83,-80.41 70.93,-74.67 69.29,-81.47"/>
</g>
</g>
</svg>
