<?xml version="1.0" encoding="UTF-8" standalone="no"?>
<!DOCTYPE svg PUBLIC "-//W3C//DTD SVG 1.1//EN"
 "http://www.w3.org/Graphics/SVG/1.1/DTD/svg11.dtd">
<!-- Generated by graphviz version 8.0.3 (20230416.2022)
 -->
<!-- Title: fillData Pages: 1 -->
<svg width="215pt" height="64pt"
 viewBox="0.00 0.00 215.00 64.00" xmlns="http://www.w3.org/2000/svg" xmlns:xlink="http://www.w3.org/1999/xlink">
<g id="graph0" class="graph" transform="scale(1 1) rotate(0) translate(4 60)">
<title>fillData</title>
<!-- Node1 -->
<g id="node1" class="node">
<title>Node1</title>
<g id="a_node1"><a xlink:title="Return the data which would be filled into the template.">
<polygon fill="#999999" stroke="#666666" points="207,-37 160,-37 160,-18 207,-18 207,-37"/>
<text text-anchor="middle" x="183.5" y="-25" font-family="Helvetica,sans-Serif" font-size="10.00">fillData</text>
</a>
</g>
</g>
<!-- Node2 -->
<g id="node2" class="node">
<title>Node2</title>
<g id="a_node2"><a xlink:href="class_o_c_a_1_1_c_a_f_e_v_d_b_1_1_documents_1_1_open_document_filler.html#a6febfc1bfcad096d493979cd224906b1" target="_top" xlink:title=" ">
<polygon fill="white" stroke="#666666" points="124,-37 65,-37 65,-18 124,-18 124,-37"/>
<text text-anchor="middle" x="94.5" y="-25" font-family="Helvetica,sans-Serif" font-size="10.00">fillInternal</text>
</a>
</g>
</g>
<!-- Node1&#45;&gt;Node2 -->
<g id="edge1" class="edge">
<title>Node1&#45;&gt;Node2</title>
<path fill="none" stroke="#63b8ff" d="M148.73,-27.5C140.71,-27.5 132.23,-27.5 124.44,-27.5"/>
<polygon fill="#63b8ff" stroke="#63b8ff" points="148.64,-31 158.64,-27.5 148.64,-24 148.64,-31"/>
</g>
<!-- Node3 -->
<g id="node3" class="node">
<title>Node3</title>
<g id="a_node3"><a xlink:href="class_o_c_a_1_1_c_a_f_e_v_d_b_1_1_documents_1_1_open_document_filler.html#afb77e7df40a957f4f604ad7ad11badbf" target="_top" xlink:title="Fill the given template file which must exist in the cloud file&#45;system with the given template&#45;data.">
<polygon fill="white" stroke="#666666" points="29,-56 0,-56 0,-37 29,-37 29,-56"/>
<text text-anchor="middle" x="14.5" y="-44" font-family="Helvetica,sans-Serif" font-size="10.00">ffill</text>
</a>
</g>
</g>
<!-- Node2&#45;&gt;Node3 -->
<g id="edge2" class="edge">
<title>Node2&#45;&gt;Node3</title>
<path fill="none" stroke="#63b8ff" d="M54.4,-37.03C45.36,-39.23 36.32,-41.43 29.24,-43.15"/>
<polygon fill="#63b8ff" stroke="#63b8ff" points="55.01,-40.23 63.9,-34.47 53.35,-33.43 55.01,-40.23"/>
</g>
<!-- Node4 -->
<g id="node4" class="node">
<title>Node4</title>
<g id="a_node4"><a xlink:href="class_o_c_a_1_1_c_a_f_e_v_d_b_1_1_documents_1_1_open_document_filler.html#a15386ff7f81002f5ddcb4785f3a9e5bb" target="_top" xlink:title="Fill the given template file which must exist in the cloud file&#45;system with the given template&#45;data.">
<polygon fill="white" stroke="#666666" points="29,-19 0,-19 0,0 29,0 29,-19"/>
<text text-anchor="middle" x="14.5" y="-7" font-family="Helvetica,sans-Serif" font-size="10.00">fill</text>
</a>
</g>
</g>
<!-- Node2&#45;&gt;Node4 -->
<g id="edge3" class="edge">
<title>Node2&#45;&gt;Node4</title>
<path fill="none" stroke="#63b8ff" d="M54.4,-18.48C45.36,-16.39 36.32,-14.3 29.24,-12.67"/>
<polygon fill="#63b8ff" stroke="#63b8ff" points="53.37,-22.06 63.9,-20.9 54.94,-15.24 53.37,-22.06"/>
</g>
</g>
</svg>
