<?xml version="1.0" encoding="UTF-8" standalone="no"?>
<!DOCTYPE svg PUBLIC "-//W3C//DTD SVG 1.1//EN"
 "http://www.w3.org/Graphics/SVG/1.1/DTD/svg11.dtd">
<!-- Generated by graphviz version 8.0.3 (20230416.2022)
 -->
<!-- Title: progressResponse Pages: 1 -->
<svg width="281pt" height="182pt"
 viewBox="0.00 0.00 281.00 182.00" xmlns="http://www.w3.org/2000/svg" xmlns:xlink="http://www.w3.org/1999/xlink">
<g id="graph0" class="graph" transform="scale(1 1) rotate(0) translate(4 178)">
<title>progressResponse</title>
<!-- Node1 -->
<g id="node1" class="node">
<title>Node1</title>
<g id="a_node1"><a xlink:title=" ">
<polygon fill="#999999" stroke="#666666" points="98,-96.5 0,-96.5 0,-77.5 98,-77.5 98,-96.5"/>
<text text-anchor="middle" x="49" y="-84.5" font-family="Helvetica,sans-Serif" font-size="10.00">progressResponse</text>
</a>
</g>
</g>
<!-- Node2 -->
<g id="node2" class="node">
<title>Node2</title>
<g id="a_node2"><a xlink:href="interface_o_c_a_1_1_c_a_f_e_v_d_b_1_1_common_1_1_i_progress_status.html#ad926899d7cac34a3f1a90e552d8eb27d" target="_top" xlink:title="Return the cached value of the current state.">
<polygon fill="white" stroke="#666666" points="273,-174 134,-174 134,-144 273,-144 273,-174"/>
<text text-anchor="start" x="142" y="-162" font-family="Helvetica,sans-Serif" font-size="10.00">OCA\CAFEVDB\Common</text>
<text text-anchor="middle" x="203.5" y="-151" font-family="Helvetica,sans-Serif" font-size="10.00">\IProgressStatus\getCurrent</text>
</a>
</g>
</g>
<!-- Node1&#45;&gt;Node2 -->
<g id="edge1" class="edge">
<title>Node1&#45;&gt;Node2</title>
<path fill="none" stroke="#63b8ff" d="M65.34,-96.9C81.85,-107.28 109.09,-123.63 134,-135 137.53,-136.61 141.21,-138.18 144.94,-139.7"/>
<polygon fill="#63b8ff" stroke="#63b8ff" points="143.3,-143.21 153.89,-143.58 145.84,-136.69 143.3,-143.21"/>
</g>
<!-- Node3 -->
<g id="node3" class="node">
<title>Node3</title>
<g id="a_node3"><a xlink:href="interface_o_c_a_1_1_c_a_f_e_v_d_b_1_1_common_1_1_i_progress_status.html#a81a67162a6288d78fc4c55283325f0b4" target="_top" xlink:title="Return the cached value of the custom data, i.e.">
<polygon fill="white" stroke="#666666" points="269.5,-126 137.5,-126 137.5,-96 269.5,-96 269.5,-126"/>
<text text-anchor="start" x="145.5" y="-114" font-family="Helvetica,sans-Serif" font-size="10.00">OCA\CAFEVDB\Common</text>
<text text-anchor="middle" x="203.5" y="-103" font-family="Helvetica,sans-Serif" font-size="10.00">\IProgressStatus\getData</text>
</a>
</g>
</g>
<!-- Node1&#45;&gt;Node3 -->
<g id="edge2" class="edge">
<title>Node1&#45;&gt;Node3</title>
<path fill="none" stroke="#63b8ff" d="M98.25,-94.59C107.25,-96.01 116.86,-97.52 126.47,-99.03"/>
<polygon fill="#63b8ff" stroke="#63b8ff" points="125.85,-102.64 136.27,-100.73 126.94,-95.72 125.85,-102.64"/>
</g>
<!-- Node4 -->
<g id="node4" class="node">
<title>Node4</title>
<g id="a_node4"><a xlink:href="interface_o_c_a_1_1_c_a_f_e_v_d_b_1_1_common_1_1_i_progress_status.html#a12251d0c022e9e21c137a105ff683f13" target="_top" xlink:title="Obtain a unique but opaque identifier (e.g.">
<polygon fill="white" stroke="#666666" points="269.5,-78 137.5,-78 137.5,-48 269.5,-48 269.5,-78"/>
<text text-anchor="start" x="145.5" y="-66" font-family="Helvetica,sans-Serif" font-size="10.00">OCA\CAFEVDB\Common</text>
<text text-anchor="middle" x="203.5" y="-55" font-family="Helvetica,sans-Serif" font-size="10.00">\IProgressStatus\getId</text>
</a>
</g>
</g>
<!-- Node1&#45;&gt;Node4 -->
<g id="edge3" class="edge">
<title>Node1&#45;&gt;Node4</title>
<path fill="none" stroke="#63b8ff" d="M98.25,-79.41C107.25,-77.99 116.86,-76.48 126.47,-74.97"/>
<polygon fill="#63b8ff" stroke="#63b8ff" points="126.94,-78.28 136.27,-73.27 125.85,-71.36 126.94,-78.28"/>
</g>
<!-- Node5 -->
<g id="node5" class="node">
<title>Node5</title>
<g id="a_node5"><a xlink:href="interface_o_c_a_1_1_c_a_f_e_v_d_b_1_1_common_1_1_i_progress_status.html#afd77d5a1c164c8d6f4a18cbf9c341410" target="_top" xlink:title="Return the cached value of the target state.">
<polygon fill="white" stroke="#666666" points="270.5,-30 136.5,-30 136.5,0 270.5,0 270.5,-30"/>
<text text-anchor="start" x="144.5" y="-18" font-family="Helvetica,sans-Serif" font-size="10.00">OCA\CAFEVDB\Common</text>
<text text-anchor="middle" x="203.5" y="-7" font-family="Helvetica,sans-Serif" font-size="10.00">\IProgressStatus\getTarget</text>
</a>
</g>
</g>
<!-- Node1&#45;&gt;Node5 -->
<g id="edge4" class="edge">
<title>Node1&#45;&gt;Node5</title>
<path fill="none" stroke="#63b8ff" d="M65.34,-77.1C81.85,-66.72 109.09,-50.37 134,-39 137.53,-37.39 141.21,-35.82 144.94,-34.3"/>
<polygon fill="#63b8ff" stroke="#63b8ff" points="145.84,-37.31 153.89,-30.42 143.3,-30.79 145.84,-37.31"/>
</g>
</g>
</svg>
