<?xml version="1.0" encoding="UTF-8" standalone="no"?>
<!DOCTYPE svg PUBLIC "-//W3C//DTD SVG 1.1//EN"
 "http://www.w3.org/Graphics/SVG/1.1/DTD/svg11.dtd">
<!-- Generated by graphviz version 9.0.0 (20230911.1827)
 -->
<!-- Title: substituteAnnouncementsMailingList Pages: 1 -->
<svg width="507pt" height="180pt"
 viewBox="0.00 0.00 506.75 180.00" xmlns="http://www.w3.org/2000/svg" xmlns:xlink="http://www.w3.org/1999/xlink">
<g id="graph0" class="graph" transform="scale(1 1) rotate(0) translate(4 176)">
<title>substituteAnnouncementsMailingList</title>
<!-- Node1 -->
<g id="Node000001" class="node">
<title>Node1</title>
<g id="a_Node000001"><a xlink:title="Substitute the recipients by the announcements mailing list if possible.">
<polygon fill="#999999" stroke="#666666" points="175.75,-96 0,-96 0,-76 175.75,-76 175.75,-96"/>
<text text-anchor="middle" x="87.88" y="-82.5" font-family="Helvetica,sans-Serif" font-size="10.00">substituteAnnouncementsMailingList</text>
</a>
</g>
</g>
<!-- Node2 -->
<g id="Node000002" class="node">
<title>Node2</title>
<g id="a_Node000002"><a xlink:href="class_o_c_a_1_1_c_a_f_e_v_d_b_1_1_email_form_1_1_recipients_filter.html#ac721d278c1106843d05dc3b9176b5fb9" target="_top" xlink:title=" ">
<polygon fill="white" stroke="#666666" points="343.25,-172 211.75,-172 211.75,-152 343.25,-152 343.25,-172"/>
<text text-anchor="middle" x="277.5" y="-158.5" font-family="Helvetica,sans-Serif" font-size="10.00">announcementsMailingList</text>
</a>
</g>
</g>
<!-- Node1&#45;&gt;Node2 -->
<g id="edge1_Node000001_Node000002" class="edge">
<title>Node1&#45;&gt;Node2</title>
<g id="a_edge1_Node000001_Node000002"><a xlink:title=" ">
<path fill="none" stroke="#63b8ff" d="M108.92,-96.43C132.92,-108.65 174.55,-129 211.75,-143 216.5,-144.79 221.51,-146.52 226.53,-148.15"/>
<polygon fill="#63b8ff" stroke="#63b8ff" points="225.47,-151.49 236.05,-151.13 227.55,-144.8 225.47,-151.49"/>
</a>
</g>
</g>
<!-- Node3 -->
<g id="Node000003" class="node">
<title>Node3</title>
<g id="a_Node000003"><a xlink:href="class_o_c_a_1_1_c_a_f_e_v_d_b_1_1_email_form_1_1_recipients_filter.html#a0835860e0bc6047f3eff6a9941dbbcf4" target="_top" xlink:title=" ">
<polygon fill="white" stroke="#666666" points="320.38,-134 234.62,-134 234.62,-114 320.38,-114 320.38,-134"/>
<text text-anchor="middle" x="277.5" y="-120.5" font-family="Helvetica,sans-Serif" font-size="10.00">defaultByStatus</text>
</a>
</g>
</g>
<!-- Node1&#45;&gt;Node3 -->
<g id="edge2_Node000001_Node000003" class="edge">
<title>Node1&#45;&gt;Node3</title>
<g id="a_edge2_Node000001_Node000003"><a xlink:title=" ">
<path fill="none" stroke="#63b8ff" d="M140.64,-96.48C166.34,-101.69 197.35,-107.97 223.25,-113.22"/>
<polygon fill="#63b8ff" stroke="#63b8ff" points="222.4,-116.61 232.9,-115.17 223.79,-109.75 222.4,-116.61"/>
</a>
</g>
</g>
<!-- Node5 -->
<g id="Node000005" class="node">
<title>Node5</title>
<g id="a_Node000005"><a xlink:href="class_o_c_a_1_1_c_a_f_e_v_d_b_1_1_email_form_1_1_recipients_filter.html#a87e968763c59bd64b366af7d5a17598f" target="_top" xlink:title=" ">
<polygon fill="white" stroke="#666666" points="338.38,-96 216.62,-96 216.62,-76 338.38,-76 338.38,-96"/>
<text text-anchor="middle" x="277.5" y="-82.5" font-family="Helvetica,sans-Serif" font-size="10.00">emailRecipientsChoices</text>
</a>
</g>
</g>
<!-- Node1&#45;&gt;Node5 -->
<g id="edge4_Node000001_Node000005" class="edge">
<title>Node1&#45;&gt;Node5</title>
<g id="a_edge4_Node000001_Node000005"><a xlink:title=" ">
<path fill="none" stroke="#63b8ff" d="M176.1,-86C185.76,-86 195.51,-86 204.95,-86"/>
<polygon fill="#63b8ff" stroke="#63b8ff" points="204.76,-89.5 214.76,-86 204.76,-82.5 204.76,-89.5"/>
</a>
</g>
</g>
<!-- Node7 -->
<g id="Node000007" class="node">
<title>Node7</title>
<g id="a_Node000007"><a xlink:href="class_o_c_a_1_1_c_a_f_e_v_d_b_1_1_email_form_1_1_recipients_filter.html#a2765950b3322c101496bb711b89709ed" target="_top" xlink:title=" ">
<polygon fill="white" stroke="#666666" points="321.88,-58 233.12,-58 233.12,-38 321.88,-38 321.88,-58"/>
<text text-anchor="middle" x="277.5" y="-44.5" font-family="Helvetica,sans-Serif" font-size="10.00">instrumentsFilter</text>
</a>
</g>
</g>
<!-- Node1&#45;&gt;Node7 -->
<g id="edge6_Node000001_Node000007" class="edge">
<title>Node1&#45;&gt;Node7</title>
<g id="a_edge6_Node000001_Node000007"><a xlink:title=" ">
<path fill="none" stroke="#63b8ff" d="M140.64,-75.52C165.87,-70.41 196.21,-64.26 221.82,-59.08"/>
<polygon fill="#63b8ff" stroke="#63b8ff" points="222.25,-62.56 231.36,-57.14 220.86,-55.7 222.25,-62.56"/>
</a>
</g>
</g>
<!-- Node8 -->
<g id="Node000008" class="node">
<title>Node8</title>
<g id="a_Node000008"><a xlink:href="class_o_c_a_1_1_c_a_f_e_v_d_b_1_1_email_form_1_1_recipients_filter.html#a85f86aca4c8ab5404203209c76241c7e" target="_top" xlink:title=" ">
<polygon fill="white" stroke="#666666" points="327.12,-20 227.88,-20 227.88,0 327.12,0 327.12,-20"/>
<text text-anchor="middle" x="277.5" y="-6.5" font-family="Helvetica,sans-Serif" font-size="10.00">selectedRecipients</text>
</a>
</g>
</g>
<!-- Node1&#45;&gt;Node8 -->
<g id="edge8_Node000001_Node000008" class="edge">
<title>Node1&#45;&gt;Node8</title>
<g id="a_edge8_Node000001_Node000008"><a xlink:title=" ">
<path fill="none" stroke="#63b8ff" d="M108.92,-75.57C132.92,-63.35 174.55,-43 211.75,-29 216.5,-27.21 221.51,-25.48 226.53,-23.85"/>
<polygon fill="#63b8ff" stroke="#63b8ff" points="227.55,-27.2 236.05,-20.87 225.47,-20.51 227.55,-27.2"/>
</a>
</g>
</g>
<!-- Node4 -->
<g id="Node000004" class="node">
<title>Node4</title>
<g id="a_Node000004"><a xlink:href="class_o_c_a_1_1_c_a_f_e_v_d_b_1_1_email_form_1_1_recipients_filter.html#a75227e334f1b3d4bd04bcc2ddf2c9c5d" target="_top" xlink:title=" ">
<polygon fill="white" stroke="#666666" points="498.75,-134 379.25,-134 379.25,-114 498.75,-114 498.75,-134"/>
<text text-anchor="middle" x="439" y="-120.5" font-family="Helvetica,sans-Serif" font-size="10.00">recipientsExceptProject</text>
</a>
</g>
</g>
<!-- Node3&#45;&gt;Node4 -->
<g id="edge3_Node000003_Node000004" class="edge">
<title>Node3&#45;&gt;Node4</title>
<g id="a_edge3_Node000003_Node000004"><a xlink:title=" ">
<path fill="none" stroke="#63b8ff" d="M320.82,-124C335.16,-124 351.58,-124 367.5,-124"/>
<polygon fill="#63b8ff" stroke="#63b8ff" points="367.45,-127.5 377.45,-124 367.45,-120.5 367.45,-127.5"/>
</a>
</g>
</g>
<!-- Node6 -->
<g id="Node000006" class="node">
<title>Node6</title>
<g id="a_Node000006"><a xlink:href="class_o_c_a_1_1_c_a_f_e_v_d_b_1_1_email_form_1_1_recipients_filter.html#a1497fe5acb2403ca1873ec2fd4b790fe" target="_top" xlink:title="Fetch a CGI&#45;variable out of the form&#45;select name&#45;space.">
<polygon fill="white" stroke="#666666" points="465.38,-58 412.62,-58 412.62,-38 465.38,-38 465.38,-58"/>
<text text-anchor="middle" x="439" y="-44.5" font-family="Helvetica,sans-Serif" font-size="10.00">cgiValue</text>
</a>
</g>
</g>
<!-- Node5&#45;&gt;Node6 -->
<g id="edge5_Node000005_Node000006" class="edge">
<title>Node5&#45;&gt;Node6</title>
<g id="a_edge5_Node000005_Node000006"><a xlink:title=" ">
<path fill="none" stroke="#63b8ff" d="M322.51,-75.52C347.39,-69.59 378.12,-62.27 401.63,-56.66"/>
<polygon fill="#63b8ff" stroke="#63b8ff" points="402.14,-60.14 411.06,-54.42 400.52,-53.33 402.14,-60.14"/>
</a>
</g>
</g>
<!-- Node7&#45;&gt;Node6 -->
<g id="edge7_Node000007_Node000006" class="edge">
<title>Node7&#45;&gt;Node6</title>
<g id="a_edge7_Node000007_Node000006"><a xlink:title=" ">
<path fill="none" stroke="#63b8ff" d="M322.08,-48C346.86,-48 377.55,-48 401.12,-48"/>
<polygon fill="#63b8ff" stroke="#63b8ff" points="400.88,-51.5 410.88,-48 400.88,-44.5 400.88,-51.5"/>
</a>
</g>
</g>
<!-- Node8&#45;&gt;Node6 -->
<g id="edge9_Node000008_Node000006" class="edge">
<title>Node8&#45;&gt;Node6</title>
<g id="a_edge9_Node000008_Node000006"><a xlink:title=" ">
<path fill="none" stroke="#63b8ff" d="M322.51,-20.48C347.39,-26.41 378.12,-33.73 401.63,-39.34"/>
<polygon fill="#63b8ff" stroke="#63b8ff" points="400.52,-42.67 411.06,-41.58 402.14,-35.86 400.52,-42.67"/>
</a>
</g>
</g>
</g>
</svg>
