<?xml version="1.0" encoding="UTF-8" standalone="no"?>
<!DOCTYPE svg PUBLIC "-//W3C//DTD SVG 1.1//EN"
 "http://www.w3.org/Graphics/SVG/1.1/DTD/svg11.dtd">
<!-- Generated by graphviz version 9.0.0 (20230911.1827)
 -->
<!-- Title: accessClass Pages: 1 -->
<svg width="310pt" height="66pt"
 viewBox="0.00 0.00 310.25 66.00" xmlns="http://www.w3.org/2000/svg" xmlns:xlink="http://www.w3.org/1999/xlink">
<g id="graph0" class="graph" transform="scale(1 1) rotate(0) translate(4 62)">
<title>accessClass</title>
<!-- Node1 -->
<g id="Node000001" class="node">
<title>Node1</title>
<g id="a_Node000001"><a xlink:title=" ">
<polygon fill="#999999" stroke="#666666" points="302.25,-39 229.25,-39 229.25,-19 302.25,-19 302.25,-39"/>
<text text-anchor="middle" x="265.75" y="-25.5" font-family="Helvetica,sans-Serif" font-size="10.00">accessClass</text>
</a>
</g>
</g>
<!-- Node2 -->
<g id="Node000002" class="node">
<title>Node2</title>
<g id="a_Node000002"><a xlink:href="class_o_c_a_1_1_c_a_f_e_v_d_b_1_1_controller_1_1_legacy_events_controller.html#a450a21c4fa0b70707a5fd8aaf6a96466" target="_top" xlink:title="Edit an existing event.">
<polygon fill="white" stroke="#666666" points="193.25,-58 113.5,-58 113.5,-38 193.25,-38 193.25,-58"/>
<text text-anchor="middle" x="153.38" y="-44.5" font-family="Helvetica,sans-Serif" font-size="10.00">editEventForm</text>
</a>
</g>
</g>
<!-- Node1&#45;&gt;Node2 -->
<g id="edge1_Node000001_Node000002" class="edge">
<title>Node1&#45;&gt;Node2</title>
<g id="a_edge1_Node000001_Node000002"><a xlink:title=" ">
<path fill="none" stroke="#63b8ff" d="M217.72,-37.1C209.63,-38.49 201.31,-39.92 193.46,-41.27"/>
<polygon fill="#63b8ff" stroke="#63b8ff" points="218.16,-40.57 227.42,-35.43 216.97,-33.67 218.16,-40.57"/>
</a>
</g>
</g>
<!-- Node4 -->
<g id="Node000004" class="node">
<title>Node4</title>
<g id="a_Node000004"><a xlink:href="class_o_c_a_1_1_c_a_f_e_v_d_b_1_1_controller_1_1_legacy_events_controller.html#a6776b2fe4827e91b061b815f7730c89b" target="_top" xlink:title=" ">
<polygon fill="white" stroke="#666666" points="187.62,-20 119.12,-20 119.12,0 187.62,0 187.62,-20"/>
<text text-anchor="middle" x="153.38" y="-6.5" font-family="Helvetica,sans-Serif" font-size="10.00">exportEvent</text>
</a>
</g>
</g>
<!-- Node1&#45;&gt;Node4 -->
<g id="edge3_Node000001_Node000004" class="edge">
<title>Node1&#45;&gt;Node4</title>
<g id="a_edge3_Node000001_Node000004"><a xlink:title=" ">
<path fill="none" stroke="#63b8ff" d="M217.76,-20.91C207.68,-19.18 197.23,-17.38 187.78,-15.75"/>
<polygon fill="#63b8ff" stroke="#63b8ff" points="216.97,-24.33 227.42,-22.57 218.16,-17.43 216.97,-24.33"/>
</a>
</g>
</g>
<!-- Node3 -->
<g id="Node000003" class="node">
<title>Node3</title>
<g id="a_Node000003"><a xlink:href="class_o_c_a_1_1_c_a_f_e_v_d_b_1_1_controller_1_1_legacy_events_controller.html#afb2b279685e17177b18b747ea3595482" target="_top" xlink:title=" ">
<polygon fill="white" stroke="#666666" points="77.5,-39 0,-39 0,-19 77.5,-19 77.5,-39"/>
<text text-anchor="middle" x="38.75" y="-25.5" font-family="Helvetica,sans-Serif" font-size="10.00">serviceSwitch</text>
</a>
</g>
</g>
<!-- Node2&#45;&gt;Node3 -->
<g id="edge2_Node000002_Node000003" class="edge">
<title>Node2&#45;&gt;Node3</title>
<g id="a_edge2_Node000002_Node000003"><a xlink:title=" ">
<path fill="none" stroke="#63b8ff" d="M102.06,-39.51C93.98,-38.15 85.73,-36.76 78,-35.45"/>
<polygon fill="#63b8ff" stroke="#63b8ff" points="101.36,-42.94 111.81,-41.16 102.53,-36.04 101.36,-42.94"/>
</a>
</g>
</g>
<!-- Node4&#45;&gt;Node3 -->
<g id="edge4_Node000004_Node000003" class="edge">
<title>Node4&#45;&gt;Node3</title>
<g id="a_edge4_Node000004_Node000003"><a xlink:title=" ">
<path fill="none" stroke="#63b8ff" d="M107.56,-17.56C97.66,-19.23 87.25,-20.99 77.65,-22.61"/>
<polygon fill="#63b8ff" stroke="#63b8ff" points="108.12,-21.02 117.4,-15.9 106.95,-14.11 108.12,-21.02"/>
</a>
</g>
</g>
</g>
</svg>
