<?xml version="1.0" encoding="UTF-8" standalone="no"?>
<!DOCTYPE svg PUBLIC "-//W3C//DTD SVG 1.1//EN"
 "http://www.w3.org/Graphics/SVG/1.1/DTD/svg11.dtd">
<!-- Generated by graphviz version 8.0.3 (20230416.2022)
 -->
<!-- Title: getDefaultFontName Pages: 1 -->
<svg width="764pt" height="27pt"
 viewBox="0.00 0.00 764.00 27.00" xmlns="http://www.w3.org/2000/svg" xmlns:xlink="http://www.w3.org/1999/xlink">
<g id="graph0" class="graph" transform="scale(1 1) rotate(0) translate(4 23)">
<title>getDefaultFontName</title>
<!-- Node1 -->
<g id="node1" class="node">
<title>Node1</title>
<g id="a_node1"><a xlink:title="Return the chosen font&#45;default if it is available and set, otherwise one of the installed fonts.">
<polygon fill="#999999" stroke="#666666" points="107,-19 0,-19 0,0 107,0 107,-19"/>
<text text-anchor="middle" x="53.5" y="-7" font-family="Helvetica,sans-Serif" font-size="10.00">getDefaultFontName</text>
</a>
</g>
</g>
<!-- Node2 -->
<g id="node2" class="node">
<title>Node2</title>
<g id="a_node2"><a xlink:href="class_o_c_a_1_1_c_a_f_e_v_d_b_1_1_service_1_1_font_service.html#a4f12fbd8873025e70264e416c3cb9308" target="_top" xlink:title="Check whether the given font.">
<polygon fill="white" stroke="#666666" points="226,-19 143,-19 143,0 226,0 226,-19"/>
<text text-anchor="middle" x="184.5" y="-7" font-family="Helvetica,sans-Serif" font-size="10.00">isFontAvailable</text>
</a>
</g>
</g>
<!-- Node1&#45;&gt;Node2 -->
<g id="edge1" class="edge">
<title>Node1&#45;&gt;Node2</title>
<path fill="none" stroke="#63b8ff" d="M107.34,-9.5C115.47,-9.5 123.86,-9.5 131.96,-9.5"/>
<polygon fill="#63b8ff" stroke="#63b8ff" points="131.79,-13 141.79,-9.5 131.79,-6 131.79,-13"/>
</g>
<!-- Node3 -->
<g id="node3" class="node">
<title>Node3</title>
<g id="a_node3"><a xlink:href="class_o_c_a_1_1_c_a_f_e_v_d_b_1_1_service_1_1_font_service.html#ad4a3b7b4eedfc6652afc11bd2f63a89e" target="_top" xlink:title="Obtain the cached contents of the font&#45;folder, grouped by family.">
<polygon fill="white" stroke="#666666" points="369,-19 262,-19 262,0 369,0 369,-19"/>
<text text-anchor="middle" x="315.5" y="-7" font-family="Helvetica,sans-Serif" font-size="10.00">getFontFolderEntries</text>
</a>
</g>
</g>
<!-- Node2&#45;&gt;Node3 -->
<g id="edge2" class="edge">
<title>Node2&#45;&gt;Node3</title>
<path fill="none" stroke="#63b8ff" d="M226.32,-9.5C234.12,-9.5 242.46,-9.5 250.78,-9.5"/>
<polygon fill="#63b8ff" stroke="#63b8ff" points="250.66,-13 260.66,-9.5 250.66,-6 250.66,-13"/>
</g>
<!-- Node4 -->
<g id="node4" class="node">
<title>Node4</title>
<g id="a_node4"><a xlink:href="class_o_c_a_1_1_c_a_f_e_v_d_b_1_1_service_1_1_font_service.html#a11370c328f78412deb89ea3a113e01dc" target="_top" xlink:title="Scan the app&#39;s fonts folder and return the contents grouped by font family.">
<polygon fill="white" stroke="#666666" points="494,-19 405,-19 405,0 494,0 494,-19"/>
<text text-anchor="middle" x="449.5" y="-7" font-family="Helvetica,sans-Serif" font-size="10.00">scanFontsFolder</text>
</a>
</g>
</g>
<!-- Node3&#45;&gt;Node4 -->
<g id="edge3" class="edge">
<title>Node3&#45;&gt;Node4</title>
<path fill="none" stroke="#63b8ff" d="M369.43,-9.5C377.52,-9.5 385.88,-9.5 394,-9.5"/>
<polygon fill="#63b8ff" stroke="#63b8ff" points="393.87,-13 403.87,-9.5 393.87,-6 393.87,-13"/>
</g>
<!-- Node5 -->
<g id="node5" class="node">
<title>Node5</title>
<g id="a_node5"><a xlink:href="class_o_c_a_1_1_c_a_f_e_v_d_b_1_1_service_1_1_font_service.html#a77513dce29558f6d1474fb786b9ef885" target="_top" xlink:title=" ">
<polygon fill="white" stroke="#666666" points="638,-19 530,-19 530,0 638,0 638,-19"/>
<text text-anchor="middle" x="584" y="-7" font-family="Helvetica,sans-Serif" font-size="10.00">getFontsFolderName</text>
</a>
</g>
</g>
<!-- Node4&#45;&gt;Node5 -->
<g id="edge4" class="edge">
<title>Node4&#45;&gt;Node5</title>
<path fill="none" stroke="#63b8ff" d="M494.25,-9.5C502.11,-9.5 510.46,-9.5 518.76,-9.5"/>
<polygon fill="#63b8ff" stroke="#63b8ff" points="518.6,-13 528.6,-9.5 518.6,-6 518.6,-13"/>
</g>
<!-- Node6 -->
<g id="node6" class="node">
<title>Node6</title>
<g id="a_node6"><a xlink:href="class_o_c_a_1_1_c_a_f_e_v_d_b_1_1_service_1_1_font_service.html#a1548029c9c58b03ee3a95f9d5c143920" target="_top" xlink:title=" ">
<polygon fill="white" stroke="#666666" points="756,-19 674,-19 674,0 756,0 756,-19"/>
<text text-anchor="middle" x="715" y="-7" font-family="Helvetica,sans-Serif" font-size="10.00">getFontsFolder</text>
</a>
</g>
</g>
<!-- Node5&#45;&gt;Node6 -->
<g id="edge5" class="edge">
<title>Node5&#45;&gt;Node6</title>
<path fill="none" stroke="#63b8ff" d="M638.21,-9.5C646.33,-9.5 654.68,-9.5 662.75,-9.5"/>
<polygon fill="#63b8ff" stroke="#63b8ff" points="662.52,-13 672.52,-9.5 662.52,-6 662.52,-13"/>
</g>
</g>
</svg>
