<?xml version="1.0" encoding="UTF-8" standalone="no"?>
<!DOCTYPE svg PUBLIC "-//W3C//DTD SVG 1.1//EN"
 "http://www.w3.org/Graphics/SVG/1.1/DTD/svg11.dtd">
<!-- Generated by graphviz version 7.1.0 (20230121.1956)
 -->
<!-- Title: render Pages: 1 -->
<svg width="934pt" height="251pt"
 viewBox="0.00 0.00 934.00 251.00" xmlns="http://www.w3.org/2000/svg" xmlns:xlink="http://www.w3.org/1999/xlink">
<g id="graph0" class="graph" transform="scale(1 1) rotate(0) translate(4 247)">
<title>render</title>
<!-- Node1 -->
<g id="node1" class="node">
<title>Node1</title>
<g id="a_node1"><a xlink:title="{Show the underlying template page.This is supposed to echo html code to stdout. This is the default ...">
<polygon fill="#999999" stroke="#666666" points="44,-120.5 0,-120.5 0,-101.5 44,-101.5 44,-120.5"/>
<text text-anchor="middle" x="22" y="-108.5" font-family="Helvetica,sans-Serif" font-size="10.00">render</text>
</a>
</g>
</g>
<!-- Node2 -->
<g id="node2" class="node">
<title>Node2</title>
<g id="a_node2"><a xlink:href="class_o_c_a_1_1_c_a_f_e_v_d_b_1_1_common_1_1_util.html#a3ad8a4109147715b8c5573d1dbdb2d3d" target="_top" xlink:title="Merge $arrays recursively where later arguments in the list override the values of previous arguments...">
<polygon fill="white" stroke="#666666" points="508.5,-225 376.5,-225 376.5,-195 508.5,-195 508.5,-225"/>
<text text-anchor="start" x="384.5" y="-213" font-family="Helvetica,sans-Serif" font-size="10.00">OCA\CAFEVDB\Common</text>
<text text-anchor="middle" x="442.5" y="-202" font-family="Helvetica,sans-Serif" font-size="10.00">\Util\arrayMergeRecursive</text>
</a>
</g>
</g>
<!-- Node1&#45;&gt;Node2 -->
<g id="edge1" class="edge">
<title>Node1&#45;&gt;Node2</title>
<path fill="none" stroke="#63b8ff" d="M27.45,-120.83C35.39,-137.05 53.66,-169.03 80,-183 169.15,-230.31 288.46,-228.94 365.17,-221.32"/>
<polygon fill="#63b8ff" stroke="#63b8ff" points="365.08,-224.85 374.66,-220.31 364.35,-217.88 365.08,-224.85"/>
</g>
<!-- Node4 -->
<g id="node4" class="node">
<title>Node4</title>
<g id="a_node4"><a xlink:href="class_o_c_a_1_1_c_a_f_e_v_d_b_1_1_page_renderer_1_1_p_m_e_table_view_base.html#a61a318b7b87e25880772a49534c096ff" target="_top" xlink:title="Define a basic join&#45;structure for phpMyEdit by using the information from self::$joinStructure.">
<polygon fill="white" stroke="#666666" points="292,-174 96,-174 96,-144 292,-144 292,-174"/>
<text text-anchor="start" x="104" y="-162" font-family="Helvetica,sans-Serif" font-size="10.00">OCA\CAFEVDB\PageRenderer</text>
<text text-anchor="middle" x="194" y="-151" font-family="Helvetica,sans-Serif" font-size="10.00">\PMETableViewBase\defineJoinStructure</text>
</a>
</g>
</g>
<!-- Node1&#45;&gt;Node4 -->
<g id="edge4" class="edge">
<title>Node1&#45;&gt;Node4</title>
<path fill="none" stroke="#63b8ff" d="M44.03,-120.98C54.63,-125.72 67.81,-131.18 80,-135 86.53,-137.05 93.33,-138.98 100.2,-140.78"/>
<polygon fill="#63b8ff" stroke="#63b8ff" points="99.03,-144.09 109.58,-143.14 100.74,-137.31 99.03,-144.09"/>
</g>
<!-- Node6 -->
<g id="node6" class="node">
<title>Node6</title>
<g id="a_node6"><a xlink:href="class_o_c_a_1_1_c_a_f_e_v_d_b_1_1_page_renderer_1_1_p_m_e_table_view_base.html#aa55b0bcba8682486d2ad67ca15019ab5" target="_top" xlink:title="Run underlying table&#45;manager (phpMyEdit for now).">
<polygon fill="white" stroke="#666666" points="271.5,-78 116.5,-78 116.5,-48 271.5,-48 271.5,-78"/>
<text text-anchor="start" x="124.5" y="-66" font-family="Helvetica,sans-Serif" font-size="10.00">OCA\CAFEVDB\PageRenderer</text>
<text text-anchor="middle" x="194" y="-55" font-family="Helvetica,sans-Serif" font-size="10.00">\PMETableViewBase\execute</text>
</a>
</g>
</g>
<!-- Node1&#45;&gt;Node6 -->
<g id="edge6" class="edge">
<title>Node1&#45;&gt;Node6</title>
<path fill="none" stroke="#63b8ff" d="M44.03,-101.02C54.63,-96.28 67.81,-90.82 80,-87 88.14,-84.45 96.7,-82.08 105.3,-79.91"/>
<polygon fill="#63b8ff" stroke="#63b8ff" points="105.84,-83.38 114.74,-77.62 104.19,-76.58 105.84,-83.38"/>
</g>
<!-- Node7 -->
<g id="node7" class="node">
<title>Node7</title>
<g id="a_node7"><a xlink:href="class_o_c_a_1_1_c_a_f_e_v_d_b_1_1_page_renderer_1_1_p_m_e_table_view_base.html#a1f1e3a7628fefdebfcff97c388d72bb1" target="_top" xlink:title="Join with an in&#45;database translation table.">
<polygon fill="white" stroke="#666666" points="308,-30 80,-30 80,0 308,0 308,-30"/>
<text text-anchor="start" x="88" y="-18" font-family="Helvetica,sans-Serif" font-size="10.00">OCA\CAFEVDB\PageRenderer</text>
<text text-anchor="middle" x="194" y="-7" font-family="Helvetica,sans-Serif" font-size="10.00">\PMETableViewBase\makeFieldTranslationsJoin</text>
</a>
</g>
</g>
<!-- Node1&#45;&gt;Node7 -->
<g id="edge7" class="edge">
<title>Node1&#45;&gt;Node7</title>
<path fill="none" stroke="#63b8ff" d="M27.94,-101.05C36.33,-85.22 54.94,-54.55 80,-39 82.15,-37.67 84.35,-36.41 86.61,-35.22"/>
<polygon fill="#63b8ff" stroke="#63b8ff" points="87.88,-38.49 95.44,-31.08 84.9,-32.16 87.88,-38.49"/>
</g>
<!-- Node8 -->
<g id="node8" class="node">
<title>Node8</title>
<g id="a_node8"><a xlink:href="class_o_c_a_1_1_c_a_f_e_v_d_b_1_1_page_renderer_1_1_p_m_e_table_view_base.html#a4bc3294be95e06a40ae3bdc7d5419749" target="_top" xlink:title="Generate a join&#45;table field, given join&#45;table and field name.">
<polygon fill="white" stroke="#666666" points="293,-126 95,-126 95,-96 293,-96 293,-126"/>
<text text-anchor="start" x="103" y="-114" font-family="Helvetica,sans-Serif" font-size="10.00">OCA\CAFEVDB\PageRenderer</text>
<text text-anchor="middle" x="194" y="-103" font-family="Helvetica,sans-Serif" font-size="10.00">\PMETableViewBase\makeJoinTableField</text>
</a>
</g>
</g>
<!-- Node1&#45;&gt;Node8 -->
<g id="edge8" class="edge">
<title>Node1&#45;&gt;Node8</title>
<path fill="none" stroke="#63b8ff" d="M44.19,-111C54.76,-111 68.42,-111 83.19,-111"/>
<polygon fill="#63b8ff" stroke="#63b8ff" points="83.15,-114.5 93.15,-111 83.15,-107.5 83.15,-114.5"/>
</g>
<!-- Node3 -->
<g id="node3" class="node">
<title>Node3</title>
<g id="a_node3"><a xlink:href="class_o_c_a_1_1_c_a_f_e_v_d_b_1_1_common_1_1_util.html#a9396752fa41df5ffcd301d52263367f9" target="_top" xlink:title="Inner work&#45;horse for arrayMergeRecursive.">
<polygon fill="white" stroke="#666666" points="730.5,-225 581.5,-225 581.5,-195 730.5,-195 730.5,-225"/>
<text text-anchor="start" x="589.5" y="-213" font-family="Helvetica,sans-Serif" font-size="10.00">OCA\CAFEVDB\Common</text>
<text text-anchor="middle" x="656" y="-202" font-family="Helvetica,sans-Serif" font-size="10.00">\Util\arrayMergeTwoRecursive</text>
</a>
</g>
</g>
<!-- Node2&#45;&gt;Node3 -->
<g id="edge2" class="edge">
<title>Node2&#45;&gt;Node3</title>
<path fill="none" stroke="#63b8ff" d="M508.97,-210C528.23,-210 549.58,-210 569.88,-210"/>
<polygon fill="#63b8ff" stroke="#63b8ff" points="569.84,-213.5 579.84,-210 569.84,-206.5 569.84,-213.5"/>
</g>
<!-- Node3&#45;&gt;Node3 -->
<g id="edge3" class="edge">
<title>Node3&#45;&gt;Node3</title>
<path fill="none" stroke="#63b8ff" d="M622.16,-225.28C614.64,-234.41 625.92,-243 656,-243 672.45,-243 683.28,-240.43 688.48,-236.61"/>
<polygon fill="#63b8ff" stroke="#63b8ff" points="691.94,-237.12 689.66,-226.78 684.99,-236.29 691.94,-237.12"/>
</g>
<!-- Node5 -->
<g id="node5" class="node">
<title>Node5</title>
<g id="a_node5"><a xlink:href="class_o_c_a_1_1_c_a_f_e_v_d_b_1_1_page_renderer_1_1_p_m_e_table_view_base.html#a67e29f07640bea5f1c3132bb88270a2b" target="_top" xlink:title="The name of the master join table field which triggers PME to actually do the join.">
<polygon fill="white" stroke="#666666" points="532.5,-176.5 352.5,-176.5 352.5,-135.5 532.5,-135.5 532.5,-176.5"/>
<text text-anchor="start" x="360.5" y="-164.5" font-family="Helvetica,sans-Serif" font-size="10.00">OCA\CAFEVDB\PageRenderer</text>
<text text-anchor="start" x="360.5" y="-153.5" font-family="Helvetica,sans-Serif" font-size="10.00">\PMETableViewBase\joinTableMaster</text>
<text text-anchor="middle" x="442.5" y="-142.5" font-family="Helvetica,sans-Serif" font-size="10.00">FieldName</text>
</a>
</g>
</g>
<!-- Node4&#45;&gt;Node5 -->
<g id="edge5" class="edge">
<title>Node4&#45;&gt;Node5</title>
<path fill="none" stroke="#63b8ff" d="M292.42,-157.81C308.5,-157.62 325.18,-157.42 341.32,-157.22"/>
<polygon fill="#63b8ff" stroke="#63b8ff" points="340.92,-160.72 350.88,-157.1 340.84,-153.72 340.92,-160.72"/>
</g>
<!-- Node8&#45;&gt;Node2 -->
<g id="edge13" class="edge">
<title>Node8&#45;&gt;Node2</title>
<path fill="none" stroke="#63b8ff" d="M292.24,-126.47C297.76,-128.92 303.06,-131.74 308,-135 331.17,-150.27 321.08,-170.36 344,-186 350.51,-190.44 357.76,-194.06 365.28,-197.01"/>
<polygon fill="#63b8ff" stroke="#63b8ff" points="364.04,-200.29 374.63,-200.26 366.33,-193.67 364.04,-200.29"/>
</g>
<!-- Node8&#45;&gt;Node5 -->
<g id="edge15" class="edge">
<title>Node8&#45;&gt;Node5</title>
<path fill="none" stroke="#63b8ff" d="M279.83,-126.49C299.57,-130.09 320.77,-133.96 341.11,-137.67"/>
<polygon fill="#63b8ff" stroke="#63b8ff" points="340.36,-141.09 350.82,-139.45 341.61,-134.21 340.36,-141.09"/>
</g>
<!-- Node9 -->
<g id="node9" class="node">
<title>Node9</title>
<g id="a_node9"><a xlink:href="class_o_c_a_1_1_c_a_f_e_v_d_b_1_1_page_renderer_1_1_p_m_e_table_view_base.html#a8a9d6dd0754451d7214ed760a2179bd4" target="_top" xlink:title="Add a &quot;slug&quot; as tooltips&#45;index and css&#45;class.">
<polygon fill="white" stroke="#666666" points="520,-117 365,-117 365,-87 520,-87 520,-117"/>
<text text-anchor="start" x="373" y="-105" font-family="Helvetica,sans-Serif" font-size="10.00">OCA\CAFEVDB\PageRenderer</text>
<text text-anchor="middle" x="442.5" y="-94" font-family="Helvetica,sans-Serif" font-size="10.00">\PMETableViewBase\addSlug</text>
</a>
</g>
</g>
<!-- Node8&#45;&gt;Node9 -->
<g id="edge9" class="edge">
<title>Node8&#45;&gt;Node9</title>
<path fill="none" stroke="#63b8ff" d="M293.49,-107.4C313.33,-106.68 334.06,-105.92 353.52,-105.21"/>
<polygon fill="#63b8ff" stroke="#63b8ff" points="353.43,-108.72 363.3,-104.86 353.17,-101.72 353.43,-108.72"/>
</g>
<!-- Node12 -->
<g id="node12" class="node">
<title>Node12</title>
<g id="a_node12"><a xlink:href="class_o_c_a_1_1_c_a_f_e_v_d_b_1_1_page_renderer_1_1_p_m_e_table_view_base.html#abe18704ee0189ac55323c93db488770c" target="_top" xlink:title="The name of the field&#45;descriptor for a join&#45;table field referencing a master&#45;join&#45;table.">
<polygon fill="white" stroke="#666666" points="541,-69 344,-69 344,-39 541,-39 541,-69"/>
<text text-anchor="start" x="352" y="-57" font-family="Helvetica,sans-Serif" font-size="10.00">OCA\CAFEVDB\PageRenderer</text>
<text text-anchor="middle" x="442.5" y="-46" font-family="Helvetica,sans-Serif" font-size="10.00">\PMETableViewBase\joinTableFieldName</text>
</a>
</g>
</g>
<!-- Node8&#45;&gt;Node12 -->
<g id="edge14" class="edge">
<title>Node8&#45;&gt;Node12</title>
<path fill="none" stroke="#63b8ff" d="M269.54,-95.56C282.39,-92.79 295.59,-89.87 308,-87 324.07,-83.29 327.99,-81.97 344,-78 351.59,-76.12 359.51,-74.16 367.42,-72.2"/>
<polygon fill="#63b8ff" stroke="#63b8ff" points="368.21,-75.61 377.08,-69.82 366.54,-68.82 368.21,-75.61"/>
</g>
<!-- Node10 -->
<g id="node10" class="node">
<title>Node10</title>
<g id="a_node10"><a xlink:href="class_o_c_a_1_1_c_a_f_e_v_d_b_1_1_page_renderer_1_1_p_m_e_table_view_base.html#aee57cb8d60602879f6a65e257cdcbf63" target="_top" xlink:title=" ">
<polygon fill="white" stroke="#666666" points="926,-116 771,-116 771,-86 926,-86 926,-116"/>
<text text-anchor="start" x="779" y="-104" font-family="Helvetica,sans-Serif" font-size="10.00">OCA\CAFEVDB\PageRenderer</text>
<text text-anchor="middle" x="848.5" y="-93" font-family="Helvetica,sans-Serif" font-size="10.00">\PMETableViewBase\cssClass</text>
</a>
</g>
</g>
<!-- Node9&#45;&gt;Node10 -->
<g id="edge10" class="edge">
<title>Node9&#45;&gt;Node10</title>
<path fill="none" stroke="#63b8ff" d="M520.22,-103.37C579.01,-104.22 662.13,-104.97 735,-104 742.92,-103.89 751.16,-103.75 759.41,-103.57"/>
<polygon fill="#63b8ff" stroke="#63b8ff" points="759.22,-107.08 769.14,-103.36 759.06,-100.08 759.22,-107.08"/>
</g>
<!-- Node11 -->
<g id="node11" class="node">
<title>Node11</title>
<g id="a_node11"><a xlink:href="class_o_c_a_1_1_c_a_f_e_v_d_b_1_1_page_renderer_1_1_p_m_e_table_view_base.html#a166d2dbd24c4913a9461c5813bbb4232" target="_top" xlink:title="Generate a &quot;unified&quot; tooltip&#45;slug in order to obtain tool&#45;tips from the ToolTipsService.">
<polygon fill="white" stroke="#666666" points="735,-95 577,-95 577,-65 735,-65 735,-95"/>
<text text-anchor="start" x="585" y="-83" font-family="Helvetica,sans-Serif" font-size="10.00">OCA\CAFEVDB\PageRenderer</text>
<text text-anchor="middle" x="656" y="-72" font-family="Helvetica,sans-Serif" font-size="10.00">\PMETableViewBase\tooltipSlug</text>
</a>
</g>
</g>
<!-- Node9&#45;&gt;Node11 -->
<g id="edge11" class="edge">
<title>Node9&#45;&gt;Node11</title>
<path fill="none" stroke="#63b8ff" d="M520.45,-94C535.04,-92.48 550.42,-90.88 565.36,-89.32"/>
<polygon fill="#63b8ff" stroke="#63b8ff" points="565.59,-92.82 575.18,-88.3 564.87,-85.86 565.59,-92.82"/>
</g>
<!-- Node11&#45;&gt;Node10 -->
<g id="edge12" class="edge">
<title>Node11&#45;&gt;Node10</title>
<path fill="none" stroke="#63b8ff" d="M735.31,-88.63C743.26,-89.51 751.37,-90.4 759.42,-91.29"/>
<polygon fill="#63b8ff" stroke="#63b8ff" points="758.9,-94.75 769.22,-92.37 759.66,-87.8 758.9,-94.75"/>
</g>
</g>
</svg>
