<?xml version="1.0" encoding="UTF-8" standalone="no"?>
<!DOCTYPE svg PUBLIC "-//W3C//DTD SVG 1.1//EN"
 "http://www.w3.org/Graphics/SVG/1.1/DTD/svg11.dtd">
<!-- Generated by graphviz version 9.0.0 (20230911.1827)
 -->
<!-- Title: ArchiveCannotOpenException Pages: 1 -->
<svg width="155pt" height="196pt"
 viewBox="0.00 0.00 155.25 196.00" xmlns="http://www.w3.org/2000/svg" xmlns:xlink="http://www.w3.org/1999/xlink">
<g id="graph0" class="graph" transform="scale(1 1) rotate(0) translate(4 192)">
<title>ArchiveCannotOpenException</title>
<!-- Node1 -->
<g id="Node000001" class="node">
<title>Node1</title>
<g id="a_Node000001"><a xlink:title="Transparent archive extraction exception.">
<polygon fill="#999999" stroke="#666666" points="147.25,-20 0,-20 0,0 147.25,0 147.25,-20"/>
<text text-anchor="middle" x="73.62" y="-6.5" font-family="Helvetica,sans-Serif" font-size="10.00">ArchiveCannotOpenException</text>
</a>
</g>
</g>
<!-- Node2 -->
<g id="Node000002" class="node">
<title>Node2</title>
<g id="a_Node000002"><a xlink:href="class_o_c_a_1_1_c_a_f_e_v_d_b_1_1_toolkit_1_1_exceptions_1_1_archive_exception.html" target="_top" xlink:title="Transparent archive extraction exception.">
<polygon fill="white" stroke="#666666" points="119.88,-76 27.38,-76 27.38,-56 119.88,-56 119.88,-76"/>
<text text-anchor="middle" x="73.62" y="-62.5" font-family="Helvetica,sans-Serif" font-size="10.00">ArchiveException</text>
</a>
</g>
</g>
<!-- Node2&#45;&gt;Node1 -->
<g id="edge1_Node000001_Node000002" class="edge">
<title>Node2&#45;&gt;Node1</title>
<g id="a_edge1_Node000001_Node000002"><a xlink:title=" ">
<path fill="none" stroke="#63b8ff" d="M73.62,-44.13C73.62,-35.9 73.62,-26.85 73.62,-20.3"/>
<polygon fill="#63b8ff" stroke="#63b8ff" points="70.13,-44.08 73.63,-54.08 77.13,-44.08 70.13,-44.08"/>
</a>
</g>
</g>
<!-- Node3 -->
<g id="Node000003" class="node">
<title>Node3</title>
<g id="a_Node000003"><a xlink:href="class_o_c_a_1_1_c_a_f_e_v_d_b_1_1_toolkit_1_1_exceptions_1_1_exception.html" target="_top" xlink:title="Exception class abstaction.">
<polygon fill="white" stroke="#666666" points="103.38,-132 43.88,-132 43.88,-112 103.38,-112 103.38,-132"/>
<text text-anchor="middle" x="73.62" y="-118.5" font-family="Helvetica,sans-Serif" font-size="10.00">Exception</text>
</a>
</g>
</g>
<!-- Node3&#45;&gt;Node2 -->
<g id="edge2_Node000002_Node000003" class="edge">
<title>Node3&#45;&gt;Node2</title>
<g id="a_edge2_Node000002_Node000003"><a xlink:title=" ">
<path fill="none" stroke="#63b8ff" d="M73.62,-100.13C73.62,-91.9 73.62,-82.85 73.62,-76.3"/>
<polygon fill="#63b8ff" stroke="#63b8ff" points="70.13,-100.08 73.63,-110.08 77.13,-100.08 70.13,-100.08"/>
</a>
</g>
</g>
<!-- Node4 -->
<g id="Node000004" class="node">
<title>Node4</title>
<g id="a_Node000004"><a xlink:title=" ">
<polygon fill="white" stroke="#bfbfbf" points="103.38,-188 43.88,-188 43.88,-168 103.38,-168 103.38,-188"/>
<text text-anchor="middle" x="73.62" y="-174.5" font-family="Helvetica,sans-Serif" font-size="10.00">Exception</text>
</a>
</g>
</g>
<!-- Node4&#45;&gt;Node3 -->
<g id="edge3_Node000003_Node000004" class="edge">
<title>Node4&#45;&gt;Node3</title>
<g id="a_edge3_Node000003_Node000004"><a xlink:title=" ">
<path fill="none" stroke="#63b8ff" d="M73.62,-156.13C73.62,-147.9 73.62,-138.85 73.62,-132.3"/>
<polygon fill="#63b8ff" stroke="#63b8ff" points="70.13,-156.08 73.63,-166.08 77.13,-156.08 70.13,-156.08"/>
</a>
</g>
</g>
</g>
</svg>
