<?xml version="1.0" encoding="UTF-8" standalone="no"?>
<!DOCTYPE svg PUBLIC "-//W3C//DTD SVG 1.1//EN"
 "http://www.w3.org/Graphics/SVG/1.1/DTD/svg11.dtd">
<!-- Generated by graphviz version 9.0.0 (20230911.1827)
 -->
<!-- Title: getLocale Pages: 1 -->
<svg width="217pt" height="198pt"
 viewBox="0.00 0.00 217.00 198.00" xmlns="http://www.w3.org/2000/svg" xmlns:xlink="http://www.w3.org/1999/xlink">

<svg id="main" version="1.1" xmlns="http://www.w3.org/2000/svg" xmlns:xlink="http://www.w3.org/1999/xlink" xml:space="preserve" onload="init(evt)">
<style type="text/css"><![CDATA[
.node, .edge {opacity: 0.7;}
.node.selected, .edge.selected {opacity: 1;}
.edge:hover path { stroke: red; }
.edge:hover polygon { stroke: red; fill: red; }
]]></style>
<script type="application/ecmascript" xlink:href="svg.min.js"/>
<svg id="graph" class="graph">
<g id="graph0" class="graph" transform="scale(1 1) rotate(0) translate(4 194)">
<title>getLocale</title>
<!-- Node1 -->
<g id="Node000001" class="node">
<title>Node1</title>
<g id="a_Node000001"><a xlink:title="Return the locale as string, e.g.">
<polygon fill="#999999" stroke="#666666" points="209,-96 151,-96 151,-76 209,-76 209,-96"/>
<text text-anchor="middle" x="180" y="-82.5" font-family="Helvetica,sans-Serif" font-size="10.00">getLocale</text>
</a>
</g>
</g>
<!-- Node2 -->
<g id="Node000002" class="node">
<title>Node2</title>
<g id="a_Node000002"><a xlink:href="class_o_c_a_1_1_c_a_f_e_v_d_b_1_1_service_1_1_config_service.html#a36b4b01cbb88f7176a72e268695c0d6f" target="_top" xlink:title="Convert a float value in the given or default locale.">
<polygon fill="white" stroke="#666666" points="86.88,-190 28.12,-190 28.12,-170 86.88,-170 86.88,-190"/>
<text text-anchor="middle" x="57.5" y="-176.5" font-family="Helvetica,sans-Serif" font-size="10.00">floatValue</text>
</a>
</g>
</g>
<!-- Node1&#45;&gt;Node2 -->
<g id="edge1_Node000001_Node000002" class="edge">
<title>Node1&#45;&gt;Node2</title>
<g id="a_edge1_Node000001_Node000002"><a xlink:title=" ">
<path fill="none" stroke="#63b8ff" d="M166.65,-105.74C155.17,-122.6 136.61,-146.39 115,-161 106.68,-166.62 96.56,-170.71 87.19,-173.62"/>
<polygon fill="#63b8ff" stroke="#63b8ff" points="169.47,-107.82 172.02,-97.54 163.61,-103.99 169.47,-107.82"/>
</a>
</g>
</g>
<!-- Node3 -->
<g id="Node000003" class="node">
<title>Node3</title>
<g id="a_Node000003"><a xlink:href="class_o_c_a_1_1_c_a_f_e_v_d_b_1_1_service_1_1_config_service.html#ad50ea5d1877a5adc2e231dc935b7bffc" target="_top" xlink:title="Return the language part of the current or given locale.">
<polygon fill="white" stroke="#666666" points="93.25,-152 21.75,-152 21.75,-132 93.25,-132 93.25,-152"/>
<text text-anchor="middle" x="57.5" y="-138.5" font-family="Helvetica,sans-Serif" font-size="10.00">getLanguage</text>
</a>
</g>
</g>
<!-- Node1&#45;&gt;Node3 -->
<g id="edge2_Node000001_Node000003" class="edge">
<title>Node1&#45;&gt;Node3</title>
<g id="a_edge2_Node000001_Node000003"><a xlink:title=" ">
<path fill="none" stroke="#63b8ff" d="M153.4,-102.37C141.93,-109.29 128.07,-117.09 115,-123 108.12,-126.11 100.56,-128.99 93.28,-131.52"/>
<polygon fill="#63b8ff" stroke="#63b8ff" points="155.2,-105.37 161.88,-97.15 151.53,-99.42 155.2,-105.37"/>
</a>
</g>
</g>
<!-- Node4 -->
<g id="Node000004" class="node">
<title>Node4</title>
<g id="a_Node000004"><a xlink:href="class_o_c_a_1_1_c_a_f_e_v_d_b_1_1_service_1_1_config_service.html#aebf35da354e45247c2ee85031bfa3a82" target="_top" xlink:title=" ">
<polygon fill="white" stroke="#666666" points="111.25,-96 3.75,-96 3.75,-76 111.25,-76 111.25,-96"/>
<text text-anchor="middle" x="57.5" y="-82.5" font-family="Helvetica,sans-Serif" font-size="10.00">localeCountryNames</text>
</a>
</g>
</g>
<!-- Node1&#45;&gt;Node4 -->
<g id="edge3_Node000001_Node000004" class="edge">
<title>Node1&#45;&gt;Node4</title>
<g id="a_edge3_Node000001_Node000004"><a xlink:title=" ">
<path fill="none" stroke="#63b8ff" d="M139.51,-86C130.61,-86 121.01,-86 111.64,-86"/>
<polygon fill="#63b8ff" stroke="#63b8ff" points="139.23,-89.5 149.23,-86 139.23,-82.5 139.23,-89.5"/>
</a>
</g>
</g>
<!-- Node5 -->
<g id="Node000005" class="node">
<title>Node5</title>
<g id="a_Node000005"><a xlink:href="class_o_c_a_1_1_c_a_f_e_v_d_b_1_1_service_1_1_config_service.html#a4c1dc0e4e1b0686a92c0f6486e91b7c6" target="_top" xlink:title=" ">
<polygon fill="white" stroke="#666666" points="115,-58 0,-58 0,-38 115,-38 115,-58"/>
<text text-anchor="middle" x="57.5" y="-44.5" font-family="Helvetica,sans-Serif" font-size="10.00">localeLanguageNames</text>
</a>
</g>
</g>
<!-- Node1&#45;&gt;Node5 -->
<g id="edge5_Node000001_Node000005" class="edge">
<title>Node1&#45;&gt;Node5</title>
<g id="a_edge5_Node000001_Node000005"><a xlink:title=" ">
<path fill="none" stroke="#63b8ff" d="M139.87,-73.66C124.32,-68.76 106.62,-63.17 91.7,-58.47"/>
<polygon fill="#63b8ff" stroke="#63b8ff" points="138.71,-76.97 149.3,-76.64 140.82,-70.29 138.71,-76.97"/>
</a>
</g>
</g>
<!-- Node6 -->
<g id="Node000006" class="node">
<title>Node6</title>
<g id="a_Node000006"><a xlink:href="class_o_c_a_1_1_c_a_f_e_v_d_b_1_1_service_1_1_config_service.html#aaeb05cf94149de0821a30628a8c7bcef" target="_top" xlink:title="Convert $value to a currency value in the given or the user&#39;s locale.">
<polygon fill="white" stroke="#666666" points="92.12,-20 22.88,-20 22.88,0 92.12,0 92.12,-20"/>
<text text-anchor="middle" x="57.5" y="-6.5" font-family="Helvetica,sans-Serif" font-size="10.00">moneyValue</text>
</a>
</g>
</g>
<!-- Node1&#45;&gt;Node6 -->
<g id="edge6_Node000001_Node000006" class="edge">
<title>Node1&#45;&gt;Node6</title>
<g id="a_edge6_Node000001_Node000006"><a xlink:title=" ">
<path fill="none" stroke="#63b8ff" d="M162.17,-67.51C150.07,-55.16 132.81,-39.34 115,-29 108.02,-24.95 100.05,-21.6 92.34,-18.91"/>
<polygon fill="#63b8ff" stroke="#63b8ff" points="159.53,-69.82 168.96,-74.67 164.61,-65.01 159.53,-69.82"/>
</a>
</g>
</g>
<!-- Node4&#45;&gt;Node4 -->
<g id="edge4_Node000004_Node000004" class="edge">
<title>Node4&#45;&gt;Node4</title>
<g id="a_edge4_Node000004_Node000004"><a xlink:title=" ">
<path fill="none" stroke="#63b8ff" d="M79.15,-107.44C76.36,-111.3 69.15,-114 57.5,-114 36.21,-114 29.72,-104.98 38.04,-96.34"/>
<polygon fill="#63b8ff" stroke="#63b8ff" points="82.62,-106.96 77.26,-97.82 75.76,-108.31 82.62,-106.96"/>
</a>
</g>
</g>
</g>
</svg>
</svg>

<style type='text/css'>
<![CDATA[
[data-mouse-over-selected='false'] { opacity: 0.7; }
[data-mouse-over-selected='true']  { opacity: 1.0; }
]]>
</style>
<script type="application/ecmascript"><![CDATA[
document.addEventListener('DOMContentLoaded', (event) => {
  highlightEdges();
  highlightAdjacentNodes();
});
]]></script>
</svg>
