<?xml version="1.0" encoding="UTF-8" standalone="no"?>
<!DOCTYPE svg PUBLIC "-//W3C//DTD SVG 1.1//EN"
 "http://www.w3.org/Graphics/SVG/1.1/DTD/svg11.dtd">
<!-- Generated by graphviz version 9.0.0 (20230911.1827)
 -->
<!-- Title: getSubscriptionStatus Pages: 1 -->
<svg width="569pt" height="66pt"
 viewBox="0.00 0.00 568.75 66.00" xmlns="http://www.w3.org/2000/svg" xmlns:xlink="http://www.w3.org/1999/xlink">
<g id="graph0" class="graph" transform="scale(1 1) rotate(0) translate(4 62)">
<title>getSubscriptionStatus</title>
<!-- Node1 -->
<g id="Node000001" class="node">
<title>Node1</title>
<g id="a_Node000001"><a xlink:title="Return a brief status for the requested list and email address.">
<polygon fill="#999999" stroke="#666666" points="112,-39 0,-39 0,-19 112,-19 112,-39"/>
<text text-anchor="middle" x="56" y="-25.5" font-family="Helvetica,sans-Serif" font-size="10.00">getSubscriptionStatus</text>
</a>
</g>
</g>
<!-- Node2 -->
<g id="Node000002" class="node">
<title>Node2</title>
<g id="a_Node000002"><a xlink:href="class_o_c_a_1_1_c_a_f_e_v_d_b_1_1_service_1_1_mailing_lists_service.html#afca2835840699d3b8c7db3ab0c596cd5" target="_top" xlink:title="Find the basic information about a subscription for the given email.">
<polygon fill="white" stroke="#666666" points="249.88,-58 166.38,-58 166.38,-38 249.88,-38 249.88,-58"/>
<text text-anchor="middle" x="208.12" y="-44.5" font-family="Helvetica,sans-Serif" font-size="10.00">getSubscription</text>
</a>
</g>
</g>
<!-- Node1&#45;&gt;Node2 -->
<g id="edge1_Node000001_Node000002" class="edge">
<title>Node1&#45;&gt;Node2</title>
<g id="a_edge1_Node000001_Node000002"><a xlink:title=" ">
<path fill="none" stroke="#63b8ff" d="M112.47,-36.02C126.31,-37.77 141.1,-39.64 154.77,-41.37"/>
<polygon fill="#63b8ff" stroke="#63b8ff" points="154.09,-44.82 164.46,-42.6 154.97,-37.87 154.09,-44.82"/>
</a>
</g>
</g>
<!-- Node6 -->
<g id="Node000006" class="node">
<title>Node6</title>
<g id="a_Node000006"><a xlink:href="class_o_c_a_1_1_c_a_f_e_v_d_b_1_1_service_1_1_mailing_lists_service.html#ade1a05b11f9d74137ad1ee533133decf" target="_top" xlink:title="Get or check for a pending invitation (=== email confirmation request) for the given subscription&#45;add...">
<polygon fill="white" stroke="#666666" points="268.25,-20 148,-20 148,0 268.25,0 268.25,-20"/>
<text text-anchor="middle" x="208.12" y="-6.5" font-family="Helvetica,sans-Serif" font-size="10.00">getSubscriptionRequest</text>
</a>
</g>
</g>
<!-- Node1&#45;&gt;Node6 -->
<g id="edge5_Node000001_Node000006" class="edge">
<title>Node1&#45;&gt;Node6</title>
<g id="a_edge5_Node000001_Node000006"><a xlink:title=" ">
<path fill="none" stroke="#63b8ff" d="M112.47,-21.98C120.25,-20.99 128.33,-19.97 136.35,-18.96"/>
<polygon fill="#63b8ff" stroke="#63b8ff" points="136.61,-22.45 146.09,-17.72 135.73,-15.51 136.61,-22.45"/>
</a>
</g>
</g>
<!-- Node3 -->
<g id="Node000003" class="node">
<title>Node3</title>
<g id="a_Node000003"><a xlink:href="class_o_c_a_1_1_c_a_f_e_v_d_b_1_1_service_1_1_mailing_lists_service.html#afee0c31807c7ddcd4265d994df850134" target="_top" xlink:title="Ensure that the given string is a list&#45;id, if it is a FQDN then try to retrieve the list&#45;id.">
<polygon fill="white" stroke="#666666" points="373.5,-39 304.25,-39 304.25,-19 373.5,-19 373.5,-39"/>
<text text-anchor="middle" x="338.88" y="-25.5" font-family="Helvetica,sans-Serif" font-size="10.00">ensureListId</text>
</a>
</g>
</g>
<!-- Node2&#45;&gt;Node3 -->
<g id="edge2_Node000002_Node000003" class="edge">
<title>Node2&#45;&gt;Node3</title>
<g id="a_edge2_Node000002_Node000003"><a xlink:title=" ">
<path fill="none" stroke="#63b8ff" d="M250.22,-41.94C263.78,-39.93 278.95,-37.7 292.8,-35.65"/>
<polygon fill="#63b8ff" stroke="#63b8ff" points="293.18,-39.13 302.56,-34.21 292.16,-32.21 293.18,-39.13"/>
</a>
</g>
</g>
<!-- Node4 -->
<g id="Node000004" class="node">
<title>Node4</title>
<g id="a_Node000004"><a xlink:href="class_o_c_a_1_1_c_a_f_e_v_d_b_1_1_service_1_1_mailing_lists_service.html#ae79714b9375ce65edd9c71e2d97e06ab" target="_top" xlink:title="Fetch the list&#45;id of the given list.">
<polygon fill="white" stroke="#666666" points="463,-39 409.5,-39 409.5,-19 463,-19 463,-39"/>
<text text-anchor="middle" x="436.25" y="-25.5" font-family="Helvetica,sans-Serif" font-size="10.00">getListId</text>
</a>
</g>
</g>
<!-- Node3&#45;&gt;Node4 -->
<g id="edge3_Node000003_Node000004" class="edge">
<title>Node3&#45;&gt;Node4</title>
<g id="a_edge3_Node000003_Node000004"><a xlink:title=" ">
<path fill="none" stroke="#63b8ff" d="M373.77,-29C381.61,-29 390,-29 397.98,-29"/>
<polygon fill="#63b8ff" stroke="#63b8ff" points="397.75,-32.5 407.75,-29 397.75,-25.5 397.75,-32.5"/>
</a>
</g>
</g>
<!-- Node5 -->
<g id="Node000005" class="node">
<title>Node5</title>
<g id="a_Node000005"><a xlink:href="class_o_c_a_1_1_c_a_f_e_v_d_b_1_1_service_1_1_mailing_lists_service.html#a651ae4ad1c33811d0e985204bd2e35b8" target="_top" xlink:title=" ">
<polygon fill="white" stroke="#666666" points="560.75,-39 499,-39 499,-19 560.75,-19 560.75,-39"/>
<text text-anchor="middle" x="529.88" y="-25.5" font-family="Helvetica,sans-Serif" font-size="10.00">getListInfo</text>
</a>
</g>
</g>
<!-- Node4&#45;&gt;Node5 -->
<g id="edge4_Node000004_Node000005" class="edge">
<title>Node4&#45;&gt;Node5</title>
<g id="a_edge4_Node000004_Node000005"><a xlink:title=" ">
<path fill="none" stroke="#63b8ff" d="M463.26,-29C470.74,-29 479.09,-29 487.26,-29"/>
<polygon fill="#63b8ff" stroke="#63b8ff" points="487.07,-32.5 497.07,-29 487.07,-25.5 487.07,-32.5"/>
</a>
</g>
</g>
<!-- Node6&#45;&gt;Node3 -->
<g id="edge6_Node000006_Node000003" class="edge">
<title>Node6&#45;&gt;Node3</title>
<g id="a_edge6_Node000006_Node000003"><a xlink:title=" ">
<path fill="none" stroke="#63b8ff" d="M268.6,-18.78C276.65,-19.97 284.8,-21.17 292.55,-22.31"/>
<polygon fill="#63b8ff" stroke="#63b8ff" points="292.04,-25.77 302.44,-23.77 293.06,-18.85 292.04,-25.77"/>
</a>
</g>
</g>
</g>
</svg>
