<?xml version="1.0" encoding="UTF-8" standalone="no"?>
<!DOCTYPE svg PUBLIC "-//W3C//DTD SVG 1.1//EN"
 "http://www.w3.org/Graphics/SVG/1.1/DTD/svg11.dtd">
<!-- Generated by graphviz version 9.0.0 (20230911.1827)
 -->
<!-- Title: is_dir Pages: 1 -->
<svg width="429pt" height="66pt"
 viewBox="0.00 0.00 429.00 66.00" xmlns="http://www.w3.org/2000/svg" xmlns:xlink="http://www.w3.org/1999/xlink">
<g id="graph0" class="graph" transform="scale(1 1) rotate(0) translate(4 62)">
<title>is_dir</title>
<!-- Node1 -->
<g id="Node000001" class="node">
<title>Node1</title>
<g id="a_Node000001"><a xlink:title="{}">
<polygon fill="#999999" stroke="#666666" points="39.25,-39 0,-39 0,-19 39.25,-19 39.25,-39"/>
<text text-anchor="middle" x="19.62" y="-25.5" font-family="Helvetica,sans-Serif" font-size="10.00">is_dir</text>
</a>
</g>
</g>
<!-- Node2 -->
<g id="Node000002" class="node">
<title>Node2</title>
<g id="a_Node000002"><a xlink:href="class_o_c_a_1_1_c_a_f_e_v_d_b_1_1_storage_1_1_database_1_1_storage.html#a7ec90cd17ef214d5fe4280b13d7c144a" target="_top" xlink:title="Fetch the file entity corresponding to file&#45;name.">
<polygon fill="white" stroke="#666666" points="168.5,-39 75.25,-39 75.25,-19 168.5,-19 168.5,-39"/>
<text text-anchor="middle" x="121.88" y="-25.5" font-family="Helvetica,sans-Serif" font-size="10.00">fileFromFileName</text>
</a>
</g>
</g>
<!-- Node1&#45;&gt;Node2 -->
<g id="edge1_Node000001_Node000002" class="edge">
<title>Node1&#45;&gt;Node2</title>
<g id="a_edge1_Node000001_Node000002"><a xlink:title=" ">
<path fill="none" stroke="#63b8ff" d="M39.48,-29C46.5,-29 54.88,-29 63.56,-29"/>
<polygon fill="#63b8ff" stroke="#63b8ff" points="63.53,-32.5 73.53,-29 63.53,-25.5 63.53,-32.5"/>
</a>
</g>
</g>
<!-- Node3 -->
<g id="Node000003" class="node">
<title>Node3</title>
<g id="a_Node000003"><a xlink:href="class_o_c_a_1_1_c_a_f_e_v_d_b_1_1_storage_1_1_database_1_1_storage.html#ab721841df814a2337039d39cc03da82a" target="_top" xlink:title=" ">
<polygon fill="white" stroke="#666666" points="261,-58 204.5,-58 204.5,-38 261,-38 261,-58"/>
<text text-anchor="middle" x="232.75" y="-44.5" font-family="Helvetica,sans-Serif" font-size="10.00">buildPath</text>
</a>
</g>
</g>
<!-- Node2&#45;&gt;Node3 -->
<g id="edge2_Node000002_Node000003" class="edge">
<title>Node2&#45;&gt;Node3</title>
<g id="a_edge2_Node000002_Node000003"><a xlink:title=" ">
<path fill="none" stroke="#63b8ff" d="M168.73,-37C176.85,-38.42 185.24,-39.88 193.13,-41.26"/>
<polygon fill="#63b8ff" stroke="#63b8ff" points="192.32,-44.67 202.78,-42.94 193.53,-37.78 192.32,-44.67"/>
</a>
</g>
</g>
<!-- Node4 -->
<g id="Node000004" class="node">
<title>Node4</title>
<g id="a_Node000004"><a xlink:href="class_o_c_a_1_1_c_a_f_e_v_d_b_1_1_storage_1_1_database_1_1_storage.html#aa8e4fc68bcf28c10413b664b7d89ae81" target="_top" xlink:title="Slightly modified pathinfo() function which also normalized directories before computing the componen...">
<polygon fill="white" stroke="#666666" points="258.38,-20 207.12,-20 207.12,0 258.38,0 258.38,-20"/>
<text text-anchor="middle" x="232.75" y="-6.5" font-family="Helvetica,sans-Serif" font-size="10.00">pathInfo</text>
</a>
</g>
</g>
<!-- Node2&#45;&gt;Node4 -->
<g id="edge3_Node000002_Node000004" class="edge">
<title>Node2&#45;&gt;Node4</title>
<g id="a_edge3_Node000002_Node000004"><a xlink:title=" ">
<path fill="none" stroke="#63b8ff" d="M168.73,-21C177.68,-19.44 186.95,-17.82 195.53,-16.32"/>
<polygon fill="#63b8ff" stroke="#63b8ff" points="195.98,-19.8 205.23,-14.63 194.78,-12.9 195.98,-19.8"/>
</a>
</g>
</g>
<!-- Node5 -->
<g id="Node000005" class="node">
<title>Node5</title>
<g id="a_Node000005"><a xlink:href="class_o_c_a_1_1_c_a_f_e_v_d_b_1_1_storage_1_1_database_1_1_storage.html#ac5c1b62ecc9eb2ebe08f1e8c7ee2b283" target="_top" xlink:title="Attach self::PATH_SEPARATOR to the dirname if it is not the root directory.">
<polygon fill="white" stroke="#666666" points="421,-20 297,-20 297,0 421,0 421,-20"/>
<text text-anchor="middle" x="359" y="-6.5" font-family="Helvetica,sans-Serif" font-size="10.00">normalizeDirectoryName</text>
</a>
</g>
</g>
<!-- Node4&#45;&gt;Node5 -->
<g id="edge4_Node000004_Node000005" class="edge">
<title>Node4&#45;&gt;Node5</title>
<g id="a_edge4_Node000004_Node000005"><a xlink:title=" ">
<path fill="none" stroke="#63b8ff" d="M258.6,-10C266.54,-10 275.77,-10 285.34,-10"/>
<polygon fill="#63b8ff" stroke="#63b8ff" points="285.17,-13.5 295.17,-10 285.17,-6.5 285.17,-13.5"/>
</a>
</g>
</g>
</g>
</svg>
