<?xml version="1.0" encoding="UTF-8" standalone="no"?>
<!DOCTYPE svg PUBLIC "-//W3C//DTD SVG 1.1//EN"
 "http://www.w3.org/Graphics/SVG/1.1/DTD/svg11.dtd">
<!-- Generated by graphviz version 8.0.3 (20230416.2022)
 -->
<!-- Title: setUserId Pages: 1 -->
<svg width="171pt" height="64pt"
 viewBox="0.00 0.00 171.00 64.00" xmlns="http://www.w3.org/2000/svg" xmlns:xlink="http://www.w3.org/1999/xlink">
<g id="graph0" class="graph" transform="scale(1 1) rotate(0) translate(4 60)">
<title>setUserId</title>
<!-- Node1 -->
<g id="node1" class="node">
<title>Node1</title>
<g id="a_node1"><a xlink:title="Install a new user id.">
<polygon fill="#999999" stroke="#666666" points="163,-37 104,-37 104,-18 163,-18 163,-37"/>
<text text-anchor="middle" x="133.5" y="-25" font-family="Helvetica,sans-Serif" font-size="10.00">setUserId</text>
</a>
</g>
</g>
<!-- Node2 -->
<g id="node2" class="node">
<title>Node2</title>
<g id="a_node2"><a xlink:href="class_o_c_a_1_1_c_a_f_e_v_d_b_1_1_service_1_1_config_service.html#ab50a6081ca9ae60c52dd1ef10f545a55" target="_top" xlink:title="{}">
<polygon fill="white" stroke="#666666" points="68,-56 0,-56 0,-37 68,-37 68,-56"/>
<text text-anchor="middle" x="34" y="-44" font-family="Helvetica,sans-Serif" font-size="10.00">__construct</text>
</a>
</g>
</g>
<!-- Node1&#45;&gt;Node2 -->
<g id="edge1" class="edge">
<title>Node1&#45;&gt;Node2</title>
<path fill="none" stroke="#63b8ff" d="M92.98,-35.2C84.74,-36.81 76.14,-38.48 68.16,-40.04"/>
<polygon fill="#63b8ff" stroke="#63b8ff" points="93.36,-38.5 102.51,-33.15 92.03,-31.63 93.36,-38.5"/>
</g>
<!-- Node3 -->
<g id="node3" class="node">
<title>Node3</title>
<g id="a_node3"><a xlink:href="class_o_c_a_1_1_c_a_f_e_v_d_b_1_1_service_1_1_config_service.html#a53fe11e3dd3059d6379dfabaf2fce346" target="_top" xlink:title="Fake execution with other user&#45;id.">
<polygon fill="white" stroke="#666666" points="53,-19 15,-19 15,0 53,0 53,-19"/>
<text text-anchor="middle" x="34" y="-7" font-family="Helvetica,sans-Serif" font-size="10.00">sudo</text>
</a>
</g>
</g>
<!-- Node1&#45;&gt;Node3 -->
<g id="edge2" class="edge">
<title>Node1&#45;&gt;Node3</title>
<path fill="none" stroke="#63b8ff" d="M92.82,-20.18C79.12,-17.65 64.44,-14.93 53.29,-12.88"/>
<polygon fill="#63b8ff" stroke="#63b8ff" points="92.04,-23.77 102.51,-22.15 93.31,-16.89 92.04,-23.77"/>
</g>
</g>
</svg>
