<?xml version="1.0" encoding="UTF-8" standalone="no"?>
<!DOCTYPE svg PUBLIC "-//W3C//DTD SVG 1.1//EN"
 "http://www.w3.org/Graphics/SVG/1.1/DTD/svg11.dtd">
<!-- Generated by graphviz version 9.0.0 (20230911.1827)
 -->
<!-- Title: ensureListId Pages: 1 -->
<svg width="265pt" height="28pt"
 viewBox="0.00 0.00 264.50 28.00" xmlns="http://www.w3.org/2000/svg" xmlns:xlink="http://www.w3.org/1999/xlink">
<g id="graph0" class="graph" transform="scale(1 1) rotate(0) translate(4 24)">
<title>ensureListId</title>
<!-- Node1 -->
<g id="Node000001" class="node">
<title>Node1</title>
<g id="a_Node000001"><a xlink:title="Ensure that the given string is a list&#45;id, if it is a FQDN then try to retrieve the list&#45;id.">
<polygon fill="#999999" stroke="#666666" points="69.25,-20 0,-20 0,0 69.25,0 69.25,-20"/>
<text text-anchor="middle" x="34.62" y="-6.5" font-family="Helvetica,sans-Serif" font-size="10.00">ensureListId</text>
</a>
</g>
</g>
<!-- Node2 -->
<g id="Node000002" class="node">
<title>Node2</title>
<g id="a_Node000002"><a xlink:href="class_o_c_a_1_1_c_a_f_e_v_d_b_1_1_service_1_1_mailing_lists_service.html#ae79714b9375ce65edd9c71e2d97e06ab" target="_top" xlink:title="Fetch the list&#45;id of the given list.">
<polygon fill="white" stroke="#666666" points="158.75,-20 105.25,-20 105.25,0 158.75,0 158.75,-20"/>
<text text-anchor="middle" x="132" y="-6.5" font-family="Helvetica,sans-Serif" font-size="10.00">getListId</text>
</a>
</g>
</g>
<!-- Node1&#45;&gt;Node2 -->
<g id="edge1_Node000001_Node000002" class="edge">
<title>Node1&#45;&gt;Node2</title>
<g id="a_edge1_Node000001_Node000002"><a xlink:title=" ">
<path fill="none" stroke="#63b8ff" d="M69.52,-10C77.36,-10 85.75,-10 93.73,-10"/>
<polygon fill="#63b8ff" stroke="#63b8ff" points="93.5,-13.5 103.5,-10 93.5,-6.5 93.5,-13.5"/>
</a>
</g>
</g>
<!-- Node3 -->
<g id="Node000003" class="node">
<title>Node3</title>
<g id="a_Node000003"><a xlink:href="class_o_c_a_1_1_c_a_f_e_v_d_b_1_1_service_1_1_mailing_lists_service.html#a651ae4ad1c33811d0e985204bd2e35b8" target="_top" xlink:title=" ">
<polygon fill="white" stroke="#666666" points="256.5,-20 194.75,-20 194.75,0 256.5,0 256.5,-20"/>
<text text-anchor="middle" x="225.62" y="-6.5" font-family="Helvetica,sans-Serif" font-size="10.00">getListInfo</text>
</a>
</g>
</g>
<!-- Node2&#45;&gt;Node3 -->
<g id="edge2_Node000002_Node000003" class="edge">
<title>Node2&#45;&gt;Node3</title>
<g id="a_edge2_Node000002_Node000003"><a xlink:title=" ">
<path fill="none" stroke="#63b8ff" d="M159.01,-10C166.49,-10 174.84,-10 183.01,-10"/>
<polygon fill="#63b8ff" stroke="#63b8ff" points="182.82,-13.5 192.82,-10 182.82,-6.5 182.82,-13.5"/>
</a>
</g>
</g>
</g>
</svg>
