<?xml version="1.0" encoding="UTF-8" standalone="no"?>
<!DOCTYPE svg PUBLIC "-//W3C//DTD SVG 1.1//EN"
 "http://www.w3.org/Graphics/SVG/1.1/DTD/svg11.dtd">
<!-- Generated by graphviz version 9.0.0 (20230911.1827)
 -->
<!-- Title: validate Pages: 1 -->
<svg width="432pt" height="104pt"
 viewBox="0.00 0.00 432.00 104.00" xmlns="http://www.w3.org/2000/svg" xmlns:xlink="http://www.w3.org/1999/xlink">

<svg id="main" version="1.1" xmlns="http://www.w3.org/2000/svg" xmlns:xlink="http://www.w3.org/1999/xlink" xml:space="preserve" onload="init(evt)">
<style type="text/css"><![CDATA[
.node, .edge {opacity: 0.7;}
.node.selected, .edge.selected {opacity: 1;}
.edge:hover path { stroke: red; }
.edge:hover polygon { stroke: red; fill: red; }
]]></style>
<script type="application/ecmascript" xlink:href="svg.min.js"/>
<svg id="graph" class="graph">
<g id="graph0" class="graph" transform="scale(1 1) rotate(0) translate(4 100)">
<title>validate</title>
<!-- Node1 -->
<g id="Node000001" class="node">
<title>Node1</title>
<g id="a_Node000001"><a xlink:title=" ">
<polygon fill="#999999" stroke="#666666" points="49.75,-58 0,-58 0,-38 49.75,-38 49.75,-58"/>
<text text-anchor="middle" x="24.88" y="-44.5" font-family="Helvetica,sans-Serif" font-size="10.00">validate</text>
</a>
</g>
</g>
<!-- Node2 -->
<g id="Node000002" class="node">
<title>Node2</title>
<g id="a_Node000002"><a xlink:href="class_o_c_a_1_1_c_a_f_e_v_d_b_1_1_service_1_1_phone_number_service.html#a1f54caac71fbe16692d752e9648eaaf5" target="_top" xlink:title=" ">
<polygon fill="white" stroke="#666666" points="290.62,-96 222.88,-96 222.88,-76 290.62,-76 290.62,-96"/>
<text text-anchor="middle" x="256.75" y="-82.5" font-family="Helvetica,sans-Serif" font-size="10.00">getBackend</text>
</a>
</g>
</g>
<!-- Node1&#45;&gt;Node2 -->
<g id="edge1_Node000001_Node000002" class="edge">
<title>Node1&#45;&gt;Node2</title>
<g id="a_edge1_Node000001_Node000002"><a xlink:title=" ">
<path fill="none" stroke="#63b8ff" d="M50.06,-56.86C60.85,-60.51 73.8,-64.46 85.75,-67 127.9,-75.95 176.88,-80.86 211.41,-83.43"/>
<polygon fill="#63b8ff" stroke="#63b8ff" points="210.8,-86.9 221.03,-84.11 211.3,-79.92 210.8,-86.9"/>
</a>
</g>
</g>
<!-- Node4 -->
<g id="Node000004" class="node">
<title>Node4</title>
<g id="a_Node000004"><a xlink:href="class_o_c_a_1_1_c_a_f_e_v_d_b_1_1_service_1_1_phone_number_service.html#a17afded57ab95f68179da65bde0e5f0c" target="_top" xlink:title=" ">
<polygon fill="white" stroke="#666666" points="177.5,-58 85.75,-58 85.75,-38 177.5,-38 177.5,-58"/>
<text text-anchor="middle" x="131.62" y="-44.5" font-family="Helvetica,sans-Serif" font-size="10.00">getDefaultRegion</text>
</a>
</g>
</g>
<!-- Node1&#45;&gt;Node4 -->
<g id="edge3_Node000001_Node000004" class="edge">
<title>Node1&#45;&gt;Node4</title>
<g id="a_edge3_Node000001_Node000004"><a xlink:title=" ">
<path fill="none" stroke="#63b8ff" d="M50.17,-48C57.4,-48 65.64,-48 74.03,-48"/>
<polygon fill="#63b8ff" stroke="#63b8ff" points="73.97,-51.5 83.97,-48 73.97,-44.5 73.97,-51.5"/>
</a>
</g>
</g>
<!-- Node5 -->
<g id="Node000005" class="node">
<title>Node5</title>
<g id="a_Node000005"><a xlink:href="class_o_c_a_1_1_c_a_f_e_v_d_b_1_1_service_1_1_phone_number_service.html#a5e70683882a307d0d4c7ef1b3e546747" target="_top" xlink:title="Add the default area code if the number does not start with + or 0, and do some other normalization,...">
<polygon fill="white" stroke="#666666" points="160.62,-20 102.62,-20 102.62,0 160.62,0 160.62,-20"/>
<text text-anchor="middle" x="131.62" y="-6.5" font-family="Helvetica,sans-Serif" font-size="10.00">normalize</text>
</a>
</g>
</g>
<!-- Node1&#45;&gt;Node5 -->
<g id="edge5_Node000001_Node000005" class="edge">
<title>Node1&#45;&gt;Node5</title>
<g id="a_edge5_Node000001_Node000005"><a xlink:title=" ">
<path fill="none" stroke="#63b8ff" d="M50.17,-39.19C62.47,-34.72 77.71,-29.19 91.61,-24.15"/>
<polygon fill="#63b8ff" stroke="#63b8ff" points="92.75,-27.46 100.96,-20.76 90.36,-20.88 92.75,-27.46"/>
</a>
</g>
</g>
<!-- Node3 -->
<g id="Node000003" class="node">
<title>Node3</title>
<g id="a_Node000003"><a xlink:href="class_o_c_a_1_1_c_a_f_e_v_d_b_1_1_service_1_1_phone_number_service.html#a08a954d92f510f5df4e347a7557ba5e8" target="_top" xlink:title=" ">
<polygon fill="white" stroke="#666666" points="424,-58 336,-58 336,-38 424,-38 424,-58"/>
<text text-anchor="middle" x="380" y="-44.5" font-family="Helvetica,sans-Serif" font-size="10.00">initializeDefaults</text>
</a>
</g>
</g>
<!-- Node2&#45;&gt;Node3 -->
<g id="edge2_Node000002_Node000003" class="edge">
<title>Node2&#45;&gt;Node3</title>
<g id="a_edge2_Node000002_Node000003"><a xlink:title=" ">
<path fill="none" stroke="#63b8ff" d="M290.88,-75.62C304.52,-71.34 320.5,-66.33 335.09,-61.76"/>
<polygon fill="#63b8ff" stroke="#63b8ff" points="335.97,-65.15 344.46,-58.82 333.87,-58.47 335.97,-65.15"/>
</a>
</g>
</g>
<!-- Node4&#45;&gt;Node3 -->
<g id="edge4_Node000004_Node000003" class="edge">
<title>Node4&#45;&gt;Node3</title>
<g id="a_edge4_Node000004_Node000003"><a xlink:title=" ">
<path fill="none" stroke="#63b8ff" d="M177.81,-48C219.13,-48 280.34,-48 324.38,-48"/>
<polygon fill="#63b8ff" stroke="#63b8ff" points="324.24,-51.5 334.24,-48 324.24,-44.5 324.24,-51.5"/>
</a>
</g>
</g>
<!-- Node6 -->
<g id="Node000006" class="node">
<title>Node6</title>
<g id="a_Node000006"><a xlink:href="class_o_c_a_1_1_c_a_f_e_v_d_b_1_1_service_1_1_phone_number_service.html#a97eaa8dc5677e033634c7b612474b521" target="_top" xlink:title=" ">
<polygon fill="white" stroke="#666666" points="300,-20 213.5,-20 213.5,0 300,0 300,-20"/>
<text text-anchor="middle" x="256.75" y="-6.5" font-family="Helvetica,sans-Serif" font-size="10.00">getDefaultPrefix</text>
</a>
</g>
</g>
<!-- Node5&#45;&gt;Node6 -->
<g id="edge6_Node000005_Node000006" class="edge">
<title>Node5&#45;&gt;Node6</title>
<g id="a_edge6_Node000005_Node000006"><a xlink:title=" ">
<path fill="none" stroke="#63b8ff" d="M160.87,-10C173.09,-10 187.8,-10 201.96,-10"/>
<polygon fill="#63b8ff" stroke="#63b8ff" points="201.62,-13.5 211.62,-10 201.62,-6.5 201.62,-13.5"/>
</a>
</g>
</g>
<!-- Node6&#45;&gt;Node3 -->
<g id="edge7_Node000006_Node000003" class="edge">
<title>Node6&#45;&gt;Node3</title>
<g id="a_edge7_Node000006_Node000003"><a xlink:title=" ">
<path fill="none" stroke="#63b8ff" d="M291.2,-20.48C304.72,-24.72 320.51,-29.67 334.94,-34.19"/>
<polygon fill="#63b8ff" stroke="#63b8ff" points="333.62,-37.45 344.21,-37.1 335.72,-30.77 333.62,-37.45"/>
</a>
</g>
</g>
</g>
</svg>
</svg>

<style type='text/css'>
<![CDATA[
[data-mouse-over-selected='false'] { opacity: 0.7; }
[data-mouse-over-selected='true']  { opacity: 1.0; }
]]>
</style>
<script type="application/ecmascript"><![CDATA[
document.addEventListener('DOMContentLoaded', (event) => {
  highlightEdges();
  highlightAdjacentNodes();
});
]]></script>
</svg>
