<?xml version="1.0" encoding="UTF-8" standalone="no"?>
<!DOCTYPE svg PUBLIC "-//W3C//DTD SVG 1.1//EN"
 "http://www.w3.org/Graphics/SVG/1.1/DTD/svg11.dtd">
<!-- Generated by graphviz version 8.0.3 (20230416.2022)
 -->
<!-- Title: offsetExists Pages: 1 -->
<svg width="343pt" height="121pt"
 viewBox="0.00 0.00 343.00 121.00" xmlns="http://www.w3.org/2000/svg" xmlns:xlink="http://www.w3.org/1999/xlink">
<g id="graph0" class="graph" transform="scale(1 1) rotate(0) translate(4 117)">
<title>offsetExists</title>
<!-- Node1 -->
<g id="node1" class="node">
<title>Node1</title>
<g id="a_node1"><a xlink:title="{}">
<polygon fill="#999999" stroke="#666666" points="69,-75 0,-75 0,-56 69,-56 69,-75"/>
<text text-anchor="middle" x="34.5" y="-63" font-family="Helvetica,sans-Serif" font-size="10.00">offsetExists</text>
</a>
</g>
</g>
<!-- Node2 -->
<g id="node2" class="node">
<title>Node2</title>
<g id="a_node2"><a xlink:href="class_o_c_a_1_1_c_a_f_e_v_d_b_1_1_service_1_1_tool_tips_service.html#afa7ed4ea9907527ec2359bd5e03e6bfc" target="_top" xlink:title="Return a translated tool&#45;tip for the given key.">
<polygon fill="white" stroke="#666666" points="143,-75 105,-75 105,-56 143,-56 143,-75"/>
<text text-anchor="middle" x="124" y="-63" font-family="Helvetica,sans-Serif" font-size="10.00">fetch</text>
</a>
</g>
</g>
<!-- Node1&#45;&gt;Node2 -->
<g id="edge1" class="edge">
<title>Node1&#45;&gt;Node2</title>
<path fill="none" stroke="#63b8ff" d="M69.33,-65.5C77.47,-65.5 86.1,-65.5 94,-65.5"/>
<polygon fill="#63b8ff" stroke="#63b8ff" points="93.91,-69 103.91,-65.5 93.91,-62 93.91,-69"/>
</g>
<!-- Node3 -->
<g id="node3" class="node">
<title>Node3</title>
<g id="a_node3"><a xlink:href="class_o_c_a_1_1_c_a_f_e_v_d_b_1_1_service_1_1_tool_tips_service.html#ac751e87b3d4c4bf2feb03bee8b092755" target="_top" xlink:title="{}">
<polygon fill="white" stroke="#666666" points="221,-113 180,-113 180,-94 221,-94 221,-113"/>
<text text-anchor="middle" x="200.5" y="-101" font-family="Helvetica,sans-Serif" font-size="10.00">count</text>
</a>
</g>
</g>
<!-- Node2&#45;&gt;Node3 -->
<g id="edge2" class="edge">
<title>Node2&#45;&gt;Node3</title>
<path fill="none" stroke="#63b8ff" d="M143.42,-74.89C151.49,-79.01 161.17,-83.95 170.2,-88.56"/>
<polygon fill="#63b8ff" stroke="#63b8ff" points="168.5,-92.12 178.99,-93.55 171.68,-85.89 168.5,-92.12"/>
</g>
<!-- Node4 -->
<g id="node4" class="node">
<title>Node4</title>
<g id="a_node4"><a xlink:href="class_o_c_a_1_1_c_a_f_e_v_d_b_1_1_service_1_1_tool_tips_service.html#a756eeee725ffd84485bfe9511e135f37" target="_top" xlink:title="Generate the tooltips&#45;data.">
<polygon fill="white" stroke="#666666" points="335,-94 258,-94 258,-75 335,-75 335,-94"/>
<text text-anchor="middle" x="296.5" y="-82" font-family="Helvetica,sans-Serif" font-size="10.00">makeToolTips</text>
</a>
</g>
</g>
<!-- Node2&#45;&gt;Node4 -->
<g id="edge6" class="edge">
<title>Node2&#45;&gt;Node4</title>
<path fill="none" stroke="#63b8ff" d="M143.25,-67.53C167.74,-70.26 212.18,-75.21 246.74,-79.07"/>
<polygon fill="#63b8ff" stroke="#63b8ff" points="246.25,-82.65 256.58,-80.27 247.03,-75.69 246.25,-82.65"/>
</g>
<!-- Node5 -->
<g id="node5" class="node">
<title>Node5</title>
<g id="a_node5"><a xlink:href="class_o_c_a_1_1_c_a_f_e_v_d_b_1_1_service_1_1_tool_tips_service.html#a03641a16d883fe0d2f875c96b65a4216" target="_top" xlink:title="Enable debug&#45;messages.">
<polygon fill="white" stroke="#666666" points="222,-19 179,-19 179,0 222,0 222,-19"/>
<text text-anchor="middle" x="200.5" y="-7" font-family="Helvetica,sans-Serif" font-size="10.00">debug</text>
</a>
</g>
</g>
<!-- Node2&#45;&gt;Node5 -->
<g id="edge4" class="edge">
<title>Node2&#45;&gt;Node5</title>
<path fill="none" stroke="#63b8ff" d="M137.98,-55.75C148.91,-47.53 164.79,-35.59 177.68,-25.9"/>
<polygon fill="#63b8ff" stroke="#63b8ff" points="179.53,-28.14 185.42,-19.33 175.33,-22.54 179.53,-28.14"/>
</g>
<!-- Node3&#45;&gt;Node4 -->
<g id="edge3" class="edge">
<title>Node3&#45;&gt;Node4</title>
<path fill="none" stroke="#63b8ff" d="M221.43,-99.47C229.03,-97.94 238.05,-96.11 247.14,-94.28"/>
<polygon fill="#63b8ff" stroke="#63b8ff" points="247.65,-97.54 256.76,-92.13 246.26,-90.68 247.65,-97.54"/>
</g>
<!-- Node5&#45;&gt;Node5 -->
<g id="edge5" class="edge">
<title>Node5&#45;&gt;Node5</title>
<path fill="none" stroke="#63b8ff" d="M188.52,-19.37C183.06,-27.94 187.05,-37 200.5,-37 208.06,-37 212.64,-34.13 214.22,-30.1"/>
<polygon fill="#63b8ff" stroke="#63b8ff" points="217.53,-29.68 212.48,-20.37 210.62,-30.8 217.53,-29.68"/>
</g>
</g>
</svg>
