<?xml version="1.0" encoding="UTF-8" standalone="no"?>
<!DOCTYPE svg PUBLIC "-//W3C//DTD SVG 1.1//EN"
 "http://www.w3.org/Graphics/SVG/1.1/DTD/svg11.dtd">
<!-- Generated by graphviz version 8.0.3 (20230416.2022)
 -->
<!-- Title: renamedName Pages: 1 -->
<svg width="444pt" height="196pt"
 viewBox="0.00 0.00 444.00 195.50" xmlns="http://www.w3.org/2000/svg" xmlns:xlink="http://www.w3.org/1999/xlink">
<g id="graph0" class="graph" transform="scale(1 1) rotate(0) translate(4 191.5)">
<title>renamedName</title>
<!-- Node1 -->
<g id="node1" class="node">
<title>Node1</title>
<g id="a_node1"><a xlink:title="Create a new unique name for renaming.">
<polygon fill="#999999" stroke="#666666" points="436,-96.5 356,-96.5 356,-77.5 436,-77.5 436,-96.5"/>
<text text-anchor="middle" x="396" y="-84.5" font-family="Helvetica,sans-Serif" font-size="10.00">renamedName</text>
</a>
</g>
</g>
<!-- Node2 -->
<g id="node2" class="node">
<title>Node2</title>
<g id="a_node2"><a xlink:href="class_o_c_a_1_1_c_a_f_e_v_d_b_1_1_common_1_1_undoable_folder_create.html#a4a20559544fdf4dcb457e258dc976cf8" target="_top" xlink:title="{Reset initial state.void}">
<polygon fill="white" stroke="#666666" points="315,-177 173,-177 173,-147 315,-147 315,-177"/>
<text text-anchor="start" x="181" y="-165" font-family="Helvetica,sans-Serif" font-size="10.00">OCA\CAFEVDB\Common</text>
<text text-anchor="middle" x="244" y="-154" font-family="Helvetica,sans-Serif" font-size="10.00">\UndoableFolderCreate\reset</text>
</a>
</g>
</g>
<!-- Node1&#45;&gt;Node2 -->
<g id="edge1" class="edge">
<title>Node1&#45;&gt;Node2</title>
<path fill="none" stroke="#63b8ff" d="M372.7,-103.15C358.18,-113.18 338.55,-125.87 320,-135 311.43,-139.22 302.04,-143.12 292.88,-146.58"/>
<polygon fill="#63b8ff" stroke="#63b8ff" points="374.28,-105.61 380.45,-97 370.26,-99.89 374.28,-105.61"/>
</g>
<!-- Node4 -->
<g id="node4" class="node">
<title>Node4</title>
<g id="a_node4"><a xlink:href="class_o_c_a_1_1_c_a_f_e_v_d_b_1_1_common_1_1_undoable_text_file_update.html#a4a20559544fdf4dcb457e258dc976cf8" target="_top" xlink:title="{Reset initial state.void}">
<polygon fill="white" stroke="#666666" points="320,-126 168,-126 168,-96 320,-96 320,-126"/>
<text text-anchor="start" x="176" y="-114" font-family="Helvetica,sans-Serif" font-size="10.00">OCA\CAFEVDB\Common</text>
<text text-anchor="middle" x="244" y="-103" font-family="Helvetica,sans-Serif" font-size="10.00">\UndoableTextFileUpdate\reset</text>
</a>
</g>
</g>
<!-- Node1&#45;&gt;Node4 -->
<g id="edge3" class="edge">
<title>Node1&#45;&gt;Node4</title>
<path fill="none" stroke="#63b8ff" d="M344.81,-95.03C336.96,-96.29 328.7,-97.61 320.44,-98.93"/>
<polygon fill="#63b8ff" stroke="#63b8ff" points="345.27,-98.34 354.59,-93.31 344.16,-91.43 345.27,-98.34"/>
</g>
<!-- Node6 -->
<g id="node6" class="node">
<title>Node6</title>
<g id="a_node6"><a xlink:href="class_o_c_a_1_1_c_a_f_e_v_d_b_1_1_common_1_1_undoable_folder_create.html#a0347027efc0e46047792065615ac94eb" target="_top" xlink:title="{Undo that what was done by do().void}">
<polygon fill="white" stroke="#666666" points="314.5,-78 173.5,-78 173.5,-48 314.5,-48 314.5,-78"/>
<text text-anchor="start" x="181.5" y="-66" font-family="Helvetica,sans-Serif" font-size="10.00">OCA\CAFEVDB\Common</text>
<text text-anchor="middle" x="244" y="-55" font-family="Helvetica,sans-Serif" font-size="10.00">\UndoableFolderCreate\undo</text>
</a>
</g>
</g>
<!-- Node1&#45;&gt;Node6 -->
<g id="edge5" class="edge">
<title>Node1&#45;&gt;Node6</title>
<path fill="none" stroke="#63b8ff" d="M344.99,-79C335.33,-77.45 325.05,-75.81 314.89,-74.18"/>
<polygon fill="#63b8ff" stroke="#63b8ff" points="344.16,-82.57 354.59,-80.69 345.27,-75.66 344.16,-82.57"/>
</g>
<!-- Node7 -->
<g id="node7" class="node">
<title>Node7</title>
<g id="a_node7"><a xlink:href="class_o_c_a_1_1_c_a_f_e_v_d_b_1_1_common_1_1_undoable_text_file_update.html#a0347027efc0e46047792065615ac94eb" target="_top" xlink:title="{Undo that what was done by do().void}">
<polygon fill="white" stroke="#666666" points="319.5,-30 168.5,-30 168.5,0 319.5,0 319.5,-30"/>
<text text-anchor="start" x="176.5" y="-18" font-family="Helvetica,sans-Serif" font-size="10.00">OCA\CAFEVDB\Common</text>
<text text-anchor="middle" x="244" y="-7" font-family="Helvetica,sans-Serif" font-size="10.00">\UndoableTextFileUpdate\undo</text>
</a>
</g>
</g>
<!-- Node1&#45;&gt;Node7 -->
<g id="edge6" class="edge">
<title>Node1&#45;&gt;Node7</title>
<path fill="none" stroke="#63b8ff" d="M373.08,-70.81C358.57,-60.65 338.82,-47.85 320,-39 313.32,-35.86 306.12,-32.97 298.92,-30.38"/>
<polygon fill="#63b8ff" stroke="#63b8ff" points="370.62,-74.07 380.79,-77.04 374.69,-68.38 370.62,-74.07"/>
</g>
<!-- Node3 -->
<g id="node3" class="node">
<title>Node3</title>
<g id="a_node3"><a xlink:href="class_o_c_a_1_1_c_a_f_e_v_d_b_1_1_common_1_1_undoable_folder_create.html#a8e62e4feb0cb70954e3d1a2ae6a4fd04" target="_top" xlink:title="Undoable folder rename, optionally ignoring non&#45;existing source folder.">
<polygon fill="white" stroke="#666666" points="132,-187.5 0,-187.5 0,-146.5 132,-146.5 132,-187.5"/>
<text text-anchor="start" x="8" y="-175.5" font-family="Helvetica,sans-Serif" font-size="10.00">OCA\CAFEVDB\Common</text>
<text text-anchor="start" x="8" y="-164.5" font-family="Helvetica,sans-Serif" font-size="10.00">\UndoableFolderCreate</text>
<text text-anchor="middle" x="66" y="-153.5" font-family="Helvetica,sans-Serif" font-size="10.00">\__construct</text>
</a>
</g>
</g>
<!-- Node2&#45;&gt;Node3 -->
<g id="edge2" class="edge">
<title>Node2&#45;&gt;Node3</title>
<path fill="none" stroke="#63b8ff" d="M161.98,-164.3C152.05,-164.58 142.01,-164.87 132.35,-165.14"/>
<polygon fill="#63b8ff" stroke="#63b8ff" points="161.78,-167.78 171.68,-164 161.59,-160.78 161.78,-167.78"/>
</g>
<!-- Node5 -->
<g id="node5" class="node">
<title>Node5</title>
<g id="a_node5"><a xlink:href="class_o_c_a_1_1_c_a_f_e_v_d_b_1_1_common_1_1_undoable_text_file_update.html#a37bdb46a6022eaf6ab3156aaa986321f" target="_top" xlink:title=" ">
<polygon fill="white" stroke="#666666" points="132,-128.5 0,-128.5 0,-87.5 132,-87.5 132,-128.5"/>
<text text-anchor="start" x="8" y="-116.5" font-family="Helvetica,sans-Serif" font-size="10.00">OCA\CAFEVDB\Common</text>
<text text-anchor="start" x="8" y="-105.5" font-family="Helvetica,sans-Serif" font-size="10.00">\UndoableTextFileUpdate</text>
<text text-anchor="middle" x="66" y="-94.5" font-family="Helvetica,sans-Serif" font-size="10.00">\__construct</text>
</a>
</g>
</g>
<!-- Node4&#45;&gt;Node5 -->
<g id="edge4" class="edge">
<title>Node4&#45;&gt;Node5</title>
<path fill="none" stroke="#63b8ff" d="M156.79,-109.53C148.54,-109.39 140.27,-109.25 132.27,-109.11"/>
<polygon fill="#63b8ff" stroke="#63b8ff" points="156.54,-113.04 166.59,-109.71 156.66,-106.04 156.54,-113.04"/>
</g>
</g>
</svg>
