<?xml version="1.0" encoding="UTF-8" standalone="no"?>
<!DOCTYPE svg PUBLIC "-//W3C//DTD SVG 1.1//EN"
 "http://www.w3.org/Graphics/SVG/1.1/DTD/svg11.dtd">
<!-- Generated by graphviz version 7.1.0 (20230121.1956)
 -->
<!-- Title: initAppKeyPair Pages: 1 -->
<svg width="327pt" height="64pt"
 viewBox="0.00 0.00 327.00 64.00" xmlns="http://www.w3.org/2000/svg" xmlns:xlink="http://www.w3.org/1999/xlink">
<g id="graph0" class="graph" transform="scale(1 1) rotate(0) translate(4 60)">
<title>initAppKeyPair</title>
<!-- Node1 -->
<g id="node1" class="node">
<title>Node1</title>
<g id="a_node1"><a xlink:title=" ">
<polygon fill="#999999" stroke="#666666" points="319,-37 238,-37 238,-18 319,-18 319,-37"/>
<text text-anchor="middle" x="278.5" y="-25" font-family="Helvetica,sans-Serif" font-size="10.00">initAppKeyPair</text>
</a>
</g>
</g>
<!-- Node2 -->
<g id="node2" class="node">
<title>Node2</title>
<g id="a_node2"><a xlink:href="class_o_c_a_1_1_c_a_f_e_v_d_b_1_1_service_1_1_encryption_service.html#a4efe39e6059783c9439d484de8bf2590" target="_top" xlink:title="Bind $this to the given userId and password, for instance during listeners for password&#45;change etc.">
<polygon fill="white" stroke="#666666" points="170.5,-56 135.5,-56 135.5,-37 170.5,-37 170.5,-56"/>
<text text-anchor="middle" x="153" y="-44" font-family="Helvetica,sans-Serif" font-size="10.00">bind</text>
</a>
</g>
</g>
<!-- Node1&#45;&gt;Node2 -->
<g id="edge1" class="edge">
<title>Node1&#45;&gt;Node2</title>
<path fill="none" stroke="#63b8ff" d="M226.62,-35.33C206.76,-38.38 185.36,-41.67 170.98,-43.89"/>
<polygon fill="#63b8ff" stroke="#63b8ff" points="226.9,-38.83 236.25,-33.85 225.83,-31.91 226.9,-38.83"/>
</g>
<!-- Node4 -->
<g id="node4" class="node">
<title>Node4</title>
<g id="a_node4"><a xlink:href="class_o_c_a_1_1_c_a_f_e_v_d_b_1_1_service_1_1_encryption_service.html#a1f48aaa908602738d288b9d217083719" target="_top" xlink:title="Restore a potential backup e.g.">
<polygon fill="white" stroke="#666666" points="202,-19 104,-19 104,0 202,0 202,-19"/>
<text text-anchor="middle" x="153" y="-7" font-family="Helvetica,sans-Serif" font-size="10.00">restoreAppKeyPair</text>
</a>
</g>
</g>
<!-- Node1&#45;&gt;Node4 -->
<g id="edge3" class="edge">
<title>Node1&#45;&gt;Node4</title>
<path fill="none" stroke="#63b8ff" d="M226.62,-20.08C218.58,-18.91 210.3,-17.71 202.32,-16.54"/>
<polygon fill="#63b8ff" stroke="#63b8ff" points="225.85,-23.51 236.25,-21.49 226.86,-16.58 225.85,-23.51"/>
</g>
<!-- Node3 -->
<g id="node3" class="node">
<title>Node3</title>
<g id="a_node3"><a xlink:href="class_o_c_a_1_1_c_a_f_e_v_d_b_1_1_service_1_1_encryption_service.html#aa164135a7474a6c9d34b7bee20056a4d" target="_top" xlink:title="{}">
<polygon fill="white" stroke="#666666" points="68,-56 0,-56 0,-37 68,-37 68,-56"/>
<text text-anchor="middle" x="34" y="-44" font-family="Helvetica,sans-Serif" font-size="10.00">__construct</text>
</a>
</g>
</g>
<!-- Node2&#45;&gt;Node3 -->
<g id="edge2" class="edge">
<title>Node2&#45;&gt;Node3</title>
<path fill="none" stroke="#63b8ff" d="M123.96,-46.5C107.18,-46.5 85.76,-46.5 68.14,-46.5"/>
<polygon fill="#63b8ff" stroke="#63b8ff" points="123.72,-50 133.72,-46.5 123.72,-43 123.72,-50"/>
</g>
</g>
</svg>
