<?xml version="1.0" encoding="UTF-8" standalone="no"?>
<!DOCTYPE svg PUBLIC "-//W3C//DTD SVG 1.1//EN"
 "http://www.w3.org/Graphics/SVG/1.1/DTD/svg11.dtd">
<!-- Generated by graphviz version 8.0.3 (20230416.2022)
 -->
<!-- Title: ProjectEvent Pages: 1 -->
<svg width="506pt" height="137pt"
 viewBox="0.00 0.00 506.00 137.00" xmlns="http://www.w3.org/2000/svg" xmlns:xlink="http://www.w3.org/1999/xlink">
<g id="graph0" class="graph" transform="scale(1 1) rotate(0) translate(4 133)">
<title>ProjectEvent</title>
<!-- Node1 -->
<g id="node1" class="node">
<title>Node1</title>
<g id="a_node1"><a xlink:title="ProjectEvents.">
<polygon fill="#999999" stroke="#666666" points="267,-74 194,-74 194,-55 267,-55 267,-74"/>
<text text-anchor="middle" x="230.5" y="-62" font-family="Helvetica,sans-Serif" font-size="10.00">ProjectEvent</text>
</a>
</g>
</g>
<!-- Node3 -->
<g id="node3" class="node">
<title>Node3</title>
<g id="a_node3"><a xlink:href="class_o_c_a_1_1_c_a_f_e_v_d_b_1_1_database_1_1_doctrine_1_1_o_r_m_1_1_proxies_1_1_____c_g_____1_ad6d9e1ed13f28abc98f3a95927e3c58.html" target="_top" xlink:title="DO NOT EDIT THIS FILE &#45; IT WAS CREATED BY DOCTRINE&#39;S PROXY GENERATOR.">
<polygon fill="white" stroke="#666666" points="73,-19 0,-19 0,0 73,0 73,-19"/>
<text text-anchor="middle" x="36.5" y="-7" font-family="Helvetica,sans-Serif" font-size="10.00">ProjectEvent</text>
</a>
</g>
</g>
<!-- Node1&#45;&gt;Node3 -->
<g id="edge2" class="edge">
<title>Node1&#45;&gt;Node3</title>
<path fill="none" stroke="#63b8ff" d="M187.01,-51.62C151.34,-41.87 101.62,-28.29 69.25,-19.45"/>
<polygon fill="#63b8ff" stroke="#63b8ff" points="186.02,-55.25 196.59,-54.51 187.87,-48.5 186.02,-55.25"/>
</g>
<!-- Node4 -->
<g id="node4" class="node">
<title>Node4</title>
<g id="a_node4"><a xlink:href="class_o_c_a_1_1_c_a_f_e_v_d_b_1_1_events_1_1_after_project_deleted_event.html" target="_top" xlink:title="Event fired after project deletion.">
<polygon fill="white" stroke="#666666" points="219.5,-19 91.5,-19 91.5,0 219.5,0 219.5,-19"/>
<text text-anchor="middle" x="155.5" y="-7" font-family="Helvetica,sans-Serif" font-size="10.00">AfterProjectDeletedEvent</text>
</a>
</g>
</g>
<!-- Node1&#45;&gt;Node4 -->
<g id="edge3" class="edge">
<title>Node1&#45;&gt;Node4</title>
<path fill="none" stroke="#63b8ff" d="M208.83,-48.19C195.6,-38.84 179.14,-27.21 168.03,-19.36"/>
<polygon fill="#63b8ff" stroke="#63b8ff" points="206.59,-51.6 216.78,-54.51 210.63,-45.88 206.59,-51.6"/>
</g>
<!-- Node5 -->
<g id="node5" class="node">
<title>Node5</title>
<g id="a_node5"><a xlink:href="class_o_c_a_1_1_c_a_f_e_v_d_b_1_1_events_1_1_before_project_deleted_event.html" target="_top" xlink:title="Fired before the project is actually deleted or soft&#45;deleted.">
<polygon fill="white" stroke="#666666" points="373,-19 238,-19 238,0 373,0 373,-19"/>
<text text-anchor="middle" x="305.5" y="-7" font-family="Helvetica,sans-Serif" font-size="10.00">BeforeProjectDeletedEvent</text>
</a>
</g>
</g>
<!-- Node1&#45;&gt;Node5 -->
<g id="edge4" class="edge">
<title>Node1&#45;&gt;Node5</title>
<path fill="none" stroke="#63b8ff" d="M252.17,-48.19C265.4,-38.84 281.86,-27.21 292.97,-19.36"/>
<polygon fill="#63b8ff" stroke="#63b8ff" points="250.37,-45.88 244.22,-54.51 254.41,-51.6 250.37,-45.88"/>
</g>
<!-- Node6 -->
<g id="node6" class="node">
<title>Node6</title>
<g id="a_node6"><a xlink:href="class_o_c_a_1_1_c_a_f_e_v_d_b_1_1_events_1_1_project_created_event.html" target="_top" xlink:title="Event fired after project creation.">
<polygon fill="white" stroke="#666666" points="498,-19 391,-19 391,0 498,0 498,-19"/>
<text text-anchor="middle" x="444.5" y="-7" font-family="Helvetica,sans-Serif" font-size="10.00">ProjectCreatedEvent</text>
</a>
</g>
</g>
<!-- Node1&#45;&gt;Node6 -->
<g id="edge5" class="edge">
<title>Node1&#45;&gt;Node6</title>
<path fill="none" stroke="#63b8ff" d="M277.46,-51.87C316.88,-42.11 372.36,-28.37 408.38,-19.45"/>
<polygon fill="#63b8ff" stroke="#63b8ff" points="276.67,-48.71 267.8,-54.51 278.35,-55.5 276.67,-48.71"/>
</g>
<!-- Node2 -->
<g id="node2" class="node">
<title>Node2</title>
<g id="a_node2"><a xlink:title=" ">
<polygon fill="white" stroke="#bfbfbf" points="267,-129 194,-129 194,-110 267,-110 267,-129"/>
<text text-anchor="middle" x="230.5" y="-117" font-family="Helvetica,sans-Serif" font-size="10.00">ArrayAccess</text>
</a>
</g>
</g>
<!-- Node2&#45;&gt;Node1 -->
<g id="edge1" class="edge">
<title>Node2&#45;&gt;Node1</title>
<path fill="none" stroke="#63b8ff" d="M230.5,-98.93C230.5,-90.53 230.5,-81.13 230.5,-74.44"/>
<polygon fill="#63b8ff" stroke="#63b8ff" points="227,-98.75 230.5,-108.75 234,-98.75 227,-98.75"/>
</g>
</g>
</svg>
