<?xml version="1.0" encoding="UTF-8" standalone="no"?>
<!DOCTYPE svg PUBLIC "-//W3C//DTD SVG 1.1//EN"
 "http://www.w3.org/Graphics/SVG/1.1/DTD/svg11.dtd">
<!-- Generated by graphviz version 7.1.0 (20230121.1956)
 -->
<!-- Title: OpenSSLAsymmetricKeyStorage Pages: 1 -->
<svg width="170pt" height="192pt"
 viewBox="0.00 0.00 170.00 192.00" xmlns="http://www.w3.org/2000/svg" xmlns:xlink="http://www.w3.org/1999/xlink">
<g id="graph0" class="graph" transform="scale(1 1) rotate(0) translate(4 188)">
<title>OpenSSLAsymmetricKeyStorage</title>
<!-- Node1 -->
<g id="node1" class="node">
<title>Node1</title>
<g id="a_node1"><a xlink:title="Key&#45;storage for OpenSSL backend.">
<polygon fill="#999999" stroke="#666666" points="162,-19 0,-19 0,0 162,0 162,-19"/>
<text text-anchor="middle" x="81" y="-7" font-family="Helvetica,sans-Serif" font-size="10.00">OpenSSLAsymmetricKeyStorage</text>
</a>
</g>
</g>
<!-- Node2 -->
<g id="node2" class="node">
<title>Node2</title>
<g id="a_node2"><a xlink:href="class_o_c_a_1_1_c_a_f_e_v_d_b_1_1_crypto_1_1_cloud_asymmetric_key_storage.html" target="_top" xlink:title="Key&#45;storage base&#45;class.">
<polygon fill="white" stroke="#666666" points="154,-74 8,-74 8,-55 154,-55 154,-74"/>
<text text-anchor="middle" x="81" y="-62" font-family="Helvetica,sans-Serif" font-size="10.00">CloudAsymmetricKeyStorage</text>
</a>
</g>
</g>
<!-- Node2&#45;&gt;Node1 -->
<g id="edge1" class="edge">
<title>Node2&#45;&gt;Node1</title>
<path fill="none" stroke="#63b8ff" d="M81,-43.35C81,-35.1 81,-25.97 81,-19.44"/>
<polygon fill="#63b8ff" stroke="#63b8ff" points="77.5,-43.23 81,-53.23 84.5,-43.23 77.5,-43.23"/>
</g>
<!-- Node3 -->
<g id="node3" class="node">
<title>Node3</title>
<g id="a_node3"><a xlink:href="class_o_c_a_1_1_c_a_f_e_v_d_b_1_1_crypto_1_1_abstract_asymmetric_key_storage.html" target="_top" xlink:title="Abstract base providing default implementations.">
<polygon fill="white" stroke="#666666" points="159.5,-129 2.5,-129 2.5,-110 159.5,-110 159.5,-129"/>
<text text-anchor="middle" x="81" y="-117" font-family="Helvetica,sans-Serif" font-size="10.00">AbstractAsymmetricKeyStorage</text>
</a>
</g>
</g>
<!-- Node3&#45;&gt;Node2 -->
<g id="edge2" class="edge">
<title>Node3&#45;&gt;Node2</title>
<path fill="none" stroke="#63b8ff" d="M81,-98.35C81,-90.1 81,-80.97 81,-74.44"/>
<polygon fill="#63b8ff" stroke="#63b8ff" points="77.5,-98.23 81,-108.23 84.5,-98.23 77.5,-98.23"/>
</g>
<!-- Node4 -->
<g id="node4" class="node">
<title>Node4</title>
<g id="a_node4"><a xlink:href="interface_o_c_a_1_1_c_a_f_e_v_d_b_1_1_crypto_1_1_asymmetric_key_storage_interface.html" target="_top" xlink:title="Key&#45;storage interface.">
<polygon fill="white" stroke="#666666" points="160,-184 2,-184 2,-165 160,-165 160,-184"/>
<text text-anchor="middle" x="81" y="-172" font-family="Helvetica,sans-Serif" font-size="10.00">AsymmetricKeyStorageInterface</text>
</a>
</g>
</g>
<!-- Node4&#45;&gt;Node3 -->
<g id="edge3" class="edge">
<title>Node4&#45;&gt;Node3</title>
<path fill="none" stroke="#63b8ff" d="M81,-153.35C81,-145.1 81,-135.97 81,-129.44"/>
<polygon fill="#63b8ff" stroke="#63b8ff" points="77.5,-153.23 81,-163.23 84.5,-153.23 77.5,-153.23"/>
</g>
</g>
</svg>
