<?xml version="1.0" encoding="UTF-8" standalone="no"?>
<!DOCTYPE svg PUBLIC "-//W3C//DTD SVG 1.1//EN"
 "http://www.w3.org/Graphics/SVG/1.1/DTD/svg11.dtd">
<!-- Generated by graphviz version 8.0.3 (20230416.2022)
 -->
<!-- Title: DatabaseStorageFoldersRepository Pages: 1 -->
<svg width="180pt" height="203pt"
 viewBox="0.00 0.00 180.00 203.00" xmlns="http://www.w3.org/2000/svg" xmlns:xlink="http://www.w3.org/1999/xlink">
<g id="graph0" class="graph" transform="scale(1 1) rotate(0) translate(4 199)">
<title>DatabaseStorageFoldersRepository</title>
<!-- Node1 -->
<g id="node1" class="node">
<title>Node1</title>
<g id="a_node1"><a xlink:title="Database repository for DatabaseStorageDirEntry entities.">
<polygon fill="#999999" stroke="#666666" points="172,-19 0,-19 0,0 172,0 172,-19"/>
<text text-anchor="middle" x="86" y="-7" font-family="Helvetica,sans-Serif" font-size="10.00">DatabaseStorageFoldersRepository</text>
</a>
</g>
</g>
<!-- Node2 -->
<g id="node2" class="node">
<title>Node2</title>
<g id="a_node2"><a xlink:href="class_o_c_a_1_1_c_a_f_e_v_d_b_1_1_database_1_1_doctrine_1_1_o_r_m_1_1_repositories_1_1_database_storage_dir_entries_repository.html" target="_top" xlink:title="Database repository for DatabaseStorageDirEntry entities.">
<polygon fill="white" stroke="#666666" points="154,-85 18,-85 18,-55 154,-55 154,-85"/>
<text text-anchor="start" x="26" y="-73" font-family="Helvetica,sans-Serif" font-size="10.00">DatabaseStorageDirEntries</text>
<text text-anchor="middle" x="86" y="-62" font-family="Helvetica,sans-Serif" font-size="10.00">Repository</text>
</a>
</g>
</g>
<!-- Node2&#45;&gt;Node1 -->
<g id="edge1" class="edge">
<title>Node2&#45;&gt;Node1</title>
<path fill="none" stroke="#63b8ff" d="M86,-43.59C86,-34.85 86,-25.65 86,-19.18"/>
<polygon fill="#63b8ff" stroke="#63b8ff" points="82.5,-43.54 86,-53.54 89.5,-43.54 82.5,-43.54"/>
</g>
<!-- Node3 -->
<g id="node3" class="node">
<title>Node3</title>
<g id="a_node3"><a xlink:href="class_o_c_a_1_1_c_a_f_e_v_d_b_1_1_database_1_1_doctrine_1_1_o_r_m_1_1_repositories_1_1_entity_repository.html" target="_top" xlink:title="Base class for all of our repositories.">
<polygon fill="white" stroke="#666666" points="130.5,-140 41.5,-140 41.5,-121 130.5,-121 130.5,-140"/>
<text text-anchor="middle" x="86" y="-128" font-family="Helvetica,sans-Serif" font-size="10.00">EntityRepository</text>
</a>
</g>
</g>
<!-- Node3&#45;&gt;Node2 -->
<g id="edge2" class="edge">
<title>Node3&#45;&gt;Node2</title>
<path fill="none" stroke="#63b8ff" d="M86,-110.08C86,-101.92 86,-92.6 86,-85.11"/>
<polygon fill="#63b8ff" stroke="#63b8ff" points="82.5,-109.87 86,-119.87 89.5,-109.87 82.5,-109.87"/>
</g>
<!-- Node4 -->
<g id="node4" class="node">
<title>Node4</title>
<g id="a_node4"><a xlink:title=" ">
<polygon fill="white" stroke="#bfbfbf" points="130.5,-195 41.5,-195 41.5,-176 130.5,-176 130.5,-195"/>
<text text-anchor="middle" x="86" y="-183" font-family="Helvetica,sans-Serif" font-size="10.00">EntityRepository</text>
</a>
</g>
</g>
<!-- Node4&#45;&gt;Node3 -->
<g id="edge3" class="edge">
<title>Node4&#45;&gt;Node3</title>
<path fill="none" stroke="#63b8ff" d="M86,-164.93C86,-156.53 86,-147.13 86,-140.44"/>
<polygon fill="#63b8ff" stroke="#63b8ff" points="82.5,-164.75 86,-174.75 89.5,-164.75 82.5,-164.75"/>
</g>
</g>
</svg>
