<?xml version="1.0" encoding="UTF-8" standalone="no"?>
<!DOCTYPE svg PUBLIC "-//W3C//DTD SVG 1.1//EN"
 "http://www.w3.org/Graphics/SVG/1.1/DTD/svg11.dtd">
<!-- Generated by graphviz version 8.0.3 (20230416.2022)
 -->
<!-- Title: RecryptionRequestNotFoundException Pages: 1 -->
<svg width="151pt" height="203pt"
 viewBox="0.00 0.00 151.00 203.00" xmlns="http://www.w3.org/2000/svg" xmlns:xlink="http://www.w3.org/1999/xlink">
<g id="graph0" class="graph" transform="scale(1 1) rotate(0) translate(4 199)">
<title>RecryptionRequestNotFoundException</title>
<!-- Node1 -->
<g id="node1" class="node">
<title>Node1</title>
<g id="a_node1"><a xlink:title=" ">
<polygon fill="#999999" stroke="#666666" points="143,-30 0,-30 0,0 143,0 143,-30"/>
<text text-anchor="start" x="8" y="-18" font-family="Helvetica,sans-Serif" font-size="10.00">RecryptionRequestNotFound</text>
<text text-anchor="middle" x="71.5" y="-7" font-family="Helvetica,sans-Serif" font-size="10.00">Exception</text>
</a>
</g>
</g>
<!-- Node2 -->
<g id="node2" class="node">
<title>Node2</title>
<g id="a_node2"><a xlink:href="class_o_c_a_1_1_c_a_f_e_v_d_b_1_1_exceptions_1_1_encryption_exception.html" target="_top" xlink:title="Base class for other exceptions.">
<polygon fill="white" stroke="#666666" points="125,-85 18,-85 18,-66 125,-66 125,-85"/>
<text text-anchor="middle" x="71.5" y="-73" font-family="Helvetica,sans-Serif" font-size="10.00">EncryptionException</text>
</a>
</g>
</g>
<!-- Node2&#45;&gt;Node1 -->
<g id="edge1" class="edge">
<title>Node2&#45;&gt;Node1</title>
<path fill="none" stroke="#63b8ff" d="M71.5,-55.08C71.5,-46.92 71.5,-37.6 71.5,-30.11"/>
<polygon fill="#63b8ff" stroke="#63b8ff" points="68,-54.87 71.5,-64.87 75,-54.87 68,-54.87"/>
</g>
<!-- Node3 -->
<g id="node3" class="node">
<title>Node3</title>
<g id="a_node3"><a xlink:href="class_o_c_a_1_1_c_a_f_e_v_d_b_1_1_exceptions_1_1_exception.html" target="_top" xlink:title="General abstraction base&#45;class.">
<polygon fill="white" stroke="#666666" points="101.5,-140 41.5,-140 41.5,-121 101.5,-121 101.5,-140"/>
<text text-anchor="middle" x="71.5" y="-128" font-family="Helvetica,sans-Serif" font-size="10.00">Exception</text>
</a>
</g>
</g>
<!-- Node3&#45;&gt;Node2 -->
<g id="edge2" class="edge">
<title>Node3&#45;&gt;Node2</title>
<path fill="none" stroke="#63b8ff" d="M71.5,-109.93C71.5,-101.53 71.5,-92.13 71.5,-85.44"/>
<polygon fill="#63b8ff" stroke="#63b8ff" points="68,-109.75 71.5,-119.75 75,-109.75 68,-109.75"/>
</g>
<!-- Node4 -->
<g id="node4" class="node">
<title>Node4</title>
<g id="a_node4"><a xlink:title=" ">
<polygon fill="white" stroke="#bfbfbf" points="112,-195 31,-195 31,-176 112,-176 112,-195"/>
<text text-anchor="middle" x="71.5" y="-183" font-family="Helvetica,sans-Serif" font-size="10.00">CoreException</text>
</a>
</g>
</g>
<!-- Node4&#45;&gt;Node3 -->
<g id="edge3" class="edge">
<title>Node4&#45;&gt;Node3</title>
<path fill="none" stroke="#63b8ff" d="M71.5,-164.93C71.5,-156.53 71.5,-147.13 71.5,-140.44"/>
<polygon fill="#63b8ff" stroke="#63b8ff" points="68,-164.75 71.5,-174.75 75,-164.75 68,-164.75"/>
</g>
</g>
</svg>
