<?xml version="1.0" encoding="UTF-8" standalone="no"?>
<!DOCTYPE svg PUBLIC "-//W3C//DTD SVG 1.1//EN"
 "http://www.w3.org/Graphics/SVG/1.1/DTD/svg11.dtd">
<!-- Generated by graphviz version 7.1.0 (20230121.1956)
 -->
<!-- Title: changeFolderManager Pages: 1 -->
<svg width="592pt" height="86pt"
 viewBox="0.00 0.00 592.00 86.00" xmlns="http://www.w3.org/2000/svg" xmlns:xlink="http://www.w3.org/1999/xlink">
<g id="graph0" class="graph" transform="scale(1 1) rotate(0) translate(4 82)">
<title>changeFolderManager</title>
<!-- Node1 -->
<g id="node1" class="node">
<title>Node1</title>
<g id="a_node1"><a xlink:title=" ">
<polygon fill="#999999" stroke="#666666" points="113,-48.5 0,-48.5 0,-29.5 113,-29.5 113,-48.5"/>
<text text-anchor="middle" x="56.5" y="-36.5" font-family="Helvetica,sans-Serif" font-size="10.00">changeFolderManager</text>
</a>
</g>
</g>
<!-- Node2 -->
<g id="node2" class="node">
<title>Node2</title>
<g id="a_node2"><a xlink:href="namespace_o_c_a_1_1_c_a_f_e_v_d_b_1_1_toolkit_1_1_traits.html#a4d87f4e47d18fb535d235414c357f821" target="_top" xlink:title="Log a debug message.">
<polygon fill="white" stroke="#666666" points="270,-54 149,-54 149,-24 270,-24 270,-54"/>
<text text-anchor="start" x="157" y="-42" font-family="Helvetica,sans-Serif" font-size="10.00">OCA\CAFEVDB\Toolkit</text>
<text text-anchor="middle" x="209.5" y="-31" font-family="Helvetica,sans-Serif" font-size="10.00">\Traits\logDebug</text>
</a>
</g>
</g>
<!-- Node1&#45;&gt;Node2 -->
<g id="edge1" class="edge">
<title>Node1&#45;&gt;Node2</title>
<path fill="none" stroke="#63b8ff" d="M113.3,-39C121.12,-39 129.25,-39 137.31,-39"/>
<polygon fill="#63b8ff" stroke="#63b8ff" points="137.11,-42.5 147.11,-39 137.11,-35.5 137.11,-42.5"/>
</g>
<!-- Node3 -->
<g id="node3" class="node">
<title>Node3</title>
<g id="a_node3"><a xlink:href="namespace_o_c_a_1_1_c_a_f_e_v_d_b_1_1_toolkit_1_1_traits.html#a15cbaddba041ee5582b2bec28a58c7c9" target="_top" xlink:title="Log the given message at the specified level.">
<polygon fill="white" stroke="#666666" points="427,-54 306,-54 306,-24 427,-24 427,-54"/>
<text text-anchor="start" x="314" y="-42" font-family="Helvetica,sans-Serif" font-size="10.00">OCA\CAFEVDB\Toolkit</text>
<text text-anchor="middle" x="366.5" y="-31" font-family="Helvetica,sans-Serif" font-size="10.00">\Traits\log</text>
</a>
</g>
</g>
<!-- Node2&#45;&gt;Node3 -->
<g id="edge2" class="edge">
<title>Node2&#45;&gt;Node3</title>
<path fill="none" stroke="#63b8ff" d="M270.43,-39C278.3,-39 286.43,-39 294.47,-39"/>
<polygon fill="#63b8ff" stroke="#63b8ff" points="294.22,-42.5 304.22,-39 294.22,-35.5 294.22,-42.5"/>
</g>
<!-- Node4 -->
<g id="node4" class="node">
<title>Node4</title>
<g id="a_node4"><a xlink:href="namespace_o_c_a_1_1_c_a_f_e_v_d_b_1_1_toolkit_1_1_traits.html#a97e3b3adabf67bc7d3650ed14214ddaa" target="_top" xlink:title="Return the stored logger class.">
<polygon fill="white" stroke="#666666" points="584,-78 463,-78 463,-48 584,-48 584,-78"/>
<text text-anchor="start" x="471" y="-66" font-family="Helvetica,sans-Serif" font-size="10.00">OCA\CAFEVDB\Toolkit</text>
<text text-anchor="middle" x="523.5" y="-55" font-family="Helvetica,sans-Serif" font-size="10.00">\Traits\logger</text>
</a>
</g>
</g>
<!-- Node3&#45;&gt;Node4 -->
<g id="edge3" class="edge">
<title>Node3&#45;&gt;Node4</title>
<path fill="none" stroke="#63b8ff" d="M427.43,-48.28C435.3,-49.5 443.43,-50.76 451.47,-52"/>
<polygon fill="#63b8ff" stroke="#63b8ff" points="450.82,-55.44 461.24,-53.51 451.89,-48.53 450.82,-55.44"/>
</g>
<!-- Node5 -->
<g id="node5" class="node">
<title>Node5</title>
<g id="a_node5"><a xlink:href="namespace_o_c_a_1_1_c_a_f_e_v_d_b_1_1_toolkit_1_1_traits.html#ab690a84fb4e720f43308bc354c392bee" target="_top" xlink:title="Map PSR log&#45;levels to ILogger log&#45;levels as the PsrLoggerAdapter only understands those.">
<polygon fill="white" stroke="#666666" points="584,-30 463,-30 463,0 584,0 584,-30"/>
<text text-anchor="start" x="471" y="-18" font-family="Helvetica,sans-Serif" font-size="10.00">OCA\CAFEVDB\Toolkit</text>
<text text-anchor="middle" x="523.5" y="-7" font-family="Helvetica,sans-Serif" font-size="10.00">\Traits\mapLogLevels</text>
</a>
</g>
</g>
<!-- Node3&#45;&gt;Node5 -->
<g id="edge4" class="edge">
<title>Node3&#45;&gt;Node5</title>
<path fill="none" stroke="#63b8ff" d="M427.43,-29.72C435.3,-28.5 443.43,-27.24 451.47,-26"/>
<polygon fill="#63b8ff" stroke="#63b8ff" points="451.89,-29.47 461.24,-24.49 450.82,-22.56 451.89,-29.47"/>
</g>
</g>
</svg>
