<?xml version="1.0" encoding="UTF-8" standalone="no"?>
<!DOCTYPE svg PUBLIC "-//W3C//DTD SVG 1.1//EN"
 "http://www.w3.org/Graphics/SVG/1.1/DTD/svg11.dtd">
<!-- Generated by graphviz version 8.0.3 (20230416.2022)
 -->
<!-- Title: loadHistory Pages: 1 -->
<svg width="514pt" height="156pt"
 viewBox="0.00 0.00 514.00 156.00" xmlns="http://www.w3.org/2000/svg" xmlns:xlink="http://www.w3.org/1999/xlink">
<g id="graph0" class="graph" transform="scale(1 1) rotate(0) translate(4 152)">
<title>loadHistory</title>
<!-- Node1 -->
<g id="node1" class="node">
<title>Node1</title>
<g id="a_node1"><a xlink:title="Load the history from the session data.">
<polygon fill="#999999" stroke="#666666" points="66,-92 0,-92 0,-73 66,-73 66,-92"/>
<text text-anchor="middle" x="33" y="-80" font-family="Helvetica,sans-Serif" font-size="10.00">loadHistory</text>
</a>
</g>
</g>
<!-- Node2 -->
<g id="node2" class="node">
<title>Node2</title>
<g id="a_node2"><a xlink:href="class_o_c_a_1_1_c_a_f_e_v_d_b_1_1_email_form_1_1_recipients_filter.html#ab5ee0276791cc2947df51b32bc6c7ba6" target="_top" xlink:title=" ">
<polygon fill="white" stroke="#666666" points="324,-130 257,-130 257,-111 324,-111 324,-130"/>
<text text-anchor="middle" x="290.5" y="-118" font-family="Helvetica,sans-Serif" font-size="10.00">filterHistory</text>
</a>
</g>
</g>
<!-- Node1&#45;&gt;Node2 -->
<g id="edge1" class="edge">
<title>Node1&#45;&gt;Node2</title>
<path fill="none" stroke="#63b8ff" d="M65.22,-92.43C76.68,-95.76 89.83,-99.2 102,-101.5 150.87,-110.73 207.8,-115.7 246,-118.21"/>
<polygon fill="#63b8ff" stroke="#63b8ff" points="245.54,-121.75 255.74,-118.89 245.98,-114.77 245.54,-121.75"/>
</g>
<!-- Node3 -->
<g id="node3" class="node">
<title>Node3</title>
<g id="a_node3"><a xlink:href="class_o_c_a_1_1_c_a_f_e_v_d_b_1_1_email_form_1_1_recipients_filter.html#a30a395e6e48481531a93ec374c412775" target="_top" xlink:title="Compose a default history record for the initial state.">
<polygon fill="white" stroke="#666666" points="195,-92 102,-92 102,-73 195,-73 195,-92"/>
<text text-anchor="middle" x="148.5" y="-80" font-family="Helvetica,sans-Serif" font-size="10.00">setDefaultHistory</text>
</a>
</g>
</g>
<!-- Node1&#45;&gt;Node3 -->
<g id="edge3" class="edge">
<title>Node1&#45;&gt;Node3</title>
<path fill="none" stroke="#63b8ff" d="M66.22,-82.5C73.88,-82.5 82.27,-82.5 90.67,-82.5"/>
<polygon fill="#63b8ff" stroke="#63b8ff" points="90.64,-86 100.64,-82.5 90.64,-79 90.64,-86"/>
</g>
<!-- Node7 -->
<g id="node7" class="node">
<title>Node7</title>
<g id="a_node7"><a xlink:href="class_o_c_a_1_1_c_a_f_e_v_d_b_1_1_email_form_1_1_recipients_filter.html#a69438f7e0899945b1e31f677ce1251af" target="_top" xlink:title="Validate the given history records, return false on error.">
<polygon fill="white" stroke="#666666" points="189.5,-37 107.5,-37 107.5,-18 189.5,-18 189.5,-37"/>
<text text-anchor="middle" x="148.5" y="-25" font-family="Helvetica,sans-Serif" font-size="10.00">validateHistory</text>
</a>
</g>
</g>
<!-- Node1&#45;&gt;Node7 -->
<g id="edge8" class="edge">
<title>Node1&#45;&gt;Node7</title>
<path fill="none" stroke="#63b8ff" d="M54.55,-72.54C72.07,-64.05 97.48,-51.74 117.31,-42.13"/>
<polygon fill="#63b8ff" stroke="#63b8ff" points="118.63,-44.9 126.1,-37.39 115.57,-38.6 118.63,-44.9"/>
</g>
<!-- Node2&#45;&gt;Node2 -->
<g id="edge2" class="edge">
<title>Node2&#45;&gt;Node2</title>
<path fill="none" stroke="#63b8ff" d="M268.27,-130.37C258.13,-138.94 265.54,-148 290.5,-148 304.93,-148 313.5,-144.97 316.19,-140.76"/>
<polygon fill="#63b8ff" stroke="#63b8ff" points="319.21,-139.75 312.73,-131.37 312.57,-141.96 319.21,-139.75"/>
</g>
<!-- Node3&#45;&gt;Node2 -->
<g id="edge7" class="edge">
<title>Node3&#45;&gt;Node2</title>
<path fill="none" stroke="#63b8ff" d="M186.28,-92.48C204.65,-97.47 227,-103.54 246.19,-108.75"/>
<polygon fill="#63b8ff" stroke="#63b8ff" points="245.21,-112.38 255.78,-111.62 247.05,-105.62 245.21,-112.38"/>
</g>
<!-- Node4 -->
<g id="node4" class="node">
<title>Node4</title>
<g id="a_node4"><a xlink:href="class_o_c_a_1_1_c_a_f_e_v_d_b_1_1_email_form_1_1_recipients_filter.html#a9ceb14e2f27e74da6d3f47217cafac78" target="_top" xlink:title=" ">
<polygon fill="white" stroke="#666666" points="341,-93 240,-93 240,-74 341,-74 341,-93"/>
<text text-anchor="middle" x="290.5" y="-81" font-family="Helvetica,sans-Serif" font-size="10.00">basicRecipientsSet</text>
</a>
</g>
</g>
<!-- Node3&#45;&gt;Node4 -->
<g id="edge4" class="edge">
<title>Node3&#45;&gt;Node4</title>
<path fill="none" stroke="#63b8ff" d="M195.34,-82.83C206.1,-82.9 217.72,-82.99 229.01,-83.07"/>
<polygon fill="#63b8ff" stroke="#63b8ff" points="228.67,-86.57 238.69,-83.14 228.72,-79.57 228.67,-86.57"/>
</g>
<!-- Node5 -->
<g id="node5" class="node">
<title>Node5</title>
<g id="a_node5"><a xlink:href="class_o_c_a_1_1_c_a_f_e_v_d_b_1_1_email_form_1_1_recipients_filter.html#a0835860e0bc6047f3eff6a9941dbbcf4" target="_top" xlink:title=" ">
<polygon fill="white" stroke="#666666" points="333.5,-56 247.5,-56 247.5,-37 333.5,-37 333.5,-56"/>
<text text-anchor="middle" x="290.5" y="-44" font-family="Helvetica,sans-Serif" font-size="10.00">defaultByStatus</text>
</a>
</g>
</g>
<!-- Node3&#45;&gt;Node5 -->
<g id="edge5" class="edge">
<title>Node3&#45;&gt;Node5</title>
<path fill="none" stroke="#63b8ff" d="M188.13,-72.57C204.35,-68.4 223.4,-63.5 240.58,-59.08"/>
<polygon fill="#63b8ff" stroke="#63b8ff" points="241.19,-62.28 250,-56.4 239.44,-55.5 241.19,-62.28"/>
</g>
<!-- Node6 -->
<g id="node6" class="node">
<title>Node6</title>
<g id="a_node6"><a xlink:href="class_o_c_a_1_1_c_a_f_e_v_d_b_1_1_email_form_1_1_recipients_filter.html#a75227e334f1b3d4bd04bcc2ddf2c9c5d" target="_top" xlink:title=" ">
<polygon fill="white" stroke="#666666" points="506,-56 386,-56 386,-37 506,-37 506,-56"/>
<text text-anchor="middle" x="446" y="-44" font-family="Helvetica,sans-Serif" font-size="10.00">recipientsExceptProject</text>
</a>
</g>
</g>
<!-- Node5&#45;&gt;Node6 -->
<g id="edge6" class="edge">
<title>Node5&#45;&gt;Node6</title>
<path fill="none" stroke="#63b8ff" d="M333.85,-46.5C346.58,-46.5 360.9,-46.5 374.92,-46.5"/>
<polygon fill="#63b8ff" stroke="#63b8ff" points="374.55,-50 384.55,-46.5 374.55,-43 374.55,-50"/>
</g>
<!-- Node8 -->
<g id="node8" class="node">
<title>Node8</title>
<g id="a_node8"><a xlink:href="class_o_c_a_1_1_c_a_f_e_v_d_b_1_1_email_form_1_1_recipients_filter.html#aeeefa163256bf7669c5591e228f57850" target="_top" xlink:title="Validate all history records.">
<polygon fill="white" stroke="#666666" points="350,-19 231,-19 231,0 350,0 350,-19"/>
<text text-anchor="middle" x="290.5" y="-7" font-family="Helvetica,sans-Serif" font-size="10.00">validateHistoryRecords</text>
</a>
</g>
</g>
<!-- Node7&#45;&gt;Node8 -->
<g id="edge9" class="edge">
<title>Node7&#45;&gt;Node8</title>
<path fill="none" stroke="#63b8ff" d="M189.99,-22.29C199.4,-21.08 209.68,-19.76 219.95,-18.44"/>
<polygon fill="#63b8ff" stroke="#63b8ff" points="220.14,-21.82 229.61,-17.07 219.25,-14.88 220.14,-21.82"/>
</g>
<!-- Node9 -->
<g id="node9" class="node">
<title>Node9</title>
<g id="a_node9"><a xlink:href="class_o_c_a_1_1_c_a_f_e_v_d_b_1_1_email_form_1_1_recipients_filter.html#a356c7d5f6dcee2bfc20c2285237a341f" target="_top" xlink:title="Validate one history entry.">
<polygon fill="white" stroke="#666666" points="502.5,-19 389.5,-19 389.5,0 502.5,0 502.5,-19"/>
<text text-anchor="middle" x="446" y="-7" font-family="Helvetica,sans-Serif" font-size="10.00">validateHistoryRecord</text>
</a>
</g>
</g>
<!-- Node8&#45;&gt;Node9 -->
<g id="edge10" class="edge">
<title>Node8&#45;&gt;Node9</title>
<path fill="none" stroke="#63b8ff" d="M350.41,-9.5C359.52,-9.5 368.99,-9.5 378.27,-9.5"/>
<polygon fill="#63b8ff" stroke="#63b8ff" points="378.03,-13 388.03,-9.5 378.03,-6 378.03,-13"/>
</g>
</g>
</svg>
