<?xml version="1.0" encoding="UTF-8" standalone="no"?>
<!DOCTYPE svg PUBLIC "-//W3C//DTD SVG 1.1//EN"
 "http://www.w3.org/Graphics/SVG/1.1/DTD/svg11.dtd">
<!-- Generated by graphviz version 9.0.0 (20230911.1827)
 -->
<!-- Title: beforeUpdateDoUpdateAll Pages: 1 -->
<svg width="641pt" height="512pt"
 viewBox="0.00 0.00 640.50 512.00" xmlns="http://www.w3.org/2000/svg" xmlns:xlink="http://www.w3.org/1999/xlink">
<g id="graph0" class="graph" transform="scale(1 1) rotate(0) translate(4 508)">
<title>beforeUpdateDoUpdateAll</title>
<!-- Node1 -->
<g id="Node000001" class="node">
<title>Node1</title>
<g id="a_Node000001"><a xlink:title="Before update&#45;trigger which ideally should update all data such that nothing remains to do for phpMyE...">
<polygon fill="#999999" stroke="#666666" points="130,-265 0,-265 0,-245 130,-245 130,-265"/>
<text text-anchor="middle" x="65" y="-251.5" font-family="Helvetica,sans-Serif" font-size="10.00">beforeUpdateDoUpdateAll</text>
</a>
</g>
</g>
<!-- Node2 -->
<g id="Node000002" class="node">
<title>Node2</title>
<g id="a_Node000002"><a xlink:href="class_o_c_a_1_1_c_a_f_e_v_d_b_1_1_page_renderer_1_1_p_m_e_table_view_base.html#ad92070c3daaf56e870af042e4ebf3b78" target="_top" xlink:title="Slice the given entity id by the given keys and return a composite key joined with self::COMP_KEY_SEP...">
<polygon fill="white" stroke="#666666" points="281.75,-504 181.75,-504 181.75,-484 281.75,-484 281.75,-504"/>
<text text-anchor="middle" x="231.75" y="-490.5" font-family="Helvetica,sans-Serif" font-size="10.00">compositeKeySlice</text>
</a>
</g>
</g>
<!-- Node1&#45;&gt;Node2 -->
<g id="edge1_Node000001_Node000002" class="edge">
<title>Node1&#45;&gt;Node2</title>
<g id="a_edge1_Node000001_Node000002"><a xlink:title=" ">
<path fill="none" stroke="#63b8ff" d="M67.87,-265.16C74.63,-299.13 100.95,-409.98 166,-470 169.52,-473.25 173.52,-476.06 177.76,-478.51"/>
<polygon fill="#63b8ff" stroke="#63b8ff" points="176.11,-481.6 186.62,-482.89 179.21,-475.32 176.11,-481.6"/>
</a>
</g>
</g>
<!-- Node3 -->
<g id="Node000003" class="node">
<title>Node3</title>
<g id="a_Node000003"><a xlink:href="class_o_c_a_1_1_c_a_f_e_v_d_b_1_1_page_renderer_1_1_p_m_e_table_view_base.html#a586e3ce7bc155a85dae0bbe3149e4181" target="_top" xlink:title="Be noisy if debugging is enabled.">
<polygon fill="white" stroke="#666666" points="420.38,-466 378.12,-466 378.12,-446 420.38,-446 420.38,-466"/>
<text text-anchor="middle" x="399.25" y="-452.5" font-family="Helvetica,sans-Serif" font-size="10.00">debug</text>
</a>
</g>
</g>
<!-- Node1&#45;&gt;Node3 -->
<g id="edge2_Node000001_Node000003" class="edge">
<title>Node1&#45;&gt;Node3</title>
<g id="a_edge2_Node000001_Node000003"><a xlink:title=" ">
<path fill="none" stroke="#63b8ff" d="M68.06,-265.14C75.12,-296.98 101.56,-395.24 166,-437 227.81,-477.06 319.18,-469.75 366.79,-462.18"/>
<polygon fill="#63b8ff" stroke="#63b8ff" points="367.15,-465.67 376.42,-460.54 365.97,-458.77 367.15,-465.67"/>
</a>
</g>
</g>
<!-- Node4 -->
<g id="Node000004" class="node">
<title>Node4</title>
<g id="a_Node000004"><a xlink:href="class_o_c_a_1_1_c_a_f_e_v_d_b_1_1_page_renderer_1_1_p_m_e_table_view_base.html#a0160798c24d6bddc98d5192235a59982" target="_top" xlink:title=" ">
<polygon fill="white" stroke="#666666" points="277.62,-428 185.88,-428 185.88,-408 277.62,-408 277.62,-428"/>
<text text-anchor="middle" x="231.75" y="-414.5" font-family="Helvetica,sans-Serif" font-size="10.00">debugPrintValues</text>
</a>
</g>
</g>
<!-- Node1&#45;&gt;Node4 -->
<g id="edge3_Node000001_Node000004" class="edge">
<title>Node1&#45;&gt;Node4</title>
<g id="a_edge3_Node000001_Node000004"><a xlink:title=" ">
<path fill="none" stroke="#63b8ff" d="M70.73,-265.33C82.9,-290.8 117.76,-357.25 166,-394 170.53,-397.45 175.61,-400.45 180.88,-403.04"/>
<polygon fill="#63b8ff" stroke="#63b8ff" points="179.21,-406.13 189.77,-406.94 182.02,-399.72 179.21,-406.13"/>
</a>
</g>
</g>
<!-- Node6 -->
<g id="Node000006" class="node">
<title>Node6</title>
<g id="a_Node000006"><a xlink:href="class_o_c_a_1_1_c_a_f_e_v_d_b_1_1_common_1_1_util.html#a0bef3dc2eedd594dab3a84b15d183c36" target="_top" xlink:title="A preg_explode() wrapper with some extra features.">
<polygon fill="white" stroke="#666666" points="465,-352 333.5,-352 333.5,-320 465,-320 465,-352"/>
<text text-anchor="start" x="341.5" y="-338.5" font-family="Helvetica,sans-Serif" font-size="10.00">OCA\CAFEVDB\Common</text>
<text text-anchor="middle" x="399.25" y="-326.5" font-family="Helvetica,sans-Serif" font-size="10.00">\Util\explode</text>
</a>
</g>
</g>
<!-- Node1&#45;&gt;Node6 -->
<g id="edge6_Node000001_Node000006" class="edge">
<title>Node1&#45;&gt;Node6</title>
<g id="a_edge6_Node000001_Node000006"><a xlink:title=" ">
<path fill="none" stroke="#63b8ff" d="M71.79,-265.46C84.99,-288.07 119.77,-341.06 166,-361 224.04,-386.04 297.49,-371.32 346.08,-355.98"/>
<polygon fill="#63b8ff" stroke="#63b8ff" points="347.12,-359.32 355.53,-352.87 344.93,-352.67 347.12,-359.32"/>
</a>
</g>
</g>
<!-- Node8 -->
<g id="Node000008" class="node">
<title>Node8</title>
<g id="a_Node000008"><a xlink:href="class_o_c_a_1_1_c_a_f_e_v_d_b_1_1_common_1_1_util.html#a224e0cc0562d0f2642f19e9f8fb03596" target="_top" xlink:title="Explode a string of the form.">
<polygon fill="white" stroke="#666666" points="297.5,-352 166,-352 166,-320 297.5,-320 297.5,-352"/>
<text text-anchor="start" x="174" y="-338.5" font-family="Helvetica,sans-Serif" font-size="10.00">OCA\CAFEVDB\Common</text>
<text text-anchor="middle" x="231.75" y="-326.5" font-family="Helvetica,sans-Serif" font-size="10.00">\Util\explodeIndexed</text>
</a>
</g>
</g>
<!-- Node1&#45;&gt;Node8 -->
<g id="edge9_Node000001_Node000008" class="edge">
<title>Node1&#45;&gt;Node8</title>
<g id="a_edge9_Node000001_Node000008"><a xlink:title=" ">
<path fill="none" stroke="#63b8ff" d="M82.95,-265.47C102.54,-277.34 135.93,-296.86 166,-311 169.06,-312.44 172.23,-313.87 175.45,-315.26"/>
<polygon fill="#63b8ff" stroke="#63b8ff" points="173.84,-318.38 184.42,-319.02 176.55,-311.93 173.84,-318.38"/>
</a>
</g>
</g>
<!-- Node9 -->
<g id="Node000009" class="node">
<title>Node9</title>
<g id="a_Node000009"><a xlink:href="class_o_c_a_1_1_c_a_f_e_v_d_b_1_1_common_1_1_util.html#a1c7326cf6f827db64c27bbb89f64dd7d" target="_top" xlink:title="Explode a string of the form.">
<polygon fill="white" stroke="#666666" points="297.5,-302 166,-302 166,-270 297.5,-270 297.5,-302"/>
<text text-anchor="start" x="174" y="-288.5" font-family="Helvetica,sans-Serif" font-size="10.00">OCA\CAFEVDB\Common</text>
<text text-anchor="middle" x="231.75" y="-276.5" font-family="Helvetica,sans-Serif" font-size="10.00">\Util\explodeIndexedMulti</text>
</a>
</g>
</g>
<!-- Node1&#45;&gt;Node9 -->
<g id="edge11_Node000001_Node000009" class="edge">
<title>Node1&#45;&gt;Node9</title>
<g id="a_edge11_Node000001_Node000009"><a xlink:title=" ">
<path fill="none" stroke="#63b8ff" d="M121.78,-265.5C132.35,-267.48 143.58,-269.6 154.65,-271.68"/>
<polygon fill="#63b8ff" stroke="#63b8ff" points="153.68,-275.06 164.16,-273.47 154.98,-268.18 153.68,-275.06"/>
</a>
</g>
</g>
<!-- Node10 -->
<g id="Node000010" class="node">
<title>Node10</title>
<g id="a_Node000010"><a xlink:href="class_o_c_a_1_1_c_a_f_e_v_d_b_1_1_page_renderer_1_1_p_m_e_table_view_base.html#a5974458d91d622f2f455643f17af9417" target="_top" xlink:title="Find the recursion end&#45;point for a nested join description.">
<polygon fill="white" stroke="#666666" points="284.75,-234 178.75,-234 178.75,-214 284.75,-214 284.75,-234"/>
<text text-anchor="middle" x="231.75" y="-220.5" font-family="Helvetica,sans-Serif" font-size="10.00">findJoinColumnPivot</text>
</a>
</g>
</g>
<!-- Node1&#45;&gt;Node10 -->
<g id="edge13_Node000001_Node000010" class="edge">
<title>Node1&#45;&gt;Node10</title>
<g id="a_edge13_Node000001_Node000010"><a xlink:title=" ">
<path fill="none" stroke="#63b8ff" d="M121.78,-244.5C136.36,-241.76 152.18,-238.78 167.14,-235.97"/>
<polygon fill="#63b8ff" stroke="#63b8ff" points="167.7,-239.43 176.88,-234.14 166.41,-232.55 167.7,-239.43"/>
</a>
</g>
</g>
<!-- Node11 -->
<g id="Node000011" class="node">
<title>Node11</title>
<g id="a_Node000011"><a xlink:href="class_o_c_a_1_1_c_a_f_e_v_d_b_1_1_page_renderer_1_1_p_m_e_table_view_base.html#a52152c1de369b4179e8e391899eca24a" target="_top" xlink:title="Inverse of self::joinTableFieldName().">
<polygon fill="white" stroke="#666666" points="269.38,-196 194.12,-196 194.12,-176 269.38,-176 269.38,-196"/>
<text text-anchor="middle" x="231.75" y="-182.5" font-family="Helvetica,sans-Serif" font-size="10.00">joinTableField</text>
</a>
</g>
</g>
<!-- Node1&#45;&gt;Node11 -->
<g id="edge15_Node000001_Node000011" class="edge">
<title>Node1&#45;&gt;Node11</title>
<g id="a_edge15_Node000001_Node000011"><a xlink:title=" ">
<path fill="none" stroke="#63b8ff" d="M84.35,-244.58C104.06,-233.68 136.55,-216.57 166,-205 171.38,-202.88 177.1,-200.88 182.81,-199.02"/>
<polygon fill="#63b8ff" stroke="#63b8ff" points="183.77,-202.39 192.28,-196.08 181.69,-195.7 183.77,-202.39"/>
</a>
</g>
</g>
<!-- Node12 -->
<g id="Node000012" class="node">
<title>Node12</title>
<g id="a_Node000012"><a xlink:href="class_o_c_a_1_1_c_a_f_e_v_d_b_1_1_page_renderer_1_1_p_m_e_table_view_base.html#abe18704ee0189ac55323c93db488770c" target="_top" xlink:title="The name of the field&#45;descriptor for a join&#45;table field referencing a master&#45;join&#45;table.">
<polygon fill="white" stroke="#666666" points="282.5,-158 181,-158 181,-138 282.5,-138 282.5,-158"/>
<text text-anchor="middle" x="231.75" y="-144.5" font-family="Helvetica,sans-Serif" font-size="10.00">joinTableFieldName</text>
</a>
</g>
</g>
<!-- Node1&#45;&gt;Node12 -->
<g id="edge16_Node000001_Node000012" class="edge">
<title>Node1&#45;&gt;Node12</title>
<g id="a_edge16_Node000001_Node000012"><a xlink:title=" ">
<path fill="none" stroke="#63b8ff" d="M74.84,-244.7C91.07,-226.41 127.51,-188.2 166,-167 168.98,-165.36 172.12,-163.84 175.34,-162.45"/>
<polygon fill="#63b8ff" stroke="#63b8ff" points="176.35,-165.81 184.42,-158.94 173.83,-159.28 176.35,-165.81"/>
</a>
</g>
</g>
<!-- Node13 -->
<g id="Node000013" class="node">
<title>Node13</title>
<g id="a_Node000013"><a xlink:href="class_o_c_a_1_1_c_a_f_e_v_d_b_1_1_page_renderer_1_1_p_m_e_table_view_base.html#a67e29f07640bea5f1c3132bb88270a2b" target="_top" xlink:title="The name of the master join table field which triggers PME to actually do the join.">
<polygon fill="white" stroke="#666666" points="297.5,-120 166,-120 166,-100 297.5,-100 297.5,-120"/>
<text text-anchor="middle" x="231.75" y="-106.5" font-family="Helvetica,sans-Serif" font-size="10.00">joinTableMasterFieldName</text>
</a>
</g>
</g>
<!-- Node1&#45;&gt;Node13 -->
<g id="edge17_Node000001_Node000013" class="edge">
<title>Node1&#45;&gt;Node13</title>
<g id="a_edge17_Node000001_Node000013"><a xlink:title=" ">
<path fill="none" stroke="#63b8ff" d="M71.23,-244.75C84,-220.74 119.21,-160.51 166,-129 167.97,-127.67 170.04,-126.43 172.18,-125.28"/>
<polygon fill="#63b8ff" stroke="#63b8ff" points="173.57,-128.49 181.18,-121.12 170.64,-122.14 173.57,-128.49"/>
</a>
</g>
</g>
<!-- Node14 -->
<g id="Node000014" class="node">
<title>Node14</title>
<g id="a_Node000014"><a xlink:href="class_o_c_a_1_1_c_a_f_e_v_d_b_1_1_common_1_1_util.html#aa61d3de43b26061a4d0097306931c64f" target="_top" xlink:title="Remove all whitespace.">
<polygon fill="white" stroke="#666666" points="297.5,-82 166,-82 166,-50 297.5,-50 297.5,-82"/>
<text text-anchor="start" x="174" y="-68.5" font-family="Helvetica,sans-Serif" font-size="10.00">OCA\CAFEVDB\Common</text>
<text text-anchor="middle" x="231.75" y="-56.5" font-family="Helvetica,sans-Serif" font-size="10.00">\Util\removeSpaces</text>
</a>
</g>
</g>
<!-- Node1&#45;&gt;Node14 -->
<g id="edge18_Node000001_Node000014" class="edge">
<title>Node1&#45;&gt;Node14</title>
<g id="a_edge18_Node000001_Node000014"><a xlink:title=" ">
<path fill="none" stroke="#63b8ff" d="M69.61,-244.55C80.02,-215.94 112.76,-135.46 166,-91 167.09,-90.09 168.22,-89.21 169.38,-88.35"/>
<polygon fill="#63b8ff" stroke="#63b8ff" points="170.94,-91.51 177.52,-83.21 167.2,-85.6 170.94,-91.51"/>
</a>
</g>
</g>
<!-- Node16 -->
<g id="Node000016" class="node">
<title>Node16</title>
<g id="a_Node000016"><a xlink:href="class_o_c_a_1_1_c_a_f_e_v_d_b_1_1_common_1_1_util.html#a62e9094de93176fae4478b7eae96d61f" target="_top" xlink:title="Unset all array elements with value $value.">
<polygon fill="white" stroke="#666666" points="297.5,-32 166,-32 166,0 297.5,0 297.5,-32"/>
<text text-anchor="start" x="174" y="-18.5" font-family="Helvetica,sans-Serif" font-size="10.00">OCA\CAFEVDB\Common</text>
<text text-anchor="middle" x="231.75" y="-6.5" font-family="Helvetica,sans-Serif" font-size="10.00">\Util\unsetValue</text>
</a>
</g>
</g>
<!-- Node1&#45;&gt;Node16 -->
<g id="edge20_Node000001_Node000016" class="edge">
<title>Node1&#45;&gt;Node16</title>
<g id="a_edge20_Node000001_Node000016"><a xlink:title=" ">
<path fill="none" stroke="#63b8ff" d="M67.91,-244.92C74.82,-211.21 101.55,-101.17 166,-41 166.77,-40.28 167.56,-39.58 168.38,-38.9"/>
<polygon fill="#63b8ff" stroke="#63b8ff" points="170.34,-41.8 176.53,-33.2 166.33,-36.06 170.34,-41.8"/>
</a>
</g>
</g>
<!-- Node4&#45;&gt;Node3 -->
<g id="edge5_Node000004_Node000003" class="edge">
<title>Node4&#45;&gt;Node3</title>
<g id="a_edge5_Node000004_Node000003"><a xlink:title=" ">
<path fill="none" stroke="#63b8ff" d="M277.97,-428.38C306.06,-434.83 341.48,-442.96 366.58,-448.73"/>
<polygon fill="#63b8ff" stroke="#63b8ff" points="365.66,-452.11 376.19,-450.93 367.23,-445.29 365.66,-452.11"/>
</a>
</g>
</g>
<!-- Node5 -->
<g id="Node000005" class="node">
<title>Node5</title>
<g id="a_Node000005"><a xlink:href="class_o_c_a_1_1_c_a_f_e_v_d_b_1_1_common_1_1_util.html#a709d772c597d8bc18d170300a8cabbb7" target="_top" xlink:title=" ">
<polygon fill="white" stroke="#666666" points="465,-428 333.5,-428 333.5,-396 465,-396 465,-428"/>
<text text-anchor="start" x="341.5" y="-414.5" font-family="Helvetica,sans-Serif" font-size="10.00">OCA\CAFEVDB\Common</text>
<text text-anchor="middle" x="399.25" y="-402.5" font-family="Helvetica,sans-Serif" font-size="10.00">\Util\arraySliceKeys</text>
</a>
</g>
</g>
<!-- Node4&#45;&gt;Node5 -->
<g id="edge4_Node000004_Node000005" class="edge">
<title>Node4&#45;&gt;Node5</title>
<g id="a_edge4_Node000004_Node000005"><a xlink:title=" ">
<path fill="none" stroke="#63b8ff" d="M277.97,-416.36C291.55,-415.87 306.83,-415.31 321.84,-414.77"/>
<polygon fill="#63b8ff" stroke="#63b8ff" points="321.85,-418.27 331.71,-414.41 321.59,-411.28 321.85,-418.27"/>
</a>
</g>
</g>
<!-- Node6&#45;&gt;Node6 -->
<g id="edge7_Node000006_Node000006" class="edge">
<title>Node6&#45;&gt;Node6</title>
<g id="a_edge7_Node000006_Node000006"><a xlink:title=" ">
<path fill="none" stroke="#63b8ff" d="M369.35,-352.44C363.76,-361.58 373.73,-370 399.25,-370 413.2,-370 422.51,-367.48 427.16,-363.71"/>
<polygon fill="#63b8ff" stroke="#63b8ff" points="430.6,-364.39 428.89,-353.93 423.7,-363.17 430.6,-364.39"/>
</a>
</g>
</g>
<!-- Node7 -->
<g id="Node000007" class="node">
<title>Node7</title>
<g id="a_Node000007"><a xlink:href="class_o_c_a_1_1_c_a_f_e_v_d_b_1_1_common_1_1_util.html#a33027424113469f92dd6e70bcd90953f" target="_top" xlink:title="Un&#45;escape delimiters in the given value.">
<polygon fill="white" stroke="#666666" points="632.5,-352 501,-352 501,-320 632.5,-320 632.5,-352"/>
<text text-anchor="start" x="509" y="-338.5" font-family="Helvetica,sans-Serif" font-size="10.00">OCA\CAFEVDB\Common</text>
<text text-anchor="middle" x="566.75" y="-326.5" font-family="Helvetica,sans-Serif" font-size="10.00">\Util\unescapeDelimiter</text>
</a>
</g>
</g>
<!-- Node6&#45;&gt;Node7 -->
<g id="edge8_Node000006_Node000007" class="edge">
<title>Node6&#45;&gt;Node7</title>
<g id="a_edge8_Node000006_Node000007"><a xlink:title=" ">
<path fill="none" stroke="#63b8ff" d="M465.18,-336C473.13,-336 481.29,-336 489.38,-336"/>
<polygon fill="#63b8ff" stroke="#63b8ff" points="489.22,-339.5 499.22,-336 489.22,-332.5 489.22,-339.5"/>
</a>
</g>
</g>
<!-- Node8&#45;&gt;Node6 -->
<g id="edge10_Node000008_Node000006" class="edge">
<title>Node8&#45;&gt;Node6</title>
<g id="a_edge10_Node000008_Node000006"><a xlink:title=" ">
<path fill="none" stroke="#63b8ff" d="M297.68,-336C305.63,-336 313.79,-336 321.88,-336"/>
<polygon fill="#63b8ff" stroke="#63b8ff" points="321.72,-339.5 331.72,-336 321.72,-332.5 321.72,-339.5"/>
</a>
</g>
</g>
<!-- Node9&#45;&gt;Node6 -->
<g id="edge12_Node000009_Node000006" class="edge">
<title>Node9&#45;&gt;Node6</title>
<g id="a_edge12_Node000009_Node000006"><a xlink:title=" ">
<path fill="none" stroke="#63b8ff" d="M286.94,-302.37C301.58,-306.8 317.58,-311.63 332.77,-316.22"/>
<polygon fill="#63b8ff" stroke="#63b8ff" points="331.62,-319.53 342.21,-319.07 333.64,-312.83 331.62,-319.53"/>
</a>
</g>
</g>
<!-- Node10&#45;&gt;Node10 -->
<g id="edge14_Node000010_Node000010" class="edge">
<title>Node10&#45;&gt;Node10</title>
<g id="a_edge14_Node000010_Node000010"><a xlink:title=" ">
<path fill="none" stroke="#63b8ff" d="M205.26,-234.34C193.93,-242.98 202.76,-252 231.75,-252 247.6,-252 257.43,-249.3 261.22,-245.44"/>
<polygon fill="#63b8ff" stroke="#63b8ff" points="264.61,-244.55 258.64,-235.8 257.85,-246.37 264.61,-244.55"/>
</a>
</g>
</g>
<!-- Node15 -->
<g id="Node000015" class="node">
<title>Node15</title>
<g id="a_Node000015"><a xlink:href="class_o_c_a_1_1_c_a_f_e_v_d_b_1_1_common_1_1_util.html#a420255eaf134f40b32155f8138cde030" target="_top" xlink:title="Normalize spaces and commas after and before spaces.">
<polygon fill="white" stroke="#666666" points="465,-82 333.5,-82 333.5,-50 465,-50 465,-82"/>
<text text-anchor="start" x="341.5" y="-68.5" font-family="Helvetica,sans-Serif" font-size="10.00">OCA\CAFEVDB\Common</text>
<text text-anchor="middle" x="399.25" y="-56.5" font-family="Helvetica,sans-Serif" font-size="10.00">\Util\normalizeSpaces</text>
</a>
</g>
</g>
<!-- Node14&#45;&gt;Node15 -->
<g id="edge19_Node000014_Node000015" class="edge">
<title>Node14&#45;&gt;Node15</title>
<g id="a_edge19_Node000014_Node000015"><a xlink:title=" ">
<path fill="none" stroke="#63b8ff" d="M297.68,-66C305.63,-66 313.79,-66 321.88,-66"/>
<polygon fill="#63b8ff" stroke="#63b8ff" points="321.72,-69.5 331.72,-66 321.72,-62.5 321.72,-69.5"/>
</a>
</g>
</g>
</g>
</svg>
