<?xml version="1.0" encoding="UTF-8" standalone="no"?>
<!DOCTYPE svg PUBLIC "-//W3C//DTD SVG 1.1//EN"
 "http://www.w3.org/Graphics/SVG/1.1/DTD/svg11.dtd">
<!-- Generated by graphviz version 8.0.3 (20230416.2022)
 -->
<!-- Title: scanFontsFolder Pages: 1 -->
<svg width="502pt" height="27pt"
 viewBox="0.00 0.00 502.00 27.00" xmlns="http://www.w3.org/2000/svg" xmlns:xlink="http://www.w3.org/1999/xlink">
<g id="graph0" class="graph" transform="scale(1 1) rotate(0) translate(4 23)">
<title>scanFontsFolder</title>
<!-- Node1 -->
<g id="node1" class="node">
<title>Node1</title>
<g id="a_node1"><a xlink:title="Scan the app&#39;s fonts folder and return the contents grouped by font family.">
<polygon fill="#999999" stroke="#666666" points="494,-19 405,-19 405,0 494,0 494,-19"/>
<text text-anchor="middle" x="449.5" y="-7" font-family="Helvetica,sans-Serif" font-size="10.00">scanFontsFolder</text>
</a>
</g>
</g>
<!-- Node2 -->
<g id="node2" class="node">
<title>Node2</title>
<g id="a_node2"><a xlink:href="class_o_c_a_1_1_c_a_f_e_v_d_b_1_1_service_1_1_font_service.html#ad4a3b7b4eedfc6652afc11bd2f63a89e" target="_top" xlink:title="Obtain the cached contents of the font&#45;folder, grouped by family.">
<polygon fill="white" stroke="#666666" points="369,-19 262,-19 262,0 369,0 369,-19"/>
<text text-anchor="middle" x="315.5" y="-7" font-family="Helvetica,sans-Serif" font-size="10.00">getFontFolderEntries</text>
</a>
</g>
</g>
<!-- Node1&#45;&gt;Node2 -->
<g id="edge1" class="edge">
<title>Node1&#45;&gt;Node2</title>
<path fill="none" stroke="#63b8ff" d="M393.76,-9.5C385.72,-9.5 377.44,-9.5 369.43,-9.5"/>
<polygon fill="#63b8ff" stroke="#63b8ff" points="393.55,-13 403.55,-9.5 393.55,-6 393.55,-13"/>
</g>
<!-- Node3 -->
<g id="node3" class="node">
<title>Node3</title>
<g id="a_node3"><a xlink:href="class_o_c_a_1_1_c_a_f_e_v_d_b_1_1_service_1_1_font_service.html#a4f12fbd8873025e70264e416c3cb9308" target="_top" xlink:title="Check whether the given font.">
<polygon fill="white" stroke="#666666" points="226,-19 143,-19 143,0 226,0 226,-19"/>
<text text-anchor="middle" x="184.5" y="-7" font-family="Helvetica,sans-Serif" font-size="10.00">isFontAvailable</text>
</a>
</g>
</g>
<!-- Node2&#45;&gt;Node3 -->
<g id="edge2" class="edge">
<title>Node2&#45;&gt;Node3</title>
<path fill="none" stroke="#63b8ff" d="M250.74,-9.5C242.4,-9.5 234.03,-9.5 226.21,-9.5"/>
<polygon fill="#63b8ff" stroke="#63b8ff" points="250.66,-13 260.66,-9.5 250.66,-6 250.66,-13"/>
</g>
<!-- Node4 -->
<g id="node4" class="node">
<title>Node4</title>
<g id="a_node4"><a xlink:href="class_o_c_a_1_1_c_a_f_e_v_d_b_1_1_service_1_1_font_service.html#a5e7ba34cff754351f6d70869594408fa" target="_top" xlink:title="Return the chosen font&#45;default if it is available and set, otherwise one of the installed fonts.">
<polygon fill="white" stroke="#666666" points="107,-19 0,-19 0,0 107,0 107,-19"/>
<text text-anchor="middle" x="53.5" y="-7" font-family="Helvetica,sans-Serif" font-size="10.00">getDefaultFontName</text>
</a>
</g>
</g>
<!-- Node3&#45;&gt;Node4 -->
<g id="edge3" class="edge">
<title>Node3&#45;&gt;Node4</title>
<path fill="none" stroke="#63b8ff" d="M131.89,-9.5C123.81,-9.5 115.45,-9.5 107.34,-9.5"/>
<polygon fill="#63b8ff" stroke="#63b8ff" points="131.68,-13 141.68,-9.5 131.68,-6 131.68,-13"/>
</g>
</g>
</svg>
