<?xml version="1.0" encoding="UTF-8" standalone="no"?>
<!DOCTYPE svg PUBLIC "-//W3C//DTD SVG 1.1//EN"
 "http://www.w3.org/Graphics/SVG/1.1/DTD/svg11.dtd">
<!-- Generated by graphviz version 9.0.0 (20230911.1827)
 -->
<!-- Title: getSubscriptionRequest Pages: 1 -->
<svg width="479pt" height="78pt"
 viewBox="0.00 0.00 479.00 78.00" xmlns="http://www.w3.org/2000/svg" xmlns:xlink="http://www.w3.org/1999/xlink">
<g id="graph0" class="graph" transform="scale(1 1) rotate(0) translate(4 74)">
<title>getSubscriptionRequest</title>
<!-- Node1 -->
<g id="Node000001" class="node">
<title>Node1</title>
<g id="a_Node000001"><a xlink:title="Get or check for a pending invitation (=== email confirmation request) for the given subscription&#45;add...">
<polygon fill="#999999" stroke="#666666" points="471,-39 350.75,-39 350.75,-19 471,-19 471,-39"/>
<text text-anchor="middle" x="410.88" y="-25.5" font-family="Helvetica,sans-Serif" font-size="10.00">getSubscriptionRequest</text>
</a>
</g>
</g>
<!-- Node2 -->
<g id="Node000002" class="node">
<title>Node2</title>
<g id="a_Node000002"><a xlink:href="class_o_c_a_1_1_c_a_f_e_v_d_b_1_1_service_1_1_mailing_lists_service.html#a80b3751e479bc6620f7007cdd019869b" target="_top" xlink:title="Return a brief status for the requested list and email address.">
<polygon fill="white" stroke="#666666" points="303.12,-58 191.12,-58 191.12,-38 303.12,-38 303.12,-58"/>
<text text-anchor="middle" x="247.12" y="-44.5" font-family="Helvetica,sans-Serif" font-size="10.00">getSubscriptionStatus</text>
</a>
</g>
</g>
<!-- Node1&#45;&gt;Node2 -->
<g id="edge1_Node000001_Node000002" class="edge">
<title>Node1&#45;&gt;Node2</title>
<g id="a_edge1_Node000001_Node000002"><a xlink:title=" ">
<path fill="none" stroke="#63b8ff" d="M339.2,-37.3C327.21,-38.71 314.92,-40.15 303.4,-41.51"/>
<polygon fill="#63b8ff" stroke="#63b8ff" points="339.54,-40.79 349.06,-36.14 338.72,-33.83 339.54,-40.79"/>
</a>
</g>
</g>
<!-- Node4 -->
<g id="Node000004" class="node">
<title>Node4</title>
<g id="a_Node000004"><a xlink:href="class_o_c_a_1_1_c_a_f_e_v_d_b_1_1_service_1_1_mailing_lists_service.html#a0fee216c2f18c3e73b3ef43f97bf4329" target="_top" xlink:title="Dispose any pending subscription request with the given action.">
<polygon fill="white" stroke="#666666" points="314.75,-20 179.5,-20 179.5,0 314.75,0 314.75,-20"/>
<text text-anchor="middle" x="247.12" y="-6.5" font-family="Helvetica,sans-Serif" font-size="10.00">handleSubscriptionRequest</text>
</a>
</g>
</g>
<!-- Node1&#45;&gt;Node4 -->
<g id="edge3_Node000001_Node000004" class="edge">
<title>Node1&#45;&gt;Node4</title>
<g id="a_edge3_Node000001_Node000004"><a xlink:title=" ">
<path fill="none" stroke="#63b8ff" d="M339.31,-20.71C331.27,-19.77 323.08,-18.8 315.08,-17.87"/>
<polygon fill="#63b8ff" stroke="#63b8ff" points="338.72,-24.17 349.06,-21.86 339.54,-17.21 338.72,-24.17"/>
</a>
</g>
</g>
<!-- Node3 -->
<g id="Node000003" class="node">
<title>Node3</title>
<g id="a_Node000003"><a xlink:href="class_o_c_a_1_1_c_a_f_e_v_d_b_1_1_controller_1_1_project_participants_controller.html#a51746b27963d94b96e7519f4c78a571c" target="_top" xlink:title="Fetch the delivery states for the given email.">
<polygon fill="white" stroke="#666666" points="143.5,-70 0,-70 0,-26 143.5,-26 143.5,-70"/>
<text text-anchor="start" x="8" y="-56.5" font-family="Helvetica,sans-Serif" font-size="10.00">OCA\CAFEVDB\Controller</text>
<text text-anchor="start" x="8" y="-44.5" font-family="Helvetica,sans-Serif" font-size="10.00">\ProjectParticipantsController</text>
<text text-anchor="middle" x="71.75" y="-32.5" font-family="Helvetica,sans-Serif" font-size="10.00">\mailingListDeliveryStatus</text>
</a>
</g>
</g>
<!-- Node2&#45;&gt;Node3 -->
<g id="edge2_Node000002_Node000003" class="edge">
<title>Node2&#45;&gt;Node3</title>
<g id="a_edge2_Node000002_Node000003"><a xlink:title=" ">
<path fill="none" stroke="#63b8ff" d="M179.33,-48C167.67,-48 155.5,-48 143.73,-48"/>
<polygon fill="#63b8ff" stroke="#63b8ff" points="179.28,-51.5 189.28,-48 179.28,-44.5 179.28,-51.5"/>
</a>
</g>
</g>
</g>
</svg>
