<?xml version="1.0" encoding="UTF-8" standalone="no"?>
<!DOCTYPE svg PUBLIC "-//W3C//DTD SVG 1.1//EN"
 "http://www.w3.org/Graphics/SVG/1.1/DTD/svg11.dtd">
<!-- Generated by graphviz version 15.1.0 (20260618.0150)
 -->
<!-- Title: getUserSession Pages: 1 -->
<svg width="380pt" height="59pt"
 viewBox="0.00 0.00 380.00 59.00" xmlns="http://www.w3.org/2000/svg" xmlns:xlink="http://www.w3.org/1999/xlink">

<svg id="main" version="1.1" xmlns="http://www.w3.org/2000/svg" xmlns:xlink="http://www.w3.org/1999/xlink" xml:space="preserve">

<style type="text/css"><![CDATA[
.node, .edge {opacity: 0.7;}
.node.selected, .edge.selected {opacity: 1;}
.edge:hover path { stroke: red; }
.edge:hover polygon { stroke: red; fill: red; }
]]></style>
<script type="application/ecmascript" xlink:href="svg.min.js"/>
<svg id="graph" class="graph">
<g id="graph0" class="graph" transform="scale(1 1) rotate(0) translate(4 55.05)">
<title>getUserSession</title>
<!-- Node1 -->
<g id="Node000001" class="node">
<title>Node1</title>
<g id="a_Node000001"><a xlink:title=" ">
<polygon fill="#999999" stroke="#666666" points="85.75,-32.05 0,-32.05 0,-12.05 85.75,-12.05 85.75,-32.05"/>
<text xml:space="preserve" text-anchor="middle" x="42.88" y="-18.55" font-family="Helvetica,sans-Serif" font-size="10.00">getUserSession</text>
</a>
</g>
</g>
<!-- Node2 -->
<g id="Node000002" class="node">
<title>Node2</title>
<g id="a_Node000002"><a xlink:href="class_o_c_a_1_1_rot_drop_1_1_tests_1_1_abstract_mock_provider.html#a2b98c921c414416a5b1369387a0a60e5" target="_top" xlink:title=" ">
<polygon fill="white" stroke="#666666" points="372.25,-51.05 309,-51.05 309,-31.05 372.25,-31.05 372.25,-51.05"/>
<text xml:space="preserve" text-anchor="middle" x="340.62" y="-37.55" font-family="Helvetica,sans-Serif" font-size="10.00">createStub</text>
</a>
</g>
</g>
<!-- Node1&#45;&gt;Node2 -->
<g id="edge1_Node000001_Node000002" class="edge">
<title>Node1&#45;&gt;Node2</title>
<g id="a_edge1_Node000001_Node000002"><a xlink:title=" ">
<path fill="none" stroke="#63b8ff" d="M78.82,-32.46C92.13,-35.93 107.52,-39.34 121.75,-41.05 182.47,-48.35 253.39,-46.43 297.42,-44.02"/>
<polygon fill="#63b8ff" stroke="#63b8ff" points="297.53,-47.52 307.31,-43.44 297.12,-40.53 297.53,-47.52"/>
</a>
</g>
</g>
<!-- Node3 -->
<g id="Node000003" class="node">
<title>Node3</title>
<g id="a_Node000003"><a xlink:href="class_o_c_a_1_1_rot_drop_1_1_tests_1_1_abstract_mock_provider.html#aefa4c5bd150e2a7d525576d7959c6911" target="_top" xlink:title=" ">
<polygon fill="white" stroke="#666666" points="186.5,-32.05 121.75,-32.05 121.75,-12.05 186.5,-12.05 186.5,-32.05"/>
<text xml:space="preserve" text-anchor="middle" x="154.12" y="-18.55" font-family="Helvetica,sans-Serif" font-size="10.00">getSession</text>
</a>
</g>
</g>
<!-- Node1&#45;&gt;Node3 -->
<g id="edge2_Node000001_Node000003" class="edge">
<title>Node1&#45;&gt;Node3</title>
<g id="a_edge2_Node000001_Node000003"><a xlink:title=" ">
<path fill="none" stroke="#63b8ff" d="M86.11,-22.05C94.02,-22.05 102.29,-22.05 110.22,-22.05"/>
<polygon fill="#63b8ff" stroke="#63b8ff" points="109.99,-25.55 119.99,-22.05 109.99,-18.55 109.99,-25.55"/>
</a>
</g>
</g>
<!-- Node4 -->
<g id="Node000004" class="node">
<title>Node4</title>
<g id="a_Node000004"><a xlink:href="class_o_c_a_1_1_rot_drop_1_1_tests_1_1_abstract_mock_provider.html#ae81b7186fb97a7c6457edcc68c9aa2ef" target="_top" xlink:title=" ">
<polygon fill="white" stroke="#666666" points="273,-32.05 222.5,-32.05 222.5,-12.05 273,-12.05 273,-32.05"/>
<text xml:space="preserve" text-anchor="middle" x="247.75" y="-18.55" font-family="Helvetica,sans-Serif" font-size="10.00">getUser</text>
</a>
</g>
</g>
<!-- Node1&#45;&gt;Node4 -->
<g id="edge5_Node000001_Node000004" class="edge">
<title>Node1&#45;&gt;Node4</title>
<g id="a_edge5_Node000001_Node000004"><a xlink:title=" ">
<path fill="none" stroke="#63b8ff" d="M78.82,-11.63C92.13,-8.17 107.52,-4.76 121.75,-3.05 150.32,0.39 158.06,1.33 186.5,-3.05 194.68,-4.31 203.27,-6.47 211.32,-8.9"/>
<polygon fill="#63b8ff" stroke="#63b8ff" points="210.21,-12.22 220.8,-11.98 212.37,-5.57 210.21,-12.22"/>
</a>
</g>
</g>
<!-- Node3&#45;&gt;Node4 -->
<g id="edge3_Node000003_Node000004" class="edge">
<title>Node3&#45;&gt;Node4</title>
<g id="a_edge3_Node000003_Node000004"><a xlink:title=" ">
<path fill="none" stroke="#63b8ff" d="M186.91,-22.05C194.6,-22.05 202.87,-22.05 210.74,-22.05"/>
<polygon fill="#63b8ff" stroke="#63b8ff" points="210.73,-25.55 220.73,-22.05 210.73,-18.55 210.73,-25.55"/>
</a>
</g>
</g>
<!-- Node4&#45;&gt;Node2 -->
<g id="edge4_Node000004_Node000002" class="edge">
<title>Node4&#45;&gt;Node2</title>
<g id="a_edge4_Node000004_Node000002"><a xlink:title=" ">
<path fill="none" stroke="#63b8ff" d="M273.1,-27.14C280.62,-28.71 289.13,-30.49 297.49,-32.24"/>
<polygon fill="#63b8ff" stroke="#63b8ff" points="296.7,-35.65 307.2,-34.27 298.13,-28.8 296.7,-35.65"/>
</a>
</g>
</g>
</g>
</svg>
</svg>

<style type='text/css'>
<![CDATA[
[data-mouse-over-selected='false'] { opacity: 0.7; }
[data-mouse-over-selected='true']  { opacity: 1.0; }
]]>
</style>
<script type="application/ecmascript"><![CDATA[
document.addEventListener('DOMContentLoaded', (event) => {
  highlightEdges();
  highlightAdjacentNodes();
});
]]></script>
</svg>
