<?xml version="1.0" encoding="UTF-8" standalone="no"?>
<!DOCTYPE svg PUBLIC "-//W3C//DTD SVG 1.1//EN"
 "http://www.w3.org/Graphics/SVG/1.1/DTD/svg11.dtd">
<!-- Generated by graphviz version 7.1.0 (20230121.1956)
 -->
<!-- Title: onCalendarDeleted Pages: 1 -->
<svg width="234pt" height="64pt"
 viewBox="0.00 0.00 234.00 64.00" xmlns="http://www.w3.org/2000/svg" xmlns:xlink="http://www.w3.org/1999/xlink">
<g id="graph0" class="graph" transform="scale(1 1) rotate(0) translate(4 60)">
<title>onCalendarDeleted</title>
<!-- Node1 -->
<g id="node1" class="node">
<title>Node1</title>
<g id="a_node1"><a xlink:title=" ">
<polygon fill="#999999" stroke="#666666" points="100,-37 0,-37 0,-18 100,-18 100,-37"/>
<text text-anchor="middle" x="50" y="-25" font-family="Helvetica,sans-Serif" font-size="10.00">onCalendarDeleted</text>
</a>
</g>
</g>
<!-- Node2 -->
<g id="node2" class="node">
<title>Node2</title>
<g id="a_node2"><a xlink:href="class_o_c_a_1_1_c_a_f_e_v_d_b_1_1_service_1_1_events_service.html#a1b653ebe9d776389cdbf984629009f88" target="_top" xlink:title="Delete the configured calendar id.">
<polygon fill="white" stroke="#666666" points="226,-56 136,-56 136,-37 226,-37 226,-56"/>
<text text-anchor="middle" x="181" y="-44" font-family="Helvetica,sans-Serif" font-size="10.00">deleteCalendarId</text>
</a>
</g>
</g>
<!-- Node1&#45;&gt;Node2 -->
<g id="edge1" class="edge">
<title>Node1&#45;&gt;Node2</title>
<path fill="none" stroke="#63b8ff" d="M100.14,-34.74C108.07,-35.91 116.34,-37.12 124.42,-38.31"/>
<polygon fill="#63b8ff" stroke="#63b8ff" points="123.75,-41.75 134.16,-39.75 124.77,-34.83 123.75,-41.75"/>
</g>
<!-- Node3 -->
<g id="node3" class="node">
<title>Node3</title>
<g id="a_node3"><a xlink:href="class_o_c_a_1_1_c_a_f_e_v_d_b_1_1_service_1_1_events_service.html#ad0c26e96685f3326cedfc84c4abc9efc" target="_top" xlink:title=" ">
<polygon fill="white" stroke="#666666" points="219.5,-19 142.5,-19 142.5,0 219.5,0 219.5,-19"/>
<text text-anchor="middle" x="181" y="-7" font-family="Helvetica,sans-Serif" font-size="10.00">getCalendarId</text>
</a>
</g>
</g>
<!-- Node1&#45;&gt;Node3 -->
<g id="edge2" class="edge">
<title>Node1&#45;&gt;Node3</title>
<path fill="none" stroke="#63b8ff" d="M100.14,-20.64C110.28,-19.23 120.95,-17.74 131.09,-16.33"/>
<polygon fill="#63b8ff" stroke="#63b8ff" points="131.32,-19.83 140.74,-14.98 130.35,-12.89 131.32,-19.83"/>
</g>
</g>
</svg>
