<?xml version="1.0" encoding="UTF-8" standalone="no"?>
<!DOCTYPE svg PUBLIC "-//W3C//DTD SVG 1.1//EN"
 "http://www.w3.org/Graphics/SVG/1.1/DTD/svg11.dtd">
<!-- Generated by graphviz version 9.0.0 (20230911.1827)
 -->
<!-- Title: PhpSpreadsheetValueBinder Pages: 1 -->
<svg width="196pt" height="84pt"
 viewBox="0.00 0.00 196.00 84.00" xmlns="http://www.w3.org/2000/svg" xmlns:xlink="http://www.w3.org/1999/xlink">
<g id="graph0" class="graph" transform="scale(1 1) rotate(0) translate(4 80)">
<title>PhpSpreadsheetValueBinder</title>
<!-- Node1 -->
<g id="Node000001" class="node">
<title>Node1</title>
<g id="a_Node000001"><a xlink:title="Special value&#45;binder class with tweaks the standard implementation from PHPExcel a little bit.">
<polygon fill="#999999" stroke="#666666" points="170.5,-20 30.75,-20 30.75,0 170.5,0 170.5,-20"/>
<text text-anchor="middle" x="100.62" y="-6.5" font-family="Helvetica,sans-Serif" font-size="10.00">PhpSpreadsheetValueBinder</text>
</a>
</g>
</g>
<!-- Node2 -->
<g id="Node000002" class="node">
<title>Node2</title>
<g id="a_Node000002"><a xlink:title=" ">
<polygon fill="white" stroke="#bfbfbf" points="99.25,-76 0,-76 0,-56 99.25,-56 99.25,-76"/>
<text text-anchor="middle" x="49.62" y="-62.5" font-family="Helvetica,sans-Serif" font-size="10.00">DefaultValueBinder</text>
</a>
</g>
</g>
<!-- Node2&#45;&gt;Node1 -->
<g id="edge1_Node000001_Node000002" class="edge">
<title>Node2&#45;&gt;Node1</title>
<g id="a_edge1_Node000001_Node000002"><a xlink:title=" ">
<path fill="none" stroke="#63b8ff" d="M66.36,-47.29C74.86,-38.28 84.85,-27.7 91.84,-20.3"/>
<polygon fill="#63b8ff" stroke="#63b8ff" points="63.87,-44.82 59.55,-54.49 68.96,-49.63 63.87,-44.82"/>
</a>
</g>
</g>
<!-- Node3 -->
<g id="Node000003" class="node">
<title>Node3</title>
<g id="a_Node000003"><a xlink:title=" ">
<polygon fill="white" stroke="#bfbfbf" points="188,-76 117.25,-76 117.25,-56 188,-56 188,-76"/>
<text text-anchor="middle" x="152.62" y="-62.5" font-family="Helvetica,sans-Serif" font-size="10.00">IValueBinder</text>
</a>
</g>
</g>
<!-- Node3&#45;&gt;Node1 -->
<g id="edge2_Node000001_Node000003" class="edge">
<title>Node3&#45;&gt;Node1</title>
<g id="a_edge2_Node000001_Node000003"><a xlink:title=" ">
<path fill="none" stroke="#63b8ff" d="M135.84,-47.57C127.11,-38.5 116.78,-27.78 109.58,-20.3"/>
<polygon fill="#63b8ff" stroke="#63b8ff" points="133.06,-49.73 142.52,-54.5 138.1,-44.87 133.06,-49.73"/>
</a>
</g>
</g>
</g>
</svg>
