<?xml version="1.0" encoding="UTF-8" standalone="no"?>
<!DOCTYPE svg PUBLIC "-//W3C//DTD SVG 1.1//EN"
 "http://www.w3.org/Graphics/SVG/1.1/DTD/svg11.dtd">
<!-- Generated by graphviz version 8.0.3 (20230416.2022)
 -->
<!-- Title: findThread Pages: 1 -->
<svg width="319pt" height="100pt"
 viewBox="0.00 0.00 319.00 100.00" xmlns="http://www.w3.org/2000/svg" xmlns:xlink="http://www.w3.org/1999/xlink">
<g id="graph0" class="graph" transform="scale(1 1) rotate(0) translate(4 96)">
<title>findThread</title>
<!-- Node1 -->
<g id="node1" class="node">
<title>Node1</title>
<g id="a_node1"><a xlink:title="Fetch the array of messages referring to $id via inReplyTo.">
<polygon fill="#999999" stroke="#666666" points="311,-46 249,-46 249,-27 311,-27 311,-46"/>
<text text-anchor="middle" x="280" y="-34" font-family="Helvetica,sans-Serif" font-size="10.00">findThread</text>
</a>
</g>
</g>
<!-- Node2 -->
<g id="node2" class="node">
<title>Node2</title>
<g id="a_node2"><a xlink:href="class_o_c_a_1_1_c_a_f_e_v_d_b_1_1_database_1_1_cloud_1_1_mapper_1_1_blog_mapper.html#a0b1088a181ae69a49c7d67570a2e2efa" target="_top" xlink:title="Delete the given Note and the entire thread referring to it.">
<polygon fill="white" stroke="#666666" points="204,-74 140,-74 140,-55 204,-55 204,-74"/>
<text text-anchor="middle" x="172" y="-62" font-family="Helvetica,sans-Serif" font-size="10.00">deleteNote</text>
</a>
</g>
</g>
<!-- Node1&#45;&gt;Node2 -->
<g id="edge1" class="edge">
<title>Node1&#45;&gt;Node2</title>
<path fill="none" stroke="#63b8ff" d="M238.2,-47.28C227.02,-50.23 215.06,-53.39 204.49,-56.18"/>
<polygon fill="#63b8ff" stroke="#63b8ff" points="238.85,-50.46 247.62,-44.52 237.06,-43.69 238.85,-50.46"/>
</g>
<!-- Node3 -->
<g id="node3" class="node">
<title>Node3</title>
<g id="a_node3"><a xlink:href="class_o_c_a_1_1_c_a_f_e_v_d_b_1_1_database_1_1_cloud_1_1_mapper_1_1_blog_mapper.html#a8141b43e7efef89313e5358478647548" target="_top" xlink:title="Generate a complex tree structure reflecting the message threads.">
<polygon fill="white" stroke="#666666" points="213,-19 131,-19 131,0 213,0 213,-19"/>
<text text-anchor="middle" x="172" y="-7" font-family="Helvetica,sans-Serif" font-size="10.00">findThreadTree</text>
</a>
</g>
</g>
<!-- Node1&#45;&gt;Node3 -->
<g id="edge3" class="edge">
<title>Node1&#45;&gt;Node3</title>
<path fill="none" stroke="#63b8ff" d="M238.11,-26.08C229.56,-23.91 220.57,-21.62 212.1,-19.46"/>
<polygon fill="#63b8ff" stroke="#63b8ff" points="237.07,-29.69 247.62,-28.76 238.8,-22.9 237.07,-29.69"/>
</g>
<!-- Node2&#45;&gt;Node2 -->
<g id="edge2" class="edge">
<title>Node2&#45;&gt;Node2</title>
<path fill="none" stroke="#63b8ff" d="M191.54,-84.76C189.49,-88.97 182.98,-92 172,-92 153.02,-92 147.38,-82.94 155.09,-74.37"/>
<polygon fill="#63b8ff" stroke="#63b8ff" points="194.76,-84.2 188.91,-75.37 187.97,-85.92 194.76,-84.2"/>
</g>
<!-- Node3&#45;&gt;Node3 -->
<g id="edge5" class="edge">
<title>Node3&#45;&gt;Node3</title>
<path fill="none" stroke="#63b8ff" d="M191.54,-29.76C189.49,-33.97 182.98,-37 172,-37 153.02,-37 147.38,-27.94 155.09,-19.37"/>
<polygon fill="#63b8ff" stroke="#63b8ff" points="194.76,-29.2 188.91,-20.37 187.97,-30.92 194.76,-29.2"/>
</g>
<!-- Node4 -->
<g id="node4" class="node">
<title>Node4</title>
<g id="a_node4"><a xlink:href="class_o_c_a_1_1_c_a_f_e_v_d_b_1_1_database_1_1_cloud_1_1_mapper_1_1_blog_mapper.html#a021c7a67206f271d83d48044c1bacfd1" target="_top" xlink:title="Generate a complex tree structure reflecting the message threads.">
<polygon fill="white" stroke="#666666" points="95,-19 0,-19 0,0 95,0 95,-19"/>
<text text-anchor="middle" x="47.5" y="-7" font-family="Helvetica,sans-Serif" font-size="10.00">findThreadDisplay</text>
</a>
</g>
</g>
<!-- Node3&#45;&gt;Node4 -->
<g id="edge4" class="edge">
<title>Node3&#45;&gt;Node4</title>
<path fill="none" stroke="#63b8ff" d="M119.71,-9.5C111.61,-9.5 103.27,-9.5 95.28,-9.5"/>
<polygon fill="#63b8ff" stroke="#63b8ff" points="119.55,-13 129.55,-9.5 119.55,-6 119.55,-13"/>
</g>
</g>
</svg>
