<?xml version="1.0" encoding="UTF-8" standalone="no"?>
<!DOCTYPE svg PUBLIC "-//W3C//DTD SVG 1.1//EN"
 "http://www.w3.org/Graphics/SVG/1.1/DTD/svg11.dtd">
<!-- Generated by graphviz version 8.0.3 (20230416.2022)
 -->
<!-- Title: sudo Pages: 1 -->
<svg width="315pt" height="65pt"
 viewBox="0.00 0.00 315.00 65.00" xmlns="http://www.w3.org/2000/svg" xmlns:xlink="http://www.w3.org/1999/xlink">
<g id="graph0" class="graph" transform="scale(1 1) rotate(0) translate(4 61)">
<title>sudo</title>
<!-- Node1 -->
<g id="node1" class="node">
<title>Node1</title>
<g id="a_node1"><a xlink:title="Fake execution with other user&#45;id.">
<polygon fill="#999999" stroke="#666666" points="38,-38 0,-38 0,-19 38,-19 38,-38"/>
<text text-anchor="middle" x="19" y="-26" font-family="Helvetica,sans-Serif" font-size="10.00">sudo</text>
</a>
</g>
</g>
<!-- Node2 -->
<g id="node2" class="node">
<title>Node2</title>
<g id="a_node2"><a xlink:href="class_o_c_a_1_1_c_a_f_e_v_d_b_1_1_service_1_1_config_service.html#a7b6e5c12813dec3c45ec9531820c539a" target="_top" xlink:title="Install a new user.">
<polygon fill="white" stroke="#666666" points="220,-57 169,-57 169,-38 220,-38 220,-57"/>
<text text-anchor="middle" x="194.5" y="-45" font-family="Helvetica,sans-Serif" font-size="10.00">setUser</text>
</a>
</g>
</g>
<!-- Node1&#45;&gt;Node2 -->
<g id="edge1" class="edge">
<title>Node1&#45;&gt;Node2</title>
<path fill="none" stroke="#63b8ff" d="M38.24,-30.5C66.55,-33.6 121.57,-39.62 157.93,-43.6"/>
<polygon fill="#63b8ff" stroke="#63b8ff" points="157.24,-47.16 167.56,-44.77 158,-40.2 157.24,-47.16"/>
</g>
<!-- Node4 -->
<g id="node4" class="node">
<title>Node4</title>
<g id="a_node4"><a xlink:href="class_o_c_a_1_1_c_a_f_e_v_d_b_1_1_service_1_1_config_service.html#a6cacbeb3555df4a292566b2e1b9bb574" target="_top" xlink:title="Install a new user id.">
<polygon fill="white" stroke="#666666" points="133,-19 74,-19 74,0 133,0 133,-19"/>
<text text-anchor="middle" x="103.5" y="-7" font-family="Helvetica,sans-Serif" font-size="10.00">setUserId</text>
</a>
</g>
</g>
<!-- Node1&#45;&gt;Node4 -->
<g id="edge3" class="edge">
<title>Node1&#45;&gt;Node4</title>
<path fill="none" stroke="#63b8ff" d="M38.31,-24.28C45.59,-22.61 54.26,-20.61 62.84,-18.63"/>
<polygon fill="#63b8ff" stroke="#63b8ff" points="63.59,-21.82 72.55,-16.17 62.02,-15 63.59,-21.82"/>
</g>
<!-- Node3 -->
<g id="node3" class="node">
<title>Node3</title>
<g id="a_node3"><a xlink:href="class_o_c_a_1_1_c_a_f_e_v_d_b_1_1_service_1_1_config_service.html#a8be64a59621bfe298a4109ce08229ecd" target="_top" xlink:title=" ">
<polygon fill="white" stroke="#666666" points="307,-38 256,-38 256,-19 307,-19 307,-38"/>
<text text-anchor="middle" x="281.5" y="-26" font-family="Helvetica,sans-Serif" font-size="10.00">getUser</text>
</a>
</g>
</g>
<!-- Node2&#45;&gt;Node3 -->
<g id="edge2" class="edge">
<title>Node2&#45;&gt;Node3</title>
<path fill="none" stroke="#63b8ff" d="M220.09,-42C227.86,-40.27 236.61,-38.31 244.99,-36.44"/>
<polygon fill="#63b8ff" stroke="#63b8ff" points="245.68,-39.65 254.68,-34.05 244.15,-32.81 245.68,-39.65"/>
</g>
<!-- Node4&#45;&gt;Node2 -->
<g id="edge5" class="edge">
<title>Node4&#45;&gt;Node2</title>
<path fill="none" stroke="#63b8ff" d="M127.88,-19.48C137.8,-23.72 149.53,-28.73 160.31,-33.33"/>
<polygon fill="#63b8ff" stroke="#63b8ff" points="158.7,-36.87 169.27,-37.58 161.45,-30.44 158.7,-36.87"/>
</g>
<!-- Node4&#45;&gt;Node3 -->
<g id="edge4" class="edge">
<title>Node4&#45;&gt;Node3</title>
<path fill="none" stroke="#63b8ff" d="M133.17,-12.59C163.71,-15.89 212.1,-21.12 245.02,-24.67"/>
<polygon fill="#63b8ff" stroke="#63b8ff" points="244.23,-28.21 254.55,-25.81 244.98,-21.25 244.23,-28.21"/>
</g>
</g>
</svg>
