<?xml version="1.0" encoding="UTF-8" standalone="no"?>
<!DOCTYPE svg PUBLIC "-//W3C//DTD SVG 1.1//EN"
 "http://www.w3.org/Graphics/SVG/1.1/DTD/svg11.dtd">
<!-- Generated by graphviz version 9.0.0 (20230911.1827)
 -->
<!-- Title: getCards Pages: 1 -->
<svg width="290pt" height="28pt"
 viewBox="0.00 0.00 290.00 28.00" xmlns="http://www.w3.org/2000/svg" xmlns:xlink="http://www.w3.org/1999/xlink">
<g id="graph0" class="graph" transform="scale(1 1) rotate(0) translate(4 24)">
<title>getCards</title>
<!-- Node1 -->
<g id="Node000001" class="node">
<title>Node1</title>
<g id="a_Node000001"><a xlink:title="{MusicianCard[]}">
<polygon fill="#999999" stroke="#666666" points="55.75,-20 0,-20 0,0 55.75,0 55.75,-20"/>
<text text-anchor="middle" x="27.88" y="-6.5" font-family="Helvetica,sans-Serif" font-size="10.00">getCards</text>
</a>
</g>
</g>
<!-- Node2 -->
<g id="Node000002" class="node">
<title>Node2</title>
<g id="a_Node000002"><a xlink:href="class_o_c_a_1_1_c_a_f_e_v_d_b_1_1_address_book_1_1_musician_card_backend.html#ae67e20e0060d08fda2a321db24706055" target="_top" xlink:title="{}">
<polygon fill="white" stroke="#666666" points="161,-20 91.75,-20 91.75,0 161,0 161,-20"/>
<text text-anchor="middle" x="126.38" y="-6.5" font-family="Helvetica,sans-Serif" font-size="10.00">entryToCard</text>
</a>
</g>
</g>
<!-- Node1&#45;&gt;Node2 -->
<g id="edge1_Node000001_Node000002" class="edge">
<title>Node1&#45;&gt;Node2</title>
<g id="a_edge1_Node000001_Node000002"><a xlink:title=" ">
<path fill="none" stroke="#63b8ff" d="M56.01,-10C63.51,-10 71.87,-10 80.1,-10"/>
<polygon fill="#63b8ff" stroke="#63b8ff" points="80.05,-13.5 90.05,-10 80.05,-6.5 80.05,-13.5"/>
</a>
</g>
</g>
<!-- Node3 -->
<g id="Node000003" class="node">
<title>Node3</title>
<g id="a_Node000003"><a xlink:href="class_o_c_a_1_1_c_a_f_e_v_d_b_1_1_address_book_1_1_musician_card_backend.html#a485c110595ab2fae9aed67693e23f38f" target="_top" xlink:title="{}">
<polygon fill="white" stroke="#666666" points="282,-20 197,-20 197,0 282,0 282,-20"/>
<text text-anchor="middle" x="239.5" y="-6.5" font-family="Helvetica,sans-Serif" font-size="10.00">getUriFromUuid</text>
</a>
</g>
</g>
<!-- Node2&#45;&gt;Node3 -->
<g id="edge2_Node000002_Node000003" class="edge">
<title>Node2&#45;&gt;Node3</title>
<g id="a_edge2_Node000002_Node000003"><a xlink:title=" ">
<path fill="none" stroke="#63b8ff" d="M161.32,-10C168.87,-10 177.05,-10 185.16,-10"/>
<polygon fill="#63b8ff" stroke="#63b8ff" points="185.01,-13.5 195.01,-10 185.01,-6.5 185.01,-13.5"/>
</a>
</g>
</g>
</g>
</svg>
