<?xml version="1.0" encoding="UTF-8" standalone="no"?>
<!DOCTYPE svg PUBLIC "-//W3C//DTD SVG 1.1//EN"
 "http://www.w3.org/Graphics/SVG/1.1/DTD/svg11.dtd">
<!-- Generated by graphviz version 7.1.0 (20230121.1956)
 -->
<!-- Title: get Pages: 1 -->
<svg width="347pt" height="182pt"
 viewBox="0.00 0.00 347.00 182.00" xmlns="http://www.w3.org/2000/svg" xmlns:xlink="http://www.w3.org/1999/xlink">
<g id="graph0" class="graph" transform="scale(1 1) rotate(0) translate(4 178)">
<title>get</title>
<!-- Node1 -->
<g id="node1" class="node">
<title>Node1</title>
<g id="a_node1"><a xlink:title=" ">
<polygon fill="#999999" stroke="#666666" points="30,-96.5 0,-96.5 0,-77.5 30,-77.5 30,-96.5"/>
<text text-anchor="middle" x="15" y="-84.5" font-family="Helvetica,sans-Serif" font-size="10.00">get</text>
</a>
</g>
</g>
<!-- Node2 -->
<g id="node2" class="node">
<title>Node2</title>
<g id="a_node2"><a xlink:href="class_o_c_a_1_1_c_a_f_e_v_d_b_1_1_controller_1_1_progress_status_controller.html#adb141c8ddbf823f25281b1ff95a3420c" target="_top" xlink:title=" ">
<polygon fill="white" stroke="#666666" points="164,-96.5 66,-96.5 66,-77.5 164,-77.5 164,-96.5"/>
<text text-anchor="middle" x="115" y="-84.5" font-family="Helvetica,sans-Serif" font-size="10.00">progressResponse</text>
</a>
</g>
</g>
<!-- Node1&#45;&gt;Node2 -->
<g id="edge1" class="edge">
<title>Node1&#45;&gt;Node2</title>
<path fill="none" stroke="#63b8ff" d="M30.46,-87C37.12,-87 45.52,-87 54.41,-87"/>
<polygon fill="#63b8ff" stroke="#63b8ff" points="54.32,-90.5 64.32,-87 54.32,-83.5 54.32,-90.5"/>
</g>
<!-- Node3 -->
<g id="node3" class="node">
<title>Node3</title>
<g id="a_node3"><a xlink:href="interface_o_c_a_1_1_c_a_f_e_v_d_b_1_1_common_1_1_i_progress_status.html#ad926899d7cac34a3f1a90e552d8eb27d" target="_top" xlink:title="Return the cached value of the current state.">
<polygon fill="white" stroke="#666666" points="339,-174 200,-174 200,-144 339,-144 339,-174"/>
<text text-anchor="start" x="208" y="-162" font-family="Helvetica,sans-Serif" font-size="10.00">OCA\CAFEVDB\Common</text>
<text text-anchor="middle" x="269.5" y="-151" font-family="Helvetica,sans-Serif" font-size="10.00">\IProgressStatus\getCurrent</text>
</a>
</g>
</g>
<!-- Node2&#45;&gt;Node3 -->
<g id="edge2" class="edge">
<title>Node2&#45;&gt;Node3</title>
<path fill="none" stroke="#63b8ff" d="M131.34,-96.9C147.85,-107.28 175.09,-123.63 200,-135 203.32,-136.52 206.78,-138 210.28,-139.43"/>
<polygon fill="#63b8ff" stroke="#63b8ff" points="208.89,-142.65 219.48,-143.03 211.44,-136.13 208.89,-142.65"/>
</g>
<!-- Node4 -->
<g id="node4" class="node">
<title>Node4</title>
<g id="a_node4"><a xlink:href="interface_o_c_a_1_1_c_a_f_e_v_d_b_1_1_common_1_1_i_progress_status.html#a81a67162a6288d78fc4c55283325f0b4" target="_top" xlink:title="Return the cached value of the custom data, i.e.">
<polygon fill="white" stroke="#666666" points="335.5,-126 203.5,-126 203.5,-96 335.5,-96 335.5,-126"/>
<text text-anchor="start" x="211.5" y="-114" font-family="Helvetica,sans-Serif" font-size="10.00">OCA\CAFEVDB\Common</text>
<text text-anchor="middle" x="269.5" y="-103" font-family="Helvetica,sans-Serif" font-size="10.00">\IProgressStatus\getData</text>
</a>
</g>
</g>
<!-- Node2&#45;&gt;Node4 -->
<g id="edge3" class="edge">
<title>Node2&#45;&gt;Node4</title>
<path fill="none" stroke="#63b8ff" d="M164.25,-94.59C173.16,-96 182.66,-97.49 192.16,-98.99"/>
<polygon fill="#63b8ff" stroke="#63b8ff" points="191.36,-102.4 201.78,-100.5 192.44,-95.49 191.36,-102.4"/>
</g>
<!-- Node5 -->
<g id="node5" class="node">
<title>Node5</title>
<g id="a_node5"><a xlink:href="interface_o_c_a_1_1_c_a_f_e_v_d_b_1_1_common_1_1_i_progress_status.html#a12251d0c022e9e21c137a105ff683f13" target="_top" xlink:title="Obtain a unique but opaque identifier (e.g.">
<polygon fill="white" stroke="#666666" points="335.5,-78 203.5,-78 203.5,-48 335.5,-48 335.5,-78"/>
<text text-anchor="start" x="211.5" y="-66" font-family="Helvetica,sans-Serif" font-size="10.00">OCA\CAFEVDB\Common</text>
<text text-anchor="middle" x="269.5" y="-55" font-family="Helvetica,sans-Serif" font-size="10.00">\IProgressStatus\getId</text>
</a>
</g>
</g>
<!-- Node2&#45;&gt;Node5 -->
<g id="edge4" class="edge">
<title>Node2&#45;&gt;Node5</title>
<path fill="none" stroke="#63b8ff" d="M164.25,-79.41C173.16,-78 182.66,-76.51 192.16,-75.01"/>
<polygon fill="#63b8ff" stroke="#63b8ff" points="192.44,-78.51 201.78,-73.5 191.36,-71.6 192.44,-78.51"/>
</g>
<!-- Node6 -->
<g id="node6" class="node">
<title>Node6</title>
<g id="a_node6"><a xlink:href="interface_o_c_a_1_1_c_a_f_e_v_d_b_1_1_common_1_1_i_progress_status.html#afd77d5a1c164c8d6f4a18cbf9c341410" target="_top" xlink:title="Return the cached value of the target state.">
<polygon fill="white" stroke="#666666" points="336.5,-30 202.5,-30 202.5,0 336.5,0 336.5,-30"/>
<text text-anchor="start" x="210.5" y="-18" font-family="Helvetica,sans-Serif" font-size="10.00">OCA\CAFEVDB\Common</text>
<text text-anchor="middle" x="269.5" y="-7" font-family="Helvetica,sans-Serif" font-size="10.00">\IProgressStatus\getTarget</text>
</a>
</g>
</g>
<!-- Node2&#45;&gt;Node6 -->
<g id="edge5" class="edge">
<title>Node2&#45;&gt;Node6</title>
<path fill="none" stroke="#63b8ff" d="M131.34,-77.1C147.85,-66.72 175.09,-50.37 200,-39 203.32,-37.48 206.78,-36 210.28,-34.57"/>
<polygon fill="#63b8ff" stroke="#63b8ff" points="211.44,-37.87 219.48,-30.97 208.89,-31.35 211.44,-37.87"/>
</g>
</g>
</svg>
