<?xml version="1.0" encoding="UTF-8" standalone="no"?>
<!DOCTYPE svg PUBLIC "-//W3C//DTD SVG 1.1//EN"
 "http://www.w3.org/Graphics/SVG/1.1/DTD/svg11.dtd">
<!-- Generated by graphviz version 8.0.3 (20230416.2022)
 -->
<!-- Title: unserializeKey Pages: 1 -->
<svg width="299pt" height="46pt"
 viewBox="0.00 0.00 299.00 46.00" xmlns="http://www.w3.org/2000/svg" xmlns:xlink="http://www.w3.org/1999/xlink">
<g id="graph0" class="graph" transform="scale(1 1) rotate(0) translate(4 42)">
<title>unserializeKey</title>
<!-- Node1 -->
<g id="node1" class="node">
<title>Node1</title>
<g id="a_node1"><a xlink:title="Decode the raw data fetch from whatever storage backend.">
<polygon fill="#999999" stroke="#666666" points="291,-38 211,-38 211,-19 291,-19 291,-38"/>
<text text-anchor="middle" x="251" y="-26" font-family="Helvetica,sans-Serif" font-size="10.00">unserializeKey</text>
</a>
</g>
</g>
<!-- Node2 -->
<g id="node2" class="node">
<title>Node2</title>
<g id="a_node2"><a xlink:href="class_o_c_a_1_1_c_a_f_e_v_d_b_1_1_crypto_1_1_cloud_asymmetric_key_storage.html#a042db151aba1db9684f8bee2e2c8575e" target="_top" xlink:title="{Retrieve an existing private/public key pair from the key&#45;storage.array&lt;string, string&gt; [ &#39;privateEn...">
<polygon fill="white" stroke="#666666" points="65,-38 0,-38 0,-19 65,-19 65,-38"/>
<text text-anchor="middle" x="32.5" y="-26" font-family="Helvetica,sans-Serif" font-size="10.00">getKeyPair</text>
</a>
</g>
</g>
<!-- Node1&#45;&gt;Node2 -->
<g id="edge1" class="edge">
<title>Node1&#45;&gt;Node2</title>
<path fill="none" stroke="#63b8ff" d="M199.57,-28.5C158.1,-28.5 100.61,-28.5 65.3,-28.5"/>
<polygon fill="#63b8ff" stroke="#63b8ff" points="199.54,-32 209.54,-28.5 199.54,-25 199.54,-32"/>
</g>
<!-- Node3 -->
<g id="node3" class="node">
<title>Node3</title>
<g id="a_node3"><a xlink:href="class_o_c_a_1_1_c_a_f_e_v_d_b_1_1_crypto_1_1_cloud_asymmetric_key_storage.html#a234d412fd67a827e1ef76aee0263a985" target="_top" xlink:title="{Retrieve an existing pulic key from the key&#45;storage.mixed|null Public key or null if none is found....">
<polygon fill="white" stroke="#666666" points="175,-19 101,-19 101,0 175,0 175,-19"/>
<text text-anchor="middle" x="138" y="-7" font-family="Helvetica,sans-Serif" font-size="10.00">getPublicKey</text>
</a>
</g>
</g>
<!-- Node1&#45;&gt;Node3 -->
<g id="edge2" class="edge">
<title>Node1&#45;&gt;Node3</title>
<path fill="none" stroke="#63b8ff" d="M199.86,-19.92C191.6,-18.5 183.19,-17.06 175.36,-15.72"/>
<polygon fill="#63b8ff" stroke="#63b8ff" points="199.11,-23.51 209.55,-21.75 200.29,-16.61 199.11,-23.51"/>
</g>
<!-- Node3&#45;&gt;Node2 -->
<g id="edge3" class="edge">
<title>Node3&#45;&gt;Node2</title>
<path fill="none" stroke="#63b8ff" d="M89.74,-18.18C81.43,-19.7 72.95,-21.26 65.19,-22.68"/>
<polygon fill="#63b8ff" stroke="#63b8ff" points="90.31,-21.45 99.51,-16.2 89.04,-14.56 90.31,-21.45"/>
</g>
</g>
</svg>
