<?xml version="1.0" encoding="UTF-8" standalone="no"?>
<!DOCTYPE svg PUBLIC "-//W3C//DTD SVG 1.1//EN"
 "http://www.w3.org/Graphics/SVG/1.1/DTD/svg11.dtd">
<!-- Generated by graphviz version 8.0.3 (20230416.2022)
 -->
<!-- Title: determineUserBase Pages: 1 -->
<svg width="362pt" height="64pt"
 viewBox="0.00 0.00 362.00 64.00" xmlns="http://www.w3.org/2000/svg" xmlns:xlink="http://www.w3.org/1999/xlink">
<g id="graph0" class="graph" transform="scale(1 1) rotate(0) translate(4 60)">
<title>determineUserBase</title>
<!-- Node1 -->
<g id="node1" class="node">
<title>Node1</title>
<g id="a_node1"><a xlink:title="Decode the check&#45;boxes which select the set of users we consider basically.">
<polygon fill="#999999" stroke="#666666" points="103,-37 0,-37 0,-18 103,-18 103,-37"/>
<text text-anchor="middle" x="51.5" y="-25" font-family="Helvetica,sans-Serif" font-size="10.00">determineUserBase</text>
</a>
</g>
</g>
<!-- Node2 -->
<g id="node2" class="node">
<title>Node2</title>
<g id="a_node2"><a xlink:href="class_o_c_a_1_1_c_a_f_e_v_d_b_1_1_email_form_1_1_recipients_filter.html#a1497fe5acb2403ca1873ec2fd4b790fe" target="_top" xlink:title="Fetch a CGI&#45;variable out of the form&#45;select name&#45;space.">
<polygon fill="white" stroke="#666666" points="210,-56 157,-56 157,-37 210,-37 210,-56"/>
<text text-anchor="middle" x="183.5" y="-44" font-family="Helvetica,sans-Serif" font-size="10.00">cgiValue</text>
</a>
</g>
</g>
<!-- Node1&#45;&gt;Node2 -->
<g id="edge1" class="edge">
<title>Node1&#45;&gt;Node2</title>
<path fill="none" stroke="#63b8ff" d="M103.13,-34.9C117.39,-36.98 132.62,-39.21 145.89,-41.15"/>
<polygon fill="#63b8ff" stroke="#63b8ff" points="145.1,-44.72 155.51,-42.7 146.12,-37.79 145.1,-44.72"/>
</g>
<!-- Node3 -->
<g id="node3" class="node">
<title>Node3</title>
<g id="a_node3"><a xlink:href="class_o_c_a_1_1_c_a_f_e_v_d_b_1_1_email_form_1_1_recipients_filter.html#a37ce309e4090903297fa1c705634537d" target="_top" xlink:title="The default user base.">
<polygon fill="white" stroke="#666666" points="228,-19 139,-19 139,0 228,0 228,-19"/>
<text text-anchor="middle" x="183.5" y="-7" font-family="Helvetica,sans-Serif" font-size="10.00">defaultUserBase</text>
</a>
</g>
</g>
<!-- Node1&#45;&gt;Node3 -->
<g id="edge2" class="edge">
<title>Node1&#45;&gt;Node3</title>
<path fill="none" stroke="#63b8ff" d="M103.13,-20.49C111.26,-19.36 119.71,-18.19 127.93,-17.06"/>
<polygon fill="#63b8ff" stroke="#63b8ff" points="128.12,-20.42 137.55,-15.59 127.16,-13.49 128.12,-20.42"/>
</g>
<!-- Node4 -->
<g id="node4" class="node">
<title>Node4</title>
<g id="a_node4"><a xlink:href="class_o_c_a_1_1_c_a_f_e_v_d_b_1_1_email_form_1_1_recipients_filter.html#a180e59b5c87d178df0b6929526f2c38a" target="_top" xlink:title=" ">
<polygon fill="white" stroke="#666666" points="354,-19 264,-19 264,0 354,0 354,-19"/>
<text text-anchor="middle" x="309" y="-7" font-family="Helvetica,sans-Serif" font-size="10.00">frozenRecipients</text>
</a>
</g>
</g>
<!-- Node3&#45;&gt;Node4 -->
<g id="edge3" class="edge">
<title>Node3&#45;&gt;Node4</title>
<path fill="none" stroke="#63b8ff" d="M228.39,-9.5C236.39,-9.5 244.83,-9.5 253.11,-9.5"/>
<polygon fill="#63b8ff" stroke="#63b8ff" points="252.84,-13 262.84,-9.5 252.84,-6 252.84,-13"/>
</g>
</g>
</svg>
