<?xml version="1.0" encoding="UTF-8" standalone="no"?>
<!DOCTYPE svg PUBLIC "-//W3C//DTD SVG 1.1//EN"
 "http://www.w3.org/Graphics/SVG/1.1/DTD/svg11.dtd">
<!-- Generated by graphviz version 9.0.0 (20230911.1827)
 -->
<!-- Title: getFormatDrivers Pages: 1 -->
<svg width="472pt" height="40pt"
 viewBox="0.00 0.00 472.25 40.00" xmlns="http://www.w3.org/2000/svg" xmlns:xlink="http://www.w3.org/1999/xlink">
<g id="graph0" class="graph" transform="scale(1 1) rotate(0) translate(4 36)">
<title>getFormatDrivers</title>
<!-- Node1 -->
<g id="Node000001" class="node">
<title>Node1</title>
<g id="a_Node000001"><a xlink:title="Fetch all drivers matching the given abilities.">
<polygon fill="#999999" stroke="#666666" points="464.25,-26 372.5,-26 372.5,-6 464.25,-6 464.25,-26"/>
<text text-anchor="middle" x="418.38" y="-12.5" font-family="Helvetica,sans-Serif" font-size="10.00">getFormatDrivers</text>
</a>
</g>
</g>
<!-- Node2 -->
<g id="Node000002" class="node">
<title>Node2</title>
<g id="a_Node000002"><a xlink:href="class_o_c_a_1_1_c_a_f_e_v_d_b_1_1_toolkit_1_1_backend_1_1_archive_backend.html#a2714bd86f40228fd9c4b045566c433f5" target="_top" xlink:title="{}">
<polygon fill="white" stroke="#666666" points="336.5,-32 181,-32 181,0 336.5,0 336.5,-32"/>
<text text-anchor="start" x="189" y="-18.5" font-family="Helvetica,sans-Serif" font-size="10.00">OCA\CAFEVDB\Toolkit</text>
<text text-anchor="middle" x="258.75" y="-6.5" font-family="Helvetica,sans-Serif" font-size="10.00">\Backend\ArchiveBackend\open</text>
</a>
</g>
</g>
<!-- Node1&#45;&gt;Node2 -->
<g id="edge1_Node000001_Node000002" class="edge">
<title>Node1&#45;&gt;Node2</title>
<g id="a_edge1_Node000001_Node000002"><a xlink:title=" ">
<path fill="none" stroke="#63b8ff" d="M360.69,-16C352.92,-16 344.84,-16 336.77,-16"/>
<polygon fill="#63b8ff" stroke="#63b8ff" points="360.69,-19.5 370.69,-16 360.69,-12.5 360.69,-19.5"/>
</a>
</g>
</g>
<!-- Node3 -->
<g id="Node000003" class="node">
<title>Node3</title>
<g id="a_Node000003"><a xlink:href="class_o_c_a_1_1_c_a_f_e_v_d_b_1_1_toolkit_1_1_service_1_1_archive_service.html#ad1d53e5cbdc6d39c917e86f2ae794aeb" target="_top" xlink:title=" ">
<polygon fill="white" stroke="#666666" points="145,-32 0,-32 0,0 145,0 145,-32"/>
<text text-anchor="start" x="8" y="-18.5" font-family="Helvetica,sans-Serif" font-size="10.00">OCA\CAFEVDB\Toolkit</text>
<text text-anchor="middle" x="72.5" y="-6.5" font-family="Helvetica,sans-Serif" font-size="10.00">\Service\ArchiveService\open</text>
</a>
</g>
</g>
<!-- Node2&#45;&gt;Node3 -->
<g id="edge2_Node000002_Node000003" class="edge">
<title>Node2&#45;&gt;Node3</title>
<g id="a_edge2_Node000002_Node000003"><a xlink:title=" ">
<path fill="none" stroke="#63b8ff" d="M169.33,-16C161.26,-16 153.15,-16 145.26,-16"/>
<polygon fill="#63b8ff" stroke="#63b8ff" points="169.17,-19.5 179.17,-16 169.17,-12.5 169.17,-19.5"/>
</a>
</g>
</g>
</g>
</svg>
