<?xml version="1.0" encoding="UTF-8" standalone="no"?>
<!DOCTYPE svg PUBLIC "-//W3C//DTD SVG 1.1//EN"
 "http://www.w3.org/Graphics/SVG/1.1/DTD/svg11.dtd">
<!-- Generated by graphviz version 9.0.0 (20230911.1827)
 -->
<!-- Title: getFolderById Pages: 1 -->
<svg width="554pt" height="103pt"
 viewBox="0.00 0.00 553.50 103.00" xmlns="http://www.w3.org/2000/svg" xmlns:xlink="http://www.w3.org/1999/xlink">
<g id="graph0" class="graph" transform="scale(1 1) rotate(0) translate(4 99)">
<title>getFolderById</title>
<!-- Node1 -->
<g id="Node000001" class="node">
<title>Node1</title>
<g id="a_Node000001"><a xlink:title="Get the shared folder by its id.">
<polygon fill="#999999" stroke="#666666" points="76.75,-73 0,-73 0,-53 76.75,-53 76.75,-73"/>
<text text-anchor="middle" x="38.38" y="-59.5" font-family="Helvetica,sans-Serif" font-size="10.00">getFolderById</text>
</a>
</g>
</g>
<!-- Node2 -->
<g id="Node000002" class="node">
<title>Node2</title>
<g id="a_Node000002"><a xlink:href="class_o_c_a_1_1_c_a_f_e_v_d_b_1_1_toolkit_1_1_service_1_1_group_folders_service.html#a0287649d77801b440d6e9055c775b283" target="_top" xlink:title=" ">
<polygon fill="white" stroke="#666666" points="232.62,-95 113.12,-95 113.12,-75 232.62,-75 232.62,-95"/>
<text text-anchor="middle" x="172.88" y="-81.5" font-family="Helvetica,sans-Serif" font-size="10.00">getRootFolderStorageId</text>
</a>
</g>
</g>
<!-- Node1&#45;&gt;Node2 -->
<g id="edge1_Node000001_Node000002" class="edge">
<title>Node1&#45;&gt;Node2</title>
<g id="a_edge1_Node000001_Node000002"><a xlink:title=" ">
<path fill="none" stroke="#63b8ff" d="M76.99,-69.25C84.76,-70.54 93.17,-71.93 101.68,-73.34"/>
<polygon fill="#63b8ff" stroke="#63b8ff" points="100.93,-76.77 111.37,-74.95 102.08,-69.86 100.93,-76.77"/>
</a>
</g>
</g>
<!-- Node3 -->
<g id="Node000003" class="node">
<title>Node3</title>
<g id="a_Node000003"><a xlink:href="namespace_o_c_a_1_1_c_a_f_e_v_d_b_1_1_toolkit_1_1_traits.html#a4d87f4e47d18fb535d235414c357f821" target="_top" xlink:title="Log a debug message.">
<polygon fill="white" stroke="#666666" points="233,-57 112.75,-57 112.75,-25 233,-25 233,-57"/>
<text text-anchor="start" x="120.75" y="-43.5" font-family="Helvetica,sans-Serif" font-size="10.00">OCA\CAFEVDB\Toolkit</text>
<text text-anchor="middle" x="172.88" y="-31.5" font-family="Helvetica,sans-Serif" font-size="10.00">\Traits\logDebug</text>
</a>
</g>
</g>
<!-- Node1&#45;&gt;Node3 -->
<g id="edge2_Node000001_Node000003" class="edge">
<title>Node1&#45;&gt;Node3</title>
<g id="a_edge2_Node000001_Node000003"><a xlink:title=" ">
<path fill="none" stroke="#63b8ff" d="M76.99,-56.75C84.56,-55.5 92.76,-54.14 101.05,-52.76"/>
<polygon fill="#63b8ff" stroke="#63b8ff" points="101.57,-56.22 110.87,-51.13 100.43,-49.32 101.57,-56.22"/>
</a>
</g>
</g>
<!-- Node4 -->
<g id="Node000004" class="node">
<title>Node4</title>
<g id="a_Node000004"><a xlink:href="namespace_o_c_a_1_1_c_a_f_e_v_d_b_1_1_toolkit_1_1_traits.html#a15cbaddba041ee5582b2bec28a58c7c9" target="_top" xlink:title="Log the given message at the specified level.">
<polygon fill="white" stroke="#666666" points="389.25,-57 269,-57 269,-25 389.25,-25 389.25,-57"/>
<text text-anchor="start" x="277" y="-43.5" font-family="Helvetica,sans-Serif" font-size="10.00">OCA\CAFEVDB\Toolkit</text>
<text text-anchor="middle" x="329.12" y="-31.5" font-family="Helvetica,sans-Serif" font-size="10.00">\Traits\log</text>
</a>
</g>
</g>
<!-- Node3&#45;&gt;Node4 -->
<g id="edge3_Node000003_Node000004" class="edge">
<title>Node3&#45;&gt;Node4</title>
<g id="a_edge3_Node000003_Node000004"><a xlink:title=" ">
<path fill="none" stroke="#63b8ff" d="M233.07,-41C240.98,-41 249.16,-41 257.25,-41"/>
<polygon fill="#63b8ff" stroke="#63b8ff" points="257.06,-44.5 267.06,-41 257.06,-37.5 257.06,-44.5"/>
</a>
</g>
</g>
<!-- Node5 -->
<g id="Node000005" class="node">
<title>Node5</title>
<g id="a_Node000005"><a xlink:href="namespace_o_c_a_1_1_c_a_f_e_v_d_b_1_1_toolkit_1_1_traits.html#a97e3b3adabf67bc7d3650ed14214ddaa" target="_top" xlink:title="Return the stored logger class.">
<polygon fill="white" stroke="#666666" points="545.5,-82 425.25,-82 425.25,-50 545.5,-50 545.5,-82"/>
<text text-anchor="start" x="433.25" y="-68.5" font-family="Helvetica,sans-Serif" font-size="10.00">OCA\CAFEVDB\Toolkit</text>
<text text-anchor="middle" x="485.38" y="-56.5" font-family="Helvetica,sans-Serif" font-size="10.00">\Traits\logger</text>
</a>
</g>
</g>
<!-- Node4&#45;&gt;Node5 -->
<g id="edge4_Node000004_Node000005" class="edge">
<title>Node4&#45;&gt;Node5</title>
<g id="a_edge4_Node000004_Node000005"><a xlink:title=" ">
<path fill="none" stroke="#63b8ff" d="M389.32,-50.59C397.23,-51.88 405.41,-53.2 413.5,-54.51"/>
<polygon fill="#63b8ff" stroke="#63b8ff" points="412.9,-57.96 423.33,-56.11 414.02,-51.05 412.9,-57.96"/>
</a>
</g>
</g>
<!-- Node6 -->
<g id="Node000006" class="node">
<title>Node6</title>
<g id="a_Node000006"><a xlink:href="namespace_o_c_a_1_1_c_a_f_e_v_d_b_1_1_toolkit_1_1_traits.html#ab690a84fb4e720f43308bc354c392bee" target="_top" xlink:title="Map PSR log&#45;levels to ILogger log&#45;levels as the PsrLoggerAdapter only understands those.">
<polygon fill="white" stroke="#666666" points="545.5,-32 425.25,-32 425.25,0 545.5,0 545.5,-32"/>
<text text-anchor="start" x="433.25" y="-18.5" font-family="Helvetica,sans-Serif" font-size="10.00">OCA\CAFEVDB\Toolkit</text>
<text text-anchor="middle" x="485.38" y="-6.5" font-family="Helvetica,sans-Serif" font-size="10.00">\Traits\mapLogLevels</text>
</a>
</g>
</g>
<!-- Node4&#45;&gt;Node6 -->
<g id="edge5_Node000004_Node000006" class="edge">
<title>Node4&#45;&gt;Node6</title>
<g id="a_edge5_Node000004_Node000006"><a xlink:title=" ">
<path fill="none" stroke="#63b8ff" d="M389.32,-31.41C397.23,-30.12 405.41,-28.8 413.5,-27.49"/>
<polygon fill="#63b8ff" stroke="#63b8ff" points="414.02,-30.95 423.33,-25.89 412.9,-24.04 414.02,-30.95"/>
</a>
</g>
</g>
</g>
</svg>
