<?xml version="1.0" encoding="UTF-8" standalone="no"?>
<!DOCTYPE svg PUBLIC "-//W3C//DTD SVG 1.1//EN"
 "http://www.w3.org/Graphics/SVG/1.1/DTD/svg11.dtd">
<!-- Generated by graphviz version 9.0.0 (20230911.1827)
 -->
<!-- Title: ExportFormat Pages: 1 -->
<svg width="88pt" height="140pt"
 viewBox="0.00 0.00 87.75 140.00" xmlns="http://www.w3.org/2000/svg" xmlns:xlink="http://www.w3.org/1999/xlink">
<g id="graph0" class="graph" transform="scale(1 1) rotate(0) translate(4 136)">
<title>ExportFormat</title>
<!-- Node1 -->
<g id="Node000001" class="node">
<title>Node1</title>
<g id="a_Node000001"><a xlink:title="Quasi enum with the supported export formats.">
<polygon fill="#999999" stroke="#666666" points="77.5,-20 2.25,-20 2.25,0 77.5,0 77.5,-20"/>
<text text-anchor="middle" x="39.88" y="-6.5" font-family="Helvetica,sans-Serif" font-size="10.00">ExportFormat</text>
</a>
</g>
</g>
<!-- Node2 -->
<g id="Node000002" class="node">
<title>Node2</title>
<g id="a_Node000002"><a xlink:href="class_o_c_a_1_1_c_a_f_e_v_d_b_1_1_database_1_1_doctrine_1_1_d_b_a_l_1_1_types_1_1_enum_type.html" target="_top" xlink:title="Base enum&#45;type class.">
<polygon fill="white" stroke="#666666" points="71.12,-76 8.62,-76 8.62,-56 71.12,-56 71.12,-76"/>
<text text-anchor="middle" x="39.88" y="-62.5" font-family="Helvetica,sans-Serif" font-size="10.00">EnumType</text>
</a>
</g>
</g>
<!-- Node2&#45;&gt;Node1 -->
<g id="edge1_Node000001_Node000002" class="edge">
<title>Node2&#45;&gt;Node1</title>
<g id="a_edge1_Node000001_Node000002"><a xlink:title=" ">
<path fill="none" stroke="#63b8ff" d="M39.88,-44.13C39.88,-35.9 39.88,-26.85 39.88,-20.3"/>
<polygon fill="#63b8ff" stroke="#63b8ff" points="36.38,-44.08 39.88,-54.08 43.38,-44.08 36.38,-44.08"/>
</a>
</g>
</g>
<!-- Node3 -->
<g id="Node000003" class="node">
<title>Node3</title>
<g id="a_Node000003"><a xlink:title=" ">
<polygon fill="white" stroke="#bfbfbf" points="79.75,-132 0,-132 0,-112 79.75,-112 79.75,-132"/>
<text text-anchor="middle" x="39.88" y="-118.5" font-family="Helvetica,sans-Serif" font-size="10.00">PhpEnumType</text>
</a>
</g>
</g>
<!-- Node3&#45;&gt;Node2 -->
<g id="edge2_Node000002_Node000003" class="edge">
<title>Node3&#45;&gt;Node2</title>
<g id="a_edge2_Node000002_Node000003"><a xlink:title=" ">
<path fill="none" stroke="#63b8ff" d="M39.88,-100.13C39.88,-91.9 39.88,-82.85 39.88,-76.3"/>
<polygon fill="#63b8ff" stroke="#63b8ff" points="36.38,-100.08 39.88,-110.08 43.38,-100.08 36.38,-100.08"/>
</a>
</g>
</g>
</g>
</svg>
