<?xml version="1.0" encoding="UTF-8" standalone="no"?>
<!DOCTYPE svg PUBLIC "-//W3C//DTD SVG 1.1//EN"
 "http://www.w3.org/Graphics/SVG/1.1/DTD/svg11.dtd">
<!-- Generated by graphviz version 9.0.0 (20230911.1827)
 -->
<!-- Title: execute Pages: 1 -->
<svg width="242pt" height="164pt"
 viewBox="0.00 0.00 241.75 164.00" xmlns="http://www.w3.org/2000/svg" xmlns:xlink="http://www.w3.org/1999/xlink">
<g id="graph0" class="graph" transform="scale(1 1) rotate(0) translate(4 160)">
<title>execute</title>
<!-- Node1 -->
<g id="Node000001" class="node">
<title>Node1</title>
<g id="a_Node000001"><a xlink:title="{}">
<polygon fill="#999999" stroke="#666666" points="50.5,-94 0,-94 0,-74 50.5,-74 50.5,-94"/>
<text text-anchor="middle" x="25.25" y="-80.5" font-family="Helvetica,sans-Serif" font-size="10.00">execute</text>
</a>
</g>
</g>
<!-- Node2 -->
<g id="Node000002" class="node">
<title>Node2</title>
<g id="a_Node000002"><a xlink:href="namespace_o_c_a_1_1_c_a_f_e_v_d_b_1_1_command.html#a6082aee5cbe1682af193ef2a04b7eb17" target="_top" xlink:title="{}">
<polygon fill="white" stroke="#666666" points="228.5,-156 91.75,-156 91.75,-124 228.5,-124 228.5,-156"/>
<text text-anchor="start" x="99.75" y="-142.5" font-family="Helvetica,sans-Serif" font-size="10.00">OCA\CAFEVDB\Command</text>
<text text-anchor="middle" x="160.12" y="-130.5" font-family="Helvetica,sans-Serif" font-size="10.00">\authenticate</text>
</a>
</g>
</g>
<!-- Node1&#45;&gt;Node2 -->
<g id="edge1_Node000001_Node000002" class="edge">
<title>Node1&#45;&gt;Node2</title>
<g id="a_edge1_Node000001_Node000002"><a xlink:title=" ">
<path fill="none" stroke="#63b8ff" d="M44.91,-94.48C56.65,-100.85 72.22,-108.91 86.5,-115 90.1,-116.54 93.84,-118.05 97.63,-119.53"/>
<polygon fill="#63b8ff" stroke="#63b8ff" points="96.36,-122.79 106.95,-123.04 98.83,-116.24 96.36,-122.79"/>
</a>
</g>
</g>
<!-- Node3 -->
<g id="Node000003" class="node">
<title>Node3</title>
<g id="a_Node000003"><a xlink:href="class_o_c_a_1_1_c_a_f_e_v_d_b_1_1_maintenance_1_1_sanitizer_registration.html#a2385fa6a56641f6adc67aa69ab0e08ac" target="_top" xlink:title=" ">
<polygon fill="white" stroke="#666666" points="233.75,-106 86.5,-106 86.5,-62 233.75,-62 233.75,-106"/>
<text text-anchor="start" x="94.5" y="-92.5" font-family="Helvetica,sans-Serif" font-size="10.00">OCA\CAFEVDB\Maintenance</text>
<text text-anchor="start" x="94.5" y="-80.5" font-family="Helvetica,sans-Serif" font-size="10.00">\SanitizerRegistration</text>
<text text-anchor="middle" x="160.12" y="-68.5" font-family="Helvetica,sans-Serif" font-size="10.00">\getClasses</text>
</a>
</g>
</g>
<!-- Node1&#45;&gt;Node3 -->
<g id="edge2_Node000001_Node000003" class="edge">
<title>Node1&#45;&gt;Node3</title>
<g id="a_edge2_Node000001_Node000003"><a xlink:title=" ">
<path fill="none" stroke="#63b8ff" d="M50.93,-84C57.98,-84 66.07,-84 74.6,-84"/>
<polygon fill="#63b8ff" stroke="#63b8ff" points="74.5,-87.5 84.5,-84 74.5,-80.5 74.5,-87.5"/>
</a>
</g>
</g>
<!-- Node4 -->
<g id="Node000004" class="node">
<title>Node4</title>
<g id="a_Node000004"><a xlink:href="class_o_c_a_1_1_c_a_f_e_v_d_b_1_1_maintenance_1_1_sanitizer_registration.html#a28691ea0a29ef269e228a63382cb8a37" target="_top" xlink:title=" ">
<polygon fill="white" stroke="#666666" points="233.75,-44 86.5,-44 86.5,0 233.75,0 233.75,-44"/>
<text text-anchor="start" x="94.5" y="-30.5" font-family="Helvetica,sans-Serif" font-size="10.00">OCA\CAFEVDB\Maintenance</text>
<text text-anchor="start" x="94.5" y="-18.5" font-family="Helvetica,sans-Serif" font-size="10.00">\SanitizerRegistration</text>
<text text-anchor="middle" x="160.12" y="-6.5" font-family="Helvetica,sans-Serif" font-size="10.00">\getSanitizers</text>
</a>
</g>
</g>
<!-- Node1&#45;&gt;Node4 -->
<g id="edge3_Node000001_Node000004" class="edge">
<title>Node1&#45;&gt;Node4</title>
<g id="a_edge3_Node000001_Node000004"><a xlink:title=" ">
<path fill="none" stroke="#63b8ff" d="M45.61,-73.59C57.34,-67.4 72.66,-59.5 86.5,-53 89.25,-51.71 92.08,-50.4 94.94,-49.1"/>
<polygon fill="#63b8ff" stroke="#63b8ff" points="96.31,-52.32 104.01,-45.04 93.45,-45.93 96.31,-52.32"/>
</a>
</g>
</g>
</g>
</svg>
