<?xml version="1.0" encoding="UTF-8" standalone="no"?>
<!DOCTYPE svg PUBLIC "-//W3C//DTD SVG 1.1//EN"
 "http://www.w3.org/Graphics/SVG/1.1/DTD/svg11.dtd">
<!-- Generated by graphviz version 8.0.3 (20230416.2022)
 -->
<!-- Title: fixLineBreaks Pages: 1 -->
<svg width="419pt" height="27pt"
 viewBox="0.00 0.00 419.00 27.00" xmlns="http://www.w3.org/2000/svg" xmlns:xlink="http://www.w3.org/1999/xlink">
<g id="graph0" class="graph" transform="scale(1 1) rotate(0) translate(4 23)">
<title>fixLineBreaks</title>
<!-- Node1 -->
<g id="node1" class="node">
<title>Node1</title>
<g id="a_node1"><a xlink:title="Fixes new line breaks (fixes problems with Apple iCal).">
<polygon fill="#999999" stroke="#666666" points="411,-19 335,-19 335,0 411,0 411,-19"/>
<text text-anchor="middle" x="373" y="-7" font-family="Helvetica,sans-Serif" font-size="10.00">fixLineBreaks</text>
</a>
</g>
</g>
<!-- Node2 -->
<g id="node2" class="node">
<title>Node2</title>
<g id="a_node2"><a xlink:href="class_o_c_a_1_1_c_a_f_e_v_d_b_1_1_controller_1_1_legacy_events_controller.html#a2e81591e72e8b5131501fadb6ad98a91" target="_top" xlink:title="Exports an event and convert all times to UTC.">
<polygon fill="white" stroke="#666666" points="299,-19 219,-19 219,0 299,0 299,-19"/>
<text text-anchor="middle" x="259" y="-7" font-family="Helvetica,sans-Serif" font-size="10.00">generateEvent</text>
</a>
</g>
</g>
<!-- Node1&#45;&gt;Node2 -->
<g id="edge1" class="edge">
<title>Node1&#45;&gt;Node2</title>
<path fill="none" stroke="#63b8ff" d="M323.81,-9.5C315.68,-9.5 307.32,-9.5 299.44,-9.5"/>
<polygon fill="#63b8ff" stroke="#63b8ff" points="323.71,-13 333.71,-9.5 323.71,-6 323.71,-13"/>
</g>
<!-- Node3 -->
<g id="node3" class="node">
<title>Node3</title>
<g id="a_node3"><a xlink:href="class_o_c_a_1_1_c_a_f_e_v_d_b_1_1_controller_1_1_legacy_events_controller.html#a6776b2fe4827e91b061b815f7730c89b" target="_top" xlink:title=" ">
<polygon fill="white" stroke="#666666" points="183,-19 114,-19 114,0 183,0 183,-19"/>
<text text-anchor="middle" x="148.5" y="-7" font-family="Helvetica,sans-Serif" font-size="10.00">exportEvent</text>
</a>
</g>
</g>
<!-- Node2&#45;&gt;Node3 -->
<g id="edge2" class="edge">
<title>Node2&#45;&gt;Node3</title>
<path fill="none" stroke="#63b8ff" d="M207.8,-9.5C199.53,-9.5 191.14,-9.5 183.4,-9.5"/>
<polygon fill="#63b8ff" stroke="#63b8ff" points="207.52,-13 217.52,-9.5 207.52,-6 207.52,-13"/>
</g>
<!-- Node4 -->
<g id="node4" class="node">
<title>Node4</title>
<g id="a_node4"><a xlink:href="class_o_c_a_1_1_c_a_f_e_v_d_b_1_1_controller_1_1_legacy_events_controller.html#afb2b279685e17177b18b747ea3595482" target="_top" xlink:title=" ">
<polygon fill="white" stroke="#666666" points="78,-19 0,-19 0,0 78,0 78,-19"/>
<text text-anchor="middle" x="39" y="-7" font-family="Helvetica,sans-Serif" font-size="10.00">serviceSwitch</text>
</a>
</g>
</g>
<!-- Node3&#45;&gt;Node4 -->
<g id="edge3" class="edge">
<title>Node3&#45;&gt;Node4</title>
<path fill="none" stroke="#63b8ff" d="M102.95,-9.5C94.82,-9.5 86.41,-9.5 78.47,-9.5"/>
<polygon fill="#63b8ff" stroke="#63b8ff" points="102.78,-13 112.78,-9.5 102.78,-6 102.78,-13"/>
</g>
</g>
</svg>
