<?xml version="1.0" encoding="UTF-8" standalone="no"?>
<!DOCTYPE svg PUBLIC "-//W3C//DTD SVG 1.1//EN"
 "http://www.w3.org/Graphics/SVG/1.1/DTD/svg11.dtd">
<!-- Generated by graphviz version 8.0.3 (20230416.2022)
 -->
<!-- Title: writeUserSqlConfig Pages: 1 -->
<svg width="362pt" height="27pt"
 viewBox="0.00 0.00 362.00 27.00" xmlns="http://www.w3.org/2000/svg" xmlns:xlink="http://www.w3.org/1999/xlink">
<g id="graph0" class="graph" transform="scale(1 1) rotate(0) translate(4 23)">
<title>writeUserSqlConfig</title>
<!-- Node1 -->
<g id="node1" class="node">
<title>Node1</title>
<g id="a_node1"><a xlink:title="For the moment this just fills in our own app&#45;config.">
<polygon fill="#999999" stroke="#666666" points="101,-19 0,-19 0,0 101,0 101,-19"/>
<text text-anchor="middle" x="50.5" y="-7" font-family="Helvetica,sans-Serif" font-size="10.00">writeUserSqlConfig</text>
</a>
</g>
</g>
<!-- Node2 -->
<g id="node2" class="node">
<title>Node2</title>
<g id="a_node2"><a xlink:href="class_o_c_a_1_1_c_a_f_e_v_d_b_1_1_service_1_1_cloud_user_connector_service.html#a1a19b48267e2ba917d0226da1acdcb25" target="_top" xlink:title="Generate a config array for the user_sql app &quot;as of now&quot;.">
<polygon fill="white" stroke="#666666" points="255,-19 137,-19 137,0 255,0 255,-19"/>
<text text-anchor="middle" x="196" y="-7" font-family="Helvetica,sans-Serif" font-size="10.00">generateUserSqlConfig</text>
</a>
</g>
</g>
<!-- Node1&#45;&gt;Node2 -->
<g id="edge1" class="edge">
<title>Node1&#45;&gt;Node2</title>
<path fill="none" stroke="#63b8ff" d="M101.29,-9.5C109.28,-9.5 117.67,-9.5 126.02,-9.5"/>
<polygon fill="#63b8ff" stroke="#63b8ff" points="125.92,-13 135.92,-9.5 125.92,-6 125.92,-13"/>
</g>
<!-- Node3 -->
<g id="node3" class="node">
<title>Node3</title>
<g id="a_node3"><a xlink:href="class_o_c_a_1_1_c_a_f_e_v_d_b_1_1_service_1_1_cloud_user_connector_service.html#a8f6f0e60183992c01ae7acad097ac598" target="_top" xlink:title=" ">
<polygon fill="white" stroke="#666666" points="354,-19 291,-19 291,0 354,0 354,-19"/>
<text text-anchor="middle" x="322.5" y="-7" font-family="Helvetica,sans-Serif" font-size="10.00">viewName</text>
</a>
</g>
</g>
<!-- Node2&#45;&gt;Node3 -->
<g id="edge2" class="edge">
<title>Node2&#45;&gt;Node3</title>
<path fill="none" stroke="#63b8ff" d="M255.24,-9.5C263.59,-9.5 272.03,-9.5 279.96,-9.5"/>
<polygon fill="#63b8ff" stroke="#63b8ff" points="279.78,-13 289.78,-9.5 279.78,-6 279.78,-13"/>
</g>
</g>
</svg>
