<?xml version="1.0" encoding="UTF-8" standalone="no"?>
<!DOCTYPE svg PUBLIC "-//W3C//DTD SVG 1.1//EN"
 "http://www.w3.org/Graphics/SVG/1.1/DTD/svg11.dtd">
<!-- Generated by graphviz version 8.0.3 (20230416.2022)
 -->
<!-- Title: filetype Pages: 1 -->
<svg width="677pt" height="65pt"
 viewBox="0.00 0.00 677.00 65.00" xmlns="http://www.w3.org/2000/svg" xmlns:xlink="http://www.w3.org/1999/xlink">
<g id="graph0" class="graph" transform="scale(1 1) rotate(0) translate(4 61)">
<title>filetype</title>
<!-- Node1 -->
<g id="node1" class="node">
<title>Node1</title>
<g id="a_node1"><a xlink:title="{}">
<polygon fill="#999999" stroke="#666666" points="48,-38 0,-38 0,-19 48,-19 48,-38"/>
<text text-anchor="middle" x="24" y="-26" font-family="Helvetica,sans-Serif" font-size="10.00">filetype</text>
</a>
</g>
</g>
<!-- Node2 -->
<g id="node2" class="node">
<title>Node2</title>
<g id="a_node2"><a xlink:href="class_o_c_a_1_1_c_a_f_e_v_d_b_1_1_storage_1_1_database_1_1_storage.html#a5877dd78fbe10fb5f3ee3d25e3fbe11e" target="_top" xlink:title="{}">
<polygon fill="white" stroke="#666666" points="285,-57 245,-57 245,-38 285,-38 285,-57"/>
<text text-anchor="middle" x="265" y="-45" font-family="Helvetica,sans-Serif" font-size="10.00">is_dir</text>
</a>
</g>
</g>
<!-- Node1&#45;&gt;Node2 -->
<g id="edge1" class="edge">
<title>Node1&#45;&gt;Node2</title>
<path fill="none" stroke="#63b8ff" d="M48.35,-30.36C91.96,-33.82 185.7,-41.28 233.95,-45.11"/>
<polygon fill="#63b8ff" stroke="#63b8ff" points="233.38,-48.66 243.63,-45.96 233.94,-41.68 233.38,-48.66"/>
</g>
<!-- Node7 -->
<g id="node7" class="node">
<title>Node7</title>
<g id="a_node7"><a xlink:href="class_o_c_a_1_1_c_a_f_e_v_d_b_1_1_storage_1_1_database_1_1_storage.html#ae93aaa5a52d031b9df08764bda508255" target="_top" xlink:title="{}">
<polygon fill="white" stroke="#666666" points="126,-19 84,-19 84,0 126,0 126,-19"/>
<text text-anchor="middle" x="105" y="-7" font-family="Helvetica,sans-Serif" font-size="10.00">is_file</text>
</a>
</g>
</g>
<!-- Node1&#45;&gt;Node7 -->
<g id="edge6" class="edge">
<title>Node1&#45;&gt;Node7</title>
<path fill="none" stroke="#63b8ff" d="M48.28,-22.9C56.06,-21.03 64.86,-18.91 73.13,-16.92"/>
<polygon fill="#63b8ff" stroke="#63b8ff" points="73.67,-20.15 82.57,-14.41 72.03,-13.35 73.67,-20.15"/>
</g>
<!-- Node3 -->
<g id="node3" class="node">
<title>Node3</title>
<g id="a_node3"><a xlink:href="class_o_c_a_1_1_c_a_f_e_v_d_b_1_1_storage_1_1_database_1_1_storage.html#a7ec90cd17ef214d5fe4280b13d7c144a" target="_top" xlink:title="Fetch the file entity corresponding to file&#45;name.">
<polygon fill="white" stroke="#666666" points="415,-38 321,-38 321,-19 415,-19 415,-38"/>
<text text-anchor="middle" x="368" y="-26" font-family="Helvetica,sans-Serif" font-size="10.00">fileFromFileName</text>
</a>
</g>
</g>
<!-- Node2&#45;&gt;Node3 -->
<g id="edge2" class="edge">
<title>Node2&#45;&gt;Node3</title>
<path fill="none" stroke="#63b8ff" d="M285.47,-43.84C292.65,-42.49 301.18,-40.88 309.99,-39.23"/>
<polygon fill="#63b8ff" stroke="#63b8ff" points="310.61,-42.48 319.79,-37.19 309.31,-35.6 310.61,-42.48"/>
</g>
<!-- Node4 -->
<g id="node4" class="node">
<title>Node4</title>
<g id="a_node4"><a xlink:href="class_o_c_a_1_1_c_a_f_e_v_d_b_1_1_storage_1_1_database_1_1_storage.html#ab721841df814a2337039d39cc03da82a" target="_top" xlink:title=" ">
<polygon fill="white" stroke="#666666" points="508,-57 451,-57 451,-38 508,-38 508,-57"/>
<text text-anchor="middle" x="479.5" y="-45" font-family="Helvetica,sans-Serif" font-size="10.00">buildPath</text>
</a>
</g>
</g>
<!-- Node3&#45;&gt;Node4 -->
<g id="edge3" class="edge">
<title>Node3&#45;&gt;Node4</title>
<path fill="none" stroke="#63b8ff" d="M415.44,-36.56C423.6,-37.97 432.01,-39.43 439.93,-40.81"/>
<polygon fill="#63b8ff" stroke="#63b8ff" points="439.26,-44.42 449.72,-42.68 440.46,-37.52 439.26,-44.42"/>
</g>
<!-- Node5 -->
<g id="node5" class="node">
<title>Node5</title>
<g id="a_node5"><a xlink:href="class_o_c_a_1_1_c_a_f_e_v_d_b_1_1_storage_1_1_database_1_1_storage.html#aa8e4fc68bcf28c10413b664b7d89ae81" target="_top" xlink:title="Slightly modified pathinfo() function which also normalized directories before computing the componen...">
<polygon fill="white" stroke="#666666" points="505.5,-20 453.5,-20 453.5,-1 505.5,-1 505.5,-20"/>
<text text-anchor="middle" x="479.5" y="-8" font-family="Helvetica,sans-Serif" font-size="10.00">pathInfo</text>
</a>
</g>
</g>
<!-- Node3&#45;&gt;Node5 -->
<g id="edge4" class="edge">
<title>Node3&#45;&gt;Node5</title>
<path fill="none" stroke="#63b8ff" d="M415.44,-20.87C424.44,-19.39 433.74,-17.86 442.35,-16.44"/>
<polygon fill="#63b8ff" stroke="#63b8ff" points="442.88,-19.74 452.18,-14.66 441.74,-12.83 442.88,-19.74"/>
</g>
<!-- Node6 -->
<g id="node6" class="node">
<title>Node6</title>
<g id="a_node6"><a xlink:href="class_o_c_a_1_1_c_a_f_e_v_d_b_1_1_storage_1_1_database_1_1_storage.html#ac5c1b62ecc9eb2ebe08f1e8c7ee2b283" target="_top" xlink:title="Attach self::PATH_SEPARATOR to the dirname if it is not the root directory.">
<polygon fill="white" stroke="#666666" points="669,-20 544,-20 544,-1 669,-1 669,-20"/>
<text text-anchor="middle" x="606.5" y="-8" font-family="Helvetica,sans-Serif" font-size="10.00">normalizeDirectoryName</text>
</a>
</g>
</g>
<!-- Node5&#45;&gt;Node6 -->
<g id="edge5" class="edge">
<title>Node5&#45;&gt;Node6</title>
<path fill="none" stroke="#63b8ff" d="M505.8,-10.5C513.78,-10.5 523.03,-10.5 532.62,-10.5"/>
<polygon fill="#63b8ff" stroke="#63b8ff" points="532.54,-14 542.54,-10.5 532.54,-7 532.54,-14"/>
</g>
<!-- Node8 -->
<g id="node8" class="node">
<title>Node8</title>
<g id="a_node8"><a xlink:href="class_o_c_a_1_1_c_a_f_e_v_d_b_1_1_storage_1_1_database_1_1_storage.html#ad22e004288b7149fe24fb166f4cff9ee" target="_top" xlink:title="{}">
<polygon fill="white" stroke="#666666" points="209,-19 162,-19 162,0 209,0 209,-19"/>
<text text-anchor="middle" x="185.5" y="-7" font-family="Helvetica,sans-Serif" font-size="10.00">filesize</text>
</a>
</g>
</g>
<!-- Node7&#45;&gt;Node8 -->
<g id="edge7" class="edge">
<title>Node7&#45;&gt;Node8</title>
<path fill="none" stroke="#63b8ff" d="M126.22,-9.5C133.65,-9.5 142.28,-9.5 150.59,-9.5"/>
<polygon fill="#63b8ff" stroke="#63b8ff" points="150.58,-13 160.58,-9.5 150.58,-6 150.58,-13"/>
</g>
<!-- Node8&#45;&gt;Node2 -->
<g id="edge9" class="edge">
<title>Node8&#45;&gt;Node2</title>
<path fill="none" stroke="#63b8ff" d="M206.86,-19.48C215.43,-23.68 225.55,-28.65 234.88,-33.22"/>
<polygon fill="#63b8ff" stroke="#63b8ff" points="233.06,-36.72 243.57,-37.98 236.14,-30.43 233.06,-36.72"/>
</g>
<!-- Node8&#45;&gt;Node3 -->
<g id="edge8" class="edge">
<title>Node8&#45;&gt;Node3</title>
<path fill="none" stroke="#63b8ff" d="M209.36,-11.91C234.53,-14.56 275.94,-18.91 310,-22.5"/>
<polygon fill="#63b8ff" stroke="#63b8ff" points="309.46,-26.07 319.77,-23.63 310.19,-19.11 309.46,-26.07"/>
</g>
</g>
</svg>
