<?xml version="1.0" encoding="UTF-8" standalone="no"?>
<!DOCTYPE svg PUBLIC "-//W3C//DTD SVG 1.1//EN"
 "http://www.w3.org/Graphics/SVG/1.1/DTD/svg11.dtd">
<!-- Generated by graphviz version 8.0.3 (20230416.2022)
 -->
<!-- Title: updateVCalendarFromRequest Pages: 1 -->
<svg width="298pt" height="64pt"
 viewBox="0.00 0.00 298.00 64.00" xmlns="http://www.w3.org/2000/svg" xmlns:xlink="http://www.w3.org/1999/xlink">
<g id="graph0" class="graph" transform="scale(1 1) rotate(0) translate(4 60)">
<title>updateVCalendarFromRequest</title>
<!-- Node1 -->
<g id="node1" class="node">
<title>Node1</title>
<g id="a_node1"><a xlink:title="Updates an VCalendar Object from the request data.">
<polygon fill="#999999" stroke="#666666" points="151,-37 0,-37 0,-18 151,-18 151,-37"/>
<text text-anchor="middle" x="75.5" y="-25" font-family="Helvetica,sans-Serif" font-size="10.00">updateVCalendarFromRequest</text>
</a>
</g>
</g>
<!-- Node2 -->
<g id="node2" class="node">
<title>Node2</title>
<g id="a_node2"><a xlink:href="class_o_c_a_1_1_c_a_f_e_v_d_b_1_1_legacy_1_1_calendar_1_1_o_c___calendar___object.html#abeb36349d137f59529296be433ce51b4" target="_top" xlink:title="Returns the options for an yearly repeating event which occurs on specific month of the year.">
<polygon fill="white" stroke="#666666" points="290,-56 187,-56 187,-37 290,-37 290,-56"/>
<text text-anchor="middle" x="238.5" y="-44" font-family="Helvetica,sans-Serif" font-size="10.00">getByMonthOptions</text>
</a>
</g>
</g>
<!-- Node1&#45;&gt;Node2 -->
<g id="edge1" class="edge">
<title>Node1&#45;&gt;Node2</title>
<path fill="none" stroke="#63b8ff" d="M151.34,-36.33C159.59,-37.31 167.91,-38.29 175.96,-39.24"/>
<polygon fill="#63b8ff" stroke="#63b8ff" points="175.4,-42.81 185.75,-40.51 176.22,-35.86 175.4,-42.81"/>
</g>
<!-- Node3 -->
<g id="node3" class="node">
<title>Node3</title>
<g id="a_node3"><a xlink:href="class_o_c_a_1_1_c_a_f_e_v_d_b_1_1_legacy_1_1_calendar_1_1_o_c___calendar___object.html#ad515ca85336eabd9bab2062442e733f8" target="_top" xlink:title="Returns the options for an weekly repeating event.">
<polygon fill="white" stroke="#666666" points="286.5,-19 190.5,-19 190.5,0 286.5,0 286.5,-19"/>
<text text-anchor="middle" x="238.5" y="-7" font-family="Helvetica,sans-Serif" font-size="10.00">getWeeklyOptions</text>
</a>
</g>
</g>
<!-- Node1&#45;&gt;Node3 -->
<g id="edge2" class="edge">
<title>Node1&#45;&gt;Node3</title>
<path fill="none" stroke="#63b8ff" d="M151.34,-19.13C160.8,-18.07 170.36,-17.01 179.51,-15.98"/>
<polygon fill="#63b8ff" stroke="#63b8ff" points="179.86,-19.35 189.41,-14.76 179.08,-12.4 179.86,-19.35"/>
</g>
</g>
</svg>
