<?xml version="1.0" encoding="UTF-8" standalone="no"?>
<!DOCTYPE svg PUBLIC "-//W3C//DTD SVG 1.1//EN"
 "http://www.w3.org/Graphics/SVG/1.1/DTD/svg11.dtd">
<!-- Generated by graphviz version 9.0.0 (20230911.1827)
 -->
<!-- Title: announcementsMailingList Pages: 1 -->
<svg width="524pt" height="66pt"
 viewBox="0.00 0.00 524.25 66.00" xmlns="http://www.w3.org/2000/svg" xmlns:xlink="http://www.w3.org/1999/xlink">
<g id="graph0" class="graph" transform="scale(1 1) rotate(0) translate(4 62)">
<title>announcementsMailingList</title>
<!-- Node1 -->
<g id="Node000001" class="node">
<title>Node1</title>
<g id="a_Node000001"><a xlink:title=" ">
<polygon fill="#999999" stroke="#666666" points="516.25,-39 384.75,-39 384.75,-19 516.25,-19 516.25,-39"/>
<text text-anchor="middle" x="450.5" y="-25.5" font-family="Helvetica,sans-Serif" font-size="10.00">announcementsMailingList</text>
</a>
</g>
</g>
<!-- Node2 -->
<g id="Node000002" class="node">
<title>Node2</title>
<g id="a_Node000002"><a xlink:href="class_o_c_a_1_1_c_a_f_e_v_d_b_1_1_email_form_1_1_recipients_filter.html#a1909f4b7f8129c7790cb75de2ffbe1e4" target="_top" xlink:title="Parse the CGI stuff and compute the list of selected musicians, either for the initial form setup as ...">
<polygon fill="white" stroke="#666666" points="286.12,-58 235.62,-58 235.62,-38 286.12,-38 286.12,-58"/>
<text text-anchor="middle" x="260.88" y="-44.5" font-family="Helvetica,sans-Serif" font-size="10.00">execute</text>
</a>
</g>
</g>
<!-- Node1&#45;&gt;Node2 -->
<g id="edge1_Node000001_Node000002" class="edge">
<title>Node1&#45;&gt;Node2</title>
<g id="a_edge1_Node000001_Node000002"><a xlink:title=" ">
<path fill="none" stroke="#63b8ff" d="M373.12,-36.73C342.09,-39.88 308.43,-43.29 286.36,-45.52"/>
<polygon fill="#63b8ff" stroke="#63b8ff" points="373.3,-40.23 382.9,-35.74 372.6,-33.27 373.3,-40.23"/>
</a>
</g>
</g>
<!-- Node5 -->
<g id="Node000005" class="node">
<title>Node5</title>
<g id="a_Node000005"><a xlink:href="class_o_c_a_1_1_c_a_f_e_v_d_b_1_1_email_form_1_1_recipients_filter.html#a29389bb5db716e59f8a94e5083f8b58e" target="_top" xlink:title="Substitute the recipients by the announcements mailing list if possible.">
<polygon fill="white" stroke="#666666" points="348.75,-20 173,-20 173,0 348.75,0 348.75,-20"/>
<text text-anchor="middle" x="260.88" y="-6.5" font-family="Helvetica,sans-Serif" font-size="10.00">substituteAnnouncementsMailingList</text>
</a>
</g>
</g>
<!-- Node1&#45;&gt;Node5 -->
<g id="edge4_Node000001_Node000005" class="edge">
<title>Node1&#45;&gt;Node5</title>
<g id="a_edge4_Node000001_Node000005"><a xlink:title=" ">
<path fill="none" stroke="#63b8ff" d="M372.98,-21.25C365.07,-20.45 357,-19.63 349,-18.82"/>
<polygon fill="#63b8ff" stroke="#63b8ff" points="372.6,-24.73 382.9,-22.26 373.3,-17.77 372.6,-24.73"/>
</a>
</g>
</g>
<!-- Node3 -->
<g id="Node000003" class="node">
<title>Node3</title>
<g id="a_Node000003"><a xlink:href="class_o_c_a_1_1_c_a_f_e_v_d_b_1_1_email_form_1_1_recipients_filter.html#a977b1615a5175561d17eebf08eca7a08" target="_top" xlink:title=" ">
<polygon fill="white" stroke="#666666" points="137,-58 103,-58 103,-38 137,-38 137,-58"/>
<text text-anchor="middle" x="120" y="-44.5" font-family="Helvetica,sans-Serif" font-size="10.00">bind</text>
</a>
</g>
</g>
<!-- Node2&#45;&gt;Node3 -->
<g id="edge2_Node000002_Node000003" class="edge">
<title>Node2&#45;&gt;Node3</title>
<g id="a_edge2_Node000002_Node000003"><a xlink:title=" ">
<path fill="none" stroke="#63b8ff" d="M224.06,-48C196.14,-48 158.65,-48 137.44,-48"/>
<polygon fill="#63b8ff" stroke="#63b8ff" points="223.85,-51.5 233.85,-48 223.85,-44.5 223.85,-51.5"/>
</a>
</g>
</g>
<!-- Node4 -->
<g id="Node000004" class="node">
<title>Node4</title>
<g id="a_Node000004"><a xlink:href="class_o_c_a_1_1_c_a_f_e_v_d_b_1_1_email_form_1_1_recipients_filter.html#a5e6588671446c37e33137cae8265c389" target="_top" xlink:title="{}">
<polygon fill="white" stroke="#666666" points="67,-58 0,-58 0,-38 67,-38 67,-58"/>
<text text-anchor="middle" x="33.5" y="-44.5" font-family="Helvetica,sans-Serif" font-size="10.00">__construct</text>
</a>
</g>
</g>
<!-- Node3&#45;&gt;Node4 -->
<g id="edge3_Node000003_Node000004" class="edge">
<title>Node3&#45;&gt;Node4</title>
<g id="a_edge3_Node000003_Node000004"><a xlink:title=" ">
<path fill="none" stroke="#63b8ff" d="M91.36,-48C83.64,-48 75.17,-48 67.19,-48"/>
<polygon fill="#63b8ff" stroke="#63b8ff" points="91.19,-51.5 101.19,-48 91.19,-44.5 91.19,-51.5"/>
</a>
</g>
</g>
</g>
</svg>
