<?xml version="1.0" encoding="UTF-8" standalone="no"?>
<!DOCTYPE svg PUBLIC "-//W3C//DTD SVG 1.1//EN"
 "http://www.w3.org/Graphics/SVG/1.1/DTD/svg11.dtd">
<!-- Generated by graphviz version 8.0.3 (20230416.2022)
 -->
<!-- Title: getMimeTypeMapping Pages: 1 -->
<svg width="292pt" height="64pt"
 viewBox="0.00 0.00 292.00 64.00" xmlns="http://www.w3.org/2000/svg" xmlns:xlink="http://www.w3.org/1999/xlink">
<g id="graph0" class="graph" transform="scale(1 1) rotate(0) translate(4 60)">
<title>getMimeTypeMapping</title>
<!-- Node1 -->
<g id="node1" class="node">
<title>Node1</title>
<g id="a_node1"><a xlink:title=" ">
<polygon fill="#999999" stroke="#666666" points="284,-37 172,-37 172,-18 284,-18 284,-37"/>
<text text-anchor="middle" x="228" y="-25" font-family="Helvetica,sans-Serif" font-size="10.00">getMimeTypeMapping</text>
</a>
</g>
</g>
<!-- Node2 -->
<g id="node2" class="node">
<title>Node2</title>
<g id="a_node2"><a xlink:href="class_o_c_a_1_1_c_a_f_e_v_d_b_1_1_toolkit_1_1_service_1_1_mime_type_service.html#a5b62df0076a109c14c456e0664583bbe" target="_top" xlink:title=" ">
<polygon fill="white" stroke="#666666" points="130.5,-56 5.5,-56 5.5,-37 130.5,-37 130.5,-56"/>
<text text-anchor="middle" x="68" y="-44" font-family="Helvetica,sans-Serif" font-size="10.00">getSupportedMimeTypes</text>
</a>
</g>
</g>
<!-- Node1&#45;&gt;Node2 -->
<g id="edge1" class="edge">
<title>Node1&#45;&gt;Node2</title>
<path fill="none" stroke="#63b8ff" d="M161.07,-35.43C151.11,-36.63 140.86,-37.86 130.98,-39.05"/>
<polygon fill="#63b8ff" stroke="#63b8ff" points="161.23,-38.81 170.74,-34.15 160.39,-31.86 161.23,-38.81"/>
</g>
<!-- Node3 -->
<g id="node3" class="node">
<title>Node3</title>
<g id="a_node3"><a xlink:href="class_o_c_a_1_1_c_a_f_e_v_d_b_1_1_toolkit_1_1_service_1_1_mime_type_service.html#ab63abc381405369b014b433dded6a20c" target="_top" xlink:title="Register the needed extension to MIME&#45;type mappings with the Nextcloud server.">
<polygon fill="white" stroke="#666666" points="136,-19 0,-19 0,0 136,0 136,-19"/>
<text text-anchor="middle" x="68" y="-7" font-family="Helvetica,sans-Serif" font-size="10.00">registerMimeTypeMappings</text>
</a>
</g>
</g>
<!-- Node1&#45;&gt;Node3 -->
<g id="edge2" class="edge">
<title>Node1&#45;&gt;Node3</title>
<path fill="none" stroke="#63b8ff" d="M160.88,-19.97C152.81,-19.05 144.55,-18.11 136.46,-17.19"/>
<polygon fill="#63b8ff" stroke="#63b8ff" points="160.41,-23.55 170.74,-21.2 161.2,-16.59 160.41,-23.55"/>
</g>
</g>
</svg>
