<?xml version="1.0" encoding="UTF-8" standalone="no"?>
<!DOCTYPE svg PUBLIC "-//W3C//DTD SVG 1.1//EN"
 "http://www.w3.org/Graphics/SVG/1.1/DTD/svg11.dtd">
<!-- Generated by graphviz version 8.0.3 (20230416.2022)
 -->
<!-- Title: getBackend Pages: 1 -->
<svg width="257pt" height="111pt"
 viewBox="0.00 0.00 257.00 111.00" xmlns="http://www.w3.org/2000/svg" xmlns:xlink="http://www.w3.org/1999/xlink">
<g id="graph0" class="graph" transform="scale(1 1) rotate(0) translate(4 107)">
<title>getBackend</title>
<!-- Node1 -->
<g id="node1" class="node">
<title>Node1</title>
<g id="a_node1"><a xlink:title=" ">
<polygon fill="#999999" stroke="#666666" points="249,-65 181,-65 181,-46 249,-46 249,-65"/>
<text text-anchor="middle" x="215" y="-53" font-family="Helvetica,sans-Serif" font-size="10.00">getBackend</text>
</a>
</g>
</g>
<!-- Node2 -->
<g id="node2" class="node">
<title>Node2</title>
<g id="a_node2"><a xlink:href="class_o_c_a_1_1_c_a_f_e_v_d_b_1_1_service_1_1_phone_number_service.html#adb4c68b625c6083466b2fa516a6ad314" target="_top" xlink:title=" ">
<polygon fill="white" stroke="#666666" points="51.5,-103 7.5,-103 7.5,-84 51.5,-84 51.5,-103"/>
<text text-anchor="middle" x="29.5" y="-91" font-family="Helvetica,sans-Serif" font-size="10.00">format</text>
</a>
</g>
</g>
<!-- Node1&#45;&gt;Node2 -->
<g id="edge1" class="edge">
<title>Node1&#45;&gt;Node2</title>
<path fill="none" stroke="#63b8ff" d="M191.82,-71.49C178.85,-79.83 161.78,-89.18 145,-93.5 113.23,-101.67 74.85,-99.31 51.58,-96.6"/>
<polygon fill="#63b8ff" stroke="#63b8ff" points="193.52,-73.89 199.86,-65.4 189.61,-68.08 193.52,-73.89"/>
</g>
<!-- Node3 -->
<g id="node3" class="node">
<title>Node3</title>
<g id="a_node3"><a xlink:href="class_o_c_a_1_1_c_a_f_e_v_d_b_1_1_service_1_1_phone_number_service.html#abac0564af0134547ded00c16b5c873ea" target="_top" xlink:title=" ">
<polygon fill="white" stroke="#666666" points="56,-56 3,-56 3,-37 56,-37 56,-56"/>
<text text-anchor="middle" x="29.5" y="-44" font-family="Helvetica,sans-Serif" font-size="10.00">isMobile</text>
</a>
</g>
</g>
<!-- Node1&#45;&gt;Node3 -->
<g id="edge2" class="edge">
<title>Node1&#45;&gt;Node3</title>
<path fill="none" stroke="#63b8ff" d="M170.22,-53.35C134.73,-51.61 85.92,-49.22 56.38,-47.77"/>
<polygon fill="#63b8ff" stroke="#63b8ff" points="169.61,-56.88 179.77,-53.87 169.95,-49.88 169.61,-56.88"/>
</g>
<!-- Node4 -->
<g id="node4" class="node">
<title>Node4</title>
<g id="a_node4"><a xlink:href="class_o_c_a_1_1_c_a_f_e_v_d_b_1_1_service_1_1_phone_number_service.html#ab5d979416900f9fed11ab7285356c356" target="_top" xlink:title="Return new&#45;line formatted meta&#45;data for the current or the given number and region.">
<polygon fill="white" stroke="#666666" points="59,-19 0,-19 0,0 59,0 59,-19"/>
<text text-anchor="middle" x="29.5" y="-7" font-family="Helvetica,sans-Serif" font-size="10.00">metaData</text>
</a>
</g>
</g>
<!-- Node1&#45;&gt;Node4 -->
<g id="edge3" class="edge">
<title>Node1&#45;&gt;Node4</title>
<path fill="none" stroke="#63b8ff" d="M170.54,-44.6C136.15,-35.98 89.11,-24.19 59.26,-16.71"/>
<polygon fill="#63b8ff" stroke="#63b8ff" points="169.22,-48.13 179.77,-47.17 170.92,-41.34 169.22,-48.13"/>
</g>
<!-- Node5 -->
<g id="node5" class="node">
<title>Node5</title>
<g id="a_node5"><a xlink:href="class_o_c_a_1_1_c_a_f_e_v_d_b_1_1_service_1_1_phone_number_service.html#a8c950d27bc55749ec38cd0ade17222f5" target="_top" xlink:title=" ">
<polygon fill="white" stroke="#666666" points="145,-84 95,-84 95,-65 145,-65 145,-84"/>
<text text-anchor="middle" x="120" y="-72" font-family="Helvetica,sans-Serif" font-size="10.00">validate</text>
</a>
</g>
</g>
<!-- Node1&#45;&gt;Node5 -->
<g id="edge4" class="edge">
<title>Node1&#45;&gt;Node5</title>
<path fill="none" stroke="#63b8ff" d="M170.06,-64.48C161.55,-66.22 152.92,-67.98 145.33,-69.53"/>
<polygon fill="#63b8ff" stroke="#63b8ff" points="170.59,-67.74 179.69,-62.31 169.19,-60.88 170.59,-67.74"/>
</g>
<!-- Node5&#45;&gt;Node2 -->
<g id="edge5" class="edge">
<title>Node5&#45;&gt;Node2</title>
<path fill="none" stroke="#63b8ff" d="M84.28,-81.95C73.37,-84.3 61.64,-86.81 51.94,-88.9"/>
<polygon fill="#63b8ff" stroke="#63b8ff" points="84.77,-85.21 93.82,-79.69 83.31,-78.37 84.77,-85.21"/>
</g>
<!-- Node5&#45;&gt;Node3 -->
<g id="edge6" class="edge">
<title>Node5&#45;&gt;Node3</title>
<path fill="none" stroke="#63b8ff" d="M84.53,-63.6C75.1,-60.61 65.05,-57.43 56.2,-54.63"/>
<polygon fill="#63b8ff" stroke="#63b8ff" points="83.23,-67.17 93.82,-66.85 85.34,-60.5 83.23,-67.17"/>
</g>
<!-- Node5&#45;&gt;Node4 -->
<g id="edge7" class="edge">
<title>Node5&#45;&gt;Node4</title>
<path fill="none" stroke="#63b8ff" d="M98.91,-57.93C87.43,-48.69 72.66,-37.12 59,-27.5 55.08,-24.74 50.74,-21.9 46.66,-19.31"/>
<polygon fill="#63b8ff" stroke="#63b8ff" points="96.35,-61.18 106.32,-64.77 100.77,-55.75 96.35,-61.18"/>
</g>
</g>
</svg>
