<?xml version="1.0" encoding="UTF-8" standalone="no"?>
<!DOCTYPE svg PUBLIC "-//W3C//DTD SVG 1.1//EN"
 "http://www.w3.org/Graphics/SVG/1.1/DTD/svg11.dtd">
<!-- Generated by graphviz version 9.0.0 (20230911.1827)
 -->
<!-- Title: headerText Pages: 1 -->
<svg width="385pt" height="240pt"
 viewBox="0.00 0.00 385.25 240.00" xmlns="http://www.w3.org/2000/svg" xmlns:xlink="http://www.w3.org/1999/xlink">
<g id="graph0" class="graph" transform="scale(1 1) rotate(0) translate(4 236)">
<title>headerText</title>
<!-- Node1 -->
<g id="Node000001" class="node">
<title>Node1</title>
<g id="a_Node000001"><a xlink:title="{Header text informations.Display in popup in order not to bloat the small header space....">
<polygon fill="#999999" stroke="#666666" points="64,-126 0,-126 0,-106 64,-106 64,-126"/>
<text text-anchor="middle" x="32" y="-112.5" font-family="Helvetica,sans-Serif" font-size="10.00">headerText</text>
</a>
</g>
</g>
<!-- Node2 -->
<g id="Node000002" class="node">
<title>Node2</title>
<g id="a_Node000002"><a xlink:href="class_o_c_a_1_1_c_a_f_e_v_d_b_1_1_page_renderer_1_1_musicians.html#a9ed08d50f5d820b52e7108eea8a169e5" target="_top" xlink:title="{string Short title for heading. }">
<polygon fill="white" stroke="#666666" points="156.5,-126 100,-126 100,-106 156.5,-106 156.5,-126"/>
<text text-anchor="middle" x="128.25" y="-112.5" font-family="Helvetica,sans-Serif" font-size="10.00">shortTitle</text>
</a>
</g>
</g>
<!-- Node1&#45;&gt;Node2 -->
<g id="edge1_Node000001_Node000002" class="edge">
<title>Node1&#45;&gt;Node2</title>
<g id="a_edge1_Node000001_Node000002"><a xlink:title=" ">
<path fill="none" stroke="#63b8ff" d="M64.38,-116C72.08,-116 80.42,-116 88.42,-116"/>
<polygon fill="#63b8ff" stroke="#63b8ff" points="88.28,-119.5 98.28,-116 88.28,-112.5 88.28,-119.5"/>
</a>
</g>
</g>
<!-- Node3 -->
<g id="Node000003" class="node">
<title>Node3</title>
<g id="a_Node000003"><a xlink:href="class_o_c_a_1_1_c_a_f_e_v_d_b_1_1_page_renderer_1_1_p_m_e_table_view_base.html#aab9f60dec77a4ef2a6e6da285185427a" target="_top" xlink:title=" ">
<polygon fill="white" stroke="#666666" points="369.38,-232 200.38,-232 200.38,-200 369.38,-200 369.38,-232"/>
<text text-anchor="start" x="208.38" y="-218.5" font-family="Helvetica,sans-Serif" font-size="10.00">OCA\CAFEVDB\PageRenderer</text>
<text text-anchor="middle" x="284.88" y="-206.5" font-family="Helvetica,sans-Serif" font-size="10.00">\PMETableViewBase\addOperation</text>
</a>
</g>
</g>
<!-- Node2&#45;&gt;Node3 -->
<g id="edge2_Node000002_Node000003" class="edge">
<title>Node2&#45;&gt;Node3</title>
<g id="a_edge2_Node000002_Node000003"><a xlink:title=" ">
<path fill="none" stroke="#63b8ff" d="M135.18,-126.46C144.97,-142.76 166.09,-174.12 192.5,-191 194.5,-192.28 196.57,-193.5 198.69,-194.65"/>
<polygon fill="#63b8ff" stroke="#63b8ff" points="197.04,-197.74 207.57,-198.95 200.1,-191.44 197.04,-197.74"/>
</a>
</g>
</g>
<!-- Node4 -->
<g id="Node000004" class="node">
<title>Node4</title>
<g id="a_Node000004"><a xlink:href="class_o_c_a_1_1_c_a_f_e_v_d_b_1_1_page_renderer_1_1_p_m_e_table_view_base.html#a7b8022d67f12132e31e2230161afcf46" target="_top" xlink:title=" ">
<polygon fill="white" stroke="#666666" points="377.25,-182 192.5,-182 192.5,-150 377.25,-150 377.25,-182"/>
<text text-anchor="start" x="200.5" y="-168.5" font-family="Helvetica,sans-Serif" font-size="10.00">OCA\CAFEVDB\PageRenderer</text>
<text text-anchor="middle" x="284.88" y="-156.5" font-family="Helvetica,sans-Serif" font-size="10.00">\PMETableViewBase\changeOperation</text>
</a>
</g>
</g>
<!-- Node2&#45;&gt;Node4 -->
<g id="edge3_Node000002_Node000004" class="edge">
<title>Node2&#45;&gt;Node4</title>
<g id="a_edge3_Node000002_Node000004"><a xlink:title=" ">
<path fill="none" stroke="#63b8ff" d="M153.95,-126.49C165.55,-131.23 179.62,-136.71 192.5,-141 197.92,-142.81 203.55,-144.58 209.24,-146.3"/>
<polygon fill="#63b8ff" stroke="#63b8ff" points="208.16,-149.64 218.74,-149.11 210.14,-142.92 208.16,-149.64"/>
</a>
</g>
</g>
<!-- Node5 -->
<g id="Node000005" class="node">
<title>Node5</title>
<g id="a_Node000005"><a xlink:href="class_o_c_a_1_1_c_a_f_e_v_d_b_1_1_page_renderer_1_1_p_m_e_table_view_base.html#a9dc9d571bb59ca28ec0cc2bd28fe0159" target="_top" xlink:title=" ">
<polygon fill="white" stroke="#666666" points="372,-132 197.75,-132 197.75,-100 372,-100 372,-132"/>
<text text-anchor="start" x="205.75" y="-118.5" font-family="Helvetica,sans-Serif" font-size="10.00">OCA\CAFEVDB\PageRenderer</text>
<text text-anchor="middle" x="284.88" y="-106.5" font-family="Helvetica,sans-Serif" font-size="10.00">\PMETableViewBase\copyOperation</text>
</a>
</g>
</g>
<!-- Node2&#45;&gt;Node5 -->
<g id="edge4_Node000002_Node000005" class="edge">
<title>Node2&#45;&gt;Node5</title>
<g id="a_edge4_Node000002_Node000005"><a xlink:title=" ">
<path fill="none" stroke="#63b8ff" d="M156.89,-116C165.53,-116 175.61,-116 186.23,-116"/>
<polygon fill="#63b8ff" stroke="#63b8ff" points="185.95,-119.5 195.95,-116 185.95,-112.5 185.95,-119.5"/>
</a>
</g>
</g>
<!-- Node6 -->
<g id="Node000006" class="node">
<title>Node6</title>
<g id="a_Node000006"><a xlink:href="class_o_c_a_1_1_c_a_f_e_v_d_b_1_1_page_renderer_1_1_p_m_e_table_view_base.html#a9d19c525d1f80491f1c916ffdaab92f9" target="_top" xlink:title=" ">
<polygon fill="white" stroke="#666666" points="374.62,-82 195.12,-82 195.12,-50 374.62,-50 374.62,-82"/>
<text text-anchor="start" x="203.12" y="-68.5" font-family="Helvetica,sans-Serif" font-size="10.00">OCA\CAFEVDB\PageRenderer</text>
<text text-anchor="middle" x="284.88" y="-56.5" font-family="Helvetica,sans-Serif" font-size="10.00">\PMETableViewBase\deleteOperation</text>
</a>
</g>
</g>
<!-- Node2&#45;&gt;Node6 -->
<g id="edge5_Node000002_Node000006" class="edge">
<title>Node2&#45;&gt;Node6</title>
<g id="a_edge5_Node000002_Node000006"><a xlink:title=" ">
<path fill="none" stroke="#63b8ff" d="M153.95,-105.51C165.55,-100.77 179.62,-95.29 192.5,-91 197.92,-89.19 203.55,-87.42 209.24,-85.7"/>
<polygon fill="#63b8ff" stroke="#63b8ff" points="210.14,-89.08 218.74,-82.89 208.16,-82.36 210.14,-89.08"/>
</a>
</g>
</g>
<!-- Node7 -->
<g id="Node000007" class="node">
<title>Node7</title>
<g id="a_Node000007"><a xlink:href="class_o_c_a_1_1_c_a_f_e_v_d_b_1_1_page_renderer_1_1_p_m_e_table_view_base.html#a7f9c4bce2f800cbf5e81b80f1f751fff" target="_top" xlink:title=" ">
<polygon fill="white" stroke="#666666" points="371.62,-32 198.12,-32 198.12,0 371.62,0 371.62,-32"/>
<text text-anchor="start" x="206.12" y="-18.5" font-family="Helvetica,sans-Serif" font-size="10.00">OCA\CAFEVDB\PageRenderer</text>
<text text-anchor="middle" x="284.88" y="-6.5" font-family="Helvetica,sans-Serif" font-size="10.00">\PMETableViewBase\viewOperation</text>
</a>
</g>
</g>
<!-- Node2&#45;&gt;Node7 -->
<g id="edge6_Node000002_Node000007" class="edge">
<title>Node2&#45;&gt;Node7</title>
<g id="a_edge6_Node000002_Node000007"><a xlink:title=" ">
<path fill="none" stroke="#63b8ff" d="M135.18,-105.54C144.97,-89.24 166.09,-57.88 192.5,-41 194.5,-39.72 196.57,-38.5 198.69,-37.35"/>
<polygon fill="#63b8ff" stroke="#63b8ff" points="200.1,-40.56 207.57,-33.05 197.04,-34.26 200.1,-40.56"/>
</a>
</g>
</g>
</g>
</svg>
