<?xml version="1.0" encoding="UTF-8" standalone="no"?>
<!DOCTYPE svg PUBLIC "-//W3C//DTD SVG 1.1//EN"
 "http://www.w3.org/Graphics/SVG/1.1/DTD/svg11.dtd">
<!-- Generated by graphviz version 8.0.3 (20230416.2022)
 -->
<!-- Title: ban Pages: 1 -->
<svg width="248pt" height="86pt"
 viewBox="0.00 0.00 248.00 86.00" xmlns="http://www.w3.org/2000/svg" xmlns:xlink="http://www.w3.org/1999/xlink">
<g id="graph0" class="graph" transform="scale(1 1) rotate(0) translate(4 82)">
<title>ban</title>
<!-- Node1 -->
<g id="node1" class="node">
<title>Node1</title>
<g id="a_node1"><a xlink:title="Ban a SEPA&#45;mandate (timeout, withdrawn, erroneous data etc.).">
<polygon fill="#999999" stroke="#666666" points="32,-54 0,-54 0,-35 32,-35 32,-54"/>
<text text-anchor="middle" x="16" y="-42" font-family="Helvetica,sans-Serif" font-size="10.00">ban</text>
</a>
</g>
</g>
<!-- Node2 -->
<g id="node2" class="node">
<title>Node2</title>
<g id="a_node2"><a xlink:href="class_o_c_a_1_1_c_a_f_e_v_d_b_1_1_database_1_1_doctrine_1_1_o_r_m_1_1_repositories_1_1_sepa_debit_mandates_repository.html#aa83dc5c73575593e20ef022264c93b7c" target="_top" xlink:title="Find a SEPA&#45;mandate by either its primary key or its mandate reference; no&#45;op if $idOrReference alrea...">
<polygon fill="white" stroke="#666666" points="185,-78 123,-78 123,-59 185,-59 185,-78"/>
<text text-anchor="middle" x="154" y="-66" font-family="Helvetica,sans-Serif" font-size="10.00">findOneBy</text>
</a>
</g>
</g>
<!-- Node1&#45;&gt;Node2 -->
<g id="edge1" class="edge">
<title>Node1&#45;&gt;Node2</title>
<path fill="none" stroke="#63b8ff" d="M32.34,-47.21C51.51,-50.59 85.07,-56.51 111.94,-61.25"/>
<polygon fill="#63b8ff" stroke="#63b8ff" points="111.15,-64.85 121.61,-63.14 112.37,-57.95 111.15,-64.85"/>
</g>
<!-- Node3 -->
<g id="node3" class="node">
<title>Node3</title>
<g id="a_node3"><a xlink:href="class_o_c_a_1_1_c_a_f_e_v_d_b_1_1_database_1_1_doctrine_1_1_o_r_m_1_1_repositories_1_1_entity_repository.html#ae2b0e1dbe7640aefaf7d54c6a94d08fe" target="_top" xlink:title="Public export of parent function.">
<polygon fill="white" stroke="#666666" points="240,-41 68,-41 68,0 240,0 240,-41"/>
<text text-anchor="start" x="76" y="-29" font-family="Helvetica,sans-Serif" font-size="10.00">OCA\CAFEVDB\Database</text>
<text text-anchor="start" x="76" y="-18" font-family="Helvetica,sans-Serif" font-size="10.00">\Doctrine\ORM\Repositories</text>
<text text-anchor="middle" x="154" y="-7" font-family="Helvetica,sans-Serif" font-size="10.00">\EntityRepository\getEntityManager</text>
</a>
</g>
</g>
<!-- Node1&#45;&gt;Node3 -->
<g id="edge2" class="edge">
<title>Node1&#45;&gt;Node3</title>
<path fill="none" stroke="#63b8ff" d="M32.34,-41.79C39.12,-40.6 47.71,-39.08 57.16,-37.41"/>
<polygon fill="#63b8ff" stroke="#63b8ff" points="57.48,-40.73 66.72,-35.55 56.26,-33.84 57.48,-40.73"/>
</g>
</g>
</svg>
