<?xml version="1.0" encoding="UTF-8" standalone="no"?>
<!DOCTYPE svg PUBLIC "-//W3C//DTD SVG 1.1//EN"
 "http://www.w3.org/Graphics/SVG/1.1/DTD/svg11.dtd">
<!-- Generated by graphviz version 9.0.0 (20230911.1827)
 -->
<!-- Title: removeMusicianPersonalizedViews Pages: 1 -->
<svg width="590pt" height="40pt"
 viewBox="0.00 0.00 589.50 40.00" xmlns="http://www.w3.org/2000/svg" xmlns:xlink="http://www.w3.org/1999/xlink">
<g id="graph0" class="graph" transform="scale(1 1) rotate(0) translate(4 36)">
<title>removeMusicianPersonalizedViews</title>
<!-- Node1 -->
<g id="Node000001" class="node">
<title>Node1</title>
<g id="a_Node000001"><a xlink:title="Delete the personalized one&#45;row views which give individual orchestra members access to just their ow...">
<polygon fill="#999999" stroke="#666666" points="143.5,-32 0,-32 0,0 143.5,0 143.5,-32"/>
<text text-anchor="start" x="8" y="-18.5" font-family="Helvetica,sans-Serif" font-size="10.00">removeMusicianPersonalized</text>
<text text-anchor="middle" x="71.75" y="-6.5" font-family="Helvetica,sans-Serif" font-size="10.00">Views</text>
</a>
</g>
</g>
<!-- Node2 -->
<g id="Node000002" class="node">
<title>Node2</title>
<g id="a_Node000002"><a xlink:href="class_o_c_a_1_1_c_a_f_e_v_d_b_1_1_service_1_1_cloud_user_connector_service.html#afd669fc5c9519ec4df86f83338241f86" target="_top" xlink:title="Generate the (My&#45;)SQL statements for defining the personalized single&#45;row musician views.">
<polygon fill="white" stroke="#666666" points="328.25,-32 179.5,-32 179.5,0 328.25,0 328.25,-32"/>
<text text-anchor="start" x="187.5" y="-18.5" font-family="Helvetica,sans-Serif" font-size="10.00">generateMusicianPersonalized</text>
<text text-anchor="middle" x="253.88" y="-6.5" font-family="Helvetica,sans-Serif" font-size="10.00">ViewsStatements</text>
</a>
</g>
</g>
<!-- Node1&#45;&gt;Node2 -->
<g id="edge1_Node000001_Node000002" class="edge">
<title>Node1&#45;&gt;Node2</title>
<g id="a_edge1_Node000001_Node000002"><a xlink:title=" ">
<path fill="none" stroke="#63b8ff" d="M143.94,-16C151.83,-16 159.92,-16 167.95,-16"/>
<polygon fill="#63b8ff" stroke="#63b8ff" points="167.73,-19.5 177.73,-16 167.73,-12.5 167.73,-19.5"/>
</a>
</g>
</g>
<!-- Node3 -->
<g id="Node000003" class="node">
<title>Node3</title>
<g id="a_Node000003"><a xlink:href="class_o_c_a_1_1_c_a_f_e_v_d_b_1_1_service_1_1_cloud_user_connector_service.html#a891ee9425b9ec2b464cd8d38c8f5bc9a" target="_top" xlink:title=" ">
<polygon fill="white" stroke="#666666" points="483,-26 364.25,-26 364.25,-6 483,-6 483,-26"/>
<text text-anchor="middle" x="423.62" y="-12.5" font-family="Helvetica,sans-Serif" font-size="10.00">personalizedViewName</text>
</a>
</g>
</g>
<!-- Node2&#45;&gt;Node3 -->
<g id="edge2_Node000002_Node000003" class="edge">
<title>Node2&#45;&gt;Node3</title>
<g id="a_edge2_Node000002_Node000003"><a xlink:title=" ">
<path fill="none" stroke="#63b8ff" d="M328.45,-16C336.44,-16 344.55,-16 352.49,-16"/>
<polygon fill="#63b8ff" stroke="#63b8ff" points="352.46,-19.5 362.46,-16 352.46,-12.5 352.46,-19.5"/>
</a>
</g>
</g>
<!-- Node4 -->
<g id="Node000004" class="node">
<title>Node4</title>
<g id="a_Node000004"><a xlink:href="class_o_c_a_1_1_c_a_f_e_v_d_b_1_1_service_1_1_cloud_user_connector_service.html#a8f6f0e60183992c01ae7acad097ac598" target="_top" xlink:title=" ">
<polygon fill="white" stroke="#666666" points="581.5,-26 519,-26 519,-6 581.5,-6 581.5,-26"/>
<text text-anchor="middle" x="550.25" y="-12.5" font-family="Helvetica,sans-Serif" font-size="10.00">viewName</text>
</a>
</g>
</g>
<!-- Node3&#45;&gt;Node4 -->
<g id="edge3_Node000003_Node000004" class="edge">
<title>Node3&#45;&gt;Node4</title>
<g id="a_edge3_Node000003_Node000004"><a xlink:title=" ">
<path fill="none" stroke="#63b8ff" d="M483.29,-16C491.42,-16 499.64,-16 507.38,-16"/>
<polygon fill="#63b8ff" stroke="#63b8ff" points="507.18,-19.5 517.18,-16 507.18,-12.5 507.18,-19.5"/>
</a>
</g>
</g>
</g>
</svg>
