<?xml version="1.0" encoding="UTF-8" standalone="no"?>
<!DOCTYPE svg PUBLIC "-//W3C//DTD SVG 1.1//EN"
 "http://www.w3.org/Graphics/SVG/1.1/DTD/svg11.dtd">
<!-- Generated by graphviz version 8.0.3 (20230416.2022)
 -->
<!-- Title: render Pages: 1 -->
<svg width="939pt" height="779pt"
 viewBox="0.00 0.00 939.00 779.00" xmlns="http://www.w3.org/2000/svg" xmlns:xlink="http://www.w3.org/1999/xlink">
<g id="graph0" class="graph" transform="scale(1 1) rotate(0) translate(4 775)">
<title>render</title>
<!-- Node1 -->
<g id="node1" class="node">
<title>Node1</title>
<g id="a_node1"><a xlink:title="{Show the underlying template page.This is supposed to echo html code to stdout. This is the default ...">
<polygon fill="#999999" stroke="#666666" points="44,-563.5 0,-563.5 0,-544.5 44,-544.5 44,-563.5"/>
<text text-anchor="middle" x="22" y="-551.5" font-family="Helvetica,sans-Serif" font-size="10.00">render</text>
</a>
</g>
</g>
<!-- Node2 -->
<g id="node2" class="node">
<title>Node2</title>
<g id="a_node2"><a xlink:href="class_o_c_a_1_1_c_a_f_e_v_d_b_1_1_page_renderer_1_1_p_m_e_table_view_base.html#a8a9d6dd0754451d7214ed760a2179bd4" target="_top" xlink:title="Add a &quot;slug&quot; as tooltips&#45;index and css&#45;class.">
<polygon fill="white" stroke="#666666" points="522.5,-750 367.5,-750 367.5,-720 522.5,-720 522.5,-750"/>
<text text-anchor="start" x="375.5" y="-738" font-family="Helvetica,sans-Serif" font-size="10.00">OCA\CAFEVDB\PageRenderer</text>
<text text-anchor="middle" x="445" y="-727" font-family="Helvetica,sans-Serif" font-size="10.00">\PMETableViewBase\addSlug</text>
</a>
</g>
</g>
<!-- Node1&#45;&gt;Node2 -->
<g id="edge1" class="edge">
<title>Node1&#45;&gt;Node2</title>
<path fill="none" stroke="#63b8ff" d="M23.47,-563.95C25.34,-591.09 34.57,-666.68 80,-701 158.88,-760.59 276.52,-760.26 356.56,-750.86"/>
<polygon fill="#63b8ff" stroke="#63b8ff" points="356.61,-754.25 366.1,-749.54 355.74,-747.3 356.61,-754.25"/>
</g>
<!-- Node5 -->
<g id="node5" class="node">
<title>Node5</title>
<g id="a_node5"><a xlink:href="class_o_c_a_1_1_c_a_f_e_v_d_b_1_1_common_1_1_util.html#a3ad8a4109147715b8c5573d1dbdb2d3d" target="_top" xlink:title="Merge $arrays recursively where later arguments in the list override the values of previous arguments...">
<polygon fill="white" stroke="#666666" points="511,-702 379,-702 379,-672 511,-672 511,-702"/>
<text text-anchor="start" x="387" y="-690" font-family="Helvetica,sans-Serif" font-size="10.00">OCA\CAFEVDB\Common</text>
<text text-anchor="middle" x="445" y="-679" font-family="Helvetica,sans-Serif" font-size="10.00">\Util\arrayMergeRecursive</text>
</a>
</g>
</g>
<!-- Node1&#45;&gt;Node5 -->
<g id="edge5" class="edge">
<title>Node1&#45;&gt;Node5</title>
<path fill="none" stroke="#63b8ff" d="M24.75,-563.78C29.3,-586.04 43.79,-640.38 80,-664 165.99,-720.08 289.05,-714.35 367.74,-702.61"/>
<polygon fill="#63b8ff" stroke="#63b8ff" points="368.21,-705.93 377.55,-700.92 367.12,-699.01 368.21,-705.93"/>
</g>
<!-- Node7 -->
<g id="node7" class="node">
<title>Node7</title>
<g id="a_node7"><a xlink:href="class_o_c_a_1_1_c_a_f_e_v_d_b_1_1_page_renderer_1_1_p_m_e_table_view_base.html#a936748b21bb69d2a3f9d51e14ce2cd87" target="_top" xlink:title="Before insert&#45;trigger which ideally should insert all data such that nothing remains to be done for p...">
<polygon fill="white" stroke="#666666" points="276,-413.5 112,-413.5 112,-372.5 276,-372.5 276,-413.5"/>
<text text-anchor="start" x="120" y="-401.5" font-family="Helvetica,sans-Serif" font-size="10.00">OCA\CAFEVDB\PageRenderer</text>
<text text-anchor="start" x="120" y="-390.5" font-family="Helvetica,sans-Serif" font-size="10.00">\PMETableViewBase\beforeInsert</text>
<text text-anchor="middle" x="194" y="-379.5" font-family="Helvetica,sans-Serif" font-size="10.00">DoInsertAll</text>
</a>
</g>
</g>
<!-- Node1&#45;&gt;Node7 -->
<g id="edge8" class="edge">
<title>Node1&#45;&gt;Node7</title>
<path fill="none" stroke="#63b8ff" d="M33.38,-544.17C58.68,-520.21 124.32,-458.04 163.09,-421.32"/>
<polygon fill="#63b8ff" stroke="#63b8ff" points="165.08,-424.32 169.93,-414.9 160.27,-419.23 165.08,-424.32"/>
</g>
<!-- Node12 -->
<g id="node12" class="node">
<title>Node12</title>
<g id="a_node12"><a xlink:href="class_o_c_a_1_1_c_a_f_e_v_d_b_1_1_common_1_1_util.html#a0bef3dc2eedd594dab3a84b15d183c36" target="_top" xlink:title="A preg_explode() wrapper with some extra features.">
<polygon fill="white" stroke="#666666" points="727,-186 595,-186 595,-156 727,-156 727,-186"/>
<text text-anchor="start" x="603" y="-174" font-family="Helvetica,sans-Serif" font-size="10.00">OCA\CAFEVDB\Common</text>
<text text-anchor="middle" x="661" y="-163" font-family="Helvetica,sans-Serif" font-size="10.00">\Util\explode</text>
</a>
</g>
</g>
<!-- Node1&#45;&gt;Node12 -->
<g id="edge30" class="edge">
<title>Node1&#45;&gt;Node12</title>
<path fill="none" stroke="#63b8ff" d="M24.05,-544.09C27.56,-514.45 40.99,-424.72 80,-363 164.39,-229.46 196.54,-181.66 344,-125 427.8,-92.8 457.87,-107.89 546,-125 572.04,-130.06 599.68,-141.05 621.21,-151.02"/>
<polygon fill="#63b8ff" stroke="#63b8ff" points="619.42,-154.52 629.96,-155.65 622.43,-148.2 619.42,-154.52"/>
</g>
<!-- Node18 -->
<g id="node18" class="node">
<title>Node18</title>
<g id="a_node18"><a xlink:href="class_o_c_a_1_1_c_a_f_e_v_d_b_1_1_page_renderer_1_1_p_m_e_table_view_base.html#abe18704ee0189ac55323c93db488770c" target="_top" xlink:title="The name of the field&#45;descriptor for a join&#45;table field referencing a master&#45;join&#45;table.">
<polygon fill="white" stroke="#666666" points="543.5,-654 346.5,-654 346.5,-624 543.5,-624 543.5,-654"/>
<text text-anchor="start" x="354.5" y="-642" font-family="Helvetica,sans-Serif" font-size="10.00">OCA\CAFEVDB\PageRenderer</text>
<text text-anchor="middle" x="445" y="-631" font-family="Helvetica,sans-Serif" font-size="10.00">\PMETableViewBase\joinTableFieldName</text>
</a>
</g>
</g>
<!-- Node1&#45;&gt;Node18 -->
<g id="edge31" class="edge">
<title>Node1&#45;&gt;Node18</title>
<path fill="none" stroke="#63b8ff" d="M43.42,-563.97C54.1,-568.83 67.52,-574.39 80,-578 178.68,-606.57 206.69,-598.99 308,-616 319.03,-617.85 330.56,-619.79 342.04,-621.73"/>
<polygon fill="#63b8ff" stroke="#63b8ff" points="341.12,-625.29 351.56,-623.51 342.28,-618.39 341.12,-625.29"/>
</g>
<!-- Node21 -->
<g id="node21" class="node">
<title>Node21</title>
<g id="a_node21"><a xlink:href="class_o_c_a_1_1_c_a_f_e_v_d_b_1_1_page_renderer_1_1_p_m_e_table_view_base.html#a61a318b7b87e25880772a49534c096ff" target="_top" xlink:title="Define a basic join&#45;structure for phpMyEdit by using the information from self::$joinStructure.">
<polygon fill="white" stroke="#666666" points="292,-569 96,-569 96,-539 292,-539 292,-569"/>
<text text-anchor="start" x="104" y="-557" font-family="Helvetica,sans-Serif" font-size="10.00">OCA\CAFEVDB\PageRenderer</text>
<text text-anchor="middle" x="194" y="-546" font-family="Helvetica,sans-Serif" font-size="10.00">\PMETableViewBase\defineJoinStructure</text>
</a>
</g>
</g>
<!-- Node1&#45;&gt;Node21 -->
<g id="edge27" class="edge">
<title>Node1&#45;&gt;Node21</title>
<path fill="none" stroke="#63b8ff" d="M44.19,-554C55.18,-554 69.53,-554 84.97,-554"/>
<polygon fill="#63b8ff" stroke="#63b8ff" points="84.81,-557.5 94.81,-554 84.81,-550.5 84.81,-557.5"/>
</g>
<!-- Node22 -->
<g id="node22" class="node">
<title>Node22</title>
<g id="a_node22"><a xlink:href="class_o_c_a_1_1_c_a_f_e_v_d_b_1_1_page_renderer_1_1_p_m_e_table_view_base.html#aa55b0bcba8682486d2ad67ca15019ab5" target="_top" xlink:title="Run underlying table&#45;manager (phpMyEdit for now).">
<polygon fill="white" stroke="#666666" points="271.5,-78 116.5,-78 116.5,-48 271.5,-48 271.5,-78"/>
<text text-anchor="start" x="124.5" y="-66" font-family="Helvetica,sans-Serif" font-size="10.00">OCA\CAFEVDB\PageRenderer</text>
<text text-anchor="middle" x="194" y="-55" font-family="Helvetica,sans-Serif" font-size="10.00">\PMETableViewBase\execute</text>
</a>
</g>
</g>
<!-- Node1&#45;&gt;Node22 -->
<g id="edge29" class="edge">
<title>Node1&#45;&gt;Node22</title>
<path fill="none" stroke="#63b8ff" d="M22.77,-544.05C21.57,-483.25 18.24,-162.26 80,-92 87.12,-83.9 96.17,-77.91 106.03,-73.52"/>
<polygon fill="#63b8ff" stroke="#63b8ff" points="107.06,-76.49 115.13,-69.62 104.54,-69.95 107.06,-76.49"/>
</g>
<!-- Node23 -->
<g id="node23" class="node">
<title>Node23</title>
<g id="a_node23"><a xlink:href="class_o_c_a_1_1_c_a_f_e_v_d_b_1_1_page_renderer_1_1_p_m_e_table_view_base.html#a1f1e3a7628fefdebfcff97c388d72bb1" target="_top" xlink:title="Join with an in&#45;database translation table.">
<polygon fill="white" stroke="#666666" points="308,-30 80,-30 80,0 308,0 308,-30"/>
<text text-anchor="start" x="88" y="-18" font-family="Helvetica,sans-Serif" font-size="10.00">OCA\CAFEVDB\PageRenderer</text>
<text text-anchor="middle" x="194" y="-7" font-family="Helvetica,sans-Serif" font-size="10.00">\PMETableViewBase\makeFieldTranslationsJoin</text>
</a>
</g>
</g>
<!-- Node1&#45;&gt;Node23 -->
<g id="edge32" class="edge">
<title>Node1&#45;&gt;Node23</title>
<path fill="none" stroke="#63b8ff" d="M23.41,-544.11C26.3,-475.99 44.68,-78.01 80,-39 80.56,-38.39 81.12,-37.79 81.7,-37.2"/>
<polygon fill="#63b8ff" stroke="#63b8ff" points="83.45,-39.46 88.78,-30.3 78.91,-34.13 83.45,-39.46"/>
</g>
<!-- Node24 -->
<g id="node24" class="node">
<title>Node24</title>
<g id="a_node24"><a xlink:href="class_o_c_a_1_1_c_a_f_e_v_d_b_1_1_page_renderer_1_1_p_m_e_table_view_base.html#a4bc3294be95e06a40ae3bdc7d5419749" target="_top" xlink:title="Generate a join&#45;table field, given join&#45;table and field name.">
<polygon fill="white" stroke="#666666" points="293,-655 95,-655 95,-625 293,-625 293,-655"/>
<text text-anchor="start" x="103" y="-643" font-family="Helvetica,sans-Serif" font-size="10.00">OCA\CAFEVDB\PageRenderer</text>
<text text-anchor="middle" x="194" y="-632" font-family="Helvetica,sans-Serif" font-size="10.00">\PMETableViewBase\makeJoinTableField</text>
</a>
</g>
</g>
<!-- Node1&#45;&gt;Node24 -->
<g id="edge33" class="edge">
<title>Node1&#45;&gt;Node24</title>
<path fill="none" stroke="#63b8ff" d="M29.95,-563.65C39.69,-576.43 58.6,-598.8 80,-611 86.59,-614.76 93.68,-618.04 100.96,-620.9"/>
<polygon fill="#63b8ff" stroke="#63b8ff" points="99.41,-624.42 110.01,-624.55 101.8,-617.84 99.41,-624.42"/>
</g>
<!-- Node3 -->
<g id="node3" class="node">
<title>Node3</title>
<g id="a_node3"><a xlink:href="class_o_c_a_1_1_c_a_f_e_v_d_b_1_1_page_renderer_1_1_p_m_e_table_view_base.html#aee57cb8d60602879f6a65e257cdcbf63" target="_top" xlink:title=" ">
<polygon fill="white" stroke="#666666" points="931,-771 776,-771 776,-741 931,-741 931,-771"/>
<text text-anchor="start" x="784" y="-759" font-family="Helvetica,sans-Serif" font-size="10.00">OCA\CAFEVDB\PageRenderer</text>
<text text-anchor="middle" x="853.5" y="-748" font-family="Helvetica,sans-Serif" font-size="10.00">\PMETableViewBase\cssClass</text>
</a>
</g>
</g>
<!-- Node2&#45;&gt;Node3 -->
<g id="edge2" class="edge">
<title>Node2&#45;&gt;Node3</title>
<path fill="none" stroke="#63b8ff" d="M519.8,-750.44C539.88,-753.98 561.7,-757.22 582,-759 651.95,-765.13 669.78,-759.94 740,-759 748.01,-758.89 756.35,-758.74 764.7,-758.57"/>
<polygon fill="#63b8ff" stroke="#63b8ff" points="764.73,-762.05 774.65,-758.32 764.57,-755.05 764.73,-762.05"/>
</g>
<!-- Node4 -->
<g id="node4" class="node">
<title>Node4</title>
<g id="a_node4"><a xlink:href="class_o_c_a_1_1_c_a_f_e_v_d_b_1_1_page_renderer_1_1_p_m_e_table_view_base.html#a166d2dbd24c4913a9461c5813bbb4232" target="_top" xlink:title="Generate a &quot;unified&quot; tooltip&#45;slug in order to obtain tool&#45;tips from the ToolTipsService.">
<polygon fill="white" stroke="#666666" points="740,-750 582,-750 582,-720 740,-720 740,-750"/>
<text text-anchor="start" x="590" y="-738" font-family="Helvetica,sans-Serif" font-size="10.00">OCA\CAFEVDB\PageRenderer</text>
<text text-anchor="middle" x="661" y="-727" font-family="Helvetica,sans-Serif" font-size="10.00">\PMETableViewBase\tooltipSlug</text>
</a>
</g>
</g>
<!-- Node2&#45;&gt;Node4 -->
<g id="edge3" class="edge">
<title>Node2&#45;&gt;Node4</title>
<path fill="none" stroke="#63b8ff" d="M522.96,-735C538.44,-735 554.83,-735 570.69,-735"/>
<polygon fill="#63b8ff" stroke="#63b8ff" points="570.57,-738.5 580.57,-735 570.57,-731.5 570.57,-738.5"/>
</g>
<!-- Node4&#45;&gt;Node3 -->
<g id="edge4" class="edge">
<title>Node4&#45;&gt;Node3</title>
<path fill="none" stroke="#63b8ff" d="M740.31,-743.63C748.44,-744.53 756.75,-745.44 764.97,-746.35"/>
<polygon fill="#63b8ff" stroke="#63b8ff" points="764.4,-749.92 774.73,-747.54 765.17,-742.96 764.4,-749.92"/>
</g>
<!-- Node6 -->
<g id="node6" class="node">
<title>Node6</title>
<g id="a_node6"><a xlink:href="class_o_c_a_1_1_c_a_f_e_v_d_b_1_1_common_1_1_util.html#a9396752fa41df5ffcd301d52263367f9" target="_top" xlink:title="Inner work&#45;horse for arrayMergeRecursive.">
<polygon fill="white" stroke="#666666" points="735.5,-684 586.5,-684 586.5,-654 735.5,-654 735.5,-684"/>
<text text-anchor="start" x="594.5" y="-672" font-family="Helvetica,sans-Serif" font-size="10.00">OCA\CAFEVDB\Common</text>
<text text-anchor="middle" x="661" y="-661" font-family="Helvetica,sans-Serif" font-size="10.00">\Util\arrayMergeTwoRecursive</text>
</a>
</g>
</g>
<!-- Node5&#45;&gt;Node6 -->
<g id="edge6" class="edge">
<title>Node5&#45;&gt;Node6</title>
<path fill="none" stroke="#63b8ff" d="M511.37,-681.5C531.47,-679.81 553.88,-677.93 575.09,-676.14"/>
<polygon fill="#63b8ff" stroke="#63b8ff" points="575.38,-679.55 585.05,-675.22 574.8,-672.57 575.38,-679.55"/>
</g>
<!-- Node6&#45;&gt;Node6 -->
<g id="edge7" class="edge">
<title>Node6&#45;&gt;Node6</title>
<path fill="none" stroke="#63b8ff" d="M627.16,-684.28C619.64,-693.41 630.92,-702 661,-702 678.39,-702 689.49,-699.13 694.32,-694.94"/>
<polygon fill="#63b8ff" stroke="#63b8ff" points="697.85,-695.43 694.84,-685.28 690.85,-695.09 697.85,-695.43"/>
</g>
<!-- Node8 -->
<g id="node8" class="node">
<title>Node8</title>
<g id="a_node8"><a xlink:href="class_o_c_a_1_1_c_a_f_e_v_d_b_1_1_page_renderer_1_1_p_m_e_table_view_base.html#ad92070c3daaf56e870af042e4ebf3b78" target="_top" xlink:title="Slice the given entity id by the given keys and return a composite key joined with self::COMP_KEY_SEP...">
<polygon fill="white" stroke="#666666" points="543,-384 347,-384 347,-354 543,-354 543,-384"/>
<text text-anchor="start" x="355" y="-372" font-family="Helvetica,sans-Serif" font-size="10.00">OCA\CAFEVDB\PageRenderer</text>
<text text-anchor="middle" x="445" y="-361" font-family="Helvetica,sans-Serif" font-size="10.00">\PMETableViewBase\compositeKeySlice</text>
</a>
</g>
</g>
<!-- Node7&#45;&gt;Node8 -->
<g id="edge9" class="edge">
<title>Node7&#45;&gt;Node8</title>
<path fill="none" stroke="#63b8ff" d="M276.19,-385.17C295.31,-383.33 316,-381.34 336.1,-379.4"/>
<polygon fill="#63b8ff" stroke="#63b8ff" points="336.25,-382.81 345.87,-378.36 335.58,-375.84 336.25,-382.81"/>
</g>
<!-- Node9 -->
<g id="node9" class="node">
<title>Node9</title>
<g id="a_node9"><a xlink:href="class_o_c_a_1_1_c_a_f_e_v_d_b_1_1_page_renderer_1_1_p_m_e_table_view_base.html#a586e3ce7bc155a85dae0bbe3149e4181" target="_top" xlink:title="Be noisy if debugging is enabled.">
<polygon fill="white" stroke="#666666" points="738.5,-419 583.5,-419 583.5,-389 738.5,-389 738.5,-419"/>
<text text-anchor="start" x="591.5" y="-407" font-family="Helvetica,sans-Serif" font-size="10.00">OCA\CAFEVDB\PageRenderer</text>
<text text-anchor="middle" x="661" y="-396" font-family="Helvetica,sans-Serif" font-size="10.00">\PMETableViewBase\debug</text>
</a>
</g>
</g>
<!-- Node7&#45;&gt;Node9 -->
<g id="edge10" class="edge">
<title>Node7&#45;&gt;Node9</title>
<path fill="none" stroke="#63b8ff" d="M246.44,-372.05C274.71,-361.66 310.71,-350.23 344,-345 432.69,-331.07 458.77,-323.76 546,-345 575.99,-352.3 606.9,-368.97 628.95,-382.74"/>
<polygon fill="#63b8ff" stroke="#63b8ff" points="626.82,-386.17 637.13,-388.62 630.6,-380.28 626.82,-386.17"/>
</g>
<!-- Node10 -->
<g id="node10" class="node">
<title>Node10</title>
<g id="a_node10"><a xlink:href="class_o_c_a_1_1_c_a_f_e_v_d_b_1_1_page_renderer_1_1_p_m_e_table_view_base.html#a0160798c24d6bddc98d5192235a59982" target="_top" xlink:title=" ">
<polygon fill="white" stroke="#666666" points="539,-546 351,-546 351,-516 539,-516 539,-546"/>
<text text-anchor="start" x="359" y="-534" font-family="Helvetica,sans-Serif" font-size="10.00">OCA\CAFEVDB\PageRenderer</text>
<text text-anchor="middle" x="445" y="-523" font-family="Helvetica,sans-Serif" font-size="10.00">\PMETableViewBase\debugPrintValues</text>
</a>
</g>
</g>
<!-- Node7&#45;&gt;Node10 -->
<g id="edge11" class="edge">
<title>Node7&#45;&gt;Node10</title>
<path fill="none" stroke="#63b8ff" d="M216.26,-413.99C243.54,-439.74 293.42,-482.92 344,-507 347.75,-508.78 351.64,-510.44 355.62,-511.98"/>
<polygon fill="#63b8ff" stroke="#63b8ff" points="354.05,-515.5 364.65,-515.57 356.41,-508.91 354.05,-515.5"/>
</g>
<!-- Node7&#45;&gt;Node12 -->
<g id="edge14" class="edge">
<title>Node7&#45;&gt;Node12</title>
<path fill="none" stroke="#63b8ff" d="M205.1,-372.29C225.37,-333.22 275.04,-249.15 344,-211 384,-188.87 504.13,-178.64 584.21,-174.17"/>
<polygon fill="#63b8ff" stroke="#63b8ff" points="583.94,-177.64 593.74,-173.6 583.57,-170.65 583.94,-177.64"/>
</g>
<!-- Node14 -->
<g id="node14" class="node">
<title>Node14</title>
<g id="a_node14"><a xlink:href="class_o_c_a_1_1_c_a_f_e_v_d_b_1_1_common_1_1_util.html#a224e0cc0562d0f2642f19e9f8fb03596" target="_top" xlink:title="Explode a string of the form.">
<polygon fill="white" stroke="#666666" points="511,-298 379,-298 379,-268 511,-268 511,-298"/>
<text text-anchor="start" x="387" y="-286" font-family="Helvetica,sans-Serif" font-size="10.00">OCA\CAFEVDB\Common</text>
<text text-anchor="middle" x="445" y="-275" font-family="Helvetica,sans-Serif" font-size="10.00">\Util\explodeIndexed</text>
</a>
</g>
</g>
<!-- Node7&#45;&gt;Node14 -->
<g id="edge17" class="edge">
<title>Node7&#45;&gt;Node14</title>
<path fill="none" stroke="#63b8ff" d="M228.59,-372.01C258.14,-354.22 302.74,-328.96 344,-312 353.02,-308.29 362.69,-304.85 372.32,-301.74"/>
<polygon fill="#63b8ff" stroke="#63b8ff" points="373.23,-304.82 381.73,-298.5 371.14,-298.13 373.23,-304.82"/>
</g>
<!-- Node15 -->
<g id="node15" class="node">
<title>Node15</title>
<g id="a_node15"><a xlink:href="class_o_c_a_1_1_c_a_f_e_v_d_b_1_1_common_1_1_util.html#a1c7326cf6f827db64c27bbb89f64dd7d" target="_top" xlink:title="Explode a string of the form.">
<polygon fill="white" stroke="#666666" points="511,-164 379,-164 379,-134 511,-134 511,-164"/>
<text text-anchor="start" x="387" y="-152" font-family="Helvetica,sans-Serif" font-size="10.00">OCA\CAFEVDB\Common</text>
<text text-anchor="middle" x="445" y="-141" font-family="Helvetica,sans-Serif" font-size="10.00">\Util\explodeIndexedMulti</text>
</a>
</g>
</g>
<!-- Node7&#45;&gt;Node15 -->
<g id="edge19" class="edge">
<title>Node7&#45;&gt;Node15</title>
<path fill="none" stroke="#63b8ff" d="M203.66,-372C222.54,-328.89 271.55,-230.11 344,-178 351.38,-172.69 359.73,-168.35 368.37,-164.8"/>
<polygon fill="#63b8ff" stroke="#63b8ff" points="369.46,-167.75 377.61,-160.98 367.02,-161.19 369.46,-167.75"/>
</g>
<!-- Node16 -->
<g id="node16" class="node">
<title>Node16</title>
<g id="a_node16"><a xlink:href="class_o_c_a_1_1_c_a_f_e_v_d_b_1_1_page_renderer_1_1_p_m_e_table_view_base.html#a5974458d91d622f2f455643f17af9417" target="_top" xlink:title="Find the recursion end&#45;point for a nested join description.">
<polygon fill="white" stroke="#666666" points="546,-480 344,-480 344,-450 546,-450 546,-480"/>
<text text-anchor="start" x="352" y="-468" font-family="Helvetica,sans-Serif" font-size="10.00">OCA\CAFEVDB\PageRenderer</text>
<text text-anchor="middle" x="445" y="-457" font-family="Helvetica,sans-Serif" font-size="10.00">\PMETableViewBase\findJoinColumnPivot</text>
</a>
</g>
</g>
<!-- Node7&#45;&gt;Node16 -->
<g id="edge21" class="edge">
<title>Node7&#45;&gt;Node16</title>
<path fill="none" stroke="#63b8ff" d="M256.3,-413.91C283.09,-422.74 314.96,-432.85 344,-441 351.13,-443 358.57,-444.98 366.04,-446.9"/>
<polygon fill="#63b8ff" stroke="#63b8ff" points="365.03,-450.51 375.58,-449.56 366.74,-443.72 365.03,-450.51"/>
</g>
<!-- Node17 -->
<g id="node17" class="node">
<title>Node17</title>
<g id="a_node17"><a xlink:href="class_o_c_a_1_1_c_a_f_e_v_d_b_1_1_page_renderer_1_1_p_m_e_table_view_base.html#a52152c1de369b4179e8e391899eca24a" target="_top" xlink:title="Inverse of self::joinTableFieldName().">
<polygon fill="white" stroke="#666666" points="530.5,-432 359.5,-432 359.5,-402 530.5,-402 530.5,-432"/>
<text text-anchor="start" x="367.5" y="-420" font-family="Helvetica,sans-Serif" font-size="10.00">OCA\CAFEVDB\PageRenderer</text>
<text text-anchor="middle" x="445" y="-409" font-family="Helvetica,sans-Serif" font-size="10.00">\PMETableViewBase\joinTableField</text>
</a>
</g>
</g>
<!-- Node7&#45;&gt;Node17 -->
<g id="edge23" class="edge">
<title>Node7&#45;&gt;Node17</title>
<path fill="none" stroke="#63b8ff" d="M276.19,-400.83C299.2,-403.04 324.47,-405.48 348.26,-407.77"/>
<polygon fill="#63b8ff" stroke="#63b8ff" points="347.78,-411.34 358.07,-408.81 348.45,-404.37 347.78,-411.34"/>
</g>
<!-- Node7&#45;&gt;Node18 -->
<g id="edge24" class="edge">
<title>Node7&#45;&gt;Node18</title>
<path fill="none" stroke="#63b8ff" d="M215.49,-413.82C239.91,-439.48 280.82,-485.18 308,-530 329.27,-565.08 312.7,-588.48 344,-615 345.23,-616.05 346.51,-617.05 347.81,-618.01"/>
<polygon fill="#63b8ff" stroke="#63b8ff" points="345.56,-621.35 355.88,-623.75 349.3,-615.44 345.56,-621.35"/>
</g>
<!-- Node19 -->
<g id="node19" class="node">
<title>Node19</title>
<g id="a_node19"><a xlink:href="class_o_c_a_1_1_c_a_f_e_v_d_b_1_1_page_renderer_1_1_p_m_e_table_view_base.html#a67e29f07640bea5f1c3132bb88270a2b" target="_top" xlink:title="The name of the master join table field which triggers PME to actually do the join.">
<polygon fill="white" stroke="#666666" points="535,-605.5 355,-605.5 355,-564.5 535,-564.5 535,-605.5"/>
<text text-anchor="start" x="363" y="-593.5" font-family="Helvetica,sans-Serif" font-size="10.00">OCA\CAFEVDB\PageRenderer</text>
<text text-anchor="start" x="363" y="-582.5" font-family="Helvetica,sans-Serif" font-size="10.00">\PMETableViewBase\joinTableMaster</text>
<text text-anchor="middle" x="445" y="-571.5" font-family="Helvetica,sans-Serif" font-size="10.00">FieldName</text>
</a>
</g>
</g>
<!-- Node7&#45;&gt;Node19 -->
<g id="edge25" class="edge">
<title>Node7&#45;&gt;Node19</title>
<path fill="none" stroke="#63b8ff" d="M208.63,-413.98C232.12,-448.49 283.59,-517.19 344,-555 346.35,-556.47 348.78,-557.88 351.27,-559.21"/>
<polygon fill="#63b8ff" stroke="#63b8ff" points="349.6,-562.79 360.12,-564.05 352.69,-556.5 349.6,-562.79"/>
</g>
<!-- Node20 -->
<g id="node20" class="node">
<title>Node20</title>
<g id="a_node20"><a xlink:href="class_o_c_a_1_1_c_a_f_e_v_d_b_1_1_common_1_1_util.html#a62e9094de93176fae4478b7eae96d61f" target="_top" xlink:title="Unset all array elements with value $value.">
<polygon fill="white" stroke="#666666" points="511,-250 379,-250 379,-220 511,-220 511,-250"/>
<text text-anchor="start" x="387" y="-238" font-family="Helvetica,sans-Serif" font-size="10.00">OCA\CAFEVDB\Common</text>
<text text-anchor="middle" x="445" y="-227" font-family="Helvetica,sans-Serif" font-size="10.00">\Util\unsetValue</text>
</a>
</g>
</g>
<!-- Node7&#45;&gt;Node20 -->
<g id="edge26" class="edge">
<title>Node7&#45;&gt;Node20</title>
<path fill="none" stroke="#63b8ff" d="M212.16,-372.04C237.71,-342.25 288.72,-288.06 344,-259 351.58,-255.01 359.84,-251.68 368.25,-248.89"/>
<polygon fill="#63b8ff" stroke="#63b8ff" points="369,-252.02 377.54,-245.75 366.96,-245.32 369,-252.02"/>
</g>
<!-- Node10&#45;&gt;Node9 -->
<g id="edge13" class="edge">
<title>Node10&#45;&gt;Node9</title>
<path fill="none" stroke="#63b8ff" d="M526.47,-515.5C533.24,-513.06 539.84,-510.25 546,-507 584.25,-486.84 619.76,-450.91 640.67,-427.27"/>
<polygon fill="#63b8ff" stroke="#63b8ff" points="643.79,-430.02 647.7,-420.17 638.5,-425.43 643.79,-430.02"/>
</g>
<!-- Node11 -->
<g id="node11" class="node">
<title>Node11</title>
<g id="a_node11"><a xlink:href="class_o_c_a_1_1_c_a_f_e_v_d_b_1_1_common_1_1_util.html#a709d772c597d8bc18d170300a8cabbb7" target="_top" xlink:title=" ">
<polygon fill="white" stroke="#666666" points="727,-546 595,-546 595,-516 727,-516 727,-546"/>
<text text-anchor="start" x="603" y="-534" font-family="Helvetica,sans-Serif" font-size="10.00">OCA\CAFEVDB\Common</text>
<text text-anchor="middle" x="661" y="-523" font-family="Helvetica,sans-Serif" font-size="10.00">\Util\arraySliceKeys</text>
</a>
</g>
</g>
<!-- Node10&#45;&gt;Node11 -->
<g id="edge12" class="edge">
<title>Node10&#45;&gt;Node11</title>
<path fill="none" stroke="#63b8ff" d="M539.24,-531C554.14,-531 569.4,-531 583.84,-531"/>
<polygon fill="#63b8ff" stroke="#63b8ff" points="583.71,-534.5 593.71,-531 583.71,-527.5 583.71,-534.5"/>
</g>
<!-- Node12&#45;&gt;Node12 -->
<g id="edge15" class="edge">
<title>Node12&#45;&gt;Node12</title>
<path fill="none" stroke="#63b8ff" d="M627.16,-186.28C619.64,-195.41 630.92,-204 661,-204 678.39,-204 689.49,-201.13 694.32,-196.94"/>
<polygon fill="#63b8ff" stroke="#63b8ff" points="697.85,-197.43 694.84,-187.28 690.85,-197.09 697.85,-197.43"/>
</g>
<!-- Node13 -->
<g id="node13" class="node">
<title>Node13</title>
<g id="a_node13"><a xlink:href="class_o_c_a_1_1_c_a_f_e_v_d_b_1_1_common_1_1_util.html#a33027424113469f92dd6e70bcd90953f" target="_top" xlink:title="Un&#45;escape delimiters in the given value.">
<polygon fill="white" stroke="#666666" points="919.5,-186 787.5,-186 787.5,-156 919.5,-156 919.5,-186"/>
<text text-anchor="start" x="795.5" y="-174" font-family="Helvetica,sans-Serif" font-size="10.00">OCA\CAFEVDB\Common</text>
<text text-anchor="middle" x="853.5" y="-163" font-family="Helvetica,sans-Serif" font-size="10.00">\Util\unescapeDelimiter</text>
</a>
</g>
</g>
<!-- Node12&#45;&gt;Node13 -->
<g id="edge16" class="edge">
<title>Node12&#45;&gt;Node13</title>
<path fill="none" stroke="#63b8ff" d="M727.29,-171C743.2,-171 760.34,-171 776.69,-171"/>
<polygon fill="#63b8ff" stroke="#63b8ff" points="776.29,-174.5 786.29,-171 776.29,-167.5 776.29,-174.5"/>
</g>
<!-- Node14&#45;&gt;Node12 -->
<g id="edge18" class="edge">
<title>Node14&#45;&gt;Node12</title>
<path fill="none" stroke="#63b8ff" d="M511.39,-271.52C523.22,-268.27 535.21,-264.17 546,-259 580.84,-242.32 615.15,-213.72 636.88,-193.67"/>
<polygon fill="#63b8ff" stroke="#63b8ff" points="638.95,-196.58 643.84,-187.18 634.15,-191.48 638.95,-196.58"/>
</g>
<!-- Node15&#45;&gt;Node12 -->
<g id="edge20" class="edge">
<title>Node15&#45;&gt;Node12</title>
<path fill="none" stroke="#63b8ff" d="M511.37,-155.72C534.29,-158.08 560.22,-160.74 583.94,-163.18"/>
<polygon fill="#63b8ff" stroke="#63b8ff" points="583.36,-166.74 593.66,-164.28 584.07,-159.78 583.36,-166.74"/>
</g>
<!-- Node16&#45;&gt;Node16 -->
<g id="edge22" class="edge">
<title>Node16&#45;&gt;Node16</title>
<path fill="none" stroke="#63b8ff" d="M407.03,-480.28C398.59,-489.41 411.25,-498 445,-498 464.51,-498 476.97,-495.13 482.38,-490.94"/>
<polygon fill="#63b8ff" stroke="#63b8ff" points="485.92,-491.45 482.97,-481.28 478.93,-491.07 485.92,-491.45"/>
</g>
<!-- Node21&#45;&gt;Node19 -->
<g id="edge28" class="edge">
<title>Node21&#45;&gt;Node19</title>
<path fill="none" stroke="#63b8ff" d="M292.34,-566.12C309.4,-568.24 327.17,-570.45 344.29,-572.59"/>
<polygon fill="#63b8ff" stroke="#63b8ff" points="343.49,-576.14 353.85,-573.9 344.36,-569.19 343.49,-576.14"/>
</g>
<!-- Node24&#45;&gt;Node2 -->
<g id="edge34" class="edge">
<title>Node24&#45;&gt;Node2</title>
<path fill="none" stroke="#63b8ff" d="M222.81,-655.42C252.2,-671.2 300.24,-695.51 344,-711 349.52,-712.95 355.27,-714.8 361.1,-716.54"/>
<polygon fill="#63b8ff" stroke="#63b8ff" points="360.07,-720.17 370.64,-719.54 361.99,-713.44 360.07,-720.17"/>
</g>
<!-- Node24&#45;&gt;Node5 -->
<g id="edge35" class="edge">
<title>Node24&#45;&gt;Node5</title>
<path fill="none" stroke="#63b8ff" d="M276.88,-655.45C306.29,-661.01 339.32,-667.24 368.19,-672.69"/>
<polygon fill="#63b8ff" stroke="#63b8ff" points="367.15,-676.25 377.63,-674.66 368.45,-669.37 367.15,-676.25"/>
</g>
<!-- Node24&#45;&gt;Node18 -->
<g id="edge36" class="edge">
<title>Node24&#45;&gt;Node18</title>
<path fill="none" stroke="#63b8ff" d="M293.41,-639.6C307.28,-639.55 321.59,-639.49 335.63,-639.44"/>
<polygon fill="#63b8ff" stroke="#63b8ff" points="335.32,-642.93 345.3,-639.39 335.29,-635.93 335.32,-642.93"/>
</g>
<!-- Node24&#45;&gt;Node19 -->
<g id="edge37" class="edge">
<title>Node24&#45;&gt;Node19</title>
<path fill="none" stroke="#63b8ff" d="M265.02,-624.53C289.66,-619.09 317.84,-612.87 344.44,-606.99"/>
<polygon fill="#63b8ff" stroke="#63b8ff" points="344.92,-610.25 353.93,-604.67 343.41,-603.41 344.92,-610.25"/>
</g>
</g>
</svg>
