<?xml version="1.0" encoding="UTF-8" standalone="no"?>
<!DOCTYPE svg PUBLIC "-//W3C//DTD SVG 1.1//EN"
 "http://www.w3.org/Graphics/SVG/1.1/DTD/svg11.dtd">
<!-- Generated by graphviz version 9.0.0 (20230911.1827)
 -->
<!-- Title: addOperation Pages: 1 -->
<svg width="462pt" height="190pt"
 viewBox="0.00 0.00 461.75 190.00" xmlns="http://www.w3.org/2000/svg" xmlns:xlink="http://www.w3.org/1999/xlink">
<g id="graph0" class="graph" transform="scale(1 1) rotate(0) translate(4 186)">
<title>addOperation</title>
<!-- Node1 -->
<g id="Node000001" class="node">
<title>Node1</title>
<g id="a_Node000001"><a xlink:title=" ">
<polygon fill="#999999" stroke="#666666" points="453.75,-101 380,-101 380,-81 453.75,-81 453.75,-101"/>
<text text-anchor="middle" x="416.88" y="-87.5" font-family="Helvetica,sans-Serif" font-size="10.00">addOperation</text>
</a>
</g>
</g>
<!-- Node2 -->
<g id="Node000002" class="node">
<title>Node2</title>
<g id="a_Node000002"><a xlink:href="class_o_c_a_1_1_c_a_f_e_v_d_b_1_1_page_renderer_1_1_sepa_bulk_transactions.html#ab91557ae1e08e1183c76c9ce39edfe33" target="_top" xlink:title="{Show the underlying template page.This is supposed to echo html code to stdout. This is the default ...">
<polygon fill="white" stroke="#666666" points="344,-182 190,-182 190,-150 344,-150 344,-182"/>
<text text-anchor="start" x="198" y="-168.5" font-family="Helvetica,sans-Serif" font-size="10.00">OCA\CAFEVDB\PageRenderer</text>
<text text-anchor="middle" x="267" y="-156.5" font-family="Helvetica,sans-Serif" font-size="10.00">\SepaBulkTransactions\render</text>
</a>
</g>
</g>
<!-- Node1&#45;&gt;Node2 -->
<g id="edge1_Node000001_Node000002" class="edge">
<title>Node1&#45;&gt;Node2</title>
<g id="a_edge1_Node000001_Node000002"><a xlink:title=" ">
<path fill="none" stroke="#63b8ff" d="M394.65,-108.23C380.85,-118.78 362.12,-131.96 344,-141 337.79,-144.1 331.1,-146.94 324.36,-149.51"/>
<polygon fill="#63b8ff" stroke="#63b8ff" points="396.43,-111.27 402.15,-102.35 392.12,-105.76 396.43,-111.27"/>
</a>
</g>
</g>
<!-- Node3 -->
<g id="Node000003" class="node">
<title>Node3</title>
<g id="a_Node000003"><a xlink:href="class_o_c_a_1_1_c_a_f_e_v_d_b_1_1_page_renderer_1_1_instrument_families.html#a9ed08d50f5d820b52e7108eea8a169e5" target="_top" xlink:title="{string Short title for heading. }">
<polygon fill="white" stroke="#666666" points="344,-132 190,-132 190,-100 344,-100 344,-132"/>
<text text-anchor="start" x="198" y="-118.5" font-family="Helvetica,sans-Serif" font-size="10.00">OCA\CAFEVDB\PageRenderer</text>
<text text-anchor="middle" x="267" y="-106.5" font-family="Helvetica,sans-Serif" font-size="10.00">\InstrumentFamilies\shortTitle</text>
</a>
</g>
</g>
<!-- Node1&#45;&gt;Node3 -->
<g id="edge2_Node000001_Node000003" class="edge">
<title>Node1&#45;&gt;Node3</title>
<g id="a_edge2_Node000001_Node000003"><a xlink:title=" ">
<path fill="none" stroke="#63b8ff" d="M368.4,-99.03C360.7,-100.33 352.55,-101.71 344.37,-103.09"/>
<polygon fill="#63b8ff" stroke="#63b8ff" points="368.93,-102.49 378.21,-97.37 367.76,-95.58 368.93,-102.49"/>
</a>
</g>
</g>
<!-- Node5 -->
<g id="Node000005" class="node">
<title>Node5</title>
<g id="a_Node000005"><a xlink:href="class_o_c_a_1_1_c_a_f_e_v_d_b_1_1_page_renderer_1_1_instruments.html#a9ed08d50f5d820b52e7108eea8a169e5" target="_top" xlink:title="{string Short title for heading. }">
<polygon fill="white" stroke="#666666" points="344,-82 190,-82 190,-50 344,-50 344,-82"/>
<text text-anchor="start" x="198" y="-68.5" font-family="Helvetica,sans-Serif" font-size="10.00">OCA\CAFEVDB\PageRenderer</text>
<text text-anchor="middle" x="267" y="-56.5" font-family="Helvetica,sans-Serif" font-size="10.00">\Instruments\shortTitle</text>
</a>
</g>
</g>
<!-- Node1&#45;&gt;Node5 -->
<g id="edge4_Node000001_Node000005" class="edge">
<title>Node1&#45;&gt;Node5</title>
<g id="a_edge4_Node000001_Node000005"><a xlink:title=" ">
<path fill="none" stroke="#63b8ff" d="M368.4,-82.97C360.7,-81.67 352.55,-80.29 344.37,-78.91"/>
<polygon fill="#63b8ff" stroke="#63b8ff" points="367.76,-86.42 378.21,-84.63 368.93,-79.51 367.76,-86.42"/>
</a>
</g>
</g>
<!-- Node7 -->
<g id="Node000007" class="node">
<title>Node7</title>
<g id="a_Node000007"><a xlink:href="class_o_c_a_1_1_c_a_f_e_v_d_b_1_1_page_renderer_1_1_musicians.html#a9ed08d50f5d820b52e7108eea8a169e5" target="_top" xlink:title="{string Short title for heading. }">
<polygon fill="white" stroke="#666666" points="344,-32 190,-32 190,0 344,0 344,-32"/>
<text text-anchor="start" x="198" y="-18.5" font-family="Helvetica,sans-Serif" font-size="10.00">OCA\CAFEVDB\PageRenderer</text>
<text text-anchor="middle" x="267" y="-6.5" font-family="Helvetica,sans-Serif" font-size="10.00">\Musicians\shortTitle</text>
</a>
</g>
</g>
<!-- Node1&#45;&gt;Node7 -->
<g id="edge6_Node000001_Node000007" class="edge">
<title>Node1&#45;&gt;Node7</title>
<g id="a_edge6_Node000001_Node000007"><a xlink:title=" ">
<path fill="none" stroke="#63b8ff" d="M394.65,-73.77C380.85,-63.22 362.12,-50.04 344,-41 337.79,-37.9 331.1,-35.06 324.36,-32.49"/>
<polygon fill="#63b8ff" stroke="#63b8ff" points="392.12,-76.24 402.15,-79.65 396.43,-70.73 392.12,-76.24"/>
</a>
</g>
</g>
<!-- Node4 -->
<g id="Node000004" class="node">
<title>Node4</title>
<g id="a_Node000004"><a xlink:href="class_o_c_a_1_1_c_a_f_e_v_d_b_1_1_page_renderer_1_1_instrument_families.html#aabe24c55e3f00c5c998a4c6338a413bf" target="_top" xlink:title="{Header text informations.Display in popup in order not to bloat the small header space....">
<polygon fill="white" stroke="#666666" points="154,-132 0,-132 0,-100 154,-100 154,-132"/>
<text text-anchor="start" x="8" y="-118.5" font-family="Helvetica,sans-Serif" font-size="10.00">OCA\CAFEVDB\PageRenderer</text>
<text text-anchor="middle" x="77" y="-106.5" font-family="Helvetica,sans-Serif" font-size="10.00">\InstrumentFamilies\headerText</text>
</a>
</g>
</g>
<!-- Node3&#45;&gt;Node4 -->
<g id="edge3_Node000003_Node000004" class="edge">
<title>Node3&#45;&gt;Node4</title>
<g id="a_edge3_Node000003_Node000004"><a xlink:title=" ">
<path fill="none" stroke="#63b8ff" d="M178.03,-116C170.14,-116 162.18,-116 154.4,-116"/>
<polygon fill="#63b8ff" stroke="#63b8ff" points="178.02,-119.5 188.02,-116 178.02,-112.5 178.02,-119.5"/>
</a>
</g>
</g>
<!-- Node6 -->
<g id="Node000006" class="node">
<title>Node6</title>
<g id="a_Node000006"><a xlink:href="class_o_c_a_1_1_c_a_f_e_v_d_b_1_1_page_renderer_1_1_instruments.html#aabe24c55e3f00c5c998a4c6338a413bf" target="_top" xlink:title="{Header text informations.Display in popup in order not to bloat the small header space....">
<polygon fill="white" stroke="#666666" points="154,-82 0,-82 0,-50 154,-50 154,-82"/>
<text text-anchor="start" x="8" y="-68.5" font-family="Helvetica,sans-Serif" font-size="10.00">OCA\CAFEVDB\PageRenderer</text>
<text text-anchor="middle" x="77" y="-56.5" font-family="Helvetica,sans-Serif" font-size="10.00">\Instruments\headerText</text>
</a>
</g>
</g>
<!-- Node5&#45;&gt;Node6 -->
<g id="edge5_Node000005_Node000006" class="edge">
<title>Node5&#45;&gt;Node6</title>
<g id="a_edge5_Node000005_Node000006"><a xlink:title=" ">
<path fill="none" stroke="#63b8ff" d="M178.03,-66C170.14,-66 162.18,-66 154.4,-66"/>
<polygon fill="#63b8ff" stroke="#63b8ff" points="178.02,-69.5 188.02,-66 178.02,-62.5 178.02,-69.5"/>
</a>
</g>
</g>
<!-- Node8 -->
<g id="Node000008" class="node">
<title>Node8</title>
<g id="a_Node000008"><a xlink:href="class_o_c_a_1_1_c_a_f_e_v_d_b_1_1_page_renderer_1_1_musicians.html#aabe24c55e3f00c5c998a4c6338a413bf" target="_top" xlink:title="{Header text informations.Display in popup in order not to bloat the small header space....">
<polygon fill="white" stroke="#666666" points="154,-32 0,-32 0,0 154,0 154,-32"/>
<text text-anchor="start" x="8" y="-18.5" font-family="Helvetica,sans-Serif" font-size="10.00">OCA\CAFEVDB\PageRenderer</text>
<text text-anchor="middle" x="77" y="-6.5" font-family="Helvetica,sans-Serif" font-size="10.00">\Musicians\headerText</text>
</a>
</g>
</g>
<!-- Node7&#45;&gt;Node8 -->
<g id="edge7_Node000007_Node000008" class="edge">
<title>Node7&#45;&gt;Node8</title>
<g id="a_edge7_Node000007_Node000008"><a xlink:title=" ">
<path fill="none" stroke="#63b8ff" d="M178.03,-16C170.14,-16 162.18,-16 154.4,-16"/>
<polygon fill="#63b8ff" stroke="#63b8ff" points="178.02,-19.5 188.02,-16 178.02,-12.5 178.02,-19.5"/>
</a>
</g>
</g>
</g>
</svg>
