<?xml version="1.0" encoding="UTF-8" standalone="no"?>
<!DOCTYPE svg PUBLIC "-//W3C//DTD SVG 1.1//EN"
 "http://www.w3.org/Graphics/SVG/1.1/DTD/svg11.dtd">
<!-- Generated by graphviz version 9.0.0 (20230911.1827)
 -->
<!-- Title: CreateExplodeFunction Pages: 1 -->
<svg width="126pt" height="140pt"
 viewBox="0.00 0.00 126.00 140.00" xmlns="http://www.w3.org/2000/svg" xmlns:xlink="http://www.w3.org/1999/xlink">
<g id="graph0" class="graph" transform="scale(1 1) rotate(0) translate(4 136)">
<title>CreateExplodeFunction</title>
<!-- Node1 -->
<g id="Node000001" class="node">
<title>Node1</title>
<g id="a_Node000001"><a xlink:title="Remember the id of a mailing list.">
<polygon fill="#999999" stroke="#666666" points="118,-20 0,-20 0,0 118,0 118,-20"/>
<text text-anchor="middle" x="59" y="-6.5" font-family="Helvetica,sans-Serif" font-size="10.00">CreateExplodeFunction</text>
</a>
</g>
</g>
<!-- Node2 -->
<g id="Node000002" class="node">
<title>Node2</title>
<g id="a_Node000002"><a xlink:href="class_o_c_a_1_1_c_a_f_e_v_d_b_1_1_maintenance_1_1_migrations_1_1_abstract_migration.html" target="_top" xlink:title="Abstract migration class, the derived classes have to fill AbstractMigration::$sql.">
<polygon fill="white" stroke="#666666" points="105.25,-76 12.75,-76 12.75,-56 105.25,-56 105.25,-76"/>
<text text-anchor="middle" x="59" y="-62.5" font-family="Helvetica,sans-Serif" font-size="10.00">AbstractMigration</text>
</a>
</g>
</g>
<!-- Node2&#45;&gt;Node1 -->
<g id="edge1_Node000001_Node000002" class="edge">
<title>Node2&#45;&gt;Node1</title>
<g id="a_edge1_Node000001_Node000002"><a xlink:title=" ">
<path fill="none" stroke="#63b8ff" d="M59,-44.13C59,-35.9 59,-26.85 59,-20.3"/>
<polygon fill="#63b8ff" stroke="#63b8ff" points="55.5,-44.08 59,-54.08 62.5,-44.08 55.5,-44.08"/>
</a>
</g>
</g>
<!-- Node3 -->
<g id="Node000003" class="node">
<title>Node3</title>
<g id="a_Node000003"><a xlink:href="interface_o_c_a_1_1_c_a_f_e_v_d_b_1_1_maintenance_1_1_i_migration.html" target="_top" xlink:title="Uni&#45;directional migrations for the orchestra DB.">
<polygon fill="white" stroke="#666666" points="88.38,-132 29.62,-132 29.62,-112 88.38,-112 88.38,-132"/>
<text text-anchor="middle" x="59" y="-118.5" font-family="Helvetica,sans-Serif" font-size="10.00">IMigration</text>
</a>
</g>
</g>
<!-- Node3&#45;&gt;Node2 -->
<g id="edge2_Node000002_Node000003" class="edge">
<title>Node3&#45;&gt;Node2</title>
<g id="a_edge2_Node000002_Node000003"><a xlink:title=" ">
<path fill="none" stroke="#63b8ff" d="M59,-100.13C59,-91.9 59,-82.85 59,-76.3"/>
<polygon fill="#63b8ff" stroke="#63b8ff" points="55.5,-100.08 59,-110.08 62.5,-100.08 55.5,-100.08"/>
</a>
</g>
</g>
</g>
</svg>
