<?xml version="1.0" encoding="UTF-8" standalone="no"?>
<!DOCTYPE svg PUBLIC "-//W3C//DTD SVG 1.1//EN"
 "http://www.w3.org/Graphics/SVG/1.1/DTD/svg11.dtd">
<!-- Generated by graphviz version 8.0.3 (20230416.2022)
 -->
<!-- Title: initAppEncryptionKey Pages: 1 -->
<svg width="421pt" height="138pt"
 viewBox="0.00 0.00 421.00 138.00" xmlns="http://www.w3.org/2000/svg" xmlns:xlink="http://www.w3.org/1999/xlink">
<g id="graph0" class="graph" transform="scale(1 1) rotate(0) translate(4 134)">
<title>initAppEncryptionKey</title>
<!-- Node1 -->
<g id="node1" class="node">
<title>Node1</title>
<g id="a_node1"><a xlink:title="Initialize the global symmetric app encryption key used to encrypt shared data.">
<polygon fill="#999999" stroke="#666666" points="110,-74 0,-74 0,-55 110,-55 110,-74"/>
<text text-anchor="middle" x="55" y="-62" font-family="Helvetica,sans-Serif" font-size="10.00">initAppEncryptionKey</text>
</a>
</g>
</g>
<!-- Node2 -->
<g id="node2" class="node">
<title>Node2</title>
<g id="a_node2"><a xlink:href="class_o_c_a_1_1_c_a_f_e_v_d_b_1_1_service_1_1_encryption_service.html#ac00a76ffe038ef8a433357bd4114bb52" target="_top" xlink:title="Test if we a bound to a user.">
<polygon fill="white" stroke="#666666" points="225,-130 182,-130 182,-111 225,-111 225,-130"/>
<text text-anchor="middle" x="203.5" y="-118" font-family="Helvetica,sans-Serif" font-size="10.00">bound</text>
</a>
</g>
</g>
<!-- Node1&#45;&gt;Node2 -->
<g id="edge1" class="edge">
<title>Node1&#45;&gt;Node2</title>
<path fill="none" stroke="#63b8ff" d="M77.97,-74.44C96.05,-82.46 122.45,-93.8 146,-102.5 154.12,-105.5 163.01,-108.48 171.28,-111.11"/>
<polygon fill="#63b8ff" stroke="#63b8ff" points="170.09,-114.72 180.68,-114.36 172.18,-108.04 170.09,-114.72"/>
</g>
<!-- Node3 -->
<g id="node3" class="node">
<title>Node3</title>
<g id="a_node3"><a xlink:href="class_o_c_a_1_1_c_a_f_e_v_d_b_1_1_service_1_1_encryption_service.html#a7f3eb9937785e05b6d3e638fc187072c" target="_top" xlink:title="Fetch the value for the given key and possibly decrypt it.">
<polygon fill="white" stroke="#666666" points="245,-93 162,-93 162,-74 245,-74 245,-93"/>
<text text-anchor="middle" x="203.5" y="-81" font-family="Helvetica,sans-Serif" font-size="10.00">getConfigValue</text>
</a>
</g>
</g>
<!-- Node1&#45;&gt;Node3 -->
<g id="edge2" class="edge">
<title>Node1&#45;&gt;Node3</title>
<path fill="none" stroke="#63b8ff" d="M110.13,-71.52C123.51,-73.26 137.79,-75.11 151.04,-76.83"/>
<polygon fill="#63b8ff" stroke="#63b8ff" points="150.5,-80.42 160.87,-78.23 151.4,-73.47 150.5,-80.42"/>
</g>
<!-- Node5 -->
<g id="node5" class="node">
<title>Node5</title>
<g id="a_node5"><a xlink:href="class_o_c_a_1_1_c_a_f_e_v_d_b_1_1_service_1_1_encryption_service.html#a89044dae403670e1950421f9500ab7e4" target="_top" xlink:title=" ">
<polygon fill="white" stroke="#666666" points="261,-56 146,-56 146,-37 261,-37 261,-56"/>
<text text-anchor="middle" x="203.5" y="-44" font-family="Helvetica,sans-Serif" font-size="10.00">getUserEncryptionKey</text>
</a>
</g>
</g>
<!-- Node1&#45;&gt;Node5 -->
<g id="edge4" class="edge">
<title>Node1&#45;&gt;Node5</title>
<path fill="none" stroke="#63b8ff" d="M110.13,-57.85C118.18,-56.86 126.56,-55.83 134.84,-54.81"/>
<polygon fill="#63b8ff" stroke="#63b8ff" points="135.14,-58.18 144.64,-53.49 134.29,-51.23 135.14,-58.18"/>
</g>
<!-- Node7 -->
<g id="node7" class="node">
<title>Node7</title>
<g id="a_node7"><a xlink:href="class_o_c_a_1_1_c_a_f_e_v_d_b_1_1_service_1_1_encryption_service.html#af00d9a637dd0c0e25a62685bad893023" target="_top" xlink:title=" ">
<polygon fill="white" stroke="#666666" points="235.5,-19 171.5,-19 171.5,0 235.5,0 235.5,-19"/>
<text text-anchor="middle" x="203.5" y="-7" font-family="Helvetica,sans-Serif" font-size="10.00">verifyHash</text>
</a>
</g>
</g>
<!-- Node1&#45;&gt;Node7 -->
<g id="edge6" class="edge">
<title>Node1&#45;&gt;Node7</title>
<path fill="none" stroke="#63b8ff" d="M79.92,-54.51C97.98,-47.07 123.41,-36.81 146,-28.5 151.09,-26.63 156.46,-24.73 161.79,-22.88"/>
<polygon fill="#63b8ff" stroke="#63b8ff" points="162.56,-25.98 170.9,-19.44 160.3,-19.35 162.56,-25.98"/>
</g>
<!-- Node4 -->
<g id="node4" class="node">
<title>Node4</title>
<g id="a_node4"><a xlink:href="class_o_c_a_1_1_c_a_f_e_v_d_b_1_1_service_1_1_encryption_service.html#a6c2a8487a2ff84a0fa4530de4d61d83b" target="_top" xlink:title="A short&#45;cut, redirecting to the stock functions for the app.">
<polygon fill="white" stroke="#666666" points="390.5,-93 319.5,-93 319.5,-74 390.5,-74 390.5,-93"/>
<text text-anchor="middle" x="355" y="-81" font-family="Helvetica,sans-Serif" font-size="10.00">getAppValue</text>
</a>
</g>
</g>
<!-- Node3&#45;&gt;Node4 -->
<g id="edge3" class="edge">
<title>Node3&#45;&gt;Node4</title>
<path fill="none" stroke="#63b8ff" d="M245.35,-83.5C264.9,-83.5 288.37,-83.5 308.49,-83.5"/>
<polygon fill="#63b8ff" stroke="#63b8ff" points="308.28,-87 318.28,-83.5 308.28,-80 308.28,-87"/>
</g>
<!-- Node6 -->
<g id="node6" class="node">
<title>Node6</title>
<g id="a_node6"><a xlink:href="class_o_c_a_1_1_c_a_f_e_v_d_b_1_1_service_1_1_encryption_service.html#adb19126b250726643c9e37b9a15dc6f2" target="_top" xlink:title="Get and decrypt an personal &#39;user&#39; value encrypted with the public key of key&#45;pair.">
<polygon fill="white" stroke="#666666" points="413,-56 297,-56 297,-37 413,-37 413,-56"/>
<text text-anchor="middle" x="355" y="-44" font-family="Helvetica,sans-Serif" font-size="10.00">getSharedPrivateValue</text>
</a>
</g>
</g>
<!-- Node5&#45;&gt;Node6 -->
<g id="edge5" class="edge">
<title>Node5&#45;&gt;Node6</title>
<path fill="none" stroke="#63b8ff" d="M261.45,-46.5C269.39,-46.5 277.62,-46.5 285.74,-46.5"/>
<polygon fill="#63b8ff" stroke="#63b8ff" points="285.72,-50 295.72,-46.5 285.72,-43 285.72,-50"/>
</g>
</g>
</svg>
