<?xml version="1.0" encoding="UTF-8" standalone="no"?>
<!DOCTYPE svg PUBLIC "-//W3C//DTD SVG 1.1//EN"
 "http://www.w3.org/Graphics/SVG/1.1/DTD/svg11.dtd">
<!-- Generated by graphviz version 8.0.3 (20230416.2022)
 -->
<!-- Title: AbstractSpreadsheetExporter Pages: 1 -->
<svg width="330pt" height="82pt"
 viewBox="0.00 0.00 330.00 82.00" xmlns="http://www.w3.org/2000/svg" xmlns:xlink="http://www.w3.org/1999/xlink">
<g id="graph0" class="graph" transform="scale(1 1) rotate(0) translate(4 78)">
<title>AbstractSpreadsheetExporter</title>
<!-- Node1 -->
<g id="node1" class="node">
<title>Node1</title>
<g id="a_node1"><a xlink:title="Abstract base class for spread&#45;sheet export.">
<polygon fill="#999999" stroke="#666666" points="233,-74 88,-74 88,-55 233,-55 233,-74"/>
<text text-anchor="middle" x="160.5" y="-62" font-family="Helvetica,sans-Serif" font-size="10.00">AbstractSpreadsheetExporter</text>
</a>
</g>
</g>
<!-- Node2 -->
<g id="node2" class="node">
<title>Node2</title>
<g id="a_node2"><a xlink:href="class_o_c_a_1_1_c_a_f_e_v_d_b_1_1_page_renderer_1_1_export_1_1_insurance_spreadsheet_exporter.html" target="_top" xlink:title="Exporter for the instrument insurances.">
<polygon fill="white" stroke="#666666" points="151,-19 0,-19 0,0 151,0 151,-19"/>
<text text-anchor="middle" x="75.5" y="-7" font-family="Helvetica,sans-Serif" font-size="10.00">InsuranceSpreadsheetExporter</text>
</a>
</g>
</g>
<!-- Node1&#45;&gt;Node2 -->
<g id="edge1" class="edge">
<title>Node1&#45;&gt;Node2</title>
<path fill="none" stroke="#63b8ff" d="M136.81,-48.73C121.67,-39.29 102.54,-27.36 89.71,-19.36"/>
<polygon fill="#63b8ff" stroke="#63b8ff" points="134.74,-52.19 145.08,-54.51 138.45,-46.25 134.74,-52.19"/>
</g>
<!-- Node3 -->
<g id="node3" class="node">
<title>Node3</title>
<g id="a_node3"><a xlink:href="class_o_c_a_1_1_c_a_f_e_v_d_b_1_1_page_renderer_1_1_export_1_1_p_m_e_table_spreadsheet_exporter.html" target="_top" xlink:title="Export general PME&#45;tables as spread&#45;sheet.">
<polygon fill="white" stroke="#666666" points="322,-19 169,-19 169,0 322,0 322,-19"/>
<text text-anchor="middle" x="245.5" y="-7" font-family="Helvetica,sans-Serif" font-size="10.00">PMETableSpreadsheetExporter</text>
</a>
</g>
</g>
<!-- Node1&#45;&gt;Node3 -->
<g id="edge2" class="edge">
<title>Node1&#45;&gt;Node3</title>
<path fill="none" stroke="#63b8ff" d="M184.19,-48.73C199.33,-39.29 218.46,-27.36 231.29,-19.36"/>
<polygon fill="#63b8ff" stroke="#63b8ff" points="182.55,-46.25 175.92,-54.51 186.26,-52.19 182.55,-46.25"/>
</g>
</g>
</svg>
