<?xml version="1.0" encoding="UTF-8" standalone="no"?>
<!DOCTYPE svg PUBLIC "-//W3C//DTD SVG 1.1//EN"
 "http://www.w3.org/Graphics/SVG/1.1/DTD/svg11.dtd">
<!-- Generated by graphviz version 7.1.0 (20230121.1956)
 -->
<!-- Title: substituteAnnouncementsMailingList Pages: 1 -->
<!--zoomable 175 -->
<svg id="main" version="1.1" xmlns="http://www.w3.org/2000/svg" xmlns:xlink="http://www.w3.org/1999/xlink" xml:space="preserve" onload="init(evt)">
<style type="text/css"><![CDATA[
.edge:hover path { stroke: red; }
.edge:hover polygon { stroke: red; fill: red; }
]]></style>
<script type="text/javascript"><![CDATA[
var edges = document.getElementsByTagName('g');
if (edges && edges.length) {
  for (var i=0;i<edges.length;i++) {
    if (edges[i].id.substr(0,4)=='edge') {
      edges[i].setAttribute('class','edge');
    }
  }
}
]]></script>
        <defs>
                <circle id="rim" cx="0" cy="0" r="7"/>
                <circle id="rim2" cx="0" cy="0" r="3.5"/>
                <g id="zoomPlus">
                        <use xlink:href="#rim" fill="#404040">
                                <set attributeName="fill" to="#808080" begin="zoomplus.mouseover" end="zoomplus.mouseout"/>
                        </use>
                        <path d="M-4,0h8M0,-4v8" fill="none" stroke="white" stroke-width="1.5" pointer-events="none"/>
                </g>
                <g id="zoomMin">
                        <use xlink:href="#rim" fill="#404040">
                                <set attributeName="fill" to="#808080" begin="zoomminus.mouseover" end="zoomminus.mouseout"/>
                        </use>
                        <path d="M-4,0h8" fill="none" stroke="white" stroke-width="1.5" pointer-events="none"/>
                </g>
                <g id="dirArrow">
                        <path fill="none" stroke="white" stroke-width="1.5" d="M0,-3.0v7 M-2.5,-0.5L0,-3.0L2.5,-0.5"/>
                </g>
               <g id="resetDef">
                       <use xlink:href="#rim2" fill="#404040">
                               <set attributeName="fill" to="#808080" begin="reset.mouseover" end="reset.mouseout"/>
                       </use>
               </g>
        </defs>

<script type="text/javascript">
var viewWidth = 508;
var viewHeight = 175;
var sectionId = 'dynsection-42';
</script>
<script xlink:href="svgpan.js"/>
<svg id="graph" class="graph">
<g id="viewport">
<title>substituteAnnouncementsMailingList</title>
<!-- Node1 -->
<g id="node1" class="node">
<title>Node1</title>
<g id="a_node1"><a xlink:title="Substitute the recipients by the announcements mailing list if possible.">
<polygon fill="#999999" stroke="#666666" points="176,-93 0,-93 0,-74 176,-74 176,-93"/>
<text text-anchor="middle" x="88" y="-81" font-family="Helvetica,sans-Serif" font-size="10.00">substituteAnnouncementsMailingList</text>
</a>
</g>
</g>
<!-- Node2 -->
<g id="node2" class="node">
<title>Node2</title>
<g id="a_node2"><a xlink:href="class_o_c_a_1_1_c_a_f_e_v_d_b_1_1_email_form_1_1_recipients_filter.html#ac721d278c1106843d05dc3b9176b5fb9" target="_top" xlink:title=" ">
<polygon fill="white" stroke="#666666" points="344,-167 212,-167 212,-148 344,-148 344,-167"/>
<text text-anchor="middle" x="278" y="-155" font-family="Helvetica,sans-Serif" font-size="10.00">announcementsMailingList</text>
</a>
</g>
</g>
<!-- Node1&#45;&gt;Node2 -->
<g id="edge1" class="edge">
<title>Node1&#45;&gt;Node2</title>
<path fill="none" stroke="#63b8ff" d="M108.2,-93.39C132.08,-105.41 174.29,-125.79 212,-139.5 216.64,-141.19 221.52,-142.81 226.43,-144.34"/>
<polygon fill="#63b8ff" stroke="#63b8ff" points="225.12,-147.6 235.71,-147.1 227.12,-140.89 225.12,-147.6"/>
</g>
<!-- Node3 -->
<g id="node3" class="node">
<title>Node3</title>
<g id="a_node3"><a xlink:href="class_o_c_a_1_1_c_a_f_e_v_d_b_1_1_email_form_1_1_recipients_filter.html#a0835860e0bc6047f3eff6a9941dbbcf4" target="_top" xlink:title=" ">
<polygon fill="white" stroke="#666666" points="321,-130 235,-130 235,-111 321,-111 321,-130"/>
<text text-anchor="middle" x="278" y="-118" font-family="Helvetica,sans-Serif" font-size="10.00">defaultByStatus</text>
</a>
</g>
</g>
<!-- Node1&#45;&gt;Node3 -->
<g id="edge2" class="edge">
<title>Node1&#45;&gt;Node3</title>
<path fill="none" stroke="#63b8ff" d="M139.38,-93.42C165.46,-98.55 197.29,-104.81 223.77,-110.02"/>
<polygon fill="#63b8ff" stroke="#63b8ff" points="222.78,-113.4 233.27,-111.89 224.13,-106.53 222.78,-113.4"/>
</g>
<!-- Node5 -->
<g id="node5" class="node">
<title>Node5</title>
<g id="a_node5"><a xlink:href="class_o_c_a_1_1_c_a_f_e_v_d_b_1_1_email_form_1_1_recipients_filter.html#a87e968763c59bd64b366af7d5a17598f" target="_top" xlink:title=" ">
<polygon fill="white" stroke="#666666" points="339,-93 217,-93 217,-74 339,-74 339,-93"/>
<text text-anchor="middle" x="278" y="-81" font-family="Helvetica,sans-Serif" font-size="10.00">emailRecipientsChoices</text>
</a>
</g>
</g>
<!-- Node1&#45;&gt;Node5 -->
<g id="edge4" class="edge">
<title>Node1&#45;&gt;Node5</title>
<path fill="none" stroke="#63b8ff" d="M176.4,-83.5C186.08,-83.5 195.85,-83.5 205.3,-83.5"/>
<polygon fill="#63b8ff" stroke="#63b8ff" points="205.14,-87 215.14,-83.5 205.14,-80 205.14,-87"/>
</g>
<!-- Node7 -->
<g id="node7" class="node">
<title>Node7</title>
<g id="a_node7"><a xlink:href="class_o_c_a_1_1_c_a_f_e_v_d_b_1_1_email_form_1_1_recipients_filter.html#a2765950b3322c101496bb711b89709ed" target="_top" xlink:title=" ">
<polygon fill="white" stroke="#666666" points="322.5,-56 233.5,-56 233.5,-37 322.5,-37 322.5,-56"/>
<text text-anchor="middle" x="278" y="-44" font-family="Helvetica,sans-Serif" font-size="10.00">instrumentsFilter</text>
</a>
</g>
</g>
<!-- Node1&#45;&gt;Node7 -->
<g id="edge6" class="edge">
<title>Node1&#45;&gt;Node7</title>
<path fill="none" stroke="#63b8ff" d="M139.38,-73.58C164.87,-68.57 195.85,-62.47 221.96,-57.33"/>
<polygon fill="#63b8ff" stroke="#63b8ff" points="222.58,-60.78 231.71,-55.41 221.23,-53.91 222.58,-60.78"/>
</g>
<!-- Node8 -->
<g id="node8" class="node">
<title>Node8</title>
<g id="a_node8"><a xlink:href="class_o_c_a_1_1_c_a_f_e_v_d_b_1_1_email_form_1_1_recipients_filter.html#a85f86aca4c8ab5404203209c76241c7e" target="_top" xlink:title=" ">
<polygon fill="white" stroke="#666666" points="328,-19 228,-19 228,0 328,0 328,-19"/>
<text text-anchor="middle" x="278" y="-7" font-family="Helvetica,sans-Serif" font-size="10.00">selectedRecipients</text>
</a>
</g>
</g>
<!-- Node1&#45;&gt;Node8 -->
<g id="edge8" class="edge">
<title>Node1&#45;&gt;Node8</title>
<path fill="none" stroke="#63b8ff" d="M108.68,-73.7C132.68,-61.98 174.68,-42.23 212,-28.5 217.38,-26.52 223.07,-24.61 228.75,-22.81"/>
<polygon fill="#63b8ff" stroke="#63b8ff" points="229.61,-26.2 238.15,-19.93 227.56,-19.51 229.61,-26.2"/>
</g>
<!-- Node4 -->
<g id="node4" class="node">
<title>Node4</title>
<g id="a_node4"><a xlink:href="class_o_c_a_1_1_c_a_f_e_v_d_b_1_1_email_form_1_1_recipients_filter.html#a75227e334f1b3d4bd04bcc2ddf2c9c5d" target="_top" xlink:title=" ">
<polygon fill="white" stroke="#666666" points="500,-130 380,-130 380,-111 500,-111 500,-130"/>
<text text-anchor="middle" x="440" y="-118" font-family="Helvetica,sans-Serif" font-size="10.00">recipientsExceptProject</text>
</a>
</g>
</g>
<!-- Node3&#45;&gt;Node4 -->
<g id="edge3" class="edge">
<title>Node3&#45;&gt;Node4</title>
<path fill="none" stroke="#63b8ff" d="M321.46,-120.5C335.84,-120.5 352.31,-120.5 368.28,-120.5"/>
<polygon fill="#63b8ff" stroke="#63b8ff" points="368.27,-124 378.27,-120.5 368.27,-117 368.27,-124"/>
</g>
<!-- Node6 -->
<g id="node6" class="node">
<title>Node6</title>
<g id="a_node6"><a xlink:href="class_o_c_a_1_1_c_a_f_e_v_d_b_1_1_email_form_1_1_recipients_filter.html#a1497fe5acb2403ca1873ec2fd4b790fe" target="_top" xlink:title="Fetch a CGI&#45;variable out of the form&#45;select name&#45;space.">
<polygon fill="white" stroke="#666666" points="466.5,-56 413.5,-56 413.5,-37 466.5,-37 466.5,-56"/>
<text text-anchor="middle" x="440" y="-44" font-family="Helvetica,sans-Serif" font-size="10.00">cgiValue</text>
</a>
</g>
</g>
<!-- Node5&#45;&gt;Node6 -->
<g id="edge5" class="edge">
<title>Node5&#45;&gt;Node6</title>
<path fill="none" stroke="#63b8ff" d="M321.88,-73.58C346.86,-67.81 378.04,-60.6 401.95,-55.07"/>
<polygon fill="#63b8ff" stroke="#63b8ff" points="402.61,-58.51 411.57,-52.84 401.03,-51.69 402.61,-58.51"/>
</g>
<!-- Node7&#45;&gt;Node6 -->
<g id="edge7" class="edge">
<title>Node7&#45;&gt;Node6</title>
<path fill="none" stroke="#63b8ff" d="M322.72,-46.5C347.57,-46.5 378.36,-46.5 402,-46.5"/>
<polygon fill="#63b8ff" stroke="#63b8ff" points="401.8,-50 411.8,-46.5 401.8,-43 401.8,-50"/>
</g>
<!-- Node8&#45;&gt;Node6 -->
<g id="edge9" class="edge">
<title>Node8&#45;&gt;Node6</title>
<path fill="none" stroke="#63b8ff" d="M321.88,-19.42C346.86,-25.19 378.04,-32.4 401.95,-37.93"/>
<polygon fill="#63b8ff" stroke="#63b8ff" points="401.03,-41.31 411.57,-40.16 402.61,-34.49 401.03,-41.31"/>
</g>
</g>
</svg>
        <g id="navigator" transform="translate(0 0)" fill="#404254">
                <rect fill="#f2f5e9" fill-opacity="0.5" stroke="#606060" stroke-width=".5" x="0" y="0" width="60" height="60"/>
                <use id="zoomplus" xlink:href="#zoomPlus" x="17" y="9" onmousedown="handleZoom(evt,'in')"/>
                <use id="zoomminus" xlink:href="#zoomMin" x="42" y="9" onmousedown="handleZoom(evt,'out')"/>
                <use id="reset" xlink:href="#resetDef" x="30" y="36" onmousedown="handleReset()"/>
                <g id="arrowUp" xlink:href="#dirArrow" transform="translate(30 24)" onmousedown="handlePan(0,-1)">
                  <use xlink:href="#rim" fill="#404040">
                        <set attributeName="fill" to="#808080" begin="arrowUp.mouseover" end="arrowUp.mouseout"/>
                  </use>
                  <path fill="none" stroke="white" stroke-width="1.5" d="M0,-3.0v7 M-2.5,-0.5L0,-3.0L2.5,-0.5"/>
                </g>
                <g id="arrowRight" xlink:href="#dirArrow" transform="rotate(90) translate(36 -43)" onmousedown="handlePan(1,0)">
                  <use xlink:href="#rim" fill="#404040">
                        <set attributeName="fill" to="#808080" begin="arrowRight.mouseover" end="arrowRight.mouseout"/>
                  </use>
                  <path fill="none" stroke="white" stroke-width="1.5" d="M0,-3.0v7 M-2.5,-0.5L0,-3.0L2.5,-0.5"/>
                </g>
                <g id="arrowDown" xlink:href="#dirArrow" transform="rotate(180) translate(-30 -48)" onmousedown="handlePan(0,1)">
                  <use xlink:href="#rim" fill="#404040">
                        <set attributeName="fill" to="#808080" begin="arrowDown.mouseover" end="arrowDown.mouseout"/>
                  </use>
                  <path fill="none" stroke="white" stroke-width="1.5" d="M0,-3.0v7 M-2.5,-0.5L0,-3.0L2.5,-0.5"/>
                </g>
                <g id="arrowLeft" xlink:href="#dirArrow" transform="rotate(270) translate(-36 17)" onmousedown="handlePan(-1,0)">
                  <use xlink:href="#rim" fill="#404040">
                        <set attributeName="fill" to="#808080" begin="arrowLeft.mouseover" end="arrowLeft.mouseout"/>
                  </use>
                  <path fill="none" stroke="white" stroke-width="1.5" d="M0,-3.0v7 M-2.5,-0.5L0,-3.0L2.5,-0.5"/>
                </g>
        </g>
        <svg viewBox="0 0 15 15" width="100%" height="30px" preserveAspectRatio="xMaxYMin meet">
         <g id="arrow_out" transform="scale(0.3 0.3)">
          <a xlink:href="class_o_c_a_1_1_c_a_f_e_v_d_b_1_1_email_form_1_1_recipients_filter_a29389bb5db716e59f8a94e5083f8b58e_cgraph_org.svg" target="_base">
           <rect id="button" ry="5" rx="5" y="6" x="6" height="38" width="38"
                fill="#f2f5e9" fill-opacity="0.5" stroke="#606060" stroke-width="1.0"/>
           <path id="arrow"
             d="M 11.500037,31.436501 C 11.940474,20.09759 22.043105,11.32322 32.158766,21.979434 L 37.068811,17.246167 C 37.068811,17.246167 37.088388,32 37.088388,32 L 22.160133,31.978069 C 22.160133,31.978069 26.997745,27.140456 26.997745,27.140456 C 18.528582,18.264221 13.291696,25.230495 11.500037,31.436501 z"
             style="fill:#404040;"/>
          </a>
         </g>
        </svg>
</svg>
