<?xml version="1.0" encoding="UTF-8" standalone="no"?>
<!DOCTYPE svg PUBLIC "-//W3C//DTD SVG 1.1//EN"
 "http://www.w3.org/Graphics/SVG/1.1/DTD/svg11.dtd">
<!-- Generated by graphviz version 9.0.0 (20230911.1827)
 -->
<!-- Title: callConverter Pages: 1 -->
<svg width="334pt" height="40pt"
 viewBox="0.00 0.00 333.50 40.00" xmlns="http://www.w3.org/2000/svg" xmlns:xlink="http://www.w3.org/1999/xlink">
<g id="graph0" class="graph" transform="scale(1 1) rotate(0) translate(4 36)">
<title>callConverter</title>
<!-- Node1 -->
<g id="Node000001" class="node">
<title>Node1</title>
<g id="a_Node000001"><a xlink:title=" ">
<polygon fill="#999999" stroke="#666666" points="325.5,-26 251.75,-26 251.75,-6 325.5,-6 325.5,-26"/>
<text text-anchor="middle" x="288.62" y="-12.5" font-family="Helvetica,sans-Serif" font-size="10.00">callConverter</text>
</a>
</g>
</g>
<!-- Node2 -->
<g id="Node000002" class="node">
<title>Node2</title>
<g id="a_Node000002"><a xlink:href="class_o_c_a_1_1_c_a_f_e_v_d_b_1_1_common_1_1_html2_text.html#a8c2cb1b2ebba9f4deaf5f6b2dadfd205" target="_top" xlink:title=" ">
<polygon fill="white" stroke="#666666" points="215.75,-26 167.5,-26 167.5,-6 215.75,-6 215.75,-26"/>
<text text-anchor="middle" x="191.62" y="-12.5" font-family="Helvetica,sans-Serif" font-size="10.00">convert</text>
</a>
</g>
</g>
<!-- Node1&#45;&gt;Node2 -->
<g id="edge1_Node000001_Node000002" class="edge">
<title>Node1&#45;&gt;Node2</title>
<g id="a_edge1_Node000001_Node000002"><a xlink:title=" ">
<path fill="none" stroke="#63b8ff" d="M240.13,-16C231.77,-16 223.41,-16 216.08,-16"/>
<polygon fill="#63b8ff" stroke="#63b8ff" points="239.93,-19.5 249.93,-16 239.92,-12.5 239.93,-19.5"/>
</a>
</g>
</g>
<!-- Node3 -->
<g id="Node000003" class="node">
<title>Node3</title>
<g id="a_Node000003"><a xlink:href="class_o_c_a_1_1_c_a_f_e_v_d_b_1_1_common_1_1_p_h_p_mailer.html#adcc957bbfc73453cc7f04e412603989d" target="_top" xlink:title="{}">
<polygon fill="white" stroke="#666666" points="131.5,-32 0,-32 0,0 131.5,0 131.5,-32"/>
<text text-anchor="start" x="8" y="-18.5" font-family="Helvetica,sans-Serif" font-size="10.00">OCA\CAFEVDB\Common</text>
<text text-anchor="middle" x="65.75" y="-6.5" font-family="Helvetica,sans-Serif" font-size="10.00">\PHPMailer\html2text</text>
</a>
</g>
</g>
<!-- Node2&#45;&gt;Node3 -->
<g id="edge2_Node000002_Node000003" class="edge">
<title>Node2&#45;&gt;Node3</title>
<g id="a_edge2_Node000002_Node000003"><a xlink:title=" ">
<path fill="none" stroke="#63b8ff" d="M155.55,-16C148.08,-16 139.96,-16 131.77,-16"/>
<polygon fill="#63b8ff" stroke="#63b8ff" points="155.52,-19.5 165.52,-16 155.52,-12.5 155.52,-19.5"/>
</a>
</g>
</g>
</g>
</svg>
