<?xml version="1.0" encoding="UTF-8" standalone="no"?>
<!DOCTYPE svg PUBLIC "-//W3C//DTD SVG 1.1//EN"
 "http://www.w3.org/Graphics/SVG/1.1/DTD/svg11.dtd">
<!-- Generated by graphviz version 7.1.0 (20230121.1956)
 -->
<!-- Title: find Pages: 1 -->
<svg width="200pt" height="64pt"
 viewBox="0.00 0.00 200.00 64.00" xmlns="http://www.w3.org/2000/svg" xmlns:xlink="http://www.w3.org/1999/xlink">
<g id="graph0" class="graph" transform="scale(1 1) rotate(0) translate(4 60)">
<title>find</title>
<!-- Node1 -->
<g id="node1" class="node">
<title>Node1</title>
<g id="a_node1"><a xlink:title=" ">
<polygon fill="#999999" stroke="#666666" points="192,-37 160,-37 160,-18 192,-18 192,-37"/>
<text text-anchor="middle" x="176" y="-25" font-family="Helvetica,sans-Serif" font-size="10.00">find</text>
</a>
</g>
</g>
<!-- Node2 -->
<g id="node2" class="node">
<title>Node2</title>
<g id="a_node2"><a xlink:href="class_o_c_a_1_1_c_a_f_e_v_d_b_1_1_database_1_1_cloud_1_1_synchronized.html#a5234e2ee74d02ed9cdf5e867d1492795" target="_top" xlink:title="{}">
<polygon fill="white" stroke="#666666" points="123,-56 81,-56 81,-37 123,-37 123,-56"/>
<text text-anchor="middle" x="102" y="-44" font-family="Helvetica,sans-Serif" font-size="10.00">__call</text>
</a>
</g>
</g>
<!-- Node1&#45;&gt;Node2 -->
<g id="edge1" class="edge">
<title>Node1&#45;&gt;Node2</title>
<path fill="none" stroke="#63b8ff" d="M148.67,-34.45C140.35,-36.64 131.28,-39.04 123.44,-41.11"/>
<polygon fill="#63b8ff" stroke="#63b8ff" points="149.49,-37.85 158.27,-31.92 147.71,-31.08 149.49,-37.85"/>
</g>
<!-- Node3 -->
<g id="node3" class="node">
<title>Node3</title>
<g id="a_node3"><a xlink:href="class_o_c_a_1_1_c_a_f_e_v_d_b_1_1_database_1_1_cloud_1_1_synchronized.html#a57291364b6d186af794627f03aefd38c" target="_top" xlink:title="Obtain object from database if it is &quot;clean&quot;, if it is dirty or new (no id) then create or update the...">
<polygon fill="white" stroke="#666666" points="124,-19 80,-19 80,0 124,0 124,-19"/>
<text text-anchor="middle" x="102" y="-7" font-family="Helvetica,sans-Serif" font-size="10.00">attach</text>
</a>
</g>
</g>
<!-- Node1&#45;&gt;Node3 -->
<g id="edge2" class="edge">
<title>Node1&#45;&gt;Node3</title>
<path fill="none" stroke="#63b8ff" d="M148.66,-20.92C140.63,-18.91 131.91,-16.73 124.26,-14.81"/>
<polygon fill="#63b8ff" stroke="#63b8ff" points="147.71,-24.29 158.26,-23.32 149.41,-17.49 147.71,-24.29"/>
</g>
<!-- Node4 -->
<g id="node4" class="node">
<title>Node4</title>
<g id="a_node4"><a xlink:href="class_o_c_a_1_1_c_a_f_e_v_d_b_1_1_database_1_1_cloud_1_1_synchronized.html#a8652674eb0728ffe1e44c3fe253936a1" target="_top" xlink:title="Update multiple properties and write them through to the database if we are in $attached state.">
<polygon fill="white" stroke="#666666" points="44,-19 0,-19 0,0 44,0 44,-19"/>
<text text-anchor="middle" x="22" y="-7" font-family="Helvetica,sans-Serif" font-size="10.00">merge</text>
</a>
</g>
</g>
<!-- Node3&#45;&gt;Node4 -->
<g id="edge3" class="edge">
<title>Node3&#45;&gt;Node4</title>
<path fill="none" stroke="#63b8ff" d="M68.25,-9.5C60.15,-9.5 51.68,-9.5 44.29,-9.5"/>
<polygon fill="#63b8ff" stroke="#63b8ff" points="68.17,-13 78.17,-9.5 68.17,-6 68.17,-13"/>
</g>
</g>
</svg>
