<?xml version="1.0" encoding="UTF-8" standalone="no"?>
<!DOCTYPE svg PUBLIC "-//W3C//DTD SVG 1.1//EN"
 "http://www.w3.org/Graphics/SVG/1.1/DTD/svg11.dtd">
<!-- Generated by graphviz version 8.0.3 (20230416.2022)
 -->
<!-- Title: restoreAppKeyPair Pages: 1 -->
<svg width="370pt" height="64pt"
 viewBox="0.00 0.00 370.00 64.00" xmlns="http://www.w3.org/2000/svg" xmlns:xlink="http://www.w3.org/1999/xlink">
<g id="graph0" class="graph" transform="scale(1 1) rotate(0) translate(4 60)">
<title>restoreAppKeyPair</title>
<!-- Node1 -->
<g id="node1" class="node">
<title>Node1</title>
<g id="a_node1"><a xlink:title="Restore a potential backup e.g.">
<polygon fill="#999999" stroke="#666666" points="98,-38 0,-38 0,-19 98,-19 98,-38"/>
<text text-anchor="middle" x="49" y="-26" font-family="Helvetica,sans-Serif" font-size="10.00">restoreAppKeyPair</text>
</a>
</g>
</g>
<!-- Node2 -->
<g id="node2" class="node">
<title>Node2</title>
<g id="a_node2"><a xlink:href="class_o_c_a_1_1_c_a_f_e_v_d_b_1_1_service_1_1_encryption_service.html#aef02d325583d49207e4852023acf572d" target="_top" xlink:title=" ">
<polygon fill="white" stroke="#666666" points="362,-56 251,-56 251,-37 362,-37 362,-56"/>
<text text-anchor="middle" x="306.5" y="-44" font-family="Helvetica,sans-Serif" font-size="10.00">getAppEncryptionKey</text>
</a>
</g>
</g>
<!-- Node1&#45;&gt;Node2 -->
<g id="edge1" class="edge">
<title>Node1&#45;&gt;Node2</title>
<path fill="none" stroke="#63b8ff" d="M85.67,-38.41C100.49,-42.05 117.95,-45.71 134,-47.5 168.96,-51.4 208.18,-51.49 240.28,-50.45"/>
<polygon fill="#63b8ff" stroke="#63b8ff" points="240.01,-53.93 249.88,-50.06 239.75,-46.93 240.01,-53.93"/>
</g>
<!-- Node3 -->
<g id="node3" class="node">
<title>Node3</title>
<g id="a_node3"><a xlink:href="class_o_c_a_1_1_c_a_f_e_v_d_b_1_1_service_1_1_encryption_service.html#a6c2a8487a2ff84a0fa4530de4d61d83b" target="_top" xlink:title="A short&#45;cut, redirecting to the stock functions for the app.">
<polygon fill="white" stroke="#666666" points="342,-19 271,-19 271,0 342,0 342,-19"/>
<text text-anchor="middle" x="306.5" y="-7" font-family="Helvetica,sans-Serif" font-size="10.00">getAppValue</text>
</a>
</g>
</g>
<!-- Node1&#45;&gt;Node3 -->
<g id="edge2" class="edge">
<title>Node1&#45;&gt;Node3</title>
<path fill="none" stroke="#63b8ff" d="M85.67,-18.59C100.49,-14.95 117.95,-11.29 134,-9.5 176.45,-4.76 225.19,-5.33 259.83,-6.75"/>
<polygon fill="#63b8ff" stroke="#63b8ff" points="259.41,-10.28 269.56,-7.24 259.72,-3.29 259.41,-10.28"/>
</g>
<!-- Node4 -->
<g id="node4" class="node">
<title>Node4</title>
<g id="a_node4"><a xlink:href="class_o_c_a_1_1_c_a_f_e_v_d_b_1_1_service_1_1_encryption_service.html#a830652bacd2fe88b917967c2db01e092" target="_top" xlink:title=" ">
<polygon fill="white" stroke="#666666" points="215,-38 134,-38 134,-19 215,-19 215,-38"/>
<text text-anchor="middle" x="174.5" y="-26" font-family="Helvetica,sans-Serif" font-size="10.00">initAppKeyPair</text>
</a>
</g>
</g>
<!-- Node1&#45;&gt;Node4 -->
<g id="edge3" class="edge">
<title>Node1&#45;&gt;Node4</title>
<path fill="none" stroke="#63b8ff" d="M98.46,-28.5C106.45,-28.5 114.75,-28.5 122.79,-28.5"/>
<polygon fill="#63b8ff" stroke="#63b8ff" points="122.55,-32 132.55,-28.5 122.55,-25 122.55,-32"/>
</g>
<!-- Node4&#45;&gt;Node2 -->
<g id="edge4" class="edge">
<title>Node4&#45;&gt;Node2</title>
<path fill="none" stroke="#63b8ff" d="M215.21,-34C223.09,-35.09 231.55,-36.26 240.02,-37.43"/>
<polygon fill="#63b8ff" stroke="#63b8ff" points="239.33,-41.01 249.72,-38.91 240.29,-34.08 239.33,-41.01"/>
</g>
<!-- Node4&#45;&gt;Node3 -->
<g id="edge5" class="edge">
<title>Node4&#45;&gt;Node3</title>
<path fill="none" stroke="#63b8ff" d="M215.21,-22.7C229.37,-20.63 245.43,-18.28 260.04,-16.14"/>
<polygon fill="#63b8ff" stroke="#63b8ff" points="260.48,-19.47 269.87,-14.56 259.47,-12.54 260.48,-19.47"/>
</g>
</g>
</svg>
