<?xml version="1.0" encoding="UTF-8" standalone="no"?>
<!DOCTYPE svg PUBLIC "-//W3C//DTD SVG 1.1//EN"
 "http://www.w3.org/Graphics/SVG/1.1/DTD/svg11.dtd">
<!-- Generated by graphviz version 8.0.3 (20230416.2022)
 -->
<!-- Title: PMETableViewBase Pages: 1 -->
<svg width="164pt" height="137pt"
 viewBox="0.00 0.00 164.00 137.00" xmlns="http://www.w3.org/2000/svg" xmlns:xlink="http://www.w3.org/1999/xlink">
<g id="graph0" class="graph" transform="scale(1 1) rotate(0) translate(4 133)">
<title>PMETableViewBase</title>
<!-- Node1 -->
<g id="node1" class="node">
<title>Node1</title>
<g id="a_node1"><a xlink:title="Base for phpMyEdit based table&#45;views.">
<polygon fill="#999999" stroke="#666666" points="124,-19 18,-19 18,0 124,0 124,-19"/>
<text text-anchor="middle" x="71" y="-7" font-family="Helvetica,sans-Serif" font-size="10.00">PMETableViewBase</text>
</a>
</g>
</g>
<!-- Node2 -->
<g id="node2" class="node">
<title>Node2</title>
<g id="a_node2"><a xlink:href="class_o_c_a_1_1_c_a_f_e_v_d_b_1_1_page_renderer_1_1_renderer.html" target="_top" xlink:title="Abstract base HTML renderer.">
<polygon fill="white" stroke="#666666" points="56,-74 0,-74 0,-55 56,-55 56,-74"/>
<text text-anchor="middle" x="28" y="-62" font-family="Helvetica,sans-Serif" font-size="10.00">Renderer</text>
</a>
</g>
</g>
<!-- Node2&#45;&gt;Node1 -->
<g id="edge1" class="edge">
<title>Node2&#45;&gt;Node1</title>
<path fill="none" stroke="#63b8ff" d="M42.02,-46.22C49.27,-37.28 57.82,-26.74 63.75,-19.44"/>
<polygon fill="#63b8ff" stroke="#63b8ff" points="38.68,-43.78 35.1,-53.75 44.12,-48.19 38.68,-43.78"/>
</g>
<!-- Node3 -->
<g id="node3" class="node">
<title>Node3</title>
<g id="a_node3"><a xlink:href="interface_o_c_a_1_1_c_a_f_e_v_d_b_1_1_page_renderer_1_1_i_renderer.html" target="_top" xlink:title="HTML Renderer interface.">
<polygon fill="white" stroke="#666666" points="100.5,-129 41.5,-129 41.5,-110 100.5,-110 100.5,-129"/>
<text text-anchor="middle" x="71" y="-117" font-family="Helvetica,sans-Serif" font-size="10.00">IRenderer</text>
</a>
</g>
</g>
<!-- Node3&#45;&gt;Node2 -->
<g id="edge2" class="edge">
<title>Node3&#45;&gt;Node2</title>
<path fill="none" stroke="#63b8ff" d="M56.98,-101.22C49.73,-92.28 41.18,-81.74 35.25,-74.44"/>
<polygon fill="#63b8ff" stroke="#63b8ff" points="54.88,-103.19 63.9,-108.75 60.32,-98.78 54.88,-103.19"/>
</g>
<!-- Node4 -->
<g id="node4" class="node">
<title>Node4</title>
<g id="a_node4"><a xlink:href="interface_o_c_a_1_1_c_a_f_e_v_d_b_1_1_page_renderer_1_1_i_page_renderer.html" target="_top" xlink:title="Page&#45;renderer interface.">
<polygon fill="white" stroke="#666666" points="156,-74 74,-74 74,-55 156,-55 156,-74"/>
<text text-anchor="middle" x="115" y="-62" font-family="Helvetica,sans-Serif" font-size="10.00">IPageRenderer</text>
</a>
</g>
</g>
<!-- Node3&#45;&gt;Node4 -->
<g id="edge4" class="edge">
<title>Node3&#45;&gt;Node4</title>
<path fill="none" stroke="#63b8ff" d="M85.12,-101.5C92.58,-92.5 101.45,-81.82 107.58,-74.44"/>
<polygon fill="#63b8ff" stroke="#63b8ff" points="81.96,-98.82 78.27,-108.75 87.35,-103.29 81.96,-98.82"/>
</g>
<!-- Node4&#45;&gt;Node1 -->
<g id="edge3" class="edge">
<title>Node4&#45;&gt;Node1</title>
<path fill="none" stroke="#63b8ff" d="M100.88,-46.5C93.42,-37.5 84.55,-26.82 78.42,-19.44"/>
<polygon fill="#63b8ff" stroke="#63b8ff" points="98.65,-48.29 107.73,-53.75 104.04,-43.82 98.65,-48.29"/>
</g>
</g>
</svg>
