<?xml version="1.0" encoding="UTF-8" standalone="no"?>
<!DOCTYPE svg PUBLIC "-//W3C//DTD SVG 1.1//EN"
 "http://www.w3.org/Graphics/SVG/1.1/DTD/svg11.dtd">
<!-- Generated by graphviz version 7.1.0 (20230121.1956)
 -->
<!-- Title: validateRequest Pages: 1 -->
<svg width="252pt" height="397pt"
 viewBox="0.00 0.00 252.00 397.00" xmlns="http://www.w3.org/2000/svg" xmlns:xlink="http://www.w3.org/1999/xlink">
<g id="graph0" class="graph" transform="scale(1 1) rotate(0) translate(4 393)">
<title>validateRequest</title>
<!-- Node1 -->
<g id="node1" class="node">
<title>Node1</title>
<g id="a_node1"><a xlink:title="Validates a request.">
<polygon fill="#999999" stroke="#666666" points="87,-204 0,-204 0,-185 87,-185 87,-204"/>
<text text-anchor="middle" x="43.5" y="-192" font-family="Helvetica,sans-Serif" font-size="10.00">validateRequest</text>
</a>
</g>
</g>
<!-- Node2 -->
<g id="node2" class="node">
<title>Node2</title>
<g id="a_node2"><a xlink:href="class_o_c_a_1_1_c_a_f_e_v_d_b_1_1_legacy_1_1_calendar_1_1_o_c___calendar___object.html#a44b842856709cf300e76a7e0a478a5ef" target="_top" xlink:title="Validates time.">
<polygon fill="white" stroke="#666666" points="216,-389 151,-389 151,-370 216,-370 216,-389"/>
<text text-anchor="middle" x="183.5" y="-377" font-family="Helvetica,sans-Serif" font-size="10.00">checkTime</text>
</a>
</g>
</g>
<!-- Node1&#45;&gt;Node2 -->
<g id="edge1" class="edge">
<title>Node1&#45;&gt;Node2</title>
<path fill="none" stroke="#63b8ff" d="M46.26,-204.48C51.88,-233.32 72.09,-317.52 123,-361.5 127.97,-365.79 133.94,-369.06 140.15,-371.55"/>
<polygon fill="#63b8ff" stroke="#63b8ff" points="138.68,-374.75 149.27,-374.57 140.88,-368.11 138.68,-374.75"/>
</g>
<!-- Node3 -->
<g id="node3" class="node">
<title>Node3</title>
<g id="a_node3"><a xlink:href="class_o_c_a_1_1_c_a_f_e_v_d_b_1_1_legacy_1_1_calendar_1_1_o_c___calendar___object.html#a094045923cf7cb3e8fd5d1dc50c69da2" target="_top" xlink:title="Returns the options for an yearly or monthly repeating event which occurs on specific days of the mon...">
<polygon fill="white" stroke="#666666" points="244,-352 123,-352 123,-333 244,-333 244,-352"/>
<text text-anchor="middle" x="183.5" y="-340" font-family="Helvetica,sans-Serif" font-size="10.00">getByMonthDayOptions</text>
</a>
</g>
</g>
<!-- Node1&#45;&gt;Node3 -->
<g id="edge2" class="edge">
<title>Node1&#45;&gt;Node3</title>
<path fill="none" stroke="#63b8ff" d="M47.64,-204.33C55.9,-228.54 80.53,-291.5 123,-324.5 124.3,-325.51 125.67,-326.47 127.07,-327.37"/>
<polygon fill="#63b8ff" stroke="#63b8ff" points="125.09,-330.28 135.56,-331.88 128.37,-324.1 125.09,-330.28"/>
</g>
<!-- Node4 -->
<g id="node4" class="node">
<title>Node4</title>
<g id="a_node4"><a xlink:href="class_o_c_a_1_1_c_a_f_e_v_d_b_1_1_legacy_1_1_calendar_1_1_o_c___calendar___object.html#abeb36349d137f59529296be433ce51b4" target="_top" xlink:title="Returns the options for an yearly repeating event which occurs on specific month of the year.">
<polygon fill="white" stroke="#666666" points="235,-315 132,-315 132,-296 235,-296 235,-315"/>
<text text-anchor="middle" x="183.5" y="-303" font-family="Helvetica,sans-Serif" font-size="10.00">getByMonthOptions</text>
</a>
</g>
</g>
<!-- Node1&#45;&gt;Node4 -->
<g id="edge3" class="edge">
<title>Node1&#45;&gt;Node4</title>
<path fill="none" stroke="#63b8ff" d="M50.06,-204.26C61.33,-223.18 88.75,-264.98 123,-287.5 124.83,-288.7 126.74,-289.82 128.7,-290.88"/>
<polygon fill="#63b8ff" stroke="#63b8ff" points="126.99,-293.94 137.54,-294.92 129.9,-287.58 126.99,-293.94"/>
</g>
<!-- Node5 -->
<g id="node5" class="node">
<title>Node5</title>
<g id="a_node5"><a xlink:href="class_o_c_a_1_1_c_a_f_e_v_d_b_1_1_legacy_1_1_calendar_1_1_o_c___calendar___object.html#aca5683e00949b587cf8487c26b7bb8bf" target="_top" xlink:title="Returns the options for an yearly repeating event which occurs on specific week numbers of the year.">
<polygon fill="white" stroke="#666666" points="240,-278 127,-278 127,-259 240,-259 240,-278"/>
<text text-anchor="middle" x="183.5" y="-266" font-family="Helvetica,sans-Serif" font-size="10.00">getByWeekNoOptions</text>
</a>
</g>
</g>
<!-- Node1&#45;&gt;Node5 -->
<g id="edge4" class="edge">
<title>Node1&#45;&gt;Node5</title>
<path fill="none" stroke="#63b8ff" d="M55.71,-204.32C70.3,-216.64 97.01,-237.73 123,-250.5 126.05,-252 129.25,-253.4 132.52,-254.71"/>
<polygon fill="#63b8ff" stroke="#63b8ff" points="131.06,-257.9 141.65,-258.04 133.46,-251.33 131.06,-257.9"/>
</g>
<!-- Node6 -->
<g id="node6" class="node">
<title>Node6</title>
<g id="a_node6"><a xlink:href="class_o_c_a_1_1_c_a_f_e_v_d_b_1_1_legacy_1_1_calendar_1_1_o_c___calendar___object.html#a3a007ad74bf94bef859f892f815657f3" target="_top" xlink:title="Returns the options for an yearly repeating event which occurs on specific days of the year.">
<polygon fill="white" stroke="#666666" points="240,-241 127,-241 127,-222 240,-222 240,-241"/>
<text text-anchor="middle" x="183.5" y="-229" font-family="Helvetica,sans-Serif" font-size="10.00">getByYearDayOptions</text>
</a>
</g>
</g>
<!-- Node1&#45;&gt;Node6 -->
<g id="edge5" class="edge">
<title>Node1&#45;&gt;Node6</title>
<path fill="none" stroke="#63b8ff" d="M81.48,-204.42C97.72,-208.77 117.01,-213.94 134.35,-218.59"/>
<polygon fill="#63b8ff" stroke="#63b8ff" points="133.39,-221.96 143.95,-221.17 135.2,-215.19 133.39,-221.96"/>
</g>
<!-- Node7 -->
<g id="node7" class="node">
<title>Node7</title>
<g id="a_node7"><a xlink:href="class_o_c_a_1_1_c_a_f_e_v_d_b_1_1_legacy_1_1_calendar_1_1_o_c___calendar___object.html#a3f2dd94aad895517725aaca7fdf87145" target="_top" xlink:title="Returns the options for the end of an repeating event.">
<polygon fill="white" stroke="#666666" points="224,-204 143,-204 143,-185 224,-185 224,-204"/>
<text text-anchor="middle" x="183.5" y="-192" font-family="Helvetica,sans-Serif" font-size="10.00">getEndOptions</text>
</a>
</g>
</g>
<!-- Node1&#45;&gt;Node7 -->
<g id="edge6" class="edge">
<title>Node1&#45;&gt;Node7</title>
<path fill="none" stroke="#63b8ff" d="M87.41,-194.5C101.39,-194.5 117.05,-194.5 131.57,-194.5"/>
<polygon fill="#63b8ff" stroke="#63b8ff" points="131.4,-198 141.39,-194.5 131.39,-191 131.4,-198"/>
</g>
<!-- Node8 -->
<g id="node8" class="node">
<title>Node8</title>
<g id="a_node8"><a xlink:href="class_o_c_a_1_1_c_a_f_e_v_d_b_1_1_legacy_1_1_calendar_1_1_o_c___calendar___object.html#a71290b70247215567d98c13c83b49139" target="_top" xlink:title="Returns the options for an monthly repeating event.">
<polygon fill="white" stroke="#666666" points="229,-167 138,-167 138,-148 229,-148 229,-167"/>
<text text-anchor="middle" x="183.5" y="-155" font-family="Helvetica,sans-Serif" font-size="10.00">getMonthOptions</text>
</a>
</g>
</g>
<!-- Node1&#45;&gt;Node8 -->
<g id="edge7" class="edge">
<title>Node1&#45;&gt;Node8</title>
<path fill="none" stroke="#63b8ff" d="M81.48,-184.58C97.72,-180.23 117.01,-175.06 134.35,-170.41"/>
<polygon fill="#63b8ff" stroke="#63b8ff" points="135.2,-173.81 143.95,-167.83 133.39,-167.04 135.2,-173.81"/>
</g>
<!-- Node9 -->
<g id="node9" class="node">
<title>Node9</title>
<g id="a_node9"><a xlink:href="class_o_c_a_1_1_c_a_f_e_v_d_b_1_1_legacy_1_1_calendar_1_1_o_c___calendar___object.html#a5a3a82140533ddc386e032d5f0c4bf8e" target="_top" xlink:title="Returns the options for the repeat rule of an repeating event.">
<polygon fill="white" stroke="#666666" points="231,-130 136,-130 136,-111 231,-111 231,-130"/>
<text text-anchor="middle" x="183.5" y="-118" font-family="Helvetica,sans-Serif" font-size="10.00">getRepeatOptions</text>
</a>
</g>
</g>
<!-- Node1&#45;&gt;Node9 -->
<g id="edge8" class="edge">
<title>Node1&#45;&gt;Node9</title>
<path fill="none" stroke="#63b8ff" d="M56.28,-184.52C71.04,-172.43 97.5,-152.14 123,-139.5 126.72,-137.66 130.65,-135.94 134.65,-134.36"/>
<polygon fill="#63b8ff" stroke="#63b8ff" points="135.7,-137.7 143.89,-130.98 133.3,-131.13 135.7,-137.7"/>
</g>
<!-- Node10 -->
<g id="node10" class="node">
<title>Node10</title>
<g id="a_node10"><a xlink:href="class_o_c_a_1_1_c_a_f_e_v_d_b_1_1_legacy_1_1_calendar_1_1_o_c___calendar___object.html#ad515ca85336eabd9bab2062442e733f8" target="_top" xlink:title="Returns the options for an weekly repeating event.">
<polygon fill="white" stroke="#666666" points="231.5,-93 135.5,-93 135.5,-74 231.5,-74 231.5,-93"/>
<text text-anchor="middle" x="183.5" y="-81" font-family="Helvetica,sans-Serif" font-size="10.00">getWeeklyOptions</text>
</a>
</g>
</g>
<!-- Node1&#45;&gt;Node10 -->
<g id="edge9" class="edge">
<title>Node1&#45;&gt;Node10</title>
<path fill="none" stroke="#63b8ff" d="M50.29,-184.6C61.77,-165.83 89.25,-124.94 123,-102.5 125.41,-100.9 127.96,-99.42 130.61,-98.07"/>
<polygon fill="#63b8ff" stroke="#63b8ff" points="132.01,-101.27 139.73,-94.02 129.17,-94.88 132.01,-101.27"/>
</g>
<!-- Node11 -->
<g id="node11" class="node">
<title>Node11</title>
<g id="a_node11"><a xlink:href="class_o_c_a_1_1_c_a_f_e_v_d_b_1_1_legacy_1_1_calendar_1_1_o_c___calendar___object.html#acd57de0f923cdbffa3a5b76f50f626df" target="_top" xlink:title="Returns the options for an monthly repeating event which occurs on specific weeks of the month.">
<polygon fill="white" stroke="#666666" points="228.5,-56 138.5,-56 138.5,-37 228.5,-37 228.5,-56"/>
<text text-anchor="middle" x="183.5" y="-44" font-family="Helvetica,sans-Serif" font-size="10.00">getWeekofMonth</text>
</a>
</g>
</g>
<!-- Node1&#45;&gt;Node11 -->
<g id="edge10" class="edge">
<title>Node1&#45;&gt;Node11</title>
<path fill="none" stroke="#63b8ff" d="M47.7,-184.79C56.08,-160.85 80.97,-98.57 123,-65.5 124.76,-64.12 126.62,-62.83 128.55,-61.64"/>
<polygon fill="#63b8ff" stroke="#63b8ff" points="130.08,-64.79 137.38,-57.12 126.89,-58.57 130.08,-64.79"/>
</g>
<!-- Node12 -->
<g id="node12" class="node">
<title>Node12</title>
<g id="a_node12"><a xlink:href="class_o_c_a_1_1_c_a_f_e_v_d_b_1_1_legacy_1_1_calendar_1_1_o_c___calendar___object.html#a76d665a0a391a70de55effda22b6e5b1" target="_top" xlink:title="Eeturns the options for an yearly repeating event.">
<polygon fill="white" stroke="#666666" points="225,-19 142,-19 142,0 225,0 225,-19"/>
<text text-anchor="middle" x="183.5" y="-7" font-family="Helvetica,sans-Serif" font-size="10.00">getYearOptions</text>
</a>
</g>
</g>
<!-- Node1&#45;&gt;Node12 -->
<g id="edge11" class="edge">
<title>Node1&#45;&gt;Node12</title>
<path fill="none" stroke="#63b8ff" d="M46.31,-184.62C52.07,-156.05 72.63,-72.6 123,-28.5 125.61,-26.22 128.49,-24.21 131.54,-22.44"/>
<polygon fill="#63b8ff" stroke="#63b8ff" points="132.85,-25.7 140.36,-18.23 129.83,-19.38 132.85,-25.7"/>
</g>
</g>
</svg>
