<?xml version="1.0" encoding="UTF-8" standalone="no"?>
<!DOCTYPE svg PUBLIC "-//W3C//DTD SVG 1.1//EN"
 "http://www.w3.org/Graphics/SVG/1.1/DTD/svg11.dtd">
<!-- Generated by graphviz version 8.0.3 (20230416.2022)
 -->
<!-- Title: updateUserSqlViews Pages: 1 -->
<svg width="287pt" height="64pt"
 viewBox="0.00 0.00 287.00 64.00" xmlns="http://www.w3.org/2000/svg" xmlns:xlink="http://www.w3.org/1999/xlink">
<g id="graph0" class="graph" transform="scale(1 1) rotate(0) translate(4 60)">
<title>updateUserSqlViews</title>
<!-- Node1 -->
<g id="node1" class="node">
<title>Node1</title>
<g id="a_node1"><a xlink:title="Update the views interacting with the Nextcloud user_sql backend and update their grants.">
<polygon fill="#999999" stroke="#666666" points="108,-37 0,-37 0,-18 108,-18 108,-37"/>
<text text-anchor="middle" x="54" y="-25" font-family="Helvetica,sans-Serif" font-size="10.00">updateUserSqlViews</text>
</a>
</g>
</g>
<!-- Node2 -->
<g id="node2" class="node">
<title>Node2</title>
<g id="a_node2"><a xlink:href="class_o_c_a_1_1_c_a_f_e_v_d_b_1_1_service_1_1_cloud_user_connector_service.html#a671fba0b17a311cf25f00baf8fa06912" target="_top" xlink:title=" ">
<polygon fill="white" stroke="#666666" points="279,-56 144,-56 144,-37 279,-37 279,-56"/>
<text text-anchor="middle" x="211.5" y="-44" font-family="Helvetica,sans-Serif" font-size="10.00">checkAndGetCloudDbUser</text>
</a>
</g>
</g>
<!-- Node1&#45;&gt;Node2 -->
<g id="edge1" class="edge">
<title>Node1&#45;&gt;Node2</title>
<path fill="none" stroke="#63b8ff" d="M108.08,-33.99C116.12,-34.97 124.56,-36 132.99,-37.03"/>
<polygon fill="#63b8ff" stroke="#63b8ff" points="132.28,-40.59 142.64,-38.33 133.13,-33.64 132.28,-40.59"/>
</g>
<!-- Node3 -->
<g id="node3" class="node">
<title>Node3</title>
<g id="a_node3"><a xlink:href="class_o_c_a_1_1_c_a_f_e_v_d_b_1_1_service_1_1_cloud_user_connector_service.html#a8f6f0e60183992c01ae7acad097ac598" target="_top" xlink:title=" ">
<polygon fill="white" stroke="#666666" points="243,-19 180,-19 180,0 243,0 243,-19"/>
<text text-anchor="middle" x="211.5" y="-7" font-family="Helvetica,sans-Serif" font-size="10.00">viewName</text>
</a>
</g>
</g>
<!-- Node1&#45;&gt;Node3 -->
<g id="edge2" class="edge">
<title>Node1&#45;&gt;Node3</title>
<path fill="none" stroke="#63b8ff" d="M108.08,-21.36C127.99,-19.05 150.31,-16.47 169.02,-14.3"/>
<polygon fill="#63b8ff" stroke="#63b8ff" points="169.33,-17.67 178.86,-13.05 168.52,-10.72 169.33,-17.67"/>
</g>
</g>
</svg>
