<?xml version="1.0" encoding="UTF-8" standalone="no"?>
<!DOCTYPE svg PUBLIC "-//W3C//DTD SVG 1.1//EN"
 "http://www.w3.org/Graphics/SVG/1.1/DTD/svg11.dtd">
<!-- Generated by graphviz version 9.0.0 (20230911.1827)
 -->
<!-- Title: ProjectParticipantFieldDataOption Pages: 1 -->
<svg width="202pt" height="164pt"
 viewBox="0.00 0.00 202.38 164.00" xmlns="http://www.w3.org/2000/svg" xmlns:xlink="http://www.w3.org/1999/xlink">
<g id="graph0" class="graph" transform="scale(1 1) rotate(0) translate(4 160)">
<title>ProjectParticipantFieldDataOption</title>
<!-- Node1 -->
<g id="Node000001" class="node">
<title>Node1</title>
<g id="a_Node000001"><a xlink:title="DO NOT EDIT THIS FILE &#45; IT WAS CREATED BY DOCTRINE&#39;S PROXY GENERATOR.">
<polygon fill="#999999" stroke="#666666" points="188.25,-32 53,-32 53,0 188.25,0 188.25,-32"/>
<text text-anchor="start" x="61" y="-18.5" font-family="Helvetica,sans-Serif" font-size="10.00">ProjectParticipantFieldData</text>
<text text-anchor="middle" x="120.62" y="-6.5" font-family="Helvetica,sans-Serif" font-size="10.00">Option</text>
</a>
</g>
</g>
<!-- Node2 -->
<g id="Node000002" class="node">
<title>Node2</title>
<g id="a_Node000002"><a xlink:href="class_o_c_a_1_1_c_a_f_e_v_d_b_1_1_database_1_1_doctrine_1_1_o_r_m_1_1_entities_1_1_project_participant_field_data_option.html" target="_top" xlink:title="ProjectParticipantFieldsDataOptions.">
<polygon fill="white" stroke="#666666" points="135.25,-100 0,-100 0,-68 135.25,-68 135.25,-100"/>
<text text-anchor="start" x="8" y="-86.5" font-family="Helvetica,sans-Serif" font-size="10.00">ProjectParticipantFieldData</text>
<text text-anchor="middle" x="67.62" y="-74.5" font-family="Helvetica,sans-Serif" font-size="10.00">Option</text>
</a>
</g>
</g>
<!-- Node2&#45;&gt;Node1 -->
<g id="edge1_Node000001_Node000002" class="edge">
<title>Node2&#45;&gt;Node1</title>
<g id="a_edge1_Node000001_Node000002"><a xlink:title=" ">
<path fill="none" stroke="#63b8ff" d="M87,-58.87C94.16,-49.96 102.06,-40.12 108.4,-32.22"/>
<polygon fill="#63b8ff" stroke="#63b8ff" points="84.4,-56.52 80.87,-66.51 89.86,-60.91 84.4,-56.52"/>
</a>
</g>
</g>
<!-- Node3 -->
<g id="Node000003" class="node">
<title>Node3</title>
<g id="a_Node000003"><a xlink:title=" ">
<polygon fill="white" stroke="#bfbfbf" points="103.75,-156 31.5,-156 31.5,-136 103.75,-136 103.75,-156"/>
<text text-anchor="middle" x="67.62" y="-142.5" font-family="Helvetica,sans-Serif" font-size="10.00">ArrayAccess</text>
</a>
</g>
</g>
<!-- Node3&#45;&gt;Node2 -->
<g id="edge2_Node000002_Node000003" class="edge">
<title>Node3&#45;&gt;Node2</title>
<g id="a_edge2_Node000002_Node000003"><a xlink:title=" ">
<path fill="none" stroke="#63b8ff" d="M67.62,-124.31C67.62,-116.37 67.62,-107.46 67.62,-100.14"/>
<polygon fill="#63b8ff" stroke="#63b8ff" points="64.13,-124.11 67.63,-134.11 71.13,-124.11 64.13,-124.11"/>
</a>
</g>
</g>
<!-- Node4 -->
<g id="Node000004" class="node">
<title>Node4</title>
<g id="a_Node000004"><a xlink:title=" ">
<polygon fill="white" stroke="#bfbfbf" points="194.38,-94 152.88,-94 152.88,-74 194.38,-74 194.38,-94"/>
<text text-anchor="middle" x="173.62" y="-80.5" font-family="Helvetica,sans-Serif" font-size="10.00">Proxy</text>
</a>
</g>
</g>
<!-- Node4&#45;&gt;Node1 -->
<g id="edge3_Node000001_Node000004" class="edge">
<title>Node4&#45;&gt;Node1</title>
<g id="a_edge3_Node000001_Node000004"><a xlink:title=" ">
<path fill="none" stroke="#63b8ff" d="M158.9,-64.67C150.72,-54.48 140.67,-41.96 132.91,-32.3"/>
<polygon fill="#63b8ff" stroke="#63b8ff" points="156.09,-66.76 165.08,-72.36 161.55,-62.38 156.09,-66.76"/>
</a>
</g>
</g>
</g>
</svg>
