<?xml version="1.0" encoding="UTF-8" standalone="no"?>
<!DOCTYPE svg PUBLIC "-//W3C//DTD SVG 1.1//EN"
 "http://www.w3.org/Graphics/SVG/1.1/DTD/svg11.dtd">
<!-- Generated by graphviz version 7.1.0 (20230121.1956)
 -->
<!-- Title: getVCategories Pages: 1 -->
<svg width="237pt" height="64pt"
 viewBox="0.00 0.00 237.00 64.00" xmlns="http://www.w3.org/2000/svg" xmlns:xlink="http://www.w3.org/1999/xlink">
<g id="graph0" class="graph" transform="scale(1 1) rotate(0) translate(4 60)">
<title>getVCategories</title>
<!-- Node1 -->
<g id="node1" class="node">
<title>Node1</title>
<g id="a_node1"><a xlink:title="returns the vcategories object of the user">
<polygon fill="#999999" stroke="#666666" points="84,-37 0,-37 0,-18 84,-18 84,-37"/>
<text text-anchor="middle" x="42" y="-25" font-family="Helvetica,sans-Serif" font-size="10.00">getVCategories</text>
</a>
</g>
</g>
<!-- Node2 -->
<g id="node2" class="node">
<title>Node2</title>
<g id="a_node2"><a xlink:href="class_o_c_a_1_1_c_a_f_e_v_d_b_1_1_legacy_1_1_calendar_1_1_o_c___calendar___app.html#aeb8ce2eb142ff02f9202bea87d5fd42c" target="_top" xlink:title="returns the default categories of ownCloud">
<polygon fill="white" stroke="#666666" points="229,-56 120,-56 120,-37 229,-37 229,-56"/>
<text text-anchor="middle" x="174.5" y="-44" font-family="Helvetica,sans-Serif" font-size="10.00">getDefaultCategories</text>
</a>
</g>
</g>
<!-- Node1&#45;&gt;Node2 -->
<g id="edge1" class="edge">
<title>Node1&#45;&gt;Node2</title>
<path fill="none" stroke="#63b8ff" d="M84.29,-33.51C91.99,-34.63 100.21,-35.83 108.42,-37.03"/>
<polygon fill="#63b8ff" stroke="#63b8ff" points="107.68,-40.45 118.08,-38.43 108.68,-33.53 107.68,-40.45"/>
</g>
<!-- Node3 -->
<g id="node3" class="node">
<title>Node3</title>
<g id="a_node3"><a xlink:href="class_o_c_a_1_1_c_a_f_e_v_d_b_1_1_legacy_1_1_calendar_1_1_o_c___calendar___app.html#ad078676a127692237148a2c8a569b420" target="_top" xlink:title="Scan events for categories.">
<polygon fill="white" stroke="#666666" points="217,-19 132,-19 132,0 217,0 217,-19"/>
<text text-anchor="middle" x="174.5" y="-7" font-family="Helvetica,sans-Serif" font-size="10.00">scanCategories</text>
</a>
</g>
</g>
<!-- Node1&#45;&gt;Node3 -->
<g id="edge2" class="edge">
<title>Node1&#45;&gt;Node3</title>
<path fill="none" stroke="#63b8ff" d="M84.29,-21.8C95.72,-20.23 108.29,-18.49 120.3,-16.84"/>
<polygon fill="#63b8ff" stroke="#63b8ff" points="120.65,-20.32 130.08,-15.49 119.7,-13.39 120.65,-20.32"/>
</g>
</g>
</svg>
