<?xml version="1.0" encoding="UTF-8" standalone="no"?>
<!DOCTYPE svg PUBLIC "-//W3C//DTD SVG 1.1//EN"
 "http://www.w3.org/Graphics/SVG/1.1/DTD/svg11.dtd">
<!-- Generated by graphviz version 7.1.0 (20230121.1956)
 -->
<!-- Title: AbstractProgressStatus Pages: 1 -->
<svg width="424pt" height="137pt"
 viewBox="0.00 0.00 424.00 137.00" xmlns="http://www.w3.org/2000/svg" xmlns:xlink="http://www.w3.org/1999/xlink">
<g id="graph0" class="graph" transform="scale(1 1) rotate(0) translate(4 133)">
<title>AbstractProgressStatus</title>
<!-- Node1 -->
<g id="node1" class="node">
<title>Node1</title>
<g id="a_node1"><a xlink:title="Simplistic progress&#45;status interface.">
<polygon fill="#999999" stroke="#666666" points="270.5,-74 149.5,-74 149.5,-55 270.5,-55 270.5,-74"/>
<text text-anchor="middle" x="210" y="-62" font-family="Helvetica,sans-Serif" font-size="10.00">AbstractProgressStatus</text>
</a>
</g>
</g>
<!-- Node3 -->
<g id="node3" class="node">
<title>Node3</title>
<g id="a_node3"><a xlink:href="class_o_c_a_1_1_c_a_f_e_v_d_b_1_1_common_1_1_database_progress_status.html" target="_top" xlink:title="Progress&#45;status via database table.">
<polygon fill="white" stroke="#666666" points="126,-19 0,-19 0,0 126,0 126,-19"/>
<text text-anchor="middle" x="63" y="-7" font-family="Helvetica,sans-Serif" font-size="10.00">DatabaseProgressStatus</text>
</a>
</g>
</g>
<!-- Node1&#45;&gt;Node3 -->
<g id="edge2" class="edge">
<title>Node1&#45;&gt;Node3</title>
<path fill="none" stroke="#63b8ff" d="M174.53,-50.71C147.63,-41.01 111.34,-27.93 87.57,-19.36"/>
<polygon fill="#63b8ff" stroke="#63b8ff" points="173.05,-53.9 183.64,-54 175.42,-47.31 173.05,-53.9"/>
</g>
<!-- Node4 -->
<g id="node4" class="node">
<title>Node4</title>
<g id="a_node4"><a xlink:href="class_o_c_a_1_1_c_a_f_e_v_d_b_1_1_common_1_1_do_nothing_progress_status.html" target="_top" xlink:title="Dummy implementation doing nothing.">
<polygon fill="white" stroke="#666666" points="275.5,-19 144.5,-19 144.5,0 275.5,0 275.5,-19"/>
<text text-anchor="middle" x="210" y="-7" font-family="Helvetica,sans-Serif" font-size="10.00">DoNothingProgressStatus</text>
</a>
</g>
</g>
<!-- Node1&#45;&gt;Node4 -->
<g id="edge3" class="edge">
<title>Node1&#45;&gt;Node4</title>
<path fill="none" stroke="#63b8ff" d="M210,-43.35C210,-35.1 210,-25.97 210,-19.44"/>
<polygon fill="#63b8ff" stroke="#63b8ff" points="206.5,-43.23 210,-53.23 213.5,-43.23 206.5,-43.23"/>
</g>
<!-- Node5 -->
<g id="node5" class="node">
<title>Node5</title>
<g id="a_node5"><a xlink:href="class_o_c_a_1_1_c_a_f_e_v_d_b_1_1_common_1_1_plain_file_progress_status.html" target="_top" xlink:title="Progress status with a plain local file as storage.">
<polygon fill="white" stroke="#666666" points="416,-19 294,-19 294,0 416,0 416,-19"/>
<text text-anchor="middle" x="355" y="-7" font-family="Helvetica,sans-Serif" font-size="10.00">PlainFileProgressStatus</text>
</a>
</g>
</g>
<!-- Node1&#45;&gt;Node5 -->
<g id="edge4" class="edge">
<title>Node1&#45;&gt;Node5</title>
<path fill="none" stroke="#63b8ff" d="M245.34,-50.58C271.84,-40.9 307.42,-27.89 330.77,-19.36"/>
<polygon fill="#63b8ff" stroke="#63b8ff" points="244.21,-47.27 236.02,-53.99 246.61,-53.84 244.21,-47.27"/>
</g>
<!-- Node2 -->
<g id="node2" class="node">
<title>Node2</title>
<g id="a_node2"><a xlink:href="interface_o_c_a_1_1_c_a_f_e_v_d_b_1_1_common_1_1_i_progress_status.html" target="_top" xlink:title="Simplistic progress&#45;status interface.">
<polygon fill="white" stroke="#666666" points="253.5,-129 166.5,-129 166.5,-110 253.5,-110 253.5,-129"/>
<text text-anchor="middle" x="210" y="-117" font-family="Helvetica,sans-Serif" font-size="10.00">IProgressStatus</text>
</a>
</g>
</g>
<!-- Node2&#45;&gt;Node1 -->
<g id="edge1" class="edge">
<title>Node2&#45;&gt;Node1</title>
<path fill="none" stroke="#63b8ff" d="M210,-98.35C210,-90.1 210,-80.97 210,-74.44"/>
<polygon fill="#63b8ff" stroke="#63b8ff" points="206.5,-98.23 210,-108.23 213.5,-98.23 206.5,-98.23"/>
</g>
</g>
</svg>
