<?xml version="1.0" encoding="UTF-8" standalone="no"?>
<!DOCTYPE svg PUBLIC "-//W3C//DTD SVG 1.1//EN"
 "http://www.w3.org/Graphics/SVG/1.1/DTD/svg11.dtd">
<!-- Generated by graphviz version 9.0.0 (20230911.1827)
 -->
<!-- Title: render Pages: 1 -->
<svg width="930pt" height="282pt"
 viewBox="0.00 0.00 930.25 282.00" xmlns="http://www.w3.org/2000/svg" xmlns:xlink="http://www.w3.org/1999/xlink">
<g id="graph0" class="graph" transform="scale(1 1) rotate(0) translate(4 278)">
<title>render</title>
<!-- Node1 -->
<g id="Node000001" class="node">
<title>Node1</title>
<g id="a_Node000001"><a xlink:title="{Show the underlying template page.This is supposed to echo html code to stdout. This is the default ...">
<polygon fill="#999999" stroke="#666666" points="43,-141 0,-141 0,-121 43,-121 43,-141"/>
<text text-anchor="middle" x="21.5" y="-127.5" font-family="Helvetica,sans-Serif" font-size="10.00">render</text>
</a>
</g>
</g>
<!-- Node2 -->
<g id="Node000002" class="node">
<title>Node2</title>
<g id="a_Node000002"><a xlink:href="class_o_c_a_1_1_c_a_f_e_v_d_b_1_1_common_1_1_util.html#a3ad8a4109147715b8c5573d1dbdb2d3d" target="_top" xlink:title="Merge $arrays recursively where later arguments in the list override the values of previous arguments...">
<polygon fill="white" stroke="#666666" points="506.62,-256 375.12,-256 375.12,-224 506.62,-224 506.62,-256"/>
<text text-anchor="start" x="383.12" y="-242.5" font-family="Helvetica,sans-Serif" font-size="10.00">OCA\CAFEVDB\Common</text>
<text text-anchor="middle" x="440.88" y="-230.5" font-family="Helvetica,sans-Serif" font-size="10.00">\Util\arrayMergeRecursive</text>
</a>
</g>
</g>
<!-- Node1&#45;&gt;Node2 -->
<g id="edge1_Node000001_Node000002" class="edge">
<title>Node1&#45;&gt;Node2</title>
<g id="a_edge1_Node000001_Node000002"><a xlink:title=" ">
<path fill="none" stroke="#63b8ff" d="M26.76,-141.31C34.4,-158.34 52.19,-191.95 79,-207 167.25,-256.52 287.06,-256.84 363.93,-250.24"/>
<polygon fill="#63b8ff" stroke="#63b8ff" points="363.81,-253.76 373.45,-249.36 363.17,-246.79 363.81,-253.76"/>
</a>
</g>
</g>
<!-- Node4 -->
<g id="Node000004" class="node">
<title>Node4</title>
<g id="a_Node000004"><a xlink:href="class_o_c_a_1_1_c_a_f_e_v_d_b_1_1_page_renderer_1_1_p_m_e_table_view_base.html#a61a318b7b87e25880772a49534c096ff" target="_top" xlink:title="Define a basic join&#45;structure for phpMyEdit by using the information from self::$joinStructure.">
<polygon fill="white" stroke="#666666" points="290.38,-198 95.12,-198 95.12,-166 290.38,-166 290.38,-198"/>
<text text-anchor="start" x="103.12" y="-184.5" font-family="Helvetica,sans-Serif" font-size="10.00">OCA\CAFEVDB\PageRenderer</text>
<text text-anchor="middle" x="192.75" y="-172.5" font-family="Helvetica,sans-Serif" font-size="10.00">\PMETableViewBase\defineJoinStructure</text>
</a>
</g>
</g>
<!-- Node1&#45;&gt;Node4 -->
<g id="edge4_Node000001_Node000004" class="edge">
<title>Node1&#45;&gt;Node4</title>
<g id="a_edge4_Node000001_Node000004"><a xlink:title=" ">
<path fill="none" stroke="#63b8ff" d="M43.32,-141.35C53.83,-146.28 66.89,-151.97 79,-156 86.04,-158.35 93.4,-160.56 100.84,-162.62"/>
<polygon fill="#63b8ff" stroke="#63b8ff" points="99.74,-165.95 110.3,-165.15 101.54,-159.19 99.74,-165.95"/>
</a>
</g>
</g>
<!-- Node6 -->
<g id="Node000006" class="node">
<title>Node6</title>
<g id="a_Node000006"><a xlink:href="class_o_c_a_1_1_c_a_f_e_v_d_b_1_1_page_renderer_1_1_p_m_e_table_view_base.html#abe18704ee0189ac55323c93db488770c" target="_top" xlink:title="The name of the field&#45;descriptor for a join&#45;table field referencing a master&#45;join&#45;table.">
<polygon fill="white" stroke="#666666" points="539.25,-94 342.5,-94 342.5,-62 539.25,-62 539.25,-94"/>
<text text-anchor="start" x="350.5" y="-80.5" font-family="Helvetica,sans-Serif" font-size="10.00">OCA\CAFEVDB\PageRenderer</text>
<text text-anchor="middle" x="440.88" y="-68.5" font-family="Helvetica,sans-Serif" font-size="10.00">\PMETableViewBase\joinTableFieldName</text>
</a>
</g>
</g>
<!-- Node1&#45;&gt;Node6 -->
<g id="edge6_Node000001_Node000006" class="edge">
<title>Node1&#45;&gt;Node6</title>
<g id="a_edge6_Node000001_Node000006"><a xlink:title=" ">
<path fill="none" stroke="#63b8ff" d="M41.79,-120.51C52.44,-115.22 66.1,-109.25 79,-106 161.85,-85.11 258.5,-78.51 330.92,-76.92"/>
<polygon fill="#63b8ff" stroke="#63b8ff" points="330.88,-80.42 340.81,-76.73 330.75,-73.42 330.88,-80.42"/>
</a>
</g>
</g>
<!-- Node7 -->
<g id="Node000007" class="node">
<title>Node7</title>
<g id="a_Node000007"><a xlink:href="class_o_c_a_1_1_c_a_f_e_v_d_b_1_1_page_renderer_1_1_p_m_e_table_view_base.html#a1f1e3a7628fefdebfcff97c388d72bb1" target="_top" xlink:title="Join with an in&#45;database translation table.">
<polygon fill="white" stroke="#666666" points="306.5,-47 79,-47 79,-15 306.5,-15 306.5,-47"/>
<text text-anchor="start" x="87" y="-33.5" font-family="Helvetica,sans-Serif" font-size="10.00">OCA\CAFEVDB\PageRenderer</text>
<text text-anchor="middle" x="192.75" y="-21.5" font-family="Helvetica,sans-Serif" font-size="10.00">\PMETableViewBase\makeFieldTranslationsJoin</text>
</a>
</g>
</g>
<!-- Node1&#45;&gt;Node7 -->
<g id="edge7_Node000001_Node000007" class="edge">
<title>Node1&#45;&gt;Node7</title>
<g id="a_edge7_Node000001_Node000007"><a xlink:title=" ">
<path fill="none" stroke="#63b8ff" d="M29.37,-120.92C39,-107.51 57.73,-83.89 79,-70 90.25,-62.66 103.03,-56.53 115.85,-51.48"/>
<polygon fill="#63b8ff" stroke="#63b8ff" points="117.02,-54.78 125.17,-48.01 114.58,-48.22 117.02,-54.78"/>
</a>
</g>
</g>
<!-- Node9 -->
<g id="Node000009" class="node">
<title>Node9</title>
<g id="a_Node000009"><a xlink:href="class_o_c_a_1_1_c_a_f_e_v_d_b_1_1_page_renderer_1_1_p_m_e_table_view_base.html#a4bc3294be95e06a40ae3bdc7d5419749" target="_top" xlink:title="Generate a join&#45;table field, given join&#45;table and field name.">
<polygon fill="white" stroke="#666666" points="291.5,-147 94,-147 94,-115 291.5,-115 291.5,-147"/>
<text text-anchor="start" x="102" y="-133.5" font-family="Helvetica,sans-Serif" font-size="10.00">OCA\CAFEVDB\PageRenderer</text>
<text text-anchor="middle" x="192.75" y="-121.5" font-family="Helvetica,sans-Serif" font-size="10.00">\PMETableViewBase\makeJoinTableField</text>
</a>
</g>
</g>
<!-- Node1&#45;&gt;Node9 -->
<g id="edge9_Node000001_Node000009" class="edge">
<title>Node1&#45;&gt;Node9</title>
<g id="a_edge9_Node000001_Node000009"><a xlink:title=" ">
<path fill="none" stroke="#63b8ff" d="M43.25,-131C53.91,-131 67.79,-131 82.79,-131"/>
<polygon fill="#63b8ff" stroke="#63b8ff" points="82.37,-134.5 92.37,-131 82.37,-127.5 82.37,-134.5"/>
</a>
</g>
</g>
<!-- Node3 -->
<g id="Node000003" class="node">
<title>Node3</title>
<g id="a_Node000003"><a xlink:href="class_o_c_a_1_1_c_a_f_e_v_d_b_1_1_common_1_1_util.html#a9396752fa41df5ffcd301d52263367f9" target="_top" xlink:title="Inner work&#45;horse for arrayMergeRecursive.">
<polygon fill="white" stroke="#666666" points="727.75,-256 579.75,-256 579.75,-224 727.75,-224 727.75,-256"/>
<text text-anchor="start" x="587.75" y="-242.5" font-family="Helvetica,sans-Serif" font-size="10.00">OCA\CAFEVDB\Common</text>
<text text-anchor="middle" x="653.75" y="-230.5" font-family="Helvetica,sans-Serif" font-size="10.00">\Util\arrayMergeTwoRecursive</text>
</a>
</g>
</g>
<!-- Node2&#45;&gt;Node3 -->
<g id="edge2_Node000002_Node000003" class="edge">
<title>Node2&#45;&gt;Node3</title>
<g id="a_edge2_Node000002_Node000003"><a xlink:title=" ">
<path fill="none" stroke="#63b8ff" d="M506.87,-240C526.27,-240 547.82,-240 568.28,-240"/>
<polygon fill="#63b8ff" stroke="#63b8ff" points="567.99,-243.5 577.99,-240 567.99,-236.5 567.99,-243.5"/>
</a>
</g>
</g>
<!-- Node3&#45;&gt;Node3 -->
<g id="edge3_Node000003_Node000003" class="edge">
<title>Node3&#45;&gt;Node3</title>
<g id="a_edge3_Node000003_Node000003"><a xlink:title=" ">
<path fill="none" stroke="#63b8ff" d="M619.56,-256.44C613.18,-265.58 624.58,-274 653.75,-274 669.7,-274 680.34,-271.48 685.66,-267.71"/>
<polygon fill="#63b8ff" stroke="#63b8ff" points="689.09,-268.42 687.64,-257.93 682.23,-267.04 689.09,-268.42"/>
</a>
</g>
</g>
<!-- Node5 -->
<g id="Node000005" class="node">
<title>Node5</title>
<g id="a_Node000005"><a xlink:href="class_o_c_a_1_1_c_a_f_e_v_d_b_1_1_page_renderer_1_1_p_m_e_table_view_base.html#a67e29f07640bea5f1c3132bb88270a2b" target="_top" xlink:title="The name of the master join table field which triggers PME to actually do the join.">
<polygon fill="white" stroke="#666666" points="530.62,-206 351.12,-206 351.12,-162 530.62,-162 530.62,-206"/>
<text text-anchor="start" x="359.12" y="-192.5" font-family="Helvetica,sans-Serif" font-size="10.00">OCA\CAFEVDB\PageRenderer</text>
<text text-anchor="start" x="359.12" y="-180.5" font-family="Helvetica,sans-Serif" font-size="10.00">\PMETableViewBase\joinTableMaster</text>
<text text-anchor="middle" x="440.88" y="-168.5" font-family="Helvetica,sans-Serif" font-size="10.00">FieldName</text>
</a>
</g>
</g>
<!-- Node4&#45;&gt;Node5 -->
<g id="edge5_Node000004_Node000005" class="edge">
<title>Node4&#45;&gt;Node5</title>
<g id="a_edge5_Node000004_Node000005"><a xlink:title=" ">
<path fill="none" stroke="#63b8ff" d="M290.67,-182.79C306.74,-182.92 323.43,-183.05 339.58,-183.18"/>
<polygon fill="#63b8ff" stroke="#63b8ff" points="339.11,-186.68 349.14,-183.26 339.17,-179.68 339.11,-186.68"/>
</a>
</g>
</g>
<!-- Node8 -->
<g id="Node000008" class="node">
<title>Node8</title>
<g id="a_Node000008"><a xlink:href="class_o_c_a_1_1_c_a_f_e_v_d_b_1_1_page_renderer_1_1_p_m_e_table_view_base.html#a71f870e11d154559adae09425756b2b6" target="_top" xlink:title="We have this Nextcloud convention that de means &quot;German personal Du&quot; and de_DE means &quot;German formal S...">
<polygon fill="white" stroke="#666666" points="527.25,-44 354.5,-44 354.5,0 527.25,0 527.25,-44"/>
<text text-anchor="start" x="362.5" y="-30.5" font-family="Helvetica,sans-Serif" font-size="10.00">OCA\CAFEVDB\PageRenderer</text>
<text text-anchor="start" x="362.5" y="-18.5" font-family="Helvetica,sans-Serif" font-size="10.00">\PMETableViewBase\getTranslation</text>
<text text-anchor="middle" x="440.88" y="-6.5" font-family="Helvetica,sans-Serif" font-size="10.00">Language</text>
</a>
</g>
</g>
<!-- Node7&#45;&gt;Node8 -->
<g id="edge8_Node000007_Node000008" class="edge">
<title>Node7&#45;&gt;Node8</title>
<g id="a_edge8_Node000007_Node000008"><a xlink:title=" ">
<path fill="none" stroke="#63b8ff" d="M306.73,-26.87C318.79,-26.43 330.99,-25.98 342.85,-25.55"/>
<polygon fill="#63b8ff" stroke="#63b8ff" points="342.72,-29.06 352.59,-25.19 342.47,-22.06 342.72,-29.06"/>
</a>
</g>
</g>
<!-- Node9&#45;&gt;Node2 -->
<g id="edge14_Node000009_Node000002" class="edge">
<title>Node9&#45;&gt;Node2</title>
<g id="a_edge14_Node000009_Node000002"><a xlink:title=" ">
<path fill="none" stroke="#63b8ff" d="M289.93,-147.42C295.77,-150.15 301.35,-153.32 306.5,-157 331.18,-174.65 318.04,-197.04 342.5,-215 349.03,-219.79 356.39,-223.67 364.07,-226.81"/>
<polygon fill="#63b8ff" stroke="#63b8ff" points="362.67,-230.02 373.26,-230.12 365.04,-223.44 362.67,-230.02"/>
</a>
</g>
</g>
<!-- Node9&#45;&gt;Node5 -->
<g id="edge16_Node000009_Node000005" class="edge">
<title>Node9&#45;&gt;Node5</title>
<g id="a_edge16_Node000009_Node000005"><a xlink:title=" ">
<path fill="none" stroke="#63b8ff" d="M270.28,-147.48C292.33,-152.23 316.71,-157.48 339.96,-162.48"/>
<polygon fill="#63b8ff" stroke="#63b8ff" points="338.91,-165.84 349.42,-164.52 340.38,-159 338.91,-165.84"/>
</a>
</g>
</g>
<!-- Node9&#45;&gt;Node6 -->
<g id="edge15_Node000009_Node000006" class="edge">
<title>Node9&#45;&gt;Node6</title>
<g id="a_edge15_Node000009_Node000006"><a xlink:title=" ">
<path fill="none" stroke="#63b8ff" d="M270.28,-114.52C296.32,-108.91 325.63,-102.6 352.46,-96.82"/>
<polygon fill="#63b8ff" stroke="#63b8ff" points="352.88,-100.31 361.92,-94.79 351.4,-93.47 352.88,-100.31"/>
</a>
</g>
</g>
<!-- Node10 -->
<g id="Node000010" class="node">
<title>Node10</title>
<g id="a_Node000010"><a xlink:href="class_o_c_a_1_1_c_a_f_e_v_d_b_1_1_page_renderer_1_1_p_m_e_table_view_base.html#a8a9d6dd0754451d7214ed760a2179bd4" target="_top" xlink:title="Add a &quot;slug&quot; as tooltips&#45;index and css&#45;class.">
<polygon fill="white" stroke="#666666" points="517.88,-144 363.88,-144 363.88,-112 517.88,-112 517.88,-144"/>
<text text-anchor="start" x="371.88" y="-130.5" font-family="Helvetica,sans-Serif" font-size="10.00">OCA\CAFEVDB\PageRenderer</text>
<text text-anchor="middle" x="440.88" y="-118.5" font-family="Helvetica,sans-Serif" font-size="10.00">\PMETableViewBase\addSlug</text>
</a>
</g>
</g>
<!-- Node9&#45;&gt;Node10 -->
<g id="edge10_Node000009_Node000010" class="edge">
<title>Node9&#45;&gt;Node10</title>
<g id="a_edge10_Node000009_Node000010"><a xlink:title=" ">
<path fill="none" stroke="#63b8ff" d="M291.73,-129.81C311.68,-129.56 332.54,-129.31 352.11,-129.07"/>
<polygon fill="#63b8ff" stroke="#63b8ff" points="351.99,-132.57 361.95,-128.95 351.91,-125.57 351.99,-132.57"/>
</a>
</g>
</g>
<!-- Node11 -->
<g id="Node000011" class="node">
<title>Node11</title>
<g id="a_Node000011"><a xlink:href="class_o_c_a_1_1_c_a_f_e_v_d_b_1_1_page_renderer_1_1_p_m_e_table_view_base.html#aee57cb8d60602879f6a65e257cdcbf63" target="_top" xlink:title=" ">
<polygon fill="white" stroke="#666666" points="922.25,-144 768.25,-144 768.25,-112 922.25,-112 922.25,-144"/>
<text text-anchor="start" x="776.25" y="-130.5" font-family="Helvetica,sans-Serif" font-size="10.00">OCA\CAFEVDB\PageRenderer</text>
<text text-anchor="middle" x="845.25" y="-118.5" font-family="Helvetica,sans-Serif" font-size="10.00">\PMETableViewBase\cssClass</text>
</a>
</g>
</g>
<!-- Node10&#45;&gt;Node11 -->
<g id="edge11_Node000010_Node000011" class="edge">
<title>Node10&#45;&gt;Node11</title>
<g id="a_edge11_Node000010_Node000011"><a xlink:title=" ">
<path fill="none" stroke="#63b8ff" d="M518.04,-130.01C536.75,-130.42 556.72,-130.79 575.25,-131 645.02,-131.78 662.48,-131.93 732.25,-131 740.21,-130.89 748.48,-130.74 756.77,-130.57"/>
<polygon fill="#63b8ff" stroke="#63b8ff" points="756.61,-134.07 766.53,-130.35 756.45,-127.08 756.61,-134.07"/>
</a>
</g>
</g>
<!-- Node12 -->
<g id="Node000012" class="node">
<title>Node12</title>
<g id="a_Node000012"><a xlink:href="class_o_c_a_1_1_c_a_f_e_v_d_b_1_1_page_renderer_1_1_p_m_e_table_view_base.html#a166d2dbd24c4913a9461c5813bbb4232" target="_top" xlink:title="Generate a &quot;unified&quot; tooltip&#45;slug in order to obtain tool&#45;tips from the ToolTipsService.">
<polygon fill="white" stroke="#666666" points="732.25,-122 575.25,-122 575.25,-90 732.25,-90 732.25,-122"/>
<text text-anchor="start" x="583.25" y="-108.5" font-family="Helvetica,sans-Serif" font-size="10.00">OCA\CAFEVDB\PageRenderer</text>
<text text-anchor="middle" x="653.75" y="-96.5" font-family="Helvetica,sans-Serif" font-size="10.00">\PMETableViewBase\tooltipSlug</text>
</a>
</g>
</g>
<!-- Node10&#45;&gt;Node12 -->
<g id="edge12_Node000010_Node000012" class="edge">
<title>Node10&#45;&gt;Node12</title>
<g id="a_edge12_Node000010_Node000012"><a xlink:title=" ">
<path fill="none" stroke="#63b8ff" d="M518.3,-120.03C532.96,-118.5 548.42,-116.88 563.44,-115.32"/>
<polygon fill="#63b8ff" stroke="#63b8ff" points="563.72,-118.81 573.31,-114.29 563,-111.84 563.72,-118.81"/>
</a>
</g>
</g>
<!-- Node12&#45;&gt;Node11 -->
<g id="edge13_Node000012_Node000011" class="edge">
<title>Node12&#45;&gt;Node11</title>
<g id="a_edge13_Node000012_Node000011"><a xlink:title=" ">
<path fill="none" stroke="#63b8ff" d="M732.65,-115.04C740.56,-115.96 748.63,-116.9 756.63,-117.83"/>
<polygon fill="#63b8ff" stroke="#63b8ff" points="756.04,-121.28 766.37,-118.96 756.85,-114.33 756.04,-121.28"/>
</a>
</g>
</g>
</g>
</svg>
