<?xml version="1.0" encoding="UTF-8" standalone="no"?>
<!DOCTYPE svg PUBLIC "-//W3C//DTD SVG 1.1//EN"
 "http://www.w3.org/Graphics/SVG/1.1/DTD/svg11.dtd">
<!-- Generated by graphviz version 7.1.0 (20230121.1956)
 -->
<!-- Title: PostProjectUpdatedEvent Pages: 1 -->
<svg width="138pt" height="137pt"
 viewBox="0.00 0.00 138.00 137.00" xmlns="http://www.w3.org/2000/svg" xmlns:xlink="http://www.w3.org/1999/xlink">
<g id="graph0" class="graph" transform="scale(1 1) rotate(0) translate(4 133)">
<title>PostProjectUpdatedEvent</title>
<!-- Node1 -->
<g id="node1" class="node">
<title>Node1</title>
<g id="a_node1"><a xlink:title="Dispatched after flushing entities to the data&#45;base, but before the final commit.">
<polygon fill="#999999" stroke="#666666" points="130,-19 0,-19 0,0 130,0 130,-19"/>
<text text-anchor="middle" x="65" y="-7" font-family="Helvetica,sans-Serif" font-size="10.00">PostProjectUpdatedEvent</text>
</a>
</g>
</g>
<!-- Node2 -->
<g id="node2" class="node">
<title>Node2</title>
<g id="a_node2"><a xlink:href="class_o_c_a_1_1_c_a_f_e_v_d_b_1_1_events_1_1_project_updated_event.html" target="_top" xlink:title="Dispatched after flushing entities to the data&#45;base, but before the final commit.">
<polygon fill="white" stroke="#666666" points="120,-74 10,-74 10,-55 120,-55 120,-74"/>
<text text-anchor="middle" x="65" y="-62" font-family="Helvetica,sans-Serif" font-size="10.00">ProjectUpdatedEvent</text>
</a>
</g>
</g>
<!-- Node2&#45;&gt;Node1 -->
<g id="edge1" class="edge">
<title>Node2&#45;&gt;Node1</title>
<path fill="none" stroke="#63b8ff" d="M65,-43.35C65,-35.1 65,-25.97 65,-19.44"/>
<polygon fill="#63b8ff" stroke="#63b8ff" points="61.5,-43.23 65,-53.23 68.5,-43.23 61.5,-43.23"/>
</g>
<!-- Node3 -->
<g id="node3" class="node">
<title>Node3</title>
<g id="a_node3"><a xlink:title=" ">
<polygon fill="white" stroke="#bfbfbf" points="86,-129 44,-129 44,-110 86,-110 86,-129"/>
<text text-anchor="middle" x="65" y="-117" font-family="Helvetica,sans-Serif" font-size="10.00">Event</text>
</a>
</g>
</g>
<!-- Node3&#45;&gt;Node2 -->
<g id="edge2" class="edge">
<title>Node3&#45;&gt;Node2</title>
<path fill="none" stroke="#63b8ff" d="M65,-98.35C65,-90.1 65,-80.97 65,-74.44"/>
<polygon fill="#63b8ff" stroke="#63b8ff" points="61.5,-98.23 65,-108.23 68.5,-98.23 61.5,-98.23"/>
</g>
</g>
</svg>
