<?xml version="1.0" encoding="UTF-8" standalone="no"?>
<!DOCTYPE svg PUBLIC "-//W3C//DTD SVG 1.1//EN"
 "http://www.w3.org/Graphics/SVG/1.1/DTD/svg11.dtd">
<!-- Generated by graphviz version 9.0.0 (20230911.1827)
 -->
<!-- Title: loadLanguageData Pages: 1 -->
<svg width="219pt" height="66pt"
 viewBox="0.00 0.00 218.50 66.00" xmlns="http://www.w3.org/2000/svg" xmlns:xlink="http://www.w3.org/1999/xlink">
<g id="graph0" class="graph" transform="scale(1 1) rotate(0) translate(4 62)">
<title>loadLanguageData</title>
<!-- Node1 -->
<g id="Node000001" class="node">
<title>Node1</title>
<g id="a_Node000001"><a xlink:title=" ">
<polygon fill="#999999" stroke="#666666" points="210.5,-39 113.5,-39 113.5,-19 210.5,-19 210.5,-39"/>
<text text-anchor="middle" x="162" y="-25.5" font-family="Helvetica,sans-Serif" font-size="10.00">loadLanguageData</text>
</a>
</g>
</g>
<!-- Node2 -->
<g id="Node000002" class="node">
<title>Node2</title>
<g id="a_Node000002"><a xlink:href="class_o_c_a_1_1_c_a_f_e_v_d_b_1_1_service_1_1_l10_n_1_1_bi_directional_l10_n.html#a4b61fd2f128a4ca607836b85a73d3737" target="_top" xlink:title="Attempt an un&#45;translation.">
<polygon fill="white" stroke="#666666" points="77.5,-58 0,-58 0,-38 77.5,-38 77.5,-58"/>
<text text-anchor="middle" x="38.75" y="-44.5" font-family="Helvetica,sans-Serif" font-size="10.00">backTranslate</text>
</a>
</g>
</g>
<!-- Node1&#45;&gt;Node2 -->
<g id="edge1_Node000001_Node000002" class="edge">
<title>Node1&#45;&gt;Node2</title>
<g id="a_edge1_Node000001_Node000002"><a xlink:title=" ">
<path fill="none" stroke="#63b8ff" d="M101.74,-38.29C93.67,-39.55 85.56,-40.82 77.99,-42.01"/>
<polygon fill="#63b8ff" stroke="#63b8ff" points="102.25,-41.75 111.58,-36.74 101.16,-34.83 102.25,-41.75"/>
</a>
</g>
</g>
<!-- Node3 -->
<g id="Node000003" class="node">
<title>Node3</title>
<g id="a_Node000003"><a xlink:href="class_o_c_a_1_1_c_a_f_e_v_d_b_1_1_service_1_1_l10_n_1_1_bi_directional_l10_n.html#a5d5cc7d302ffec2d6b2c69ca4fad8db5" target="_top" xlink:title="Attempt a translation.">
<polygon fill="white" stroke="#666666" points="53.15,-20 24.35,-20 24.35,0 53.15,0 53.15,-20"/>
<text text-anchor="middle" x="38.75" y="-6.5" font-family="Helvetica,sans-Serif" font-size="10.00">t</text>
</a>
</g>
</g>
<!-- Node1&#45;&gt;Node3 -->
<g id="edge2_Node000001_Node000003" class="edge">
<title>Node1&#45;&gt;Node3</title>
<g id="a_edge2_Node000001_Node000003"><a xlink:title=" ">
<path fill="none" stroke="#63b8ff" d="M101.88,-19.74C83.77,-16.9 65.47,-14.03 53.47,-12.15"/>
<polygon fill="#63b8ff" stroke="#63b8ff" points="101.16,-23.17 111.58,-21.26 102.25,-16.25 101.16,-23.17"/>
</a>
</g>
</g>
</g>
</svg>
