<?xml version="1.0" encoding="UTF-8" standalone="no"?>
<!DOCTYPE svg PUBLIC "-//W3C//DTD SVG 1.1//EN"
 "http://www.w3.org/Graphics/SVG/1.1/DTD/svg11.dtd">
<!-- Generated by graphviz version 9.0.0 (20230911.1827)
 -->
<!-- Title: remove Pages: 1 -->
<svg width="342pt" height="135pt"
 viewBox="0.00 0.00 341.75 135.00" xmlns="http://www.w3.org/2000/svg" xmlns:xlink="http://www.w3.org/1999/xlink">
<g id="graph0" class="graph" transform="scale(1 1) rotate(0) translate(4 131)">
<title>remove</title>
<!-- Node1 -->
<g id="Node000001" class="node">
<title>Node1</title>
<g id="a_Node000001"><a xlink:title="Delete the given mandate if it is not used.">
<polygon fill="#999999" stroke="#666666" points="48.25,-77 0,-77 0,-57 48.25,-57 48.25,-77"/>
<text text-anchor="middle" x="24.12" y="-63.5" font-family="Helvetica,sans-Serif" font-size="10.00">remove</text>
</a>
</g>
</g>
<!-- Node2 -->
<g id="Node000002" class="node">
<title>Node2</title>
<g id="a_Node000002"><a xlink:href="class_o_c_a_1_1_c_a_f_e_v_d_b_1_1_database_1_1_doctrine_1_1_o_r_m_1_1_repositories_1_1_sepa_debit_mandates_repository.html#a3435ec579db5b0ae00575b8f516a8e24" target="_top" xlink:title="Ban a SEPA&#45;mandate (timeout, withdrawn, erroneous data etc.).">
<polygon fill="white" stroke="#666666" points="121.25,-96 89.5,-96 89.5,-76 121.25,-76 121.25,-96"/>
<text text-anchor="middle" x="105.38" y="-82.5" font-family="Helvetica,sans-Serif" font-size="10.00">ban</text>
</a>
</g>
</g>
<!-- Node1&#45;&gt;Node2 -->
<g id="edge1_Node000001_Node000002" class="edge">
<title>Node1&#45;&gt;Node2</title>
<g id="a_edge1_Node000001_Node000002"><a xlink:title=" ">
<path fill="none" stroke="#63b8ff" d="M48.47,-72.6C57.82,-74.84 68.63,-77.43 78.24,-79.73"/>
<polygon fill="#63b8ff" stroke="#63b8ff" points="77.18,-83.08 87.72,-82.01 78.81,-76.27 77.18,-83.08"/>
</a>
</g>
</g>
<!-- Node3 -->
<g id="Node000003" class="node">
<title>Node3</title>
<g id="a_Node000003"><a xlink:href="class_o_c_a_1_1_c_a_f_e_v_d_b_1_1_database_1_1_doctrine_1_1_o_r_m_1_1_repositories_1_1_sepa_debit_mandates_repository.html#aa83dc5c73575593e20ef022264c93b7c" target="_top" xlink:title="Find a SEPA&#45;mandate by either its primary key or its mandate reference; no&#45;op if $idOrReference alrea...">
<polygon fill="white" stroke="#666666" points="279,-127 217.25,-127 217.25,-107 279,-107 279,-127"/>
<text text-anchor="middle" x="248.12" y="-113.5" font-family="Helvetica,sans-Serif" font-size="10.00">findOneBy</text>
</a>
</g>
</g>
<!-- Node1&#45;&gt;Node3 -->
<g id="edge4_Node000001_Node000003" class="edge">
<title>Node1&#45;&gt;Node3</title>
<g id="a_edge4_Node000001_Node000003"><a xlink:title=" ">
<path fill="none" stroke="#63b8ff" d="M37.32,-77.46C48.65,-86.5 66.43,-99.05 84.25,-105 123.94,-118.26 172.01,-120.22 205.6,-119.5"/>
<polygon fill="#63b8ff" stroke="#63b8ff" points="205.44,-123.01 215.32,-119.2 205.22,-116.01 205.44,-123.01"/>
</a>
</g>
</g>
<!-- Node4 -->
<g id="Node000004" class="node">
<title>Node4</title>
<g id="a_Node000004"><a xlink:href="class_o_c_a_1_1_c_a_f_e_v_d_b_1_1_database_1_1_doctrine_1_1_o_r_m_1_1_repositories_1_1_entity_repository.html#ae2b0e1dbe7640aefaf7d54c6a94d08fe" target="_top" xlink:title="Public export of parent function.">
<polygon fill="white" stroke="#666666" points="333.75,-83 162.5,-83 162.5,-39 333.75,-39 333.75,-83"/>
<text text-anchor="start" x="170.5" y="-69.5" font-family="Helvetica,sans-Serif" font-size="10.00">OCA\CAFEVDB\Database</text>
<text text-anchor="start" x="170.5" y="-57.5" font-family="Helvetica,sans-Serif" font-size="10.00">\Doctrine\ORM\Repositories</text>
<text text-anchor="middle" x="248.12" y="-45.5" font-family="Helvetica,sans-Serif" font-size="10.00">\EntityRepository\getEntityManager</text>
</a>
</g>
</g>
<!-- Node1&#45;&gt;Node4 -->
<g id="edge5_Node000001_Node000004" class="edge">
<title>Node1&#45;&gt;Node4</title>
<g id="a_edge5_Node000001_Node000004"><a xlink:title=" ">
<path fill="none" stroke="#63b8ff" d="M48.46,-66.37C72.98,-65.71 113.17,-64.62 151.01,-63.6"/>
<polygon fill="#63b8ff" stroke="#63b8ff" points="150.71,-67.11 160.62,-63.34 150.53,-60.11 150.71,-67.11"/>
</a>
</g>
</g>
<!-- Node5 -->
<g id="Node000005" class="node">
<title>Node5</title>
<g id="a_Node000005"><a xlink:href="class_o_c_a_1_1_c_a_f_e_v_d_b_1_1_database_1_1_doctrine_1_1_o_r_m_1_1_repositories_1_1_sepa_debit_mandates_repository.html#a797cbefa38da929fb4dac2e9ef8b64ae" target="_top" xlink:title="Fetch usage information about the given identifier.">
<polygon fill="white" stroke="#666666" points="126.5,-20 84.25,-20 84.25,0 126.5,0 126.5,-20"/>
<text text-anchor="middle" x="105.38" y="-6.5" font-family="Helvetica,sans-Serif" font-size="10.00">usage</text>
</a>
</g>
</g>
<!-- Node1&#45;&gt;Node5 -->
<g id="edge6_Node000001_Node000005" class="edge">
<title>Node1&#45;&gt;Node5</title>
<g id="a_edge6_Node000001_Node000005"><a xlink:title=" ">
<path fill="none" stroke="#63b8ff" d="M39.66,-56.55C51.17,-48.27 67.47,-36.54 80.83,-26.93"/>
<polygon fill="#63b8ff" stroke="#63b8ff" points="82.63,-29.95 88.7,-21.27 78.54,-24.27 82.63,-29.95"/>
</a>
</g>
</g>
<!-- Node2&#45;&gt;Node3 -->
<g id="edge2_Node000002_Node000003" class="edge">
<title>Node2&#45;&gt;Node3</title>
<g id="a_edge2_Node000002_Node000003"><a xlink:title=" ">
<path fill="none" stroke="#63b8ff" d="M121.71,-89.38C141.68,-93.78 177.39,-101.64 205.61,-107.86"/>
<polygon fill="#63b8ff" stroke="#63b8ff" points="204.79,-111.26 215.31,-109.99 206.29,-104.42 204.79,-111.26"/>
</a>
</g>
</g>
<!-- Node2&#45;&gt;Node4 -->
<g id="edge3_Node000002_Node000004" class="edge">
<title>Node2&#45;&gt;Node4</title>
<g id="a_edge3_Node000002_Node000004"><a xlink:title=" ">
<path fill="none" stroke="#63b8ff" d="M121.71,-83.28C129.53,-81.89 139.78,-80.07 151.04,-78.07"/>
<polygon fill="#63b8ff" stroke="#63b8ff" points="151.39,-81.56 160.62,-76.37 150.16,-74.67 151.39,-81.56"/>
</a>
</g>
</g>
</g>
</svg>
