<?xml version="1.0" encoding="UTF-8" standalone="no"?>
<!DOCTYPE svg PUBLIC "-//W3C//DTD SVG 1.1//EN"
 "http://www.w3.org/Graphics/SVG/1.1/DTD/svg11.dtd">
<!-- Generated by graphviz version 9.0.0 (20230911.1827)
 -->
<!-- Title: getMusicianFieldData Pages: 1 -->
<svg width="459pt" height="90pt"
 viewBox="0.00 0.00 458.75 90.00" xmlns="http://www.w3.org/2000/svg" xmlns:xlink="http://www.w3.org/1999/xlink">
<g id="graph0" class="graph" transform="scale(1 1) rotate(0) translate(4 86)">
<title>getMusicianFieldData</title>
<!-- Node1 -->
<g id="Node000001" class="node">
<title>Node1</title>
<g id="a_Node000001"><a xlink:title="Filter field&#45;data by musician.">
<polygon fill="#999999" stroke="#666666" points="110.5,-51 0,-51 0,-31 110.5,-31 110.5,-51"/>
<text text-anchor="middle" x="55.25" y="-37.5" font-family="Helvetica,sans-Serif" font-size="10.00">getMusicianFieldData</text>
</a>
</g>
</g>
<!-- Node2 -->
<g id="Node000002" class="node">
<title>Node2</title>
<g id="a_Node000002"><a xlink:href="class_o_c_a_1_1_c_a_f_e_v_d_b_1_1_database_1_1_doctrine_1_1_util.html#aafe8e2082bd107d572aa76086a06b24e" target="_top" xlink:title="Convenience function.">
<polygon fill="white" stroke="#666666" points="281,-57 146.5,-57 146.5,-25 281,-25 281,-57"/>
<text text-anchor="start" x="154.5" y="-43.5" font-family="Helvetica,sans-Serif" font-size="10.00">OCA\CAFEVDB\Database</text>
<text text-anchor="middle" x="213.75" y="-31.5" font-family="Helvetica,sans-Serif" font-size="10.00">\Doctrine\Util\criteriaWhere</text>
</a>
</g>
</g>
<!-- Node1&#45;&gt;Node2 -->
<g id="edge1_Node000001_Node000002" class="edge">
<title>Node1&#45;&gt;Node2</title>
<g id="a_edge1_Node000001_Node000002"><a xlink:title=" ">
<path fill="none" stroke="#63b8ff" d="M110.99,-41C118.71,-41 126.78,-41 134.84,-41"/>
<polygon fill="#63b8ff" stroke="#63b8ff" points="134.69,-44.5 144.69,-41 134.69,-37.5 134.69,-44.5"/>
</a>
</g>
</g>
<!-- Node3 -->
<g id="Node000003" class="node">
<title>Node3</title>
<g id="a_Node000003"><a xlink:href="class_o_c_a_1_1_c_a_f_e_v_d_b_1_1_database_1_1_doctrine_1_1_util.html#af2691c40495d429502e48d4824f0b080" target="_top" xlink:title="Convenience function to generate Collections\Criteria.">
<polygon fill="white" stroke="#666666" points="450.75,-82 317,-82 317,-50 450.75,-50 450.75,-82"/>
<text text-anchor="start" x="325" y="-68.5" font-family="Helvetica,sans-Serif" font-size="10.00">OCA\CAFEVDB\Database</text>
<text text-anchor="middle" x="383.88" y="-56.5" font-family="Helvetica,sans-Serif" font-size="10.00">\Doctrine\Util\criteria</text>
</a>
</g>
</g>
<!-- Node2&#45;&gt;Node3 -->
<g id="edge2_Node000002_Node000003" class="edge">
<title>Node2&#45;&gt;Node3</title>
<g id="a_edge2_Node000002_Node000003"><a xlink:title=" ">
<path fill="none" stroke="#63b8ff" d="M281.2,-50.88C289.12,-52.06 297.26,-53.27 305.32,-54.47"/>
<polygon fill="#63b8ff" stroke="#63b8ff" points="304.73,-57.92 315.14,-55.93 305.76,-50.99 304.73,-57.92"/>
</a>
</g>
</g>
<!-- Node4 -->
<g id="Node000004" class="node">
<title>Node4</title>
<g id="a_Node000004"><a xlink:href="class_o_c_a_1_1_c_a_f_e_v_d_b_1_1_database_1_1_doctrine_1_1_util.html#ae987ce50626dd3e4a9b255037433c776" target="_top" xlink:title="Convenience function to generate CollectionsxpressionBuilder.">
<polygon fill="white" stroke="#666666" points="450.75,-32 317,-32 317,0 450.75,0 450.75,-32"/>
<text text-anchor="start" x="325" y="-18.5" font-family="Helvetica,sans-Serif" font-size="10.00">OCA\CAFEVDB\Database</text>
<text text-anchor="middle" x="383.88" y="-6.5" font-family="Helvetica,sans-Serif" font-size="10.00">\Doctrine\Util\criteriaExpr</text>
</a>
</g>
</g>
<!-- Node2&#45;&gt;Node4 -->
<g id="edge3_Node000002_Node000004" class="edge">
<title>Node2&#45;&gt;Node4</title>
<g id="a_edge3_Node000002_Node000004"><a xlink:title=" ">
<path fill="none" stroke="#63b8ff" d="M281.2,-31.12C289.12,-29.94 297.26,-28.73 305.32,-27.53"/>
<polygon fill="#63b8ff" stroke="#63b8ff" points="305.76,-31.01 315.14,-26.07 304.73,-24.08 305.76,-31.01"/>
</a>
</g>
</g>
</g>
</svg>
