<?xml version="1.0" encoding="UTF-8" standalone="no"?>
<!DOCTYPE svg PUBLIC "-//W3C//DTD SVG 1.1//EN"
 "http://www.w3.org/Graphics/SVG/1.1/DTD/svg11.dtd">
<!-- Generated by graphviz version 9.0.0 (20230911.1827)
 -->
<!-- Title: updateMusicianPersonalizedViews Pages: 1 -->
<svg width="587pt" height="78pt"
 viewBox="0.00 0.00 586.50 78.00" xmlns="http://www.w3.org/2000/svg" xmlns:xlink="http://www.w3.org/1999/xlink">
<g id="graph0" class="graph" transform="scale(1 1) rotate(0) translate(4 74)">
<title>updateMusicianPersonalizedViews</title>
<!-- Node1 -->
<g id="Node000001" class="node">
<title>Node1</title>
<g id="a_Node000001"><a xlink:title="Update the personalized one&#45;row views which give individual orchestra members access to just their ow...">
<polygon fill="#999999" stroke="#666666" points="140.5,-54 0,-54 0,-22 140.5,-22 140.5,-54"/>
<text text-anchor="start" x="8" y="-40.5" font-family="Helvetica,sans-Serif" font-size="10.00">updateMusicianPersonalized</text>
<text text-anchor="middle" x="70.25" y="-28.5" font-family="Helvetica,sans-Serif" font-size="10.00">Views</text>
</a>
</g>
</g>
<!-- Node2 -->
<g id="Node000002" class="node">
<title>Node2</title>
<g id="a_Node000002"><a xlink:href="class_o_c_a_1_1_c_a_f_e_v_d_b_1_1_service_1_1_cloud_user_connector_service.html#a671fba0b17a311cf25f00baf8fa06912" target="_top" xlink:title=" ">
<polygon fill="white" stroke="#666666" points="318.12,-70 183.62,-70 183.62,-50 318.12,-50 318.12,-70"/>
<text text-anchor="middle" x="250.88" y="-56.5" font-family="Helvetica,sans-Serif" font-size="10.00">checkAndGetCloudDbUser</text>
</a>
</g>
</g>
<!-- Node1&#45;&gt;Node2 -->
<g id="edge1_Node000001_Node000002" class="edge">
<title>Node1&#45;&gt;Node2</title>
<g id="a_edge1_Node000001_Node000002"><a xlink:title=" ">
<path fill="none" stroke="#63b8ff" d="M140.82,-46.57C151.04,-47.83 161.62,-49.13 171.98,-50.41"/>
<polygon fill="#63b8ff" stroke="#63b8ff" points="171.27,-53.85 181.63,-51.59 172.13,-46.9 171.27,-53.85"/>
</a>
</g>
</g>
<!-- Node3 -->
<g id="Node000003" class="node">
<title>Node3</title>
<g id="a_Node000003"><a xlink:href="class_o_c_a_1_1_c_a_f_e_v_d_b_1_1_service_1_1_cloud_user_connector_service.html#afd669fc5c9519ec4df86f83338241f86" target="_top" xlink:title="Generate the (My&#45;)SQL statements for defining the personalized single&#45;row musician views.">
<polygon fill="white" stroke="#666666" points="325.25,-32 176.5,-32 176.5,0 325.25,0 325.25,-32"/>
<text text-anchor="start" x="184.5" y="-18.5" font-family="Helvetica,sans-Serif" font-size="10.00">generateMusicianPersonalized</text>
<text text-anchor="middle" x="250.88" y="-6.5" font-family="Helvetica,sans-Serif" font-size="10.00">ViewsStatements</text>
</a>
</g>
</g>
<!-- Node1&#45;&gt;Node3 -->
<g id="edge2_Node000001_Node000003" class="edge">
<title>Node1&#45;&gt;Node3</title>
<g id="a_edge2_Node000001_Node000003"><a xlink:title=" ">
<path fill="none" stroke="#63b8ff" d="M140.82,-29.43C148.68,-28.46 156.75,-27.47 164.78,-26.48"/>
<polygon fill="#63b8ff" stroke="#63b8ff" points="165.07,-29.97 174.56,-25.28 164.21,-23.02 165.07,-29.97"/>
</a>
</g>
</g>
<!-- Node4 -->
<g id="Node000004" class="node">
<title>Node4</title>
<g id="a_Node000004"><a xlink:href="class_o_c_a_1_1_c_a_f_e_v_d_b_1_1_service_1_1_cloud_user_connector_service.html#a891ee9425b9ec2b464cd8d38c8f5bc9a" target="_top" xlink:title=" ">
<polygon fill="white" stroke="#666666" points="480,-26 361.25,-26 361.25,-6 480,-6 480,-26"/>
<text text-anchor="middle" x="420.62" y="-12.5" font-family="Helvetica,sans-Serif" font-size="10.00">personalizedViewName</text>
</a>
</g>
</g>
<!-- Node3&#45;&gt;Node4 -->
<g id="edge3_Node000003_Node000004" class="edge">
<title>Node3&#45;&gt;Node4</title>
<g id="a_edge3_Node000003_Node000004"><a xlink:title=" ">
<path fill="none" stroke="#63b8ff" d="M325.45,-16C333.44,-16 341.55,-16 349.49,-16"/>
<polygon fill="#63b8ff" stroke="#63b8ff" points="349.46,-19.5 359.46,-16 349.46,-12.5 349.46,-19.5"/>
</a>
</g>
</g>
<!-- Node5 -->
<g id="Node000005" class="node">
<title>Node5</title>
<g id="a_Node000005"><a xlink:href="class_o_c_a_1_1_c_a_f_e_v_d_b_1_1_service_1_1_cloud_user_connector_service.html#a8f6f0e60183992c01ae7acad097ac598" target="_top" xlink:title=" ">
<polygon fill="white" stroke="#666666" points="578.5,-26 516,-26 516,-6 578.5,-6 578.5,-26"/>
<text text-anchor="middle" x="547.25" y="-12.5" font-family="Helvetica,sans-Serif" font-size="10.00">viewName</text>
</a>
</g>
</g>
<!-- Node4&#45;&gt;Node5 -->
<g id="edge4_Node000004_Node000005" class="edge">
<title>Node4&#45;&gt;Node5</title>
<g id="a_edge4_Node000004_Node000005"><a xlink:title=" ">
<path fill="none" stroke="#63b8ff" d="M480.29,-16C488.42,-16 496.64,-16 504.38,-16"/>
<polygon fill="#63b8ff" stroke="#63b8ff" points="504.18,-19.5 514.18,-16 504.18,-12.5 504.18,-19.5"/>
</a>
</g>
</g>
</g>
</svg>
