<?xml version="1.0" encoding="UTF-8" standalone="no"?>
<!DOCTYPE svg PUBLIC "-//W3C//DTD SVG 1.1//EN"
 "http://www.w3.org/Graphics/SVG/1.1/DTD/svg11.dtd">
<!-- Generated by graphviz version 9.0.0 (20230911.1827)
 -->
<!-- Title: unescapeDelimiter Pages: 1 -->
<svg width="843pt" height="333pt"
 viewBox="0.00 0.00 843.25 333.30" xmlns="http://www.w3.org/2000/svg" xmlns:xlink="http://www.w3.org/1999/xlink">
<g id="graph0" class="graph" transform="scale(1 1) rotate(0) translate(4 329.3)">
<title>unescapeDelimiter</title>
<!-- Node1 -->
<g id="Node000001" class="node">
<title>Node1</title>
<g id="a_Node000001"><a xlink:title="Un&#45;escape delimiters in the given value.">
<polygon fill="#999999" stroke="#666666" points="835.25,-177 738.25,-177 738.25,-157 835.25,-157 835.25,-177"/>
<text text-anchor="middle" x="786.75" y="-163.5" font-family="Helvetica,sans-Serif" font-size="10.00">unescapeDelimiter</text>
</a>
</g>
</g>
<!-- Node2 -->
<g id="Node000002" class="node">
<title>Node2</title>
<g id="a_Node000002"><a xlink:href="class_o_c_a_1_1_c_a_f_e_v_d_b_1_1_common_1_1_util.html#a0bef3dc2eedd594dab3a84b15d183c36" target="_top" xlink:title="A preg_explode() wrapper with some extra features.">
<polygon fill="white" stroke="#666666" points="702.25,-177 652.5,-177 652.5,-157 702.25,-157 702.25,-177"/>
<text text-anchor="middle" x="677.38" y="-163.5" font-family="Helvetica,sans-Serif" font-size="10.00">explode</text>
</a>
</g>
</g>
<!-- Node1&#45;&gt;Node2 -->
<g id="edge1_Node000001_Node000002" class="edge">
<title>Node1&#45;&gt;Node2</title>
<g id="a_edge1_Node000001_Node000002"><a xlink:title=" ">
<path fill="none" stroke="#63b8ff" d="M726.54,-167C718.14,-167 709.92,-167 702.72,-167"/>
<polygon fill="#63b8ff" stroke="#63b8ff" points="726.51,-170.5 736.51,-167 726.51,-163.5 726.51,-170.5"/>
</a>
</g>
</g>
<!-- Node2&#45;&gt;Node2 -->
<g id="edge7_Node000002_Node000002" class="edge">
<title>Node2&#45;&gt;Node2</title>
<g id="a_edge7_Node000002_Node000002"><a xlink:title=" ">
<path fill="none" stroke="#63b8ff" d="M696.71,-188.44C694.22,-192.3 687.77,-195 677.38,-195 658.36,-195 652.57,-185.98 660,-177.34"/>
<polygon fill="#63b8ff" stroke="#63b8ff" points="700.2,-188.07 695.02,-178.83 693.3,-189.28 700.2,-188.07"/>
</a>
</g>
</g>
<!-- Node3 -->
<g id="Node000003" class="node">
<title>Node3</title>
<g id="a_Node000003"><a xlink:href="class_o_c_a_1_1_c_a_f_e_v_d_b_1_1_page_renderer_1_1_p_m_e_table_view_base.html#a936748b21bb69d2a3f9d51e14ce2cd87" target="_top" xlink:title="Before insert&#45;trigger which ideally should insert all data such that nothing remains to be done for p...">
<polygon fill="white" stroke="#666666" points="389.38,-270 226.38,-270 226.38,-226 389.38,-226 389.38,-270"/>
<text text-anchor="start" x="234.38" y="-256.5" font-family="Helvetica,sans-Serif" font-size="10.00">OCA\CAFEVDB\PageRenderer</text>
<text text-anchor="start" x="234.38" y="-244.5" font-family="Helvetica,sans-Serif" font-size="10.00">\PMETableViewBase\beforeInsert</text>
<text text-anchor="middle" x="307.88" y="-232.5" font-family="Helvetica,sans-Serif" font-size="10.00">DoInsertAll</text>
</a>
</g>
</g>
<!-- Node2&#45;&gt;Node3 -->
<g id="edge2_Node000002_Node000003" class="edge">
<title>Node2&#45;&gt;Node3</title>
<g id="a_edge2_Node000002_Node000003"><a xlink:title=" ">
<path fill="none" stroke="#63b8ff" d="M666.79,-187.52C657.01,-205.79 639.93,-231.39 616.5,-243 545.9,-277.97 454.53,-274.3 389.77,-264.91"/>
<polygon fill="#63b8ff" stroke="#63b8ff" points="669.9,-189.13 671.26,-178.62 663.64,-185.99 669.9,-189.13"/>
</a>
</g>
</g>
<!-- Node4 -->
<g id="Node000004" class="node">
<title>Node4</title>
<g id="a_Node000004"><a xlink:href="class_o_c_a_1_1_c_a_f_e_v_d_b_1_1_page_renderer_1_1_project_instrumentation_numbers.html#ab91557ae1e08e1183c76c9ce39edfe33" target="_top" xlink:title="{Show the underlying template page.This is supposed to echo html code to stdout. This is the default ...">
<polygon fill="white" stroke="#666666" points="187,-290 0,-290 0,-258 187,-258 187,-290"/>
<text text-anchor="start" x="8" y="-276.5" font-family="Helvetica,sans-Serif" font-size="10.00">OCA\CAFEVDB\PageRenderer</text>
<text text-anchor="middle" x="93.5" y="-264.5" font-family="Helvetica,sans-Serif" font-size="10.00">\ProjectInstrumentationNumbers\render</text>
</a>
</g>
</g>
<!-- Node2&#45;&gt;Node4 -->
<g id="edge16_Node000002_Node000004" class="edge">
<title>Node2&#45;&gt;Node4</title>
<g id="a_edge16_Node000002_Node000004"><a xlink:title=" ">
<path fill="none" stroke="#63b8ff" d="M670.94,-188.07C663.32,-212.79 646.87,-252.71 616.5,-271 467.64,-360.65 248.92,-317.69 148.51,-290.47"/>
<polygon fill="#63b8ff" stroke="#63b8ff" points="674.21,-189.35 673.58,-178.77 667.48,-187.44 674.21,-189.35"/>
</a>
</g>
</g>
<!-- Node6 -->
<g id="Node000006" class="node">
<title>Node6</title>
<g id="a_Node000006"><a xlink:href="class_o_c_a_1_1_c_a_f_e_v_d_b_1_1_page_renderer_1_1_p_m_e_table_view_base.html#a882a0897b82d354409342d1c195c2f4d" target="_top" xlink:title="Before update&#45;trigger which ideally should update all data such that nothing remains to do for phpMyE...">
<polygon fill="white" stroke="#666666" points="392.75,-208 223,-208 223,-164 392.75,-164 392.75,-208"/>
<text text-anchor="start" x="231" y="-194.5" font-family="Helvetica,sans-Serif" font-size="10.00">OCA\CAFEVDB\PageRenderer</text>
<text text-anchor="start" x="231" y="-182.5" font-family="Helvetica,sans-Serif" font-size="10.00">\PMETableViewBase\beforeUpdate</text>
<text text-anchor="middle" x="307.88" y="-170.5" font-family="Helvetica,sans-Serif" font-size="10.00">DoUpdateAll</text>
</a>
</g>
</g>
<!-- Node2&#45;&gt;Node6 -->
<g id="edge5_Node000002_Node000006" class="edge">
<title>Node2&#45;&gt;Node6</title>
<g id="a_edge5_Node000002_Node000006"><a xlink:title=" ">
<path fill="none" stroke="#63b8ff" d="M640.73,-165.25C592.55,-163.28 504.02,-161.07 428.75,-167 417.2,-167.91 405.07,-169.31 393.16,-170.94"/>
<polygon fill="#63b8ff" stroke="#63b8ff" points="640.42,-168.74 650.56,-165.67 640.72,-161.74 640.42,-168.74"/>
</a>
</g>
</g>
<!-- Node7 -->
<g id="Node000007" class="node">
<title>Node7</title>
<g id="a_Node000007"><a xlink:href="class_o_c_a_1_1_c_a_f_e_v_d_b_1_1_common_1_1_util.html#a224e0cc0562d0f2642f19e9f8fb03596" target="_top" xlink:title="Explode a string of the form.">
<polygon fill="white" stroke="#666666" points="564.75,-234 480.5,-234 480.5,-214 564.75,-214 564.75,-234"/>
<text text-anchor="middle" x="522.62" y="-220.5" font-family="Helvetica,sans-Serif" font-size="10.00">explodeIndexed</text>
</a>
</g>
</g>
<!-- Node2&#45;&gt;Node7 -->
<g id="edge8_Node000002_Node000007" class="edge">
<title>Node2&#45;&gt;Node7</title>
<g id="a_edge8_Node000002_Node000007"><a xlink:title=" ">
<path fill="none" stroke="#63b8ff" d="M654.23,-183.8C643.37,-191.3 629.79,-199.64 616.5,-205 600.17,-211.59 581.27,-215.99 564.79,-218.88"/>
<polygon fill="#63b8ff" stroke="#63b8ff" points="656.04,-186.81 662.12,-178.13 651.96,-181.12 656.04,-186.81"/>
</a>
</g>
</g>
<!-- Node8 -->
<g id="Node000008" class="node">
<title>Node8</title>
<g id="a_Node000008"><a xlink:href="class_o_c_a_1_1_c_a_f_e_v_d_b_1_1_common_1_1_util.html#a1c7326cf6f827db64c27bbb89f64dd7d" target="_top" xlink:title="Explode a string of the form.">
<polygon fill="white" stroke="#666666" points="575.25,-196 470,-196 470,-176 575.25,-176 575.25,-196"/>
<text text-anchor="middle" x="522.62" y="-182.5" font-family="Helvetica,sans-Serif" font-size="10.00">explodeIndexedMulti</text>
</a>
</g>
</g>
<!-- Node2&#45;&gt;Node8 -->
<g id="edge11_Node000002_Node000008" class="edge">
<title>Node2&#45;&gt;Node8</title>
<g id="a_edge11_Node000002_Node000008"><a xlink:title=" ">
<path fill="none" stroke="#63b8ff" d="M640.8,-171.42C621.4,-173.84 597.03,-176.87 575.54,-179.54"/>
<polygon fill="#63b8ff" stroke="#63b8ff" points="641.18,-174.91 650.67,-170.2 640.31,-167.96 641.18,-174.91"/>
</a>
</g>
</g>
<!-- Node9 -->
<g id="Node000009" class="node">
<title>Node9</title>
<g id="a_Node000009"><a xlink:href="class_o_c_a_1_1_c_a_f_e_v_d_b_1_1_page_renderer_1_1_p_m_e_table_view_base.html#ac4930892b628989ea570c18ef64c0b4b" target="_top" xlink:title="The ranking of the mussician&#39;s instruments is implicitly stored in the order of the instrument ids.">
<polygon fill="white" stroke="#666666" points="616.5,-120 428.75,-120 428.75,-76 616.5,-76 616.5,-120"/>
<text text-anchor="start" x="436.75" y="-106.5" font-family="Helvetica,sans-Serif" font-size="10.00">OCA\CAFEVDB\PageRenderer</text>
<text text-anchor="start" x="436.75" y="-94.5" font-family="Helvetica,sans-Serif" font-size="10.00">\PMETableViewBase\extractInstrument</text>
<text text-anchor="middle" x="522.62" y="-82.5" font-family="Helvetica,sans-Serif" font-size="10.00">Ranking</text>
</a>
</g>
</g>
<!-- Node2&#45;&gt;Node9 -->
<g id="edge14_Node000002_Node000009" class="edge">
<title>Node2&#45;&gt;Node9</title>
<g id="a_edge14_Node000002_Node000009"><a xlink:title=" ">
<path fill="none" stroke="#63b8ff" d="M649.03,-150.92C638.96,-145.27 627.36,-139.07 616.5,-134 606.47,-129.32 595.65,-124.73 585.06,-120.47"/>
<polygon fill="#63b8ff" stroke="#63b8ff" points="647.15,-153.88 657.57,-155.8 650.62,-147.8 647.15,-153.88"/>
</a>
</g>
</g>
<!-- Node10 -->
<g id="Node000010" class="node">
<title>Node10</title>
<g id="a_Node000010"><a xlink:href="class_o_c_a_1_1_c_a_f_e_v_d_b_1_1_common_1_1_util.html#a67a5fbebd2af7e58f4533e7256e11556" target="_top" xlink:title=" ">
<polygon fill="white" stroke="#666666" points="592.5,-58 452.75,-58 452.75,-38 592.5,-38 592.5,-58"/>
<text text-anchor="middle" x="522.62" y="-44.5" font-family="Helvetica,sans-Serif" font-size="10.00">fileExtensionFromMimeType</text>
</a>
</g>
</g>
<!-- Node2&#45;&gt;Node10 -->
<g id="edge15_Node000002_Node000010" class="edge">
<title>Node2&#45;&gt;Node10</title>
<g id="a_edge15_Node000002_Node000010"><a xlink:title=" ">
<path fill="none" stroke="#63b8ff" d="M669.55,-145.84C660.96,-122.73 643.91,-86.43 616.5,-67 609.38,-61.96 601.23,-58.19 592.78,-55.38"/>
<polygon fill="#63b8ff" stroke="#63b8ff" points="666.19,-146.84 672.78,-155.13 672.8,-144.53 666.19,-146.84"/>
</a>
</g>
</g>
<!-- Node11 -->
<g id="Node000011" class="node">
<title>Node11</title>
<g id="a_Node000011"><a xlink:href="class_o_c_a_1_1_c_a_f_e_v_d_b_1_1_common_1_1_util.html#ae7d345a0cb6a0cc4e54913f819db998d" target="_top" xlink:title="Shorten the given string by iteratively reducing the size of its camel&#45;case components until it fits ...">
<polygon fill="white" stroke="#666666" points="585.38,-20 459.88,-20 459.88,0 585.38,0 585.38,-20"/>
<text text-anchor="middle" x="522.62" y="-6.5" font-family="Helvetica,sans-Serif" font-size="10.00">shortenCamelCaseString</text>
</a>
</g>
</g>
<!-- Node2&#45;&gt;Node11 -->
<g id="edge17_Node000002_Node000011" class="edge">
<title>Node2&#45;&gt;Node11</title>
<g id="a_edge17_Node000002_Node000011"><a xlink:title=" ">
<path fill="none" stroke="#63b8ff" d="M673.35,-145.65C667.81,-114.92 653.04,-58.65 616.5,-29 607.68,-21.85 596.87,-17.17 585.78,-14.15"/>
<polygon fill="#63b8ff" stroke="#63b8ff" points="669.85,-145.96 674.9,-155.27 676.76,-144.84 669.85,-145.96"/>
</a>
</g>
</g>
<!-- Node3&#45;&gt;Node4 -->
<g id="edge3_Node000003_Node000004" class="edge">
<title>Node3&#45;&gt;Node4</title>
<g id="a_edge3_Node000003_Node000004"><a xlink:title=" ">
<path fill="none" stroke="#63b8ff" d="M214.59,-259.3C205.52,-260.41 196.32,-261.53 187.25,-262.65"/>
<polygon fill="#63b8ff" stroke="#63b8ff" points="214.98,-262.78 224.48,-258.09 214.13,-255.83 214.98,-262.78"/>
</a>
</g>
</g>
<!-- Node5 -->
<g id="Node000005" class="node">
<title>Node5</title>
<g id="a_Node000005"><a xlink:href="class_o_c_a_1_1_c_a_f_e_v_d_b_1_1_page_renderer_1_1_project_participant_fields.html#ab91557ae1e08e1183c76c9ce39edfe33" target="_top" xlink:title="{Show the underlying template page.This is supposed to echo html code to stdout. This is the default ...">
<polygon fill="white" stroke="#666666" points="170.5,-234 16.5,-234 16.5,-202 170.5,-202 170.5,-234"/>
<text text-anchor="start" x="24.5" y="-220.5" font-family="Helvetica,sans-Serif" font-size="10.00">OCA\CAFEVDB\PageRenderer</text>
<text text-anchor="middle" x="93.5" y="-208.5" font-family="Helvetica,sans-Serif" font-size="10.00">\ProjectParticipantFields\render</text>
</a>
</g>
</g>
<!-- Node3&#45;&gt;Node5 -->
<g id="edge4_Node000003_Node000005" class="edge">
<title>Node3&#45;&gt;Node5</title>
<g id="a_edge4_Node000003_Node000005"><a xlink:title=" ">
<path fill="none" stroke="#63b8ff" d="M214.87,-235C200.22,-232.93 185.21,-230.81 170.97,-228.8"/>
<polygon fill="#63b8ff" stroke="#63b8ff" points="214.09,-238.43 224.48,-236.36 215.07,-231.5 214.09,-238.43"/>
</a>
</g>
</g>
<!-- Node6&#45;&gt;Node5 -->
<g id="edge6_Node000006_Node000005" class="edge">
<title>Node6&#45;&gt;Node5</title>
<g id="a_edge6_Node000006_Node000005"><a xlink:title=" ">
<path fill="none" stroke="#63b8ff" d="M211.29,-200.4C197.7,-202.45 183.87,-204.53 170.72,-206.52"/>
<polygon fill="#63b8ff" stroke="#63b8ff" points="211.77,-203.87 221.14,-198.92 210.73,-196.95 211.77,-203.87"/>
</a>
</g>
</g>
<!-- Node7&#45;&gt;Node3 -->
<g id="edge9_Node000007_Node000003" class="edge">
<title>Node7&#45;&gt;Node3</title>
<g id="a_edge9_Node000007_Node000003"><a xlink:title=" ">
<path fill="none" stroke="#63b8ff" d="M468.78,-229.96C444.85,-232.66 416.04,-235.91 389.5,-238.9"/>
<polygon fill="#63b8ff" stroke="#63b8ff" points="469.05,-233.45 478.6,-228.85 468.27,-226.5 469.05,-233.45"/>
</a>
</g>
</g>
<!-- Node7&#45;&gt;Node6 -->
<g id="edge10_Node000007_Node000006" class="edge">
<title>Node7&#45;&gt;Node6</title>
<g id="a_edge10_Node000007_Node000006"><a xlink:title=" ">
<path fill="none" stroke="#63b8ff" d="M468.91,-214.58C446,-210.49 418.6,-205.6 392.99,-201.02"/>
<polygon fill="#63b8ff" stroke="#63b8ff" points="468.15,-218 478.61,-216.32 469.38,-211.11 468.15,-218"/>
</a>
</g>
</g>
<!-- Node8&#45;&gt;Node3 -->
<g id="edge12_Node000008_Node000003" class="edge">
<title>Node8&#45;&gt;Node3</title>
<g id="a_edge12_Node000008_Node000003"><a xlink:title=" ">
<path fill="none" stroke="#63b8ff" d="M458.54,-197.64C448.52,-199.85 438.31,-202.32 428.75,-205 422.47,-206.76 396.51,-216.03 370.35,-225.52"/>
<polygon fill="#63b8ff" stroke="#63b8ff" points="459.2,-201.08 468.25,-195.57 457.74,-194.23 459.2,-201.08"/>
</a>
</g>
</g>
<!-- Node8&#45;&gt;Node6 -->
<g id="edge13_Node000008_Node000006" class="edge">
<title>Node8&#45;&gt;Node6</title>
<g id="a_edge13_Node000008_Node000006"><a xlink:title=" ">
<path fill="none" stroke="#63b8ff" d="M458.2,-186C437.77,-186 414.8,-186 393.12,-186"/>
<polygon fill="#63b8ff" stroke="#63b8ff" points="458.07,-189.5 468.07,-186 458.07,-182.5 458.07,-189.5"/>
</a>
</g>
</g>
</g>
</svg>
