<?xml version="1.0" encoding="UTF-8" standalone="no"?>
<!DOCTYPE svg PUBLIC "-//W3C//DTD SVG 1.1//EN"
 "http://www.w3.org/Graphics/SVG/1.1/DTD/svg11.dtd">
<!-- Generated by graphviz version 7.1.0 (20230121.1956)
 -->
<!-- Title: isMobile Pages: 1 -->
<svg width="504pt" height="103pt"
 viewBox="0.00 0.00 504.00 103.00" xmlns="http://www.w3.org/2000/svg" xmlns:xlink="http://www.w3.org/1999/xlink">
<g id="graph0" class="graph" transform="scale(1 1) rotate(0) translate(4 99)">
<title>isMobile</title>
<!-- Node1 -->
<g id="node1" class="node">
<title>Node1</title>
<g id="a_node1"><a xlink:title=" ">
<polygon fill="#999999" stroke="#666666" points="53,-76 0,-76 0,-57 53,-57 53,-76"/>
<text text-anchor="middle" x="26.5" y="-64" font-family="Helvetica,sans-Serif" font-size="10.00">isMobile</text>
</a>
</g>
</g>
<!-- Node2 -->
<g id="node2" class="node">
<title>Node2</title>
<g id="a_node2"><a xlink:href="class_o_c_a_1_1_c_a_f_e_v_d_b_1_1_service_1_1_phone_number_service.html#a1f54caac71fbe16692d752e9648eaaf5" target="_top" xlink:title=" ">
<polygon fill="white" stroke="#666666" points="243,-95 175,-95 175,-76 243,-76 243,-95"/>
<text text-anchor="middle" x="209" y="-83" font-family="Helvetica,sans-Serif" font-size="10.00">getBackend</text>
</a>
</g>
</g>
<!-- Node1&#45;&gt;Node2 -->
<g id="edge1" class="edge">
<title>Node1&#45;&gt;Node2</title>
<path fill="none" stroke="#63b8ff" d="M53.36,-69.22C82,-72.24 128.69,-77.15 163.28,-80.79"/>
<polygon fill="#63b8ff" stroke="#63b8ff" points="162.69,-84.25 173,-81.82 163.42,-77.29 162.69,-84.25"/>
</g>
<!-- Node4 -->
<g id="node4" class="node">
<title>Node4</title>
<g id="a_node4"><a xlink:href="class_o_c_a_1_1_c_a_f_e_v_d_b_1_1_service_1_1_phone_number_service.html#a8c950d27bc55749ec38cd0ade17222f5" target="_top" xlink:title=" ">
<polygon fill="white" stroke="#666666" points="139,-57 89,-57 89,-38 139,-38 139,-57"/>
<text text-anchor="middle" x="114" y="-45" font-family="Helvetica,sans-Serif" font-size="10.00">validate</text>
</a>
</g>
</g>
<!-- Node1&#45;&gt;Node4 -->
<g id="edge3" class="edge">
<title>Node1&#45;&gt;Node4</title>
<path fill="none" stroke="#63b8ff" d="M53.15,-60.8C60.78,-59.11 69.27,-57.22 77.4,-55.41"/>
<polygon fill="#63b8ff" stroke="#63b8ff" points="78.06,-58.85 87.06,-53.26 76.54,-52.02 78.06,-58.85"/>
</g>
<!-- Node3 -->
<g id="node3" class="node">
<title>Node3</title>
<g id="a_node3"><a xlink:href="class_o_c_a_1_1_c_a_f_e_v_d_b_1_1_service_1_1_phone_number_service.html#a08a954d92f510f5df4e347a7557ba5e8" target="_top" xlink:title=" ">
<polygon fill="white" stroke="#666666" points="496,-57 407,-57 407,-38 496,-38 496,-57"/>
<text text-anchor="middle" x="451.5" y="-45" font-family="Helvetica,sans-Serif" font-size="10.00">initializeDefaults</text>
</a>
</g>
</g>
<!-- Node2&#45;&gt;Node3 -->
<g id="edge2" class="edge">
<title>Node2&#45;&gt;Node3</title>
<path fill="none" stroke="#63b8ff" d="M243.47,-82.7C276.15,-79.7 327.22,-74.29 371,-66.5 380.95,-64.73 391.51,-62.48 401.58,-60.14"/>
<polygon fill="#63b8ff" stroke="#63b8ff" points="402.29,-63.57 411.21,-57.85 400.67,-56.76 402.29,-63.57"/>
</g>
<!-- Node4&#45;&gt;Node2 -->
<g id="edge4" class="edge">
<title>Node4&#45;&gt;Node2</title>
<path fill="none" stroke="#63b8ff" d="M139.43,-57.48C149.79,-61.72 162.05,-66.73 173.32,-71.33"/>
<polygon fill="#63b8ff" stroke="#63b8ff" points="171.75,-74.47 182.33,-75.01 174.39,-67.99 171.75,-74.47"/>
</g>
<!-- Node5 -->
<g id="node5" class="node">
<title>Node5</title>
<g id="a_node5"><a xlink:href="class_o_c_a_1_1_c_a_f_e_v_d_b_1_1_service_1_1_phone_number_service.html#a17afded57ab95f68179da65bde0e5f0c" target="_top" xlink:title=" ">
<polygon fill="white" stroke="#666666" points="371,-57 279,-57 279,-38 371,-38 371,-57"/>
<text text-anchor="middle" x="325" y="-45" font-family="Helvetica,sans-Serif" font-size="10.00">getDefaultRegion</text>
</a>
</g>
</g>
<!-- Node4&#45;&gt;Node5 -->
<g id="edge5" class="edge">
<title>Node4&#45;&gt;Node5</title>
<path fill="none" stroke="#63b8ff" d="M139.38,-47.5C170.49,-47.5 225.25,-47.5 267.08,-47.5"/>
<polygon fill="#63b8ff" stroke="#63b8ff" points="267,-51 277,-47.5 267,-44 267,-51"/>
</g>
<!-- Node6 -->
<g id="node6" class="node">
<title>Node6</title>
<g id="a_node6"><a xlink:href="class_o_c_a_1_1_c_a_f_e_v_d_b_1_1_service_1_1_phone_number_service.html#a5e70683882a307d0d4c7ef1b3e546747" target="_top" xlink:title="Add the default area code if the number does not start with + or 0, and do some other normalization,...">
<polygon fill="white" stroke="#666666" points="238.5,-19 179.5,-19 179.5,0 238.5,0 238.5,-19"/>
<text text-anchor="middle" x="209" y="-7" font-family="Helvetica,sans-Serif" font-size="10.00">normalize</text>
</a>
</g>
</g>
<!-- Node4&#45;&gt;Node6 -->
<g id="edge7" class="edge">
<title>Node4&#45;&gt;Node6</title>
<path fill="none" stroke="#63b8ff" d="M139.43,-37.52C149.79,-33.28 162.05,-28.27 173.32,-23.67"/>
<polygon fill="#63b8ff" stroke="#63b8ff" points="174.39,-27.01 182.33,-19.99 171.75,-20.53 174.39,-27.01"/>
</g>
<!-- Node5&#45;&gt;Node3 -->
<g id="edge6" class="edge">
<title>Node5&#45;&gt;Node3</title>
<path fill="none" stroke="#63b8ff" d="M371.3,-47.5C379.14,-47.5 387.38,-47.5 395.45,-47.5"/>
<polygon fill="#63b8ff" stroke="#63b8ff" points="395.18,-51 405.18,-47.5 395.18,-44 395.18,-51"/>
</g>
<!-- Node7 -->
<g id="node7" class="node">
<title>Node7</title>
<g id="a_node7"><a xlink:href="class_o_c_a_1_1_c_a_f_e_v_d_b_1_1_service_1_1_phone_number_service.html#a97eaa8dc5677e033634c7b612474b521" target="_top" xlink:title=" ">
<polygon fill="white" stroke="#666666" points="368.5,-20 281.5,-20 281.5,-1 368.5,-1 368.5,-20"/>
<text text-anchor="middle" x="325" y="-8" font-family="Helvetica,sans-Serif" font-size="10.00">getDefaultPrefix</text>
</a>
</g>
</g>
<!-- Node6&#45;&gt;Node7 -->
<g id="edge8" class="edge">
<title>Node6&#45;&gt;Node7</title>
<path fill="none" stroke="#63b8ff" d="M238.77,-9.75C248.16,-9.83 258.93,-9.93 269.58,-10.02"/>
<polygon fill="#63b8ff" stroke="#63b8ff" points="269.47,-13.52 279.5,-10.11 269.53,-6.52 269.47,-13.52"/>
</g>
<!-- Node7&#45;&gt;Node3 -->
<g id="edge9" class="edge">
<title>Node7&#45;&gt;Node3</title>
<path fill="none" stroke="#63b8ff" d="M359.36,-20.42C373.74,-24.69 390.75,-29.74 406.17,-34.32"/>
<polygon fill="#63b8ff" stroke="#63b8ff" points="405.01,-37.63 415.59,-37.13 407,-30.92 405.01,-37.63"/>
</g>
</g>
</svg>
