<?xml version="1.0" encoding="UTF-8" standalone="no"?>
<!DOCTYPE svg PUBLIC "-//W3C//DTD SVG 1.1//EN"
 "http://www.w3.org/Graphics/SVG/1.1/DTD/svg11.dtd">
<!-- Generated by graphviz version 9.0.0 (20230911.1827)
 -->
<!-- Title: SepaBankAccount Pages: 1 -->
<svg width="164pt" height="140pt"
 viewBox="0.00 0.00 164.25 140.00" xmlns="http://www.w3.org/2000/svg" xmlns:xlink="http://www.w3.org/1999/xlink">
<g id="graph0" class="graph" transform="scale(1 1) rotate(0) translate(4 136)">
<title>SepaBankAccount</title>
<!-- Node1 -->
<g id="Node000001" class="node">
<title>Node1</title>
<g id="a_Node000001"><a xlink:title="DO NOT EDIT THIS FILE &#45; IT WAS CREATED BY DOCTRINE&#39;S PROXY GENERATOR.">
<polygon fill="#999999" stroke="#666666" points="140,-20 43,-20 43,0 140,0 140,-20"/>
<text text-anchor="middle" x="91.5" y="-6.5" font-family="Helvetica,sans-Serif" font-size="10.00">SepaBankAccount</text>
</a>
</g>
</g>
<!-- Node2 -->
<g id="Node000002" class="node">
<title>Node2</title>
<g id="a_Node000002"><a xlink:href="class_o_c_a_1_1_c_a_f_e_v_d_b_1_1_database_1_1_doctrine_1_1_o_r_m_1_1_entities_1_1_sepa_bank_account.html" target="_top" xlink:title="SepaBankAccount.">
<polygon fill="white" stroke="#666666" points="97,-76 0,-76 0,-56 97,-56 97,-76"/>
<text text-anchor="middle" x="48.5" y="-62.5" font-family="Helvetica,sans-Serif" font-size="10.00">SepaBankAccount</text>
</a>
</g>
</g>
<!-- Node2&#45;&gt;Node1 -->
<g id="edge1_Node000001_Node000002" class="edge">
<title>Node2&#45;&gt;Node1</title>
<g id="a_edge1_Node000001_Node000002"><a xlink:title=" ">
<path fill="none" stroke="#63b8ff" d="M63.06,-46.72C70.13,-37.84 78.32,-27.55 84.1,-20.3"/>
<polygon fill="#63b8ff" stroke="#63b8ff" points="60.42,-44.41 56.93,-54.41 65.9,-48.77 60.42,-44.41"/>
</a>
</g>
</g>
<!-- Node3 -->
<g id="Node000003" class="node">
<title>Node3</title>
<g id="a_Node000003"><a xlink:title=" ">
<polygon fill="white" stroke="#bfbfbf" points="84.62,-132 12.38,-132 12.38,-112 84.62,-112 84.62,-132"/>
<text text-anchor="middle" x="48.5" y="-118.5" font-family="Helvetica,sans-Serif" font-size="10.00">ArrayAccess</text>
</a>
</g>
</g>
<!-- Node3&#45;&gt;Node2 -->
<g id="edge2_Node000002_Node000003" class="edge">
<title>Node3&#45;&gt;Node2</title>
<g id="a_edge2_Node000002_Node000003"><a xlink:title=" ">
<path fill="none" stroke="#63b8ff" d="M48.5,-100.13C48.5,-91.9 48.5,-82.85 48.5,-76.3"/>
<polygon fill="#63b8ff" stroke="#63b8ff" points="45,-100.08 48.5,-110.08 52,-100.08 45,-100.08"/>
</a>
</g>
</g>
<!-- Node4 -->
<g id="Node000004" class="node">
<title>Node4</title>
<g id="a_Node000004"><a xlink:title=" ">
<polygon fill="white" stroke="#bfbfbf" points="156.25,-76 114.75,-76 114.75,-56 156.25,-56 156.25,-76"/>
<text text-anchor="middle" x="135.5" y="-62.5" font-family="Helvetica,sans-Serif" font-size="10.00">Proxy</text>
</a>
</g>
</g>
<!-- Node4&#45;&gt;Node1 -->
<g id="edge3_Node000001_Node000004" class="edge">
<title>Node4&#45;&gt;Node1</title>
<g id="a_edge3_Node000001_Node000004"><a xlink:title=" ">
<path fill="none" stroke="#63b8ff" d="M120.61,-46.72C113.37,-37.84 104.98,-27.55 99.08,-20.3"/>
<polygon fill="#63b8ff" stroke="#63b8ff" points="117.85,-48.88 126.88,-54.42 123.28,-44.46 117.85,-48.88"/>
</a>
</g>
</g>
</g>
</svg>
