<?xml version="1.0" encoding="UTF-8" standalone="no"?>
<!DOCTYPE svg PUBLIC "-//W3C//DTD SVG 1.1//EN"
 "http://www.w3.org/Graphics/SVG/1.1/DTD/svg11.dtd">
<!-- Generated by graphviz version 8.0.3 (20230416.2022)
 -->
<!-- Title: substituteAnnouncementsMailingList Pages: 1 -->
<svg width="508pt" height="175pt"
 viewBox="0.00 0.00 508.00 175.00" xmlns="http://www.w3.org/2000/svg" xmlns:xlink="http://www.w3.org/1999/xlink">
<g id="graph0" class="graph" transform="scale(1 1) rotate(0) translate(4 171)">
<title>substituteAnnouncementsMailingList</title>
<!-- Node1 -->
<g id="node1" class="node">
<title>Node1</title>
<g id="a_node1"><a xlink:title="Substitute the recipients by the announcements mailing list if possible.">
<polygon fill="#999999" stroke="#666666" points="176,-93 0,-93 0,-74 176,-74 176,-93"/>
<text text-anchor="middle" x="88" y="-81" font-family="Helvetica,sans-Serif" font-size="10.00">substituteAnnouncementsMailingList</text>
</a>
</g>
</g>
<!-- Node2 -->
<g id="node2" class="node">
<title>Node2</title>
<g id="a_node2"><a xlink:href="class_o_c_a_1_1_c_a_f_e_v_d_b_1_1_email_form_1_1_recipients_filter.html#ac721d278c1106843d05dc3b9176b5fb9" target="_top" xlink:title=" ">
<polygon fill="white" stroke="#666666" points="344,-167 212,-167 212,-148 344,-148 344,-167"/>
<text text-anchor="middle" x="278" y="-155" font-family="Helvetica,sans-Serif" font-size="10.00">announcementsMailingList</text>
</a>
</g>
</g>
<!-- Node1&#45;&gt;Node2 -->
<g id="edge1" class="edge">
<title>Node1&#45;&gt;Node2</title>
<path fill="none" stroke="#63b8ff" d="M108.2,-93.39C132.08,-105.41 174.29,-125.79 212,-139.5 216.77,-141.23 221.79,-142.9 226.83,-144.46"/>
<polygon fill="#63b8ff" stroke="#63b8ff" points="225.57,-148.04 236.16,-147.53 227.57,-141.33 225.57,-148.04"/>
</g>
<!-- Node3 -->
<g id="node3" class="node">
<title>Node3</title>
<g id="a_node3"><a xlink:href="class_o_c_a_1_1_c_a_f_e_v_d_b_1_1_email_form_1_1_recipients_filter.html#a0835860e0bc6047f3eff6a9941dbbcf4" target="_top" xlink:title=" ">
<polygon fill="white" stroke="#666666" points="321,-130 235,-130 235,-111 321,-111 321,-130"/>
<text text-anchor="middle" x="278" y="-118" font-family="Helvetica,sans-Serif" font-size="10.00">defaultByStatus</text>
</a>
</g>
</g>
<!-- Node1&#45;&gt;Node3 -->
<g id="edge2" class="edge">
<title>Node1&#45;&gt;Node3</title>
<path fill="none" stroke="#63b8ff" d="M139.38,-93.42C165.57,-98.57 197.57,-104.87 224.12,-110.09"/>
<polygon fill="#63b8ff" stroke="#63b8ff" points="223.27,-113.69 233.75,-112.19 224.62,-106.82 223.27,-113.69"/>
</g>
<!-- Node5 -->
<g id="node5" class="node">
<title>Node5</title>
<g id="a_node5"><a xlink:href="class_o_c_a_1_1_c_a_f_e_v_d_b_1_1_email_form_1_1_recipients_filter.html#a87e968763c59bd64b366af7d5a17598f" target="_top" xlink:title=" ">
<polygon fill="white" stroke="#666666" points="339,-93 217,-93 217,-74 339,-74 339,-93"/>
<text text-anchor="middle" x="278" y="-81" font-family="Helvetica,sans-Serif" font-size="10.00">emailRecipientsChoices</text>
</a>
</g>
</g>
<!-- Node1&#45;&gt;Node5 -->
<g id="edge4" class="edge">
<title>Node1&#45;&gt;Node5</title>
<path fill="none" stroke="#63b8ff" d="M176.4,-83.5C186.29,-83.5 196.28,-83.5 205.93,-83.5"/>
<polygon fill="#63b8ff" stroke="#63b8ff" points="205.65,-87 215.65,-83.5 205.65,-80 205.65,-87"/>
</g>
<!-- Node7 -->
<g id="node7" class="node">
<title>Node7</title>
<g id="a_node7"><a xlink:href="class_o_c_a_1_1_c_a_f_e_v_d_b_1_1_email_form_1_1_recipients_filter.html#a2765950b3322c101496bb711b89709ed" target="_top" xlink:title=" ">
<polygon fill="white" stroke="#666666" points="322.5,-56 233.5,-56 233.5,-37 322.5,-37 322.5,-56"/>
<text text-anchor="middle" x="278" y="-44" font-family="Helvetica,sans-Serif" font-size="10.00">instrumentsFilter</text>
</a>
</g>
</g>
<!-- Node1&#45;&gt;Node7 -->
<g id="edge6" class="edge">
<title>Node1&#45;&gt;Node7</title>
<path fill="none" stroke="#63b8ff" d="M139.38,-73.58C165.1,-68.52 196.41,-62.36 222.66,-57.19"/>
<polygon fill="#63b8ff" stroke="#63b8ff" points="223.06,-60.49 232.2,-55.12 221.71,-53.62 223.06,-60.49"/>
</g>
<!-- Node8 -->
<g id="node8" class="node">
<title>Node8</title>
<g id="a_node8"><a xlink:href="class_o_c_a_1_1_c_a_f_e_v_d_b_1_1_email_form_1_1_recipients_filter.html#a85f86aca4c8ab5404203209c76241c7e" target="_top" xlink:title=" ">
<polygon fill="white" stroke="#666666" points="328,-19 228,-19 228,0 328,0 328,-19"/>
<text text-anchor="middle" x="278" y="-7" font-family="Helvetica,sans-Serif" font-size="10.00">selectedRecipients</text>
</a>
</g>
</g>
<!-- Node1&#45;&gt;Node8 -->
<g id="edge8" class="edge">
<title>Node1&#45;&gt;Node8</title>
<path fill="none" stroke="#63b8ff" d="M108.68,-73.7C132.68,-61.98 174.68,-42.23 212,-28.5 217.52,-26.47 223.36,-24.51 229.19,-22.67"/>
<polygon fill="#63b8ff" stroke="#63b8ff" points="230.05,-25.76 238.59,-19.49 228.01,-19.06 230.05,-25.76"/>
</g>
<!-- Node4 -->
<g id="node4" class="node">
<title>Node4</title>
<g id="a_node4"><a xlink:href="class_o_c_a_1_1_c_a_f_e_v_d_b_1_1_email_form_1_1_recipients_filter.html#a75227e334f1b3d4bd04bcc2ddf2c9c5d" target="_top" xlink:title=" ">
<polygon fill="white" stroke="#666666" points="500,-130 380,-130 380,-111 500,-111 500,-130"/>
<text text-anchor="middle" x="440" y="-118" font-family="Helvetica,sans-Serif" font-size="10.00">recipientsExceptProject</text>
</a>
</g>
</g>
<!-- Node3&#45;&gt;Node4 -->
<g id="edge3" class="edge">
<title>Node3&#45;&gt;Node4</title>
<path fill="none" stroke="#63b8ff" d="M321.46,-120.5C336.11,-120.5 352.95,-120.5 369.21,-120.5"/>
<polygon fill="#63b8ff" stroke="#63b8ff" points="368.78,-124 378.78,-120.5 368.78,-117 368.78,-124"/>
</g>
<!-- Node6 -->
<g id="node6" class="node">
<title>Node6</title>
<g id="a_node6"><a xlink:href="class_o_c_a_1_1_c_a_f_e_v_d_b_1_1_email_form_1_1_recipients_filter.html#a1497fe5acb2403ca1873ec2fd4b790fe" target="_top" xlink:title="Fetch a CGI&#45;variable out of the form&#45;select name&#45;space.">
<polygon fill="white" stroke="#666666" points="466.5,-56 413.5,-56 413.5,-37 466.5,-37 466.5,-56"/>
<text text-anchor="middle" x="440" y="-44" font-family="Helvetica,sans-Serif" font-size="10.00">cgiValue</text>
</a>
</g>
</g>
<!-- Node5&#45;&gt;Node6 -->
<g id="edge5" class="edge">
<title>Node5&#45;&gt;Node6</title>
<path fill="none" stroke="#63b8ff" d="M321.88,-73.58C347.08,-67.76 378.61,-60.47 402.6,-54.92"/>
<polygon fill="#63b8ff" stroke="#63b8ff" points="403.09,-58.17 412.04,-52.5 401.51,-51.35 403.09,-58.17"/>
</g>
<!-- Node7&#45;&gt;Node6 -->
<g id="edge7" class="edge">
<title>Node7&#45;&gt;Node6</title>
<path fill="none" stroke="#63b8ff" d="M322.72,-46.5C347.69,-46.5 378.64,-46.5 402.33,-46.5"/>
<polygon fill="#63b8ff" stroke="#63b8ff" points="402.32,-50 412.32,-46.5 402.32,-43 402.32,-50"/>
</g>
<!-- Node8&#45;&gt;Node6 -->
<g id="edge9" class="edge">
<title>Node8&#45;&gt;Node6</title>
<path fill="none" stroke="#63b8ff" d="M321.88,-19.42C347.08,-25.24 378.61,-32.53 402.6,-38.08"/>
<polygon fill="#63b8ff" stroke="#63b8ff" points="401.51,-41.65 412.04,-40.5 403.09,-34.83 401.51,-41.65"/>
</g>
</g>
</svg>
