<?xml version="1.0" encoding="UTF-8" standalone="no"?>
<!DOCTYPE svg PUBLIC "-//W3C//DTD SVG 1.1//EN"
 "http://www.w3.org/Graphics/SVG/1.1/DTD/svg11.dtd">
<!-- Generated by graphviz version 7.1.0 (20230121.1956)
 -->
<!-- Title: getUnapplied Pages: 1 -->
<svg width="525pt" height="27pt"
 viewBox="0.00 0.00 525.00 27.00" xmlns="http://www.w3.org/2000/svg" xmlns:xlink="http://www.w3.org/1999/xlink">
<g id="graph0" class="graph" transform="scale(1 1) rotate(0) translate(4 23)">
<title>getUnapplied</title>
<!-- Node1 -->
<g id="node1" class="node">
<title>Node1</title>
<g id="a_node1"><a xlink:title=" ">
<polygon fill="#999999" stroke="#666666" points="74,-19 0,-19 0,0 74,0 74,-19"/>
<text text-anchor="middle" x="37" y="-7" font-family="Helvetica,sans-Serif" font-size="10.00">getUnapplied</text>
</a>
</g>
</g>
<!-- Node2 -->
<g id="node2" class="node">
<title>Node2</title>
<g id="a_node2"><a xlink:href="class_o_c_a_1_1_c_a_f_e_v_d_b_1_1_service_1_1_migrations_service.html#a926abdf64e718f3405a12bcdaa87be51" target="_top" xlink:title="Ensure all unapplied migrations are loaded.">
<polygon fill="white" stroke="#666666" points="247,-19 110,-19 110,0 247,0 247,-19"/>
<text text-anchor="middle" x="178.5" y="-7" font-family="Helvetica,sans-Serif" font-size="10.00">ensureMigrationsAreLoaded</text>
</a>
</g>
</g>
<!-- Node1&#45;&gt;Node2 -->
<g id="edge1" class="edge">
<title>Node1&#45;&gt;Node2</title>
<path fill="none" stroke="#63b8ff" d="M74.29,-9.5C81.78,-9.5 89.95,-9.5 98.3,-9.5"/>
<polygon fill="#63b8ff" stroke="#63b8ff" points="98.24,-13 108.24,-9.5 98.24,-6 98.24,-13"/>
</g>
<!-- Node3 -->
<g id="node3" class="node">
<title>Node3</title>
<g id="a_node3"><a xlink:href="class_o_c_a_1_1_c_a_f_e_v_d_b_1_1_service_1_1_migrations_service.html#a5a9dff6c1ff549453de63b85b2ece1a0" target="_top" xlink:title="Find all unapplied migrations.">
<polygon fill="white" stroke="#666666" points="404,-19 283,-19 283,0 404,0 404,-19"/>
<text text-anchor="middle" x="343.5" y="-7" font-family="Helvetica,sans-Serif" font-size="10.00">findUnappliedMigrations</text>
</a>
</g>
</g>
<!-- Node2&#45;&gt;Node3 -->
<g id="edge2" class="edge">
<title>Node2&#45;&gt;Node3</title>
<path fill="none" stroke="#63b8ff" d="M247.21,-9.5C255.09,-9.5 263.14,-9.5 271.06,-9.5"/>
<polygon fill="#63b8ff" stroke="#63b8ff" points="271.03,-13 281.03,-9.5 271.03,-6 271.03,-13"/>
</g>
<!-- Node4 -->
<g id="node4" class="node">
<title>Node4</title>
<g id="a_node4"><a xlink:href="class_o_c_a_1_1_c_a_f_e_v_d_b_1_1_service_1_1_migrations_service.html#af398c267dc84e9a97bf2a48a46871dcf" target="_top" xlink:title=" ">
<polygon fill="white" stroke="#666666" points="517,-19 440,-19 440,0 517,0 517,-19"/>
<text text-anchor="middle" x="478.5" y="-7" font-family="Helvetica,sans-Serif" font-size="10.00">findMigrations</text>
</a>
</g>
</g>
<!-- Node3&#45;&gt;Node4 -->
<g id="edge3" class="edge">
<title>Node3&#45;&gt;Node4</title>
<path fill="none" stroke="#63b8ff" d="M404.39,-9.5C412.35,-9.5 420.45,-9.5 428.21,-9.5"/>
<polygon fill="#63b8ff" stroke="#63b8ff" points="428.15,-13 438.15,-9.5 428.15,-6 428.15,-13"/>
</g>
</g>
</svg>
