<?xml version="1.0" encoding="UTF-8" standalone="no"?>
<!DOCTYPE svg PUBLIC "-//W3C//DTD SVG 1.1//EN"
 "http://www.w3.org/Graphics/SVG/1.1/DTD/svg11.dtd">
<!-- Generated by graphviz version 7.1.0 (20230121.1956)
 -->
<!-- Title: encryptionService Pages: 1 -->
<svg width="397pt" height="434pt"
 viewBox="0.00 0.00 397.00 434.00" xmlns="http://www.w3.org/2000/svg" xmlns:xlink="http://www.w3.org/1999/xlink">
<g id="graph0" class="graph" transform="scale(1 1) rotate(0) translate(4 430)">
<title>encryptionService</title>
<!-- Node1 -->
<g id="node1" class="node">
<title>Node1</title>
<g id="a_node1"><a xlink:title=" ">
<polygon fill="#999999" stroke="#666666" points="389,-222 294,-222 294,-203 389,-203 389,-222"/>
<text text-anchor="middle" x="341.5" y="-210" font-family="Helvetica,sans-Serif" font-size="10.00">encryptionService</text>
</a>
</g>
</g>
<!-- Node2 -->
<g id="node2" class="node">
<title>Node2</title>
<g id="a_node2"><a xlink:href="class_o_c_a_1_1_c_a_f_e_v_d_b_1_1_service_1_1_config_service.html#ab50a6081ca9ae60c52dd1ef10f545a55" target="_top" xlink:title="{}">
<polygon fill="white" stroke="#666666" points="234.5,-426 166.5,-426 166.5,-407 234.5,-407 234.5,-426"/>
<text text-anchor="middle" x="200.5" y="-414" font-family="Helvetica,sans-Serif" font-size="10.00">__construct</text>
</a>
</g>
</g>
<!-- Node1&#45;&gt;Node2 -->
<g id="edge1" class="edge">
<title>Node1&#45;&gt;Node2</title>
<path fill="none" stroke="#63b8ff" d="M337,-233.45C329.52,-271.78 308.34,-353.37 258,-398.5 251.48,-404.34 243.07,-408.29 234.73,-410.95"/>
<polygon fill="#63b8ff" stroke="#63b8ff" points="340.43,-234.18 338.77,-223.72 333.54,-232.93 340.43,-234.18"/>
</g>
<!-- Node3 -->
<g id="node3" class="node">
<title>Node3</title>
<g id="a_node3"><a xlink:href="class_o_c_a_1_1_c_a_f_e_v_d_b_1_1_service_1_1_config_service.html#a8ba7d099001824ef56f56c7ddcaa9d74" target="_top" xlink:title=" ">
<polygon fill="white" stroke="#666666" points="239,-389 162,-389 162,-370 239,-370 239,-389"/>
<text text-anchor="middle" x="200.5" y="-377" font-family="Helvetica,sans-Serif" font-size="10.00">computeHash</text>
</a>
</g>
</g>
<!-- Node1&#45;&gt;Node3 -->
<g id="edge2" class="edge">
<title>Node1&#45;&gt;Node3</title>
<path fill="none" stroke="#63b8ff" d="M334.65,-232.81C324.4,-264.83 300.17,-326.92 258,-361.5 252.59,-365.94 246.06,-369.29 239.4,-371.82"/>
<polygon fill="#63b8ff" stroke="#63b8ff" points="337.9,-234.17 337.46,-223.59 331.2,-232.13 337.9,-234.17"/>
</g>
<!-- Node4 -->
<g id="node4" class="node">
<title>Node4</title>
<g id="a_node4"><a xlink:href="class_o_c_a_1_1_c_a_f_e_v_d_b_1_1_service_1_1_config_service.html#a6bb86e2db8e181097dd588e0cf327f7f" target="_top" xlink:title=" ">
<polygon fill="white" stroke="#666666" points="225,-352 176,-352 176,-333 225,-333 225,-352"/>
<text text-anchor="middle" x="200.5" y="-340" font-family="Helvetica,sans-Serif" font-size="10.00">decrypt</text>
</a>
</g>
</g>
<!-- Node1&#45;&gt;Node4 -->
<g id="edge3" class="edge">
<title>Node1&#45;&gt;Node4</title>
<path fill="none" stroke="#63b8ff" d="M330.91,-232.32C317.82,-257.35 292.04,-300.09 258,-324.5 248.38,-331.4 236,-335.73 225.28,-338.41"/>
<polygon fill="#63b8ff" stroke="#63b8ff" points="333.96,-234.05 335.34,-223.54 327.71,-230.9 333.96,-234.05"/>
</g>
<!-- Node5 -->
<g id="node5" class="node">
<title>Node5</title>
<g id="a_node5"><a xlink:href="class_o_c_a_1_1_c_a_f_e_v_d_b_1_1_service_1_1_config_service.html#a9027ef82dcfb0d54a78e1cfeab05b0e6" target="_top" xlink:title=" ">
<polygon fill="white" stroke="#666666" points="225,-315 176,-315 176,-296 225,-296 225,-315"/>
<text text-anchor="middle" x="200.5" y="-303" font-family="Helvetica,sans-Serif" font-size="10.00">encrypt</text>
</a>
</g>
</g>
<!-- Node1&#45;&gt;Node5 -->
<g id="edge4" class="edge">
<title>Node1&#45;&gt;Node5</title>
<path fill="none" stroke="#63b8ff" d="M324.57,-230.96C309.1,-247.83 284.17,-272.41 258,-287.5 247.92,-293.31 235.73,-297.5 225.26,-300.37"/>
<polygon fill="#63b8ff" stroke="#63b8ff" points="327.08,-233.4 331.13,-223.61 321.86,-228.74 327.08,-233.4"/>
</g>
<!-- Node6 -->
<g id="node6" class="node">
<title>Node6</title>
<g id="a_node6"><a xlink:href="class_o_c_a_1_1_c_a_f_e_v_d_b_1_1_service_1_1_config_service.html#a36f6754a5d7be1b744afc9c434e2448f" target="_top" xlink:title="Check the validity of the encryption key.">
<polygon fill="white" stroke="#666666" points="250.5,-278 150.5,-278 150.5,-259 250.5,-259 250.5,-278"/>
<text text-anchor="middle" x="200.5" y="-266" font-family="Helvetica,sans-Serif" font-size="10.00">encryptionKeyValid</text>
</a>
</g>
</g>
<!-- Node1&#45;&gt;Node6 -->
<g id="edge5" class="edge">
<title>Node1&#45;&gt;Node6</title>
<path fill="none" stroke="#63b8ff" d="M310.73,-227.29C295.21,-234.72 275.8,-243.6 258,-250.5 250.71,-253.33 242.76,-256.07 235.2,-258.51"/>
<polygon fill="#63b8ff" stroke="#63b8ff" points="311.96,-230.59 319.43,-223.07 308.9,-224.29 311.96,-230.59"/>
</g>
<!-- Node7 -->
<g id="node7" class="node">
<title>Node7</title>
<g id="a_node7"><a xlink:href="class_o_c_a_1_1_c_a_f_e_v_d_b_1_1_service_1_1_config_service.html#aef02d325583d49207e4852023acf572d" target="_top" xlink:title=" ">
<polygon fill="white" stroke="#666666" points="256,-241 145,-241 145,-222 256,-222 256,-241"/>
<text text-anchor="middle" x="200.5" y="-229" font-family="Helvetica,sans-Serif" font-size="10.00">getAppEncryptionKey</text>
</a>
</g>
</g>
<!-- Node1&#45;&gt;Node7 -->
<g id="edge6" class="edge">
<title>Node1&#45;&gt;Node7</title>
<path fill="none" stroke="#63b8ff" d="M282.63,-220.41C273.97,-221.59 265.07,-222.81 256.47,-223.99"/>
<polygon fill="#63b8ff" stroke="#63b8ff" points="282.89,-223.91 292.33,-219.08 281.95,-216.97 282.89,-223.91"/>
</g>
<!-- Node8 -->
<g id="node8" class="node">
<title>Node8</title>
<g id="a_node8"><a xlink:href="class_o_c_a_1_1_c_a_f_e_v_d_b_1_1_service_1_1_config_service.html#a7f3eb9937785e05b6d3e638fc187072c" target="_top" xlink:title="Get a possibly encrypted config value.">
<polygon fill="white" stroke="#666666" points="242,-204 159,-204 159,-185 242,-185 242,-204"/>
<text text-anchor="middle" x="200.5" y="-192" font-family="Helvetica,sans-Serif" font-size="10.00">getConfigValue</text>
</a>
</g>
</g>
<!-- Node1&#45;&gt;Node8 -->
<g id="edge7" class="edge">
<title>Node1&#45;&gt;Node8</title>
<path fill="none" stroke="#63b8ff" d="M282.62,-205C269.05,-203.25 254.87,-201.41 242.23,-199.77"/>
<polygon fill="#63b8ff" stroke="#63b8ff" points="281.96,-208.45 292.33,-206.26 282.86,-201.51 281.96,-208.45"/>
</g>
<!-- Node11 -->
<g id="node11" class="node">
<title>Node11</title>
<g id="a_node11"><a xlink:href="class_o_c_a_1_1_c_a_f_e_v_d_b_1_1_service_1_1_config_service.html#a89044dae403670e1950421f9500ab7e4" target="_top" xlink:title=" ">
<polygon fill="white" stroke="#666666" points="258,-167 143,-167 143,-148 258,-148 258,-167"/>
<text text-anchor="middle" x="200.5" y="-155" font-family="Helvetica,sans-Serif" font-size="10.00">getUserEncryptionKey</text>
</a>
</g>
</g>
<!-- Node1&#45;&gt;Node11 -->
<g id="edge10" class="edge">
<title>Node1&#45;&gt;Node11</title>
<path fill="none" stroke="#63b8ff" d="M308.59,-197.8C293.4,-191.01 274.9,-183.01 258,-176.5 249.89,-173.37 241.02,-170.25 232.76,-167.47"/>
<polygon fill="#63b8ff" stroke="#63b8ff" points="307.07,-200.96 317.62,-201.88 309.95,-194.58 307.07,-200.96"/>
</g>
<!-- Node12 -->
<g id="node12" class="node">
<title>Node12</title>
<g id="a_node12"><a xlink:href="class_o_c_a_1_1_c_a_f_e_v_d_b_1_1_service_1_1_config_service.html#a2aa6c9ff2a77fb30a57879783e4c20e6" target="_top" xlink:title=" ">
<polygon fill="white" stroke="#666666" points="256,-130 145,-130 145,-111 256,-111 256,-130"/>
<text text-anchor="middle" x="200.5" y="-118" font-family="Helvetica,sans-Serif" font-size="10.00">setAppEncryptionKey</text>
</a>
</g>
</g>
<!-- Node1&#45;&gt;Node12 -->
<g id="edge11" class="edge">
<title>Node1&#45;&gt;Node12</title>
<path fill="none" stroke="#63b8ff" d="M324.17,-194.39C308.57,-178.05 283.7,-154.37 258,-139.5 251.91,-135.98 245.07,-132.98 238.3,-130.49"/>
<polygon fill="#63b8ff" stroke="#63b8ff" points="321.41,-196.57 330.79,-201.5 326.54,-191.8 321.41,-196.57"/>
</g>
<!-- Node13 -->
<g id="node13" class="node">
<title>Node13</title>
<g id="a_node13"><a xlink:href="class_o_c_a_1_1_c_a_f_e_v_d_b_1_1_service_1_1_config_service.html#a792774c92dc1796e545ee29374a96402" target="_top" xlink:title=" ">
<polygon fill="white" stroke="#666666" points="242,-93 159,-93 159,-74 242,-74 242,-93"/>
<text text-anchor="middle" x="200.5" y="-81" font-family="Helvetica,sans-Serif" font-size="10.00">setConfigValue</text>
</a>
</g>
</g>
<!-- Node1&#45;&gt;Node13 -->
<g id="edge12" class="edge">
<title>Node1&#45;&gt;Node13</title>
<path fill="none" stroke="#63b8ff" d="M330.56,-192.75C317.25,-168.21 291.39,-126.63 258,-102.5 252.97,-98.86 247.19,-95.89 241.29,-93.46"/>
<polygon fill="#63b8ff" stroke="#63b8ff" points="327.33,-194.13 335.07,-201.37 333.53,-190.88 327.33,-194.13"/>
</g>
<!-- Node14 -->
<g id="node14" class="node">
<title>Node14</title>
<g id="a_node14"><a xlink:href="class_o_c_a_1_1_c_a_f_e_v_d_b_1_1_service_1_1_config_service.html#a9f1a00e1ee651021b2d9841d1249ccea" target="_top" xlink:title=" ">
<polygon fill="white" stroke="#666666" points="258,-56 143,-56 143,-37 258,-37 258,-56"/>
<text text-anchor="middle" x="200.5" y="-44" font-family="Helvetica,sans-Serif" font-size="10.00">setUserEncryptionKey</text>
</a>
</g>
</g>
<!-- Node1&#45;&gt;Node14 -->
<g id="edge14" class="edge">
<title>Node1&#45;&gt;Node14</title>
<path fill="none" stroke="#63b8ff" d="M334.36,-192.08C323.82,-160.47 299.36,-99.77 258,-65.5 253.54,-61.8 248.32,-58.81 242.9,-56.4"/>
<polygon fill="#63b8ff" stroke="#63b8ff" points="330.89,-192.74 337.26,-201.21 337.57,-190.62 330.89,-192.74"/>
</g>
<!-- Node15 -->
<g id="node15" class="node">
<title>Node15</title>
<g id="a_node15"><a xlink:href="class_o_c_a_1_1_c_a_f_e_v_d_b_1_1_service_1_1_config_service.html#af2197000ac5cbb14eb16df8e2861dc70" target="_top" xlink:title=" ">
<polygon fill="white" stroke="#666666" points="232.5,-19 168.5,-19 168.5,0 232.5,0 232.5,-19"/>
<text text-anchor="middle" x="200.5" y="-7" font-family="Helvetica,sans-Serif" font-size="10.00">verifyHash</text>
</a>
</g>
</g>
<!-- Node1&#45;&gt;Node15 -->
<g id="edge15" class="edge">
<title>Node1&#45;&gt;Node15</title>
<path fill="none" stroke="#63b8ff" d="M336.87,-191.85C329.15,-154.05 307.62,-73.52 258,-28.5 251.03,-22.17 241.87,-17.94 232.97,-15.12"/>
<polygon fill="#63b8ff" stroke="#63b8ff" points="333.38,-192.26 338.69,-201.42 340.26,-190.95 333.38,-192.26"/>
</g>
<!-- Node9 -->
<g id="node9" class="node">
<title>Node9</title>
<g id="a_node9"><a xlink:href="class_o_c_a_1_1_c_a_f_e_v_d_b_1_1_service_1_1_config_service.html#acfd177d26300298d7c2758fe04ee615b" target="_top" xlink:title="Fetch all config values and decrypt them.">
<polygon fill="white" stroke="#666666" points="107,-204 0,-204 0,-185 107,-185 107,-204"/>
<text text-anchor="middle" x="53.5" y="-192" font-family="Helvetica,sans-Serif" font-size="10.00">decryptConfigValues</text>
</a>
</g>
</g>
<!-- Node8&#45;&gt;Node9 -->
<g id="edge8" class="edge">
<title>Node8&#45;&gt;Node9</title>
<path fill="none" stroke="#63b8ff" d="M147.56,-194.5C134.52,-194.5 120.52,-194.5 107.43,-194.5"/>
<polygon fill="#63b8ff" stroke="#63b8ff" points="147.21,-198 157.21,-194.5 147.21,-191 147.21,-198"/>
</g>
<!-- Node10 -->
<g id="node10" class="node">
<title>Node10</title>
<g id="a_node10"><a xlink:href="class_o_c_a_1_1_c_a_f_e_v_d_b_1_1_service_1_1_config_service.html#a241ca6802fbc0627ec7c9baee0d3fc35" target="_top" xlink:title="Flush all configuration values to the database, possibly encrypting them.T his is only meant for use ...">
<polygon fill="white" stroke="#666666" points="107,-130 0,-130 0,-111 107,-111 107,-130"/>
<text text-anchor="middle" x="53.5" y="-118" font-family="Helvetica,sans-Serif" font-size="10.00">encryptConfigValues</text>
</a>
</g>
</g>
<!-- Node8&#45;&gt;Node10 -->
<g id="edge9" class="edge">
<title>Node8&#45;&gt;Node10</title>
<path fill="none" stroke="#63b8ff" d="M152.71,-180.64C149.39,-179.34 146.12,-177.95 143,-176.5 114.66,-163.28 84.45,-142.55 67.68,-130.36"/>
<polygon fill="#63b8ff" stroke="#63b8ff" points="151.39,-183.88 161.98,-184.01 153.78,-177.3 151.39,-183.88"/>
</g>
<!-- Node13&#45;&gt;Node10 -->
<g id="edge13" class="edge">
<title>Node13&#45;&gt;Node10</title>
<path fill="none" stroke="#63b8ff" d="M149.54,-96.25C131.19,-100.93 110.71,-106.16 93.46,-110.56"/>
<polygon fill="#63b8ff" stroke="#63b8ff" points="150.35,-99.65 159.18,-93.79 148.62,-92.87 150.35,-99.65"/>
</g>
</g>
</svg>
