<?xml version="1.0" encoding="UTF-8" standalone="no"?>
<!DOCTYPE svg PUBLIC "-//W3C//DTD SVG 1.1//EN"
 "http://www.w3.org/Graphics/SVG/1.1/DTD/svg11.dtd">
<!-- Generated by graphviz version 7.1.0 (20230121.1956)
 -->
<!-- Title: getServerVersions Pages: 1 -->
<svg width="379pt" height="64pt"
 viewBox="0.00 0.00 379.00 64.00" xmlns="http://www.w3.org/2000/svg" xmlns:xlink="http://www.w3.org/1999/xlink">
<g id="graph0" class="graph" transform="scale(1 1) rotate(0) translate(4 60)">
<title>getServerVersions</title>
<!-- Node1 -->
<g id="node1" class="node">
<title>Node1</title>
<g id="a_node1"><a xlink:title=" ">
<polygon fill="#999999" stroke="#666666" points="371,-37 274,-37 274,-18 371,-18 371,-37"/>
<text text-anchor="middle" x="322.5" y="-25" font-family="Helvetica,sans-Serif" font-size="10.00">getServerVersions</text>
</a>
</g>
</g>
<!-- Node2 -->
<g id="node2" class="node">
<title>Node2</title>
<g id="a_node2"><a xlink:href="class_o_c_a_1_1_c_a_f_e_v_d_b_1_1_service_1_1_mailing_lists_service.html#aae6bb5b400c885119ac384eb304b42dd" target="_top" xlink:title="Subscribe a victim to the email&#45;list.">
<polygon fill="white" stroke="#666666" points="238,-37 179,-37 179,-18 238,-18 238,-37"/>
<text text-anchor="middle" x="208.5" y="-25" font-family="Helvetica,sans-Serif" font-size="10.00">subscribe</text>
</a>
</g>
</g>
<!-- Node1&#45;&gt;Node2 -->
<g id="edge1" class="edge">
<title>Node1&#45;&gt;Node2</title>
<path fill="none" stroke="#63b8ff" d="M262.34,-27.5C254.01,-27.5 245.78,-27.5 238.38,-27.5"/>
<polygon fill="#63b8ff" stroke="#63b8ff" points="262.16,-31 272.16,-27.5 262.16,-24 262.16,-31"/>
</g>
<!-- Node3 -->
<g id="node3" class="node">
<title>Node3</title>
<g id="a_node3"><a xlink:href="class_o_c_a_1_1_c_a_f_e_v_d_b_1_1_service_1_1_mailing_lists_service.html#a9dcedfe5d7713b75758ec7098197aa8b" target="_top" xlink:title="Configure the given list as an announcements&#45;only list.">
<polygon fill="white" stroke="#666666" points="143,-56 0,-56 0,-37 143,-37 143,-56"/>
<text text-anchor="middle" x="71.5" y="-44" font-family="Helvetica,sans-Serif" font-size="10.00">configureAnnouncementsList</text>
</a>
</g>
</g>
<!-- Node2&#45;&gt;Node3 -->
<g id="edge2" class="edge">
<title>Node2&#45;&gt;Node3</title>
<path fill="none" stroke="#63b8ff" d="M167.16,-33.18C159.6,-34.24 151.48,-35.38 143.3,-36.54"/>
<polygon fill="#63b8ff" stroke="#63b8ff" points="167.63,-36.65 177.04,-31.79 166.65,-29.71 167.63,-36.65"/>
</g>
<!-- Node4 -->
<g id="node4" class="node">
<title>Node4</title>
<g id="a_node4"><a xlink:href="class_o_c_a_1_1_c_a_f_e_v_d_b_1_1_service_1_1_mailing_lists_service.html#ad9ddb4782eae69fecac300b4851f524a" target="_top" xlink:title="Just send an invitation.">
<polygon fill="white" stroke="#666666" points="91.5,-19 51.5,-19 51.5,0 91.5,0 91.5,-19"/>
<text text-anchor="middle" x="71.5" y="-7" font-family="Helvetica,sans-Serif" font-size="10.00">invite</text>
</a>
</g>
</g>
<!-- Node2&#45;&gt;Node4 -->
<g id="edge3" class="edge">
<title>Node2&#45;&gt;Node4</title>
<path fill="none" stroke="#63b8ff" d="M167.21,-22.13C142.29,-18.81 111.43,-14.69 91.84,-12.08"/>
<polygon fill="#63b8ff" stroke="#63b8ff" points="166.66,-25.59 177.04,-23.44 167.59,-18.65 166.66,-25.59"/>
</g>
</g>
</svg>
