<?xml version="1.0" encoding="UTF-8" standalone="no"?>
<!DOCTYPE svg PUBLIC "-//W3C//DTD SVG 1.1//EN"
 "http://www.w3.org/Graphics/SVG/1.1/DTD/svg11.dtd">
<!-- Generated by graphviz version 8.0.3 (20230416.2022)
 -->
<!-- Title: onProjectUpdated Pages: 1 -->
<svg width="262pt" height="167pt"
 viewBox="0.00 0.00 262.00 167.00" xmlns="http://www.w3.org/2000/svg" xmlns:xlink="http://www.w3.org/1999/xlink">
<g id="graph0" class="graph" transform="scale(1 1) rotate(0) translate(4 163)">
<title>onProjectUpdated</title>
<!-- Node1 -->
<g id="node1" class="node">
<title>Node1</title>
<g id="a_node1"><a xlink:title=" ">
<polygon fill="#999999" stroke="#666666" points="95,-89 0,-89 0,-70 95,-70 95,-89"/>
<text text-anchor="middle" x="47.5" y="-77" font-family="Helvetica,sans-Serif" font-size="10.00">onProjectUpdated</text>
</a>
</g>
</g>
<!-- Node2 -->
<g id="node2" class="node">
<title>Node2</title>
<g id="a_node2"><a xlink:href="class_o_c_a_1_1_c_a_f_e_v_d_b_1_1_events_1_1_project_updated_event.html#af21741991f3f923a2c6932f3545629bf" target="_top" xlink:title=" ">
<polygon fill="white" stroke="#666666" points="254,-159 131,-159 131,-118 254,-118 254,-159"/>
<text text-anchor="start" x="139" y="-147" font-family="Helvetica,sans-Serif" font-size="10.00">OCA\CAFEVDB\Events</text>
<text text-anchor="start" x="139" y="-136" font-family="Helvetica,sans-Serif" font-size="10.00">\ProjectUpdatedEvent</text>
<text text-anchor="middle" x="192.5" y="-125" font-family="Helvetica,sans-Serif" font-size="10.00">\getNewData</text>
</a>
</g>
</g>
<!-- Node1&#45;&gt;Node2 -->
<g id="edge1" class="edge">
<title>Node1&#45;&gt;Node2</title>
<path fill="none" stroke="#63b8ff" d="M72.43,-89.38C88.42,-95.97 110.22,-104.96 130.8,-113.45"/>
<polygon fill="#63b8ff" stroke="#63b8ff" points="129.19,-116.99 139.77,-117.57 131.86,-110.52 129.19,-116.99"/>
</g>
<!-- Node3 -->
<g id="node3" class="node">
<title>Node3</title>
<g id="a_node3"><a xlink:href="class_o_c_a_1_1_c_a_f_e_v_d_b_1_1_events_1_1_project_updated_event.html#a56d8b5b6d841cbdb23634f7a6e19fd64" target="_top" xlink:title=" ">
<polygon fill="white" stroke="#666666" points="254,-100 131,-100 131,-59 254,-59 254,-100"/>
<text text-anchor="start" x="139" y="-88" font-family="Helvetica,sans-Serif" font-size="10.00">OCA\CAFEVDB\Events</text>
<text text-anchor="start" x="139" y="-77" font-family="Helvetica,sans-Serif" font-size="10.00">\ProjectUpdatedEvent</text>
<text text-anchor="middle" x="192.5" y="-66" font-family="Helvetica,sans-Serif" font-size="10.00">\getOldData</text>
</a>
</g>
</g>
<!-- Node1&#45;&gt;Node3 -->
<g id="edge2" class="edge">
<title>Node1&#45;&gt;Node3</title>
<path fill="none" stroke="#63b8ff" d="M95.32,-79.5C103.14,-79.5 111.4,-79.5 119.67,-79.5"/>
<polygon fill="#63b8ff" stroke="#63b8ff" points="119.51,-83 129.51,-79.5 119.51,-76 119.51,-83"/>
</g>
<!-- Node4 -->
<g id="node4" class="node">
<title>Node4</title>
<g id="a_node4"><a xlink:href="class_o_c_a_1_1_c_a_f_e_v_d_b_1_1_events_1_1_project_updated_event.html#aa36d0ad33bee7c190d64f0bfcb4ecb79" target="_top" xlink:title=" ">
<polygon fill="white" stroke="#666666" points="254,-41 131,-41 131,0 254,0 254,-41"/>
<text text-anchor="start" x="139" y="-29" font-family="Helvetica,sans-Serif" font-size="10.00">OCA\CAFEVDB\Events</text>
<text text-anchor="start" x="139" y="-18" font-family="Helvetica,sans-Serif" font-size="10.00">\ProjectUpdatedEvent</text>
<text text-anchor="middle" x="192.5" y="-7" font-family="Helvetica,sans-Serif" font-size="10.00">\getProjectId</text>
</a>
</g>
</g>
<!-- Node1&#45;&gt;Node4 -->
<g id="edge3" class="edge">
<title>Node1&#45;&gt;Node4</title>
<path fill="none" stroke="#63b8ff" d="M72.43,-69.62C88.42,-63.03 110.22,-54.04 130.8,-45.55"/>
<polygon fill="#63b8ff" stroke="#63b8ff" points="131.86,-48.48 139.77,-41.43 129.19,-42.01 131.86,-48.48"/>
</g>
</g>
</svg>
