<?xml version="1.0" encoding="UTF-8" standalone="no"?>
<!DOCTYPE svg PUBLIC "-//W3C//DTD SVG 1.1//EN"
 "http://www.w3.org/Graphics/SVG/1.1/DTD/svg11.dtd">
<!-- Generated by graphviz version 15.1.0 (20260618.0150)
 -->
<!-- Title: registerService Pages: 1 -->
<!--zoomable 96 -->

<svg id="main" version="1.1" xmlns="http://www.w3.org/2000/svg" xmlns:xlink="http://www.w3.org/1999/xlink" xml:space="preserve" onload="init(evt)">

<style type="text/css"><![CDATA[
.node, .edge {opacity: 0.7;}
.node.selected, .edge.selected {opacity: 1;}
.edge:hover path { stroke: red; }
.edge:hover polygon { stroke: red; fill: red; }
]]></style>

<defs>
  <circle id="rim" cx="0" cy="0" r="7"/>
  <circle id="rim2" cx="0" cy="0" r="3.5"/>
  <g id="zoomPlus">
    <use xlink:href="#rim" fill="#404040"><set attributeName="fill" to="#808080" begin="zoomplus.mouseover" end="zoomplus.mouseout"/></use>
    <path d="M-4,0h8M0,-4v8" fill="none" stroke="white" stroke-width="1.5" pointer-events="none"/>
  </g>
  <g id="zoomMin">
    <use xlink:href="#rim" fill="#404040"><set attributeName="fill" to="#808080" begin="zoomminus.mouseover" end="zoomminus.mouseout"/></use>
    <path d="M-4,0h8" fill="none" stroke="white" stroke-width="1.5" pointer-events="none"/>
  </g>
  <g id="arrowUp" transform="translate(30 24)">
    <use xlink:href="#rim"/>
    <path pointer-events="none" fill="none" stroke="white" stroke-width="1.5" d="M0,-3.0v7 M-2.5,-0.5L0,-3.0L2.5,-0.5"/>
  </g>
  <g id="arrowRight" transform="rotate(90) translate(36 -43)">
    <use xlink:href="#rim"/>
    <path pointer-events="none" fill="none" stroke="white" stroke-width="1.5" d="M0,-3.0v7 M-2.5,-0.5L0,-3.0L2.5,-0.5"/>
  </g>
  <g id="arrowDown" transform="rotate(180) translate(-30 -48)">
    <use xlink:href="#rim"/>
    <path pointer-events="none" fill="none" stroke="white" stroke-width="1.5" d="M0,-3.0v7 M-2.5,-0.5L0,-3.0L2.5,-0.5"/>
  </g>
  <g id="arrowLeft" transform="rotate(270) translate(-36 17)">
    <use xlink:href="#rim"/>
    <path pointer-events="none" fill="none" stroke="white" stroke-width="1.5" d="M0,-3.0v7 M-2.5,-0.5L0,-3.0L2.5,-0.5"/>
  </g>
  <g id="resetDef">
    <use xlink:href="#rim2" fill="#404040"><set attributeName="fill" to="#808080" begin="reset.mouseover" end="reset.mouseout"/></use>
  </g>
</defs>
<script type="application/ecmascript">
var viewWidth = 628;
var viewHeight = 96;
var sectionId = 'dynsection-39';
</script>
<script type="application/ecmascript" xlink:href="svg.min.js"/>
<svg id="graph" class="graph">
<g id="viewport">
<title>registerService</title>
<!-- Node1 -->
<g id="Node000001" class="node">
<title>Node1</title>
<g id="a_Node000001"><a xlink:title="Register a service globally.">
<polygon fill="#999999" stroke="#666666" points="619.75,-51 538.5,-51 538.5,-31 619.75,-31 619.75,-51"/>
<text xml:space="preserve" text-anchor="middle" x="579.12" y="-37.5" font-family="Helvetica,sans-Serif" font-size="10.00">registerService</text>
</a>
</g>
</g>
<!-- Node2 -->
<g id="Node000002" class="node">
<title>Node2</title>
<g id="a_Node000002"><a xlink:href="class_o_c_a_1_1_rot_drop_1_1_tests_1_1_abstract_mock_provider.html#af1591c93ce4aabee288af5462640e139" target="_top" xlink:title="Register a class instance to be returned by the app&#45;container.">
<polygon fill="white" stroke="#666666" points="502.5,-73 391.25,-73 391.25,-53 502.5,-53 502.5,-73"/>
<text xml:space="preserve" text-anchor="middle" x="446.88" y="-59.5" font-family="Helvetica,sans-Serif" font-size="10.00">registerClassInstance</text>
</a>
</g>
</g>
<!-- Node1&#45;&gt;Node2 -->
<g id="edge1_Node000001_Node000002" class="edge">
<title>Node1&#45;&gt;Node2</title>
<g id="a_edge1_Node000001_Node000002"><a xlink:title=" ">
<path fill="none" stroke="#63b8ff" d="M527.24,-49.59C519.21,-50.95 510.88,-52.36 502.76,-53.73"/>
<polygon fill="#63b8ff" stroke="#63b8ff" points="527.57,-53.09 536.85,-47.97 526.4,-46.19 527.57,-53.09"/>
</a>
</g>
</g>
<!-- Node4 -->
<g id="Node000004" class="node">
<title>Node4</title>
<g id="a_Node000004"><a xlink:href="class_o_c_a_1_1_rot_drop_1_1_tests_1_1_abstract_mock_provider.html#a68257d7bf27c2c66a2475ec9cd5f5a0a" target="_top" xlink:title=" ">
<polygon fill="white" stroke="#666666" points="490.12,-32 403.62,-32 403.62,-12 490.12,-12 490.12,-32"/>
<text xml:space="preserve" text-anchor="middle" x="446.88" y="-18.5" font-family="Helvetica,sans-Serif" font-size="10.00">registerServices</text>
</a>
</g>
</g>
<!-- Node1&#45;&gt;Node4 -->
<g id="edge3_Node000001_Node000004" class="edge">
<title>Node1&#45;&gt;Node4</title>
<g id="a_edge3_Node000001_Node000004"><a xlink:title=" ">
<path fill="none" stroke="#63b8ff" d="M527.04,-33.55C514.97,-31.79 502.23,-29.93 490.59,-28.23"/>
<polygon fill="#63b8ff" stroke="#63b8ff" points="526.44,-37 536.84,-34.98 527.45,-30.07 526.44,-37"/>
</a>
</g>
</g>
<!-- Node3 -->
<g id="Node000003" class="node">
<title>Node3</title>
<g id="a_Node000003"><a xlink:href="class_o_c_a_1_1_c_a_f_e_v_d_b_1_1_tests_1_1_unit_1_1_toolkit_1_1_traits_1_1_date_time_trait_test.html#a8d895863f440c76fe09ccc33396be59f" target="_top" xlink:title="{}">
<polygon fill="white" stroke="#666666" points="355.25,-88 214.75,-88 214.75,-44 355.25,-44 355.25,-88"/>
<text xml:space="preserve" text-anchor="start" x="222.75" y="-74.5" font-family="Helvetica,sans-Serif" font-size="10.00">OCA\CAFEVDB\Tests\Unit</text>
<text xml:space="preserve" text-anchor="start" x="222.75" y="-62.5" font-family="Helvetica,sans-Serif" font-size="10.00">\Toolkit\Traits\DateTimeTrait</text>
<text xml:space="preserve" text-anchor="middle" x="285" y="-50.5" font-family="Helvetica,sans-Serif" font-size="10.00">Test\testGetCurrentDate</text>
</a>
</g>
</g>
<!-- Node2&#45;&gt;Node3 -->
<g id="edge2_Node000002_Node000003" class="edge">
<title>Node2&#45;&gt;Node3</title>
<g id="a_edge2_Node000002_Node000003"><a xlink:title=" ">
<path fill="none" stroke="#63b8ff" d="M379.45,-64.25C371.55,-64.39 363.47,-64.55 355.52,-64.7"/>
<polygon fill="#63b8ff" stroke="#63b8ff" points="379.41,-67.75 389.34,-64.06 379.28,-60.75 379.41,-67.75"/>
</a>
</g>
</g>
<!-- Node5 -->
<g id="Node000005" class="node">
<title>Node5</title>
<g id="a_Node000005"><a xlink:href="class_o_c_a_1_1_rot_drop_1_1_tests_1_1_abstract_mock_provider.html#aa3e1104912f42060e2134e04e71d1b57" target="_top" xlink:title="{}">
<polygon fill="white" stroke="#666666" points="318.5,-26 251.5,-26 251.5,-6 318.5,-6 318.5,-26"/>
<text xml:space="preserve" text-anchor="middle" x="285" y="-12.5" font-family="Helvetica,sans-Serif" font-size="10.00">__construct</text>
</a>
</g>
</g>
<!-- Node4&#45;&gt;Node5 -->
<g id="edge4_Node000004_Node000005" class="edge">
<title>Node4&#45;&gt;Node5</title>
<g id="a_edge4_Node000004_Node000005"><a xlink:title=" ">
<path fill="none" stroke="#63b8ff" d="M392.24,-19.99C367.99,-19.08 340.1,-18.03 318.99,-17.24"/>
<polygon fill="#63b8ff" stroke="#63b8ff" points="391.81,-23.47 401.94,-20.35 392.08,-16.48 391.81,-23.47"/>
</a>
</g>
</g>
<!-- Node6 -->
<g id="Node000006" class="node">
<title>Node6</title>
<g id="a_Node000006"><a xlink:href="class_o_c_a_1_1_c_a_f_e_v_d_b_1_1_tests_1_1_mock_provider.html#a759ad1cadd7c899979313412c248830e" target="_top" xlink:title="Fake the bank account validator as obtaining real result is really involved and would result in a rou...">
<polygon fill="white" stroke="#666666" points="178.75,-32 0,-32 0,0 178.75,0 178.75,-32"/>
<text xml:space="preserve" text-anchor="start" x="8" y="-18.5" font-family="Helvetica,sans-Serif" font-size="10.00">OCA\CAFEVDB\Tests\MockProvider</text>
<text xml:space="preserve" text-anchor="middle" x="89.38" y="-6.5" font-family="Helvetica,sans-Serif" font-size="10.00">\getBankAccountValidator</text>
</a>
</g>
</g>
<!-- Node5&#45;&gt;Node6 -->
<g id="edge5_Node000005_Node000006" class="edge">
<title>Node5&#45;&gt;Node6</title>
<g id="a_edge5_Node000005_Node000006"><a xlink:title=" ">
<path fill="none" stroke="#63b8ff" d="M239.8,-16C221.69,-16 200.04,-16 178.92,-16"/>
<polygon fill="#63b8ff" stroke="#63b8ff" points="239.64,-19.5 249.64,-16 239.64,-12.5 239.64,-19.5"/>
</a>
</g>
</g>
</g>
</svg>

<g id="navigator" transform="translate(0 0)" fill="#404254">
  <rect fill="#f2f5e9" fill-opacity="0.5" stroke="#606060" stroke-width=".5" x="0" y="0" width="60" height="60"/>
  <use id="zoomplus" xlink:href="#zoomPlus" x="17" y="9" onmousedown="handleZoom(evt,'in')"/>
  <use id="zoomminus" xlink:href="#zoomMin" x="42" y="9" onmousedown="handleZoom(evt,'out')"/>
  <use id="reset" xlink:href="#resetDef" x="30" y="36" onmousedown="handleReset()"/>
   <use id="arrowup" xlink:href="#arrowUp" x="0" y="0" onmousedown="handlePan(0,-1)"/>
  <use id="arrowright" xlink:href="#arrowRight" x="0" y="0" onmousedown="handlePan(1,0)"/>
  <use id="arrowdown" xlink:href="#arrowDown" x="0" y="0" onmousedown="handlePan(0,1)"/>
  <use id="arrowleft" xlink:href="#arrowLeft" x="0" y="0" onmousedown="handlePan(-1,0)"/>
</g>
<svg viewBox="0 0 15 15" width="100%" height="30px" preserveAspectRatio="xMaxYMin meet">
 <g id="arrow_out" transform="scale(0.3 0.3)">
  <a xlink:href="class_o_c_a_1_1_rot_drop_1_1_tests_1_1_abstract_mock_provider_a40da96449e478f361d003620cace8f2c_icgraph_org.svg" target="_base">
   <rect id="button" ry="5" rx="5" y="6" x="6" height="38" width="38"
        fill="#f2f5e9" fill-opacity="0.5" stroke="#606060" stroke-width="1.0"/>
   <path id="arrow"
     d="M 11.500037,31.436501 C 11.940474,20.09759 22.043105,11.32322 32.158766,21.979434 L 37.068811,17.246167 C 37.068811,17.246167 37.088388,32 37.088388,32 L 22.160133,31.978069 C 22.160133,31.978069 26.997745,27.140456 26.997745,27.140456 C 18.528582,18.264221 13.291696,25.230495 11.500037,31.436501 z"
     style="fill:#404040;"/>
  </a>
 </g>
</svg>

<style type='text/css'>
<![CDATA[
[data-mouse-over-selected='false'] { opacity: 0.7; }
[data-mouse-over-selected='true']  { opacity: 1.0; }
]]>
</style>
<script type="application/ecmascript"><![CDATA[
document.addEventListener('DOMContentLoaded', (event) => {
  highlightEdges();
  highlightAdjacentNodes();
});
]]></script>
</svg>
