<?xml version="1.0" encoding="UTF-8" standalone="no"?>
<!DOCTYPE svg PUBLIC "-//W3C//DTD SVG 1.1//EN"
 "http://www.w3.org/Graphics/SVG/1.1/DTD/svg11.dtd">
<!-- Generated by graphviz version 7.1.0 (20230121.1956)
 -->
<!-- Title: getMusicianFieldData Pages: 1 -->
<svg width="460pt" height="86pt"
 viewBox="0.00 0.00 460.00 86.00" xmlns="http://www.w3.org/2000/svg" xmlns:xlink="http://www.w3.org/1999/xlink">
<g id="graph0" class="graph" transform="scale(1 1) rotate(0) translate(4 82)">
<title>getMusicianFieldData</title>
<!-- Node1 -->
<g id="node1" class="node">
<title>Node1</title>
<g id="a_node1"><a xlink:title="Filter field&#45;data by musician.">
<polygon fill="#999999" stroke="#666666" points="111,-48.5 0,-48.5 0,-29.5 111,-29.5 111,-48.5"/>
<text text-anchor="middle" x="55.5" y="-36.5" font-family="Helvetica,sans-Serif" font-size="10.00">getMusicianFieldData</text>
</a>
</g>
</g>
<!-- Node2 -->
<g id="node2" class="node">
<title>Node2</title>
<g id="a_node2"><a xlink:href="class_o_c_a_1_1_c_a_f_e_v_d_b_1_1_database_1_1_doctrine_1_1_util.html#aafe8e2082bd107d572aa76086a06b24e" target="_top" xlink:title="Convenience function.">
<polygon fill="white" stroke="#666666" points="282,-54 147,-54 147,-24 282,-24 282,-54"/>
<text text-anchor="start" x="155" y="-42" font-family="Helvetica,sans-Serif" font-size="10.00">OCA\CAFEVDB\Database</text>
<text text-anchor="middle" x="214.5" y="-31" font-family="Helvetica,sans-Serif" font-size="10.00">\Doctrine\Util\criteriaWhere</text>
</a>
</g>
</g>
<!-- Node1&#45;&gt;Node2 -->
<g id="edge1" class="edge">
<title>Node1&#45;&gt;Node2</title>
<path fill="none" stroke="#63b8ff" d="M111.41,-39C119.16,-39 127.26,-39 135.34,-39"/>
<polygon fill="#63b8ff" stroke="#63b8ff" points="135.22,-42.5 145.22,-39 135.22,-35.5 135.22,-42.5"/>
</g>
<!-- Node3 -->
<g id="node3" class="node">
<title>Node3</title>
<g id="a_node3"><a xlink:href="class_o_c_a_1_1_c_a_f_e_v_d_b_1_1_database_1_1_doctrine_1_1_util.html#af2691c40495d429502e48d4824f0b080" target="_top" xlink:title="Convenience function to generate Collections\Criteria.">
<polygon fill="white" stroke="#666666" points="452,-78 318,-78 318,-48 452,-48 452,-78"/>
<text text-anchor="start" x="326" y="-66" font-family="Helvetica,sans-Serif" font-size="10.00">OCA\CAFEVDB\Database</text>
<text text-anchor="middle" x="385" y="-55" font-family="Helvetica,sans-Serif" font-size="10.00">\Doctrine\Util\criteria</text>
</a>
</g>
</g>
<!-- Node2&#45;&gt;Node3 -->
<g id="edge2" class="edge">
<title>Node2&#45;&gt;Node3</title>
<path fill="none" stroke="#63b8ff" d="M282.1,-48.49C290.04,-49.62 298.2,-50.78 306.27,-51.93"/>
<polygon fill="#63b8ff" stroke="#63b8ff" points="305.72,-55.39 316.11,-53.33 306.71,-48.46 305.72,-55.39"/>
</g>
<!-- Node4 -->
<g id="node4" class="node">
<title>Node4</title>
<g id="a_node4"><a xlink:href="class_o_c_a_1_1_c_a_f_e_v_d_b_1_1_database_1_1_doctrine_1_1_util.html#ae987ce50626dd3e4a9b255037433c776" target="_top" xlink:title="Convenience function to generate CollectionsxpressionBuilder.">
<polygon fill="white" stroke="#666666" points="452,-30 318,-30 318,0 452,0 452,-30"/>
<text text-anchor="start" x="326" y="-18" font-family="Helvetica,sans-Serif" font-size="10.00">OCA\CAFEVDB\Database</text>
<text text-anchor="middle" x="385" y="-7" font-family="Helvetica,sans-Serif" font-size="10.00">\Doctrine\Util\criteriaExpr</text>
</a>
</g>
</g>
<!-- Node2&#45;&gt;Node4 -->
<g id="edge3" class="edge">
<title>Node2&#45;&gt;Node4</title>
<path fill="none" stroke="#63b8ff" d="M282.1,-29.51C290.04,-28.38 298.2,-27.22 306.27,-26.07"/>
<polygon fill="#63b8ff" stroke="#63b8ff" points="306.71,-29.54 316.11,-24.67 305.72,-22.61 306.71,-29.54"/>
</g>
</g>
</svg>
