<?xml version="1.0" encoding="UTF-8" standalone="no"?>
<!DOCTYPE svg PUBLIC "-//W3C//DTD SVG 1.1//EN"
 "http://www.w3.org/Graphics/SVG/1.1/DTD/svg11.dtd">
<!-- Generated by graphviz version 9.0.0 (20230911.1827)
 -->
<!-- Title: applyHistory Pages: 1 -->
<svg width="181pt" height="46pt"
 viewBox="0.00 0.00 181.00 46.00" xmlns="http://www.w3.org/2000/svg" xmlns:xlink="http://www.w3.org/1999/xlink">
<g id="graph0" class="graph" transform="scale(1 1) rotate(0) translate(4 42)">
<title>applyHistory</title>
<!-- Node1 -->
<g id="Node000001" class="node">
<title>Node1</title>
<g id="a_Node000001"><a xlink:title=" ">
<polygon fill="#999999" stroke="#666666" points="70.75,-20 0,-20 0,0 70.75,0 70.75,-20"/>
<text text-anchor="middle" x="35.38" y="-6.5" font-family="Helvetica,sans-Serif" font-size="10.00">applyHistory</text>
</a>
</g>
</g>
<!-- Node2 -->
<g id="Node000002" class="node">
<title>Node2</title>
<g id="a_Node000002"><a xlink:href="class_o_c_a_1_1_c_a_f_e_v_d_b_1_1_email_form_1_1_recipients_filter.html#ab5ee0276791cc2947df51b32bc6c7ba6" target="_top" xlink:title=" ">
<polygon fill="white" stroke="#666666" points="173,-20 106.75,-20 106.75,0 173,0 173,-20"/>
<text text-anchor="middle" x="139.88" y="-6.5" font-family="Helvetica,sans-Serif" font-size="10.00">filterHistory</text>
</a>
</g>
</g>
<!-- Node1&#45;&gt;Node2 -->
<g id="edge1_Node000001_Node000002" class="edge">
<title>Node1&#45;&gt;Node2</title>
<g id="a_edge1_Node000001_Node000002"><a xlink:title=" ">
<path fill="none" stroke="#63b8ff" d="M71.08,-10C78.72,-10 86.92,-10 94.88,-10"/>
<polygon fill="#63b8ff" stroke="#63b8ff" points="94.77,-13.5 104.77,-10 94.77,-6.5 94.77,-13.5"/>
</a>
</g>
</g>
<!-- Node2&#45;&gt;Node2 -->
<g id="edge2_Node000002_Node000002" class="edge">
<title>Node2&#45;&gt;Node2</title>
<g id="a_edge2_Node000002_Node000002"><a xlink:title=" ">
<path fill="none" stroke="#63b8ff" d="M123.27,-20.34C116.18,-28.98 121.71,-38 139.88,-38 149.81,-38 155.97,-35.3 158.34,-31.44"/>
<polygon fill="#63b8ff" stroke="#63b8ff" points="161.84,-31.11 156.73,-21.83 154.94,-32.27 161.84,-31.11"/>
</a>
</g>
</g>
</g>
</svg>
