<?xml version="1.0" encoding="UTF-8" standalone="no"?>
<!DOCTYPE svg PUBLIC "-//W3C//DTD SVG 1.1//EN"
 "http://www.w3.org/Graphics/SVG/1.1/DTD/svg11.dtd">
<!-- Generated by graphviz version 9.0.0 (20230911.1827)
 -->
<!-- Title: Image Pages: 1 -->
<svg width="80pt" height="196pt"
 viewBox="0.00 0.00 80.25 196.00" xmlns="http://www.w3.org/2000/svg" xmlns:xlink="http://www.w3.org/1999/xlink">
<g id="graph0" class="graph" transform="scale(1 1) rotate(0) translate(4 192)">
<title>Image</title>
<!-- Node1 -->
<g id="Node000001" class="node">
<title>Node1</title>
<g id="a_Node000001"><a xlink:title="Image – Meta data for images stored in the data&#45;base.">
<polygon fill="#999999" stroke="#666666" points="57.62,-76 14.62,-76 14.62,-56 57.62,-56 57.62,-76"/>
<text text-anchor="middle" x="36.12" y="-62.5" font-family="Helvetica,sans-Serif" font-size="10.00">Image</text>
</a>
</g>
</g>
<!-- Node4 -->
<g id="Node000004" class="node">
<title>Node4</title>
<g id="a_Node000004"><a xlink:href="class_o_c_a_1_1_c_a_f_e_v_d_b_1_1_database_1_1_doctrine_1_1_o_r_m_1_1_proxies_1_1_____c_g_____1_d0defa97fb66a7c8d36d3fed3a953ecd.html" target="_top" xlink:title="DO NOT EDIT THIS FILE &#45; IT WAS CREATED BY DOCTRINE&#39;S PROXY GENERATOR.">
<polygon fill="white" stroke="#666666" points="57.62,-20 14.62,-20 14.62,0 57.62,0 57.62,-20"/>
<text text-anchor="middle" x="36.12" y="-6.5" font-family="Helvetica,sans-Serif" font-size="10.00">Image</text>
</a>
</g>
</g>
<!-- Node1&#45;&gt;Node4 -->
<g id="edge3_Node000001_Node000004" class="edge">
<title>Node1&#45;&gt;Node4</title>
<g id="a_edge3_Node000001_Node000004"><a xlink:title=" ">
<path fill="none" stroke="#63b8ff" d="M36.12,-44.13C36.12,-35.9 36.12,-26.85 36.12,-20.3"/>
<polygon fill="#63b8ff" stroke="#63b8ff" points="32.63,-44.08 36.13,-54.08 39.63,-44.08 32.63,-44.08"/>
</a>
</g>
</g>
<!-- Node2 -->
<g id="Node000002" class="node">
<title>Node2</title>
<g id="a_Node000002"><a xlink:href="class_o_c_a_1_1_c_a_f_e_v_d_b_1_1_database_1_1_doctrine_1_1_o_r_m_1_1_entities_1_1_file.html" target="_top" xlink:title="An entity which modesl a file&#45;system file.">
<polygon fill="white" stroke="#666666" points="52,-132 20.25,-132 20.25,-112 52,-112 52,-132"/>
<text text-anchor="middle" x="36.12" y="-118.5" font-family="Helvetica,sans-Serif" font-size="10.00">File</text>
</a>
</g>
</g>
<!-- Node2&#45;&gt;Node1 -->
<g id="edge1_Node000001_Node000002" class="edge">
<title>Node2&#45;&gt;Node1</title>
<g id="a_edge1_Node000001_Node000002"><a xlink:title=" ">
<path fill="none" stroke="#63b8ff" d="M36.12,-100.13C36.12,-91.9 36.12,-82.85 36.12,-76.3"/>
<polygon fill="#63b8ff" stroke="#63b8ff" points="32.63,-100.08 36.13,-110.08 39.63,-100.08 32.63,-100.08"/>
</a>
</g>
</g>
<!-- Node3 -->
<g id="Node000003" class="node">
<title>Node3</title>
<g id="a_Node000003"><a xlink:title=" ">
<polygon fill="white" stroke="#bfbfbf" points="72.25,-188 0,-188 0,-168 72.25,-168 72.25,-188"/>
<text text-anchor="middle" x="36.12" y="-174.5" font-family="Helvetica,sans-Serif" font-size="10.00">ArrayAccess</text>
</a>
</g>
</g>
<!-- Node3&#45;&gt;Node2 -->
<g id="edge2_Node000002_Node000003" class="edge">
<title>Node3&#45;&gt;Node2</title>
<g id="a_edge2_Node000002_Node000003"><a xlink:title=" ">
<path fill="none" stroke="#63b8ff" d="M36.12,-156.13C36.12,-147.9 36.12,-138.85 36.12,-132.3"/>
<polygon fill="#63b8ff" stroke="#63b8ff" points="32.63,-156.08 36.13,-166.08 39.63,-156.08 32.63,-156.08"/>
</a>
</g>
</g>
</g>
</svg>
