<?xml version="1.0" encoding="UTF-8" standalone="no"?>
<!DOCTYPE svg PUBLIC "-//W3C//DTD SVG 1.1//EN"
 "http://www.w3.org/Graphics/SVG/1.1/DTD/svg11.dtd">
<!-- Generated by graphviz version 8.0.3 (20230416.2022)
 -->
<!-- Title: backupKeyPair Pages: 1 -->
<svg width="202pt" height="64pt"
 viewBox="0.00 0.00 202.00 64.00" xmlns="http://www.w3.org/2000/svg" xmlns:xlink="http://www.w3.org/1999/xlink">
<g id="graph0" class="graph" transform="scale(1 1) rotate(0) translate(4 60)">
<title>backupKeyPair</title>
<!-- Node1 -->
<g id="node1" class="node">
<title>Node1</title>
<g id="a_node1"><a xlink:title="{Make a backup copy.Meant as safe&#45;guard while changing the key and recrypting encrypted data....">
<polygon fill="#999999" stroke="#666666" points="83,-37 0,-37 0,-18 83,-18 83,-37"/>
<text text-anchor="middle" x="41.5" y="-25" font-family="Helvetica,sans-Serif" font-size="10.00">backupKeyPair</text>
</a>
</g>
</g>
<!-- Node2 -->
<g id="node2" class="node">
<title>Node2</title>
<g id="a_node2"><a xlink:href="class_o_c_a_1_1_c_a_f_e_v_d_b_1_1_crypto_1_1_cloud_asymmetric_key_storage.html#a22f229329d340dcd3fb629e91c9b95b9" target="_top" xlink:title=" ">
<polygon fill="white" stroke="#666666" points="194,-56 119,-56 119,-37 194,-37 194,-56"/>
<text text-anchor="middle" x="156.5" y="-44" font-family="Helvetica,sans-Serif" font-size="10.00">getUserValue</text>
</a>
</g>
</g>
<!-- Node1&#45;&gt;Node2 -->
<g id="edge1" class="edge">
<title>Node1&#45;&gt;Node2</title>
<path fill="none" stroke="#63b8ff" d="M83.3,-34.36C91.21,-35.69 99.56,-37.09 107.67,-38.46"/>
<polygon fill="#63b8ff" stroke="#63b8ff" points="107.08,-42.08 117.52,-40.28 108.24,-35.17 107.08,-42.08"/>
</g>
<!-- Node3 -->
<g id="node3" class="node">
<title>Node3</title>
<g id="a_node3"><a xlink:href="class_o_c_a_1_1_c_a_f_e_v_d_b_1_1_crypto_1_1_cloud_asymmetric_key_storage.html#aafad48628125d0a5bcbbe6e1fddbe1ea" target="_top" xlink:title=" ">
<polygon fill="white" stroke="#666666" points="194,-19 119,-19 119,0 194,0 194,-19"/>
<text text-anchor="middle" x="156.5" y="-7" font-family="Helvetica,sans-Serif" font-size="10.00">setUserValue</text>
</a>
</g>
</g>
<!-- Node1&#45;&gt;Node3 -->
<g id="edge2" class="edge">
<title>Node1&#45;&gt;Node3</title>
<path fill="none" stroke="#63b8ff" d="M83.3,-21C91.21,-19.74 99.56,-18.41 107.67,-17.12"/>
<polygon fill="#63b8ff" stroke="#63b8ff" points="108.19,-20.42 117.52,-15.39 107.09,-13.51 108.19,-20.42"/>
</g>
</g>
</svg>
