<?xml version="1.0" encoding="UTF-8" standalone="no"?>
<!DOCTYPE svg PUBLIC "-//W3C//DTD SVG 1.1//EN"
 "http://www.w3.org/Graphics/SVG/1.1/DTD/svg11.dtd">
<!-- Generated by graphviz version 7.1.0 (20230121.1956)
 -->
<!-- Title: EnumDirEntryType Pages: 1 -->
<svg width="107pt" height="137pt"
 viewBox="0.00 0.00 107.00 137.00" xmlns="http://www.w3.org/2000/svg" xmlns:xlink="http://www.w3.org/1999/xlink">
<g id="graph0" class="graph" transform="scale(1 1) rotate(0) translate(4 133)">
<title>EnumDirEntryType</title>
<!-- Node1 -->
<g id="node1" class="node">
<title>Node1</title>
<g id="a_node1"><a xlink:title=" ">
<polygon fill="#999999" stroke="#666666" points="99,-19 0,-19 0,0 99,0 99,-19"/>
<text text-anchor="middle" x="49.5" y="-7" font-family="Helvetica,sans-Serif" font-size="10.00">EnumDirEntryType</text>
</a>
</g>
</g>
<!-- Node2 -->
<g id="node2" class="node">
<title>Node2</title>
<g id="a_node2"><a xlink:href="class_o_c_a_1_1_c_a_f_e_v_d_b_1_1_database_1_1_doctrine_1_1_d_b_a_l_1_1_types_1_1_enum_type.html" target="_top" xlink:title="Base enum&#45;type class.">
<polygon fill="white" stroke="#666666" points="81,-74 18,-74 18,-55 81,-55 81,-74"/>
<text text-anchor="middle" x="49.5" y="-62" font-family="Helvetica,sans-Serif" font-size="10.00">EnumType</text>
</a>
</g>
</g>
<!-- Node2&#45;&gt;Node1 -->
<g id="edge1" class="edge">
<title>Node2&#45;&gt;Node1</title>
<path fill="none" stroke="#63b8ff" d="M49.5,-43.35C49.5,-35.1 49.5,-25.97 49.5,-19.44"/>
<polygon fill="#63b8ff" stroke="#63b8ff" points="46,-43.23 49.5,-53.23 53,-43.23 46,-43.23"/>
</g>
<!-- Node3 -->
<g id="node3" class="node">
<title>Node3</title>
<g id="a_node3"><a xlink:title=" ">
<polygon fill="white" stroke="#bfbfbf" points="89.5,-129 9.5,-129 9.5,-110 89.5,-110 89.5,-129"/>
<text text-anchor="middle" x="49.5" y="-117" font-family="Helvetica,sans-Serif" font-size="10.00">PhpEnumType</text>
</a>
</g>
</g>
<!-- Node3&#45;&gt;Node2 -->
<g id="edge2" class="edge">
<title>Node3&#45;&gt;Node2</title>
<path fill="none" stroke="#63b8ff" d="M49.5,-98.35C49.5,-90.1 49.5,-80.97 49.5,-74.44"/>
<polygon fill="#63b8ff" stroke="#63b8ff" points="46,-98.23 49.5,-108.23 53,-98.23 46,-98.23"/>
</g>
</g>
</svg>
