<?xml version="1.0" encoding="UTF-8" standalone="no"?>
<!DOCTYPE svg PUBLIC "-//W3C//DTD SVG 1.1//EN"
 "http://www.w3.org/Graphics/SVG/1.1/DTD/svg11.dtd">
<!-- Generated by graphviz version 9.0.0 (20230911.1827)
 -->
<!-- Title: createFolder Pages: 1 -->
<svg width="916pt" height="142pt"
 viewBox="0.00 0.00 915.75 142.00" xmlns="http://www.w3.org/2000/svg" xmlns:xlink="http://www.w3.org/1999/xlink">
<g id="graph0" class="graph" transform="scale(1 1) rotate(0) translate(4 138)">
<title>createFolder</title>
<!-- Node1 -->
<g id="Node000001" class="node">
<title>Node1</title>
<g id="a_Node000001"><a xlink:title="Create a shared folder and set appropriate permissions.">
<polygon fill="#999999" stroke="#666666" points="70,-77 0,-77 0,-57 70,-57 70,-77"/>
<text text-anchor="middle" x="35" y="-63.5" font-family="Helvetica,sans-Serif" font-size="10.00">createFolder</text>
</a>
</g>
</g>
<!-- Node2 -->
<g id="Node000002" class="node">
<title>Node2</title>
<g id="a_Node000002"><a xlink:href="class_o_c_a_1_1_c_a_f_e_v_d_b_1_1_toolkit_1_1_service_1_1_group_folders_service.html#a8148448c37311dced215dca1c67a66e0" target="_top" xlink:title="Add a single group to the given shared folder.">
<polygon fill="white" stroke="#666666" points="207.12,-134 111.62,-134 111.62,-114 207.12,-114 207.12,-134"/>
<text text-anchor="middle" x="159.38" y="-120.5" font-family="Helvetica,sans-Serif" font-size="10.00">addGroupToFolder</text>
</a>
</g>
</g>
<!-- Node1&#45;&gt;Node2 -->
<g id="edge1_Node000001_Node000002" class="edge">
<title>Node1&#45;&gt;Node2</title>
<g id="a_edge1_Node000001_Node000002"><a xlink:title=" ">
<path fill="none" stroke="#63b8ff" d="M53.47,-77.43C67.41,-85.52 87.59,-96.72 106,-105 109.35,-106.51 112.86,-107.99 116.41,-109.41"/>
<polygon fill="#63b8ff" stroke="#63b8ff" points="115.05,-112.64 125.64,-112.96 117.56,-106.1 115.05,-112.64"/>
</a>
</g>
</g>
<!-- Node3 -->
<g id="Node000003" class="node">
<title>Node3</title>
<g id="a_Node000003"><a xlink:href="class_o_c_a_1_1_c_a_f_e_v_d_b_1_1_toolkit_1_1_service_1_1_group_folders_service.html#a3f43811af00573cb21e27cb201c49623" target="_top" xlink:title=" ">
<polygon fill="white" stroke="#666666" points="212.75,-96 106,-96 106,-76 212.75,-76 212.75,-96"/>
<text text-anchor="middle" x="159.38" y="-82.5" font-family="Helvetica,sans-Serif" font-size="10.00">addManagerToFolder</text>
</a>
</g>
</g>
<!-- Node1&#45;&gt;Node3 -->
<g id="edge2_Node000001_Node000003" class="edge">
<title>Node1&#45;&gt;Node3</title>
<g id="a_edge2_Node000001_Node000003"><a xlink:title=" ">
<path fill="none" stroke="#63b8ff" d="M70.41,-72.34C78,-73.52 86.26,-74.8 94.59,-76.1"/>
<polygon fill="#63b8ff" stroke="#63b8ff" points="94.02,-79.55 104.43,-77.63 95.09,-72.63 94.02,-79.55"/>
</a>
</g>
</g>
<!-- Node4 -->
<g id="Node000004" class="node">
<title>Node4</title>
<g id="a_Node000004"><a xlink:href="class_o_c_a_1_1_c_a_f_e_v_d_b_1_1_toolkit_1_1_service_1_1_group_folders_service.html#a4d4c99de2d9c451fa1e4f4cb2123fb04" target="_top" xlink:title="Obtain the shared folder data for the given mount&#45;point.">
<polygon fill="white" stroke="#666666" points="187.62,-58 131.12,-58 131.12,-38 187.62,-38 187.62,-58"/>
<text text-anchor="middle" x="159.38" y="-44.5" font-family="Helvetica,sans-Serif" font-size="10.00">getFolder</text>
</a>
</g>
</g>
<!-- Node1&#45;&gt;Node4 -->
<g id="edge3_Node000001_Node000004" class="edge">
<title>Node1&#45;&gt;Node4</title>
<g id="a_edge3_Node000001_Node000004"><a xlink:title=" ">
<path fill="none" stroke="#63b8ff" d="M70.41,-61.66C85.77,-59.27 103.94,-56.45 119.76,-54"/>
<polygon fill="#63b8ff" stroke="#63b8ff" points="119.95,-57.51 129.3,-52.51 118.88,-50.59 119.95,-57.51"/>
</a>
</g>
</g>
<!-- Node12 -->
<g id="Node000012" class="node">
<title>Node12</title>
<g id="a_Node000012"><a xlink:href="class_o_c_a_1_1_c_a_f_e_v_d_b_1_1_toolkit_1_1_service_1_1_group_folders_service.html#a2c5736677056d73dbd8d456de4babd92" target="_top" xlink:title="Get the shared folder by its id.">
<polygon fill="white" stroke="#666666" points="439,-20 362.25,-20 362.25,0 439,0 439,-20"/>
<text text-anchor="middle" x="400.62" y="-6.5" font-family="Helvetica,sans-Serif" font-size="10.00">getFolderById</text>
</a>
</g>
</g>
<!-- Node1&#45;&gt;Node12 -->
<g id="edge12_Node000001_Node000012" class="edge">
<title>Node1&#45;&gt;Node12</title>
<g id="a_edge12_Node000001_Node000012"><a xlink:title=" ">
<path fill="none" stroke="#63b8ff" d="M50.74,-56.52C64.36,-47.46 85.54,-34.91 106,-29 189.51,-4.9 291.73,-4.44 350.89,-6.85"/>
<polygon fill="#63b8ff" stroke="#63b8ff" points="350.47,-10.33 360.62,-7.29 350.79,-3.34 350.47,-10.33"/>
</a>
</g>
</g>
<!-- Node5 -->
<g id="Node000005" class="node">
<title>Node5</title>
<g id="a_Node000005"><a xlink:href="class_o_c_a_1_1_c_a_f_e_v_d_b_1_1_toolkit_1_1_service_1_1_group_folders_service.html#a7e14d6479c6ecacdf6ec831270d1b99b" target="_top" xlink:title=" ">
<polygon fill="white" stroke="#666666" points="326.25,-58 248.75,-58 248.75,-38 326.25,-38 326.25,-58"/>
<text text-anchor="middle" x="287.5" y="-44.5" font-family="Helvetica,sans-Serif" font-size="10.00">ensureFolders</text>
</a>
</g>
</g>
<!-- Node4&#45;&gt;Node5 -->
<g id="edge4_Node000004_Node000005" class="edge">
<title>Node4&#45;&gt;Node5</title>
<g id="a_edge4_Node000004_Node000005"><a xlink:title=" ">
<path fill="none" stroke="#63b8ff" d="M188.05,-48C202.43,-48 220.43,-48 237.1,-48"/>
<polygon fill="#63b8ff" stroke="#63b8ff" points="236.85,-51.5 246.85,-48 236.85,-44.5 236.85,-51.5"/>
</a>
</g>
</g>
<!-- Node8 -->
<g id="Node000008" class="node">
<title>Node8</title>
<g id="a_Node000008"><a xlink:href="namespace_o_c_a_1_1_c_a_f_e_v_d_b_1_1_toolkit_1_1_traits.html#a4d87f4e47d18fb535d235414c357f821" target="_top" xlink:title="Log a debug message.">
<polygon fill="white" stroke="#666666" points="595.25,-70 475,-70 475,-38 595.25,-38 595.25,-70"/>
<text text-anchor="start" x="483" y="-56.5" font-family="Helvetica,sans-Serif" font-size="10.00">OCA\CAFEVDB\Toolkit</text>
<text text-anchor="middle" x="535.12" y="-44.5" font-family="Helvetica,sans-Serif" font-size="10.00">\Traits\logDebug</text>
</a>
</g>
</g>
<!-- Node4&#45;&gt;Node8 -->
<g id="edge11_Node000004_Node000008" class="edge">
<title>Node4&#45;&gt;Node8</title>
<g id="a_edge11_Node000004_Node000008"><a xlink:title=" ">
<path fill="none" stroke="#63b8ff" d="M187.99,-55.51C205.3,-59.83 228.15,-64.81 248.75,-67 332.83,-75.94 354.64,-72.74 439,-67 446.95,-66.46 455.24,-65.67 463.47,-64.74"/>
<polygon fill="#63b8ff" stroke="#63b8ff" points="463.62,-68.25 473.13,-63.58 462.78,-61.3 463.62,-68.25"/>
</a>
</g>
</g>
<!-- Node6 -->
<g id="Node000006" class="node">
<title>Node6</title>
<g id="a_Node000006"><a xlink:href="class_o_c_a_1_1_c_a_f_e_v_d_b_1_1_toolkit_1_1_service_1_1_group_folders_service.html#acb65d3f859f30837e4b9f7ea14b88b9c" target="_top" xlink:title="Fetch and cache all shared folders from the groupfolders app.">
<polygon fill="white" stroke="#666666" points="435.62,-58 365.62,-58 365.62,-38 435.62,-38 435.62,-58"/>
<text text-anchor="middle" x="400.62" y="-44.5" font-family="Helvetica,sans-Serif" font-size="10.00">fetchFolders</text>
</a>
</g>
</g>
<!-- Node5&#45;&gt;Node6 -->
<g id="edge5_Node000005_Node000006" class="edge">
<title>Node5&#45;&gt;Node6</title>
<g id="a_edge5_Node000005_Node000006"><a xlink:title=" ">
<path fill="none" stroke="#63b8ff" d="M326.74,-48C335.57,-48 345.05,-48 354.15,-48"/>
<polygon fill="#63b8ff" stroke="#63b8ff" points="353.89,-51.5 363.89,-48 353.89,-44.5 353.89,-51.5"/>
</a>
</g>
</g>
<!-- Node7 -->
<g id="Node000007" class="node">
<title>Node7</title>
<g id="a_Node000007"><a xlink:href="class_o_c_a_1_1_c_a_f_e_v_d_b_1_1_toolkit_1_1_service_1_1_group_folders_service.html#a0287649d77801b440d6e9055c775b283" target="_top" xlink:title=" ">
<polygon fill="white" stroke="#666666" points="594.88,-20 475.38,-20 475.38,0 594.88,0 594.88,-20"/>
<text text-anchor="middle" x="535.12" y="-6.5" font-family="Helvetica,sans-Serif" font-size="10.00">getRootFolderStorageId</text>
</a>
</g>
</g>
<!-- Node6&#45;&gt;Node7 -->
<g id="edge6_Node000006_Node000007" class="edge">
<title>Node6&#45;&gt;Node7</title>
<g id="a_edge6_Node000006_Node000007"><a xlink:title=" ">
<path fill="none" stroke="#63b8ff" d="M436.09,-38.12C451.69,-33.64 470.37,-28.28 487.22,-23.45"/>
<polygon fill="#63b8ff" stroke="#63b8ff" points="487.88,-26.9 496.52,-20.78 485.95,-20.18 487.88,-26.9"/>
</a>
</g>
</g>
<!-- Node6&#45;&gt;Node8 -->
<g id="edge7_Node000006_Node000008" class="edge">
<title>Node6&#45;&gt;Node8</title>
<g id="a_edge7_Node000006_Node000008"><a xlink:title=" ">
<path fill="none" stroke="#63b8ff" d="M436.09,-49.56C444.49,-49.94 453.77,-50.36 463.19,-50.79"/>
<polygon fill="#63b8ff" stroke="#63b8ff" points="463.02,-54.28 473.17,-51.24 463.34,-47.29 463.02,-54.28"/>
</a>
</g>
</g>
<!-- Node9 -->
<g id="Node000009" class="node">
<title>Node9</title>
<g id="a_Node000009"><a xlink:href="namespace_o_c_a_1_1_c_a_f_e_v_d_b_1_1_toolkit_1_1_traits.html#a15cbaddba041ee5582b2bec28a58c7c9" target="_top" xlink:title="Log the given message at the specified level.">
<polygon fill="white" stroke="#666666" points="751.5,-70 631.25,-70 631.25,-38 751.5,-38 751.5,-70"/>
<text text-anchor="start" x="639.25" y="-56.5" font-family="Helvetica,sans-Serif" font-size="10.00">OCA\CAFEVDB\Toolkit</text>
<text text-anchor="middle" x="691.38" y="-44.5" font-family="Helvetica,sans-Serif" font-size="10.00">\Traits\log</text>
</a>
</g>
</g>
<!-- Node8&#45;&gt;Node9 -->
<g id="edge8_Node000008_Node000009" class="edge">
<title>Node8&#45;&gt;Node9</title>
<g id="a_edge8_Node000008_Node000009"><a xlink:title=" ">
<path fill="none" stroke="#63b8ff" d="M595.32,-54C603.23,-54 611.41,-54 619.5,-54"/>
<polygon fill="#63b8ff" stroke="#63b8ff" points="619.31,-57.5 629.31,-54 619.31,-50.5 619.31,-57.5"/>
</a>
</g>
</g>
<!-- Node10 -->
<g id="Node000010" class="node">
<title>Node10</title>
<g id="a_Node000010"><a xlink:href="namespace_o_c_a_1_1_c_a_f_e_v_d_b_1_1_toolkit_1_1_traits.html#a97e3b3adabf67bc7d3650ed14214ddaa" target="_top" xlink:title="Return the stored logger class.">
<polygon fill="white" stroke="#666666" points="907.75,-95 787.5,-95 787.5,-63 907.75,-63 907.75,-95"/>
<text text-anchor="start" x="795.5" y="-81.5" font-family="Helvetica,sans-Serif" font-size="10.00">OCA\CAFEVDB\Toolkit</text>
<text text-anchor="middle" x="847.62" y="-69.5" font-family="Helvetica,sans-Serif" font-size="10.00">\Traits\logger</text>
</a>
</g>
</g>
<!-- Node9&#45;&gt;Node10 -->
<g id="edge9_Node000009_Node000010" class="edge">
<title>Node9&#45;&gt;Node10</title>
<g id="a_edge9_Node000009_Node000010"><a xlink:title=" ">
<path fill="none" stroke="#63b8ff" d="M751.57,-63.59C759.48,-64.88 767.66,-66.2 775.75,-67.51"/>
<polygon fill="#63b8ff" stroke="#63b8ff" points="775.15,-70.96 785.58,-69.11 776.27,-64.05 775.15,-70.96"/>
</a>
</g>
</g>
<!-- Node11 -->
<g id="Node000011" class="node">
<title>Node11</title>
<g id="a_Node000011"><a xlink:href="namespace_o_c_a_1_1_c_a_f_e_v_d_b_1_1_toolkit_1_1_traits.html#ab690a84fb4e720f43308bc354c392bee" target="_top" xlink:title="Map PSR log&#45;levels to ILogger log&#45;levels as the PsrLoggerAdapter only understands those.">
<polygon fill="white" stroke="#666666" points="907.75,-45 787.5,-45 787.5,-13 907.75,-13 907.75,-45"/>
<text text-anchor="start" x="795.5" y="-31.5" font-family="Helvetica,sans-Serif" font-size="10.00">OCA\CAFEVDB\Toolkit</text>
<text text-anchor="middle" x="847.62" y="-19.5" font-family="Helvetica,sans-Serif" font-size="10.00">\Traits\mapLogLevels</text>
</a>
</g>
</g>
<!-- Node9&#45;&gt;Node11 -->
<g id="edge10_Node000009_Node000011" class="edge">
<title>Node9&#45;&gt;Node11</title>
<g id="a_edge10_Node000009_Node000011"><a xlink:title=" ">
<path fill="none" stroke="#63b8ff" d="M751.57,-44.41C759.48,-43.12 767.66,-41.8 775.75,-40.49"/>
<polygon fill="#63b8ff" stroke="#63b8ff" points="776.27,-43.95 785.58,-38.89 775.15,-37.04 776.27,-43.95"/>
</a>
</g>
</g>
<!-- Node12&#45;&gt;Node7 -->
<g id="edge13_Node000012_Node000007" class="edge">
<title>Node12&#45;&gt;Node7</title>
<g id="a_edge13_Node000012_Node000007"><a xlink:title=" ">
<path fill="none" stroke="#63b8ff" d="M439.24,-10C446.92,-10 455.23,-10 463.64,-10"/>
<polygon fill="#63b8ff" stroke="#63b8ff" points="463.6,-13.5 473.6,-10 463.6,-6.5 463.6,-13.5"/>
</a>
</g>
</g>
<!-- Node12&#45;&gt;Node8 -->
<g id="edge14_Node000012_Node000008" class="edge">
<title>Node12&#45;&gt;Node8</title>
<g id="a_edge14_Node000012_Node000008"><a xlink:title=" ">
<path fill="none" stroke="#63b8ff" d="M433.03,-20.43C445.28,-24.5 459.77,-29.31 473.88,-33.99"/>
<polygon fill="#63b8ff" stroke="#63b8ff" points="472.53,-37.23 483.13,-37.06 474.74,-30.59 472.53,-37.23"/>
</a>
</g>
</g>
</g>
</svg>
