<?xml version="1.0" encoding="UTF-8" standalone="no"?>
<!DOCTYPE svg PUBLIC "-//W3C//DTD SVG 1.1//EN"
 "http://www.w3.org/Graphics/SVG/1.1/DTD/svg11.dtd">
<!-- Generated by graphviz version 8.0.3 (20230416.2022)
 -->
<!-- Title: groupShareCalendar Pages: 1 -->
<svg width="397pt" height="103pt"
 viewBox="0.00 0.00 397.00 103.00" xmlns="http://www.w3.org/2000/svg" xmlns:xlink="http://www.w3.org/1999/xlink">
<g id="graph0" class="graph" transform="scale(1 1) rotate(0) translate(4 99)">
<title>groupShareCalendar</title>
<!-- Node1 -->
<g id="node1" class="node">
<title>Node1</title>
<g id="a_node1"><a xlink:title="Share the given calendar with a group.">
<polygon fill="#999999" stroke="#666666" points="105,-57 0,-57 0,-38 105,-38 105,-57"/>
<text text-anchor="middle" x="52.5" y="-45" font-family="Helvetica,sans-Serif" font-size="10.00">groupShareCalendar</text>
</a>
</g>
</g>
<!-- Node2 -->
<g id="node2" class="node">
<title>Node2</title>
<g id="a_node2"><a xlink:href="class_o_c_a_1_1_c_a_f_e_v_d_b_1_1_service_1_1_cal_dav_service.html#a73af2c12aae06cdd9242151cfbdb94be" target="_top" xlink:title="Test if the given calendar is shared with the given group.">
<polygon fill="white" stroke="#666666" points="261,-95 141,-95 141,-76 261,-76 261,-95"/>
<text text-anchor="middle" x="201" y="-83" font-family="Helvetica,sans-Serif" font-size="10.00">isGroupSharedCalendar</text>
</a>
</g>
</g>
<!-- Node1&#45;&gt;Node2 -->
<g id="edge1" class="edge">
<title>Node1&#45;&gt;Node2</title>
<path fill="none" stroke="#63b8ff" d="M91.99,-57.48C110.09,-62.18 131.87,-67.83 151.12,-72.82"/>
<polygon fill="#63b8ff" stroke="#63b8ff" points="149.95,-76.39 160.51,-75.52 151.71,-69.62 149.95,-76.39"/>
</g>
<!-- Node3 -->
<g id="node3" class="node">
<title>Node3</title>
<g id="a_node3"><a xlink:href="class_o_c_a_1_1_c_a_f_e_v_d_b_1_1_service_1_1_cal_dav_service.html#ae15d4de248635c80289eb846492d31e2" target="_top" xlink:title=" ">
<polygon fill="white" stroke="#666666" points="389,-76 297,-76 297,-57 389,-57 389,-76"/>
<text text-anchor="middle" x="343" y="-64" font-family="Helvetica,sans-Serif" font-size="10.00">makeGroupShare</text>
</a>
</g>
</g>
<!-- Node1&#45;&gt;Node3 -->
<g id="edge4" class="edge">
<title>Node1&#45;&gt;Node3</title>
<path fill="none" stroke="#63b8ff" d="M105.41,-50.92C156.3,-54.27 233.64,-59.36 285.92,-62.81"/>
<polygon fill="#63b8ff" stroke="#63b8ff" points="285.47,-66.35 295.67,-63.51 285.93,-59.37 285.47,-66.35"/>
</g>
<!-- Node4 -->
<g id="node4" class="node">
<title>Node4</title>
<g id="a_node4"><a xlink:href="class_o_c_a_1_1_c_a_f_e_v_d_b_1_1_service_1_1_cal_dav_service.html#a95d471e2ffc087c4a6e55a8416cd7d59" target="_top" xlink:title="Create a new calendar object.">
<polygon fill="white" stroke="#666666" points="241,-19 161,-19 161,0 241,0 241,-19"/>
<text text-anchor="middle" x="201" y="-7" font-family="Helvetica,sans-Serif" font-size="10.00">makeCalendar</text>
</a>
</g>
</g>
<!-- Node1&#45;&gt;Node4 -->
<g id="edge3" class="edge">
<title>Node1&#45;&gt;Node4</title>
<path fill="none" stroke="#63b8ff" d="M91.99,-37.52C110.09,-32.82 131.87,-27.17 151.12,-22.18"/>
<polygon fill="#63b8ff" stroke="#63b8ff" points="151.71,-25.38 160.51,-19.48 149.95,-18.61 151.71,-25.38"/>
</g>
<!-- Node2&#45;&gt;Node3 -->
<g id="edge2" class="edge">
<title>Node2&#45;&gt;Node3</title>
<path fill="none" stroke="#63b8ff" d="M261.37,-77.44C269.47,-76.34 277.76,-75.22 285.79,-74.13"/>
<polygon fill="#63b8ff" stroke="#63b8ff" points="286.12,-77.48 295.56,-72.67 285.18,-70.54 286.12,-77.48"/>
</g>
</g>
</svg>
