<?xml version="1.0" encoding="UTF-8" standalone="no"?>
<!DOCTYPE svg PUBLIC "-//W3C//DTD SVG 1.1//EN"
 "http://www.w3.org/Graphics/SVG/1.1/DTD/svg11.dtd">
<!-- Generated by graphviz version 7.1.0 (20230121.1956)
 -->
<!-- Title: refreshAddressBookManager Pages: 1 -->
<svg width="299pt" height="138pt"
 viewBox="0.00 0.00 299.00 138.00" xmlns="http://www.w3.org/2000/svg" xmlns:xlink="http://www.w3.org/1999/xlink">
<g id="graph0" class="graph" transform="scale(1 1) rotate(0) translate(4 134)">
<title>refreshAddressBookManager</title>
<!-- Node1 -->
<g id="node1" class="node">
<title>Node1</title>
<g id="a_node1"><a xlink:title="Force OCP\Contacts\IManager to be refreshed.">
<polygon fill="#999999" stroke="#666666" points="291,-74 148,-74 148,-55 291,-55 291,-74"/>
<text text-anchor="middle" x="219.5" y="-62" font-family="Helvetica,sans-Serif" font-size="10.00">refreshAddressBookManager</text>
</a>
</g>
</g>
<!-- Node2 -->
<g id="node2" class="node">
<title>Node2</title>
<g id="a_node2"><a xlink:href="class_o_c_a_1_1_c_a_f_e_v_d_b_1_1_service_1_1_card_dav_service.html#a694043b49fba835fe447eb3d141ade45" target="_top" xlink:title="Get a addressBook with the given its id.">
<polygon fill="white" stroke="#666666" points="103,-130 9,-130 9,-111 103,-111 103,-130"/>
<text text-anchor="middle" x="56" y="-118" font-family="Helvetica,sans-Serif" font-size="10.00">addressBookById</text>
</a>
</g>
</g>
<!-- Node1&#45;&gt;Node2 -->
<g id="edge1" class="edge">
<title>Node1&#45;&gt;Node2</title>
<path fill="none" stroke="#63b8ff" d="M180.72,-78.25C160.4,-85.58 134.88,-94.67 112,-102.5 104.2,-105.17 95.76,-107.97 87.88,-110.55"/>
<polygon fill="#63b8ff" stroke="#63b8ff" points="181.79,-81.59 190.01,-74.9 179.41,-75.01 181.79,-81.59"/>
</g>
<!-- Node3 -->
<g id="node3" class="node">
<title>Node3</title>
<g id="a_node3"><a xlink:href="class_o_c_a_1_1_c_a_f_e_v_d_b_1_1_service_1_1_card_dav_service.html#ae46b9f2a694b253dae20d1ebbd52bb60" target="_top" xlink:title="Get a addressBook with the given display name.">
<polygon fill="white" stroke="#666666" points="112,-93 0,-93 0,-74 112,-74 112,-93"/>
<text text-anchor="middle" x="56" y="-81" font-family="Helvetica,sans-Serif" font-size="10.00">addressBookByName</text>
</a>
</g>
</g>
<!-- Node1&#45;&gt;Node3 -->
<g id="edge2" class="edge">
<title>Node1&#45;&gt;Node3</title>
<path fill="none" stroke="#63b8ff" d="M136.49,-74.15C128.28,-75.11 120.08,-76.08 112.24,-77"/>
<polygon fill="#63b8ff" stroke="#63b8ff" points="136.64,-77.66 146.16,-73.01 135.82,-70.7 136.64,-77.66"/>
</g>
<!-- Node4 -->
<g id="node4" class="node">
<title>Node4</title>
<g id="a_node4"><a xlink:href="class_o_c_a_1_1_c_a_f_e_v_d_b_1_1_service_1_1_card_dav_service.html#aaab5971299e1f25c57239b9043fa0992" target="_top" xlink:title="Get or create a addressBook.">
<polygon fill="white" stroke="#666666" points="107,-56 5,-56 5,-37 107,-37 107,-56"/>
<text text-anchor="middle" x="56" y="-44" font-family="Helvetica,sans-Serif" font-size="10.00">createAddressBook</text>
</a>
</g>
</g>
<!-- Node1&#45;&gt;Node4 -->
<g id="edge3" class="edge">
<title>Node1&#45;&gt;Node4</title>
<path fill="none" stroke="#63b8ff" d="M136.49,-55.36C126.57,-54.25 116.68,-53.15 107.41,-52.12"/>
<polygon fill="#63b8ff" stroke="#63b8ff" points="135.83,-58.81 146.16,-56.44 136.61,-51.85 135.83,-58.81"/>
</g>
<!-- Node5 -->
<g id="node5" class="node">
<title>Node5</title>
<g id="a_node5"><a xlink:href="class_o_c_a_1_1_c_a_f_e_v_d_b_1_1_service_1_1_card_dav_service.html#a889e0ae6a7de43d1320c192809ffafbe" target="_top" xlink:title="Delete the addressBook with the given id.">
<polygon fill="white" stroke="#666666" points="106.5,-19 5.5,-19 5.5,0 106.5,0 106.5,-19"/>
<text text-anchor="middle" x="56" y="-7" font-family="Helvetica,sans-Serif" font-size="10.00">deleteAddressBook</text>
</a>
</g>
</g>
<!-- Node1&#45;&gt;Node5 -->
<g id="edge4" class="edge">
<title>Node1&#45;&gt;Node5</title>
<path fill="none" stroke="#63b8ff" d="M178.41,-50.85C149.84,-41.12 112.08,-28.26 86.3,-19.48"/>
<polygon fill="#63b8ff" stroke="#63b8ff" points="177.23,-54.14 187.82,-54.05 179.48,-47.52 177.23,-54.14"/>
</g>
</g>
</svg>
