<?xml version="1.0" encoding="UTF-8" standalone="no"?>
<!DOCTYPE svg PUBLIC "-//W3C//DTD SVG 1.1//EN"
 "http://www.w3.org/Graphics/SVG/1.1/DTD/svg11.dtd">
<!-- Generated by graphviz version 8.0.3 (20230416.2022)
 -->
<!-- Title: PostRemoveMusicianEmail Pages: 1 -->
<svg width="145pt" height="137pt"
 viewBox="0.00 0.00 145.00 137.00" xmlns="http://www.w3.org/2000/svg" xmlns:xlink="http://www.w3.org/1999/xlink">
<g id="graph0" class="graph" transform="scale(1 1) rotate(0) translate(4 133)">
<title>PostRemoveMusicianEmail</title>
<!-- Node1 -->
<g id="node1" class="node">
<title>Node1</title>
<g id="a_node1"><a xlink:title="Event fired by the Musician entity through a life&#45;cycle hook after the email address is changed.">
<polygon fill="#999999" stroke="#666666" points="137,-19 0,-19 0,0 137,0 137,-19"/>
<text text-anchor="middle" x="68.5" y="-7" font-family="Helvetica,sans-Serif" font-size="10.00">PostRemoveMusicianEmail</text>
</a>
</g>
</g>
<!-- Node2 -->
<g id="node2" class="node">
<title>Node2</title>
<g id="a_node2"><a xlink:href="class_o_c_a_1_1_c_a_f_e_v_d_b_1_1_events_1_1_musician_email_event.html" target="_top" xlink:title="Base class for musician email events.">
<polygon fill="white" stroke="#666666" points="121.5,-74 15.5,-74 15.5,-55 121.5,-55 121.5,-74"/>
<text text-anchor="middle" x="68.5" y="-62" font-family="Helvetica,sans-Serif" font-size="10.00">MusicianEmailEvent</text>
</a>
</g>
</g>
<!-- Node2&#45;&gt;Node1 -->
<g id="edge1" class="edge">
<title>Node2&#45;&gt;Node1</title>
<path fill="none" stroke="#63b8ff" d="M68.5,-43.93C68.5,-35.53 68.5,-26.13 68.5,-19.44"/>
<polygon fill="#63b8ff" stroke="#63b8ff" points="65,-43.75 68.5,-53.75 72,-43.75 65,-43.75"/>
</g>
<!-- Node3 -->
<g id="node3" class="node">
<title>Node3</title>
<g id="a_node3"><a xlink:title=" ">
<polygon fill="white" stroke="#bfbfbf" points="89.5,-129 47.5,-129 47.5,-110 89.5,-110 89.5,-129"/>
<text text-anchor="middle" x="68.5" y="-117" font-family="Helvetica,sans-Serif" font-size="10.00">Event</text>
</a>
</g>
</g>
<!-- Node3&#45;&gt;Node2 -->
<g id="edge2" class="edge">
<title>Node3&#45;&gt;Node2</title>
<path fill="none" stroke="#63b8ff" d="M68.5,-98.93C68.5,-90.53 68.5,-81.13 68.5,-74.44"/>
<polygon fill="#63b8ff" stroke="#63b8ff" points="65,-98.75 68.5,-108.75 72,-98.75 65,-98.75"/>
</g>
</g>
</svg>
