<?xml version="1.0" encoding="UTF-8" standalone="no"?>
<!DOCTYPE svg PUBLIC "-//W3C//DTD SVG 1.1//EN"
 "http://www.w3.org/Graphics/SVG/1.1/DTD/svg11.dtd">
<!-- Generated by graphviz version 7.1.0 (20230121.1956)
 -->
<!-- Title: ProjectParticipantFieldDatum Pages: 1 -->
<svg width="152pt" height="137pt"
 viewBox="0.00 0.00 152.00 137.00" xmlns="http://www.w3.org/2000/svg" xmlns:xlink="http://www.w3.org/1999/xlink">
<g id="graph0" class="graph" transform="scale(1 1) rotate(0) translate(4 133)">
<title>ProjectParticipantFieldDatum</title>
<!-- Node1 -->
<g id="node1" class="node">
<title>Node1</title>
<g id="a_node1"><a xlink:title="ProjectParticipantFieldsData.">
<polygon fill="#999999" stroke="#666666" points="144,-74 0,-74 0,-55 144,-55 144,-74"/>
<text text-anchor="middle" x="72" y="-62" font-family="Helvetica,sans-Serif" font-size="10.00">ProjectParticipantFieldDatum</text>
</a>
</g>
</g>
<!-- Node3 -->
<g id="node3" class="node">
<title>Node3</title>
<g id="a_node3"><a xlink:href="class_o_c_a_1_1_c_a_f_e_v_d_b_1_1_database_1_1_doctrine_1_1_o_r_m_1_1_proxies_1_1_____c_g_____1_32ecfb485eb888718d3bd8a01b150822.html" target="_top" xlink:title="DO NOT EDIT THIS FILE &#45; IT WAS CREATED BY DOCTRINE&#39;S PROXY GENERATOR.">
<polygon fill="white" stroke="#666666" points="144,-19 0,-19 0,0 144,0 144,-19"/>
<text text-anchor="middle" x="72" y="-7" font-family="Helvetica,sans-Serif" font-size="10.00">ProjectParticipantFieldDatum</text>
</a>
</g>
</g>
<!-- Node1&#45;&gt;Node3 -->
<g id="edge2" class="edge">
<title>Node1&#45;&gt;Node3</title>
<path fill="none" stroke="#63b8ff" d="M72,-43.35C72,-35.1 72,-25.97 72,-19.44"/>
<polygon fill="#63b8ff" stroke="#63b8ff" points="68.5,-43.23 72,-53.23 75.5,-43.23 68.5,-43.23"/>
</g>
<!-- Node2 -->
<g id="node2" class="node">
<title>Node2</title>
<g id="a_node2"><a xlink:title=" ">
<polygon fill="white" stroke="#bfbfbf" points="108.5,-129 35.5,-129 35.5,-110 108.5,-110 108.5,-129"/>
<text text-anchor="middle" x="72" y="-117" font-family="Helvetica,sans-Serif" font-size="10.00">ArrayAccess</text>
</a>
</g>
</g>
<!-- Node2&#45;&gt;Node1 -->
<g id="edge1" class="edge">
<title>Node2&#45;&gt;Node1</title>
<path fill="none" stroke="#63b8ff" d="M72,-98.35C72,-90.1 72,-80.97 72,-74.44"/>
<polygon fill="#63b8ff" stroke="#63b8ff" points="68.5,-98.23 72,-108.23 75.5,-98.23 68.5,-98.23"/>
</g>
</g>
</svg>
