<?xml version="1.0" encoding="UTF-8" standalone="no"?>
<!DOCTYPE svg PUBLIC "-//W3C//DTD SVG 1.1//EN"
 "http://www.w3.org/Graphics/SVG/1.1/DTD/svg11.dtd">
<!-- Generated by graphviz version 8.0.3 (20230416.2022)
 -->
<!-- Title: fetchInstrumentsFilter Pages: 1 -->
<svg width="334pt" height="46pt"
 viewBox="0.00 0.00 334.00 46.00" xmlns="http://www.w3.org/2000/svg" xmlns:xlink="http://www.w3.org/1999/xlink">
<g id="graph0" class="graph" transform="scale(1 1) rotate(0) translate(4 42)">
<title>fetchInstrumentsFilter</title>
<!-- Node1 -->
<g id="node1" class="node">
<title>Node1</title>
<g id="a_node1"><a xlink:title="Fetch the instruments filter from the CGI parameters.">
<polygon fill="#999999" stroke="#666666" points="112,-38 0,-38 0,-19 112,-19 112,-38"/>
<text text-anchor="middle" x="56" y="-26" font-family="Helvetica,sans-Serif" font-size="10.00">fetchInstrumentsFilter</text>
</a>
</g>
</g>
<!-- Node2 -->
<g id="node2" class="node">
<title>Node2</title>
<g id="a_node2"><a xlink:href="class_o_c_a_1_1_c_a_f_e_v_d_b_1_1_email_form_1_1_recipients_filter.html#a1497fe5acb2403ca1873ec2fd4b790fe" target="_top" xlink:title="Fetch a CGI&#45;variable out of the form&#45;select name&#45;space.">
<polygon fill="white" stroke="#666666" points="326,-38 273,-38 273,-19 326,-19 326,-38"/>
<text text-anchor="middle" x="299.5" y="-26" font-family="Helvetica,sans-Serif" font-size="10.00">cgiValue</text>
</a>
</g>
</g>
<!-- Node1&#45;&gt;Node2 -->
<g id="edge1" class="edge">
<title>Node1&#45;&gt;Node2</title>
<path fill="none" stroke="#63b8ff" d="M112.4,-28.5C158.26,-28.5 222.1,-28.5 261.83,-28.5"/>
<polygon fill="#63b8ff" stroke="#63b8ff" points="261.61,-32 271.61,-28.5 261.61,-25 261.61,-32"/>
</g>
<!-- Node3 -->
<g id="node3" class="node">
<title>Node3</title>
<g id="a_node3"><a xlink:href="class_o_c_a_1_1_c_a_f_e_v_d_b_1_1_email_form_1_1_recipients_filter.html#a2765950b3322c101496bb711b89709ed" target="_top" xlink:title=" ">
<polygon fill="white" stroke="#666666" points="237,-19 148,-19 148,0 237,0 237,-19"/>
<text text-anchor="middle" x="192.5" y="-7" font-family="Helvetica,sans-Serif" font-size="10.00">instrumentsFilter</text>
</a>
</g>
</g>
<!-- Node1&#45;&gt;Node3 -->
<g id="edge2" class="edge">
<title>Node1&#45;&gt;Node3</title>
<path fill="none" stroke="#63b8ff" d="M112.48,-20.66C120.54,-19.52 128.83,-18.35 136.88,-17.22"/>
<polygon fill="#63b8ff" stroke="#63b8ff" points="137.23,-20.56 146.64,-15.7 136.25,-13.63 137.23,-20.56"/>
</g>
<!-- Node3&#45;&gt;Node2 -->
<g id="edge3" class="edge">
<title>Node3&#45;&gt;Node2</title>
<path fill="none" stroke="#63b8ff" d="M237.42,-17.45C245.6,-18.93 254.05,-20.46 261.98,-21.89"/>
<polygon fill="#63b8ff" stroke="#63b8ff" points="261.27,-25.5 271.73,-23.84 262.52,-18.61 261.27,-25.5"/>
</g>
</g>
</svg>
