<?xml version="1.0" encoding="UTF-8" standalone="no"?>
<!DOCTYPE svg PUBLIC "-//W3C//DTD SVG 1.1//EN"
 "http://www.w3.org/Graphics/SVG/1.1/DTD/svg11.dtd">
<!-- Generated by graphviz version 9.0.0 (20230911.1827)
 -->
<!-- Title: EntityRepository Pages: 1 -->
<!--zoomable 1064 -->

<svg id="main" version="1.1" xmlns="http://www.w3.org/2000/svg" xmlns:xlink="http://www.w3.org/1999/xlink" xml:space="preserve" onload="init(evt)">
<style type="text/css"><![CDATA[
.node, .edge {opacity: 0.7;}
.node.selected, .edge.selected {opacity: 1;}
.edge:hover path { stroke: red; }
.edge:hover polygon { stroke: red; fill: red; }
]]></style>

<defs>
  <circle id="rim" cx="0" cy="0" r="7"/>
  <circle id="rim2" cx="0" cy="0" r="3.5"/>
  <g id="zoomPlus">
    <use xlink:href="#rim" fill="#404040"><set attributeName="fill" to="#808080" begin="zoomplus.mouseover" end="zoomplus.mouseout"/></use>
    <path d="M-4,0h8M0,-4v8" fill="none" stroke="white" stroke-width="1.5" pointer-events="none"/>
  </g>
  <g id="zoomMin">
    <use xlink:href="#rim" fill="#404040"><set attributeName="fill" to="#808080" begin="zoomminus.mouseover" end="zoomminus.mouseout"/></use>
    <path d="M-4,0h8" fill="none" stroke="white" stroke-width="1.5" pointer-events="none"/>
  </g>
  <g id="arrowUp" transform="translate(30 24)">
    <use xlink:href="#rim"/>
    <path pointer-events="none" fill="none" stroke="white" stroke-width="1.5" d="M0,-3.0v7 M-2.5,-0.5L0,-3.0L2.5,-0.5"/>
  </g>
  <g id="arrowRight" transform="rotate(90) translate(36 -43)">
    <use xlink:href="#rim"/>
    <path pointer-events="none" fill="none" stroke="white" stroke-width="1.5" d="M0,-3.0v7 M-2.5,-0.5L0,-3.0L2.5,-0.5"/>
  </g>
  <g id="arrowDown" transform="rotate(180) translate(-30 -48)">
    <use xlink:href="#rim"/>
    <path pointer-events="none" fill="none" stroke="white" stroke-width="1.5" d="M0,-3.0v7 M-2.5,-0.5L0,-3.0L2.5,-0.5"/>
  </g>
  <g id="arrowLeft" transform="rotate(270) translate(-36 17)">
    <use xlink:href="#rim"/>
    <path pointer-events="none" fill="none" stroke="white" stroke-width="1.5" d="M0,-3.0v7 M-2.5,-0.5L0,-3.0L2.5,-0.5"/>
  </g>
  <g id="resetDef">
    <use xlink:href="#rim2" fill="#404040"><set attributeName="fill" to="#808080" begin="reset.mouseover" end="reset.mouseout"/></use>
  </g>
</defs>
<script type="application/ecmascript">
var viewWidth = 626;
var viewHeight = 1064;
var sectionId = 'dynsection-0';
</script>
<script type="application/ecmascript" xlink:href="svg.min.js"/>
<svg id="graph" class="graph">
<g id="viewport">
<title>EntityRepository</title>
<!-- Node1 -->
<g id="Node000001" class="node">
<title>Node1</title>
<g id="a_Node000001"><a xlink:title="Base class for all of our repositories.">
<polygon fill="#999999" stroke="#666666" points="213.5,-532 124.75,-532 124.75,-512 213.5,-512 213.5,-532"/>
<text text-anchor="middle" x="169.12" y="-518.5" font-family="Helvetica,sans-Serif" font-size="10.00">EntityRepository</text>
</a>
</g>
</g>
<!-- Node3 -->
<g id="Node000003" class="node">
<title>Node3</title>
<g id="a_Node000003"><a xlink:href="class_o_c_a_1_1_c_a_f_e_v_d_b_1_1_database_1_1_doctrine_1_1_o_r_m_1_1_repositories_1_1_composite_payments_repository.html" target="_top" xlink:title="Database repository for CompositePayments entities.">
<polygon fill="white" stroke="#666666" points="407.62,-1056 252.88,-1056 252.88,-1036 407.62,-1036 407.62,-1056"/>
<text text-anchor="middle" x="330.25" y="-1042.5" font-family="Helvetica,sans-Serif" font-size="10.00">CompositePaymentsRepository</text>
</a>
</g>
</g>
<!-- Node1&#45;&gt;Node3 -->
<g id="edge2_Node000001_Node000003" class="edge">
<title>Node1&#45;&gt;Node3</title>
<g id="a_edge2_Node000001_Node000003"><a xlink:title=" ">
<path fill="none" stroke="#63b8ff" d="M170.44,-543.82C172.15,-631.26 182.94,-955.04 249.5,-1027 252.69,-1030.45 256.38,-1033.32 260.39,-1035.72"/>
<polygon fill="#63b8ff" stroke="#63b8ff" points="173.94,-543.94 170.27,-534 166.94,-544.06 173.94,-543.94"/>
</a>
</g>
</g>
<!-- Node4 -->
<g id="Node000004" class="node">
<title>Node4</title>
<g id="a_Node000004"><a xlink:href="class_o_c_a_1_1_c_a_f_e_v_d_b_1_1_database_1_1_doctrine_1_1_o_r_m_1_1_repositories_1_1_database_storage_dir_entries_repository.html" target="_top" xlink:title="Database repository for DatabaseStorageDirEntry entities.">
<polygon fill="white" stroke="#666666" points="397.88,-1018 262.62,-1018 262.62,-986 397.88,-986 397.88,-1018"/>
<text text-anchor="start" x="270.62" y="-1004.5" font-family="Helvetica,sans-Serif" font-size="10.00">DatabaseStorageDirEntries</text>
<text text-anchor="middle" x="330.25" y="-992.5" font-family="Helvetica,sans-Serif" font-size="10.00">Repository</text>
</a>
</g>
</g>
<!-- Node1&#45;&gt;Node4 -->
<g id="edge3_Node000001_Node000004" class="edge">
<title>Node1&#45;&gt;Node4</title>
<g id="a_edge3_Node000001_Node000004"><a xlink:title=" ">
<path fill="none" stroke="#63b8ff" d="M170.99,-543.58C174.67,-624.82 191.6,-910.97 249.5,-977 253.14,-981.15 257.45,-984.61 262.16,-987.51"/>
<polygon fill="#63b8ff" stroke="#63b8ff" points="174.49,-543.53 170.57,-533.69 167.5,-543.83 174.49,-543.53"/>
</a>
</g>
</g>
<!-- Node7 -->
<g id="Node000007" class="node">
<title>Node7</title>
<g id="a_Node000007"><a xlink:href="class_o_c_a_1_1_c_a_f_e_v_d_b_1_1_database_1_1_doctrine_1_1_o_r_m_1_1_repositories_1_1_database_storages_repository.html" target="_top" xlink:title="Database repository for DatabaseStorages entities.">
<polygon fill="white" stroke="#666666" points="402.38,-968 258.12,-968 258.12,-948 402.38,-948 402.38,-968"/>
<text text-anchor="middle" x="330.25" y="-954.5" font-family="Helvetica,sans-Serif" font-size="10.00">DatabaseStoragesRepository</text>
</a>
</g>
</g>
<!-- Node1&#45;&gt;Node7 -->
<g id="edge6_Node000001_Node000007" class="edge">
<title>Node1&#45;&gt;Node7</title>
<g id="a_edge6_Node000001_Node000007"><a xlink:title=" ">
<path fill="none" stroke="#63b8ff" d="M171.22,-543.61C175.57,-620.75 194.16,-881.07 249.5,-939 252.74,-942.4 256.48,-945.23 260.52,-947.6"/>
<polygon fill="#63b8ff" stroke="#63b8ff" points="174.72,-543.44 170.68,-533.65 167.73,-543.82 174.72,-543.44"/>
</a>
</g>
</g>
<!-- Node8 -->
<g id="Node000008" class="node">
<title>Node8</title>
<g id="a_Node000008"><a xlink:href="class_o_c_a_1_1_c_a_f_e_v_d_b_1_1_database_1_1_doctrine_1_1_o_r_m_1_1_repositories_1_1_email_drafts_repository.html" target="_top" xlink:title=" ">
<polygon fill="white" stroke="#666666" points="387.75,-930 272.75,-930 272.75,-910 387.75,-910 387.75,-930"/>
<text text-anchor="middle" x="330.25" y="-916.5" font-family="Helvetica,sans-Serif" font-size="10.00">EmailDraftsRepository</text>
</a>
</g>
</g>
<!-- Node1&#45;&gt;Node8 -->
<g id="edge7_Node000001_Node000008" class="edge">
<title>Node1&#45;&gt;Node8</title>
<g id="a_edge7_Node000001_Node000008"><a xlink:title=" ">
<path fill="none" stroke="#63b8ff" d="M171.66,-543.5C177.26,-615.88 198.97,-849.07 249.5,-901 255.75,-907.43 263.76,-911.84 272.27,-914.84"/>
<polygon fill="#63b8ff" stroke="#63b8ff" points="175.17,-543.5 170.93,-533.78 168.19,-544.02 175.17,-543.5"/>
</a>
</g>
</g>
<!-- Node9 -->
<g id="Node000009" class="node">
<title>Node9</title>
<g id="a_Node000009"><a xlink:href="class_o_c_a_1_1_c_a_f_e_v_d_b_1_1_database_1_1_doctrine_1_1_o_r_m_1_1_repositories_1_1_email_templates_repository.html" target="_top" xlink:title=" ">
<polygon fill="white" stroke="#666666" points="396.75,-892 263.75,-892 263.75,-872 396.75,-872 396.75,-892"/>
<text text-anchor="middle" x="330.25" y="-878.5" font-family="Helvetica,sans-Serif" font-size="10.00">EmailTemplatesRepository</text>
</a>
</g>
</g>
<!-- Node1&#45;&gt;Node9 -->
<g id="edge8_Node000001_Node000009" class="edge">
<title>Node1&#45;&gt;Node9</title>
<g id="a_edge8_Node000001_Node000009"><a xlink:title=" ">
<path fill="none" stroke="#63b8ff" d="M172.2,-543.5C179.15,-611.02 203.79,-817.05 249.5,-863 253.52,-867.04 258.22,-870.27 263.31,-872.87"/>
<polygon fill="#63b8ff" stroke="#63b8ff" points="175.71,-543.36 171.23,-533.76 168.74,-544.06 175.71,-543.36"/>
</a>
</g>
</g>
<!-- Node10 -->
<g id="Node000010" class="node">
<title>Node10</title>
<g id="a_Node000010"><a xlink:href="class_o_c_a_1_1_c_a_f_e_v_d_b_1_1_database_1_1_doctrine_1_1_o_r_m_1_1_repositories_1_1_files_repository.html" target="_top" xlink:title="Entity&#45;repository for file enitites.">
<polygon fill="white" stroke="#666666" points="372.38,-854 288.12,-854 288.12,-834 372.38,-834 372.38,-854"/>
<text text-anchor="middle" x="330.25" y="-840.5" font-family="Helvetica,sans-Serif" font-size="10.00">FilesRepository</text>
</a>
</g>
</g>
<!-- Node1&#45;&gt;Node10 -->
<g id="edge9_Node000001_Node000010" class="edge">
<title>Node1&#45;&gt;Node10</title>
<g id="a_edge9_Node000001_Node000010"><a xlink:title=" ">
<path fill="none" stroke="#63b8ff" d="M172.88,-543.52C181.29,-605.91 208.58,-784.98 249.5,-825 259.68,-834.95 274.07,-840.03 287.84,-842.52"/>
<polygon fill="#63b8ff" stroke="#63b8ff" points="176.38,-543.33 171.61,-533.87 169.44,-544.24 176.38,-543.33"/>
</a>
</g>
</g>
<!-- Node12 -->
<g id="Node000012" class="node">
<title>Node12</title>
<g id="a_Node000012"><a xlink:href="class_o_c_a_1_1_c_a_f_e_v_d_b_1_1_database_1_1_doctrine_1_1_o_r_m_1_1_repositories_1_1_images_repository.html" target="_top" xlink:title="Repository for images.">
<polygon fill="white" stroke="#666666" points="378,-816 282.5,-816 282.5,-796 378,-796 378,-816"/>
<text text-anchor="middle" x="330.25" y="-802.5" font-family="Helvetica,sans-Serif" font-size="10.00">ImagesRepository</text>
</a>
</g>
</g>
<!-- Node1&#45;&gt;Node12 -->
<g id="edge11_Node000001_Node000012" class="edge">
<title>Node1&#45;&gt;Node12</title>
<g id="a_edge11_Node000001_Node000012"><a xlink:title=" ">
<path fill="none" stroke="#63b8ff" d="M169.82,-543.91C170.37,-594.58 179.16,-720.57 249.5,-787 258.4,-795.4 270.32,-800.31 282.23,-803.11"/>
<polygon fill="#63b8ff" stroke="#63b8ff" points="173.32,-544 169.83,-533.99 166.32,-543.99 173.32,-544"/>
</a>
</g>
</g>
<!-- Node13 -->
<g id="Node000013" class="node">
<title>Node13</title>
<g id="a_Node000013"><a xlink:href="class_o_c_a_1_1_c_a_f_e_v_d_b_1_1_database_1_1_doctrine_1_1_o_r_m_1_1_repositories_1_1_instrument_families_repository.html" target="_top" xlink:title="Repository for instrument families.">
<polygon fill="white" stroke="#666666" points="403.5,-778 257,-778 257,-758 403.5,-758 403.5,-778"/>
<text text-anchor="middle" x="330.25" y="-764.5" font-family="Helvetica,sans-Serif" font-size="10.00">InstrumentFamiliesRepository</text>
</a>
</g>
</g>
<!-- Node1&#45;&gt;Node13 -->
<g id="edge12_Node000001_Node000013" class="edge">
<title>Node1&#45;&gt;Node13</title>
<g id="a_edge12_Node000001_Node000013"><a xlink:title=" ">
<path fill="none" stroke="#63b8ff" d="M171.1,-543.82C174.35,-589.16 188.44,-693.89 249.5,-749 253.3,-752.43 257.62,-755.28 262.22,-757.63"/>
<polygon fill="#63b8ff" stroke="#63b8ff" points="174.6,-543.76 170.52,-533.98 167.61,-544.17 174.6,-543.76"/>
</a>
</g>
</g>
<!-- Node14 -->
<g id="Node000014" class="node">
<title>Node14</title>
<g id="a_Node000014"><a xlink:href="class_o_c_a_1_1_c_a_f_e_v_d_b_1_1_database_1_1_doctrine_1_1_o_r_m_1_1_repositories_1_1_instrument_insurances_repository.html" target="_top" xlink:title="Repository for instrument insurances.">
<polygon fill="white" stroke="#666666" points="409.12,-740 251.38,-740 251.38,-720 409.12,-720 409.12,-740"/>
<text text-anchor="middle" x="330.25" y="-726.5" font-family="Helvetica,sans-Serif" font-size="10.00">InstrumentInsurancesRepository</text>
</a>
</g>
</g>
<!-- Node1&#45;&gt;Node14 -->
<g id="edge13_Node000001_Node000014" class="edge">
<title>Node1&#45;&gt;Node14</title>
<g id="a_edge13_Node000001_Node000014"><a xlink:title=" ">
<path fill="none" stroke="#63b8ff" d="M172.78,-543.38C178.84,-582.78 197.45,-666.85 249.5,-711 253.52,-714.41 258.04,-717.23 262.83,-719.56"/>
<polygon fill="#63b8ff" stroke="#63b8ff" points="176.26,-542.97 171.41,-533.55 169.32,-543.94 176.26,-542.97"/>
</a>
</g>
</g>
<!-- Node15 -->
<g id="Node000015" class="node">
<title>Node15</title>
<g id="a_Node000015"><a xlink:href="class_o_c_a_1_1_c_a_f_e_v_d_b_1_1_database_1_1_doctrine_1_1_o_r_m_1_1_repositories_1_1_instruments_repository.html" target="_top" xlink:title="Repository for instruments.">
<polygon fill="white" stroke="#666666" points="387.75,-702 272.75,-702 272.75,-682 387.75,-682 387.75,-702"/>
<text text-anchor="middle" x="330.25" y="-688.5" font-family="Helvetica,sans-Serif" font-size="10.00">InstrumentsRepository</text>
</a>
</g>
</g>
<!-- Node1&#45;&gt;Node15 -->
<g id="edge14_Node000001_Node000015" class="edge">
<title>Node1&#45;&gt;Node15</title>
<g id="a_edge14_Node000001_Node000015"><a xlink:title=" ">
<path fill="none" stroke="#63b8ff" d="M175.28,-543.42C184.39,-576.5 206.57,-639.65 249.5,-673 256.24,-678.24 264.21,-682.06 272.45,-684.85"/>
<polygon fill="#63b8ff" stroke="#63b8ff" points="178.69,-542.61 172.79,-533.81 171.91,-544.37 178.69,-542.61"/>
</a>
</g>
</g>
<!-- Node16 -->
<g id="Node000016" class="node">
<title>Node16</title>
<g id="a_Node000016"><a xlink:href="class_o_c_a_1_1_c_a_f_e_v_d_b_1_1_database_1_1_doctrine_1_1_o_r_m_1_1_repositories_1_1_musicians_repository.html" target="_top" xlink:title="Repository for musicians.">
<polygon fill="white" stroke="#666666" points="384,-664 276.5,-664 276.5,-644 384,-644 384,-664"/>
<text text-anchor="middle" x="330.25" y="-650.5" font-family="Helvetica,sans-Serif" font-size="10.00">MusiciansRepository</text>
</a>
</g>
</g>
<!-- Node1&#45;&gt;Node16 -->
<g id="edge15_Node000001_Node000016" class="edge">
<title>Node1&#45;&gt;Node16</title>
<g id="a_edge15_Node000001_Node000016"><a xlink:title=" ">
<path fill="none" stroke="#63b8ff" d="M179.01,-542.78C191.12,-568.51 215.26,-611.77 249.5,-635 257.51,-640.43 266.89,-644.32 276.35,-647.1"/>
<polygon fill="#63b8ff" stroke="#63b8ff" points="182.22,-541.39 174.93,-533.71 175.84,-544.26 182.22,-541.39"/>
</a>
</g>
</g>
<!-- Node17 -->
<g id="Node000017" class="node">
<title>Node17</title>
<g id="a_Node000017"><a xlink:href="class_o_c_a_1_1_c_a_f_e_v_d_b_1_1_database_1_1_doctrine_1_1_o_r_m_1_1_repositories_1_1_project_events_repository.html" target="_top" xlink:title="Database repository for ProjectEvent entities.">
<polygon fill="white" stroke="#666666" points="392.62,-626 267.88,-626 267.88,-606 392.62,-606 392.62,-626"/>
<text text-anchor="middle" x="330.25" y="-612.5" font-family="Helvetica,sans-Serif" font-size="10.00">ProjectEventsRepository</text>
</a>
</g>
</g>
<!-- Node1&#45;&gt;Node17 -->
<g id="edge16_Node000001_Node000017" class="edge">
<title>Node1&#45;&gt;Node17</title>
<g id="a_edge16_Node000001_Node000017"><a xlink:title=" ">
<path fill="none" stroke="#63b8ff" d="M185.06,-540.92C199.67,-558.13 223.47,-582.93 249.5,-597 255.89,-600.45 262.89,-603.28 270.02,-605.6"/>
<polygon fill="#63b8ff" stroke="#63b8ff" points="187.95,-538.93 178.9,-533.43 182.54,-543.37 187.95,-538.93"/>
</a>
</g>
</g>
<!-- Node18 -->
<g id="Node000018" class="node">
<title>Node18</title>
<g id="a_Node000018"><a xlink:href="class_o_c_a_1_1_c_a_f_e_v_d_b_1_1_database_1_1_doctrine_1_1_o_r_m_1_1_repositories_1_1_project_ieba037c29b81c783ba29f7b802ae10ff.html" target="_top" xlink:title="Repositories for the required numbers of musicians per voice.">
<polygon fill="white" stroke="#666666" points="407.25,-588 253.25,-588 253.25,-556 407.25,-556 407.25,-588"/>
<text text-anchor="start" x="261.25" y="-574.5" font-family="Helvetica,sans-Serif" font-size="10.00">ProjectInstrumentationNumbers</text>
<text text-anchor="middle" x="330.25" y="-562.5" font-family="Helvetica,sans-Serif" font-size="10.00">Repository</text>
</a>
</g>
</g>
<!-- Node1&#45;&gt;Node18 -->
<g id="edge17_Node000001_Node000018" class="edge">
<title>Node1&#45;&gt;Node18</title>
<g id="a_edge17_Node000001_Node000018"><a xlink:title=" ">
<path fill="none" stroke="#63b8ff" d="M214.06,-535.85C225.59,-539.48 238.01,-543.39 249.5,-547 258.36,-549.78 267.77,-552.74 276.91,-555.6"/>
<polygon fill="#63b8ff" stroke="#63b8ff" points="215.37,-532.59 204.78,-532.93 213.26,-539.27 215.37,-532.59"/>
</a>
</g>
</g>
<!-- Node19 -->
<g id="Node000019" class="node">
<title>Node19</title>
<g id="a_Node000019"><a xlink:href="class_o_c_a_1_1_c_a_f_e_v_d_b_1_1_database_1_1_doctrine_1_1_o_r_m_1_1_repositories_1_1_project_p7b1ebba4b277ad31000ac13bab6e65c6.html" target="_top" xlink:title="Repository for extra fields data.">
<polygon fill="white" stroke="#666666" points="397.88,-538 262.62,-538 262.62,-506 397.88,-506 397.88,-538"/>
<text text-anchor="start" x="270.62" y="-524.5" font-family="Helvetica,sans-Serif" font-size="10.00">ProjectParticipantFieldData</text>
<text text-anchor="middle" x="330.25" y="-512.5" font-family="Helvetica,sans-Serif" font-size="10.00">Repository</text>
</a>
</g>
</g>
<!-- Node1&#45;&gt;Node19 -->
<g id="edge18_Node000001_Node000019" class="edge">
<title>Node1&#45;&gt;Node19</title>
<g id="a_edge18_Node000001_Node000019"><a xlink:title=" ">
<path fill="none" stroke="#63b8ff" d="M224.85,-522C236.88,-522 249.76,-522 262.21,-522"/>
<polygon fill="#63b8ff" stroke="#63b8ff" points="225.12,-518.5 215.12,-522 225.12,-525.5 225.12,-518.5"/>
</a>
</g>
</g>
<!-- Node20 -->
<g id="Node000020" class="node">
<title>Node20</title>
<g id="a_Node000020"><a xlink:href="class_o_c_a_1_1_c_a_f_e_v_d_b_1_1_database_1_1_doctrine_1_1_o_r_m_1_1_repositories_1_1_project_participant_fields_repository.html" target="_top" xlink:title="Repository for per&#45;participant field definitions.">
<polygon fill="white" stroke="#666666" points="390,-488 270.5,-488 270.5,-456 390,-456 390,-488"/>
<text text-anchor="start" x="278.5" y="-474.5" font-family="Helvetica,sans-Serif" font-size="10.00">ProjectParticipantFields</text>
<text text-anchor="middle" x="330.25" y="-462.5" font-family="Helvetica,sans-Serif" font-size="10.00">Repository</text>
</a>
</g>
</g>
<!-- Node1&#45;&gt;Node20 -->
<g id="edge19_Node000001_Node000020" class="edge">
<title>Node1&#45;&gt;Node20</title>
<g id="a_edge19_Node000001_Node000020"><a xlink:title=" ">
<path fill="none" stroke="#63b8ff" d="M214.06,-508.15C225.59,-504.52 238.01,-500.61 249.5,-497 258.36,-494.22 267.77,-491.26 276.91,-488.4"/>
<polygon fill="#63b8ff" stroke="#63b8ff" points="213.26,-504.73 204.78,-511.07 215.37,-511.41 213.26,-504.73"/>
</a>
</g>
</g>
<!-- Node21 -->
<g id="Node000021" class="node">
<title>Node21</title>
<g id="a_Node000021"><a xlink:href="class_o_c_a_1_1_c_a_f_e_v_d_b_1_1_database_1_1_doctrine_1_1_o_r_m_1_1_repositories_1_1_project_participants_repository.html" target="_top" xlink:title="Repository for project participants.">
<polygon fill="white" stroke="#666666" points="403.12,-438 257.38,-438 257.38,-418 403.12,-418 403.12,-438"/>
<text text-anchor="middle" x="330.25" y="-424.5" font-family="Helvetica,sans-Serif" font-size="10.00">ProjectParticipantsRepository</text>
</a>
</g>
</g>
<!-- Node1&#45;&gt;Node21 -->
<g id="edge20_Node000001_Node000021" class="edge">
<title>Node1&#45;&gt;Node21</title>
<g id="a_edge20_Node000001_Node000021"><a xlink:title=" ">
<path fill="none" stroke="#63b8ff" d="M185.06,-503.08C199.67,-485.87 223.47,-461.07 249.5,-447 255.89,-443.55 262.89,-440.72 270.02,-438.4"/>
<polygon fill="#63b8ff" stroke="#63b8ff" points="182.54,-500.63 178.9,-510.57 187.95,-505.07 182.54,-500.63"/>
</a>
</g>
</g>
<!-- Node22 -->
<g id="Node000022" class="node">
<title>Node22</title>
<g id="a_Node000022"><a xlink:href="class_o_c_a_1_1_c_a_f_e_v_d_b_1_1_database_1_1_doctrine_1_1_o_r_m_1_1_repositories_1_1_project_payments_repository.html" target="_top" xlink:title="Repository for ProjectPayment entities.">
<polygon fill="white" stroke="#666666" points="399.38,-400 261.12,-400 261.12,-380 399.38,-380 399.38,-400"/>
<text text-anchor="middle" x="330.25" y="-386.5" font-family="Helvetica,sans-Serif" font-size="10.00">ProjectPaymentsRepository</text>
</a>
</g>
</g>
<!-- Node1&#45;&gt;Node22 -->
<g id="edge21_Node000001_Node000022" class="edge">
<title>Node1&#45;&gt;Node22</title>
<g id="a_edge21_Node000001_Node000022"><a xlink:title=" ">
<path fill="none" stroke="#63b8ff" d="M179.01,-501.22C191.12,-475.49 215.26,-432.23 249.5,-409 254.56,-405.56 260.18,-402.75 266.01,-400.44"/>
<polygon fill="#63b8ff" stroke="#63b8ff" points="175.84,-499.74 174.93,-510.29 182.22,-502.61 175.84,-499.74"/>
</a>
</g>
</g>
<!-- Node23 -->
<g id="Node000023" class="node">
<title>Node23</title>
<g id="a_Node000023"><a xlink:href="class_o_c_a_1_1_c_a_f_e_v_d_b_1_1_database_1_1_doctrine_1_1_o_r_m_1_1_repositories_1_1_project_web_pages_repository.html" target="_top" xlink:title="Repository for the per&#45;project web&#45;pages.">
<polygon fill="white" stroke="#666666" points="400.88,-362 259.62,-362 259.62,-342 400.88,-342 400.88,-362"/>
<text text-anchor="middle" x="330.25" y="-348.5" font-family="Helvetica,sans-Serif" font-size="10.00">ProjectWebPagesRepository</text>
</a>
</g>
</g>
<!-- Node1&#45;&gt;Node23 -->
<g id="edge22_Node000001_Node000023" class="edge">
<title>Node1&#45;&gt;Node23</title>
<g id="a_edge22_Node000001_Node000023"><a xlink:title=" ">
<path fill="none" stroke="#63b8ff" d="M175.28,-500.58C184.39,-467.5 206.57,-404.35 249.5,-371 253.88,-367.6 258.78,-364.79 263.94,-362.47"/>
<polygon fill="#63b8ff" stroke="#63b8ff" points="171.91,-499.63 172.79,-510.19 178.69,-501.39 171.91,-499.63"/>
</a>
</g>
</g>
<!-- Node24 -->
<g id="Node000024" class="node">
<title>Node24</title>
<g id="a_Node000024"><a xlink:href="class_o_c_a_1_1_c_a_f_e_v_d_b_1_1_database_1_1_doctrine_1_1_o_r_m_1_1_repositories_1_1_projects_repository.html" target="_top" xlink:title="Entity repository for projects.">
<polygon fill="white" stroke="#666666" points="379.88,-324 280.62,-324 280.62,-304 379.88,-304 379.88,-324"/>
<text text-anchor="middle" x="330.25" y="-310.5" font-family="Helvetica,sans-Serif" font-size="10.00">ProjectsRepository</text>
</a>
</g>
</g>
<!-- Node1&#45;&gt;Node24 -->
<g id="edge23_Node000001_Node000024" class="edge">
<title>Node1&#45;&gt;Node24</title>
<g id="a_edge23_Node000001_Node000024"><a xlink:title=" ">
<path fill="none" stroke="#63b8ff" d="M172.78,-500.62C178.84,-461.22 197.45,-377.15 249.5,-333 258.18,-325.63 269.23,-321.02 280.31,-318.15"/>
<polygon fill="#63b8ff" stroke="#63b8ff" points="169.32,-500.06 171.41,-510.45 176.26,-501.03 169.32,-500.06"/>
</a>
</g>
</g>
<!-- Node25 -->
<g id="Node000025" class="node">
<title>Node25</title>
<g id="a_Node000025"><a xlink:href="class_o_c_a_1_1_c_a_f_e_v_d_b_1_1_database_1_1_doctrine_1_1_o_r_m_1_1_repositories_1_1_sent_emails_repository.html" target="_top" xlink:title="Augment with our FindLikeTrait.">
<polygon fill="white" stroke="#666666" points="387,-286 273.5,-286 273.5,-266 387,-266 387,-286"/>
<text text-anchor="middle" x="330.25" y="-272.5" font-family="Helvetica,sans-Serif" font-size="10.00">SentEmailsRepository</text>
</a>
</g>
</g>
<!-- Node1&#45;&gt;Node25 -->
<g id="edge24_Node000001_Node000025" class="edge">
<title>Node1&#45;&gt;Node25</title>
<g id="a_edge24_Node000001_Node000025"><a xlink:title=" ">
<path fill="none" stroke="#63b8ff" d="M171.1,-500.18C174.35,-454.84 188.44,-350.11 249.5,-295 256.26,-288.9 264.63,-284.66 273.37,-281.73"/>
<polygon fill="#63b8ff" stroke="#63b8ff" points="167.61,-499.83 170.52,-510.02 174.6,-500.24 167.61,-499.83"/>
</a>
</g>
</g>
<!-- Node26 -->
<g id="Node000026" class="node">
<title>Node26</title>
<g id="a_Node000026"><a xlink:href="class_o_c_a_1_1_c_a_f_e_v_d_b_1_1_database_1_1_doctrine_1_1_o_r_m_1_1_repositories_1_1_sepa_bank_accounts_repository.html" target="_top" xlink:title="@method Entities\SepaBankAccount find($id)">
<polygon fill="white" stroke="#666666" points="405,-248 255.5,-248 255.5,-228 405,-228 405,-248"/>
<text text-anchor="middle" x="330.25" y="-234.5" font-family="Helvetica,sans-Serif" font-size="10.00">SepaBankAccountsRepository</text>
</a>
</g>
</g>
<!-- Node1&#45;&gt;Node26 -->
<g id="edge25_Node000001_Node000026" class="edge">
<title>Node1&#45;&gt;Node26</title>
<g id="a_edge25_Node000001_Node000026"><a xlink:title=" ">
<path fill="none" stroke="#63b8ff" d="M169.82,-500.09C170.37,-449.42 179.16,-323.43 249.5,-257 253.12,-253.58 257.24,-250.74 261.66,-248.38"/>
<polygon fill="#63b8ff" stroke="#63b8ff" points="166.32,-500.01 169.83,-510.01 173.32,-500 166.32,-500.01"/>
</a>
</g>
</g>
<!-- Node27 -->
<g id="Node000027" class="node">
<title>Node27</title>
<g id="a_Node000027"><a xlink:href="class_o_c_a_1_1_c_a_f_e_v_d_b_1_1_database_1_1_doctrine_1_1_o_r_m_1_1_repositories_1_1_sepa_bulk_transactions_repository.html" target="_top" xlink:title="@method Entities\SepaBulkTransaction find($id)">
<polygon fill="white" stroke="#666666" points="411,-210 249.5,-210 249.5,-190 411,-190 411,-210"/>
<text text-anchor="middle" x="330.25" y="-196.5" font-family="Helvetica,sans-Serif" font-size="10.00">SepaBulkTransactionsRepository</text>
</a>
</g>
</g>
<!-- Node1&#45;&gt;Node27 -->
<g id="edge26_Node000001_Node000027" class="edge">
<title>Node1&#45;&gt;Node27</title>
<g id="a_edge26_Node000001_Node000027"><a xlink:title=" ">
<path fill="none" stroke="#63b8ff" d="M172.88,-500.48C181.29,-438.09 208.58,-259.02 249.5,-219 252.96,-215.62 256.91,-212.8 261.15,-210.45"/>
<polygon fill="#63b8ff" stroke="#63b8ff" points="169.44,-499.76 171.61,-510.13 176.38,-500.67 169.44,-499.76"/>
</a>
</g>
</g>
<!-- Node28 -->
<g id="Node000028" class="node">
<title>Node28</title>
<g id="a_Node000028"><a xlink:href="class_o_c_a_1_1_c_a_f_e_v_d_b_1_1_database_1_1_doctrine_1_1_o_r_m_1_1_repositories_1_1_sepa_debit_mandates_repository.html" target="_top" xlink:title="@method Entities\SepaDebitMandate find($id)">
<polygon fill="white" stroke="#666666" points="406.12,-172 254.38,-172 254.38,-152 406.12,-152 406.12,-172"/>
<text text-anchor="middle" x="330.25" y="-158.5" font-family="Helvetica,sans-Serif" font-size="10.00">SepaDebitMandatesRepository</text>
</a>
</g>
</g>
<!-- Node1&#45;&gt;Node28 -->
<g id="edge27_Node000001_Node000028" class="edge">
<title>Node1&#45;&gt;Node28</title>
<g id="a_edge27_Node000001_Node000028"><a xlink:title=" ">
<path fill="none" stroke="#63b8ff" d="M172.2,-500.5C179.15,-432.98 203.79,-226.95 249.5,-181 252.91,-177.57 256.83,-174.71 261.05,-172.34"/>
<polygon fill="#63b8ff" stroke="#63b8ff" points="168.74,-499.94 171.23,-510.24 175.71,-500.64 168.74,-499.94"/>
</a>
</g>
</g>
<!-- Node29 -->
<g id="Node000029" class="node">
<title>Node29</title>
<g id="a_Node000029"><a xlink:href="class_o_c_a_1_1_c_a_f_e_v_d_b_1_1_database_1_1_doctrine_1_1_o_r_m_1_1_repositories_1_1_tax_exemption_notices_repository.html" target="_top" xlink:title="Database repository for CompositePayments entities.">
<polygon fill="white" stroke="#666666" points="409.88,-134 250.62,-134 250.62,-114 409.88,-114 409.88,-134"/>
<text text-anchor="middle" x="330.25" y="-120.5" font-family="Helvetica,sans-Serif" font-size="10.00">TaxExemptionNoticesRepository</text>
</a>
</g>
</g>
<!-- Node1&#45;&gt;Node29 -->
<g id="edge28_Node000001_Node000029" class="edge">
<title>Node1&#45;&gt;Node29</title>
<g id="a_edge28_Node000001_Node000029"><a xlink:title=" ">
<path fill="none" stroke="#63b8ff" d="M171.66,-500.5C177.26,-428.12 198.97,-194.93 249.5,-143 252.78,-139.63 256.53,-136.82 260.59,-134.47"/>
<polygon fill="#63b8ff" stroke="#63b8ff" points="168.19,-499.98 170.93,-510.22 175.17,-500.5 168.19,-499.98"/>
</a>
</g>
</g>
<!-- Node30 -->
<g id="Node000030" class="node">
<title>Node30</title>
<g id="a_Node000030"><a xlink:href="class_o_c_a_1_1_c_a_f_e_v_d_b_1_1_database_1_1_doctrine_1_1_o_r_m_1_1_repositories_1_1_translation_keys_repository.html" target="_top" xlink:title="Repository of translatable strings.">
<polygon fill="white" stroke="#666666" points="397.12,-96 263.38,-96 263.38,-76 397.12,-76 397.12,-96"/>
<text text-anchor="middle" x="330.25" y="-82.5" font-family="Helvetica,sans-Serif" font-size="10.00">TranslationKeysRepository</text>
</a>
</g>
</g>
<!-- Node1&#45;&gt;Node30 -->
<g id="edge29_Node000001_Node000030" class="edge">
<title>Node1&#45;&gt;Node30</title>
<g id="a_edge29_Node000001_Node000030"><a xlink:title=" ">
<path fill="none" stroke="#63b8ff" d="M171.22,-500.39C175.57,-423.25 194.16,-162.93 249.5,-105 253.43,-100.88 258.08,-97.59 263.13,-94.96"/>
<polygon fill="#63b8ff" stroke="#63b8ff" points="167.73,-500.18 170.68,-510.35 174.72,-500.56 167.73,-500.18"/>
</a>
</g>
</g>
<!-- Node31 -->
<g id="Node000031" class="node">
<title>Node31</title>
<g id="a_Node000031"><a xlink:href="class_o_c_a_1_1_c_a_f_e_v_d_b_1_1_database_1_1_doctrine_1_1_o_r_m_1_1_repositories_1_1_translation_locations_repository.html" target="_top" xlink:title="Repository for in&#45;source&#45;file location of to&#45;be&#45;translated strings.">
<polygon fill="white" stroke="#666666" points="406.88,-58 253.62,-58 253.62,-38 406.88,-38 406.88,-58"/>
<text text-anchor="middle" x="330.25" y="-44.5" font-family="Helvetica,sans-Serif" font-size="10.00">TranslationLocationsRepository</text>
</a>
</g>
</g>
<!-- Node1&#45;&gt;Node31 -->
<g id="edge30_Node000001_Node000031" class="edge">
<title>Node1&#45;&gt;Node31</title>
<g id="a_edge30_Node000001_Node000031"><a xlink:title=" ">
<path fill="none" stroke="#63b8ff" d="M170.85,-500.29C174.02,-418.58 189.33,-130.97 249.5,-67 252.72,-63.58 256.43,-60.72 260.46,-58.35"/>
<polygon fill="#63b8ff" stroke="#63b8ff" points="167.35,-500.13 170.49,-510.25 174.35,-500.38 167.35,-500.13"/>
</a>
</g>
</g>
<!-- Node32 -->
<g id="Node000032" class="node">
<title>Node32</title>
<g id="a_Node000032"><a xlink:href="class_o_c_a_1_1_c_a_f_e_v_d_b_1_1_database_1_1_doctrine_1_1_o_r_m_1_1_repositories_1_1_translations_repository.html" target="_top" xlink:title="Repository for translation entity.">
<polygon fill="white" stroke="#666666" points="388.5,-20 272,-20 272,0 388.5,0 388.5,-20"/>
<text text-anchor="middle" x="330.25" y="-6.5" font-family="Helvetica,sans-Serif" font-size="10.00">TranslationsRepository</text>
</a>
</g>
</g>
<!-- Node1&#45;&gt;Node32 -->
<g id="edge31_Node000001_Node000032" class="edge">
<title>Node1&#45;&gt;Node32</title>
<g id="a_edge31_Node000001_Node000032"><a xlink:title=" ">
<path fill="none" stroke="#63b8ff" d="M170.52,-500.43C172.56,-414.67 184.42,-99.1 249.5,-29 255.5,-22.53 263.28,-18.08 271.61,-15.05"/>
<polygon fill="#63b8ff" stroke="#63b8ff" points="167.03,-500.17 170.32,-510.24 174.03,-500.32 167.03,-500.17"/>
</a>
</g>
</g>
<!-- Node2 -->
<g id="Node000002" class="node">
<title>Node2</title>
<g id="a_Node000002"><a xlink:title=" ">
<polygon fill="white" stroke="#bfbfbf" points="88.75,-532 0,-532 0,-512 88.75,-512 88.75,-532"/>
<text text-anchor="middle" x="44.38" y="-518.5" font-family="Helvetica,sans-Serif" font-size="10.00">EntityRepository</text>
</a>
</g>
</g>
<!-- Node2&#45;&gt;Node1 -->
<g id="edge1_Node000001_Node000002" class="edge">
<title>Node2&#45;&gt;Node1</title>
<g id="a_edge1_Node000001_Node000002"><a xlink:title=" ">
<path fill="none" stroke="#63b8ff" d="M100.35,-522C108.49,-522 116.78,-522 124.64,-522"/>
<polygon fill="#63b8ff" stroke="#63b8ff" points="100.51,-518.5 90.51,-522 100.51,-525.5 100.51,-518.5"/>
</a>
</g>
</g>
<!-- Node5 -->
<g id="Node000005" class="node">
<title>Node5</title>
<g id="a_Node000005"><a xlink:href="class_o_c_a_1_1_c_a_f_e_v_d_b_1_1_database_1_1_doctrine_1_1_o_r_m_1_1_repositories_1_1_database_storage_files_repository.html" target="_top" xlink:title="Database repository for DatabaseStorageDirEntry entities.">
<polygon fill="white" stroke="#666666" points="612.62,-1031 452.62,-1031 452.62,-1011 612.62,-1011 612.62,-1031"/>
<text text-anchor="middle" x="532.62" y="-1017.5" font-family="Helvetica,sans-Serif" font-size="10.00">DatabaseStorageFilesRepository</text>
</a>
</g>
</g>
<!-- Node4&#45;&gt;Node5 -->
<g id="edge4_Node000004_Node000005" class="edge">
<title>Node4&#45;&gt;Node5</title>
<g id="a_edge4_Node000004_Node000005"><a xlink:title=" ">
<path fill="none" stroke="#63b8ff" d="M409.37,-1009.41C423.43,-1010.74 438.09,-1012.13 452.18,-1013.47"/>
<polygon fill="#63b8ff" stroke="#63b8ff" points="410.04,-1005.96 399.76,-1008.5 409.38,-1012.92 410.04,-1005.96"/>
</a>
</g>
</g>
<!-- Node6 -->
<g id="Node000006" class="node">
<title>Node6</title>
<g id="a_Node000006"><a xlink:href="class_o_c_a_1_1_c_a_f_e_v_d_b_1_1_database_1_1_doctrine_1_1_o_r_m_1_1_repositories_1_1_database_storage_folders_repository.html" target="_top" xlink:title="Database repository for DatabaseStorageDirEntry entities.">
<polygon fill="white" stroke="#666666" points="618.25,-993 447,-993 447,-973 618.25,-973 618.25,-993"/>
<text text-anchor="middle" x="532.62" y="-979.5" font-family="Helvetica,sans-Serif" font-size="10.00">DatabaseStorageFoldersRepository</text>
</a>
</g>
</g>
<!-- Node4&#45;&gt;Node6 -->
<g id="edge5_Node000004_Node000006" class="edge">
<title>Node4&#45;&gt;Node6</title>
<g id="a_edge5_Node000004_Node000006"><a xlink:title=" ">
<path fill="none" stroke="#63b8ff" d="M409.68,-994.56C421.76,-993.42 434.29,-992.23 446.52,-991.07"/>
<polygon fill="#63b8ff" stroke="#63b8ff" points="409.38,-991.08 399.76,-995.5 410.04,-998.04 409.38,-991.08"/>
</a>
</g>
</g>
<!-- Node11 -->
<g id="Node000011" class="node">
<title>Node11</title>
<g id="a_Node000011"><a xlink:href="class_o_c_a_1_1_c_a_f_e_v_d_b_1_1_database_1_1_doctrine_1_1_o_r_m_1_1_repositories_1_1_encrypted_files_repository.html" target="_top" xlink:title="Entity&#45;repository for encrypted file enitites.">
<polygon fill="white" stroke="#666666" points="596.88,-854 468.38,-854 468.38,-834 596.88,-834 596.88,-854"/>
<text text-anchor="middle" x="532.62" y="-840.5" font-family="Helvetica,sans-Serif" font-size="10.00">EncryptedFilesRepository</text>
</a>
</g>
</g>
<!-- Node10&#45;&gt;Node11 -->
<g id="edge10_Node000010_Node000011" class="edge">
<title>Node10&#45;&gt;Node11</title>
<g id="a_edge10_Node000010_Node000011"><a xlink:title=" ">
<path fill="none" stroke="#63b8ff" d="M384.18,-844C409.91,-844 441.04,-844 468.05,-844"/>
<polygon fill="#63b8ff" stroke="#63b8ff" points="384.28,-840.5 374.28,-844 384.28,-847.5 384.28,-840.5"/>
</a>
</g>
</g>
</g>
</svg>

<g id="navigator" transform="translate(0 0)" fill="#404254">
  <rect fill="#f2f5e9" fill-opacity="0.5" stroke="#606060" stroke-width=".5" x="0" y="0" width="60" height="60"/>
  <use id="zoomplus" xlink:href="#zoomPlus" x="17" y="9" onmousedown="handleZoom(evt,'in')"/>
  <use id="zoomminus" xlink:href="#zoomMin" x="42" y="9" onmousedown="handleZoom(evt,'out')"/>
  <use id="reset" xlink:href="#resetDef" x="30" y="36" onmousedown="handleReset()"/>
   <use id="arrowup" xlink:href="#arrowUp" x="0" y="0" onmousedown="handlePan(0,-1)"/>
  <use id="arrowright" xlink:href="#arrowRight" x="0" y="0" onmousedown="handlePan(1,0)"/>
  <use id="arrowdown" xlink:href="#arrowDown" x="0" y="0" onmousedown="handlePan(0,1)"/>
  <use id="arrowleft" xlink:href="#arrowLeft" x="0" y="0" onmousedown="handlePan(-1,0)"/>
</g>
<svg viewBox="0 0 15 15" width="100%" height="30px" preserveAspectRatio="xMaxYMin meet">
 <g id="arrow_out" transform="scale(0.3 0.3)">
  <a xlink:href="class_o_c_a_1_1_c_a_f_e_v_d_b_1_1_database_1_1_doctrine_1_1_o_r_m_1_1_repositories_1_1_entity_repository__inherit__graph_org.svg" target="_base">
   <rect id="button" ry="5" rx="5" y="6" x="6" height="38" width="38"
        fill="#f2f5e9" fill-opacity="0.5" stroke="#606060" stroke-width="1.0"/>
   <path id="arrow"
     d="M 11.500037,31.436501 C 11.940474,20.09759 22.043105,11.32322 32.158766,21.979434 L 37.068811,17.246167 C 37.068811,17.246167 37.088388,32 37.088388,32 L 22.160133,31.978069 C 22.160133,31.978069 26.997745,27.140456 26.997745,27.140456 C 18.528582,18.264221 13.291696,25.230495 11.500037,31.436501 z"
     style="fill:#404040;"/>
  </a>
 </g>
</svg>

<style type='text/css'>
<![CDATA[
[data-mouse-over-selected='false'] { opacity: 0.7; }
[data-mouse-over-selected='true']  { opacity: 1.0; }
]]>
</style>
<script type="application/ecmascript"><![CDATA[
document.addEventListener('DOMContentLoaded', (event) => {
  highlightEdges();
  highlightAdjacentNodes();
});
]]></script>
</svg>
