<?xml version="1.0" encoding="UTF-8" standalone="no"?>
<!DOCTYPE svg PUBLIC "-//W3C//DTD SVG 1.1//EN"
 "http://www.w3.org/Graphics/SVG/1.1/DTD/svg11.dtd">
<!-- Generated by graphviz version 9.0.0 (20230911.1827)
 -->
<!-- Title: resultValid Pages: 1 -->
<svg width="185pt" height="66pt"
 viewBox="0.00 0.00 184.75 66.00" xmlns="http://www.w3.org/2000/svg" xmlns:xlink="http://www.w3.org/1999/xlink">
<g id="graph0" class="graph" transform="scale(1 1) rotate(0) translate(4 62)">
<title>resultValid</title>
<!-- Node1 -->
<g id="Node000001" class="node">
<title>Node1</title>
<g id="a_Node000001"><a xlink:title="{}">
<polygon fill="#999999" stroke="#666666" points="176.75,-39 115.75,-39 115.75,-19 176.75,-19 176.75,-39"/>
<text text-anchor="middle" x="146.25" y="-25.5" font-family="Helvetica,sans-Serif" font-size="10.00">resultValid</text>
</a>
</g>
</g>
<!-- Node2 -->
<g id="Node000002" class="node">
<title>Node2</title>
<g id="a_Node000002"><a xlink:href="class_o_c_a_1_1_c_a_f_e_v_d_b_1_1_database_1_1_legacy_1_1_p_m_e_1_1_p_h_p_my_edit.html#ac559c2cb1078fb234c5b72cec1db41c0" target="_top" xlink:title="{}">
<polygon fill="white" stroke="#666666" points="67.75,-58 12,-58 12,-38 67.75,-38 67.75,-58"/>
<text text-anchor="middle" x="39.88" y="-44.5" font-family="Helvetica,sans-Serif" font-size="10.00">sql_fetch</text>
</a>
</g>
</g>
<!-- Node1&#45;&gt;Node2 -->
<g id="edge1_Node000001_Node000002" class="edge">
<title>Node1&#45;&gt;Node2</title>
<g id="a_edge1_Node000001_Node000002"><a xlink:title=" ">
<path fill="none" stroke="#63b8ff" d="M104.05,-36.5C91.91,-38.71 78.94,-41.07 67.94,-43.07"/>
<polygon fill="#63b8ff" stroke="#63b8ff" points="104.64,-39.95 113.85,-34.72 103.39,-33.06 104.64,-39.95"/>
</a>
</g>
</g>
<!-- Node3 -->
<g id="Node000003" class="node">
<title>Node3</title>
<g id="a_Node000003"><a xlink:href="class_o_c_a_1_1_c_a_f_e_v_d_b_1_1_database_1_1_legacy_1_1_p_m_e_1_1_p_h_p_my_edit.html#a4ef7d4c30f5f44642a0f1df714664ee8" target="_top" xlink:title="{}">
<polygon fill="white" stroke="#666666" points="79.75,-20 0,-20 0,0 79.75,0 79.75,-20"/>
<text text-anchor="middle" x="39.88" y="-6.5" font-family="Helvetica,sans-Serif" font-size="10.00">sql_free_result</text>
</a>
</g>
</g>
<!-- Node1&#45;&gt;Node3 -->
<g id="edge2_Node000001_Node000003" class="edge">
<title>Node1&#45;&gt;Node3</title>
<g id="a_edge2_Node000001_Node000003"><a xlink:title=" ">
<path fill="none" stroke="#63b8ff" d="M104.12,-21.51C96.22,-20.07 87.97,-18.57 80.14,-17.15"/>
<polygon fill="#63b8ff" stroke="#63b8ff" points="103.39,-24.94 113.85,-23.28 104.64,-18.05 103.39,-24.94"/>
</a>
</g>
</g>
</g>
</svg>
