<?xml version="1.0" encoding="UTF-8" standalone="no"?>
<!DOCTYPE svg PUBLIC "-//W3C//DTD SVG 1.1//EN"
 "http://www.w3.org/Graphics/SVG/1.1/DTD/svg11.dtd">
<!-- Generated by graphviz version 8.0.3 (20230416.2022)
 -->
<!-- Title: beforeUpdateOrInsertTrigger Pages: 1 -->
<svg width="563pt" height="86pt"
 viewBox="0.00 0.00 563.00 86.00" xmlns="http://www.w3.org/2000/svg" xmlns:xlink="http://www.w3.org/1999/xlink">
<g id="graph0" class="graph" transform="scale(1 1) rotate(0) translate(4 82)">
<title>beforeUpdateOrInsertTrigger</title>
<!-- Node1 -->
<g id="node1" class="node">
<title>Node1</title>
<g id="a_node1"><a xlink:title="Cleanup &quot;trigger&quot; which relocates several virtual inputs to their proper destination columns.">
<polygon fill="#999999" stroke="#666666" points="140,-48.5 0,-48.5 0,-29.5 140,-29.5 140,-48.5"/>
<text text-anchor="middle" x="70" y="-36.5" font-family="Helvetica,sans-Serif" font-size="10.00">beforeUpdateOrInsertTrigger</text>
</a>
</g>
</g>
<!-- Node2 -->
<g id="node2" class="node">
<title>Node2</title>
<g id="a_node2"><a xlink:href="class_o_c_a_1_1_c_a_f_e_v_d_b_1_1_page_renderer_1_1_p_m_e_table_view_base.html#a0160798c24d6bddc98d5192235a59982" target="_top" xlink:title=" ">
<polygon fill="white" stroke="#666666" points="364,-54 176,-54 176,-24 364,-24 364,-54"/>
<text text-anchor="start" x="184" y="-42" font-family="Helvetica,sans-Serif" font-size="10.00">OCA\CAFEVDB\PageRenderer</text>
<text text-anchor="middle" x="270" y="-31" font-family="Helvetica,sans-Serif" font-size="10.00">\PMETableViewBase\debugPrintValues</text>
</a>
</g>
</g>
<!-- Node1&#45;&gt;Node2 -->
<g id="edge1" class="edge">
<title>Node1&#45;&gt;Node2</title>
<path fill="none" stroke="#63b8ff" d="M140.25,-39C148.24,-39 156.51,-39 164.83,-39"/>
<polygon fill="#63b8ff" stroke="#63b8ff" points="164.78,-42.5 174.78,-39 164.78,-35.5 164.78,-42.5"/>
</g>
<!-- Node3 -->
<g id="node3" class="node">
<title>Node3</title>
<g id="a_node3"><a xlink:href="class_o_c_a_1_1_c_a_f_e_v_d_b_1_1_common_1_1_util.html#a709d772c597d8bc18d170300a8cabbb7" target="_top" xlink:title=" ">
<polygon fill="white" stroke="#666666" points="543.5,-78 411.5,-78 411.5,-48 543.5,-48 543.5,-78"/>
<text text-anchor="start" x="419.5" y="-66" font-family="Helvetica,sans-Serif" font-size="10.00">OCA\CAFEVDB\Common</text>
<text text-anchor="middle" x="477.5" y="-55" font-family="Helvetica,sans-Serif" font-size="10.00">\Util\arraySliceKeys</text>
</a>
</g>
</g>
<!-- Node2&#45;&gt;Node3 -->
<g id="edge2" class="edge">
<title>Node2&#45;&gt;Node3</title>
<path fill="none" stroke="#63b8ff" d="M364.43,-49.91C376.52,-51.32 388.79,-52.76 400.56,-54.13"/>
<polygon fill="#63b8ff" stroke="#63b8ff" points="399.86,-57.69 410.2,-55.37 400.68,-50.74 399.86,-57.69"/>
</g>
<!-- Node4 -->
<g id="node4" class="node">
<title>Node4</title>
<g id="a_node4"><a xlink:href="class_o_c_a_1_1_c_a_f_e_v_d_b_1_1_page_renderer_1_1_p_m_e_table_view_base.html#a586e3ce7bc155a85dae0bbe3149e4181" target="_top" xlink:title="Be noisy if debugging is enabled.">
<polygon fill="white" stroke="#666666" points="555,-30 400,-30 400,0 555,0 555,-30"/>
<text text-anchor="start" x="408" y="-18" font-family="Helvetica,sans-Serif" font-size="10.00">OCA\CAFEVDB\PageRenderer</text>
<text text-anchor="middle" x="477.5" y="-7" font-family="Helvetica,sans-Serif" font-size="10.00">\PMETableViewBase\debug</text>
</a>
</g>
</g>
<!-- Node2&#45;&gt;Node4 -->
<g id="edge3" class="edge">
<title>Node2&#45;&gt;Node4</title>
<path fill="none" stroke="#63b8ff" d="M364.43,-28.09C372.52,-27.14 380.69,-26.19 388.73,-25.25"/>
<polygon fill="#63b8ff" stroke="#63b8ff" points="389.08,-28.62 398.61,-23.98 388.27,-21.66 389.08,-28.62"/>
</g>
</g>
</svg>
