<?xml version="1.0" encoding="UTF-8" standalone="no"?>
<!DOCTYPE svg PUBLIC "-//W3C//DTD SVG 1.1//EN"
 "http://www.w3.org/Graphics/SVG/1.1/DTD/svg11.dtd">
<!-- Generated by graphviz version 8.0.3 (20230416.2022)
 -->
<!-- Title: recipientsExceptProject Pages: 1 -->
<!--zoomable 187 -->
<svg id="main" version="1.1" xmlns="http://www.w3.org/2000/svg" xmlns:xlink="http://www.w3.org/1999/xlink" xml:space="preserve" onload="init(evt)">
<style type="text/css"><![CDATA[
.edge:hover path { stroke: red; }
.edge:hover polygon { stroke: red; fill: red; }
]]></style>
<script type="text/javascript"><![CDATA[
var edges = document.getElementsByTagName('g');
if (edges && edges.length) {
  for (var i=0;i<edges.length;i++) {
    if (edges[i].id.substr(0,4)=='edge') {
      edges[i].setAttribute('class','edge');
    }
  }
}
]]></script>
        <defs>
                <circle id="rim" cx="0" cy="0" r="7"/>
                <circle id="rim2" cx="0" cy="0" r="3.5"/>
                <g id="zoomPlus">
                        <use xlink:href="#rim" fill="#404040">
                                <set attributeName="fill" to="#808080" begin="zoomplus.mouseover" end="zoomplus.mouseout"/>
                        </use>
                        <path d="M-4,0h8M0,-4v8" fill="none" stroke="white" stroke-width="1.5" pointer-events="none"/>
                </g>
                <g id="zoomMin">
                        <use xlink:href="#rim" fill="#404040">
                                <set attributeName="fill" to="#808080" begin="zoomminus.mouseover" end="zoomminus.mouseout"/>
                        </use>
                        <path d="M-4,0h8" fill="none" stroke="white" stroke-width="1.5" pointer-events="none"/>
                </g>
                <g id="dirArrow">
                        <path fill="none" stroke="white" stroke-width="1.5" d="M0,-3.0v7 M-2.5,-0.5L0,-3.0L2.5,-0.5"/>
                </g>
               <g id="resetDef">
                       <use xlink:href="#rim2" fill="#404040">
                               <set attributeName="fill" to="#808080" begin="reset.mouseover" end="reset.mouseout"/>
                       </use>
               </g>
        </defs>

<script type="text/javascript">
var viewWidth = 875;
var viewHeight = 187;
var sectionId = 'dynsection-34';
</script>
<script xlink:href="svgpan.js"/>
<svg id="graph" class="graph">
<g id="viewport">
<title>recipientsExceptProject</title>
<!-- Node1 -->
<g id="node1" class="node">
<title>Node1</title>
<g id="a_node1"><a xlink:title=" ">
<polygon fill="#999999" stroke="#666666" points="867,-63.79 747,-63.79 747,-44.79 867,-44.79 867,-63.79"/>
<text text-anchor="middle" x="807" y="-51.79" font-family="Helvetica,sans-Serif" font-size="10.00">recipientsExceptProject</text>
</a>
</g>
</g>
<!-- Node2 -->
<g id="node2" class="node">
<title>Node2</title>
<g id="a_node2"><a xlink:href="class_o_c_a_1_1_c_a_f_e_v_d_b_1_1_email_form_1_1_recipients_filter.html#a0835860e0bc6047f3eff6a9941dbbcf4" target="_top" xlink:title=" ">
<polygon fill="white" stroke="#666666" points="711,-101.79 625,-101.79 625,-82.79 711,-82.79 711,-101.79"/>
<text text-anchor="middle" x="668" y="-89.79" font-family="Helvetica,sans-Serif" font-size="10.00">defaultByStatus</text>
</a>
</g>
</g>
<!-- Node1&#45;&gt;Node2 -->
<g id="edge1" class="edge">
<title>Node1&#45;&gt;Node2</title>
<path fill="none" stroke="#63b8ff" d="M759.49,-67.19C741.6,-72.15 721.48,-77.73 704.75,-82.37"/>
<polygon fill="#63b8ff" stroke="#63b8ff" points="760.3,-70.32 769,-64.27 758.43,-63.57 760.3,-70.32"/>
</g>
<!-- Node3 -->
<g id="node3" class="node">
<title>Node3</title>
<g id="a_node3"><a xlink:href="class_o_c_a_1_1_c_a_f_e_v_d_b_1_1_email_form_1_1_recipients_filter.html#a1909f4b7f8129c7790cb75de2ffbe1e4" target="_top" xlink:title="Parse the CGI stuff and compute the list of selected musicians, either for the initial form setup as ...">
<polygon fill="white" stroke="#666666" points="226,-101.79 175,-101.79 175,-82.79 226,-82.79 226,-101.79"/>
<text text-anchor="middle" x="200.5" y="-89.79" font-family="Helvetica,sans-Serif" font-size="10.00">execute</text>
</a>
</g>
</g>
<!-- Node1&#45;&gt;Node3 -->
<g id="edge12" class="edge">
<title>Node1&#45;&gt;Node3</title>
<path fill="none" stroke="#63b8ff" d="M762.87,-41.5C668.18,-15.79 436.65,34.03 262,-35.29 237.86,-44.87 217.75,-69.16 207.95,-82.73"/>
<polygon fill="#63b8ff" stroke="#63b8ff" points="761.62,-45.06 772.19,-44.36 763.49,-38.32 761.62,-45.06"/>
</g>
<!-- Node2&#45;&gt;Node3 -->
<g id="edge2" class="edge">
<title>Node2&#45;&gt;Node3</title>
<path fill="none" stroke="#63b8ff" d="M643.51,-107.89C628.56,-116.97 608.42,-127.71 589,-133.29 449.15,-173.45 397.25,-202.96 262,-149.29 237.86,-139.7 217.75,-115.42 207.95,-101.84"/>
<polygon fill="#63b8ff" stroke="#63b8ff" points="644.92,-110.51 651.53,-102.23 641.2,-104.58 644.92,-110.51"/>
</g>
<!-- Node6 -->
<g id="node6" class="node">
<title>Node6</title>
<g id="a_node6"><a xlink:href="class_o_c_a_1_1_c_a_f_e_v_d_b_1_1_email_form_1_1_recipients_filter.html#a9ae6e956522f1d298f15c4b2a07f0bd7" target="_top" xlink:title="Get the current filter.">
<polygon fill="white" stroke="#666666" points="377,-139.79 262,-139.79 262,-120.79 377,-120.79 377,-139.79"/>
<text text-anchor="middle" x="319.5" y="-127.79" font-family="Helvetica,sans-Serif" font-size="10.00">initMemberStatusFilter</text>
</a>
</g>
</g>
<!-- Node2&#45;&gt;Node6 -->
<g id="edge5" class="edge">
<title>Node2&#45;&gt;Node6</title>
<path fill="none" stroke="#63b8ff" d="M620.94,-104.86C610.51,-107.33 599.43,-109.66 589,-111.29 516.51,-122.6 431.95,-127.18 377.38,-129.03"/>
<polygon fill="#63b8ff" stroke="#63b8ff" points="621.65,-108.05 630.53,-102.26 619.98,-101.25 621.65,-108.05"/>
</g>
<!-- Node7 -->
<g id="node7" class="node">
<title>Node7</title>
<g id="a_node7"><a xlink:href="class_o_c_a_1_1_c_a_f_e_v_d_b_1_1_email_form_1_1_recipients_filter.html#a30a395e6e48481531a93ec374c412775" target="_top" xlink:title="Compose a default history record for the initial state.">
<polygon fill="white" stroke="#666666" points="547.5,-101.79 454.5,-101.79 454.5,-82.79 547.5,-82.79 547.5,-101.79"/>
<text text-anchor="middle" x="501" y="-89.79" font-family="Helvetica,sans-Serif" font-size="10.00">setDefaultHistory</text>
</a>
</g>
</g>
<!-- Node2&#45;&gt;Node7 -->
<g id="edge7" class="edge">
<title>Node2&#45;&gt;Node7</title>
<path fill="none" stroke="#63b8ff" d="M613.71,-92.29C592.47,-92.29 568.26,-92.29 547.82,-92.29"/>
<polygon fill="#63b8ff" stroke="#63b8ff" points="613.51,-95.79 623.51,-92.29 613.51,-88.79 613.51,-95.79"/>
</g>
<!-- Node9 -->
<g id="node9" class="node">
<title>Node9</title>
<g id="a_node9"><a xlink:href="class_o_c_a_1_1_c_a_f_e_v_d_b_1_1_email_form_1_1_recipients_filter.html#a29389bb5db716e59f8a94e5083f8b58e" target="_top" xlink:title="Substitute the recipients by the announcements mailing list if possible.">
<polygon fill="white" stroke="#666666" points="589,-64.79 413,-64.79 413,-45.79 589,-45.79 589,-64.79"/>
<text text-anchor="middle" x="501" y="-52.79" font-family="Helvetica,sans-Serif" font-size="10.00">substituteAnnouncementsMailingList</text>
</a>
</g>
</g>
<!-- Node2&#45;&gt;Node9 -->
<g id="edge11" class="edge">
<title>Node2&#45;&gt;Node9</title>
<path fill="none" stroke="#63b8ff" d="M616.76,-79.78C607.54,-77.56 597.99,-75.31 589,-73.29 576.96,-70.58 563.95,-67.8 551.75,-65.27"/>
<polygon fill="#63b8ff" stroke="#63b8ff" points="615.84,-83.4 626.38,-82.35 617.49,-76.59 615.84,-83.4"/>
</g>
<!-- Node4 -->
<g id="node4" class="node">
<title>Node4</title>
<g id="a_node4"><a xlink:href="class_o_c_a_1_1_c_a_f_e_v_d_b_1_1_email_form_1_1_recipients_filter.html#ae40c9dafec946961dfd72815f6764fb8" target="_top" xlink:title=" ">
<polygon fill="white" stroke="#666666" points="139,-101.79 104,-101.79 104,-82.79 139,-82.79 139,-101.79"/>
<text text-anchor="middle" x="121.5" y="-89.79" font-family="Helvetica,sans-Serif" font-size="10.00">bind</text>
</a>
</g>
</g>
<!-- Node3&#45;&gt;Node4 -->
<g id="edge3" class="edge">
<title>Node3&#45;&gt;Node4</title>
<path fill="none" stroke="#63b8ff" d="M163.71,-92.29C155.16,-92.29 146.43,-92.29 139.21,-92.29"/>
<polygon fill="#63b8ff" stroke="#63b8ff" points="163.71,-95.79 173.71,-92.29 163.71,-88.79 163.71,-95.79"/>
</g>
<!-- Node5 -->
<g id="node5" class="node">
<title>Node5</title>
<g id="a_node5"><a xlink:href="class_o_c_a_1_1_c_a_f_e_v_d_b_1_1_email_form_1_1_recipients_filter.html#a1a3fa621489e73c7386685aa0e152c30" target="_top" xlink:title="{}">
<polygon fill="white" stroke="#666666" points="68,-101.79 0,-101.79 0,-82.79 68,-82.79 68,-101.79"/>
<text text-anchor="middle" x="34" y="-89.79" font-family="Helvetica,sans-Serif" font-size="10.00">__construct</text>
</a>
</g>
</g>
<!-- Node4&#45;&gt;Node5 -->
<g id="edge4" class="edge">
<title>Node4&#45;&gt;Node5</title>
<path fill="none" stroke="#63b8ff" d="M92.63,-92.29C84.92,-92.29 76.48,-92.29 68.48,-92.29"/>
<polygon fill="#63b8ff" stroke="#63b8ff" points="92.61,-95.79 102.61,-92.29 92.61,-88.79 92.61,-95.79"/>
</g>
<!-- Node6&#45;&gt;Node3 -->
<g id="edge6" class="edge">
<title>Node6&#45;&gt;Node3</title>
<path fill="none" stroke="#63b8ff" d="M277.44,-116.95C260.32,-111.39 241.01,-105.12 226.14,-100.29"/>
<polygon fill="#63b8ff" stroke="#63b8ff" points="276.17,-120.54 286.76,-120.3 278.33,-113.88 276.17,-120.54"/>
</g>
<!-- Node7&#45;&gt;Node3 -->
<g id="edge8" class="edge">
<title>Node7&#45;&gt;Node3</title>
<path fill="none" stroke="#63b8ff" d="M443.1,-92.29C377.84,-92.29 273.79,-92.29 226.43,-92.29"/>
<polygon fill="#63b8ff" stroke="#63b8ff" points="443.01,-95.79 453.01,-92.29 443.01,-88.79 443.01,-95.79"/>
</g>
<!-- Node8 -->
<g id="node8" class="node">
<title>Node8</title>
<g id="a_node8"><a xlink:href="class_o_c_a_1_1_c_a_f_e_v_d_b_1_1_email_form_1_1_recipients_filter.html#ab85bd7c01c06a6b1507047bfd28f941c" target="_top" xlink:title="Load the history from the session data.">
<polygon fill="white" stroke="#666666" points="352.5,-63.79 286.5,-63.79 286.5,-44.79 352.5,-44.79 352.5,-63.79"/>
<text text-anchor="middle" x="319.5" y="-51.79" font-family="Helvetica,sans-Serif" font-size="10.00">loadHistory</text>
</a>
</g>
</g>
<!-- Node7&#45;&gt;Node8 -->
<g id="edge9" class="edge">
<title>Node7&#45;&gt;Node8</title>
<path fill="none" stroke="#63b8ff" d="M443.53,-80.33C413.66,-74.01 378.07,-66.47 352.87,-61.14"/>
<polygon fill="#63b8ff" stroke="#63b8ff" points="442.73,-83.95 453.24,-82.6 444.18,-77.1 442.73,-83.95"/>
</g>
<!-- Node8&#45;&gt;Node3 -->
<g id="edge10" class="edge">
<title>Node8&#45;&gt;Node3</title>
<path fill="none" stroke="#63b8ff" d="M277.44,-67.62C260.32,-73.18 241.01,-79.45 226.14,-84.28"/>
<polygon fill="#63b8ff" stroke="#63b8ff" points="278.33,-70.69 286.76,-64.27 276.17,-64.03 278.33,-70.69"/>
</g>
</g>
</svg>
        <g id="navigator" transform="translate(0 0)" fill="#404254">
                <rect fill="#f2f5e9" fill-opacity="0.5" stroke="#606060" stroke-width=".5" x="0" y="0" width="60" height="60"/>
                <use id="zoomplus" xlink:href="#zoomPlus" x="17" y="9" onmousedown="handleZoom(evt,'in')"/>
                <use id="zoomminus" xlink:href="#zoomMin" x="42" y="9" onmousedown="handleZoom(evt,'out')"/>
                <use id="reset" xlink:href="#resetDef" x="30" y="36" onmousedown="handleReset()"/>
                <g id="arrowUp" xlink:href="#dirArrow" transform="translate(30 24)" onmousedown="handlePan(0,-1)">
                  <use xlink:href="#rim" fill="#404040">
                        <set attributeName="fill" to="#808080" begin="arrowUp.mouseover" end="arrowUp.mouseout"/>
                  </use>
                  <path fill="none" stroke="white" stroke-width="1.5" d="M0,-3.0v7 M-2.5,-0.5L0,-3.0L2.5,-0.5"/>
                </g>
                <g id="arrowRight" xlink:href="#dirArrow" transform="rotate(90) translate(36 -43)" onmousedown="handlePan(1,0)">
                  <use xlink:href="#rim" fill="#404040">
                        <set attributeName="fill" to="#808080" begin="arrowRight.mouseover" end="arrowRight.mouseout"/>
                  </use>
                  <path fill="none" stroke="white" stroke-width="1.5" d="M0,-3.0v7 M-2.5,-0.5L0,-3.0L2.5,-0.5"/>
                </g>
                <g id="arrowDown" xlink:href="#dirArrow" transform="rotate(180) translate(-30 -48)" onmousedown="handlePan(0,1)">
                  <use xlink:href="#rim" fill="#404040">
                        <set attributeName="fill" to="#808080" begin="arrowDown.mouseover" end="arrowDown.mouseout"/>
                  </use>
                  <path fill="none" stroke="white" stroke-width="1.5" d="M0,-3.0v7 M-2.5,-0.5L0,-3.0L2.5,-0.5"/>
                </g>
                <g id="arrowLeft" xlink:href="#dirArrow" transform="rotate(270) translate(-36 17)" onmousedown="handlePan(-1,0)">
                  <use xlink:href="#rim" fill="#404040">
                        <set attributeName="fill" to="#808080" begin="arrowLeft.mouseover" end="arrowLeft.mouseout"/>
                  </use>
                  <path fill="none" stroke="white" stroke-width="1.5" d="M0,-3.0v7 M-2.5,-0.5L0,-3.0L2.5,-0.5"/>
                </g>
        </g>
        <svg viewBox="0 0 15 15" width="100%" height="30px" preserveAspectRatio="xMaxYMin meet">
         <g id="arrow_out" transform="scale(0.3 0.3)">
          <a xlink:href="class_o_c_a_1_1_c_a_f_e_v_d_b_1_1_email_form_1_1_recipients_filter_a75227e334f1b3d4bd04bcc2ddf2c9c5d_icgraph_org.svg" target="_base">
           <rect id="button" ry="5" rx="5" y="6" x="6" height="38" width="38"
                fill="#f2f5e9" fill-opacity="0.5" stroke="#606060" stroke-width="1.0"/>
           <path id="arrow"
             d="M 11.500037,31.436501 C 11.940474,20.09759 22.043105,11.32322 32.158766,21.979434 L 37.068811,17.246167 C 37.068811,17.246167 37.088388,32 37.088388,32 L 22.160133,31.978069 C 22.160133,31.978069 26.997745,27.140456 26.997745,27.140456 C 18.528582,18.264221 13.291696,25.230495 11.500037,31.436501 z"
             style="fill:#404040;"/>
          </a>
         </g>
        </svg>
</svg>
