<?xml version="1.0" encoding="UTF-8" standalone="no"?>
<!DOCTYPE svg PUBLIC "-//W3C//DTD SVG 1.1//EN"
 "http://www.w3.org/Graphics/SVG/1.1/DTD/svg11.dtd">
<!-- Generated by graphviz version 7.1.0 (20230121.1956)
 -->
<!-- Title: implode Pages: 1 -->
<svg width="181pt" height="45pt"
 viewBox="0.00 0.00 181.00 45.00" xmlns="http://www.w3.org/2000/svg" xmlns:xlink="http://www.w3.org/1999/xlink">
<g id="graph0" class="graph" transform="scale(1 1) rotate(0) translate(4 41)">
<title>implode</title>
<!-- Node1 -->
<g id="node1" class="node">
<title>Node1</title>
<g id="a_node1"><a xlink:title="Counter&#45;part to self::explode().">
<polygon fill="#999999" stroke="#666666" points="50,-19 0,-19 0,0 50,0 50,-19"/>
<text text-anchor="middle" x="25" y="-7" font-family="Helvetica,sans-Serif" font-size="10.00">implode</text>
</a>
</g>
</g>
<!-- Node1&#45;&gt;Node1 -->
<g id="edge2" class="edge">
<title>Node1&#45;&gt;Node1</title>
<path fill="none" stroke="#63b8ff" d="M8.64,-19.37C1.18,-27.94 6.63,-37 25,-37 35.05,-37 41.23,-34.29 43.55,-30.43"/>
<polygon fill="#63b8ff" stroke="#63b8ff" points="47.03,-29.98 41.65,-20.85 40.16,-31.34 47.03,-29.98"/>
</g>
<!-- Node2 -->
<g id="node2" class="node">
<title>Node2</title>
<g id="a_node2"><a xlink:href="class_o_c_a_1_1_c_a_f_e_v_d_b_1_1_common_1_1_util.html#a733456b8dde51667bb86ef79e08597a7" target="_top" xlink:title="Escape delimiters in the given value.">
<polygon fill="white" stroke="#666666" points="173,-19 86,-19 86,0 173,0 173,-19"/>
<text text-anchor="middle" x="129.5" y="-7" font-family="Helvetica,sans-Serif" font-size="10.00">escapeDelimiter</text>
</a>
</g>
</g>
<!-- Node1&#45;&gt;Node2 -->
<g id="edge1" class="edge">
<title>Node1&#45;&gt;Node2</title>
<path fill="none" stroke="#63b8ff" d="M50.29,-9.5C57.54,-9.5 65.79,-9.5 74.15,-9.5"/>
<polygon fill="#63b8ff" stroke="#63b8ff" points="74.02,-13 84.02,-9.5 74.02,-6 74.02,-13"/>
</g>
</g>
</svg>
