<?xml version="1.0" encoding="UTF-8" standalone="no"?>
<!DOCTYPE svg PUBLIC "-//W3C//DTD SVG 1.1//EN"
 "http://www.w3.org/Graphics/SVG/1.1/DTD/svg11.dtd">
<!-- Generated by graphviz version 8.0.3 (20230416.2022)
 -->
<!-- Title: hasUpdated Pages: 1 -->
<svg width="798pt" height="121pt"
 viewBox="0.00 0.00 798.00 121.04" xmlns="http://www.w3.org/2000/svg" xmlns:xlink="http://www.w3.org/1999/xlink">
<g id="graph0" class="graph" transform="scale(1 1) rotate(0) translate(4 117.04)">
<title>hasUpdated</title>
<!-- Node1 -->
<g id="node1" class="node">
<title>Node1</title>
<g id="a_node1"><a xlink:title="{}">
<polygon fill="#999999" stroke="#666666" points="69,-74 0,-74 0,-55 69,-55 69,-74"/>
<text text-anchor="middle" x="34.5" y="-62" font-family="Helvetica,sans-Serif" font-size="10.00">hasUpdated</text>
</a>
</g>
</g>
<!-- Node2 -->
<g id="node2" class="node">
<title>Node2</title>
<g id="a_node2"><a xlink:href="class_o_c_a_1_1_c_a_f_e_v_d_b_1_1_storage_1_1_database_1_1_storage.html#ae16b6afbab9462a9af681b9393af361e" target="_top" xlink:title="{}">
<polygon fill="white" stroke="#666666" points="161,-74 105,-74 105,-55 161,-55 161,-74"/>
<text text-anchor="middle" x="133" y="-62" font-family="Helvetica,sans-Serif" font-size="10.00">filemtime</text>
</a>
</g>
</g>
<!-- Node1&#45;&gt;Node2 -->
<g id="edge1" class="edge">
<title>Node1&#45;&gt;Node2</title>
<path fill="none" stroke="#63b8ff" d="M69.25,-64.5C77.25,-64.5 85.83,-64.5 94,-64.5"/>
<polygon fill="#63b8ff" stroke="#63b8ff" points="93.79,-68 103.79,-64.5 93.79,-61 93.79,-68"/>
</g>
<!-- Node3 -->
<g id="node3" class="node">
<title>Node3</title>
<g id="a_node3"><a xlink:href="class_o_c_a_1_1_c_a_f_e_v_d_b_1_1_storage_1_1_database_1_1_storage.html#a7ec90cd17ef214d5fe4280b13d7c144a" target="_top" xlink:title="Fetch the file entity corresponding to file&#45;name.">
<polygon fill="white" stroke="#666666" points="503.5,-93 409.5,-93 409.5,-74 503.5,-74 503.5,-93"/>
<text text-anchor="middle" x="456.5" y="-81" font-family="Helvetica,sans-Serif" font-size="10.00">fileFromFileName</text>
</a>
</g>
</g>
<!-- Node2&#45;&gt;Node3 -->
<g id="edge2" class="edge">
<title>Node2&#45;&gt;Node3</title>
<path fill="none" stroke="#63b8ff" d="M145.63,-74.21C157.62,-83.55 177.31,-97.02 197,-102.5 269.45,-122.66 357.46,-108.4 409.85,-96.07"/>
<polygon fill="#63b8ff" stroke="#63b8ff" points="410.58,-99.25 419.47,-93.48 408.93,-92.45 410.58,-99.25"/>
</g>
<!-- Node7 -->
<g id="node7" class="node">
<title>Node7</title>
<g id="a_node7"><a xlink:href="class_o_c_a_1_1_c_a_f_e_v_d_b_1_1_storage_1_1_database_1_1_storage.html#a9d7ac9f8614357ce6b7358708b9ab040" target="_top" xlink:title=" ">
<polygon fill="white" stroke="#666666" points="341,-93 197,-93 197,-74 341,-74 341,-93"/>
<text text-anchor="middle" x="269" y="-81" font-family="Helvetica,sans-Serif" font-size="10.00">getDirectoryModificationTime</text>
</a>
</g>
</g>
<!-- Node2&#45;&gt;Node7 -->
<g id="edge6" class="edge">
<title>Node2&#45;&gt;Node7</title>
<path fill="none" stroke="#63b8ff" d="M161.44,-68.39C169.09,-69.48 177.81,-70.71 186.9,-72"/>
<polygon fill="#63b8ff" stroke="#63b8ff" points="186.29,-75.59 196.68,-73.53 187.27,-68.66 186.29,-75.59"/>
</g>
<!-- Node8 -->
<g id="node8" class="node">
<title>Node8</title>
<g id="a_node8"><a xlink:href="class_o_c_a_1_1_c_a_f_e_v_d_b_1_1_storage_1_1_database_1_1_storage.html#a8eb3e49592d26a52be7e8987722d1aa3" target="_top" xlink:title="Get the overall modification time of the entire storage as Unix time&#45;stamp.">
<polygon fill="white" stroke="#666666" points="338,-19 200,-19 200,0 338,0 338,-19"/>
<text text-anchor="middle" x="269" y="-7" font-family="Helvetica,sans-Serif" font-size="10.00">getStorageModificationTime</text>
</a>
</g>
</g>
<!-- Node2&#45;&gt;Node8 -->
<g id="edge8" class="edge">
<title>Node2&#45;&gt;Node8</title>
<path fill="none" stroke="#63b8ff" d="M147.91,-54.77C160.3,-46.49 179.17,-34.82 197,-27.5 201.35,-25.71 205.93,-24.07 210.58,-22.56"/>
<polygon fill="#63b8ff" stroke="#63b8ff" points="211.24,-25.71 219.8,-19.47 209.21,-19.01 211.24,-25.71"/>
</g>
<!-- Node10 -->
<g id="node10" class="node">
<title>Node10</title>
<g id="a_node10"><a xlink:href="class_o_c_a_1_1_c_a_f_e_v_d_b_1_1_storage_1_1_database_1_1_storage.html#a5877dd78fbe10fb5f3ee3d25e3fbe11e" target="_top" xlink:title="{}">
<polygon fill="white" stroke="#666666" points="289,-56 249,-56 249,-37 289,-37 289,-56"/>
<text text-anchor="middle" x="269" y="-44" font-family="Helvetica,sans-Serif" font-size="10.00">is_dir</text>
</a>
</g>
</g>
<!-- Node2&#45;&gt;Node10 -->
<g id="edge10" class="edge">
<title>Node2&#45;&gt;Node10</title>
<path fill="none" stroke="#63b8ff" d="M161.44,-60.81C183.71,-57.82 215.07,-53.61 238,-50.53"/>
<polygon fill="#63b8ff" stroke="#63b8ff" points="238.37,-53.88 247.82,-49.08 237.44,-46.94 238.37,-53.88"/>
</g>
<!-- Node4 -->
<g id="node4" class="node">
<title>Node4</title>
<g id="a_node4"><a xlink:href="class_o_c_a_1_1_c_a_f_e_v_d_b_1_1_storage_1_1_database_1_1_storage.html#ab721841df814a2337039d39cc03da82a" target="_top" xlink:title=" ">
<polygon fill="white" stroke="#666666" points="629,-112 572,-112 572,-93 629,-93 629,-112"/>
<text text-anchor="middle" x="600.5" y="-100" font-family="Helvetica,sans-Serif" font-size="10.00">buildPath</text>
</a>
</g>
</g>
<!-- Node3&#45;&gt;Node4 -->
<g id="edge3" class="edge">
<title>Node3&#45;&gt;Node4</title>
<path fill="none" stroke="#63b8ff" d="M504,-89.72C522.48,-92.19 543.5,-95.01 561.1,-97.36"/>
<polygon fill="#63b8ff" stroke="#63b8ff" points="560.19,-100.9 570.56,-98.76 561.11,-93.97 560.19,-100.9"/>
</g>
<!-- Node5 -->
<g id="node5" class="node">
<title>Node5</title>
<g id="a_node5"><a xlink:href="class_o_c_a_1_1_c_a_f_e_v_d_b_1_1_storage_1_1_database_1_1_storage.html#aa8e4fc68bcf28c10413b664b7d89ae81" target="_top" xlink:title="Slightly modified pathinfo() function which also normalized directories before computing the componen...">
<polygon fill="white" stroke="#666666" points="626.5,-75 574.5,-75 574.5,-56 626.5,-56 626.5,-75"/>
<text text-anchor="middle" x="600.5" y="-63" font-family="Helvetica,sans-Serif" font-size="10.00">pathInfo</text>
</a>
</g>
</g>
<!-- Node3&#45;&gt;Node5 -->
<g id="edge4" class="edge">
<title>Node3&#45;&gt;Node5</title>
<path fill="none" stroke="#63b8ff" d="M504,-77.61C523.29,-75.16 545.33,-72.37 563.37,-70.08"/>
<polygon fill="#63b8ff" stroke="#63b8ff" points="563.55,-73.46 573.03,-68.73 562.67,-66.51 563.55,-73.46"/>
</g>
<!-- Node6 -->
<g id="node6" class="node">
<title>Node6</title>
<g id="a_node6"><a xlink:href="class_o_c_a_1_1_c_a_f_e_v_d_b_1_1_storage_1_1_database_1_1_storage.html#ac5c1b62ecc9eb2ebe08f1e8c7ee2b283" target="_top" xlink:title="Attach self::PATH_SEPARATOR to the dirname if it is not the root directory.">
<polygon fill="white" stroke="#666666" points="790,-75 665,-75 665,-56 790,-56 790,-75"/>
<text text-anchor="middle" x="727.5" y="-63" font-family="Helvetica,sans-Serif" font-size="10.00">normalizeDirectoryName</text>
</a>
</g>
</g>
<!-- Node5&#45;&gt;Node6 -->
<g id="edge5" class="edge">
<title>Node5&#45;&gt;Node6</title>
<path fill="none" stroke="#63b8ff" d="M626.8,-65.5C634.78,-65.5 644.03,-65.5 653.62,-65.5"/>
<polygon fill="#63b8ff" stroke="#63b8ff" points="653.54,-69 663.54,-65.5 653.54,-62 653.54,-69"/>
</g>
<!-- Node7&#45;&gt;Node3 -->
<g id="edge7" class="edge">
<title>Node7&#45;&gt;Node3</title>
<path fill="none" stroke="#63b8ff" d="M341.45,-83.5C360.3,-83.5 380.39,-83.5 398.37,-83.5"/>
<polygon fill="#63b8ff" stroke="#63b8ff" points="398.27,-87 408.27,-83.5 398.27,-80 398.27,-87"/>
</g>
<!-- Node9 -->
<g id="node9" class="node">
<title>Node9</title>
<g id="a_node9"><a xlink:href="class_o_c_a_1_1_c_a_f_e_v_d_b_1_1_storage_1_1_database_1_1_storage.html#ae5a252c76f3eca6363a55691f69dd932" target="_top" xlink:title="Return the overall modification time of the entire storage.">
<polygon fill="white" stroke="#666666" points="536,-19 377,-19 377,0 536,0 536,-19"/>
<text text-anchor="middle" x="456.5" y="-7" font-family="Helvetica,sans-Serif" font-size="10.00">getStorageModificationDateTime</text>
</a>
</g>
</g>
<!-- Node8&#45;&gt;Node9 -->
<g id="edge9" class="edge">
<title>Node8&#45;&gt;Node9</title>
<path fill="none" stroke="#63b8ff" d="M338.28,-9.5C347.27,-9.5 356.58,-9.5 365.85,-9.5"/>
<polygon fill="#63b8ff" stroke="#63b8ff" points="365.7,-13 375.7,-9.5 365.7,-6 365.7,-13"/>
</g>
<!-- Node10&#45;&gt;Node3 -->
<g id="edge11" class="edge">
<title>Node10&#45;&gt;Node3</title>
<path fill="none" stroke="#63b8ff" d="M289.15,-50.32C314.77,-55.43 361.28,-64.71 398.62,-72.15"/>
<polygon fill="#63b8ff" stroke="#63b8ff" points="397.89,-75.78 408.38,-74.3 399.26,-68.91 397.89,-75.78"/>
</g>
</g>
</svg>
