<?xml version="1.0" encoding="UTF-8" standalone="no"?>
<!DOCTYPE svg PUBLIC "-//W3C//DTD SVG 1.1//EN"
 "http://www.w3.org/Graphics/SVG/1.1/DTD/svg11.dtd">
<!-- Generated by graphviz version 9.0.0 (20230911.1827)
 -->
<!-- Title: bound Pages: 1 -->
<svg width="455pt" height="142pt"
 viewBox="0.00 0.00 454.50 142.00" xmlns="http://www.w3.org/2000/svg" xmlns:xlink="http://www.w3.org/1999/xlink">

<svg id="main" version="1.1" xmlns="http://www.w3.org/2000/svg" xmlns:xlink="http://www.w3.org/1999/xlink" xml:space="preserve" onload="init(evt)">
<style type="text/css"><![CDATA[
.node, .edge {opacity: 0.7;}
.node.selected, .edge.selected {opacity: 1;}
.edge:hover path { stroke: red; }
.edge:hover polygon { stroke: red; fill: red; }
]]></style>
<script type="application/ecmascript" xlink:href="svg.min.js"/>
<svg id="graph" class="graph">
<g id="graph0" class="graph" transform="scale(1 1) rotate(0) translate(4 138)">
<title>bound</title>
<!-- Node1 -->
<g id="Node000001" class="node">
<title>Node1</title>
<g id="a_Node000001"><a xlink:title="Test if we a bound to a user.">
<polygon fill="#999999" stroke="#666666" points="446.5,-77 404.25,-77 404.25,-57 446.5,-57 446.5,-77"/>
<text text-anchor="middle" x="425.38" y="-63.5" font-family="Helvetica,sans-Serif" font-size="10.00">bound</text>
</a>
</g>
</g>
<!-- Node2 -->
<g id="Node000002" class="node">
<title>Node2</title>
<g id="a_Node000002"><a xlink:href="class_o_c_a_1_1_c_a_f_e_v_d_b_1_1_service_1_1_encryption_service.html#abe6eb1d9123c44415874b24b087452e5" target="_top" xlink:title="Check the validity of the encryption key.">
<polygon fill="white" stroke="#666666" points="360.38,-134 261.12,-134 261.12,-114 360.38,-114 360.38,-134"/>
<text text-anchor="middle" x="310.75" y="-120.5" font-family="Helvetica,sans-Serif" font-size="10.00">encryptionKeyValid</text>
</a>
</g>
</g>
<!-- Node1&#45;&gt;Node2 -->
<g id="edge1_Node000001_Node000002" class="edge">
<title>Node1&#45;&gt;Node2</title>
<g id="a_edge1_Node000001_Node000002"><a xlink:title=" ">
<path fill="none" stroke="#63b8ff" d="M402.02,-84.18C392.06,-91.29 379.96,-99.2 368.25,-105 361.76,-108.21 354.59,-111.09 347.61,-113.58"/>
<polygon fill="#63b8ff" stroke="#63b8ff" points="403.97,-87.1 409.95,-78.35 399.82,-81.46 403.97,-87.1"/>
</a>
</g>
</g>
<!-- Node3 -->
<g id="Node000003" class="node">
<title>Node3</title>
<g id="a_Node000003"><a xlink:href="class_o_c_a_1_1_c_a_f_e_v_d_b_1_1_service_1_1_encryption_service.html#a05f6aa1ffae6295260d9f1cca016bf33" target="_top" xlink:title=" ">
<polygon fill="white" stroke="#666666" points="340.12,-96 281.38,-96 281.38,-76 340.12,-76 340.12,-96"/>
<text text-anchor="middle" x="310.75" y="-82.5" font-family="Helvetica,sans-Serif" font-size="10.00">getUserId</text>
</a>
</g>
</g>
<!-- Node1&#45;&gt;Node3 -->
<g id="edge2_Node000001_Node000003" class="edge">
<title>Node1&#45;&gt;Node3</title>
<g id="a_edge2_Node000001_Node000003"><a xlink:title=" ">
<path fill="none" stroke="#63b8ff" d="M392.75,-72.34C376.34,-75.1 356.44,-78.46 340.47,-81.16"/>
<polygon fill="#63b8ff" stroke="#63b8ff" points="393.21,-75.81 402.49,-70.69 392.04,-68.9 393.21,-75.81"/>
</a>
</g>
</g>
<!-- Node4 -->
<g id="Node000004" class="node">
<title>Node4</title>
<g id="a_Node000004"><a xlink:href="class_o_c_a_1_1_c_a_f_e_v_d_b_1_1_service_1_1_encryption_service.html#ae0e6a2643a679ae23f2975018436da50" target="_top" xlink:title="Initialize the global symmetric app encryption key used to encrypt shared data.">
<polygon fill="white" stroke="#666666" points="365.62,-58 255.88,-58 255.88,-38 365.62,-38 365.62,-58"/>
<text text-anchor="middle" x="310.75" y="-44.5" font-family="Helvetica,sans-Serif" font-size="10.00">initAppEncryptionKey</text>
</a>
</g>
</g>
<!-- Node1&#45;&gt;Node4 -->
<g id="edge3_Node000001_Node000004" class="edge">
<title>Node1&#45;&gt;Node4</title>
<g id="a_edge3_Node000001_Node000004"><a xlink:title=" ">
<path fill="none" stroke="#63b8ff" d="M392.8,-61.67C384.39,-60.25 375.06,-58.68 365.8,-57.12"/>
<polygon fill="#63b8ff" stroke="#63b8ff" points="392.04,-65.1 402.49,-63.31 393.21,-58.19 392.04,-65.1"/>
</a>
</g>
</g>
<!-- Node7 -->
<g id="Node000007" class="node">
<title>Node7</title>
<g id="a_Node000007"><a xlink:href="class_o_c_a_1_1_c_a_f_e_v_d_b_1_1_service_1_1_encryption_service.html#a7b0aa8b8719a53937db5141fbfe039b3" target="_top" xlink:title="Encrypt the given value with the user&#39;s public key.">
<polygon fill="white" stroke="#666666" points="368.25,-20 253.25,-20 253.25,0 368.25,0 368.25,-20"/>
<text text-anchor="middle" x="310.75" y="-6.5" font-family="Helvetica,sans-Serif" font-size="10.00">setSharedPrivateValue</text>
</a>
</g>
</g>
<!-- Node1&#45;&gt;Node7 -->
<g id="edge6_Node000001_Node000007" class="edge">
<title>Node1&#45;&gt;Node7</title>
<g id="a_edge6_Node000001_Node000007"><a xlink:title=" ">
<path fill="none" stroke="#63b8ff" d="M402.02,-49.82C392.06,-42.71 379.96,-34.8 368.25,-29 361.76,-25.79 354.59,-22.91 347.61,-20.42"/>
<polygon fill="#63b8ff" stroke="#63b8ff" points="399.82,-52.54 409.95,-55.65 403.97,-46.9 399.82,-52.54"/>
</a>
</g>
</g>
<!-- Node5 -->
<g id="Node000005" class="node">
<title>Node5</title>
<g id="a_Node000005"><a xlink:href="class_o_c_a_1_1_c_a_f_e_v_d_b_1_1_service_1_1_encryption_service.html#a4efe39e6059783c9439d484de8bf2590" target="_top" xlink:title="Bind $this to the given userId and password, for instance during listeners for password&#45;change etc.">
<polygon fill="white" stroke="#666666" points="177.12,-58 143.12,-58 143.12,-38 177.12,-38 177.12,-58"/>
<text text-anchor="middle" x="160.12" y="-44.5" font-family="Helvetica,sans-Serif" font-size="10.00">bind</text>
</a>
</g>
</g>
<!-- Node4&#45;&gt;Node5 -->
<g id="edge4_Node000004_Node000005" class="edge">
<title>Node4&#45;&gt;Node5</title>
<g id="a_edge4_Node000004_Node000005"><a xlink:title=" ">
<path fill="none" stroke="#63b8ff" d="M244.45,-48C219.74,-48 193.67,-48 177.41,-48"/>
<polygon fill="#63b8ff" stroke="#63b8ff" points="244.16,-51.5 254.16,-48 244.16,-44.5 244.16,-51.5"/>
</a>
</g>
</g>
<!-- Node6 -->
<g id="Node000006" class="node">
<title>Node6</title>
<g id="a_Node000006"><a xlink:href="class_o_c_a_1_1_c_a_f_e_v_d_b_1_1_service_1_1_encryption_service.html#a7ab7de782ea52be1cc9a6ea784aad0a1" target="_top" xlink:title="{}">
<polygon fill="white" stroke="#666666" points="67,-58 0,-58 0,-38 67,-38 67,-58"/>
<text text-anchor="middle" x="33.5" y="-44.5" font-family="Helvetica,sans-Serif" font-size="10.00">__construct</text>
</a>
</g>
</g>
<!-- Node5&#45;&gt;Node6 -->
<g id="edge5_Node000005_Node000006" class="edge">
<title>Node5&#45;&gt;Node6</title>
<g id="a_edge5_Node000005_Node000006"><a xlink:title=" ">
<path fill="none" stroke="#63b8ff" d="M131.42,-48C112.49,-48 87.34,-48 67.4,-48"/>
<polygon fill="#63b8ff" stroke="#63b8ff" points="131.32,-51.5 141.32,-48 131.32,-44.5 131.32,-51.5"/>
</a>
</g>
</g>
<!-- Node8 -->
<g id="Node000008" class="node">
<title>Node8</title>
<g id="a_Node000008"><a xlink:href="class_o_c_a_1_1_c_a_f_e_v_d_b_1_1_service_1_1_encryption_service.html#a9c5f710d18ae121852e4bdeffe4a6c3d" target="_top" xlink:title="Set the encryption key for the current or the given user.">
<polygon fill="white" stroke="#666666" points="217.25,-20 103,-20 103,0 217.25,0 217.25,-20"/>
<text text-anchor="middle" x="160.12" y="-6.5" font-family="Helvetica,sans-Serif" font-size="10.00">setUserEncryptionKey</text>
</a>
</g>
</g>
<!-- Node7&#45;&gt;Node8 -->
<g id="edge7_Node000007_Node000008" class="edge">
<title>Node7&#45;&gt;Node8</title>
<g id="a_edge7_Node000007_Node000008"><a xlink:title=" ">
<path fill="none" stroke="#63b8ff" d="M241.79,-10C233.7,-10 225.49,-10 217.58,-10"/>
<polygon fill="#63b8ff" stroke="#63b8ff" points="241.62,-13.5 251.62,-10 241.62,-6.5 241.62,-13.5"/>
</a>
</g>
</g>
</g>
</svg>
</svg>

<style type='text/css'>
<![CDATA[
[data-mouse-over-selected='false'] { opacity: 0.7; }
[data-mouse-over-selected='true']  { opacity: 1.0; }
]]>
</style>
<script type="application/ecmascript"><![CDATA[
document.addEventListener('DOMContentLoaded', (event) => {
  highlightEdges();
  highlightAdjacentNodes();
});
]]></script>
</svg>
