<?xml version="1.0" encoding="UTF-8" standalone="no"?>
<!DOCTYPE svg PUBLIC "-//W3C//DTD SVG 1.1//EN"
 "http://www.w3.org/Graphics/SVG/1.1/DTD/svg11.dtd">
<!-- Generated by graphviz version 7.1.0 (20230121.1956)
 -->
<!-- Title: deleteCalendarObject Pages: 1 -->
<svg width="365pt" height="27pt"
 viewBox="0.00 0.00 365.00 27.00" xmlns="http://www.w3.org/2000/svg" xmlns:xlink="http://www.w3.org/1999/xlink">
<g id="graph0" class="graph" transform="scale(1 1) rotate(0) translate(4 23)">
<title>deleteCalendarObject</title>
<!-- Node1 -->
<g id="node1" class="node">
<title>Node1</title>
<g id="a_node1"><a xlink:title="Remove the given calendar object.">
<polygon fill="#999999" stroke="#666666" points="110,-19 0,-19 0,0 110,0 110,-19"/>
<text text-anchor="middle" x="55" y="-7" font-family="Helvetica,sans-Serif" font-size="10.00">deleteCalendarObject</text>
</a>
</g>
</g>
<!-- Node2 -->
<g id="node2" class="node">
<title>Node2</title>
<g id="a_node2"><a xlink:href="class_o_c_a_1_1_c_a_f_e_v_d_b_1_1_service_1_1_cal_dav_service.html#ab2479c65f5ff410c3580f54e5ba6ee88" target="_top" xlink:title="Convert an object UID to its local URI.">
<polygon fill="white" stroke="#666666" points="217,-19 146,-19 146,0 217,0 217,-19"/>
<text text-anchor="middle" x="181.5" y="-7" font-family="Helvetica,sans-Serif" font-size="10.00">getObjectUri</text>
</a>
</g>
</g>
<!-- Node1&#45;&gt;Node2 -->
<g id="edge1" class="edge">
<title>Node1&#45;&gt;Node2</title>
<path fill="none" stroke="#63b8ff" d="M110.25,-9.5C118.35,-9.5 126.63,-9.5 134.54,-9.5"/>
<polygon fill="#63b8ff" stroke="#63b8ff" points="134.28,-13 144.28,-9.5 134.28,-6 134.28,-13"/>
</g>
<!-- Node3 -->
<g id="node3" class="node">
<title>Node3</title>
<g id="a_node3"><a xlink:href="class_o_c_a_1_1_c_a_f_e_v_d_b_1_1_service_1_1_cal_dav_service.html#afd08da0f2d0c21a2bc9d5d5ae56f7907" target="_top" xlink:title="Get the uri of the original calendar.">
<polygon fill="white" stroke="#666666" points="357,-19 253,-19 253,0 357,0 357,-19"/>
<text text-anchor="middle" x="305" y="-7" font-family="Helvetica,sans-Serif" font-size="10.00">calendarPrincipalUri</text>
</a>
</g>
</g>
<!-- Node2&#45;&gt;Node3 -->
<g id="edge2" class="edge">
<title>Node2&#45;&gt;Node3</title>
<path fill="none" stroke="#63b8ff" d="M217.32,-9.5C224.93,-9.5 233.22,-9.5 241.55,-9.5"/>
<polygon fill="#63b8ff" stroke="#63b8ff" points="241.36,-13 251.36,-9.5 241.36,-6 241.36,-13"/>
</g>
</g>
</svg>
