<?xml version="1.0" encoding="UTF-8" standalone="no"?>
<!DOCTYPE svg PUBLIC "-//W3C//DTD SVG 1.1//EN"
 "http://www.w3.org/Graphics/SVG/1.1/DTD/svg11.dtd">
<!-- Generated by graphviz version 8.0.3 (20230416.2022)
 -->
<!-- Title: transform Pages: 1 -->
<svg width="234pt" height="101pt"
 viewBox="0.00 0.00 234.00 101.00" xmlns="http://www.w3.org/2000/svg" xmlns:xlink="http://www.w3.org/1999/xlink">
<g id="graph0" class="graph" transform="scale(1 1) rotate(0) translate(4 97)">
<title>transform</title>
<!-- Node1 -->
<g id="node1" class="node">
<title>Node1</title>
<g id="a_node1"><a xlink:title="Forward transform to data&#45;base.">
<polygon fill="#999999" stroke="#666666" points="58,-56 0,-56 0,-37 58,-37 58,-56"/>
<text text-anchor="middle" x="29" y="-44" font-family="Helvetica,sans-Serif" font-size="10.00">transform</text>
</a>
</g>
</g>
<!-- Node2 -->
<g id="node2" class="node">
<title>Node2</title>
<g id="a_node2"><a xlink:href="class_o_c_a_1_1_c_a_f_e_v_d_b_1_1_database_1_1_doctrine_1_1_o_r_m_1_1_listeners_1_1_transformable_1_1_encryption.html#a489cb6b1e4b09a18879273ec6c8173b3" target="_top" xlink:title=" ">
<polygon fill="white" stroke="#666666" points="201,-93 119,-93 119,-74 201,-74 201,-93"/>
<text text-anchor="middle" x="160" y="-81" font-family="Helvetica,sans-Serif" font-size="10.00">getSealCryptor</text>
</a>
</g>
</g>
<!-- Node1&#45;&gt;Node2 -->
<g id="edge1" class="edge">
<title>Node1&#45;&gt;Node2</title>
<path fill="none" stroke="#63b8ff" d="M58.32,-55.03C69.43,-58.34 82.3,-62.14 94,-65.5 99.91,-67.2 106.14,-68.95 112.29,-70.68"/>
<polygon fill="#63b8ff" stroke="#63b8ff" points="110.95,-74.22 121.53,-73.53 112.83,-67.47 110.95,-74.22"/>
</g>
<!-- Node3 -->
<g id="node3" class="node">
<title>Node3</title>
<g id="a_node3"><a xlink:href="class_o_c_a_1_1_c_a_f_e_v_d_b_1_1_database_1_1_doctrine_1_1_o_r_m_1_1_listeners_1_1_transformable_1_1_encryption.html#aa2d6a55478bae33413abfd99f27d2d34" target="_top" xlink:title=" ">
<polygon fill="white" stroke="#666666" points="194,-56 126,-56 126,-37 194,-37 194,-56"/>
<text text-anchor="middle" x="160" y="-44" font-family="Helvetica,sans-Serif" font-size="10.00">isEncrypted</text>
</a>
</g>
</g>
<!-- Node1&#45;&gt;Node3 -->
<g id="edge2" class="edge">
<title>Node1&#45;&gt;Node3</title>
<path fill="none" stroke="#63b8ff" d="M58.31,-46.5C74.85,-46.5 96.08,-46.5 114.78,-46.5"/>
<polygon fill="#63b8ff" stroke="#63b8ff" points="114.73,-50 124.73,-46.5 114.73,-43 114.73,-50"/>
</g>
<!-- Node4 -->
<g id="node4" class="node">
<title>Node4</title>
<g id="a_node4"><a xlink:href="class_o_c_a_1_1_c_a_f_e_v_d_b_1_1_database_1_1_doctrine_1_1_o_r_m_1_1_listeners_1_1_transformable_1_1_encryption.html#a4dee913114bb697bc9e1d67a20eea2eb" target="_top" xlink:title=" ">
<polygon fill="white" stroke="#666666" points="226,-19 94,-19 94,0 226,0 226,-19"/>
<text text-anchor="middle" x="160" y="-7" font-family="Helvetica,sans-Serif" font-size="10.00">manageEncryptionContext</text>
</a>
</g>
</g>
<!-- Node1&#45;&gt;Node4 -->
<g id="edge3" class="edge">
<title>Node1&#45;&gt;Node4</title>
<path fill="none" stroke="#63b8ff" d="M58.31,-38.38C74.55,-33.72 95.32,-27.76 113.78,-22.47"/>
<polygon fill="#63b8ff" stroke="#63b8ff" points="114.68,-25.57 123.32,-19.45 112.75,-18.84 114.68,-25.57"/>
</g>
</g>
</svg>
