<?xml version="1.0" encoding="UTF-8" standalone="no"?>
<!DOCTYPE svg PUBLIC "-//W3C//DTD SVG 1.1//EN"
 "http://www.w3.org/Graphics/SVG/1.1/DTD/svg11.dtd">
<!-- Generated by graphviz version 9.0.0 (20230911.1827)
 -->
<!-- Title: Exception Pages: 1 -->
<!--zoomable 798 -->

<svg id="main" version="1.1" xmlns="http://www.w3.org/2000/svg" xmlns:xlink="http://www.w3.org/1999/xlink" xml:space="preserve" onload="init(evt)">
<style type="text/css"><![CDATA[
.node, .edge {opacity: 0.7;}
.node.selected, .edge.selected {opacity: 1;}
.edge:hover path { stroke: red; }
.edge:hover polygon { stroke: red; fill: red; }
]]></style>

<defs>
  <circle id="rim" cx="0" cy="0" r="7"/>
  <circle id="rim2" cx="0" cy="0" r="3.5"/>
  <g id="zoomPlus">
    <use xlink:href="#rim" fill="#404040"><set attributeName="fill" to="#808080" begin="zoomplus.mouseover" end="zoomplus.mouseout"/></use>
    <path d="M-4,0h8M0,-4v8" fill="none" stroke="white" stroke-width="1.5" pointer-events="none"/>
  </g>
  <g id="zoomMin">
    <use xlink:href="#rim" fill="#404040"><set attributeName="fill" to="#808080" begin="zoomminus.mouseover" end="zoomminus.mouseout"/></use>
    <path d="M-4,0h8" fill="none" stroke="white" stroke-width="1.5" pointer-events="none"/>
  </g>
  <g id="arrowUp" transform="translate(30 24)">
    <use xlink:href="#rim"/>
    <path pointer-events="none" fill="none" stroke="white" stroke-width="1.5" d="M0,-3.0v7 M-2.5,-0.5L0,-3.0L2.5,-0.5"/>
  </g>
  <g id="arrowRight" transform="rotate(90) translate(36 -43)">
    <use xlink:href="#rim"/>
    <path pointer-events="none" fill="none" stroke="white" stroke-width="1.5" d="M0,-3.0v7 M-2.5,-0.5L0,-3.0L2.5,-0.5"/>
  </g>
  <g id="arrowDown" transform="rotate(180) translate(-30 -48)">
    <use xlink:href="#rim"/>
    <path pointer-events="none" fill="none" stroke="white" stroke-width="1.5" d="M0,-3.0v7 M-2.5,-0.5L0,-3.0L2.5,-0.5"/>
  </g>
  <g id="arrowLeft" transform="rotate(270) translate(-36 17)">
    <use xlink:href="#rim"/>
    <path pointer-events="none" fill="none" stroke="white" stroke-width="1.5" d="M0,-3.0v7 M-2.5,-0.5L0,-3.0L2.5,-0.5"/>
  </g>
  <g id="resetDef">
    <use xlink:href="#rim2" fill="#404040"><set attributeName="fill" to="#808080" begin="reset.mouseover" end="reset.mouseout"/></use>
  </g>
</defs>
<script type="application/ecmascript">
var viewWidth = 599;
var viewHeight = 798;
var sectionId = 'dynsection-0';
</script>
<script type="application/ecmascript" xlink:href="svg.min.js"/>
<svg id="graph" class="graph">
<g id="viewport">
<title>Exception</title>
<!-- Node1 -->
<g id="Node000001" class="node">
<title>Node1</title>
<g id="a_Node000001"><a xlink:title="General abstraction base&#45;class.">
<polygon fill="#999999" stroke="#666666" points="176,-254 116.5,-254 116.5,-234 176,-234 176,-254"/>
<text text-anchor="middle" x="146.25" y="-240.5" font-family="Helvetica,sans-Serif" font-size="10.00">Exception</text>
</a>
</g>
</g>
<!-- Node3 -->
<g id="Node000003" class="node">
<title>Node3</title>
<g id="a_Node000003"><a xlink:href="class_o_c_a_1_1_c_a_f_e_v_d_b_1_1_exceptions_1_1_calendar_exception.html" target="_top" xlink:title="General abstraction base&#45;class.">
<polygon fill="white" stroke="#666666" points="346.12,-711 247.62,-711 247.62,-691 346.12,-691 346.12,-711"/>
<text text-anchor="middle" x="296.88" y="-697.5" font-family="Helvetica,sans-Serif" font-size="10.00">CalendarException</text>
</a>
</g>
</g>
<!-- Node1&#45;&gt;Node3 -->
<g id="edge2_Node000001_Node000003" class="edge">
<title>Node1&#45;&gt;Node3</title>
<g id="a_edge2_Node000001_Node000003"><a xlink:title=" ">
<path fill="none" stroke="#63b8ff" d="M147.23,-265.6C147.99,-323.44 155.4,-485.46 212,-604 229.46,-640.56 264.49,-674.17 283.28,-690.54"/>
<polygon fill="#63b8ff" stroke="#63b8ff" points="150.74,-265.82 147.17,-255.84 143.74,-265.87 150.74,-265.82"/>
</a>
</g>
</g>
<!-- Node5 -->
<g id="Node000005" class="node">
<title>Node5</title>
<g id="a_Node000005"><a xlink:href="class_o_c_a_1_1_c_a_f_e_v_d_b_1_1_exceptions_1_1_config_locked_exception.html" target="_top" xlink:title=" ">
<polygon fill="white" stroke="#666666" points="356.62,-595 237.12,-595 237.12,-575 356.62,-575 356.62,-595"/>
<text text-anchor="middle" x="296.88" y="-581.5" font-family="Helvetica,sans-Serif" font-size="10.00">ConfigLockedException</text>
</a>
</g>
</g>
<!-- Node1&#45;&gt;Node5 -->
<g id="edge4_Node000001_Node000005" class="edge">
<title>Node1&#45;&gt;Node5</title>
<g id="a_edge4_Node000001_Node000005"><a xlink:title=" ">
<path fill="none" stroke="#63b8ff" d="M148.6,-265.55C153.1,-330.53 169.81,-522.77 212,-566 218.78,-572.95 227.52,-577.59 236.8,-580.65"/>
<polygon fill="#63b8ff" stroke="#63b8ff" points="152.11,-265.59 147.96,-255.84 145.12,-266.05 152.11,-265.59"/>
</a>
</g>
</g>
<!-- Node6 -->
<g id="Node000006" class="node">
<title>Node6</title>
<g id="a_Node000006"><a xlink:href="class_o_c_a_1_1_c_a_f_e_v_d_b_1_1_exceptions_1_1_database_exception.html" target="_top" xlink:title="Base&#45;class for database exceptions.">
<polygon fill="white" stroke="#666666" points="347.62,-557 246.12,-557 246.12,-537 347.62,-537 347.62,-557"/>
<text text-anchor="middle" x="296.88" y="-543.5" font-family="Helvetica,sans-Serif" font-size="10.00">DatabaseException</text>
</a>
</g>
</g>
<!-- Node1&#45;&gt;Node6 -->
<g id="edge5_Node000001_Node000006" class="edge">
<title>Node1&#45;&gt;Node6</title>
<g id="a_edge5_Node000001_Node000006"><a xlink:title=" ">
<path fill="none" stroke="#63b8ff" d="M157.26,-264.4C186.21,-323.42 269.34,-492.9 290.78,-536.61"/>
<polygon fill="#63b8ff" stroke="#63b8ff" points="160.58,-263.23 153.03,-255.79 154.29,-266.31 160.58,-263.23"/>
</a>
</g>
</g>
<!-- Node15 -->
<g id="Node000015" class="node">
<title>Node15</title>
<g id="a_Node000015"><a xlink:href="class_o_c_a_1_1_c_a_f_e_v_d_b_1_1_exceptions_1_1_database_storage_exception.html" target="_top" xlink:title="Exception class tag for the database storage backend.">
<polygon fill="white" stroke="#666666" points="364.5,-349 229.25,-349 229.25,-329 364.5,-329 364.5,-349"/>
<text text-anchor="middle" x="296.88" y="-335.5" font-family="Helvetica,sans-Serif" font-size="10.00">DatabaseStorageException</text>
</a>
</g>
</g>
<!-- Node1&#45;&gt;Node15 -->
<g id="edge14_Node000001_Node000015" class="edge">
<title>Node1&#45;&gt;Node15</title>
<g id="a_edge14_Node000001_Node000015"><a xlink:title=" ">
<path fill="none" stroke="#63b8ff" d="M158.88,-263.78C170.21,-281.28 189.06,-306.13 212,-320 217.75,-323.48 224.07,-326.32 230.58,-328.64"/>
<polygon fill="#63b8ff" stroke="#63b8ff" points="162.14,-262.4 153.89,-255.75 156.19,-266.09 162.14,-262.4"/>
</a>
</g>
</g>
<!-- Node16 -->
<g id="Node000016" class="node">
<title>Node16</title>
<g id="a_Node000016"><a xlink:href="class_o_c_a_1_1_c_a_f_e_v_d_b_1_1_exceptions_1_1_encryption_exception.html" target="_top" xlink:title="Base class for other exceptions.">
<polygon fill="white" stroke="#666666" points="349.88,-311 243.88,-311 243.88,-291 349.88,-291 349.88,-311"/>
<text text-anchor="middle" x="296.88" y="-297.5" font-family="Helvetica,sans-Serif" font-size="10.00">EncryptionException</text>
</a>
</g>
</g>
<!-- Node1&#45;&gt;Node16 -->
<g id="edge15_Node000001_Node000016" class="edge">
<title>Node1&#45;&gt;Node16</title>
<g id="a_edge15_Node000001_Node000016"><a xlink:title=" ">
<path fill="none" stroke="#63b8ff" d="M171.55,-260.67C183.32,-268.11 197.94,-276.44 212,-282 222,-285.95 233,-289.19 243.66,-291.79"/>
<polygon fill="#63b8ff" stroke="#63b8ff" points="173.57,-257.81 163.28,-255.28 169.74,-263.67 173.57,-257.81"/>
</a>
</g>
</g>
<!-- Node24 -->
<g id="Node000024" class="node">
<title>Node24</title>
<g id="a_Node000024"><a xlink:href="class_o_c_a_1_1_c_a_f_e_v_d_b_1_1_exceptions_1_1_enduser_notification_exception.html" target="_top" xlink:title="This exception should provide an error message which informs an end&#45;user about an error.">
<polygon fill="white" stroke="#666666" points="369.38,-273 224.38,-273 224.38,-253 369.38,-253 369.38,-273"/>
<text text-anchor="middle" x="296.88" y="-259.5" font-family="Helvetica,sans-Serif" font-size="10.00">EnduserNotificationException</text>
</a>
</g>
</g>
<!-- Node1&#45;&gt;Node24 -->
<g id="edge23_Node000001_Node000024" class="edge">
<title>Node1&#45;&gt;Node24</title>
<g id="a_edge23_Node000001_Node000024"><a xlink:title=" ">
<path fill="none" stroke="#63b8ff" d="M187.52,-249.15C198.85,-250.6 211.52,-252.22 224.1,-253.82"/>
<polygon fill="#63b8ff" stroke="#63b8ff" points="188.12,-245.7 177.76,-247.9 187.24,-252.64 188.12,-245.7"/>
</a>
</g>
</g>
<!-- Node25 -->
<g id="Node000025" class="node">
<title>Node25</title>
<g id="a_Node000025"><a xlink:href="class_o_c_a_1_1_c_a_f_e_v_d_b_1_1_exceptions_1_1_migration_exception.html" target="_top" xlink:title="Base&#45;class for database exceptions.">
<polygon fill="white" stroke="#666666" points="346.5,-235 247.25,-235 247.25,-215 346.5,-215 346.5,-235"/>
<text text-anchor="middle" x="296.88" y="-221.5" font-family="Helvetica,sans-Serif" font-size="10.00">MigrationException</text>
</a>
</g>
</g>
<!-- Node1&#45;&gt;Node25 -->
<g id="edge24_Node000001_Node000025" class="edge">
<title>Node1&#45;&gt;Node25</title>
<g id="a_edge24_Node000001_Node000025"><a xlink:title=" ">
<path fill="none" stroke="#63b8ff" d="M187.47,-238.86C205.83,-236.51 227.74,-233.71 247.04,-231.24"/>
<polygon fill="#63b8ff" stroke="#63b8ff" points="187.24,-235.36 177.76,-240.1 188.12,-242.3 187.24,-235.36"/>
</a>
</g>
</g>
<!-- Node26 -->
<g id="Node000026" class="node">
<title>Node26</title>
<g id="a_Node000026"><a xlink:href="class_o_c_a_1_1_c_a_f_e_v_d_b_1_1_exceptions_1_1_missing_projects_folder_exception.html" target="_top" xlink:title=" ">
<polygon fill="white" stroke="#666666" points="375,-197 218.75,-197 218.75,-177 375,-177 375,-197"/>
<text text-anchor="middle" x="296.88" y="-183.5" font-family="Helvetica,sans-Serif" font-size="10.00">MissingProjectsFolderException</text>
</a>
</g>
</g>
<!-- Node1&#45;&gt;Node26 -->
<g id="edge25_Node000001_Node000026" class="edge">
<title>Node1&#45;&gt;Node26</title>
<g id="a_edge25_Node000001_Node000026"><a xlink:title=" ">
<path fill="none" stroke="#63b8ff" d="M171.55,-227.33C183.32,-219.89 197.94,-211.56 212,-206 220.47,-202.65 229.66,-199.82 238.76,-197.45"/>
<polygon fill="#63b8ff" stroke="#63b8ff" points="169.74,-224.33 163.28,-232.72 173.57,-230.19 169.74,-224.33"/>
</a>
</g>
</g>
<!-- Node27 -->
<g id="Node000027" class="node">
<title>Node27</title>
<g id="a_Node000027"><a xlink:href="class_o_c_a_1_1_c_a_f_e_v_d_b_1_1_exceptions_1_1_php_session_exception.html" target="_top" xlink:title="Base for other exceptions.">
<polygon fill="white" stroke="#666666" points="352.88,-159 240.88,-159 240.88,-139 352.88,-139 352.88,-159"/>
<text text-anchor="middle" x="296.88" y="-145.5" font-family="Helvetica,sans-Serif" font-size="10.00">PhpSessionException</text>
</a>
</g>
</g>
<!-- Node1&#45;&gt;Node27 -->
<g id="edge26_Node000001_Node000027" class="edge">
<title>Node1&#45;&gt;Node27</title>
<g id="a_edge26_Node000001_Node000027"><a xlink:title=" ">
<path fill="none" stroke="#63b8ff" d="M158.88,-224.22C170.21,-206.72 189.06,-181.87 212,-168 220.69,-162.75 230.68,-158.94 240.67,-156.19"/>
<polygon fill="#63b8ff" stroke="#63b8ff" points="156.19,-221.91 153.89,-232.25 162.14,-225.6 156.19,-221.91"/>
</a>
</g>
</g>
<!-- Node29 -->
<g id="Node000029" class="node">
<title>Node29</title>
<g id="a_Node000029"><a xlink:href="class_o_c_a_1_1_c_a_f_e_v_d_b_1_1_exceptions_1_1_progress_status_not_found_exception.html" target="_top" xlink:title=" ">
<polygon fill="white" stroke="#666666" points="381.75,-121 212,-121 212,-101 381.75,-101 381.75,-121"/>
<text text-anchor="middle" x="296.88" y="-107.5" font-family="Helvetica,sans-Serif" font-size="10.00">ProgressStatusNotFoundException</text>
</a>
</g>
</g>
<!-- Node1&#45;&gt;Node29 -->
<g id="edge28_Node000001_Node000029" class="edge">
<title>Node1&#45;&gt;Node29</title>
<g id="a_edge28_Node000001_Node000029"><a xlink:title=" ">
<path fill="none" stroke="#63b8ff" d="M153.47,-222.68C162.19,-196.67 180.6,-153.3 212,-130 216.68,-126.53 221.87,-123.68 227.33,-121.33"/>
<polygon fill="#63b8ff" stroke="#63b8ff" points="150.15,-221.54 150.49,-232.13 156.83,-223.64 150.15,-221.54"/>
</a>
</g>
</g>
<!-- Node30 -->
<g id="Node000030" class="node">
<title>Node30</title>
<g id="a_Node000030"><a xlink:href="class_o_c_a_1_1_c_a_f_e_v_d_b_1_1_exceptions_1_1_sanitizer_exception.html" target="_top" xlink:title="Exceptions thrown by the database sanitizers.">
<polygon fill="white" stroke="#666666" points="345.75,-83 248,-83 248,-63 345.75,-63 345.75,-83"/>
<text text-anchor="middle" x="296.88" y="-69.5" font-family="Helvetica,sans-Serif" font-size="10.00">SanitizerException</text>
</a>
</g>
</g>
<!-- Node1&#45;&gt;Node30 -->
<g id="edge29_Node000001_Node000030" class="edge">
<title>Node1&#45;&gt;Node30</title>
<g id="a_edge29_Node000001_Node000030"><a xlink:title=" ">
<path fill="none" stroke="#63b8ff" d="M150.16,-222.47C155.83,-189.23 171.58,-125.73 212,-92 221.97,-83.68 234.85,-78.82 247.52,-76.03"/>
<polygon fill="#63b8ff" stroke="#63b8ff" points="146.74,-221.7 148.68,-232.11 153.66,-222.76 146.74,-221.7"/>
</a>
</g>
</g>
<!-- Node34 -->
<g id="Node000034" class="node">
<title>Node34</title>
<g id="a_Node000034"><a xlink:href="class_o_c_a_1_1_c_a_f_e_v_d_b_1_1_exceptions_1_1_substitution_exception.html" target="_top" xlink:title=" ">
<polygon fill="white" stroke="#666666" points="352.5,-45 241.25,-45 241.25,-25 352.5,-25 352.5,-45"/>
<text text-anchor="middle" x="296.88" y="-31.5" font-family="Helvetica,sans-Serif" font-size="10.00">SubstitutionException</text>
</a>
</g>
</g>
<!-- Node1&#45;&gt;Node34 -->
<g id="edge33_Node000001_Node000034" class="edge">
<title>Node1&#45;&gt;Node34</title>
<g id="a_edge33_Node000001_Node000034"><a xlink:title=" ">
<path fill="none" stroke="#63b8ff" d="M148.05,-222.57C150.73,-183.06 162.31,-98.7 212,-54 220.1,-46.71 230.41,-42.03 240.99,-39.07"/>
<polygon fill="#63b8ff" stroke="#63b8ff" points="144.56,-222.24 147.53,-232.41 151.55,-222.61 144.56,-222.24"/>
</a>
</g>
</g>
<!-- Node2 -->
<g id="Node000002" class="node">
<title>Node2</title>
<g id="a_Node000002"><a xlink:title=" ">
<polygon fill="white" stroke="#bfbfbf" points="80.5,-254 0,-254 0,-234 80.5,-234 80.5,-254"/>
<text text-anchor="middle" x="40.25" y="-240.5" font-family="Helvetica,sans-Serif" font-size="10.00">CoreException</text>
</a>
</g>
</g>
<!-- Node2&#45;&gt;Node1 -->
<g id="edge1_Node000001_Node000002" class="edge">
<title>Node2&#45;&gt;Node1</title>
<g id="a_edge1_Node000001_Node000002"><a xlink:title=" ">
<path fill="none" stroke="#63b8ff" d="M92.31,-244C100.47,-244 108.67,-244 116.1,-244"/>
<polygon fill="#63b8ff" stroke="#63b8ff" points="92.38,-240.5 82.38,-244 92.38,-247.5 92.38,-240.5"/>
</a>
</g>
</g>
<!-- Node4 -->
<g id="Node000004" class="node">
<title>Node4</title>
<g id="a_Node000004"><a xlink:href="class_o_c_a_1_1_c_a_f_e_v_d_b_1_1_exceptions_1_1_calendar_entry_not_found_exception.html" target="_top" xlink:title="General abstraction base&#45;class.">
<polygon fill="white" stroke="#666666" points="586.75,-790 422.25,-790 422.25,-770 586.75,-770 586.75,-790"/>
<text text-anchor="middle" x="504.5" y="-776.5" font-family="Helvetica,sans-Serif" font-size="10.00">CalendarEntryNotFoundException</text>
</a>
</g>
</g>
<!-- Node3&#45;&gt;Node4 -->
<g id="edge3_Node000003_Node000004" class="edge">
<title>Node3&#45;&gt;Node4</title>
<g id="a_edge3_Node000003_Node000004"><a xlink:title=" ">
<path fill="none" stroke="#63b8ff" d="M324.85,-716.92C348.61,-730.34 384.51,-749.2 417.75,-761 427.09,-764.32 437.22,-767.17 447.13,-769.59"/>
<polygon fill="#63b8ff" stroke="#63b8ff" points="326.88,-714.05 316.46,-712.11 323.39,-720.12 326.88,-714.05"/>
</a>
</g>
</g>
<!-- Node7 -->
<g id="Node000007" class="node">
<title>Node7</title>
<g id="a_Node000007"><a xlink:href="class_o_c_a_1_1_c_a_f_e_v_d_b_1_1_exceptions_1_1_database_cloud_connector_view_exception.html" target="_top" xlink:title="Thrown during generation of the cloud&#45;user connector views.">
<polygon fill="white" stroke="#666666" points="579.62,-752 429.38,-752 429.38,-720 579.62,-720 579.62,-752"/>
<text text-anchor="start" x="437.38" y="-738.5" font-family="Helvetica,sans-Serif" font-size="10.00">DatabaseCloudConnectorView</text>
<text text-anchor="middle" x="504.5" y="-726.5" font-family="Helvetica,sans-Serif" font-size="10.00">Exception</text>
</a>
</g>
</g>
<!-- Node6&#45;&gt;Node7 -->
<g id="edge6_Node000006_Node000007" class="edge">
<title>Node6&#45;&gt;Node7</title>
<g id="a_edge6_Node000006_Node000007"><a xlink:title=" ">
<path fill="none" stroke="#63b8ff" d="M358.93,-552.37C367.41,-555.39 375.38,-559.76 381.75,-566 429.18,-612.47 371.75,-663.11 417.75,-711 421.08,-714.47 424.86,-717.46 428.93,-720.05"/>
<polygon fill="#63b8ff" stroke="#63b8ff" points="360.05,-549.05 349.47,-549.64 358.11,-555.77 360.05,-549.05"/>
</a>
</g>
</g>
<!-- Node8 -->
<g id="Node000008" class="node">
<title>Node8</title>
<g id="a_Node000008"><a xlink:href="class_o_c_a_1_1_c_a_f_e_v_d_b_1_1_exceptions_1_1_database_entity_not_found_exception.html" target="_top" xlink:title="Thrown if an entity could not be found.">
<polygon fill="white" stroke="#666666" points="589.38,-702 419.62,-702 419.62,-682 589.38,-682 589.38,-702"/>
<text text-anchor="middle" x="504.5" y="-688.5" font-family="Helvetica,sans-Serif" font-size="10.00">DatabaseEntityNotFoundException</text>
</a>
</g>
</g>
<!-- Node6&#45;&gt;Node8 -->
<g id="edge7_Node000006_Node000008" class="edge">
<title>Node6&#45;&gt;Node8</title>
<g id="a_edge7_Node000006_Node000008"><a xlink:title=" ">
<path fill="none" stroke="#63b8ff" d="M358.8,-552.94C367.22,-555.9 375.21,-560.09 381.75,-566 418.99,-599.63 380.43,-639.46 417.75,-673 421.49,-676.36 425.69,-679.18 430.18,-681.52"/>
<polygon fill="#63b8ff" stroke="#63b8ff" points="360.01,-549.65 349.43,-550.24 358.07,-556.37 360.01,-549.65"/>
</a>
</g>
</g>
<!-- Node9 -->
<g id="Node000009" class="node">
<title>Node9</title>
<g id="a_Node000009"><a xlink:href="class_o_c_a_1_1_c_a_f_e_v_d_b_1_1_exceptions_1_1_database_entity_not_unique_exception.html" target="_top" xlink:title="Thrown if more than one entity is found when there should be only one.">
<polygon fill="white" stroke="#666666" points="591.25,-664 417.75,-664 417.75,-644 591.25,-644 591.25,-664"/>
<text text-anchor="middle" x="504.5" y="-650.5" font-family="Helvetica,sans-Serif" font-size="10.00">DatabaseEntityNotUniqueException</text>
</a>
</g>
</g>
<!-- Node6&#45;&gt;Node9 -->
<g id="edge8_Node000006_Node000009" class="edge">
<title>Node6&#45;&gt;Node9</title>
<g id="a_edge8_Node000006_Node000009"><a xlink:title=" ">
<path fill="none" stroke="#63b8ff" d="M358.9,-554.18C367.11,-556.98 375.01,-560.81 381.75,-566 409.15,-587.11 390.3,-613.96 417.75,-635 422.23,-638.43 427.2,-641.27 432.44,-643.61"/>
<polygon fill="#63b8ff" stroke="#63b8ff" points="360.04,-550.86 349.46,-551.46 358.1,-557.59 360.04,-550.86"/>
</a>
</g>
</g>
<!-- Node10 -->
<g id="Node000010" class="node">
<title>Node10</title>
<g id="a_Node000010"><a xlink:href="class_o_c_a_1_1_c_a_f_e_v_d_b_1_1_exceptions_1_1_database_inconsistent_value_exception.html" target="_top" xlink:title="Thrown if inconsistencies are detected.">
<polygon fill="white" stroke="#666666" points="572.12,-626 436.88,-626 436.88,-594 572.12,-594 572.12,-626"/>
<text text-anchor="start" x="444.88" y="-612.5" font-family="Helvetica,sans-Serif" font-size="10.00">DatabaseInconsistentValue</text>
<text text-anchor="middle" x="504.5" y="-600.5" font-family="Helvetica,sans-Serif" font-size="10.00">Exception</text>
</a>
</g>
</g>
<!-- Node6&#45;&gt;Node10 -->
<g id="edge9_Node000006_Node000010" class="edge">
<title>Node6&#45;&gt;Node10</title>
<g id="a_edge9_Node000006_Node000010"><a xlink:title=" ">
<path fill="none" stroke="#63b8ff" d="M358.75,-558.8C366.58,-560.89 374.42,-563.29 381.75,-566 398.72,-572.27 400.98,-578.21 417.75,-585 425.37,-588.08 433.51,-590.96 441.63,-593.59"/>
<polygon fill="#63b8ff" stroke="#63b8ff" points="359.75,-555.44 349.2,-556.4 358.05,-562.23 359.75,-555.44"/>
</a>
</g>
</g>
<!-- Node11 -->
<g id="Node000011" class="node">
<title>Node11</title>
<g id="a_Node000011"><a xlink:href="class_o_c_a_1_1_c_a_f_e_v_d_b_1_1_exceptions_1_1_database_invalid_field_exception.html" target="_top" xlink:title="Thrown if a field has an incompatible type for the operation.">
<polygon fill="white" stroke="#666666" points="580,-576 429,-576 429,-556 580,-556 580,-576"/>
<text text-anchor="middle" x="504.5" y="-562.5" font-family="Helvetica,sans-Serif" font-size="10.00">DatabaseInvalidFieldException</text>
</a>
</g>
</g>
<!-- Node6&#45;&gt;Node11 -->
<g id="edge10_Node000006_Node000011" class="edge">
<title>Node6&#45;&gt;Node11</title>
<g id="a_edge10_Node000006_Node000011"><a xlink:title=" ">
<path fill="none" stroke="#63b8ff" d="M359.34,-552.68C381.13,-554.69 405.88,-556.98 428.66,-559.08"/>
<polygon fill="#63b8ff" stroke="#63b8ff" points="359.7,-549.2 349.42,-551.76 359.06,-556.17 359.7,-549.2"/>
</a>
</g>
</g>
<!-- Node12 -->
<g id="Node000012" class="node">
<title>Node12</title>
<g id="a_Node000012"><a xlink:href="class_o_c_a_1_1_c_a_f_e_v_d_b_1_1_exceptions_1_1_database_migration_exception.html" target="_top" xlink:title="Thrown during database migrations.">
<polygon fill="white" stroke="#666666" points="575.12,-538 433.88,-538 433.88,-518 575.12,-518 575.12,-538"/>
<text text-anchor="middle" x="504.5" y="-524.5" font-family="Helvetica,sans-Serif" font-size="10.00">DatabaseMigrationException</text>
</a>
</g>
</g>
<!-- Node6&#45;&gt;Node12 -->
<g id="edge11_Node000006_Node000012" class="edge">
<title>Node6&#45;&gt;Node12</title>
<g id="a_edge11_Node000006_Node000012"><a xlink:title=" ">
<path fill="none" stroke="#63b8ff" d="M359.13,-541.34C382.6,-539.17 409.55,-536.68 433.76,-534.44"/>
<polygon fill="#63b8ff" stroke="#63b8ff" points="359.06,-537.83 349.42,-542.24 359.7,-544.8 359.06,-537.83"/>
</a>
</g>
</g>
<!-- Node13 -->
<g id="Node000013" class="node">
<title>Node13</title>
<g id="a_Node000013"><a xlink:href="class_o_c_a_1_1_c_a_f_e_v_d_b_1_1_exceptions_1_1_database_readonly_exception.html" target="_top" xlink:title="Thrown when trying to mute data which should not be muted.">
<polygon fill="white" stroke="#666666" points="575.88,-500 433.12,-500 433.12,-480 575.88,-480 575.88,-500"/>
<text text-anchor="middle" x="504.5" y="-486.5" font-family="Helvetica,sans-Serif" font-size="10.00">DatabaseReadonlyException</text>
</a>
</g>
</g>
<!-- Node6&#45;&gt;Node13 -->
<g id="edge12_Node000006_Node000013" class="edge">
<title>Node6&#45;&gt;Node13</title>
<g id="a_edge12_Node000006_Node000013"><a xlink:title=" ">
<path fill="none" stroke="#63b8ff" d="M338.96,-532.98C361.98,-525.38 391.3,-516.11 417.75,-509 429.09,-505.95 441.36,-503.02 452.99,-500.41"/>
<polygon fill="#63b8ff" stroke="#63b8ff" points="338.02,-529.6 329.64,-536.08 340.23,-536.25 338.02,-529.6"/>
</a>
</g>
</g>
<!-- Node14 -->
<g id="Node000014" class="node">
<title>Node14</title>
<g id="a_Node000014"><a xlink:href="class_o_c_a_1_1_c_a_f_e_v_d_b_1_1_exceptions_1_1_database_transaction_not_active_exception.html" target="_top" xlink:title="Thrown when trying to fiddle with an active transaction but there is none.">
<polygon fill="white" stroke="#666666" points="580.75,-462 428.25,-462 428.25,-430 580.75,-430 580.75,-462"/>
<text text-anchor="start" x="436.25" y="-448.5" font-family="Helvetica,sans-Serif" font-size="10.00">DatabaseTransactionNotActive</text>
<text text-anchor="middle" x="504.5" y="-436.5" font-family="Helvetica,sans-Serif" font-size="10.00">Exception</text>
</a>
</g>
</g>
<!-- Node6&#45;&gt;Node14 -->
<g id="edge13_Node000006_Node000014" class="edge">
<title>Node6&#45;&gt;Node14</title>
<g id="a_edge13_Node000006_Node000014"><a xlink:title=" ">
<path fill="none" stroke="#63b8ff" d="M320.59,-529.84C343.92,-512.9 381.79,-487.25 417.75,-471 424.67,-467.87 432.09,-465.02 439.55,-462.47"/>
<polygon fill="#63b8ff" stroke="#63b8ff" points="318.73,-526.87 312.75,-535.62 322.88,-532.5 318.73,-526.87"/>
</a>
</g>
</g>
<!-- Node17 -->
<g id="Node000017" class="node">
<title>Node17</title>
<g id="a_Node000017"><a xlink:href="class_o_c_a_1_1_c_a_f_e_v_d_b_1_1_exceptions_1_1_cannot_decrypt_exception.html" target="_top" xlink:title=" ">
<polygon fill="white" stroke="#666666" points="567.25,-412 441.75,-412 441.75,-392 567.25,-392 567.25,-412"/>
<text text-anchor="middle" x="504.5" y="-398.5" font-family="Helvetica,sans-Serif" font-size="10.00">CannotDecryptException</text>
</a>
</g>
</g>
<!-- Node16&#45;&gt;Node17 -->
<g id="edge16_Node000016_Node000017" class="edge">
<title>Node16&#45;&gt;Node17</title>
<g id="a_edge16_Node000016_Node000017"><a xlink:title=" ">
<path fill="none" stroke="#63b8ff" d="M361,-309.21C368.42,-311.89 375.54,-315.4 381.75,-320 407.67,-339.19 391.78,-363.87 417.75,-383 424.75,-388.15 432.88,-391.96 441.3,-394.75"/>
<polygon fill="#63b8ff" stroke="#63b8ff" points="362.03,-305.86 351.44,-306.29 359.98,-312.56 362.03,-305.86"/>
</a>
</g>
</g>
<!-- Node18 -->
<g id="Node000018" class="node">
<title>Node18</title>
<g id="a_Node000018"><a xlink:href="class_o_c_a_1_1_c_a_f_e_v_d_b_1_1_exceptions_1_1_cannot_encrypt_exception.html" target="_top" xlink:title=" ">
<polygon fill="white" stroke="#666666" points="566.88,-374 442.12,-374 442.12,-354 566.88,-354 566.88,-374"/>
<text text-anchor="middle" x="504.5" y="-360.5" font-family="Helvetica,sans-Serif" font-size="10.00">CannotEncryptException</text>
</a>
</g>
</g>
<!-- Node16&#45;&gt;Node18 -->
<g id="edge17_Node000016_Node000018" class="edge">
<title>Node16&#45;&gt;Node18</title>
<g id="a_edge17_Node000016_Node000018"><a xlink:title=" ">
<path fill="none" stroke="#63b8ff" d="M361.35,-312.62C368.36,-314.72 375.29,-317.16 381.75,-320 399.58,-327.85 399.9,-337.19 417.75,-345 425.57,-348.42 434.08,-351.26 442.59,-353.6"/>
<polygon fill="#63b8ff" stroke="#63b8ff" points="362.36,-309.27 351.79,-310.02 360.52,-316.03 362.36,-309.27"/>
</a>
</g>
</g>
<!-- Node19 -->
<g id="Node000019" class="node">
<title>Node19</title>
<g id="a_Node000019"><a xlink:href="class_o_c_a_1_1_c_a_f_e_v_d_b_1_1_exceptions_1_1_decryption_failed_exception.html" target="_top" xlink:title=" ">
<polygon fill="white" stroke="#666666" points="571,-336 438,-336 438,-316 571,-316 571,-336"/>
<text text-anchor="middle" x="504.5" y="-322.5" font-family="Helvetica,sans-Serif" font-size="10.00">DecryptionFailedException</text>
</a>
</g>
</g>
<!-- Node16&#45;&gt;Node19 -->
<g id="edge18_Node000016_Node000019" class="edge">
<title>Node16&#45;&gt;Node19</title>
<g id="a_edge18_Node000016_Node000019"><a xlink:title=" ">
<path fill="none" stroke="#63b8ff" d="M361.49,-308.73C385.63,-311.67 413.17,-315.02 437.53,-317.98"/>
<polygon fill="#63b8ff" stroke="#63b8ff" points="362.15,-305.29 351.8,-307.56 361.3,-312.24 362.15,-305.29"/>
</a>
</g>
</g>
<!-- Node20 -->
<g id="Node000020" class="node">
<title>Node20</title>
<g id="a_Node000020"><a xlink:href="class_o_c_a_1_1_c_a_f_e_v_d_b_1_1_exceptions_1_1_encryption_failed_exception.html" target="_top" xlink:title=" ">
<polygon fill="white" stroke="#666666" points="570.62,-298 438.38,-298 438.38,-278 570.62,-278 570.62,-298"/>
<text text-anchor="middle" x="504.5" y="-284.5" font-family="Helvetica,sans-Serif" font-size="10.00">EncryptionFailedException</text>
</a>
</g>
</g>
<!-- Node16&#45;&gt;Node20 -->
<g id="edge19_Node000016_Node000020" class="edge">
<title>Node16&#45;&gt;Node20</title>
<g id="a_edge19_Node000016_Node000020"><a xlink:title=" ">
<path fill="none" stroke="#63b8ff" d="M361.54,-296.98C385.8,-295.44 413.47,-293.69 437.91,-292.15"/>
<polygon fill="#63b8ff" stroke="#63b8ff" points="361.56,-293.47 351.81,-297.59 362.01,-300.45 361.56,-293.47"/>
</a>
</g>
</g>
<!-- Node21 -->
<g id="Node000021" class="node">
<title>Node21</title>
<g id="a_Node000021"><a xlink:href="class_o_c_a_1_1_c_a_f_e_v_d_b_1_1_exceptions_1_1_encryption_key_exception.html" target="_top" xlink:title=" ">
<polygon fill="white" stroke="#666666" points="566.12,-260 442.88,-260 442.88,-240 566.12,-240 566.12,-260"/>
<text text-anchor="middle" x="504.5" y="-246.5" font-family="Helvetica,sans-Serif" font-size="10.00">EncryptionKeyException</text>
</a>
</g>
</g>
<!-- Node16&#45;&gt;Node21 -->
<g id="edge20_Node000016_Node000021" class="edge">
<title>Node16&#45;&gt;Node21</title>
<g id="a_edge20_Node000016_Node000021"><a xlink:title=" ">
<path fill="none" stroke="#63b8ff" d="M359.87,-287.87C367.28,-286.03 374.71,-284.06 381.75,-282 398.08,-277.22 401.41,-273.74 417.75,-269 428.44,-265.9 440.01,-263.02 451.08,-260.49"/>
<polygon fill="#63b8ff" stroke="#63b8ff" points="359.08,-284.46 350.17,-290.2 360.71,-291.27 359.08,-284.46"/>
</a>
</g>
</g>
<!-- Node22 -->
<g id="Node000022" class="node">
<title>Node22</title>
<g id="a_Node000022"><a xlink:href="class_o_c_a_1_1_c_a_f_e_v_d_b_1_1_exceptions_1_1_recryption_failed_exception.html" target="_top" xlink:title=" ">
<polygon fill="white" stroke="#666666" points="571,-222 438,-222 438,-202 571,-202 571,-222"/>
<text text-anchor="middle" x="504.5" y="-208.5" font-family="Helvetica,sans-Serif" font-size="10.00">RecryptionFailedException</text>
</a>
</g>
</g>
<!-- Node16&#45;&gt;Node22 -->
<g id="edge21_Node000016_Node000022" class="edge">
<title>Node16&#45;&gt;Node22</title>
<g id="a_edge21_Node000016_Node000022"><a xlink:title=" ">
<path fill="none" stroke="#63b8ff" d="M360.89,-292.11C368.27,-289.54 375.41,-286.24 381.75,-282 404.81,-266.58 394.65,-246.37 417.75,-231 423.84,-226.95 430.67,-223.74 437.73,-221.22"/>
<polygon fill="#63b8ff" stroke="#63b8ff" points="360,-288.73 351.42,-294.95 362.01,-295.43 360,-288.73"/>
</a>
</g>
</g>
<!-- Node23 -->
<g id="Node000023" class="node">
<title>Node23</title>
<g id="a_Node000023"><a xlink:href="class_o_c_a_1_1_c_a_f_e_v_d_b_1_1_exceptions_1_1_recryption_request_not_found_exception.html" target="_top" xlink:title=" ">
<polygon fill="white" stroke="#666666" points="575.88,-184 433.12,-184 433.12,-152 575.88,-152 575.88,-184"/>
<text text-anchor="start" x="441.12" y="-170.5" font-family="Helvetica,sans-Serif" font-size="10.00">RecryptionRequestNotFound</text>
<text text-anchor="middle" x="504.5" y="-158.5" font-family="Helvetica,sans-Serif" font-size="10.00">Exception</text>
</a>
</g>
</g>
<!-- Node16&#45;&gt;Node23 -->
<g id="edge22_Node000016_Node000023" class="edge">
<title>Node16&#45;&gt;Node23</title>
<g id="a_edge22_Node000016_Node000023"><a xlink:title=" ">
<path fill="none" stroke="#63b8ff" d="M361.07,-293.78C368.59,-290.95 375.72,-287.13 381.75,-282 414.26,-254.36 386.1,-221.61 417.75,-193 422.24,-188.94 427.35,-185.54 432.78,-182.69"/>
<polygon fill="#63b8ff" stroke="#63b8ff" points="360.21,-290.38 351.71,-296.71 362.3,-297.06 360.21,-290.38"/>
</a>
</g>
</g>
<!-- Node28 -->
<g id="Node000028" class="node">
<title>Node28</title>
<g id="a_Node000028"><a xlink:href="class_o_c_a_1_1_c_a_f_e_v_d_b_1_1_exceptions_1_1_session_still_open_exception.html" target="_top" xlink:title=" ">
<polygon fill="white" stroke="#666666" points="571.75,-134 437.25,-134 437.25,-114 571.75,-114 571.75,-134"/>
<text text-anchor="middle" x="504.5" y="-120.5" font-family="Helvetica,sans-Serif" font-size="10.00">SessionStillOpenException</text>
</a>
</g>
</g>
<!-- Node27&#45;&gt;Node28 -->
<g id="edge27_Node000027_Node000028" class="edge">
<title>Node27&#45;&gt;Node28</title>
<g id="a_edge27_Node000027_Node000028"><a xlink:title=" ">
<path fill="none" stroke="#63b8ff" d="M364.42,-140.91C387.68,-138.08 413.79,-134.91 437.05,-132.08"/>
<polygon fill="#63b8ff" stroke="#63b8ff" points="364.26,-137.4 354.75,-142.08 365.1,-144.35 364.26,-137.4"/>
</a>
</g>
</g>
<!-- Node31 -->
<g id="Node000031" class="node">
<title>Node31</title>
<g id="a_Node000031"><a xlink:href="class_o_c_a_1_1_c_a_f_e_v_d_b_1_1_exceptions_1_1_sanitizer_failed_exception.html" target="_top" xlink:title="Exception thrown if the respective sanitizer operation is not implemented.">
<polygon fill="white" stroke="#666666" points="566.5,-96 442.5,-96 442.5,-76 566.5,-76 566.5,-96"/>
<text text-anchor="middle" x="504.5" y="-82.5" font-family="Helvetica,sans-Serif" font-size="10.00">SanitizerFailedException</text>
</a>
</g>
</g>
<!-- Node30&#45;&gt;Node31 -->
<g id="edge30_Node000030_Node000031" class="edge">
<title>Node30&#45;&gt;Node31</title>
<g id="a_edge30_Node000030_Node000031"><a xlink:title=" ">
<path fill="none" stroke="#63b8ff" d="M357.56,-76.77C384.18,-78.46 415.51,-80.44 442.31,-82.13"/>
<polygon fill="#63b8ff" stroke="#63b8ff" points="357.8,-73.28 347.6,-76.14 357.35,-80.27 357.8,-73.28"/>
</a>
</g>
</g>
<!-- Node32 -->
<g id="Node000032" class="node">
<title>Node32</title>
<g id="a_Node000032"><a xlink:href="class_o_c_a_1_1_c_a_f_e_v_d_b_1_1_exceptions_1_1_sanitizer_not_implemented_exception.html" target="_top" xlink:title="Exception thrown if the respective sanitizer operation is not implemented.">
<polygon fill="white" stroke="#666666" points="589.38,-58 419.62,-58 419.62,-38 589.38,-38 589.38,-58"/>
<text text-anchor="middle" x="504.5" y="-44.5" font-family="Helvetica,sans-Serif" font-size="10.00">SanitizerNotImplementedException</text>
</a>
</g>
</g>
<!-- Node30&#45;&gt;Node32 -->
<g id="edge31_Node000030_Node000032" class="edge">
<title>Node30&#45;&gt;Node32</title>
<g id="a_edge31_Node000030_Node000032"><a xlink:title=" ">
<path fill="none" stroke="#63b8ff" d="M357.45,-65.76C376.78,-63.41 398.59,-60.75 419.35,-58.23"/>
<polygon fill="#63b8ff" stroke="#63b8ff" points="357.09,-62.27 347.59,-66.96 357.94,-69.22 357.09,-62.27"/>
</a>
</g>
</g>
<!-- Node33 -->
<g id="Node000033" class="node">
<title>Node33</title>
<g id="a_Node000033"><a xlink:href="class_o_c_a_1_1_c_a_f_e_v_d_b_1_1_exceptions_1_1_sanitizer_not_needed_exception.html" target="_top" xlink:title="Exception thrown if the respective sanitizer operation is not implemented.">
<polygon fill="white" stroke="#666666" points="578.12,-20 430.88,-20 430.88,0 578.12,0 578.12,-20"/>
<text text-anchor="middle" x="504.5" y="-6.5" font-family="Helvetica,sans-Serif" font-size="10.00">SanitizerNotNeededException</text>
</a>
</g>
</g>
<!-- Node30&#45;&gt;Node33 -->
<g id="edge32_Node000030_Node000033" class="edge">
<title>Node30&#45;&gt;Node33</title>
<g id="a_edge32_Node000030_Node000033"><a xlink:title=" ">
<path fill="none" stroke="#63b8ff" d="M357,-62.63C365.48,-60.28 373.96,-57.43 381.75,-54 399.58,-46.15 399.9,-36.81 417.75,-29 425.57,-25.58 434.08,-22.74 442.59,-20.4"/>
<polygon fill="#63b8ff" stroke="#63b8ff" points="356.22,-59.21 347.38,-65.07 357.94,-66 356.22,-59.21"/>
</a>
</g>
</g>
</g>
</svg>

<g id="navigator" transform="translate(0 0)" fill="#404254">
  <rect fill="#f2f5e9" fill-opacity="0.5" stroke="#606060" stroke-width=".5" x="0" y="0" width="60" height="60"/>
  <use id="zoomplus" xlink:href="#zoomPlus" x="17" y="9" onmousedown="handleZoom(evt,'in')"/>
  <use id="zoomminus" xlink:href="#zoomMin" x="42" y="9" onmousedown="handleZoom(evt,'out')"/>
  <use id="reset" xlink:href="#resetDef" x="30" y="36" onmousedown="handleReset()"/>
   <use id="arrowup" xlink:href="#arrowUp" x="0" y="0" onmousedown="handlePan(0,-1)"/>
  <use id="arrowright" xlink:href="#arrowRight" x="0" y="0" onmousedown="handlePan(1,0)"/>
  <use id="arrowdown" xlink:href="#arrowDown" x="0" y="0" onmousedown="handlePan(0,1)"/>
  <use id="arrowleft" xlink:href="#arrowLeft" x="0" y="0" onmousedown="handlePan(-1,0)"/>
</g>
<svg viewBox="0 0 15 15" width="100%" height="30px" preserveAspectRatio="xMaxYMin meet">
 <g id="arrow_out" transform="scale(0.3 0.3)">
  <a xlink:href="class_o_c_a_1_1_c_a_f_e_v_d_b_1_1_exceptions_1_1_exception__inherit__graph_org.svg" target="_base">
   <rect id="button" ry="5" rx="5" y="6" x="6" height="38" width="38"
        fill="#f2f5e9" fill-opacity="0.5" stroke="#606060" stroke-width="1.0"/>
   <path id="arrow"
     d="M 11.500037,31.436501 C 11.940474,20.09759 22.043105,11.32322 32.158766,21.979434 L 37.068811,17.246167 C 37.068811,17.246167 37.088388,32 37.088388,32 L 22.160133,31.978069 C 22.160133,31.978069 26.997745,27.140456 26.997745,27.140456 C 18.528582,18.264221 13.291696,25.230495 11.500037,31.436501 z"
     style="fill:#404040;"/>
  </a>
 </g>
</svg>

<style type='text/css'>
<![CDATA[
[data-mouse-over-selected='false'] { opacity: 0.7; }
[data-mouse-over-selected='true']  { opacity: 1.0; }
]]>
</style>
<script type="application/ecmascript"><![CDATA[
document.addEventListener('DOMContentLoaded', (event) => {
  highlightEdges();
  highlightAdjacentNodes();
});
]]></script>
</svg>
