<?xml version="1.0" encoding="UTF-8" standalone="no"?>
<!DOCTYPE svg PUBLIC "-//W3C//DTD SVG 1.1//EN"
 "http://www.w3.org/Graphics/SVG/1.1/DTD/svg11.dtd">
<!-- Generated by graphviz version 9.0.0 (20230911.1827)
 -->
<!-- Title: DoNothingReceivablesGenerator Pages: 1 -->
<svg width="167pt" height="140pt"
 viewBox="0.00 0.00 167.25 140.00" xmlns="http://www.w3.org/2000/svg" xmlns:xlink="http://www.w3.org/1999/xlink">
<g id="graph0" class="graph" transform="scale(1 1) rotate(0) translate(4 136)">
<title>DoNothingReceivablesGenerator</title>
<!-- Node1 -->
<g id="Node000001" class="node">
<title>Node1</title>
<g id="a_Node000001"><a xlink:title="Do nothing implementation to have something implementing the interface.">
<polygon fill="#999999" stroke="#666666" points="159.25,-20 0,-20 0,0 159.25,0 159.25,-20"/>
<text text-anchor="middle" x="79.62" y="-6.5" font-family="Helvetica,sans-Serif" font-size="10.00">DoNothingReceivablesGenerator</text>
</a>
</g>
</g>
<!-- Node2 -->
<g id="Node000002" class="node">
<title>Node2</title>
<g id="a_Node000002"><a xlink:href="class_o_c_a_1_1_c_a_f_e_v_d_b_1_1_service_1_1_finance_1_1_abstract_receivables_generator.html" target="_top" xlink:title="Base class for the specific receivable generators.">
<polygon fill="white" stroke="#666666" points="154.38,-76 4.88,-76 4.88,-56 154.38,-56 154.38,-76"/>
<text text-anchor="middle" x="79.62" y="-62.5" font-family="Helvetica,sans-Serif" font-size="10.00">AbstractReceivablesGenerator</text>
</a>
</g>
</g>
<!-- Node2&#45;&gt;Node1 -->
<g id="edge1_Node000001_Node000002" class="edge">
<title>Node2&#45;&gt;Node1</title>
<g id="a_edge1_Node000001_Node000002"><a xlink:title=" ">
<path fill="none" stroke="#63b8ff" d="M79.62,-44.13C79.62,-35.9 79.62,-26.85 79.62,-20.3"/>
<polygon fill="#63b8ff" stroke="#63b8ff" points="76.13,-44.08 79.63,-54.08 83.13,-44.08 76.13,-44.08"/>
</a>
</g>
</g>
<!-- Node3 -->
<g id="Node000003" class="node">
<title>Node3</title>
<g id="a_Node000003"><a xlink:href="interface_o_c_a_1_1_c_a_f_e_v_d_b_1_1_service_1_1_finance_1_1_i_recurring_receivables_generator.html" target="_top" xlink:title="Generate recurring receivables and manifest them as recurring Entities\ProjectParticipantField entity...">
<polygon fill="white" stroke="#666666" points="158.5,-132 0.75,-132 0.75,-112 158.5,-112 158.5,-132"/>
<text text-anchor="middle" x="79.62" y="-118.5" font-family="Helvetica,sans-Serif" font-size="10.00">IRecurringReceivablesGenerator</text>
</a>
</g>
</g>
<!-- Node3&#45;&gt;Node2 -->
<g id="edge2_Node000002_Node000003" class="edge">
<title>Node3&#45;&gt;Node2</title>
<g id="a_edge2_Node000002_Node000003"><a xlink:title=" ">
<path fill="none" stroke="#63b8ff" d="M79.62,-100.13C79.62,-91.9 79.62,-82.85 79.62,-76.3"/>
<polygon fill="#63b8ff" stroke="#63b8ff" points="76.13,-100.08 79.63,-110.08 83.13,-100.08 76.13,-100.08"/>
</a>
</g>
</g>
</g>
</svg>
