<?xml version="1.0" encoding="UTF-8" standalone="no"?>
<!DOCTYPE svg PUBLIC "-//W3C//DTD SVG 1.1//EN"
 "http://www.w3.org/Graphics/SVG/1.1/DTD/svg11.dtd">
<!-- Generated by graphviz version 8.0.3 (20230416.2022)
 -->
<!-- Title: setParent Pages: 1 -->
<svg width="237pt" height="206pt"
 viewBox="0.00 0.00 237.00 205.50" xmlns="http://www.w3.org/2000/svg" xmlns:xlink="http://www.w3.org/1999/xlink">
<g id="graph0" class="graph" transform="scale(1 1) rotate(0) translate(4 201.5)">
<title>setParent</title>
<!-- Node1 -->
<g id="node1" class="node">
<title>Node1</title>
<g id="a_node1"><a xlink:title=" ">
<polygon fill="#999999" stroke="#666666" points="229,-100 170,-100 170,-81 229,-81 229,-100"/>
<text text-anchor="middle" x="199.5" y="-88" font-family="Helvetica,sans-Serif" font-size="10.00">setParent</text>
</a>
</g>
</g>
<!-- Node2 -->
<g id="node2" class="node">
<title>Node2</title>
<g id="a_node2"><a xlink:href="class_o_c_a_1_1_c_a_f_e_v_d_b_1_1_database_1_1_doctrine_1_1_o_r_m_1_1_entities_1_1_database_storage_folder.html#a824c4176aac63e1daae7d63a8b0cb82b" target="_top" xlink:title=" ">
<polygon fill="white" stroke="#666666" points="134,-197.5 0,-197.5 0,-145.5 134,-145.5 134,-197.5"/>
<text text-anchor="start" x="8" y="-185.5" font-family="Helvetica,sans-Serif" font-size="10.00">OCA\CAFEVDB\Database</text>
<text text-anchor="start" x="8" y="-174.5" font-family="Helvetica,sans-Serif" font-size="10.00">\Doctrine\ORM\Entities</text>
<text text-anchor="start" x="8" y="-163.5" font-family="Helvetica,sans-Serif" font-size="10.00">\DatabaseStorageFolder</text>
<text text-anchor="middle" x="67" y="-152.5" font-family="Helvetica,sans-Serif" font-size="10.00">\addDirEntry</text>
</a>
</g>
</g>
<!-- Node1&#45;&gt;Node2 -->
<g id="edge1" class="edge">
<title>Node1&#45;&gt;Node2</title>
<path fill="none" stroke="#63b8ff" d="M177.34,-106.67C164.97,-115.83 148.92,-127.28 134,-136.5 129.37,-139.36 124.48,-142.23 119.54,-145.02"/>
<polygon fill="#63b8ff" stroke="#63b8ff" points="179.09,-108.98 184.99,-100.17 174.89,-103.38 179.09,-108.98"/>
</g>
<!-- Node3 -->
<g id="node3" class="node">
<title>Node3</title>
<g id="a_node3"><a xlink:href="class_o_c_a_1_1_c_a_f_e_v_d_b_1_1_database_1_1_doctrine_1_1_o_r_m_1_1_entities_1_1_database_storage_dir_entry.html#ab79889c49c31ee9bc3345f756565f816" target="_top" xlink:title=" ">
<polygon fill="white" stroke="#666666" points="83,-127 51,-127 51,-108 83,-108 83,-127"/>
<text text-anchor="middle" x="67" y="-115" font-family="Helvetica,sans-Serif" font-size="10.00">link</text>
</a>
</g>
</g>
<!-- Node1&#45;&gt;Node3 -->
<g id="edge2" class="edge">
<title>Node1&#45;&gt;Node3</title>
<path fill="none" stroke="#63b8ff" d="M159.07,-98.66C133.63,-103.92 101.95,-110.48 83.45,-114.3"/>
<polygon fill="#63b8ff" stroke="#63b8ff" points="159.45,-101.95 168.54,-96.49 158.04,-95.09 159.45,-101.95"/>
</g>
<!-- Node4 -->
<g id="node4" class="node">
<title>Node4</title>
<g id="a_node4"><a xlink:href="class_o_c_a_1_1_c_a_f_e_v_d_b_1_1_database_1_1_doctrine_1_1_o_r_m_1_1_entities_1_1_database_storage_folder.html#ac4eb5416f086e08a8eae0fb54d943809" target="_top" xlink:title=" ">
<polygon fill="white" stroke="#666666" points="134,-89.5 0,-89.5 0,-37.5 134,-37.5 134,-89.5"/>
<text text-anchor="start" x="8" y="-77.5" font-family="Helvetica,sans-Serif" font-size="10.00">OCA\CAFEVDB\Database</text>
<text text-anchor="start" x="8" y="-66.5" font-family="Helvetica,sans-Serif" font-size="10.00">\Doctrine\ORM\Entities</text>
<text text-anchor="start" x="8" y="-55.5" font-family="Helvetica,sans-Serif" font-size="10.00">\DatabaseStorageFolder</text>
<text text-anchor="middle" x="67" y="-44.5" font-family="Helvetica,sans-Serif" font-size="10.00">\removeDirEntry</text>
</a>
</g>
</g>
<!-- Node1&#45;&gt;Node4 -->
<g id="edge3" class="edge">
<title>Node1&#45;&gt;Node4</title>
<path fill="none" stroke="#63b8ff" d="M158.93,-82.31C151.1,-80.69 142.7,-78.95 134.27,-77.21"/>
<polygon fill="#63b8ff" stroke="#63b8ff" points="158.04,-85.91 168.54,-84.51 159.45,-79.05 158.04,-85.91"/>
</g>
<!-- Node5 -->
<g id="node5" class="node">
<title>Node5</title>
<g id="a_node5"><a xlink:href="class_o_c_a_1_1_c_a_f_e_v_d_b_1_1_database_1_1_doctrine_1_1_o_r_m_1_1_entities_1_1_database_storage_dir_entry.html#a1d8b1d5cdd8e5d8fdb068f543b84af27" target="_top" xlink:title=" ">
<polygon fill="white" stroke="#666666" points="88,-19 46,-19 46,0 88,0 88,-19"/>
<text text-anchor="middle" x="67" y="-7" font-family="Helvetica,sans-Serif" font-size="10.00">unlink</text>
</a>
</g>
</g>
<!-- Node1&#45;&gt;Node5 -->
<g id="edge4" class="edge">
<title>Node1&#45;&gt;Node5</title>
<path fill="none" stroke="#63b8ff" d="M183.89,-72.27C171.87,-58.4 153.65,-39.83 134,-28.5 119.85,-20.34 101.94,-15.47 88.35,-12.71"/>
<polygon fill="#63b8ff" stroke="#63b8ff" points="181.75,-74.17 190.86,-79.59 187.12,-69.67 181.75,-74.17"/>
</g>
</g>
</svg>
