<?xml version="1.0" encoding="UTF-8" standalone="no"?>
<!DOCTYPE svg PUBLIC "-//W3C//DTD SVG 1.1//EN"
 "http://www.w3.org/Graphics/SVG/1.1/DTD/svg11.dtd">
<!-- Generated by graphviz version 9.0.0 (20230911.1827)
 -->
<!-- Title: getGroup Pages: 1 -->
<svg width="419pt" height="66pt"
 viewBox="0.00 0.00 419.25 66.00" xmlns="http://www.w3.org/2000/svg" xmlns:xlink="http://www.w3.org/1999/xlink">
<g id="graph0" class="graph" transform="scale(1 1) rotate(0) translate(4 62)">
<title>getGroup</title>
<!-- Node1 -->
<g id="Node000001" class="node">
<title>Node1</title>
<g id="a_Node000001"><a xlink:title=" ">
<polygon fill="#999999" stroke="#666666" points="55.75,-39 0,-39 0,-19 55.75,-19 55.75,-39"/>
<text text-anchor="middle" x="27.88" y="-25.5" font-family="Helvetica,sans-Serif" font-size="10.00">getGroup</text>
</a>
</g>
</g>
<!-- Node2 -->
<g id="Node000002" class="node">
<title>Node2</title>
<g id="a_Node000002"><a xlink:href="class_o_c_a_1_1_c_a_f_e_v_d_b_1_1_service_1_1_config_service.html#a80ff7d4e6101b55bc46ce120b838b98d" target="_top" xlink:title=" ">
<polygon fill="white" stroke="#666666" points="170.38,-58 106.38,-58 106.38,-38 170.38,-38 170.38,-58"/>
<text text-anchor="middle" x="138.38" y="-44.5" font-family="Helvetica,sans-Serif" font-size="10.00">getGroupId</text>
</a>
</g>
</g>
<!-- Node1&#45;&gt;Node2 -->
<g id="edge1_Node000001_Node000002" class="edge">
<title>Node1&#45;&gt;Node2</title>
<g id="a_edge1_Node000001_Node000002"><a xlink:title=" ">
<path fill="none" stroke="#63b8ff" d="M55.97,-33.75C67.72,-35.8 81.76,-38.26 94.84,-40.55"/>
<polygon fill="#63b8ff" stroke="#63b8ff" points="94.07,-43.97 104.52,-42.25 95.27,-37.07 94.07,-43.97"/>
</a>
</g>
</g>
<!-- Node5 -->
<g id="Node000005" class="node">
<title>Node5</title>
<g id="a_Node000005"><a xlink:href="class_o_c_a_1_1_c_a_f_e_v_d_b_1_1_service_1_1_config_service.html#ae2621cc27b1048071816b69caf9b945a" target="_top" xlink:title=" ">
<polygon fill="white" stroke="#666666" points="185,-20 91.75,-20 91.75,0 185,0 185,-20"/>
<text text-anchor="middle" x="138.38" y="-6.5" font-family="Helvetica,sans-Serif" font-size="10.00">getGroupManager</text>
</a>
</g>
</g>
<!-- Node1&#45;&gt;Node5 -->
<g id="edge4_Node000001_Node000005" class="edge">
<title>Node1&#45;&gt;Node5</title>
<g id="a_edge4_Node000001_Node000005"><a xlink:title=" ">
<path fill="none" stroke="#63b8ff" d="M55.97,-24.25C63.48,-22.94 71.92,-21.46 80.45,-19.97"/>
<polygon fill="#63b8ff" stroke="#63b8ff" points="80.91,-23.44 90.15,-18.27 79.7,-16.55 80.91,-23.44"/>
</a>
</g>
</g>
<!-- Node3 -->
<g id="Node000003" class="node">
<title>Node3</title>
<g id="a_Node000003"><a xlink:href="class_o_c_a_1_1_c_a_f_e_v_d_b_1_1_service_1_1_config_service.html#a6c2a8487a2ff84a0fa4530de4d61d83b" target="_top" xlink:title="A short&#45;cut, redirecting to the stock functions for the app.">
<polygon fill="white" stroke="#666666" points="291.75,-58 221,-58 221,-38 291.75,-38 291.75,-58"/>
<text text-anchor="middle" x="256.38" y="-44.5" font-family="Helvetica,sans-Serif" font-size="10.00">getAppValue</text>
</a>
</g>
</g>
<!-- Node2&#45;&gt;Node3 -->
<g id="edge2_Node000002_Node000003" class="edge">
<title>Node2&#45;&gt;Node3</title>
<g id="a_edge2_Node000002_Node000003"><a xlink:title=" ">
<path fill="none" stroke="#63b8ff" d="M170.77,-48C182.7,-48 196.56,-48 209.56,-48"/>
<polygon fill="#63b8ff" stroke="#63b8ff" points="209.18,-51.5 219.18,-48 209.18,-44.5 209.18,-51.5"/>
</a>
</g>
</g>
<!-- Node4 -->
<g id="Node000004" class="node">
<title>Node4</title>
<g id="a_Node000004"><a xlink:href="class_o_c_a_1_1_c_a_f_e_v_d_b_1_1_service_1_1_config_service.html#a3c0a8ca944cfd5a62a77b1c2cc2b49a8" target="_top" xlink:title=" ">
<polygon fill="white" stroke="#666666" points="411.25,-58 327.75,-58 327.75,-38 411.25,-38 411.25,-58"/>
<text text-anchor="middle" x="369.5" y="-44.5" font-family="Helvetica,sans-Serif" font-size="10.00">getCloudConfig</text>
</a>
</g>
</g>
<!-- Node3&#45;&gt;Node4 -->
<g id="edge3_Node000003_Node000004" class="edge">
<title>Node3&#45;&gt;Node4</title>
<g id="a_edge3_Node000003_Node000004"><a xlink:title=" ">
<path fill="none" stroke="#63b8ff" d="M292.23,-48C299.85,-48 308.06,-48 316.19,-48"/>
<polygon fill="#63b8ff" stroke="#63b8ff" points="316.03,-51.5 326.03,-48 316.03,-44.5 316.03,-51.5"/>
</a>
</g>
</g>
</g>
</svg>
