<?xml version="1.0" encoding="UTF-8" standalone="no"?>
<!DOCTYPE svg PUBLIC "-//W3C//DTD SVG 1.1//EN"
 "http://www.w3.org/Graphics/SVG/1.1/DTD/svg11.dtd">
<!-- Generated by graphviz version 9.0.0 (20230911.1827)
 -->
<!-- Title: DatabaseException Pages: 1 -->
<svg width="531pt" height="330pt"
 viewBox="0.00 0.00 531.00 330.00" xmlns="http://www.w3.org/2000/svg" xmlns:xlink="http://www.w3.org/1999/xlink">
<g id="graph0" class="graph" transform="scale(1 1) rotate(0) translate(4 326)">
<title>DatabaseException</title>
<!-- Node1 -->
<g id="Node000001" class="node">
<title>Node1</title>
<g id="a_Node000001"><a xlink:title="Base&#45;class for database exceptions.">
<polygon fill="#999999" stroke="#666666" points="313.5,-168 212,-168 212,-148 313.5,-148 313.5,-168"/>
<text text-anchor="middle" x="262.75" y="-154.5" font-family="Helvetica,sans-Serif" font-size="10.00">DatabaseException</text>
</a>
</g>
</g>
<!-- Node4 -->
<g id="Node000004" class="node">
<title>Node4</title>
<g id="a_Node000004"><a xlink:href="class_o_c_a_1_1_c_a_f_e_v_d_b_1_1_exceptions_1_1_database_cloud_connector_view_exception.html" target="_top" xlink:title="Thrown during generation of the cloud&#45;user connector views.">
<polygon fill="white" stroke="#666666" points="511.38,-322 361.12,-322 361.12,-290 511.38,-290 511.38,-322"/>
<text text-anchor="start" x="369.12" y="-308.5" font-family="Helvetica,sans-Serif" font-size="10.00">DatabaseCloudConnectorView</text>
<text text-anchor="middle" x="436.25" y="-296.5" font-family="Helvetica,sans-Serif" font-size="10.00">Exception</text>
</a>
</g>
</g>
<!-- Node1&#45;&gt;Node4 -->
<g id="edge3_Node000001_Node000004" class="edge">
<title>Node1&#45;&gt;Node4</title>
<g id="a_edge3_Node000001_Node000004"><a xlink:title=" ">
<path fill="none" stroke="#63b8ff" d="M272.76,-178.76C285.75,-206.23 312.31,-254.29 349.5,-281 354.03,-284.26 358.99,-287.09 364.16,-289.56"/>
<polygon fill="#63b8ff" stroke="#63b8ff" points="275.99,-177.4 268.67,-169.74 269.62,-180.3 275.99,-177.4"/>
</a>
</g>
</g>
<!-- Node5 -->
<g id="Node000005" class="node">
<title>Node5</title>
<g id="a_Node000005"><a xlink:href="class_o_c_a_1_1_c_a_f_e_v_d_b_1_1_exceptions_1_1_database_entity_not_found_exception.html" target="_top" xlink:title="Thrown if an entity could not be found.">
<polygon fill="white" stroke="#666666" points="521.12,-272 351.38,-272 351.38,-252 521.12,-252 521.12,-272"/>
<text text-anchor="middle" x="436.25" y="-258.5" font-family="Helvetica,sans-Serif" font-size="10.00">DatabaseEntityNotFoundException</text>
</a>
</g>
</g>
<!-- Node1&#45;&gt;Node5 -->
<g id="edge4_Node000001_Node000005" class="edge">
<title>Node1&#45;&gt;Node5</title>
<g id="a_edge4_Node000001_Node000005"><a xlink:title=" ">
<path fill="none" stroke="#63b8ff" d="M277.73,-177.19C293.09,-196.82 319.59,-226.68 349.5,-243 355.79,-246.43 362.66,-249.25 369.69,-251.55"/>
<polygon fill="#63b8ff" stroke="#63b8ff" points="280.69,-175.29 271.85,-169.44 275.11,-179.52 280.69,-175.29"/>
</a>
</g>
</g>
<!-- Node6 -->
<g id="Node000006" class="node">
<title>Node6</title>
<g id="a_Node000006"><a xlink:href="class_o_c_a_1_1_c_a_f_e_v_d_b_1_1_exceptions_1_1_database_entity_not_unique_exception.html" target="_top" xlink:title="Thrown if more than one entity is found when there should be only one.">
<polygon fill="white" stroke="#666666" points="523,-234 349.5,-234 349.5,-214 523,-214 523,-234"/>
<text text-anchor="middle" x="436.25" y="-220.5" font-family="Helvetica,sans-Serif" font-size="10.00">DatabaseEntityNotUniqueException</text>
</a>
</g>
</g>
<!-- Node1&#45;&gt;Node6 -->
<g id="edge5_Node000001_Node000006" class="edge">
<title>Node1&#45;&gt;Node6</title>
<g id="a_edge5_Node000001_Node000006"><a xlink:title=" ">
<path fill="none" stroke="#63b8ff" d="M289.05,-174.36C305.66,-184.46 328.18,-196.98 349.5,-205 358.35,-208.33 367.94,-211.16 377.4,-213.54"/>
<polygon fill="#63b8ff" stroke="#63b8ff" points="291.16,-171.55 280.82,-169.24 287.46,-177.49 291.16,-171.55"/>
</a>
</g>
</g>
<!-- Node7 -->
<g id="Node000007" class="node">
<title>Node7</title>
<g id="a_Node000007"><a xlink:href="class_o_c_a_1_1_c_a_f_e_v_d_b_1_1_exceptions_1_1_database_inconsistent_value_exception.html" target="_top" xlink:title="Thrown if inconsistencies are detected.">
<polygon fill="white" stroke="#666666" points="503.88,-196 368.62,-196 368.62,-164 503.88,-164 503.88,-196"/>
<text text-anchor="start" x="376.62" y="-182.5" font-family="Helvetica,sans-Serif" font-size="10.00">DatabaseInconsistentValue</text>
<text text-anchor="middle" x="436.25" y="-170.5" font-family="Helvetica,sans-Serif" font-size="10.00">Exception</text>
</a>
</g>
</g>
<!-- Node1&#45;&gt;Node7 -->
<g id="edge6_Node000001_Node000007" class="edge">
<title>Node1&#45;&gt;Node7</title>
<g id="a_edge6_Node000001_Node000007"><a xlink:title=" ">
<path fill="none" stroke="#63b8ff" d="M324.85,-165.84C338.9,-167.64 353.93,-169.57 368.22,-171.4"/>
<polygon fill="#63b8ff" stroke="#63b8ff" points="325.68,-162.42 315.32,-164.62 324.79,-169.36 325.68,-162.42"/>
</a>
</g>
</g>
<!-- Node8 -->
<g id="Node000008" class="node">
<title>Node8</title>
<g id="a_Node000008"><a xlink:href="class_o_c_a_1_1_c_a_f_e_v_d_b_1_1_exceptions_1_1_database_invalid_field_exception.html" target="_top" xlink:title="Thrown if a field has an incompatible type for the operation.">
<polygon fill="white" stroke="#666666" points="511.75,-146 360.75,-146 360.75,-126 511.75,-126 511.75,-146"/>
<text text-anchor="middle" x="436.25" y="-132.5" font-family="Helvetica,sans-Serif" font-size="10.00">DatabaseInvalidFieldException</text>
</a>
</g>
</g>
<!-- Node1&#45;&gt;Node8 -->
<g id="edge7_Node000001_Node000008" class="edge">
<title>Node1&#45;&gt;Node8</title>
<g id="a_edge7_Node000001_Node000008"><a xlink:title=" ">
<path fill="none" stroke="#63b8ff" d="M324.99,-150.14C336.42,-148.68 348.47,-147.13 360.26,-145.62"/>
<polygon fill="#63b8ff" stroke="#63b8ff" points="324.79,-146.64 315.32,-151.38 325.68,-153.58 324.79,-146.64"/>
</a>
</g>
</g>
<!-- Node9 -->
<g id="Node000009" class="node">
<title>Node9</title>
<g id="a_Node000009"><a xlink:href="class_o_c_a_1_1_c_a_f_e_v_d_b_1_1_exceptions_1_1_database_migration_exception.html" target="_top" xlink:title="Thrown during database migrations.">
<polygon fill="white" stroke="#666666" points="506.88,-108 365.62,-108 365.62,-88 506.88,-88 506.88,-108"/>
<text text-anchor="middle" x="436.25" y="-94.5" font-family="Helvetica,sans-Serif" font-size="10.00">DatabaseMigrationException</text>
</a>
</g>
</g>
<!-- Node1&#45;&gt;Node9 -->
<g id="edge8_Node000001_Node000009" class="edge">
<title>Node1&#45;&gt;Node9</title>
<g id="a_edge8_Node000001_Node000009"><a xlink:title=" ">
<path fill="none" stroke="#63b8ff" d="M292.3,-142.33C308.65,-133.87 329.79,-123.79 349.5,-117 359.01,-113.72 369.32,-110.87 379.38,-108.44"/>
<polygon fill="#63b8ff" stroke="#63b8ff" points="290.85,-139.14 283.64,-146.9 294.12,-145.33 290.85,-139.14"/>
</a>
</g>
</g>
<!-- Node10 -->
<g id="Node000010" class="node">
<title>Node10</title>
<g id="a_Node000010"><a xlink:href="class_o_c_a_1_1_c_a_f_e_v_d_b_1_1_exceptions_1_1_database_readonly_exception.html" target="_top" xlink:title="Thrown when trying to mute data which should not be muted.">
<polygon fill="white" stroke="#666666" points="507.62,-70 364.88,-70 364.88,-50 507.62,-50 507.62,-70"/>
<text text-anchor="middle" x="436.25" y="-56.5" font-family="Helvetica,sans-Serif" font-size="10.00">DatabaseReadonlyException</text>
</a>
</g>
</g>
<!-- Node1&#45;&gt;Node10 -->
<g id="edge9_Node000001_Node000010" class="edge">
<title>Node1&#45;&gt;Node10</title>
<g id="a_edge9_Node000001_Node000010"><a xlink:title=" ">
<path fill="none" stroke="#63b8ff" d="M278.99,-139.07C294.72,-120.85 320.93,-93.92 349.5,-79 356.12,-75.54 363.35,-72.71 370.71,-70.39"/>
<polygon fill="#63b8ff" stroke="#63b8ff" points="276.48,-136.62 272.74,-146.53 281.84,-141.12 276.48,-136.62"/>
</a>
</g>
</g>
<!-- Node11 -->
<g id="Node000011" class="node">
<title>Node11</title>
<g id="a_Node000011"><a xlink:href="class_o_c_a_1_1_c_a_f_e_v_d_b_1_1_exceptions_1_1_database_transaction_not_active_exception.html" target="_top" xlink:title="Thrown when trying to fiddle with an active transaction but there is none.">
<polygon fill="white" stroke="#666666" points="512.5,-32 360,-32 360,0 512.5,0 512.5,-32"/>
<text text-anchor="start" x="368" y="-18.5" font-family="Helvetica,sans-Serif" font-size="10.00">DatabaseTransactionNotActive</text>
<text text-anchor="middle" x="436.25" y="-6.5" font-family="Helvetica,sans-Serif" font-size="10.00">Exception</text>
</a>
</g>
</g>
<!-- Node1&#45;&gt;Node11 -->
<g id="edge10_Node000001_Node000011" class="edge">
<title>Node1&#45;&gt;Node11</title>
<g id="a_edge10_Node000001_Node000011"><a xlink:title=" ">
<path fill="none" stroke="#63b8ff" d="M273.41,-137.51C286.83,-111.27 313.56,-66.17 349.5,-41 354.2,-37.71 359.33,-34.85 364.67,-32.36"/>
<polygon fill="#63b8ff" stroke="#63b8ff" points="270.29,-135.93 269.01,-146.44 276.57,-139.02 270.29,-135.93"/>
</a>
</g>
</g>
<!-- Node2 -->
<g id="Node000002" class="node">
<title>Node2</title>
<g id="a_Node000002"><a xlink:href="class_o_c_a_1_1_c_a_f_e_v_d_b_1_1_exceptions_1_1_exception.html" target="_top" xlink:title="General abstraction base&#45;class.">
<polygon fill="white" stroke="#666666" points="176,-168 116.5,-168 116.5,-148 176,-148 176,-168"/>
<text text-anchor="middle" x="146.25" y="-154.5" font-family="Helvetica,sans-Serif" font-size="10.00">Exception</text>
</a>
</g>
</g>
<!-- Node2&#45;&gt;Node1 -->
<g id="edge1_Node000001_Node000002" class="edge">
<title>Node2&#45;&gt;Node1</title>
<g id="a_edge1_Node000001_Node000002"><a xlink:title=" ">
<path fill="none" stroke="#63b8ff" d="M187.77,-158C195.51,-158 203.7,-158 211.7,-158"/>
<polygon fill="#63b8ff" stroke="#63b8ff" points="187.95,-154.5 177.95,-158 187.95,-161.5 187.95,-154.5"/>
</a>
</g>
</g>
<!-- Node3 -->
<g id="Node000003" class="node">
<title>Node3</title>
<g id="a_Node000003"><a xlink:title=" ">
<polygon fill="white" stroke="#bfbfbf" points="80.5,-168 0,-168 0,-148 80.5,-148 80.5,-168"/>
<text text-anchor="middle" x="40.25" y="-154.5" font-family="Helvetica,sans-Serif" font-size="10.00">CoreException</text>
</a>
</g>
</g>
<!-- Node3&#45;&gt;Node2 -->
<g id="edge2_Node000002_Node000003" class="edge">
<title>Node3&#45;&gt;Node2</title>
<g id="a_edge2_Node000002_Node000003"><a xlink:title=" ">
<path fill="none" stroke="#63b8ff" d="M92.31,-158C100.47,-158 108.67,-158 116.1,-158"/>
<polygon fill="#63b8ff" stroke="#63b8ff" points="92.38,-154.5 82.38,-158 92.38,-161.5 92.38,-154.5"/>
</a>
</g>
</g>
</g>
</svg>
