<?xml version="1.0" encoding="UTF-8" standalone="no"?>
<!DOCTYPE svg PUBLIC "-//W3C//DTD SVG 1.1//EN"
 "http://www.w3.org/Graphics/SVG/1.1/DTD/svg11.dtd">
<!-- Generated by graphviz version 2.43.0 (0)
 -->
<!-- Title: numberToWordsPhp Pages: 1 -->
<svg width="465pt" height="64pt"
 viewBox="0.00 0.00 465.00 64.00" xmlns="http://www.w3.org/2000/svg" xmlns:xlink="http://www.w3.org/1999/xlink">

<svg id="main" version="1.1" xmlns="http://www.w3.org/2000/svg" xmlns:xlink="http://www.w3.org/1999/xlink" xml:space="preserve" onload="init(evt)">
<style type="text/css"><![CDATA[
.node, .edge {opacity: 0.7;}
.node.selected, .edge.selected {opacity: 1;}
.edge:hover path { stroke: red; }
.edge:hover polygon { stroke: red; fill: red; }
]]></style>
<script type="application/ecmascript" xlink:href="svg.min.js"/>
<svg id="graph" class="graph">
<g id="graph0" class="graph" transform="scale(1 1) rotate(0) translate(4 60)">
<title>numberToWordsPhp</title>
<!-- Node1 -->
<g id="Node000001" class="node">
<title>Node1</title>
<g id="a_Node000001"><a xlink:title="Convert the given number to words.">
<polygon fill="#999999" stroke="#666666" points="457,-37 353,-37 353,-18 457,-18 457,-37"/>
<text text-anchor="middle" x="405" y="-25" font-family="Helvetica,sans-Serif" font-size="10.00">numberToWordsPhp</text>
</a>
</g>
</g>
<!-- Node2 -->
<g id="Node000002" class="node">
<title>Node2</title>
<g id="a_Node000002"><a xlink:href="class_o_c_a_1_1_c_a_f_e_v_d_b_1_1_common_1_1_number_formatter.html#a33f13030abfcda9765e75cbdc9c6774f" target="_top" xlink:title="Convert the given number to words.">
<polygon fill="white" stroke="#666666" points="317,-37 230,-37 230,-18 317,-18 317,-37"/>
<text text-anchor="middle" x="273.5" y="-25" font-family="Helvetica,sans-Serif" font-size="10.00">numberToWords</text>
</a>
</g>
</g>
<!-- Node1&#45;&gt;Node2 -->
<g id="edge1_Node000001_Node000002" class="edge">
<title>Node1&#45;&gt;Node2</title>
<g id="a_edge1_Node000001_Node000002"><a xlink:title=" ">
<path fill="none" stroke="#63b8ff" d="M342.8,-27.5C334.21,-27.5 325.53,-27.5 317.38,-27.5"/>
<polygon fill="#63b8ff" stroke="#63b8ff" points="342.82,-31 352.82,-27.5 342.82,-24 342.82,-31"/>
</a>
</g>
</g>
<!-- Node3 -->
<g id="Node000003" class="node">
<title>Node3</title>
<g id="a_Node000003"><a xlink:href="class_o_c_a_1_1_c_a_f_e_v_d_b_1_1_common_1_1_number_formatter.html#a108f8d972e1c13ecbe5133e1720b3601" target="_top" xlink:title="Initialize locale dependent internal state from the given locale string.">
<polygon fill="white" stroke="#666666" points="194,-37 104,-37 104,-18 194,-18 194,-37"/>
<text text-anchor="middle" x="149" y="-25" font-family="Helvetica,sans-Serif" font-size="10.00">provideLanguage</text>
</a>
</g>
</g>
<!-- Node2&#45;&gt;Node3 -->
<g id="edge2_Node000002_Node000003" class="edge">
<title>Node2&#45;&gt;Node3</title>
<g id="a_edge2_Node000002_Node000003"><a xlink:title=" ">
<path fill="none" stroke="#63b8ff" d="M219.73,-27.5C211.18,-27.5 202.41,-27.5 194.09,-27.5"/>
<polygon fill="#63b8ff" stroke="#63b8ff" points="220,-31 230,-27.5 220,-24 220,-31"/>
</a>
</g>
</g>
<!-- Node4 -->
<g id="Node000004" class="node">
<title>Node4</title>
<g id="a_Node000004"><a xlink:href="class_o_c_a_1_1_c_a_f_e_v_d_b_1_1_common_1_1_number_formatter.html#acd84f5ac6a3dcce85e3789a6357ebaa0" target="_top" xlink:title=" ">
<polygon fill="white" stroke="#666666" points="68,-56 0,-56 0,-37 68,-37 68,-56"/>
<text text-anchor="middle" x="34" y="-44" font-family="Helvetica,sans-Serif" font-size="10.00">__construct</text>
</a>
</g>
</g>
<!-- Node3&#45;&gt;Node4 -->
<g id="edge3_Node000003_Node000004" class="edge">
<title>Node3&#45;&gt;Node4</title>
<g id="a_edge3_Node000003_Node000004"><a xlink:title=" ">
<path fill="none" stroke="#63b8ff" d="M94.1,-36.56C85.27,-38.05 76.35,-39.55 68.22,-40.91"/>
<polygon fill="#63b8ff" stroke="#63b8ff" points="94.71,-40.01 103.99,-34.9 93.55,-33.11 94.71,-40.01"/>
</a>
</g>
</g>
<!-- Node5 -->
<g id="Node000005" class="node">
<title>Node5</title>
<g id="a_Node000005"><a xlink:href="class_o_c_a_1_1_c_a_f_e_v_d_b_1_1_common_1_1_number_formatter.html#ab6643b93f57377aaca6ccff3a7b24022" target="_top" xlink:title=" ">
<polygon fill="white" stroke="#666666" points="63.5,-19 4.5,-19 4.5,0 63.5,0 63.5,-19"/>
<text text-anchor="middle" x="34" y="-7" font-family="Helvetica,sans-Serif" font-size="10.00">setLocale</text>
</a>
</g>
</g>
<!-- Node3&#45;&gt;Node5 -->
<g id="edge4_Node000003_Node000005" class="edge">
<title>Node3&#45;&gt;Node5</title>
<g id="a_edge4_Node000003_Node000005"><a xlink:title=" ">
<path fill="none" stroke="#63b8ff" d="M94.04,-18.91C83.58,-17.24 73.01,-15.55 63.75,-14.08"/>
<polygon fill="#63b8ff" stroke="#63b8ff" points="93.56,-22.37 103.99,-20.49 94.66,-15.46 93.56,-22.37"/>
</a>
</g>
</g>
</g>
</svg>
</svg>

<style type='text/css'>
<![CDATA[
[data-mouse-over-selected='false'] { opacity: 0.7; }
[data-mouse-over-selected='true']  { opacity: 1.0; }
]]>
</style>
<script type="application/ecmascript"><![CDATA[
document.addEventListener('DOMContentLoaded', (event) => {
  highlightEdges();
  highlightAdjacentNodes();
});
]]></script>
</svg>
