<?xml version="1.0" encoding="UTF-8" standalone="no"?>
<!DOCTYPE svg PUBLIC "-//W3C//DTD SVG 1.1//EN"
 "http://www.w3.org/Graphics/SVG/1.1/DTD/svg11.dtd">
<!-- Generated by graphviz version 8.0.3 (20230416.2022)
 -->
<!-- Title: explodeIndexedMulti Pages: 1 -->
<svg width="334pt" height="45pt"
 viewBox="0.00 0.00 334.00 45.00" xmlns="http://www.w3.org/2000/svg" xmlns:xlink="http://www.w3.org/1999/xlink">
<g id="graph0" class="graph" transform="scale(1 1) rotate(0) translate(4 41)">
<title>explodeIndexedMulti</title>
<!-- Node1 -->
<g id="node1" class="node">
<title>Node1</title>
<g id="a_node1"><a xlink:title="Explode a string of the form.">
<polygon fill="#999999" stroke="#666666" points="106,-19 0,-19 0,0 106,0 106,-19"/>
<text text-anchor="middle" x="53" y="-7" font-family="Helvetica,sans-Serif" font-size="10.00">explodeIndexedMulti</text>
</a>
</g>
</g>
<!-- Node2 -->
<g id="node2" class="node">
<title>Node2</title>
<g id="a_node2"><a xlink:href="class_o_c_a_1_1_c_a_f_e_v_d_b_1_1_common_1_1_util.html#a0bef3dc2eedd594dab3a84b15d183c36" target="_top" xlink:title="A preg_explode() wrapper with some extra features.">
<polygon fill="white" stroke="#666666" points="192,-19 142,-19 142,0 192,0 192,-19"/>
<text text-anchor="middle" x="167" y="-7" font-family="Helvetica,sans-Serif" font-size="10.00">explode</text>
</a>
</g>
</g>
<!-- Node1&#45;&gt;Node2 -->
<g id="edge1" class="edge">
<title>Node1&#45;&gt;Node2</title>
<path fill="none" stroke="#63b8ff" d="M106.39,-9.5C114.66,-9.5 123.02,-9.5 130.77,-9.5"/>
<polygon fill="#63b8ff" stroke="#63b8ff" points="130.6,-13 140.6,-9.5 130.6,-6 130.6,-13"/>
</g>
<!-- Node2&#45;&gt;Node2 -->
<g id="edge2" class="edge">
<title>Node2&#45;&gt;Node2</title>
<path fill="none" stroke="#63b8ff" d="M149.78,-19.37C141.92,-27.94 147.66,-37 167,-37 178.18,-37 184.81,-33.97 186.9,-29.76"/>
<polygon fill="#63b8ff" stroke="#63b8ff" points="190.11,-29.18 184.22,-20.37 183.33,-30.93 190.11,-29.18"/>
</g>
<!-- Node3 -->
<g id="node3" class="node">
<title>Node3</title>
<g id="a_node3"><a xlink:href="class_o_c_a_1_1_c_a_f_e_v_d_b_1_1_common_1_1_util.html#a33027424113469f92dd6e70bcd90953f" target="_top" xlink:title="Un&#45;escape delimiters in the given value.">
<polygon fill="white" stroke="#666666" points="326,-19 228,-19 228,0 326,0 326,-19"/>
<text text-anchor="middle" x="277" y="-7" font-family="Helvetica,sans-Serif" font-size="10.00">unescapeDelimiter</text>
</a>
</g>
</g>
<!-- Node2&#45;&gt;Node3 -->
<g id="edge3" class="edge">
<title>Node2&#45;&gt;Node3</title>
<path fill="none" stroke="#63b8ff" d="M192.24,-9.5C199.58,-9.5 208,-9.5 216.6,-9.5"/>
<polygon fill="#63b8ff" stroke="#63b8ff" points="216.52,-13 226.52,-9.5 216.52,-6 216.52,-13"/>
</g>
</g>
</svg>
