<?xml version="1.0" encoding="UTF-8" standalone="no"?>
<!DOCTYPE svg PUBLIC "-//W3C//DTD SVG 1.1//EN"
 "http://www.w3.org/Graphics/SVG/1.1/DTD/svg11.dtd">
<!-- Generated by graphviz version 7.1.0 (20230121.1956)
 -->
<!-- Title: deleteList Pages: 1 -->
<svg width="361pt" height="27pt"
 viewBox="0.00 0.00 361.00 27.00" xmlns="http://www.w3.org/2000/svg" xmlns:xlink="http://www.w3.org/1999/xlink">
<g id="graph0" class="graph" transform="scale(1 1) rotate(0) translate(4 23)">
<title>deleteList</title>
<!-- Node1 -->
<g id="node1" class="node">
<title>Node1</title>
<g id="a_node1"><a xlink:title="Delete an existing list.">
<polygon fill="#999999" stroke="#666666" points="59,-19 0,-19 0,0 59,0 59,-19"/>
<text text-anchor="middle" x="29.5" y="-7" font-family="Helvetica,sans-Serif" font-size="10.00">deleteList</text>
</a>
</g>
</g>
<!-- Node2 -->
<g id="node2" class="node">
<title>Node2</title>
<g id="a_node2"><a xlink:href="class_o_c_a_1_1_c_a_f_e_v_d_b_1_1_service_1_1_mailing_lists_service.html#afee0c31807c7ddcd4265d994df850134" target="_top" xlink:title="Ensure that the given string is a list&#45;id, if it is a FQDN then try to retrieve the list&#45;id.">
<polygon fill="white" stroke="#666666" points="165,-19 95,-19 95,0 165,0 165,-19"/>
<text text-anchor="middle" x="130" y="-7" font-family="Helvetica,sans-Serif" font-size="10.00">ensureListId</text>
</a>
</g>
</g>
<!-- Node1&#45;&gt;Node2 -->
<g id="edge1" class="edge">
<title>Node1&#45;&gt;Node2</title>
<path fill="none" stroke="#63b8ff" d="M59.26,-9.5C66.82,-9.5 75.17,-9.5 83.38,-9.5"/>
<polygon fill="#63b8ff" stroke="#63b8ff" points="83.3,-13 93.3,-9.5 83.3,-6 83.3,-13"/>
</g>
<!-- Node3 -->
<g id="node3" class="node">
<title>Node3</title>
<g id="a_node3"><a xlink:href="class_o_c_a_1_1_c_a_f_e_v_d_b_1_1_service_1_1_mailing_lists_service.html#ae79714b9375ce65edd9c71e2d97e06ab" target="_top" xlink:title="Fetch the list&#45;id of the given list.">
<polygon fill="white" stroke="#666666" points="255,-19 201,-19 201,0 255,0 255,-19"/>
<text text-anchor="middle" x="228" y="-7" font-family="Helvetica,sans-Serif" font-size="10.00">getListId</text>
</a>
</g>
</g>
<!-- Node2&#45;&gt;Node3 -->
<g id="edge2" class="edge">
<title>Node2&#45;&gt;Node3</title>
<path fill="none" stroke="#63b8ff" d="M165.39,-9.5C173.1,-9.5 181.33,-9.5 189.18,-9.5"/>
<polygon fill="#63b8ff" stroke="#63b8ff" points="189.17,-13 199.17,-9.5 189.17,-6 189.17,-13"/>
</g>
<!-- Node4 -->
<g id="node4" class="node">
<title>Node4</title>
<g id="a_node4"><a xlink:href="class_o_c_a_1_1_c_a_f_e_v_d_b_1_1_service_1_1_mailing_lists_service.html#a651ae4ad1c33811d0e985204bd2e35b8" target="_top" xlink:title=" ">
<polygon fill="white" stroke="#666666" points="353,-19 291,-19 291,0 353,0 353,-19"/>
<text text-anchor="middle" x="322" y="-7" font-family="Helvetica,sans-Serif" font-size="10.00">getListInfo</text>
</a>
</g>
</g>
<!-- Node3&#45;&gt;Node4 -->
<g id="edge3" class="edge">
<title>Node3&#45;&gt;Node4</title>
<path fill="none" stroke="#63b8ff" d="M255.12,-9.5C262.63,-9.5 271.01,-9.5 279.22,-9.5"/>
<polygon fill="#63b8ff" stroke="#63b8ff" points="279.08,-13 289.08,-9.5 279.08,-6 279.08,-13"/>
</g>
</g>
</svg>
