<?xml version="1.0" encoding="UTF-8" standalone="no"?>
<!DOCTYPE svg PUBLIC "-//W3C//DTD SVG 1.1//EN"
 "http://www.w3.org/Graphics/SVG/1.1/DTD/svg11.dtd">
<!-- Generated by graphviz version 9.0.0 (20230911.1827)
 -->
<!-- Title: findThreadDisplay Pages: 1 -->
<svg width="335pt" height="84pt"
 viewBox="0.00 0.00 335.00 84.00" xmlns="http://www.w3.org/2000/svg" xmlns:xlink="http://www.w3.org/1999/xlink">
<g id="graph0" class="graph" transform="scale(1 1) rotate(0) translate(4 80)">
<title>findThreadDisplay</title>
<!-- Node1 -->
<g id="Node000001" class="node">
<title>Node1</title>
<g id="a_Node000001"><a xlink:title="Generate a complex tree structure reflecting the message threads.">
<polygon fill="#999999" stroke="#666666" points="94.75,-39 0,-39 0,-19 94.75,-19 94.75,-39"/>
<text text-anchor="middle" x="47.38" y="-25.5" font-family="Helvetica,sans-Serif" font-size="10.00">findThreadDisplay</text>
</a>
</g>
</g>
<!-- Node2 -->
<g id="Node000002" class="node">
<title>Node2</title>
<g id="a_Node000002"><a xlink:href="class_o_c_a_1_1_c_a_f_e_v_d_b_1_1_database_1_1_cloud_1_1_mapper_1_1_blog_mapper.html#a8141b43e7efef89313e5358478647548" target="_top" xlink:title="Generate a complex tree structure reflecting the message threads.">
<polygon fill="white" stroke="#666666" points="220.62,-58 139.38,-58 139.38,-38 220.62,-38 220.62,-58"/>
<text text-anchor="middle" x="180" y="-44.5" font-family="Helvetica,sans-Serif" font-size="10.00">findThreadTree</text>
</a>
</g>
</g>
<!-- Node1&#45;&gt;Node2 -->
<g id="edge1_Node000001_Node000002" class="edge">
<title>Node1&#45;&gt;Node2</title>
<g id="a_edge1_Node000001_Node000002"><a xlink:title=" ">
<path fill="none" stroke="#63b8ff" d="M95.16,-35.81C105.7,-37.34 116.94,-38.97 127.65,-40.53"/>
<polygon fill="#63b8ff" stroke="#63b8ff" points="127.11,-43.99 137.51,-41.97 128.12,-37.06 127.11,-43.99"/>
</a>
</g>
</g>
<!-- Node4 -->
<g id="Node000004" class="node">
<title>Node4</title>
<g id="a_Node000004"><a xlink:href="class_o_c_a_1_1_c_a_f_e_v_d_b_1_1_database_1_1_cloud_1_1_mapper_1_1_blog_mapper.html#a7c74e744ff535398db9cf5aaf9f77b33" target="_top" xlink:title="Obtain &quot;some popup notice is pending&quot; for the given user / all users.">
<polygon fill="white" stroke="#666666" points="229.25,-20 130.75,-20 130.75,0 229.25,0 229.25,-20"/>
<text text-anchor="middle" x="180" y="-6.5" font-family="Helvetica,sans-Serif" font-size="10.00">notificationPending</text>
</a>
</g>
</g>
<!-- Node1&#45;&gt;Node4 -->
<g id="edge4_Node000001_Node000004" class="edge">
<title>Node1&#45;&gt;Node4</title>
<g id="a_edge4_Node000001_Node000004"><a xlink:title=" ">
<path fill="none" stroke="#63b8ff" d="M95.16,-22.19C102.93,-21.07 111.07,-19.88 119.1,-18.71"/>
<polygon fill="#63b8ff" stroke="#63b8ff" points="119.44,-22.2 128.84,-17.3 118.44,-15.27 119.44,-22.2"/>
</a>
</g>
</g>
<!-- Node2&#45;&gt;Node2 -->
<g id="edge3_Node000002_Node000002" class="edge">
<title>Node2&#45;&gt;Node2</title>
<g id="a_edge3_Node000002_Node000002"><a xlink:title=" ">
<path fill="none" stroke="#63b8ff" d="M161.55,-58.34C153.66,-66.98 159.81,-76 180,-76 191.04,-76 197.88,-73.3 200.52,-69.44"/>
<polygon fill="#63b8ff" stroke="#63b8ff" points="204.01,-69.01 198.73,-59.83 197.12,-70.3 204.01,-69.01"/>
</a>
</g>
</g>
<!-- Node3 -->
<g id="Node000003" class="node">
<title>Node3</title>
<g id="a_Node000003"><a xlink:href="class_o_c_a_1_1_c_a_f_e_v_d_b_1_1_database_1_1_cloud_1_1_mapper_1_1_blog_mapper.html#a9b778ffc31cbf2df2c2d277cad3af26b" target="_top" xlink:title="Fetch the array of messages referring to $id via inReplyTo.">
<polygon fill="white" stroke="#666666" points="327,-58 265.25,-58 265.25,-38 327,-38 327,-58"/>
<text text-anchor="middle" x="296.12" y="-44.5" font-family="Helvetica,sans-Serif" font-size="10.00">findThread</text>
</a>
</g>
</g>
<!-- Node2&#45;&gt;Node3 -->
<g id="edge2_Node000002_Node000003" class="edge">
<title>Node2&#45;&gt;Node3</title>
<g id="a_edge2_Node000002_Node000003"><a xlink:title=" ">
<path fill="none" stroke="#63b8ff" d="M220.92,-48C231.49,-48 242.93,-48 253.59,-48"/>
<polygon fill="#63b8ff" stroke="#63b8ff" points="253.25,-51.5 263.25,-48 253.25,-44.5 253.25,-51.5"/>
</a>
</g>
</g>
</g>
</svg>
