<?xml version="1.0" encoding="UTF-8" standalone="no"?>
<!DOCTYPE svg PUBLIC "-//W3C//DTD SVG 1.1//EN"
 "http://www.w3.org/Graphics/SVG/1.1/DTD/svg11.dtd">
<!-- Generated by graphviz version 7.1.0 (20230121.1956)
 -->
<!-- Title: instrumentsFilter Pages: 1 -->
<svg width="571pt" height="64pt"
 viewBox="0.00 0.00 571.00 64.00" xmlns="http://www.w3.org/2000/svg" xmlns:xlink="http://www.w3.org/1999/xlink">
<g id="graph0" class="graph" transform="scale(1 1) rotate(0) translate(4 60)">
<title>instrumentsFilter</title>
<!-- Node1 -->
<g id="node1" class="node">
<title>Node1</title>
<g id="a_node1"><a xlink:title=" ">
<polygon fill="#999999" stroke="#666666" points="563,-37 474,-37 474,-18 563,-18 563,-37"/>
<text text-anchor="middle" x="518.5" y="-25" font-family="Helvetica,sans-Serif" font-size="10.00">instrumentsFilter</text>
</a>
</g>
</g>
<!-- Node2 -->
<g id="node2" class="node">
<title>Node2</title>
<g id="a_node2"><a xlink:href="class_o_c_a_1_1_c_a_f_e_v_d_b_1_1_email_form_1_1_recipients_filter.html#aa88d3b6470fc695c0e977cf6652e03ae" target="_top" xlink:title="Fetch the instruments filter from the CGI parameters.">
<polygon fill="white" stroke="#666666" points="406,-56 294,-56 294,-37 406,-37 406,-56"/>
<text text-anchor="middle" x="350" y="-44" font-family="Helvetica,sans-Serif" font-size="10.00">fetchInstrumentsFilter</text>
</a>
</g>
</g>
<!-- Node1&#45;&gt;Node2 -->
<g id="edge1" class="edge">
<title>Node1&#45;&gt;Node2</title>
<path fill="none" stroke="#63b8ff" d="M462.53,-33.77C444.5,-35.83 424.46,-38.12 406.39,-40.18"/>
<polygon fill="#63b8ff" stroke="#63b8ff" points="462.71,-37.27 472.25,-32.66 461.92,-30.32 462.71,-37.27"/>
</g>
<!-- Node6 -->
<g id="node6" class="node">
<title>Node6</title>
<g id="a_node6"><a xlink:href="class_o_c_a_1_1_c_a_f_e_v_d_b_1_1_email_form_1_1_recipients_filter.html#a29389bb5db716e59f8a94e5083f8b58e" target="_top" xlink:title="Substitute the recipients by the announcements mailing list if possible.">
<polygon fill="white" stroke="#666666" points="438,-19 262,-19 262,0 438,0 438,-19"/>
<text text-anchor="middle" x="350" y="-7" font-family="Helvetica,sans-Serif" font-size="10.00">substituteAnnouncementsMailingList</text>
</a>
</g>
</g>
<!-- Node1&#45;&gt;Node6 -->
<g id="edge5" class="edge">
<title>Node1&#45;&gt;Node6</title>
<path fill="none" stroke="#63b8ff" d="M462.32,-21.53C454.57,-20.7 446.46,-19.82 438.3,-18.94"/>
<polygon fill="#63b8ff" stroke="#63b8ff" points="461.93,-25.01 472.25,-22.61 462.68,-18.05 461.93,-25.01"/>
</g>
<!-- Node3 -->
<g id="node3" class="node">
<title>Node3</title>
<g id="a_node3"><a xlink:href="class_o_c_a_1_1_c_a_f_e_v_d_b_1_1_email_form_1_1_recipients_filter.html#a1909f4b7f8129c7790cb75de2ffbe1e4" target="_top" xlink:title="Parse the CGI stuff and compute the list of selected musicians, either for the initial form setup as ...">
<polygon fill="white" stroke="#666666" points="226,-56 175,-56 175,-37 226,-37 226,-56"/>
<text text-anchor="middle" x="200.5" y="-44" font-family="Helvetica,sans-Serif" font-size="10.00">execute</text>
</a>
</g>
</g>
<!-- Node2&#45;&gt;Node3 -->
<g id="edge2" class="edge">
<title>Node2&#45;&gt;Node3</title>
<path fill="none" stroke="#63b8ff" d="M282.34,-46.5C262.36,-46.5 241.68,-46.5 226.24,-46.5"/>
<polygon fill="#63b8ff" stroke="#63b8ff" points="282.14,-50 292.14,-46.5 282.14,-43 282.14,-50"/>
</g>
<!-- Node4 -->
<g id="node4" class="node">
<title>Node4</title>
<g id="a_node4"><a xlink:href="class_o_c_a_1_1_c_a_f_e_v_d_b_1_1_email_form_1_1_recipients_filter.html#ae40c9dafec946961dfd72815f6764fb8" target="_top" xlink:title=" ">
<polygon fill="white" stroke="#666666" points="139,-56 104,-56 104,-37 139,-37 139,-56"/>
<text text-anchor="middle" x="121.5" y="-44" font-family="Helvetica,sans-Serif" font-size="10.00">bind</text>
</a>
</g>
</g>
<!-- Node3&#45;&gt;Node4 -->
<g id="edge3" class="edge">
<title>Node3&#45;&gt;Node4</title>
<path fill="none" stroke="#63b8ff" d="M163.43,-46.5C154.96,-46.5 146.35,-46.5 139.21,-46.5"/>
<polygon fill="#63b8ff" stroke="#63b8ff" points="163.2,-50 173.2,-46.5 163.2,-43 163.2,-50"/>
</g>
<!-- Node5 -->
<g id="node5" class="node">
<title>Node5</title>
<g id="a_node5"><a xlink:href="class_o_c_a_1_1_c_a_f_e_v_d_b_1_1_email_form_1_1_recipients_filter.html#a1a3fa621489e73c7386685aa0e152c30" target="_top" xlink:title="{}">
<polygon fill="white" stroke="#666666" points="68,-56 0,-56 0,-37 68,-37 68,-56"/>
<text text-anchor="middle" x="34" y="-44" font-family="Helvetica,sans-Serif" font-size="10.00">__construct</text>
</a>
</g>
</g>
<!-- Node4&#45;&gt;Node5 -->
<g id="edge4" class="edge">
<title>Node4&#45;&gt;Node5</title>
<path fill="none" stroke="#63b8ff" d="M92.36,-46.5C84.72,-46.5 76.38,-46.5 68.48,-46.5"/>
<polygon fill="#63b8ff" stroke="#63b8ff" points="92.09,-50 102.09,-46.5 92.09,-43 92.09,-50"/>
</g>
</g>
</svg>
