<?xml version="1.0" encoding="UTF-8" standalone="no"?>
<!DOCTYPE svg PUBLIC "-//W3C//DTD SVG 1.1//EN"
 "http://www.w3.org/Graphics/SVG/1.1/DTD/svg11.dtd">
<!-- Generated by graphviz version 8.0.3 (20230416.2022)
 -->
<!-- Title: findOneForEntity Pages: 1 -->
<svg width="414pt" height="86pt"
 viewBox="0.00 0.00 414.00 86.00" xmlns="http://www.w3.org/2000/svg" xmlns:xlink="http://www.w3.org/1999/xlink">
<g id="graph0" class="graph" transform="scale(1 1) rotate(0) translate(4 82)">
<title>findOneForEntity</title>
<!-- Node1 -->
<g id="node1" class="node">
<title>Node1</title>
<g id="a_node1"><a xlink:title="Find the first or only image for the given using entity.">
<polygon fill="#999999" stroke="#666666" points="90,-43 0,-43 0,-24 90,-24 90,-43"/>
<text text-anchor="middle" x="45" y="-31" font-family="Helvetica,sans-Serif" font-size="10.00">findOneForEntity</text>
</a>
</g>
</g>
<!-- Node2 -->
<g id="node2" class="node">
<title>Node2</title>
<g id="a_node2"><a xlink:href="class_o_c_a_1_1_c_a_f_e_v_d_b_1_1_database_1_1_doctrine_1_1_o_r_m_1_1_repositories_1_1_images_repository.html#a9c87ed6646d36ad79c36d3d6daeca656" target="_top" xlink:title="Find images for the given &quot;using&quot; entity class.">
<polygon fill="white" stroke="#666666" points="198,-43 126,-43 126,-24 198,-24 198,-43"/>
<text text-anchor="middle" x="162" y="-31" font-family="Helvetica,sans-Serif" font-size="10.00">findForEntity</text>
</a>
</g>
</g>
<!-- Node1&#45;&gt;Node2 -->
<g id="edge1" class="edge">
<title>Node1&#45;&gt;Node2</title>
<path fill="none" stroke="#63b8ff" d="M90.46,-33.5C98.37,-33.5 106.62,-33.5 114.58,-33.5"/>
<polygon fill="#63b8ff" stroke="#63b8ff" points="114.56,-37 124.56,-33.5 114.56,-30 114.56,-37"/>
</g>
<!-- Node3 -->
<g id="node3" class="node">
<title>Node3</title>
<g id="a_node3"><a xlink:href="class_o_c_a_1_1_c_a_f_e_v_d_b_1_1_database_1_1_doctrine_1_1_o_r_m_1_1_repositories_1_1_entity_repository.html#ae2b0e1dbe7640aefaf7d54c6a94d08fe" target="_top" xlink:title="Public export of parent function.">
<polygon fill="white" stroke="#666666" points="406,-78 234,-78 234,-37 406,-37 406,-78"/>
<text text-anchor="start" x="242" y="-66" font-family="Helvetica,sans-Serif" font-size="10.00">OCA\CAFEVDB\Database</text>
<text text-anchor="start" x="242" y="-55" font-family="Helvetica,sans-Serif" font-size="10.00">\Doctrine\ORM\Repositories</text>
<text text-anchor="middle" x="320" y="-44" font-family="Helvetica,sans-Serif" font-size="10.00">\EntityRepository\getEntityManager</text>
</a>
</g>
</g>
<!-- Node2&#45;&gt;Node3 -->
<g id="edge2" class="edge">
<title>Node2&#45;&gt;Node3</title>
<path fill="none" stroke="#63b8ff" d="M198.4,-38.95C205.94,-40.11 214.25,-41.38 222.87,-42.71"/>
<polygon fill="#63b8ff" stroke="#63b8ff" points="222.09,-46.29 232.51,-44.35 223.16,-39.37 222.09,-46.29"/>
</g>
<!-- Node4 -->
<g id="node4" class="node">
<title>Node4</title>
<g id="a_node4"><a xlink:href="class_o_c_a_1_1_c_a_f_e_v_d_b_1_1_database_1_1_doctrine_1_1_o_r_m_1_1_repositories_1_1_images_repository.html#ae5ef41ecb9d88867f5b89f9bfca5abef" target="_top" xlink:title=" ">
<polygon fill="white" stroke="#666666" points="377.5,-19 262.5,-19 262.5,0 377.5,0 377.5,-19"/>
<text text-anchor="middle" x="320" y="-7" font-family="Helvetica,sans-Serif" font-size="10.00">resolveJoinTableEntity</text>
</a>
</g>
</g>
<!-- Node2&#45;&gt;Node4 -->
<g id="edge3" class="edge">
<title>Node2&#45;&gt;Node4</title>
<path fill="none" stroke="#63b8ff" d="M198.4,-28.05C214.1,-25.64 233.13,-22.71 251.39,-19.9"/>
<polygon fill="#63b8ff" stroke="#63b8ff" points="251.67,-23.25 261.02,-18.27 250.6,-16.33 251.67,-23.25"/>
</g>
</g>
</svg>
