<?xml version="1.0" encoding="UTF-8" standalone="no"?>
<!DOCTYPE svg PUBLIC "-//W3C//DTD SVG 1.1//EN"
 "http://www.w3.org/Graphics/SVG/1.1/DTD/svg11.dtd">
<!-- Generated by graphviz version 8.0.3 (20230416.2022)
 -->
<!-- Title: debug Pages: 1 -->
<svg width="260pt" height="82pt"
 viewBox="0.00 0.00 260.00 82.00" xmlns="http://www.w3.org/2000/svg" xmlns:xlink="http://www.w3.org/1999/xlink">
<g id="graph0" class="graph" transform="scale(1 1) rotate(0) translate(4 78)">
<title>debug</title>
<!-- Node1 -->
<g id="node1" class="node">
<title>Node1</title>
<g id="a_node1"><a xlink:title="Enable debug&#45;messages.">
<polygon fill="#999999" stroke="#666666" points="252,-55 209,-55 209,-36 252,-36 252,-55"/>
<text text-anchor="middle" x="230.5" y="-43" font-family="Helvetica,sans-Serif" font-size="10.00">debug</text>
</a>
</g>
</g>
<!-- Node1&#45;&gt;Node1 -->
<g id="edge2" class="edge">
<title>Node1&#45;&gt;Node1</title>
<path fill="none" stroke="#63b8ff" d="M246.91,-66.1C245.02,-70.13 239.55,-73 230.5,-73 214.42,-73 209.64,-63.94 216.18,-55.37"/>
<polygon fill="#63b8ff" stroke="#63b8ff" points="250.17,-65.52 244.82,-56.37 243.29,-66.85 250.17,-65.52"/>
</g>
<!-- Node2 -->
<g id="node2" class="node">
<title>Node2</title>
<g id="a_node2"><a xlink:href="class_o_c_a_1_1_c_a_f_e_v_d_b_1_1_service_1_1_tool_tips_service.html#a0340edf73e04bf904b07c56070d2d834" target="_top" xlink:title="{}">
<polygon fill="white" stroke="#666666" points="173,-74 105,-74 105,-55 173,-55 173,-74"/>
<text text-anchor="middle" x="139" y="-62" font-family="Helvetica,sans-Serif" font-size="10.00">__construct</text>
</a>
</g>
</g>
<!-- Node1&#45;&gt;Node2 -->
<g id="edge1" class="edge">
<title>Node1&#45;&gt;Node2</title>
<path fill="none" stroke="#63b8ff" d="M198.24,-52.14C190.16,-53.85 181.44,-55.7 173.26,-57.44"/>
<polygon fill="#63b8ff" stroke="#63b8ff" points="198.69,-55.41 207.74,-49.91 197.23,-48.56 198.69,-55.41"/>
</g>
<!-- Node3 -->
<g id="node3" class="node">
<title>Node3</title>
<g id="a_node3"><a xlink:href="class_o_c_a_1_1_c_a_f_e_v_d_b_1_1_service_1_1_tool_tips_service.html#afa7ed4ea9907527ec2359bd5e03e6bfc" target="_top" xlink:title="Return a translated tool&#45;tip for the given key.">
<polygon fill="white" stroke="#666666" points="158,-37 120,-37 120,-18 158,-18 158,-37"/>
<text text-anchor="middle" x="139" y="-25" font-family="Helvetica,sans-Serif" font-size="10.00">fetch</text>
</a>
</g>
</g>
<!-- Node1&#45;&gt;Node3 -->
<g id="edge3" class="edge">
<title>Node1&#45;&gt;Node3</title>
<path fill="none" stroke="#63b8ff" d="M198.07,-39.18C184.73,-36.5 169.66,-33.47 158.22,-31.16"/>
<polygon fill="#63b8ff" stroke="#63b8ff" points="197.25,-42.78 207.74,-41.33 198.63,-35.92 197.25,-42.78"/>
</g>
<!-- Node4 -->
<g id="node4" class="node">
<title>Node4</title>
<g id="a_node4"><a xlink:href="class_o_c_a_1_1_c_a_f_e_v_d_b_1_1_service_1_1_tool_tips_service.html#a2fa83c64b65bfcd6ae01aa378370f012" target="_top" xlink:title="{}">
<polygon fill="white" stroke="#666666" points="69,-56 0,-56 0,-37 69,-37 69,-56"/>
<text text-anchor="middle" x="34.5" y="-44" font-family="Helvetica,sans-Serif" font-size="10.00">offsetExists</text>
</a>
</g>
</g>
<!-- Node3&#45;&gt;Node4 -->
<g id="edge4" class="edge">
<title>Node3&#45;&gt;Node4</title>
<path fill="none" stroke="#63b8ff" d="M109.06,-32.86C96.72,-35.15 82.24,-37.84 69.41,-40.21"/>
<polygon fill="#63b8ff" stroke="#63b8ff" points="109.48,-36.16 118.68,-30.9 108.2,-29.28 109.48,-36.16"/>
</g>
<!-- Node5 -->
<g id="node5" class="node">
<title>Node5</title>
<g id="a_node5"><a xlink:href="class_o_c_a_1_1_c_a_f_e_v_d_b_1_1_service_1_1_tool_tips_service.html#a3d6a26d211a99287459a423d3965f11f" target="_top" xlink:title="{}">
<polygon fill="white" stroke="#666666" points="63,-19 6,-19 6,0 63,0 63,-19"/>
<text text-anchor="middle" x="34.5" y="-7" font-family="Helvetica,sans-Serif" font-size="10.00">offsetGet</text>
</a>
</g>
</g>
<!-- Node3&#45;&gt;Node5 -->
<g id="edge5" class="edge">
<title>Node3&#45;&gt;Node5</title>
<path fill="none" stroke="#63b8ff" d="M108.93,-22.39C94.62,-19.88 77.46,-16.87 63.32,-14.39"/>
<polygon fill="#63b8ff" stroke="#63b8ff" points="108.22,-26 118.68,-24.28 109.43,-19.11 108.22,-26"/>
</g>
</g>
</svg>
