<?xml version="1.0" encoding="UTF-8" standalone="no"?>
<!DOCTYPE svg PUBLIC "-//W3C//DTD SVG 1.1//EN"
 "http://www.w3.org/Graphics/SVG/1.1/DTD/svg11.dtd">
<!-- Generated by graphviz version 7.1.0 (20230121.1956)
 -->
<!-- Title: arrayMergeRecursive Pages: 1 -->
<!--zoomable 411 -->
<svg id="main" version="1.1" xmlns="http://www.w3.org/2000/svg" xmlns:xlink="http://www.w3.org/1999/xlink" xml:space="preserve" onload="init(evt)">
<style type="text/css"><![CDATA[
.edge:hover path { stroke: red; }
.edge:hover polygon { stroke: red; fill: red; }
]]></style>
<script type="text/javascript"><![CDATA[
var edges = document.getElementsByTagName('g');
if (edges && edges.length) {
  for (var i=0;i<edges.length;i++) {
    if (edges[i].id.substr(0,4)=='edge') {
      edges[i].setAttribute('class','edge');
    }
  }
}
]]></script>
        <defs>
                <circle id="rim" cx="0" cy="0" r="7"/>
                <circle id="rim2" cx="0" cy="0" r="3.5"/>
                <g id="zoomPlus">
                        <use xlink:href="#rim" fill="#404040">
                                <set attributeName="fill" to="#808080" begin="zoomplus.mouseover" end="zoomplus.mouseout"/>
                        </use>
                        <path d="M-4,0h8M0,-4v8" fill="none" stroke="white" stroke-width="1.5" pointer-events="none"/>
                </g>
                <g id="zoomMin">
                        <use xlink:href="#rim" fill="#404040">
                                <set attributeName="fill" to="#808080" begin="zoomminus.mouseover" end="zoomminus.mouseout"/>
                        </use>
                        <path d="M-4,0h8" fill="none" stroke="white" stroke-width="1.5" pointer-events="none"/>
                </g>
                <g id="dirArrow">
                        <path fill="none" stroke="white" stroke-width="1.5" d="M0,-3.0v7 M-2.5,-0.5L0,-3.0L2.5,-0.5"/>
                </g>
               <g id="resetDef">
                       <use xlink:href="#rim2" fill="#404040">
                               <set attributeName="fill" to="#808080" begin="reset.mouseover" end="reset.mouseout"/>
                       </use>
               </g>
        </defs>

<script type="text/javascript">
var viewWidth = 576;
var viewHeight = 411;
var sectionId = 'dynsection-2';
</script>
<script xlink:href="svgpan.js"/>
<svg id="graph" class="graph">
<g id="viewport">
<title>arrayMergeRecursive</title>
<!-- Node1 -->
<g id="node1" class="node">
<title>Node1</title>
<g id="a_node1"><a xlink:title="Merge $arrays recursively where later arguments in the list override the values of previous arguments...">
<polygon fill="#999999" stroke="#666666" points="568,-210.5 458,-210.5 458,-191.5 568,-191.5 568,-210.5"/>
<text text-anchor="middle" x="513" y="-198.5" font-family="Helvetica,sans-Serif" font-size="10.00">arrayMergeRecursive</text>
</a>
</g>
</g>
<!-- Node2 -->
<g id="node2" class="node">
<title>Node2</title>
<g id="a_node2"><a xlink:href="class_o_c_a_1_1_c_a_f_e_v_d_b_1_1_page_renderer_1_1_p_m_e_table_view_base.html#a4bc3294be95e06a40ae3bdc7d5419749" target="_top" xlink:title="Generate a join&#45;table field, given join&#45;table and field name.">
<polygon fill="white" stroke="#666666" points="422,-278 224,-278 224,-248 422,-248 422,-278"/>
<text text-anchor="start" x="232" y="-266" font-family="Helvetica,sans-Serif" font-size="10.00">OCA\CAFEVDB\PageRenderer</text>
<text text-anchor="middle" x="323" y="-255" font-family="Helvetica,sans-Serif" font-size="10.00">\PMETableViewBase\makeJoinTableField</text>
</a>
</g>
</g>
<!-- Node1&#45;&gt;Node2 -->
<g id="edge1" class="edge">
<title>Node1&#45;&gt;Node2</title>
<path fill="none" stroke="#63b8ff" d="M475.46,-215C459.18,-221.08 439.72,-228.14 422,-234 408.02,-238.63 392.8,-243.3 378.62,-247.51"/>
<polygon fill="#63b8ff" stroke="#63b8ff" points="476.62,-218.3 484.74,-211.5 474.15,-211.75 476.62,-218.3"/>
</g>
<!-- Node3 -->
<g id="node3" class="node">
<title>Node3</title>
<g id="a_node3"><a xlink:href="class_o_c_a_1_1_c_a_f_e_v_d_b_1_1_page_renderer_1_1_instrument_families.html#ab91557ae1e08e1183c76c9ce39edfe33" target="_top" xlink:title="{Show the underlying template page.This is supposed to echo html code to stdout. This is the default ...">
<polygon fill="white" stroke="#666666" points="171.5,-403 16.5,-403 16.5,-373 171.5,-373 171.5,-403"/>
<text text-anchor="start" x="24.5" y="-391" font-family="Helvetica,sans-Serif" font-size="10.00">OCA\CAFEVDB\PageRenderer</text>
<text text-anchor="middle" x="94" y="-380" font-family="Helvetica,sans-Serif" font-size="10.00">\InstrumentFamilies\render</text>
</a>
</g>
</g>
<!-- Node1&#45;&gt;Node3 -->
<g id="edge9" class="edge">
<title>Node1&#45;&gt;Node3</title>
<path fill="none" stroke="#63b8ff" d="M505.61,-221.73C494.41,-254.21 467.96,-316.44 422,-346 347.02,-394.22 242.24,-399.31 171.67,-395.91"/>
<polygon fill="#63b8ff" stroke="#63b8ff" points="508.91,-222.9 508.69,-212.3 502.26,-220.72 508.91,-222.9"/>
</g>
<!-- Node4 -->
<g id="node4" class="node">
<title>Node4</title>
<g id="a_node4"><a xlink:href="class_o_c_a_1_1_c_a_f_e_v_d_b_1_1_page_renderer_1_1_instrument_insurances.html#ab91557ae1e08e1183c76c9ce39edfe33" target="_top" xlink:title="{Show the underlying template page.This is supposed to echo html code to stdout. This is the default ...">
<polygon fill="white" stroke="#666666" points="171.5,-355 16.5,-355 16.5,-325 171.5,-325 171.5,-355"/>
<text text-anchor="start" x="24.5" y="-343" font-family="Helvetica,sans-Serif" font-size="10.00">OCA\CAFEVDB\PageRenderer</text>
<text text-anchor="middle" x="94" y="-332" font-family="Helvetica,sans-Serif" font-size="10.00">\InstrumentInsurances\render</text>
</a>
</g>
</g>
<!-- Node1&#45;&gt;Node4 -->
<g id="edge10" class="edge">
<title>Node1&#45;&gt;Node4</title>
<path fill="none" stroke="#63b8ff" d="M502.48,-220.96C488.76,-247.21 460.77,-292.42 422,-313 344.27,-354.27 241.26,-355.56 171.79,-350.1"/>
<polygon fill="#63b8ff" stroke="#63b8ff" points="505.59,-222.56 506.94,-212.05 499.33,-219.42 505.59,-222.56"/>
</g>
<!-- Node5 -->
<g id="node5" class="node">
<title>Node5</title>
<g id="a_node5"><a xlink:href="class_o_c_a_1_1_c_a_f_e_v_d_b_1_1_page_renderer_1_1_instruments.html#ab91557ae1e08e1183c76c9ce39edfe33" target="_top" xlink:title="{Show the underlying template page.This is supposed to echo html code to stdout. This is the default ...">
<polygon fill="white" stroke="#666666" points="171.5,-307 16.5,-307 16.5,-277 171.5,-277 171.5,-307"/>
<text text-anchor="start" x="24.5" y="-295" font-family="Helvetica,sans-Serif" font-size="10.00">OCA\CAFEVDB\PageRenderer</text>
<text text-anchor="middle" x="94" y="-284" font-family="Helvetica,sans-Serif" font-size="10.00">\Instruments\render</text>
</a>
</g>
</g>
<!-- Node1&#45;&gt;Node5 -->
<g id="edge11" class="edge">
<title>Node1&#45;&gt;Node5</title>
<path fill="none" stroke="#63b8ff" d="M498.96,-220.1C483.43,-240.99 455.34,-273.34 422,-287 341.49,-320 240.19,-315.28 171.84,-306.18"/>
<polygon fill="#63b8ff" stroke="#63b8ff" points="501.69,-222.29 504.67,-212.12 496,-218.22 501.69,-222.29"/>
</g>
<!-- Node6 -->
<g id="node6" class="node">
<title>Node6</title>
<g id="a_node6"><a xlink:href="class_o_c_a_1_1_c_a_f_e_v_d_b_1_1_page_renderer_1_1_project_instrumentation_numbers.html#ab91557ae1e08e1183c76c9ce39edfe33" target="_top" xlink:title="{Show the underlying template page.This is supposed to echo html code to stdout. This is the default ...">
<polygon fill="white" stroke="#666666" points="188,-259 0,-259 0,-229 188,-229 188,-259"/>
<text text-anchor="start" x="8" y="-247" font-family="Helvetica,sans-Serif" font-size="10.00">OCA\CAFEVDB\PageRenderer</text>
<text text-anchor="middle" x="94" y="-236" font-family="Helvetica,sans-Serif" font-size="10.00">\ProjectInstrumentationNumbers\render</text>
</a>
</g>
</g>
<!-- Node1&#45;&gt;Node6 -->
<g id="edge14" class="edge">
<title>Node1&#45;&gt;Node6</title>
<path fill="none" stroke="#63b8ff" d="M446.72,-207.73C377.32,-214.89 266.97,-226.27 188.39,-234.37"/>
<polygon fill="#63b8ff" stroke="#63b8ff" points="446.82,-211.24 456.41,-206.73 446.1,-204.28 446.82,-211.24"/>
</g>
<!-- Node7 -->
<g id="node7" class="node">
<title>Node7</title>
<g id="a_node7"><a xlink:href="class_o_c_a_1_1_c_a_f_e_v_d_b_1_1_page_renderer_1_1_project_participant_fields.html#ab91557ae1e08e1183c76c9ce39edfe33" target="_top" xlink:title="{Show the underlying template page.This is supposed to echo html code to stdout. This is the default ...">
<polygon fill="white" stroke="#666666" points="171.5,-211 16.5,-211 16.5,-181 171.5,-181 171.5,-211"/>
<text text-anchor="start" x="24.5" y="-199" font-family="Helvetica,sans-Serif" font-size="10.00">OCA\CAFEVDB\PageRenderer</text>
<text text-anchor="middle" x="94" y="-188" font-family="Helvetica,sans-Serif" font-size="10.00">\ProjectParticipantFields\render</text>
</a>
</g>
</g>
<!-- Node1&#45;&gt;Node7 -->
<g id="edge15" class="edge">
<title>Node1&#45;&gt;Node7</title>
<path fill="none" stroke="#63b8ff" d="M446.83,-200.22C372.36,-199.33 250.61,-197.87 171.65,-196.92"/>
<polygon fill="#63b8ff" stroke="#63b8ff" points="446.36,-203.71 456.4,-200.33 446.44,-196.71 446.36,-203.71"/>
</g>
<!-- Node8 -->
<g id="node8" class="node">
<title>Node8</title>
<g id="a_node8"><a xlink:href="class_o_c_a_1_1_c_a_f_e_v_d_b_1_1_page_renderer_1_1_project_participants.html#ab91557ae1e08e1183c76c9ce39edfe33" target="_top" xlink:title="{Show the underlying template page.This is supposed to echo html code to stdout. This is the default ...">
<polygon fill="white" stroke="#666666" points="171.5,-163 16.5,-163 16.5,-133 171.5,-133 171.5,-163"/>
<text text-anchor="start" x="24.5" y="-151" font-family="Helvetica,sans-Serif" font-size="10.00">OCA\CAFEVDB\PageRenderer</text>
<text text-anchor="middle" x="94" y="-140" font-family="Helvetica,sans-Serif" font-size="10.00">\ProjectParticipants\render</text>
</a>
</g>
</g>
<!-- Node1&#45;&gt;Node8 -->
<g id="edge16" class="edge">
<title>Node1&#45;&gt;Node8</title>
<path fill="none" stroke="#63b8ff" d="M446.83,-192.72C372.36,-183.25 250.61,-167.78 171.65,-157.74"/>
<polygon fill="#63b8ff" stroke="#63b8ff" points="446.05,-196.15 456.41,-193.93 446.93,-189.2 446.05,-196.15"/>
</g>
<!-- Node9 -->
<g id="node9" class="node">
<title>Node9</title>
<g id="a_node9"><a xlink:href="class_o_c_a_1_1_c_a_f_e_v_d_b_1_1_page_renderer_1_1_sepa_bulk_transactions.html#ab91557ae1e08e1183c76c9ce39edfe33" target="_top" xlink:title="{Show the underlying template page.This is supposed to echo html code to stdout. This is the default ...">
<polygon fill="white" stroke="#666666" points="171.5,-115 16.5,-115 16.5,-85 171.5,-85 171.5,-115"/>
<text text-anchor="start" x="24.5" y="-103" font-family="Helvetica,sans-Serif" font-size="10.00">OCA\CAFEVDB\PageRenderer</text>
<text text-anchor="middle" x="94" y="-92" font-family="Helvetica,sans-Serif" font-size="10.00">\SepaBulkTransactions\render</text>
</a>
</g>
</g>
<!-- Node1&#45;&gt;Node9 -->
<g id="edge17" class="edge">
<title>Node1&#45;&gt;Node9</title>
<path fill="none" stroke="#63b8ff" d="M483.15,-186.1C465.82,-177.68 443.09,-167.56 422,-161 338.31,-134.99 238.94,-118.38 171.88,-109.17"/>
<polygon fill="#63b8ff" stroke="#63b8ff" points="481.32,-189.1 491.83,-190.41 484.43,-182.83 481.32,-189.1"/>
</g>
<!-- Node10 -->
<g id="node10" class="node">
<title>Node10</title>
<g id="a_node10"><a xlink:href="class_o_c_a_1_1_c_a_f_e_v_d_b_1_1_page_renderer_1_1_insurance_brokers.html#ab91557ae1e08e1183c76c9ce39edfe33" target="_top" xlink:title="{Show the underlying template page.This is supposed to echo html code to stdout. This is the default ...">
<polygon fill="white" stroke="#666666" points="400.5,-78 245.5,-78 245.5,-48 400.5,-48 400.5,-78"/>
<text text-anchor="start" x="253.5" y="-66" font-family="Helvetica,sans-Serif" font-size="10.00">OCA\CAFEVDB\PageRenderer</text>
<text text-anchor="middle" x="323" y="-55" font-family="Helvetica,sans-Serif" font-size="10.00">\InsuranceBrokers\render</text>
</a>
</g>
</g>
<!-- Node1&#45;&gt;Node10 -->
<g id="edge12" class="edge">
<title>Node1&#45;&gt;Node10</title>
<path fill="none" stroke="#63b8ff" d="M501.01,-181.59C486.18,-157.13 457.49,-115.46 422,-92 413.71,-86.52 404.36,-82.05 394.81,-78.41"/>
<polygon fill="#63b8ff" stroke="#63b8ff" points="497.81,-183.05 505.89,-189.9 503.84,-179.5 497.81,-183.05"/>
</g>
<!-- Node11 -->
<g id="node11" class="node">
<title>Node11</title>
<g id="a_node11"><a xlink:href="class_o_c_a_1_1_c_a_f_e_v_d_b_1_1_page_renderer_1_1_insurance_rates.html#ab91557ae1e08e1183c76c9ce39edfe33" target="_top" xlink:title="{Show the underlying template page.This is supposed to echo html code to stdout. This is the default ...">
<polygon fill="white" stroke="#666666" points="400.5,-30 245.5,-30 245.5,0 400.5,0 400.5,-30"/>
<text text-anchor="start" x="253.5" y="-18" font-family="Helvetica,sans-Serif" font-size="10.00">OCA\CAFEVDB\PageRenderer</text>
<text text-anchor="middle" x="323" y="-7" font-family="Helvetica,sans-Serif" font-size="10.00">\InsuranceRates\render</text>
</a>
</g>
</g>
<!-- Node1&#45;&gt;Node11 -->
<g id="edge13" class="edge">
<title>Node1&#45;&gt;Node11</title>
<path fill="none" stroke="#63b8ff" d="M506.48,-180.47C496.04,-145.75 470.04,-75.67 422,-39 415.59,-34.11 408.33,-30.2 400.71,-27.08"/>
<polygon fill="#63b8ff" stroke="#63b8ff" points="503,-181.05 509.11,-189.7 509.73,-179.13 503,-181.05"/>
</g>
<!-- Node2&#45;&gt;Node3 -->
<g id="edge2" class="edge">
<title>Node2&#45;&gt;Node3</title>
<path fill="none" stroke="#63b8ff" d="M297.8,-285.98C272.37,-308.93 230.25,-343.63 188,-364 181.24,-367.26 173.98,-370.11 166.61,-372.6"/>
<polygon fill="#63b8ff" stroke="#63b8ff" points="299.95,-288.76 304.96,-279.42 295.22,-283.6 299.95,-288.76"/>
</g>
<!-- Node2&#45;&gt;Node4 -->
<g id="edge3" class="edge">
<title>Node2&#45;&gt;Node4</title>
<path fill="none" stroke="#63b8ff" d="M276.08,-282.8C250.45,-293.43 217.77,-306.31 188,-316 178.8,-318.99 169,-321.86 159.34,-324.51"/>
<polygon fill="#63b8ff" stroke="#63b8ff" points="277.34,-286.07 285.21,-278.98 274.64,-279.61 277.34,-286.07"/>
</g>
<!-- Node2&#45;&gt;Node5 -->
<g id="edge4" class="edge">
<title>Node2&#45;&gt;Node5</title>
<path fill="none" stroke="#63b8ff" d="M212.71,-276.96C198.9,-278.73 185,-280.5 171.84,-282.18"/>
<polygon fill="#63b8ff" stroke="#63b8ff" points="212.78,-280.48 222.25,-275.74 211.89,-273.54 212.78,-280.48"/>
</g>
<!-- Node2&#45;&gt;Node6 -->
<g id="edge5" class="edge">
<title>Node2&#45;&gt;Node6</title>
<path fill="none" stroke="#63b8ff" d="M212.42,-253.83C204.38,-253.15 196.31,-252.48 188.38,-251.82"/>
<polygon fill="#63b8ff" stroke="#63b8ff" points="211.99,-257.3 222.25,-254.65 212.57,-250.33 211.99,-257.3"/>
</g>
<!-- Node2&#45;&gt;Node7 -->
<g id="edge6" class="edge">
<title>Node2&#45;&gt;Node7</title>
<path fill="none" stroke="#63b8ff" d="M265.07,-243.93C241.33,-236.19 213.43,-227.35 188,-220 177.91,-217.08 167.15,-214.15 156.67,-211.38"/>
<polygon fill="#63b8ff" stroke="#63b8ff" points="263.97,-247.25 274.56,-247.04 266.15,-240.6 263.97,-247.25"/>
</g>
<!-- Node2&#45;&gt;Node8 -->
<g id="edge7" class="edge">
<title>Node2&#45;&gt;Node8</title>
<path fill="none" stroke="#63b8ff" d="M294.86,-240.41C268.92,-219.86 227.94,-190.05 188,-172 180.86,-168.77 173.2,-165.92 165.47,-163.42"/>
<polygon fill="#63b8ff" stroke="#63b8ff" points="292.55,-243.04 302.53,-246.57 296.93,-237.58 292.55,-243.04"/>
</g>
<!-- Node2&#45;&gt;Node9 -->
<g id="edge8" class="edge">
<title>Node2&#45;&gt;Node9</title>
<path fill="none" stroke="#63b8ff" d="M305.13,-238.48C282.25,-207.14 238.42,-153.42 188,-124 182.38,-120.72 176.32,-117.89 170.07,-115.43"/>
<polygon fill="#63b8ff" stroke="#63b8ff" points="302.26,-240.48 310.92,-246.58 307.95,-236.41 302.26,-240.48"/>
</g>
</g>
</svg>
        <g id="navigator" transform="translate(0 0)" fill="#404254">
                <rect fill="#f2f5e9" fill-opacity="0.5" stroke="#606060" stroke-width=".5" x="0" y="0" width="60" height="60"/>
                <use id="zoomplus" xlink:href="#zoomPlus" x="17" y="9" onmousedown="handleZoom(evt,'in')"/>
                <use id="zoomminus" xlink:href="#zoomMin" x="42" y="9" onmousedown="handleZoom(evt,'out')"/>
                <use id="reset" xlink:href="#resetDef" x="30" y="36" onmousedown="handleReset()"/>
                <g id="arrowUp" xlink:href="#dirArrow" transform="translate(30 24)" onmousedown="handlePan(0,-1)">
                  <use xlink:href="#rim" fill="#404040">
                        <set attributeName="fill" to="#808080" begin="arrowUp.mouseover" end="arrowUp.mouseout"/>
                  </use>
                  <path fill="none" stroke="white" stroke-width="1.5" d="M0,-3.0v7 M-2.5,-0.5L0,-3.0L2.5,-0.5"/>
                </g>
                <g id="arrowRight" xlink:href="#dirArrow" transform="rotate(90) translate(36 -43)" onmousedown="handlePan(1,0)">
                  <use xlink:href="#rim" fill="#404040">
                        <set attributeName="fill" to="#808080" begin="arrowRight.mouseover" end="arrowRight.mouseout"/>
                  </use>
                  <path fill="none" stroke="white" stroke-width="1.5" d="M0,-3.0v7 M-2.5,-0.5L0,-3.0L2.5,-0.5"/>
                </g>
                <g id="arrowDown" xlink:href="#dirArrow" transform="rotate(180) translate(-30 -48)" onmousedown="handlePan(0,1)">
                  <use xlink:href="#rim" fill="#404040">
                        <set attributeName="fill" to="#808080" begin="arrowDown.mouseover" end="arrowDown.mouseout"/>
                  </use>
                  <path fill="none" stroke="white" stroke-width="1.5" d="M0,-3.0v7 M-2.5,-0.5L0,-3.0L2.5,-0.5"/>
                </g>
                <g id="arrowLeft" xlink:href="#dirArrow" transform="rotate(270) translate(-36 17)" onmousedown="handlePan(-1,0)">
                  <use xlink:href="#rim" fill="#404040">
                        <set attributeName="fill" to="#808080" begin="arrowLeft.mouseover" end="arrowLeft.mouseout"/>
                  </use>
                  <path fill="none" stroke="white" stroke-width="1.5" d="M0,-3.0v7 M-2.5,-0.5L0,-3.0L2.5,-0.5"/>
                </g>
        </g>
        <svg viewBox="0 0 15 15" width="100%" height="30px" preserveAspectRatio="xMaxYMin meet">
         <g id="arrow_out" transform="scale(0.3 0.3)">
          <a xlink:href="class_o_c_a_1_1_c_a_f_e_v_d_b_1_1_common_1_1_util_a3ad8a4109147715b8c5573d1dbdb2d3d_icgraph_org.svg" target="_base">
           <rect id="button" ry="5" rx="5" y="6" x="6" height="38" width="38"
                fill="#f2f5e9" fill-opacity="0.5" stroke="#606060" stroke-width="1.0"/>
           <path id="arrow"
             d="M 11.500037,31.436501 C 11.940474,20.09759 22.043105,11.32322 32.158766,21.979434 L 37.068811,17.246167 C 37.068811,17.246167 37.088388,32 37.088388,32 L 22.160133,31.978069 C 22.160133,31.978069 26.997745,27.140456 26.997745,27.140456 C 18.528582,18.264221 13.291696,25.230495 11.500037,31.436501 z"
             style="fill:#404040;"/>
          </a>
         </g>
        </svg>
</svg>
