<?xml version="1.0" encoding="UTF-8" standalone="no"?>
<!DOCTYPE svg PUBLIC "-//W3C//DTD SVG 1.1//EN"
 "http://www.w3.org/Graphics/SVG/1.1/DTD/svg11.dtd">
<!-- Generated by graphviz version 9.0.0 (20230911.1827)
 -->
<!-- Title: copyOperation Pages: 1 -->
<svg width="467pt" height="140pt"
 viewBox="0.00 0.00 467.00 140.00" xmlns="http://www.w3.org/2000/svg" xmlns:xlink="http://www.w3.org/1999/xlink">
<g id="graph0" class="graph" transform="scale(1 1) rotate(0) translate(4 136)">
<title>copyOperation</title>
<!-- Node1 -->
<g id="Node000001" class="node">
<title>Node1</title>
<g id="a_Node000001"><a xlink:title=" ">
<polygon fill="#999999" stroke="#666666" points="459,-76 380,-76 380,-56 459,-56 459,-76"/>
<text text-anchor="middle" x="419.5" y="-62.5" font-family="Helvetica,sans-Serif" font-size="10.00">copyOperation</text>
</a>
</g>
</g>
<!-- Node2 -->
<g id="Node000002" class="node">
<title>Node2</title>
<g id="a_Node000002"><a xlink:href="class_o_c_a_1_1_c_a_f_e_v_d_b_1_1_page_renderer_1_1_instrument_families.html#a9ed08d50f5d820b52e7108eea8a169e5" target="_top" xlink:title="{string Short title for heading. }">
<polygon fill="white" stroke="#666666" points="344,-132 190,-132 190,-100 344,-100 344,-132"/>
<text text-anchor="start" x="198" y="-118.5" font-family="Helvetica,sans-Serif" font-size="10.00">OCA\CAFEVDB\PageRenderer</text>
<text text-anchor="middle" x="267" y="-106.5" font-family="Helvetica,sans-Serif" font-size="10.00">\InstrumentFamilies\shortTitle</text>
</a>
</g>
</g>
<!-- Node1&#45;&gt;Node2 -->
<g id="edge1_Node000001_Node000002" class="edge">
<title>Node1&#45;&gt;Node2</title>
<g id="a_edge1_Node000001_Node000002"><a xlink:title=" ">
<path fill="none" stroke="#63b8ff" d="M376.9,-80.01C366.18,-83.6 354.67,-87.46 344,-91 335.7,-93.76 326.88,-96.67 318.3,-99.5"/>
<polygon fill="#63b8ff" stroke="#63b8ff" points="377.9,-83.36 386.27,-76.86 375.68,-76.73 377.9,-83.36"/>
</a>
</g>
</g>
<!-- Node4 -->
<g id="Node000004" class="node">
<title>Node4</title>
<g id="a_Node000004"><a xlink:href="class_o_c_a_1_1_c_a_f_e_v_d_b_1_1_page_renderer_1_1_instruments.html#a9ed08d50f5d820b52e7108eea8a169e5" target="_top" xlink:title="{string Short title for heading. }">
<polygon fill="white" stroke="#666666" points="344,-82 190,-82 190,-50 344,-50 344,-82"/>
<text text-anchor="start" x="198" y="-68.5" font-family="Helvetica,sans-Serif" font-size="10.00">OCA\CAFEVDB\PageRenderer</text>
<text text-anchor="middle" x="267" y="-56.5" font-family="Helvetica,sans-Serif" font-size="10.00">\Instruments\shortTitle</text>
</a>
</g>
</g>
<!-- Node1&#45;&gt;Node4 -->
<g id="edge3_Node000001_Node000004" class="edge">
<title>Node1&#45;&gt;Node4</title>
<g id="a_edge3_Node000001_Node000004"><a xlink:title=" ">
<path fill="none" stroke="#63b8ff" d="M368.36,-66C360.63,-66 352.5,-66 344.35,-66"/>
<polygon fill="#63b8ff" stroke="#63b8ff" points="368.23,-69.5 378.23,-66 368.23,-62.5 368.23,-69.5"/>
</a>
</g>
</g>
<!-- Node6 -->
<g id="Node000006" class="node">
<title>Node6</title>
<g id="a_Node000006"><a xlink:href="class_o_c_a_1_1_c_a_f_e_v_d_b_1_1_page_renderer_1_1_musicians.html#a9ed08d50f5d820b52e7108eea8a169e5" target="_top" xlink:title="{string Short title for heading. }">
<polygon fill="white" stroke="#666666" points="344,-32 190,-32 190,0 344,0 344,-32"/>
<text text-anchor="start" x="198" y="-18.5" font-family="Helvetica,sans-Serif" font-size="10.00">OCA\CAFEVDB\PageRenderer</text>
<text text-anchor="middle" x="267" y="-6.5" font-family="Helvetica,sans-Serif" font-size="10.00">\Musicians\shortTitle</text>
</a>
</g>
</g>
<!-- Node1&#45;&gt;Node6 -->
<g id="edge5_Node000001_Node000006" class="edge">
<title>Node1&#45;&gt;Node6</title>
<g id="a_edge5_Node000001_Node000006"><a xlink:title=" ">
<path fill="none" stroke="#63b8ff" d="M376.9,-51.99C366.18,-48.4 354.67,-44.54 344,-41 335.7,-38.24 326.88,-35.33 318.3,-32.5"/>
<polygon fill="#63b8ff" stroke="#63b8ff" points="375.68,-55.27 386.27,-55.14 377.9,-48.64 375.68,-55.27"/>
</a>
</g>
</g>
<!-- Node3 -->
<g id="Node000003" class="node">
<title>Node3</title>
<g id="a_Node000003"><a xlink:href="class_o_c_a_1_1_c_a_f_e_v_d_b_1_1_page_renderer_1_1_instrument_families.html#aabe24c55e3f00c5c998a4c6338a413bf" target="_top" xlink:title="{Header text informations.Display in popup in order not to bloat the small header space....">
<polygon fill="white" stroke="#666666" points="154,-132 0,-132 0,-100 154,-100 154,-132"/>
<text text-anchor="start" x="8" y="-118.5" font-family="Helvetica,sans-Serif" font-size="10.00">OCA\CAFEVDB\PageRenderer</text>
<text text-anchor="middle" x="77" y="-106.5" font-family="Helvetica,sans-Serif" font-size="10.00">\InstrumentFamilies\headerText</text>
</a>
</g>
</g>
<!-- Node2&#45;&gt;Node3 -->
<g id="edge2_Node000002_Node000003" class="edge">
<title>Node2&#45;&gt;Node3</title>
<g id="a_edge2_Node000002_Node000003"><a xlink:title=" ">
<path fill="none" stroke="#63b8ff" d="M178.03,-116C170.14,-116 162.18,-116 154.4,-116"/>
<polygon fill="#63b8ff" stroke="#63b8ff" points="178.02,-119.5 188.02,-116 178.02,-112.5 178.02,-119.5"/>
</a>
</g>
</g>
<!-- Node5 -->
<g id="Node000005" class="node">
<title>Node5</title>
<g id="a_Node000005"><a xlink:href="class_o_c_a_1_1_c_a_f_e_v_d_b_1_1_page_renderer_1_1_instruments.html#aabe24c55e3f00c5c998a4c6338a413bf" target="_top" xlink:title="{Header text informations.Display in popup in order not to bloat the small header space....">
<polygon fill="white" stroke="#666666" points="154,-82 0,-82 0,-50 154,-50 154,-82"/>
<text text-anchor="start" x="8" y="-68.5" font-family="Helvetica,sans-Serif" font-size="10.00">OCA\CAFEVDB\PageRenderer</text>
<text text-anchor="middle" x="77" y="-56.5" font-family="Helvetica,sans-Serif" font-size="10.00">\Instruments\headerText</text>
</a>
</g>
</g>
<!-- Node4&#45;&gt;Node5 -->
<g id="edge4_Node000004_Node000005" class="edge">
<title>Node4&#45;&gt;Node5</title>
<g id="a_edge4_Node000004_Node000005"><a xlink:title=" ">
<path fill="none" stroke="#63b8ff" d="M178.03,-66C170.14,-66 162.18,-66 154.4,-66"/>
<polygon fill="#63b8ff" stroke="#63b8ff" points="178.02,-69.5 188.02,-66 178.02,-62.5 178.02,-69.5"/>
</a>
</g>
</g>
<!-- Node7 -->
<g id="Node000007" class="node">
<title>Node7</title>
<g id="a_Node000007"><a xlink:href="class_o_c_a_1_1_c_a_f_e_v_d_b_1_1_page_renderer_1_1_musicians.html#aabe24c55e3f00c5c998a4c6338a413bf" target="_top" xlink:title="{Header text informations.Display in popup in order not to bloat the small header space....">
<polygon fill="white" stroke="#666666" points="154,-32 0,-32 0,0 154,0 154,-32"/>
<text text-anchor="start" x="8" y="-18.5" font-family="Helvetica,sans-Serif" font-size="10.00">OCA\CAFEVDB\PageRenderer</text>
<text text-anchor="middle" x="77" y="-6.5" font-family="Helvetica,sans-Serif" font-size="10.00">\Musicians\headerText</text>
</a>
</g>
</g>
<!-- Node6&#45;&gt;Node7 -->
<g id="edge6_Node000006_Node000007" class="edge">
<title>Node6&#45;&gt;Node7</title>
<g id="a_edge6_Node000006_Node000007"><a xlink:title=" ">
<path fill="none" stroke="#63b8ff" d="M178.03,-16C170.14,-16 162.18,-16 154.4,-16"/>
<polygon fill="#63b8ff" stroke="#63b8ff" points="178.02,-19.5 188.02,-16 178.02,-12.5 178.02,-19.5"/>
</a>
</g>
</g>
</g>
</svg>
