<?xml version="1.0" encoding="UTF-8" standalone="no"?>
<!DOCTYPE svg PUBLIC "-//W3C//DTD SVG 1.1//EN"
 "http://www.w3.org/Graphics/SVG/1.1/DTD/svg11.dtd">
<!-- Generated by graphviz version 7.1.0 (20230121.1956)
 -->
<!-- Title: is_dir Pages: 1 -->
<svg width="442pt" height="291pt"
 viewBox="0.00 0.00 442.00 291.00" xmlns="http://www.w3.org/2000/svg" xmlns:xlink="http://www.w3.org/1999/xlink">
<g id="graph0" class="graph" transform="scale(1 1) rotate(0) translate(4 287)">
<title>is_dir</title>
<!-- Node1 -->
<g id="node1" class="node">
<title>Node1</title>
<g id="a_node1"><a xlink:title="{}">
<polygon fill="#999999" stroke="#666666" points="434,-95 394,-95 394,-76 434,-76 434,-95"/>
<text text-anchor="middle" x="414" y="-83" font-family="Helvetica,sans-Serif" font-size="10.00">is_dir</text>
</a>
</g>
</g>
<!-- Node2 -->
<g id="node2" class="node">
<title>Node2</title>
<g id="a_node2"><a xlink:href="class_o_c_a_1_1_c_a_f_e_v_d_b_1_1_storage_1_1_database_1_1_storage.html#adeb1bc07330c61c5b94a88bc857fa7c2" target="_top" xlink:title="{}">
<polygon fill="white" stroke="#666666" points="358,-204 297,-204 297,-185 358,-185 358,-204"/>
<text text-anchor="middle" x="327.5" y="-192" font-family="Helvetica,sans-Serif" font-size="10.00">file_exists</text>
</a>
</g>
</g>
<!-- Node1&#45;&gt;Node2 -->
<g id="edge1" class="edge">
<title>Node1&#45;&gt;Node2</title>
<path fill="none" stroke="#63b8ff" d="M398.59,-104.09C380.51,-127.41 350.18,-166.53 336.1,-184.69"/>
<polygon fill="#63b8ff" stroke="#63b8ff" points="401.21,-106.42 404.57,-96.37 395.68,-102.13 401.21,-106.42"/>
</g>
<!-- Node6 -->
<g id="node6" class="node">
<title>Node6</title>
<g id="a_node6"><a xlink:href="class_o_c_a_1_1_c_a_f_e_v_d_b_1_1_storage_1_1_database_1_1_storage.html#ae16b6afbab9462a9af681b9393af361e" target="_top" xlink:title="{}">
<polygon fill="white" stroke="#666666" points="355.5,-132 299.5,-132 299.5,-113 355.5,-113 355.5,-132"/>
<text text-anchor="middle" x="327.5" y="-120" font-family="Helvetica,sans-Serif" font-size="10.00">filemtime</text>
</a>
</g>
</g>
<!-- Node1&#45;&gt;Node6 -->
<g id="edge6" class="edge">
<title>Node1&#45;&gt;Node6</title>
<path fill="none" stroke="#63b8ff" d="M383.36,-98.48C372.8,-103.1 361.08,-108.23 351.2,-112.56"/>
<polygon fill="#63b8ff" stroke="#63b8ff" points="384.68,-101.72 392.44,-94.5 381.87,-95.31 384.68,-101.72"/>
</g>
<!-- Node8 -->
<g id="node8" class="node">
<title>Node8</title>
<g id="a_node8"><a xlink:href="class_o_c_a_1_1_c_a_f_e_v_d_b_1_1_storage_1_1_database_1_1_storage.html#ad22e004288b7149fe24fb166f4cff9ee" target="_top" xlink:title="{}">
<polygon fill="white" stroke="#666666" points="351,-95 304,-95 304,-76 351,-76 351,-95"/>
<text text-anchor="middle" x="327.5" y="-83" font-family="Helvetica,sans-Serif" font-size="10.00">filesize</text>
</a>
</g>
</g>
<!-- Node1&#45;&gt;Node8 -->
<g id="edge8" class="edge">
<title>Node1&#45;&gt;Node8</title>
<path fill="none" stroke="#63b8ff" d="M382.36,-85.5C372.06,-85.5 360.77,-85.5 351.2,-85.5"/>
<polygon fill="#63b8ff" stroke="#63b8ff" points="382.31,-89 392.31,-85.5 382.31,-82 382.31,-89"/>
</g>
<!-- Node10 -->
<g id="node10" class="node">
<title>Node10</title>
<g id="a_node10"><a xlink:href="class_o_c_a_1_1_c_a_f_e_v_d_b_1_1_storage_1_1_database_1_1_storage.html#a5dfe312b58b1d4f0dddbe0d1cf96fa2e" target="_top" xlink:title="{}">
<polygon fill="white" stroke="#666666" points="48,-76 0,-76 0,-57 48,-57 48,-76"/>
<text text-anchor="middle" x="24" y="-64" font-family="Helvetica,sans-Serif" font-size="10.00">filetype</text>
</a>
</g>
</g>
<!-- Node1&#45;&gt;Node10 -->
<g id="edge11" class="edge">
<title>Node1&#45;&gt;Node10</title>
<path fill="none" stroke="#63b8ff" d="M382.9,-73.09C374.94,-70.37 366.26,-67.89 358,-66.5 243.12,-47.22 102.78,-58.29 48.23,-63.88"/>
<polygon fill="#63b8ff" stroke="#63b8ff" points="381.54,-76.32 392.14,-76.49 383.96,-69.75 381.54,-76.32"/>
</g>
<!-- Node11 -->
<g id="node11" class="node">
<title>Node11</title>
<g id="a_node11"><a xlink:href="class_o_c_a_1_1_c_a_f_e_v_d_b_1_1_storage_1_1_database_1_1_storage.html#a1ca869d721a349a2b5efaaca3dffc49d" target="_top" xlink:title="{}">
<polygon fill="white" stroke="#666666" points="351.5,-19 303.5,-19 303.5,0 351.5,0 351.5,-19"/>
<text text-anchor="middle" x="327.5" y="-7" font-family="Helvetica,sans-Serif" font-size="10.00">opendir</text>
</a>
</g>
</g>
<!-- Node1&#45;&gt;Node11 -->
<g id="edge12" class="edge">
<title>Node1&#45;&gt;Node11</title>
<path fill="none" stroke="#63b8ff" d="M395.01,-67.85C384.42,-57.62 370.66,-44.6 358,-33.5 352.54,-28.71 346.33,-23.61 341.01,-19.34"/>
<polygon fill="#63b8ff" stroke="#63b8ff" points="392.38,-70.17 401.99,-74.63 397.26,-65.15 392.38,-70.17"/>
</g>
<!-- Node3 -->
<g id="node3" class="node">
<title>Node3</title>
<g id="a_node3"><a xlink:href="class_o_c_a_1_1_c_a_f_e_v_d_b_1_1_storage_1_1_database_1_1_storage.html#a4572a171f5a258fb746f2ec694f377ee" target="_top" xlink:title="{}">
<polygon fill="white" stroke="#666666" points="193,-265 152,-265 152,-246 193,-246 193,-265"/>
<text text-anchor="middle" x="172.5" y="-253" font-family="Helvetica,sans-Serif" font-size="10.00">fopen</text>
</a>
</g>
</g>
<!-- Node2&#45;&gt;Node3 -->
<g id="edge2" class="edge">
<title>Node2&#45;&gt;Node3</title>
<path fill="none" stroke="#63b8ff" d="M305.77,-211.05C293.42,-220.13 277.07,-230.86 261,-237.5 238.78,-246.68 211.39,-251.34 193.24,-253.59"/>
<polygon fill="#63b8ff" stroke="#63b8ff" points="307.69,-213.99 313.53,-205.15 303.45,-208.42 307.69,-213.99"/>
</g>
<!-- Node4 -->
<g id="node4" class="node">
<title>Node4</title>
<g id="a_node4"><a xlink:href="class_o_c_a_1_1_c_a_f_e_v_d_b_1_1_storage_1_1_database_1_1_storage.html#ab7218f0ad1a09fdb0e0157d2beadbfb2" target="_top" xlink:title="{}">
<polygon fill="white" stroke="#666666" points="205,-228 140,-228 140,-209 205,-209 205,-228"/>
<text text-anchor="middle" x="172.5" y="-216" font-family="Helvetica,sans-Serif" font-size="10.00">isReadable</text>
</a>
</g>
</g>
<!-- Node2&#45;&gt;Node4 -->
<g id="edge4" class="edge">
<title>Node2&#45;&gt;Node4</title>
<path fill="none" stroke="#63b8ff" d="M285.6,-200.92C260.45,-204.86 228.69,-209.84 205.4,-213.5"/>
<polygon fill="#63b8ff" stroke="#63b8ff" points="285.8,-204.43 295.14,-199.42 284.72,-197.51 285.8,-204.43"/>
</g>
<!-- Node5 -->
<g id="node5" class="node">
<title>Node5</title>
<g id="a_node5"><a xlink:href="class_o_c_a_1_1_c_a_f_e_v_d_b_1_1_storage_1_1_database_1_1_project_balance_supporting_documents_storage.html#a8899a09a9d81b77b06ec4e371278d536" target="_top" xlink:title="{{}}">
<polygon fill="white" stroke="#666666" points="261,-191 84,-191 84,-150 261,-150 261,-191"/>
<text text-anchor="start" x="92" y="-179" font-family="Helvetica,sans-Serif" font-size="10.00">OCA\CAFEVDB\Storage</text>
<text text-anchor="start" x="92" y="-168" font-family="Helvetica,sans-Serif" font-size="10.00">\Database\ProjectBalanceSupporting</text>
<text text-anchor="middle" x="172.5" y="-157" font-family="Helvetica,sans-Serif" font-size="10.00">DocumentsStorage\isUpdatable</text>
</a>
</g>
</g>
<!-- Node2&#45;&gt;Node5 -->
<g id="edge5" class="edge">
<title>Node2&#45;&gt;Node5</title>
<path fill="none" stroke="#63b8ff" d="M285.37,-188.05C277.86,-186.87 269.76,-185.6 261.48,-184.3"/>
<polygon fill="#63b8ff" stroke="#63b8ff" points="284.72,-191.49 295.14,-189.58 285.8,-184.57 284.72,-191.49"/>
</g>
<!-- Node3&#45;&gt;Node3 -->
<g id="edge3" class="edge">
<title>Node3&#45;&gt;Node3</title>
<path fill="none" stroke="#63b8ff" d="M200.34,-272.55C200.49,-278.34 191.21,-283 172.5,-283 144.66,-283 137.7,-272.69 151.62,-263.66"/>
<polygon fill="#63b8ff" stroke="#63b8ff" points="203.24,-270.57 194.32,-264.86 197.72,-274.89 203.24,-270.57"/>
</g>
<!-- Node7 -->
<g id="node7" class="node">
<title>Node7</title>
<g id="a_node7"><a xlink:href="class_o_c_a_1_1_c_a_f_e_v_d_b_1_1_storage_1_1_database_1_1_storage.html#ae949e0991a703081d8b1c95f871e5025" target="_top" xlink:title="{}">
<polygon fill="white" stroke="#666666" points="207,-132 138,-132 138,-113 207,-113 207,-132"/>
<text text-anchor="middle" x="172.5" y="-120" font-family="Helvetica,sans-Serif" font-size="10.00">hasUpdated</text>
</a>
</g>
</g>
<!-- Node6&#45;&gt;Node7 -->
<g id="edge7" class="edge">
<title>Node6&#45;&gt;Node7</title>
<path fill="none" stroke="#63b8ff" d="M287.95,-122.5C263.11,-122.5 231.14,-122.5 207.3,-122.5"/>
<polygon fill="#63b8ff" stroke="#63b8ff" points="287.63,-126 297.63,-122.5 287.63,-119 287.63,-126"/>
</g>
<!-- Node9 -->
<g id="node9" class="node">
<title>Node9</title>
<g id="a_node9"><a xlink:href="class_o_c_a_1_1_c_a_f_e_v_d_b_1_1_storage_1_1_database_1_1_storage.html#ae93aaa5a52d031b9df08764bda508255" target="_top" xlink:title="{}">
<polygon fill="white" stroke="#666666" points="193.5,-95 151.5,-95 151.5,-76 193.5,-76 193.5,-95"/>
<text text-anchor="middle" x="172.5" y="-83" font-family="Helvetica,sans-Serif" font-size="10.00">is_file</text>
</a>
</g>
</g>
<!-- Node8&#45;&gt;Node9 -->
<g id="edge9" class="edge">
<title>Node8&#45;&gt;Node9</title>
<path fill="none" stroke="#63b8ff" d="M292.27,-85.5C261.95,-85.5 218.71,-85.5 193.63,-85.5"/>
<polygon fill="#63b8ff" stroke="#63b8ff" points="292.08,-89 302.08,-85.5 292.08,-82 292.08,-89"/>
</g>
<!-- Node9&#45;&gt;Node10 -->
<g id="edge10" class="edge">
<title>Node9&#45;&gt;Node10</title>
<path fill="none" stroke="#63b8ff" d="M139.77,-81.38C112.25,-77.82 73.06,-72.73 48.34,-69.53"/>
<polygon fill="#63b8ff" stroke="#63b8ff" points="139.26,-84.85 149.63,-82.66 140.16,-77.91 139.26,-84.85"/>
</g>
</g>
</svg>
