<?xml version="1.0" encoding="UTF-8" standalone="no"?>
<!DOCTYPE svg PUBLIC "-//W3C//DTD SVG 1.1//EN"
 "http://www.w3.org/Graphics/SVG/1.1/DTD/svg11.dtd">
<!-- Generated by graphviz version 15.1.0 (20260618.0150)
 -->
<!-- Title: beforeDeleteSimplyDoDelete Pages: 1 -->
<!--zoomable 28 -->

<svg id="main" version="1.1" xmlns="http://www.w3.org/2000/svg" xmlns:xlink="http://www.w3.org/1999/xlink" xml:space="preserve" onload="init(evt)">

<style type="text/css"><![CDATA[
.node, .edge {opacity: 0.7;}
.node.selected, .edge.selected {opacity: 1;}
.edge:hover path { stroke: red; }
.edge:hover polygon { stroke: red; fill: red; }
]]></style>

<defs>
  <circle id="rim" cx="0" cy="0" r="7"/>
  <circle id="rim2" cx="0" cy="0" r="3.5"/>
  <g id="zoomPlus">
    <use xlink:href="#rim" fill="#404040"><set attributeName="fill" to="#808080" begin="zoomplus.mouseover" end="zoomplus.mouseout"/></use>
    <path d="M-4,0h8M0,-4v8" fill="none" stroke="white" stroke-width="1.5" pointer-events="none"/>
  </g>
  <g id="zoomMin">
    <use xlink:href="#rim" fill="#404040"><set attributeName="fill" to="#808080" begin="zoomminus.mouseover" end="zoomminus.mouseout"/></use>
    <path d="M-4,0h8" fill="none" stroke="white" stroke-width="1.5" pointer-events="none"/>
  </g>
  <g id="arrowUp" transform="translate(30 24)">
    <use xlink:href="#rim"/>
    <path pointer-events="none" fill="none" stroke="white" stroke-width="1.5" d="M0,-3.0v7 M-2.5,-0.5L0,-3.0L2.5,-0.5"/>
  </g>
  <g id="arrowRight" transform="rotate(90) translate(36 -43)">
    <use xlink:href="#rim"/>
    <path pointer-events="none" fill="none" stroke="white" stroke-width="1.5" d="M0,-3.0v7 M-2.5,-0.5L0,-3.0L2.5,-0.5"/>
  </g>
  <g id="arrowDown" transform="rotate(180) translate(-30 -48)">
    <use xlink:href="#rim"/>
    <path pointer-events="none" fill="none" stroke="white" stroke-width="1.5" d="M0,-3.0v7 M-2.5,-0.5L0,-3.0L2.5,-0.5"/>
  </g>
  <g id="arrowLeft" transform="rotate(270) translate(-36 17)">
    <use xlink:href="#rim"/>
    <path pointer-events="none" fill="none" stroke="white" stroke-width="1.5" d="M0,-3.0v7 M-2.5,-0.5L0,-3.0L2.5,-0.5"/>
  </g>
  <g id="resetDef">
    <use xlink:href="#rim2" fill="#404040"><set attributeName="fill" to="#808080" begin="reset.mouseover" end="reset.mouseout"/></use>
  </g>
</defs>
<script type="application/ecmascript">
var viewWidth = 522;
var viewHeight = 28;
var sectionId = 'dynsection-7';
</script>
<script type="application/ecmascript" xlink:href="svg.min.js"/>
<svg id="graph" class="graph">
<g id="viewport">
<title>beforeDeleteSimplyDoDelete</title>
<!-- Node1 -->
<g id="Node000001" class="node">
<title>Node1</title>
<g id="a_Node000001"><a xlink:title="This trigger simply deletes the given entity and prevents the legacy PHPMyEdit class to do the deleti...">
<polygon fill="#999999" stroke="#666666" points="142.75,-20 0,-20 0,0 142.75,0 142.75,-20"/>
<text xml:space="preserve" text-anchor="middle" x="71.38" y="-6.5" font-family="Helvetica,sans-Serif" font-size="10.00">beforeDeleteSimplyDoDelete</text>
</a>
</g>
</g>
<!-- Node2 -->
<g id="Node000002" class="node">
<title>Node2</title>
<g id="a_Node000002"><a xlink:href="class_o_c_a_1_1_c_a_f_e_v_d_b_1_1_page_renderer_1_1_p_m_e_table_view_base.html#a7366f4cd17cfac976a1b643f34542bcb" target="_top" xlink:title="Convert the given legacy PHPMyEdit record id as given by the member variable PHPMyEdit\rec to somethi...">
<polygon fill="white" stroke="#666666" points="299,-20 178.75,-20 178.75,0 299,0 299,-20"/>
<text xml:space="preserve" text-anchor="middle" x="238.88" y="-6.5" font-family="Helvetica,sans-Serif" font-size="10.00">legacyRecordToEntityId</text>
</a>
</g>
</g>
<!-- Node1&#45;&gt;Node2 -->
<g id="edge1_Node000001_Node000002" class="edge">
<title>Node1&#45;&gt;Node2</title>
<g id="a_edge1_Node000001_Node000002"><a xlink:title=" ">
<path fill="none" stroke="#63b8ff" d="M143.04,-10C150.95,-10 159.01,-10 166.93,-10"/>
<polygon fill="#63b8ff" stroke="#63b8ff" points="166.87,-13.5 176.87,-10 166.87,-6.5 166.87,-13.5"/>
</a>
</g>
</g>
<!-- Node3 -->
<g id="Node000003" class="node">
<title>Node3</title>
<g id="a_Node000003"><a xlink:href="class_o_c_a_1_1_c_a_f_e_v_d_b_1_1_page_renderer_1_1_p_m_e_table_view_base.html#a52123174818955fa46c5c9d7669097e0" target="_top" xlink:title="Print an entity id without causing print_r infinite recursion.">
<polygon fill="white" stroke="#666666" points="397.5,-20 335,-20 335,0 397.5,0 397.5,-20"/>
<text xml:space="preserve" text-anchor="middle" x="366.25" y="-6.5" font-family="Helvetica,sans-Serif" font-size="10.00">logEntityId</text>
</a>
</g>
</g>
<!-- Node2&#45;&gt;Node3 -->
<g id="edge2_Node000002_Node000003" class="edge">
<title>Node2&#45;&gt;Node3</title>
<g id="a_edge2_Node000002_Node000003"><a xlink:title=" ">
<path fill="none" stroke="#63b8ff" d="M299.26,-10C307.41,-10 315.64,-10 323.39,-10"/>
<polygon fill="#63b8ff" stroke="#63b8ff" points="323.2,-13.5 333.2,-10 323.2,-6.5 323.2,-13.5"/>
</a>
</g>
</g>
<!-- Node4 -->
<g id="Node000004" class="node">
<title>Node4</title>
<g id="a_Node000004"><a xlink:href="class_o_c_a_1_1_c_a_f_e_v_d_b_1_1_page_renderer_1_1_p_m_e_table_view_base.html#a685664a241ded617239a4d9f395eb2bf" target="_top" xlink:title="Debug helper, flatten an entity id.">
<polygon fill="white" stroke="#666666" points="514,-20 433.5,-20 433.5,0 514,0 514,-20"/>
<text xml:space="preserve" text-anchor="middle" x="473.75" y="-6.5" font-family="Helvetica,sans-Serif" font-size="10.00">flattenIdentifier</text>
</a>
</g>
</g>
<!-- Node3&#45;&gt;Node4 -->
<g id="edge3_Node000003_Node000004" class="edge">
<title>Node3&#45;&gt;Node4</title>
<g id="a_edge3_Node000003_Node000004"><a xlink:title=" ">
<path fill="none" stroke="#63b8ff" d="M397.76,-10C405.29,-10 413.56,-10 421.77,-10"/>
<polygon fill="#63b8ff" stroke="#63b8ff" points="421.74,-13.5 431.74,-10 421.74,-6.5 421.74,-13.5"/>
</a>
</g>
</g>
</g>
</svg>

<g id="navigator" transform="translate(0 0)" fill="#404254">
  <rect fill="#f2f5e9" fill-opacity="0.5" stroke="#606060" stroke-width=".5" x="0" y="0" width="60" height="60"/>
  <use id="zoomplus" xlink:href="#zoomPlus" x="17" y="9" onmousedown="handleZoom(evt,'in')"/>
  <use id="zoomminus" xlink:href="#zoomMin" x="42" y="9" onmousedown="handleZoom(evt,'out')"/>
  <use id="reset" xlink:href="#resetDef" x="30" y="36" onmousedown="handleReset()"/>
   <use id="arrowup" xlink:href="#arrowUp" x="0" y="0" onmousedown="handlePan(0,-1)"/>
  <use id="arrowright" xlink:href="#arrowRight" x="0" y="0" onmousedown="handlePan(1,0)"/>
  <use id="arrowdown" xlink:href="#arrowDown" x="0" y="0" onmousedown="handlePan(0,1)"/>
  <use id="arrowleft" xlink:href="#arrowLeft" x="0" y="0" onmousedown="handlePan(-1,0)"/>
</g>
<svg viewBox="0 0 15 15" width="100%" height="30px" preserveAspectRatio="xMaxYMin meet">
 <g id="arrow_out" transform="scale(0.3 0.3)">
  <a xlink:href="class_o_c_a_1_1_c_a_f_e_v_d_b_1_1_page_renderer_1_1_p_m_e_table_view_base_a55f854e5c60ee53f8fc408fbd4127ac1_cgraph_org.svg" target="_base">
   <rect id="button" ry="5" rx="5" y="6" x="6" height="38" width="38"
        fill="#f2f5e9" fill-opacity="0.5" stroke="#606060" stroke-width="1.0"/>
   <path id="arrow"
     d="M 11.500037,31.436501 C 11.940474,20.09759 22.043105,11.32322 32.158766,21.979434 L 37.068811,17.246167 C 37.068811,17.246167 37.088388,32 37.088388,32 L 22.160133,31.978069 C 22.160133,31.978069 26.997745,27.140456 26.997745,27.140456 C 18.528582,18.264221 13.291696,25.230495 11.500037,31.436501 z"
     style="fill:#404040;"/>
  </a>
 </g>
</svg>

<style type='text/css'>
<![CDATA[
[data-mouse-over-selected='false'] { opacity: 0.7; }
[data-mouse-over-selected='true']  { opacity: 1.0; }
]]>
</style>
<script type="application/ecmascript"><![CDATA[
document.addEventListener('DOMContentLoaded', (event) => {
  highlightEdges();
  highlightAdjacentNodes();
});
]]></script>
</svg>
