<?xml version="1.0" encoding="UTF-8" standalone="no"?>
<!DOCTYPE svg PUBLIC "-//W3C//DTD SVG 1.1//EN"
 "http://www.w3.org/Graphics/SVG/1.1/DTD/svg11.dtd">
<!-- Generated by graphviz version 9.0.0 (20230911.1827)
 -->
<!-- Title: getUserValue Pages: 1 -->
<svg width="301pt" height="142pt"
 viewBox="0.00 0.00 300.50 142.00" xmlns="http://www.w3.org/2000/svg" xmlns:xlink="http://www.w3.org/1999/xlink">

<svg id="main" version="1.1" xmlns="http://www.w3.org/2000/svg" xmlns:xlink="http://www.w3.org/1999/xlink" xml:space="preserve" onload="init(evt)">
<style type="text/css"><![CDATA[
.node, .edge {opacity: 0.7;}
.node.selected, .edge.selected {opacity: 1;}
.edge:hover path { stroke: red; }
.edge:hover polygon { stroke: red; fill: red; }
]]></style>
<script type="application/ecmascript" xlink:href="svg.min.js"/>
<svg id="graph" class="graph">
<g id="graph0" class="graph" transform="scale(1 1) rotate(0) translate(4 138)">
<title>getUserValue</title>
<!-- Node1 -->
<g id="Node000001" class="node">
<title>Node1</title>
<g id="a_Node000001"><a xlink:title=" ">
<polygon fill="#999999" stroke="#666666" points="292.5,-77 218,-77 218,-57 292.5,-57 292.5,-77"/>
<text text-anchor="middle" x="255.25" y="-63.5" font-family="Helvetica,sans-Serif" font-size="10.00">getUserValue</text>
</a>
</g>
</g>
<!-- Node2 -->
<g id="Node000002" class="node">
<title>Node2</title>
<g id="a_Node000002"><a xlink:href="class_o_c_a_1_1_c_a_f_e_v_d_b_1_1_crypto_1_1_cloud_asymmetric_key_storage.html#aef8f7425caa5f04d01398286d6854f88" target="_top" xlink:title="{Make a backup copy.Meant as safe&#45;guard while changing the key and recrypting encrypted data....">
<polygon fill="white" stroke="#666666" points="182,-134 100,-134 100,-114 182,-114 182,-134"/>
<text text-anchor="middle" x="141" y="-120.5" font-family="Helvetica,sans-Serif" font-size="10.00">backupKeyPair</text>
</a>
</g>
</g>
<!-- Node1&#45;&gt;Node2 -->
<g id="edge1_Node000001_Node000002" class="edge">
<title>Node1&#45;&gt;Node2</title>
<g id="a_edge1_Node000001_Node000002"><a xlink:title=" ">
<path fill="none" stroke="#63b8ff" d="M223.48,-82.62C204.06,-92.49 179.51,-104.95 162.46,-113.61"/>
<polygon fill="#63b8ff" stroke="#63b8ff" points="224.98,-85.79 232.31,-78.14 221.81,-79.55 224.98,-85.79"/>
</a>
</g>
</g>
<!-- Node3 -->
<g id="Node000003" class="node">
<title>Node3</title>
<g id="a_Node000003"><a xlink:href="class_o_c_a_1_1_c_a_f_e_v_d_b_1_1_crypto_1_1_cloud_asymmetric_key_storage.html#a042db151aba1db9684f8bee2e2c8575e" target="_top" xlink:title="{Retrieve an existing private/public key pair from the key&#45;storage.array&lt;string, string&gt; [ &#39;privateEn...">
<polygon fill="white" stroke="#666666" points="64,-77 0,-77 0,-57 64,-57 64,-77"/>
<text text-anchor="middle" x="32" y="-63.5" font-family="Helvetica,sans-Serif" font-size="10.00">getKeyPair</text>
</a>
</g>
</g>
<!-- Node1&#45;&gt;Node3 -->
<g id="edge2_Node000001_Node000003" class="edge">
<title>Node1&#45;&gt;Node3</title>
<g id="a_edge2_Node000001_Node000003"><a xlink:title=" ">
<path fill="none" stroke="#63b8ff" d="M206.38,-67C163.29,-67 101.22,-67 64.22,-67"/>
<polygon fill="#63b8ff" stroke="#63b8ff" points="206.2,-70.5 216.2,-67 206.2,-63.5 206.2,-70.5"/>
</a>
</g>
</g>
<!-- Node4 -->
<g id="Node000004" class="node">
<title>Node4</title>
<g id="a_Node000004"><a xlink:href="class_o_c_a_1_1_c_a_f_e_v_d_b_1_1_crypto_1_1_cloud_asymmetric_key_storage.html#a234d412fd67a827e1ef76aee0263a985" target="_top" xlink:title="{Retrieve an existing pulic key from the key&#45;storage.mixed|null Public key or null if none is found....">
<polygon fill="white" stroke="#666666" points="177.88,-58 104.12,-58 104.12,-38 177.88,-38 177.88,-58"/>
<text text-anchor="middle" x="141" y="-44.5" font-family="Helvetica,sans-Serif" font-size="10.00">getPublicKey</text>
</a>
</g>
</g>
<!-- Node1&#45;&gt;Node4 -->
<g id="edge3_Node000001_Node000004" class="edge">
<title>Node1&#45;&gt;Node4</title>
<g id="a_edge3_Node000001_Node000004"><a xlink:title=" ">
<path fill="none" stroke="#63b8ff" d="M206.5,-58.92C197.05,-57.32 187.26,-55.66 178.26,-54.14"/>
<polygon fill="#63b8ff" stroke="#63b8ff" points="205.87,-62.36 216.31,-60.58 207.04,-55.46 205.87,-62.36"/>
</a>
</g>
</g>
<!-- Node5 -->
<g id="Node000005" class="node">
<title>Node5</title>
<g id="a_Node000005"><a xlink:href="class_o_c_a_1_1_c_a_f_e_v_d_b_1_1_crypto_1_1_cloud_asymmetric_key_storage.html#a8f8149776a05e7ef6d08ea772f2b4ecc" target="_top" xlink:title="{Restores a backup previously generated by backupKeyPair().Overwrites the currently active key&#45;pair w...">
<polygon fill="white" stroke="#666666" points="181.25,-20 100.75,-20 100.75,0 181.25,0 181.25,-20"/>
<text text-anchor="middle" x="141" y="-6.5" font-family="Helvetica,sans-Serif" font-size="10.00">restoreKeyPair</text>
</a>
</g>
</g>
<!-- Node1&#45;&gt;Node5 -->
<g id="edge5_Node000001_Node000005" class="edge">
<title>Node1&#45;&gt;Node5</title>
<g id="a_edge5_Node000001_Node000005"><a xlink:title=" ">
<path fill="none" stroke="#63b8ff" d="M225.15,-51.35C212.03,-44.38 196.3,-36.15 182,-29 176.36,-26.18 170.23,-23.22 164.5,-20.49"/>
<polygon fill="#63b8ff" stroke="#63b8ff" points="223.23,-54.29 233.71,-55.91 226.53,-48.12 223.23,-54.29"/>
</a>
</g>
</g>
<!-- Node4&#45;&gt;Node3 -->
<g id="edge4_Node000004_Node000003" class="edge">
<title>Node4&#45;&gt;Node3</title>
<g id="a_edge4_Node000004_Node000003"><a xlink:title=" ">
<path fill="none" stroke="#63b8ff" d="M92.65,-56.41C83.01,-58.12 73.09,-59.88 64.18,-61.46"/>
<polygon fill="#63b8ff" stroke="#63b8ff" points="93.05,-59.89 102.28,-54.7 91.83,-53 93.05,-59.89"/>
</a>
</g>
</g>
</g>
</svg>
</svg>

<style type='text/css'>
<![CDATA[
[data-mouse-over-selected='false'] { opacity: 0.7; }
[data-mouse-over-selected='true']  { opacity: 1.0; }
]]>
</style>
<script type="application/ecmascript"><![CDATA[
document.addEventListener('DOMContentLoaded', (event) => {
  highlightEdges();
  highlightAdjacentNodes();
});
]]></script>
</svg>
