<?xml version="1.0" encoding="UTF-8" standalone="no"?>
<!DOCTYPE svg PUBLIC "-//W3C//DTD SVG 1.1//EN"
 "http://www.w3.org/Graphics/SVG/1.1/DTD/svg11.dtd">
<!-- Generated by graphviz version 7.1.0 (20230121.1956)
 -->
<!-- Title: slugifyFileName Pages: 1 -->
<svg width="363pt" height="27pt"
 viewBox="0.00 0.00 363.00 27.00" xmlns="http://www.w3.org/2000/svg" xmlns:xlink="http://www.w3.org/1999/xlink">
<g id="graph0" class="graph" transform="scale(1 1) rotate(0) translate(4 23)">
<title>slugifyFileName</title>
<!-- Node1 -->
<g id="node1" class="node">
<title>Node1</title>
<g id="a_node1"><a xlink:title=" ">
<polygon fill="#999999" stroke="#666666" points="87,-19 0,-19 0,0 87,0 87,-19"/>
<text text-anchor="middle" x="43.5" y="-7" font-family="Helvetica,sans-Serif" font-size="10.00">slugifyFileName</text>
</a>
</g>
</g>
<!-- Node2 -->
<g id="node2" class="node">
<title>Node2</title>
<g id="a_node2"><a xlink:href="class_o_c_a_1_1_c_a_f_e_v_d_b_1_1_service_1_1_musician_service.html#a719369c18e17be9a1865044076917bcf" target="_top" xlink:title=" ">
<polygon fill="white" stroke="#666666" points="203,-19 123,-19 123,0 203,0 203,-19"/>
<text text-anchor="middle" x="163" y="-7" font-family="Helvetica,sans-Serif" font-size="10.00">getSlugPostfix</text>
</a>
</g>
</g>
<!-- Node1&#45;&gt;Node2 -->
<g id="edge1" class="edge">
<title>Node1&#45;&gt;Node2</title>
<path fill="none" stroke="#63b8ff" d="M87.25,-9.5C95.01,-9.5 103.17,-9.5 111.14,-9.5"/>
<polygon fill="#63b8ff" stroke="#63b8ff" points="111.08,-13 121.08,-9.5 111.08,-6 111.08,-13"/>
</g>
<!-- Node3 -->
<g id="node3" class="node">
<title>Node3</title>
<g id="a_node3"><a xlink:href="class_o_c_a_1_1_c_a_f_e_v_d_b_1_1_service_1_1_musician_service.html#a4bdc907f686e63542b0175ea3d7aadf2" target="_top" xlink:title="Convert a user&#45;id to a file&#45;name&#45;part avoiding &quot;duplicate&quot; extensions, i.e.">
<polygon fill="white" stroke="#666666" points="355,-19 239,-19 239,0 355,0 355,-19"/>
<text text-anchor="middle" x="297" y="-7" font-family="Helvetica,sans-Serif" font-size="10.00">userIdSlugToFileName</text>
</a>
</g>
</g>
<!-- Node2&#45;&gt;Node3 -->
<g id="edge2" class="edge">
<title>Node2&#45;&gt;Node3</title>
<path fill="none" stroke="#63b8ff" d="M203.25,-9.5C210.88,-9.5 219.08,-9.5 227.33,-9.5"/>
<polygon fill="#63b8ff" stroke="#63b8ff" points="227.07,-13 237.07,-9.5 227.07,-6 227.07,-13"/>
</g>
</g>
</svg>
