<?xml version="1.0" encoding="UTF-8" standalone="no"?>
<!DOCTYPE svg PUBLIC "-//W3C//DTD SVG 1.1//EN"
 "http://www.w3.org/Graphics/SVG/1.1/DTD/svg11.dtd">
<!-- Generated by graphviz version 9.0.0 (20230911.1827)
 -->
<!-- Title: setUser Pages: 1 -->
<svg width="465pt" height="142pt"
 viewBox="0.00 0.00 465.25 142.00" xmlns="http://www.w3.org/2000/svg" xmlns:xlink="http://www.w3.org/1999/xlink">

<svg id="main" version="1.1" xmlns="http://www.w3.org/2000/svg" xmlns:xlink="http://www.w3.org/1999/xlink" xml:space="preserve" onload="init(evt)">
<style type="text/css"><![CDATA[
.node, .edge {opacity: 0.7;}
.node.selected, .edge.selected {opacity: 1;}
.edge:hover path { stroke: red; }
.edge:hover polygon { stroke: red; fill: red; }
]]></style>
<script type="application/ecmascript" xlink:href="svg.min.js"/>
<svg id="graph" class="graph">
<g id="graph0" class="graph" transform="scale(1 1) rotate(0) translate(4 138)">
<title>setUser</title>
<!-- Node1 -->
<g id="Node000001" class="node">
<title>Node1</title>
<g id="a_Node000001"><a xlink:title="Install a new user.">
<polygon fill="#999999" stroke="#666666" points="457.25,-77 406.75,-77 406.75,-57 457.25,-57 457.25,-77"/>
<text text-anchor="middle" x="432" y="-63.5" font-family="Helvetica,sans-Serif" font-size="10.00">setUser</text>
</a>
</g>
</g>
<!-- Node2 -->
<g id="Node000002" class="node">
<title>Node2</title>
<g id="a_Node000002"><a xlink:href="class_o_c_a_1_1_c_a_f_e_v_d_b_1_1_service_1_1_config_service.html#a6cacbeb3555df4a292566b2e1b9bb574" target="_top" xlink:title="Install a new user id.">
<polygon fill="white" stroke="#666666" points="370.75,-77 312,-77 312,-57 370.75,-57 370.75,-77"/>
<text text-anchor="middle" x="341.38" y="-63.5" font-family="Helvetica,sans-Serif" font-size="10.00">setUserId</text>
</a>
</g>
</g>
<!-- Node1&#45;&gt;Node2 -->
<g id="edge1_Node000001_Node000002" class="edge">
<title>Node1&#45;&gt;Node2</title>
<g id="a_edge1_Node000001_Node000002"><a xlink:title=" ">
<path fill="none" stroke="#63b8ff" d="M395,-67C387.01,-67 378.65,-67 371,-67"/>
<polygon fill="#63b8ff" stroke="#63b8ff" points="394.8,-70.5 404.8,-67 394.8,-63.5 394.8,-70.5"/>
</a>
</g>
</g>
<!-- Node9 -->
<g id="Node000009" class="node">
<title>Node9</title>
<g id="a_Node000009"><a xlink:href="class_o_c_a_1_1_c_a_f_e_v_d_b_1_1_service_1_1_config_service.html#a53fe11e3dd3059d6379dfabaf2fce346" target="_top" xlink:title="Fake execution with other user&#45;id.">
<polygon fill="white" stroke="#666666" points="269.25,-39 232.25,-39 232.25,-19 269.25,-19 269.25,-39"/>
<text text-anchor="middle" x="250.75" y="-25.5" font-family="Helvetica,sans-Serif" font-size="10.00">sudo</text>
</a>
</g>
</g>
<!-- Node1&#45;&gt;Node9 -->
<g id="edge11_Node000001_Node000009" class="edge">
<title>Node1&#45;&gt;Node9</title>
<g id="a_edge11_Node000001_Node000009"><a xlink:title=" ">
<path fill="none" stroke="#63b8ff" d="M395.38,-54.82C387.34,-52.33 378.8,-49.9 370.75,-48 335.32,-39.63 293.08,-33.86 269.65,-31.02"/>
<polygon fill="#63b8ff" stroke="#63b8ff" points="394.28,-58.14 404.87,-57.85 396.41,-51.47 394.28,-58.14"/>
</a>
</g>
</g>
<!-- Node3 -->
<g id="Node000003" class="node">
<title>Node3</title>
<g id="a_Node000003"><a xlink:href="class_o_c_a_1_1_c_a_f_e_v_d_b_1_1_service_1_1_config_service.html#a8be64a59621bfe298a4109ce08229ecd" target="_top" xlink:title=" ">
<polygon fill="white" stroke="#666666" points="276,-77 225.5,-77 225.5,-57 276,-57 276,-77"/>
<text text-anchor="middle" x="250.75" y="-63.5" font-family="Helvetica,sans-Serif" font-size="10.00">getUser</text>
</a>
</g>
</g>
<!-- Node2&#45;&gt;Node3 -->
<g id="edge2_Node000002_Node000003" class="edge">
<title>Node2&#45;&gt;Node3</title>
<g id="a_edge2_Node000002_Node000003"><a xlink:title=" ">
<path fill="none" stroke="#63b8ff" d="M300.48,-60.28C292.26,-60.17 283.83,-60.37 276.35,-60.88"/>
<polygon fill="#63b8ff" stroke="#63b8ff" points="300.23,-63.77 310.33,-60.6 300.45,-56.78 300.23,-63.77"/>
</a>
</g>
</g>
<!-- Node2&#45;&gt;Node9 -->
<g id="edge10_Node000002_Node000009" class="edge">
<title>Node2&#45;&gt;Node9</title>
<g id="a_edge10_Node000002_Node000009"><a xlink:title=" ">
<path fill="none" stroke="#63b8ff" d="M305.65,-52.11C293.26,-46.8 279.83,-41.04 269.47,-36.6"/>
<polygon fill="#63b8ff" stroke="#63b8ff" points="304.2,-55.3 314.77,-56.02 306.96,-48.86 304.2,-55.3"/>
</a>
</g>
</g>
<!-- Node3&#45;&gt;Node1 -->
<g id="edge8_Node000003_Node000001" class="edge">
<title>Node3&#45;&gt;Node1</title>
<g id="a_edge8_Node000003_Node000001"><a xlink:title=" ">
<path fill="none" stroke="#63b8ff" d="M287.18,-80.14C295.23,-82.57 303.82,-84.74 312,-86 337.81,-89.97 344.94,-89.97 370.75,-86 382.78,-84.15 395.71,-80.33 406.49,-76.6"/>
<polygon fill="#63b8ff" stroke="#63b8ff" points="288.29,-76.82 277.7,-77.07 286.13,-83.48 288.29,-76.82"/>
</a>
</g>
</g>
<!-- Node3&#45;&gt;Node2 -->
<g id="edge9_Node000003_Node000002" class="edge">
<title>Node3&#45;&gt;Node2</title>
<g id="a_edge9_Node000003_Node000002"><a xlink:title=" ">
<path fill="none" stroke="#63b8ff" d="M287.72,-73.64C295.75,-73.85 304.16,-73.76 311.85,-73.35"/>
<polygon fill="#63b8ff" stroke="#63b8ff" points="288.01,-70.15 277.86,-73.19 287.69,-77.15 288.01,-70.15"/>
</a>
</g>
</g>
<!-- Node4 -->
<g id="Node000004" class="node">
<title>Node4</title>
<g id="a_Node000004"><a xlink:href="class_o_c_a_1_1_c_a_f_e_v_d_b_1_1_service_1_1_config_service.html#a05f6aa1ffae6295260d9f1cca016bf33" target="_top" xlink:title=" ">
<polygon fill="white" stroke="#666666" points="189.5,-77 130.75,-77 130.75,-57 189.5,-57 189.5,-77"/>
<text text-anchor="middle" x="160.12" y="-63.5" font-family="Helvetica,sans-Serif" font-size="10.00">getUserId</text>
</a>
</g>
</g>
<!-- Node3&#45;&gt;Node4 -->
<g id="edge3_Node000003_Node000004" class="edge">
<title>Node3&#45;&gt;Node4</title>
<g id="a_edge3_Node000003_Node000004"><a xlink:title=" ">
<path fill="none" stroke="#63b8ff" d="M213.75,-67C205.76,-67 197.4,-67 189.75,-67"/>
<polygon fill="#63b8ff" stroke="#63b8ff" points="213.55,-70.5 223.55,-67 213.55,-63.5 213.55,-70.5"/>
</a>
</g>
</g>
<!-- Node5 -->
<g id="Node000005" class="node">
<title>Node5</title>
<g id="a_Node000005"><a xlink:href="class_o_c_a_1_1_c_a_f_e_v_d_b_1_1_service_1_1_config_service.html#a7edad4866aa3ca9b33d80a94bbca867f" target="_top" xlink:title=" ">
<polygon fill="white" stroke="#666666" points="84.62,-134 10.12,-134 10.12,-114 84.62,-114 84.62,-134"/>
<text text-anchor="middle" x="47.38" y="-120.5" font-family="Helvetica,sans-Serif" font-size="10.00">getUserValue</text>
</a>
</g>
</g>
<!-- Node4&#45;&gt;Node5 -->
<g id="edge4_Node000004_Node000005" class="edge">
<title>Node4&#45;&gt;Node5</title>
<g id="a_edge4_Node000004_Node000005"><a xlink:title=" ">
<path fill="none" stroke="#63b8ff" d="M133.58,-83.23C121.95,-90.32 107.87,-98.48 94.75,-105 88.67,-108.02 81.99,-110.96 75.64,-113.6"/>
<polygon fill="#63b8ff" stroke="#63b8ff" points="135.13,-86.38 141.79,-78.15 131.45,-80.43 135.13,-86.38"/>
</a>
</g>
</g>
<!-- Node6 -->
<g id="Node000006" class="node">
<title>Node6</title>
<g id="a_Node000006"><a xlink:href="class_o_c_a_1_1_c_a_f_e_v_d_b_1_1_service_1_1_config_service.html#a5b0f9418642a2dfbcfde1475c7d10c9d" target="_top" xlink:title=" ">
<polygon fill="white" stroke="#666666" points="72.25,-96 22.5,-96 22.5,-76 72.25,-76 72.25,-96"/>
<text text-anchor="middle" x="47.38" y="-82.5" font-family="Helvetica,sans-Serif" font-size="10.00">inGroup</text>
</a>
</g>
</g>
<!-- Node4&#45;&gt;Node6 -->
<g id="edge5_Node000004_Node000006" class="edge">
<title>Node4&#45;&gt;Node6</title>
<g id="a_edge5_Node000004_Node000006"><a xlink:title=" ">
<path fill="none" stroke="#63b8ff" d="M119.32,-73.83C103.68,-76.51 86.23,-79.51 72.55,-81.85"/>
<polygon fill="#63b8ff" stroke="#63b8ff" points="119.56,-77.34 128.82,-72.2 118.38,-70.44 119.56,-77.34"/>
</a>
</g>
</g>
<!-- Node7 -->
<g id="Node000007" class="node">
<title>Node7</title>
<g id="a_Node000007"><a xlink:href="class_o_c_a_1_1_c_a_f_e_v_d_b_1_1_service_1_1_config_service.html#ac4ad7078760328d6a49ad2ddb251b8fb" target="_top" xlink:title="Check if the currently logged in or given user&#45;id belongs to the dedicated sub&#45;admin group.">
<polygon fill="white" stroke="#666666" points="94.75,-58 0,-58 0,-38 94.75,-38 94.75,-58"/>
<text text-anchor="middle" x="47.38" y="-44.5" font-family="Helvetica,sans-Serif" font-size="10.00">inSubAdminGroup</text>
</a>
</g>
</g>
<!-- Node4&#45;&gt;Node7 -->
<g id="edge6_Node000004_Node000007" class="edge">
<title>Node4&#45;&gt;Node7</title>
<g id="a_edge6_Node000004_Node000007"><a xlink:title=" ">
<path fill="none" stroke="#63b8ff" d="M119.23,-60.16C111.39,-58.81 103.1,-57.39 95.06,-56.01"/>
<polygon fill="#63b8ff" stroke="#63b8ff" points="118.38,-63.56 128.82,-61.8 119.56,-56.66 118.38,-63.56"/>
</a>
</g>
</g>
<!-- Node8 -->
<g id="Node000008" class="node">
<title>Node8</title>
<g id="a_Node000008"><a xlink:href="class_o_c_a_1_1_c_a_f_e_v_d_b_1_1_service_1_1_config_service.html#ab47d7f5da92d211bb6c3a02d2cc5ca07" target="_top" xlink:title=" ">
<polygon fill="white" stroke="#666666" points="84.62,-20 10.12,-20 10.12,0 84.62,0 84.62,-20"/>
<text text-anchor="middle" x="47.38" y="-6.5" font-family="Helvetica,sans-Serif" font-size="10.00">setUserValue</text>
</a>
</g>
</g>
<!-- Node4&#45;&gt;Node8 -->
<g id="edge7_Node000004_Node000008" class="edge">
<title>Node4&#45;&gt;Node8</title>
<g id="a_edge7_Node000004_Node000008"><a xlink:title=" ">
<path fill="none" stroke="#63b8ff" d="M133.58,-50.77C121.95,-43.68 107.87,-35.52 94.75,-29 88.67,-25.98 81.99,-23.04 75.64,-20.4"/>
<polygon fill="#63b8ff" stroke="#63b8ff" points="131.45,-53.57 141.79,-55.85 135.13,-47.62 131.45,-53.57"/>
</a>
</g>
</g>
</g>
</svg>
</svg>

<style type='text/css'>
<![CDATA[
[data-mouse-over-selected='false'] { opacity: 0.7; }
[data-mouse-over-selected='true']  { opacity: 1.0; }
]]>
</style>
<script type="application/ecmascript"><![CDATA[
document.addEventListener('DOMContentLoaded', (event) => {
  highlightEdges();
  highlightAdjacentNodes();
});
]]></script>
</svg>
