<?xml version="1.0" encoding="UTF-8" standalone="no"?>
<!DOCTYPE svg PUBLIC "-//W3C//DTD SVG 1.1//EN"
 "http://www.w3.org/Graphics/SVG/1.1/DTD/svg11.dtd">
<!-- Generated by graphviz version 7.1.0 (20230121.1956)
 -->
<!-- Title: timeStamp Pages: 1 -->
<svg width="334pt" height="27pt"
 viewBox="0.00 0.00 334.00 27.00" xmlns="http://www.w3.org/2000/svg" xmlns:xlink="http://www.w3.org/1999/xlink">
<g id="graph0" class="graph" transform="scale(1 1) rotate(0) translate(4 23)">
<title>timeStamp</title>
<!-- Node1 -->
<g id="node1" class="node">
<title>Node1</title>
<g id="a_node1"><a xlink:title="Call ConfigService::formatTimeStamp() with the current date and time.">
<polygon fill="#999999" stroke="#666666" points="64,-19 0,-19 0,0 64,0 64,-19"/>
<text text-anchor="middle" x="32" y="-7" font-family="Helvetica,sans-Serif" font-size="10.00">timeStamp</text>
</a>
</g>
</g>
<!-- Node2 -->
<g id="node2" class="node">
<title>Node2</title>
<g id="a_node2"><a xlink:href="class_o_c_a_1_1_c_a_f_e_v_d_b_1_1_service_1_1_config_service.html#a57c3c7fb273857ea74f6a61d4ee97df1" target="_top" xlink:title="Format the given date according to $format and $timeZone to a human readable time&#45;stamp,...">
<polygon fill="white" stroke="#666666" points="195,-19 100,-19 100,0 195,0 195,-19"/>
<text text-anchor="middle" x="147.5" y="-7" font-family="Helvetica,sans-Serif" font-size="10.00">formatTimeStamp</text>
</a>
</g>
</g>
<!-- Node1&#45;&gt;Node2 -->
<g id="edge1" class="edge">
<title>Node1&#45;&gt;Node2</title>
<path fill="none" stroke="#63b8ff" d="M64.31,-9.5C71.8,-9.5 80.04,-9.5 88.31,-9.5"/>
<polygon fill="#63b8ff" stroke="#63b8ff" points="88.04,-13 98.04,-9.5 88.04,-6 88.04,-13"/>
</g>
<!-- Node3 -->
<g id="node3" class="node">
<title>Node3</title>
<g id="a_node3"><a xlink:href="class_o_c_a_1_1_c_a_f_e_v_d_b_1_1_service_1_1_config_service.html#a40c1b03af72c7ab938c22e2c249dc272" target="_top" xlink:title="Get the current timezone.">
<polygon fill="white" stroke="#666666" points="326,-19 231,-19 231,0 326,0 326,-19"/>
<text text-anchor="middle" x="278.5" y="-7" font-family="Helvetica,sans-Serif" font-size="10.00">getDateTimeZone</text>
</a>
</g>
</g>
<!-- Node2&#45;&gt;Node3 -->
<g id="edge2" class="edge">
<title>Node2&#45;&gt;Node3</title>
<path fill="none" stroke="#63b8ff" d="M195.44,-9.5C203.27,-9.5 211.48,-9.5 219.55,-9.5"/>
<polygon fill="#63b8ff" stroke="#63b8ff" points="219.3,-13 229.3,-9.5 219.3,-6 219.3,-13"/>
</g>
</g>
</svg>
