<?xml version="1.0" encoding="UTF-8" standalone="no"?>
<!DOCTYPE svg PUBLIC "-//W3C//DTD SVG 1.1//EN"
 "http://www.w3.org/Graphics/SVG/1.1/DTD/svg11.dtd">
<!-- Generated by graphviz version 8.0.3 (20230416.2022)
 -->
<!-- Title: debug Pages: 1 -->
<svg width="615pt" height="177pt"
 viewBox="0.00 0.00 615.00 176.50" xmlns="http://www.w3.org/2000/svg" xmlns:xlink="http://www.w3.org/1999/xlink">
<g id="graph0" class="graph" transform="scale(1 1) rotate(0) translate(4 172.5)">
<title>debug</title>
<!-- Node1 -->
<g id="node1" class="node">
<title>Node1</title>
<g id="a_node1"><a xlink:title="Be noisy if debugging is enabled.">
<polygon fill="#999999" stroke="#666666" points="607,-95 564,-95 564,-76 607,-76 607,-95"/>
<text text-anchor="middle" x="585.5" y="-83" font-family="Helvetica,sans-Serif" font-size="10.00">debug</text>
</a>
</g>
</g>
<!-- Node2 -->
<g id="node2" class="node">
<title>Node2</title>
<g id="a_node2"><a xlink:href="class_o_c_a_1_1_c_a_f_e_v_d_b_1_1_page_renderer_1_1_p_m_e_table_view_base.html#a936748b21bb69d2a3f9d51e14ce2cd87" target="_top" xlink:title="Before insert&#45;trigger which ideally should insert all data such that nothing remains to be done for p...">
<polygon fill="white" stroke="#666666" points="370.5,-152 253.5,-152 253.5,-133 370.5,-133 370.5,-152"/>
<text text-anchor="middle" x="312" y="-140" font-family="Helvetica,sans-Serif" font-size="10.00">beforeInsertDoInsertAll</text>
</a>
</g>
</g>
<!-- Node1&#45;&gt;Node2 -->
<g id="edge1" class="edge">
<title>Node1&#45;&gt;Node2</title>
<path fill="none" stroke="#63b8ff" d="M553.39,-98.27C545.23,-101.28 536.37,-104.27 528,-106.5 475.53,-120.51 414.33,-130.12 370.67,-135.87"/>
<polygon fill="#63b8ff" stroke="#63b8ff" points="554.53,-101.19 562.61,-94.35 552.02,-94.66 554.53,-101.19"/>
</g>
<!-- Node5 -->
<g id="node5" class="node">
<title>Node5</title>
<g id="a_node5"><a xlink:href="class_o_c_a_1_1_c_a_f_e_v_d_b_1_1_page_renderer_1_1_p_m_e_table_view_base.html#a882a0897b82d354409342d1c195c2f4d" target="_top" xlink:title="Before update&#45;trigger which ideally should update all data such that nothing remains to do for phpMyE...">
<polygon fill="white" stroke="#666666" points="377.5,-115 246.5,-115 246.5,-96 377.5,-96 377.5,-115"/>
<text text-anchor="middle" x="312" y="-103" font-family="Helvetica,sans-Serif" font-size="10.00">beforeUpdateDoUpdateAll</text>
</a>
</g>
</g>
<!-- Node1&#45;&gt;Node5 -->
<g id="edge4" class="edge">
<title>Node1&#45;&gt;Node5</title>
<path fill="none" stroke="#63b8ff" d="M552.81,-87.83C510.1,-90.98 433.06,-96.66 377.82,-100.72"/>
<polygon fill="#63b8ff" stroke="#63b8ff" points="552.93,-91.26 562.65,-87.04 552.42,-84.28 552.93,-91.26"/>
</g>
<!-- Node6 -->
<g id="node6" class="node">
<title>Node6</title>
<g id="a_node6"><a xlink:href="class_o_c_a_1_1_c_a_f_e_v_d_b_1_1_page_renderer_1_1_p_m_e_table_view_base.html#a0160798c24d6bddc98d5192235a59982" target="_top" xlink:title=" ">
<polygon fill="white" stroke="#666666" points="528,-76 436,-76 436,-57 528,-57 528,-76"/>
<text text-anchor="middle" x="482" y="-64" font-family="Helvetica,sans-Serif" font-size="10.00">debugPrintValues</text>
</a>
</g>
</g>
<!-- Node1&#45;&gt;Node6 -->
<g id="edge6" class="edge">
<title>Node1&#45;&gt;Node6</title>
<path fill="none" stroke="#63b8ff" d="M553.35,-79.67C545.41,-78.18 536.73,-76.56 528.24,-74.97"/>
<polygon fill="#63b8ff" stroke="#63b8ff" points="552.49,-83.26 562.96,-81.66 553.77,-76.37 552.49,-83.26"/>
</g>
<!-- Node8 -->
<g id="node8" class="node">
<title>Node8</title>
<g id="a_node8"><a xlink:href="class_o_c_a_1_1_c_a_f_e_v_d_b_1_1_page_renderer_1_1_p_m_e_table_view_base.html#ac4930892b628989ea570c18ef64c0b4b" target="_top" xlink:title="The ranking of the mussician&#39;s instruments is implicitly stored in the order of the instrument ids.">
<polygon fill="white" stroke="#666666" points="376.5,-19 247.5,-19 247.5,0 376.5,0 376.5,-19"/>
<text text-anchor="middle" x="312" y="-7" font-family="Helvetica,sans-Serif" font-size="10.00">extractInstrumentRanking</text>
</a>
</g>
</g>
<!-- Node1&#45;&gt;Node8 -->
<g id="edge11" class="edge">
<title>Node1&#45;&gt;Node8</title>
<path fill="none" stroke="#63b8ff" d="M564.12,-69.29C553.84,-61.88 540.84,-53.62 528,-48.5 479.38,-29.1 420.7,-19.28 376.94,-14.35"/>
<polygon fill="#63b8ff" stroke="#63b8ff" points="561.63,-72.54 571.73,-75.75 565.83,-66.94 561.63,-72.54"/>
</g>
<!-- Node3 -->
<g id="node3" class="node">
<title>Node3</title>
<g id="a_node3"><a xlink:href="class_o_c_a_1_1_c_a_f_e_v_d_b_1_1_page_renderer_1_1_project_instrumentation_numbers.html#ab91557ae1e08e1183c76c9ce39edfe33" target="_top" xlink:title="{Show the underlying template page.This is supposed to echo html code to stdout. This is the default ...">
<polygon fill="white" stroke="#666666" points="188,-168.5 0,-168.5 0,-138.5 188,-138.5 188,-168.5"/>
<text text-anchor="start" x="8" y="-156.5" font-family="Helvetica,sans-Serif" font-size="10.00">OCA\CAFEVDB\PageRenderer</text>
<text text-anchor="middle" x="94" y="-145.5" font-family="Helvetica,sans-Serif" font-size="10.00">\ProjectInstrumentationNumbers\render</text>
</a>
</g>
</g>
<!-- Node2&#45;&gt;Node3 -->
<g id="edge2" class="edge">
<title>Node2&#45;&gt;Node3</title>
<path fill="none" stroke="#63b8ff" d="M242.56,-145.99C225.26,-146.87 206.39,-147.83 188.09,-148.76"/>
<polygon fill="#63b8ff" stroke="#63b8ff" points="242.31,-149.45 252.12,-145.45 241.95,-142.46 242.31,-149.45"/>
</g>
<!-- Node4 -->
<g id="node4" class="node">
<title>Node4</title>
<g id="a_node4"><a xlink:href="class_o_c_a_1_1_c_a_f_e_v_d_b_1_1_page_renderer_1_1_project_participant_fields.html#ab91557ae1e08e1183c76c9ce39edfe33" target="_top" xlink:title="{Show the underlying template page.This is supposed to echo html code to stdout. This is the default ...">
<polygon fill="white" stroke="#666666" points="171.5,-120.5 16.5,-120.5 16.5,-90.5 171.5,-90.5 171.5,-120.5"/>
<text text-anchor="start" x="24.5" y="-108.5" font-family="Helvetica,sans-Serif" font-size="10.00">OCA\CAFEVDB\PageRenderer</text>
<text text-anchor="middle" x="94" y="-97.5" font-family="Helvetica,sans-Serif" font-size="10.00">\ProjectParticipantFields\render</text>
</a>
</g>
</g>
<!-- Node2&#45;&gt;Node4 -->
<g id="edge3" class="edge">
<title>Node2&#45;&gt;Node4</title>
<path fill="none" stroke="#63b8ff" d="M242.32,-130.74C219.86,-126.89 194.76,-122.59 171.74,-118.65"/>
<polygon fill="#63b8ff" stroke="#63b8ff" points="241.67,-134.35 252.12,-132.58 242.85,-127.45 241.67,-134.35"/>
</g>
<!-- Node5&#45;&gt;Node4 -->
<g id="edge5" class="edge">
<title>Node5&#45;&gt;Node4</title>
<path fill="none" stroke="#63b8ff" d="M235.31,-105.5C214.78,-105.5 192.54,-105.5 171.94,-105.5"/>
<polygon fill="#63b8ff" stroke="#63b8ff" points="235.19,-109 245.19,-105.5 235.19,-102 235.19,-109"/>
</g>
<!-- Node6&#45;&gt;Node2 -->
<g id="edge7" class="edge">
<title>Node6&#45;&gt;Node2</title>
<path fill="none" stroke="#63b8ff" d="M462.16,-83.51C446.58,-96.66 423.31,-114.29 400,-124.5 390.82,-128.52 380.69,-131.66 370.69,-134.11"/>
<polygon fill="#63b8ff" stroke="#63b8ff" points="464.12,-85.57 469.38,-76.38 459.54,-80.28 464.12,-85.57"/>
</g>
<!-- Node6&#45;&gt;Node5 -->
<g id="edge8" class="edge">
<title>Node6&#45;&gt;Node5</title>
<path fill="none" stroke="#63b8ff" d="M434.01,-79.11C422.88,-81.97 411.04,-84.93 400,-87.5 388.13,-90.26 375.3,-93.04 363.24,-95.55"/>
<polygon fill="#63b8ff" stroke="#63b8ff" points="434.61,-82.31 443.4,-76.4 432.84,-75.53 434.61,-82.31"/>
</g>
<!-- Node7 -->
<g id="node7" class="node">
<title>Node7</title>
<g id="a_node7"><a xlink:href="class_o_c_a_1_1_c_a_f_e_v_d_b_1_1_page_renderer_1_1_instrument_insurances.html#a845b4952ec7ba86475b456928bd641ae" target="_top" xlink:title="Cleanup &quot;trigger&quot; which relocates several virtual inputs to their proper destination columns.">
<polygon fill="white" stroke="#666666" points="400,-78 224,-78 224,-37 400,-37 400,-78"/>
<text text-anchor="start" x="232" y="-66" font-family="Helvetica,sans-Serif" font-size="10.00">OCA\CAFEVDB\PageRenderer</text>
<text text-anchor="start" x="232" y="-55" font-family="Helvetica,sans-Serif" font-size="10.00">\InstrumentInsurances\beforeUpdate</text>
<text text-anchor="middle" x="312" y="-44" font-family="Helvetica,sans-Serif" font-size="10.00">OrInsertTrigger</text>
</a>
</g>
</g>
<!-- Node6&#45;&gt;Node7 -->
<g id="edge9" class="edge">
<title>Node6&#45;&gt;Node7</title>
<path fill="none" stroke="#63b8ff" d="M424.67,-63.48C416.79,-63.06 408.55,-62.62 400.26,-62.17"/>
<polygon fill="#63b8ff" stroke="#63b8ff" points="424.36,-67.02 434.54,-64.06 424.74,-60.03 424.36,-67.02"/>
</g>
<!-- Node6&#45;&gt;Node8 -->
<g id="edge10" class="edge">
<title>Node6&#45;&gt;Node8</title>
<path fill="none" stroke="#63b8ff" d="M454.08,-51.48C438.64,-43.4 418.68,-33.82 400,-27.5 390.8,-24.38 380.85,-21.71 371.09,-19.45"/>
<polygon fill="#63b8ff" stroke="#63b8ff" points="452.04,-54.9 462.51,-56.53 455.35,-48.73 452.04,-54.9"/>
</g>
</g>
</svg>
