<?xml version="1.0" encoding="UTF-8" standalone="no"?>
<!DOCTYPE svg PUBLIC "-//W3C//DTD SVG 1.1//EN"
 "http://www.w3.org/Graphics/SVG/1.1/DTD/svg11.dtd">
<!-- Generated by graphviz version 9.0.0 (20230911.1827)
 -->
<!-- Title: arraySliceKeys Pages: 1 -->
<svg width="760pt" height="238pt"
 viewBox="0.00 0.00 759.75 238.00" xmlns="http://www.w3.org/2000/svg" xmlns:xlink="http://www.w3.org/1999/xlink">
<g id="graph0" class="graph" transform="scale(1 1) rotate(0) translate(4 234)">
<title>arraySliceKeys</title>
<!-- Node1 -->
<g id="Node000001" class="node">
<title>Node1</title>
<g id="a_Node000001"><a xlink:title=" ">
<polygon fill="#999999" stroke="#666666" points="751.75,-125 669.75,-125 669.75,-105 751.75,-105 751.75,-125"/>
<text text-anchor="middle" x="710.75" y="-111.5" font-family="Helvetica,sans-Serif" font-size="10.00">arraySliceKeys</text>
</a>
</g>
</g>
<!-- Node2 -->
<g id="Node000002" class="node">
<title>Node2</title>
<g id="a_Node000002"><a xlink:href="class_o_c_a_1_1_c_a_f_e_v_d_b_1_1_page_renderer_1_1_p_m_e_table_view_base.html#a0160798c24d6bddc98d5192235a59982" target="_top" xlink:title=" ">
<polygon fill="white" stroke="#666666" points="633.75,-131 446.75,-131 446.75,-99 633.75,-99 633.75,-131"/>
<text text-anchor="start" x="454.75" y="-117.5" font-family="Helvetica,sans-Serif" font-size="10.00">OCA\CAFEVDB\PageRenderer</text>
<text text-anchor="middle" x="540.25" y="-105.5" font-family="Helvetica,sans-Serif" font-size="10.00">\PMETableViewBase\debugPrintValues</text>
</a>
</g>
</g>
<!-- Node1&#45;&gt;Node2 -->
<g id="edge1_Node000001_Node000002" class="edge">
<title>Node1&#45;&gt;Node2</title>
<g id="a_edge1_Node000001_Node000002"><a xlink:title=" ">
<path fill="none" stroke="#63b8ff" d="M658.09,-115C650.4,-115 642.28,-115 634.05,-115"/>
<polygon fill="#63b8ff" stroke="#63b8ff" points="657.88,-118.5 667.88,-115 657.88,-111.5 657.88,-118.5"/>
</a>
</g>
</g>
<!-- Node3 -->
<g id="Node000003" class="node">
<title>Node3</title>
<g id="a_Node000003"><a xlink:href="class_o_c_a_1_1_c_a_f_e_v_d_b_1_1_page_renderer_1_1_p_m_e_table_view_base.html#a936748b21bb69d2a3f9d51e14ce2cd87" target="_top" xlink:title="Before insert&#45;trigger which ideally should insert all data such that nothing remains to be done for p...">
<polygon fill="white" stroke="#666666" points="398.38,-230 235.38,-230 235.38,-186 398.38,-186 398.38,-230"/>
<text text-anchor="start" x="243.38" y="-216.5" font-family="Helvetica,sans-Serif" font-size="10.00">OCA\CAFEVDB\PageRenderer</text>
<text text-anchor="start" x="243.38" y="-204.5" font-family="Helvetica,sans-Serif" font-size="10.00">\PMETableViewBase\beforeInsert</text>
<text text-anchor="middle" x="316.88" y="-192.5" font-family="Helvetica,sans-Serif" font-size="10.00">DoInsertAll</text>
</a>
</g>
</g>
<!-- Node2&#45;&gt;Node3 -->
<g id="edge2_Node000002_Node000003" class="edge">
<title>Node2&#45;&gt;Node3</title>
<g id="a_edge2_Node000002_Node000003"><a xlink:title=" ">
<path fill="none" stroke="#63b8ff" d="M497.9,-136.61C473,-149.2 440.47,-164.93 410.75,-177 403.51,-179.94 395.87,-182.83 388.21,-185.58"/>
<polygon fill="#63b8ff" stroke="#63b8ff" points="499.4,-139.77 506.72,-132.11 496.22,-133.54 499.4,-139.77"/>
</a>
</g>
</g>
<!-- Node6 -->
<g id="Node000006" class="node">
<title>Node6</title>
<g id="a_Node000006"><a xlink:href="class_o_c_a_1_1_c_a_f_e_v_d_b_1_1_page_renderer_1_1_p_m_e_table_view_base.html#a882a0897b82d354409342d1c195c2f4d" target="_top" xlink:title="Before update&#45;trigger which ideally should update all data such that nothing remains to do for phpMyE...">
<polygon fill="white" stroke="#666666" points="401.75,-168 232,-168 232,-124 401.75,-124 401.75,-168"/>
<text text-anchor="start" x="240" y="-154.5" font-family="Helvetica,sans-Serif" font-size="10.00">OCA\CAFEVDB\PageRenderer</text>
<text text-anchor="start" x="240" y="-142.5" font-family="Helvetica,sans-Serif" font-size="10.00">\PMETableViewBase\beforeUpdate</text>
<text text-anchor="middle" x="316.88" y="-130.5" font-family="Helvetica,sans-Serif" font-size="10.00">DoUpdateAll</text>
</a>
</g>
</g>
<!-- Node2&#45;&gt;Node6 -->
<g id="edge5_Node000002_Node000006" class="edge">
<title>Node2&#45;&gt;Node6</title>
<g id="a_edge5_Node000002_Node000006"><a xlink:title=" ">
<path fill="none" stroke="#63b8ff" d="M435.26,-129.56C424.15,-131.12 412.94,-132.69 402.1,-134.21"/>
<polygon fill="#63b8ff" stroke="#63b8ff" points="435.41,-133.08 444.83,-128.22 434.44,-126.14 435.41,-133.08"/>
</a>
</g>
</g>
<!-- Node7 -->
<g id="Node000007" class="node">
<title>Node7</title>
<g id="a_Node000007"><a xlink:href="class_o_c_a_1_1_c_a_f_e_v_d_b_1_1_page_renderer_1_1_instrument_insurances.html#a845b4952ec7ba86475b456928bd641ae" target="_top" xlink:title="Cleanup &quot;trigger&quot; which relocates several virtual inputs to their proper destination columns.">
<polygon fill="white" stroke="#666666" points="404.38,-106 229.38,-106 229.38,-62 404.38,-62 404.38,-106"/>
<text text-anchor="start" x="237.38" y="-92.5" font-family="Helvetica,sans-Serif" font-size="10.00">OCA\CAFEVDB\PageRenderer</text>
<text text-anchor="start" x="237.38" y="-80.5" font-family="Helvetica,sans-Serif" font-size="10.00">\InstrumentInsurances\beforeUpdate</text>
<text text-anchor="middle" x="316.88" y="-68.5" font-family="Helvetica,sans-Serif" font-size="10.00">OrInsertTrigger</text>
</a>
</g>
</g>
<!-- Node2&#45;&gt;Node7 -->
<g id="edge7_Node000002_Node000007" class="edge">
<title>Node2&#45;&gt;Node7</title>
<g id="a_edge7_Node000002_Node000007"><a xlink:title=" ">
<path fill="none" stroke="#63b8ff" d="M435.23,-100.43C424.97,-99 414.62,-97.55 404.55,-96.14"/>
<polygon fill="#63b8ff" stroke="#63b8ff" points="434.44,-103.86 444.83,-101.78 435.41,-96.92 434.44,-103.86"/>
</a>
</g>
</g>
<!-- Node8 -->
<g id="Node000008" class="node">
<title>Node8</title>
<g id="a_Node000008"><a xlink:href="class_o_c_a_1_1_c_a_f_e_v_d_b_1_1_page_renderer_1_1_p_m_e_table_view_base.html#ac4930892b628989ea570c18ef64c0b4b" target="_top" xlink:title="The ranking of the mussician&#39;s instruments is implicitly stored in the order of the instrument ids.">
<polygon fill="white" stroke="#666666" points="410.75,-44 223,-44 223,0 410.75,0 410.75,-44"/>
<text text-anchor="start" x="231" y="-30.5" font-family="Helvetica,sans-Serif" font-size="10.00">OCA\CAFEVDB\PageRenderer</text>
<text text-anchor="start" x="231" y="-18.5" font-family="Helvetica,sans-Serif" font-size="10.00">\PMETableViewBase\extractInstrument</text>
<text text-anchor="middle" x="316.88" y="-6.5" font-family="Helvetica,sans-Serif" font-size="10.00">Ranking</text>
</a>
</g>
</g>
<!-- Node2&#45;&gt;Node8 -->
<g id="edge8_Node000002_Node000008" class="edge">
<title>Node2&#45;&gt;Node8</title>
<g id="a_edge8_Node000002_Node000008"><a xlink:title=" ">
<path fill="none" stroke="#63b8ff" d="M497.9,-93.39C473,-80.8 440.47,-65.07 410.75,-53 403.51,-50.06 395.87,-47.17 388.21,-44.42"/>
<polygon fill="#63b8ff" stroke="#63b8ff" points="496.22,-96.46 506.72,-97.89 499.4,-90.23 496.22,-96.46"/>
</a>
</g>
</g>
<!-- Node4 -->
<g id="Node000004" class="node">
<title>Node4</title>
<g id="a_Node000004"><a xlink:href="class_o_c_a_1_1_c_a_f_e_v_d_b_1_1_page_renderer_1_1_project_instrumentation_numbers.html#ab91557ae1e08e1183c76c9ce39edfe33" target="_top" xlink:title="{Show the underlying template page.This is supposed to echo html code to stdout. This is the default ...">
<polygon fill="white" stroke="#666666" points="187,-224 0,-224 0,-192 187,-192 187,-224"/>
<text text-anchor="start" x="8" y="-210.5" font-family="Helvetica,sans-Serif" font-size="10.00">OCA\CAFEVDB\PageRenderer</text>
<text text-anchor="middle" x="93.5" y="-198.5" font-family="Helvetica,sans-Serif" font-size="10.00">\ProjectInstrumentationNumbers\render</text>
</a>
</g>
</g>
<!-- Node3&#45;&gt;Node4 -->
<g id="edge3_Node000003_Node000004" class="edge">
<title>Node3&#45;&gt;Node4</title>
<g id="a_edge3_Node000003_Node000004"><a xlink:title=" ">
<path fill="none" stroke="#63b8ff" d="M223.58,-208C211.53,-208 199.19,-208 187.14,-208"/>
<polygon fill="#63b8ff" stroke="#63b8ff" points="223.5,-211.5 233.5,-208 223.5,-204.5 223.5,-211.5"/>
</a>
</g>
</g>
<!-- Node5 -->
<g id="Node000005" class="node">
<title>Node5</title>
<g id="a_Node000005"><a xlink:href="class_o_c_a_1_1_c_a_f_e_v_d_b_1_1_page_renderer_1_1_project_participant_fields.html#ab91557ae1e08e1183c76c9ce39edfe33" target="_top" xlink:title="{Show the underlying template page.This is supposed to echo html code to stdout. This is the default ...">
<polygon fill="white" stroke="#666666" points="170.5,-168 16.5,-168 16.5,-136 170.5,-136 170.5,-168"/>
<text text-anchor="start" x="24.5" y="-154.5" font-family="Helvetica,sans-Serif" font-size="10.00">OCA\CAFEVDB\PageRenderer</text>
<text text-anchor="middle" x="93.5" y="-142.5" font-family="Helvetica,sans-Serif" font-size="10.00">\ProjectParticipantFields\render</text>
</a>
</g>
</g>
<!-- Node3&#45;&gt;Node5 -->
<g id="edge4_Node000003_Node000005" class="edge">
<title>Node3&#45;&gt;Node5</title>
<g id="a_edge4_Node000003_Node000005"><a xlink:title=" ">
<path fill="none" stroke="#63b8ff" d="M224.13,-184.79C202.46,-179.31 179.78,-173.57 159.57,-168.46"/>
<polygon fill="#63b8ff" stroke="#63b8ff" points="222.99,-188.11 233.55,-187.17 224.71,-181.33 222.99,-188.11"/>
</a>
</g>
</g>
<!-- Node6&#45;&gt;Node5 -->
<g id="edge6_Node000006_Node000005" class="edge">
<title>Node6&#45;&gt;Node5</title>
<g id="a_edge6_Node000006_Node000005"><a xlink:title=" ">
<path fill="none" stroke="#63b8ff" d="M220.24,-148.59C203.77,-149.04 186.84,-149.5 170.96,-149.93"/>
<polygon fill="#63b8ff" stroke="#63b8ff" points="220.14,-152.1 230.04,-148.33 219.95,-145.1 220.14,-152.1"/>
</a>
</g>
</g>
</g>
</svg>
