<?xml version="1.0" encoding="UTF-8" standalone="no"?>
<!DOCTYPE svg PUBLIC "-//W3C//DTD SVG 1.1//EN"
 "http://www.w3.org/Graphics/SVG/1.1/DTD/svg11.dtd">
<!-- Generated by graphviz version 9.0.0 (20230911.1827)
 -->
<!-- Title: MusicianEmailEvent Pages: 1 -->
<svg width="364pt" height="180pt"
 viewBox="0.00 0.00 363.50 180.00" xmlns="http://www.w3.org/2000/svg" xmlns:xlink="http://www.w3.org/1999/xlink">
<g id="graph0" class="graph" transform="scale(1 1) rotate(0) translate(4 176)">
<title>MusicianEmailEvent</title>
<!-- Node1 -->
<g id="Node000001" class="node">
<title>Node1</title>
<g id="a_Node000001"><a xlink:title="Base class for musician email events.">
<polygon fill="#999999" stroke="#666666" points="182.75,-96 77.5,-96 77.5,-76 182.75,-76 182.75,-96"/>
<text text-anchor="middle" x="130.12" y="-82.5" font-family="Helvetica,sans-Serif" font-size="10.00">MusicianEmailEvent</text>
</a>
</g>
</g>
<!-- Node3 -->
<g id="Node000003" class="node">
<title>Node3</title>
<g id="a_Node000003"><a xlink:href="class_o_c_a_1_1_c_a_f_e_v_d_b_1_1_events_1_1_post_change_musician_email.html" target="_top" xlink:title="Event fired by the Musician entity through a life&#45;cycle hook after the email address is changed.">
<polygon fill="white" stroke="#666666" points="354,-172 220.25,-172 220.25,-152 354,-152 354,-172"/>
<text text-anchor="middle" x="287.12" y="-158.5" font-family="Helvetica,sans-Serif" font-size="10.00">PostChangeMusicianEmail</text>
</a>
</g>
</g>
<!-- Node1&#45;&gt;Node3 -->
<g id="edge2_Node000001_Node000003" class="edge">
<title>Node1&#45;&gt;Node3</title>
<g id="a_edge2_Node000001_Node000003"><a xlink:title=" ">
<path fill="none" stroke="#63b8ff" d="M153.48,-103.26C170.56,-115.76 195.12,-132.28 218.75,-143 225.94,-146.26 233.83,-149.09 241.59,-151.5"/>
<polygon fill="#63b8ff" stroke="#63b8ff" points="155.66,-100.53 145.56,-97.35 151.47,-106.13 155.66,-100.53"/>
</a>
</g>
</g>
<!-- Node4 -->
<g id="Node000004" class="node">
<title>Node4</title>
<g id="a_Node000004"><a xlink:href="class_o_c_a_1_1_c_a_f_e_v_d_b_1_1_events_1_1_post_persist_musician_email.html" target="_top" xlink:title="Event fired by the Musician entity through a life&#45;cycle hook after a new email address has been persi...">
<polygon fill="white" stroke="#666666" points="352.5,-134 221.75,-134 221.75,-114 352.5,-114 352.5,-134"/>
<text text-anchor="middle" x="287.12" y="-120.5" font-family="Helvetica,sans-Serif" font-size="10.00">PostPersistMusicianEmail</text>
</a>
</g>
</g>
<!-- Node1&#45;&gt;Node4 -->
<g id="edge3_Node000001_Node000004" class="edge">
<title>Node1&#45;&gt;Node4</title>
<g id="a_edge3_Node000001_Node000004"><a xlink:title=" ">
<path fill="none" stroke="#63b8ff" d="M184.89,-99.18C204.07,-103.88 225.39,-109.11 243.5,-113.55"/>
<polygon fill="#63b8ff" stroke="#63b8ff" points="185.91,-95.83 175.36,-96.84 184.24,-102.63 185.91,-95.83"/>
</a>
</g>
</g>
<!-- Node5 -->
<g id="Node000005" class="node">
<title>Node5</title>
<g id="a_Node000005"><a xlink:href="class_o_c_a_1_1_c_a_f_e_v_d_b_1_1_events_1_1_post_remove_musician_email.html" target="_top" xlink:title="Event fired by the Musician entity through a life&#45;cycle hook after the email address is changed.">
<polygon fill="white" stroke="#666666" points="355.5,-96 218.75,-96 218.75,-76 355.5,-76 355.5,-96"/>
<text text-anchor="middle" x="287.12" y="-82.5" font-family="Helvetica,sans-Serif" font-size="10.00">PostRemoveMusicianEmail</text>
</a>
</g>
</g>
<!-- Node1&#45;&gt;Node5 -->
<g id="edge4_Node000001_Node000005" class="edge">
<title>Node1&#45;&gt;Node5</title>
<g id="a_edge4_Node000001_Node000005"><a xlink:title=" ">
<path fill="none" stroke="#63b8ff" d="M194.47,-86C202.31,-86 210.35,-86 218.25,-86"/>
<polygon fill="#63b8ff" stroke="#63b8ff" points="194.68,-82.5 184.68,-86 194.68,-89.5 194.68,-82.5"/>
</a>
</g>
</g>
<!-- Node6 -->
<g id="Node000006" class="node">
<title>Node6</title>
<g id="a_Node000006"><a xlink:href="class_o_c_a_1_1_c_a_f_e_v_d_b_1_1_events_1_1_pre_persist_musician_email.html" target="_top" xlink:title="Event fired by the Musician entity through a life&#45;cycle hook after a new email address has been persi...">
<polygon fill="white" stroke="#666666" points="349.88,-58 224.38,-58 224.38,-38 349.88,-38 349.88,-58"/>
<text text-anchor="middle" x="287.12" y="-44.5" font-family="Helvetica,sans-Serif" font-size="10.00">PrePersistMusicianEmail</text>
</a>
</g>
</g>
<!-- Node1&#45;&gt;Node6 -->
<g id="edge5_Node000001_Node000006" class="edge">
<title>Node1&#45;&gt;Node6</title>
<g id="a_edge5_Node000001_Node000006"><a xlink:title=" ">
<path fill="none" stroke="#63b8ff" d="M184.89,-72.82C204.07,-68.12 225.39,-62.89 243.5,-58.45"/>
<polygon fill="#63b8ff" stroke="#63b8ff" points="184.24,-69.37 175.36,-75.16 185.91,-76.17 184.24,-69.37"/>
</a>
</g>
</g>
<!-- Node7 -->
<g id="Node000007" class="node">
<title>Node7</title>
<g id="a_Node000007"><a xlink:href="class_o_c_a_1_1_c_a_f_e_v_d_b_1_1_events_1_1_pre_remove_musician_email.html" target="_top" xlink:title="Event fired by the Musician entity through a life&#45;cycle hook after the email address is changed.">
<polygon fill="white" stroke="#666666" points="352.88,-20 221.38,-20 221.38,0 352.88,0 352.88,-20"/>
<text text-anchor="middle" x="287.12" y="-6.5" font-family="Helvetica,sans-Serif" font-size="10.00">PreRemoveMusicianEmail</text>
</a>
</g>
</g>
<!-- Node1&#45;&gt;Node7 -->
<g id="edge6_Node000001_Node000007" class="edge">
<title>Node1&#45;&gt;Node7</title>
<g id="a_edge6_Node000001_Node000007"><a xlink:title=" ">
<path fill="none" stroke="#63b8ff" d="M153.48,-68.74C170.56,-56.24 195.12,-39.72 218.75,-29 225.94,-25.74 233.83,-22.91 241.59,-20.5"/>
<polygon fill="#63b8ff" stroke="#63b8ff" points="151.47,-65.87 145.56,-74.65 155.66,-71.47 151.47,-65.87"/>
</a>
</g>
</g>
<!-- Node2 -->
<g id="Node000002" class="node">
<title>Node2</title>
<g id="a_Node000002"><a xlink:title=" ">
<polygon fill="white" stroke="#bfbfbf" points="41.5,-96 0,-96 0,-76 41.5,-76 41.5,-96"/>
<text text-anchor="middle" x="20.75" y="-82.5" font-family="Helvetica,sans-Serif" font-size="10.00">Event</text>
</a>
</g>
</g>
<!-- Node2&#45;&gt;Node1 -->
<g id="edge1_Node000001_Node000002" class="edge">
<title>Node2&#45;&gt;Node1</title>
<g id="a_edge1_Node000001_Node000002"><a xlink:title=" ">
<path fill="none" stroke="#63b8ff" d="M53.44,-86C60.95,-86 69.16,-86 77.31,-86"/>
<polygon fill="#63b8ff" stroke="#63b8ff" points="53.46,-82.5 43.46,-86 53.46,-89.5 53.46,-82.5"/>
</a>
</g>
</g>
</g>
</svg>
