<?xml version="1.0" encoding="UTF-8" standalone="no"?>
<!DOCTYPE svg PUBLIC "-//W3C//DTD SVG 1.1//EN"
 "http://www.w3.org/Graphics/SVG/1.1/DTD/svg11.dtd">
<!-- Generated by graphviz version 9.0.0 (20230911.1827)
 -->
<!-- Title: loadHistory Pages: 1 -->
<svg width="512pt" height="160pt"
 viewBox="0.00 0.00 511.50 160.00" xmlns="http://www.w3.org/2000/svg" xmlns:xlink="http://www.w3.org/1999/xlink">
<g id="graph0" class="graph" transform="scale(1 1) rotate(0) translate(4 156)">
<title>loadHistory</title>
<!-- Node1 -->
<g id="Node000001" class="node">
<title>Node1</title>
<g id="a_Node000001"><a xlink:title="Load the history from the session data.">
<polygon fill="#999999" stroke="#666666" points="65.5,-96 0,-96 0,-76 65.5,-76 65.5,-96"/>
<text text-anchor="middle" x="32.75" y="-82.5" font-family="Helvetica,sans-Serif" font-size="10.00">loadHistory</text>
</a>
</g>
</g>
<!-- Node2 -->
<g id="Node000002" class="node">
<title>Node2</title>
<g id="a_Node000002"><a xlink:href="class_o_c_a_1_1_c_a_f_e_v_d_b_1_1_email_form_1_1_recipients_filter.html#ab5ee0276791cc2947df51b32bc6c7ba6" target="_top" xlink:title=" ">
<polygon fill="white" stroke="#666666" points="322.12,-134 255.88,-134 255.88,-114 322.12,-114 322.12,-134"/>
<text text-anchor="middle" x="289" y="-120.5" font-family="Helvetica,sans-Serif" font-size="10.00">filterHistory</text>
</a>
</g>
</g>
<!-- Node1&#45;&gt;Node2 -->
<g id="edge1_Node000001_Node000002" class="edge">
<title>Node1&#45;&gt;Node2</title>
<g id="a_edge1_Node000001_Node000002"><a xlink:title=" ">
<path fill="none" stroke="#63b8ff" d="M65.88,-96.23C77.05,-99.46 89.74,-102.77 101.5,-105 149.89,-114.18 206.25,-119.15 244.24,-121.67"/>
<polygon fill="#63b8ff" stroke="#63b8ff" points="243.7,-125.15 253.9,-122.28 244.14,-118.16 243.7,-125.15"/>
</a>
</g>
</g>
<!-- Node3 -->
<g id="Node000003" class="node">
<title>Node3</title>
<g id="a_Node000003"><a xlink:href="class_o_c_a_1_1_c_a_f_e_v_d_b_1_1_email_form_1_1_recipients_filter.html#a30a395e6e48481531a93ec374c412775" target="_top" xlink:title="Compose a default history record for the initial state.">
<polygon fill="white" stroke="#666666" points="194,-96 101.5,-96 101.5,-76 194,-76 194,-96"/>
<text text-anchor="middle" x="147.75" y="-82.5" font-family="Helvetica,sans-Serif" font-size="10.00">setDefaultHistory</text>
</a>
</g>
</g>
<!-- Node1&#45;&gt;Node3 -->
<g id="edge3_Node000001_Node000003" class="edge">
<title>Node1&#45;&gt;Node3</title>
<g id="a_edge3_Node000001_Node000003"><a xlink:title=" ">
<path fill="none" stroke="#63b8ff" d="M65.83,-86C73.28,-86 81.43,-86 89.6,-86"/>
<polygon fill="#63b8ff" stroke="#63b8ff" points="89.58,-89.5 99.58,-86 89.58,-82.5 89.58,-89.5"/>
</a>
</g>
</g>
<!-- Node7 -->
<g id="Node000007" class="node">
<title>Node7</title>
<g id="a_Node000007"><a xlink:href="class_o_c_a_1_1_c_a_f_e_v_d_b_1_1_email_form_1_1_recipients_filter.html#a69438f7e0899945b1e31f677ce1251af" target="_top" xlink:title="Validate the given history records, return false on error.">
<polygon fill="white" stroke="#666666" points="188.38,-39 107.12,-39 107.12,-19 188.38,-19 188.38,-39"/>
<text text-anchor="middle" x="147.75" y="-25.5" font-family="Helvetica,sans-Serif" font-size="10.00">validateHistory</text>
</a>
</g>
</g>
<!-- Node1&#45;&gt;Node7 -->
<g id="edge8_Node000001_Node000007" class="edge">
<title>Node1&#45;&gt;Node7</title>
<g id="a_edge8_Node000001_Node000007"><a xlink:title=" ">
<path fill="none" stroke="#63b8ff" d="M54.48,-75.55C71.68,-66.87 96.4,-54.4 115.92,-44.55"/>
<polygon fill="#63b8ff" stroke="#63b8ff" points="117.45,-47.7 124.8,-40.07 114.3,-41.45 117.45,-47.7"/>
</a>
</g>
</g>
<!-- Node2&#45;&gt;Node2 -->
<g id="edge2_Node000002_Node000002" class="edge">
<title>Node2&#45;&gt;Node2</title>
<g id="a_edge2_Node000002_Node000002"><a xlink:title=" ">
<path fill="none" stroke="#63b8ff" d="M266.56,-134.34C256.97,-142.98 264.45,-152 289,-152 302.43,-152 310.75,-149.3 313.97,-145.44"/>
<polygon fill="#63b8ff" stroke="#63b8ff" points="317.41,-144.79 311.78,-135.81 310.58,-146.34 317.41,-144.79"/>
</a>
</g>
</g>
<!-- Node3&#45;&gt;Node2 -->
<g id="edge7_Node000003_Node000002" class="edge">
<title>Node3&#45;&gt;Node2</title>
<g id="a_edge7_Node000003_Node000002"><a xlink:title=" ">
<path fill="none" stroke="#63b8ff" d="M187.17,-96.48C205.04,-101.36 226.36,-107.18 244.78,-112.21"/>
<polygon fill="#63b8ff" stroke="#63b8ff" points="243.8,-115.57 254.37,-114.82 245.64,-108.81 243.8,-115.57"/>
</a>
</g>
</g>
<!-- Node4 -->
<g id="Node000004" class="node">
<title>Node4</title>
<g id="a_Node000004"><a xlink:href="class_o_c_a_1_1_c_a_f_e_v_d_b_1_1_email_form_1_1_recipients_filter.html#a9ceb14e2f27e74da6d3f47217cafac78" target="_top" xlink:title=" ">
<polygon fill="white" stroke="#666666" points="339.38,-96 238.62,-96 238.62,-76 339.38,-76 339.38,-96"/>
<text text-anchor="middle" x="289" y="-82.5" font-family="Helvetica,sans-Serif" font-size="10.00">basicRecipientsSet</text>
</a>
</g>
</g>
<!-- Node3&#45;&gt;Node4 -->
<g id="edge4_Node000003_Node000004" class="edge">
<title>Node3&#45;&gt;Node4</title>
<g id="a_edge4_Node000003_Node000004"><a xlink:title=" ">
<path fill="none" stroke="#63b8ff" d="M194.35,-86C204.82,-86 216.13,-86 227.14,-86"/>
<polygon fill="#63b8ff" stroke="#63b8ff" points="226.94,-89.5 236.94,-86 226.94,-82.5 226.94,-89.5"/>
</a>
</g>
</g>
<!-- Node5 -->
<g id="Node000005" class="node">
<title>Node5</title>
<g id="a_Node000005"><a xlink:href="class_o_c_a_1_1_c_a_f_e_v_d_b_1_1_email_form_1_1_recipients_filter.html#a0835860e0bc6047f3eff6a9941dbbcf4" target="_top" xlink:title=" ">
<polygon fill="white" stroke="#666666" points="331.88,-58 246.12,-58 246.12,-38 331.88,-38 331.88,-58"/>
<text text-anchor="middle" x="289" y="-44.5" font-family="Helvetica,sans-Serif" font-size="10.00">defaultByStatus</text>
</a>
</g>
</g>
<!-- Node3&#45;&gt;Node5 -->
<g id="edge5_Node000003_Node000005" class="edge">
<title>Node3&#45;&gt;Node5</title>
<g id="a_edge5_Node000003_Node000005"><a xlink:title=" ">
<path fill="none" stroke="#63b8ff" d="M187.17,-75.52C203.15,-71.15 221.9,-66.04 238.86,-61.41"/>
<polygon fill="#63b8ff" stroke="#63b8ff" points="239.52,-64.86 248.25,-58.85 237.68,-58.1 239.52,-64.86"/>
</a>
</g>
</g>
<!-- Node6 -->
<g id="Node000006" class="node">
<title>Node6</title>
<g id="a_Node000006"><a xlink:href="class_o_c_a_1_1_c_a_f_e_v_d_b_1_1_email_form_1_1_recipients_filter.html#a75227e334f1b3d4bd04bcc2ddf2c9c5d" target="_top" xlink:title=" ">
<polygon fill="white" stroke="#666666" points="503.5,-58 384,-58 384,-38 503.5,-38 503.5,-58"/>
<text text-anchor="middle" x="443.75" y="-44.5" font-family="Helvetica,sans-Serif" font-size="10.00">recipientsExceptProject</text>
</a>
</g>
</g>
<!-- Node5&#45;&gt;Node6 -->
<g id="edge6_Node000005_Node000006" class="edge">
<title>Node5&#45;&gt;Node6</title>
<g id="a_edge6_Node000005_Node000006"><a xlink:title=" ">
<path fill="none" stroke="#63b8ff" d="M332.14,-48C344.56,-48 358.5,-48 372.19,-48"/>
<polygon fill="#63b8ff" stroke="#63b8ff" points="372.08,-51.5 382.08,-48 372.08,-44.5 372.08,-51.5"/>
</a>
</g>
</g>
<!-- Node8 -->
<g id="Node000008" class="node">
<title>Node8</title>
<g id="a_Node000008"><a xlink:href="class_o_c_a_1_1_c_a_f_e_v_d_b_1_1_email_form_1_1_recipients_filter.html#aeeefa163256bf7669c5591e228f57850" target="_top" xlink:title="Validate all history records.">
<polygon fill="white" stroke="#666666" points="348,-20 230,-20 230,0 348,0 348,-20"/>
<text text-anchor="middle" x="289" y="-6.5" font-family="Helvetica,sans-Serif" font-size="10.00">validateHistoryRecords</text>
</a>
</g>
</g>
<!-- Node7&#45;&gt;Node8 -->
<g id="edge9_Node000007_Node000008" class="edge">
<title>Node7&#45;&gt;Node8</title>
<g id="a_edge9_Node000007_Node000008"><a xlink:title=" ">
<path fill="none" stroke="#63b8ff" d="M188.65,-23.56C198.04,-22.27 208.31,-20.87 218.57,-19.47"/>
<polygon fill="#63b8ff" stroke="#63b8ff" points="218.73,-22.98 228.17,-18.16 217.79,-16.05 218.73,-22.98"/>
</a>
</g>
</g>
<!-- Node9 -->
<g id="Node000009" class="node">
<title>Node9</title>
<g id="a_Node000009"><a xlink:href="class_o_c_a_1_1_c_a_f_e_v_d_b_1_1_email_form_1_1_recipients_filter.html#a356c7d5f6dcee2bfc20c2285237a341f" target="_top" xlink:title="Validate one history entry.">
<polygon fill="white" stroke="#666666" points="500.12,-20 387.38,-20 387.38,0 500.12,0 500.12,-20"/>
<text text-anchor="middle" x="443.75" y="-6.5" font-family="Helvetica,sans-Serif" font-size="10.00">validateHistoryRecord</text>
</a>
</g>
</g>
<!-- Node8&#45;&gt;Node9 -->
<g id="edge10_Node000008_Node000009" class="edge">
<title>Node8&#45;&gt;Node9</title>
<g id="a_edge10_Node000008_Node000009"><a xlink:title=" ">
<path fill="none" stroke="#63b8ff" d="M348.18,-10C357.14,-10 366.44,-10 375.57,-10"/>
<polygon fill="#63b8ff" stroke="#63b8ff" points="375.48,-13.5 385.48,-10 375.48,-6.5 375.48,-13.5"/>
</a>
</g>
</g>
</g>
</svg>
