<?xml version="1.0" encoding="UTF-8" standalone="no"?>
<!DOCTYPE svg PUBLIC "-//W3C//DTD SVG 1.1//EN"
 "http://www.w3.org/Graphics/SVG/1.1/DTD/svg11.dtd">
<!-- Generated by graphviz version 7.1.0 (20230121.1956)
 -->
<!-- Title: makeGroupShare Pages: 1 -->
<svg width="397pt" height="46pt"
 viewBox="0.00 0.00 397.00 46.00" xmlns="http://www.w3.org/2000/svg" xmlns:xlink="http://www.w3.org/1999/xlink">
<g id="graph0" class="graph" transform="scale(1 1) rotate(0) translate(4 42)">
<title>makeGroupShare</title>
<!-- Node1 -->
<g id="node1" class="node">
<title>Node1</title>
<g id="a_node1"><a xlink:title=" ">
<polygon fill="#999999" stroke="#666666" points="389,-38 297,-38 297,-19 389,-19 389,-38"/>
<text text-anchor="middle" x="343" y="-26" font-family="Helvetica,sans-Serif" font-size="10.00">makeGroupShare</text>
</a>
</g>
</g>
<!-- Node2 -->
<g id="node2" class="node">
<title>Node2</title>
<g id="a_node2"><a xlink:href="class_o_c_a_1_1_c_a_f_e_v_d_b_1_1_service_1_1_cal_dav_service.html#a2e9d51a42cd379a76cf2918a15fe3f37" target="_top" xlink:title="Share the given calendar with a group.">
<polygon fill="white" stroke="#666666" points="105,-38 0,-38 0,-19 105,-19 105,-38"/>
<text text-anchor="middle" x="52.5" y="-26" font-family="Helvetica,sans-Serif" font-size="10.00">groupShareCalendar</text>
</a>
</g>
</g>
<!-- Node1&#45;&gt;Node2 -->
<g id="edge1" class="edge">
<title>Node1&#45;&gt;Node2</title>
<path fill="none" stroke="#63b8ff" d="M285.19,-28.5C232.94,-28.5 156.11,-28.5 105.46,-28.5"/>
<polygon fill="#63b8ff" stroke="#63b8ff" points="285.09,-32 295.09,-28.5 285.09,-25 285.09,-32"/>
</g>
<!-- Node3 -->
<g id="node3" class="node">
<title>Node3</title>
<g id="a_node3"><a xlink:href="class_o_c_a_1_1_c_a_f_e_v_d_b_1_1_service_1_1_cal_dav_service.html#a73af2c12aae06cdd9242151cfbdb94be" target="_top" xlink:title="Test if the given calendar is shared with the given group.">
<polygon fill="white" stroke="#666666" points="261,-19 141,-19 141,0 261,0 261,-19"/>
<text text-anchor="middle" x="201" y="-7" font-family="Helvetica,sans-Serif" font-size="10.00">isGroupSharedCalendar</text>
</a>
</g>
</g>
<!-- Node1&#45;&gt;Node3 -->
<g id="edge2" class="edge">
<title>Node1&#45;&gt;Node3</title>
<path fill="none" stroke="#63b8ff" d="M285.2,-20.79C277.31,-19.72 269.19,-18.62 261.25,-17.54"/>
<polygon fill="#63b8ff" stroke="#63b8ff" points="284.67,-24.25 295.05,-22.13 285.61,-17.31 284.67,-24.25"/>
</g>
<!-- Node3&#45;&gt;Node2 -->
<g id="edge3" class="edge">
<title>Node3&#45;&gt;Node2</title>
<path fill="none" stroke="#63b8ff" d="M129.43,-18.65C121.31,-19.71 113.15,-20.76 105.34,-21.78"/>
<polygon fill="#63b8ff" stroke="#63b8ff" points="129.87,-22.13 139.33,-17.37 128.97,-15.18 129.87,-22.13"/>
</g>
</g>
</svg>
