<?xml version="1.0" encoding="UTF-8" standalone="no"?>
<!DOCTYPE svg PUBLIC "-//W3C//DTD SVG 1.1//EN"
 "http://www.w3.org/Graphics/SVG/1.1/DTD/svg11.dtd">
<!-- Generated by graphviz version 9.0.0 (20230911.1827)
 -->
<!-- Title: inSubAdminGroup Pages: 1 -->
<svg width="713pt" height="180pt"
 viewBox="0.00 0.00 713.00 179.53" xmlns="http://www.w3.org/2000/svg" xmlns:xlink="http://www.w3.org/1999/xlink">
<g id="graph0" class="graph" transform="scale(1 1) rotate(0) translate(4 175.53)">
<title>inSubAdminGroup</title>
<!-- Node1 -->
<g id="Node000001" class="node">
<title>Node1</title>
<g id="a_Node000001"><a xlink:title="Check if the currently logged in or given user&#45;id belongs to the dedicated sub&#45;admin group.">
<polygon fill="#999999" stroke="#666666" points="94.75,-133.53 0,-133.53 0,-113.53 94.75,-113.53 94.75,-133.53"/>
<text text-anchor="middle" x="47.38" y="-120.03" font-family="Helvetica,sans-Serif" font-size="10.00">inSubAdminGroup</text>
</a>
</g>
</g>
<!-- Node2 -->
<g id="Node000002" class="node">
<title>Node2</title>
<g id="a_Node000002"><a xlink:href="class_o_c_a_1_1_c_a_f_e_v_d_b_1_1_service_1_1_config_service.html#ae2621cc27b1048071816b69caf9b945a" target="_top" xlink:title=" ">
<polygon fill="white" stroke="#666666" points="231.88,-171.53 138.62,-171.53 138.62,-151.53 231.88,-151.53 231.88,-171.53"/>
<text text-anchor="middle" x="185.25" y="-158.03" font-family="Helvetica,sans-Serif" font-size="10.00">getGroupManager</text>
</a>
</g>
</g>
<!-- Node1&#45;&gt;Node2 -->
<g id="edge1_Node000001_Node000002" class="edge">
<title>Node1&#45;&gt;Node2</title>
<g id="a_edge1_Node000001_Node000002"><a xlink:title=" ">
<path fill="none" stroke="#63b8ff" d="M85.86,-134.01C101.31,-138.33 119.4,-143.39 135.83,-147.99"/>
<polygon fill="#63b8ff" stroke="#63b8ff" points="134.85,-151.35 145.43,-150.67 136.74,-144.61 134.85,-151.35"/>
</a>
</g>
</g>
<!-- Node3 -->
<g id="Node000003" class="node">
<title>Node3</title>
<g id="a_Node000003"><a xlink:href="class_o_c_a_1_1_c_a_f_e_v_d_b_1_1_service_1_1_config_service.html#aa2b39aa8d6ef6b2cf9db10c10954687b" target="_top" xlink:title="Return the id of the dedicated admin&#45;group which contains all sub&#45;admins.">
<polygon fill="white" stroke="#666666" points="239.75,-133.53 130.75,-133.53 130.75,-113.53 239.75,-113.53 239.75,-133.53"/>
<text text-anchor="middle" x="185.25" y="-120.03" font-family="Helvetica,sans-Serif" font-size="10.00">getSubAdminGroupId</text>
</a>
</g>
</g>
<!-- Node1&#45;&gt;Node3 -->
<g id="edge2_Node000001_Node000003" class="edge">
<title>Node1&#45;&gt;Node3</title>
<g id="a_edge2_Node000001_Node000003"><a xlink:title=" ">
<path fill="none" stroke="#63b8ff" d="M95.14,-123.53C102.86,-123.53 110.99,-123.53 119.06,-123.53"/>
<polygon fill="#63b8ff" stroke="#63b8ff" points="118.88,-127.03 128.88,-123.53 118.88,-120.03 118.88,-127.03"/>
</a>
</g>
</g>
<!-- Node7 -->
<g id="Node000007" class="node">
<title>Node7</title>
<g id="a_Node000007"><a xlink:href="class_o_c_a_1_1_c_a_f_e_v_d_b_1_1_service_1_1_config_service.html#a05f6aa1ffae6295260d9f1cca016bf33" target="_top" xlink:title=" ">
<polygon fill="white" stroke="#666666" points="214.62,-76.53 155.88,-76.53 155.88,-56.53 214.62,-56.53 214.62,-76.53"/>
<text text-anchor="middle" x="185.25" y="-63.03" font-family="Helvetica,sans-Serif" font-size="10.00">getUserId</text>
</a>
</g>
</g>
<!-- Node1&#45;&gt;Node7 -->
<g id="edge6_Node000001_Node000007" class="edge">
<title>Node1&#45;&gt;Node7</title>
<g id="a_edge6_Node000001_Node000007"><a xlink:title=" ">
<path fill="none" stroke="#63b8ff" d="M73.3,-113.08C94.56,-104.16 125.36,-91.23 149.12,-81.27"/>
<polygon fill="#63b8ff" stroke="#63b8ff" points="150.22,-84.6 158.09,-77.5 147.52,-78.15 150.22,-84.6"/>
</a>
</g>
</g>
<!-- Node4 -->
<g id="Node000004" class="node">
<title>Node4</title>
<g id="a_Node000004"><a xlink:href="class_o_c_a_1_1_c_a_f_e_v_d_b_1_1_service_1_1_config_service.html#a80ff7d4e6101b55bc46ce120b838b98d" target="_top" xlink:title=" ">
<polygon fill="white" stroke="#666666" points="339.75,-142.53 275.75,-142.53 275.75,-122.53 339.75,-122.53 339.75,-142.53"/>
<text text-anchor="middle" x="307.75" y="-129.03" font-family="Helvetica,sans-Serif" font-size="10.00">getGroupId</text>
</a>
</g>
</g>
<!-- Node3&#45;&gt;Node4 -->
<g id="edge3_Node000003_Node000004" class="edge">
<title>Node3&#45;&gt;Node4</title>
<g id="a_edge3_Node000003_Node000004"><a xlink:title=" ">
<path fill="none" stroke="#63b8ff" d="M240.16,-127.56C248.15,-128.15 256.29,-128.76 264.01,-129.34"/>
<polygon fill="#63b8ff" stroke="#63b8ff" points="263.58,-132.82 273.82,-130.07 264.11,-125.84 263.58,-132.82"/>
</a>
</g>
</g>
<!-- Node5 -->
<g id="Node000005" class="node">
<title>Node5</title>
<g id="a_Node000005"><a xlink:href="class_o_c_a_1_1_c_a_f_e_v_d_b_1_1_service_1_1_config_service.html#a6c2a8487a2ff84a0fa4530de4d61d83b" target="_top" xlink:title="A short&#45;cut, redirecting to the stock functions for the app.">
<polygon fill="white" stroke="#666666" points="455.12,-147.53 384.38,-147.53 384.38,-127.53 455.12,-127.53 455.12,-147.53"/>
<text text-anchor="middle" x="419.75" y="-134.03" font-family="Helvetica,sans-Serif" font-size="10.00">getAppValue</text>
</a>
</g>
</g>
<!-- Node4&#45;&gt;Node5 -->
<g id="edge4_Node000004_Node000005" class="edge">
<title>Node4&#45;&gt;Node5</title>
<g id="a_edge4_Node000004_Node000005"><a xlink:title=" ">
<path fill="none" stroke="#63b8ff" d="M339.98,-133.95C350.16,-134.41 361.69,-134.94 372.72,-135.44"/>
<polygon fill="#63b8ff" stroke="#63b8ff" points="372.3,-138.92 382.45,-135.88 372.62,-131.93 372.3,-138.92"/>
</a>
</g>
</g>
<!-- Node6 -->
<g id="Node000006" class="node">
<title>Node6</title>
<g id="a_Node000006"><a xlink:href="class_o_c_a_1_1_c_a_f_e_v_d_b_1_1_service_1_1_config_service.html#a3c0a8ca944cfd5a62a77b1c2cc2b49a8" target="_top" xlink:title=" ">
<polygon fill="white" stroke="#666666" points="583.25,-147.53 499.75,-147.53 499.75,-127.53 583.25,-127.53 583.25,-147.53"/>
<text text-anchor="middle" x="541.5" y="-134.03" font-family="Helvetica,sans-Serif" font-size="10.00">getCloudConfig</text>
</a>
</g>
</g>
<!-- Node5&#45;&gt;Node6 -->
<g id="edge5_Node000005_Node000006" class="edge">
<title>Node5&#45;&gt;Node6</title>
<g id="a_edge5_Node000005_Node000006"><a xlink:title=" ">
<path fill="none" stroke="#63b8ff" d="M455.39,-137.53C465.64,-137.53 477.1,-137.53 488.21,-137.53"/>
<polygon fill="#63b8ff" stroke="#63b8ff" points="488.08,-141.03 498.08,-137.53 488.08,-134.03 488.08,-141.03"/>
</a>
</g>
</g>
<!-- Node8 -->
<g id="Node000008" class="node">
<title>Node8</title>
<g id="a_Node000008"><a xlink:href="class_o_c_a_1_1_c_a_f_e_v_d_b_1_1_service_1_1_config_service.html#a8be64a59621bfe298a4109ce08229ecd" target="_top" xlink:title=" ">
<polygon fill="white" stroke="#666666" points="333,-38.53 282.5,-38.53 282.5,-18.53 333,-18.53 333,-38.53"/>
<text text-anchor="middle" x="307.75" y="-25.03" font-family="Helvetica,sans-Serif" font-size="10.00">getUser</text>
</a>
</g>
</g>
<!-- Node7&#45;&gt;Node8 -->
<g id="edge7_Node000007_Node000008" class="edge">
<title>Node7&#45;&gt;Node8</title>
<g id="a_edge7_Node000007_Node000008"><a xlink:title=" ">
<path fill="none" stroke="#63b8ff" d="M215.11,-57.43C231.98,-52.11 253.41,-45.35 271.3,-39.71"/>
<polygon fill="#63b8ff" stroke="#63b8ff" points="272.26,-43.08 280.75,-36.73 270.16,-36.4 272.26,-43.08"/>
</a>
</g>
</g>
<!-- Node9 -->
<g id="Node000009" class="node">
<title>Node9</title>
<g id="a_Node000009"><a xlink:href="class_o_c_a_1_1_c_a_f_e_v_d_b_1_1_service_1_1_config_service.html#a9645249ef330a927cede315afee62d5a" target="_top" xlink:title=" ">
<polygon fill="white" stroke="#666666" points="463.75,-109.53 375.75,-109.53 375.75,-89.53 463.75,-89.53 463.75,-109.53"/>
<text text-anchor="middle" x="419.75" y="-96.03" font-family="Helvetica,sans-Serif" font-size="10.00">getUserManager</text>
</a>
</g>
</g>
<!-- Node8&#45;&gt;Node9 -->
<g id="edge8_Node000008_Node000009" class="edge">
<title>Node8&#45;&gt;Node9</title>
<g id="a_edge8_Node000008_Node000009"><a xlink:title=" ">
<path fill="none" stroke="#63b8ff" d="M322.58,-38.86C335.94,-48.68 356.85,-63.67 375.75,-75.53 380.1,-78.26 384.78,-81.04 389.4,-83.68"/>
<polygon fill="#63b8ff" stroke="#63b8ff" points="387.48,-86.62 397.92,-88.45 390.91,-80.51 387.48,-86.62"/>
</a>
</g>
</g>
<!-- Node10 -->
<g id="Node000010" class="node">
<title>Node10</title>
<g id="a_Node000010"><a xlink:href="class_o_c_a_1_1_c_a_f_e_v_d_b_1_1_service_1_1_config_service.html#a8e80f766c9aa0f817b358aa67422985a" target="_top" xlink:title=" ">
<polygon fill="white" stroke="#666666" points="705,-52.53 619.25,-52.53 619.25,-32.53 705,-32.53 705,-52.53"/>
<text text-anchor="middle" x="662.12" y="-39.03" font-family="Helvetica,sans-Serif" font-size="10.00">getUserSession</text>
</a>
</g>
</g>
<!-- Node8&#45;&gt;Node10 -->
<g id="edge9_Node000008_Node000010" class="edge">
<title>Node8&#45;&gt;Node10</title>
<g id="a_edge9_Node000008_Node000010"><a xlink:title=" ">
<path fill="none" stroke="#63b8ff" d="M333.38,-34.94C345.96,-37.9 361.57,-41.06 375.75,-42.53 456.2,-50.85 550.1,-48.56 607.57,-45.8"/>
<polygon fill="#63b8ff" stroke="#63b8ff" points="607.6,-49.31 617.41,-45.31 607.24,-42.32 607.6,-49.31"/>
</a>
</g>
</g>
<!-- Node11 -->
<g id="Node000011" class="node">
<title>Node11</title>
<g id="a_Node000011"><a xlink:href="class_o_c_a_1_1_c_a_f_e_v_d_b_1_1_service_1_1_config_service.html#a6cacbeb3555df4a292566b2e1b9bb574" target="_top" xlink:title="Install a new user id.">
<polygon fill="white" stroke="#666666" points="449.12,-33.53 390.38,-33.53 390.38,-13.53 449.12,-13.53 449.12,-33.53"/>
<text text-anchor="middle" x="419.75" y="-20.03" font-family="Helvetica,sans-Serif" font-size="10.00">setUserId</text>
</a>
</g>
</g>
<!-- Node8&#45;&gt;Node11 -->
<g id="edge10_Node000008_Node000011" class="edge">
<title>Node8&#45;&gt;Node11</title>
<g id="a_edge10_Node000008_Node000011"><a xlink:title=" ">
<path fill="none" stroke="#63b8ff" d="M333.44,-21.67C346.86,-20.06 363.79,-19.03 379.03,-18.82"/>
<polygon fill="#63b8ff" stroke="#63b8ff" points="378.75,-22.32 388.75,-18.83 378.75,-15.32 378.75,-22.32"/>
</a>
</g>
</g>
<!-- Node11&#45;&gt;Node8 -->
<g id="edge11_Node000011_Node000008" class="edge">
<title>Node11&#45;&gt;Node8</title>
<g id="a_edge11_Node000011_Node000008"><a xlink:title=" ">
<path fill="none" stroke="#63b8ff" d="M390.26,-30.82C376.37,-32.31 359.51,-33.2 344.74,-33.27"/>
<polygon fill="#63b8ff" stroke="#63b8ff" points="344.99,-29.77 334.95,-33.17 344.91,-36.77 344.99,-29.77"/>
</a>
</g>
</g>
<!-- Node12 -->
<g id="Node000012" class="node">
<title>Node12</title>
<g id="a_Node000012"><a xlink:href="class_o_c_a_1_1_c_a_f_e_v_d_b_1_1_service_1_1_config_service.html#a7b6e5c12813dec3c45ec9531820c539a" target="_top" xlink:title="Install a new user.">
<polygon fill="white" stroke="#666666" points="566.75,-33.53 516.25,-33.53 516.25,-13.53 566.75,-13.53 566.75,-33.53"/>
<text text-anchor="middle" x="541.5" y="-20.03" font-family="Helvetica,sans-Serif" font-size="10.00">setUser</text>
</a>
</g>
</g>
<!-- Node11&#45;&gt;Node12 -->
<g id="edge12_Node000011_Node000012" class="edge">
<title>Node11&#45;&gt;Node12</title>
<g id="a_edge12_Node000011_Node000012"><a xlink:title=" ">
<path fill="none" stroke="#63b8ff" d="M449.43,-23.53C466.04,-23.53 487.09,-23.53 504.77,-23.53"/>
<polygon fill="#63b8ff" stroke="#63b8ff" points="504.58,-27.03 514.58,-23.53 504.58,-20.03 504.58,-27.03"/>
</a>
</g>
</g>
<!-- Node12&#45;&gt;Node8 -->
<g id="edge13_Node000012_Node000008" class="edge">
<title>Node12&#45;&gt;Node8</title>
<g id="a_edge13_Node000012_Node000008"><a xlink:title=" ">
<path fill="none" stroke="#63b8ff" d="M515.9,-15.82C500.98,-11.56 481.46,-6.69 463.75,-4.53 424.93,0.2 414.28,2.16 375.75,-4.53 364.55,-6.48 352.74,-10.12 342.21,-14"/>
<polygon fill="#63b8ff" stroke="#63b8ff" points="341.24,-10.62 333.19,-17.51 343.78,-17.15 341.24,-10.62"/>
</a>
</g>
</g>
<!-- Node12&#45;&gt;Node10 -->
<g id="edge14_Node000012_Node000010" class="edge">
<title>Node12&#45;&gt;Node10</title>
<g id="a_edge14_Node000012_Node000010"><a xlink:title=" ">
<path fill="none" stroke="#63b8ff" d="M567.08,-27.47C578.86,-29.35 593.46,-31.69 607.62,-33.96"/>
<polygon fill="#63b8ff" stroke="#63b8ff" points="606.89,-37.39 617.32,-35.51 608,-30.48 606.89,-37.39"/>
</a>
</g>
</g>
</g>
</svg>
