<?xml version="1.0" encoding="UTF-8" standalone="no"?>
<!DOCTYPE svg PUBLIC "-//W3C//DTD SVG 1.1//EN"
 "http://www.w3.org/Graphics/SVG/1.1/DTD/svg11.dtd">
<!-- Generated by graphviz version 8.0.3 (20230416.2022)
 -->
<!-- Title: getSubscription Pages: 1 -->
<!--zoomable 200 -->
<svg id="main" version="1.1" xmlns="http://www.w3.org/2000/svg" xmlns:xlink="http://www.w3.org/1999/xlink" xml:space="preserve" onload="init(evt)">
<style type="text/css"><![CDATA[
.edge:hover path { stroke: red; }
.edge:hover polygon { stroke: red; fill: red; }
]]></style>
<script type="text/javascript"><![CDATA[
var edges = document.getElementsByTagName('g');
if (edges && edges.length) {
  for (var i=0;i<edges.length;i++) {
    if (edges[i].id.substr(0,4)=='edge') {
      edges[i].setAttribute('class','edge');
    }
  }
}
]]></script>
        <defs>
                <circle id="rim" cx="0" cy="0" r="7"/>
                <circle id="rim2" cx="0" cy="0" r="3.5"/>
                <g id="zoomPlus">
                        <use xlink:href="#rim" fill="#404040">
                                <set attributeName="fill" to="#808080" begin="zoomplus.mouseover" end="zoomplus.mouseout"/>
                        </use>
                        <path d="M-4,0h8M0,-4v8" fill="none" stroke="white" stroke-width="1.5" pointer-events="none"/>
                </g>
                <g id="zoomMin">
                        <use xlink:href="#rim" fill="#404040">
                                <set attributeName="fill" to="#808080" begin="zoomminus.mouseover" end="zoomminus.mouseout"/>
                        </use>
                        <path d="M-4,0h8" fill="none" stroke="white" stroke-width="1.5" pointer-events="none"/>
                </g>
                <g id="dirArrow">
                        <path fill="none" stroke="white" stroke-width="1.5" d="M0,-3.0v7 M-2.5,-0.5L0,-3.0L2.5,-0.5"/>
                </g>
               <g id="resetDef">
                       <use xlink:href="#rim2" fill="#404040">
                               <set attributeName="fill" to="#808080" begin="reset.mouseover" end="reset.mouseout"/>
                       </use>
               </g>
        </defs>

<script type="text/javascript">
var viewWidth = 556;
var viewHeight = 200;
var sectionId = 'dynsection-16';
</script>
<script xlink:href="svgpan.js"/>
<svg id="graph" class="graph">
<g id="viewport">
<title>getSubscription</title>
<!-- Node1 -->
<g id="node1" class="node">
<title>Node1</title>
<g id="a_node1"><a xlink:title="Find the basic information about a subscription for the given email.">
<polygon fill="#999999" stroke="#666666" points="548,-113 464,-113 464,-94 548,-94 548,-113"/>
<text text-anchor="middle" x="506" y="-101" font-family="Helvetica,sans-Serif" font-size="10.00">getSubscription</text>
</a>
</g>
</g>
<!-- Node2 -->
<g id="node2" class="node">
<title>Node2</title>
<g id="a_node2"><a xlink:href="class_o_c_a_1_1_c_a_f_e_v_d_b_1_1_service_1_1_mailing_lists_service.html#a9dcedfe5d7713b75758ec7098197aa8b" target="_top" xlink:title="Configure the given list as an announcements&#45;only list.">
<polygon fill="white" stroke="#666666" points="143,-94 0,-94 0,-75 143,-75 143,-94"/>
<text text-anchor="middle" x="71.5" y="-82" font-family="Helvetica,sans-Serif" font-size="10.00">configureAnnouncementsList</text>
</a>
</g>
</g>
<!-- Node1&#45;&gt;Node2 -->
<g id="edge1" class="edge">
<title>Node1&#45;&gt;Node2</title>
<path fill="none" stroke="#63b8ff" d="M492.36,-122.42C478.88,-140.7 455.7,-167.24 428,-178.5 371.59,-201.43 350.64,-190.78 291,-178.5 211.12,-162.05 124.44,-115.03 89,-94.4"/>
<polygon fill="#63b8ff" stroke="#63b8ff" points="495.75,-124.68 498.65,-114.49 490.03,-120.65 495.75,-124.68"/>
</g>
<!-- Node3 -->
<g id="node3" class="node">
<title>Node3</title>
<g id="a_node3"><a xlink:href="class_o_c_a_1_1_c_a_f_e_v_d_b_1_1_service_1_1_mailing_lists_service.html#ae62eae7d1bae43dae28edc191f40da81" target="_top" xlink:title="Fetch the subscription preferences.">
<polygon fill="white" stroke="#666666" points="428,-169 291,-169 291,-150 428,-150 428,-169"/>
<text text-anchor="middle" x="359.5" y="-157" font-family="Helvetica,sans-Serif" font-size="10.00">getSubscriptionPreferences</text>
</a>
</g>
</g>
<!-- Node1&#45;&gt;Node3 -->
<g id="edge2" class="edge">
<title>Node1&#45;&gt;Node3</title>
<path fill="none" stroke="#63b8ff" d="M478.03,-118.45C463.52,-126.07 445.12,-135.07 428,-141.5 420.05,-144.49 411.41,-147.19 403.03,-149.53"/>
<polygon fill="#63b8ff" stroke="#63b8ff" points="479.23,-121.24 486.4,-113.44 475.93,-115.07 479.23,-121.24"/>
</g>
<!-- Node4 -->
<g id="node4" class="node">
<title>Node4</title>
<g id="a_node4"><a xlink:href="class_o_c_a_1_1_c_a_f_e_v_d_b_1_1_service_1_1_mailing_lists_service.html#a80b3751e479bc6620f7007cdd019869b" target="_top" xlink:title="Return a brief status for the requested list and email address.">
<polygon fill="white" stroke="#666666" points="416,-132 303,-132 303,-113 416,-113 416,-132"/>
<text text-anchor="middle" x="359.5" y="-120" font-family="Helvetica,sans-Serif" font-size="10.00">getSubscriptionStatus</text>
</a>
</g>
</g>
<!-- Node1&#45;&gt;Node4 -->
<g id="edge3" class="edge">
<title>Node1&#45;&gt;Node4</title>
<path fill="none" stroke="#63b8ff" d="M452.97,-110.34C441.11,-111.9 428.47,-113.56 416.46,-115.14"/>
<polygon fill="#63b8ff" stroke="#63b8ff" points="453.13,-113.72 462.59,-108.94 452.22,-106.78 453.13,-113.72"/>
</g>
<!-- Node5 -->
<g id="node5" class="node">
<title>Node5</title>
<g id="a_node5"><a xlink:href="class_o_c_a_1_1_c_a_f_e_v_d_b_1_1_service_1_1_mailing_lists_service.html#a56dd65a95afc760129f3e87827317339" target="_top" xlink:title="Patch the membership config for the given email address.">
<polygon fill="white" stroke="#666666" points="255,-94 179,-94 179,-75 255,-75 255,-94"/>
<text text-anchor="middle" x="217" y="-82" font-family="Helvetica,sans-Serif" font-size="10.00">patchMember</text>
</a>
</g>
</g>
<!-- Node1&#45;&gt;Node5 -->
<g id="edge4" class="edge">
<title>Node1&#45;&gt;Node5</title>
<path fill="none" stroke="#63b8ff" d="M452.62,-100.03C395.53,-96.25 305.63,-90.3 255.3,-86.97"/>
<polygon fill="#63b8ff" stroke="#63b8ff" points="452.36,-103.59 462.57,-100.76 452.83,-96.6 452.36,-103.59"/>
</g>
<!-- Node6 -->
<g id="node6" class="node">
<title>Node6</title>
<g id="a_node6"><a xlink:href="class_o_c_a_1_1_c_a_f_e_v_d_b_1_1_service_1_1_mailing_lists_service.html#ae49603ed5d837ed0c36ce27d6171576c" target="_top" xlink:title="Set the subscription preferences.">
<polygon fill="white" stroke="#666666" points="428,-56 291,-56 291,-37 428,-37 428,-56"/>
<text text-anchor="middle" x="359.5" y="-44" font-family="Helvetica,sans-Serif" font-size="10.00">setSubscriptionPreferences</text>
</a>
</g>
</g>
<!-- Node1&#45;&gt;Node6 -->
<g id="edge6" class="edge">
<title>Node1&#45;&gt;Node6</title>
<path fill="none" stroke="#63b8ff" d="M472.96,-89.23C459.2,-83.24 442.89,-76.33 428,-70.5 415.61,-65.65 401.78,-60.66 389.89,-56.49"/>
<polygon fill="#63b8ff" stroke="#63b8ff" points="471.35,-92.79 481.91,-93.59 474.16,-86.37 471.35,-92.79"/>
</g>
<!-- Node9 -->
<g id="node9" class="node">
<title>Node9</title>
<g id="a_node9"><a xlink:href="class_o_c_a_1_1_c_a_f_e_v_d_b_1_1_service_1_1_mailing_lists_service.html#adb5ee6484051ff49357847bc6b203409" target="_top" xlink:title="Unsubscribe the given email&#45;address.">
<polygon fill="white" stroke="#666666" points="394,-19 325,-19 325,0 394,0 394,-19"/>
<text text-anchor="middle" x="359.5" y="-7" font-family="Helvetica,sans-Serif" font-size="10.00">unsubscribe</text>
</a>
</g>
</g>
<!-- Node1&#45;&gt;Node9 -->
<g id="edge10" class="edge">
<title>Node1&#45;&gt;Node9</title>
<path fill="none" stroke="#63b8ff" d="M491.44,-85.5C477.42,-68.14 453.96,-42.35 428,-27.5 417.79,-21.66 405.63,-17.66 394.45,-14.94"/>
<polygon fill="#63b8ff" stroke="#63b8ff" points="488.95,-87 497.88,-92.71 494.46,-82.68 488.95,-87"/>
</g>
<!-- Node5&#45;&gt;Node2 -->
<g id="edge5" class="edge">
<title>Node5&#45;&gt;Node2</title>
<path fill="none" stroke="#63b8ff" d="M167.84,-84.5C159.94,-84.5 151.61,-84.5 143.3,-84.5"/>
<polygon fill="#63b8ff" stroke="#63b8ff" points="167.67,-88 177.67,-84.5 167.67,-81 167.67,-88"/>
</g>
<!-- Node7 -->
<g id="node7" class="node">
<title>Node7</title>
<g id="a_node7"><a xlink:href="class_o_c_a_1_1_c_a_f_e_v_d_b_1_1_service_1_1_mailing_lists_service.html#aae6bb5b400c885119ac384eb304b42dd" target="_top" xlink:title="Subscribe a victim to the email&#45;list.">
<polygon fill="white" stroke="#666666" points="246.5,-57 187.5,-57 187.5,-38 246.5,-38 246.5,-57"/>
<text text-anchor="middle" x="217" y="-45" font-family="Helvetica,sans-Serif" font-size="10.00">subscribe</text>
</a>
</g>
</g>
<!-- Node6&#45;&gt;Node7 -->
<g id="edge7" class="edge">
<title>Node6&#45;&gt;Node7</title>
<path fill="none" stroke="#63b8ff" d="M279.88,-47.06C268.13,-47.14 256.69,-47.22 246.91,-47.29"/>
<polygon fill="#63b8ff" stroke="#63b8ff" points="279.74,-50.55 289.72,-46.98 279.69,-43.55 279.74,-50.55"/>
</g>
<!-- Node7&#45;&gt;Node2 -->
<g id="edge8" class="edge">
<title>Node7&#45;&gt;Node2</title>
<path fill="none" stroke="#63b8ff" d="M176.79,-57.61C156.39,-62.87 131.53,-69.28 111.2,-74.52"/>
<polygon fill="#63b8ff" stroke="#63b8ff" points="177.5,-60.78 186.31,-54.9 175.75,-54.01 177.5,-60.78"/>
</g>
<!-- Node8 -->
<g id="node8" class="node">
<title>Node8</title>
<g id="a_node8"><a xlink:href="class_o_c_a_1_1_c_a_f_e_v_d_b_1_1_service_1_1_mailing_lists_service.html#ad9ddb4782eae69fecac300b4851f524a" target="_top" xlink:title="Just send an invitation.">
<polygon fill="white" stroke="#666666" points="91.5,-57 51.5,-57 51.5,-38 91.5,-38 91.5,-57"/>
<text text-anchor="middle" x="71.5" y="-45" font-family="Helvetica,sans-Serif" font-size="10.00">invite</text>
</a>
</g>
</g>
<!-- Node7&#45;&gt;Node8 -->
<g id="edge9" class="edge">
<title>Node7&#45;&gt;Node8</title>
<path fill="none" stroke="#63b8ff" d="M176.46,-47.5C148.98,-47.5 113.55,-47.5 91.95,-47.5"/>
<polygon fill="#63b8ff" stroke="#63b8ff" points="176.31,-51 186.31,-47.5 176.31,-44 176.31,-51"/>
</g>
</g>
</svg>
        <g id="navigator" transform="translate(0 0)" fill="#404254">
                <rect fill="#f2f5e9" fill-opacity="0.5" stroke="#606060" stroke-width=".5" x="0" y="0" width="60" height="60"/>
                <use id="zoomplus" xlink:href="#zoomPlus" x="17" y="9" onmousedown="handleZoom(evt,'in')"/>
                <use id="zoomminus" xlink:href="#zoomMin" x="42" y="9" onmousedown="handleZoom(evt,'out')"/>
                <use id="reset" xlink:href="#resetDef" x="30" y="36" onmousedown="handleReset()"/>
                <g id="arrowUp" xlink:href="#dirArrow" transform="translate(30 24)" onmousedown="handlePan(0,-1)">
                  <use xlink:href="#rim" fill="#404040">
                        <set attributeName="fill" to="#808080" begin="arrowUp.mouseover" end="arrowUp.mouseout"/>
                  </use>
                  <path fill="none" stroke="white" stroke-width="1.5" d="M0,-3.0v7 M-2.5,-0.5L0,-3.0L2.5,-0.5"/>
                </g>
                <g id="arrowRight" xlink:href="#dirArrow" transform="rotate(90) translate(36 -43)" onmousedown="handlePan(1,0)">
                  <use xlink:href="#rim" fill="#404040">
                        <set attributeName="fill" to="#808080" begin="arrowRight.mouseover" end="arrowRight.mouseout"/>
                  </use>
                  <path fill="none" stroke="white" stroke-width="1.5" d="M0,-3.0v7 M-2.5,-0.5L0,-3.0L2.5,-0.5"/>
                </g>
                <g id="arrowDown" xlink:href="#dirArrow" transform="rotate(180) translate(-30 -48)" onmousedown="handlePan(0,1)">
                  <use xlink:href="#rim" fill="#404040">
                        <set attributeName="fill" to="#808080" begin="arrowDown.mouseover" end="arrowDown.mouseout"/>
                  </use>
                  <path fill="none" stroke="white" stroke-width="1.5" d="M0,-3.0v7 M-2.5,-0.5L0,-3.0L2.5,-0.5"/>
                </g>
                <g id="arrowLeft" xlink:href="#dirArrow" transform="rotate(270) translate(-36 17)" onmousedown="handlePan(-1,0)">
                  <use xlink:href="#rim" fill="#404040">
                        <set attributeName="fill" to="#808080" begin="arrowLeft.mouseover" end="arrowLeft.mouseout"/>
                  </use>
                  <path fill="none" stroke="white" stroke-width="1.5" d="M0,-3.0v7 M-2.5,-0.5L0,-3.0L2.5,-0.5"/>
                </g>
        </g>
        <svg viewBox="0 0 15 15" width="100%" height="30px" preserveAspectRatio="xMaxYMin meet">
         <g id="arrow_out" transform="scale(0.3 0.3)">
          <a xlink:href="class_o_c_a_1_1_c_a_f_e_v_d_b_1_1_service_1_1_mailing_lists_service_afca2835840699d3b8c7db3ab0c596cd5_icgraph_org.svg" target="_base">
           <rect id="button" ry="5" rx="5" y="6" x="6" height="38" width="38"
                fill="#f2f5e9" fill-opacity="0.5" stroke="#606060" stroke-width="1.0"/>
           <path id="arrow"
             d="M 11.500037,31.436501 C 11.940474,20.09759 22.043105,11.32322 32.158766,21.979434 L 37.068811,17.246167 C 37.068811,17.246167 37.088388,32 37.088388,32 L 22.160133,31.978069 C 22.160133,31.978069 26.997745,27.140456 26.997745,27.140456 C 18.528582,18.264221 13.291696,25.230495 11.500037,31.436501 z"
             style="fill:#404040;"/>
          </a>
         </g>
        </svg>
</svg>
