<?xml version="1.0" encoding="UTF-8" standalone="no"?>
<!DOCTYPE svg PUBLIC "-//W3C//DTD SVG 1.1//EN"
 "http://www.w3.org/Graphics/SVG/1.1/DTD/svg11.dtd">
<!-- Generated by graphviz version 9.0.0 (20230911.1827)
 -->
<!-- Title: __construct Pages: 1 -->
<svg width="683pt" height="218pt"
 viewBox="0.00 0.00 682.75 218.00" xmlns="http://www.w3.org/2000/svg" xmlns:xlink="http://www.w3.org/1999/xlink">
<g id="graph0" class="graph" transform="scale(1 1) rotate(0) translate(4 214)">
<title>__construct</title>
<!-- Node1 -->
<g id="Node000001" class="node">
<title>Node1</title>
<g id="a_Node000001"><a xlink:title="{}">
<polygon fill="#999999" stroke="#666666" points="67,-71 0,-71 0,-51 67,-51 67,-71"/>
<text text-anchor="middle" x="33.5" y="-57.5" font-family="Helvetica,sans-Serif" font-size="10.00">__construct</text>
</a>
</g>
</g>
<!-- Node2 -->
<g id="Node000002" class="node">
<title>Node2</title>
<g id="a_Node000002"><a xlink:href="class_o_c_a_1_1_c_a_f_e_v_d_b_1_1_service_1_1_encryption_service.html#a4efe39e6059783c9439d484de8bf2590" target="_top" xlink:title="Bind $this to the given userId and password, for instance during listeners for password&#45;change etc.">
<polygon fill="white" stroke="#666666" points="182.38,-96 148.38,-96 148.38,-76 182.38,-76 182.38,-96"/>
<text text-anchor="middle" x="165.38" y="-82.5" font-family="Helvetica,sans-Serif" font-size="10.00">bind</text>
</a>
</g>
</g>
<!-- Node1&#45;&gt;Node2 -->
<g id="edge1_Node000001_Node000002" class="edge">
<title>Node1&#45;&gt;Node2</title>
<g id="a_edge1_Node000001_Node000002"><a xlink:title=" ">
<path fill="none" stroke="#63b8ff" d="M67.27,-67.31C88.78,-71.45 116.59,-76.8 136.93,-80.72"/>
<polygon fill="#63b8ff" stroke="#63b8ff" points="136.25,-84.15 146.74,-82.6 137.58,-77.28 136.25,-84.15"/>
</a>
</g>
</g>
<!-- Node13 -->
<g id="Node000013" class="node">
<title>Node13</title>
<g id="a_Node000013"><a xlink:href="class_o_c_a_1_1_c_a_f_e_v_d_b_1_1_service_1_1_authorization_service.html#a84cedb02222eaf941859e8f91e6a9591" target="_top" xlink:title="Compute the permission mask for the given or the currently logged&#45;on user.">
<polygon fill="white" stroke="#666666" points="227.75,-58 103,-58 103,-14 227.75,-14 227.75,-58"/>
<text text-anchor="start" x="111" y="-44.5" font-family="Helvetica,sans-Serif" font-size="10.00">OCA\CAFEVDB\Service</text>
<text text-anchor="start" x="111" y="-32.5" font-family="Helvetica,sans-Serif" font-size="10.00">\AuthorizationService</text>
<text text-anchor="middle" x="165.38" y="-20.5" font-family="Helvetica,sans-Serif" font-size="10.00">\getUserPermissions</text>
</a>
</g>
</g>
<!-- Node1&#45;&gt;Node13 -->
<g id="edge14_Node000001_Node000013" class="edge">
<title>Node1&#45;&gt;Node13</title>
<g id="a_edge14_Node000001_Node000013"><a xlink:title=" ">
<path fill="none" stroke="#63b8ff" d="M67.27,-54.69C74.74,-53.25 82.98,-51.67 91.39,-50.05"/>
<polygon fill="#63b8ff" stroke="#63b8ff" points="91.87,-53.52 101.02,-48.19 90.54,-46.65 91.87,-53.52"/>
</a>
</g>
</g>
<!-- Node3 -->
<g id="Node000003" class="node">
<title>Node3</title>
<g id="a_Node000003"><a xlink:href="class_o_c_a_1_1_c_a_f_e_v_d_b_1_1_service_1_1_encryption_service.html#ae0e6a2643a679ae23f2975018436da50" target="_top" xlink:title="Initialize the global symmetric app encryption key used to encrypt shared data.">
<polygon fill="white" stroke="#666666" points="373.5,-134 263.75,-134 263.75,-114 373.5,-114 373.5,-134"/>
<text text-anchor="middle" x="318.62" y="-120.5" font-family="Helvetica,sans-Serif" font-size="10.00">initAppEncryptionKey</text>
</a>
</g>
</g>
<!-- Node2&#45;&gt;Node3 -->
<g id="edge2_Node000002_Node000003" class="edge">
<title>Node2&#45;&gt;Node3</title>
<g id="a_edge2_Node000002_Node000003"><a xlink:title=" ">
<path fill="none" stroke="#63b8ff" d="M182.85,-90.14C202.45,-95.06 236.15,-103.53 264.94,-110.76"/>
<polygon fill="#63b8ff" stroke="#63b8ff" points="264.09,-114.16 274.64,-113.2 265.79,-107.37 264.09,-114.16"/>
</a>
</g>
</g>
<!-- Node10 -->
<g id="Node000010" class="node">
<title>Node10</title>
<g id="a_Node000010"><a xlink:href="class_o_c_a_1_1_c_a_f_e_v_d_b_1_1_service_1_1_encryption_service.html#a830652bacd2fe88b917967c2db01e092" target="_top" xlink:title=" ">
<polygon fill="white" stroke="#666666" points="358.88,-58 278.38,-58 278.38,-38 358.88,-38 358.88,-58"/>
<text text-anchor="middle" x="318.62" y="-44.5" font-family="Helvetica,sans-Serif" font-size="10.00">initAppKeyPair</text>
</a>
</g>
</g>
<!-- Node2&#45;&gt;Node10 -->
<g id="edge9_Node000002_Node000010" class="edge">
<title>Node2&#45;&gt;Node10</title>
<g id="a_edge9_Node000002_Node000010"><a xlink:title=" ">
<path fill="none" stroke="#63b8ff" d="M182.85,-81.86C202.94,-76.81 237.86,-68.04 267.11,-60.69"/>
<polygon fill="#63b8ff" stroke="#63b8ff" points="267.69,-64.15 276.54,-58.32 265.98,-57.37 267.69,-64.15"/>
</a>
</g>
</g>
<!-- Node12 -->
<g id="Node000012" class="node">
<title>Node12</title>
<g id="a_Node000012"><a xlink:href="class_o_c_a_1_1_c_a_f_e_v_d_b_1_1_service_1_1_encryption_service.html#ad340ac2983f99f3d7695db636ec83c6d" target="_top" xlink:title="Initialize the per&#45;user public/private key pair, which inparticular is used to propagate the app&#39;s en...">
<polygon fill="white" stroke="#666666" points="360.75,-96 276.5,-96 276.5,-76 360.75,-76 360.75,-96"/>
<text text-anchor="middle" x="318.62" y="-82.5" font-family="Helvetica,sans-Serif" font-size="10.00">initUserKeyPair</text>
</a>
</g>
</g>
<!-- Node2&#45;&gt;Node12 -->
<g id="edge12_Node000002_Node000012" class="edge">
<title>Node2&#45;&gt;Node12</title>
<g id="a_edge12_Node000002_Node000012"><a xlink:title=" ">
<path fill="none" stroke="#63b8ff" d="M182.85,-86C202.45,-86 236.15,-86 264.94,-86"/>
<polygon fill="#63b8ff" stroke="#63b8ff" points="264.59,-89.5 274.59,-86 264.59,-82.5 264.59,-89.5"/>
</a>
</g>
</g>
<!-- Node4 -->
<g id="Node000004" class="node">
<title>Node4</title>
<g id="a_Node000004"><a xlink:href="class_o_c_a_1_1_c_a_f_e_v_d_b_1_1_service_1_1_encryption_service.html#ac00a76ffe038ef8a433357bd4114bb52" target="_top" xlink:title="Test if we a bound to a user.">
<polygon fill="white" stroke="#666666" points="487.75,-210 445.5,-210 445.5,-190 487.75,-190 487.75,-210"/>
<text text-anchor="middle" x="466.62" y="-196.5" font-family="Helvetica,sans-Serif" font-size="10.00">bound</text>
</a>
</g>
</g>
<!-- Node3&#45;&gt;Node4 -->
<g id="edge3_Node000003_Node000004" class="edge">
<title>Node3&#45;&gt;Node4</title>
<g id="a_edge3_Node000003_Node000004"><a xlink:title=" ">
<path fill="none" stroke="#63b8ff" d="M333.64,-134.39C350.83,-146.76 381.16,-167.46 409.5,-181 417.35,-184.75 426.14,-188.1 434.39,-190.9"/>
<polygon fill="#63b8ff" stroke="#63b8ff" points="433.13,-194.17 443.72,-193.9 435.27,-187.51 433.13,-194.17"/>
</a>
</g>
</g>
<!-- Node5 -->
<g id="Node000005" class="node">
<title>Node5</title>
<g id="a_Node000005"><a xlink:href="class_o_c_a_1_1_c_a_f_e_v_d_b_1_1_service_1_1_encryption_service.html#a7f3eb9937785e05b6d3e638fc187072c" target="_top" xlink:title="Fetch the value for the given key and possibly decrypt it.">
<polygon fill="white" stroke="#666666" points="507.62,-172 425.62,-172 425.62,-152 507.62,-152 507.62,-172"/>
<text text-anchor="middle" x="466.62" y="-158.5" font-family="Helvetica,sans-Serif" font-size="10.00">getConfigValue</text>
</a>
</g>
</g>
<!-- Node3&#45;&gt;Node5 -->
<g id="edge4_Node000003_Node000005" class="edge">
<title>Node3&#45;&gt;Node5</title>
<g id="a_edge4_Node000003_Node000005"><a xlink:title=" ">
<path fill="none" stroke="#63b8ff" d="M359.91,-134.48C376.74,-138.87 396.5,-144.01 414.36,-148.66"/>
<polygon fill="#63b8ff" stroke="#63b8ff" points="413.45,-152.04 424.01,-151.17 415.21,-145.26 413.45,-152.04"/>
</a>
</g>
</g>
<!-- Node7 -->
<g id="Node000007" class="node">
<title>Node7</title>
<g id="a_Node000007"><a xlink:href="class_o_c_a_1_1_c_a_f_e_v_d_b_1_1_service_1_1_encryption_service.html#a89044dae403670e1950421f9500ab7e4" target="_top" xlink:title=" ">
<polygon fill="white" stroke="#666666" points="523.75,-96 409.5,-96 409.5,-76 523.75,-76 523.75,-96"/>
<text text-anchor="middle" x="466.62" y="-82.5" font-family="Helvetica,sans-Serif" font-size="10.00">getUserEncryptionKey</text>
</a>
</g>
</g>
<!-- Node3&#45;&gt;Node7 -->
<g id="edge6_Node000003_Node000007" class="edge">
<title>Node3&#45;&gt;Node7</title>
<g id="a_edge6_Node000003_Node000007"><a xlink:title=" ">
<path fill="none" stroke="#63b8ff" d="M359.91,-113.52C376.74,-109.13 396.5,-103.99 414.36,-99.34"/>
<polygon fill="#63b8ff" stroke="#63b8ff" points="415.21,-102.74 424.01,-96.83 413.45,-95.96 415.21,-102.74"/>
</a>
</g>
</g>
<!-- Node9 -->
<g id="Node000009" class="node">
<title>Node9</title>
<g id="a_Node000009"><a xlink:href="class_o_c_a_1_1_c_a_f_e_v_d_b_1_1_service_1_1_encryption_service.html#af00d9a637dd0c0e25a62685bad893023" target="_top" xlink:title=" ">
<polygon fill="white" stroke="#666666" points="498.25,-134 435,-134 435,-114 498.25,-114 498.25,-134"/>
<text text-anchor="middle" x="466.62" y="-120.5" font-family="Helvetica,sans-Serif" font-size="10.00">verifyHash</text>
</a>
</g>
</g>
<!-- Node3&#45;&gt;Node9 -->
<g id="edge8_Node000003_Node000009" class="edge">
<title>Node3&#45;&gt;Node9</title>
<g id="a_edge8_Node000003_Node000009"><a xlink:title=" ">
<path fill="none" stroke="#63b8ff" d="M373.99,-124C390.27,-124 407.88,-124 423.26,-124"/>
<polygon fill="#63b8ff" stroke="#63b8ff" points="423.03,-127.5 433.03,-124 423.03,-120.5 423.03,-127.5"/>
</a>
</g>
</g>
<!-- Node6 -->
<g id="Node000006" class="node">
<title>Node6</title>
<g id="a_Node000006"><a xlink:href="class_o_c_a_1_1_c_a_f_e_v_d_b_1_1_service_1_1_encryption_service.html#a6c2a8487a2ff84a0fa4530de4d61d83b" target="_top" xlink:title="A short&#45;cut, redirecting to the stock functions for the app.">
<polygon fill="white" stroke="#666666" points="652.62,-153 581.88,-153 581.88,-133 652.62,-133 652.62,-153"/>
<text text-anchor="middle" x="617.25" y="-139.5" font-family="Helvetica,sans-Serif" font-size="10.00">getAppValue</text>
</a>
</g>
</g>
<!-- Node5&#45;&gt;Node6 -->
<g id="edge5_Node000005_Node000006" class="edge">
<title>Node5&#45;&gt;Node6</title>
<g id="a_edge5_Node000005_Node000006"><a xlink:title=" ">
<path fill="none" stroke="#63b8ff" d="M507.85,-156.86C527.1,-154.4 550.26,-151.44 570.22,-148.88"/>
<polygon fill="#63b8ff" stroke="#63b8ff" points="570.58,-152.37 580.05,-147.63 569.69,-145.42 570.58,-152.37"/>
</a>
</g>
</g>
<!-- Node8 -->
<g id="Node000008" class="node">
<title>Node8</title>
<g id="a_Node000008"><a xlink:href="class_o_c_a_1_1_c_a_f_e_v_d_b_1_1_service_1_1_encryption_service.html#adb19126b250726643c9e37b9a15dc6f2" target="_top" xlink:title="Get and decrypt an personal &#39;user&#39; value encrypted with the public key of key&#45;pair.">
<polygon fill="white" stroke="#666666" points="674.75,-96 559.75,-96 559.75,-76 674.75,-76 674.75,-96"/>
<text text-anchor="middle" x="617.25" y="-82.5" font-family="Helvetica,sans-Serif" font-size="10.00">getSharedPrivateValue</text>
</a>
</g>
</g>
<!-- Node7&#45;&gt;Node8 -->
<g id="edge7_Node000007_Node000008" class="edge">
<title>Node7&#45;&gt;Node8</title>
<g id="a_edge7_Node000007_Node000008"><a xlink:title=" ">
<path fill="none" stroke="#63b8ff" d="M524.24,-86C531.95,-86 539.94,-86 547.84,-86"/>
<polygon fill="#63b8ff" stroke="#63b8ff" points="547.79,-89.5 557.79,-86 547.79,-82.5 547.79,-89.5"/>
</a>
</g>
</g>
<!-- Node10&#45;&gt;Node6 -->
<g id="edge11_Node000010_Node000006" class="edge">
<title>Node10&#45;&gt;Node6</title>
<g id="a_edge11_Node000010_Node000006"><a xlink:title=" ">
<path fill="none" stroke="#63b8ff" d="M359.04,-43.73C401.83,-40.85 471.1,-41.4 523.75,-67 544.67,-77.17 541.99,-89.97 559.75,-105 568.86,-112.71 579.57,-120.24 589.2,-126.55"/>
<polygon fill="#63b8ff" stroke="#63b8ff" points="587.14,-129.39 597.46,-131.81 590.91,-123.48 587.14,-129.39"/>
</a>
</g>
</g>
<!-- Node11 -->
<g id="Node000011" class="node">
<title>Node11</title>
<g id="a_Node000011"><a xlink:href="class_o_c_a_1_1_c_a_f_e_v_d_b_1_1_service_1_1_encryption_service.html#aef02d325583d49207e4852023acf572d" target="_top" xlink:title=" ">
<polygon fill="white" stroke="#666666" points="521.88,-20 411.38,-20 411.38,0 521.88,0 521.88,-20"/>
<text text-anchor="middle" x="466.62" y="-6.5" font-family="Helvetica,sans-Serif" font-size="10.00">getAppEncryptionKey</text>
</a>
</g>
</g>
<!-- Node10&#45;&gt;Node11 -->
<g id="edge10_Node000010_Node000011" class="edge">
<title>Node10&#45;&gt;Node11</title>
<g id="a_edge10_Node000010_Node000011"><a xlink:title=" ">
<path fill="none" stroke="#63b8ff" d="M359.13,-37.72C376.13,-33.29 396.21,-28.07 414.34,-23.35"/>
<polygon fill="#63b8ff" stroke="#63b8ff" points="415.06,-26.78 423.86,-20.87 413.3,-20 415.06,-26.78"/>
</a>
</g>
</g>
<!-- Node12&#45;&gt;Node7 -->
<g id="edge13_Node000012_Node000007" class="edge">
<title>Node12&#45;&gt;Node7</title>
<g id="a_edge13_Node000012_Node000007"><a xlink:title=" ">
<path fill="none" stroke="#63b8ff" d="M361.07,-86C372.5,-86 385.2,-86 397.7,-86"/>
<polygon fill="#63b8ff" stroke="#63b8ff" points="397.57,-89.5 407.57,-86 397.57,-82.5 397.57,-89.5"/>
</a>
</g>
</g>
</g>
</svg>
