<?xml version="1.0" encoding="UTF-8" standalone="no"?>
<!DOCTYPE svg PUBLIC "-//W3C//DTD SVG 1.1//EN"
 "http://www.w3.org/Graphics/SVG/1.1/DTD/svg11.dtd">
<!-- Generated by graphviz version 7.1.0 (20230121.1956)
 -->
<!-- Title: getRoot Pages: 1 -->
<svg width="510pt" height="60pt"
 viewBox="0.00 0.00 510.00 60.00" xmlns="http://www.w3.org/2000/svg" xmlns:xlink="http://www.w3.org/1999/xlink">
<g id="graph0" class="graph" transform="scale(1 1) rotate(0) translate(4 56)">
<title>getRoot</title>
<!-- Node1 -->
<g id="node1" class="node">
<title>Node1</title>
<g id="a_node1"><a xlink:title=" ">
<polygon fill="#999999" stroke="#666666" points="502,-35.5 451,-35.5 451,-16.5 502,-16.5 502,-35.5"/>
<text text-anchor="middle" x="476.5" y="-23.5" font-family="Helvetica,sans-Serif" font-size="10.00">getRoot</text>
</a>
</g>
</g>
<!-- Node2 -->
<g id="node2" class="node">
<title>Node2</title>
<g id="a_node2"><a xlink:href="class_o_c_a_1_1_c_a_f_e_v_d_b_1_1_database_1_1_doctrine_1_1_o_r_m_1_1_entities_1_1_project.html#a213742d9e35e53456aad8935feb01a94" target="_top" xlink:title="Get financialBalanceDocumentsFolder.">
<polygon fill="white" stroke="#666666" points="415,-52 224,-52 224,0 415,0 415,-52"/>
<text text-anchor="start" x="232" y="-40" font-family="Helvetica,sans-Serif" font-size="10.00">OCA\CAFEVDB\Database</text>
<text text-anchor="start" x="232" y="-29" font-family="Helvetica,sans-Serif" font-size="10.00">\Doctrine\ORM\Entities</text>
<text text-anchor="start" x="232" y="-18" font-family="Helvetica,sans-Serif" font-size="10.00">\Project\getFinancialBalanceDocuments</text>
<text text-anchor="middle" x="319.5" y="-7" font-family="Helvetica,sans-Serif" font-size="10.00">Folder</text>
</a>
</g>
</g>
<!-- Node1&#45;&gt;Node2 -->
<g id="edge1" class="edge">
<title>Node1&#45;&gt;Node2</title>
<path fill="none" stroke="#63b8ff" d="M439.28,-26C431.9,-26 423.82,-26 415.44,-26"/>
<polygon fill="#63b8ff" stroke="#63b8ff" points="439.08,-29.5 449.08,-26 439.08,-22.5 439.08,-29.5"/>
</g>
<!-- Node3 -->
<g id="node3" class="node">
<title>Node3</title>
<g id="a_node3"><a xlink:href="class_o_c_a_1_1_c_a_f_e_v_d_b_1_1_database_1_1_doctrine_1_1_o_r_m_1_1_entities_1_1_project.html#a68fe84419dad9f47730413755f8fd253" target="_top" xlink:title="Recurse to the balance documents folder and return its contents.">
<polygon fill="white" stroke="#666666" points="188,-52 0,-52 0,0 188,0 188,-52"/>
<text text-anchor="start" x="8" y="-40" font-family="Helvetica,sans-Serif" font-size="10.00">OCA\CAFEVDB\Database</text>
<text text-anchor="start" x="8" y="-29" font-family="Helvetica,sans-Serif" font-size="10.00">\Doctrine\ORM\Entities</text>
<text text-anchor="start" x="8" y="-18" font-family="Helvetica,sans-Serif" font-size="10.00">\Project\getFinancialBalanceSupporting</text>
<text text-anchor="middle" x="94" y="-7" font-family="Helvetica,sans-Serif" font-size="10.00">Documents</text>
</a>
</g>
</g>
<!-- Node2&#45;&gt;Node3 -->
<g id="edge2" class="edge">
<title>Node2&#45;&gt;Node3</title>
<path fill="none" stroke="#63b8ff" d="M212.34,-26C204.26,-26 196.14,-26 188.15,-26"/>
<polygon fill="#63b8ff" stroke="#63b8ff" points="212.2,-29.5 222.2,-26 212.2,-22.5 212.2,-29.5"/>
</g>
</g>
</svg>
