<?xml version="1.0" encoding="UTF-8" standalone="no"?>
<!DOCTYPE svg PUBLIC "-//W3C//DTD SVG 1.1//EN"
 "http://www.w3.org/Graphics/SVG/1.1/DTD/svg11.dtd">
<!-- Generated by graphviz version 8.0.3 (20230416.2022)
 -->
<!-- Title: addSlug Pages: 1 -->
<svg width="252pt" height="46pt"
 viewBox="0.00 0.00 252.00 46.00" xmlns="http://www.w3.org/2000/svg" xmlns:xlink="http://www.w3.org/1999/xlink">
<g id="graph0" class="graph" transform="scale(1 1) rotate(0) translate(4 42)">
<title>addSlug</title>
<!-- Node1 -->
<g id="node1" class="node">
<title>Node1</title>
<g id="a_node1"><a xlink:title="Add a &quot;slug&quot; as tooltips&#45;index and css&#45;class.">
<polygon fill="#999999" stroke="#666666" points="52,-38 0,-38 0,-19 52,-19 52,-38"/>
<text text-anchor="middle" x="26" y="-26" font-family="Helvetica,sans-Serif" font-size="10.00">addSlug</text>
</a>
</g>
</g>
<!-- Node2 -->
<g id="node2" class="node">
<title>Node2</title>
<g id="a_node2"><a xlink:href="class_o_c_a_1_1_c_a_f_e_v_d_b_1_1_page_renderer_1_1_p_m_e_table_view_base.html#aee57cb8d60602879f6a65e257cdcbf63" target="_top" xlink:title=" ">
<polygon fill="white" stroke="#666666" points="244,-38 186,-38 186,-19 244,-19 244,-38"/>
<text text-anchor="middle" x="215" y="-26" font-family="Helvetica,sans-Serif" font-size="10.00">cssClass</text>
</a>
</g>
</g>
<!-- Node1&#45;&gt;Node2 -->
<g id="edge1" class="edge">
<title>Node1&#45;&gt;Node2</title>
<path fill="none" stroke="#63b8ff" d="M52.22,-28.5C83.66,-28.5 137.75,-28.5 174.66,-28.5"/>
<polygon fill="#63b8ff" stroke="#63b8ff" points="174.52,-32 184.52,-28.5 174.52,-25 174.52,-32"/>
</g>
<!-- Node3 -->
<g id="node3" class="node">
<title>Node3</title>
<g id="a_node3"><a xlink:href="class_o_c_a_1_1_c_a_f_e_v_d_b_1_1_page_renderer_1_1_p_m_e_table_view_base.html#a166d2dbd24c4913a9461c5813bbb4232" target="_top" xlink:title="Generate a &quot;unified&quot; tooltip&#45;slug in order to obtain tool&#45;tips from the ToolTipsService.">
<polygon fill="white" stroke="#666666" points="150,-19 88,-19 88,0 150,0 150,-19"/>
<text text-anchor="middle" x="119" y="-7" font-family="Helvetica,sans-Serif" font-size="10.00">tooltipSlug</text>
</a>
</g>
</g>
<!-- Node1&#45;&gt;Node3 -->
<g id="edge2" class="edge">
<title>Node1&#45;&gt;Node3</title>
<path fill="none" stroke="#63b8ff" d="M52.35,-23.21C59.95,-21.62 68.5,-19.83 76.85,-18.09"/>
<polygon fill="#63b8ff" stroke="#63b8ff" points="77.55,-21.31 86.62,-15.84 76.11,-14.46 77.55,-21.31"/>
</g>
<!-- Node3&#45;&gt;Node2 -->
<g id="edge3" class="edge">
<title>Node3&#45;&gt;Node2</title>
<path fill="none" stroke="#63b8ff" d="M150.26,-15.62C158.17,-17.22 166.81,-18.96 175.1,-20.64"/>
<polygon fill="#63b8ff" stroke="#63b8ff" points="174.22,-24.23 184.71,-22.78 175.6,-17.37 174.22,-24.23"/>
</g>
</g>
</svg>
