<?xml version="1.0" encoding="UTF-8" standalone="no"?>
<!DOCTYPE svg PUBLIC "-//W3C//DTD SVG 1.1//EN"
 "http://www.w3.org/Graphics/SVG/1.1/DTD/svg11.dtd">
<!-- Generated by graphviz version 8.0.3 (20230416.2022)
 -->
<!-- Title: findExecutable Pages: 1 -->
<svg width="229pt" height="175pt"
 viewBox="0.00 0.00 229.00 175.00" xmlns="http://www.w3.org/2000/svg" xmlns:xlink="http://www.w3.org/1999/xlink">
<g id="graph0" class="graph" transform="scale(1 1) rotate(0) translate(4 171)">
<title>findExecutable</title>
<!-- Node1 -->
<g id="node1" class="node">
<title>Node1</title>
<g id="a_node1"><a xlink:title="Try to find the given executable.">
<polygon fill="#999999" stroke="#666666" points="221,-93 140,-93 140,-74 221,-74 221,-93"/>
<text text-anchor="middle" x="180.5" y="-81" font-family="Helvetica,sans-Serif" font-size="10.00">findExecutable</text>
</a>
</g>
</g>
<!-- Node2 -->
<g id="node2" class="node">
<title>Node2</title>
<g id="a_node2"><a xlink:href="class_o_c_a_1_1_c_a_f_e_v_d_b_1_1_documents_1_1_any_to_pdf.html#a3e26fa69d746379a52782626e1ce9a3e" target="_top" xlink:title=" ">
<polygon fill="white" stroke="#666666" points="96.5,-167 7.5,-167 7.5,-148 96.5,-148 96.5,-167"/>
<text text-anchor="middle" x="52" y="-155" font-family="Helvetica,sans-Serif" font-size="10.00">mhonarcConvert</text>
</a>
</g>
</g>
<!-- Node1&#45;&gt;Node2 -->
<g id="edge1" class="edge">
<title>Node1&#45;&gt;Node2</title>
<path fill="none" stroke="#63b8ff" d="M160.23,-100.34C145.58,-112.48 124.52,-128.59 104,-139.5 98.28,-142.54 91.94,-145.25 85.73,-147.59"/>
<polygon fill="#63b8ff" stroke="#63b8ff" points="162.08,-102.51 167.45,-93.37 157.56,-97.16 162.08,-102.51"/>
</g>
<!-- Node3 -->
<g id="node3" class="node">
<title>Node3</title>
<g id="a_node3"><a xlink:href="class_o_c_a_1_1_c_a_f_e_v_d_b_1_1_documents_1_1_any_to_pdf.html#ab7e7bf1db7b7ef23bf0ade7cdbc8ed4b" target="_top" xlink:title=" ">
<polygon fill="white" stroke="#666666" points="92,-130 12,-130 12,-111 92,-111 92,-130"/>
<text text-anchor="middle" x="52" y="-118" font-family="Helvetica,sans-Serif" font-size="10.00">ps2pdfConvert</text>
</a>
</g>
</g>
<!-- Node1&#45;&gt;Node3 -->
<g id="edge2" class="edge">
<title>Node1&#45;&gt;Node3</title>
<path fill="none" stroke="#63b8ff" d="M135.46,-96.38C119.57,-101.03 101.89,-106.2 86.99,-110.56"/>
<polygon fill="#63b8ff" stroke="#63b8ff" points="135.99,-99.58 144.6,-93.42 134.02,-92.86 135.99,-99.58"/>
</g>
<!-- Node4 -->
<g id="node4" class="node">
<title>Node4</title>
<g id="a_node4"><a xlink:href="class_o_c_a_1_1_c_a_f_e_v_d_b_1_1_documents_1_1_any_to_pdf.html#ab44f60f3eb83ea839a4306bc3f8ee34a" target="_top" xlink:title=" ">
<polygon fill="white" stroke="#666666" points="92.5,-93 11.5,-93 11.5,-74 92.5,-74 92.5,-93"/>
<text text-anchor="middle" x="52" y="-81" font-family="Helvetica,sans-Serif" font-size="10.00">tiff2pdfConvert</text>
</a>
</g>
</g>
<!-- Node1&#45;&gt;Node4 -->
<g id="edge3" class="edge">
<title>Node1&#45;&gt;Node4</title>
<path fill="none" stroke="#63b8ff" d="M129.04,-83.5C117.05,-83.5 104.42,-83.5 92.97,-83.5"/>
<polygon fill="#63b8ff" stroke="#63b8ff" points="128.82,-87 138.82,-83.5 128.82,-80 128.82,-87"/>
</g>
<!-- Node5 -->
<g id="node5" class="node">
<title>Node5</title>
<g id="a_node5"><a xlink:href="class_o_c_a_1_1_c_a_f_e_v_d_b_1_1_documents_1_1_any_to_pdf.html#ade04ef4d1f96d1fd4e6ec896cefb6f76" target="_top" xlink:title=" ">
<polygon fill="white" stroke="#666666" points="96,-56 8,-56 8,-37 96,-37 96,-56"/>
<text text-anchor="middle" x="52" y="-44" font-family="Helvetica,sans-Serif" font-size="10.00">unoconvConvert</text>
</a>
</g>
</g>
<!-- Node1&#45;&gt;Node5 -->
<g id="edge4" class="edge">
<title>Node1&#45;&gt;Node5</title>
<path fill="none" stroke="#63b8ff" d="M135.46,-70.62C119.57,-65.97 101.89,-60.8 86.99,-56.44"/>
<polygon fill="#63b8ff" stroke="#63b8ff" points="134.02,-74.14 144.6,-73.58 135.99,-67.42 134.02,-74.14"/>
</g>
<!-- Node6 -->
<g id="node6" class="node">
<title>Node6</title>
<g id="a_node6"><a xlink:href="class_o_c_a_1_1_c_a_f_e_v_d_b_1_1_documents_1_1_any_to_pdf.html#a52cf2faa2f4a73b0ece5a4a55545e35c" target="_top" xlink:title=" ">
<polygon fill="white" stroke="#666666" points="104,-19 0,-19 0,0 104,0 104,-19"/>
<text text-anchor="middle" x="52" y="-7" font-family="Helvetica,sans-Serif" font-size="10.00">wkhtmltopdfConvert</text>
</a>
</g>
</g>
<!-- Node1&#45;&gt;Node6 -->
<g id="edge5" class="edge">
<title>Node1&#45;&gt;Node6</title>
<path fill="none" stroke="#63b8ff" d="M160.12,-67.09C145.43,-55.23 124.35,-39.43 104,-28.5 97.67,-25.1 90.61,-22.05 83.8,-19.43"/>
<polygon fill="#63b8ff" stroke="#63b8ff" points="157.44,-70.24 167.38,-73.89 161.89,-64.83 157.44,-70.24"/>
</g>
</g>
</svg>
