<?xml version="1.0" encoding="UTF-8" standalone="no"?>
<!DOCTYPE svg PUBLIC "-//W3C//DTD SVG 1.1//EN"
 "http://www.w3.org/Graphics/SVG/1.1/DTD/svg11.dtd">
<!-- Generated by graphviz version 8.0.3 (20230416.2022)
 -->
<!-- Title: CompositePayment Pages: 1 -->
<svg width="206pt" height="137pt"
 viewBox="0.00 0.00 205.50 137.00" xmlns="http://www.w3.org/2000/svg" xmlns:xlink="http://www.w3.org/1999/xlink">
<g id="graph0" class="graph" transform="scale(1 1) rotate(0) translate(4 133)">
<title>CompositePayment</title>
<!-- Node1 -->
<g id="node1" class="node">
<title>Node1</title>
<g id="a_node1"><a xlink:title="DO NOT EDIT THIS FILE &#45; IT WAS CREATED BY DOCTRINE&#39;S PROXY GENERATOR.">
<polygon fill="#999999" stroke="#666666" points="182,-19 79,-19 79,0 182,0 182,-19"/>
<text text-anchor="middle" x="130.5" y="-7" font-family="Helvetica,sans-Serif" font-size="10.00">CompositePayment</text>
</a>
</g>
</g>
<!-- Node2 -->
<g id="node2" class="node">
<title>Node2</title>
<g id="a_node2"><a xlink:href="class_o_c_a_1_1_c_a_f_e_v_d_b_1_1_database_1_1_doctrine_1_1_o_r_m_1_1_entities_1_1_composite_payment.html" target="_top" xlink:title="CompositePayments collect a couple of ProjectPayments of the same Musician.">
<polygon fill="white" stroke="#666666" points="137,-74 34,-74 34,-55 137,-55 137,-74"/>
<text text-anchor="middle" x="85.5" y="-62" font-family="Helvetica,sans-Serif" font-size="10.00">CompositePayment</text>
</a>
</g>
</g>
<!-- Node2&#45;&gt;Node1 -->
<g id="edge1" class="edge">
<title>Node2&#45;&gt;Node1</title>
<path fill="none" stroke="#63b8ff" d="M99.94,-46.5C107.58,-37.5 116.64,-26.82 122.91,-19.44"/>
<polygon fill="#63b8ff" stroke="#63b8ff" points="96.74,-43.86 92.93,-53.75 102.07,-48.39 96.74,-43.86"/>
</g>
<!-- Node3 -->
<g id="node3" class="node">
<title>Node3</title>
<g id="a_node3"><a xlink:title=" ">
<polygon fill="white" stroke="#bfbfbf" points="73,-129 0,-129 0,-110 73,-110 73,-129"/>
<text text-anchor="middle" x="36.5" y="-117" font-family="Helvetica,sans-Serif" font-size="10.00">ArrayAccess</text>
</a>
</g>
</g>
<!-- Node3&#45;&gt;Node2 -->
<g id="edge2" class="edge">
<title>Node3&#45;&gt;Node2</title>
<path fill="none" stroke="#63b8ff" d="M51.96,-101.78C60.33,-92.72 70.34,-81.9 77.23,-74.44"/>
<polygon fill="#63b8ff" stroke="#63b8ff" points="49.81,-99.03 45.59,-108.75 54.95,-103.78 49.81,-99.03"/>
</g>
<!-- Node4 -->
<g id="node4" class="node">
<title>Node4</title>
<g id="a_node4"><a xlink:title=" ">
<polygon fill="white" stroke="#bfbfbf" points="179.5,-129 91.5,-129 91.5,-110 179.5,-110 179.5,-129"/>
<text text-anchor="middle" x="135.5" y="-117" font-family="Helvetica,sans-Serif" font-size="10.00">JsonSerializable</text>
</a>
</g>
</g>
<!-- Node4&#45;&gt;Node2 -->
<g id="edge3" class="edge">
<title>Node4&#45;&gt;Node2</title>
<path fill="none" stroke="#63b8ff" d="M119.72,-101.78C111.18,-92.72 100.97,-81.9 93.94,-74.44"/>
<polygon fill="#63b8ff" stroke="#63b8ff" points="116.84,-103.88 126.24,-108.75 121.93,-99.07 116.84,-103.88"/>
</g>
<!-- Node5 -->
<g id="node5" class="node">
<title>Node5</title>
<g id="a_node5"><a xlink:title=" ">
<polygon fill="white" stroke="#bfbfbf" points="197.5,-74 155.5,-74 155.5,-55 197.5,-55 197.5,-74"/>
<text text-anchor="middle" x="176.5" y="-62" font-family="Helvetica,sans-Serif" font-size="10.00">Proxy</text>
</a>
</g>
</g>
<!-- Node5&#45;&gt;Node1 -->
<g id="edge4" class="edge">
<title>Node5&#45;&gt;Node1</title>
<path fill="none" stroke="#63b8ff" d="M161.74,-46.5C153.93,-37.5 144.66,-26.82 138.26,-19.44"/>
<polygon fill="#63b8ff" stroke="#63b8ff" points="159.71,-48.49 168.9,-53.75 164.99,-43.9 159.71,-48.49"/>
</g>
</g>
</svg>
