<?xml version="1.0" encoding="UTF-8" standalone="no"?>
<!DOCTYPE svg PUBLIC "-//W3C//DTD SVG 1.1//EN"
 "http://www.w3.org/Graphics/SVG/1.1/DTD/svg11.dtd">
<!-- Generated by graphviz version 7.1.0 (20230121.1956)
 -->
<!-- Title: groupShareCalendar Pages: 1 -->
<svg width="397pt" height="103pt"
 viewBox="0.00 0.00 397.00 103.00" xmlns="http://www.w3.org/2000/svg" xmlns:xlink="http://www.w3.org/1999/xlink">
<g id="graph0" class="graph" transform="scale(1 1) rotate(0) translate(4 99)">
<title>groupShareCalendar</title>
<!-- Node1 -->
<g id="node1" class="node">
<title>Node1</title>
<g id="a_node1"><a xlink:title="Share the given calendar with a group.">
<polygon fill="#999999" stroke="#666666" points="105,-57 0,-57 0,-38 105,-38 105,-57"/>
<text text-anchor="middle" x="52.5" y="-45" font-family="Helvetica,sans-Serif" font-size="10.00">groupShareCalendar</text>
</a>
</g>
</g>
<!-- Node2 -->
<g id="node2" class="node">
<title>Node2</title>
<g id="a_node2"><a xlink:href="class_o_c_a_1_1_c_a_f_e_v_d_b_1_1_service_1_1_cal_dav_service.html#a73af2c12aae06cdd9242151cfbdb94be" target="_top" xlink:title="Test if the given calendar is shared with the given group.">
<polygon fill="white" stroke="#666666" points="261,-95 141,-95 141,-76 261,-76 261,-95"/>
<text text-anchor="middle" x="201" y="-83" font-family="Helvetica,sans-Serif" font-size="10.00">isGroupSharedCalendar</text>
</a>
</g>
</g>
<!-- Node1&#45;&gt;Node2 -->
<g id="edge1" class="edge">
<title>Node1&#45;&gt;Node2</title>
<path fill="none" stroke="#63b8ff" d="M91.99,-57.48C109.92,-62.13 131.47,-67.72 150.58,-72.68"/>
<polygon fill="#63b8ff" stroke="#63b8ff" points="149.49,-76.01 160.05,-75.14 151.25,-69.24 149.49,-76.01"/>
</g>
<!-- Node3 -->
<g id="node3" class="node">
<title>Node3</title>
<g id="a_node3"><a xlink:href="class_o_c_a_1_1_c_a_f_e_v_d_b_1_1_service_1_1_cal_dav_service.html#ae15d4de248635c80289eb846492d31e2" target="_top" xlink:title=" ">
<polygon fill="white" stroke="#666666" points="389,-76 297,-76 297,-57 389,-57 389,-76"/>
<text text-anchor="middle" x="343" y="-64" font-family="Helvetica,sans-Serif" font-size="10.00">makeGroupShare</text>
</a>
</g>
</g>
<!-- Node1&#45;&gt;Node3 -->
<g id="edge4" class="edge">
<title>Node1&#45;&gt;Node3</title>
<path fill="none" stroke="#63b8ff" d="M105.41,-50.92C156.09,-54.26 232.99,-59.32 285.26,-62.76"/>
<polygon fill="#63b8ff" stroke="#63b8ff" points="284.96,-66.25 295.16,-63.42 285.42,-59.27 284.96,-66.25"/>
</g>
<!-- Node4 -->
<g id="node4" class="node">
<title>Node4</title>
<g id="a_node4"><a xlink:href="class_o_c_a_1_1_c_a_f_e_v_d_b_1_1_service_1_1_cal_dav_service.html#a95d471e2ffc087c4a6e55a8416cd7d59" target="_top" xlink:title="Create a new calendar if the one with the given id does not exist.">
<polygon fill="white" stroke="#666666" points="241,-19 161,-19 161,0 241,0 241,-19"/>
<text text-anchor="middle" x="201" y="-7" font-family="Helvetica,sans-Serif" font-size="10.00">makeCalendar</text>
</a>
</g>
</g>
<!-- Node1&#45;&gt;Node4 -->
<g id="edge3" class="edge">
<title>Node1&#45;&gt;Node4</title>
<path fill="none" stroke="#63b8ff" d="M91.99,-37.52C109.92,-32.87 131.47,-27.28 150.58,-22.32"/>
<polygon fill="#63b8ff" stroke="#63b8ff" points="151.25,-25.76 160.05,-19.86 149.49,-18.99 151.25,-25.76"/>
</g>
<!-- Node2&#45;&gt;Node3 -->
<g id="edge2" class="edge">
<title>Node2&#45;&gt;Node3</title>
<path fill="none" stroke="#63b8ff" d="M261.37,-77.44C269.28,-76.37 277.38,-75.27 285.25,-74.2"/>
<polygon fill="#63b8ff" stroke="#63b8ff" points="285.62,-77.68 295.06,-72.87 284.68,-70.75 285.62,-77.68"/>
</g>
</g>
</svg>
