<?xml version="1.0" encoding="UTF-8" standalone="no"?>
<!DOCTYPE svg PUBLIC "-//W3C//DTD SVG 1.1//EN"
 "http://www.w3.org/Graphics/SVG/1.1/DTD/svg11.dtd">
<!-- Generated by graphviz version 9.0.0 (20230911.1827)
 -->
<!-- Title: getKeyPair Pages: 1 -->
<svg width="298pt" height="75pt"
 viewBox="0.00 0.00 297.50 75.00" xmlns="http://www.w3.org/2000/svg" xmlns:xlink="http://www.w3.org/1999/xlink">
<g id="graph0" class="graph" transform="scale(1 1) rotate(0) translate(4 71)">
<title>getKeyPair</title>
<!-- Node1 -->
<g id="Node000001" class="node">
<title>Node1</title>
<g id="a_Node000001"><a xlink:title="{Retrieve an existing private/public key pair from the key&#45;storage.array&lt;string, string&gt; [ &#39;privateEn...">
<polygon fill="#999999" stroke="#666666" points="64,-48 0,-48 0,-28 64,-28 64,-48"/>
<text text-anchor="middle" x="32" y="-34.5" font-family="Helvetica,sans-Serif" font-size="10.00">getKeyPair</text>
</a>
</g>
</g>
<!-- Node2 -->
<g id="Node000002" class="node">
<title>Node2</title>
<g id="a_Node000002"><a xlink:href="class_o_c_a_1_1_c_a_f_e_v_d_b_1_1_crypto_1_1_cloud_asymmetric_key_storage.html#a234d412fd67a827e1ef76aee0263a985" target="_top" xlink:title="{Retrieve an existing pulic key from the key&#45;storage.mixed|null Public key or null if none is found....">
<polygon fill="white" stroke="#666666" points="173.75,-48 100,-48 100,-28 173.75,-28 173.75,-48"/>
<text text-anchor="middle" x="136.88" y="-34.5" font-family="Helvetica,sans-Serif" font-size="10.00">getPublicKey</text>
</a>
</g>
</g>
<!-- Node1&#45;&gt;Node2 -->
<g id="edge1_Node000001_Node000002" class="edge">
<title>Node1&#45;&gt;Node2</title>
<g id="a_edge1_Node000001_Node000002"><a xlink:title=" ">
<path fill="none" stroke="#63b8ff" d="M64.42,-38C71.98,-38 80.21,-38 88.31,-38"/>
<polygon fill="#63b8ff" stroke="#63b8ff" points="88.08,-41.5 98.08,-38 88.08,-34.5 88.08,-41.5"/>
</a>
</g>
</g>
<!-- Node3 -->
<g id="Node000003" class="node">
<title>Node3</title>
<g id="a_Node000003"><a xlink:href="class_o_c_a_1_1_c_a_f_e_v_d_b_1_1_crypto_1_1_cloud_asymmetric_key_storage.html#a22f229329d340dcd3fb629e91c9b95b9" target="_top" xlink:title=" ">
<polygon fill="white" stroke="#666666" points="286.88,-67 212.38,-67 212.38,-47 286.88,-47 286.88,-67"/>
<text text-anchor="middle" x="249.62" y="-53.5" font-family="Helvetica,sans-Serif" font-size="10.00">getUserValue</text>
</a>
</g>
</g>
<!-- Node1&#45;&gt;Node3 -->
<g id="edge4_Node000001_Node000003" class="edge">
<title>Node1&#45;&gt;Node3</title>
<g id="a_edge4_Node000001_Node000003"><a xlink:title=" ">
<path fill="none" stroke="#63b8ff" d="M62.97,-48.41C74.41,-51.87 87.67,-55.28 100,-57 133.5,-61.66 171.67,-61.55 200.94,-60.33"/>
<polygon fill="#63b8ff" stroke="#63b8ff" points="200.76,-63.84 210.58,-59.86 200.42,-56.85 200.76,-63.84"/>
</a>
</g>
</g>
<!-- Node4 -->
<g id="Node000004" class="node">
<title>Node4</title>
<g id="a_Node000004"><a xlink:href="class_o_c_a_1_1_c_a_f_e_v_d_b_1_1_crypto_1_1_cloud_asymmetric_key_storage.html#a63312920564297d50e6f355d9c3c6e9b" target="_top" xlink:title="Decode the raw data fetch from whatever storage backend.">
<polygon fill="white" stroke="#666666" points="289.5,-20 209.75,-20 209.75,0 289.5,0 289.5,-20"/>
<text text-anchor="middle" x="249.62" y="-6.5" font-family="Helvetica,sans-Serif" font-size="10.00">unserializeKey</text>
</a>
</g>
</g>
<!-- Node1&#45;&gt;Node4 -->
<g id="edge5_Node000001_Node000004" class="edge">
<title>Node1&#45;&gt;Node4</title>
<g id="a_edge5_Node000001_Node000004"><a xlink:title=" ">
<path fill="none" stroke="#63b8ff" d="M64.38,-27.59C75.51,-24.3 88.2,-21.01 100,-19 132.37,-13.5 169.2,-11.24 198.1,-10.36"/>
<polygon fill="#63b8ff" stroke="#63b8ff" points="198.14,-13.86 208.05,-10.11 197.96,-6.86 198.14,-13.86"/>
</a>
</g>
</g>
<!-- Node2&#45;&gt;Node3 -->
<g id="edge2_Node000002_Node000003" class="edge">
<title>Node2&#45;&gt;Node3</title>
<g id="a_edge2_Node000002_Node000003"><a xlink:title=" ">
<path fill="none" stroke="#63b8ff" d="M174.14,-44.22C182.66,-45.68 191.86,-47.26 200.8,-48.79"/>
<polygon fill="#63b8ff" stroke="#63b8ff" points="199.96,-52.2 210.41,-50.44 201.14,-45.3 199.96,-52.2"/>
</a>
</g>
</g>
<!-- Node2&#45;&gt;Node4 -->
<g id="edge3_Node000002_Node000004" class="edge">
<title>Node2&#45;&gt;Node4</title>
<g id="a_edge3_Node000002_Node000004"><a xlink:title=" ">
<path fill="none" stroke="#63b8ff" d="M174.14,-28.83C181.95,-26.86 190.33,-24.74 198.56,-22.66"/>
<polygon fill="#63b8ff" stroke="#63b8ff" points="199.3,-26.08 208.14,-20.24 197.59,-19.29 199.3,-26.08"/>
</a>
</g>
</g>
</g>
</svg>
