<?xml version="1.0" encoding="UTF-8" standalone="no"?>
<!DOCTYPE svg PUBLIC "-//W3C//DTD SVG 1.1//EN"
 "http://www.w3.org/Graphics/SVG/1.1/DTD/svg11.dtd">
<!-- Generated by graphviz version 9.0.0 (20230911.1827)
 -->
<!-- Title: getUnapplied Pages: 1 -->
<svg width="523pt" height="28pt"
 viewBox="0.00 0.00 522.75 28.00" xmlns="http://www.w3.org/2000/svg" xmlns:xlink="http://www.w3.org/1999/xlink">
<g id="graph0" class="graph" transform="scale(1 1) rotate(0) translate(4 24)">
<title>getUnapplied</title>
<!-- Node1 -->
<g id="Node000001" class="node">
<title>Node1</title>
<g id="a_Node000001"><a xlink:title=" ">
<polygon fill="#999999" stroke="#666666" points="73,-20 0,-20 0,0 73,0 73,-20"/>
<text text-anchor="middle" x="36.5" y="-6.5" font-family="Helvetica,sans-Serif" font-size="10.00">getUnapplied</text>
</a>
</g>
</g>
<!-- Node2 -->
<g id="Node000002" class="node">
<title>Node2</title>
<g id="a_Node000002"><a xlink:href="class_o_c_a_1_1_c_a_f_e_v_d_b_1_1_service_1_1_migrations_service.html#a926abdf64e718f3405a12bcdaa87be51" target="_top" xlink:title="Ensure all unapplied migrations are loaded.">
<polygon fill="white" stroke="#666666" points="245.75,-20 109,-20 109,0 245.75,0 245.75,-20"/>
<text text-anchor="middle" x="177.38" y="-6.5" font-family="Helvetica,sans-Serif" font-size="10.00">ensureMigrationsAreLoaded</text>
</a>
</g>
</g>
<!-- Node1&#45;&gt;Node2 -->
<g id="edge1_Node000001_Node000002" class="edge">
<title>Node1&#45;&gt;Node2</title>
<g id="a_edge1_Node000001_Node000002"><a xlink:title=" ">
<path fill="none" stroke="#63b8ff" d="M73.26,-10C80.72,-10 88.87,-10 97.2,-10"/>
<polygon fill="#63b8ff" stroke="#63b8ff" points="97.12,-13.5 107.12,-10 97.12,-6.5 97.12,-13.5"/>
</a>
</g>
</g>
<!-- Node3 -->
<g id="Node000003" class="node">
<title>Node3</title>
<g id="a_Node000003"><a xlink:href="class_o_c_a_1_1_c_a_f_e_v_d_b_1_1_service_1_1_migrations_service.html#a5a9dff6c1ff549453de63b85b2ece1a0" target="_top" xlink:title="Find all unapplied migrations.">
<polygon fill="white" stroke="#666666" points="402,-20 281.75,-20 281.75,0 402,0 402,-20"/>
<text text-anchor="middle" x="341.88" y="-6.5" font-family="Helvetica,sans-Serif" font-size="10.00">findUnappliedMigrations</text>
</a>
</g>
</g>
<!-- Node2&#45;&gt;Node3 -->
<g id="edge2_Node000002_Node000003" class="edge">
<title>Node2&#45;&gt;Node3</title>
<g id="a_edge2_Node000002_Node000003"><a xlink:title=" ">
<path fill="none" stroke="#63b8ff" d="M245.88,-10C253.88,-10 262.06,-10 270.11,-10"/>
<polygon fill="#63b8ff" stroke="#63b8ff" points="269.84,-13.5 279.84,-10 269.84,-6.5 269.84,-13.5"/>
</a>
</g>
</g>
<!-- Node4 -->
<g id="Node000004" class="node">
<title>Node4</title>
<g id="a_Node000004"><a xlink:href="class_o_c_a_1_1_c_a_f_e_v_d_b_1_1_service_1_1_migrations_service.html#af398c267dc84e9a97bf2a48a46871dcf" target="_top" xlink:title=" ">
<polygon fill="white" stroke="#666666" points="514.75,-20 438,-20 438,0 514.75,0 514.75,-20"/>
<text text-anchor="middle" x="476.38" y="-6.5" font-family="Helvetica,sans-Serif" font-size="10.00">findMigrations</text>
</a>
</g>
</g>
<!-- Node3&#45;&gt;Node4 -->
<g id="edge3_Node000003_Node000004" class="edge">
<title>Node3&#45;&gt;Node4</title>
<g id="a_edge3_Node000003_Node000004"><a xlink:title=" ">
<path fill="none" stroke="#63b8ff" d="M402.15,-10C410.3,-10 418.59,-10 426.52,-10"/>
<polygon fill="#63b8ff" stroke="#63b8ff" points="426.31,-13.5 436.31,-10 426.31,-6.5 426.31,-13.5"/>
</a>
</g>
</g>
</g>
</svg>
