<?xml version="1.0" encoding="UTF-8" standalone="no"?>
<!DOCTYPE svg PUBLIC "-//W3C//DTD SVG 1.1//EN"
 "http://www.w3.org/Graphics/SVG/1.1/DTD/svg11.dtd">
<!-- Generated by graphviz version 9.0.0 (20230911.1827)
 -->
<!-- Title: arrayMergeTwoRecursive Pages: 1 -->
<!--zoomable 423 -->

<svg id="main" version="1.1" xmlns="http://www.w3.org/2000/svg" xmlns:xlink="http://www.w3.org/1999/xlink" xml:space="preserve" onload="init(evt)">
<style type="text/css"><![CDATA[
.node, .edge {opacity: 0.7;}
.node.selected, .edge.selected {opacity: 1;}
.edge:hover path { stroke: red; }
.edge:hover polygon { stroke: red; fill: red; }
]]></style>

<defs>
  <circle id="rim" cx="0" cy="0" r="7"/>
  <circle id="rim2" cx="0" cy="0" r="3.5"/>
  <g id="zoomPlus">
    <use xlink:href="#rim" fill="#404040"><set attributeName="fill" to="#808080" begin="zoomplus.mouseover" end="zoomplus.mouseout"/></use>
    <path d="M-4,0h8M0,-4v8" fill="none" stroke="white" stroke-width="1.5" pointer-events="none"/>
  </g>
  <g id="zoomMin">
    <use xlink:href="#rim" fill="#404040"><set attributeName="fill" to="#808080" begin="zoomminus.mouseover" end="zoomminus.mouseout"/></use>
    <path d="M-4,0h8" fill="none" stroke="white" stroke-width="1.5" pointer-events="none"/>
  </g>
  <g id="arrowUp" transform="translate(30 24)">
    <use xlink:href="#rim"/>
    <path pointer-events="none" fill="none" stroke="white" stroke-width="1.5" d="M0,-3.0v7 M-2.5,-0.5L0,-3.0L2.5,-0.5"/>
  </g>
  <g id="arrowRight" transform="rotate(90) translate(36 -43)">
    <use xlink:href="#rim"/>
    <path pointer-events="none" fill="none" stroke="white" stroke-width="1.5" d="M0,-3.0v7 M-2.5,-0.5L0,-3.0L2.5,-0.5"/>
  </g>
  <g id="arrowDown" transform="rotate(180) translate(-30 -48)">
    <use xlink:href="#rim"/>
    <path pointer-events="none" fill="none" stroke="white" stroke-width="1.5" d="M0,-3.0v7 M-2.5,-0.5L0,-3.0L2.5,-0.5"/>
  </g>
  <g id="arrowLeft" transform="rotate(270) translate(-36 17)">
    <use xlink:href="#rim"/>
    <path pointer-events="none" fill="none" stroke="white" stroke-width="1.5" d="M0,-3.0v7 M-2.5,-0.5L0,-3.0L2.5,-0.5"/>
  </g>
  <g id="resetDef">
    <use xlink:href="#rim2" fill="#404040"><set attributeName="fill" to="#808080" begin="reset.mouseover" end="reset.mouseout"/></use>
  </g>
</defs>
<script type="application/ecmascript">
var viewWidth = 737;
var viewHeight = 423;
var sectionId = 'dynsection-4';
</script>
<script type="application/ecmascript" xlink:href="svg.min.js"/>
<svg id="graph" class="graph">
<g id="viewport">
<title>arrayMergeTwoRecursive</title>
<!-- Node1 -->
<g id="Node000001" class="node">
<title>Node1</title>
<g id="a_Node000001"><a xlink:title="Inner work&#45;horse for arrayMergeRecursive.">
<polygon fill="#999999" stroke="#666666" points="728.5,-215 601.5,-215 601.5,-195 728.5,-195 728.5,-215"/>
<text text-anchor="middle" x="665" y="-201.5" font-family="Helvetica,sans-Serif" font-size="10.00">arrayMergeTwoRecursive</text>
</a>
</g>
</g>
<!-- Node1&#45;&gt;Node1 -->
<g id="edge19_Node000001_Node000001" class="edge">
<title>Node1&#45;&gt;Node1</title>
<g id="a_edge19_Node000001_Node000001"><a xlink:title=" ">
<path fill="none" stroke="#63b8ff" d="M692.22,-226.44C688.71,-230.3 679.64,-233 665,-233 638.23,-233 630.07,-223.98 640.53,-215.34"/>
<polygon fill="#63b8ff" stroke="#63b8ff" points="695.63,-225.67 689.83,-216.81 688.84,-227.36 695.63,-225.67"/>
</a>
</g>
</g>
<!-- Node2 -->
<g id="Node000002" class="node">
<title>Node2</title>
<g id="a_Node000002"><a xlink:href="class_o_c_a_1_1_c_a_f_e_v_d_b_1_1_common_1_1_util.html#a3ad8a4109147715b8c5573d1dbdb2d3d" target="_top" xlink:title="Merge $arrays recursively where later arguments in the list override the values of previous arguments...">
<polygon fill="white" stroke="#666666" points="565.5,-215 456.5,-215 456.5,-195 565.5,-195 565.5,-215"/>
<text text-anchor="middle" x="511" y="-201.5" font-family="Helvetica,sans-Serif" font-size="10.00">arrayMergeRecursive</text>
</a>
</g>
</g>
<!-- Node1&#45;&gt;Node2 -->
<g id="edge1_Node000001_Node000002" class="edge">
<title>Node1&#45;&gt;Node2</title>
<g id="a_edge1_Node000001_Node000002"><a xlink:title=" ">
<path fill="none" stroke="#63b8ff" d="M589.89,-205C581.77,-205 573.63,-205 565.83,-205"/>
<polygon fill="#63b8ff" stroke="#63b8ff" points="589.78,-208.5 599.78,-205 589.78,-201.5 589.78,-208.5"/>
</a>
</g>
</g>
<!-- Node3 -->
<g id="Node000003" class="node">
<title>Node3</title>
<g id="a_Node000003"><a xlink:href="class_o_c_a_1_1_c_a_f_e_v_d_b_1_1_page_renderer_1_1_p_m_e_table_view_base.html#a4bc3294be95e06a40ae3bdc7d5419749" target="_top" xlink:title="Generate a join&#45;table field, given join&#45;table and field name.">
<polygon fill="white" stroke="#666666" points="420.5,-284 223,-284 223,-252 420.5,-252 420.5,-284"/>
<text text-anchor="start" x="231" y="-270.5" font-family="Helvetica,sans-Serif" font-size="10.00">OCA\CAFEVDB\PageRenderer</text>
<text text-anchor="middle" x="321.75" y="-258.5" font-family="Helvetica,sans-Serif" font-size="10.00">\PMETableViewBase\makeJoinTableField</text>
</a>
</g>
</g>
<!-- Node2&#45;&gt;Node3 -->
<g id="edge2_Node000002_Node000003" class="edge">
<title>Node2&#45;&gt;Node3</title>
<g id="a_edge2_Node000002_Node000003"><a xlink:title=" ">
<path fill="none" stroke="#63b8ff" d="M472.58,-219.32C456.6,-225.3 437.71,-232.19 420.5,-238 406.88,-242.6 392.09,-247.29 378.24,-251.56"/>
<polygon fill="#63b8ff" stroke="#63b8ff" points="473.57,-222.69 481.7,-215.89 471.11,-216.14 473.57,-222.69"/>
</a>
</g>
</g>
<!-- Node4 -->
<g id="Node000004" class="node">
<title>Node4</title>
<g id="a_Node000004"><a xlink:href="class_o_c_a_1_1_c_a_f_e_v_d_b_1_1_page_renderer_1_1_instrument_families.html#ab91557ae1e08e1183c76c9ce39edfe33" target="_top" xlink:title="{Show the underlying template page.This is supposed to echo html code to stdout. This is the default ...">
<polygon fill="white" stroke="#666666" points="170.5,-415 16.5,-415 16.5,-383 170.5,-383 170.5,-415"/>
<text text-anchor="start" x="24.5" y="-401.5" font-family="Helvetica,sans-Serif" font-size="10.00">OCA\CAFEVDB\PageRenderer</text>
<text text-anchor="middle" x="93.5" y="-389.5" font-family="Helvetica,sans-Serif" font-size="10.00">\InstrumentFamilies\render</text>
</a>
</g>
</g>
<!-- Node2&#45;&gt;Node4 -->
<g id="edge10_Node000002_Node000004" class="edge">
<title>Node2&#45;&gt;Node4</title>
<g id="a_edge10_Node000002_Node000004"><a xlink:title=" ">
<path fill="none" stroke="#63b8ff" d="M503.96,-225.79C493.15,-258.95 467.15,-323.2 420.5,-354 346.12,-403.11 241.33,-409.08 170.82,-406.24"/>
<polygon fill="#63b8ff" stroke="#63b8ff" points="507.21,-227.14 506.82,-216.55 500.52,-225.07 507.21,-227.14"/>
</a>
</g>
</g>
<!-- Node5 -->
<g id="Node000005" class="node">
<title>Node5</title>
<g id="a_Node000005"><a xlink:href="class_o_c_a_1_1_c_a_f_e_v_d_b_1_1_page_renderer_1_1_instrument_insurances.html#ab91557ae1e08e1183c76c9ce39edfe33" target="_top" xlink:title="{Show the underlying template page.This is supposed to echo html code to stdout. This is the default ...">
<polygon fill="white" stroke="#666666" points="170.5,-365 16.5,-365 16.5,-333 170.5,-333 170.5,-365"/>
<text text-anchor="start" x="24.5" y="-351.5" font-family="Helvetica,sans-Serif" font-size="10.00">OCA\CAFEVDB\PageRenderer</text>
<text text-anchor="middle" x="93.5" y="-339.5" font-family="Helvetica,sans-Serif" font-size="10.00">\InstrumentInsurances\render</text>
</a>
</g>
</g>
<!-- Node2&#45;&gt;Node5 -->
<g id="edge11_Node000002_Node000005" class="edge">
<title>Node2&#45;&gt;Node5</title>
<g id="a_edge11_Node000002_Node000005"><a xlink:title=" ">
<path fill="none" stroke="#63b8ff" d="M500.67,-225.49C487.2,-252.39 459.57,-298.7 420.5,-320 343.3,-362.09 240.31,-363.89 170.92,-358.73"/>
<polygon fill="#63b8ff" stroke="#63b8ff" points="503.74,-227.17 504.91,-216.64 497.43,-224.14 503.74,-227.17"/>
</a>
</g>
</g>
<!-- Node6 -->
<g id="Node000006" class="node">
<title>Node6</title>
<g id="a_Node000006"><a xlink:href="class_o_c_a_1_1_c_a_f_e_v_d_b_1_1_page_renderer_1_1_instruments.html#ab91557ae1e08e1183c76c9ce39edfe33" target="_top" xlink:title="{Show the underlying template page.This is supposed to echo html code to stdout. This is the default ...">
<polygon fill="white" stroke="#666666" points="170.5,-315 16.5,-315 16.5,-283 170.5,-283 170.5,-315"/>
<text text-anchor="start" x="24.5" y="-301.5" font-family="Helvetica,sans-Serif" font-size="10.00">OCA\CAFEVDB\PageRenderer</text>
<text text-anchor="middle" x="93.5" y="-289.5" font-family="Helvetica,sans-Serif" font-size="10.00">\Instruments\render</text>
</a>
</g>
</g>
<!-- Node2&#45;&gt;Node6 -->
<g id="edge12_Node000002_Node000006" class="edge">
<title>Node2&#45;&gt;Node6</title>
<g id="a_edge12_Node000002_Node000006"><a xlink:title=" ">
<path fill="none" stroke="#63b8ff" d="M496.92,-224.84C481.53,-246.2 453.82,-279 420.5,-293 340.39,-326.65 239.14,-322.1 170.91,-313.07"/>
<polygon fill="#63b8ff" stroke="#63b8ff" points="499.78,-226.86 502.59,-216.65 494.02,-222.88 499.78,-226.86"/>
</a>
</g>
</g>
<!-- Node7 -->
<g id="Node000007" class="node">
<title>Node7</title>
<g id="a_Node000007"><a xlink:href="class_o_c_a_1_1_c_a_f_e_v_d_b_1_1_page_renderer_1_1_project_instrumentation_numbers.html#ab91557ae1e08e1183c76c9ce39edfe33" target="_top" xlink:title="{Show the underlying template page.This is supposed to echo html code to stdout. This is the default ...">
<polygon fill="white" stroke="#666666" points="187,-265 0,-265 0,-233 187,-233 187,-265"/>
<text text-anchor="start" x="8" y="-251.5" font-family="Helvetica,sans-Serif" font-size="10.00">OCA\CAFEVDB\PageRenderer</text>
<text text-anchor="middle" x="93.5" y="-239.5" font-family="Helvetica,sans-Serif" font-size="10.00">\ProjectInstrumentationNumbers\render</text>
</a>
</g>
</g>
<!-- Node2&#45;&gt;Node7 -->
<g id="edge15_Node000002_Node000007" class="edge">
<title>Node2&#45;&gt;Node7</title>
<g id="a_edge15_Node000002_Node000007"><a xlink:title=" ">
<path fill="none" stroke="#63b8ff" d="M444.93,-211.89C375.67,-219.23 265.47,-230.89 187.16,-239.19"/>
<polygon fill="#63b8ff" stroke="#63b8ff" points="445.03,-215.4 454.6,-210.87 444.29,-208.44 445.03,-215.4"/>
</a>
</g>
</g>
<!-- Node8 -->
<g id="Node000008" class="node">
<title>Node8</title>
<g id="a_Node000008"><a xlink:href="class_o_c_a_1_1_c_a_f_e_v_d_b_1_1_page_renderer_1_1_project_participant_fields.html#ab91557ae1e08e1183c76c9ce39edfe33" target="_top" xlink:title="{Show the underlying template page.This is supposed to echo html code to stdout. This is the default ...">
<polygon fill="white" stroke="#666666" points="170.5,-215 16.5,-215 16.5,-183 170.5,-183 170.5,-215"/>
<text text-anchor="start" x="24.5" y="-201.5" font-family="Helvetica,sans-Serif" font-size="10.00">OCA\CAFEVDB\PageRenderer</text>
<text text-anchor="middle" x="93.5" y="-189.5" font-family="Helvetica,sans-Serif" font-size="10.00">\ProjectParticipantFields\render</text>
</a>
</g>
</g>
<!-- Node2&#45;&gt;Node8 -->
<g id="edge16_Node000002_Node000008" class="edge">
<title>Node2&#45;&gt;Node8</title>
<g id="a_edge16_Node000002_Node000008"><a xlink:title=" ">
<path fill="none" stroke="#63b8ff" d="M444.61,-204.06C370.36,-202.98 249.39,-201.24 170.87,-200.1"/>
<polygon fill="#63b8ff" stroke="#63b8ff" points="444.54,-207.56 454.59,-204.2 444.64,-200.56 444.54,-207.56"/>
</a>
</g>
</g>
<!-- Node9 -->
<g id="Node000009" class="node">
<title>Node9</title>
<g id="a_Node000009"><a xlink:href="class_o_c_a_1_1_c_a_f_e_v_d_b_1_1_page_renderer_1_1_project_participants.html#ab91557ae1e08e1183c76c9ce39edfe33" target="_top" xlink:title="{Show the underlying template page.This is supposed to echo html code to stdout. This is the default ...">
<polygon fill="white" stroke="#666666" points="170.5,-165 16.5,-165 16.5,-133 170.5,-133 170.5,-165"/>
<text text-anchor="start" x="24.5" y="-151.5" font-family="Helvetica,sans-Serif" font-size="10.00">OCA\CAFEVDB\PageRenderer</text>
<text text-anchor="middle" x="93.5" y="-139.5" font-family="Helvetica,sans-Serif" font-size="10.00">\ProjectParticipants\render</text>
</a>
</g>
</g>
<!-- Node2&#45;&gt;Node9 -->
<g id="edge17_Node000002_Node000009" class="edge">
<title>Node2&#45;&gt;Node9</title>
<g id="a_edge17_Node000002_Node000009"><a xlink:title=" ">
<path fill="none" stroke="#63b8ff" d="M445.06,-196.25C370.86,-186.25 249.55,-169.9 170.87,-159.29"/>
<polygon fill="#63b8ff" stroke="#63b8ff" points="444.23,-199.67 454.61,-197.53 445.16,-192.73 444.23,-199.67"/>
</a>
</g>
</g>
<!-- Node10 -->
<g id="Node000010" class="node">
<title>Node10</title>
<g id="a_Node000010"><a xlink:href="class_o_c_a_1_1_c_a_f_e_v_d_b_1_1_page_renderer_1_1_sepa_bulk_transactions.html#ab91557ae1e08e1183c76c9ce39edfe33" target="_top" xlink:title="{Show the underlying template page.This is supposed to echo html code to stdout. This is the default ...">
<polygon fill="white" stroke="#666666" points="170.5,-115 16.5,-115 16.5,-83 170.5,-83 170.5,-115"/>
<text text-anchor="start" x="24.5" y="-101.5" font-family="Helvetica,sans-Serif" font-size="10.00">OCA\CAFEVDB\PageRenderer</text>
<text text-anchor="middle" x="93.5" y="-89.5" font-family="Helvetica,sans-Serif" font-size="10.00">\SepaBulkTransactions\render</text>
</a>
</g>
</g>
<!-- Node2&#45;&gt;Node10 -->
<g id="edge18_Node000002_Node000010" class="edge">
<title>Node2&#45;&gt;Node10</title>
<g id="a_edge18_Node000002_Node000010"><a xlink:title=" ">
<path fill="none" stroke="#63b8ff" d="M481.39,-189.37C464.17,-180.53 441.57,-169.9 420.5,-163 337.18,-135.73 237.87,-118.28 170.94,-108.6"/>
<polygon fill="#63b8ff" stroke="#63b8ff" points="479.53,-192.35 490.01,-193.89 482.78,-186.15 479.53,-192.35"/>
</a>
</g>
</g>
<!-- Node11 -->
<g id="Node000011" class="node">
<title>Node11</title>
<g id="a_Node000011"><a xlink:href="class_o_c_a_1_1_c_a_f_e_v_d_b_1_1_page_renderer_1_1_insurance_brokers.html#ab91557ae1e08e1183c76c9ce39edfe33" target="_top" xlink:title="{Show the underlying template page.This is supposed to echo html code to stdout. This is the default ...">
<polygon fill="white" stroke="#666666" points="398.75,-82 244.75,-82 244.75,-50 398.75,-50 398.75,-82"/>
<text text-anchor="start" x="252.75" y="-68.5" font-family="Helvetica,sans-Serif" font-size="10.00">OCA\CAFEVDB\PageRenderer</text>
<text text-anchor="middle" x="321.75" y="-56.5" font-family="Helvetica,sans-Serif" font-size="10.00">\InsuranceBrokers\render</text>
</a>
</g>
</g>
<!-- Node2&#45;&gt;Node11 -->
<g id="edge13_Node000002_Node000011" class="edge">
<title>Node2&#45;&gt;Node11</title>
<g id="a_edge13_Node000002_Node000011"><a xlink:title=" ">
<path fill="none" stroke="#63b8ff" d="M498.61,-184.9C483.73,-160.41 455.4,-119.4 420.5,-96 412.46,-90.61 403.42,-86.16 394.16,-82.49"/>
<polygon fill="#63b8ff" stroke="#63b8ff" points="495.45,-186.44 503.55,-193.28 501.49,-182.88 495.45,-186.44"/>
</a>
</g>
</g>
<!-- Node12 -->
<g id="Node000012" class="node">
<title>Node12</title>
<g id="a_Node000012"><a xlink:href="class_o_c_a_1_1_c_a_f_e_v_d_b_1_1_page_renderer_1_1_insurance_rates.html#ab91557ae1e08e1183c76c9ce39edfe33" target="_top" xlink:title="{Show the underlying template page.This is supposed to echo html code to stdout. This is the default ...">
<polygon fill="white" stroke="#666666" points="398.75,-32 244.75,-32 244.75,0 398.75,0 398.75,-32"/>
<text text-anchor="start" x="252.75" y="-18.5" font-family="Helvetica,sans-Serif" font-size="10.00">OCA\CAFEVDB\PageRenderer</text>
<text text-anchor="middle" x="321.75" y="-6.5" font-family="Helvetica,sans-Serif" font-size="10.00">\InsuranceRates\render</text>
</a>
</g>
</g>
<!-- Node2&#45;&gt;Node12 -->
<g id="edge14_Node000002_Node000012" class="edge">
<title>Node2&#45;&gt;Node12</title>
<g id="a_edge14_Node000002_Node000012"><a xlink:title=" ">
<path fill="none" stroke="#63b8ff" d="M504.43,-183.77C494.06,-148.54 468.38,-78.22 420.5,-41 414,-35.95 406.59,-31.91 398.83,-28.68"/>
<polygon fill="#63b8ff" stroke="#63b8ff" points="501,-184.51 507.06,-193.2 507.74,-182.62 501,-184.51"/>
</a>
</g>
</g>
<!-- Node3&#45;&gt;Node4 -->
<g id="edge3_Node000003_Node000004" class="edge">
<title>Node3&#45;&gt;Node4</title>
<g id="a_edge3_Node000003_Node000004"><a xlink:title=" ">
<path fill="none" stroke="#63b8ff" d="M296.77,-292.08C271.52,-316.13 229.6,-352.52 187,-374 180.61,-377.22 173.76,-380.06 166.78,-382.57"/>
<polygon fill="#63b8ff" stroke="#63b8ff" points="299.14,-294.65 303.89,-285.18 294.27,-289.62 299.14,-294.65"/>
</a>
</g>
</g>
<!-- Node3&#45;&gt;Node5 -->
<g id="edge4_Node000003_Node000005" class="edge">
<title>Node3&#45;&gt;Node5</title>
<g id="a_edge4_Node000003_Node000005"><a xlink:title=" ">
<path fill="none" stroke="#63b8ff" d="M274.72,-289.05C249.19,-300.27 216.69,-313.82 187,-324 178.19,-327.02 168.8,-329.92 159.52,-332.6"/>
<polygon fill="#63b8ff" stroke="#63b8ff" points="276.09,-292.27 283.82,-285.02 273.26,-285.87 276.09,-292.27"/>
</a>
</g>
</g>
<!-- Node3&#45;&gt;Node6 -->
<g id="edge5_Node000003_Node000006" class="edge">
<title>Node3&#45;&gt;Node6</title>
<g id="a_edge5_Node000003_Node000006"><a xlink:title=" ">
<path fill="none" stroke="#63b8ff" d="M211.1,-283.02C197.49,-284.89 183.82,-286.76 170.86,-288.54"/>
<polygon fill="#63b8ff" stroke="#63b8ff" points="211.57,-286.49 221,-281.67 210.62,-279.56 211.57,-286.49"/>
</a>
</g>
</g>
<!-- Node3&#45;&gt;Node7 -->
<g id="edge6_Node000003_Node000007" class="edge">
<title>Node3&#45;&gt;Node7</title>
<g id="a_edge6_Node000003_Node000007"><a xlink:title=" ">
<path fill="none" stroke="#63b8ff" d="M211.22,-258.8C203.22,-258.13 195.19,-257.46 187.3,-256.79"/>
<polygon fill="#63b8ff" stroke="#63b8ff" points="210.73,-262.27 220.99,-259.62 211.32,-255.3 210.73,-262.27"/>
</a>
</g>
</g>
<!-- Node3&#45;&gt;Node8 -->
<g id="edge7_Node000003_Node000008" class="edge">
<title>Node3&#45;&gt;Node8</title>
<g id="a_edge7_Node000003_Node000008"><a xlink:title=" ">
<path fill="none" stroke="#63b8ff" d="M262.21,-247.98C238.89,-240.21 211.76,-231.41 187,-224 177.44,-221.14 167.28,-218.24 157.32,-215.49"/>
<polygon fill="#63b8ff" stroke="#63b8ff" points="260.94,-251.25 271.54,-251.11 263.17,-244.61 260.94,-251.25"/>
</a>
</g>
</g>
<!-- Node3&#45;&gt;Node9 -->
<g id="edge8_Node000003_Node000009" class="edge">
<title>Node3&#45;&gt;Node9</title>
<g id="a_edge8_Node000003_Node000009"><a xlink:title=" ">
<path fill="none" stroke="#63b8ff" d="M293.31,-244.36C267.45,-223.18 226.83,-192.67 187,-174 180.22,-170.82 172.97,-167.99 165.62,-165.48"/>
<polygon fill="#63b8ff" stroke="#63b8ff" points="291.05,-247.03 300.97,-250.73 295.52,-241.64 291.05,-247.03"/>
</a>
</g>
</g>
<!-- Node3&#45;&gt;Node10 -->
<g id="edge9_Node000003_Node000010" class="edge">
<title>Node3&#45;&gt;Node10</title>
<g id="a_edge9_Node000003_Node000010"><a xlink:title=" ">
<path fill="none" stroke="#63b8ff" d="M304.02,-242.59C281.35,-210.18 237.83,-154.68 187,-124 181.59,-120.73 175.75,-117.89 169.72,-115.4"/>
<polygon fill="#63b8ff" stroke="#63b8ff" points="300.97,-244.33 309.51,-250.6 306.74,-240.37 300.97,-244.33"/>
</a>
</g>
</g>
</g>
</svg>

<g id="navigator" transform="translate(0 0)" fill="#404254">
  <rect fill="#f2f5e9" fill-opacity="0.5" stroke="#606060" stroke-width=".5" x="0" y="0" width="60" height="60"/>
  <use id="zoomplus" xlink:href="#zoomPlus" x="17" y="9" onmousedown="handleZoom(evt,'in')"/>
  <use id="zoomminus" xlink:href="#zoomMin" x="42" y="9" onmousedown="handleZoom(evt,'out')"/>
  <use id="reset" xlink:href="#resetDef" x="30" y="36" onmousedown="handleReset()"/>
   <use id="arrowup" xlink:href="#arrowUp" x="0" y="0" onmousedown="handlePan(0,-1)"/>
  <use id="arrowright" xlink:href="#arrowRight" x="0" y="0" onmousedown="handlePan(1,0)"/>
  <use id="arrowdown" xlink:href="#arrowDown" x="0" y="0" onmousedown="handlePan(0,1)"/>
  <use id="arrowleft" xlink:href="#arrowLeft" x="0" y="0" onmousedown="handlePan(-1,0)"/>
</g>
<svg viewBox="0 0 15 15" width="100%" height="30px" preserveAspectRatio="xMaxYMin meet">
 <g id="arrow_out" transform="scale(0.3 0.3)">
  <a xlink:href="class_o_c_a_1_1_c_a_f_e_v_d_b_1_1_common_1_1_util_a9396752fa41df5ffcd301d52263367f9_icgraph_org.svg" target="_base">
   <rect id="button" ry="5" rx="5" y="6" x="6" height="38" width="38"
        fill="#f2f5e9" fill-opacity="0.5" stroke="#606060" stroke-width="1.0"/>
   <path id="arrow"
     d="M 11.500037,31.436501 C 11.940474,20.09759 22.043105,11.32322 32.158766,21.979434 L 37.068811,17.246167 C 37.068811,17.246167 37.088388,32 37.088388,32 L 22.160133,31.978069 C 22.160133,31.978069 26.997745,27.140456 26.997745,27.140456 C 18.528582,18.264221 13.291696,25.230495 11.500037,31.436501 z"
     style="fill:#404040;"/>
  </a>
 </g>
</svg>

<style type='text/css'>
<![CDATA[
[data-mouse-over-selected='false'] { opacity: 0.7; }
[data-mouse-over-selected='true']  { opacity: 1.0; }
]]>
</style>
<script type="application/ecmascript"><![CDATA[
document.addEventListener('DOMContentLoaded', (event) => {
  highlightEdges();
  highlightAdjacentNodes();
});
]]></script>
</svg>
