<?xml version="1.0" encoding="UTF-8" standalone="no"?>
<!DOCTYPE svg PUBLIC "-//W3C//DTD SVG 1.1//EN"
 "http://www.w3.org/Graphics/SVG/1.1/DTD/svg11.dtd">
<!-- Generated by graphviz version 8.0.3 (20230416.2022)
 -->
<!-- Title: buildPath Pages: 1 -->
<!--zoomable 351 -->
<svg id="main" version="1.1" xmlns="http://www.w3.org/2000/svg" xmlns:xlink="http://www.w3.org/1999/xlink" xml:space="preserve" onload="init(evt)">
<style type="text/css"><![CDATA[
.edge:hover path { stroke: red; }
.edge:hover polygon { stroke: red; fill: red; }
]]></style>
<script type="text/javascript"><![CDATA[
var edges = document.getElementsByTagName('g');
if (edges && edges.length) {
  for (var i=0;i<edges.length;i++) {
    if (edges[i].id.substr(0,4)=='edge') {
      edges[i].setAttribute('class','edge');
    }
  }
}
]]></script>
        <defs>
                <circle id="rim" cx="0" cy="0" r="7"/>
                <circle id="rim2" cx="0" cy="0" r="3.5"/>
                <g id="zoomPlus">
                        <use xlink:href="#rim" fill="#404040">
                                <set attributeName="fill" to="#808080" begin="zoomplus.mouseover" end="zoomplus.mouseout"/>
                        </use>
                        <path d="M-4,0h8M0,-4v8" fill="none" stroke="white" stroke-width="1.5" pointer-events="none"/>
                </g>
                <g id="zoomMin">
                        <use xlink:href="#rim" fill="#404040">
                                <set attributeName="fill" to="#808080" begin="zoomminus.mouseover" end="zoomminus.mouseout"/>
                        </use>
                        <path d="M-4,0h8" fill="none" stroke="white" stroke-width="1.5" pointer-events="none"/>
                </g>
                <g id="dirArrow">
                        <path fill="none" stroke="white" stroke-width="1.5" d="M0,-3.0v7 M-2.5,-0.5L0,-3.0L2.5,-0.5"/>
                </g>
               <g id="resetDef">
                       <use xlink:href="#rim2" fill="#404040">
                               <set attributeName="fill" to="#808080" begin="reset.mouseover" end="reset.mouseout"/>
                       </use>
               </g>
        </defs>

<script type="text/javascript">
var viewWidth = 906;
var viewHeight = 351;
var sectionId = 'dynsection-2';
</script>
<script xlink:href="svgpan.js"/>
<svg id="graph" class="graph">
<g id="viewport">
<title>buildPath</title>
<!-- Node1 -->
<g id="node1" class="node">
<title>Node1</title>
<g id="a_node1"><a xlink:title=" ">
<polygon fill="#999999" stroke="#666666" points="898,-124 841,-124 841,-105 898,-105 898,-124"/>
<text text-anchor="middle" x="869.5" y="-112" font-family="Helvetica,sans-Serif" font-size="10.00">buildPath</text>
</a>
</g>
</g>
<!-- Node2 -->
<g id="node2" class="node">
<title>Node2</title>
<g id="a_node2"><a xlink:href="class_o_c_a_1_1_c_a_f_e_v_d_b_1_1_storage_1_1_database_1_1_storage.html#a7ec90cd17ef214d5fe4280b13d7c144a" target="_top" xlink:title="Fetch the file entity corresponding to file&#45;name.">
<polygon fill="white" stroke="#666666" points="753,-172 659,-172 659,-153 753,-153 753,-172"/>
<text text-anchor="middle" x="706" y="-160" font-family="Helvetica,sans-Serif" font-size="10.00">fileFromFileName</text>
</a>
</g>
</g>
<!-- Node1&#45;&gt;Node2 -->
<g id="edge1" class="edge">
<title>Node1&#45;&gt;Node2</title>
<path fill="none" stroke="#63b8ff" d="M841.21,-129.3C830.22,-134.75 817.26,-140.55 805,-144.5 788.53,-149.8 769.98,-153.71 753.48,-156.5"/>
<polygon fill="#63b8ff" stroke="#63b8ff" points="842.36,-132.13 849.67,-124.46 839.18,-125.9 842.36,-132.13"/>
</g>
<!-- Node18 -->
<g id="node18" class="node">
<title>Node18</title>
<g id="a_node18"><a xlink:href="class_o_c_a_1_1_c_a_f_e_v_d_b_1_1_storage_1_1_database_1_1_project_balance_supporting_documents_storage.html#ac7863b39b783ea3446d2af5d5b251a32" target="_top" xlink:title="Insert a &quot;cache&quot; entry.">
<polygon fill="white" stroke="#666666" points="800,-135 612,-135 612,-94 800,-94 800,-135"/>
<text text-anchor="start" x="620" y="-123" font-family="Helvetica,sans-Serif" font-size="10.00">OCA\CAFEVDB\Storage</text>
<text text-anchor="start" x="620" y="-112" font-family="Helvetica,sans-Serif" font-size="10.00">\Database\ProjectBalanceSupporting</text>
<text text-anchor="middle" x="706" y="-101" font-family="Helvetica,sans-Serif" font-size="10.00">DocumentsStorage\setFileNameCache</text>
</a>
</g>
</g>
<!-- Node1&#45;&gt;Node18 -->
<g id="edge24" class="edge">
<title>Node1&#45;&gt;Node18</title>
<path fill="none" stroke="#63b8ff" d="M829.82,-114.5C820.75,-114.5 810.7,-114.5 800.36,-114.5"/>
<polygon fill="#63b8ff" stroke="#63b8ff" points="829.74,-118 839.74,-114.5 829.74,-111 829.74,-118"/>
</g>
<!-- Node19 -->
<g id="node19" class="node">
<title>Node19</title>
<g id="a_node19"><a xlink:href="class_o_c_a_1_1_c_a_f_e_v_d_b_1_1_storage_1_1_database_1_1_project_balance_supporting_documents_storage.html#a6adbf5f98e24ede0698c3c8cabf43067" target="_top" xlink:title="Remove a &quot;cache&quot; entry.">
<polygon fill="white" stroke="#666666" points="805,-76 607,-76 607,-35 805,-35 805,-76"/>
<text text-anchor="start" x="615" y="-64" font-family="Helvetica,sans-Serif" font-size="10.00">OCA\CAFEVDB\Storage</text>
<text text-anchor="start" x="615" y="-53" font-family="Helvetica,sans-Serif" font-size="10.00">\Database\ProjectBalanceSupporting</text>
<text text-anchor="middle" x="706" y="-42" font-family="Helvetica,sans-Serif" font-size="10.00">DocumentsStorage\unsetFileNameCache</text>
</a>
</g>
</g>
<!-- Node1&#45;&gt;Node19 -->
<g id="edge25" class="edge">
<title>Node1&#45;&gt;Node19</title>
<path fill="none" stroke="#63b8ff" d="M839.68,-99.74C828.95,-94.55 816.57,-88.91 805,-84.5 797.71,-81.72 790.02,-79.03 782.3,-76.5"/>
<polygon fill="#63b8ff" stroke="#63b8ff" points="837.86,-103.24 848.38,-104.52 840.96,-96.96 837.86,-103.24"/>
</g>
<!-- Node3 -->
<g id="node3" class="node">
<title>Node3</title>
<g id="a_node3"><a xlink:href="class_o_c_a_1_1_c_a_f_e_v_d_b_1_1_storage_1_1_database_1_1_storage.html#adeb1bc07330c61c5b94a88bc857fa7c2" target="_top" xlink:title="{}">
<polygon fill="white" stroke="#666666" points="358,-267 297,-267 297,-248 358,-248 358,-267"/>
<text text-anchor="middle" x="327.5" y="-255" font-family="Helvetica,sans-Serif" font-size="10.00">file_exists</text>
</a>
</g>
</g>
<!-- Node2&#45;&gt;Node3 -->
<g id="edge2" class="edge">
<title>Node2&#45;&gt;Node3</title>
<path fill="none" stroke="#63b8ff" d="M675.71,-177.11C649.04,-189.85 608.25,-207.88 571,-218.5 496.16,-239.83 404.78,-250.57 358.48,-254.98"/>
<polygon fill="#63b8ff" stroke="#63b8ff" points="677.07,-179.86 684.55,-172.35 674.02,-173.56 677.07,-179.86"/>
</g>
<!-- Node7 -->
<g id="node7" class="node">
<title>Node7</title>
<g id="a_node7"><a xlink:href="class_o_c_a_1_1_c_a_f_e_v_d_b_1_1_storage_1_1_database_1_1_storage.html#ae16b6afbab9462a9af681b9393af361e" target="_top" xlink:title="{}">
<polygon fill="white" stroke="#666666" points="355.5,-192 299.5,-192 299.5,-173 355.5,-173 355.5,-192"/>
<text text-anchor="middle" x="327.5" y="-180" font-family="Helvetica,sans-Serif" font-size="10.00">filemtime</text>
</a>
</g>
</g>
<!-- Node2&#45;&gt;Node7 -->
<g id="edge7" class="edge">
<title>Node2&#45;&gt;Node7</title>
<path fill="none" stroke="#63b8ff" d="M667.9,-176.01C641.33,-184.95 604.47,-195.85 571,-200.5 493.08,-211.33 471.96,-211.02 394,-200.5 381.26,-198.78 367.5,-195.26 355.89,-191.79"/>
<polygon fill="#63b8ff" stroke="#63b8ff" points="668.95,-179.01 677.27,-172.45 666.67,-172.39 668.95,-179.01"/>
</g>
<!-- Node9 -->
<g id="node9" class="node">
<title>Node9</title>
<g id="a_node9"><a xlink:href="class_o_c_a_1_1_c_a_f_e_v_d_b_1_1_storage_1_1_database_1_1_storage.html#ad22e004288b7149fe24fb166f4cff9ee" target="_top" xlink:title="{}">
<polygon fill="white" stroke="#666666" points="351,-79 304,-79 304,-60 351,-60 351,-79"/>
<text text-anchor="middle" x="327.5" y="-67" font-family="Helvetica,sans-Serif" font-size="10.00">filesize</text>
</a>
</g>
</g>
<!-- Node2&#45;&gt;Node9 -->
<g id="edge9" class="edge">
<title>Node2&#45;&gt;Node9</title>
<path fill="none" stroke="#63b8ff" d="M648.18,-154.87C634.51,-152.27 620.07,-148.87 607,-144.5 590.03,-138.83 587.85,-132.52 571,-126.5 495.05,-99.38 472.38,-105.52 394,-86.5 379.84,-83.06 364.03,-78.97 351.49,-75.66"/>
<polygon fill="#63b8ff" stroke="#63b8ff" points="647.49,-158.48 657.95,-156.79 648.72,-151.59 647.49,-158.48"/>
</g>
<!-- Node12 -->
<g id="node12" class="node">
<title>Node12</title>
<g id="a_node12"><a xlink:href="class_o_c_a_1_1_c_a_f_e_v_d_b_1_1_storage_1_1_database_1_1_storage.html#a9d7ac9f8614357ce6b7358708b9ab040" target="_top" xlink:title=" ">
<polygon fill="white" stroke="#666666" points="554.5,-191 410.5,-191 410.5,-172 554.5,-172 554.5,-191"/>
<text text-anchor="middle" x="482.5" y="-179" font-family="Helvetica,sans-Serif" font-size="10.00">getDirectoryModificationTime</text>
</a>
</g>
</g>
<!-- Node2&#45;&gt;Node12 -->
<g id="edge12" class="edge">
<title>Node2&#45;&gt;Node12</title>
<path fill="none" stroke="#63b8ff" d="M647.62,-167.42C619.27,-169.85 584.77,-172.81 554.74,-175.39"/>
<polygon fill="#63b8ff" stroke="#63b8ff" points="647.9,-170.82 657.57,-166.48 647.3,-163.85 647.9,-170.82"/>
</g>
<!-- Node13 -->
<g id="node13" class="node">
<title>Node13</title>
<g id="a_node13"><a xlink:href="class_o_c_a_1_1_c_a_f_e_v_d_b_1_1_storage_1_1_database_1_1_project_balance_supporting_documents_storage.html#ae4876df7e6054a7651ab7363c175822e" target="_top" xlink:title="{}">
<polygon fill="white" stroke="#666666" points="571,-78 394,-78 394,-37 571,-37 571,-78"/>
<text text-anchor="start" x="402" y="-66" font-family="Helvetica,sans-Serif" font-size="10.00">OCA\CAFEVDB\Storage</text>
<text text-anchor="start" x="402" y="-55" font-family="Helvetica,sans-Serif" font-size="10.00">\Database\ProjectBalanceSupporting</text>
<text text-anchor="middle" x="482.5" y="-44" font-family="Helvetica,sans-Serif" font-size="10.00">DocumentsStorage\getRootFolder</text>
</a>
</g>
</g>
<!-- Node2&#45;&gt;Node13 -->
<g id="edge14" class="edge">
<title>Node2&#45;&gt;Node13</title>
<path fill="none" stroke="#63b8ff" d="M648.09,-159.69C633.84,-156.99 619.16,-152.35 607,-144.5 583.39,-129.25 592.98,-110.02 571,-92.5 564.22,-87.1 556.49,-82.43 548.51,-78.43"/>
<polygon fill="#63b8ff" stroke="#63b8ff" points="647.44,-163.28 657.86,-161.39 648.53,-156.37 647.44,-163.28"/>
</g>
<!-- Node14 -->
<g id="node14" class="node">
<title>Node14</title>
<g id="a_node14"><a xlink:href="class_o_c_a_1_1_c_a_f_e_v_d_b_1_1_storage_1_1_database_1_1_storage.html#a5877dd78fbe10fb5f3ee3d25e3fbe11e" target="_top" xlink:title="{}">
<polygon fill="white" stroke="#666666" points="502.5,-154 462.5,-154 462.5,-135 502.5,-135 502.5,-154"/>
<text text-anchor="middle" x="482.5" y="-142" font-family="Helvetica,sans-Serif" font-size="10.00">is_dir</text>
</a>
</g>
</g>
<!-- Node2&#45;&gt;Node14 -->
<g id="edge15" class="edge">
<title>Node2&#45;&gt;Node14</title>
<path fill="none" stroke="#63b8ff" d="M647.75,-157.85C600,-153.97 534.78,-148.67 502.8,-146.07"/>
<polygon fill="#63b8ff" stroke="#63b8ff" points="647.32,-161.41 657.57,-158.73 647.88,-154.43 647.32,-161.41"/>
</g>
<!-- Node16 -->
<g id="node16" class="node">
<title>Node16</title>
<g id="a_node16"><a xlink:href="class_o_c_a_1_1_c_a_f_e_v_d_b_1_1_storage_1_1_database_1_1_storage.html#a893a92915f20d637be8bcee4201900a5" target="_top" xlink:title="{}">
<polygon fill="white" stroke="#666666" points="499,-19 466,-19 466,0 499,0 499,-19"/>
<text text-anchor="middle" x="482.5" y="-7" font-family="Helvetica,sans-Serif" font-size="10.00">stat</text>
</a>
</g>
</g>
<!-- Node2&#45;&gt;Node16 -->
<g id="edge21" class="edge">
<title>Node2&#45;&gt;Node16</title>
<path fill="none" stroke="#63b8ff" d="M647.92,-162.39C633.13,-159.77 618.23,-154.49 607,-144.5 566.35,-108.34 611.27,-64.09 571,-27.5 551.26,-9.56 518.55,-7.6 499.2,-8.25"/>
<polygon fill="#63b8ff" stroke="#63b8ff" points="647.22,-165.97 657.61,-163.86 648.17,-159.03 647.22,-165.97"/>
</g>
<!-- Node17 -->
<g id="node17" class="node">
<title>Node17</title>
<g id="a_node17"><a xlink:href="class_o_c_a_1_1_c_a_f_e_v_d_b_1_1_storage_1_1_database_1_1_storage.html#ad6244fc254de2b00ab567e4e0b82a4b3" target="_top" xlink:title="{}">
<polygon fill="white" stroke="#666666" points="348.5,-320 306.5,-320 306.5,-301 348.5,-301 348.5,-320"/>
<text text-anchor="middle" x="327.5" y="-308" font-family="Helvetica,sans-Serif" font-size="10.00">unlink</text>
</a>
</g>
</g>
<!-- Node2&#45;&gt;Node17 -->
<g id="edge22" class="edge">
<title>Node2&#45;&gt;Node17</title>
<path fill="none" stroke="#63b8ff" d="M684.43,-178.71C659.1,-197.94 614.12,-229.74 571,-248.5 492.5,-282.66 391.21,-300.96 348.7,-307.58"/>
<polygon fill="#63b8ff" stroke="#63b8ff" points="686.04,-181.12 691.83,-172.24 681.77,-175.57 686.04,-181.12"/>
</g>
<!-- Node4 -->
<g id="node4" class="node">
<title>Node4</title>
<g id="a_node4"><a xlink:href="class_o_c_a_1_1_c_a_f_e_v_d_b_1_1_storage_1_1_database_1_1_storage.html#a4572a171f5a258fb746f2ec694f377ee" target="_top" xlink:title="{}">
<polygon fill="white" stroke="#666666" points="193,-325 152,-325 152,-306 193,-306 193,-325"/>
<text text-anchor="middle" x="172.5" y="-313" font-family="Helvetica,sans-Serif" font-size="10.00">fopen</text>
</a>
</g>
</g>
<!-- Node3&#45;&gt;Node4 -->
<g id="edge3" class="edge">
<title>Node3&#45;&gt;Node4</title>
<path fill="none" stroke="#63b8ff" d="M304.67,-273.47C292.39,-281.76 276.45,-291.41 261,-297.5 238.64,-306.32 211.28,-311.06 193.17,-313.42"/>
<polygon fill="#63b8ff" stroke="#63b8ff" points="306.46,-275.79 312.66,-267.2 302.46,-270.05 306.46,-275.79"/>
</g>
<!-- Node5 -->
<g id="node5" class="node">
<title>Node5</title>
<g id="a_node5"><a xlink:href="class_o_c_a_1_1_c_a_f_e_v_d_b_1_1_storage_1_1_database_1_1_storage.html#ab7218f0ad1a09fdb0e0157d2beadbfb2" target="_top" xlink:title="{}">
<polygon fill="white" stroke="#666666" points="205,-288 140,-288 140,-269 205,-269 205,-288"/>
<text text-anchor="middle" x="172.5" y="-276" font-family="Helvetica,sans-Serif" font-size="10.00">isReadable</text>
</a>
</g>
</g>
<!-- Node3&#45;&gt;Node5 -->
<g id="edge5" class="edge">
<title>Node3&#45;&gt;Node5</title>
<path fill="none" stroke="#63b8ff" d="M285.94,-263.07C260.73,-266.53 228.79,-270.91 205.4,-274.12"/>
<polygon fill="#63b8ff" stroke="#63b8ff" points="286.21,-266.43 295.64,-261.6 285.25,-259.49 286.21,-266.43"/>
</g>
<!-- Node6 -->
<g id="node6" class="node">
<title>Node6</title>
<g id="a_node6"><a xlink:href="class_o_c_a_1_1_c_a_f_e_v_d_b_1_1_storage_1_1_database_1_1_project_balance_supporting_documents_storage.html#a8899a09a9d81b77b06ec4e371278d536" target="_top" xlink:title="{{}}">
<polygon fill="white" stroke="#666666" points="261,-251 84,-251 84,-210 261,-210 261,-251"/>
<text text-anchor="start" x="92" y="-239" font-family="Helvetica,sans-Serif" font-size="10.00">OCA\CAFEVDB\Storage</text>
<text text-anchor="start" x="92" y="-228" font-family="Helvetica,sans-Serif" font-size="10.00">\Database\ProjectBalanceSupporting</text>
<text text-anchor="middle" x="172.5" y="-217" font-family="Helvetica,sans-Serif" font-size="10.00">DocumentsStorage\isUpdatable</text>
</a>
</g>
</g>
<!-- Node3&#45;&gt;Node6 -->
<g id="edge6" class="edge">
<title>Node3&#45;&gt;Node6</title>
<path fill="none" stroke="#63b8ff" d="M285.91,-250.34C278.24,-248.98 269.96,-247.52 261.48,-246.03"/>
<polygon fill="#63b8ff" stroke="#63b8ff" points="285.18,-253.94 295.64,-252.23 286.4,-247.05 285.18,-253.94"/>
</g>
<!-- Node4&#45;&gt;Node4 -->
<g id="edge4" class="edge">
<title>Node4&#45;&gt;Node4</title>
<path fill="none" stroke="#63b8ff" d="M200.32,-332.15C200.91,-338.13 191.64,-343 172.5,-343 144.66,-343 137.7,-332.69 151.62,-323.66"/>
<polygon fill="#63b8ff" stroke="#63b8ff" points="202.42,-330.19 193.38,-324.66 197,-334.62 202.42,-330.19"/>
</g>
<!-- Node8 -->
<g id="node8" class="node">
<title>Node8</title>
<g id="a_node8"><a xlink:href="class_o_c_a_1_1_c_a_f_e_v_d_b_1_1_storage_1_1_database_1_1_storage.html#ae949e0991a703081d8b1c95f871e5025" target="_top" xlink:title="{}">
<polygon fill="white" stroke="#666666" points="207,-192 138,-192 138,-173 207,-173 207,-192"/>
<text text-anchor="middle" x="172.5" y="-180" font-family="Helvetica,sans-Serif" font-size="10.00">hasUpdated</text>
</a>
</g>
</g>
<!-- Node7&#45;&gt;Node8 -->
<g id="edge8" class="edge">
<title>Node7&#45;&gt;Node8</title>
<path fill="none" stroke="#63b8ff" d="M288.28,-182.5C263.4,-182.5 231.25,-182.5 207.3,-182.5"/>
<polygon fill="#63b8ff" stroke="#63b8ff" points="288.15,-186 298.15,-182.5 288.15,-179 288.15,-186"/>
</g>
<!-- Node10 -->
<g id="node10" class="node">
<title>Node10</title>
<g id="a_node10"><a xlink:href="class_o_c_a_1_1_c_a_f_e_v_d_b_1_1_storage_1_1_database_1_1_storage.html#ae93aaa5a52d031b9df08764bda508255" target="_top" xlink:title="{}">
<polygon fill="white" stroke="#666666" points="193.5,-98 151.5,-98 151.5,-79 193.5,-79 193.5,-98"/>
<text text-anchor="middle" x="172.5" y="-86" font-family="Helvetica,sans-Serif" font-size="10.00">is_file</text>
</a>
</g>
</g>
<!-- Node9&#45;&gt;Node10 -->
<g id="edge10" class="edge">
<title>Node9&#45;&gt;Node10</title>
<path fill="none" stroke="#63b8ff" d="M293.08,-73.65C262.72,-77.42 218.93,-82.86 193.63,-86"/>
<polygon fill="#63b8ff" stroke="#63b8ff" points="293.1,-77.05 302.59,-72.34 292.24,-70.1 293.1,-77.05"/>
</g>
<!-- Node11 -->
<g id="node11" class="node">
<title>Node11</title>
<g id="a_node11"><a xlink:href="class_o_c_a_1_1_c_a_f_e_v_d_b_1_1_storage_1_1_database_1_1_storage.html#a5dfe312b58b1d4f0dddbe0d1cf96fa2e" target="_top" xlink:title="{}">
<polygon fill="white" stroke="#666666" points="48,-117 0,-117 0,-98 48,-98 48,-117"/>
<text text-anchor="middle" x="24" y="-105" font-family="Helvetica,sans-Serif" font-size="10.00">filetype</text>
</a>
</g>
</g>
<!-- Node10&#45;&gt;Node11 -->
<g id="edge11" class="edge">
<title>Node10&#45;&gt;Node11</title>
<path fill="none" stroke="#63b8ff" d="M140.5,-92.52C112.95,-96.09 73.28,-101.24 48.34,-104.47"/>
<polygon fill="#63b8ff" stroke="#63b8ff" points="140.66,-95.9 150.13,-91.14 139.76,-88.96 140.66,-95.9"/>
</g>
<!-- Node12&#45;&gt;Node7 -->
<g id="edge13" class="edge">
<title>Node12&#45;&gt;Node7</title>
<path fill="none" stroke="#63b8ff" d="M399.47,-182.04C383.75,-182.14 368.34,-182.24 355.92,-182.32"/>
<polygon fill="#63b8ff" stroke="#63b8ff" points="399.4,-185.53 409.37,-181.96 399.35,-178.53 399.4,-185.53"/>
</g>
<!-- Node14&#45;&gt;Node3 -->
<g id="edge16" class="edge">
<title>Node14&#45;&gt;Node3</title>
<path fill="none" stroke="#63b8ff" d="M451.43,-145.58C433.48,-147.49 410.95,-152.2 394,-163.5 377.45,-174.53 346.78,-225.7 334.16,-247.56"/>
<polygon fill="#63b8ff" stroke="#63b8ff" points="451.51,-149.01 461.19,-144.71 450.94,-142.03 451.51,-149.01"/>
</g>
<!-- Node14&#45;&gt;Node7 -->
<g id="edge17" class="edge">
<title>Node14&#45;&gt;Node7</title>
<path fill="none" stroke="#63b8ff" d="M451.88,-150.41C434.87,-153.93 413.16,-158.65 394,-163.5 381.37,-166.7 367.51,-170.66 355.79,-174.13"/>
<polygon fill="#63b8ff" stroke="#63b8ff" points="452.2,-153.71 461.29,-148.28 450.8,-146.85 452.2,-153.71"/>
</g>
<!-- Node14&#45;&gt;Node9 -->
<g id="edge18" class="edge">
<title>Node14&#45;&gt;Node9</title>
<path fill="none" stroke="#63b8ff" d="M451.31,-139.88C433.79,-136.33 411.76,-130.31 394,-120.5 375,-110 375.35,-100.55 358,-87.5 354.26,-84.69 350.06,-81.92 346.03,-79.43"/>
<polygon fill="#63b8ff" stroke="#63b8ff" points="450.6,-143.49 461.08,-141.87 451.88,-136.61 450.6,-143.49"/>
</g>
<!-- Node14&#45;&gt;Node11 -->
<g id="edge19" class="edge">
<title>Node14&#45;&gt;Node11</title>
<path fill="none" stroke="#63b8ff" d="M451.46,-142.06C366.29,-135.16 124.53,-115.57 48.31,-109.39"/>
<polygon fill="#63b8ff" stroke="#63b8ff" points="450.93,-145.61 461.18,-142.93 451.49,-138.64 450.93,-145.61"/>
</g>
<!-- Node15 -->
<g id="node15" class="node">
<title>Node15</title>
<g id="a_node15"><a xlink:href="class_o_c_a_1_1_c_a_f_e_v_d_b_1_1_storage_1_1_database_1_1_storage.html#a1ca869d721a349a2b5efaaca3dffc49d" target="_top" xlink:title="{}">
<polygon fill="white" stroke="#666666" points="351.5,-116 303.5,-116 303.5,-97 351.5,-97 351.5,-116"/>
<text text-anchor="middle" x="327.5" y="-104" font-family="Helvetica,sans-Serif" font-size="10.00">opendir</text>
</a>
</g>
</g>
<!-- Node14&#45;&gt;Node15 -->
<g id="edge20" class="edge">
<title>Node14&#45;&gt;Node15</title>
<path fill="none" stroke="#63b8ff" d="M451.73,-137.11C422.58,-129.87 378.75,-118.98 351.97,-112.33"/>
<polygon fill="#63b8ff" stroke="#63b8ff" points="450.57,-140.67 461.12,-139.69 452.26,-133.88 450.57,-140.67"/>
</g>
<!-- Node17&#45;&gt;Node4 -->
<g id="edge23" class="edge">
<title>Node17&#45;&gt;Node4</title>
<path fill="none" stroke="#63b8ff" d="M295.3,-311.52C264.81,-312.52 219.31,-314 193.42,-314.85"/>
<polygon fill="#63b8ff" stroke="#63b8ff" points="295.3,-314.99 305.18,-311.16 295.07,-307.99 295.3,-314.99"/>
</g>
</g>
</svg>
        <g id="navigator" transform="translate(0 0)" fill="#404254">
                <rect fill="#f2f5e9" fill-opacity="0.5" stroke="#606060" stroke-width=".5" x="0" y="0" width="60" height="60"/>
                <use id="zoomplus" xlink:href="#zoomPlus" x="17" y="9" onmousedown="handleZoom(evt,'in')"/>
                <use id="zoomminus" xlink:href="#zoomMin" x="42" y="9" onmousedown="handleZoom(evt,'out')"/>
                <use id="reset" xlink:href="#resetDef" x="30" y="36" onmousedown="handleReset()"/>
                <g id="arrowUp" xlink:href="#dirArrow" transform="translate(30 24)" onmousedown="handlePan(0,-1)">
                  <use xlink:href="#rim" fill="#404040">
                        <set attributeName="fill" to="#808080" begin="arrowUp.mouseover" end="arrowUp.mouseout"/>
                  </use>
                  <path fill="none" stroke="white" stroke-width="1.5" d="M0,-3.0v7 M-2.5,-0.5L0,-3.0L2.5,-0.5"/>
                </g>
                <g id="arrowRight" xlink:href="#dirArrow" transform="rotate(90) translate(36 -43)" onmousedown="handlePan(1,0)">
                  <use xlink:href="#rim" fill="#404040">
                        <set attributeName="fill" to="#808080" begin="arrowRight.mouseover" end="arrowRight.mouseout"/>
                  </use>
                  <path fill="none" stroke="white" stroke-width="1.5" d="M0,-3.0v7 M-2.5,-0.5L0,-3.0L2.5,-0.5"/>
                </g>
                <g id="arrowDown" xlink:href="#dirArrow" transform="rotate(180) translate(-30 -48)" onmousedown="handlePan(0,1)">
                  <use xlink:href="#rim" fill="#404040">
                        <set attributeName="fill" to="#808080" begin="arrowDown.mouseover" end="arrowDown.mouseout"/>
                  </use>
                  <path fill="none" stroke="white" stroke-width="1.5" d="M0,-3.0v7 M-2.5,-0.5L0,-3.0L2.5,-0.5"/>
                </g>
                <g id="arrowLeft" xlink:href="#dirArrow" transform="rotate(270) translate(-36 17)" onmousedown="handlePan(-1,0)">
                  <use xlink:href="#rim" fill="#404040">
                        <set attributeName="fill" to="#808080" begin="arrowLeft.mouseover" end="arrowLeft.mouseout"/>
                  </use>
                  <path fill="none" stroke="white" stroke-width="1.5" d="M0,-3.0v7 M-2.5,-0.5L0,-3.0L2.5,-0.5"/>
                </g>
        </g>
        <svg viewBox="0 0 15 15" width="100%" height="30px" preserveAspectRatio="xMaxYMin meet">
         <g id="arrow_out" transform="scale(0.3 0.3)">
          <a xlink:href="class_o_c_a_1_1_c_a_f_e_v_d_b_1_1_storage_1_1_database_1_1_storage_ab721841df814a2337039d39cc03da82a_icgraph_org.svg" target="_base">
           <rect id="button" ry="5" rx="5" y="6" x="6" height="38" width="38"
                fill="#f2f5e9" fill-opacity="0.5" stroke="#606060" stroke-width="1.0"/>
           <path id="arrow"
             d="M 11.500037,31.436501 C 11.940474,20.09759 22.043105,11.32322 32.158766,21.979434 L 37.068811,17.246167 C 37.068811,17.246167 37.088388,32 37.088388,32 L 22.160133,31.978069 C 22.160133,31.978069 26.997745,27.140456 26.997745,27.140456 C 18.528582,18.264221 13.291696,25.230495 11.500037,31.436501 z"
             style="fill:#404040;"/>
          </a>
         </g>
        </svg>
</svg>
