<?xml version="1.0" encoding="UTF-8" standalone="no"?>
<!DOCTYPE svg PUBLIC "-//W3C//DTD SVG 1.1//EN"
 "http://www.w3.org/Graphics/SVG/1.1/DTD/svg11.dtd">
<!-- Generated by graphviz version 8.0.3 (20230416.2022)
 -->
<!-- Title: createVCalendarFromRequest Pages: 1 -->
<svg width="492pt" height="101pt"
 viewBox="0.00 0.00 492.00 101.00" xmlns="http://www.w3.org/2000/svg" xmlns:xlink="http://www.w3.org/1999/xlink">
<g id="graph0" class="graph" transform="scale(1 1) rotate(0) translate(4 97)">
<title>createVCalendarFromRequest</title>
<!-- Node1 -->
<g id="node1" class="node">
<title>Node1</title>
<g id="a_node1"><a xlink:title=" ">
<polygon fill="#999999" stroke="#666666" points="149,-37 0,-37 0,-18 149,-18 149,-37"/>
<text text-anchor="middle" x="74.5" y="-25" font-family="Helvetica,sans-Serif" font-size="10.00">createVCalendarFromRequest</text>
</a>
</g>
</g>
<!-- Node2 -->
<g id="node2" class="node">
<title>Node2</title>
<g id="a_node2"><a xlink:href="class_o_c_a_1_1_c_a_f_e_v_d_b_1_1_service_1_1_v_calendar_service.html#af29ef0e454ee9f357ef918f183c5d001" target="_top" xlink:title=" ">
<polygon fill="white" stroke="#666666" points="320,-56 185,-56 185,-37 320,-37 320,-56"/>
<text text-anchor="middle" x="252.5" y="-44" font-family="Helvetica,sans-Serif" font-size="10.00">createVEventFromRequest</text>
</a>
</g>
</g>
<!-- Node1&#45;&gt;Node2 -->
<g id="edge1" class="edge">
<title>Node1&#45;&gt;Node2</title>
<path fill="none" stroke="#63b8ff" d="M149.37,-35.48C157.39,-36.34 165.57,-37.22 173.64,-38.09"/>
<polygon fill="#63b8ff" stroke="#63b8ff" points="173.22,-41.68 183.54,-39.27 173.97,-34.72 173.22,-41.68"/>
</g>
<!-- Node6 -->
<g id="node6" class="node">
<title>Node6</title>
<g id="a_node6"><a xlink:href="class_o_c_a_1_1_c_a_f_e_v_d_b_1_1_service_1_1_v_calendar_service.html#a6fed837c6f053a8cd036ccaf652739fa" target="_top" xlink:title=" ">
<polygon fill="white" stroke="#666666" points="318,-19 187,-19 187,0 318,0 318,-19"/>
<text text-anchor="middle" x="252.5" y="-7" font-family="Helvetica,sans-Serif" font-size="10.00">createVTodoFromRequest</text>
</a>
</g>
</g>
<!-- Node1&#45;&gt;Node6 -->
<g id="edge5" class="edge">
<title>Node1&#45;&gt;Node6</title>
<path fill="none" stroke="#63b8ff" d="M149.37,-19.94C158.2,-19.04 167.23,-18.12 176.07,-17.21"/>
<polygon fill="#63b8ff" stroke="#63b8ff" points="176.17,-20.62 185.76,-16.12 175.45,-13.66 176.17,-20.62"/>
</g>
<!-- Node3 -->
<g id="node3" class="node">
<title>Node3</title>
<g id="a_node3"><a xlink:href="class_o_c_a_1_1_c_a_f_e_v_d_b_1_1_service_1_1_v_calendar_service.html#aabb41dada7b7f42283e1fe61bab0a887" target="_top" xlink:title="Add one or multiple participans to the given VTodo or VEvent.">
<polygon fill="white" stroke="#666666" points="462,-93 378,-93 378,-74 462,-74 462,-93"/>
<text text-anchor="middle" x="420" y="-81" font-family="Helvetica,sans-Serif" font-size="10.00">addParticipants</text>
</a>
</g>
</g>
<!-- Node2&#45;&gt;Node3 -->
<g id="edge2" class="edge">
<title>Node2&#45;&gt;Node3</title>
<path fill="none" stroke="#63b8ff" d="M297.85,-56.42C319.16,-61.18 344.84,-66.92 367.06,-71.89"/>
<polygon fill="#63b8ff" stroke="#63b8ff" points="366.13,-75.49 376.66,-74.26 367.66,-68.66 366.13,-75.49"/>
</g>
<!-- Node4 -->
<g id="node4" class="node">
<title>Node4</title>
<g id="a_node4"><a xlink:href="class_o_c_a_1_1_c_a_f_e_v_d_b_1_1_service_1_1_v_calendar_service.html#ae752a1150511a5891f344e73105d901d" target="_top" xlink:title="Add one or multiple relations to the given VTodo or VEvent.">
<polygon fill="white" stroke="#666666" points="457,-56 383,-56 383,-37 457,-37 457,-56"/>
<text text-anchor="middle" x="420" y="-44" font-family="Helvetica,sans-Serif" font-size="10.00">addRelations</text>
</a>
</g>
</g>
<!-- Node2&#45;&gt;Node4 -->
<g id="edge3" class="edge">
<title>Node2&#45;&gt;Node4</title>
<path fill="none" stroke="#63b8ff" d="M320.34,-46.5C337.69,-46.5 356,-46.5 372.08,-46.5"/>
<polygon fill="#63b8ff" stroke="#63b8ff" points="371.82,-50 381.82,-46.5 371.82,-43 371.82,-50"/>
</g>
<!-- Node5 -->
<g id="node5" class="node">
<title>Node5</title>
<g id="a_node5"><a xlink:href="class_o_c_a_1_1_c_a_f_e_v_d_b_1_1_service_1_1_v_calendar_service.html#a349505932cfde0b222b7d7ea55fdcf19" target="_top" xlink:title="Add one or multiple alarms to the given VTodo or VEvent.">
<polygon fill="white" stroke="#666666" points="484,-19 356,-19 356,0 484,0 484,-19"/>
<text text-anchor="middle" x="420" y="-7" font-family="Helvetica,sans-Serif" font-size="10.00">addVAlarmsFromRequest</text>
</a>
</g>
</g>
<!-- Node2&#45;&gt;Node5 -->
<g id="edge4" class="edge">
<title>Node2&#45;&gt;Node5</title>
<path fill="none" stroke="#63b8ff" d="M297.85,-36.58C318.16,-32.04 342.44,-26.62 363.92,-21.81"/>
<polygon fill="#63b8ff" stroke="#63b8ff" points="364.53,-25.04 373.53,-19.44 363,-18.21 364.53,-25.04"/>
</g>
</g>
</svg>
