<?xml version="1.0" encoding="UTF-8" standalone="no"?>
<!DOCTYPE svg PUBLIC "-//W3C//DTD SVG 1.1//EN"
 "http://www.w3.org/Graphics/SVG/1.1/DTD/svg11.dtd">
<!-- Generated by graphviz version 9.0.0 (20230911.1827)
 -->
<!-- Title: deleteFolders Pages: 1 -->
<svg width="771pt" height="103pt"
 viewBox="0.00 0.00 770.75 103.00" xmlns="http://www.w3.org/2000/svg" xmlns:xlink="http://www.w3.org/1999/xlink">
<g id="graph0" class="graph" transform="scale(1 1) rotate(0) translate(4 99)">
<title>deleteFolders</title>
<!-- Node1 -->
<g id="Node000001" class="node">
<title>Node1</title>
<g id="a_Node000001"><a xlink:title=" ">
<polygon fill="#999999" stroke="#666666" points="74.5,-70 0,-70 0,-50 74.5,-50 74.5,-70"/>
<text text-anchor="middle" x="37.25" y="-56.5" font-family="Helvetica,sans-Serif" font-size="10.00">deleteFolders</text>
</a>
</g>
</g>
<!-- Node2 -->
<g id="Node000002" class="node">
<title>Node2</title>
<g id="a_Node000002"><a xlink:href="class_o_c_a_1_1_c_a_f_e_v_d_b_1_1_toolkit_1_1_service_1_1_group_folders_service.html#ab053279bea70dd2be3ff1676354fd041" target="_top" xlink:title="Return all shared folders matching the given regexp.">
<polygon fill="white" stroke="#666666" points="188,-70 110.5,-70 110.5,-50 188,-50 188,-70"/>
<text text-anchor="middle" x="149.25" y="-56.5" font-family="Helvetica,sans-Serif" font-size="10.00">searchFolders</text>
</a>
</g>
</g>
<!-- Node1&#45;&gt;Node2 -->
<g id="edge1_Node000001_Node000002" class="edge">
<title>Node1&#45;&gt;Node2</title>
<g id="a_edge1_Node000001_Node000002"><a xlink:title=" ">
<path fill="none" stroke="#63b8ff" d="M74.88,-60C82.61,-60 90.89,-60 99,-60"/>
<polygon fill="#63b8ff" stroke="#63b8ff" points="98.76,-63.5 108.76,-60 98.76,-56.5 98.76,-63.5"/>
</a>
</g>
</g>
<!-- Node3 -->
<g id="Node000003" class="node">
<title>Node3</title>
<g id="a_Node000003"><a xlink:href="class_o_c_a_1_1_c_a_f_e_v_d_b_1_1_toolkit_1_1_service_1_1_group_folders_service.html#acb65d3f859f30837e4b9f7ea14b88b9c" target="_top" xlink:title="Fetch and cache all shared folders from the groupfolders app.">
<polygon fill="white" stroke="#666666" points="294,-89 224,-89 224,-69 294,-69 294,-89"/>
<text text-anchor="middle" x="259" y="-75.5" font-family="Helvetica,sans-Serif" font-size="10.00">fetchFolders</text>
</a>
</g>
</g>
<!-- Node2&#45;&gt;Node3 -->
<g id="edge2_Node000002_Node000003" class="edge">
<title>Node2&#45;&gt;Node3</title>
<g id="a_edge2_Node000002_Node000003"><a xlink:title=" ">
<path fill="none" stroke="#63b8ff" d="M188.24,-66.7C196.06,-68.08 204.38,-69.54 212.44,-70.97"/>
<polygon fill="#63b8ff" stroke="#63b8ff" points="211.64,-74.38 222.1,-72.67 212.86,-67.49 211.64,-74.38"/>
</a>
</g>
</g>
<!-- Node5 -->
<g id="Node000005" class="node">
<title>Node5</title>
<g id="a_Node000005"><a xlink:href="namespace_o_c_a_1_1_c_a_f_e_v_d_b_1_1_toolkit_1_1_traits.html#a4d87f4e47d18fb535d235414c357f821" target="_top" xlink:title="Log a debug message.">
<polygon fill="white" stroke="#666666" points="450.25,-57 330,-57 330,-25 450.25,-25 450.25,-57"/>
<text text-anchor="start" x="338" y="-43.5" font-family="Helvetica,sans-Serif" font-size="10.00">OCA\CAFEVDB\Toolkit</text>
<text text-anchor="middle" x="390.12" y="-31.5" font-family="Helvetica,sans-Serif" font-size="10.00">\Traits\logDebug</text>
</a>
</g>
</g>
<!-- Node2&#45;&gt;Node5 -->
<g id="edge8_Node000002_Node000005" class="edge">
<title>Node2&#45;&gt;Node5</title>
<g id="a_edge8_Node000002_Node000005"><a xlink:title=" ">
<path fill="none" stroke="#63b8ff" d="M188.36,-56.97C223.23,-54.19 275.72,-50.02 318.28,-46.64"/>
<polygon fill="#63b8ff" stroke="#63b8ff" points="318.51,-50.13 328.2,-45.85 317.96,-43.15 318.51,-50.13"/>
</a>
</g>
</g>
<!-- Node4 -->
<g id="Node000004" class="node">
<title>Node4</title>
<g id="a_Node000004"><a xlink:href="class_o_c_a_1_1_c_a_f_e_v_d_b_1_1_toolkit_1_1_service_1_1_group_folders_service.html#a0287649d77801b440d6e9055c775b283" target="_top" xlink:title=" ">
<polygon fill="white" stroke="#666666" points="449.88,-95 330.38,-95 330.38,-75 449.88,-75 449.88,-95"/>
<text text-anchor="middle" x="390.12" y="-81.5" font-family="Helvetica,sans-Serif" font-size="10.00">getRootFolderStorageId</text>
</a>
</g>
</g>
<!-- Node3&#45;&gt;Node4 -->
<g id="edge3_Node000003_Node000004" class="edge">
<title>Node3&#45;&gt;Node4</title>
<g id="a_edge3_Node000003_Node000004"><a xlink:title=" ">
<path fill="none" stroke="#63b8ff" d="M294.26,-80.59C301.95,-80.95 310.38,-81.34 318.95,-81.74"/>
<polygon fill="#63b8ff" stroke="#63b8ff" points="318.56,-85.22 328.72,-82.19 318.89,-78.23 318.56,-85.22"/>
</a>
</g>
</g>
<!-- Node3&#45;&gt;Node5 -->
<g id="edge4_Node000003_Node000005" class="edge">
<title>Node3&#45;&gt;Node5</title>
<g id="a_edge4_Node000003_Node000005"><a xlink:title=" ">
<path fill="none" stroke="#63b8ff" d="M294.26,-68.92C302.95,-66.36 312.58,-63.53 322.28,-60.67"/>
<polygon fill="#63b8ff" stroke="#63b8ff" points="323.16,-64.06 331.76,-57.88 321.18,-57.35 323.16,-64.06"/>
</a>
</g>
</g>
<!-- Node6 -->
<g id="Node000006" class="node">
<title>Node6</title>
<g id="a_Node000006"><a xlink:href="namespace_o_c_a_1_1_c_a_f_e_v_d_b_1_1_toolkit_1_1_traits.html#a15cbaddba041ee5582b2bec28a58c7c9" target="_top" xlink:title="Log the given message at the specified level.">
<polygon fill="white" stroke="#666666" points="606.5,-57 486.25,-57 486.25,-25 606.5,-25 606.5,-57"/>
<text text-anchor="start" x="494.25" y="-43.5" font-family="Helvetica,sans-Serif" font-size="10.00">OCA\CAFEVDB\Toolkit</text>
<text text-anchor="middle" x="546.38" y="-31.5" font-family="Helvetica,sans-Serif" font-size="10.00">\Traits\log</text>
</a>
</g>
</g>
<!-- Node5&#45;&gt;Node6 -->
<g id="edge5_Node000005_Node000006" class="edge">
<title>Node5&#45;&gt;Node6</title>
<g id="a_edge5_Node000005_Node000006"><a xlink:title=" ">
<path fill="none" stroke="#63b8ff" d="M450.32,-41C458.23,-41 466.41,-41 474.5,-41"/>
<polygon fill="#63b8ff" stroke="#63b8ff" points="474.31,-44.5 484.31,-41 474.31,-37.5 474.31,-44.5"/>
</a>
</g>
</g>
<!-- Node7 -->
<g id="Node000007" class="node">
<title>Node7</title>
<g id="a_Node000007"><a xlink:href="namespace_o_c_a_1_1_c_a_f_e_v_d_b_1_1_toolkit_1_1_traits.html#a97e3b3adabf67bc7d3650ed14214ddaa" target="_top" xlink:title="Return the stored logger class.">
<polygon fill="white" stroke="#666666" points="762.75,-82 642.5,-82 642.5,-50 762.75,-50 762.75,-82"/>
<text text-anchor="start" x="650.5" y="-68.5" font-family="Helvetica,sans-Serif" font-size="10.00">OCA\CAFEVDB\Toolkit</text>
<text text-anchor="middle" x="702.62" y="-56.5" font-family="Helvetica,sans-Serif" font-size="10.00">\Traits\logger</text>
</a>
</g>
</g>
<!-- Node6&#45;&gt;Node7 -->
<g id="edge6_Node000006_Node000007" class="edge">
<title>Node6&#45;&gt;Node7</title>
<g id="a_edge6_Node000006_Node000007"><a xlink:title=" ">
<path fill="none" stroke="#63b8ff" d="M606.57,-50.59C614.48,-51.88 622.66,-53.2 630.75,-54.51"/>
<polygon fill="#63b8ff" stroke="#63b8ff" points="630.15,-57.96 640.58,-56.11 631.27,-51.05 630.15,-57.96"/>
</a>
</g>
</g>
<!-- Node8 -->
<g id="Node000008" class="node">
<title>Node8</title>
<g id="a_Node000008"><a xlink:href="namespace_o_c_a_1_1_c_a_f_e_v_d_b_1_1_toolkit_1_1_traits.html#ab690a84fb4e720f43308bc354c392bee" target="_top" xlink:title="Map PSR log&#45;levels to ILogger log&#45;levels as the PsrLoggerAdapter only understands those.">
<polygon fill="white" stroke="#666666" points="762.75,-32 642.5,-32 642.5,0 762.75,0 762.75,-32"/>
<text text-anchor="start" x="650.5" y="-18.5" font-family="Helvetica,sans-Serif" font-size="10.00">OCA\CAFEVDB\Toolkit</text>
<text text-anchor="middle" x="702.62" y="-6.5" font-family="Helvetica,sans-Serif" font-size="10.00">\Traits\mapLogLevels</text>
</a>
</g>
</g>
<!-- Node6&#45;&gt;Node8 -->
<g id="edge7_Node000006_Node000008" class="edge">
<title>Node6&#45;&gt;Node8</title>
<g id="a_edge7_Node000006_Node000008"><a xlink:title=" ">
<path fill="none" stroke="#63b8ff" d="M606.57,-31.41C614.48,-30.12 622.66,-28.8 630.75,-27.49"/>
<polygon fill="#63b8ff" stroke="#63b8ff" points="631.27,-30.95 640.58,-25.89 630.15,-24.04 631.27,-30.95"/>
</a>
</g>
</g>
</g>
</svg>
