<?xml version="1.0" encoding="UTF-8" standalone="no"?>
<!DOCTYPE svg PUBLIC "-//W3C//DTD SVG 1.1//EN"
 "http://www.w3.org/Graphics/SVG/1.1/DTD/svg11.dtd">
<!-- Generated by graphviz version 8.0.3 (20230416.2022)
 -->
<!-- Title: moneyValue Pages: 1 -->
<svg width="317pt" height="64pt"
 viewBox="0.00 0.00 317.00 64.00" xmlns="http://www.w3.org/2000/svg" xmlns:xlink="http://www.w3.org/1999/xlink">
<g id="graph0" class="graph" transform="scale(1 1) rotate(0) translate(4 60)">
<title>moneyValue</title>
<!-- Node1 -->
<g id="node1" class="node">
<title>Node1</title>
<g id="a_node1"><a xlink:title="Convert $value to a currency value in the given or the user&#39;s locale.">
<polygon fill="#999999" stroke="#666666" points="70,-37 0,-37 0,-18 70,-18 70,-37"/>
<text text-anchor="middle" x="35" y="-25" font-family="Helvetica,sans-Serif" font-size="10.00">moneyValue</text>
</a>
</g>
</g>
<!-- Node2 -->
<g id="node2" class="node">
<title>Node2</title>
<g id="a_node2"><a xlink:href="class_o_c_a_1_1_c_a_f_e_v_d_b_1_1_service_1_1_config_service.html#a8a1ab7bc9d21948223187b45cb724603" target="_top" xlink:title=" ">
<polygon fill="white" stroke="#666666" points="197,-56 106,-56 106,-37 197,-37 197,-56"/>
<text text-anchor="middle" x="151.5" y="-44" font-family="Helvetica,sans-Serif" font-size="10.00">currencyIsoCode</text>
</a>
</g>
</g>
<!-- Node1&#45;&gt;Node2 -->
<g id="edge1" class="edge">
<title>Node1&#45;&gt;Node2</title>
<path fill="none" stroke="#63b8ff" d="M70.35,-33.2C78.05,-34.48 86.4,-35.86 94.72,-37.24"/>
<polygon fill="#63b8ff" stroke="#63b8ff" points="94.13,-40.86 104.56,-39.04 95.27,-33.95 94.13,-40.86"/>
</g>
<!-- Node4 -->
<g id="node4" class="node">
<title>Node4</title>
<g id="a_node4"><a xlink:href="class_o_c_a_1_1_c_a_f_e_v_d_b_1_1_service_1_1_config_service.html#ae705742d573e516c783122fb4a0e1aea" target="_top" xlink:title="Return the locale as string, e.g.">
<polygon fill="white" stroke="#666666" points="181,-19 122,-19 122,0 181,0 181,-19"/>
<text text-anchor="middle" x="151.5" y="-7" font-family="Helvetica,sans-Serif" font-size="10.00">getLocale</text>
</a>
</g>
</g>
<!-- Node1&#45;&gt;Node4 -->
<g id="edge3" class="edge">
<title>Node1&#45;&gt;Node4</title>
<path fill="none" stroke="#63b8ff" d="M70.35,-22.1C83.12,-20.09 97.7,-17.8 110.89,-15.73"/>
<polygon fill="#63b8ff" stroke="#63b8ff" points="111.24,-19.06 120.58,-14.05 110.16,-12.14 111.24,-19.06"/>
</g>
<!-- Node3 -->
<g id="node3" class="node">
<title>Node3</title>
<g id="a_node3"><a xlink:href="class_o_c_a_1_1_c_a_f_e_v_d_b_1_1_service_1_1_config_service.html#a90274967f081f0ac552cc53dcafe3481" target="_top" xlink:title="Get the configured app locale.">
<polygon fill="white" stroke="#666666" points="309,-56 233,-56 233,-37 309,-37 309,-56"/>
<text text-anchor="middle" x="271" y="-44" font-family="Helvetica,sans-Serif" font-size="10.00">getAppLocale</text>
</a>
</g>
</g>
<!-- Node2&#45;&gt;Node3 -->
<g id="edge2" class="edge">
<title>Node2&#45;&gt;Node3</title>
<path fill="none" stroke="#63b8ff" d="M197.26,-46.5C205.28,-46.5 213.68,-46.5 221.8,-46.5"/>
<polygon fill="#63b8ff" stroke="#63b8ff" points="221.63,-50 231.63,-46.5 221.63,-43 221.63,-50"/>
</g>
</g>
</svg>
