<?xml version="1.0" encoding="UTF-8" standalone="no"?>
<!DOCTYPE svg PUBLIC "-//W3C//DTD SVG 1.1//EN"
 "http://www.w3.org/Graphics/SVG/1.1/DTD/svg11.dtd">
<!-- Generated by graphviz version 7.1.0 (20230121.1956)
 -->
<!-- Title: getSubscriptionRequest Pages: 1 -->
<svg width="423pt" height="27pt"
 viewBox="0.00 0.00 423.00 27.00" xmlns="http://www.w3.org/2000/svg" xmlns:xlink="http://www.w3.org/1999/xlink">
<g id="graph0" class="graph" transform="scale(1 1) rotate(0) translate(4 23)">
<title>getSubscriptionRequest</title>
<!-- Node1 -->
<g id="node1" class="node">
<title>Node1</title>
<g id="a_node1"><a xlink:title="Get or check for a pending invitation (=== email confirmation request) for the given subscription&#45;add...">
<polygon fill="#999999" stroke="#666666" points="121,-19 0,-19 0,0 121,0 121,-19"/>
<text text-anchor="middle" x="60.5" y="-7" font-family="Helvetica,sans-Serif" font-size="10.00">getSubscriptionRequest</text>
</a>
</g>
</g>
<!-- Node2 -->
<g id="node2" class="node">
<title>Node2</title>
<g id="a_node2"><a xlink:href="class_o_c_a_1_1_c_a_f_e_v_d_b_1_1_service_1_1_mailing_lists_service.html#afee0c31807c7ddcd4265d994df850134" target="_top" xlink:title="Ensure that the given string is a list&#45;id, if it is a FQDN then try to retrieve the list&#45;id.">
<polygon fill="white" stroke="#666666" points="227,-19 157,-19 157,0 227,0 227,-19"/>
<text text-anchor="middle" x="192" y="-7" font-family="Helvetica,sans-Serif" font-size="10.00">ensureListId</text>
</a>
</g>
</g>
<!-- Node1&#45;&gt;Node2 -->
<g id="edge1" class="edge">
<title>Node1&#45;&gt;Node2</title>
<path fill="none" stroke="#63b8ff" d="M121.32,-9.5C129.33,-9.5 137.44,-9.5 145.16,-9.5"/>
<polygon fill="#63b8ff" stroke="#63b8ff" points="144.99,-13 154.99,-9.5 144.99,-6 144.99,-13"/>
</g>
<!-- Node3 -->
<g id="node3" class="node">
<title>Node3</title>
<g id="a_node3"><a xlink:href="class_o_c_a_1_1_c_a_f_e_v_d_b_1_1_service_1_1_mailing_lists_service.html#ae79714b9375ce65edd9c71e2d97e06ab" target="_top" xlink:title="Fetch the list&#45;id of the given list.">
<polygon fill="white" stroke="#666666" points="317,-19 263,-19 263,0 317,0 317,-19"/>
<text text-anchor="middle" x="290" y="-7" font-family="Helvetica,sans-Serif" font-size="10.00">getListId</text>
</a>
</g>
</g>
<!-- Node2&#45;&gt;Node3 -->
<g id="edge2" class="edge">
<title>Node2&#45;&gt;Node3</title>
<path fill="none" stroke="#63b8ff" d="M227.39,-9.5C235.1,-9.5 243.33,-9.5 251.18,-9.5"/>
<polygon fill="#63b8ff" stroke="#63b8ff" points="251.17,-13 261.17,-9.5 251.17,-6 251.17,-13"/>
</g>
<!-- Node4 -->
<g id="node4" class="node">
<title>Node4</title>
<g id="a_node4"><a xlink:href="class_o_c_a_1_1_c_a_f_e_v_d_b_1_1_service_1_1_mailing_lists_service.html#a651ae4ad1c33811d0e985204bd2e35b8" target="_top" xlink:title=" ">
<polygon fill="white" stroke="#666666" points="415,-19 353,-19 353,0 415,0 415,-19"/>
<text text-anchor="middle" x="384" y="-7" font-family="Helvetica,sans-Serif" font-size="10.00">getListInfo</text>
</a>
</g>
</g>
<!-- Node3&#45;&gt;Node4 -->
<g id="edge3" class="edge">
<title>Node3&#45;&gt;Node4</title>
<path fill="none" stroke="#63b8ff" d="M317.12,-9.5C324.63,-9.5 333.01,-9.5 341.22,-9.5"/>
<polygon fill="#63b8ff" stroke="#63b8ff" points="341.08,-13 351.08,-9.5 341.08,-6 341.08,-13"/>
</g>
</g>
</svg>
