<?xml version="1.0" encoding="UTF-8" standalone="no"?>
<!DOCTYPE svg PUBLIC "-//W3C//DTD SVG 1.1//EN"
 "http://www.w3.org/Graphics/SVG/1.1/DTD/svg11.dtd">
<!-- Generated by graphviz version 7.1.0 (20230121.1956)
 -->
<!-- Title: setSharedPrivateValue Pages: 1 -->
<svg width="289pt" height="64pt"
 viewBox="0.00 0.00 289.00 64.00" xmlns="http://www.w3.org/2000/svg" xmlns:xlink="http://www.w3.org/1999/xlink">
<g id="graph0" class="graph" transform="scale(1 1) rotate(0) translate(4 60)">
<title>setSharedPrivateValue</title>
<!-- Node1 -->
<g id="node1" class="node">
<title>Node1</title>
<g id="a_node1"><a xlink:title="Encrypt and set one private value.">
<polygon fill="#999999" stroke="#666666" points="281,-37 165,-37 165,-18 281,-18 281,-37"/>
<text text-anchor="middle" x="223" y="-25" font-family="Helvetica,sans-Serif" font-size="10.00">setSharedPrivateValue</text>
</a>
</g>
</g>
<!-- Node2 -->
<g id="node2" class="node">
<title>Node2</title>
<g id="a_node2"><a xlink:href="class_o_c_a_1_1_c_a_f_e_v_d_b_1_1_crypto_1_1_asymmetric_key_service.html#a22a96c82433bbb57a5effd86174fdb7e" target="_top" xlink:title="Delete one private value.">
<polygon fill="white" stroke="#666666" points="128.5,-56 0.5,-56 0.5,-37 128.5,-37 128.5,-56"/>
<text text-anchor="middle" x="64.5" y="-44" font-family="Helvetica,sans-Serif" font-size="10.00">deleteSharedPrivateValue</text>
</a>
</g>
</g>
<!-- Node1&#45;&gt;Node2 -->
<g id="edge1" class="edge">
<title>Node1&#45;&gt;Node2</title>
<path fill="none" stroke="#63b8ff" d="M153.3,-35.84C145.2,-36.82 136.97,-37.82 128.95,-38.8"/>
<polygon fill="#63b8ff" stroke="#63b8ff" points="153.61,-39.33 163.11,-34.65 152.76,-32.38 153.61,-39.33"/>
</g>
<!-- Node3 -->
<g id="node3" class="node">
<title>Node3</title>
<g id="a_node3"><a xlink:href="class_o_c_a_1_1_c_a_f_e_v_d_b_1_1_crypto_1_1_asymmetric_key_service.html#ac7caf4a9037561d1a75fd08568df9d06" target="_top" xlink:title="Recrypt all shared private values with a new key.">
<polygon fill="white" stroke="#666666" points="129,-19 0,-19 0,0 129,0 129,-19"/>
<text text-anchor="middle" x="64.5" y="-7" font-family="Helvetica,sans-Serif" font-size="10.00">recryptSharedPrivateData</text>
</a>
</g>
</g>
<!-- Node1&#45;&gt;Node3 -->
<g id="edge2" class="edge">
<title>Node1&#45;&gt;Node3</title>
<path fill="none" stroke="#63b8ff" d="M153.2,-19.59C145.31,-18.68 137.3,-17.76 129.48,-16.86"/>
<polygon fill="#63b8ff" stroke="#63b8ff" points="152.78,-23.06 163.11,-20.73 153.58,-16.11 152.78,-23.06"/>
</g>
</g>
</svg>
