<?xml version="1.0" encoding="UTF-8" standalone="no"?>
<!DOCTYPE svg PUBLIC "-//W3C//DTD SVG 1.1//EN"
 "http://www.w3.org/Graphics/SVG/1.1/DTD/svg11.dtd">
<!-- Generated by graphviz version 7.1.0 (20230121.1956)
 -->
<!-- Title: joinTableFieldName Pages: 1 -->
<!--zoomable 370 -->
<svg id="main" version="1.1" xmlns="http://www.w3.org/2000/svg" xmlns:xlink="http://www.w3.org/1999/xlink" xml:space="preserve" onload="init(evt)">
<style type="text/css"><![CDATA[
.edge:hover path { stroke: red; }
.edge:hover polygon { stroke: red; fill: red; }
]]></style>
<script type="text/javascript"><![CDATA[
var edges = document.getElementsByTagName('g');
if (edges && edges.length) {
  for (var i=0;i<edges.length;i++) {
    if (edges[i].id.substr(0,4)=='edge') {
      edges[i].setAttribute('class','edge');
    }
  }
}
]]></script>
        <defs>
                <circle id="rim" cx="0" cy="0" r="7"/>
                <circle id="rim2" cx="0" cy="0" r="3.5"/>
                <g id="zoomPlus">
                        <use xlink:href="#rim" fill="#404040">
                                <set attributeName="fill" to="#808080" begin="zoomplus.mouseover" end="zoomplus.mouseout"/>
                        </use>
                        <path d="M-4,0h8M0,-4v8" fill="none" stroke="white" stroke-width="1.5" pointer-events="none"/>
                </g>
                <g id="zoomMin">
                        <use xlink:href="#rim" fill="#404040">
                                <set attributeName="fill" to="#808080" begin="zoomminus.mouseover" end="zoomminus.mouseout"/>
                        </use>
                        <path d="M-4,0h8" fill="none" stroke="white" stroke-width="1.5" pointer-events="none"/>
                </g>
                <g id="dirArrow">
                        <path fill="none" stroke="white" stroke-width="1.5" d="M0,-3.0v7 M-2.5,-0.5L0,-3.0L2.5,-0.5"/>
                </g>
               <g id="resetDef">
                       <use xlink:href="#rim2" fill="#404040">
                               <set attributeName="fill" to="#808080" begin="reset.mouseover" end="reset.mouseout"/>
                       </use>
               </g>
        </defs>

<script type="text/javascript">
var viewWidth = 501;
var viewHeight = 370;
var sectionId = 'dynsection-30';
</script>
<script xlink:href="svgpan.js"/>
<svg id="graph" class="graph">
<g id="viewport">
<title>joinTableFieldName</title>
<!-- Node1 -->
<g id="node1" class="node">
<title>Node1</title>
<g id="a_node1"><a xlink:title="The name of the field&#45;descriptor for a join&#45;table field referencing a master&#45;join&#45;table.">
<polygon fill="#999999" stroke="#666666" points="493,-188 391,-188 391,-169 493,-169 493,-188"/>
<text text-anchor="middle" x="442" y="-176" font-family="Helvetica,sans-Serif" font-size="10.00">joinTableFieldName</text>
</a>
</g>
</g>
<!-- Node2 -->
<g id="node2" class="node">
<title>Node2</title>
<g id="a_node2"><a xlink:href="class_o_c_a_1_1_c_a_f_e_v_d_b_1_1_page_renderer_1_1_p_m_e_table_view_base.html#a936748b21bb69d2a3f9d51e14ce2cd87" target="_top" xlink:title="Before insert&#45;trigger which ideally should insert all data such that nothing remains to be done for p...">
<polygon fill="white" stroke="#666666" points="348,-320 231,-320 231,-301 348,-301 348,-320"/>
<text text-anchor="middle" x="289.5" y="-308" font-family="Helvetica,sans-Serif" font-size="10.00">beforeInsertDoInsertAll</text>
</a>
</g>
</g>
<!-- Node1&#45;&gt;Node2 -->
<g id="edge1" class="edge">
<title>Node1&#45;&gt;Node2</title>
<path fill="none" stroke="#63b8ff" d="M430.01,-198.06C415.63,-222.01 388.32,-262.34 355,-286.5 346.87,-292.39 337.14,-297 327.72,-300.53"/>
<polygon fill="#63b8ff" stroke="#63b8ff" points="432.9,-200.04 434.91,-189.64 426.85,-196.52 432.9,-200.04"/>
</g>
<!-- Node3 -->
<g id="node3" class="node">
<title>Node3</title>
<g id="a_node3"><a xlink:href="class_o_c_a_1_1_c_a_f_e_v_d_b_1_1_page_renderer_1_1_project_instrumentation_numbers.html#ab91557ae1e08e1183c76c9ce39edfe33" target="_top" xlink:title="{Show the underlying template page.This is supposed to echo html code to stdout. This is the default ...">
<polygon fill="white" stroke="#666666" points="188,-360.5 0,-360.5 0,-330.5 188,-330.5 188,-360.5"/>
<text text-anchor="start" x="8" y="-348.5" font-family="Helvetica,sans-Serif" font-size="10.00">OCA\CAFEVDB\PageRenderer</text>
<text text-anchor="middle" x="94" y="-337.5" font-family="Helvetica,sans-Serif" font-size="10.00">\ProjectInstrumentationNumbers\render</text>
</a>
</g>
</g>
<!-- Node1&#45;&gt;Node3 -->
<g id="edge17" class="edge">
<title>Node1&#45;&gt;Node3</title>
<path fill="none" stroke="#63b8ff" d="M436.06,-198.98C426.71,-232.82 402.89,-299.66 355,-329.5 305.97,-360.05 241.12,-364.1 188.46,-360.48"/>
<polygon fill="#63b8ff" stroke="#63b8ff" points="439.38,-200.15 438.5,-189.59 432.6,-198.4 439.38,-200.15"/>
</g>
<!-- Node4 -->
<g id="node4" class="node">
<title>Node4</title>
<g id="a_node4"><a xlink:href="class_o_c_a_1_1_c_a_f_e_v_d_b_1_1_page_renderer_1_1_project_participant_fields.html#ab91557ae1e08e1183c76c9ce39edfe33" target="_top" xlink:title="{Show the underlying template page.This is supposed to echo html code to stdout. This is the default ...">
<polygon fill="white" stroke="#666666" points="171.5,-312.5 16.5,-312.5 16.5,-282.5 171.5,-282.5 171.5,-312.5"/>
<text text-anchor="start" x="24.5" y="-300.5" font-family="Helvetica,sans-Serif" font-size="10.00">OCA\CAFEVDB\PageRenderer</text>
<text text-anchor="middle" x="94" y="-289.5" font-family="Helvetica,sans-Serif" font-size="10.00">\ProjectParticipantFields\render</text>
</a>
</g>
</g>
<!-- Node1&#45;&gt;Node4 -->
<g id="edge18" class="edge">
<title>Node1&#45;&gt;Node4</title>
<path fill="none" stroke="#63b8ff" d="M425.65,-196.76C409.83,-214.27 383.51,-239.99 355,-253.5 297.39,-280.79 225.52,-291.41 171.96,-295.42"/>
<polygon fill="#63b8ff" stroke="#63b8ff" points="427.97,-199.42 431.92,-189.59 422.7,-194.81 427.97,-199.42"/>
</g>
<!-- Node5 -->
<g id="node5" class="node">
<title>Node5</title>
<g id="a_node5"><a xlink:href="class_o_c_a_1_1_c_a_f_e_v_d_b_1_1_page_renderer_1_1_p_m_e_table_view_base.html#a882a0897b82d354409342d1c195c2f4d" target="_top" xlink:title="Before update&#45;trigger which ideally should update all data such that nothing remains to do for phpMyE...">
<polygon fill="white" stroke="#666666" points="355,-244 224,-244 224,-225 355,-225 355,-244"/>
<text text-anchor="middle" x="289.5" y="-232" font-family="Helvetica,sans-Serif" font-size="10.00">beforeUpdateDoUpdateAll</text>
</a>
</g>
</g>
<!-- Node1&#45;&gt;Node5 -->
<g id="edge4" class="edge">
<title>Node1&#45;&gt;Node5</title>
<path fill="none" stroke="#63b8ff" d="M410.8,-193.12C394.51,-200.68 373.91,-209.72 355,-216.5 346.9,-219.4 338.1,-222.13 329.67,-224.54"/>
<polygon fill="#63b8ff" stroke="#63b8ff" points="411.9,-196.47 419.46,-189.05 408.92,-190.14 411.9,-196.47"/>
</g>
<!-- Node6 -->
<g id="node6" class="node">
<title>Node6</title>
<g id="a_node6"><a xlink:href="class_o_c_a_1_1_c_a_f_e_v_d_b_1_1_page_renderer_1_1_p_m_e_table_view_base.html#a763e239fc74171e9cd55b9f42e8de27b" target="_top" xlink:title="Possibly regenerate the user&#45;id slug.">
<polygon fill="white" stroke="#666666" points="337,-93 242,-93 242,-74 337,-74 337,-93"/>
<text text-anchor="middle" x="289.5" y="-81" font-family="Helvetica,sans-Serif" font-size="10.00">ensureUserIdSlug</text>
</a>
</g>
</g>
<!-- Node1&#45;&gt;Node6 -->
<g id="edge6" class="edge">
<title>Node1&#45;&gt;Node6</title>
<path fill="none" stroke="#63b8ff" d="M423.08,-160.63C406.56,-144.94 380.75,-122.36 355,-107.5 345.27,-101.89 333.99,-97.16 323.61,-93.43"/>
<polygon fill="#63b8ff" stroke="#63b8ff" points="420.55,-163.04 430.16,-167.49 425.42,-158.02 420.55,-163.04"/>
</g>
<!-- Node7 -->
<g id="node7" class="node">
<title>Node7</title>
<g id="a_node7"><a xlink:href="class_o_c_a_1_1_c_a_f_e_v_d_b_1_1_page_renderer_1_1_p_m_e_table_view_base.html#ac4930892b628989ea570c18ef64c0b4b" target="_top" xlink:title="The ranking of the mussician&#39;s instruments is implicitly stored in the order of the instrument ids.">
<polygon fill="white" stroke="#666666" points="354,-56 225,-56 225,-37 354,-37 354,-56"/>
<text text-anchor="middle" x="289.5" y="-44" font-family="Helvetica,sans-Serif" font-size="10.00">extractInstrumentRanking</text>
</a>
</g>
</g>
<!-- Node1&#45;&gt;Node7 -->
<g id="edge7" class="edge">
<title>Node1&#45;&gt;Node7</title>
<path fill="none" stroke="#63b8ff" d="M431.2,-158.48C417.63,-132.84 390.69,-88.83 355,-64.5 350.29,-61.29 345.02,-58.65 339.58,-56.48"/>
<polygon fill="#63b8ff" stroke="#63b8ff" points="427.98,-159.87 435.65,-167.18 434.22,-156.68 427.98,-159.87"/>
</g>
<!-- Node8 -->
<g id="node8" class="node">
<title>Node8</title>
<g id="a_node8"><a xlink:href="class_o_c_a_1_1_c_a_f_e_v_d_b_1_1_page_renderer_1_1_p_m_e_table_view_base.html#a313b024a1964fbcb383e097117af8bd3" target="_top" xlink:title="Compute the index into the phpMyEdit field&#45;description data of the given $tableInfo and $column.">
<polygon fill="white" stroke="#666666" points="319,-19 260,-19 260,0 319,0 319,-19"/>
<text text-anchor="middle" x="289.5" y="-7" font-family="Helvetica,sans-Serif" font-size="10.00">fieldIndex</text>
</a>
</g>
</g>
<!-- Node1&#45;&gt;Node8 -->
<g id="edge8" class="edge">
<title>Node1&#45;&gt;Node8</title>
<path fill="none" stroke="#63b8ff" d="M434.88,-157.72C424.17,-125.02 398.87,-61.73 355,-27.5 344.83,-19.56 331.35,-15.12 319.35,-12.64"/>
<polygon fill="#63b8ff" stroke="#63b8ff" points="431.51,-158.69 437.83,-167.19 438.2,-156.6 431.51,-158.69"/>
</g>
<!-- Node9 -->
<g id="node9" class="node">
<title>Node9</title>
<g id="a_node9"><a xlink:href="class_o_c_a_1_1_c_a_f_e_v_d_b_1_1_page_renderer_1_1_p_m_e_table_view_base.html#a4bc3294be95e06a40ae3bdc7d5419749" target="_top" xlink:title="Generate a join&#45;table field, given join&#45;table and field name.">
<polygon fill="white" stroke="#666666" points="341,-207 238,-207 238,-188 341,-188 341,-207"/>
<text text-anchor="middle" x="289.5" y="-195" font-family="Helvetica,sans-Serif" font-size="10.00">makeJoinTableField</text>
</a>
</g>
</g>
<!-- Node1&#45;&gt;Node9 -->
<g id="edge9" class="edge">
<title>Node1&#45;&gt;Node9</title>
<path fill="none" stroke="#63b8ff" d="M379.47,-186.27C366.82,-187.86 353.64,-189.53 341.42,-191.07"/>
<polygon fill="#63b8ff" stroke="#63b8ff" points="379.9,-189.74 389.38,-185.02 379.02,-182.8 379.9,-189.74"/>
</g>
<!-- Node13 -->
<g id="node13" class="node">
<title>Node13</title>
<g id="a_node13"><a xlink:href="class_o_c_a_1_1_c_a_f_e_v_d_b_1_1_page_renderer_1_1_project_participants.html#ab91557ae1e08e1183c76c9ce39edfe33" target="_top" xlink:title="{Show the underlying template page.This is supposed to echo html code to stdout. This is the default ...">
<polygon fill="white" stroke="#666666" points="171.5,-120.5 16.5,-120.5 16.5,-90.5 171.5,-90.5 171.5,-120.5"/>
<text text-anchor="start" x="24.5" y="-108.5" font-family="Helvetica,sans-Serif" font-size="10.00">OCA\CAFEVDB\PageRenderer</text>
<text text-anchor="middle" x="94" y="-97.5" font-family="Helvetica,sans-Serif" font-size="10.00">\ProjectParticipants\render</text>
</a>
</g>
</g>
<!-- Node1&#45;&gt;Node13 -->
<g id="edge19" class="edge">
<title>Node1&#45;&gt;Node13</title>
<path fill="none" stroke="#63b8ff" d="M379.65,-166.9C336.13,-158.54 276.39,-146.78 224,-135.5 202.98,-130.98 180.11,-125.75 159.54,-120.95"/>
<polygon fill="#63b8ff" stroke="#63b8ff" points="378.95,-170.33 389.43,-168.77 380.27,-163.45 378.95,-170.33"/>
</g>
<!-- Node14 -->
<g id="node14" class="node">
<title>Node14</title>
<g id="a_node14"><a xlink:href="class_o_c_a_1_1_c_a_f_e_v_d_b_1_1_page_renderer_1_1_sepa_bulk_transactions.html#ab91557ae1e08e1183c76c9ce39edfe33" target="_top" xlink:title="{Show the underlying template page.This is supposed to echo html code to stdout. This is the default ...">
<polygon fill="white" stroke="#666666" points="171.5,-72.5 16.5,-72.5 16.5,-42.5 171.5,-42.5 171.5,-72.5"/>
<text text-anchor="start" x="24.5" y="-60.5" font-family="Helvetica,sans-Serif" font-size="10.00">OCA\CAFEVDB\PageRenderer</text>
<text text-anchor="middle" x="94" y="-49.5" font-family="Helvetica,sans-Serif" font-size="10.00">\SepaBulkTransactions\render</text>
</a>
</g>
</g>
<!-- Node1&#45;&gt;Node14 -->
<g id="edge20" class="edge">
<title>Node1&#45;&gt;Node14</title>
<path fill="none" stroke="#63b8ff" d="M413.94,-163.13C397.32,-154.16 375.39,-143.15 355,-135.5 298.68,-114.38 279.85,-123.84 224,-101.5 207.01,-94.7 205,-88.29 188,-81.5 180.1,-78.35 171.66,-75.5 163.2,-72.96"/>
<polygon fill="#63b8ff" stroke="#63b8ff" points="412.24,-166.19 422.69,-167.94 415.62,-160.06 412.24,-166.19"/>
</g>
<!-- Node2&#45;&gt;Node3 -->
<g id="edge2" class="edge">
<title>Node2&#45;&gt;Node3</title>
<path fill="none" stroke="#63b8ff" d="M222.28,-322.48C208.87,-324.9 194.59,-327.49 180.62,-330.01"/>
<polygon fill="#63b8ff" stroke="#63b8ff" points="222.6,-325.98 231.82,-320.75 221.36,-319.09 222.6,-325.98"/>
</g>
<!-- Node2&#45;&gt;Node4 -->
<g id="edge3" class="edge">
<title>Node2&#45;&gt;Node4</title>
<path fill="none" stroke="#63b8ff" d="M219.64,-305.87C204.15,-304.83 187.62,-303.72 171.83,-302.66"/>
<polygon fill="#63b8ff" stroke="#63b8ff" points="218.98,-309.34 229.2,-306.52 219.45,-302.35 218.98,-309.34"/>
</g>
<!-- Node5&#45;&gt;Node4 -->
<g id="edge5" class="edge">
<title>Node5&#45;&gt;Node4</title>
<path fill="none" stroke="#63b8ff" d="M250.43,-248.39C241.72,-251.64 232.52,-255.14 224,-258.5 207.87,-264.86 204.43,-267.99 188,-273.5 178.99,-276.52 169.38,-279.39 159.89,-282.02"/>
<polygon fill="#63b8ff" stroke="#63b8ff" points="251.53,-251.71 259.69,-244.95 249.09,-245.15 251.53,-251.71"/>
</g>
<!-- Node9&#45;&gt;Node3 -->
<g id="edge13" class="edge">
<title>Node9&#45;&gt;Node3</title>
<path fill="none" stroke="#63b8ff" d="M227.91,-213.16C226.55,-214.2 225.24,-215.31 224,-216.5 188.36,-250.61 224.21,-288 188,-321.5 184.45,-324.78 180.51,-327.63 176.32,-330.1"/>
<polygon fill="#63b8ff" stroke="#63b8ff" points="229.64,-216.21 236.36,-208.02 226,-210.23 229.64,-216.21"/>
</g>
<!-- Node9&#45;&gt;Node4 -->
<g id="edge14" class="edge">
<title>Node9&#45;&gt;Node4</title>
<path fill="none" stroke="#63b8ff" d="M229.96,-212.53C227.89,-213.75 225.89,-215.07 224,-216.5 200.09,-234.56 212.21,-255.85 188,-273.5 183.01,-277.13 177.53,-280.22 171.79,-282.84"/>
<polygon fill="#63b8ff" stroke="#63b8ff" points="231.36,-215.74 238.77,-208.17 228.26,-209.47 231.36,-215.74"/>
</g>
<!-- Node10 -->
<g id="node10" class="node">
<title>Node10</title>
<g id="a_node10"><a xlink:href="class_o_c_a_1_1_c_a_f_e_v_d_b_1_1_page_renderer_1_1_instrument_families.html#ab91557ae1e08e1183c76c9ce39edfe33" target="_top" xlink:title="{Show the underlying template page.This is supposed to echo html code to stdout. This is the default ...">
<polygon fill="white" stroke="#666666" points="171.5,-264.5 16.5,-264.5 16.5,-234.5 171.5,-234.5 171.5,-264.5"/>
<text text-anchor="start" x="24.5" y="-252.5" font-family="Helvetica,sans-Serif" font-size="10.00">OCA\CAFEVDB\PageRenderer</text>
<text text-anchor="middle" x="94" y="-241.5" font-family="Helvetica,sans-Serif" font-size="10.00">\InstrumentFamilies\render</text>
</a>
</g>
</g>
<!-- Node9&#45;&gt;Node10 -->
<g id="edge10" class="edge">
<title>Node9&#45;&gt;Node10</title>
<path fill="none" stroke="#63b8ff" d="M242.79,-210.43C225.63,-215.24 205.94,-220.69 188,-225.5 177.53,-228.31 166.38,-231.24 155.58,-234.05"/>
<polygon fill="#63b8ff" stroke="#63b8ff" points="243.52,-213.86 252.2,-207.79 241.63,-207.12 243.52,-213.86"/>
</g>
<!-- Node11 -->
<g id="node11" class="node">
<title>Node11</title>
<g id="a_node11"><a xlink:href="class_o_c_a_1_1_c_a_f_e_v_d_b_1_1_page_renderer_1_1_instrument_insurances.html#ab91557ae1e08e1183c76c9ce39edfe33" target="_top" xlink:title="{Show the underlying template page.This is supposed to echo html code to stdout. This is the default ...">
<polygon fill="white" stroke="#666666" points="171.5,-216.5 16.5,-216.5 16.5,-186.5 171.5,-186.5 171.5,-216.5"/>
<text text-anchor="start" x="24.5" y="-204.5" font-family="Helvetica,sans-Serif" font-size="10.00">OCA\CAFEVDB\PageRenderer</text>
<text text-anchor="middle" x="94" y="-193.5" font-family="Helvetica,sans-Serif" font-size="10.00">\InstrumentInsurances\render</text>
</a>
</g>
</g>
<!-- Node9&#45;&gt;Node11 -->
<g id="edge11" class="edge">
<title>Node9&#45;&gt;Node11</title>
<path fill="none" stroke="#63b8ff" d="M226.49,-198.78C209.07,-199.14 189.91,-199.54 171.74,-199.91"/>
<polygon fill="#63b8ff" stroke="#63b8ff" points="226.22,-202.29 236.15,-198.58 226.08,-195.29 226.22,-202.29"/>
</g>
<!-- Node12 -->
<g id="node12" class="node">
<title>Node12</title>
<g id="a_node12"><a xlink:href="class_o_c_a_1_1_c_a_f_e_v_d_b_1_1_page_renderer_1_1_instruments.html#ab91557ae1e08e1183c76c9ce39edfe33" target="_top" xlink:title="{Show the underlying template page.This is supposed to echo html code to stdout. This is the default ...">
<polygon fill="white" stroke="#666666" points="171.5,-168.5 16.5,-168.5 16.5,-138.5 171.5,-138.5 171.5,-168.5"/>
<text text-anchor="start" x="24.5" y="-156.5" font-family="Helvetica,sans-Serif" font-size="10.00">OCA\CAFEVDB\PageRenderer</text>
<text text-anchor="middle" x="94" y="-145.5" font-family="Helvetica,sans-Serif" font-size="10.00">\Instruments\render</text>
</a>
</g>
</g>
<!-- Node9&#45;&gt;Node12 -->
<g id="edge12" class="edge">
<title>Node9&#45;&gt;Node12</title>
<path fill="none" stroke="#63b8ff" d="M233.48,-184.99C211.56,-180 186.1,-174.21 163.03,-168.97"/>
<polygon fill="#63b8ff" stroke="#63b8ff" points="232.59,-188.38 243.12,-187.18 234.14,-181.55 232.59,-188.38"/>
</g>
<!-- Node9&#45;&gt;Node13 -->
<g id="edge15" class="edge">
<title>Node9&#45;&gt;Node13</title>
<path fill="none" stroke="#63b8ff" d="M241.36,-183.33C235.25,-180.54 229.29,-177.28 224,-173.5 203.45,-158.81 209.29,-143.11 188,-129.5 182.8,-126.18 177.16,-123.31 171.32,-120.84"/>
<polygon fill="#63b8ff" stroke="#63b8ff" points="239.69,-186.43 250.27,-187.01 242.36,-179.96 239.69,-186.43"/>
</g>
<!-- Node9&#45;&gt;Node14 -->
<g id="edge16" class="edge">
<title>Node9&#45;&gt;Node14</title>
<path fill="none" stroke="#63b8ff" d="M268.35,-180.21C255.04,-168.31 237.6,-151.76 224,-135.5 205.49,-113.38 211.51,-98.2 188,-81.5 182.97,-77.93 177.45,-74.89 171.69,-72.3"/>
<polygon fill="#63b8ff" stroke="#63b8ff" points="265.85,-182.68 275.67,-186.65 270.48,-177.42 265.85,-182.68"/>
</g>
</g>
</svg>
        <g id="navigator" transform="translate(0 0)" fill="#404254">
                <rect fill="#f2f5e9" fill-opacity="0.5" stroke="#606060" stroke-width=".5" x="0" y="0" width="60" height="60"/>
                <use id="zoomplus" xlink:href="#zoomPlus" x="17" y="9" onmousedown="handleZoom(evt,'in')"/>
                <use id="zoomminus" xlink:href="#zoomMin" x="42" y="9" onmousedown="handleZoom(evt,'out')"/>
                <use id="reset" xlink:href="#resetDef" x="30" y="36" onmousedown="handleReset()"/>
                <g id="arrowUp" xlink:href="#dirArrow" transform="translate(30 24)" onmousedown="handlePan(0,-1)">
                  <use xlink:href="#rim" fill="#404040">
                        <set attributeName="fill" to="#808080" begin="arrowUp.mouseover" end="arrowUp.mouseout"/>
                  </use>
                  <path fill="none" stroke="white" stroke-width="1.5" d="M0,-3.0v7 M-2.5,-0.5L0,-3.0L2.5,-0.5"/>
                </g>
                <g id="arrowRight" xlink:href="#dirArrow" transform="rotate(90) translate(36 -43)" onmousedown="handlePan(1,0)">
                  <use xlink:href="#rim" fill="#404040">
                        <set attributeName="fill" to="#808080" begin="arrowRight.mouseover" end="arrowRight.mouseout"/>
                  </use>
                  <path fill="none" stroke="white" stroke-width="1.5" d="M0,-3.0v7 M-2.5,-0.5L0,-3.0L2.5,-0.5"/>
                </g>
                <g id="arrowDown" xlink:href="#dirArrow" transform="rotate(180) translate(-30 -48)" onmousedown="handlePan(0,1)">
                  <use xlink:href="#rim" fill="#404040">
                        <set attributeName="fill" to="#808080" begin="arrowDown.mouseover" end="arrowDown.mouseout"/>
                  </use>
                  <path fill="none" stroke="white" stroke-width="1.5" d="M0,-3.0v7 M-2.5,-0.5L0,-3.0L2.5,-0.5"/>
                </g>
                <g id="arrowLeft" xlink:href="#dirArrow" transform="rotate(270) translate(-36 17)" onmousedown="handlePan(-1,0)">
                  <use xlink:href="#rim" fill="#404040">
                        <set attributeName="fill" to="#808080" begin="arrowLeft.mouseover" end="arrowLeft.mouseout"/>
                  </use>
                  <path fill="none" stroke="white" stroke-width="1.5" d="M0,-3.0v7 M-2.5,-0.5L0,-3.0L2.5,-0.5"/>
                </g>
        </g>
        <svg viewBox="0 0 15 15" width="100%" height="30px" preserveAspectRatio="xMaxYMin meet">
         <g id="arrow_out" transform="scale(0.3 0.3)">
          <a xlink:href="class_o_c_a_1_1_c_a_f_e_v_d_b_1_1_page_renderer_1_1_p_m_e_table_view_base_abe18704ee0189ac55323c93db488770c_icgraph_org.svg" target="_base">
           <rect id="button" ry="5" rx="5" y="6" x="6" height="38" width="38"
                fill="#f2f5e9" fill-opacity="0.5" stroke="#606060" stroke-width="1.0"/>
           <path id="arrow"
             d="M 11.500037,31.436501 C 11.940474,20.09759 22.043105,11.32322 32.158766,21.979434 L 37.068811,17.246167 C 37.068811,17.246167 37.088388,32 37.088388,32 L 22.160133,31.978069 C 22.160133,31.978069 26.997745,27.140456 26.997745,27.140456 C 18.528582,18.264221 13.291696,25.230495 11.500037,31.436501 z"
             style="fill:#404040;"/>
          </a>
         </g>
        </svg>
</svg>
