<?xml version="1.0" encoding="UTF-8" standalone="no"?>
<!DOCTYPE svg PUBLIC "-//W3C//DTD SVG 1.1//EN"
 "http://www.w3.org/Graphics/SVG/1.1/DTD/svg11.dtd">
<!-- Generated by graphviz version 9.0.0 (20230911.1827)
 -->
<!-- Title: defineJoinStructure Pages: 1 -->
<svg width="331pt" height="340pt"
 viewBox="0.00 0.00 331.00 340.00" xmlns="http://www.w3.org/2000/svg" xmlns:xlink="http://www.w3.org/1999/xlink">

<svg id="main" version="1.1" xmlns="http://www.w3.org/2000/svg" xmlns:xlink="http://www.w3.org/1999/xlink" xml:space="preserve" onload="init(evt)">
<style type="text/css"><![CDATA[
.node, .edge {opacity: 0.7;}
.node.selected, .edge.selected {opacity: 1;}
.edge:hover path { stroke: red; }
.edge:hover polygon { stroke: red; fill: red; }
]]></style>
<script type="application/ecmascript" xlink:href="svg.min.js"/>
<svg id="graph" class="graph">
<g id="graph0" class="graph" transform="scale(1 1) rotate(0) translate(4 336)">
<title>defineJoinStructure</title>
<!-- Node1 -->
<g id="Node000001" class="node">
<title>Node1</title>
<g id="a_Node000001"><a xlink:title="Define a basic join&#45;structure for phpMyEdit by using the information from self::$joinStructure.">
<polygon fill="#999999" stroke="#666666" points="323,-176 223,-176 223,-156 323,-156 323,-176"/>
<text text-anchor="middle" x="273" y="-162.5" font-family="Helvetica,sans-Serif" font-size="10.00">defineJoinStructure</text>
</a>
</g>
</g>
<!-- Node2 -->
<g id="Node000002" class="node">
<title>Node2</title>
<g id="a_Node000002"><a xlink:href="class_o_c_a_1_1_c_a_f_e_v_d_b_1_1_page_renderer_1_1_instrument_families.html#ab91557ae1e08e1183c76c9ce39edfe33" target="_top" xlink:title="{Show the underlying template page.This is supposed to echo html code to stdout. This is the default ...">
<polygon fill="white" stroke="#666666" points="170.5,-332 16.5,-332 16.5,-300 170.5,-300 170.5,-332"/>
<text text-anchor="start" x="24.5" y="-318.5" font-family="Helvetica,sans-Serif" font-size="10.00">OCA\CAFEVDB\PageRenderer</text>
<text text-anchor="middle" x="93.5" y="-306.5" font-family="Helvetica,sans-Serif" font-size="10.00">\InstrumentFamilies\render</text>
</a>
</g>
</g>
<!-- Node1&#45;&gt;Node2 -->
<g id="edge1_Node000001_Node000002" class="edge">
<title>Node1&#45;&gt;Node2</title>
<g id="a_edge1_Node000001_Node000002"><a xlink:title=" ">
<path fill="none" stroke="#63b8ff" d="M263.47,-186.79C250.91,-214.75 224.78,-264.09 187,-291 181.99,-294.57 176.49,-297.63 170.75,-300.25"/>
<polygon fill="#63b8ff" stroke="#63b8ff" points="266.67,-188.19 267.41,-177.62 260.24,-185.42 266.67,-188.19"/>
</a>
</g>
</g>
<!-- Node3 -->
<g id="Node000003" class="node">
<title>Node3</title>
<g id="a_Node000003"><a xlink:href="class_o_c_a_1_1_c_a_f_e_v_d_b_1_1_page_renderer_1_1_instrument_insurances.html#ab91557ae1e08e1183c76c9ce39edfe33" target="_top" xlink:title="{Show the underlying template page.This is supposed to echo html code to stdout. This is the default ...">
<polygon fill="white" stroke="#666666" points="170.5,-282 16.5,-282 16.5,-250 170.5,-250 170.5,-282"/>
<text text-anchor="start" x="24.5" y="-268.5" font-family="Helvetica,sans-Serif" font-size="10.00">OCA\CAFEVDB\PageRenderer</text>
<text text-anchor="middle" x="93.5" y="-256.5" font-family="Helvetica,sans-Serif" font-size="10.00">\InstrumentInsurances\render</text>
</a>
</g>
</g>
<!-- Node1&#45;&gt;Node3 -->
<g id="edge2_Node000001_Node000003" class="edge">
<title>Node1&#45;&gt;Node3</title>
<g id="a_edge2_Node000001_Node000003"><a xlink:title=" ">
<path fill="none" stroke="#63b8ff" d="M255.81,-184.51C239.91,-201.57 214.16,-226.39 187,-241 180.99,-244.23 174.54,-247.07 167.93,-249.55"/>
<polygon fill="#63b8ff" stroke="#63b8ff" points="258.03,-187.27 262.16,-177.51 252.85,-182.56 258.03,-187.27"/>
</a>
</g>
</g>
<!-- Node4 -->
<g id="Node000004" class="node">
<title>Node4</title>
<g id="a_Node000004"><a xlink:href="class_o_c_a_1_1_c_a_f_e_v_d_b_1_1_page_renderer_1_1_instruments.html#ab91557ae1e08e1183c76c9ce39edfe33" target="_top" xlink:title="{Show the underlying template page.This is supposed to echo html code to stdout. This is the default ...">
<polygon fill="white" stroke="#666666" points="170.5,-232 16.5,-232 16.5,-200 170.5,-200 170.5,-232"/>
<text text-anchor="start" x="24.5" y="-218.5" font-family="Helvetica,sans-Serif" font-size="10.00">OCA\CAFEVDB\PageRenderer</text>
<text text-anchor="middle" x="93.5" y="-206.5" font-family="Helvetica,sans-Serif" font-size="10.00">\Instruments\render</text>
</a>
</g>
</g>
<!-- Node1&#45;&gt;Node4 -->
<g id="edge3_Node000001_Node000004" class="edge">
<title>Node1&#45;&gt;Node4</title>
<g id="a_edge3_Node000001_Node000004"><a xlink:title=" ">
<path fill="none" stroke="#63b8ff" d="M226.45,-179.6C213.7,-183.35 199.82,-187.38 187,-191 177.07,-193.8 166.53,-196.71 156.25,-199.51"/>
<polygon fill="#63b8ff" stroke="#63b8ff" points="227.26,-183.01 235.86,-176.82 225.28,-176.3 227.26,-183.01"/>
</a>
</g>
</g>
<!-- Node5 -->
<g id="Node000005" class="node">
<title>Node5</title>
<g id="a_Node000005"><a xlink:href="class_o_c_a_1_1_c_a_f_e_v_d_b_1_1_page_renderer_1_1_project_instrumentation_numbers.html#ab91557ae1e08e1183c76c9ce39edfe33" target="_top" xlink:title="{Show the underlying template page.This is supposed to echo html code to stdout. This is the default ...">
<polygon fill="white" stroke="#666666" points="187,-182 0,-182 0,-150 187,-150 187,-182"/>
<text text-anchor="start" x="8" y="-168.5" font-family="Helvetica,sans-Serif" font-size="10.00">OCA\CAFEVDB\PageRenderer</text>
<text text-anchor="middle" x="93.5" y="-156.5" font-family="Helvetica,sans-Serif" font-size="10.00">\ProjectInstrumentationNumbers\render</text>
</a>
</g>
</g>
<!-- Node1&#45;&gt;Node5 -->
<g id="edge4_Node000001_Node000005" class="edge">
<title>Node1&#45;&gt;Node5</title>
<g id="a_edge4_Node000001_Node000005"><a xlink:title=" ">
<path fill="none" stroke="#63b8ff" d="M211.08,-166C203.34,-166 195.28,-166 187.17,-166"/>
<polygon fill="#63b8ff" stroke="#63b8ff" points="211.04,-169.5 221.04,-166 211.04,-162.5 211.04,-169.5"/>
</a>
</g>
</g>
<!-- Node6 -->
<g id="Node000006" class="node">
<title>Node6</title>
<g id="a_Node000006"><a xlink:href="class_o_c_a_1_1_c_a_f_e_v_d_b_1_1_page_renderer_1_1_project_participant_fields.html#ab91557ae1e08e1183c76c9ce39edfe33" target="_top" xlink:title="{Show the underlying template page.This is supposed to echo html code to stdout. This is the default ...">
<polygon fill="white" stroke="#666666" points="170.5,-132 16.5,-132 16.5,-100 170.5,-100 170.5,-132"/>
<text text-anchor="start" x="24.5" y="-118.5" font-family="Helvetica,sans-Serif" font-size="10.00">OCA\CAFEVDB\PageRenderer</text>
<text text-anchor="middle" x="93.5" y="-106.5" font-family="Helvetica,sans-Serif" font-size="10.00">\ProjectParticipantFields\render</text>
</a>
</g>
</g>
<!-- Node1&#45;&gt;Node6 -->
<g id="edge5_Node000001_Node000006" class="edge">
<title>Node1&#45;&gt;Node6</title>
<g id="a_edge5_Node000001_Node000006"><a xlink:title=" ">
<path fill="none" stroke="#63b8ff" d="M226.45,-152.4C213.7,-148.65 199.82,-144.62 187,-141 177.07,-138.2 166.53,-135.29 156.25,-132.49"/>
<polygon fill="#63b8ff" stroke="#63b8ff" points="225.28,-155.7 235.86,-155.18 227.26,-148.99 225.28,-155.7"/>
</a>
</g>
</g>
<!-- Node7 -->
<g id="Node000007" class="node">
<title>Node7</title>
<g id="a_Node000007"><a xlink:href="class_o_c_a_1_1_c_a_f_e_v_d_b_1_1_page_renderer_1_1_project_participants.html#ab91557ae1e08e1183c76c9ce39edfe33" target="_top" xlink:title="{Show the underlying template page.This is supposed to echo html code to stdout. This is the default ...">
<polygon fill="white" stroke="#666666" points="170.5,-82 16.5,-82 16.5,-50 170.5,-50 170.5,-82"/>
<text text-anchor="start" x="24.5" y="-68.5" font-family="Helvetica,sans-Serif" font-size="10.00">OCA\CAFEVDB\PageRenderer</text>
<text text-anchor="middle" x="93.5" y="-56.5" font-family="Helvetica,sans-Serif" font-size="10.00">\ProjectParticipants\render</text>
</a>
</g>
</g>
<!-- Node1&#45;&gt;Node7 -->
<g id="edge6_Node000001_Node000007" class="edge">
<title>Node1&#45;&gt;Node7</title>
<g id="a_edge6_Node000001_Node000007"><a xlink:title=" ">
<path fill="none" stroke="#63b8ff" d="M255.81,-147.49C239.91,-130.43 214.16,-105.61 187,-91 180.99,-87.77 174.54,-84.93 167.93,-82.45"/>
<polygon fill="#63b8ff" stroke="#63b8ff" points="252.85,-149.44 262.16,-154.49 258.03,-144.73 252.85,-149.44"/>
</a>
</g>
</g>
<!-- Node8 -->
<g id="Node000008" class="node">
<title>Node8</title>
<g id="a_Node000008"><a xlink:href="class_o_c_a_1_1_c_a_f_e_v_d_b_1_1_page_renderer_1_1_sepa_bulk_transactions.html#ab91557ae1e08e1183c76c9ce39edfe33" target="_top" xlink:title="{Show the underlying template page.This is supposed to echo html code to stdout. This is the default ...">
<polygon fill="white" stroke="#666666" points="170.5,-32 16.5,-32 16.5,0 170.5,0 170.5,-32"/>
<text text-anchor="start" x="24.5" y="-18.5" font-family="Helvetica,sans-Serif" font-size="10.00">OCA\CAFEVDB\PageRenderer</text>
<text text-anchor="middle" x="93.5" y="-6.5" font-family="Helvetica,sans-Serif" font-size="10.00">\SepaBulkTransactions\render</text>
</a>
</g>
</g>
<!-- Node1&#45;&gt;Node8 -->
<g id="edge7_Node000001_Node000008" class="edge">
<title>Node1&#45;&gt;Node8</title>
<g id="a_edge7_Node000001_Node000008"><a xlink:title=" ">
<path fill="none" stroke="#63b8ff" d="M263.47,-145.21C250.91,-117.25 224.78,-67.91 187,-41 181.99,-37.43 176.49,-34.37 170.75,-31.75"/>
<polygon fill="#63b8ff" stroke="#63b8ff" points="260.24,-146.58 267.41,-154.38 266.67,-143.81 260.24,-146.58"/>
</a>
</g>
</g>
</g>
</svg>
</svg>

<style type='text/css'>
<![CDATA[
[data-mouse-over-selected='false'] { opacity: 0.7; }
[data-mouse-over-selected='true']  { opacity: 1.0; }
]]>
</style>
<script type="application/ecmascript"><![CDATA[
document.addEventListener('DOMContentLoaded', (event) => {
  highlightEdges();
  highlightAdjacentNodes();
});
]]></script>
</svg>
