<?xml version="1.0" encoding="UTF-8" standalone="no"?>
<!DOCTYPE svg PUBLIC "-//W3C//DTD SVG 1.1//EN"
 "http://www.w3.org/Graphics/SVG/1.1/DTD/svg11.dtd">
<!-- Generated by graphviz version 7.1.0 (20230121.1956)
 -->
<!-- Title: deleteNote Pages: 1 -->
<svg width="170pt" height="45pt"
 viewBox="0.00 0.00 170.00 45.00" xmlns="http://www.w3.org/2000/svg" xmlns:xlink="http://www.w3.org/1999/xlink">
<g id="graph0" class="graph" transform="scale(1 1) rotate(0) translate(4 41)">
<title>deleteNote</title>
<!-- Node1 -->
<g id="node1" class="node">
<title>Node1</title>
<g id="a_node1"><a xlink:title="Delete the given Note and the entire thread referring to it.">
<polygon fill="#999999" stroke="#666666" points="64,-19 0,-19 0,0 64,0 64,-19"/>
<text text-anchor="middle" x="32" y="-7" font-family="Helvetica,sans-Serif" font-size="10.00">deleteNote</text>
</a>
</g>
</g>
<!-- Node1&#45;&gt;Node1 -->
<g id="edge1" class="edge">
<title>Node1&#45;&gt;Node1</title>
<path fill="none" stroke="#63b8ff" d="M16.5,-19.37C9.43,-27.94 14.6,-37 32,-37 41.52,-37 47.37,-34.29 49.57,-30.43"/>
<polygon fill="#63b8ff" stroke="#63b8ff" points="53.06,-30.04 47.78,-20.86 46.18,-31.33 53.06,-30.04"/>
</g>
<!-- Node2 -->
<g id="node2" class="node">
<title>Node2</title>
<g id="a_node2"><a xlink:href="class_o_c_a_1_1_c_a_f_e_v_d_b_1_1_database_1_1_cloud_1_1_mapper_1_1_blog_mapper.html#a9b778ffc31cbf2df2c2d277cad3af26b" target="_top" xlink:title="Fetch the array of messages referring to $id via inReplyTo.">
<polygon fill="white" stroke="#666666" points="162,-19 100,-19 100,0 162,0 162,-19"/>
<text text-anchor="middle" x="131" y="-7" font-family="Helvetica,sans-Serif" font-size="10.00">findThread</text>
</a>
</g>
</g>
<!-- Node1&#45;&gt;Node2 -->
<g id="edge2" class="edge">
<title>Node1&#45;&gt;Node2</title>
<path fill="none" stroke="#63b8ff" d="M64.49,-9.5C72.08,-9.5 80.29,-9.5 88.26,-9.5"/>
<polygon fill="#63b8ff" stroke="#63b8ff" points="88.14,-13 98.14,-9.5 88.14,-6 88.14,-13"/>
</g>
</g>
</svg>
