<?xml version="1.0" encoding="UTF-8" standalone="no"?>
<!DOCTYPE svg PUBLIC "-//W3C//DTD SVG 1.1//EN"
 "http://www.w3.org/Graphics/SVG/1.1/DTD/svg11.dtd">
<!-- Generated by graphviz version 8.0.3 (20230416.2022)
 -->
<!-- Title: setPublicKey Pages: 1 -->
<svg width="300pt" height="27pt"
 viewBox="0.00 0.00 300.00 27.00" xmlns="http://www.w3.org/2000/svg" xmlns:xlink="http://www.w3.org/1999/xlink">
<g id="graph0" class="graph" transform="scale(1 1) rotate(0) translate(4 23)">
<title>setPublicKey</title>
<!-- Node1 -->
<g id="node1" class="node">
<title>Node1</title>
<g id="a_node1"><a xlink:title="{AsymmetricCryptorInterface $this}">
<polygon fill="#999999" stroke="#666666" points="292,-19 218,-19 218,0 292,0 292,-19"/>
<text text-anchor="middle" x="255" y="-7" font-family="Helvetica,sans-Serif" font-size="10.00">setPublicKey</text>
</a>
</g>
</g>
<!-- Node2 -->
<g id="node2" class="node">
<title>Node2</title>
<g id="a_node2"><a xlink:href="class_o_c_a_1_1_c_a_f_e_v_d_b_1_1_crypto_1_1_open_s_s_l_asymmetric_cryptor.html#af4b5ea16dfd9778be36d28ebdba0fec8" target="_top" xlink:title="{AsymmetricCryptorInterface $this}">
<polygon fill="white" stroke="#666666" points="182,-19 104,-19 104,0 182,0 182,-19"/>
<text text-anchor="middle" x="143" y="-7" font-family="Helvetica,sans-Serif" font-size="10.00">setPrivateKey</text>
</a>
</g>
</g>
<!-- Node1&#45;&gt;Node2 -->
<g id="edge1" class="edge">
<title>Node1&#45;&gt;Node2</title>
<path fill="none" stroke="#63b8ff" d="M206.71,-9.5C198.52,-9.5 190.09,-9.5 182.17,-9.5"/>
<polygon fill="#63b8ff" stroke="#63b8ff" points="206.68,-13 216.68,-9.5 206.68,-6 206.68,-13"/>
</g>
<!-- Node3 -->
<g id="node3" class="node">
<title>Node3</title>
<g id="a_node3"><a xlink:href="class_o_c_a_1_1_c_a_f_e_v_d_b_1_1_crypto_1_1_open_s_s_l_asymmetric_cryptor.html#ab0e4079df42a5b6924b715b57fd66040" target="_top" xlink:title=" ">
<polygon fill="white" stroke="#666666" points="68,-19 0,-19 0,0 68,0 68,-19"/>
<text text-anchor="middle" x="34" y="-7" font-family="Helvetica,sans-Serif" font-size="10.00">__construct</text>
</a>
</g>
</g>
<!-- Node2&#45;&gt;Node3 -->
<g id="edge2" class="edge">
<title>Node2&#45;&gt;Node3</title>
<path fill="none" stroke="#63b8ff" d="M92.93,-9.5C84.65,-9.5 76.22,-9.5 68.45,-9.5"/>
<polygon fill="#63b8ff" stroke="#63b8ff" points="92.67,-13 102.67,-9.5 92.67,-6 92.67,-13"/>
</g>
</g>
</svg>
