<?xml version="1.0" encoding="UTF-8" standalone="no"?>
<!DOCTYPE svg PUBLIC "-//W3C//DTD SVG 1.1//EN"
 "http://www.w3.org/Graphics/SVG/1.1/DTD/svg11.dtd">
<!-- Generated by graphviz version 8.0.3 (20230416.2022)
 -->
<!-- Title: DoNothingReceivablesGenerator Pages: 1 -->
<svg width="168pt" height="137pt"
 viewBox="0.00 0.00 168.00 137.00" xmlns="http://www.w3.org/2000/svg" xmlns:xlink="http://www.w3.org/1999/xlink">
<g id="graph0" class="graph" transform="scale(1 1) rotate(0) translate(4 133)">
<title>DoNothingReceivablesGenerator</title>
<!-- Node1 -->
<g id="node1" class="node">
<title>Node1</title>
<g id="a_node1"><a xlink:title="Do nothing implementation to have something implementing the interface.">
<polygon fill="#999999" stroke="#666666" points="160,-19 0,-19 0,0 160,0 160,-19"/>
<text text-anchor="middle" x="80" y="-7" font-family="Helvetica,sans-Serif" font-size="10.00">DoNothingReceivablesGenerator</text>
</a>
</g>
</g>
<!-- Node2 -->
<g id="node2" class="node">
<title>Node2</title>
<g id="a_node2"><a xlink:href="class_o_c_a_1_1_c_a_f_e_v_d_b_1_1_service_1_1_finance_1_1_abstract_receivables_generator.html" target="_top" xlink:title="Base class for the specific receivable generators.">
<polygon fill="white" stroke="#666666" points="155,-74 5,-74 5,-55 155,-55 155,-74"/>
<text text-anchor="middle" x="80" y="-62" font-family="Helvetica,sans-Serif" font-size="10.00">AbstractReceivablesGenerator</text>
</a>
</g>
</g>
<!-- Node2&#45;&gt;Node1 -->
<g id="edge1" class="edge">
<title>Node2&#45;&gt;Node1</title>
<path fill="none" stroke="#63b8ff" d="M80,-43.93C80,-35.53 80,-26.13 80,-19.44"/>
<polygon fill="#63b8ff" stroke="#63b8ff" points="76.5,-43.75 80,-53.75 83.5,-43.75 76.5,-43.75"/>
</g>
<!-- Node3 -->
<g id="node3" class="node">
<title>Node3</title>
<g id="a_node3"><a xlink:href="interface_o_c_a_1_1_c_a_f_e_v_d_b_1_1_service_1_1_finance_1_1_i_recurring_receivables_generator.html" target="_top" xlink:title="Generate recurring receivables and manifest them as recurring Entities\ProjectParticipantField entity...">
<polygon fill="white" stroke="#666666" points="159,-129 1,-129 1,-110 159,-110 159,-129"/>
<text text-anchor="middle" x="80" y="-117" font-family="Helvetica,sans-Serif" font-size="10.00">IRecurringReceivablesGenerator</text>
</a>
</g>
</g>
<!-- Node3&#45;&gt;Node2 -->
<g id="edge2" class="edge">
<title>Node3&#45;&gt;Node2</title>
<path fill="none" stroke="#63b8ff" d="M80,-98.93C80,-90.53 80,-81.13 80,-74.44"/>
<polygon fill="#63b8ff" stroke="#63b8ff" points="76.5,-98.75 80,-108.75 83.5,-98.75 76.5,-98.75"/>
</g>
</g>
</svg>
