<?xml version="1.0" encoding="UTF-8" standalone="no"?>
<!DOCTYPE svg PUBLIC "-//W3C//DTD SVG 1.1//EN"
 "http://www.w3.org/Graphics/SVG/1.1/DTD/svg11.dtd">
<!-- Generated by graphviz version 9.0.0 (20230911.1827)
 -->
<!-- Title: DoNothingProgressStatus Pages: 1 -->
<svg width="138pt" height="140pt"
 viewBox="0.00 0.00 138.00 140.00" xmlns="http://www.w3.org/2000/svg" xmlns:xlink="http://www.w3.org/1999/xlink">
<g id="graph0" class="graph" transform="scale(1 1) rotate(0) translate(4 136)">
<title>DoNothingProgressStatus</title>
<!-- Node1 -->
<g id="Node000001" class="node">
<title>Node1</title>
<g id="a_Node000001"><a xlink:title="Dummy implementation doing nothing.">
<polygon fill="#999999" stroke="#666666" points="130,-20 0,-20 0,0 130,0 130,-20"/>
<text text-anchor="middle" x="65" y="-6.5" font-family="Helvetica,sans-Serif" font-size="10.00">DoNothingProgressStatus</text>
</a>
</g>
</g>
<!-- Node2 -->
<g id="Node000002" class="node">
<title>Node2</title>
<g id="a_Node000002"><a xlink:href="class_o_c_a_1_1_c_a_f_e_v_d_b_1_1_common_1_1_abstract_progress_status.html" target="_top" xlink:title="Simplistic progress&#45;status interface.">
<polygon fill="white" stroke="#666666" points="125.12,-76 4.88,-76 4.88,-56 125.12,-56 125.12,-76"/>
<text text-anchor="middle" x="65" y="-62.5" font-family="Helvetica,sans-Serif" font-size="10.00">AbstractProgressStatus</text>
</a>
</g>
</g>
<!-- Node2&#45;&gt;Node1 -->
<g id="edge1_Node000001_Node000002" class="edge">
<title>Node2&#45;&gt;Node1</title>
<g id="a_edge1_Node000001_Node000002"><a xlink:title=" ">
<path fill="none" stroke="#63b8ff" d="M65,-44.13C65,-35.9 65,-26.85 65,-20.3"/>
<polygon fill="#63b8ff" stroke="#63b8ff" points="61.5,-44.08 65,-54.08 68.5,-44.08 61.5,-44.08"/>
</a>
</g>
</g>
<!-- Node3 -->
<g id="Node000003" class="node">
<title>Node3</title>
<g id="a_Node000003"><a xlink:href="interface_o_c_a_1_1_c_a_f_e_v_d_b_1_1_common_1_1_i_progress_status.html" target="_top" xlink:title="Simplistic progress&#45;status interface.">
<polygon fill="white" stroke="#666666" points="108.25,-132 21.75,-132 21.75,-112 108.25,-112 108.25,-132"/>
<text text-anchor="middle" x="65" y="-118.5" font-family="Helvetica,sans-Serif" font-size="10.00">IProgressStatus</text>
</a>
</g>
</g>
<!-- Node3&#45;&gt;Node2 -->
<g id="edge2_Node000002_Node000003" class="edge">
<title>Node3&#45;&gt;Node2</title>
<g id="a_edge2_Node000002_Node000003"><a xlink:title=" ">
<path fill="none" stroke="#63b8ff" d="M65,-100.13C65,-91.9 65,-82.85 65,-76.3"/>
<polygon fill="#63b8ff" stroke="#63b8ff" points="61.5,-100.08 65,-110.08 68.5,-100.08 61.5,-100.08"/>
</a>
</g>
</g>
</g>
</svg>
