<?xml version="1.0" encoding="UTF-8" standalone="no"?>
<!DOCTYPE svg PUBLIC "-//W3C//DTD SVG 1.1//EN"
 "http://www.w3.org/Graphics/SVG/1.1/DTD/svg11.dtd">
<!-- Generated by graphviz version 7.1.0 (20230121.1956)
 -->
<!-- Title: makeJoinTableField Pages: 1 -->
<svg width="335pt" height="326pt"
 viewBox="0.00 0.00 335.00 326.00" xmlns="http://www.w3.org/2000/svg" xmlns:xlink="http://www.w3.org/1999/xlink">
<g id="graph0" class="graph" transform="scale(1 1) rotate(0) translate(4 322)">
<title>makeJoinTableField</title>
<!-- Node1 -->
<g id="node1" class="node">
<title>Node1</title>
<g id="a_node1"><a xlink:title="Generate a join&#45;table field, given join&#45;table and field name.">
<polygon fill="#999999" stroke="#666666" points="327,-168.5 224,-168.5 224,-149.5 327,-149.5 327,-168.5"/>
<text text-anchor="middle" x="275.5" y="-156.5" font-family="Helvetica,sans-Serif" font-size="10.00">makeJoinTableField</text>
</a>
</g>
</g>
<!-- Node2 -->
<g id="node2" class="node">
<title>Node2</title>
<g id="a_node2"><a xlink:href="class_o_c_a_1_1_c_a_f_e_v_d_b_1_1_page_renderer_1_1_instrument_families.html#ab91557ae1e08e1183c76c9ce39edfe33" target="_top" xlink:title="{Show the underlying template page.This is supposed to echo html code to stdout. This is the default ...">
<polygon fill="white" stroke="#666666" points="171.5,-318 16.5,-318 16.5,-288 171.5,-288 171.5,-318"/>
<text text-anchor="start" x="24.5" y="-306" font-family="Helvetica,sans-Serif" font-size="10.00">OCA\CAFEVDB\PageRenderer</text>
<text text-anchor="middle" x="94" y="-295" font-family="Helvetica,sans-Serif" font-size="10.00">\InstrumentFamilies\render</text>
</a>
</g>
</g>
<!-- Node1&#45;&gt;Node2 -->
<g id="edge1" class="edge">
<title>Node1&#45;&gt;Node2</title>
<path fill="none" stroke="#63b8ff" d="M265.54,-179.02C252.44,-205.94 225.48,-253.39 188,-279 182.91,-282.48 177.34,-285.46 171.55,-288"/>
<polygon fill="#63b8ff" stroke="#63b8ff" points="268.58,-180.77 269.65,-170.23 262.24,-177.8 268.58,-180.77"/>
</g>
<!-- Node3 -->
<g id="node3" class="node">
<title>Node3</title>
<g id="a_node3"><a xlink:href="class_o_c_a_1_1_c_a_f_e_v_d_b_1_1_page_renderer_1_1_instrument_insurances.html#ab91557ae1e08e1183c76c9ce39edfe33" target="_top" xlink:title="{Show the underlying template page.This is supposed to echo html code to stdout. This is the default ...">
<polygon fill="white" stroke="#666666" points="171.5,-270 16.5,-270 16.5,-240 171.5,-240 171.5,-270"/>
<text text-anchor="start" x="24.5" y="-258" font-family="Helvetica,sans-Serif" font-size="10.00">OCA\CAFEVDB\PageRenderer</text>
<text text-anchor="middle" x="94" y="-247" font-family="Helvetica,sans-Serif" font-size="10.00">\InstrumentInsurances\render</text>
</a>
</g>
</g>
<!-- Node1&#45;&gt;Node3 -->
<g id="edge2" class="edge">
<title>Node1&#45;&gt;Node3</title>
<path fill="none" stroke="#63b8ff" d="M257.4,-177.25C241.06,-193.64 215,-217.17 188,-231 181.62,-234.27 174.76,-237.12 167.76,-239.59"/>
<polygon fill="#63b8ff" stroke="#63b8ff" points="259.91,-179.69 264.36,-170.08 254.88,-174.82 259.91,-179.69"/>
</g>
<!-- Node4 -->
<g id="node4" class="node">
<title>Node4</title>
<g id="a_node4"><a xlink:href="class_o_c_a_1_1_c_a_f_e_v_d_b_1_1_page_renderer_1_1_instruments.html#ab91557ae1e08e1183c76c9ce39edfe33" target="_top" xlink:title="{Show the underlying template page.This is supposed to echo html code to stdout. This is the default ...">
<polygon fill="white" stroke="#666666" points="171.5,-222 16.5,-222 16.5,-192 171.5,-192 171.5,-222"/>
<text text-anchor="start" x="24.5" y="-210" font-family="Helvetica,sans-Serif" font-size="10.00">OCA\CAFEVDB\PageRenderer</text>
<text text-anchor="middle" x="94" y="-199" font-family="Helvetica,sans-Serif" font-size="10.00">\Instruments\render</text>
</a>
</g>
</g>
<!-- Node1&#45;&gt;Node4 -->
<g id="edge3" class="edge">
<title>Node1&#45;&gt;Node4</title>
<path fill="none" stroke="#63b8ff" d="M228.14,-172.03C215.16,-175.63 201.04,-179.51 188,-183 177.53,-185.8 166.38,-188.73 155.57,-191.54"/>
<polygon fill="#63b8ff" stroke="#63b8ff" points="229.03,-175.41 237.73,-169.36 227.16,-168.67 229.03,-175.41"/>
</g>
<!-- Node5 -->
<g id="node5" class="node">
<title>Node5</title>
<g id="a_node5"><a xlink:href="class_o_c_a_1_1_c_a_f_e_v_d_b_1_1_page_renderer_1_1_project_instrumentation_numbers.html#ab91557ae1e08e1183c76c9ce39edfe33" target="_top" xlink:title="{Show the underlying template page.This is supposed to echo html code to stdout. This is the default ...">
<polygon fill="white" stroke="#666666" points="188,-174 0,-174 0,-144 188,-144 188,-174"/>
<text text-anchor="start" x="8" y="-162" font-family="Helvetica,sans-Serif" font-size="10.00">OCA\CAFEVDB\PageRenderer</text>
<text text-anchor="middle" x="94" y="-151" font-family="Helvetica,sans-Serif" font-size="10.00">\ProjectInstrumentationNumbers\render</text>
</a>
</g>
</g>
<!-- Node1&#45;&gt;Node5 -->
<g id="edge4" class="edge">
<title>Node1&#45;&gt;Node5</title>
<path fill="none" stroke="#63b8ff" d="M212.07,-159C204.33,-159 196.3,-159 188.23,-159"/>
<polygon fill="#63b8ff" stroke="#63b8ff" points="212.03,-162.5 222.03,-159 212.03,-155.5 212.03,-162.5"/>
</g>
<!-- Node6 -->
<g id="node6" class="node">
<title>Node6</title>
<g id="a_node6"><a xlink:href="class_o_c_a_1_1_c_a_f_e_v_d_b_1_1_page_renderer_1_1_project_participant_fields.html#ab91557ae1e08e1183c76c9ce39edfe33" target="_top" xlink:title="{Show the underlying template page.This is supposed to echo html code to stdout. This is the default ...">
<polygon fill="white" stroke="#666666" points="171.5,-126 16.5,-126 16.5,-96 171.5,-96 171.5,-126"/>
<text text-anchor="start" x="24.5" y="-114" font-family="Helvetica,sans-Serif" font-size="10.00">OCA\CAFEVDB\PageRenderer</text>
<text text-anchor="middle" x="94" y="-103" font-family="Helvetica,sans-Serif" font-size="10.00">\ProjectParticipantFields\render</text>
</a>
</g>
</g>
<!-- Node1&#45;&gt;Node6 -->
<g id="edge5" class="edge">
<title>Node1&#45;&gt;Node6</title>
<path fill="none" stroke="#63b8ff" d="M228.14,-145.97C215.16,-142.37 201.04,-138.49 188,-135 177.53,-132.2 166.38,-129.27 155.57,-126.46"/>
<polygon fill="#63b8ff" stroke="#63b8ff" points="227.16,-149.33 237.73,-148.64 229.03,-142.59 227.16,-149.33"/>
</g>
<!-- Node7 -->
<g id="node7" class="node">
<title>Node7</title>
<g id="a_node7"><a xlink:href="class_o_c_a_1_1_c_a_f_e_v_d_b_1_1_page_renderer_1_1_project_participants.html#ab91557ae1e08e1183c76c9ce39edfe33" target="_top" xlink:title="{Show the underlying template page.This is supposed to echo html code to stdout. This is the default ...">
<polygon fill="white" stroke="#666666" points="171.5,-78 16.5,-78 16.5,-48 171.5,-48 171.5,-78"/>
<text text-anchor="start" x="24.5" y="-66" font-family="Helvetica,sans-Serif" font-size="10.00">OCA\CAFEVDB\PageRenderer</text>
<text text-anchor="middle" x="94" y="-55" font-family="Helvetica,sans-Serif" font-size="10.00">\ProjectParticipants\render</text>
</a>
</g>
</g>
<!-- Node1&#45;&gt;Node7 -->
<g id="edge6" class="edge">
<title>Node1&#45;&gt;Node7</title>
<path fill="none" stroke="#63b8ff" d="M257.4,-140.75C241.06,-124.36 215,-100.83 188,-87 181.62,-83.73 174.76,-80.88 167.76,-78.41"/>
<polygon fill="#63b8ff" stroke="#63b8ff" points="254.88,-143.18 264.36,-147.92 259.91,-138.31 254.88,-143.18"/>
</g>
<!-- Node8 -->
<g id="node8" class="node">
<title>Node8</title>
<g id="a_node8"><a xlink:href="class_o_c_a_1_1_c_a_f_e_v_d_b_1_1_page_renderer_1_1_sepa_bulk_transactions.html#ab91557ae1e08e1183c76c9ce39edfe33" target="_top" xlink:title="{Show the underlying template page.This is supposed to echo html code to stdout. This is the default ...">
<polygon fill="white" stroke="#666666" points="171.5,-30 16.5,-30 16.5,0 171.5,0 171.5,-30"/>
<text text-anchor="start" x="24.5" y="-18" font-family="Helvetica,sans-Serif" font-size="10.00">OCA\CAFEVDB\PageRenderer</text>
<text text-anchor="middle" x="94" y="-7" font-family="Helvetica,sans-Serif" font-size="10.00">\SepaBulkTransactions\render</text>
</a>
</g>
</g>
<!-- Node1&#45;&gt;Node8 -->
<g id="edge7" class="edge">
<title>Node1&#45;&gt;Node8</title>
<path fill="none" stroke="#63b8ff" d="M265.54,-138.98C252.44,-112.06 225.48,-64.61 188,-39 182.91,-35.52 177.34,-32.54 171.55,-30"/>
<polygon fill="#63b8ff" stroke="#63b8ff" points="262.24,-140.2 269.65,-147.77 268.58,-137.23 262.24,-140.2"/>
</g>
</g>
</svg>
