<?xml version="1.0" encoding="UTF-8" standalone="no"?>
<!DOCTYPE svg PUBLIC "-//W3C//DTD SVG 1.1//EN"
 "http://www.w3.org/Graphics/SVG/1.1/DTD/svg11.dtd">
<!-- Generated by graphviz version 9.0.0 (20230911.1827)
 -->
<!-- Title: getSubAdminGroup Pages: 1 -->
<svg width="609pt" height="66pt"
 viewBox="0.00 0.00 609.25 66.00" xmlns="http://www.w3.org/2000/svg" xmlns:xlink="http://www.w3.org/1999/xlink">
<g id="graph0" class="graph" transform="scale(1 1) rotate(0) translate(4 62)">
<title>getSubAdminGroup</title>
<!-- Node1 -->
<g id="Node000001" class="node">
<title>Node1</title>
<g id="a_Node000001"><a xlink:title="Return the dedicated admin&#45;group if it exists.">
<polygon fill="#999999" stroke="#666666" points="100.75,-39 0,-39 0,-19 100.75,-19 100.75,-39"/>
<text text-anchor="middle" x="50.38" y="-25.5" font-family="Helvetica,sans-Serif" font-size="10.00">getSubAdminGroup</text>
</a>
</g>
</g>
<!-- Node2 -->
<g id="Node000002" class="node">
<title>Node2</title>
<g id="a_Node000002"><a xlink:href="class_o_c_a_1_1_c_a_f_e_v_d_b_1_1_service_1_1_config_service.html#aa2218693785fc68082d77740cc716623" target="_top" xlink:title=" ">
<polygon fill="white" stroke="#666666" points="219.12,-20 163.38,-20 163.38,0 219.12,0 219.12,-20"/>
<text text-anchor="middle" x="191.25" y="-6.5" font-family="Helvetica,sans-Serif" font-size="10.00">getGroup</text>
</a>
</g>
</g>
<!-- Node1&#45;&gt;Node2 -->
<g id="edge1_Node000001_Node000002" class="edge">
<title>Node1&#45;&gt;Node2</title>
<g id="a_edge1_Node000001_Node000002"><a xlink:title=" ">
<path fill="none" stroke="#63b8ff" d="M101.12,-22.19C117.74,-19.92 136,-17.42 151.65,-15.28"/>
<polygon fill="#63b8ff" stroke="#63b8ff" points="152.09,-18.75 161.53,-13.93 151.15,-11.82 152.09,-18.75"/>
</a>
</g>
</g>
<!-- Node7 -->
<g id="Node000007" class="node">
<title>Node7</title>
<g id="a_Node000007"><a xlink:href="class_o_c_a_1_1_c_a_f_e_v_d_b_1_1_service_1_1_config_service.html#aa2b39aa8d6ef6b2cf9db10c10954687b" target="_top" xlink:title="Return the id of the dedicated admin&#45;group which contains all sub&#45;admins.">
<polygon fill="white" stroke="#666666" points="245.75,-58 136.75,-58 136.75,-38 245.75,-38 245.75,-58"/>
<text text-anchor="middle" x="191.25" y="-44.5" font-family="Helvetica,sans-Serif" font-size="10.00">getSubAdminGroupId</text>
</a>
</g>
</g>
<!-- Node1&#45;&gt;Node7 -->
<g id="edge6_Node000001_Node000007" class="edge">
<title>Node1&#45;&gt;Node7</title>
<g id="a_edge6_Node000001_Node000007"><a xlink:title=" ">
<path fill="none" stroke="#63b8ff" d="M101.12,-35.81C108.95,-36.88 117.14,-38 125.25,-39.11"/>
<polygon fill="#63b8ff" stroke="#63b8ff" points="124.74,-42.57 135.12,-40.46 125.69,-35.63 124.74,-42.57"/>
</a>
</g>
</g>
<!-- Node3 -->
<g id="Node000003" class="node">
<title>Node3</title>
<g id="a_Node000003"><a xlink:href="class_o_c_a_1_1_c_a_f_e_v_d_b_1_1_service_1_1_config_service.html#a80ff7d4e6101b55bc46ce120b838b98d" target="_top" xlink:title=" ">
<polygon fill="white" stroke="#666666" points="360.38,-58 296.38,-58 296.38,-38 360.38,-38 360.38,-58"/>
<text text-anchor="middle" x="328.38" y="-44.5" font-family="Helvetica,sans-Serif" font-size="10.00">getGroupId</text>
</a>
</g>
</g>
<!-- Node2&#45;&gt;Node3 -->
<g id="edge2_Node000002_Node000003" class="edge">
<title>Node2&#45;&gt;Node3</title>
<g id="a_edge2_Node000002_Node000003"><a xlink:title=" ">
<path fill="none" stroke="#63b8ff" d="M219.59,-17.69C238.51,-23.01 264.03,-30.19 285.49,-36.22"/>
<polygon fill="#63b8ff" stroke="#63b8ff" points="284.26,-39.51 294.83,-38.85 286.15,-32.77 284.26,-39.51"/>
</a>
</g>
</g>
<!-- Node6 -->
<g id="Node000006" class="node">
<title>Node6</title>
<g id="a_Node000006"><a xlink:href="class_o_c_a_1_1_c_a_f_e_v_d_b_1_1_service_1_1_config_service.html#ae2621cc27b1048071816b69caf9b945a" target="_top" xlink:title=" ">
<polygon fill="white" stroke="#666666" points="375,-20 281.75,-20 281.75,0 375,0 375,-20"/>
<text text-anchor="middle" x="328.38" y="-6.5" font-family="Helvetica,sans-Serif" font-size="10.00">getGroupManager</text>
</a>
</g>
</g>
<!-- Node2&#45;&gt;Node6 -->
<g id="edge5_Node000002_Node000006" class="edge">
<title>Node2&#45;&gt;Node6</title>
<g id="a_edge5_Node000002_Node000006"><a xlink:title=" ">
<path fill="none" stroke="#63b8ff" d="M219.59,-10C234.14,-10 252.61,-10 270.12,-10"/>
<polygon fill="#63b8ff" stroke="#63b8ff" points="269.93,-13.5 279.93,-10 269.93,-6.5 269.93,-13.5"/>
</a>
</g>
</g>
<!-- Node4 -->
<g id="Node000004" class="node">
<title>Node4</title>
<g id="a_Node000004"><a xlink:href="class_o_c_a_1_1_c_a_f_e_v_d_b_1_1_service_1_1_config_service.html#a6c2a8487a2ff84a0fa4530de4d61d83b" target="_top" xlink:title="A short&#45;cut, redirecting to the stock functions for the app.">
<polygon fill="white" stroke="#666666" points="481.75,-58 411,-58 411,-38 481.75,-38 481.75,-58"/>
<text text-anchor="middle" x="446.38" y="-44.5" font-family="Helvetica,sans-Serif" font-size="10.00">getAppValue</text>
</a>
</g>
</g>
<!-- Node3&#45;&gt;Node4 -->
<g id="edge3_Node000003_Node000004" class="edge">
<title>Node3&#45;&gt;Node4</title>
<g id="a_edge3_Node000003_Node000004"><a xlink:title=" ">
<path fill="none" stroke="#63b8ff" d="M360.77,-48C372.7,-48 386.56,-48 399.56,-48"/>
<polygon fill="#63b8ff" stroke="#63b8ff" points="399.18,-51.5 409.18,-48 399.18,-44.5 399.18,-51.5"/>
</a>
</g>
</g>
<!-- Node5 -->
<g id="Node000005" class="node">
<title>Node5</title>
<g id="a_Node000005"><a xlink:href="class_o_c_a_1_1_c_a_f_e_v_d_b_1_1_service_1_1_config_service.html#a3c0a8ca944cfd5a62a77b1c2cc2b49a8" target="_top" xlink:title=" ">
<polygon fill="white" stroke="#666666" points="601.25,-58 517.75,-58 517.75,-38 601.25,-38 601.25,-58"/>
<text text-anchor="middle" x="559.5" y="-44.5" font-family="Helvetica,sans-Serif" font-size="10.00">getCloudConfig</text>
</a>
</g>
</g>
<!-- Node4&#45;&gt;Node5 -->
<g id="edge4_Node000004_Node000005" class="edge">
<title>Node4&#45;&gt;Node5</title>
<g id="a_edge4_Node000004_Node000005"><a xlink:title=" ">
<path fill="none" stroke="#63b8ff" d="M482.23,-48C489.85,-48 498.06,-48 506.19,-48"/>
<polygon fill="#63b8ff" stroke="#63b8ff" points="506.03,-51.5 516.03,-48 506.03,-44.5 506.03,-51.5"/>
</a>
</g>
</g>
<!-- Node7&#45;&gt;Node3 -->
<g id="edge7_Node000007_Node000003" class="edge">
<title>Node7&#45;&gt;Node3</title>
<g id="a_edge7_Node000007_Node000003"><a xlink:title=" ">
<path fill="none" stroke="#63b8ff" d="M246.04,-48C258.87,-48 272.39,-48 284.64,-48"/>
<polygon fill="#63b8ff" stroke="#63b8ff" points="284.43,-51.5 294.43,-48 284.43,-44.5 284.43,-51.5"/>
</a>
</g>
</g>
</g>
</svg>
