<?xml version="1.0" encoding="UTF-8" standalone="no"?>
<!DOCTYPE svg PUBLIC "-//W3C//DTD SVG 1.1//EN"
 "http://www.w3.org/Graphics/SVG/1.1/DTD/svg11.dtd">
<!-- Generated by graphviz version 9.0.0 (20230911.1827)
 -->
<!-- Title: UndoableTextFileUpdate Pages: 1 -->
<svg width="301pt" height="221pt"
 viewBox="0.00 0.00 300.75 221.00" xmlns="http://www.w3.org/2000/svg" xmlns:xlink="http://www.w3.org/1999/xlink">
<g id="graph0" class="graph" transform="scale(1 1) rotate(0) translate(4 217)">
<title>UndoableTextFileUpdate</title>
<!-- Node1 -->
<g id="Node000001" class="node">
<title>Node1</title>
<g id="a_Node000001"><a xlink:title="Update the content of the given text&#45;file with the given content.">
<polygon fill="#999999" stroke="#666666" points="222.62,-20 99.38,-20 99.38,0 222.62,0 222.62,-20"/>
<text text-anchor="middle" x="161" y="-6.5" font-family="Helvetica,sans-Serif" font-size="10.00">UndoableTextFileUpdate</text>
</a>
</g>
</g>
<!-- Node2 -->
<g id="Node000002" class="node">
<title>Node2</title>
<g id="a_Node000002"><a xlink:href="class_o_c_a_1_1_c_a_f_e_v_d_b_1_1_common_1_1_abstract_file_system_undoable.html" target="_top" xlink:title="Base for file&#45;system related IUndoable implementations.">
<polygon fill="white" stroke="#666666" points="161.75,-88 18.25,-88 18.25,-68 161.75,-68 161.75,-88"/>
<text text-anchor="middle" x="90" y="-74.5" font-family="Helvetica,sans-Serif" font-size="10.00">AbstractFileSystemUndoable</text>
</a>
</g>
</g>
<!-- Node2&#45;&gt;Node1 -->
<g id="edge1_Node000001_Node000002" class="edge">
<title>Node2&#45;&gt;Node1</title>
<g id="a_edge1_Node000001_Node000002"><a xlink:title=" ">
<path fill="none" stroke="#63b8ff" d="M108.32,-59.97C121.85,-47.39 139.78,-30.72 150.85,-20.44"/>
<polygon fill="#63b8ff" stroke="#63b8ff" points="106.22,-57.14 101.28,-66.51 110.99,-62.27 106.22,-57.14"/>
</a>
</g>
</g>
<!-- Node3 -->
<g id="Node000003" class="node">
<title>Node3</title>
<g id="a_Node000003"><a xlink:href="class_o_c_a_1_1_c_a_f_e_v_d_b_1_1_common_1_1_abstract_undoable.html" target="_top" xlink:title="Default implementation for some methods.">
<polygon fill="white" stroke="#666666" points="94,-156 0,-156 0,-136 94,-136 94,-156"/>
<text text-anchor="middle" x="47" y="-142.5" font-family="Helvetica,sans-Serif" font-size="10.00">AbstractUndoable</text>
</a>
</g>
</g>
<!-- Node3&#45;&gt;Node2 -->
<g id="edge2_Node000002_Node000003" class="edge">
<title>Node3&#45;&gt;Node2</title>
<g id="a_edge2_Node000002_Node000003"><a xlink:title=" ">
<path fill="none" stroke="#63b8ff" d="M59.28,-126.15C67.32,-113.82 77.47,-98.23 83.85,-88.44"/>
<polygon fill="#63b8ff" stroke="#63b8ff" points="56.51,-123.99 53.99,-134.28 62.38,-127.81 56.51,-123.99"/>
</a>
</g>
</g>
<!-- Node4 -->
<g id="Node000004" class="node">
<title>Node4</title>
<g id="a_Node000004"><a xlink:href="interface_o_c_a_1_1_c_a_f_e_v_d_b_1_1_common_1_1_i_undoable.html" target="_top" xlink:title="Simplistic do&#45;undo interface in order to be stacked into a do&#45;undo&#45;list.">
<polygon fill="white" stroke="#666666" points="77.12,-213 16.88,-213 16.88,-193 77.12,-193 77.12,-213"/>
<text text-anchor="middle" x="47" y="-199.5" font-family="Helvetica,sans-Serif" font-size="10.00">IUndoable</text>
</a>
</g>
</g>
<!-- Node4&#45;&gt;Node3 -->
<g id="edge3_Node000003_Node000004" class="edge">
<title>Node4&#45;&gt;Node3</title>
<g id="a_edge3_Node000003_Node000004"><a xlink:title=" ">
<path fill="none" stroke="#63b8ff" d="M47,-181.69C47,-172.97 47,-163.22 47,-156.28"/>
<polygon fill="#63b8ff" stroke="#63b8ff" points="43.5,-181.4 47,-191.4 50.5,-181.4 43.5,-181.4"/>
</a>
</g>
</g>
<!-- Node5 -->
<g id="Node000005" class="node">
<title>Node5</title>
<g id="a_Node000005"><a xlink:title=" ">
<polygon fill="white" stroke="#bfbfbf" points="154.12,-156 111.88,-156 111.88,-136 154.12,-136 154.12,-156"/>
<text text-anchor="middle" x="133" y="-142.5" font-family="Helvetica,sans-Serif" font-size="10.00">IL10N</text>
</a>
</g>
</g>
<!-- Node5&#45;&gt;Node2 -->
<g id="edge4_Node000002_Node000005" class="edge">
<title>Node5&#45;&gt;Node2</title>
<g id="a_edge4_Node000002_Node000005"><a xlink:title=" ">
<path fill="none" stroke="#9a32cd" stroke-dasharray="5,2" d="M120.72,-126.15C112.68,-113.82 102.53,-98.23 96.15,-88.44"/>
<polygon fill="#9a32cd" stroke="#9a32cd" points="117.62,-127.81 126.01,-134.28 123.49,-123.99 117.62,-127.81"/>
</a>
</g>
<text text-anchor="middle" x="121.25" y="-108.5" font-family="Helvetica,sans-Serif" font-size="10.00" fill="grey"> $l</text>
</g>
<!-- Node6 -->
<g id="Node000006" class="node">
<title>Node6</title>
<g id="a_Node000006"><a xlink:title=" ">
<polygon fill="white" stroke="#bfbfbf" points="283.88,-88 180.12,-88 180.12,-68 283.88,-68 283.88,-88"/>
<text text-anchor="middle" x="232" y="-74.5" font-family="Helvetica,sans-Serif" font-size="10.00">IDateTimeFormatter</text>
</a>
</g>
</g>
<!-- Node6&#45;&gt;Node1 -->
<g id="edge5_Node000001_Node000006" class="edge">
<title>Node6&#45;&gt;Node1</title>
<g id="a_edge5_Node000001_Node000006"><a xlink:title=" ">
<path fill="none" stroke="#9a32cd" stroke-dasharray="5,2" d="M213.68,-59.97C200.15,-47.39 182.22,-30.72 171.15,-20.44"/>
<polygon fill="#9a32cd" stroke="#9a32cd" points="211.01,-62.27 220.72,-66.51 215.78,-57.14 211.01,-62.27"/>
</a>
</g>
<text text-anchor="middle" x="247.38" y="-40.5" font-family="Helvetica,sans-Serif" font-size="10.00" fill="grey"> $dateTimeFormatter</text>
</g>
</g>
</svg>
