<?xml version="1.0" encoding="UTF-8" standalone="no"?>
<!DOCTYPE svg PUBLIC "-//W3C//DTD SVG 1.1//EN"
 "http://www.w3.org/Graphics/SVG/1.1/DTD/svg11.dtd">
<!-- Generated by graphviz version 7.1.0 (20230121.1956)
 -->
<!-- Title: criteriaExpr Pages: 1 -->
<svg width="430pt" height="458pt"
 viewBox="0.00 0.00 430.00 458.00" xmlns="http://www.w3.org/2000/svg" xmlns:xlink="http://www.w3.org/1999/xlink">
<g id="graph0" class="graph" transform="scale(1 1) rotate(0) translate(4 454)">
<title>criteriaExpr</title>
<!-- Node1 -->
<g id="node1" class="node">
<title>Node1</title>
<g id="a_node1"><a xlink:title="Convenience function to generate CollectionsxpressionBuilder.">
<polygon fill="#999999" stroke="#666666" points="422,-266.5 356,-266.5 356,-247.5 422,-247.5 422,-266.5"/>
<text text-anchor="middle" x="389" y="-254.5" font-family="Helvetica,sans-Serif" font-size="10.00">criteriaExpr</text>
</a>
</g>
</g>
<!-- Node2 -->
<g id="node2" class="node">
<title>Node2</title>
<g id="a_node2"><a xlink:href="namespace_o_c_a_1_1_c_a_f_e_v_d_b_1_1_traits.html#ae987ce50626dd3e4a9b255037433c776" target="_top" xlink:title="Convenience function to generate CollectionsxpressionBuilder.">
<polygon fill="white" stroke="#666666" points="320,-294 203,-294 203,-264 320,-264 320,-294"/>
<text text-anchor="start" x="211" y="-282" font-family="Helvetica,sans-Serif" font-size="10.00">OCA\CAFEVDB\Traits</text>
<text text-anchor="middle" x="261.5" y="-271" font-family="Helvetica,sans-Serif" font-size="10.00">\criteriaExpr</text>
</a>
</g>
</g>
<!-- Node1&#45;&gt;Node2 -->
<g id="edge1" class="edge">
<title>Node1&#45;&gt;Node2</title>
<path fill="none" stroke="#63b8ff" d="M344.5,-264.63C336.61,-266.01 328.26,-267.47 320.04,-268.91"/>
<polygon fill="#63b8ff" stroke="#63b8ff" points="344.94,-268.1 354.19,-262.93 343.74,-261.21 344.94,-268.1"/>
</g>
<!-- Node3 -->
<g id="node3" class="node">
<title>Node3</title>
<g id="a_node3"><a xlink:href="class_o_c_a_1_1_c_a_f_e_v_d_b_1_1_database_1_1_doctrine_1_1_util.html#aafe8e2082bd107d572aa76086a06b24e" target="_top" xlink:title="Convenience function.">
<polygon fill="white" stroke="#666666" points="298.5,-245.5 224.5,-245.5 224.5,-226.5 298.5,-226.5 298.5,-245.5"/>
<text text-anchor="middle" x="261.5" y="-233.5" font-family="Helvetica,sans-Serif" font-size="10.00">criteriaWhere</text>
</a>
</g>
</g>
<!-- Node1&#45;&gt;Node3 -->
<g id="edge2" class="edge">
<title>Node1&#45;&gt;Node3</title>
<path fill="none" stroke="#63b8ff" d="M344.61,-249.74C329.64,-247.23 313.03,-244.46 298.69,-242.06"/>
<polygon fill="#63b8ff" stroke="#63b8ff" points="343.75,-253.14 354.19,-251.34 344.9,-246.24 343.75,-253.14"/>
</g>
<!-- Node4 -->
<g id="node4" class="node">
<title>Node4</title>
<g id="a_node4"><a xlink:href="namespace_o_c_a_1_1_c_a_f_e_v_d_b_1_1_traits.html#aafe8e2082bd107d572aa76086a06b24e" target="_top" xlink:title=" ">
<polygon fill="white" stroke="#666666" points="142,-450 25,-450 25,-420 142,-420 142,-450"/>
<text text-anchor="start" x="33" y="-438" font-family="Helvetica,sans-Serif" font-size="10.00">OCA\CAFEVDB\Traits</text>
<text text-anchor="middle" x="83.5" y="-427" font-family="Helvetica,sans-Serif" font-size="10.00">\criteriaWhere</text>
</a>
</g>
</g>
<!-- Node3&#45;&gt;Node4 -->
<g id="edge3" class="edge">
<title>Node3&#45;&gt;Node4</title>
<path fill="none" stroke="#63b8ff" d="M213.7,-246.6C209.73,-248.88 206.06,-251.64 203,-255 155.06,-307.58 215.88,-359.29 167,-411 160.24,-418.15 151.48,-423.22 142.2,-426.79"/>
<polygon fill="#63b8ff" stroke="#63b8ff" points="215.04,-249.84 222.69,-242.51 212.14,-243.47 215.04,-249.84"/>
</g>
<!-- Node5 -->
<g id="node5" class="node">
<title>Node5</title>
<g id="a_node5"><a xlink:href="class_o_c_a_1_1_c_a_f_e_v_d_b_1_1_database_1_1_doctrine_1_1_o_r_m_1_1_entities_1_1_database_storage_folder.html#aaccc30214fd11a89620910ae83cb2b31" target="_top" xlink:title=" ">
<polygon fill="white" stroke="#666666" points="150.5,-402 16.5,-402 16.5,-350 150.5,-350 150.5,-402"/>
<text text-anchor="start" x="24.5" y="-390" font-family="Helvetica,sans-Serif" font-size="10.00">OCA\CAFEVDB\Database</text>
<text text-anchor="start" x="24.5" y="-379" font-family="Helvetica,sans-Serif" font-size="10.00">\Doctrine\ORM\Entities</text>
<text text-anchor="start" x="24.5" y="-368" font-family="Helvetica,sans-Serif" font-size="10.00">\DatabaseStorageFolder</text>
<text text-anchor="middle" x="83.5" y="-357" font-family="Helvetica,sans-Serif" font-size="10.00">\getEntryByName</text>
</a>
</g>
</g>
<!-- Node3&#45;&gt;Node5 -->
<g id="edge4" class="edge">
<title>Node3&#45;&gt;Node5</title>
<path fill="none" stroke="#63b8ff" d="M213.96,-247.33C209.99,-249.46 206.25,-251.99 203,-255 172.59,-283.15 196.23,-311.63 167,-341 162.28,-345.74 156.82,-349.88 151,-353.48"/>
<polygon fill="#63b8ff" stroke="#63b8ff" points="215.07,-250.66 222.81,-243.42 212.24,-244.26 215.07,-250.66"/>
</g>
<!-- Node6 -->
<g id="node6" class="node">
<title>Node6</title>
<g id="a_node6"><a xlink:href="class_o_c_a_1_1_c_a_f_e_v_d_b_1_1_database_1_1_doctrine_1_1_o_r_m_1_1_entities_1_1_database_storage_folder.html#ae3f26d0c9ab593df3331ca906567a115" target="_top" xlink:title=" ">
<polygon fill="white" stroke="#666666" points="150.5,-332 16.5,-332 16.5,-280 150.5,-280 150.5,-332"/>
<text text-anchor="start" x="24.5" y="-320" font-family="Helvetica,sans-Serif" font-size="10.00">OCA\CAFEVDB\Database</text>
<text text-anchor="start" x="24.5" y="-309" font-family="Helvetica,sans-Serif" font-size="10.00">\Doctrine\ORM\Entities</text>
<text text-anchor="start" x="24.5" y="-298" font-family="Helvetica,sans-Serif" font-size="10.00">\DatabaseStorageFolder</text>
<text text-anchor="middle" x="83.5" y="-287" font-family="Helvetica,sans-Serif" font-size="10.00">\getFileByName</text>
</a>
</g>
</g>
<!-- Node3&#45;&gt;Node6 -->
<g id="edge5" class="edge">
<title>Node3&#45;&gt;Node6</title>
<path fill="none" stroke="#63b8ff" d="M217.62,-249.65C212.67,-251.38 207.71,-253.18 203,-255 186.67,-261.31 183.06,-264.03 167,-271 160.58,-273.79 153.86,-276.68 147.16,-279.55"/>
<polygon fill="#63b8ff" stroke="#63b8ff" points="218.59,-253.01 226.93,-246.48 216.34,-246.39 218.59,-253.01"/>
</g>
<!-- Node7 -->
<g id="node7" class="node">
<title>Node7</title>
<g id="a_node7"><a xlink:href="class_o_c_a_1_1_c_a_f_e_v_d_b_1_1_database_1_1_doctrine_1_1_o_r_m_1_1_entities_1_1_database_storage_folder.html#ad8bd1b1e4e8f449108639d5add09edb7" target="_top" xlink:title=" ">
<polygon fill="white" stroke="#666666" points="150.5,-262 16.5,-262 16.5,-210 150.5,-210 150.5,-262"/>
<text text-anchor="start" x="24.5" y="-250" font-family="Helvetica,sans-Serif" font-size="10.00">OCA\CAFEVDB\Database</text>
<text text-anchor="start" x="24.5" y="-239" font-family="Helvetica,sans-Serif" font-size="10.00">\Doctrine\ORM\Entities</text>
<text text-anchor="start" x="24.5" y="-228" font-family="Helvetica,sans-Serif" font-size="10.00">\DatabaseStorageFolder</text>
<text text-anchor="middle" x="83.5" y="-217" font-family="Helvetica,sans-Serif" font-size="10.00">\getFolderByName</text>
</a>
</g>
</g>
<!-- Node3&#45;&gt;Node7 -->
<g id="edge6" class="edge">
<title>Node3&#45;&gt;Node7</title>
<path fill="none" stroke="#63b8ff" d="M212.63,-236C193.59,-236 171.35,-236 150.8,-236"/>
<polygon fill="#63b8ff" stroke="#63b8ff" points="212.52,-239.5 222.52,-236 212.52,-232.5 212.52,-239.5"/>
</g>
<!-- Node8 -->
<g id="node8" class="node">
<title>Node8</title>
<g id="a_node8"><a xlink:href="class_o_c_a_1_1_c_a_f_e_v_d_b_1_1_database_1_1_doctrine_1_1_o_r_m_1_1_entities_1_1_project_participant_field.html#abba1d644a20b16908a615d2409b81720" target="_top" xlink:title="Filter field&#45;data by musician.">
<polygon fill="white" stroke="#666666" points="150.5,-192 16.5,-192 16.5,-140 150.5,-140 150.5,-192"/>
<text text-anchor="start" x="24.5" y="-180" font-family="Helvetica,sans-Serif" font-size="10.00">OCA\CAFEVDB\Database</text>
<text text-anchor="start" x="24.5" y="-169" font-family="Helvetica,sans-Serif" font-size="10.00">\Doctrine\ORM\Entities</text>
<text text-anchor="start" x="24.5" y="-158" font-family="Helvetica,sans-Serif" font-size="10.00">\ProjectParticipantField</text>
<text text-anchor="middle" x="83.5" y="-147" font-family="Helvetica,sans-Serif" font-size="10.00">\getMusicianFieldData</text>
</a>
</g>
</g>
<!-- Node3&#45;&gt;Node8 -->
<g id="edge7" class="edge">
<title>Node3&#45;&gt;Node8</title>
<path fill="none" stroke="#63b8ff" d="M225.18,-221.95C203.92,-213.5 176.18,-202.46 150.95,-192.43"/>
<polygon fill="#63b8ff" stroke="#63b8ff" points="223.66,-225.12 234.25,-225.56 226.25,-218.61 223.66,-225.12"/>
</g>
<!-- Node9 -->
<g id="node9" class="node">
<title>Node9</title>
<g id="a_node9"><a xlink:href="class_o_c_a_1_1_c_a_f_e_v_d_b_1_1_database_1_1_doctrine_1_1_o_r_m_1_1_entities_1_1_project_participant_field_data_option.html#abba1d644a20b16908a615d2409b81720" target="_top" xlink:title="Filter field&#45;data by musician.">
<polygon fill="white" stroke="#666666" points="167,-122 0,-122 0,-70 167,-70 167,-122"/>
<text text-anchor="start" x="8" y="-110" font-family="Helvetica,sans-Serif" font-size="10.00">OCA\CAFEVDB\Database</text>
<text text-anchor="start" x="8" y="-99" font-family="Helvetica,sans-Serif" font-size="10.00">\Doctrine\ORM\Entities</text>
<text text-anchor="start" x="8" y="-88" font-family="Helvetica,sans-Serif" font-size="10.00">\ProjectParticipantFieldDataOption</text>
<text text-anchor="middle" x="83.5" y="-77" font-family="Helvetica,sans-Serif" font-size="10.00">\getMusicianFieldData</text>
</a>
</g>
</g>
<!-- Node3&#45;&gt;Node9 -->
<g id="edge8" class="edge">
<title>Node3&#45;&gt;Node9</title>
<path fill="none" stroke="#63b8ff" d="M247.59,-216.94C231.18,-193.93 200.88,-155.31 167,-131 162.7,-127.92 158.09,-125.04 153.32,-122.36"/>
<polygon fill="#63b8ff" stroke="#63b8ff" points="244.66,-218.86 253.25,-225.06 250.41,-214.86 244.66,-218.86"/>
</g>
<!-- Node10 -->
<g id="node10" class="node">
<title>Node10</title>
<g id="a_node10"><a xlink:href="class_o_c_a_1_1_c_a_f_e_v_d_b_1_1_database_1_1_doctrine_1_1_o_r_m_1_1_entities_1_1_project_participant_field.html#a89b1874ae24baa224ffd642bbb1f6437" target="_top" xlink:title="Search an option by its label.">
<polygon fill="white" stroke="#666666" points="150.5,-52 16.5,-52 16.5,0 150.5,0 150.5,-52"/>
<text text-anchor="start" x="24.5" y="-40" font-family="Helvetica,sans-Serif" font-size="10.00">OCA\CAFEVDB\Database</text>
<text text-anchor="start" x="24.5" y="-29" font-family="Helvetica,sans-Serif" font-size="10.00">\Doctrine\ORM\Entities</text>
<text text-anchor="start" x="24.5" y="-18" font-family="Helvetica,sans-Serif" font-size="10.00">\ProjectParticipantField</text>
<text text-anchor="middle" x="83.5" y="-7" font-family="Helvetica,sans-Serif" font-size="10.00">\getOptionByLabel</text>
</a>
</g>
</g>
<!-- Node3&#45;&gt;Node10 -->
<g id="edge9" class="edge">
<title>Node3&#45;&gt;Node10</title>
<path fill="none" stroke="#63b8ff" d="M254.62,-215.67C243.28,-179.83 215.19,-105.06 167,-61 162.18,-56.59 156.72,-52.69 150.96,-49.24"/>
<polygon fill="#63b8ff" stroke="#63b8ff" points="251.13,-216.22 257.38,-224.78 257.83,-214.19 251.13,-216.22"/>
</g>
</g>
</svg>
