<?xml version="1.0" encoding="UTF-8" standalone="no"?>
<!DOCTYPE svg PUBLIC "-//W3C//DTD SVG 1.1//EN"
 "http://www.w3.org/Graphics/SVG/1.1/DTD/svg11.dtd">
<!-- Generated by graphviz version 9.0.0 (20230911.1827)
 -->
<!-- Title: normalizeSpaces Pages: 1 -->
<svg width="725pt" height="133pt"
 viewBox="0.00 0.00 725.25 133.00" xmlns="http://www.w3.org/2000/svg" xmlns:xlink="http://www.w3.org/1999/xlink">
<g id="graph0" class="graph" transform="scale(1 1) rotate(0) translate(4 129)">
<title>normalizeSpaces</title>
<!-- Node1 -->
<g id="Node000001" class="node">
<title>Node1</title>
<g id="a_Node000001"><a xlink:title="Normalize spaces and commas after and before spaces.">
<polygon fill="#999999" stroke="#666666" points="717.25,-88 626.25,-88 626.25,-68 717.25,-68 717.25,-88"/>
<text text-anchor="middle" x="671.75" y="-74.5" font-family="Helvetica,sans-Serif" font-size="10.00">normalizeSpaces</text>
</a>
</g>
</g>
<!-- Node2 -->
<g id="Node000002" class="node">
<title>Node2</title>
<g id="a_Node000002"><a xlink:href="class_o_c_a_1_1_c_a_f_e_v_d_b_1_1_page_renderer_1_1_p_m_e_table_view_base.html#a33ebd2cd145951f1fc62fe8bdb24a315" target="_top" xlink:title="The phpMyEdit instance calls the triggers (callbacks) with the following arguments:">
<polygon fill="white" stroke="#666666" points="590.25,-125 413.75,-125 413.75,-81 590.25,-81 590.25,-125"/>
<text text-anchor="start" x="421.75" y="-111.5" font-family="Helvetica,sans-Serif" font-size="10.00">OCA\CAFEVDB\PageRenderer</text>
<text text-anchor="start" x="421.75" y="-99.5" font-family="Helvetica,sans-Serif" font-size="10.00">\PMETableViewBase\beforeAnything</text>
<text text-anchor="middle" x="502" y="-87.5" font-family="Helvetica,sans-Serif" font-size="10.00">TrimAnything</text>
</a>
</g>
</g>
<!-- Node1&#45;&gt;Node2 -->
<g id="edge1_Node000001_Node000002" class="edge">
<title>Node1&#45;&gt;Node2</title>
<g id="a_edge1_Node000001_Node000002"><a xlink:title=" ">
<path fill="none" stroke="#63b8ff" d="M614.67,-86.36C606.87,-87.52 598.72,-88.74 590.51,-89.96"/>
<polygon fill="#63b8ff" stroke="#63b8ff" points="614.92,-89.86 624.3,-84.92 613.89,-82.93 614.92,-89.86"/>
</a>
</g>
</g>
<!-- Node3 -->
<g id="Node000003" class="node">
<title>Node3</title>
<g id="a_Node000003"><a xlink:href="class_o_c_a_1_1_c_a_f_e_v_d_b_1_1_common_1_1_util.html#aa61d3de43b26061a4d0097306931c64f" target="_top" xlink:title="Remove all whitespace.">
<polygon fill="white" stroke="#666666" points="542.62,-63 461.38,-63 461.38,-43 542.62,-43 542.62,-63"/>
<text text-anchor="middle" x="502" y="-49.5" font-family="Helvetica,sans-Serif" font-size="10.00">removeSpaces</text>
</a>
</g>
</g>
<!-- Node1&#45;&gt;Node3 -->
<g id="edge2_Node000001_Node000003" class="edge">
<title>Node1&#45;&gt;Node3</title>
<g id="a_edge2_Node000001_Node000003"><a xlink:title=" ">
<path fill="none" stroke="#63b8ff" d="M614.57,-69.63C591.09,-66.13 564.34,-62.14 542.92,-58.95"/>
<polygon fill="#63b8ff" stroke="#63b8ff" points="613.89,-73.07 624.3,-71.08 614.92,-66.14 613.89,-73.07"/>
</a>
</g>
</g>
<!-- Node4 -->
<g id="Node000004" class="node">
<title>Node4</title>
<g id="a_Node000004"><a xlink:href="class_o_c_a_1_1_c_a_f_e_v_d_b_1_1_page_renderer_1_1_p_m_e_table_view_base.html#a882a0897b82d354409342d1c195c2f4d" target="_top" xlink:title="Before update&#45;trigger which ideally should update all data such that nothing remains to do for phpMyE...">
<polygon fill="white" stroke="#666666" points="368.75,-106 199,-106 199,-62 368.75,-62 368.75,-106"/>
<text text-anchor="start" x="207" y="-92.5" font-family="Helvetica,sans-Serif" font-size="10.00">OCA\CAFEVDB\PageRenderer</text>
<text text-anchor="start" x="207" y="-80.5" font-family="Helvetica,sans-Serif" font-size="10.00">\PMETableViewBase\beforeUpdate</text>
<text text-anchor="middle" x="283.88" y="-68.5" font-family="Helvetica,sans-Serif" font-size="10.00">DoUpdateAll</text>
</a>
</g>
</g>
<!-- Node3&#45;&gt;Node4 -->
<g id="edge3_Node000003_Node000004" class="edge">
<title>Node3&#45;&gt;Node4</title>
<g id="a_edge3_Node000003_Node000004"><a xlink:title=" ">
<path fill="none" stroke="#63b8ff" d="M450.04,-60.31C425.83,-63.78 396.25,-68.02 368.85,-71.95"/>
<polygon fill="#63b8ff" stroke="#63b8ff" points="450.21,-63.82 459.61,-58.94 449.21,-56.89 450.21,-63.82"/>
</a>
</g>
</g>
<!-- Node6 -->
<g id="Node000006" class="node">
<title>Node6</title>
<g id="a_Node000006"><a xlink:href="class_o_c_a_1_1_c_a_f_e_v_d_b_1_1_page_renderer_1_1_p_m_e_table_view_base.html#ac4930892b628989ea570c18ef64c0b4b" target="_top" xlink:title="The ranking of the mussician&#39;s instruments is implicitly stored in the order of the instrument ids.">
<polygon fill="white" stroke="#666666" points="377.75,-44 190,-44 190,0 377.75,0 377.75,-44"/>
<text text-anchor="start" x="198" y="-30.5" font-family="Helvetica,sans-Serif" font-size="10.00">OCA\CAFEVDB\PageRenderer</text>
<text text-anchor="start" x="198" y="-18.5" font-family="Helvetica,sans-Serif" font-size="10.00">\PMETableViewBase\extractInstrument</text>
<text text-anchor="middle" x="283.88" y="-6.5" font-family="Helvetica,sans-Serif" font-size="10.00">Ranking</text>
</a>
</g>
</g>
<!-- Node3&#45;&gt;Node6 -->
<g id="edge5_Node000003_Node000006" class="edge">
<title>Node3&#45;&gt;Node6</title>
<g id="a_edge5_Node000003_Node000006"><a xlink:title=" ">
<path fill="none" stroke="#63b8ff" d="M449.93,-45.68C428.39,-42.59 402.61,-38.89 377.9,-35.34"/>
<polygon fill="#63b8ff" stroke="#63b8ff" points="449.21,-49.11 459.61,-47.06 450.21,-42.18 449.21,-49.11"/>
</a>
</g>
</g>
<!-- Node5 -->
<g id="Node000005" class="node">
<title>Node5</title>
<g id="a_Node000005"><a xlink:href="class_o_c_a_1_1_c_a_f_e_v_d_b_1_1_page_renderer_1_1_project_participant_fields.html#ab91557ae1e08e1183c76c9ce39edfe33" target="_top" xlink:title="{Show the underlying template page.This is supposed to echo html code to stdout. This is the default ...">
<polygon fill="white" stroke="#666666" points="154,-100 0,-100 0,-68 154,-68 154,-100"/>
<text text-anchor="start" x="8" y="-86.5" font-family="Helvetica,sans-Serif" font-size="10.00">OCA\CAFEVDB\PageRenderer</text>
<text text-anchor="middle" x="77" y="-74.5" font-family="Helvetica,sans-Serif" font-size="10.00">\ProjectParticipantFields\render</text>
</a>
</g>
</g>
<!-- Node4&#45;&gt;Node5 -->
<g id="edge4_Node000004_Node000005" class="edge">
<title>Node4&#45;&gt;Node5</title>
<g id="a_edge4_Node000004_Node000005"><a xlink:title=" ">
<path fill="none" stroke="#63b8ff" d="M187.22,-84C176.19,-84 165.06,-84 154.33,-84"/>
<polygon fill="#63b8ff" stroke="#63b8ff" points="187.14,-87.5 197.14,-84 187.14,-80.5 187.14,-87.5"/>
</a>
</g>
</g>
</g>
</svg>
