<?xml version="1.0" encoding="UTF-8" standalone="no"?>
<!DOCTYPE svg PUBLIC "-//W3C//DTD SVG 1.1//EN"
 "http://www.w3.org/Graphics/SVG/1.1/DTD/svg11.dtd">
<!-- Generated by graphviz version 9.0.0 (20230911.1827)
 -->
<!-- Title: determineUserBase Pages: 1 -->
<svg width="361pt" height="66pt"
 viewBox="0.00 0.00 360.50 66.00" xmlns="http://www.w3.org/2000/svg" xmlns:xlink="http://www.w3.org/1999/xlink">
<g id="graph0" class="graph" transform="scale(1 1) rotate(0) translate(4 62)">
<title>determineUserBase</title>
<!-- Node1 -->
<g id="Node000001" class="node">
<title>Node1</title>
<g id="a_Node000001"><a xlink:title="Decode the check&#45;boxes which select the set of users we consider basically.">
<polygon fill="#999999" stroke="#666666" points="102.25,-39 0,-39 0,-19 102.25,-19 102.25,-39"/>
<text text-anchor="middle" x="51.12" y="-25.5" font-family="Helvetica,sans-Serif" font-size="10.00">determineUserBase</text>
</a>
</g>
</g>
<!-- Node2 -->
<g id="Node000002" class="node">
<title>Node2</title>
<g id="a_Node000002"><a xlink:href="class_o_c_a_1_1_c_a_f_e_v_d_b_1_1_email_form_1_1_recipients_filter.html#a1497fe5acb2403ca1873ec2fd4b790fe" target="_top" xlink:title="Fetch a CGI&#45;variable out of the form&#45;select name&#45;space.">
<polygon fill="white" stroke="#666666" points="209,-58 156.25,-58 156.25,-38 209,-38 209,-58"/>
<text text-anchor="middle" x="182.62" y="-44.5" font-family="Helvetica,sans-Serif" font-size="10.00">cgiValue</text>
</a>
</g>
</g>
<!-- Node1&#45;&gt;Node2 -->
<g id="edge1_Node000001_Node000002" class="edge">
<title>Node1&#45;&gt;Node2</title>
<g id="a_edge1_Node000001_Node000002"><a xlink:title=" ">
<path fill="none" stroke="#63b8ff" d="M102.56,-36.4C116.74,-38.48 131.87,-40.7 145.06,-42.64"/>
<polygon fill="#63b8ff" stroke="#63b8ff" points="144.19,-46.04 154.59,-44.03 145.2,-39.12 144.19,-46.04"/>
</a>
</g>
</g>
<!-- Node3 -->
<g id="Node000003" class="node">
<title>Node3</title>
<g id="a_Node000003"><a xlink:href="class_o_c_a_1_1_c_a_f_e_v_d_b_1_1_email_form_1_1_recipients_filter.html#a37ce309e4090903297fa1c705634537d" target="_top" xlink:title="The default user base.">
<polygon fill="white" stroke="#666666" points="227,-20 138.25,-20 138.25,0 227,0 227,-20"/>
<text text-anchor="middle" x="182.62" y="-6.5" font-family="Helvetica,sans-Serif" font-size="10.00">defaultUserBase</text>
</a>
</g>
</g>
<!-- Node1&#45;&gt;Node3 -->
<g id="edge2_Node000001_Node000003" class="edge">
<title>Node1&#45;&gt;Node3</title>
<g id="a_edge2_Node000001_Node000003"><a xlink:title=" ">
<path fill="none" stroke="#63b8ff" d="M102.56,-21.6C110.48,-20.44 118.7,-19.23 126.71,-18.06"/>
<polygon fill="#63b8ff" stroke="#63b8ff" points="126.96,-21.56 136.35,-16.64 125.94,-14.63 126.96,-21.56"/>
</a>
</g>
</g>
<!-- Node4 -->
<g id="Node000004" class="node">
<title>Node4</title>
<g id="a_Node000004"><a xlink:href="class_o_c_a_1_1_c_a_f_e_v_d_b_1_1_email_form_1_1_recipients_filter.html#a180e59b5c87d178df0b6929526f2c38a" target="_top" xlink:title=" ">
<polygon fill="white" stroke="#666666" points="352.5,-20 263,-20 263,0 352.5,0 352.5,-20"/>
<text text-anchor="middle" x="307.75" y="-6.5" font-family="Helvetica,sans-Serif" font-size="10.00">frozenRecipients</text>
</a>
</g>
</g>
<!-- Node3&#45;&gt;Node4 -->
<g id="edge3_Node000003_Node000004" class="edge">
<title>Node3&#45;&gt;Node4</title>
<g id="a_edge3_Node000003_Node000004"><a xlink:title=" ">
<path fill="none" stroke="#63b8ff" d="M227.38,-10C235.18,-10 243.4,-10 251.47,-10"/>
<polygon fill="#63b8ff" stroke="#63b8ff" points="251.21,-13.5 261.21,-10 251.21,-6.5 251.21,-13.5"/>
</a>
</g>
</g>
</g>
</svg>
