<?xml version="1.0" encoding="UTF-8" standalone="no"?>
<!DOCTYPE svg PUBLIC "-//W3C//DTD SVG 1.1//EN"
 "http://www.w3.org/Graphics/SVG/1.1/DTD/svg11.dtd">
<!-- Generated by graphviz version 9.0.0 (20230911.1827)
 -->
<!-- Title: makeJoinTableField Pages: 1 -->
<svg width="555pt" height="182pt"
 viewBox="0.00 0.00 555.00 182.00" xmlns="http://www.w3.org/2000/svg" xmlns:xlink="http://www.w3.org/1999/xlink">
<g id="graph0" class="graph" transform="scale(1 1) rotate(0) translate(4 178)">
<title>makeJoinTableField</title>
<!-- Node1 -->
<g id="Node000001" class="node">
<title>Node1</title>
<g id="a_Node000001"><a xlink:title="Generate a join&#45;table field, given join&#45;table and field name.">
<polygon fill="#999999" stroke="#666666" points="102.25,-80 0,-80 0,-60 102.25,-60 102.25,-80"/>
<text text-anchor="middle" x="51.12" y="-66.5" font-family="Helvetica,sans-Serif" font-size="10.00">makeJoinTableField</text>
</a>
</g>
</g>
<!-- Node2 -->
<g id="Node000002" class="node">
<title>Node2</title>
<g id="a_Node000002"><a xlink:href="class_o_c_a_1_1_c_a_f_e_v_d_b_1_1_page_renderer_1_1_p_m_e_table_view_base.html#a8a9d6dd0754451d7214ed760a2179bd4" target="_top" xlink:title="Add a &quot;slug&quot; as tooltips&#45;index and css&#45;class.">
<polygon fill="white" stroke="#666666" points="229.62,-155 178.38,-155 178.38,-135 229.62,-135 229.62,-155"/>
<text text-anchor="middle" x="204" y="-141.5" font-family="Helvetica,sans-Serif" font-size="10.00">addSlug</text>
</a>
</g>
</g>
<!-- Node1&#45;&gt;Node2 -->
<g id="edge1_Node000001_Node000002" class="edge">
<title>Node1&#45;&gt;Node2</title>
<g id="a_edge1_Node000001_Node000002"><a xlink:title=" ">
<path fill="none" stroke="#63b8ff" d="M70.02,-80.39C87.27,-90.25 114.21,-105.28 138.25,-117 147.69,-121.6 158.07,-126.26 167.7,-130.43"/>
<polygon fill="#63b8ff" stroke="#63b8ff" points="166.2,-133.59 176.77,-134.29 168.94,-127.15 166.2,-133.59"/>
</a>
</g>
</g>
<!-- Node5 -->
<g id="Node000005" class="node">
<title>Node5</title>
<g id="a_Node000005"><a xlink:href="class_o_c_a_1_1_c_a_f_e_v_d_b_1_1_common_1_1_util.html#a3ad8a4109147715b8c5573d1dbdb2d3d" target="_top" xlink:title="Merge $arrays recursively where later arguments in the list override the values of previous arguments...">
<polygon fill="white" stroke="#666666" points="269.75,-108 138.25,-108 138.25,-76 269.75,-76 269.75,-108"/>
<text text-anchor="start" x="146.25" y="-94.5" font-family="Helvetica,sans-Serif" font-size="10.00">OCA\CAFEVDB\Common</text>
<text text-anchor="middle" x="204" y="-82.5" font-family="Helvetica,sans-Serif" font-size="10.00">\Util\arrayMergeRecursive</text>
</a>
</g>
</g>
<!-- Node1&#45;&gt;Node5 -->
<g id="edge5_Node000001_Node000005" class="edge">
<title>Node1&#45;&gt;Node5</title>
<g id="a_edge5_Node000001_Node000005"><a xlink:title=" ">
<path fill="none" stroke="#63b8ff" d="M102.36,-77.33C110.2,-78.47 118.45,-79.67 126.71,-80.88"/>
<polygon fill="#63b8ff" stroke="#63b8ff" points="126.05,-84.32 136.45,-82.3 127.06,-77.39 126.05,-84.32"/>
</a>
</g>
</g>
<!-- Node7 -->
<g id="Node000007" class="node">
<title>Node7</title>
<g id="a_Node000007"><a xlink:href="class_o_c_a_1_1_c_a_f_e_v_d_b_1_1_page_renderer_1_1_p_m_e_table_view_base.html#abe18704ee0189ac55323c93db488770c" target="_top" xlink:title="The name of the field&#45;descriptor for a join&#45;table field referencing a master&#45;join&#45;table.">
<polygon fill="white" stroke="#666666" points="254.75,-58 153.25,-58 153.25,-38 254.75,-38 254.75,-58"/>
<text text-anchor="middle" x="204" y="-44.5" font-family="Helvetica,sans-Serif" font-size="10.00">joinTableFieldName</text>
</a>
</g>
</g>
<!-- Node1&#45;&gt;Node7 -->
<g id="edge8_Node000001_Node000007" class="edge">
<title>Node1&#45;&gt;Node7</title>
<g id="a_edge8_Node000001_Node000007"><a xlink:title=" ">
<path fill="none" stroke="#63b8ff" d="M102.36,-62.67C114.96,-60.84 128.62,-58.85 141.69,-56.94"/>
<polygon fill="#63b8ff" stroke="#63b8ff" points="142.09,-60.42 151.48,-55.51 141.08,-53.49 142.09,-60.42"/>
</a>
</g>
</g>
<!-- Node8 -->
<g id="Node000008" class="node">
<title>Node8</title>
<g id="a_Node000008"><a xlink:href="class_o_c_a_1_1_c_a_f_e_v_d_b_1_1_page_renderer_1_1_p_m_e_table_view_base.html#a67e29f07640bea5f1c3132bb88270a2b" target="_top" xlink:title="The name of the master join table field which triggers PME to actually do the join.">
<polygon fill="white" stroke="#666666" points="269.75,-20 138.25,-20 138.25,0 269.75,0 269.75,-20"/>
<text text-anchor="middle" x="204" y="-6.5" font-family="Helvetica,sans-Serif" font-size="10.00">joinTableMasterFieldName</text>
</a>
</g>
</g>
<!-- Node1&#45;&gt;Node8 -->
<g id="edge9_Node000001_Node000008" class="edge">
<title>Node1&#45;&gt;Node8</title>
<g id="a_edge9_Node000001_Node000008"><a xlink:title=" ">
<path fill="none" stroke="#63b8ff" d="M71.58,-59.65C88.78,-50.75 114.74,-37.98 138.25,-29 142.93,-27.21 147.86,-25.49 152.81,-23.86"/>
<polygon fill="#63b8ff" stroke="#63b8ff" points="153.7,-27.25 162.19,-20.92 151.6,-20.58 153.7,-27.25"/>
</a>
</g>
</g>
<!-- Node3 -->
<g id="Node000003" class="node">
<title>Node3</title>
<g id="a_Node000003"><a xlink:href="class_o_c_a_1_1_c_a_f_e_v_d_b_1_1_page_renderer_1_1_p_m_e_table_view_base.html#aee57cb8d60602879f6a65e257cdcbf63" target="_top" xlink:title=" ">
<polygon fill="white" stroke="#666666" points="547,-174 489.75,-174 489.75,-154 547,-154 547,-174"/>
<text text-anchor="middle" x="518.38" y="-160.5" font-family="Helvetica,sans-Serif" font-size="10.00">cssClass</text>
</a>
</g>
</g>
<!-- Node2&#45;&gt;Node3 -->
<g id="edge2_Node000002_Node000003" class="edge">
<title>Node2&#45;&gt;Node3</title>
<g id="a_edge2_Node000002_Node000003"><a xlink:title=" ">
<path fill="none" stroke="#63b8ff" d="M230.07,-151.08C250.35,-155.66 279.7,-161.56 305.75,-164 365.77,-169.61 435.78,-168.03 478.33,-166.17"/>
<polygon fill="#63b8ff" stroke="#63b8ff" points="478.23,-169.68 488.05,-165.71 477.9,-162.69 478.23,-169.68"/>
</a>
</g>
</g>
<!-- Node4 -->
<g id="Node000004" class="node">
<title>Node4</title>
<g id="a_Node000004"><a xlink:href="class_o_c_a_1_1_c_a_f_e_v_d_b_1_1_page_renderer_1_1_p_m_e_table_view_base.html#a166d2dbd24c4913a9461c5813bbb4232" target="_top" xlink:title="Generate a &quot;unified&quot; tooltip&#45;slug in order to obtain tool&#45;tips from the ToolTipsService.">
<polygon fill="white" stroke="#666666" points="410.62,-155 348.88,-155 348.88,-135 410.62,-135 410.62,-155"/>
<text text-anchor="middle" x="379.75" y="-141.5" font-family="Helvetica,sans-Serif" font-size="10.00">tooltipSlug</text>
</a>
</g>
</g>
<!-- Node2&#45;&gt;Node4 -->
<g id="edge3_Node000002_Node000004" class="edge">
<title>Node2&#45;&gt;Node4</title>
<g id="a_edge3_Node000002_Node000004"><a xlink:title=" ">
<path fill="none" stroke="#63b8ff" d="M229.89,-145C257.93,-145 303.93,-145 337.39,-145"/>
<polygon fill="#63b8ff" stroke="#63b8ff" points="337.14,-148.5 347.14,-145 337.14,-141.5 337.14,-148.5"/>
</a>
</g>
</g>
<!-- Node4&#45;&gt;Node3 -->
<g id="edge4_Node000004_Node000003" class="edge">
<title>Node4&#45;&gt;Node3</title>
<g id="a_edge4_Node000004_Node000003"><a xlink:title=" ">
<path fill="none" stroke="#63b8ff" d="M411.07,-149.22C430.84,-151.97 456.83,-155.58 478.16,-158.55"/>
<polygon fill="#63b8ff" stroke="#63b8ff" points="477.58,-162 487.97,-159.91 478.54,-155.07 477.58,-162"/>
</a>
</g>
</g>
<!-- Node6 -->
<g id="Node000006" class="node">
<title>Node6</title>
<g id="a_Node000006"><a xlink:href="class_o_c_a_1_1_c_a_f_e_v_d_b_1_1_common_1_1_util.html#a9396752fa41df5ffcd301d52263367f9" target="_top" xlink:title="Inner work&#45;horse for arrayMergeRecursive.">
<polygon fill="white" stroke="#666666" points="453.75,-99 305.75,-99 305.75,-67 453.75,-67 453.75,-99"/>
<text text-anchor="start" x="313.75" y="-85.5" font-family="Helvetica,sans-Serif" font-size="10.00">OCA\CAFEVDB\Common</text>
<text text-anchor="middle" x="379.75" y="-73.5" font-family="Helvetica,sans-Serif" font-size="10.00">\Util\arrayMergeTwoRecursive</text>
</a>
</g>
</g>
<!-- Node5&#45;&gt;Node6 -->
<g id="edge6_Node000005_Node000006" class="edge">
<title>Node5&#45;&gt;Node6</title>
<g id="a_edge6_Node000005_Node000006"><a xlink:title=" ">
<path fill="none" stroke="#63b8ff" d="M270.19,-88.62C277.98,-88.22 286.02,-87.8 294.03,-87.39"/>
<polygon fill="#63b8ff" stroke="#63b8ff" points="294,-90.89 303.8,-86.88 293.63,-83.9 294,-90.89"/>
</a>
</g>
</g>
<!-- Node6&#45;&gt;Node6 -->
<g id="edge7_Node000006_Node000006" class="edge">
<title>Node6&#45;&gt;Node6</title>
<g id="a_edge7_Node000006_Node000006"><a xlink:title=" ">
<path fill="none" stroke="#63b8ff" d="M355,-99.44C350.38,-108.58 358.63,-117 379.75,-117 391.3,-117 399,-114.48 402.85,-110.71"/>
<polygon fill="#63b8ff" stroke="#63b8ff" points="406.3,-111.34 404.28,-100.94 399.37,-110.33 406.3,-111.34"/>
</a>
</g>
</g>
</g>
</svg>
