<?xml version="1.0" encoding="UTF-8" standalone="no"?>
<!DOCTYPE svg PUBLIC "-//W3C//DTD SVG 1.1//EN"
 "http://www.w3.org/Graphics/SVG/1.1/DTD/svg11.dtd">
<!-- Generated by graphviz version 9.0.0 (20230911.1827)
 -->
<!-- Title: /var/www/dev1/htdocs/nextcloud&#45;git&#45;28/apps/cafevdb/lib/Database/Doctrine/ORM Pages: 1 -->
<!--zoomable 96 -->

<svg id="main" version="1.1" xmlns="http://www.w3.org/2000/svg" xmlns:xlink="http://www.w3.org/1999/xlink" xml:space="preserve" onload="init(evt)">
<style type="text/css"><![CDATA[
.node, .edge {opacity: 0.7;}
.node.selected, .edge.selected {opacity: 1;}
.edge:hover path { stroke: red; }
.edge:hover polygon { stroke: red; fill: red; }
]]></style>

<defs>
  <circle id="rim" cx="0" cy="0" r="7"/>
  <circle id="rim2" cx="0" cy="0" r="3.5"/>
  <g id="zoomPlus">
    <use xlink:href="#rim" fill="#404040"><set attributeName="fill" to="#808080" begin="zoomplus.mouseover" end="zoomplus.mouseout"/></use>
    <path d="M-4,0h8M0,-4v8" fill="none" stroke="white" stroke-width="1.5" pointer-events="none"/>
  </g>
  <g id="zoomMin">
    <use xlink:href="#rim" fill="#404040"><set attributeName="fill" to="#808080" begin="zoomminus.mouseover" end="zoomminus.mouseout"/></use>
    <path d="M-4,0h8" fill="none" stroke="white" stroke-width="1.5" pointer-events="none"/>
  </g>
  <g id="arrowUp" transform="translate(30 24)">
    <use xlink:href="#rim"/>
    <path pointer-events="none" fill="none" stroke="white" stroke-width="1.5" d="M0,-3.0v7 M-2.5,-0.5L0,-3.0L2.5,-0.5"/>
  </g>
  <g id="arrowRight" transform="rotate(90) translate(36 -43)">
    <use xlink:href="#rim"/>
    <path pointer-events="none" fill="none" stroke="white" stroke-width="1.5" d="M0,-3.0v7 M-2.5,-0.5L0,-3.0L2.5,-0.5"/>
  </g>
  <g id="arrowDown" transform="rotate(180) translate(-30 -48)">
    <use xlink:href="#rim"/>
    <path pointer-events="none" fill="none" stroke="white" stroke-width="1.5" d="M0,-3.0v7 M-2.5,-0.5L0,-3.0L2.5,-0.5"/>
  </g>
  <g id="arrowLeft" transform="rotate(270) translate(-36 17)">
    <use xlink:href="#rim"/>
    <path pointer-events="none" fill="none" stroke="white" stroke-width="1.5" d="M0,-3.0v7 M-2.5,-0.5L0,-3.0L2.5,-0.5"/>
  </g>
  <g id="resetDef">
    <use xlink:href="#rim2" fill="#404040"><set attributeName="fill" to="#808080" begin="reset.mouseover" end="reset.mouseout"/></use>
  </g>
</defs>
<script type="application/ecmascript">
var viewWidth = 675;
var viewHeight = 96;
var sectionId = 'dynsection-0';
</script>
<script type="application/ecmascript" xlink:href="svg.min.js"/>
<svg id="graph" class="graph">
<g id="viewport">
<title>/var/www/dev1/htdocs/nextcloud&#45;git&#45;28/apps/cafevdb/lib/Database/Doctrine/ORM</title>
<g id="clust1" class="cluster">
<title>clusterdir_296430bfc6cb2b71e6f6026478468298</title>
<g id="a_clust1"><a xlink:href="dir_296430bfc6cb2b71e6f6026478468298.html" target="_top" xlink:title="Doctrine">
<polygon fill="#edf0f7" stroke="#7f7f7f" stroke-dasharray="5,2" points="8,-8 8,-80 659,-80 659,-8 8,-8"/>
<text text-anchor="middle" x="333.5" y="-66.5" font-family="Helvetica,sans-Serif" font-size="10.00">Doctrine</text>
</a>
</g>
</g>
<g id="clust2" class="cluster">
<title>clusterdir_7fa48e8a86d72597a0b256f9c558d191</title>
<g id="a_clust2"><a xlink:href="dir_7fa48e8a86d72597a0b256f9c558d191.html" target="_top">
<polygon fill="#edf0f7" stroke="#404040" stroke-width="2" points="16,-16 16,-52 651,-52 651,-16 16,-16"/>
</a>
</g>
</g>
<!-- dir_7fa48e8a86d72597a0b256f9c558d191 -->
<g id="node1" class="node">
<title>dir_7fa48e8a86d72597a0b256f9c558d191</title>
<text text-anchor="middle" x="623" y="-30.5" font-family="Helvetica,sans-Serif" font-size="10.00">ORM</text>
</g>
<!-- dir_bdb67f317cde52bd786341338dd4486f -->
<g id="node2" class="node">
<title>dir_bdb67f317cde52bd786341338dd4486f</title>
<g id="a_node2"><a xlink:href="dir_bdb67f317cde52bd786341338dd4486f.html" target="_top" xlink:title="Entities">
<polygon fill="#a2b4d6" stroke="#404040" points="585.5,-44 536.5,-44 536.5,-24 585.5,-24 585.5,-44"/>
<text text-anchor="middle" x="561" y="-30.5" font-family="Helvetica,sans-Serif" font-size="10.00">Entities</text>
</a>
</g>
</g>
<!-- dir_fd00e1a50daddb355aee839d96d7fd77 -->
<g id="node3" class="node">
<title>dir_fd00e1a50daddb355aee839d96d7fd77</title>
<g id="a_node3"><a xlink:href="dir_fd00e1a50daddb355aee839d96d7fd77.html" target="_top" xlink:title="Functions">
<polygon fill="#a2b4d6" stroke="#404040" points="518.38,-44 459.62,-44 459.62,-24 518.38,-24 518.38,-44"/>
<text text-anchor="middle" x="489" y="-30.5" font-family="Helvetica,sans-Serif" font-size="10.00">Functions</text>
</a>
</g>
</g>
<!-- dir_99dd7805f7c38e06c122c4dc3d31650d -->
<g id="node4" class="node">
<title>dir_99dd7805f7c38e06c122c4dc3d31650d</title>
<g id="a_node4"><a xlink:href="dir_99dd7805f7c38e06c122c4dc3d31650d.html" target="_top" xlink:title="Hydrators">
<polygon fill="#a2b4d6" stroke="#404040" points="441.38,-44 382.62,-44 382.62,-24 441.38,-24 441.38,-44"/>
<text text-anchor="middle" x="412" y="-30.5" font-family="Helvetica,sans-Serif" font-size="10.00">Hydrators</text>
</a>
</g>
</g>
<!-- dir_cd888c2963a327572ddd549d79c95cef -->
<g id="node5" class="node">
<title>dir_cd888c2963a327572ddd549d79c95cef</title>
<g id="a_node5"><a xlink:href="dir_cd888c2963a327572ddd549d79c95cef.html" target="_top" xlink:title="Listeners">
<polygon fill="#a2b4d6" stroke="#404040" points="364.88,-44 309.12,-44 309.12,-24 364.88,-24 364.88,-44"/>
<text text-anchor="middle" x="337" y="-30.5" font-family="Helvetica,sans-Serif" font-size="10.00">Listeners</text>
</a>
</g>
</g>
<!-- dir_9a31e8755dc80391facf01be30b9d04b -->
<g id="node6" class="node">
<title>dir_9a31e8755dc80391facf01be30b9d04b</title>
<g id="a_node6"><a xlink:href="dir_9a31e8755dc80391facf01be30b9d04b.html" target="_top" xlink:title="Mapping">
<polygon fill="#a2b4d6" stroke="#404040" points="291.38,-44 238.62,-44 238.62,-24 291.38,-24 291.38,-44"/>
<text text-anchor="middle" x="265" y="-30.5" font-family="Helvetica,sans-Serif" font-size="10.00">Mapping</text>
</a>
</g>
</g>
<!-- dir_28240e3985eba6bf92b0a70db73bd22c -->
<g id="node7" class="node">
<title>dir_28240e3985eba6bf92b0a70db73bd22c</title>
<g id="a_node7"><a xlink:href="dir_28240e3985eba6bf92b0a70db73bd22c.html" target="_top" xlink:title="Proxies">
<polygon fill="#a2b4d6" stroke="#404040" points="220.5,-44 171.5,-44 171.5,-24 220.5,-24 220.5,-44"/>
<text text-anchor="middle" x="196" y="-30.5" font-family="Helvetica,sans-Serif" font-size="10.00">Proxies</text>
</a>
</g>
</g>
<!-- dir_7c5484f53e1e862865fb716789176b6f -->
<g id="node8" class="node">
<title>dir_7c5484f53e1e862865fb716789176b6f</title>
<g id="a_node8"><a xlink:href="dir_7c5484f53e1e862865fb716789176b6f.html" target="_top" xlink:title="Repositories">
<polygon fill="#a2b4d6" stroke="#404040" points="153.38,-44 82.62,-44 82.62,-24 153.38,-24 153.38,-44"/>
<text text-anchor="middle" x="118" y="-30.5" font-family="Helvetica,sans-Serif" font-size="10.00">Repositories</text>
</a>
</g>
</g>
<!-- dir_e75b0226dd36d379087cfd5fc2d20161 -->
<g id="node9" class="node">
<title>dir_e75b0226dd36d379087cfd5fc2d20161</title>
<g id="a_node9"><a xlink:href="dir_e75b0226dd36d379087cfd5fc2d20161.html" target="_top" xlink:title="Traits">
<polygon fill="#a2b4d6" stroke="#404040" points="64.38,-44 23.62,-44 23.62,-24 64.38,-24 64.38,-44"/>
<text text-anchor="middle" x="44" y="-30.5" font-family="Helvetica,sans-Serif" font-size="10.00">Traits</text>
</a>
</g>
</g>
</g>
</svg>

<g id="navigator" transform="translate(0 0)" fill="#404254">
  <rect fill="#f2f5e9" fill-opacity="0.5" stroke="#606060" stroke-width=".5" x="0" y="0" width="60" height="60"/>
  <use id="zoomplus" xlink:href="#zoomPlus" x="17" y="9" onmousedown="handleZoom(evt,'in')"/>
  <use id="zoomminus" xlink:href="#zoomMin" x="42" y="9" onmousedown="handleZoom(evt,'out')"/>
  <use id="reset" xlink:href="#resetDef" x="30" y="36" onmousedown="handleReset()"/>
   <use id="arrowup" xlink:href="#arrowUp" x="0" y="0" onmousedown="handlePan(0,-1)"/>
  <use id="arrowright" xlink:href="#arrowRight" x="0" y="0" onmousedown="handlePan(1,0)"/>
  <use id="arrowdown" xlink:href="#arrowDown" x="0" y="0" onmousedown="handlePan(0,1)"/>
  <use id="arrowleft" xlink:href="#arrowLeft" x="0" y="0" onmousedown="handlePan(-1,0)"/>
</g>
<svg viewBox="0 0 15 15" width="100%" height="30px" preserveAspectRatio="xMaxYMin meet">
 <g id="arrow_out" transform="scale(0.3 0.3)">
  <a xlink:href="dir_7fa48e8a86d72597a0b256f9c558d191_dep_org.svg" target="_base">
   <rect id="button" ry="5" rx="5" y="6" x="6" height="38" width="38"
        fill="#f2f5e9" fill-opacity="0.5" stroke="#606060" stroke-width="1.0"/>
   <path id="arrow"
     d="M 11.500037,31.436501 C 11.940474,20.09759 22.043105,11.32322 32.158766,21.979434 L 37.068811,17.246167 C 37.068811,17.246167 37.088388,32 37.088388,32 L 22.160133,31.978069 C 22.160133,31.978069 26.997745,27.140456 26.997745,27.140456 C 18.528582,18.264221 13.291696,25.230495 11.500037,31.436501 z"
     style="fill:#404040;"/>
  </a>
 </g>
</svg>

<style type='text/css'>
<![CDATA[
[data-mouse-over-selected='false'] { opacity: 0.7; }
[data-mouse-over-selected='true']  { opacity: 1.0; }
]]>
</style>
<script type="application/ecmascript"><![CDATA[
document.addEventListener('DOMContentLoaded', (event) => {
  highlightEdges();
  highlightAdjacentNodes();
});
]]></script>
</svg>
