<?xml version="1.0" encoding="UTF-8" standalone="no"?>
<!DOCTYPE svg PUBLIC "-//W3C//DTD SVG 1.1//EN"
 "http://www.w3.org/Graphics/SVG/1.1/DTD/svg11.dtd">
<!-- Generated by graphviz version 7.1.0 (20230121.1956)
 -->
<!-- Title: Graphical Class Hierarchy Pages: 1 -->
<svg width="327pt" height="101pt"
 viewBox="0.00 0.00 327.00 101.00" xmlns="http://www.w3.org/2000/svg" xmlns:xlink="http://www.w3.org/1999/xlink">
<g id="graph0" class="graph" transform="scale(1 1) rotate(0) translate(4 97)">
<title>Graphical Class Hierarchy</title>
<!-- Node0 -->
<g id="node1" class="node">
<title>Node0</title>
<g id="a_node1"><a xlink:title=" ">
<polygon fill="#e0e0e0" stroke="#999999" points="107,-56 0,-56 0,-37 107,-37 107,-56"/>
<text text-anchor="middle" x="53.5" y="-44" font-family="Helvetica,sans-Serif" font-size="10.00">SimpleMigrationStep</text>
</a>
</g>
</g>
<!-- Node1 -->
<g id="node2" class="node">
<title>Node1</title>
<g id="a_node2"><a xlink:href="class_o_c_a_1_1_c_a_f_e_v_d_b_1_1_migration_1_1_version060000_date20201001210735.html" target="_top" xlink:title="Auto&#45;generated migration step: Please modify to your needs!">
<polygon fill="white" stroke="#666666" points="319,-93 143,-93 143,-74 319,-74 319,-93"/>
<text text-anchor="middle" x="231" y="-81" font-family="Helvetica,sans-Serif" font-size="10.00">Version060000Date20201001210735</text>
</a>
</g>
</g>
<!-- Node0&#45;&gt;Node1 -->
<g id="edge1" class="edge">
<title>Node0&#45;&gt;Node1</title>
<path fill="none" stroke="#63b8ff" d="M111.57,-58.82C122.02,-61.06 132.84,-63.36 143,-65.5 155.53,-68.14 169.08,-70.96 181.67,-73.57"/>
<polygon fill="#63b8ff" stroke="#63b8ff" points="112.41,-55.42 101.9,-56.74 110.94,-62.26 112.41,-55.42"/>
</g>
<!-- Node2 -->
<g id="node3" class="node">
<title>Node2</title>
<g id="a_node3"><a xlink:href="class_o_c_a_1_1_c_a_f_e_v_d_b_1_1_migration_1_1_version060000_date20201022230000.html" target="_top" xlink:title="Add in_reply_to column to blog entries.">
<polygon fill="white" stroke="#666666" points="319,-56 143,-56 143,-37 319,-37 319,-56"/>
<text text-anchor="middle" x="231" y="-44" font-family="Helvetica,sans-Serif" font-size="10.00">Version060000Date20201022230000</text>
</a>
</g>
</g>
<!-- Node0&#45;&gt;Node2 -->
<g id="edge2" class="edge">
<title>Node0&#45;&gt;Node2</title>
<path fill="none" stroke="#63b8ff" d="M118.45,-46.5C126.32,-46.5 134.46,-46.5 142.6,-46.5"/>
<polygon fill="#63b8ff" stroke="#63b8ff" points="118.67,-43 108.67,-46.5 118.67,-50 118.67,-43"/>
</g>
<!-- Node3 -->
<g id="node4" class="node">
<title>Node3</title>
<g id="a_node4"><a xlink:href="class_o_c_a_1_1_c_a_f_e_v_d_b_1_1_migration_1_1_version070000_date20211120104235.html" target="_top" xlink:title="Auto&#45;generated migration step: Please modify to your needs!">
<polygon fill="white" stroke="#666666" points="318.5,-19 143.5,-19 143.5,0 318.5,0 318.5,-19"/>
<text text-anchor="middle" x="231" y="-7" font-family="Helvetica,sans-Serif" font-size="10.00">Version070000Date20211120104235</text>
</a>
</g>
</g>
<!-- Node0&#45;&gt;Node3 -->
<g id="edge3" class="edge">
<title>Node0&#45;&gt;Node3</title>
<path fill="none" stroke="#63b8ff" d="M112.77,-34.21C135.53,-29.42 161.28,-23.99 182.84,-19.44"/>
<polygon fill="#63b8ff" stroke="#63b8ff" points="112.07,-30.78 103.01,-36.27 113.52,-37.63 112.07,-30.78"/>
</g>
</g>
</svg>
