<?xml version="1.0" encoding="UTF-8" standalone="no"?>
<!DOCTYPE svg PUBLIC "-//W3C//DTD SVG 1.1//EN"
 "http://www.w3.org/Graphics/SVG/1.1/DTD/svg11.dtd">
<!-- Generated by graphviz version 9.0.0 (20230911.1827)
 -->
<!-- Title: Graphical Class Hierarchy Pages: 1 -->
<svg width="265pt" height="66pt"
 viewBox="0.00 0.00 265.00 66.00" xmlns="http://www.w3.org/2000/svg" xmlns:xlink="http://www.w3.org/1999/xlink">
<g id="graph0" class="graph" transform="scale(1 1) rotate(0) translate(4 62)">
<title>Graphical Class Hierarchy</title>
<!-- Node0 -->
<g id="Node000000" class="node">
<title>Node0</title>
<g id="a_Node000000"><a xlink:title=" ">
<polygon fill="#e0e0e0" stroke="#999999" points="121.75,-39 0,-39 0,-19 121.75,-19 121.75,-39"/>
<text text-anchor="middle" x="60.88" y="-25.5" font-family="Helvetica,sans-Serif" font-size="10.00">HardDeleteableInterface</text>
</a>
</g>
</g>
<!-- Node1 -->
<g id="Node000001" class="node">
<title>Node1</title>
<g id="a_Node000001"><a xlink:href="class_o_c_a_1_1_c_a_f_e_v_d_b_1_1_database_1_1_doctrine_1_1_o_r_m_1_1_listeners_1_1_soft_deleteable_1_1_hard_delete_unused.html" target="_top" xlink:title="Allow hard&#45;deletion of unused objects.">
<polygon fill="white" stroke="#666666" points="257,-58 157.75,-58 157.75,-38 257,-38 257,-58"/>
<text text-anchor="middle" x="207.38" y="-44.5" font-family="Helvetica,sans-Serif" font-size="10.00">HardDeleteUnused</text>
</a>
</g>
</g>
<!-- Node0&#45;&gt;Node1 -->
<g id="edge290_Node000000_Node000001" class="edge">
<title>Node0&#45;&gt;Node1</title>
<g id="a_edge290_Node000000_Node000001"><a xlink:title=" ">
<path fill="none" stroke="#63b8ff" d="M133.04,-38.36C141.25,-39.44 149.48,-40.52 157.3,-41.55"/>
<polygon fill="#63b8ff" stroke="#63b8ff" points="133.77,-34.92 123.4,-37.09 132.86,-41.86 133.77,-34.92"/>
</a>
</g>
</g>
<!-- Node2 -->
<g id="Node000002" class="node">
<title>Node2</title>
<g id="a_Node000002"><a xlink:href="class_o_c_a_1_1_c_a_f_e_v_d_b_1_1_database_1_1_doctrine_1_1_o_r_m_1_1_listeners_1_1_soft_deleteable_1_1_never_hard_delete.html" target="_top" xlink:title="Inhibit hard deletion.">
<polygon fill="white" stroke="#666666" points="253.25,-20 161.5,-20 161.5,0 253.25,0 253.25,-20"/>
<text text-anchor="middle" x="207.38" y="-6.5" font-family="Helvetica,sans-Serif" font-size="10.00">NeverHardDelete</text>
</a>
</g>
</g>
<!-- Node0&#45;&gt;Node2 -->
<g id="edge291_Node000000_Node000002" class="edge">
<title>Node0&#45;&gt;Node2</title>
<g id="a_edge291_Node000000_Node000002"><a xlink:title=" ">
<path fill="none" stroke="#63b8ff" d="M133.12,-19.63C142.71,-18.37 152.33,-17.11 161.3,-15.93"/>
<polygon fill="#63b8ff" stroke="#63b8ff" points="132.86,-16.14 123.4,-20.91 133.77,-23.08 132.86,-16.14"/>
</a>
</g>
</g>
</g>
</svg>
