<?xml version="1.0" encoding="UTF-8" standalone="no"?>
<!DOCTYPE svg PUBLIC "-//W3C//DTD SVG 1.1//EN"
 "http://www.w3.org/Graphics/SVG/1.1/DTD/svg11.dtd">
<!-- Generated by graphviz version 9.0.0 (20230911.1827)
 -->
<!-- Title: Graphical Class Hierarchy Pages: 1 -->
<svg width="547pt" height="166pt"
 viewBox="0.00 0.00 546.50 166.00" xmlns="http://www.w3.org/2000/svg" xmlns:xlink="http://www.w3.org/1999/xlink">
<g id="graph0" class="graph" transform="scale(1 1) rotate(0) translate(4 162)">
<title>Graphical Class Hierarchy</title>
<!-- Node0 -->
<g id="Node000000" class="node">
<title>Node0</title>
<g id="a_Node000000"><a xlink:href="interface_o_c_a_1_1_c_a_f_e_v_d_b_1_1_service_1_1_finance_1_1_i_recurring_receivables_generator.html" target="_top" xlink:title="Generate recurring receivables and manifest them as recurring Entities\ProjectParticipantField entity...">
<polygon fill="white" stroke="#666666" points="157.75,-89 0,-89 0,-69 157.75,-69 157.75,-89"/>
<text text-anchor="middle" x="78.88" y="-75.5" font-family="Helvetica,sans-Serif" font-size="10.00">IRecurringReceivablesGenerator</text>
</a>
</g>
</g>
<!-- Node1 -->
<g id="Node000001" class="node">
<title>Node1</title>
<g id="a_Node000001"><a xlink:href="class_o_c_a_1_1_c_a_f_e_v_d_b_1_1_service_1_1_finance_1_1_abstract_receivables_generator.html" target="_top" xlink:title="Base class for the specific receivable generators.">
<polygon fill="white" stroke="#666666" points="343.25,-89 193.75,-89 193.75,-69 343.25,-69 343.25,-89"/>
<text text-anchor="middle" x="268.5" y="-75.5" font-family="Helvetica,sans-Serif" font-size="10.00">AbstractReceivablesGenerator</text>
</a>
</g>
</g>
<!-- Node0&#45;&gt;Node1 -->
<g id="edge372_Node000000_Node000001" class="edge">
<title>Node0&#45;&gt;Node1</title>
<g id="a_edge372_Node000000_Node000001"><a xlink:title=" ">
<path fill="none" stroke="#63b8ff" d="M169.37,-79C177.39,-79 185.45,-79 193.32,-79"/>
<polygon fill="#63b8ff" stroke="#63b8ff" points="169.6,-75.5 159.6,-79 169.6,-82.5 169.6,-75.5"/>
</a>
</g>
</g>
<!-- Node2 -->
<g id="Node000002" class="node">
<title>Node2</title>
<g id="a_Node000002"><a xlink:href="class_o_c_a_1_1_c_a_f_e_v_d_b_1_1_service_1_1_finance_1_1_do_nothing_receivables_generator.html" target="_top" xlink:title="Do nothing implementation to have something implementing the interface.">
<polygon fill="white" stroke="#666666" points="538.5,-158 379.25,-158 379.25,-138 538.5,-138 538.5,-158"/>
<text text-anchor="middle" x="458.88" y="-144.5" font-family="Helvetica,sans-Serif" font-size="10.00">DoNothingReceivablesGenerator</text>
</a>
</g>
</g>
<!-- Node1&#45;&gt;Node2 -->
<g id="edge373_Node000001_Node000002" class="edge">
<title>Node1&#45;&gt;Node2</title>
<g id="a_edge373_Node000001_Node000002"><a xlink:title=" ">
<path fill="none" stroke="#63b8ff" d="M299.47,-94.54C321.19,-105.32 351.48,-119.42 379.25,-129 388.54,-132.21 398.63,-135.08 408.39,-137.56"/>
<polygon fill="#63b8ff" stroke="#63b8ff" points="301.12,-91.44 290.61,-90.07 297.97,-97.7 301.12,-91.44"/>
</a>
</g>
</g>
<!-- Node3 -->
<g id="Node000003" class="node">
<title>Node3</title>
<g id="a_Node000003"><a xlink:href="class_o_c_a_1_1_c_a_f_e_v_d_b_1_1_service_1_1_finance_1_1_instrument_insurance_receivables_generator.html" target="_top" xlink:title="Do nothing implementation to have something implementing the interface.">
<polygon fill="white" stroke="#666666" points="538.5,-120 379.25,-120 379.25,-88 538.5,-88 538.5,-120"/>
<text text-anchor="start" x="387.25" y="-106.5" font-family="Helvetica,sans-Serif" font-size="10.00">InstrumentInsuranceReceivables</text>
<text text-anchor="middle" x="458.88" y="-94.5" font-family="Helvetica,sans-Serif" font-size="10.00">Generator</text>
</a>
</g>
</g>
<!-- Node1&#45;&gt;Node3 -->
<g id="edge374_Node000001_Node000003" class="edge">
<title>Node1&#45;&gt;Node3</title>
<g id="a_edge374_Node000001_Node000003"><a xlink:title=" ">
<path fill="none" stroke="#63b8ff" d="M354.87,-90.33C362.84,-91.39 370.89,-92.46 378.8,-93.51"/>
<polygon fill="#63b8ff" stroke="#63b8ff" points="355.55,-86.89 345.18,-89.04 354.63,-93.83 355.55,-86.89"/>
</a>
</g>
</g>
<!-- Node4 -->
<g id="Node000004" class="node">
<title>Node4</title>
<g id="a_Node000004"><a xlink:href="class_o_c_a_1_1_c_a_f_e_v_d_b_1_1_service_1_1_finance_1_1_manually_generated_receivables_generator.html" target="_top" xlink:title="Do nothing implementation to have something implementing the interface.">
<polygon fill="white" stroke="#666666" points="535.88,-70 381.88,-70 381.88,-38 535.88,-38 535.88,-70"/>
<text text-anchor="start" x="389.88" y="-56.5" font-family="Helvetica,sans-Serif" font-size="10.00">ManuallyGeneratedReceivables</text>
<text text-anchor="middle" x="458.88" y="-44.5" font-family="Helvetica,sans-Serif" font-size="10.00">Generator</text>
</a>
</g>
</g>
<!-- Node1&#45;&gt;Node4 -->
<g id="edge375_Node000001_Node000004" class="edge">
<title>Node1&#45;&gt;Node4</title>
<g id="a_edge375_Node000001_Node000004"><a xlink:title=" ">
<path fill="none" stroke="#63b8ff" d="M354.88,-67.67C363.79,-66.49 372.8,-65.29 381.6,-64.12"/>
<polygon fill="#63b8ff" stroke="#63b8ff" points="354.63,-64.17 345.18,-68.96 355.55,-71.11 354.63,-64.17"/>
</a>
</g>
</g>
<!-- Node5 -->
<g id="Node000005" class="node">
<title>Node5</title>
<g id="a_Node000005"><a xlink:href="class_o_c_a_1_1_c_a_f_e_v_d_b_1_1_service_1_1_finance_1_1_periodic_receivables_generator.html" target="_top" xlink:title="Always generate a new payment request.">
<polygon fill="white" stroke="#666666" points="532.88,-20 384.88,-20 384.88,0 532.88,0 532.88,-20"/>
<text text-anchor="middle" x="458.88" y="-6.5" font-family="Helvetica,sans-Serif" font-size="10.00">PeriodicReceivablesGenerator</text>
</a>
</g>
</g>
<!-- Node1&#45;&gt;Node5 -->
<g id="edge376_Node000001_Node000005" class="edge">
<title>Node1&#45;&gt;Node5</title>
<g id="a_edge376_Node000001_Node000005"><a xlink:title=" ">
<path fill="none" stroke="#63b8ff" d="M299.47,-63.46C321.19,-52.68 351.48,-38.58 379.25,-29 388.54,-25.79 398.63,-22.92 408.39,-20.44"/>
<polygon fill="#63b8ff" stroke="#63b8ff" points="297.97,-60.3 290.61,-67.93 301.12,-66.56 297.97,-60.3"/>
</a>
</g>
</g>
</g>
</svg>
