<?xml version="1.0" encoding="UTF-8" standalone="no"?>
<!DOCTYPE svg PUBLIC "-//W3C//DTD SVG 1.1//EN"
 "http://www.w3.org/Graphics/SVG/1.1/DTD/svg11.dtd">
<!-- Generated by graphviz version 7.1.0 (20230121.1956)
 -->
<!-- Title: Graphical Class Hierarchy Pages: 1 -->
<svg width="171pt" height="64pt"
 viewBox="0.00 0.00 171.00 64.00" xmlns="http://www.w3.org/2000/svg" xmlns:xlink="http://www.w3.org/1999/xlink">
<g id="graph0" class="graph" transform="scale(1 1) rotate(0) translate(4 60)">
<title>Graphical Class Hierarchy</title>
<!-- Node0 -->
<g id="node1" class="node">
<title>Node0</title>
<g id="a_node1"><a xlink:title=" ">
<polygon fill="#e0e0e0" stroke="#999999" points="48,-56 14,-56 14,-37 48,-37 48,-56"/>
<text text-anchor="middle" x="31" y="-44" font-family="Helvetica,sans-Serif" font-size="10.00">App</text>
</a>
</g>
</g>
<!-- Node1 -->
<g id="node2" class="node">
<title>Node1</title>
<g id="a_node2"><a xlink:href="class_o_c_a_1_1_c_a_f_e_v_d_b_1_1_app_info_1_1_application.html" target="_top" xlink:title="{}">
<polygon fill="white" stroke="#666666" points="163,-37 98,-37 98,-18 163,-18 163,-37"/>
<text text-anchor="middle" x="130.5" y="-25" font-family="Helvetica,sans-Serif" font-size="10.00">Application</text>
</a>
</g>
</g>
<!-- Node0&#45;&gt;Node1 -->
<g id="edge1" class="edge">
<title>Node0&#45;&gt;Node1</title>
<path fill="none" stroke="#63b8ff" d="M59.16,-41.21C71.09,-38.88 85.17,-36.14 97.59,-33.72"/>
<polygon fill="#63b8ff" stroke="#63b8ff" points="58.73,-37.72 49.59,-43.07 60.07,-44.6 58.73,-37.72"/>
</g>
<!-- Node2 -->
<g id="node3" class="node">
<title>Node2</title>
<g id="a_node3"><a xlink:title=" ">
<polygon fill="#e0e0e0" stroke="#999999" points="62,-19 0,-19 0,0 62,0 62,-19"/>
<text text-anchor="middle" x="31" y="-7" font-family="Helvetica,sans-Serif" font-size="10.00">IBootstrap</text>
</a>
</g>
</g>
<!-- Node2&#45;&gt;Node1 -->
<g id="edge2" class="edge">
<title>Node2&#45;&gt;Node1</title>
<path fill="none" stroke="#63b8ff" d="M73.43,-17.15C81.49,-18.64 89.82,-20.17 97.52,-21.6"/>
<polygon fill="#63b8ff" stroke="#63b8ff" points="74.27,-13.75 63.8,-15.37 73,-20.63 74.27,-13.75"/>
</g>
</g>
</svg>
