<?xml version="1.0" encoding="UTF-8" standalone="no"?>
<!DOCTYPE svg PUBLIC "-//W3C//DTD SVG 1.1//EN"
 "http://www.w3.org/Graphics/SVG/1.1/DTD/svg11.dtd">
<!-- Generated by graphviz version 8.0.3 (20230416.2022)
 -->
<!-- Title: Graphical Class Hierarchy Pages: 1 -->
<svg width="530pt" height="175pt"
 viewBox="0.00 0.00 530.00 175.00" xmlns="http://www.w3.org/2000/svg" xmlns:xlink="http://www.w3.org/1999/xlink">
<g id="graph0" class="graph" transform="scale(1 1) rotate(0) translate(4 171)">
<title>Graphical Class Hierarchy</title>
<!-- Node0 -->
<g id="node1" class="node">
<title>Node0</title>
<g id="a_node1"><a xlink:title=" ">
<polygon fill="#e0e0e0" stroke="#999999" points="60,-74 0,-74 0,-55 60,-55 60,-74"/>
<text text-anchor="middle" x="30" y="-62" font-family="Helvetica,sans-Serif" font-size="10.00">Exception</text>
</a>
</g>
</g>
<!-- Node1 -->
<g id="node2" class="node">
<title>Node1</title>
<g id="a_node2"><a xlink:href="class_o_c_a_1_1_c_a_f_e_v_d_b_1_1_toolkit_1_1_exceptions_1_1_exception.html" target="_top" xlink:title="Exception class abstaction.">
<polygon fill="white" stroke="#666666" points="156,-74 96,-74 96,-55 156,-55 156,-74"/>
<text text-anchor="middle" x="126" y="-62" font-family="Helvetica,sans-Serif" font-size="10.00">Exception</text>
</a>
</g>
</g>
<!-- Node0&#45;&gt;Node1 -->
<g id="edge1" class="edge">
<title>Node0&#45;&gt;Node1</title>
<path fill="none" stroke="#63b8ff" d="M71.34,-64.5C79.5,-64.5 87.93,-64.5 95.62,-64.5"/>
<polygon fill="#63b8ff" stroke="#63b8ff" points="71.48,-61 61.48,-64.5 71.48,-68 71.48,-61"/>
</g>
<!-- Node2 -->
<g id="node3" class="node">
<title>Node2</title>
<g id="a_node3"><a xlink:href="class_o_c_a_1_1_c_a_f_e_v_d_b_1_1_toolkit_1_1_exceptions_1_1_archive_exception.html" target="_top" xlink:title="Transparent archive extraction exception.">
<polygon fill="white" stroke="#666666" points="311.5,-130 218.5,-130 218.5,-111 311.5,-111 311.5,-130"/>
<text text-anchor="middle" x="265" y="-118" font-family="Helvetica,sans-Serif" font-size="10.00">ArchiveException</text>
</a>
</g>
</g>
<!-- Node1&#45;&gt;Node2 -->
<g id="edge2" class="edge">
<title>Node1&#45;&gt;Node2</title>
<path fill="none" stroke="#63b8ff" d="M149.79,-79.98C161.9,-87.64 177.29,-96.51 192,-102.5 200.23,-105.86 209.26,-108.71 218.05,-111.09"/>
<polygon fill="#63b8ff" stroke="#63b8ff" points="152.15,-76.69 141.86,-74.17 148.33,-82.56 152.15,-76.69"/>
</g>
<!-- Node6 -->
<g id="node7" class="node">
<title>Node6</title>
<g id="a_node7"><a xlink:href="class_o_c_a_1_1_c_a_f_e_v_d_b_1_1_toolkit_1_1_exceptions_1_1_authorization_exception.html" target="_top" xlink:title="Thrown to signal that somethings needs additional authorization.">
<polygon fill="white" stroke="#666666" points="323.5,-93 206.5,-93 206.5,-74 323.5,-74 323.5,-93"/>
<text text-anchor="middle" x="265" y="-81" font-family="Helvetica,sans-Serif" font-size="10.00">AuthorizationException</text>
</a>
</g>
</g>
<!-- Node1&#45;&gt;Node6 -->
<g id="edge6" class="edge">
<title>Node1&#45;&gt;Node6</title>
<path fill="none" stroke="#63b8ff" d="M167.14,-70.07C179.36,-71.76 193.04,-73.66 206.18,-75.48"/>
<polygon fill="#63b8ff" stroke="#63b8ff" points="167.78,-66.48 157.39,-68.58 166.81,-73.42 167.78,-66.48"/>
</g>
<!-- Node7 -->
<g id="node8" class="node">
<title>Node7</title>
<g id="a_node8"><a xlink:href="class_o_c_a_1_1_c_a_f_e_v_d_b_1_1_toolkit_1_1_exceptions_1_1_enduser_notification_exception.html" target="_top" xlink:title="This exception should provide an error message which informs an end&#45;user about an error.">
<polygon fill="white" stroke="#666666" points="338,-56 192,-56 192,-37 338,-37 338,-56"/>
<text text-anchor="middle" x="265" y="-44" font-family="Helvetica,sans-Serif" font-size="10.00">EnduserNotificationException</text>
</a>
</g>
</g>
<!-- Node1&#45;&gt;Node7 -->
<g id="edge7" class="edge">
<title>Node1&#45;&gt;Node7</title>
<path fill="none" stroke="#63b8ff" d="M167.22,-59.22C174.93,-58.2 183.22,-57.11 191.59,-56.01"/>
<polygon fill="#63b8ff" stroke="#63b8ff" points="166.85,-55.87 157.39,-60.64 167.76,-62.81 166.85,-55.87"/>
</g>
<!-- Node8 -->
<g id="node9" class="node">
<title>Node8</title>
<g id="a_node9"><a xlink:href="class_o_c_a_1_1_c_a_f_e_v_d_b_1_1_toolkit_1_1_exceptions_1_1_php_session_exception.html" target="_top" xlink:title="Thrown if there is something wrong with the access to the PHP session.">
<polygon fill="white" stroke="#666666" points="321.5,-19 208.5,-19 208.5,0 321.5,0 321.5,-19"/>
<text text-anchor="middle" x="265" y="-7" font-family="Helvetica,sans-Serif" font-size="10.00">PhpSessionException</text>
</a>
</g>
</g>
<!-- Node1&#45;&gt;Node8 -->
<g id="edge8" class="edge">
<title>Node1&#45;&gt;Node8</title>
<path fill="none" stroke="#63b8ff" d="M151.47,-49.05C163.36,-42.05 178.07,-34.1 192,-28.5 200.64,-25.03 210.11,-22.01 219.27,-19.46"/>
<polygon fill="#63b8ff" stroke="#63b8ff" points="149.97,-46.48 143.23,-54.64 153.59,-52.47 149.97,-46.48"/>
</g>
<!-- Node3 -->
<g id="node4" class="node">
<title>Node3</title>
<g id="a_node4"><a xlink:href="class_o_c_a_1_1_c_a_f_e_v_d_b_1_1_toolkit_1_1_exceptions_1_1_archive_cannot_open_exception.html" target="_top" xlink:title="Transparent archive extraction exception.">
<polygon fill="white" stroke="#666666" points="522,-167 374,-167 374,-148 522,-148 522,-167"/>
<text text-anchor="middle" x="448" y="-155" font-family="Helvetica,sans-Serif" font-size="10.00">ArchiveCannotOpenException</text>
</a>
</g>
</g>
<!-- Node2&#45;&gt;Node3 -->
<g id="edge3" class="edge">
<title>Node2&#45;&gt;Node3</title>
<path fill="none" stroke="#63b8ff" d="M322.19,-131.99C346.52,-136.96 374.73,-142.73 398.17,-147.52"/>
<polygon fill="#63b8ff" stroke="#63b8ff" points="323.17,-128.41 312.67,-129.84 321.77,-135.27 323.17,-128.41"/>
</g>
<!-- Node4 -->
<g id="node5" class="node">
<title>Node4</title>
<g id="a_node5"><a xlink:href="class_o_c_a_1_1_c_a_f_e_v_d_b_1_1_toolkit_1_1_exceptions_1_1_archive_not_open_exception.html" target="_top" xlink:title="Transparent archive extraction exception.">
<polygon fill="white" stroke="#666666" points="514,-130 382,-130 382,-111 514,-111 514,-130"/>
<text text-anchor="middle" x="448" y="-118" font-family="Helvetica,sans-Serif" font-size="10.00">ArchiveNotOpenException</text>
</a>
</g>
</g>
<!-- Node2&#45;&gt;Node4 -->
<g id="edge4" class="edge">
<title>Node2&#45;&gt;Node4</title>
<path fill="none" stroke="#63b8ff" d="M322.67,-120.5C341.34,-120.5 362.24,-120.5 381.51,-120.5"/>
<polygon fill="#63b8ff" stroke="#63b8ff" points="322.67,-117 312.67,-120.5 322.67,-124 322.67,-117"/>
</g>
<!-- Node5 -->
<g id="node6" class="node">
<title>Node5</title>
<g id="a_node6"><a xlink:href="class_o_c_a_1_1_c_a_f_e_v_d_b_1_1_toolkit_1_1_exceptions_1_1_archive_too_large_exception.html" target="_top" xlink:title="Transparent archive extraction exception.">
<polygon fill="white" stroke="#666666" points="514.5,-93 381.5,-93 381.5,-74 514.5,-74 514.5,-93"/>
<text text-anchor="middle" x="448" y="-81" font-family="Helvetica,sans-Serif" font-size="10.00">ArchiveTooLargeException</text>
</a>
</g>
</g>
<!-- Node2&#45;&gt;Node5 -->
<g id="edge5" class="edge">
<title>Node2&#45;&gt;Node5</title>
<path fill="none" stroke="#63b8ff" d="M322.19,-109.01C346.52,-104.04 374.73,-98.27 398.17,-93.48"/>
<polygon fill="#63b8ff" stroke="#63b8ff" points="321.77,-105.73 312.67,-111.16 323.17,-112.59 321.77,-105.73"/>
</g>
<!-- Node9 -->
<g id="node10" class="node">
<title>Node9</title>
<g id="a_node10"><a xlink:href="class_o_c_a_1_1_c_a_f_e_v_d_b_1_1_toolkit_1_1_exceptions_1_1_session_still_open_exception.html" target="_top" xlink:title=" ">
<polygon fill="white" stroke="#666666" points="515.5,-19 380.5,-19 380.5,0 515.5,0 515.5,-19"/>
<text text-anchor="middle" x="448" y="-7" font-family="Helvetica,sans-Serif" font-size="10.00">SessionStillOpenException</text>
</a>
</g>
</g>
<!-- Node8&#45;&gt;Node9 -->
<g id="edge9" class="edge">
<title>Node8&#45;&gt;Node9</title>
<path fill="none" stroke="#63b8ff" d="M332.4,-9.5C348.01,-9.5 364.64,-9.5 380.27,-9.5"/>
<polygon fill="#63b8ff" stroke="#63b8ff" points="332.78,-6 322.78,-9.5 332.78,-13 332.78,-6"/>
</g>
</g>
</svg>
