<?xml version="1.0" encoding="UTF-8" standalone="no"?>
<!DOCTYPE svg PUBLIC "-//W3C//DTD SVG 1.1//EN"
 "http://www.w3.org/Graphics/SVG/1.1/DTD/svg11.dtd">
<!-- Generated by graphviz version 9.0.0 (20230911.1827)
 -->
<!-- Title: Graphical Class Hierarchy Pages: 1 -->
<svg width="283pt" height="66pt"
 viewBox="0.00 0.00 283.00 66.00" xmlns="http://www.w3.org/2000/svg" xmlns:xlink="http://www.w3.org/1999/xlink">
<g id="graph0" class="graph" transform="scale(1 1) rotate(0) translate(4 62)">
<title>Graphical Class Hierarchy</title>
<!-- Node0 -->
<g id="Node000000" class="node">
<title>Node0</title>
<g id="a_Node000000"><a xlink:title=" ">
<polygon fill="#e0e0e0" stroke="#999999" points="99.25,-58 0,-58 0,-38 99.25,-38 99.25,-58"/>
<text text-anchor="middle" x="49.62" y="-44.5" font-family="Helvetica,sans-Serif" font-size="10.00">DefaultValueBinder</text>
</a>
</g>
</g>
<!-- Node1 -->
<g id="Node000001" class="node">
<title>Node1</title>
<g id="a_Node000001"><a xlink:href="class_o_c_a_1_1_c_a_f_e_v_d_b_1_1_page_renderer_1_1_export_1_1_php_spreadsheet_value_binder.html" target="_top" xlink:title="Special value&#45;binder class with tweaks the standard implementation from PHPExcel a little bit.">
<polygon fill="white" stroke="#666666" points="275,-39 135.25,-39 135.25,-19 275,-19 275,-39"/>
<text text-anchor="middle" x="205.12" y="-25.5" font-family="Helvetica,sans-Serif" font-size="10.00">PhpSpreadsheetValueBinder</text>
</a>
</g>
</g>
<!-- Node0&#45;&gt;Node1 -->
<g id="edge220_Node000000_Node000001" class="edge">
<title>Node0&#45;&gt;Node1</title>
<g id="a_edge220_Node000000_Node000001"><a xlink:title=" ">
<path fill="none" stroke="#63b8ff" d="M110.93,-40.54C118.79,-39.56 126.9,-38.56 134.9,-37.57"/>
<polygon fill="#63b8ff" stroke="#63b8ff" points="110.61,-37.05 101.12,-41.75 111.47,-44 110.61,-37.05"/>
</a>
</g>
</g>
<!-- Node2 -->
<g id="Node000002" class="node">
<title>Node2</title>
<g id="a_Node000002"><a xlink:title=" ">
<polygon fill="#e0e0e0" stroke="#999999" points="85,-20 14.25,-20 14.25,0 85,0 85,-20"/>
<text text-anchor="middle" x="49.62" y="-6.5" font-family="Helvetica,sans-Serif" font-size="10.00">IValueBinder</text>
</a>
</g>
</g>
<!-- Node2&#45;&gt;Node1 -->
<g id="edge221_Node000002_Node000001" class="edge">
<title>Node2&#45;&gt;Node1</title>
<g id="a_edge221_Node000002_Node000001"><a xlink:title=" ">
<path fill="none" stroke="#63b8ff" d="M96.6,-15.69C108.65,-17.18 121.93,-18.83 134.91,-20.43"/>
<polygon fill="#63b8ff" stroke="#63b8ff" points="97.31,-12.25 86.96,-14.5 96.45,-19.2 97.31,-12.25"/>
</a>
</g>
</g>
</g>
</svg>
