<?xml version="1.0" encoding="UTF-8" standalone="no"?>
<!DOCTYPE svg PUBLIC "-//W3C//DTD SVG 1.1//EN"
 "http://www.w3.org/Graphics/SVG/1.1/DTD/svg11.dtd">
<!-- Generated by graphviz version 8.0.3 (20230416.2022)
 -->
<!-- Title: Graphical Class Hierarchy Pages: 1 -->
<svg width="231pt" height="397pt"
 viewBox="0.00 0.00 231.00 397.00" xmlns="http://www.w3.org/2000/svg" xmlns:xlink="http://www.w3.org/1999/xlink">
<g id="graph0" class="graph" transform="scale(1 1) rotate(0) translate(4 393)">
<title>Graphical Class Hierarchy</title>
<!-- Node0 -->
<g id="node1" class="node">
<title>Node0</title>
<g id="a_node1"><a xlink:title=" ">
<polygon fill="#e0e0e0" stroke="#999999" points="62,-204 0,-204 0,-185 62,-185 62,-204"/>
<text text-anchor="middle" x="31" y="-192" font-family="Helvetica,sans-Serif" font-size="10.00">Command</text>
</a>
</g>
</g>
<!-- Node1 -->
<g id="node2" class="node">
<title>Node1</title>
<g id="a_node2"><a xlink:href="class_o_c_a_1_1_c_a_f_e_v_d_b_1_1_command_1_1_database_sanitizers.html" target="_top" xlink:title="Run various databse sanitizers on request.">
<polygon fill="white" stroke="#666666" points="211.5,-389 109.5,-389 109.5,-370 211.5,-370 211.5,-389"/>
<text text-anchor="middle" x="160.5" y="-377" font-family="Helvetica,sans-Serif" font-size="10.00">DatabaseSanitizers</text>
</a>
</g>
</g>
<!-- Node0&#45;&gt;Node1 -->
<g id="edge1" class="edge">
<title>Node0&#45;&gt;Node1</title>
<path fill="none" stroke="#63b8ff" d="M34.34,-215.31C39.43,-250.56 54.74,-322.03 98,-361.5 101.53,-364.72 105.62,-367.37 109.96,-369.55"/>
<polygon fill="#63b8ff" stroke="#63b8ff" points="37.69,-214.93 32.94,-205.46 30.75,-215.83 37.69,-214.93"/>
</g>
<!-- Node2 -->
<g id="node3" class="node">
<title>Node2</title>
<g id="a_node3"><a xlink:href="class_o_c_a_1_1_c_a_f_e_v_d_b_1_1_command_1_1_database_storage.html" target="_top" xlink:title="Maintenance for the database file&#45;system backend.">
<polygon fill="white" stroke="#666666" points="206.5,-352 114.5,-352 114.5,-333 206.5,-333 206.5,-352"/>
<text text-anchor="middle" x="160.5" y="-340" font-family="Helvetica,sans-Serif" font-size="10.00">DatabaseStorage</text>
</a>
</g>
</g>
<!-- Node0&#45;&gt;Node2 -->
<g id="edge2" class="edge">
<title>Node0&#45;&gt;Node2</title>
<path fill="none" stroke="#63b8ff" d="M36.82,-214.71C44.7,-243.36 63.08,-295.51 98,-324.5 102.71,-328.41 108.23,-331.47 114,-333.86"/>
<polygon fill="#63b8ff" stroke="#63b8ff" points="40.03,-214.14 34.15,-205.33 33.25,-215.89 40.03,-214.14"/>
</g>
<!-- Node3 -->
<g id="node4" class="node">
<title>Node3</title>
<g id="a_node4"><a xlink:href="class_o_c_a_1_1_c_a_f_e_v_d_b_1_1_command_1_1_executive_board.html" target="_top" xlink:title="Sanitize some stuff for the members of the management board:">
<polygon fill="white" stroke="#666666" points="203.5,-315 117.5,-315 117.5,-296 203.5,-296 203.5,-315"/>
<text text-anchor="middle" x="160.5" y="-303" font-family="Helvetica,sans-Serif" font-size="10.00">ExecutiveBoard</text>
</a>
</g>
</g>
<!-- Node0&#45;&gt;Node3 -->
<g id="edge3" class="edge">
<title>Node0&#45;&gt;Node3</title>
<path fill="none" stroke="#63b8ff" d="M40.97,-214.13C51.62,-235.31 71.36,-268.52 98,-287.5 103.71,-291.57 110.33,-294.72 117.07,-297.17"/>
<polygon fill="#63b8ff" stroke="#63b8ff" points="43.72,-212.79 36.23,-205.3 37.42,-215.83 43.72,-212.79"/>
</g>
<!-- Node4 -->
<g id="node5" class="node">
<title>Node4</title>
<g id="a_node5"><a xlink:href="class_o_c_a_1_1_c_a_f_e_v_d_b_1_1_command_1_1_hello_world.html" target="_top" xlink:title="Test&#45;command in order to see if the abstract framework is functional.">
<polygon fill="white" stroke="#666666" points="192.5,-278 128.5,-278 128.5,-259 192.5,-259 192.5,-278"/>
<text text-anchor="middle" x="160.5" y="-266" font-family="Helvetica,sans-Serif" font-size="10.00">HelloWorld</text>
</a>
</g>
</g>
<!-- Node0&#45;&gt;Node4 -->
<g id="edge4" class="edge">
<title>Node0&#45;&gt;Node4</title>
<path fill="none" stroke="#63b8ff" d="M48.6,-212.07C61.12,-224.4 79.3,-240.42 98,-250.5 107.3,-255.51 118.17,-259.28 128.16,-262.04"/>
<polygon fill="#63b8ff" stroke="#63b8ff" points="51.4,-209.91 41.89,-205.24 46.41,-214.82 51.4,-209.91"/>
</g>
<!-- Node5 -->
<g id="node6" class="node">
<title>Node5</title>
<g id="a_node6"><a xlink:href="class_o_c_a_1_1_c_a_f_e_v_d_b_1_1_command_1_1_participant_folders.html" target="_top" xlink:title="Create all participant sub&#45;folder for each project.">
<polygon fill="white" stroke="#666666" points="208,-241 113,-241 113,-222 208,-222 208,-241"/>
<text text-anchor="middle" x="160.5" y="-229" font-family="Helvetica,sans-Serif" font-size="10.00">ParticipantFolders</text>
</a>
</g>
</g>
<!-- Node0&#45;&gt;Node5 -->
<g id="edge5" class="edge">
<title>Node0&#45;&gt;Node5</title>
<path fill="none" stroke="#63b8ff" d="M72.45,-206.24C89.51,-211.19 109.15,-216.89 125.46,-221.62"/>
<polygon fill="#63b8ff" stroke="#63b8ff" points="73.79,-202.69 63.22,-203.27 71.84,-209.42 73.79,-202.69"/>
</g>
<!-- Node6 -->
<g id="node7" class="node">
<title>Node6</title>
<g id="a_node7"><a xlink:href="class_o_c_a_1_1_c_a_f_e_v_d_b_1_1_command_1_1_project_events.html" target="_top" xlink:title="Create all participant sub&#45;folder for each project.">
<polygon fill="white" stroke="#666666" points="199.5,-204 121.5,-204 121.5,-185 199.5,-185 199.5,-204"/>
<text text-anchor="middle" x="160.5" y="-192" font-family="Helvetica,sans-Serif" font-size="10.00">ProjectEvents</text>
</a>
</g>
</g>
<!-- Node0&#45;&gt;Node6 -->
<g id="edge6" class="edge">
<title>Node0&#45;&gt;Node6</title>
<path fill="none" stroke="#63b8ff" d="M73.06,-194.5C88.53,-194.5 106.06,-194.5 121.27,-194.5"/>
<polygon fill="#63b8ff" stroke="#63b8ff" points="73.22,-191 63.22,-194.5 73.22,-198 73.22,-191"/>
</g>
<!-- Node7 -->
<g id="node8" class="node">
<title>Node7</title>
<g id="a_node8"><a xlink:href="class_o_c_a_1_1_c_a_f_e_v_d_b_1_1_command_1_1_project_folders.html" target="_top" xlink:title="Create all participant sub&#45;folder for each project.">
<polygon fill="white" stroke="#666666" points="200.5,-167 120.5,-167 120.5,-148 200.5,-148 200.5,-167"/>
<text text-anchor="middle" x="160.5" y="-155" font-family="Helvetica,sans-Serif" font-size="10.00">ProjectFolders</text>
</a>
</g>
</g>
<!-- Node0&#45;&gt;Node7 -->
<g id="edge7" class="edge">
<title>Node0&#45;&gt;Node7</title>
<path fill="none" stroke="#63b8ff" d="M72.45,-182.76C89.51,-177.81 109.15,-172.11 125.46,-167.38"/>
<polygon fill="#63b8ff" stroke="#63b8ff" points="71.84,-179.58 63.22,-185.73 73.79,-186.31 71.84,-179.58"/>
</g>
<!-- Node8 -->
<g id="node9" class="node">
<title>Node8</title>
<g id="a_node9"><a xlink:href="class_o_c_a_1_1_c_a_f_e_v_d_b_1_1_command_1_1_tooltips_find.html" target="_top" xlink:title="Search for tooltip&#45;tags in PHP code.">
<polygon fill="white" stroke="#666666" points="195,-130 126,-130 126,-111 195,-111 195,-130"/>
<text text-anchor="middle" x="160.5" y="-118" font-family="Helvetica,sans-Serif" font-size="10.00">TooltipsFind</text>
</a>
</g>
</g>
<!-- Node0&#45;&gt;Node8 -->
<g id="edge8" class="edge">
<title>Node0&#45;&gt;Node8</title>
<path fill="none" stroke="#63b8ff" d="M49.14,-176.93C61.69,-164.92 79.68,-149.44 98,-139.5 106.55,-134.86 116.39,-131.18 125.65,-128.35"/>
<polygon fill="#63b8ff" stroke="#63b8ff" points="47.04,-174.06 42.37,-183.57 51.95,-179.05 47.04,-174.06"/>
</g>
<!-- Node9 -->
<g id="node10" class="node">
<title>Node9</title>
<g id="a_node10"><a xlink:href="class_o_c_a_1_1_c_a_f_e_v_d_b_1_1_command_1_1_tooltips_list.html" target="_top" xlink:title="Command to list all registered tooltips.">
<polygon fill="white" stroke="#666666" points="193.5,-93 127.5,-93 127.5,-74 193.5,-74 193.5,-93"/>
<text text-anchor="middle" x="160.5" y="-81" font-family="Helvetica,sans-Serif" font-size="10.00">TooltipsList</text>
</a>
</g>
</g>
<!-- Node0&#45;&gt;Node9 -->
<g id="edge9" class="edge">
<title>Node0&#45;&gt;Node9</title>
<path fill="none" stroke="#63b8ff" d="M41.24,-174.83C52.03,-153.94 71.78,-121.38 98,-102.5 106.52,-96.36 117.08,-92.17 127.03,-89.32"/>
<polygon fill="#63b8ff" stroke="#63b8ff" points="37.72,-173.04 36.43,-183.55 44,-176.14 37.72,-173.04"/>
</g>
<!-- Node10 -->
<g id="node11" class="node">
<title>Node10</title>
<g id="a_node11"><a xlink:href="class_o_c_a_1_1_c_a_f_e_v_d_b_1_1_command_1_1_update_geo_coding_cache.html" target="_top" xlink:title="Selectively update the GeoCoding cache from various remote sources.">
<polygon fill="white" stroke="#666666" points="223,-56 98,-56 98,-37 223,-37 223,-56"/>
<text text-anchor="middle" x="160.5" y="-44" font-family="Helvetica,sans-Serif" font-size="10.00">UpdateGeoCodingCache</text>
</a>
</g>
</g>
<!-- Node0&#45;&gt;Node10 -->
<g id="edge10" class="edge">
<title>Node0&#45;&gt;Node10</title>
<path fill="none" stroke="#63b8ff" d="M36.92,-174.51C44.93,-146.17 63.47,-94.52 98,-65.5 102.36,-61.83 107.43,-58.87 112.74,-56.49"/>
<polygon fill="#63b8ff" stroke="#63b8ff" points="33.38,-173.22 34.2,-183.78 40.15,-175.01 33.38,-173.22"/>
</g>
<!-- Node11 -->
<g id="node12" class="node">
<title>Node11</title>
<g id="a_node12"><a xlink:href="class_o_c_a_1_1_c_a_f_e_v_d_b_1_1_command_1_1_wiki_overview.html" target="_top" xlink:title="Recreate the wiki overview pages.">
<polygon fill="white" stroke="#666666" points="199,-19 122,-19 122,0 199,0 199,-19"/>
<text text-anchor="middle" x="160.5" y="-7" font-family="Helvetica,sans-Serif" font-size="10.00">WikiOverview</text>
</a>
</g>
</g>
<!-- Node0&#45;&gt;Node11 -->
<g id="edge11" class="edge">
<title>Node0&#45;&gt;Node11</title>
<path fill="none" stroke="#63b8ff" d="M34.44,-173.88C39.68,-138.94 55.21,-68.04 98,-28.5 104.57,-22.43 113.03,-18.3 121.57,-15.49"/>
<polygon fill="#63b8ff" stroke="#63b8ff" points="30.86,-173.25 32.99,-183.63 37.8,-174.19 30.86,-173.25"/>
</g>
</g>
</svg>
