<?xml version="1.0" encoding="UTF-8" standalone="no"?>
<!DOCTYPE svg PUBLIC "-//W3C//DTD SVG 1.1//EN"
 "http://www.w3.org/Graphics/SVG/1.1/DTD/svg11.dtd">
<!-- Generated by graphviz version 9.0.0 (20230911.1827)
 -->
<!-- Title: Graphical Class Hierarchy Pages: 1 -->
<svg width="423pt" height="180pt"
 viewBox="0.00 0.00 422.75 180.00" xmlns="http://www.w3.org/2000/svg" xmlns:xlink="http://www.w3.org/1999/xlink">
<g id="graph0" class="graph" transform="scale(1 1) rotate(0) translate(4 176)">
<title>Graphical Class Hierarchy</title>
<!-- Node0 -->
<g id="Node000000" class="node">
<title>Node0</title>
<g id="a_Node000000"><a xlink:href="interface_o_c_a_1_1_c_a_f_e_v_d_b_1_1_crypto_1_1_i_cryptor.html" target="_top" xlink:title="Simple wrapper interface.">
<polygon fill="white" stroke="#666666" points="51.25,-96 0,-96 0,-76 51.25,-76 51.25,-96"/>
<text text-anchor="middle" x="25.62" y="-82.5" font-family="Helvetica,sans-Serif" font-size="10.00">ICryptor</text>
</a>
</g>
</g>
<!-- Node1 -->
<g id="Node000001" class="node">
<title>Node1</title>
<g id="a_Node000001"><a xlink:href="interface_o_c_a_1_1_c_a_f_e_v_d_b_1_1_crypto_1_1_asymmetric_cryptor_interface.html" target="_top" xlink:title="Just there in order to branch depending on container specialization.">
<polygon fill="white" stroke="#666666" points="226.25,-134 87.25,-134 87.25,-114 226.25,-114 226.25,-134"/>
<text text-anchor="middle" x="156.75" y="-120.5" font-family="Helvetica,sans-Serif" font-size="10.00">AsymmetricCryptorInterface</text>
</a>
</g>
</g>
<!-- Node0&#45;&gt;Node1 -->
<g id="edge298_Node000000_Node000001" class="edge">
<title>Node0&#45;&gt;Node1</title>
<g id="a_edge298_Node000000_Node000001"><a xlink:title=" ">
<path fill="none" stroke="#63b8ff" d="M62.37,-97.42C70.53,-99.97 79.18,-102.62 87.25,-105 96.96,-107.87 107.47,-110.85 117.28,-113.57"/>
<polygon fill="#63b8ff" stroke="#63b8ff" points="63.67,-94.16 53.08,-94.5 61.57,-100.84 63.67,-94.16"/>
</a>
</g>
</g>
<!-- Node4 -->
<g id="Node000004" class="node">
<title>Node4</title>
<g id="a_Node000004"><a xlink:href="class_o_c_a_1_1_c_a_f_e_v_d_b_1_1_crypto_1_1_seal_cryptor.html" target="_top" xlink:title="Use the encryption service provided by the ambient cloud software.">
<polygon fill="white" stroke="#666666" points="190.62,-96 122.88,-96 122.88,-76 190.62,-76 190.62,-96"/>
<text text-anchor="middle" x="156.75" y="-82.5" font-family="Helvetica,sans-Serif" font-size="10.00">SealCryptor</text>
</a>
</g>
</g>
<!-- Node0&#45;&gt;Node4 -->
<g id="edge301_Node000000_Node000004" class="edge">
<title>Node0&#45;&gt;Node4</title>
<g id="a_edge301_Node000000_Node000004"><a xlink:title=" ">
<path fill="none" stroke="#63b8ff" d="M62.89,-86C81.64,-86 104.35,-86 122.62,-86"/>
<polygon fill="#63b8ff" stroke="#63b8ff" points="63.04,-82.5 53.04,-86 63.04,-89.5 63.04,-82.5"/>
</a>
</g>
</g>
<!-- Node5 -->
<g id="Node000005" class="node">
<title>Node5</title>
<g id="a_Node000005"><a xlink:href="interface_o_c_a_1_1_c_a_f_e_v_d_b_1_1_crypto_1_1_symmetric_cryptor_interface.html" target="_top" xlink:title="Just there in order to branch depending on container specialization.">
<polygon fill="white" stroke="#666666" points="223.62,-58 89.88,-58 89.88,-38 223.62,-38 223.62,-58"/>
<text text-anchor="middle" x="156.75" y="-44.5" font-family="Helvetica,sans-Serif" font-size="10.00">SymmetricCryptorInterface</text>
</a>
</g>
</g>
<!-- Node0&#45;&gt;Node5 -->
<g id="edge302_Node000000_Node000005" class="edge">
<title>Node0&#45;&gt;Node5</title>
<g id="a_edge302_Node000000_Node000005"><a xlink:title=" ">
<path fill="none" stroke="#63b8ff" d="M62.37,-74.58C70.53,-72.03 79.18,-69.38 87.25,-67 96.96,-64.13 107.47,-61.15 117.28,-58.43"/>
<polygon fill="#63b8ff" stroke="#63b8ff" points="61.57,-71.16 53.08,-77.5 63.67,-77.84 61.57,-71.16"/>
</a>
</g>
</g>
<!-- Node2 -->
<g id="Node000002" class="node">
<title>Node2</title>
<g id="a_Node000002"><a xlink:href="class_o_c_a_1_1_c_a_f_e_v_d_b_1_1_crypto_1_1_halite_asymmetric_cryptor.html" target="_top" xlink:title="Asymmetric encryption using the ParagonIE\Halite library.">
<polygon fill="white" stroke="#666666" points="401.62,-172 275.38,-172 275.38,-152 401.62,-152 401.62,-172"/>
<text text-anchor="middle" x="338.5" y="-158.5" font-family="Helvetica,sans-Serif" font-size="10.00">HaliteAsymmetricCryptor</text>
</a>
</g>
</g>
<!-- Node1&#45;&gt;Node2 -->
<g id="edge299_Node000001_Node000002" class="edge">
<title>Node1&#45;&gt;Node2</title>
<g id="a_edge299_Node000001_Node000002"><a xlink:title=" ">
<path fill="none" stroke="#63b8ff" d="M218.55,-136.85C241.18,-141.64 266.58,-147.01 288.07,-151.55"/>
<polygon fill="#63b8ff" stroke="#63b8ff" points="219.33,-133.44 208.82,-134.8 217.88,-140.29 219.33,-133.44"/>
</a>
</g>
</g>
<!-- Node3 -->
<g id="Node000003" class="node">
<title>Node3</title>
<g id="a_Node000003"><a xlink:href="class_o_c_a_1_1_c_a_f_e_v_d_b_1_1_crypto_1_1_open_s_s_l_asymmetric_cryptor.html" target="_top" xlink:title="Asymmetric encryption using the OpenSSL extension of PHP.">
<polygon fill="white" stroke="#666666" points="409.88,-134 267.12,-134 267.12,-114 409.88,-114 409.88,-134"/>
<text text-anchor="middle" x="338.5" y="-120.5" font-family="Helvetica,sans-Serif" font-size="10.00">OpenSSLAsymmetricCryptor</text>
</a>
</g>
</g>
<!-- Node1&#45;&gt;Node3 -->
<g id="edge300_Node000001_Node000003" class="edge">
<title>Node1&#45;&gt;Node3</title>
<g id="a_edge300_Node000001_Node000003"><a xlink:title=" ">
<path fill="none" stroke="#63b8ff" d="M237.97,-124C247.62,-124 257.42,-124 266.92,-124"/>
<polygon fill="#63b8ff" stroke="#63b8ff" points="238.25,-120.5 228.25,-124 238.25,-127.5 238.25,-120.5"/>
</a>
</g>
</g>
<!-- Node6 -->
<g id="Node000006" class="node">
<title>Node6</title>
<g id="a_Node000006"><a xlink:href="class_o_c_a_1_1_c_a_f_e_v_d_b_1_1_crypto_1_1_cloud_symmetric_cryptor.html" target="_top" xlink:title="Use the encryption service provided by the ambient cloud software.">
<polygon fill="white" stroke="#666666" points="399,-96 278,-96 278,-76 399,-76 399,-96"/>
<text text-anchor="middle" x="338.5" y="-82.5" font-family="Helvetica,sans-Serif" font-size="10.00">CloudSymmetricCryptor</text>
</a>
</g>
</g>
<!-- Node5&#45;&gt;Node6 -->
<g id="edge303_Node000005_Node000006" class="edge">
<title>Node5&#45;&gt;Node6</title>
<g id="a_edge303_Node000005_Node000006"><a xlink:title=" ">
<path fill="none" stroke="#63b8ff" d="M218.55,-60.85C241.18,-65.64 266.58,-71.01 288.07,-75.55"/>
<polygon fill="#63b8ff" stroke="#63b8ff" points="219.33,-57.44 208.82,-58.8 217.88,-64.29 219.33,-57.44"/>
</a>
</g>
</g>
<!-- Node7 -->
<g id="Node000007" class="node">
<title>Node7</title>
<g id="a_Node000007"><a xlink:href="class_o_c_a_1_1_c_a_f_e_v_d_b_1_1_crypto_1_1_halite_symmetric_cryptor.html" target="_top" xlink:title="Use libsodium through Halite.">
<polygon fill="white" stroke="#666666" points="399,-58 278,-58 278,-38 399,-38 399,-58"/>
<text text-anchor="middle" x="338.5" y="-44.5" font-family="Helvetica,sans-Serif" font-size="10.00">HaliteSymmetricCryptor</text>
</a>
</g>
</g>
<!-- Node5&#45;&gt;Node7 -->
<g id="edge304_Node000005_Node000007" class="edge">
<title>Node5&#45;&gt;Node7</title>
<g id="a_edge304_Node000005_Node000007"><a xlink:title=" ">
<path fill="none" stroke="#63b8ff" d="M235.21,-48C249.45,-48 264.1,-48 277.72,-48"/>
<polygon fill="#63b8ff" stroke="#63b8ff" points="235.43,-44.5 225.43,-48 235.43,-51.5 235.43,-44.5"/>
</a>
</g>
</g>
<!-- Node8 -->
<g id="Node000008" class="node">
<title>Node8</title>
<g id="a_Node000008"><a xlink:href="class_o_c_a_1_1_c_a_f_e_v_d_b_1_1_crypto_1_1_halite_symmetric_stream_cryptor.html" target="_top" xlink:title="Like HaliteSymmetricCryptor, but use the stream&#45;versions which work on chunks of 1M and thus scale be...">
<polygon fill="white" stroke="#666666" points="414.75,-20 262.25,-20 262.25,0 414.75,0 414.75,-20"/>
<text text-anchor="middle" x="338.5" y="-6.5" font-family="Helvetica,sans-Serif" font-size="10.00">HaliteSymmetricStreamCryptor</text>
</a>
</g>
</g>
<!-- Node5&#45;&gt;Node8 -->
<g id="edge305_Node000005_Node000008" class="edge">
<title>Node5&#45;&gt;Node8</title>
<g id="a_edge305_Node000005_Node000008"><a xlink:title=" ">
<path fill="none" stroke="#63b8ff" d="M218.55,-35.15C241.18,-30.36 266.58,-24.99 288.07,-20.45"/>
<polygon fill="#63b8ff" stroke="#63b8ff" points="217.88,-31.71 208.82,-37.2 219.33,-38.56 217.88,-31.71"/>
</a>
</g>
</g>
</g>
</svg>
