<?xml version="1.0" encoding="UTF-8" standalone="no"?>
<!DOCTYPE svg PUBLIC "-//W3C//DTD SVG 1.1//EN"
 "http://www.w3.org/Graphics/SVG/1.1/DTD/svg11.dtd">
<!-- Generated by graphviz version 7.1.0 (20230121.1956)
 -->
<!-- Title: Graphical Class Hierarchy Pages: 1 -->
<svg width="238pt" height="138pt"
 viewBox="0.00 0.00 238.00 138.00" xmlns="http://www.w3.org/2000/svg" xmlns:xlink="http://www.w3.org/1999/xlink">
<g id="graph0" class="graph" transform="scale(1 1) rotate(0) translate(4 134)">
<title>Graphical Class Hierarchy</title>
<!-- Node0 -->
<g id="node1" class="node">
<title>Node0</title>
<g id="a_node1"><a xlink:title=" ">
<polygon fill="#e0e0e0" stroke="#999999" points="66,-74 0,-74 0,-55 66,-55 66,-74"/>
<text text-anchor="middle" x="33" y="-62" font-family="Helvetica,sans-Serif" font-size="10.00">Middleware</text>
</a>
</g>
</g>
<!-- Node1 -->
<g id="node2" class="node">
<title>Node1</title>
<g id="a_node2"><a xlink:href="class_o_c_a_1_1_c_a_f_e_v_d_b_1_1_middleware_1_1_c_s_p_violation_reporting.html" target="_top" xlink:title="Sends CSP reports to a dedicated addresss for debugging.">
<polygon fill="white" stroke="#666666" points="224.5,-130 107.5,-130 107.5,-111 224.5,-111 224.5,-130"/>
<text text-anchor="middle" x="166" y="-118" font-family="Helvetica,sans-Serif" font-size="10.00">CSPViolationReporting</text>
</a>
</g>
</g>
<!-- Node0&#45;&gt;Node1 -->
<g id="edge1" class="edge">
<title>Node0&#45;&gt;Node1</title>
<path fill="none" stroke="#63b8ff" d="M59.14,-80.39C71.67,-87.83 87.27,-96.38 102,-102.5 109.25,-105.51 117.17,-108.21 124.86,-110.54"/>
<polygon fill="#63b8ff" stroke="#63b8ff" points="61.07,-77.47 50.71,-75.26 57.44,-83.45 61.07,-77.47"/>
</g>
<!-- Node2 -->
<g id="node3" class="node">
<title>Node2</title>
<g id="a_node3"><a xlink:href="class_o_c_a_1_1_c_a_f_e_v_d_b_1_1_middleware_1_1_config_lock_middleware.html" target="_top" xlink:title="Deny all request while config&#45;lock is active.">
<polygon fill="white" stroke="#666666" points="224,-93 108,-93 108,-74 224,-74 224,-93"/>
<text text-anchor="middle" x="166" y="-81" font-family="Helvetica,sans-Serif" font-size="10.00">ConfigLockMiddleware</text>
</a>
</g>
</g>
<!-- Node0&#45;&gt;Node2 -->
<g id="edge2" class="edge">
<title>Node0&#45;&gt;Node2</title>
<path fill="none" stroke="#63b8ff" d="M77.71,-70.84C87.33,-72.23 97.66,-73.73 107.73,-75.19"/>
<polygon fill="#63b8ff" stroke="#63b8ff" points="78.28,-67.39 67.88,-69.41 77.27,-74.31 78.28,-67.39"/>
</g>
<!-- Node3 -->
<g id="node4" class="node">
<title>Node3</title>
<g id="a_node4"><a xlink:href="class_o_c_a_1_1_c_a_f_e_v_d_b_1_1_middleware_1_1_group_member_middleware.html" target="_top" xlink:title="Verifies whether an user has at least subadmin rights.">
<polygon fill="white" stroke="#666666" points="230,-56 102,-56 102,-37 230,-37 230,-56"/>
<text text-anchor="middle" x="166" y="-44" font-family="Helvetica,sans-Serif" font-size="10.00">GroupMemberMiddleware</text>
</a>
</g>
</g>
<!-- Node0&#45;&gt;Node3 -->
<g id="edge3" class="edge">
<title>Node0&#45;&gt;Node3</title>
<path fill="none" stroke="#63b8ff" d="M77.62,-58.51C85.3,-57.45 93.44,-56.33 101.53,-55.22"/>
<polygon fill="#63b8ff" stroke="#63b8ff" points="77.31,-55.02 67.88,-59.84 78.26,-61.95 77.31,-55.02"/>
</g>
<!-- Node4 -->
<g id="node5" class="node">
<title>Node4</title>
<g id="a_node5"><a xlink:href="class_o_c_a_1_1_c_a_f_e_v_d_b_1_1_middleware_1_1_subadmin_middleware.html" target="_top" xlink:title="Verifies whether an user has at least subadmin rights.">
<polygon fill="white" stroke="#666666" points="221,-19 111,-19 111,0 221,0 221,-19"/>
<text text-anchor="middle" x="166" y="-7" font-family="Helvetica,sans-Serif" font-size="10.00">SubadminMiddleware</text>
</a>
</g>
</g>
<!-- Node0&#45;&gt;Node4 -->
<g id="edge4" class="edge">
<title>Node0&#45;&gt;Node4</title>
<path fill="none" stroke="#63b8ff" d="M60.28,-49.05C72.67,-42.18 87.81,-34.33 102,-28.5 110.14,-25.16 119.08,-22.11 127.6,-19.47"/>
<polygon fill="#63b8ff" stroke="#63b8ff" points="58.9,-45.81 51.92,-53.79 62.35,-51.9 58.9,-45.81"/>
</g>
</g>
</svg>
