<?xml version="1.0" encoding="UTF-8" standalone="no"?>
<!DOCTYPE svg PUBLIC "-//W3C//DTD SVG 1.1//EN"
 "http://www.w3.org/Graphics/SVG/1.1/DTD/svg11.dtd">
<!-- Generated by graphviz version 9.0.0 (20230911.1827)
 -->
<!-- Title: Graphical Class Hierarchy Pages: 1 -->
<svg width="436pt" height="489pt"
 viewBox="0.00 0.00 436.25 489.00" xmlns="http://www.w3.org/2000/svg" xmlns:xlink="http://www.w3.org/1999/xlink">
<g id="graph0" class="graph" transform="scale(1 1) rotate(0) translate(4 485)">
<title>Graphical Class Hierarchy</title>
<!-- Node0 -->
<g id="Node000000" class="node">
<title>Node0</title>
<g id="a_Node000000"><a xlink:title=" ">
<polygon fill="#e0e0e0" stroke="#999999" points="41.5,-269 0,-269 0,-249 41.5,-249 41.5,-269"/>
<text text-anchor="middle" x="20.75" y="-255.5" font-family="Helvetica,sans-Serif" font-size="10.00">Event</text>
</a>
</g>
</g>
<!-- Node1 -->
<g id="Node000001" class="node">
<title>Node1</title>
<g id="a_Node000001"><a xlink:href="class_o_c_a_1_1_c_a_f_e_v_d_b_1_1_events_1_1_after_encryption_key_pair_changed.html" target="_top" xlink:title="Fired before a new key&#45;pair has been generated and saved.">
<polygon fill="white" stroke="#666666" points="245,-481 88,-481 88,-461 245,-461 245,-481"/>
<text text-anchor="middle" x="166.5" y="-467.5" font-family="Helvetica,sans-Serif" font-size="10.00">AfterEncryptionKeyPairChanged</text>
</a>
</g>
</g>
<!-- Node0&#45;&gt;Node1 -->
<g id="edge256_Node000000_Node000001" class="edge">
<title>Node0&#45;&gt;Node1</title>
<g id="a_edge256_Node000000_Node000001"><a xlink:title=" ">
<path fill="none" stroke="#63b8ff" d="M21.28,-280.72C21.68,-320.78 28.61,-406.35 77.5,-452 81.16,-455.41 85.27,-458.27 89.68,-460.66"/>
<polygon fill="#63b8ff" stroke="#63b8ff" points="24.78,-280.75 21.34,-270.73 17.78,-280.71 24.78,-280.75"/>
</a>
</g>
</g>
<!-- Node2 -->
<g id="Node000002" class="node">
<title>Node2</title>
<g id="a_Node000002"><a xlink:href="class_o_c_a_1_1_c_a_f_e_v_d_b_1_1_events_1_1_before_encryption_key_pair_changed.html" target="_top" xlink:title="Fired before a new key&#45;pair has been generated and saved.">
<polygon fill="white" stroke="#666666" points="248.75,-443 84.25,-443 84.25,-423 248.75,-423 248.75,-443"/>
<text text-anchor="middle" x="166.5" y="-429.5" font-family="Helvetica,sans-Serif" font-size="10.00">BeforeEncryptionKeyPairChanged</text>
</a>
</g>
</g>
<!-- Node0&#45;&gt;Node2 -->
<g id="edge257_Node000000_Node000002" class="edge">
<title>Node0&#45;&gt;Node2</title>
<g id="a_edge257_Node000000_Node000002"><a xlink:title=" ">
<path fill="none" stroke="#63b8ff" d="M23.08,-280.42C26.37,-314.12 37.81,-379.26 77.5,-414 81.38,-417.4 85.72,-420.23 90.34,-422.6"/>
<polygon fill="#63b8ff" stroke="#63b8ff" points="26.59,-280.37 22.3,-270.68 19.61,-280.93 26.59,-280.37"/>
</a>
</g>
</g>
<!-- Node3 -->
<g id="Node000003" class="node">
<title>Node3</title>
<g id="a_Node000003"><a xlink:href="class_o_c_a_1_1_c_a_f_e_v_d_b_1_1_events_1_1_encryption_service_bound.html" target="_top" xlink:title="Emitted after the encryption service has been bound to a specific user or group.">
<polygon fill="white" stroke="#666666" points="228.12,-405 104.88,-405 104.88,-385 228.12,-385 228.12,-405"/>
<text text-anchor="middle" x="166.5" y="-391.5" font-family="Helvetica,sans-Serif" font-size="10.00">EncryptionServiceBound</text>
</a>
</g>
</g>
<!-- Node0&#45;&gt;Node3 -->
<g id="edge258_Node000000_Node000003" class="edge">
<title>Node0&#45;&gt;Node3</title>
<g id="a_edge258_Node000000_Node000003"><a xlink:title=" ">
<path fill="none" stroke="#63b8ff" d="M25.94,-280.46C32.3,-307.08 47.03,-351.89 77.5,-376 85.34,-382.21 94.77,-386.5 104.49,-389.44"/>
<polygon fill="#63b8ff" stroke="#63b8ff" points="29.39,-279.84 23.84,-270.82 22.55,-281.33 29.39,-279.84"/>
</a>
</g>
</g>
<!-- Node4 -->
<g id="Node000004" class="node">
<title>Node4</title>
<g id="a_Node000004"><a xlink:href="class_o_c_a_1_1_c_a_f_e_v_d_b_1_1_events_1_1_entity_manager_bound_event.html" target="_top" xlink:title="Can be used to regenerate cached entities after an entity&#45;manager shoot&#45;down.">
<polygon fill="white" stroke="#666666" points="232.62,-367 100.38,-367 100.38,-347 232.62,-347 232.62,-367"/>
<text text-anchor="middle" x="166.5" y="-353.5" font-family="Helvetica,sans-Serif" font-size="10.00">EntityManagerBoundEvent</text>
</a>
</g>
</g>
<!-- Node0&#45;&gt;Node4 -->
<g id="edge259_Node000000_Node000004" class="edge">
<title>Node0&#45;&gt;Node4</title>
<g id="a_edge259_Node000000_Node000004"><a xlink:title=" ">
<path fill="none" stroke="#63b8ff" d="M30.83,-279.53C39.97,-297.76 55.82,-323.66 77.5,-338 84.41,-342.57 92.23,-346.06 100.29,-348.73"/>
<polygon fill="#63b8ff" stroke="#63b8ff" points="34.1,-278.26 26.66,-270.72 27.77,-281.25 34.1,-278.26"/>
</a>
</g>
</g>
<!-- Node5 -->
<g id="Node000005" class="node">
<title>Node5</title>
<g id="a_Node000005"><a xlink:href="class_o_c_a_1_1_c_a_f_e_v_d_b_1_1_events_1_1_entity_manager_closed_event.html" target="_top" xlink:title="Can be used to regenerate cached entities after an entity&#45;manager shoot&#45;down.">
<polygon fill="white" stroke="#666666" points="234.12,-329 98.88,-329 98.88,-309 234.12,-309 234.12,-329"/>
<text text-anchor="middle" x="166.5" y="-315.5" font-family="Helvetica,sans-Serif" font-size="10.00">EntityManagerClosedEvent</text>
</a>
</g>
</g>
<!-- Node0&#45;&gt;Node5 -->
<g id="edge260_Node000000_Node000005" class="edge">
<title>Node0&#45;&gt;Node5</title>
<g id="a_edge260_Node000000_Node000005"><a xlink:title=" ">
<path fill="none" stroke="#63b8ff" d="M41.56,-276.77C51.67,-284.98 64.55,-294.16 77.5,-300 85.05,-303.4 93.25,-306.21 101.5,-308.53"/>
<polygon fill="#63b8ff" stroke="#63b8ff" points="43.85,-274.13 33.96,-270.33 39.33,-279.47 43.85,-274.13"/>
</a>
</g>
</g>
<!-- Node6 -->
<g id="Node000006" class="node">
<title>Node6</title>
<g id="a_Node000006"><a xlink:href="class_o_c_a_1_1_c_a_f_e_v_d_b_1_1_events_1_1_musician_email_event.html" target="_top" xlink:title="Base class for musician email events.">
<polygon fill="white" stroke="#666666" points="219.12,-291 113.88,-291 113.88,-271 219.12,-271 219.12,-291"/>
<text text-anchor="middle" x="166.5" y="-277.5" font-family="Helvetica,sans-Serif" font-size="10.00">MusicianEmailEvent</text>
</a>
</g>
</g>
<!-- Node0&#45;&gt;Node6 -->
<g id="edge261_Node000000_Node000006" class="edge">
<title>Node0&#45;&gt;Node6</title>
<g id="a_edge261_Node000000_Node000006"><a xlink:title=" ">
<path fill="none" stroke="#63b8ff" d="M53.1,-263.8C70.76,-266.5 93.27,-269.95 113.5,-273.04"/>
<polygon fill="#63b8ff" stroke="#63b8ff" points="53.65,-260.34 43.23,-262.29 52.59,-267.26 53.65,-260.34"/>
</a>
</g>
</g>
<!-- Node12 -->
<g id="Node000012" class="node">
<title>Node12</title>
<g id="a_Node000012"><a xlink:href="class_o_c_a_1_1_c_a_f_e_v_d_b_1_1_events_1_1_post_change_composite_payment_notification_message_id.html" target="_top" xlink:title="Event fired by the Musician entity through a life&#45;cycle hook after the bulkTransaction address is cha...">
<polygon fill="white" stroke="#666666" points="244.62,-253 88.38,-253 88.38,-221 244.62,-221 244.62,-253"/>
<text text-anchor="start" x="96.38" y="-239.5" font-family="Helvetica,sans-Serif" font-size="10.00">PostChangeCompositePayment</text>
<text text-anchor="middle" x="166.5" y="-227.5" font-family="Helvetica,sans-Serif" font-size="10.00">NotificationMessageId</text>
</a>
</g>
</g>
<!-- Node0&#45;&gt;Node12 -->
<g id="edge267_Node000000_Node000012" class="edge">
<title>Node0&#45;&gt;Node12</title>
<g id="a_edge267_Node000000_Node000012"><a xlink:title=" ">
<path fill="none" stroke="#63b8ff" d="M53.1,-254.2C63.52,-252.61 75.62,-250.76 87.94,-248.87"/>
<polygon fill="#63b8ff" stroke="#63b8ff" points="52.59,-250.74 43.23,-255.71 53.65,-257.66 52.59,-250.74"/>
</a>
</g>
</g>
<!-- Node13 -->
<g id="Node000013" class="node">
<title>Node13</title>
<g id="a_Node000013"><a xlink:href="class_o_c_a_1_1_c_a_f_e_v_d_b_1_1_events_1_1_post_change_registration_confirmation.html" target="_top" xlink:title="ORM &#45;&gt; cloud event forwarding.">
<polygon fill="white" stroke="#666666" points="255.5,-203 77.5,-203 77.5,-183 255.5,-183 255.5,-203"/>
<text text-anchor="middle" x="166.5" y="-189.5" font-family="Helvetica,sans-Serif" font-size="10.00">PostChangeRegistrationConfirmation</text>
</a>
</g>
</g>
<!-- Node0&#45;&gt;Node13 -->
<g id="edge268_Node000000_Node000013" class="edge">
<title>Node0&#45;&gt;Node13</title>
<g id="a_edge268_Node000000_Node000013"><a xlink:title=" ">
<path fill="none" stroke="#63b8ff" d="M39,-240.59C49.27,-230.68 63.09,-219.08 77.5,-212 84.51,-208.55 92.15,-205.73 99.89,-203.42"/>
<polygon fill="#63b8ff" stroke="#63b8ff" points="36.58,-238.06 32.02,-247.62 41.55,-242.99 36.58,-238.06"/>
</a>
</g>
</g>
<!-- Node14 -->
<g id="Node000014" class="node">
<title>Node14</title>
<g id="a_Node000014"><a xlink:href="class_o_c_a_1_1_c_a_f_e_v_d_b_1_1_events_1_1_post_change_sepa_bulk_transaction_submit_date.html" target="_top" xlink:title="Event fired by the Musician entity through a life&#45;cycle hook after the bulkTransaction address is cha...">
<polygon fill="white" stroke="#666666" points="248,-165 85,-165 85,-133 248,-133 248,-165"/>
<text text-anchor="start" x="93" y="-151.5" font-family="Helvetica,sans-Serif" font-size="10.00">PostChangeSepaBulkTransaction</text>
<text text-anchor="middle" x="166.5" y="-139.5" font-family="Helvetica,sans-Serif" font-size="10.00">SubmitDate</text>
</a>
</g>
</g>
<!-- Node0&#45;&gt;Node14 -->
<g id="edge269_Node000000_Node000014" class="edge">
<title>Node0&#45;&gt;Node14</title>
<g id="a_edge269_Node000000_Node000014"><a xlink:title=" ">
<path fill="none" stroke="#63b8ff" d="M30.25,-238.15C39.21,-218.75 55.13,-190.43 77.5,-174 81.98,-170.71 86.88,-167.85 92,-165.37"/>
<polygon fill="#63b8ff" stroke="#63b8ff" points="27.07,-236.69 26.29,-247.25 33.49,-239.48 27.07,-236.69"/>
</a>
</g>
</g>
<!-- Node15 -->
<g id="Node000015" class="node">
<title>Node15</title>
<g id="a_Node000015"><a xlink:href="class_o_c_a_1_1_c_a_f_e_v_d_b_1_1_events_1_1_pre_change_registration_confirmation.html" target="_top" xlink:title="ORM &#45;&gt; cloud event forwarder.">
<polygon fill="white" stroke="#666666" points="252.88,-115 80.12,-115 80.12,-95 252.88,-95 252.88,-115"/>
<text text-anchor="middle" x="166.5" y="-101.5" font-family="Helvetica,sans-Serif" font-size="10.00">PreChangeRegistrationConfirmation</text>
</a>
</g>
</g>
<!-- Node0&#45;&gt;Node15 -->
<g id="edge270_Node000000_Node000015" class="edge">
<title>Node0&#45;&gt;Node15</title>
<g id="a_edge270_Node000000_Node000015"><a xlink:title=" ">
<path fill="none" stroke="#63b8ff" d="M24.43,-237.35C29.36,-207.2 42.76,-153.02 77.5,-124 81.58,-120.59 86.13,-117.76 90.95,-115.4"/>
<polygon fill="#63b8ff" stroke="#63b8ff" points="20.98,-236.76 23.02,-247.16 27.91,-237.76 20.98,-236.76"/>
</a>
</g>
</g>
<!-- Node16 -->
<g id="Node000016" class="node">
<title>Node16</title>
<g id="a_Node000016"><a xlink:href="class_o_c_a_1_1_c_a_f_e_v_d_b_1_1_events_1_1_project_event.html" target="_top" xlink:title="Base class for project events.">
<polygon fill="white" stroke="#666666" points="202.62,-77 130.38,-77 130.38,-57 202.62,-57 202.62,-77"/>
<text text-anchor="middle" x="166.5" y="-63.5" font-family="Helvetica,sans-Serif" font-size="10.00">ProjectEvent</text>
</a>
</g>
</g>
<!-- Node0&#45;&gt;Node16 -->
<g id="edge271_Node000000_Node000016" class="edge">
<title>Node0&#45;&gt;Node16</title>
<g id="a_edge271_Node000000_Node000016"><a xlink:title=" ">
<path fill="none" stroke="#63b8ff" d="M22.16,-237.21C24.09,-200.34 33.56,-125.79 77.5,-86 91.63,-73.2 112.28,-68.29 130.03,-66.65"/>
<polygon fill="#63b8ff" stroke="#63b8ff" points="18.67,-236.93 21.8,-247.05 25.66,-237.18 18.67,-236.93"/>
</a>
</g>
</g>
<!-- Node17 -->
<g id="Node000017" class="node">
<title>Node17</title>
<g id="a_Node000017"><a xlink:href="class_o_c_a_1_1_c_a_f_e_v_d_b_1_1_events_1_1_project_updated_event.html" target="_top" xlink:title="Dispatched after flushing entities to the data&#45;base, but before the final commit.">
<polygon fill="white" stroke="#666666" points="221,-39 112,-39 112,-19 221,-19 221,-39"/>
<text text-anchor="middle" x="166.5" y="-25.5" font-family="Helvetica,sans-Serif" font-size="10.00">ProjectUpdatedEvent</text>
</a>
</g>
</g>
<!-- Node0&#45;&gt;Node17 -->
<g id="edge272_Node000000_Node000017" class="edge">
<title>Node0&#45;&gt;Node17</title>
<g id="a_edge272_Node000000_Node000017"><a xlink:title=" ">
<path fill="none" stroke="#63b8ff" d="M24.59,-237.3C31.38,-188.89 50.02,-74.25 77.5,-48 86.77,-39.15 99.13,-34.02 111.65,-31.13"/>
<polygon fill="#63b8ff" stroke="#63b8ff" points="21.14,-236.7 23.27,-247.08 28.08,-237.65 21.14,-236.7"/>
</a>
</g>
</g>
<!-- Node7 -->
<g id="Node000007" class="node">
<title>Node7</title>
<g id="a_Node000007"><a xlink:href="class_o_c_a_1_1_c_a_f_e_v_d_b_1_1_events_1_1_post_change_musician_email.html" target="_top" xlink:title="Event fired by the Musician entity through a life&#45;cycle hook after the email address is changed.">
<polygon fill="white" stroke="#666666" points="426.75,-367 293,-367 293,-347 426.75,-347 426.75,-367"/>
<text text-anchor="middle" x="359.88" y="-353.5" font-family="Helvetica,sans-Serif" font-size="10.00">PostChangeMusicianEmail</text>
</a>
</g>
</g>
<!-- Node6&#45;&gt;Node7 -->
<g id="edge262_Node000006_Node000007" class="edge">
<title>Node6&#45;&gt;Node7</title>
<g id="a_edge262_Node000006_Node000007"><a xlink:title=" ">
<path fill="none" stroke="#63b8ff" d="M230.3,-289.68C239.08,-292.27 247.74,-295.63 255.5,-300 275.78,-311.41 271.59,-325.97 291.5,-338 297.12,-341.39 303.36,-344.2 309.72,-346.52"/>
<polygon fill="#63b8ff" stroke="#63b8ff" points="231.2,-286.3 220.64,-287.17 229.44,-293.07 231.2,-286.3"/>
</a>
</g>
</g>
<!-- Node8 -->
<g id="Node000008" class="node">
<title>Node8</title>
<g id="a_Node000008"><a xlink:href="class_o_c_a_1_1_c_a_f_e_v_d_b_1_1_events_1_1_post_persist_musician_email.html" target="_top" xlink:title="Event fired by the Musician entity through a life&#45;cycle hook after a new email address has been persi...">
<polygon fill="white" stroke="#666666" points="425.25,-329 294.5,-329 294.5,-309 425.25,-309 425.25,-329"/>
<text text-anchor="middle" x="359.88" y="-315.5" font-family="Helvetica,sans-Serif" font-size="10.00">PostPersistMusicianEmail</text>
</a>
</g>
</g>
<!-- Node6&#45;&gt;Node8 -->
<g id="edge263_Node000006_Node000008" class="edge">
<title>Node6&#45;&gt;Node8</title>
<g id="a_edge263_Node000006_Node000008"><a xlink:title=" ">
<path fill="none" stroke="#63b8ff" d="M230.54,-293.52C255.04,-298.38 282.77,-303.89 306.18,-308.54"/>
<polygon fill="#63b8ff" stroke="#63b8ff" points="231.52,-290.14 221.03,-291.63 230.15,-297.01 231.52,-290.14"/>
</a>
</g>
</g>
<!-- Node9 -->
<g id="Node000009" class="node">
<title>Node9</title>
<g id="a_Node000009"><a xlink:href="class_o_c_a_1_1_c_a_f_e_v_d_b_1_1_events_1_1_post_remove_musician_email.html" target="_top" xlink:title="Event fired by the Musician entity through a life&#45;cycle hook after the email address is changed.">
<polygon fill="white" stroke="#666666" points="428.25,-291 291.5,-291 291.5,-271 428.25,-271 428.25,-291"/>
<text text-anchor="middle" x="359.88" y="-277.5" font-family="Helvetica,sans-Serif" font-size="10.00">PostRemoveMusicianEmail</text>
</a>
</g>
</g>
<!-- Node6&#45;&gt;Node9 -->
<g id="edge264_Node000006_Node000009" class="edge">
<title>Node6&#45;&gt;Node9</title>
<g id="a_edge264_Node000006_Node000009"><a xlink:title=" ">
<path fill="none" stroke="#63b8ff" d="M230.94,-281C250.22,-281 271.47,-281 291.02,-281"/>
<polygon fill="#63b8ff" stroke="#63b8ff" points="231.05,-277.5 221.05,-281 231.05,-284.5 231.05,-277.5"/>
</a>
</g>
</g>
<!-- Node10 -->
<g id="Node000010" class="node">
<title>Node10</title>
<g id="a_Node000010"><a xlink:href="class_o_c_a_1_1_c_a_f_e_v_d_b_1_1_events_1_1_pre_persist_musician_email.html" target="_top" xlink:title="Event fired by the Musician entity through a life&#45;cycle hook after a new email address has been persi...">
<polygon fill="white" stroke="#666666" points="422.62,-253 297.12,-253 297.12,-233 422.62,-233 422.62,-253"/>
<text text-anchor="middle" x="359.88" y="-239.5" font-family="Helvetica,sans-Serif" font-size="10.00">PrePersistMusicianEmail</text>
</a>
</g>
</g>
<!-- Node6&#45;&gt;Node10 -->
<g id="edge265_Node000006_Node000010" class="edge">
<title>Node6&#45;&gt;Node10</title>
<g id="a_edge265_Node000006_Node000010"><a xlink:title=" ">
<path fill="none" stroke="#63b8ff" d="M230.54,-268.48C255.04,-263.62 282.77,-258.11 306.18,-253.46"/>
<polygon fill="#63b8ff" stroke="#63b8ff" points="230.15,-264.99 221.03,-270.37 231.52,-271.86 230.15,-264.99"/>
</a>
</g>
</g>
<!-- Node11 -->
<g id="Node000011" class="node">
<title>Node11</title>
<g id="a_Node000011"><a xlink:href="class_o_c_a_1_1_c_a_f_e_v_d_b_1_1_events_1_1_pre_remove_musician_email.html" target="_top" xlink:title="Event fired by the Musician entity through a life&#45;cycle hook after the email address is changed.">
<polygon fill="white" stroke="#666666" points="425.62,-215 294.12,-215 294.12,-195 425.62,-195 425.62,-215"/>
<text text-anchor="middle" x="359.88" y="-201.5" font-family="Helvetica,sans-Serif" font-size="10.00">PreRemoveMusicianEmail</text>
</a>
</g>
</g>
<!-- Node6&#45;&gt;Node11 -->
<g id="edge266_Node000006_Node000011" class="edge">
<title>Node6&#45;&gt;Node11</title>
<g id="a_edge266_Node000006_Node000011"><a xlink:title=" ">
<path fill="none" stroke="#63b8ff" d="M230.3,-272.32C239.08,-269.73 247.74,-266.37 255.5,-262 275.78,-250.59 271.59,-236.03 291.5,-224 297.12,-220.61 303.36,-217.8 309.72,-215.48"/>
<polygon fill="#63b8ff" stroke="#63b8ff" points="229.44,-268.93 220.64,-274.83 231.2,-275.7 229.44,-268.93"/>
</a>
</g>
</g>
<!-- Node18 -->
<g id="Node000018" class="node">
<title>Node18</title>
<g id="a_Node000018"><a xlink:href="class_o_c_a_1_1_c_a_f_e_v_d_b_1_1_events_1_1_post_project_updated_event.html" target="_top" xlink:title="Dispatched after flushing entities to the data&#45;base, but before the final commit.">
<polygon fill="white" stroke="#666666" points="424.5,-58 295.25,-58 295.25,-38 424.5,-38 424.5,-58"/>
<text text-anchor="middle" x="359.88" y="-44.5" font-family="Helvetica,sans-Serif" font-size="10.00">PostProjectUpdatedEvent</text>
</a>
</g>
</g>
<!-- Node17&#45;&gt;Node18 -->
<g id="edge273_Node000017_Node000018" class="edge">
<title>Node17&#45;&gt;Node18</title>
<g id="a_edge273_Node000017_Node000018"><a xlink:title=" ">
<path fill="none" stroke="#63b8ff" d="M232.59,-35.46C252.73,-37.46 274.89,-39.66 294.95,-41.65"/>
<polygon fill="#63b8ff" stroke="#63b8ff" points="233.12,-32 222.82,-34.49 232.43,-38.96 233.12,-32"/>
</a>
</g>
</g>
<!-- Node19 -->
<g id="Node000019" class="node">
<title>Node19</title>
<g id="a_Node000019"><a xlink:href="class_o_c_a_1_1_c_a_f_e_v_d_b_1_1_events_1_1_pre_project_updated_event.html" target="_top" xlink:title="Dispatched before flushing entities to the data&#45;base.">
<polygon fill="white" stroke="#666666" points="421.88,-20 297.88,-20 297.88,0 421.88,0 421.88,-20"/>
<text text-anchor="middle" x="359.88" y="-6.5" font-family="Helvetica,sans-Serif" font-size="10.00">PreProjectUpdatedEvent</text>
</a>
</g>
</g>
<!-- Node17&#45;&gt;Node19 -->
<g id="edge274_Node000017_Node000019" class="edge">
<title>Node17&#45;&gt;Node19</title>
<g id="a_edge274_Node000017_Node000019"><a xlink:title=" ">
<path fill="none" stroke="#63b8ff" d="M232.74,-22.52C253.77,-20.43 276.99,-18.13 297.71,-16.07"/>
<polygon fill="#63b8ff" stroke="#63b8ff" points="232.43,-19.04 222.82,-23.51 233.12,-26 232.43,-19.04"/>
</a>
</g>
</g>
</g>
</svg>
