<?xml version="1.0" encoding="UTF-8" standalone="no"?>
<!DOCTYPE svg PUBLIC "-//W3C//DTD SVG 1.1//EN"
 "http://www.w3.org/Graphics/SVG/1.1/DTD/svg11.dtd">
<!-- Generated by graphviz version 8.0.3 (20230416.2022)
 -->
<!-- Title: Graphical Class Hierarchy Pages: 1 -->
<svg width="334pt" height="27pt"
 viewBox="0.00 0.00 334.00 27.00" xmlns="http://www.w3.org/2000/svg" xmlns:xlink="http://www.w3.org/1999/xlink">
<g id="graph0" class="graph" transform="scale(1 1) rotate(0) translate(4 23)">
<title>Graphical Class Hierarchy</title>
<!-- Node0 -->
<g id="node1" class="node">
<title>Node0</title>
<g id="a_node1"><a xlink:href="interface_o_c_a_1_1_c_a_f_e_v_d_b_1_1_maintenance_1_1_i_sanitizer.html" target="_top" xlink:title="&quot;Sanitizers&quot; are snippets of code which perform a task on a given single entity (although this may me...">
<polygon fill="white" stroke="#666666" points="58,-19 0,-19 0,0 58,0 58,-19"/>
<text text-anchor="middle" x="29" y="-7" font-family="Helvetica,sans-Serif" font-size="10.00">ISanitizer</text>
</a>
</g>
</g>
<!-- Node1 -->
<g id="node2" class="node">
<title>Node1</title>
<g id="a_node2"><a xlink:href="class_o_c_a_1_1_c_a_f_e_v_d_b_1_1_maintenance_1_1_sanitizers_1_1_abstract_sanitizer.html" target="_top" xlink:title="Add part of shared contents to the interface.">
<polygon fill="white" stroke="#666666" points="186,-19 94,-19 94,0 186,0 186,-19"/>
<text text-anchor="middle" x="140" y="-7" font-family="Helvetica,sans-Serif" font-size="10.00">AbstractSanitizer</text>
</a>
</g>
</g>
<!-- Node0&#45;&gt;Node1 -->
<g id="edge1" class="edge">
<title>Node0&#45;&gt;Node1</title>
<path fill="none" stroke="#63b8ff" d="M69.26,-9.5C77.25,-9.5 85.72,-9.5 93.9,-9.5"/>
<polygon fill="#63b8ff" stroke="#63b8ff" points="69.35,-6 59.35,-9.5 69.35,-13 69.35,-6"/>
</g>
<!-- Node2 -->
<g id="node3" class="node">
<title>Node2</title>
<g id="a_node3"><a xlink:href="class_o_c_a_1_1_c_a_f_e_v_d_b_1_1_maintenance_1_1_sanitizers_1_1_google_mail_sanitizer.html" target="_top" xlink:title="See that we always have both, some@gmail.com as well as some@googlemail.com.">
<polygon fill="white" stroke="#666666" points="326,-19 222,-19 222,0 326,0 326,-19"/>
<text text-anchor="middle" x="274" y="-7" font-family="Helvetica,sans-Serif" font-size="10.00">GoogleMailSanitizer</text>
</a>
</g>
</g>
<!-- Node1&#45;&gt;Node2 -->
<g id="edge2" class="edge">
<title>Node1&#45;&gt;Node2</title>
<path fill="none" stroke="#63b8ff" d="M197.27,-9.5C205.35,-9.5 213.62,-9.5 221.6,-9.5"/>
<polygon fill="#63b8ff" stroke="#63b8ff" points="197.43,-6 187.43,-9.5 197.43,-13 197.43,-6"/>
</g>
</g>
</svg>
