<?xml version="1.0" encoding="UTF-8" standalone="no"?>
<!DOCTYPE svg PUBLIC "-//W3C//DTD SVG 1.1//EN"
 "http://www.w3.org/Graphics/SVG/1.1/DTD/svg11.dtd">
<!-- Generated by graphviz version 9.0.0 (20230911.1827)
 -->
<!-- Title: Graphical Class Hierarchy Pages: 1 -->
<svg width="527pt" height="180pt"
 viewBox="0.00 0.00 527.25 180.00" xmlns="http://www.w3.org/2000/svg" xmlns:xlink="http://www.w3.org/1999/xlink">
<g id="graph0" class="graph" transform="scale(1 1) rotate(0) translate(4 176)">
<title>Graphical Class Hierarchy</title>
<!-- Node0 -->
<g id="Node000000" class="node">
<title>Node0</title>
<g id="a_Node000000"><a xlink:title=" ">
<polygon fill="#e0e0e0" stroke="#999999" points="59.5,-77 0,-77 0,-57 59.5,-57 59.5,-77"/>
<text text-anchor="middle" x="29.75" y="-63.5" font-family="Helvetica,sans-Serif" font-size="10.00">Exception</text>
</a>
</g>
</g>
<!-- Node1 -->
<g id="Node000001" class="node">
<title>Node1</title>
<g id="a_Node000001"><a xlink:href="class_o_c_a_1_1_c_a_f_e_v_d_b_1_1_toolkit_1_1_exceptions_1_1_exception.html" target="_top" xlink:title="Exception class abstaction.">
<polygon fill="white" stroke="#666666" points="155,-77 95.5,-77 95.5,-57 155,-57 155,-77"/>
<text text-anchor="middle" x="125.25" y="-63.5" font-family="Helvetica,sans-Serif" font-size="10.00">Exception</text>
</a>
</g>
</g>
<!-- Node0&#45;&gt;Node1 -->
<g id="edge275_Node000000_Node000001" class="edge">
<title>Node0&#45;&gt;Node1</title>
<g id="a_edge275_Node000000_Node000001"><a xlink:title=" ">
<path fill="none" stroke="#63b8ff" d="M71.31,-67C79.35,-67 87.63,-67 95.2,-67"/>
<polygon fill="#63b8ff" stroke="#63b8ff" points="71.34,-63.5 61.33,-67 71.33,-70.5 71.34,-63.5"/>
</a>
</g>
</g>
<!-- Node2 -->
<g id="Node000002" class="node">
<title>Node2</title>
<g id="a_Node000002"><a xlink:href="class_o_c_a_1_1_c_a_f_e_v_d_b_1_1_toolkit_1_1_exceptions_1_1_archive_exception.html" target="_top" xlink:title="Transparent archive extraction exception.">
<polygon fill="white" stroke="#666666" points="309.75,-134 217.25,-134 217.25,-114 309.75,-114 309.75,-134"/>
<text text-anchor="middle" x="263.5" y="-120.5" font-family="Helvetica,sans-Serif" font-size="10.00">ArchiveException</text>
</a>
</g>
</g>
<!-- Node1&#45;&gt;Node2 -->
<g id="edge276_Node000001_Node000002" class="edge">
<title>Node1&#45;&gt;Node2</title>
<g id="a_edge276_Node000001_Node000002"><a xlink:title=" ">
<path fill="none" stroke="#63b8ff" d="M150.88,-83.59C162.63,-90.94 177.14,-99.22 191,-105 199.18,-108.41 208.14,-111.37 216.88,-113.86"/>
<polygon fill="#63b8ff" stroke="#63b8ff" points="152.91,-80.73 142.61,-78.27 149.12,-86.62 152.91,-80.73"/>
</a>
</g>
</g>
<!-- Node6 -->
<g id="Node000006" class="node">
<title>Node6</title>
<g id="a_Node000006"><a xlink:href="class_o_c_a_1_1_c_a_f_e_v_d_b_1_1_toolkit_1_1_exceptions_1_1_authorization_exception.html" target="_top" xlink:title="Thrown to signal that somethings needs additional authorization.">
<polygon fill="white" stroke="#666666" points="321.75,-96 205.25,-96 205.25,-76 321.75,-76 321.75,-96"/>
<text text-anchor="middle" x="263.5" y="-82.5" font-family="Helvetica,sans-Serif" font-size="10.00">AuthorizationException</text>
</a>
</g>
</g>
<!-- Node1&#45;&gt;Node6 -->
<g id="edge280_Node000001_Node000006" class="edge">
<title>Node1&#45;&gt;Node6</title>
<g id="a_edge280_Node000001_Node000006"><a xlink:title=" ">
<path fill="none" stroke="#63b8ff" d="M166.55,-72.62C178.6,-74.3 192.06,-76.18 205,-77.98"/>
<polygon fill="#63b8ff" stroke="#63b8ff" points="167.37,-69.2 156.98,-71.29 166.4,-76.13 167.37,-69.2"/>
</a>
</g>
</g>
<!-- Node7 -->
<g id="Node000007" class="node">
<title>Node7</title>
<g id="a_Node000007"><a xlink:href="class_o_c_a_1_1_c_a_f_e_v_d_b_1_1_toolkit_1_1_exceptions_1_1_enduser_notification_exception.html" target="_top" xlink:title="This exception should provide an error message which informs an end&#45;user about an error.">
<polygon fill="white" stroke="#666666" points="336,-58 191,-58 191,-38 336,-38 336,-58"/>
<text text-anchor="middle" x="263.5" y="-44.5" font-family="Helvetica,sans-Serif" font-size="10.00">EnduserNotificationException</text>
</a>
</g>
</g>
<!-- Node1&#45;&gt;Node7 -->
<g id="edge281_Node000001_Node000007" class="edge">
<title>Node1&#45;&gt;Node7</title>
<g id="a_edge281_Node000001_Node000007"><a xlink:title=" ">
<path fill="none" stroke="#63b8ff" d="M166.87,-61.34C174.45,-60.28 182.57,-59.15 190.77,-58"/>
<polygon fill="#63b8ff" stroke="#63b8ff" points="166.4,-57.87 156.98,-62.71 167.37,-64.8 166.4,-57.87"/>
</a>
</g>
</g>
<!-- Node8 -->
<g id="Node000008" class="node">
<title>Node8</title>
<g id="a_Node000008"><a xlink:href="class_o_c_a_1_1_c_a_f_e_v_d_b_1_1_toolkit_1_1_exceptions_1_1_php_session_exception.html" target="_top" xlink:title="Thrown if there is something wrong with the access to the PHP session.">
<polygon fill="white" stroke="#666666" points="319.5,-20 207.5,-20 207.5,0 319.5,0 319.5,-20"/>
<text text-anchor="middle" x="263.5" y="-6.5" font-family="Helvetica,sans-Serif" font-size="10.00">PhpSessionException</text>
</a>
</g>
</g>
<!-- Node1&#45;&gt;Node8 -->
<g id="edge282_Node000001_Node000008" class="edge">
<title>Node1&#45;&gt;Node8</title>
<g id="a_edge282_Node000001_Node000008"><a xlink:title=" ">
<path fill="none" stroke="#63b8ff" d="M150.88,-50.41C162.63,-43.06 177.14,-34.78 191,-29 198.82,-25.74 207.37,-22.89 215.74,-20.47"/>
<polygon fill="#63b8ff" stroke="#63b8ff" points="149.12,-47.38 142.61,-55.73 152.91,-53.27 149.12,-47.38"/>
</a>
</g>
</g>
<!-- Node3 -->
<g id="Node000003" class="node">
<title>Node3</title>
<g id="a_Node000003"><a xlink:href="class_o_c_a_1_1_c_a_f_e_v_d_b_1_1_toolkit_1_1_exceptions_1_1_archive_cannot_open_exception.html" target="_top" xlink:title="Transparent archive extraction exception.">
<polygon fill="white" stroke="#666666" points="519.25,-172 372,-172 372,-152 519.25,-152 519.25,-172"/>
<text text-anchor="middle" x="445.62" y="-158.5" font-family="Helvetica,sans-Serif" font-size="10.00">ArchiveCannotOpenException</text>
</a>
</g>
</g>
<!-- Node2&#45;&gt;Node3 -->
<g id="edge277_Node000002_Node000003" class="edge">
<title>Node2&#45;&gt;Node3</title>
<g id="a_edge277_Node000002_Node000003"><a xlink:title=" ">
<path fill="none" stroke="#63b8ff" d="M320.94,-135.91C344.7,-140.92 372.1,-146.7 395.07,-151.55"/>
<polygon fill="#63b8ff" stroke="#63b8ff" points="321.94,-132.54 311.43,-133.9 320.5,-139.39 321.94,-132.54"/>
</a>
</g>
</g>
<!-- Node4 -->
<g id="Node000004" class="node">
<title>Node4</title>
<g id="a_Node000004"><a xlink:href="class_o_c_a_1_1_c_a_f_e_v_d_b_1_1_toolkit_1_1_exceptions_1_1_archive_not_open_exception.html" target="_top" xlink:title="Transparent archive extraction exception.">
<polygon fill="white" stroke="#666666" points="511.38,-134 379.88,-134 379.88,-114 511.38,-114 511.38,-134"/>
<text text-anchor="middle" x="445.62" y="-120.5" font-family="Helvetica,sans-Serif" font-size="10.00">ArchiveNotOpenException</text>
</a>
</g>
</g>
<!-- Node2&#45;&gt;Node4 -->
<g id="edge278_Node000002_Node000004" class="edge">
<title>Node2&#45;&gt;Node4</title>
<g id="a_edge278_Node000002_Node000004"><a xlink:title=" ">
<path fill="none" stroke="#63b8ff" d="M321.42,-124C339.86,-124 360.46,-124 379.45,-124"/>
<polygon fill="#63b8ff" stroke="#63b8ff" points="321.47,-120.5 311.47,-124 321.47,-127.5 321.47,-120.5"/>
</a>
</g>
</g>
<!-- Node5 -->
<g id="Node000005" class="node">
<title>Node5</title>
<g id="a_Node000005"><a xlink:href="class_o_c_a_1_1_c_a_f_e_v_d_b_1_1_toolkit_1_1_exceptions_1_1_archive_too_large_exception.html" target="_top" xlink:title="Transparent archive extraction exception.">
<polygon fill="white" stroke="#666666" points="511.75,-96 379.5,-96 379.5,-76 511.75,-76 511.75,-96"/>
<text text-anchor="middle" x="445.62" y="-82.5" font-family="Helvetica,sans-Serif" font-size="10.00">ArchiveTooLargeException</text>
</a>
</g>
</g>
<!-- Node2&#45;&gt;Node5 -->
<g id="edge279_Node000002_Node000005" class="edge">
<title>Node2&#45;&gt;Node5</title>
<g id="a_edge279_Node000002_Node000005"><a xlink:title=" ">
<path fill="none" stroke="#63b8ff" d="M320.94,-112.09C344.7,-107.08 372.1,-101.3 395.07,-96.45"/>
<polygon fill="#63b8ff" stroke="#63b8ff" points="320.5,-108.61 311.43,-114.1 321.94,-115.46 320.5,-108.61"/>
</a>
</g>
</g>
<!-- Node9 -->
<g id="Node000009" class="node">
<title>Node9</title>
<g id="a_Node000009"><a xlink:href="class_o_c_a_1_1_c_a_f_e_v_d_b_1_1_toolkit_1_1_exceptions_1_1_session_still_open_exception.html" target="_top" xlink:title=" ">
<polygon fill="white" stroke="#666666" points="512.88,-20 378.38,-20 378.38,0 512.88,0 512.88,-20"/>
<text text-anchor="middle" x="445.62" y="-6.5" font-family="Helvetica,sans-Serif" font-size="10.00">SessionStillOpenException</text>
</a>
</g>
</g>
<!-- Node8&#45;&gt;Node9 -->
<g id="edge283_Node000008_Node000009" class="edge">
<title>Node8&#45;&gt;Node9</title>
<g id="a_edge283_Node000008_Node000009"><a xlink:title=" ">
<path fill="none" stroke="#63b8ff" d="M331,-10C346.3,-10 362.57,-10 377.88,-10"/>
<polygon fill="#63b8ff" stroke="#63b8ff" points="331.04,-6.5 321.04,-10 331.04,-13.5 331.04,-6.5"/>
</a>
</g>
</g>
</g>
</svg>
