<?xml version="1.0" encoding="UTF-8" standalone="no"?>
<!DOCTYPE svg PUBLIC "-//W3C//DTD SVG 1.1//EN"
 "http://www.w3.org/Graphics/SVG/1.1/DTD/svg11.dtd">
<!-- Generated by graphviz version 9.0.0 (20230911.1827)
 -->
<!-- Title: Graphical Class Hierarchy Pages: 1 -->
<svg width="331pt" height="28pt"
 viewBox="0.00 0.00 331.25 28.00" xmlns="http://www.w3.org/2000/svg" xmlns:xlink="http://www.w3.org/1999/xlink">
<g id="graph0" class="graph" transform="scale(1 1) rotate(0) translate(4 24)">
<title>Graphical Class Hierarchy</title>
<!-- Node0 -->
<g id="Node000000" class="node">
<title>Node0</title>
<g id="a_Node000000"><a xlink:href="interface_o_c_a_1_1_c_a_f_e_v_d_b_1_1_maintenance_1_1_i_sanitizer.html" target="_top" xlink:title="&quot;Sanitizers&quot; are snippets of code which perform a task on a given single entity (although this may me...">
<polygon fill="white" stroke="#666666" points="57.25,-20 0,-20 0,0 57.25,0 57.25,-20"/>
<text text-anchor="middle" x="28.62" y="-6.5" font-family="Helvetica,sans-Serif" font-size="10.00">ISanitizer</text>
</a>
</g>
</g>
<!-- Node1 -->
<g id="Node000001" class="node">
<title>Node1</title>
<g id="a_Node000001"><a xlink:href="class_o_c_a_1_1_c_a_f_e_v_d_b_1_1_maintenance_1_1_sanitizers_1_1_abstract_sanitizer.html" target="_top" xlink:title="Add part of shared contents to the interface.">
<polygon fill="white" stroke="#666666" points="184.25,-20 93.25,-20 93.25,0 184.25,0 184.25,-20"/>
<text text-anchor="middle" x="138.75" y="-6.5" font-family="Helvetica,sans-Serif" font-size="10.00">AbstractSanitizer</text>
</a>
</g>
</g>
<!-- Node0&#45;&gt;Node1 -->
<g id="edge397_Node000000_Node000001" class="edge">
<title>Node0&#45;&gt;Node1</title>
<g id="a_edge397_Node000000_Node000001"><a xlink:title=" ">
<path fill="none" stroke="#63b8ff" d="M68.84,-10C76.62,-10 84.85,-10 92.8,-10"/>
<polygon fill="#63b8ff" stroke="#63b8ff" points="68.98,-6.5 58.98,-10 68.98,-13.5 68.98,-6.5"/>
</a>
</g>
</g>
<!-- Node2 -->
<g id="Node000002" class="node">
<title>Node2</title>
<g id="a_Node000002"><a xlink:href="class_o_c_a_1_1_c_a_f_e_v_d_b_1_1_maintenance_1_1_sanitizers_1_1_google_mail_sanitizer.html" target="_top" xlink:title="See that we always have both, some@gmail.com as well as some@googlemail.com.">
<polygon fill="white" stroke="#666666" points="323.25,-20 220.25,-20 220.25,0 323.25,0 323.25,-20"/>
<text text-anchor="middle" x="271.75" y="-6.5" font-family="Helvetica,sans-Serif" font-size="10.00">GoogleMailSanitizer</text>
</a>
</g>
</g>
<!-- Node1&#45;&gt;Node2 -->
<g id="edge398_Node000001_Node000002" class="edge">
<title>Node1&#45;&gt;Node2</title>
<g id="a_edge398_Node000001_Node000002"><a xlink:title=" ">
<path fill="none" stroke="#63b8ff" d="M195.95,-10C203.92,-10 212.07,-10 219.93,-10"/>
<polygon fill="#63b8ff" stroke="#63b8ff" points="195.98,-6.5 185.98,-10 195.98,-13.5 195.98,-6.5"/>
</a>
</g>
</g>
</g>
</svg>
