<?xml version="1.0" encoding="UTF-8" standalone="no"?>
<!DOCTYPE svg PUBLIC "-//W3C//DTD SVG 1.1//EN"
 "http://www.w3.org/Graphics/SVG/1.1/DTD/svg11.dtd">
<!-- Generated by graphviz version 9.0.0 (20230911.1827)
 -->
<!-- Title: Graphical Class Hierarchy Pages: 1 -->
<svg width="307pt" height="66pt"
 viewBox="0.00 0.00 306.50 66.00" xmlns="http://www.w3.org/2000/svg" xmlns:xlink="http://www.w3.org/1999/xlink">
<g id="graph0" class="graph" transform="scale(1 1) rotate(0) translate(4 62)">
<title>Graphical Class Hierarchy</title>
<!-- Node0 -->
<g id="Node000000" class="node">
<title>Node0</title>
<g id="a_Node000000"><a xlink:title=" ">
<polygon fill="#e0e0e0" stroke="#999999" points="62.5,-39 0,-39 0,-19 62.5,-19 62.5,-39"/>
<text text-anchor="middle" x="31.25" y="-25.5" font-family="Helvetica,sans-Serif" font-size="10.00">QBMapper</text>
</a>
</g>
</g>
<!-- Node1 -->
<g id="Node000001" class="node">
<title>Node1</title>
<g id="a_Node000001"><a xlink:href="class_o_c_a_1_1_c_a_f_e_v_d_b_1_1_database_1_1_cloud_1_1_mapper_1_1_mapper.html" target="_top" xlink:title="Common mapper base class.">
<polygon fill="white" stroke="#666666" points="146.75,-39 98.5,-39 98.5,-19 146.75,-19 146.75,-39"/>
<text text-anchor="middle" x="122.62" y="-25.5" font-family="Helvetica,sans-Serif" font-size="10.00">Mapper</text>
</a>
</g>
</g>
<!-- Node0&#45;&gt;Node1 -->
<g id="edge439_Node000000_Node000001" class="edge">
<title>Node0&#45;&gt;Node1</title>
<g id="a_edge439_Node000000_Node000001"><a xlink:title=" ">
<path fill="none" stroke="#63b8ff" d="M74.15,-29C82.35,-29 90.68,-29 98.02,-29"/>
<polygon fill="#63b8ff" stroke="#63b8ff" points="74.27,-25.5 64.27,-29 74.27,-32.5 74.27,-25.5"/>
</a>
</g>
</g>
<!-- Node2 -->
<g id="Node000002" class="node">
<title>Node2</title>
<g id="a_Node000002"><a xlink:href="class_o_c_a_1_1_c_a_f_e_v_d_b_1_1_database_1_1_cloud_1_1_mapper_1_1_blog_mapper.html" target="_top" xlink:title="Mapper for the blog entities.">
<polygon fill="white" stroke="#666666" points="274.5,-58 206.75,-58 206.75,-38 274.5,-38 274.5,-58"/>
<text text-anchor="middle" x="240.62" y="-44.5" font-family="Helvetica,sans-Serif" font-size="10.00">BlogMapper</text>
</a>
</g>
</g>
<!-- Node1&#45;&gt;Node2 -->
<g id="edge440_Node000001_Node000002" class="edge">
<title>Node1&#45;&gt;Node2</title>
<g id="a_edge440_Node000001_Node000002"><a xlink:title=" ">
<path fill="none" stroke="#63b8ff" d="M158.2,-34.66C173.49,-37.17 191.39,-40.1 206.52,-42.58"/>
<polygon fill="#63b8ff" stroke="#63b8ff" points="159.03,-31.25 148.59,-33.09 157.9,-38.16 159.03,-31.25"/>
</a>
</g>
</g>
<!-- Node3 -->
<g id="Node000003" class="node">
<title>Node3</title>
<g id="a_Node000003"><a xlink:href="class_o_c_a_1_1_c_a_f_e_v_d_b_1_1_database_1_1_cloud_1_1_mapper_1_1_progress_status_mapper.html" target="_top" xlink:title="Mapper for progress status entities.">
<polygon fill="white" stroke="#666666" points="298.5,-20 182.75,-20 182.75,0 298.5,0 298.5,-20"/>
<text text-anchor="middle" x="240.62" y="-6.5" font-family="Helvetica,sans-Serif" font-size="10.00">ProgressStatusMapper</text>
</a>
</g>
</g>
<!-- Node1&#45;&gt;Node3 -->
<g id="edge441_Node000001_Node000003" class="edge">
<title>Node1&#45;&gt;Node3</title>
<g id="a_edge441_Node000001_Node000003"><a xlink:title=" ">
<path fill="none" stroke="#63b8ff" d="M158.2,-23.34C165.9,-22.08 174.27,-20.7 182.61,-19.34"/>
<polygon fill="#63b8ff" stroke="#63b8ff" points="157.9,-19.84 148.59,-24.91 159.03,-26.75 157.9,-19.84"/>
</a>
</g>
</g>
</g>
</svg>
