<?xml version="1.0" encoding="UTF-8" standalone="no"?>
<!DOCTYPE svg PUBLIC "-//W3C//DTD SVG 1.1//EN"
 "http://www.w3.org/Graphics/SVG/1.1/DTD/svg11.dtd">
<!-- Generated by graphviz version 9.0.0 (20230911.1827)
 -->
<!-- Title: Graphical Class Hierarchy Pages: 1 -->
<svg width="361pt" height="28pt"
 viewBox="0.00 0.00 360.50 28.00" xmlns="http://www.w3.org/2000/svg" xmlns:xlink="http://www.w3.org/1999/xlink">
<g id="graph0" class="graph" transform="scale(1 1) rotate(0) translate(4 24)">
<title>Graphical Class Hierarchy</title>
<!-- Node0 -->
<g id="Node000000" class="node">
<title>Node0</title>
<g id="a_Node000000"><a xlink:title=" ">
<polygon fill="#e0e0e0" stroke="#999999" points="62.5,-20 0,-20 0,0 62.5,0 62.5,-20"/>
<text text-anchor="middle" x="31.25" y="-6.5" font-family="Helvetica,sans-Serif" font-size="10.00">QBMapper</text>
</a>
</g>
</g>
<!-- Node1 -->
<g id="Node000001" class="node">
<title>Node1</title>
<g id="a_Node000001"><a xlink:href="class_o_c_a_1_1_c_a_f_e_v_d_b_1_1_database_1_1_cloud_1_1_synchronized.html" target="_top" xlink:title="A synchronized is a tuple of an entity and a mapper which writes all data straight through to the dat...">
<polygon fill="white" stroke="#666666" points="173.75,-20 98.5,-20 98.5,0 173.75,0 173.75,-20"/>
<text text-anchor="middle" x="136.12" y="-6.5" font-family="Helvetica,sans-Serif" font-size="10.00">Synchronized</text>
</a>
</g>
</g>
<!-- Node0&#45;&gt;Node1 -->
<g id="edge437_Node000000_Node000001" class="edge">
<title>Node0&#45;&gt;Node1</title>
<g id="a_edge437_Node000000_Node000001"><a xlink:title=" ">
<path fill="none" stroke="#63b8ff" d="M74.21,-10C82.19,-10 90.49,-10 98.3,-10"/>
<polygon fill="#63b8ff" stroke="#63b8ff" points="74.35,-6.5 64.35,-10 74.35,-13.5 74.35,-6.5"/>
</a>
</g>
</g>
<!-- Node2 -->
<g id="Node000002" class="node">
<title>Node2</title>
<g id="a_Node000002"><a xlink:href="class_o_c_a_1_1_c_a_f_e_v_d_b_1_1_database_1_1_cloud_1_1_synchronized_1_1_synchronized_progress_status.html" target="_top" xlink:title=" ">
<polygon fill="white" stroke="#666666" points="352.5,-20 209.75,-20 209.75,0 352.5,0 352.5,-20"/>
<text text-anchor="middle" x="281.12" y="-6.5" font-family="Helvetica,sans-Serif" font-size="10.00">SynchronizedProgressStatus</text>
</a>
</g>
</g>
<!-- Node1&#45;&gt;Node2 -->
<g id="edge438_Node000001_Node000002" class="edge">
<title>Node1&#45;&gt;Node2</title>
<g id="a_edge438_Node000001_Node000002"><a xlink:title=" ">
<path fill="none" stroke="#63b8ff" d="M185.3,-10C193.02,-10 201.14,-10 209.26,-10"/>
<polygon fill="#63b8ff" stroke="#63b8ff" points="185.46,-6.5 175.46,-10 185.46,-13.5 185.46,-6.5"/>
</a>
</g>
</g>
</g>
</svg>
