<?xml version="1.0" encoding="UTF-8" standalone="no"?>
<!DOCTYPE svg PUBLIC "-//W3C//DTD SVG 1.1//EN"
 "http://www.w3.org/Graphics/SVG/1.1/DTD/svg11.dtd">
<!-- Generated by graphviz version 9.0.0 (20230911.1827)
 -->
<!-- Title: Graphical Class Hierarchy Pages: 1 -->
<svg width="239pt" height="66pt"
 viewBox="0.00 0.00 238.75 66.00" xmlns="http://www.w3.org/2000/svg" xmlns:xlink="http://www.w3.org/1999/xlink">
<g id="graph0" class="graph" transform="scale(1 1) rotate(0) translate(4 62)">
<title>Graphical Class Hierarchy</title>
<!-- Node0 -->
<g id="Node000000" class="node">
<title>Node0</title>
<g id="a_Node000000"><a xlink:title=" ">
<polygon fill="#e0e0e0" stroke="#999999" points="67.75,-39 0,-39 0,-19 67.75,-19 67.75,-39"/>
<text text-anchor="middle" x="33.88" y="-25.5" font-family="Helvetica,sans-Serif" font-size="10.00">IRepairStep</text>
</a>
</g>
</g>
<!-- Node1 -->
<g id="Node000001" class="node">
<title>Node1</title>
<g id="a_Node000001"><a xlink:href="class_o_c_a_1_1_c_a_f_e_v_d_b_1_1_migration_1_1_record_modification_times.html" target="_top" xlink:title="Register some extra mime&#45;types, in particuluar in order to have custom folder icons for the database ...">
<polygon fill="white" stroke="#666666" points="230.75,-58 103.75,-58 103.75,-38 230.75,-38 230.75,-58"/>
<text text-anchor="middle" x="167.25" y="-44.5" font-family="Helvetica,sans-Serif" font-size="10.00">RecordModificationTimes</text>
</a>
</g>
</g>
<!-- Node0&#45;&gt;Node1 -->
<g id="edge395_Node000000_Node000001" class="edge">
<title>Node0&#45;&gt;Node1</title>
<g id="a_edge395_Node000000_Node000001"><a xlink:title=" ">
<path fill="none" stroke="#63b8ff" d="M79.37,-35.44C87.11,-36.55 95.29,-37.74 103.41,-38.91"/>
<polygon fill="#63b8ff" stroke="#63b8ff" points="79.92,-31.98 69.52,-34.01 78.92,-38.91 79.92,-31.98"/>
</a>
</g>
</g>
<!-- Node2 -->
<g id="Node000002" class="node">
<title>Node2</title>
<g id="a_Node000002"><a xlink:href="class_o_c_a_1_1_c_a_f_e_v_d_b_1_1_migration_1_1_register_mime_types.html" target="_top" xlink:title="Register some extra mime&#45;types, in particuluar in order to have custom folder icons for the database ...">
<polygon fill="white" stroke="#666666" points="218.75,-20 115.75,-20 115.75,0 218.75,0 218.75,-20"/>
<text text-anchor="middle" x="167.25" y="-6.5" font-family="Helvetica,sans-Serif" font-size="10.00">RegisterMimeTypes</text>
</a>
</g>
</g>
<!-- Node0&#45;&gt;Node2 -->
<g id="edge396_Node000000_Node000002" class="edge">
<title>Node0&#45;&gt;Node2</title>
<g id="a_edge396_Node000000_Node000002"><a xlink:title=" ">
<path fill="none" stroke="#63b8ff" d="M79.26,-22.58C90.89,-20.9 103.52,-19.07 115.45,-17.35"/>
<polygon fill="#63b8ff" stroke="#63b8ff" points="78.92,-19.09 69.52,-23.99 79.92,-26.02 78.92,-19.09"/>
</a>
</g>
</g>
</g>
</svg>
