<?xml version="1.0" encoding="UTF-8" standalone="no"?>
<!DOCTYPE svg PUBLIC "-//W3C//DTD SVG 1.1//EN"
 "http://www.w3.org/Graphics/SVG/1.1/DTD/svg11.dtd">
<!-- Generated by graphviz version 9.0.0 (20230911.1827)
 -->
<!-- Title: Graphical Class Hierarchy Pages: 1 -->
<svg width="237pt" height="142pt"
 viewBox="0.00 0.00 236.50 142.00" xmlns="http://www.w3.org/2000/svg" xmlns:xlink="http://www.w3.org/1999/xlink">
<g id="graph0" class="graph" transform="scale(1 1) rotate(0) translate(4 138)">
<title>Graphical Class Hierarchy</title>
<!-- Node0 -->
<g id="Node000000" class="node">
<title>Node0</title>
<g id="a_Node000000"><a xlink:title=" ">
<polygon fill="#e0e0e0" stroke="#999999" points="65.5,-77 0,-77 0,-57 65.5,-57 65.5,-77"/>
<text text-anchor="middle" x="32.75" y="-63.5" font-family="Helvetica,sans-Serif" font-size="10.00">Middleware</text>
</a>
</g>
</g>
<!-- Node1 -->
<g id="Node000001" class="node">
<title>Node1</title>
<g id="a_Node000001"><a xlink:href="class_o_c_a_1_1_c_a_f_e_v_d_b_1_1_middleware_1_1_c_s_p_violation_reporting.html" target="_top" xlink:title="Sends CSP reports to a dedicated addresss for debugging.">
<polygon fill="white" stroke="#666666" points="223.25,-134 106.75,-134 106.75,-114 223.25,-114 223.25,-134"/>
<text text-anchor="middle" x="165" y="-120.5" font-family="Helvetica,sans-Serif" font-size="10.00">CSPViolationReporting</text>
</a>
</g>
</g>
<!-- Node0&#45;&gt;Node1 -->
<g id="edge414_Node000000_Node000001" class="edge">
<title>Node0&#45;&gt;Node1</title>
<g id="a_edge414_Node000000_Node000001"><a xlink:title=" ">
<path fill="none" stroke="#63b8ff" d="M59.58,-83.23C71.95,-90.54 87.16,-98.88 101.5,-105 108.91,-108.16 117.01,-111.03 124.86,-113.52"/>
<polygon fill="#63b8ff" stroke="#63b8ff" points="61.61,-80.36 51.24,-78.19 57.99,-86.35 61.61,-80.36"/>
</a>
</g>
</g>
<!-- Node2 -->
<g id="Node000002" class="node">
<title>Node2</title>
<g id="a_Node000002"><a xlink:href="class_o_c_a_1_1_c_a_f_e_v_d_b_1_1_middleware_1_1_config_lock_middleware.html" target="_top" xlink:title="Deny all request while config&#45;lock is active.">
<polygon fill="white" stroke="#666666" points="222.5,-96 107.5,-96 107.5,-76 222.5,-76 222.5,-96"/>
<text text-anchor="middle" x="165" y="-82.5" font-family="Helvetica,sans-Serif" font-size="10.00">ConfigLockMiddleware</text>
</a>
</g>
</g>
<!-- Node0&#45;&gt;Node2 -->
<g id="edge415_Node000000_Node000002" class="edge">
<title>Node0&#45;&gt;Node2</title>
<g id="a_edge415_Node000000_Node000002"><a xlink:title=" ">
<path fill="none" stroke="#63b8ff" d="M77.21,-73.34C86.77,-74.73 97.05,-76.23 107.06,-77.69"/>
<polygon fill="#63b8ff" stroke="#63b8ff" points="77.84,-69.9 67.44,-71.92 76.83,-76.82 77.84,-69.9"/>
</a>
</g>
</g>
<!-- Node3 -->
<g id="Node000003" class="node">
<title>Node3</title>
<g id="a_Node000003"><a xlink:href="class_o_c_a_1_1_c_a_f_e_v_d_b_1_1_middleware_1_1_group_member_middleware.html" target="_top" xlink:title="Verifies whether an user has at least subadmin rights.">
<polygon fill="white" stroke="#666666" points="228.5,-58 101.5,-58 101.5,-38 228.5,-38 228.5,-58"/>
<text text-anchor="middle" x="165" y="-44.5" font-family="Helvetica,sans-Serif" font-size="10.00">GroupMemberMiddleware</text>
</a>
</g>
</g>
<!-- Node0&#45;&gt;Node3 -->
<g id="edge416_Node000000_Node000003" class="edge">
<title>Node0&#45;&gt;Node3</title>
<g id="a_edge416_Node000000_Node000003"><a xlink:title=" ">
<path fill="none" stroke="#63b8ff" d="M77.21,-60.66C84.9,-59.54 93.05,-58.35 101.15,-57.17"/>
<polygon fill="#63b8ff" stroke="#63b8ff" points="76.83,-57.18 67.44,-62.08 77.84,-64.1 76.83,-57.18"/>
</a>
</g>
</g>
<!-- Node4 -->
<g id="Node000004" class="node">
<title>Node4</title>
<g id="a_Node000004"><a xlink:href="class_o_c_a_1_1_c_a_f_e_v_d_b_1_1_middleware_1_1_subadmin_middleware.html" target="_top" xlink:title="Verifies whether an user has at least subadmin rights.">
<polygon fill="white" stroke="#666666" points="219.5,-20 110.5,-20 110.5,0 219.5,0 219.5,-20"/>
<text text-anchor="middle" x="165" y="-6.5" font-family="Helvetica,sans-Serif" font-size="10.00">SubadminMiddleware</text>
</a>
</g>
</g>
<!-- Node0&#45;&gt;Node4 -->
<g id="edge417_Node000000_Node000004" class="edge">
<title>Node0&#45;&gt;Node4</title>
<g id="a_edge417_Node000000_Node000004"><a xlink:title=" ">
<path fill="none" stroke="#63b8ff" d="M59.58,-50.77C71.95,-43.46 87.16,-35.12 101.5,-29 108.91,-25.84 117.01,-22.97 124.86,-20.48"/>
<polygon fill="#63b8ff" stroke="#63b8ff" points="57.99,-47.65 51.24,-55.81 61.61,-53.64 57.99,-47.65"/>
</a>
</g>
</g>
</g>
</svg>
