<?xml version="1.0" encoding="UTF-8" standalone="no"?>
<!DOCTYPE svg PUBLIC "-//W3C//DTD SVG 1.1//EN"
 "http://www.w3.org/Graphics/SVG/1.1/DTD/svg11.dtd">
<!-- Generated by graphviz version 9.0.0 (20230911.1827)
 -->
<!-- Title: Graphical Class Hierarchy Pages: 1 -->
<svg width="202pt" height="66pt"
 viewBox="0.00 0.00 202.00 66.00" xmlns="http://www.w3.org/2000/svg" xmlns:xlink="http://www.w3.org/1999/xlink">
<g id="graph0" class="graph" transform="scale(1 1) rotate(0) translate(4 62)">
<title>Graphical Class Hierarchy</title>
<!-- Node0 -->
<g id="Node000000" class="node">
<title>Node0</title>
<g id="a_Node000000"><a xlink:title=" ">
<polygon fill="#e0e0e0" stroke="#999999" points="70.75,-39 0,-39 0,-19 70.75,-19 70.75,-39"/>
<text text-anchor="middle" x="35.38" y="-25.5" font-family="Helvetica,sans-Serif" font-size="10.00">IIconSection</text>
</a>
</g>
</g>
<!-- Node1 -->
<g id="Node000001" class="node">
<title>Node1</title>
<g id="a_Node000001"><a xlink:href="class_o_c_a_1_1_c_a_f_e_v_d_b_1_1_settings_1_1_admin_section.html" target="_top" xlink:title="Admin settings for the app.">
<polygon fill="white" stroke="#666666" points="188.75,-58 112,-58 112,-38 188.75,-38 188.75,-58"/>
<text text-anchor="middle" x="150.38" y="-44.5" font-family="Helvetica,sans-Serif" font-size="10.00">AdminSection</text>
</a>
</g>
</g>
<!-- Node0&#45;&gt;Node1 -->
<g id="edge334_Node000000_Node000001" class="edge">
<title>Node0&#45;&gt;Node1</title>
<g id="a_edge334_Node000000_Node000001"><a xlink:title=" ">
<path fill="none" stroke="#63b8ff" d="M82.38,-36.74C92.13,-38.38 102.32,-40.09 111.72,-41.67"/>
<polygon fill="#63b8ff" stroke="#63b8ff" points="83.14,-33.31 72.69,-35.11 81.97,-40.22 83.14,-33.31"/>
</a>
</g>
</g>
<!-- Node2 -->
<g id="Node000002" class="node">
<title>Node2</title>
<g id="a_Node000002"><a xlink:href="class_o_c_a_1_1_c_a_f_e_v_d_b_1_1_settings_1_1_personal_section.html" target="_top" xlink:title="Personal app&#45;settings.">
<polygon fill="white" stroke="#666666" points="194,-20 106.75,-20 106.75,0 194,0 194,-20"/>
<text text-anchor="middle" x="150.38" y="-6.5" font-family="Helvetica,sans-Serif" font-size="10.00">PersonalSection</text>
</a>
</g>
</g>
<!-- Node0&#45;&gt;Node2 -->
<g id="edge335_Node000000_Node000002" class="edge">
<title>Node0&#45;&gt;Node2</title>
<g id="a_edge335_Node000000_Node000002"><a xlink:title=" ">
<path fill="none" stroke="#63b8ff" d="M82.53,-21.24C90.46,-19.91 98.66,-18.53 106.5,-17.21"/>
<polygon fill="#63b8ff" stroke="#63b8ff" points="81.97,-17.78 72.69,-22.89 83.14,-24.69 81.97,-17.78"/>
</a>
</g>
</g>
</g>
</svg>
