<?xml version="1.0" encoding="UTF-8" standalone="no"?>
<!DOCTYPE svg PUBLIC "-//W3C//DTD SVG 1.1//EN"
 "http://www.w3.org/Graphics/SVG/1.1/DTD/svg11.dtd">
<!-- Generated by graphviz version 9.0.0 (20230911.1827)
 -->
<!-- Title: Graphical Class Hierarchy Pages: 1 -->
<svg width="325pt" height="104pt"
 viewBox="0.00 0.00 325.00 104.00" xmlns="http://www.w3.org/2000/svg" xmlns:xlink="http://www.w3.org/1999/xlink">
<g id="graph0" class="graph" transform="scale(1 1) rotate(0) translate(4 100)">
<title>Graphical Class Hierarchy</title>
<!-- Node0 -->
<g id="Node000000" class="node">
<title>Node0</title>
<g id="a_Node000000"><a xlink:title=" ">
<polygon fill="#e0e0e0" stroke="#999999" points="106,-58 0,-58 0,-38 106,-38 106,-58"/>
<text text-anchor="middle" x="53" y="-44.5" font-family="Helvetica,sans-Serif" font-size="10.00">SimpleMigrationStep</text>
</a>
</g>
</g>
<!-- Node1 -->
<g id="Node000001" class="node">
<title>Node1</title>
<g id="a_Node000001"><a xlink:href="class_o_c_a_1_1_c_a_f_e_v_d_b_1_1_migration_1_1_version060000_date20201001210735.html" target="_top" xlink:title="Auto&#45;generated migration step: Please modify to your needs!">
<polygon fill="white" stroke="#666666" points="317,-96 142,-96 142,-76 317,-76 317,-96"/>
<text text-anchor="middle" x="229.5" y="-82.5" font-family="Helvetica,sans-Serif" font-size="10.00">Version060000Date20201001210735</text>
</a>
</g>
</g>
<!-- Node0&#45;&gt;Node1 -->
<g id="edge448_Node000000_Node000001" class="edge">
<title>Node0&#45;&gt;Node1</title>
<g id="a_edge448_Node000000_Node000001"><a xlink:title=" ">
<path fill="none" stroke="#63b8ff" d="M113.32,-60.92C135.22,-65.69 159.74,-71.03 180.51,-75.55"/>
<polygon fill="#63b8ff" stroke="#63b8ff" points="114.14,-57.51 103.62,-58.81 112.65,-64.35 114.14,-57.51"/>
</a>
</g>
</g>
<!-- Node2 -->
<g id="Node000002" class="node">
<title>Node2</title>
<g id="a_Node000002"><a xlink:href="class_o_c_a_1_1_c_a_f_e_v_d_b_1_1_migration_1_1_version060000_date20201022230000.html" target="_top" xlink:title="Add in_reply_to column to blog entries.">
<polygon fill="white" stroke="#666666" points="317,-58 142,-58 142,-38 317,-38 317,-58"/>
<text text-anchor="middle" x="229.5" y="-44.5" font-family="Helvetica,sans-Serif" font-size="10.00">Version060000Date20201022230000</text>
</a>
</g>
</g>
<!-- Node0&#45;&gt;Node2 -->
<g id="edge449_Node000000_Node000002" class="edge">
<title>Node0&#45;&gt;Node2</title>
<g id="a_edge449_Node000000_Node000002"><a xlink:title=" ">
<path fill="none" stroke="#63b8ff" d="M117.86,-48C125.6,-48 133.6,-48 141.6,-48"/>
<polygon fill="#63b8ff" stroke="#63b8ff" points="117.87,-44.5 107.87,-48 117.87,-51.5 117.87,-44.5"/>
</a>
</g>
</g>
<!-- Node3 -->
<g id="Node000003" class="node">
<title>Node3</title>
<g id="a_Node000003"><a xlink:href="class_o_c_a_1_1_c_a_f_e_v_d_b_1_1_migration_1_1_version070000_date20211120104235.html" target="_top" xlink:title="Auto&#45;generated migration step: Please modify to your needs!">
<polygon fill="white" stroke="#666666" points="316.62,-20 142.38,-20 142.38,0 316.62,0 316.62,-20"/>
<text text-anchor="middle" x="229.5" y="-6.5" font-family="Helvetica,sans-Serif" font-size="10.00">Version070000Date20211120104235</text>
</a>
</g>
</g>
<!-- Node0&#45;&gt;Node3 -->
<g id="edge450_Node000000_Node000003" class="edge">
<title>Node0&#45;&gt;Node3</title>
<g id="a_edge450_Node000000_Node000003"><a xlink:title=" ">
<path fill="none" stroke="#63b8ff" d="M113.32,-35.08C135.22,-30.31 159.74,-24.97 180.51,-20.45"/>
<polygon fill="#63b8ff" stroke="#63b8ff" points="112.65,-31.65 103.62,-37.19 114.14,-38.49 112.65,-31.65"/>
</a>
</g>
</g>
</g>
</svg>
