<?xml version="1.0" encoding="UTF-8" standalone="no"?>
<!DOCTYPE svg PUBLIC "-//W3C//DTD SVG 1.1//EN"
 "http://www.w3.org/Graphics/SVG/1.1/DTD/svg11.dtd">
<!-- Generated by graphviz version 9.0.0 (20230911.1827)
 -->
<!-- Title: IOptions Pages: 1 -->
<svg width="89pt" height="196pt"
 viewBox="0.00 0.00 89.25 196.00" xmlns="http://www.w3.org/2000/svg" xmlns:xlink="http://www.w3.org/1999/xlink">
<g id="graph0" class="graph" transform="scale(1 1) rotate(0) translate(4 192)">
<title>IOptions</title>
<!-- Node1 -->
<g id="Node000001" class="node">
<title>Node1</title>
<g id="a_Node000001"><a xlink:title="PME legacy options interface.">
<polygon fill="#999999" stroke="#666666" points="67,-132 14.25,-132 14.25,-112 67,-112 67,-132"/>
<text text-anchor="middle" x="40.62" y="-118.5" font-family="Helvetica,sans-Serif" font-size="10.00">IOptions</text>
</a>
</g>
</g>
<!-- Node3 -->
<g id="Node000003" class="node">
<title>Node3</title>
<g id="a_Node000003"><a xlink:href="class_o_c_a_1_1_c_a_f_e_v_d_b_1_1_database_1_1_legacy_1_1_p_m_e_1_1_default_options.html" target="_top" xlink:title="Default legacy PME options object.">
<polygon fill="white" stroke="#666666" points="81.25,-76 0,-76 0,-56 81.25,-56 81.25,-76"/>
<text text-anchor="middle" x="40.62" y="-62.5" font-family="Helvetica,sans-Serif" font-size="10.00">DefaultOptions</text>
</a>
</g>
</g>
<!-- Node1&#45;&gt;Node3 -->
<g id="edge2_Node000001_Node000003" class="edge">
<title>Node1&#45;&gt;Node3</title>
<g id="a_edge2_Node000001_Node000003"><a xlink:title=" ">
<path fill="none" stroke="#63b8ff" d="M40.62,-100.13C40.62,-91.9 40.62,-82.85 40.62,-76.3"/>
<polygon fill="#63b8ff" stroke="#63b8ff" points="37.13,-100.08 40.63,-110.08 44.13,-100.08 37.13,-100.08"/>
</a>
</g>
</g>
<!-- Node2 -->
<g id="Node000002" class="node">
<title>Node2</title>
<g id="a_Node000002"><a xlink:title=" ">
<polygon fill="white" stroke="#bfbfbf" points="76.75,-188 4.5,-188 4.5,-168 76.75,-168 76.75,-188"/>
<text text-anchor="middle" x="40.62" y="-174.5" font-family="Helvetica,sans-Serif" font-size="10.00">ArrayAccess</text>
</a>
</g>
</g>
<!-- Node2&#45;&gt;Node1 -->
<g id="edge1_Node000001_Node000002" class="edge">
<title>Node2&#45;&gt;Node1</title>
<g id="a_edge1_Node000001_Node000002"><a xlink:title=" ">
<path fill="none" stroke="#63b8ff" d="M40.62,-156.13C40.62,-147.9 40.62,-138.85 40.62,-132.3"/>
<polygon fill="#63b8ff" stroke="#63b8ff" points="37.13,-156.08 40.63,-166.08 44.13,-156.08 37.13,-156.08"/>
</a>
</g>
</g>
<!-- Node4 -->
<g id="Node000004" class="node">
<title>Node4</title>
<g id="a_Node000004"><a xlink:href="class_o_c_a_1_1_c_a_f_e_v_d_b_1_1_page_renderer_1_1_p_m_e_1_1_config.html" target="_top" xlink:title="Default Legacy PME options.">
<polygon fill="white" stroke="#666666" points="62.88,-20 18.38,-20 18.38,0 62.88,0 62.88,-20"/>
<text text-anchor="middle" x="40.62" y="-6.5" font-family="Helvetica,sans-Serif" font-size="10.00">Config</text>
</a>
</g>
</g>
<!-- Node3&#45;&gt;Node4 -->
<g id="edge3_Node000003_Node000004" class="edge">
<title>Node3&#45;&gt;Node4</title>
<g id="a_edge3_Node000003_Node000004"><a xlink:title=" ">
<path fill="none" stroke="#63b8ff" d="M40.62,-44.13C40.62,-35.9 40.62,-26.85 40.62,-20.3"/>
<polygon fill="#63b8ff" stroke="#63b8ff" points="37.13,-44.08 40.63,-54.08 44.13,-44.08 37.13,-44.08"/>
</a>
</g>
</g>
</g>
</svg>
