<?xml version="1.0" encoding="UTF-8" standalone="no"?>
<!DOCTYPE svg PUBLIC "-//W3C//DTD SVG 1.1//EN"
 "http://www.w3.org/Graphics/SVG/1.1/DTD/svg11.dtd">
<!-- Generated by graphviz version 8.0.3 (20230416.2022)
 -->
<!-- Title: CryptoFactoryInterface Pages: 1 -->
<svg width="234pt" height="82pt"
 viewBox="0.00 0.00 234.00 82.00" xmlns="http://www.w3.org/2000/svg" xmlns:xlink="http://www.w3.org/1999/xlink">
<g id="graph0" class="graph" transform="scale(1 1) rotate(0) translate(4 78)">
<title>CryptoFactoryInterface</title>
<!-- Node1 -->
<g id="node1" class="node">
<title>Node1</title>
<g id="a_node1"><a xlink:title="Interface for crypto&#45;factory.">
<polygon fill="#999999" stroke="#666666" points="171.5,-74 54.5,-74 54.5,-55 171.5,-55 171.5,-74"/>
<text text-anchor="middle" x="113" y="-62" font-family="Helvetica,sans-Serif" font-size="10.00">CryptoFactoryInterface</text>
</a>
</g>
</g>
<!-- Node2 -->
<g id="node2" class="node">
<title>Node2</title>
<g id="a_node2"><a xlink:href="class_o_c_a_1_1_c_a_f_e_v_d_b_1_1_crypto_1_1_cloud_crypto_factory.html" target="_top" xlink:title="Factory using the Nextcloud crypto routines as backend.">
<polygon fill="white" stroke="#666666" points="104,-19 0,-19 0,0 104,0 104,-19"/>
<text text-anchor="middle" x="52" y="-7" font-family="Helvetica,sans-Serif" font-size="10.00">CloudCryptoFactory</text>
</a>
</g>
</g>
<!-- Node1&#45;&gt;Node2 -->
<g id="edge1" class="edge">
<title>Node1&#45;&gt;Node2</title>
<path fill="none" stroke="#63b8ff" d="M94.43,-47.37C83.84,-38.16 70.96,-26.98 62.19,-19.36"/>
<polygon fill="#63b8ff" stroke="#63b8ff" points="91.81,-50.59 101.65,-54.51 96.4,-45.31 91.81,-50.59"/>
</g>
<!-- Node3 -->
<g id="node3" class="node">
<title>Node3</title>
<g id="a_node3"><a xlink:href="class_o_c_a_1_1_c_a_f_e_v_d_b_1_1_crypto_1_1_halite_crypto_factory.html" target="_top" xlink:title="Factory class using Halite as encryption backend.">
<polygon fill="white" stroke="#666666" points="226,-19 122,-19 122,0 226,0 226,-19"/>
<text text-anchor="middle" x="174" y="-7" font-family="Helvetica,sans-Serif" font-size="10.00">HaliteCryptoFactory</text>
</a>
</g>
</g>
<!-- Node1&#45;&gt;Node3 -->
<g id="edge2" class="edge">
<title>Node1&#45;&gt;Node3</title>
<path fill="none" stroke="#63b8ff" d="M131.57,-47.37C142.16,-38.16 155.04,-26.98 163.81,-19.36"/>
<polygon fill="#63b8ff" stroke="#63b8ff" points="129.6,-45.31 124.35,-54.51 134.19,-50.59 129.6,-45.31"/>
</g>
</g>
</svg>
