<?xml version="1.0" encoding="UTF-8" standalone="no"?>
<!DOCTYPE svg PUBLIC "-//W3C//DTD SVG 1.1//EN"
 "http://www.w3.org/Graphics/SVG/1.1/DTD/svg11.dtd">
<!-- Generated by graphviz version 8.0.3 (20230416.2022)
 -->
<!-- Title: IMigration Pages: 1 -->
<!--zoomable 236 -->
<svg id="main" version="1.1" xmlns="http://www.w3.org/2000/svg" xmlns:xlink="http://www.w3.org/1999/xlink" xml:space="preserve" onload="init(evt)">
<style type="text/css"><![CDATA[
.edge:hover path { stroke: red; }
.edge:hover polygon { stroke: red; fill: red; }
]]></style>
<script type="text/javascript"><![CDATA[
var edges = document.getElementsByTagName('g');
if (edges && edges.length) {
  for (var i=0;i<edges.length;i++) {
    if (edges[i].id.substr(0,4)=='edge') {
      edges[i].setAttribute('class','edge');
    }
  }
}
]]></script>
        <defs>
                <circle id="rim" cx="0" cy="0" r="7"/>
                <circle id="rim2" cx="0" cy="0" r="3.5"/>
                <g id="zoomPlus">
                        <use xlink:href="#rim" fill="#404040">
                                <set attributeName="fill" to="#808080" begin="zoomplus.mouseover" end="zoomplus.mouseout"/>
                        </use>
                        <path d="M-4,0h8M0,-4v8" fill="none" stroke="white" stroke-width="1.5" pointer-events="none"/>
                </g>
                <g id="zoomMin">
                        <use xlink:href="#rim" fill="#404040">
                                <set attributeName="fill" to="#808080" begin="zoomminus.mouseover" end="zoomminus.mouseout"/>
                        </use>
                        <path d="M-4,0h8" fill="none" stroke="white" stroke-width="1.5" pointer-events="none"/>
                </g>
                <g id="dirArrow">
                        <path fill="none" stroke="white" stroke-width="1.5" d="M0,-3.0v7 M-2.5,-0.5L0,-3.0L2.5,-0.5"/>
                </g>
               <g id="resetDef">
                       <use xlink:href="#rim2" fill="#404040">
                               <set attributeName="fill" to="#808080" begin="reset.mouseover" end="reset.mouseout"/>
                       </use>
               </g>
        </defs>

<script type="text/javascript">
var viewWidth = 565;
var viewHeight = 236;
var sectionId = 'dynsection-0';
</script>
<script xlink:href="svgpan.js"/>
<svg id="graph" class="graph">
<g id="viewport">
<title>IMigration</title>
<!-- Node1 -->
<g id="node1" class="node">
<title>Node1</title>
<g id="a_node1"><a xlink:title="Uni&#45;directional migrations for the orchestra DB.">
<polygon fill="#999999" stroke="#666666" points="59,-77 0,-77 0,-58 59,-58 59,-77"/>
<text text-anchor="middle" x="29.5" y="-65" font-family="Helvetica,sans-Serif" font-size="10.00">IMigration</text>
</a>
</g>
</g>
<!-- Node2 -->
<g id="node2" class="node">
<title>Node2</title>
<g id="a_node2"><a xlink:href="class_o_c_a_1_1_c_a_f_e_v_d_b_1_1_maintenance_1_1_migrations_1_1_abstract_migration.html" target="_top" xlink:title="Abstract migration class, the derived classes have to fill AbstractMigration::$sql.">
<polygon fill="white" stroke="#666666" points="195,-114 102,-114 102,-95 195,-95 195,-114"/>
<text text-anchor="middle" x="148.5" y="-102" font-family="Helvetica,sans-Serif" font-size="10.00">AbstractMigration</text>
</a>
</g>
</g>
<!-- Node1&#45;&gt;Node2 -->
<g id="edge1" class="edge">
<title>Node1&#45;&gt;Node2</title>
<path fill="none" stroke="#63b8ff" d="M69.52,-79.84C84.64,-84.62 101.72,-90.02 116.04,-94.55"/>
<polygon fill="#63b8ff" stroke="#63b8ff" points="71.01,-76.32 60.42,-76.65 68.9,-83 71.01,-76.32"/>
</g>
<!-- Node13 -->
<g id="node13" class="node">
<title>Node13</title>
<g id="a_node13"><a xlink:href="class_o_c_a_1_1_c_a_f_e_v_d_b_1_1_maintenance_1_1_migrations_1_1_initial_database_setup.html" target="_top" xlink:title="The initial data&#45;base structure.">
<polygon fill="white" stroke="#666666" points="202,-59 95,-59 95,-40 202,-40 202,-59"/>
<text text-anchor="middle" x="148.5" y="-47" font-family="Helvetica,sans-Serif" font-size="10.00">InitialDatabaseSetup</text>
</a>
</g>
</g>
<!-- Node1&#45;&gt;Node13 -->
<g id="edge12" class="edge">
<title>Node1&#45;&gt;Node13</title>
<path fill="none" stroke="#63b8ff" d="M70.18,-61.4C78.07,-60.18 86.48,-58.89 94.74,-57.62"/>
<polygon fill="#63b8ff" stroke="#63b8ff" points="69.77,-58.07 60.42,-63.05 70.84,-64.99 69.77,-58.07"/>
</g>
<!-- Node3 -->
<g id="node3" class="node">
<title>Node3</title>
<g id="a_node3"><a xlink:href="class_o_c_a_1_1_c_a_f_e_v_d_b_1_1_maintenance_1_1_migrations_1_1_participant_drop_bank_account_columns.html" target="_top" xlink:title="Change participantAccess field to enum.">
<polygon fill="white" stroke="#666666" points="389.5,-227.5 246.5,-227.5 246.5,-197.5 389.5,-197.5 389.5,-227.5"/>
<text text-anchor="start" x="254.5" y="-215.5" font-family="Helvetica,sans-Serif" font-size="10.00">ParticipantDropBankAccount</text>
<text text-anchor="middle" x="318" y="-204.5" font-family="Helvetica,sans-Serif" font-size="10.00">Columns</text>
</a>
</g>
</g>
<!-- Node2&#45;&gt;Node3 -->
<g id="edge2" class="edge">
<title>Node2&#45;&gt;Node3</title>
<path fill="none" stroke="#63b8ff" d="M164.15,-122.73C180.34,-141.72 208.11,-171.1 238,-188.5 243.57,-191.74 249.63,-194.59 255.83,-197.08"/>
<polygon fill="#63b8ff" stroke="#63b8ff" points="166.26,-120.79 157.18,-115.33 160.88,-125.26 166.26,-120.79"/>
</g>
<!-- Node5 -->
<g id="node5" class="node">
<title>Node5</title>
<g id="a_node5"><a xlink:href="class_o_c_a_1_1_c_a_f_e_v_d_b_1_1_maintenance_1_1_migrations_1_1_participant_field_access_enum.html" target="_top" xlink:title="Change participantAccess field to enum.">
<polygon fill="white" stroke="#666666" points="389.5,-179 246.5,-179 246.5,-160 389.5,-160 389.5,-179"/>
<text text-anchor="middle" x="318" y="-167" font-family="Helvetica,sans-Serif" font-size="10.00">ParticipantFieldAccessEnum</text>
</a>
</g>
</g>
<!-- Node2&#45;&gt;Node5 -->
<g id="edge4" class="edge">
<title>Node2&#45;&gt;Node5</title>
<path fill="none" stroke="#63b8ff" d="M174.97,-119.86C192.25,-129.74 215.9,-142.24 238,-150.5 247.38,-154.01 257.64,-157.03 267.56,-159.57"/>
<polygon fill="#63b8ff" stroke="#63b8ff" points="176.99,-116.4 166.59,-114.39 173.46,-122.45 176.99,-116.4"/>
</g>
<!-- Node7 -->
<g id="node7" class="node">
<title>Node7</title>
<g id="a_node7"><a xlink:href="class_o_c_a_1_1_c_a_f_e_v_d_b_1_1_maintenance_1_1_migrations_1_1_participant_field_drop_unused_columns.html" target="_top" xlink:title="Change participantAccess field to enum.">
<polygon fill="white" stroke="#666666" points="387.5,-141.5 248.5,-141.5 248.5,-111.5 387.5,-111.5 387.5,-141.5"/>
<text text-anchor="start" x="256.5" y="-129.5" font-family="Helvetica,sans-Serif" font-size="10.00">ParticipantFieldDropUnused</text>
<text text-anchor="middle" x="318" y="-118.5" font-family="Helvetica,sans-Serif" font-size="10.00">Columns</text>
</a>
</g>
</g>
<!-- Node2&#45;&gt;Node7 -->
<g id="edge6" class="edge">
<title>Node2&#45;&gt;Node7</title>
<path fill="none" stroke="#63b8ff" d="M205.86,-111.9C219.39,-113.68 233.99,-115.6 248.03,-117.44"/>
<polygon fill="#63b8ff" stroke="#63b8ff" points="206.64,-108.34 196.27,-110.51 205.73,-115.28 206.64,-108.34"/>
</g>
<!-- Node9 -->
<g id="node9" class="node">
<title>Node9</title>
<g id="a_node9"><a xlink:href="class_o_c_a_1_1_c_a_f_e_v_d_b_1_1_maintenance_1_1_migrations_1_1_participant_fields_add_liabilities.html" target="_top" xlink:title="Change participantAccess field to enum.">
<polygon fill="white" stroke="#666666" points="391.5,-93 244.5,-93 244.5,-74 391.5,-74 391.5,-93"/>
<text text-anchor="middle" x="318" y="-81" font-family="Helvetica,sans-Serif" font-size="10.00">ParticipantFieldsAddLiabilities</text>
</a>
</g>
</g>
<!-- Node2&#45;&gt;Node9 -->
<g id="edge8" class="edge">
<title>Node2&#45;&gt;Node9</title>
<path fill="none" stroke="#63b8ff" d="M205.83,-97.44C218.15,-95.89 231.35,-94.24 244.2,-92.63"/>
<polygon fill="#63b8ff" stroke="#63b8ff" points="205.76,-94.04 196.27,-98.76 206.63,-100.99 205.76,-94.04"/>
</g>
<!-- Node11 -->
<g id="node11" class="node">
<title>Node11</title>
<g id="a_node11"><a xlink:href="class_o_c_a_1_1_c_a_f_e_v_d_b_1_1_maintenance_1_1_migrations_1_1_project_events_add_absence_fields.html" target="_top" xlink:title="Change participantAccess field to enum.">
<polygon fill="white" stroke="#666666" points="398,-56 238,-56 238,-37 398,-37 398,-56"/>
<text text-anchor="middle" x="318" y="-44" font-family="Helvetica,sans-Serif" font-size="10.00">ProjectEventsAddAbsenceFields</text>
</a>
</g>
</g>
<!-- Node2&#45;&gt;Node11 -->
<g id="edge10" class="edge">
<title>Node2&#45;&gt;Node11</title>
<path fill="none" stroke="#63b8ff" d="M179,-89.91C195.96,-81.93 217.84,-72.3 238,-65.5 248.02,-62.12 258.96,-59.08 269.4,-56.49"/>
<polygon fill="#63b8ff" stroke="#63b8ff" points="177.64,-87.16 170.13,-94.63 180.66,-93.47 177.64,-87.16"/>
</g>
<!-- Node4 -->
<g id="node4" class="node">
<title>Node4</title>
<g id="a_node4"><a xlink:href="class_o_c_a_1_1_c_a_f_e_v_d_b_1_1_maintenance_1_1_migrations_1_1_version20230227090000.html" target="_top" xlink:title="Wrapper class which gives the migration a proper sequence number and redirects to the actual implemen...">
<polygon fill="white" stroke="#666666" points="557,-222 434,-222 434,-203 557,-203 557,-222"/>
<text text-anchor="middle" x="495.5" y="-210" font-family="Helvetica,sans-Serif" font-size="10.00">Version20230227090000</text>
</a>
</g>
</g>
<!-- Node3&#45;&gt;Node4 -->
<g id="edge3" class="edge">
<title>Node3&#45;&gt;Node4</title>
<path fill="none" stroke="#63b8ff" d="M400.82,-212.5C411.82,-212.5 422.95,-212.5 433.51,-212.5"/>
<polygon fill="#63b8ff" stroke="#63b8ff" points="400.88,-209 390.88,-212.5 400.88,-216 400.88,-209"/>
</g>
<!-- Node6 -->
<g id="node6" class="node">
<title>Node6</title>
<g id="a_node6"><a xlink:href="class_o_c_a_1_1_c_a_f_e_v_d_b_1_1_maintenance_1_1_migrations_1_1_version20230206204000.html" target="_top" xlink:title="Wrapper class which gives the migration a proper sequence number and redirects to the actual implemen...">
<polygon fill="white" stroke="#666666" points="557,-179 434,-179 434,-160 557,-160 557,-179"/>
<text text-anchor="middle" x="495.5" y="-167" font-family="Helvetica,sans-Serif" font-size="10.00">Version20230206204000</text>
</a>
</g>
</g>
<!-- Node5&#45;&gt;Node6 -->
<g id="edge5" class="edge">
<title>Node5&#45;&gt;Node6</title>
<path fill="none" stroke="#63b8ff" d="M400.82,-169.5C411.82,-169.5 422.95,-169.5 433.51,-169.5"/>
<polygon fill="#63b8ff" stroke="#63b8ff" points="400.88,-166 390.88,-169.5 400.88,-173 400.88,-166"/>
</g>
<!-- Node8 -->
<g id="node8" class="node">
<title>Node8</title>
<g id="a_node8"><a xlink:href="class_o_c_a_1_1_c_a_f_e_v_d_b_1_1_maintenance_1_1_migrations_1_1_version20230206203000.html" target="_top" xlink:title="Wrapper class which gives the migration a proper sequence number and redirects to the actual implemen...">
<polygon fill="white" stroke="#666666" points="557,-136 434,-136 434,-117 557,-117 557,-136"/>
<text text-anchor="middle" x="495.5" y="-124" font-family="Helvetica,sans-Serif" font-size="10.00">Version20230206203000</text>
</a>
</g>
</g>
<!-- Node7&#45;&gt;Node8 -->
<g id="edge7" class="edge">
<title>Node7&#45;&gt;Node8</title>
<path fill="none" stroke="#63b8ff" d="M398.56,-126.5C410.31,-126.5 422.25,-126.5 433.54,-126.5"/>
<polygon fill="#63b8ff" stroke="#63b8ff" points="398.86,-123 388.86,-126.5 398.86,-130 398.86,-123"/>
</g>
<!-- Node10 -->
<g id="node10" class="node">
<title>Node10</title>
<g id="a_node10"><a xlink:href="class_o_c_a_1_1_c_a_f_e_v_d_b_1_1_maintenance_1_1_migrations_1_1_version20230207133000.html" target="_top" xlink:title="Wrapper class which gives the migration a proper sequence number and redirects to the actual implemen...">
<polygon fill="white" stroke="#666666" points="557,-93 434,-93 434,-74 557,-74 557,-93"/>
<text text-anchor="middle" x="495.5" y="-81" font-family="Helvetica,sans-Serif" font-size="10.00">Version20230207133000</text>
</a>
</g>
</g>
<!-- Node9&#45;&gt;Node10 -->
<g id="edge9" class="edge">
<title>Node9&#45;&gt;Node10</title>
<path fill="none" stroke="#63b8ff" d="M402.69,-83.5C413.09,-83.5 423.56,-83.5 433.53,-83.5"/>
<polygon fill="#63b8ff" stroke="#63b8ff" points="402.9,-80 392.9,-83.5 402.9,-87 402.9,-80"/>
</g>
<!-- Node12 -->
<g id="node12" class="node">
<title>Node12</title>
<g id="a_node12"><a xlink:href="class_o_c_a_1_1_c_a_f_e_v_d_b_1_1_maintenance_1_1_migrations_1_1_version20230330110000.html" target="_top" xlink:title="Wrapper class which gives the migration a proper sequence number and redirects to the actual implemen...">
<polygon fill="white" stroke="#666666" points="557,-56 434,-56 434,-37 557,-37 557,-56"/>
<text text-anchor="middle" x="495.5" y="-44" font-family="Helvetica,sans-Serif" font-size="10.00">Version20230330110000</text>
</a>
</g>
</g>
<!-- Node11&#45;&gt;Node12 -->
<g id="edge11" class="edge">
<title>Node11&#45;&gt;Node12</title>
<path fill="none" stroke="#63b8ff" d="M409.19,-46.5C417.49,-46.5 425.77,-46.5 433.72,-46.5"/>
<polygon fill="#63b8ff" stroke="#63b8ff" points="409.28,-43 399.28,-46.5 409.28,-50 409.28,-43"/>
</g>
<!-- Node14 -->
<g id="node14" class="node">
<title>Node14</title>
<g id="a_node14"><a xlink:href="class_o_c_a_1_1_c_a_f_e_v_d_b_1_1_maintenance_1_1_migrations_1_1_version00000000000000.html" target="_top" xlink:title="Wrapper class which gives the migration a proper sequence number and redirects to the actual implemen...">
<polygon fill="white" stroke="#666666" points="379.5,-19 256.5,-19 256.5,0 379.5,0 379.5,-19"/>
<text text-anchor="middle" x="318" y="-7" font-family="Helvetica,sans-Serif" font-size="10.00">Version00000000000000</text>
</a>
</g>
</g>
<!-- Node13&#45;&gt;Node14 -->
<g id="edge13" class="edge">
<title>Node13&#45;&gt;Node14</title>
<path fill="none" stroke="#63b8ff" d="M199.06,-37C211.74,-33.85 225.37,-30.51 238,-27.5 249.22,-24.83 261.36,-22.02 272.67,-19.44"/>
<polygon fill="#63b8ff" stroke="#63b8ff" points="198.53,-33.77 189.67,-39.59 200.22,-40.57 198.53,-33.77"/>
</g>
</g>
</svg>
        <g id="navigator" transform="translate(0 0)" fill="#404254">
                <rect fill="#f2f5e9" fill-opacity="0.5" stroke="#606060" stroke-width=".5" x="0" y="0" width="60" height="60"/>
                <use id="zoomplus" xlink:href="#zoomPlus" x="17" y="9" onmousedown="handleZoom(evt,'in')"/>
                <use id="zoomminus" xlink:href="#zoomMin" x="42" y="9" onmousedown="handleZoom(evt,'out')"/>
                <use id="reset" xlink:href="#resetDef" x="30" y="36" onmousedown="handleReset()"/>
                <g id="arrowUp" xlink:href="#dirArrow" transform="translate(30 24)" onmousedown="handlePan(0,-1)">
                  <use xlink:href="#rim" fill="#404040">
                        <set attributeName="fill" to="#808080" begin="arrowUp.mouseover" end="arrowUp.mouseout"/>
                  </use>
                  <path fill="none" stroke="white" stroke-width="1.5" d="M0,-3.0v7 M-2.5,-0.5L0,-3.0L2.5,-0.5"/>
                </g>
                <g id="arrowRight" xlink:href="#dirArrow" transform="rotate(90) translate(36 -43)" onmousedown="handlePan(1,0)">
                  <use xlink:href="#rim" fill="#404040">
                        <set attributeName="fill" to="#808080" begin="arrowRight.mouseover" end="arrowRight.mouseout"/>
                  </use>
                  <path fill="none" stroke="white" stroke-width="1.5" d="M0,-3.0v7 M-2.5,-0.5L0,-3.0L2.5,-0.5"/>
                </g>
                <g id="arrowDown" xlink:href="#dirArrow" transform="rotate(180) translate(-30 -48)" onmousedown="handlePan(0,1)">
                  <use xlink:href="#rim" fill="#404040">
                        <set attributeName="fill" to="#808080" begin="arrowDown.mouseover" end="arrowDown.mouseout"/>
                  </use>
                  <path fill="none" stroke="white" stroke-width="1.5" d="M0,-3.0v7 M-2.5,-0.5L0,-3.0L2.5,-0.5"/>
                </g>
                <g id="arrowLeft" xlink:href="#dirArrow" transform="rotate(270) translate(-36 17)" onmousedown="handlePan(-1,0)">
                  <use xlink:href="#rim" fill="#404040">
                        <set attributeName="fill" to="#808080" begin="arrowLeft.mouseover" end="arrowLeft.mouseout"/>
                  </use>
                  <path fill="none" stroke="white" stroke-width="1.5" d="M0,-3.0v7 M-2.5,-0.5L0,-3.0L2.5,-0.5"/>
                </g>
        </g>
        <svg viewBox="0 0 15 15" width="100%" height="30px" preserveAspectRatio="xMaxYMin meet">
         <g id="arrow_out" transform="scale(0.3 0.3)">
          <a xlink:href="interface_o_c_a_1_1_c_a_f_e_v_d_b_1_1_maintenance_1_1_i_migration__inherit__graph_org.svg" target="_base">
           <rect id="button" ry="5" rx="5" y="6" x="6" height="38" width="38"
                fill="#f2f5e9" fill-opacity="0.5" stroke="#606060" stroke-width="1.0"/>
           <path id="arrow"
             d="M 11.500037,31.436501 C 11.940474,20.09759 22.043105,11.32322 32.158766,21.979434 L 37.068811,17.246167 C 37.068811,17.246167 37.088388,32 37.088388,32 L 22.160133,31.978069 C 22.160133,31.978069 26.997745,27.140456 26.997745,27.140456 C 18.528582,18.264221 13.291696,25.230495 11.500037,31.436501 z"
             style="fill:#404040;"/>
          </a>
         </g>
        </svg>
</svg>
