<?xml version="1.0" encoding="UTF-8" standalone="no"?>
<!DOCTYPE svg PUBLIC "-//W3C//DTD SVG 1.1//EN"
 "http://www.w3.org/Graphics/SVG/1.1/DTD/svg11.dtd">
<!-- Generated by graphviz version 8.0.3 (20230416.2022)
 -->
<!-- Title: AsymmetricCryptorInterface Pages: 1 -->
<svg width="296pt" height="137pt"
 viewBox="0.00 0.00 296.00 137.00" xmlns="http://www.w3.org/2000/svg" xmlns:xlink="http://www.w3.org/1999/xlink">
<g id="graph0" class="graph" transform="scale(1 1) rotate(0) translate(4 133)">
<title>AsymmetricCryptorInterface</title>
<!-- Node1 -->
<g id="node1" class="node">
<title>Node1</title>
<g id="a_node1"><a xlink:title="Just there in order to branch depending on container specialization.">
<polygon fill="#999999" stroke="#666666" points="209.5,-74 69.5,-74 69.5,-55 209.5,-55 209.5,-74"/>
<text text-anchor="middle" x="139.5" y="-62" font-family="Helvetica,sans-Serif" font-size="10.00">AsymmetricCryptorInterface</text>
</a>
</g>
</g>
<!-- Node3 -->
<g id="node3" class="node">
<title>Node3</title>
<g id="a_node3"><a xlink:href="class_o_c_a_1_1_c_a_f_e_v_d_b_1_1_crypto_1_1_halite_asymmetric_cryptor.html" target="_top" xlink:title="Asymmetric encryption using the ParagonIE\Halite library.">
<polygon fill="white" stroke="#666666" points="127,-19 0,-19 0,0 127,0 127,-19"/>
<text text-anchor="middle" x="63.5" y="-7" font-family="Helvetica,sans-Serif" font-size="10.00">HaliteAsymmetricCryptor</text>
</a>
</g>
</g>
<!-- Node1&#45;&gt;Node3 -->
<g id="edge2" class="edge">
<title>Node1&#45;&gt;Node3</title>
<path fill="none" stroke="#63b8ff" d="M117.93,-48.46C104.46,-39.06 87.56,-27.28 76.2,-19.36"/>
<polygon fill="#63b8ff" stroke="#63b8ff" points="115.4,-51.66 125.61,-54.51 119.41,-45.92 115.4,-51.66"/>
</g>
<!-- Node4 -->
<g id="node4" class="node">
<title>Node4</title>
<g id="a_node4"><a xlink:href="class_o_c_a_1_1_c_a_f_e_v_d_b_1_1_crypto_1_1_open_s_s_l_asymmetric_cryptor.html" target="_top" xlink:title="Asymmetric encryption using the OpenSSL extension of PHP.">
<polygon fill="white" stroke="#666666" points="288,-19 145,-19 145,0 288,0 288,-19"/>
<text text-anchor="middle" x="216.5" y="-7" font-family="Helvetica,sans-Serif" font-size="10.00">OpenSSLAsymmetricCryptor</text>
</a>
</g>
</g>
<!-- Node1&#45;&gt;Node4 -->
<g id="edge3" class="edge">
<title>Node1&#45;&gt;Node4</title>
<path fill="none" stroke="#63b8ff" d="M161.35,-48.46C175,-39.06 192.12,-27.28 203.63,-19.36"/>
<polygon fill="#63b8ff" stroke="#63b8ff" points="159.81,-45.96 153.56,-54.51 163.78,-51.72 159.81,-45.96"/>
</g>
<!-- Node2 -->
<g id="node2" class="node">
<title>Node2</title>
<g id="a_node2"><a xlink:href="interface_o_c_a_1_1_c_a_f_e_v_d_b_1_1_crypto_1_1_i_cryptor.html" target="_top" xlink:title="Simple wrapper interface.">
<polygon fill="white" stroke="#666666" points="165.5,-129 113.5,-129 113.5,-110 165.5,-110 165.5,-129"/>
<text text-anchor="middle" x="139.5" y="-117" font-family="Helvetica,sans-Serif" font-size="10.00">ICryptor</text>
</a>
</g>
</g>
<!-- Node2&#45;&gt;Node1 -->
<g id="edge1" class="edge">
<title>Node2&#45;&gt;Node1</title>
<path fill="none" stroke="#63b8ff" d="M139.5,-98.93C139.5,-90.53 139.5,-81.13 139.5,-74.44"/>
<polygon fill="#63b8ff" stroke="#63b8ff" points="136,-98.75 139.5,-108.75 143,-98.75 136,-98.75"/>
</g>
</g>
</svg>
