<?xml version="1.0" encoding="UTF-8" standalone="no"?>
<!DOCTYPE svg PUBLIC "-//W3C//DTD SVG 1.1//EN"
 "http://www.w3.org/Graphics/SVG/1.1/DTD/svg11.dtd">
<!-- Generated by graphviz version 7.1.0 (20230121.1956)
 -->
<!-- Title: getTarget Pages: 1 -->
<svg width="417pt" height="135pt"
 viewBox="0.00 0.00 417.00 135.00" xmlns="http://www.w3.org/2000/svg" xmlns:xlink="http://www.w3.org/1999/xlink">
<g id="graph0" class="graph" transform="scale(1 1) rotate(0) translate(4 131)">
<title>getTarget</title>
<!-- Node1 -->
<g id="node1" class="node">
<title>Node1</title>
<g id="a_node1"><a xlink:title="Return the cached value of the target state.">
<polygon fill="#999999" stroke="#666666" points="409,-59 352,-59 352,-40 409,-40 409,-59"/>
<text text-anchor="middle" x="380.5" y="-47" font-family="Helvetica,sans-Serif" font-size="10.00">getTarget</text>
</a>
</g>
</g>
<!-- Node2 -->
<g id="node2" class="node">
<title>Node2</title>
<g id="a_node2"><a xlink:href="class_o_c_a_1_1_c_a_f_e_v_d_b_1_1_controller_1_1_progress_status_controller.html#adb141c8ddbf823f25281b1ff95a3420c" target="_top" xlink:title=" ">
<polygon fill="white" stroke="#666666" points="316,-100 182,-100 182,-59 316,-59 316,-100"/>
<text text-anchor="start" x="190" y="-88" font-family="Helvetica,sans-Serif" font-size="10.00">OCA\CAFEVDB\Controller</text>
<text text-anchor="start" x="190" y="-77" font-family="Helvetica,sans-Serif" font-size="10.00">\ProgressStatusController</text>
<text text-anchor="middle" x="249" y="-66" font-family="Helvetica,sans-Serif" font-size="10.00">\progressResponse</text>
</a>
</g>
</g>
<!-- Node1&#45;&gt;Node2 -->
<g id="edge1" class="edge">
<title>Node1&#45;&gt;Node2</title>
<path fill="none" stroke="#63b8ff" d="M340.57,-58.52C332.89,-60.3 324.62,-62.21 316.32,-64.14"/>
<polygon fill="#63b8ff" stroke="#63b8ff" points="341.29,-61.94 350.24,-56.28 339.71,-55.12 341.29,-61.94"/>
</g>
<!-- Node5 -->
<g id="node5" class="node">
<title>Node5</title>
<g id="a_node5"><a xlink:href="class_o_c_a_1_1_c_a_f_e_v_d_b_1_1_common_1_1_abstract_progress_status.html#a87449bdd364c33ff024d32896342bf31" target="_top" xlink:title="{Set the data value and sync.void}">
<polygon fill="white" stroke="#666666" points="315,-41 183,-41 183,0 315,0 315,-41"/>
<text text-anchor="start" x="191" y="-29" font-family="Helvetica,sans-Serif" font-size="10.00">OCA\CAFEVDB\Common</text>
<text text-anchor="start" x="191" y="-18" font-family="Helvetica,sans-Serif" font-size="10.00">\AbstractProgressStatus</text>
<text text-anchor="middle" x="249" y="-7" font-family="Helvetica,sans-Serif" font-size="10.00">\setData</text>
</a>
</g>
</g>
<!-- Node1&#45;&gt;Node5 -->
<g id="edge4" class="edge">
<title>Node1&#45;&gt;Node5</title>
<path fill="none" stroke="#63b8ff" d="M340.52,-40.77C332.52,-38.98 323.89,-37.05 315.25,-35.11"/>
<polygon fill="#63b8ff" stroke="#63b8ff" points="339.72,-44.18 350.24,-42.95 341.25,-37.35 339.72,-44.18"/>
</g>
<!-- Node3 -->
<g id="node3" class="node">
<title>Node3</title>
<g id="a_node3"><a xlink:href="class_o_c_a_1_1_c_a_f_e_v_d_b_1_1_controller_1_1_progress_status_controller.html#ad9c56458219c1917c2f3fbe9a02b070a" target="_top" xlink:title=" ">
<polygon fill="white" stroke="#666666" points="140,-127 6,-127 6,-86 140,-86 140,-127"/>
<text text-anchor="start" x="14" y="-115" font-family="Helvetica,sans-Serif" font-size="10.00">OCA\CAFEVDB\Controller</text>
<text text-anchor="start" x="14" y="-104" font-family="Helvetica,sans-Serif" font-size="10.00">\ProgressStatusController</text>
<text text-anchor="middle" x="73" y="-93" font-family="Helvetica,sans-Serif" font-size="10.00">\action</text>
</a>
</g>
</g>
<!-- Node2&#45;&gt;Node3 -->
<g id="edge2" class="edge">
<title>Node2&#45;&gt;Node3</title>
<path fill="none" stroke="#63b8ff" d="M170.48,-91.53C160.44,-93.09 150.22,-94.67 140.38,-96.2"/>
<polygon fill="#63b8ff" stroke="#63b8ff" points="170.88,-95.01 180.23,-90.02 169.81,-88.09 170.88,-95.01"/>
</g>
<!-- Node4 -->
<g id="node4" class="node">
<title>Node4</title>
<g id="a_node4"><a xlink:href="class_o_c_a_1_1_c_a_f_e_v_d_b_1_1_controller_1_1_progress_status_controller.html#a5ac35cd9b27eb36bb68f58f665b440e5" target="_top" xlink:title=" ">
<polygon fill="white" stroke="#666666" points="146,-67.5 0,-67.5 0,-37.5 146,-37.5 146,-67.5"/>
<text text-anchor="start" x="8" y="-55.5" font-family="Helvetica,sans-Serif" font-size="10.00">OCA\CAFEVDB\Controller</text>
<text text-anchor="middle" x="73" y="-44.5" font-family="Helvetica,sans-Serif" font-size="10.00">\ProgressStatusController\get</text>
</a>
</g>
</g>
<!-- Node2&#45;&gt;Node4 -->
<g id="edge3" class="edge">
<title>Node2&#45;&gt;Node4</title>
<path fill="none" stroke="#63b8ff" d="M170.52,-67.48C162.52,-66.24 154.42,-64.98 146.48,-63.75"/>
<polygon fill="#63b8ff" stroke="#63b8ff" points="169.81,-70.91 180.23,-68.98 170.88,-63.99 169.81,-70.91"/>
</g>
</g>
</svg>
