<?xml version="1.0" encoding="UTF-8" standalone="no"?>
<!DOCTYPE svg PUBLIC "-//W3C//DTD SVG 1.1//EN"
 "http://www.w3.org/Graphics/SVG/1.1/DTD/svg11.dtd">
<!-- Generated by graphviz version 8.0.3 (20230416.2022)
 -->
<!-- Title: update Pages: 1 -->
<svg width="222pt" height="226pt"
 viewBox="0.00 0.00 222.00 226.00" xmlns="http://www.w3.org/2000/svg" xmlns:xlink="http://www.w3.org/1999/xlink">
<g id="graph0" class="graph" transform="scale(1 1) rotate(0) translate(4 222)">
<title>update</title>
<!-- Node1 -->
<g id="node1" class="node">
<title>Node1</title>
<g id="a_node1"><a xlink:title="Update to the given values, where null arguments are simply ignored.">
<polygon fill="#999999" stroke="#666666" points="214,-118 168,-118 168,-99 214,-99 214,-118"/>
<text text-anchor="middle" x="191" y="-106" font-family="Helvetica,sans-Serif" font-size="10.00">update</text>
</a>
</g>
</g>
<!-- Node2 -->
<g id="node2" class="node">
<title>Node2</title>
<g id="a_node2"><a xlink:href="class_o_c_a_1_1_c_a_f_e_v_d_b_1_1_common_1_1_abstract_progress_status.html#a58e95c1e3550af42d009d6692bc77b25" target="_top" xlink:title="{Add the given amount to the progress&#45;status counter.bool|int Current value of the counter or false i...">
<polygon fill="white" stroke="#666666" points="132,-218 0,-218 0,-177 132,-177 132,-218"/>
<text text-anchor="start" x="8" y="-206" font-family="Helvetica,sans-Serif" font-size="10.00">OCA\CAFEVDB\Common</text>
<text text-anchor="start" x="8" y="-195" font-family="Helvetica,sans-Serif" font-size="10.00">\AbstractProgressStatus</text>
<text text-anchor="middle" x="66" y="-184" font-family="Helvetica,sans-Serif" font-size="10.00">\increment</text>
</a>
</g>
</g>
<!-- Node1&#45;&gt;Node2 -->
<g id="edge1" class="edge">
<title>Node1&#45;&gt;Node2</title>
<path fill="none" stroke="#63b8ff" d="M175.99,-126.3C165.08,-139.29 148.97,-156.61 132,-168.5 127.85,-171.41 123.36,-174.13 118.75,-176.64"/>
<polygon fill="#63b8ff" stroke="#63b8ff" points="179.05,-129.09 182.67,-119.13 173.63,-124.66 179.05,-129.09"/>
</g>
<!-- Node3 -->
<g id="node3" class="node">
<title>Node3</title>
<g id="a_node3"><a xlink:href="class_o_c_a_1_1_c_a_f_e_v_d_b_1_1_common_1_1_abstract_progress_status.html#a54b218bca4b02eacd7ebd688eebdda1d" target="_top" xlink:title="{Set the current value and sync.void}">
<polygon fill="white" stroke="#666666" points="132,-159 0,-159 0,-118 132,-118 132,-159"/>
<text text-anchor="start" x="8" y="-147" font-family="Helvetica,sans-Serif" font-size="10.00">OCA\CAFEVDB\Common</text>
<text text-anchor="start" x="8" y="-136" font-family="Helvetica,sans-Serif" font-size="10.00">\AbstractProgressStatus</text>
<text text-anchor="middle" x="66" y="-125" font-family="Helvetica,sans-Serif" font-size="10.00">\setCurrent</text>
</a>
</g>
</g>
<!-- Node1&#45;&gt;Node3 -->
<g id="edge2" class="edge">
<title>Node1&#45;&gt;Node3</title>
<path fill="none" stroke="#63b8ff" d="M157.07,-116.53C149.37,-118.41 140.9,-120.48 132.33,-122.57"/>
<polygon fill="#63b8ff" stroke="#63b8ff" points="157.84,-119.7 166.73,-113.93 156.18,-112.9 157.84,-119.7"/>
</g>
<!-- Node4 -->
<g id="node4" class="node">
<title>Node4</title>
<g id="a_node4"><a xlink:href="class_o_c_a_1_1_c_a_f_e_v_d_b_1_1_common_1_1_abstract_progress_status.html#a87449bdd364c33ff024d32896342bf31" target="_top" xlink:title="{Set the data value and sync.void}">
<polygon fill="white" stroke="#666666" points="132,-100 0,-100 0,-59 132,-59 132,-100"/>
<text text-anchor="start" x="8" y="-88" font-family="Helvetica,sans-Serif" font-size="10.00">OCA\CAFEVDB\Common</text>
<text text-anchor="start" x="8" y="-77" font-family="Helvetica,sans-Serif" font-size="10.00">\AbstractProgressStatus</text>
<text text-anchor="middle" x="66" y="-66" font-family="Helvetica,sans-Serif" font-size="10.00">\setData</text>
</a>
</g>
</g>
<!-- Node1&#45;&gt;Node4 -->
<g id="edge3" class="edge">
<title>Node1&#45;&gt;Node4</title>
<path fill="none" stroke="#63b8ff" d="M157.07,-100.74C149.37,-98.92 140.9,-96.92 132.33,-94.9"/>
<polygon fill="#63b8ff" stroke="#63b8ff" points="156.19,-104.36 166.73,-103.25 157.8,-97.55 156.19,-104.36"/>
</g>
<!-- Node5 -->
<g id="node5" class="node">
<title>Node5</title>
<g id="a_node5"><a xlink:href="class_o_c_a_1_1_c_a_f_e_v_d_b_1_1_common_1_1_abstract_progress_status.html#a186796ac9898d948be13005f114e45f5" target="_top" xlink:title="{Set the target value and sync.void}">
<polygon fill="white" stroke="#666666" points="132,-41 0,-41 0,0 132,0 132,-41"/>
<text text-anchor="start" x="8" y="-29" font-family="Helvetica,sans-Serif" font-size="10.00">OCA\CAFEVDB\Common</text>
<text text-anchor="start" x="8" y="-18" font-family="Helvetica,sans-Serif" font-size="10.00">\AbstractProgressStatus</text>
<text text-anchor="middle" x="66" y="-7" font-family="Helvetica,sans-Serif" font-size="10.00">\setTarget</text>
</a>
</g>
</g>
<!-- Node1&#45;&gt;Node5 -->
<g id="edge4" class="edge">
<title>Node1&#45;&gt;Node5</title>
<path fill="none" stroke="#63b8ff" d="M175.14,-90.59C164.17,-78.18 148.36,-61.9 132,-50.5 127.31,-47.23 122.21,-44.17 116.99,-41.34"/>
<polygon fill="#63b8ff" stroke="#63b8ff" points="173.04,-92.52 182.22,-97.82 178.35,-87.96 173.04,-92.52"/>
</g>
</g>
</svg>
