<?xml version="1.0" encoding="UTF-8" standalone="no"?>
<!DOCTYPE svg PUBLIC "-//W3C//DTD SVG 1.1//EN"
 "http://www.w3.org/Graphics/SVG/1.1/DTD/svg11.dtd">
<!-- Generated by graphviz version 9.0.0 (20230911.1827)
 -->
<!-- Title: IPageRenderer Pages: 1 -->
<svg width="515pt" height="522pt"
 viewBox="0.00 0.00 515.25 522.00" xmlns="http://www.w3.org/2000/svg" xmlns:xlink="http://www.w3.org/1999/xlink">
<g id="graph0" class="graph" transform="scale(1 1) rotate(0) translate(4 518)">
<title>IPageRenderer</title>
<!-- Node1 -->
<g id="Node000001" class="node">
<title>Node1</title>
<g id="a_Node000001"><a xlink:title="Page&#45;renderer interface.">
<polygon fill="#999999" stroke="#666666" points="176,-267 94.75,-267 94.75,-247 176,-247 176,-267"/>
<text text-anchor="middle" x="135.38" y="-253.5" font-family="Helvetica,sans-Serif" font-size="10.00">IPageRenderer</text>
</a>
</g>
</g>
<!-- Node3 -->
<g id="Node000003" class="node">
<title>Node3</title>
<g id="a_Node000003"><a xlink:href="class_o_c_a_1_1_c_a_f_e_v_d_b_1_1_page_renderer_1_1_p_m_e_table_view_base.html" target="_top" xlink:title="Base for phpMyEdit based table&#45;views.">
<polygon fill="white" stroke="#666666" points="317.25,-267 212,-267 212,-247 317.25,-247 317.25,-267"/>
<text text-anchor="middle" x="264.62" y="-253.5" font-family="Helvetica,sans-Serif" font-size="10.00">PMETableViewBase</text>
</a>
</g>
</g>
<!-- Node1&#45;&gt;Node3 -->
<g id="edge2_Node000001_Node000003" class="edge">
<title>Node1&#45;&gt;Node3</title>
<g id="a_edge2_Node000001_Node000003"><a xlink:title=" ">
<path fill="none" stroke="#63b8ff" d="M187.65,-257C195.57,-257 203.76,-257 211.7,-257"/>
<polygon fill="#63b8ff" stroke="#63b8ff" points="187.8,-253.5 177.8,-257 187.8,-260.5 187.8,-253.5"/>
</a>
</g>
</g>
<!-- Node2 -->
<g id="Node000002" class="node">
<title>Node2</title>
<g id="a_Node000002"><a xlink:href="interface_o_c_a_1_1_c_a_f_e_v_d_b_1_1_page_renderer_1_1_i_renderer.html" target="_top" xlink:title="HTML Renderer interface.">
<polygon fill="white" stroke="#666666" points="58.75,-267 0,-267 0,-247 58.75,-247 58.75,-267"/>
<text text-anchor="middle" x="29.38" y="-253.5" font-family="Helvetica,sans-Serif" font-size="10.00">IRenderer</text>
</a>
</g>
</g>
<!-- Node2&#45;&gt;Node1 -->
<g id="edge1_Node000001_Node000002" class="edge">
<title>Node2&#45;&gt;Node1</title>
<g id="a_edge1_Node000001_Node000002"><a xlink:title=" ">
<path fill="none" stroke="#63b8ff" d="M70.31,-257C78.24,-257 86.56,-257 94.49,-257"/>
<polygon fill="#63b8ff" stroke="#63b8ff" points="70.58,-253.5 60.58,-257 70.58,-260.5 70.58,-253.5"/>
</a>
</g>
</g>
<!-- Node4 -->
<g id="Node000004" class="node">
<title>Node4</title>
<g id="a_Node000004"><a xlink:href="class_o_c_a_1_1_c_a_f_e_v_d_b_1_1_page_renderer_1_1_instrument_families.html" target="_top" xlink:title="Table generator for Instruments table.">
<polygon fill="white" stroke="#666666" points="479.88,-514 380.62,-514 380.62,-494 479.88,-494 479.88,-514"/>
<text text-anchor="middle" x="430.25" y="-500.5" font-family="Helvetica,sans-Serif" font-size="10.00">InstrumentFamilies</text>
</a>
</g>
</g>
<!-- Node3&#45;&gt;Node4 -->
<g id="edge3_Node000003_Node000004" class="edge">
<title>Node3&#45;&gt;Node4</title>
<g id="a_edge3_Node000003_Node000004"><a xlink:title=" ">
<path fill="none" stroke="#63b8ff" d="M267.4,-278.29C272.35,-323.47 290.39,-429.38 353.25,-485 360.89,-491.76 370.57,-496.19 380.45,-499.07"/>
<polygon fill="#63b8ff" stroke="#63b8ff" points="270.91,-278.14 266.45,-268.52 263.94,-278.81 270.91,-278.14"/>
</a>
</g>
</g>
<!-- Node5 -->
<g id="Node000005" class="node">
<title>Node5</title>
<g id="a_Node000005"><a xlink:href="class_o_c_a_1_1_c_a_f_e_v_d_b_1_1_page_renderer_1_1_instrument_insurances.html" target="_top" xlink:title="Render the instrument insurances of the club&#45;members.">
<polygon fill="white" stroke="#666666" points="485.5,-476 375,-476 375,-456 485.5,-456 485.5,-476"/>
<text text-anchor="middle" x="430.25" y="-462.5" font-family="Helvetica,sans-Serif" font-size="10.00">InstrumentInsurances</text>
</a>
</g>
</g>
<!-- Node3&#45;&gt;Node5 -->
<g id="edge4_Node000003_Node000005" class="edge">
<title>Node3&#45;&gt;Node5</title>
<g id="a_edge4_Node000003_Node000005"><a xlink:title=" ">
<path fill="none" stroke="#63b8ff" d="M269.22,-278.22C277.06,-317.7 299.49,-402.46 353.25,-447 359.53,-452.21 367.05,-456.02 374.87,-458.8"/>
<polygon fill="#63b8ff" stroke="#63b8ff" points="272.7,-277.79 267.44,-268.59 265.82,-279.06 272.7,-277.79"/>
</a>
</g>
</g>
<!-- Node6 -->
<g id="Node000006" class="node">
<title>Node6</title>
<g id="a_Node000006"><a xlink:href="class_o_c_a_1_1_c_a_f_e_v_d_b_1_1_page_renderer_1_1_instruments.html" target="_top" xlink:title="Table generator for Instruments table.">
<polygon fill="white" stroke="#666666" points="464.12,-438 396.38,-438 396.38,-418 464.12,-418 464.12,-438"/>
<text text-anchor="middle" x="430.25" y="-424.5" font-family="Helvetica,sans-Serif" font-size="10.00">Instruments</text>
</a>
</g>
</g>
<!-- Node3&#45;&gt;Node6 -->
<g id="edge5_Node000003_Node000006" class="edge">
<title>Node3&#45;&gt;Node6</title>
<g id="a_edge5_Node000003_Node000006"><a xlink:title=" ">
<path fill="none" stroke="#63b8ff" d="M271.84,-278.1C282.72,-311.24 308.42,-375.18 353.25,-409 365.52,-418.26 381.76,-423.04 396.08,-425.5"/>
<polygon fill="#63b8ff" stroke="#63b8ff" points="275.27,-277.35 268.95,-268.84 268.59,-279.43 275.27,-277.35"/>
</a>
</g>
</g>
<!-- Node7 -->
<g id="Node000007" class="node">
<title>Node7</title>
<g id="a_Node000007"><a xlink:href="class_o_c_a_1_1_c_a_f_e_v_d_b_1_1_page_renderer_1_1_insurance_brokers.html" target="_top" xlink:title="Table generator for Instruments table.">
<polygon fill="white" stroke="#666666" points="476.5,-400 384,-400 384,-380 476.5,-380 476.5,-400"/>
<text text-anchor="middle" x="430.25" y="-386.5" font-family="Helvetica,sans-Serif" font-size="10.00">InsuranceBrokers</text>
</a>
</g>
</g>
<!-- Node3&#45;&gt;Node7 -->
<g id="edge6_Node000003_Node000007" class="edge">
<title>Node3&#45;&gt;Node7</title>
<g id="a_edge6_Node000003_Node000007"><a xlink:title=" ">
<path fill="none" stroke="#63b8ff" d="M275.81,-277.56C289.7,-303.41 317.06,-347.28 353.25,-371 362.35,-376.96 373.18,-381.06 383.78,-383.86"/>
<polygon fill="#63b8ff" stroke="#63b8ff" points="278.95,-276 271.24,-268.73 272.73,-279.22 278.95,-276"/>
</a>
</g>
</g>
<!-- Node8 -->
<g id="Node000008" class="node">
<title>Node8</title>
<g id="a_Node000008"><a xlink:href="class_o_c_a_1_1_c_a_f_e_v_d_b_1_1_page_renderer_1_1_insurance_rates.html" target="_top" xlink:title="Table generator for Instruments table.">
<polygon fill="white" stroke="#666666" points="472.75,-362 387.75,-362 387.75,-342 472.75,-342 472.75,-362"/>
<text text-anchor="middle" x="430.25" y="-348.5" font-family="Helvetica,sans-Serif" font-size="10.00">InsuranceRates</text>
</a>
</g>
</g>
<!-- Node3&#45;&gt;Node8 -->
<g id="edge7_Node000003_Node000008" class="edge">
<title>Node3&#45;&gt;Node8</title>
<g id="a_edge7_Node000003_Node000008"><a xlink:title=" ">
<path fill="none" stroke="#63b8ff" d="M282.05,-275.58C298.42,-292.96 325.11,-318.36 353.25,-333 363.75,-338.46 375.89,-342.4 387.34,-345.23"/>
<polygon fill="#63b8ff" stroke="#63b8ff" points="284.84,-273.45 275.5,-268.44 279.68,-278.18 284.84,-273.45"/>
</a>
</g>
</g>
<!-- Node9 -->
<g id="Node000009" class="node">
<title>Node9</title>
<g id="a_Node000009"><a xlink:href="class_o_c_a_1_1_c_a_f_e_v_d_b_1_1_page_renderer_1_1_musicians.html" target="_top" xlink:title="Table generator for Musicians table.">
<polygon fill="white" stroke="#666666" points="460.38,-324 400.12,-324 400.12,-304 460.38,-304 460.38,-324"/>
<text text-anchor="middle" x="430.25" y="-310.5" font-family="Helvetica,sans-Serif" font-size="10.00">Musicians</text>
</a>
</g>
</g>
<!-- Node3&#45;&gt;Node9 -->
<g id="edge8_Node000003_Node000009" class="edge">
<title>Node3&#45;&gt;Node9</title>
<g id="a_edge8_Node000003_Node000009"><a xlink:title=" ">
<path fill="none" stroke="#63b8ff" d="M297.01,-272.1C313.5,-279.65 334.19,-288.53 353.25,-295 368.32,-300.11 385.49,-304.52 399.69,-307.8"/>
<polygon fill="#63b8ff" stroke="#63b8ff" points="298.76,-269.06 288.22,-268.01 295.81,-275.4 298.76,-269.06"/>
</a>
</g>
</g>
<!-- Node10 -->
<g id="Node000010" class="node">
<title>Node10</title>
<g id="a_Node000010"><a xlink:href="class_o_c_a_1_1_c_a_f_e_v_d_b_1_1_page_renderer_1_1_project_instrumentation_numbers.html" target="_top" xlink:title="Table generator for Instruments table.">
<polygon fill="white" stroke="#666666" points="507.25,-286 353.25,-286 353.25,-266 507.25,-266 507.25,-286"/>
<text text-anchor="middle" x="430.25" y="-272.5" font-family="Helvetica,sans-Serif" font-size="10.00">ProjectInstrumentationNumbers</text>
</a>
</g>
</g>
<!-- Node3&#45;&gt;Node10 -->
<g id="edge9_Node000003_Node000010" class="edge">
<title>Node3&#45;&gt;Node10</title>
<g id="a_edge9_Node000003_Node000010"><a xlink:title=" ">
<path fill="none" stroke="#63b8ff" d="M328.8,-264.34C336.73,-265.26 344.9,-266.21 353.01,-267.15"/>
<polygon fill="#63b8ff" stroke="#63b8ff" points="329.24,-260.86 318.9,-263.19 328.43,-267.82 329.24,-260.86"/>
</a>
</g>
</g>
<!-- Node11 -->
<g id="Node000011" class="node">
<title>Node11</title>
<g id="a_Node000011"><a xlink:href="class_o_c_a_1_1_c_a_f_e_v_d_b_1_1_page_renderer_1_1_project_participant_fields.html" target="_top" xlink:title="Table generator for Instruments table.">
<polygon fill="white" stroke="#666666" points="490,-248 370.5,-248 370.5,-228 490,-228 490,-248"/>
<text text-anchor="middle" x="430.25" y="-234.5" font-family="Helvetica,sans-Serif" font-size="10.00">ProjectParticipantFields</text>
</a>
</g>
</g>
<!-- Node3&#45;&gt;Node11 -->
<g id="edge10_Node000003_Node000011" class="edge">
<title>Node3&#45;&gt;Node11</title>
<g id="a_edge10_Node000003_Node000011"><a xlink:title=" ">
<path fill="none" stroke="#63b8ff" d="M328.64,-249.68C342.27,-248.1 356.64,-246.43 370.12,-244.87"/>
<polygon fill="#63b8ff" stroke="#63b8ff" points="328.43,-246.18 318.9,-250.81 329.24,-253.14 328.43,-246.18"/>
</a>
</g>
</g>
<!-- Node12 -->
<g id="Node000012" class="node">
<title>Node12</title>
<g id="a_Node000012"><a xlink:href="class_o_c_a_1_1_c_a_f_e_v_d_b_1_1_page_renderer_1_1_project_participants.html" target="_top" xlink:title="Table generator for Instruments table.">
<polygon fill="white" stroke="#666666" points="479.5,-210 381,-210 381,-190 479.5,-190 479.5,-210"/>
<text text-anchor="middle" x="430.25" y="-196.5" font-family="Helvetica,sans-Serif" font-size="10.00">ProjectParticipants</text>
</a>
</g>
</g>
<!-- Node3&#45;&gt;Node12 -->
<g id="edge11_Node000003_Node000012" class="edge">
<title>Node3&#45;&gt;Node12</title>
<g id="a_edge11_Node000003_Node000012"><a xlink:title=" ">
<path fill="none" stroke="#63b8ff" d="M297.01,-241.9C313.5,-234.35 334.19,-225.47 353.25,-219 362.52,-215.85 372.59,-212.97 382.28,-210.46"/>
<polygon fill="#63b8ff" stroke="#63b8ff" points="295.81,-238.6 288.22,-245.99 298.76,-244.94 295.81,-238.6"/>
</a>
</g>
</g>
<!-- Node13 -->
<g id="Node000013" class="node">
<title>Node13</title>
<g id="a_Node000013"><a xlink:href="class_o_c_a_1_1_c_a_f_e_v_d_b_1_1_page_renderer_1_1_project_payments.html" target="_top" xlink:title="Table generator for Instruments table.">
<polygon fill="white" stroke="#666666" points="475.75,-172 384.75,-172 384.75,-152 475.75,-152 475.75,-172"/>
<text text-anchor="middle" x="430.25" y="-158.5" font-family="Helvetica,sans-Serif" font-size="10.00">ProjectPayments</text>
</a>
</g>
</g>
<!-- Node3&#45;&gt;Node13 -->
<g id="edge12_Node000003_Node000013" class="edge">
<title>Node3&#45;&gt;Node13</title>
<g id="a_edge12_Node000003_Node000013"><a xlink:title=" ">
<path fill="none" stroke="#63b8ff" d="M282.05,-238.42C298.42,-221.04 325.11,-195.64 353.25,-181 362.9,-175.98 373.94,-172.24 384.56,-169.47"/>
<polygon fill="#63b8ff" stroke="#63b8ff" points="279.68,-235.82 275.5,-245.56 284.84,-240.55 279.68,-235.82"/>
</a>
</g>
</g>
<!-- Node14 -->
<g id="Node000014" class="node">
<title>Node14</title>
<g id="a_Node000014"><a xlink:href="class_o_c_a_1_1_c_a_f_e_v_d_b_1_1_page_renderer_1_1_projects.html" target="_top" xlink:title="Table generator for Projects table.">
<polygon fill="white" stroke="#666666" points="456.25,-134 404.25,-134 404.25,-114 456.25,-114 456.25,-134"/>
<text text-anchor="middle" x="430.25" y="-120.5" font-family="Helvetica,sans-Serif" font-size="10.00">Projects</text>
</a>
</g>
</g>
<!-- Node3&#45;&gt;Node14 -->
<g id="edge13_Node000003_Node000014" class="edge">
<title>Node3&#45;&gt;Node14</title>
<g id="a_edge13_Node000003_Node000014"><a xlink:title=" ">
<path fill="none" stroke="#63b8ff" d="M275.81,-236.44C289.7,-210.59 317.06,-166.72 353.25,-143 368.38,-133.08 388.3,-128.34 403.95,-126.08"/>
<polygon fill="#63b8ff" stroke="#63b8ff" points="272.73,-234.78 271.24,-245.27 278.95,-238 272.73,-234.78"/>
</a>
</g>
</g>
<!-- Node15 -->
<g id="Node000015" class="node">
<title>Node15</title>
<g id="a_Node000015"><a xlink:href="class_o_c_a_1_1_c_a_f_e_v_d_b_1_1_page_renderer_1_1_sepa_bank_accounts.html" target="_top" xlink:title="TBD.">
<polygon fill="white" stroke="#666666" points="481.38,-96 379.12,-96 379.12,-76 481.38,-76 481.38,-96"/>
<text text-anchor="middle" x="430.25" y="-82.5" font-family="Helvetica,sans-Serif" font-size="10.00">SepaBankAccounts</text>
</a>
</g>
</g>
<!-- Node3&#45;&gt;Node15 -->
<g id="edge14_Node000003_Node000015" class="edge">
<title>Node3&#45;&gt;Node15</title>
<g id="a_edge14_Node000003_Node000015"><a xlink:title=" ">
<path fill="none" stroke="#63b8ff" d="M271.84,-235.9C282.72,-202.76 308.42,-138.82 353.25,-105 360.74,-99.35 369.72,-95.36 378.83,-92.55"/>
<polygon fill="#63b8ff" stroke="#63b8ff" points="268.59,-234.57 268.95,-245.16 275.27,-236.65 268.59,-234.57"/>
</a>
</g>
</g>
<!-- Node16 -->
<g id="Node000016" class="node">
<title>Node16</title>
<g id="a_Node000016"><a xlink:href="class_o_c_a_1_1_c_a_f_e_v_d_b_1_1_page_renderer_1_1_sepa_bulk_transactions.html" target="_top" xlink:title="TBD.">
<polygon fill="white" stroke="#666666" points="487.38,-58 373.12,-58 373.12,-38 487.38,-38 487.38,-58"/>
<text text-anchor="middle" x="430.25" y="-44.5" font-family="Helvetica,sans-Serif" font-size="10.00">SepaBulkTransactions</text>
</a>
</g>
</g>
<!-- Node3&#45;&gt;Node16 -->
<g id="edge15_Node000003_Node000016" class="edge">
<title>Node3&#45;&gt;Node16</title>
<g id="a_edge15_Node000003_Node000016"><a xlink:title=" ">
<path fill="none" stroke="#63b8ff" d="M269.22,-235.78C277.06,-196.3 299.49,-111.54 353.25,-67 359.01,-62.23 365.8,-58.63 372.92,-55.92"/>
<polygon fill="#63b8ff" stroke="#63b8ff" points="265.82,-234.94 267.44,-245.41 272.7,-236.21 265.82,-234.94"/>
</a>
</g>
</g>
<!-- Node17 -->
<g id="Node000017" class="node">
<title>Node17</title>
<g id="a_Node000017"><a xlink:href="class_o_c_a_1_1_c_a_f_e_v_d_b_1_1_page_renderer_1_1_tax_exemption_notices.html" target="_top" xlink:title="Table generator TaxExemptionNotice.">
<polygon fill="white" stroke="#666666" points="486.25,-20 374.25,-20 374.25,0 486.25,0 486.25,-20"/>
<text text-anchor="middle" x="430.25" y="-6.5" font-family="Helvetica,sans-Serif" font-size="10.00">TaxExemptionNotices</text>
</a>
</g>
</g>
<!-- Node3&#45;&gt;Node17 -->
<g id="edge16_Node000003_Node000017" class="edge">
<title>Node3&#45;&gt;Node17</title>
<g id="a_edge16_Node000003_Node000017"><a xlink:title=" ">
<path fill="none" stroke="#63b8ff" d="M267.4,-235.71C272.35,-190.53 290.39,-84.62 353.25,-29 359.16,-23.77 366.29,-19.94 373.79,-17.13"/>
<polygon fill="#63b8ff" stroke="#63b8ff" points="263.94,-235.19 266.45,-245.48 270.91,-235.86 263.94,-235.19"/>
</a>
</g>
</g>
</g>
</svg>
