<?xml version="1.0" encoding="UTF-8" standalone="no"?>
<!DOCTYPE svg PUBLIC "-//W3C//DTD SVG 1.1//EN"
 "http://www.w3.org/Graphics/SVG/1.1/DTD/svg11.dtd">
<!-- Generated by graphviz version 9.0.0 (20230911.1827)
 -->
<!-- Title: getCurrent Pages: 1 -->
<svg width="421pt" height="238pt"
 viewBox="0.00 0.00 420.50 238.00" xmlns="http://www.w3.org/2000/svg" xmlns:xlink="http://www.w3.org/1999/xlink">
<g id="graph0" class="graph" transform="scale(1 1) rotate(0) translate(4 234)">
<title>getCurrent</title>
<!-- Node1 -->
<g id="Node000001" class="node">
<title>Node1</title>
<g id="a_Node000001"><a xlink:title="Return the cached value of the current state.">
<polygon fill="#999999" stroke="#666666" points="412.5,-125 350.75,-125 350.75,-105 412.5,-105 412.5,-125"/>
<text text-anchor="middle" x="381.62" y="-111.5" font-family="Helvetica,sans-Serif" font-size="10.00">getCurrent</text>
</a>
</g>
</g>
<!-- Node2 -->
<g id="Node000002" class="node">
<title>Node2</title>
<g id="a_Node000002"><a xlink:href="class_o_c_a_1_1_c_a_f_e_v_d_b_1_1_common_1_1_abstract_progress_status.html#a58e95c1e3550af42d009d6692bc77b25" target="_top" xlink:title="{Add the given amount to the progress&#45;status counter.bool|int Current value of the counter or false i...">
<polygon fill="white" stroke="#666666" points="313.62,-230 182.12,-230 182.12,-186 313.62,-186 313.62,-230"/>
<text text-anchor="start" x="190.12" y="-216.5" font-family="Helvetica,sans-Serif" font-size="10.00">OCA\CAFEVDB\Common</text>
<text text-anchor="start" x="190.12" y="-204.5" font-family="Helvetica,sans-Serif" font-size="10.00">\AbstractProgressStatus</text>
<text text-anchor="middle" x="247.88" y="-192.5" font-family="Helvetica,sans-Serif" font-size="10.00">\increment</text>
</a>
</g>
</g>
<!-- Node1&#45;&gt;Node2 -->
<g id="edge1_Node000001_Node000002" class="edge">
<title>Node1&#45;&gt;Node2</title>
<g id="a_edge1_Node000001_Node000002"><a xlink:title=" ">
<path fill="none" stroke="#63b8ff" d="M363.87,-133.65C351.28,-146.91 333.11,-164.51 314.75,-177 310.26,-180.06 305.41,-182.96 300.47,-185.68"/>
<polygon fill="#63b8ff" stroke="#63b8ff" points="366.37,-136.1 370.6,-126.39 361.24,-131.34 366.37,-136.1"/>
</a>
</g>
</g>
<!-- Node3 -->
<g id="Node000003" class="node">
<title>Node3</title>
<g id="a_Node000003"><a xlink:href="class_o_c_a_1_1_c_a_f_e_v_d_b_1_1_controller_1_1_progress_status_controller.html#adb141c8ddbf823f25281b1ff95a3420c" target="_top" xlink:title=" ">
<polygon fill="white" stroke="#666666" points="314.75,-168 181,-168 181,-124 314.75,-124 314.75,-168"/>
<text text-anchor="start" x="189" y="-154.5" font-family="Helvetica,sans-Serif" font-size="10.00">OCA\CAFEVDB\Controller</text>
<text text-anchor="start" x="189" y="-142.5" font-family="Helvetica,sans-Serif" font-size="10.00">\ProgressStatusController</text>
<text text-anchor="middle" x="247.88" y="-130.5" font-family="Helvetica,sans-Serif" font-size="10.00">\progressResponse</text>
</a>
</g>
</g>
<!-- Node1&#45;&gt;Node3 -->
<g id="edge2_Node000001_Node000003" class="edge">
<title>Node1&#45;&gt;Node3</title>
<g id="a_edge2_Node000001_Node000003"><a xlink:title=" ">
<path fill="none" stroke="#63b8ff" d="M339.23,-124.74C331.57,-126.54 323.39,-128.47 315.2,-130.39"/>
<polygon fill="#63b8ff" stroke="#63b8ff" points="339.99,-128.16 348.93,-122.46 338.39,-121.34 339.99,-128.16"/>
</a>
</g>
</g>
<!-- Node6 -->
<g id="Node000006" class="node">
<title>Node6</title>
<g id="a_Node000006"><a xlink:href="class_o_c_a_1_1_c_a_f_e_v_d_b_1_1_common_1_1_abstract_progress_status.html#a87449bdd364c33ff024d32896342bf31" target="_top" xlink:title="{Set the data value and sync.void}">
<polygon fill="white" stroke="#666666" points="313.62,-106 182.12,-106 182.12,-62 313.62,-62 313.62,-106"/>
<text text-anchor="start" x="190.12" y="-92.5" font-family="Helvetica,sans-Serif" font-size="10.00">OCA\CAFEVDB\Common</text>
<text text-anchor="start" x="190.12" y="-80.5" font-family="Helvetica,sans-Serif" font-size="10.00">\AbstractProgressStatus</text>
<text text-anchor="middle" x="247.88" y="-68.5" font-family="Helvetica,sans-Serif" font-size="10.00">\setData</text>
</a>
</g>
</g>
<!-- Node1&#45;&gt;Node6 -->
<g id="edge5_Node000001_Node000006" class="edge">
<title>Node1&#45;&gt;Node6</title>
<g id="a_edge5_Node000001_Node000006"><a xlink:title=" ">
<path fill="none" stroke="#63b8ff" d="M339.37,-105.29C331.25,-103.38 322.55,-101.34 313.87,-99.29"/>
<polygon fill="#63b8ff" stroke="#63b8ff" points="338.39,-108.66 348.93,-107.54 339.99,-101.84 338.39,-108.66"/>
</a>
</g>
</g>
<!-- Node7 -->
<g id="Node000007" class="node">
<title>Node7</title>
<g id="a_Node000007"><a xlink:href="class_o_c_a_1_1_c_a_f_e_v_d_b_1_1_common_1_1_abstract_progress_status.html#a186796ac9898d948be13005f114e45f5" target="_top" xlink:title="{Set the target value and sync.void}">
<polygon fill="white" stroke="#666666" points="313.62,-44 182.12,-44 182.12,0 313.62,0 313.62,-44"/>
<text text-anchor="start" x="190.12" y="-30.5" font-family="Helvetica,sans-Serif" font-size="10.00">OCA\CAFEVDB\Common</text>
<text text-anchor="start" x="190.12" y="-18.5" font-family="Helvetica,sans-Serif" font-size="10.00">\AbstractProgressStatus</text>
<text text-anchor="middle" x="247.88" y="-6.5" font-family="Helvetica,sans-Serif" font-size="10.00">\setTarget</text>
</a>
</g>
</g>
<!-- Node1&#45;&gt;Node7 -->
<g id="edge6_Node000001_Node000007" class="edge">
<title>Node1&#45;&gt;Node7</title>
<g id="a_edge6_Node000001_Node000007"><a xlink:title=" ">
<path fill="none" stroke="#63b8ff" d="M363.87,-96.35C351.28,-83.09 333.11,-65.49 314.75,-53 310.26,-49.94 305.41,-47.04 300.47,-44.32"/>
<polygon fill="#63b8ff" stroke="#63b8ff" points="361.24,-98.66 370.6,-103.61 366.37,-93.9 361.24,-98.66"/>
</a>
</g>
</g>
<!-- Node4 -->
<g id="Node000004" class="node">
<title>Node4</title>
<g id="a_Node000004"><a xlink:href="class_o_c_a_1_1_c_a_f_e_v_d_b_1_1_controller_1_1_progress_status_controller.html#ad9c56458219c1917c2f3fbe9a02b070a" target="_top" xlink:title=" ">
<polygon fill="white" stroke="#666666" points="139.38,-196 5.62,-196 5.62,-152 139.38,-152 139.38,-196"/>
<text text-anchor="start" x="13.62" y="-182.5" font-family="Helvetica,sans-Serif" font-size="10.00">OCA\CAFEVDB\Controller</text>
<text text-anchor="start" x="13.62" y="-170.5" font-family="Helvetica,sans-Serif" font-size="10.00">\ProgressStatusController</text>
<text text-anchor="middle" x="72.5" y="-158.5" font-family="Helvetica,sans-Serif" font-size="10.00">\action</text>
</a>
</g>
</g>
<!-- Node3&#45;&gt;Node4 -->
<g id="edge3_Node000003_Node000004" class="edge">
<title>Node3&#45;&gt;Node4</title>
<g id="a_edge3_Node000003_Node000004"><a xlink:title=" ">
<path fill="none" stroke="#63b8ff" d="M169.64,-158.47C159.63,-160.09 149.45,-161.73 139.64,-163.32"/>
<polygon fill="#63b8ff" stroke="#63b8ff" points="170.03,-161.96 179.34,-156.91 168.91,-155.05 170.03,-161.96"/>
</a>
</g>
</g>
<!-- Node5 -->
<g id="Node000005" class="node">
<title>Node5</title>
<g id="a_Node000005"><a xlink:href="class_o_c_a_1_1_c_a_f_e_v_d_b_1_1_controller_1_1_progress_status_controller.html#a5ac35cd9b27eb36bb68f58f665b440e5" target="_top" xlink:title=" ">
<polygon fill="white" stroke="#666666" points="145,-134 0,-134 0,-102 145,-102 145,-134"/>
<text text-anchor="start" x="8" y="-120.5" font-family="Helvetica,sans-Serif" font-size="10.00">OCA\CAFEVDB\Controller</text>
<text text-anchor="middle" x="72.5" y="-108.5" font-family="Helvetica,sans-Serif" font-size="10.00">\ProgressStatusController\get</text>
</a>
</g>
</g>
<!-- Node3&#45;&gt;Node5 -->
<g id="edge4_Node000003_Node000005" class="edge">
<title>Node3&#45;&gt;Node5</title>
<g id="a_edge4_Node000003_Node000005"><a xlink:title=" ">
<path fill="none" stroke="#63b8ff" d="M169.58,-133.52C161.54,-132.22 153.4,-130.9 145.43,-129.62"/>
<polygon fill="#63b8ff" stroke="#63b8ff" points="168.91,-136.95 179.34,-135.09 170.03,-130.04 168.91,-136.95"/>
</a>
</g>
</g>
</g>
</svg>
