<?xml version="1.0" encoding="UTF-8" standalone="no"?>
<!DOCTYPE svg PUBLIC "-//W3C//DTD SVG 1.1//EN"
 "http://www.w3.org/Graphics/SVG/1.1/DTD/svg11.dtd">
<!-- Generated by graphviz version 9.0.0 (20230911.1827)
 -->
<!-- Title: getSharedSubFolderPath Pages: 1 -->
<svg width="630pt" height="180pt"
 viewBox="0.00 0.00 630.00 180.00" xmlns="http://www.w3.org/2000/svg" xmlns:xlink="http://www.w3.org/1999/xlink">
<g id="graph0" class="graph" transform="scale(1 1) rotate(0) translate(4 176)">
<title>getSharedSubFolderPath</title>
<!-- Node1 -->
<g id="Node000001" class="node">
<title>Node1</title>
<g id="a_Node000001"><a xlink:title="Create the full&#45;path for the sub&#45;folder corresponding to the given config key.">
<polygon fill="#999999" stroke="#666666" points="622,-77 497.25,-77 497.25,-57 622,-57 622,-77"/>
<text text-anchor="middle" x="559.62" y="-63.5" font-family="Helvetica,sans-Serif" font-size="10.00">getSharedSubFolderPath</text>
</a>
</g>
</g>
<!-- Node2 -->
<g id="Node000002" class="node">
<title>Node2</title>
<g id="a_Node000002"><a xlink:href="namespace_o_c_a_1_1_c_a_f_e_v_d_b_1_1_traits.html#a642b5ca28f1a47e6409971d1aeb16c2c" target="_top" xlink:title=" ">
<polygon fill="white" stroke="#666666" points="459.75,-134 348.5,-134 348.5,-114 459.75,-114 459.75,-134"/>
<text text-anchor="middle" x="404.12" y="-120.5" font-family="Helvetica,sans-Serif" font-size="10.00">getFinanceFolderPath</text>
</a>
</g>
</g>
<!-- Node1&#45;&gt;Node2 -->
<g id="edge1_Node000001_Node000002" class="edge">
<title>Node1&#45;&gt;Node2</title>
<g id="a_edge1_Node000001_Node000002"><a xlink:title=" ">
<path fill="none" stroke="#63b8ff" d="M522.24,-81.66C504,-88.88 481.54,-97.61 461.25,-105 453.32,-107.89 444.72,-110.87 436.68,-113.6"/>
<polygon fill="#63b8ff" stroke="#63b8ff" points="523.31,-85 531.3,-78.04 520.72,-78.49 523.31,-85"/>
</a>
</g>
</g>
<!-- Node8 -->
<g id="Node000008" class="node">
<title>Node8</title>
<g id="a_Node000008"><a xlink:href="namespace_o_c_a_1_1_c_a_f_e_v_d_b_1_1_traits.html#a357251e007461d82f748af451aed3a91" target="_top" xlink:title=" ">
<polygon fill="white" stroke="#666666" points="459,-96 349.25,-96 349.25,-76 459,-76 459,-96"/>
<text text-anchor="middle" x="404.12" y="-82.5" font-family="Helvetica,sans-Serif" font-size="10.00">getOutBoxFolderPath</text>
</a>
</g>
</g>
<!-- Node1&#45;&gt;Node8 -->
<g id="edge7_Node000001_Node000008" class="edge">
<title>Node1&#45;&gt;Node8</title>
<g id="a_edge7_Node000001_Node000008"><a xlink:title=" ">
<path fill="none" stroke="#63b8ff" d="M485.82,-76.01C476.88,-77.12 467.86,-78.23 459.26,-79.3"/>
<polygon fill="#63b8ff" stroke="#63b8ff" points="486.08,-79.51 495.57,-74.8 485.22,-72.56 486.08,-79.51"/>
</a>
</g>
</g>
<!-- Node9 -->
<g id="Node000009" class="node">
<title>Node9</title>
<g id="a_Node000009"><a xlink:href="namespace_o_c_a_1_1_c_a_f_e_v_d_b_1_1_traits.html#ac387596eb24fa62f0170220095911a30" target="_top" xlink:title=" ">
<polygon fill="white" stroke="#666666" points="461.25,-58 347,-58 347,-38 461.25,-38 461.25,-58"/>
<text text-anchor="middle" x="404.12" y="-44.5" font-family="Helvetica,sans-Serif" font-size="10.00">getPostBoxFolderPath</text>
</a>
</g>
</g>
<!-- Node1&#45;&gt;Node9 -->
<g id="edge8_Node000001_Node000009" class="edge">
<title>Node1&#45;&gt;Node9</title>
<g id="a_edge8_Node000001_Node000009"><a xlink:title=" ">
<path fill="none" stroke="#63b8ff" d="M485.74,-57.98C477.67,-56.98 469.54,-55.97 461.72,-55"/>
<polygon fill="#63b8ff" stroke="#63b8ff" points="485.22,-61.44 495.57,-59.2 486.08,-54.49 485.22,-61.44"/>
</a>
</g>
</g>
<!-- Node10 -->
<g id="Node000010" class="node">
<title>Node10</title>
<g id="a_Node000010"><a xlink:href="namespace_o_c_a_1_1_c_a_f_e_v_d_b_1_1_traits.html#aa58d61eef353556bd02376d0ac587ba0" target="_top" xlink:title=" ">
<polygon fill="white" stroke="#666666" points="460.5,-20 347.75,-20 347.75,0 460.5,0 460.5,-20"/>
<text text-anchor="middle" x="404.12" y="-6.5" font-family="Helvetica,sans-Serif" font-size="10.00">getProjectsFolderPath</text>
</a>
</g>
</g>
<!-- Node1&#45;&gt;Node10 -->
<g id="edge9_Node000001_Node000010" class="edge">
<title>Node1&#45;&gt;Node10</title>
<g id="a_edge9_Node000001_Node000010"><a xlink:title=" ">
<path fill="none" stroke="#63b8ff" d="M522.24,-52.34C504,-45.12 481.54,-36.39 461.25,-29 453.32,-26.11 444.72,-23.13 436.68,-20.4"/>
<polygon fill="#63b8ff" stroke="#63b8ff" points="520.72,-55.51 531.3,-55.96 523.31,-49 520.72,-55.51"/>
</a>
</g>
</g>
<!-- Node3 -->
<g id="Node000003" class="node">
<title>Node3</title>
<g id="a_Node000003"><a xlink:href="namespace_o_c_a_1_1_c_a_f_e_v_d_b_1_1_traits.html#a96fbb9c63c9b6d8451834c182a7484b9" target="_top" xlink:title=" ">
<polygon fill="white" stroke="#666666" points="310.62,-172 182.12,-172 182.12,-152 310.62,-152 310.62,-172"/>
<text text-anchor="middle" x="246.38" y="-158.5" font-family="Helvetica,sans-Serif" font-size="10.00">getBankTransactionsPath</text>
</a>
</g>
</g>
<!-- Node2&#45;&gt;Node3 -->
<g id="edge2_Node000002_Node000003" class="edge">
<title>Node2&#45;&gt;Node3</title>
<g id="a_edge2_Node000002_Node000003"><a xlink:title=" ">
<path fill="none" stroke="#63b8ff" d="M349.1,-137.18C329.83,-141.88 308.4,-147.11 290.21,-151.55"/>
<polygon fill="#63b8ff" stroke="#63b8ff" points="349.8,-140.61 358.68,-134.84 348.14,-133.81 349.8,-140.61"/>
</a>
</g>
</g>
<!-- Node4 -->
<g id="Node000004" class="node">
<title>Node4</title>
<g id="a_Node000004"><a xlink:href="namespace_o_c_a_1_1_c_a_f_e_v_d_b_1_1_traits.html#aa0764db1b1533db78bb2f515fad6f25a" target="_top" xlink:title=" ">
<polygon fill="white" stroke="#666666" points="311,-134 181.75,-134 181.75,-114 311,-114 311,-134"/>
<text text-anchor="middle" x="246.38" y="-120.5" font-family="Helvetica,sans-Serif" font-size="10.00">getFinancialBalancesPath</text>
</a>
</g>
</g>
<!-- Node2&#45;&gt;Node4 -->
<g id="edge3_Node000002_Node000004" class="edge">
<title>Node2&#45;&gt;Node4</title>
<g id="a_edge3_Node000002_Node000004"><a xlink:title=" ">
<path fill="none" stroke="#63b8ff" d="M336.85,-124C328.41,-124 319.78,-124 311.38,-124"/>
<polygon fill="#63b8ff" stroke="#63b8ff" points="336.7,-127.5 346.7,-124 336.7,-120.5 336.7,-127.5"/>
</a>
</g>
</g>
<!-- Node6 -->
<g id="Node000006" class="node">
<title>Node6</title>
<g id="a_Node000006"><a xlink:href="namespace_o_c_a_1_1_c_a_f_e_v_d_b_1_1_traits.html#ab75c56fd73f62d264749cb114869e61f" target="_top" xlink:title=" ">
<polygon fill="white" stroke="#666666" points="302.38,-96 190.38,-96 190.38,-76 302.38,-76 302.38,-96"/>
<text text-anchor="middle" x="246.38" y="-82.5" font-family="Helvetica,sans-Serif" font-size="10.00">getTaxAuthoritiesPath</text>
</a>
</g>
</g>
<!-- Node2&#45;&gt;Node6 -->
<g id="edge5_Node000002_Node000006" class="edge">
<title>Node2&#45;&gt;Node6</title>
<g id="a_edge5_Node000002_Node000006"><a xlink:title=" ">
<path fill="none" stroke="#63b8ff" d="M349.1,-110.82C329.83,-106.12 308.4,-100.89 290.21,-96.45"/>
<polygon fill="#63b8ff" stroke="#63b8ff" points="348.14,-114.19 358.68,-113.16 349.8,-107.39 348.14,-114.19"/>
</a>
</g>
</g>
<!-- Node5 -->
<g id="Node000005" class="node">
<title>Node5</title>
<g id="a_Node000005"><a xlink:href="namespace_o_c_a_1_1_c_a_f_e_v_d_b_1_1_traits.html#a50bd1326b527dbc5a86f52520df9b930" target="_top" xlink:title=" ">
<polygon fill="white" stroke="#666666" points="133.38,-134 12.38,-134 12.38,-114 133.38,-114 133.38,-134"/>
<text text-anchor="middle" x="72.88" y="-120.5" font-family="Helvetica,sans-Serif" font-size="10.00">getProjectBalancesPath</text>
</a>
</g>
</g>
<!-- Node4&#45;&gt;Node5 -->
<g id="edge4_Node000004_Node000005" class="edge">
<title>Node4&#45;&gt;Node5</title>
<g id="a_edge4_Node000004_Node000005"><a xlink:title=" ">
<path fill="none" stroke="#63b8ff" d="M170.02,-124C157.9,-124 145.5,-124 133.81,-124"/>
<polygon fill="#63b8ff" stroke="#63b8ff" points="170,-127.5 180,-124 170,-120.5 170,-127.5"/>
</a>
</g>
</g>
<!-- Node7 -->
<g id="Node000007" class="node">
<title>Node7</title>
<g id="a_Node000007"><a xlink:href="namespace_o_c_a_1_1_c_a_f_e_v_d_b_1_1_traits.html#a902ebc003b3dd89af022973166d54d48" target="_top" xlink:title=" ">
<polygon fill="white" stroke="#666666" points="145.75,-96 0,-96 0,-76 145.75,-76 145.75,-96"/>
<text text-anchor="middle" x="72.88" y="-82.5" font-family="Helvetica,sans-Serif" font-size="10.00">getTaxExemptionNoticesPath</text>
</a>
</g>
</g>
<!-- Node6&#45;&gt;Node7 -->
<g id="edge6_Node000006_Node000007" class="edge">
<title>Node6&#45;&gt;Node7</title>
<g id="a_edge6_Node000006_Node000007"><a xlink:title=" ">
<path fill="none" stroke="#63b8ff" d="M178.78,-86C168.1,-86 157,-86 146.2,-86"/>
<polygon fill="#63b8ff" stroke="#63b8ff" points="178.65,-89.5 188.65,-86 178.65,-82.5 178.65,-89.5"/>
</a>
</g>
</g>
<!-- Node11 -->
<g id="Node000011" class="node">
<title>Node11</title>
<g id="a_Node000011"><a xlink:href="namespace_o_c_a_1_1_c_a_f_e_v_d_b_1_1_traits.html#a414231574e1ad67b0334f0581afc8d3e" target="_top" xlink:title=" ">
<polygon fill="white" stroke="#666666" points="310.62,-20 182.12,-20 182.12,0 310.62,0 310.62,-20"/>
<text text-anchor="middle" x="246.38" y="-6.5" font-family="Helvetica,sans-Serif" font-size="10.00">publishInitialStateForUser</text>
</a>
</g>
</g>
<!-- Node10&#45;&gt;Node11 -->
<g id="edge10_Node000010_Node000011" class="edge">
<title>Node10&#45;&gt;Node11</title>
<g id="a_edge10_Node000010_Node000011"><a xlink:title=" ">
<path fill="none" stroke="#63b8ff" d="M335.83,-10C327.58,-10 319.17,-10 310.99,-10"/>
<polygon fill="#63b8ff" stroke="#63b8ff" points="335.82,-13.5 345.82,-10 335.82,-6.5 335.82,-13.5"/>
</a>
</g>
</g>
</g>
</svg>
