<?xml version="1.0" encoding="UTF-8" standalone="no"?>
<!DOCTYPE svg PUBLIC "-//W3C//DTD SVG 1.1//EN"
 "http://www.w3.org/Graphics/SVG/1.1/DTD/svg11.dtd">
<!-- Generated by graphviz version 9.0.0 (20230911.1827)
 -->
<!-- Title: storageValue Pages: 1 -->
<svg width="384pt" height="85pt"
 viewBox="0.00 0.00 384.00 85.00" xmlns="http://www.w3.org/2000/svg" xmlns:xlink="http://www.w3.org/1999/xlink">
<g id="graph0" class="graph" transform="scale(1 1) rotate(0) translate(4 81)">
<title>storageValue</title>
<!-- Node1 -->
<g id="Node000001" class="node">
<title>Node1</title>
<g id="a_Node000001"><a xlink:title="Parse a storage user input value and return its value in bytes.">
<polygon fill="#999999" stroke="#666666" points="72.25,-58 0,-58 0,-38 72.25,-38 72.25,-58"/>
<text text-anchor="middle" x="36.12" y="-44.5" font-family="Helvetica,sans-Serif" font-size="10.00">storageValue</text>
</a>
</g>
</g>
<!-- Node2 -->
<g id="Node000002" class="node">
<title>Node2</title>
<g id="a_Node000002"><a xlink:href="namespace_o_c_a_1_1_c_a_f_e_v_d_b_1_1_toolkit_1_1_traits.html#ad6fe802e02722fba4dbf037b5542237f" target="_top" xlink:title="Try to parse a floating point value.">
<polygon fill="white" stroke="#666666" points="167,-77 108.25,-77 108.25,-57 167,-57 167,-77"/>
<text text-anchor="middle" x="137.62" y="-63.5" font-family="Helvetica,sans-Serif" font-size="10.00">floatValue</text>
</a>
</g>
</g>
<!-- Node1&#45;&gt;Node2 -->
<g id="edge1_Node000001_Node000002" class="edge">
<title>Node1&#45;&gt;Node2</title>
<g id="a_edge1_Node000001_Node000002"><a xlink:title=" ">
<path fill="none" stroke="#63b8ff" d="M72.49,-54.75C80.38,-56.26 88.81,-57.87 96.87,-59.41"/>
<polygon fill="#63b8ff" stroke="#63b8ff" points="95.96,-62.8 106.44,-61.24 97.28,-55.92 95.96,-62.8"/>
</a>
</g>
</g>
<!-- Node4 -->
<g id="Node000004" class="node">
<title>Node4</title>
<g id="a_Node000004"><a xlink:href="namespace_o_c_a_1_1_c_a_f_e_v_d_b_1_1_toolkit_1_1_traits.html#ab8e67cfd6a09d264ed60634dd794bb30" target="_top" xlink:title="Log an informational message.">
<polygon fill="white" stroke="#666666" points="160.25,-39 115,-39 115,-19 160.25,-19 160.25,-39"/>
<text text-anchor="middle" x="137.62" y="-25.5" font-family="Helvetica,sans-Serif" font-size="10.00">logInfo</text>
</a>
</g>
</g>
<!-- Node1&#45;&gt;Node4 -->
<g id="edge3_Node000001_Node000004" class="edge">
<title>Node1&#45;&gt;Node4</title>
<g id="a_edge3_Node000001_Node000004"><a xlink:title=" ">
<path fill="none" stroke="#63b8ff" d="M72.49,-41.25C82.6,-39.32 93.59,-37.22 103.56,-35.31"/>
<polygon fill="#63b8ff" stroke="#63b8ff" points="104.04,-38.79 113.21,-33.47 102.73,-31.91 104.04,-38.79"/>
</a>
</g>
</g>
<!-- Node3 -->
<g id="Node000003" class="node">
<title>Node3</title>
<g id="a_Node000003"><a xlink:href="namespace_o_c_a_1_1_c_a_f_e_v_d_b_1_1_toolkit_1_1_traits.html#ad532b661eb33c3e755bd3fa8ff1bd7af" target="_top" xlink:title="Return the locale as string, e.g.">
<polygon fill="white" stroke="#666666" points="261,-77 203,-77 203,-57 261,-57 261,-77"/>
<text text-anchor="middle" x="232" y="-63.5" font-family="Helvetica,sans-Serif" font-size="10.00">getLocale</text>
</a>
</g>
</g>
<!-- Node2&#45;&gt;Node3 -->
<g id="edge2_Node000002_Node000003" class="edge">
<title>Node2&#45;&gt;Node3</title>
<g id="a_edge2_Node000002_Node000003"><a xlink:title=" ">
<path fill="none" stroke="#63b8ff" d="M167.35,-67C174.89,-67 183.16,-67 191.18,-67"/>
<polygon fill="#63b8ff" stroke="#63b8ff" points="191.1,-70.5 201.1,-67 191.1,-63.5 191.1,-70.5"/>
</a>
</g>
</g>
<!-- Node5 -->
<g id="Node000005" class="node">
<title>Node5</title>
<g id="a_Node000005"><a xlink:href="namespace_o_c_a_1_1_c_a_f_e_v_d_b_1_1_toolkit_1_1_traits.html#a15cbaddba041ee5582b2bec28a58c7c9" target="_top" xlink:title="Log the given message at the specified level.">
<polygon fill="white" stroke="#666666" points="246.4,-39 217.6,-39 217.6,-19 246.4,-19 246.4,-39"/>
<text text-anchor="middle" x="232" y="-25.5" font-family="Helvetica,sans-Serif" font-size="10.00">log</text>
</a>
</g>
</g>
<!-- Node4&#45;&gt;Node5 -->
<g id="edge4_Node000004_Node000005" class="edge">
<title>Node4&#45;&gt;Node5</title>
<g id="a_edge4_Node000004_Node000005"><a xlink:title=" ">
<path fill="none" stroke="#63b8ff" d="M160.52,-29C174.13,-29 191.69,-29 205.87,-29"/>
<polygon fill="#63b8ff" stroke="#63b8ff" points="205.77,-32.5 215.77,-29 205.77,-25.5 205.77,-32.5"/>
</a>
</g>
</g>
<!-- Node6 -->
<g id="Node000006" class="node">
<title>Node6</title>
<g id="a_Node000006"><a xlink:href="namespace_o_c_a_1_1_c_a_f_e_v_d_b_1_1_toolkit_1_1_traits.html#a97e3b3adabf67bc7d3650ed14214ddaa" target="_top" xlink:title="Return the stored logger class.">
<polygon fill="white" stroke="#666666" points="357.62,-58 315.38,-58 315.38,-38 357.62,-38 357.62,-58"/>
<text text-anchor="middle" x="336.5" y="-44.5" font-family="Helvetica,sans-Serif" font-size="10.00">logger</text>
</a>
</g>
</g>
<!-- Node5&#45;&gt;Node6 -->
<g id="edge5_Node000005_Node000006" class="edge">
<title>Node5&#45;&gt;Node6</title>
<g id="a_edge5_Node000005_Node000006"><a xlink:title=" ">
<path fill="none" stroke="#63b8ff" d="M246.82,-31.56C261.39,-34.26 284.84,-38.61 303.97,-42.15"/>
<polygon fill="#63b8ff" stroke="#63b8ff" points="303.24,-45.58 313.71,-43.96 304.51,-38.7 303.24,-45.58"/>
</a>
</g>
</g>
<!-- Node7 -->
<g id="Node000007" class="node">
<title>Node7</title>
<g id="a_Node000007"><a xlink:href="namespace_o_c_a_1_1_c_a_f_e_v_d_b_1_1_toolkit_1_1_traits.html#ab690a84fb4e720f43308bc354c392bee" target="_top" xlink:title="Map PSR log&#45;levels to ILogger log&#45;levels as the PsrLoggerAdapter only understands those.">
<polygon fill="white" stroke="#666666" points="376,-20 297,-20 297,0 376,0 376,-20"/>
<text text-anchor="middle" x="336.5" y="-6.5" font-family="Helvetica,sans-Serif" font-size="10.00">mapLogLevels</text>
</a>
</g>
</g>
<!-- Node5&#45;&gt;Node7 -->
<g id="edge6_Node000005_Node000007" class="edge">
<title>Node5&#45;&gt;Node7</title>
<g id="a_edge6_Node000005_Node000007"><a xlink:title=" ">
<path fill="none" stroke="#63b8ff" d="M246.82,-26.44C256.91,-24.57 271.26,-21.91 285.48,-19.27"/>
<polygon fill="#63b8ff" stroke="#63b8ff" points="286.09,-22.72 295.28,-17.46 284.81,-15.84 286.09,-22.72"/>
</a>
</g>
</g>
</g>
</svg>
