<?xml version="1.0" encoding="UTF-8" standalone="no"?>
<!DOCTYPE svg PUBLIC "-//W3C//DTD SVG 1.1//EN"
 "http://www.w3.org/Graphics/SVG/1.1/DTD/svg11.dtd">
<!-- Generated by graphviz version 8.0.3 (20230416.2022)
 -->
<!-- Title: getFinancialBalancesPath Pages: 1 -->
<svg width="822pt" height="84pt"
 viewBox="0.00 0.00 822.00 84.00" xmlns="http://www.w3.org/2000/svg" xmlns:xlink="http://www.w3.org/1999/xlink">
<g id="graph0" class="graph" transform="scale(1 1) rotate(0) translate(4 80)">
<title>getFinancialBalancesPath</title>
<!-- Node1 -->
<g id="node1" class="node">
<title>Node1</title>
<g id="a_node1"><a xlink:title=" ">
<polygon fill="#999999" stroke="#666666" points="130,-76 0,-76 0,-57 130,-57 130,-76"/>
<text text-anchor="middle" x="65" y="-64" font-family="Helvetica,sans-Serif" font-size="10.00">getFinancialBalancesPath</text>
</a>
</g>
</g>
<!-- Node2 -->
<g id="node2" class="node">
<title>Node2</title>
<g id="a_node2"><a xlink:href="namespace_o_c_a_1_1_c_a_f_e_v_d_b_1_1_traits.html#aa57ee6dad7c7f33cff6983ad79080946" target="_top" xlink:title="Get a possibly encrypted config value.">
<polygon fill="white" stroke="#666666" points="702,-57 619,-57 619,-38 702,-38 702,-57"/>
<text text-anchor="middle" x="660.5" y="-45" font-family="Helvetica,sans-Serif" font-size="10.00">getConfigValue</text>
</a>
</g>
</g>
<!-- Node1&#45;&gt;Node2 -->
<g id="edge1" class="edge">
<title>Node1&#45;&gt;Node2</title>
<path fill="none" stroke="#63b8ff" d="M130.3,-69.77C228.29,-73.88 420.75,-78.5 583,-61.5 591.12,-60.65 599.68,-59.42 608.01,-58.04"/>
<polygon fill="#63b8ff" stroke="#63b8ff" points="608.53,-61.32 617.77,-56.15 607.32,-54.43 608.53,-61.32"/>
</g>
<!-- Node4 -->
<g id="node4" class="node">
<title>Node4</title>
<g id="a_node4"><a xlink:href="namespace_o_c_a_1_1_c_a_f_e_v_d_b_1_1_traits.html#a642b5ca28f1a47e6409971d1aeb16c2c" target="_top" xlink:title=" ">
<polygon fill="white" stroke="#666666" points="278,-57 166,-57 166,-38 278,-38 278,-57"/>
<text text-anchor="middle" x="222" y="-45" font-family="Helvetica,sans-Serif" font-size="10.00">getFinanceFolderPath</text>
</a>
</g>
</g>
<!-- Node1&#45;&gt;Node4 -->
<g id="edge3" class="edge">
<title>Node1&#45;&gt;Node4</title>
<path fill="none" stroke="#63b8ff" d="M130.39,-58.61C138.6,-57.6 147.01,-56.57 155.25,-55.56"/>
<polygon fill="#63b8ff" stroke="#63b8ff" points="155.44,-58.94 164.94,-54.25 154.58,-51.99 155.44,-58.94"/>
</g>
<!-- Node3 -->
<g id="node3" class="node">
<title>Node3</title>
<g id="a_node3"><a xlink:href="namespace_o_c_a_1_1_c_a_f_e_v_d_b_1_1_traits.html#a4bb87734b0f297c2a6d2095820942c48" target="_top" xlink:title="Return the stored config&#45;service for convenience.">
<polygon fill="white" stroke="#666666" points="814,-57 738,-57 738,-38 814,-38 814,-57"/>
<text text-anchor="middle" x="776" y="-45" font-family="Helvetica,sans-Serif" font-size="10.00">configService</text>
</a>
</g>
</g>
<!-- Node2&#45;&gt;Node3 -->
<g id="edge2" class="edge">
<title>Node2&#45;&gt;Node3</title>
<path fill="none" stroke="#63b8ff" d="M702.48,-47.5C710.42,-47.5 718.81,-47.5 726.96,-47.5"/>
<polygon fill="#63b8ff" stroke="#63b8ff" points="726.86,-51 736.86,-47.5 726.86,-44 726.86,-51"/>
</g>
<!-- Node5 -->
<g id="node5" class="node">
<title>Node5</title>
<g id="a_node5"><a xlink:href="namespace_o_c_a_1_1_c_a_f_e_v_d_b_1_1_traits.html#a1fe279ec39675001095beafdf178b811" target="_top" xlink:title="Create the full&#45;path for the sub&#45;folder corresponding to the given config key.">
<polygon fill="white" stroke="#666666" points="439,-57 314,-57 314,-38 439,-38 439,-57"/>
<text text-anchor="middle" x="376.5" y="-45" font-family="Helvetica,sans-Serif" font-size="10.00">getSharedSubFolderPath</text>
</a>
</g>
</g>
<!-- Node4&#45;&gt;Node5 -->
<g id="edge4" class="edge">
<title>Node4&#45;&gt;Node5</title>
<path fill="none" stroke="#63b8ff" d="M278.49,-47.5C286.33,-47.5 294.5,-47.5 302.61,-47.5"/>
<polygon fill="#63b8ff" stroke="#63b8ff" points="302.6,-51 312.6,-47.5 302.6,-44 302.6,-51"/>
</g>
<!-- Node5&#45;&gt;Node2 -->
<g id="edge5" class="edge">
<title>Node5&#45;&gt;Node2</title>
<path fill="none" stroke="#63b8ff" d="M439.39,-47.5C489.82,-47.5 560.22,-47.5 607.71,-47.5"/>
<polygon fill="#63b8ff" stroke="#63b8ff" points="607.66,-51 617.66,-47.5 607.66,-44 607.66,-51"/>
</g>
<!-- Node6 -->
<g id="node6" class="node">
<title>Node6</title>
<g id="a_node6"><a xlink:href="namespace_o_c_a_1_1_c_a_f_e_v_d_b_1_1_traits.html#adac8fad662663420dc8d9b73e0134673" target="_top" xlink:title=" ">
<polygon fill="white" stroke="#666666" points="583,-19 475,-19 475,0 583,0 583,-19"/>
<text text-anchor="middle" x="529" y="-7" font-family="Helvetica,sans-Serif" font-size="10.00">getSharedFolderPath</text>
</a>
</g>
</g>
<!-- Node5&#45;&gt;Node6 -->
<g id="edge6" class="edge">
<title>Node5&#45;&gt;Node6</title>
<path fill="none" stroke="#63b8ff" d="M417.04,-37.52C435.72,-32.8 458.22,-27.12 478.06,-22.11"/>
<polygon fill="#63b8ff" stroke="#63b8ff" points="478.62,-25.32 487.46,-19.48 476.91,-18.54 478.62,-25.32"/>
</g>
<!-- Node6&#45;&gt;Node2 -->
<g id="edge7" class="edge">
<title>Node6&#45;&gt;Node2</title>
<path fill="none" stroke="#63b8ff" d="M564.02,-19.48C579.79,-24.11 598.71,-29.66 615.54,-34.6"/>
<polygon fill="#63b8ff" stroke="#63b8ff" points="614.12,-38.13 624.7,-37.58 616.09,-31.41 614.12,-38.13"/>
</g>
</g>
</svg>
