<?xml version="1.0" encoding="UTF-8" standalone="no"?>
<!DOCTYPE svg PUBLIC "-//W3C//DTD SVG 1.1//EN"
 "http://www.w3.org/Graphics/SVG/1.1/DTD/svg11.dtd">
<!-- Generated by graphviz version 9.0.0 (20230911.1827)
 -->
<!-- Title: count Pages: 1 -->
<svg width="410pt" height="90pt"
 viewBox="0.00 0.00 410.00 90.00" xmlns="http://www.w3.org/2000/svg" xmlns:xlink="http://www.w3.org/1999/xlink">
<g id="graph0" class="graph" transform="scale(1 1) rotate(0) translate(4 86)">
<title>count</title>
<!-- Node1 -->
<g id="Node000001" class="node">
<title>Node1</title>
<g id="a_Node000001"><a xlink:title="Counts entities by a set of criteria.">
<polygon fill="#999999" stroke="#666666" points="40,-45 0,-45 0,-25 40,-25 40,-45"/>
<text text-anchor="middle" x="20" y="-31.5" font-family="Helvetica,sans-Serif" font-size="10.00">count</text>
</a>
</g>
</g>
<!-- Node2 -->
<g id="Node000002" class="node">
<title>Node2</title>
<g id="a_Node000002"><a xlink:href="namespace_o_c_a_1_1_c_a_f_e_v_d_b_1_1_traits.html#ab6f5f4edde190f5e5f1cd1e2fdd402d4" target="_top" xlink:title="Set and get the given name as the current database target entity.">
<polygon fill="white" stroke="#666666" points="194.75,-45 76,-45 76,-25 194.75,-25 194.75,-45"/>
<text text-anchor="middle" x="135.38" y="-31.5" font-family="Helvetica,sans-Serif" font-size="10.00">getDatabaseRepository</text>
</a>
</g>
</g>
<!-- Node1&#45;&gt;Node2 -->
<g id="edge1_Node000001_Node000002" class="edge">
<title>Node1&#45;&gt;Node2</title>
<g id="a_edge1_Node000001_Node000002"><a xlink:title=" ">
<path fill="none" stroke="#63b8ff" d="M40.49,-35C47.36,-35 55.53,-35 64.14,-35"/>
<polygon fill="#63b8ff" stroke="#63b8ff" points="64.14,-38.5 74.14,-35 64.14,-31.5 64.14,-38.5"/>
</a>
</g>
</g>
<!-- Node3 -->
<g id="Node000003" class="node">
<title>Node3</title>
<g id="a_Node000003"><a xlink:href="class_o_c_a_1_1_c_a_f_e_v_d_b_1_1_database_1_1_doctrine_1_1_o_r_m_1_1_repositories_1_1_entity_repository.html#ae2b0e1dbe7640aefaf7d54c6a94d08fe" target="_top" xlink:title="Public export of parent function.">
<polygon fill="white" stroke="#666666" points="402,-82 230.75,-82 230.75,-38 402,-38 402,-82"/>
<text text-anchor="start" x="238.75" y="-68.5" font-family="Helvetica,sans-Serif" font-size="10.00">OCA\CAFEVDB\Database</text>
<text text-anchor="start" x="238.75" y="-56.5" font-family="Helvetica,sans-Serif" font-size="10.00">\Doctrine\ORM\Repositories</text>
<text text-anchor="middle" x="316.38" y="-44.5" font-family="Helvetica,sans-Serif" font-size="10.00">\EntityRepository\getEntityManager</text>
</a>
</g>
</g>
<!-- Node2&#45;&gt;Node3 -->
<g id="edge2_Node000002_Node000003" class="edge">
<title>Node2&#45;&gt;Node3</title>
<g id="a_edge2_Node000002_Node000003"><a xlink:title=" ">
<path fill="none" stroke="#63b8ff" d="M194.99,-43.19C202.77,-44.27 210.9,-45.41 219.12,-46.56"/>
<polygon fill="#63b8ff" stroke="#63b8ff" points="218.45,-50 228.84,-47.91 219.42,-43.06 218.45,-50"/>
</a>
</g>
</g>
<!-- Node4 -->
<g id="Node000004" class="node">
<title>Node4</title>
<g id="a_Node000004"><a xlink:href="namespace_o_c_a_1_1_c_a_f_e_v_d_b_1_1_traits.html#ae8292d652c1dc8225df1cd0630dbaf27" target="_top" xlink:title="Set the given name as the current database target entity.">
<polygon fill="white" stroke="#666666" points="375.75,-20 257,-20 257,0 375.75,0 375.75,-20"/>
<text text-anchor="middle" x="316.38" y="-6.5" font-family="Helvetica,sans-Serif" font-size="10.00">setDatabaseRepository</text>
</a>
</g>
</g>
<!-- Node2&#45;&gt;Node4 -->
<g id="edge3_Node000002_Node000004" class="edge">
<title>Node2&#45;&gt;Node4</title>
<g id="a_edge3_Node000002_Node000004"><a xlink:title=" ">
<path fill="none" stroke="#63b8ff" d="M194.99,-26.81C211.06,-24.57 228.64,-22.11 245.29,-19.79"/>
<polygon fill="#63b8ff" stroke="#63b8ff" points="245.71,-23.26 255.13,-18.41 244.75,-16.33 245.71,-23.26"/>
</a>
</g>
</g>
</g>
</svg>
