<?xml version="1.0" encoding="UTF-8" standalone="no"?>
<!DOCTYPE svg PUBLIC "-//W3C//DTD SVG 1.1//EN"
 "http://www.w3.org/Graphics/SVG/1.1/DTD/svg11.dtd">
<!-- Generated by graphviz version 8.0.3 (20230416.2022)
 -->
<!-- Title: getLoginCredentialsFromToken Pages: 1 -->
<svg width="269pt" height="64pt"
 viewBox="0.00 0.00 269.00 64.00" xmlns="http://www.w3.org/2000/svg" xmlns:xlink="http://www.w3.org/1999/xlink">
<g id="graph0" class="graph" transform="scale(1 1) rotate(0) translate(4 60)">
<title>getLoginCredentialsFromToken</title>
<!-- Node1 -->
<g id="node1" class="node">
<title>Node1</title>
<g id="a_node1"><a xlink:title="Try to fetch the login&#45;credentials contained in the auth token which is secured with the given passwo...">
<polygon fill="#999999" stroke="#666666" points="152,-37 0,-37 0,-18 152,-18 152,-37"/>
<text text-anchor="middle" x="76" y="-25" font-family="Helvetica,sans-Serif" font-size="10.00">getLoginCredentialsFromToken</text>
</a>
</g>
</g>
<!-- Node2 -->
<g id="node2" class="node">
<title>Node2</title>
<g id="a_node2"><a xlink:href="namespace_o_c_a_1_1_c_a_f_e_v_d_b_1_1_toolkit_1_1_traits.html#a6d05693fe567b9d34daf71eb6c8aecb4" target="_top" xlink:title=" ">
<polygon fill="white" stroke="#666666" points="261,-56 188,-56 188,-37 261,-37 261,-56"/>
<text text-anchor="middle" x="224.5" y="-44" font-family="Helvetica,sans-Serif" font-size="10.00">logException</text>
</a>
</g>
</g>
<!-- Node1&#45;&gt;Node2 -->
<g id="edge1" class="edge">
<title>Node1&#45;&gt;Node2</title>
<path fill="none" stroke="#63b8ff" d="M152.4,-37.28C160.78,-38.37 169.13,-39.45 177,-40.47"/>
<polygon fill="#63b8ff" stroke="#63b8ff" points="176.4,-44.05 186.77,-41.87 177.3,-37.11 176.4,-44.05"/>
</g>
<!-- Node3 -->
<g id="node3" class="node">
<title>Node3</title>
<g id="a_node3"><a xlink:href="namespace_o_c_a_1_1_c_a_f_e_v_d_b_1_1_toolkit_1_1_traits.html#a97e3b3adabf67bc7d3650ed14214ddaa" target="_top" xlink:title="Return the stored logger class.">
<polygon fill="white" stroke="#666666" points="246,-19 203,-19 203,0 246,0 246,-19"/>
<text text-anchor="middle" x="224.5" y="-7" font-family="Helvetica,sans-Serif" font-size="10.00">logger</text>
</a>
</g>
</g>
<!-- Node1&#45;&gt;Node3 -->
<g id="edge2" class="edge">
<title>Node1&#45;&gt;Node3</title>
<path fill="none" stroke="#63b8ff" d="M152.4,-18.24C166.28,-16.53 180.06,-14.84 191.74,-13.4"/>
<polygon fill="#63b8ff" stroke="#63b8ff" points="192.14,-16.76 201.64,-12.06 191.29,-9.81 192.14,-16.76"/>
</g>
</g>
</svg>
