<?xml version="1.0" encoding="UTF-8" standalone="no"?>
<!DOCTYPE svg PUBLIC "-//W3C//DTD SVG 1.1//EN"
 "http://www.w3.org/Graphics/SVG/1.1/DTD/svg11.dtd">
<!-- Generated by graphviz version 9.0.0 (20230911.1827)
 -->
<!-- Title: getProjectBalancesPath Pages: 1 -->
<svg width="975pt" height="132pt"
 viewBox="0.00 0.00 975.00 132.00" xmlns="http://www.w3.org/2000/svg" xmlns:xlink="http://www.w3.org/1999/xlink">
<g id="graph0" class="graph" transform="scale(1 1) rotate(0) translate(4 128)">
<title>getProjectBalancesPath</title>
<!-- Node1 -->
<g id="Node000001" class="node">
<title>Node1</title>
<g id="a_Node000001"><a xlink:title=" ">
<polygon fill="#999999" stroke="#666666" points="121,-115 0,-115 0,-95 121,-95 121,-115"/>
<text text-anchor="middle" x="60.5" y="-101.5" font-family="Helvetica,sans-Serif" font-size="10.00">getProjectBalancesPath</text>
</a>
</g>
</g>
<!-- Node2 -->
<g id="Node000002" class="node">
<title>Node2</title>
<g id="a_Node000002"><a xlink:href="namespace_o_c_a_1_1_c_a_f_e_v_d_b_1_1_traits.html#aa57ee6dad7c7f33cff6983ad79080946" target="_top" xlink:title="Get a possibly encrypted config value.">
<polygon fill="white" stroke="#666666" points="855.75,-77 773.75,-77 773.75,-57 855.75,-57 855.75,-77"/>
<text text-anchor="middle" x="814.75" y="-63.5" font-family="Helvetica,sans-Serif" font-size="10.00">getConfigValue</text>
</a>
</g>
</g>
<!-- Node1&#45;&gt;Node2 -->
<g id="edge1_Node000001_Node000002" class="edge">
<title>Node1&#45;&gt;Node2</title>
<g id="a_edge1_Node000001_Node000002"><a xlink:title=" ">
<path fill="none" stroke="#63b8ff" d="M121.31,-110.75C184.69,-116.34 287.74,-124 376.88,-124 376.88,-124 376.88,-124 532.88,-124 619.28,-124 717.7,-97.77 772.08,-80.9"/>
<polygon fill="#63b8ff" stroke="#63b8ff" points="773.07,-84.26 781.55,-77.91 770.96,-77.58 773.07,-84.26"/>
</a>
</g>
</g>
<!-- Node4 -->
<g id="Node000004" class="node">
<title>Node4</title>
<g id="a_Node000004"><a xlink:href="namespace_o_c_a_1_1_c_a_f_e_v_d_b_1_1_traits.html#aa0764db1b1533db78bb2f515fad6f25a" target="_top" xlink:title=" ">
<polygon fill="white" stroke="#666666" points="286.25,-96 157,-96 157,-76 286.25,-76 286.25,-96"/>
<text text-anchor="middle" x="221.62" y="-82.5" font-family="Helvetica,sans-Serif" font-size="10.00">getFinancialBalancesPath</text>
</a>
</g>
</g>
<!-- Node1&#45;&gt;Node4 -->
<g id="edge3_Node000001_Node000004" class="edge">
<title>Node1&#45;&gt;Node4</title>
<g id="a_edge3_Node000001_Node000004"><a xlink:title=" ">
<path fill="none" stroke="#63b8ff" d="M121.21,-97.87C129.06,-96.93 137.19,-95.96 145.26,-95"/>
<polygon fill="#63b8ff" stroke="#63b8ff" points="145.57,-98.49 155.09,-93.83 144.74,-91.54 145.57,-98.49"/>
</a>
</g>
</g>
<!-- Node3 -->
<g id="Node000003" class="node">
<title>Node3</title>
<g id="a_Node000003"><a xlink:href="namespace_o_c_a_1_1_c_a_f_e_v_d_b_1_1_traits.html#a4bb87734b0f297c2a6d2095820942c48" target="_top" xlink:title="Return the stored config&#45;service for convenience.">
<polygon fill="white" stroke="#666666" points="967,-77 891.75,-77 891.75,-57 967,-57 967,-77"/>
<text text-anchor="middle" x="929.38" y="-63.5" font-family="Helvetica,sans-Serif" font-size="10.00">configService</text>
</a>
</g>
</g>
<!-- Node2&#45;&gt;Node3 -->
<g id="edge2_Node000002_Node000003" class="edge">
<title>Node2&#45;&gt;Node3</title>
<g id="a_edge2_Node000002_Node000003"><a xlink:title=" ">
<path fill="none" stroke="#63b8ff" d="M856.09,-67C863.81,-67 871.96,-67 879.91,-67"/>
<polygon fill="#63b8ff" stroke="#63b8ff" points="879.8,-70.5 889.8,-67 879.8,-63.5 879.8,-70.5"/>
</a>
</g>
</g>
<!-- Node4&#45;&gt;Node2 -->
<g id="edge4_Node000004_Node000002" class="edge">
<title>Node4&#45;&gt;Node2</title>
<g id="a_edge4_Node000004_Node000002"><a xlink:title=" ">
<path fill="none" stroke="#63b8ff" d="M286.5,-85.05C383.88,-83.43 575.32,-79.55 737.75,-72 745.65,-71.63 754.01,-71.16 762.18,-70.66"/>
<polygon fill="#63b8ff" stroke="#63b8ff" points="762.27,-74.16 772.02,-70.03 761.82,-67.18 762.27,-74.16"/>
</a>
</g>
</g>
<!-- Node5 -->
<g id="Node000005" class="node">
<title>Node5</title>
<g id="a_Node000005"><a xlink:href="namespace_o_c_a_1_1_c_a_f_e_v_d_b_1_1_traits.html#a642b5ca28f1a47e6409971d1aeb16c2c" target="_top" xlink:title=" ">
<polygon fill="white" stroke="#666666" points="433.5,-58 322.25,-58 322.25,-38 433.5,-38 433.5,-58"/>
<text text-anchor="middle" x="377.88" y="-44.5" font-family="Helvetica,sans-Serif" font-size="10.00">getFinanceFolderPath</text>
</a>
</g>
</g>
<!-- Node4&#45;&gt;Node5 -->
<g id="edge5_Node000004_Node000005" class="edge">
<title>Node4&#45;&gt;Node5</title>
<g id="a_edge5_Node000004_Node000005"><a xlink:title=" ">
<path fill="none" stroke="#63b8ff" d="M265.18,-75.52C283.22,-71.07 304.44,-65.84 323.52,-61.15"/>
<polygon fill="#63b8ff" stroke="#63b8ff" points="324.11,-64.6 332.99,-58.81 322.44,-57.81 324.11,-64.6"/>
</a>
</g>
</g>
<!-- Node6 -->
<g id="Node000006" class="node">
<title>Node6</title>
<g id="a_Node000006"><a xlink:href="namespace_o_c_a_1_1_c_a_f_e_v_d_b_1_1_traits.html#a1fe279ec39675001095beafdf178b811" target="_top" xlink:title="Create the full&#45;path for the sub&#45;folder corresponding to the given config key.">
<polygon fill="white" stroke="#666666" points="594.25,-58 469.5,-58 469.5,-38 594.25,-38 594.25,-58"/>
<text text-anchor="middle" x="531.88" y="-44.5" font-family="Helvetica,sans-Serif" font-size="10.00">getSharedSubFolderPath</text>
</a>
</g>
</g>
<!-- Node5&#45;&gt;Node6 -->
<g id="edge6_Node000005_Node000006" class="edge">
<title>Node5&#45;&gt;Node6</title>
<g id="a_edge6_Node000005_Node000006"><a xlink:title=" ">
<path fill="none" stroke="#63b8ff" d="M433.75,-48C441.55,-48 449.68,-48 457.76,-48"/>
<polygon fill="#63b8ff" stroke="#63b8ff" points="457.61,-51.5 467.61,-48 457.61,-44.5 457.61,-51.5"/>
</a>
</g>
</g>
<!-- Node6&#45;&gt;Node2 -->
<g id="edge7_Node000006_Node000002" class="edge">
<title>Node6&#45;&gt;Node2</title>
<g id="a_edge7_Node000006_Node000002"><a xlink:title=" ">
<path fill="none" stroke="#63b8ff" d="M594.51,-52.17C644.79,-55.57 714.98,-60.32 762.29,-63.52"/>
<polygon fill="#63b8ff" stroke="#63b8ff" points="761.77,-66.99 771.98,-64.17 762.24,-60.01 761.77,-66.99"/>
</a>
</g>
</g>
<!-- Node7 -->
<g id="Node000007" class="node">
<title>Node7</title>
<g id="a_Node000007"><a xlink:href="namespace_o_c_a_1_1_c_a_f_e_v_d_b_1_1_traits.html#adac8fad662663420dc8d9b73e0134673" target="_top" xlink:title=" ">
<polygon fill="white" stroke="#666666" points="737.75,-20 630.25,-20 630.25,0 737.75,0 737.75,-20"/>
<text text-anchor="middle" x="684" y="-6.5" font-family="Helvetica,sans-Serif" font-size="10.00">getSharedFolderPath</text>
</a>
</g>
</g>
<!-- Node6&#45;&gt;Node7 -->
<g id="edge8_Node000006_Node000007" class="edge">
<title>Node6&#45;&gt;Node7</title>
<g id="a_edge8_Node000006_Node000007"><a xlink:title=" ">
<path fill="none" stroke="#63b8ff" d="M574.29,-37.52C591.77,-33.09 612.31,-27.89 630.81,-23.21"/>
<polygon fill="#63b8ff" stroke="#63b8ff" points="631.41,-26.67 640.25,-20.82 629.7,-19.88 631.41,-26.67"/>
</a>
</g>
</g>
<!-- Node7&#45;&gt;Node2 -->
<g id="edge9_Node000007_Node000002" class="edge">
<title>Node7&#45;&gt;Node2</title>
<g id="a_edge9_Node000007_Node000002"><a xlink:title=" ">
<path fill="none" stroke="#63b8ff" d="M708.61,-20.45C728.58,-29.29 757.43,-42.06 779.86,-51.99"/>
<polygon fill="#63b8ff" stroke="#63b8ff" points="778.34,-55.15 788.9,-56 781.17,-48.75 778.34,-55.15"/>
</a>
</g>
</g>
</g>
</svg>
