<?xml version="1.0" encoding="UTF-8" standalone="no"?>
<!DOCTYPE svg PUBLIC "-//W3C//DTD SVG 1.1//EN"
 "http://www.w3.org/Graphics/SVG/1.1/DTD/svg11.dtd">
<!-- Generated by graphviz version 8.0.3 (20230416.2022)
 -->
<!-- Title: shareOwnerId Pages: 1 -->
<svg width="316pt" height="27pt"
 viewBox="0.00 0.00 316.00 27.00" xmlns="http://www.w3.org/2000/svg" xmlns:xlink="http://www.w3.org/1999/xlink">
<g id="graph0" class="graph" transform="scale(1 1) rotate(0) translate(4 23)">
<title>shareOwnerId</title>
<!-- Node1 -->
<g id="node1" class="node">
<title>Node1</title>
<g id="a_node1"><a xlink:title=" ">
<polygon fill="#999999" stroke="#666666" points="77,-19 0,-19 0,0 77,0 77,-19"/>
<text text-anchor="middle" x="38.5" y="-7" font-family="Helvetica,sans-Serif" font-size="10.00">shareOwnerId</text>
</a>
</g>
</g>
<!-- Node2 -->
<g id="node2" class="node">
<title>Node2</title>
<g id="a_node2"><a xlink:href="namespace_o_c_a_1_1_c_a_f_e_v_d_b_1_1_traits.html#aa57ee6dad7c7f33cff6983ad79080946" target="_top" xlink:title="Get a possibly encrypted config value.">
<polygon fill="white" stroke="#666666" points="196,-19 113,-19 113,0 196,0 196,-19"/>
<text text-anchor="middle" x="154.5" y="-7" font-family="Helvetica,sans-Serif" font-size="10.00">getConfigValue</text>
</a>
</g>
</g>
<!-- Node1&#45;&gt;Node2 -->
<g id="edge1" class="edge">
<title>Node1&#45;&gt;Node2</title>
<path fill="none" stroke="#63b8ff" d="M77.46,-9.5C85.21,-9.5 93.49,-9.5 101.63,-9.5"/>
<polygon fill="#63b8ff" stroke="#63b8ff" points="101.57,-13 111.57,-9.5 101.57,-6 101.57,-13"/>
</g>
<!-- Node3 -->
<g id="node3" class="node">
<title>Node3</title>
<g id="a_node3"><a xlink:href="namespace_o_c_a_1_1_c_a_f_e_v_d_b_1_1_traits.html#a4bb87734b0f297c2a6d2095820942c48" target="_top" xlink:title="Return the stored config&#45;service for convenience.">
<polygon fill="white" stroke="#666666" points="308,-19 232,-19 232,0 308,0 308,-19"/>
<text text-anchor="middle" x="270" y="-7" font-family="Helvetica,sans-Serif" font-size="10.00">configService</text>
</a>
</g>
</g>
<!-- Node2&#45;&gt;Node3 -->
<g id="edge2" class="edge">
<title>Node2&#45;&gt;Node3</title>
<path fill="none" stroke="#63b8ff" d="M196.48,-9.5C204.42,-9.5 212.81,-9.5 220.96,-9.5"/>
<polygon fill="#63b8ff" stroke="#63b8ff" points="220.86,-13 230.86,-9.5 220.86,-6 220.86,-13"/>
</g>
</g>
</svg>
