<?xml version="1.0" encoding="UTF-8" standalone="no"?>
<!DOCTYPE svg PUBLIC "-//W3C//DTD SVG 1.1//EN"
 "http://www.w3.org/Graphics/SVG/1.1/DTD/svg11.dtd">
<!-- Generated by graphviz version 9.0.0 (20230911.1827)
 -->
<!-- Title: offsetSet Pages: 1 -->
<svg width="277pt" height="66pt"
 viewBox="0.00 0.00 276.50 66.00" xmlns="http://www.w3.org/2000/svg" xmlns:xlink="http://www.w3.org/1999/xlink">
<g id="graph0" class="graph" transform="scale(1 1) rotate(0) translate(4 62)">
<title>offsetSet</title>
<!-- Node1 -->
<g id="Node000001" class="node">
<title>Node1</title>
<g id="a_Node000001"><a xlink:title="{}">
<polygon fill="#999999" stroke="#666666" points="55.75,-39 0,-39 0,-19 55.75,-19 55.75,-39"/>
<text text-anchor="middle" x="27.88" y="-25.5" font-family="Helvetica,sans-Serif" font-size="10.00">offsetSet</text>
</a>
</g>
</g>
<!-- Node2 -->
<g id="Node000002" class="node">
<title>Node2</title>
<g id="a_Node000002"><a xlink:href="namespace_o_c_a_1_1_c_a_f_e_v_d_b_1_1_database_1_1_doctrine_1_1_o_r_m_1_1_traits.html#aad6cdb28c78892f790755af76d01dc4e" target="_top" xlink:title=" ">
<polygon fill="white" stroke="#666666" points="166.25,-58 91.75,-58 91.75,-38 166.25,-38 166.25,-58"/>
<text text-anchor="middle" x="129" y="-44.5" font-family="Helvetica,sans-Serif" font-size="10.00">methodName</text>
</a>
</g>
</g>
<!-- Node1&#45;&gt;Node2 -->
<g id="edge1_Node000001_Node000002" class="edge">
<title>Node1&#45;&gt;Node2</title>
<g id="a_edge1_Node000001_Node000002"><a xlink:title=" ">
<path fill="none" stroke="#63b8ff" d="M56.22,-34.24C63.71,-35.68 72.05,-37.28 80.32,-38.86"/>
<polygon fill="#63b8ff" stroke="#63b8ff" points="79.49,-42.27 89.97,-40.71 80.81,-35.39 79.49,-42.27"/>
</a>
</g>
</g>
<!-- Node3 -->
<g id="Node000003" class="node">
<title>Node3</title>
<g id="a_Node000003"><a xlink:href="namespace_o_c_a_1_1_c_a_f_e_v_d_b_1_1_database_1_1_doctrine_1_1_o_r_m_1_1_traits.html#a2fa83c64b65bfcd6ae01aa378370f012" target="_top" xlink:title="{}">
<polygon fill="white" stroke="#666666" points="163.25,-20 94.75,-20 94.75,0 163.25,0 163.25,-20"/>
<text text-anchor="middle" x="129" y="-6.5" font-family="Helvetica,sans-Serif" font-size="10.00">offsetExists</text>
</a>
</g>
</g>
<!-- Node1&#45;&gt;Node3 -->
<g id="edge2_Node000001_Node000003" class="edge">
<title>Node1&#45;&gt;Node3</title>
<g id="a_edge2_Node000001_Node000003"><a xlink:title=" ">
<path fill="none" stroke="#63b8ff" d="M56.22,-23.76C64.62,-22.15 74.08,-20.34 83.32,-18.56"/>
<polygon fill="#63b8ff" stroke="#63b8ff" points="83.73,-22.05 92.89,-16.73 82.41,-15.17 83.73,-22.05"/>
</a>
</g>
</g>
<!-- Node4 -->
<g id="Node000004" class="node">
<title>Node4</title>
<g id="a_Node000004"><a xlink:href="namespace_o_c_a_1_1_c_a_f_e_v_d_b_1_1_database_1_1_doctrine_1_1_o_r_m_1_1_traits.html#a6a9f8143f3725e95dbf7f1ff70c78f94" target="_top" xlink:title="Use reflection inspection to export all of the private keys; automatically called on post&#45;load if the...">
<polygon fill="white" stroke="#666666" points="268.5,-20 202.25,-20 202.25,0 268.5,0 268.5,-20"/>
<text text-anchor="middle" x="235.38" y="-6.5" font-family="Helvetica,sans-Serif" font-size="10.00">arrayCTOR</text>
</a>
</g>
</g>
<!-- Node3&#45;&gt;Node4 -->
<g id="edge3_Node000003_Node000004" class="edge">
<title>Node3&#45;&gt;Node4</title>
<g id="a_edge3_Node000003_Node000004"><a xlink:title=" ">
<path fill="none" stroke="#63b8ff" d="M163.6,-10C172.14,-10 181.43,-10 190.4,-10"/>
<polygon fill="#63b8ff" stroke="#63b8ff" points="190.39,-13.5 200.39,-10 190.39,-6.5 190.39,-13.5"/>
</a>
</g>
</g>
</g>
</svg>
