<?xml version="1.0" encoding="UTF-8" standalone="no"?>
<!DOCTYPE svg PUBLIC "-//W3C//DTD SVG 1.1//EN"
 "http://www.w3.org/Graphics/SVG/1.1/DTD/svg11.dtd">
<!-- Generated by graphviz version 9.0.0 (20230911.1827)
 -->
<!-- Title: cloudConfig Pages: 1 -->
<svg width="225pt" height="142pt"
 viewBox="0.00 0.00 224.50 142.00" xmlns="http://www.w3.org/2000/svg" xmlns:xlink="http://www.w3.org/1999/xlink">

<svg id="main" version="1.1" xmlns="http://www.w3.org/2000/svg" xmlns:xlink="http://www.w3.org/1999/xlink" xml:space="preserve" onload="init(evt)">
<style type="text/css"><![CDATA[
.node, .edge {opacity: 0.7;}
.node.selected, .edge.selected {opacity: 1;}
.edge:hover path { stroke: red; }
.edge:hover polygon { stroke: red; fill: red; }
]]></style>
<script type="application/ecmascript" xlink:href="svg.min.js"/>
<svg id="graph" class="graph">
<g id="graph0" class="graph" transform="scale(1 1) rotate(0) translate(4 138)">
<title>cloudConfig</title>
<!-- Node1 -->
<g id="Node000001" class="node">
<title>Node1</title>
<g id="a_Node000001"><a xlink:title="Return the stored config&#45;service of the embedding cloud container.">
<polygon fill="#999999" stroke="#666666" points="216.5,-77 148.75,-77 148.75,-57 216.5,-57 216.5,-77"/>
<text text-anchor="middle" x="182.62" y="-63.5" font-family="Helvetica,sans-Serif" font-size="10.00">cloudConfig</text>
</a>
</g>
</g>
<!-- Node2 -->
<g id="Node000002" class="node">
<title>Node2</title>
<g id="a_Node000002"><a xlink:href="namespace_o_c_a_1_1_c_a_f_e_v_d_b_1_1_traits.html#a25a74afdce1f7e361189f292edbf93b5" target="_top" xlink:title="Forward to OCP\IConfig::getSystemValue().">
<polygon fill="white" stroke="#666666" points="100,-134 12.75,-134 12.75,-114 100,-114 100,-134"/>
<text text-anchor="middle" x="56.38" y="-120.5" font-family="Helvetica,sans-Serif" font-size="10.00">getSystemValue</text>
</a>
</g>
</g>
<!-- Node1&#45;&gt;Node2 -->
<g id="edge1_Node000001_Node000002" class="edge">
<title>Node1&#45;&gt;Node2</title>
<g id="a_edge1_Node000001_Node000002"><a xlink:title=" ">
<path fill="none" stroke="#63b8ff" d="M154.97,-83.12C142.42,-90.34 127.09,-98.64 112.75,-105 105.78,-108.09 98.14,-111 90.83,-113.57"/>
<polygon fill="#63b8ff" stroke="#63b8ff" points="156.62,-86.22 163.47,-78.14 153.08,-80.18 156.62,-86.22"/>
</a>
</g>
</g>
<!-- Node3 -->
<g id="Node000003" class="node">
<title>Node3</title>
<g id="a_Node000003"><a xlink:href="namespace_o_c_a_1_1_c_a_f_e_v_d_b_1_1_traits.html#ada47887359e4856f8fd326910e46ae23" target="_top" xlink:title="Forward to OCP\IConfig::getSystemValueBool().">
<polygon fill="white" stroke="#666666" points="109.75,-96 3,-96 3,-76 109.75,-76 109.75,-96"/>
<text text-anchor="middle" x="56.38" y="-82.5" font-family="Helvetica,sans-Serif" font-size="10.00">getSystemValueBool</text>
</a>
</g>
</g>
<!-- Node1&#45;&gt;Node3 -->
<g id="edge2_Node000001_Node000003" class="edge">
<title>Node1&#45;&gt;Node3</title>
<g id="a_edge2_Node000001_Node000003"><a xlink:title=" ">
<path fill="none" stroke="#63b8ff" d="M137.12,-73.81C128.32,-75.15 119.01,-76.57 109.97,-77.96"/>
<polygon fill="#63b8ff" stroke="#63b8ff" points="137.48,-77.29 146.83,-72.32 136.42,-70.37 137.48,-77.29"/>
</a>
</g>
</g>
<!-- Node4 -->
<g id="Node000004" class="node">
<title>Node4</title>
<g id="a_Node000004"><a xlink:href="namespace_o_c_a_1_1_c_a_f_e_v_d_b_1_1_traits.html#a64e2c5b9c16ef933acca9a4fec10dd94" target="_top" xlink:title="Forward to OCP\IConfig::getSystemValueInt()">
<polygon fill="white" stroke="#666666" points="105.62,-58 7.12,-58 7.12,-38 105.62,-38 105.62,-58"/>
<text text-anchor="middle" x="56.38" y="-44.5" font-family="Helvetica,sans-Serif" font-size="10.00">getSystemValueInt</text>
</a>
</g>
</g>
<!-- Node1&#45;&gt;Node4 -->
<g id="edge3_Node000001_Node000004" class="edge">
<title>Node1&#45;&gt;Node4</title>
<g id="a_edge3_Node000001_Node000004"><a xlink:title=" ">
<path fill="none" stroke="#63b8ff" d="M137.17,-60.2C126.97,-58.64 116.07,-56.98 105.72,-55.39"/>
<polygon fill="#63b8ff" stroke="#63b8ff" points="136.42,-63.63 146.83,-61.68 137.48,-56.71 136.42,-63.63"/>
</a>
</g>
</g>
<!-- Node5 -->
<g id="Node000005" class="node">
<title>Node5</title>
<g id="a_Node000005"><a xlink:href="namespace_o_c_a_1_1_c_a_f_e_v_d_b_1_1_traits.html#a78dd1ec9874962249563b04c19c37d94" target="_top" xlink:title="Forward to OCP\IConfig::getSystemValueString().">
<polygon fill="white" stroke="#666666" points="112.75,-20 0,-20 0,0 112.75,0 112.75,-20"/>
<text text-anchor="middle" x="56.38" y="-6.5" font-family="Helvetica,sans-Serif" font-size="10.00">getSystemValueString</text>
</a>
</g>
</g>
<!-- Node1&#45;&gt;Node5 -->
<g id="edge4_Node000001_Node000005" class="edge">
<title>Node1&#45;&gt;Node5</title>
<g id="a_edge4_Node000001_Node000005"><a xlink:title=" ">
<path fill="none" stroke="#63b8ff" d="M154.97,-50.88C142.42,-43.66 127.09,-35.36 112.75,-29 105.78,-25.91 98.14,-23 90.83,-20.43"/>
<polygon fill="#63b8ff" stroke="#63b8ff" points="153.08,-53.82 163.47,-55.86 156.62,-47.78 153.08,-53.82"/>
</a>
</g>
</g>
</g>
</svg>
</svg>

<style type='text/css'>
<![CDATA[
[data-mouse-over-selected='false'] { opacity: 0.7; }
[data-mouse-over-selected='true']  { opacity: 1.0; }
]]>
</style>
<script type="application/ecmascript"><![CDATA[
document.addEventListener('DOMContentLoaded', (event) => {
  highlightEdges();
  highlightAdjacentNodes();
});
]]></script>
</svg>
