<?xml version="1.0" encoding="UTF-8" standalone="no"?>
<!DOCTYPE svg PUBLIC "-//W3C//DTD SVG 1.1//EN"
 "http://www.w3.org/Graphics/SVG/1.1/DTD/svg11.dtd">
<!-- Generated by graphviz version 9.0.0 (20230911.1827)
 -->
<!-- Title: getLocale Pages: 1 -->
<svg width="312pt" height="104pt"
 viewBox="0.00 0.00 311.75 104.00" xmlns="http://www.w3.org/2000/svg" xmlns:xlink="http://www.w3.org/1999/xlink">
<g id="graph0" class="graph" transform="scale(1 1) rotate(0) translate(4 100)">
<title>getLocale</title>
<!-- Node1 -->
<g id="Node000001" class="node">
<title>Node1</title>
<g id="a_Node000001"><a xlink:title="Return the locale as string, e.g.">
<polygon fill="#999999" stroke="#666666" points="303.75,-58 245.75,-58 245.75,-38 303.75,-38 303.75,-58"/>
<text text-anchor="middle" x="274.75" y="-44.5" font-family="Helvetica,sans-Serif" font-size="10.00">getLocale</text>
</a>
</g>
</g>
<!-- Node2 -->
<g id="Node000002" class="node">
<title>Node2</title>
<g id="a_Node000002"><a xlink:href="namespace_o_c_a_1_1_c_a_f_e_v_d_b_1_1_toolkit_1_1_traits.html#ad6fe802e02722fba4dbf037b5542237f" target="_top" xlink:title="Try to parse a floating point value.">
<polygon fill="white" stroke="#666666" points="188.38,-96 129.62,-96 129.62,-76 188.38,-76 188.38,-96"/>
<text text-anchor="middle" x="159" y="-82.5" font-family="Helvetica,sans-Serif" font-size="10.00">floatValue</text>
</a>
</g>
</g>
<!-- Node1&#45;&gt;Node2 -->
<g id="edge1_Node000001_Node000002" class="edge">
<title>Node1&#45;&gt;Node2</title>
<g id="a_edge1_Node000001_Node000002"><a xlink:title=" ">
<path fill="none" stroke="#63b8ff" d="M234.77,-61.02C219.7,-66.05 202.77,-71.71 188.84,-76.37"/>
<polygon fill="#63b8ff" stroke="#63b8ff" points="235.53,-64.46 243.9,-57.97 233.31,-57.82 235.53,-64.46"/>
</a>
</g>
</g>
<!-- Node4 -->
<g id="Node000004" class="node">
<title>Node4</title>
<g id="a_Node000004"><a xlink:href="namespace_o_c_a_1_1_c_a_f_e_v_d_b_1_1_toolkit_1_1_traits.html#aa88897179a3e997774f84740a5e814c7" target="_top" xlink:title=" ">
<polygon fill="white" stroke="#666666" points="209.75,-58 108.25,-58 108.25,-38 209.75,-38 209.75,-58"/>
<text text-anchor="middle" x="159" y="-44.5" font-family="Helvetica,sans-Serif" font-size="10.00">formatStorageValue</text>
</a>
</g>
</g>
<!-- Node1&#45;&gt;Node4 -->
<g id="edge3_Node000001_Node000004" class="edge">
<title>Node1&#45;&gt;Node4</title>
<g id="a_edge3_Node000001_Node000004"><a xlink:title=" ">
<path fill="none" stroke="#63b8ff" d="M234.07,-48C226.35,-48 218.17,-48 210.17,-48"/>
<polygon fill="#63b8ff" stroke="#63b8ff" points="233.83,-51.5 243.83,-48 233.83,-44.5 233.83,-51.5"/>
</a>
</g>
</g>
<!-- Node5 -->
<g id="Node000005" class="node">
<title>Node5</title>
<g id="a_Node000005"><a xlink:href="namespace_o_c_a_1_1_c_a_f_e_v_d_b_1_1_toolkit_1_1_traits.html#ab46fa2a703c2060c214a4f2807e1b39c" target="_top" xlink:title="Transliterate the given string to the given or default locale.">
<polygon fill="white" stroke="#666666" points="192.5,-20 125.5,-20 125.5,0 192.5,0 192.5,-20"/>
<text text-anchor="middle" x="159" y="-6.5" font-family="Helvetica,sans-Serif" font-size="10.00">transliterate</text>
</a>
</g>
</g>
<!-- Node1&#45;&gt;Node5 -->
<g id="edge4_Node000001_Node000005" class="edge">
<title>Node1&#45;&gt;Node5</title>
<g id="a_edge4_Node000001_Node000005"><a xlink:title=" ">
<path fill="none" stroke="#63b8ff" d="M234.43,-34.87C220.31,-30.15 204.59,-24.9 191.25,-20.44"/>
<polygon fill="#63b8ff" stroke="#63b8ff" points="233.31,-38.18 243.9,-38.03 235.53,-31.54 233.31,-38.18"/>
</a>
</g>
</g>
<!-- Node3 -->
<g id="Node000003" class="node">
<title>Node3</title>
<g id="a_Node000003"><a xlink:href="namespace_o_c_a_1_1_c_a_f_e_v_d_b_1_1_toolkit_1_1_traits.html#a53e661a445d92119cf8033c6a394de7f" target="_top" xlink:title="Parse a storage user input value and return its value in bytes.">
<polygon fill="white" stroke="#666666" points="72.25,-96 0,-96 0,-76 72.25,-76 72.25,-96"/>
<text text-anchor="middle" x="36.12" y="-82.5" font-family="Helvetica,sans-Serif" font-size="10.00">storageValue</text>
</a>
</g>
</g>
<!-- Node2&#45;&gt;Node3 -->
<g id="edge2_Node000002_Node000003" class="edge">
<title>Node2&#45;&gt;Node3</title>
<g id="a_edge2_Node000002_Node000003"><a xlink:title=" ">
<path fill="none" stroke="#63b8ff" d="M118.02,-86C103.31,-86 86.76,-86 72.48,-86"/>
<polygon fill="#63b8ff" stroke="#63b8ff" points="117.84,-89.5 127.84,-86 117.84,-82.5 117.84,-89.5"/>
</a>
</g>
</g>
</g>
</svg>
