<?xml version="1.0" encoding="UTF-8" standalone="no"?>
<!DOCTYPE svg PUBLIC "-//W3C//DTD SVG 1.1//EN"
 "http://www.w3.org/Graphics/SVG/1.1/DTD/svg11.dtd">
<!-- Generated by graphviz version 8.0.3 (20230416.2022)
 -->
<!-- Title: getClassBaseName Pages: 1 -->
<svg width="452pt" height="49pt"
 viewBox="0.00 0.00 452.00 49.00" xmlns="http://www.w3.org/2000/svg" xmlns:xlink="http://www.w3.org/1999/xlink">
<g id="graph0" class="graph" transform="scale(1 1) rotate(0) translate(4 45)">
<title>getClassBaseName</title>
<!-- Node1 -->
<g id="node1" class="node">
<title>Node1</title>
<g id="a_node1"><a xlink:title=" ">
<polygon fill="#999999" stroke="#666666" points="444,-30 340,-30 340,-11 444,-11 444,-30"/>
<text text-anchor="middle" x="392" y="-18" font-family="Helvetica,sans-Serif" font-size="10.00">getClassBaseName</text>
</a>
</g>
</g>
<!-- Node2 -->
<g id="node2" class="node">
<title>Node2</title>
<g id="a_node2"><a xlink:href="class_o_c_a_1_1_c_a_f_e_v_d_b_1_1_toolkit_1_1_service_1_1_archive_service.html#adb7197696a0127bef42768cfb61ec66b" target="_top" xlink:title=" ">
<polygon fill="white" stroke="#666666" points="304,-41 182,-41 182,0 304,0 304,-41"/>
<text text-anchor="start" x="190" y="-29" font-family="Helvetica,sans-Serif" font-size="10.00">OCA\CAFEVDB\Toolkit</text>
<text text-anchor="start" x="190" y="-18" font-family="Helvetica,sans-Serif" font-size="10.00">\Service\ArchiveService</text>
<text text-anchor="middle" x="243" y="-7" font-family="Helvetica,sans-Serif" font-size="10.00">\getArchiveInfo</text>
</a>
</g>
</g>
<!-- Node1&#45;&gt;Node2 -->
<g id="edge1" class="edge">
<title>Node1&#45;&gt;Node2</title>
<path fill="none" stroke="#63b8ff" d="M328.76,-20.5C320.72,-20.5 312.48,-20.5 304.46,-20.5"/>
<polygon fill="#63b8ff" stroke="#63b8ff" points="328.59,-24 338.59,-20.5 328.59,-17 328.59,-24"/>
</g>
<!-- Node3 -->
<g id="node3" class="node">
<title>Node3</title>
<g id="a_node3"><a xlink:href="class_o_c_a_1_1_c_a_f_e_v_d_b_1_1_toolkit_1_1_service_1_1_archive_service.html#ad1d53e5cbdc6d39c917e86f2ae794aeb" target="_top" xlink:title=" ">
<polygon fill="white" stroke="#666666" points="146,-35.5 0,-35.5 0,-5.5 146,-5.5 146,-35.5"/>
<text text-anchor="start" x="8" y="-23.5" font-family="Helvetica,sans-Serif" font-size="10.00">OCA\CAFEVDB\Toolkit</text>
<text text-anchor="middle" x="73" y="-12.5" font-family="Helvetica,sans-Serif" font-size="10.00">\Service\ArchiveService\open</text>
</a>
</g>
</g>
<!-- Node2&#45;&gt;Node3 -->
<g id="edge2" class="edge">
<title>Node2&#45;&gt;Node3</title>
<path fill="none" stroke="#63b8ff" d="M170.89,-20.5C162.78,-20.5 154.51,-20.5 146.38,-20.5"/>
<polygon fill="#63b8ff" stroke="#63b8ff" points="170.82,-24 180.82,-20.5 170.82,-17 170.82,-24"/>
</g>
</g>
</svg>
