<?xml version="1.0" encoding="UTF-8" standalone="no"?>
<!DOCTYPE svg PUBLIC "-//W3C//DTD SVG 1.1//EN"
 "http://www.w3.org/Graphics/SVG/1.1/DTD/svg11.dtd">
<!-- Generated by graphviz version 8.0.3 (20230416.2022)
 -->
<!-- Title: getUserFolder Pages: 1 -->
<svg width="505pt" height="27pt"
 viewBox="0.00 0.00 505.00 27.00" xmlns="http://www.w3.org/2000/svg" xmlns:xlink="http://www.w3.org/1999/xlink">
<g id="graph0" class="graph" transform="scale(1 1) rotate(0) translate(4 23)">
<title>getUserFolder</title>
<!-- Node1 -->
<g id="node1" class="node">
<title>Node1</title>
<g id="a_node1"><a xlink:title=" ">
<polygon fill="#999999" stroke="#666666" points="497,-19 419,-19 419,0 497,0 497,-19"/>
<text text-anchor="middle" x="458" y="-7" font-family="Helvetica,sans-Serif" font-size="10.00">getUserFolder</text>
</a>
</g>
</g>
<!-- Node2 -->
<g id="node2" class="node">
<title>Node2</title>
<g id="a_node2"><a xlink:href="namespace_o_c_a_1_1_c_a_f_e_v_d_b_1_1_toolkit_1_1_traits.html#acde6e347f6701fb57e1028789f979f8e" target="_top" xlink:title=" ">
<polygon fill="white" stroke="#666666" points="383,-19 284,-19 284,0 383,0 383,-19"/>
<text text-anchor="middle" x="333.5" y="-7" font-family="Helvetica,sans-Serif" font-size="10.00">getUserRootFolder</text>
</a>
</g>
</g>
<!-- Node1&#45;&gt;Node2 -->
<g id="edge1" class="edge">
<title>Node1&#45;&gt;Node2</title>
<path fill="none" stroke="#63b8ff" d="M407.76,-9.5C399.65,-9.5 391.25,-9.5 383.16,-9.5"/>
<polygon fill="#63b8ff" stroke="#63b8ff" points="407.58,-13 417.58,-9.5 407.58,-6 407.58,-13"/>
</g>
<!-- Node3 -->
<g id="node3" class="node">
<title>Node3</title>
<g id="a_node3"><a xlink:href="namespace_o_c_a_1_1_c_a_f_e_v_d_b_1_1_toolkit_1_1_traits.html#a846d85acaa379ee927acbc7120838a1b" target="_top" xlink:title="Return the name top&#45;level folder as Folder instance.">
<polygon fill="white" stroke="#666666" points="248,-19 131,-19 131,0 248,0 248,-19"/>
<text text-anchor="middle" x="189.5" y="-7" font-family="Helvetica,sans-Serif" font-size="10.00">getUserTopLevelFolder</text>
</a>
</g>
</g>
<!-- Node2&#45;&gt;Node3 -->
<g id="edge2" class="edge">
<title>Node2&#45;&gt;Node3</title>
<path fill="none" stroke="#63b8ff" d="M272.75,-9.5C264.64,-9.5 256.34,-9.5 248.27,-9.5"/>
<polygon fill="#63b8ff" stroke="#63b8ff" points="272.63,-13 282.63,-9.5 272.63,-6 272.63,-13"/>
</g>
<!-- Node4 -->
<g id="node4" class="node">
<title>Node4</title>
<g id="a_node4"><a xlink:href="namespace_o_c_a_1_1_c_a_f_e_v_d_b_1_1_toolkit_1_1_traits.html#a510047f7a8e00f4170c35b5718362afc" target="_top" xlink:title=" ">
<polygon fill="white" stroke="#666666" points="95,-19 0,-19 0,0 95,0 95,-19"/>
<text text-anchor="middle" x="47.5" y="-7" font-family="Helvetica,sans-Serif" font-size="10.00">getUserAppFolder</text>
</a>
</g>
</g>
<!-- Node3&#45;&gt;Node4 -->
<g id="edge3" class="edge">
<title>Node3&#45;&gt;Node4</title>
<path fill="none" stroke="#63b8ff" d="M119.91,-9.5C111.63,-9.5 103.32,-9.5 95.45,-9.5"/>
<polygon fill="#63b8ff" stroke="#63b8ff" points="119.75,-13 129.75,-9.5 119.75,-6 119.75,-13"/>
</g>
</g>
</svg>
