<?xml version="1.0" encoding="UTF-8" standalone="no"?>
<!DOCTYPE svg PUBLIC "-//W3C//DTD SVG 1.1//EN"
 "http://www.w3.org/Graphics/SVG/1.1/DTD/svg11.dtd">
<!-- Generated by graphviz version 8.0.3 (20230416.2022)
 -->
<!-- Title: ensureUuid Pages: 1 -->
<svg width="192pt" height="64pt"
 viewBox="0.00 0.00 192.00 64.00" xmlns="http://www.w3.org/2000/svg" xmlns:xlink="http://www.w3.org/1999/xlink">
<g id="graph0" class="graph" transform="scale(1 1) rotate(0) translate(4 60)">
<title>ensureUuid</title>
<!-- Node1 -->
<g id="node1" class="node">
<title>Node1</title>
<g id="a_node1"><a xlink:title="{}">
<polygon fill="#999999" stroke="#666666" points="184,-37 118,-37 118,-18 184,-18 184,-37"/>
<text text-anchor="middle" x="151" y="-25" font-family="Helvetica,sans-Serif" font-size="10.00">ensureUuid</text>
</a>
</g>
</g>
<!-- Node2 -->
<g id="node2" class="node">
<title>Node2</title>
<g id="a_node2"><a xlink:href="namespace_o_c_a_1_1_c_a_f_e_v_d_b_1_1_database_1_1_doctrine_1_1_o_r_m_1_1_traits.html#af0c535aff25148fdeb49b9245b743ce4" target="_top" xlink:title="{}">
<polygon fill="white" stroke="#666666" points="81.5,-56 0.5,-56 0.5,-37 81.5,-37 81.5,-56"/>
<text text-anchor="middle" x="41" y="-44" font-family="Helvetica,sans-Serif" font-size="10.00">prePersistUuid</text>
</a>
</g>
</g>
<!-- Node1&#45;&gt;Node2 -->
<g id="edge1" class="edge">
<title>Node1&#45;&gt;Node2</title>
<path fill="none" stroke="#63b8ff" d="M106.91,-35.08C98.57,-36.55 89.86,-38.08 81.64,-39.53"/>
<polygon fill="#63b8ff" stroke="#63b8ff" points="107.35,-38.38 116.6,-33.2 106.14,-31.49 107.35,-38.38"/>
</g>
<!-- Node3 -->
<g id="node3" class="node">
<title>Node3</title>
<g id="a_node3"><a xlink:href="namespace_o_c_a_1_1_c_a_f_e_v_d_b_1_1_database_1_1_doctrine_1_1_o_r_m_1_1_traits.html#a42e125c039f646e5088cba5df157280a" target="_top" xlink:title="{}">
<polygon fill="white" stroke="#666666" points="82,-19 0,-19 0,0 82,0 82,-19"/>
<text text-anchor="middle" x="41" y="-7" font-family="Helvetica,sans-Serif" font-size="10.00">preUpdateUuid</text>
</a>
</g>
</g>
<!-- Node1&#45;&gt;Node3 -->
<g id="edge2" class="edge">
<title>Node1&#45;&gt;Node3</title>
<path fill="none" stroke="#63b8ff" d="M106.88,-20.31C98.81,-18.97 90.4,-17.57 82.42,-16.24"/>
<polygon fill="#63b8ff" stroke="#63b8ff" points="106.16,-23.91 116.6,-22.1 107.31,-17 106.16,-23.91"/>
</g>
</g>
</svg>
