<?xml version="1.0" encoding="UTF-8" standalone="no"?>
<!DOCTYPE svg PUBLIC "-//W3C//DTD SVG 1.1//EN"
 "http://www.w3.org/Graphics/SVG/1.1/DTD/svg11.dtd">
<!-- Generated by graphviz version 9.0.0 (20230911.1827)
 -->
<!-- Title: getTimezone Pages: 1 -->
<svg width="322pt" height="28pt"
 viewBox="0.00 0.00 321.50 28.00" xmlns="http://www.w3.org/2000/svg" xmlns:xlink="http://www.w3.org/1999/xlink">
<g id="graph0" class="graph" transform="scale(1 1) rotate(0) translate(4 24)">
<title>getTimezone</title>
<!-- Node1 -->
<g id="Node000001" class="node">
<title>Node1</title>
<g id="a_Node000001"><a xlink:title="Return the current time&#45;zone string.">
<polygon fill="#999999" stroke="#666666" points="72.25,-20 0,-20 0,0 72.25,0 72.25,-20"/>
<text text-anchor="middle" x="36.12" y="-6.5" font-family="Helvetica,sans-Serif" font-size="10.00">getTimezone</text>
</a>
</g>
</g>
<!-- Node2 -->
<g id="Node000002" class="node">
<title>Node2</title>
<g id="a_Node000002"><a xlink:href="namespace_o_c_a_1_1_c_a_f_e_v_d_b_1_1_traits.html#adb69a9cef776376cd60f16e18dbb5d00" target="_top" xlink:title="Get the current timezone.">
<polygon fill="white" stroke="#666666" points="202.25,-20 108.25,-20 108.25,0 202.25,0 202.25,-20"/>
<text text-anchor="middle" x="155.25" y="-6.5" font-family="Helvetica,sans-Serif" font-size="10.00">getDateTimeZone</text>
</a>
</g>
</g>
<!-- Node1&#45;&gt;Node2 -->
<g id="edge1_Node000001_Node000002" class="edge">
<title>Node1&#45;&gt;Node2</title>
<g id="a_edge1_Node000001_Node000002"><a xlink:title=" ">
<path fill="none" stroke="#63b8ff" d="M72.58,-10C80.18,-10 88.4,-10 96.59,-10"/>
<polygon fill="#63b8ff" stroke="#63b8ff" points="96.57,-13.5 106.57,-10 96.57,-6.5 96.57,-13.5"/>
</a>
</g>
</g>
<!-- Node3 -->
<g id="Node000003" class="node">
<title>Node3</title>
<g id="a_Node000003"><a xlink:href="namespace_o_c_a_1_1_c_a_f_e_v_d_b_1_1_traits.html#a4bb87734b0f297c2a6d2095820942c48" target="_top" xlink:title="Return the stored config&#45;service for convenience.">
<polygon fill="white" stroke="#666666" points="313.5,-20 238.25,-20 238.25,0 313.5,0 313.5,-20"/>
<text text-anchor="middle" x="275.88" y="-6.5" font-family="Helvetica,sans-Serif" font-size="10.00">configService</text>
</a>
</g>
</g>
<!-- Node2&#45;&gt;Node3 -->
<g id="edge2_Node000002_Node000003" class="edge">
<title>Node2&#45;&gt;Node3</title>
<g id="a_edge2_Node000002_Node000003"><a xlink:title=" ">
<path fill="none" stroke="#63b8ff" d="M202.45,-10C210.32,-10 218.51,-10 226.44,-10"/>
<polygon fill="#63b8ff" stroke="#63b8ff" points="226.27,-13.5 236.27,-10 226.27,-6.5 226.27,-13.5"/>
</a>
</g>
</g>
</g>
</svg>
