<?xml version="1.0" encoding="UTF-8" standalone="no"?>
<!DOCTYPE svg PUBLIC "-//W3C//DTD SVG 1.1//EN"
 "http://www.w3.org/Graphics/SVG/1.1/DTD/svg11.dtd">
<!-- Generated by graphviz version 9.0.0 (20230911.1827)
 -->
<!-- Title: logInfo Pages: 1 -->
<svg width="233pt" height="66pt"
 viewBox="0.00 0.00 233.05 66.00" xmlns="http://www.w3.org/2000/svg" xmlns:xlink="http://www.w3.org/1999/xlink">
<g id="graph0" class="graph" transform="scale(1 1) rotate(0) translate(4 62)">
<title>logInfo</title>
<!-- Node1 -->
<g id="Node000001" class="node">
<title>Node1</title>
<g id="a_Node000001"><a xlink:title="Log an informational message.">
<polygon fill="#999999" stroke="#666666" points="45.25,-39 0,-39 0,-19 45.25,-19 45.25,-39"/>
<text text-anchor="middle" x="22.62" y="-25.5" font-family="Helvetica,sans-Serif" font-size="10.00">logInfo</text>
</a>
</g>
</g>
<!-- Node2 -->
<g id="Node000002" class="node">
<title>Node2</title>
<g id="a_Node000002"><a xlink:href="namespace_o_c_a_1_1_c_a_f_e_v_d_b_1_1_toolkit_1_1_traits.html#a15cbaddba041ee5582b2bec28a58c7c9" target="_top" xlink:title="Log the given message at the specified level.">
<polygon fill="white" stroke="#666666" points="110.05,-39 81.25,-39 81.25,-19 110.05,-19 110.05,-39"/>
<text text-anchor="middle" x="95.65" y="-25.5" font-family="Helvetica,sans-Serif" font-size="10.00">log</text>
</a>
</g>
</g>
<!-- Node1&#45;&gt;Node2 -->
<g id="edge1_Node000001_Node000002" class="edge">
<title>Node1&#45;&gt;Node2</title>
<g id="a_edge1_Node000001_Node000002"><a xlink:title=" ">
<path fill="none" stroke="#63b8ff" d="M45.71,-29C53.3,-29 61.85,-29 69.65,-29"/>
<polygon fill="#63b8ff" stroke="#63b8ff" points="69.54,-32.5 79.54,-29 69.54,-25.5 69.54,-32.5"/>
</a>
</g>
</g>
<!-- Node3 -->
<g id="Node000003" class="node">
<title>Node3</title>
<g id="a_Node000003"><a xlink:href="namespace_o_c_a_1_1_c_a_f_e_v_d_b_1_1_toolkit_1_1_traits.html#a97e3b3adabf67bc7d3650ed14214ddaa" target="_top" xlink:title="Return the stored logger class.">
<polygon fill="white" stroke="#666666" points="206.68,-58 164.43,-58 164.43,-38 206.68,-38 206.68,-58"/>
<text text-anchor="middle" x="185.55" y="-44.5" font-family="Helvetica,sans-Serif" font-size="10.00">logger</text>
</a>
</g>
</g>
<!-- Node2&#45;&gt;Node3 -->
<g id="edge2_Node000002_Node000003" class="edge">
<title>Node2&#45;&gt;Node3</title>
<g id="a_edge2_Node000002_Node000003"><a xlink:title=" ">
<path fill="none" stroke="#63b8ff" d="M110.38,-31.97C121.74,-34.42 138.31,-38 152.9,-41.16"/>
<polygon fill="#63b8ff" stroke="#63b8ff" points="152.06,-44.56 162.57,-43.25 153.54,-37.72 152.06,-44.56"/>
</a>
</g>
</g>
<!-- Node4 -->
<g id="Node000004" class="node">
<title>Node4</title>
<g id="a_Node000004"><a xlink:href="namespace_o_c_a_1_1_c_a_f_e_v_d_b_1_1_toolkit_1_1_traits.html#ab690a84fb4e720f43308bc354c392bee" target="_top" xlink:title="Map PSR log&#45;levels to ILogger log&#45;levels as the PsrLoggerAdapter only understands those.">
<polygon fill="white" stroke="#666666" points="225.05,-20 146.05,-20 146.05,0 225.05,0 225.05,-20"/>
<text text-anchor="middle" x="185.55" y="-6.5" font-family="Helvetica,sans-Serif" font-size="10.00">mapLogLevels</text>
</a>
</g>
</g>
<!-- Node2&#45;&gt;Node4 -->
<g id="edge3_Node000002_Node000004" class="edge">
<title>Node2&#45;&gt;Node4</title>
<g id="a_edge3_Node000002_Node000004"><a xlink:title=" ">
<path fill="none" stroke="#63b8ff" d="M110.38,-26.03C117.18,-24.56 125.85,-22.69 134.84,-20.75"/>
<polygon fill="#63b8ff" stroke="#63b8ff" points="135.35,-24.21 144.39,-18.68 133.87,-17.37 135.35,-24.21"/>
</a>
</g>
</g>
</g>
</svg>
