<?xml version="1.0" encoding="UTF-8" standalone="no"?>
<!DOCTYPE svg PUBLIC "-//W3C//DTD SVG 1.1//EN"
 "http://www.w3.org/Graphics/SVG/1.1/DTD/svg11.dtd">
<!-- Generated by graphviz version 9.0.0 (20230911.1827)
 -->
<!-- Title: arrayCTOR Pages: 1 -->
<svg width="374pt" height="85pt"
 viewBox="0.00 0.00 374.25 85.00" xmlns="http://www.w3.org/2000/svg" xmlns:xlink="http://www.w3.org/1999/xlink">
<g id="graph0" class="graph" transform="scale(1 1) rotate(0) translate(4 81)">
<title>arrayCTOR</title>
<!-- Node1 -->
<g id="Node000001" class="node">
<title>Node1</title>
<g id="a_Node000001"><a xlink:title="Use reflection inspection to export all of the private keys; automatically called on post&#45;load if the...">
<polygon fill="#999999" stroke="#666666" points="366.25,-58 300,-58 300,-38 366.25,-38 366.25,-58"/>
<text text-anchor="middle" x="333.12" y="-44.5" font-family="Helvetica,sans-Serif" font-size="10.00">arrayCTOR</text>
</a>
</g>
</g>
<!-- Node2 -->
<g id="Node000002" class="node">
<title>Node2</title>
<g id="a_Node000002"><a xlink:href="namespace_o_c_a_1_1_c_a_f_e_v_d_b_1_1_database_1_1_doctrine_1_1_o_r_m_1_1_traits.html#a19dd44fe063cfd1cbafe97452e57666c" target="_top" xlink:title="{}">
<polygon fill="white" stroke="#666666" points="259.88,-77 199.62,-77 199.62,-57 259.88,-57 259.88,-77"/>
<text text-anchor="middle" x="229.75" y="-63.5" font-family="Helvetica,sans-Serif" font-size="10.00">__wakeup</text>
</a>
</g>
</g>
<!-- Node1&#45;&gt;Node2 -->
<g id="edge1_Node000001_Node000002" class="edge">
<title>Node1&#45;&gt;Node2</title>
<g id="a_edge1_Node000001_Node000002"><a xlink:title=" ">
<path fill="none" stroke="#63b8ff" d="M288.68,-56.14C279.01,-57.95 268.99,-59.83 260.05,-61.51"/>
<polygon fill="#63b8ff" stroke="#63b8ff" points="289.1,-59.63 298.28,-54.34 287.81,-52.74 289.1,-59.63"/>
</a>
</g>
</g>
<!-- Node3 -->
<g id="Node000003" class="node">
<title>Node3</title>
<g id="a_Node000003"><a xlink:href="namespace_o_c_a_1_1_c_a_f_e_v_d_b_1_1_database_1_1_doctrine_1_1_o_r_m_1_1_traits.html#a2fa83c64b65bfcd6ae01aa378370f012" target="_top" xlink:title="{}">
<polygon fill="white" stroke="#666666" points="264,-39 195.5,-39 195.5,-19 264,-19 264,-39"/>
<text text-anchor="middle" x="229.75" y="-25.5" font-family="Helvetica,sans-Serif" font-size="10.00">offsetExists</text>
</a>
</g>
</g>
<!-- Node1&#45;&gt;Node3 -->
<g id="edge2_Node000001_Node000003" class="edge">
<title>Node1&#45;&gt;Node3</title>
<g id="a_edge2_Node000001_Node000003"><a xlink:title=" ">
<path fill="none" stroke="#63b8ff" d="M288.51,-39.83C280.36,-38.3 271.97,-36.73 264.19,-35.27"/>
<polygon fill="#63b8ff" stroke="#63b8ff" points="287.81,-43.26 298.28,-41.66 289.1,-36.37 287.81,-43.26"/>
</a>
</g>
</g>
<!-- Node4 -->
<g id="Node000004" class="node">
<title>Node4</title>
<g id="a_Node000004"><a xlink:href="namespace_o_c_a_1_1_c_a_f_e_v_d_b_1_1_database_1_1_doctrine_1_1_o_r_m_1_1_traits.html#a3d6a26d211a99287459a423d3965f11f" target="_top" xlink:title="{}">
<polygon fill="white" stroke="#666666" points="159.5,-58 103,-58 103,-38 159.5,-38 159.5,-58"/>
<text text-anchor="middle" x="131.25" y="-44.5" font-family="Helvetica,sans-Serif" font-size="10.00">offsetGet</text>
</a>
</g>
</g>
<!-- Node3&#45;&gt;Node4 -->
<g id="edge3_Node000003_Node000004" class="edge">
<title>Node3&#45;&gt;Node4</title>
<g id="a_edge3_Node000003_Node000004"><a xlink:title=" ">
<path fill="none" stroke="#63b8ff" d="M184.18,-37.78C175.91,-39.4 167.5,-41.06 159.92,-42.55"/>
<polygon fill="#63b8ff" stroke="#63b8ff" points="184.65,-41.25 193.78,-35.88 183.3,-34.38 184.65,-41.25"/>
</a>
</g>
</g>
<!-- Node6 -->
<g id="Node000006" class="node">
<title>Node6</title>
<g id="a_Node000006"><a xlink:href="namespace_o_c_a_1_1_c_a_f_e_v_d_b_1_1_database_1_1_doctrine_1_1_o_r_m_1_1_traits.html#abd3a144f8df4dea56d1ac58da5bc762a" target="_top" xlink:title="{}">
<polygon fill="white" stroke="#666666" points="159.12,-20 103.38,-20 103.38,0 159.12,0 159.12,-20"/>
<text text-anchor="middle" x="131.25" y="-6.5" font-family="Helvetica,sans-Serif" font-size="10.00">offsetSet</text>
</a>
</g>
</g>
<!-- Node3&#45;&gt;Node6 -->
<g id="edge5_Node000003_Node000006" class="edge">
<title>Node3&#45;&gt;Node6</title>
<g id="a_edge5_Node000003_Node000006"><a xlink:title=" ">
<path fill="none" stroke="#63b8ff" d="M184.07,-20.2C175.72,-18.56 167.23,-16.89 159.61,-15.39"/>
<polygon fill="#63b8ff" stroke="#63b8ff" points="183.3,-23.62 193.78,-22.12 184.65,-16.75 183.3,-23.62"/>
</a>
</g>
</g>
<!-- Node5 -->
<g id="Node000005" class="node">
<title>Node5</title>
<g id="a_Node000005"><a xlink:href="namespace_o_c_a_1_1_c_a_f_e_v_d_b_1_1_database_1_1_doctrine_1_1_o_r_m_1_1_traits.html#a658defb34762c8f40085aec87e16ba1a" target="_top" xlink:title=" ">
<polygon fill="white" stroke="#666666" points="57.25,-58 9.75,-58 9.75,-38 57.25,-38 57.25,-58"/>
<text text-anchor="middle" x="33.5" y="-44.5" font-family="Helvetica,sans-Serif" font-size="10.00">toArray</text>
</a>
</g>
</g>
<!-- Node4&#45;&gt;Node5 -->
<g id="edge4_Node000004_Node000005" class="edge">
<title>Node4&#45;&gt;Node5</title>
<g id="a_edge4_Node000004_Node000005"><a xlink:title=" ">
<path fill="none" stroke="#63b8ff" d="M91.06,-48C79.69,-48 67.65,-48 57.61,-48"/>
<polygon fill="#63b8ff" stroke="#63b8ff" points="91.04,-51.5 101.04,-48 91.04,-44.5 91.04,-51.5"/>
</a>
</g>
</g>
<!-- Node7 -->
<g id="Node000007" class="node">
<title>Node7</title>
<g id="a_Node000007"><a xlink:href="namespace_o_c_a_1_1_c_a_f_e_v_d_b_1_1_database_1_1_doctrine_1_1_o_r_m_1_1_traits.html#a1bb2b81cc0daac39879f608d2a9ede38" target="_top" xlink:title="{}">
<polygon fill="white" stroke="#666666" points="67,-20 0,-20 0,0 67,0 67,-20"/>
<text text-anchor="middle" x="33.5" y="-6.5" font-family="Helvetica,sans-Serif" font-size="10.00">offsetUnset</text>
</a>
</g>
</g>
<!-- Node6&#45;&gt;Node7 -->
<g id="edge6_Node000006_Node000007" class="edge">
<title>Node6&#45;&gt;Node7</title>
<g id="a_edge6_Node000006_Node000007"><a xlink:title=" ">
<path fill="none" stroke="#63b8ff" d="M91.59,-10C83.49,-10 75.04,-10 67.19,-10"/>
<polygon fill="#63b8ff" stroke="#63b8ff" points="91.55,-13.5 101.55,-10 91.55,-6.5 91.55,-13.5"/>
</a>
</g>
</g>
</g>
</svg>
