<?xml version="1.0" encoding="UTF-8" standalone="no"?>
<!DOCTYPE svg PUBLIC "-//W3C//DTD SVG 1.1//EN"
 "http://www.w3.org/Graphics/SVG/1.1/DTD/svg11.dtd">
<!-- Generated by graphviz version 8.0.3 (20230416.2022)
 -->
<!-- Title: shouldDebug Pages: 1 -->
<svg width="202pt" height="45pt"
 viewBox="0.00 0.00 202.00 45.00" xmlns="http://www.w3.org/2000/svg" xmlns:xlink="http://www.w3.org/1999/xlink">
<g id="graph0" class="graph" transform="scale(1 1) rotate(0) translate(4 41)">
<title>shouldDebug</title>
<!-- Node1 -->
<g id="node1" class="node">
<title>Node1</title>
<g id="a_node1"><a xlink:title="Check whether the current config&#45;setting for debug contains the provided flags.">
<polygon fill="#999999" stroke="#666666" points="194,-19 120,-19 120,0 194,0 194,-19"/>
<text text-anchor="middle" x="157" y="-7" font-family="Helvetica,sans-Serif" font-size="10.00">shouldDebug</text>
</a>
</g>
</g>
<!-- Node2 -->
<g id="node2" class="node">
<title>Node2</title>
<g id="a_node2"><a xlink:href="namespace_o_c_a_1_1_c_a_f_e_v_d_b_1_1_traits.html#a472bbe777a54645edcf8a79726eca3dc" target="_top" xlink:title=" ">
<polygon fill="white" stroke="#666666" points="84,-19 0,-19 0,0 84,0 84,-19"/>
<text text-anchor="middle" x="42" y="-7" font-family="Helvetica,sans-Serif" font-size="10.00">toolTipsService</text>
</a>
</g>
</g>
<!-- Node1&#45;&gt;Node2 -->
<g id="edge1" class="edge">
<title>Node1&#45;&gt;Node2</title>
<path fill="none" stroke="#63b8ff" d="M108.81,-9.5C100.71,-9.5 92.35,-9.5 84.41,-9.5"/>
<polygon fill="#63b8ff" stroke="#63b8ff" points="108.62,-13 118.62,-9.5 108.62,-6 108.62,-13"/>
</g>
<!-- Node2&#45;&gt;Node2 -->
<g id="edge2" class="edge">
<title>Node2&#45;&gt;Node2</title>
<path fill="none" stroke="#63b8ff" d="M62.81,-29.76C60.62,-33.97 53.69,-37 42,-37 21.79,-37 15.78,-27.94 24,-19.37"/>
<polygon fill="#63b8ff" stroke="#63b8ff" points="65.99,-29.11 60,-20.37 59.23,-30.93 65.99,-29.11"/>
</g>
</g>
</svg>
