<?xml version="1.0" encoding="UTF-8" standalone="no"?>
<!DOCTYPE svg PUBLIC "-//W3C//DTD SVG 1.1//EN"
 "http://www.w3.org/Graphics/SVG/1.1/DTD/svg11.dtd">
<!-- Generated by graphviz version 8.0.3 (20230416.2022)
 -->
<!-- Title: appContainer Pages: 1 -->
<svg width="333pt" height="91pt"
 viewBox="0.00 0.00 333.00 91.00" xmlns="http://www.w3.org/2000/svg" xmlns:xlink="http://www.w3.org/1999/xlink">
<g id="graph0" class="graph" transform="scale(1 1) rotate(0) translate(4 87)">
<title>appContainer</title>
<!-- Node1 -->
<g id="node1" class="node">
<title>Node1</title>
<g id="a_node1"><a xlink:title=" ">
<polygon fill="#999999" stroke="#666666" points="325,-37 251,-37 251,-18 325,-18 325,-37"/>
<text text-anchor="middle" x="288" y="-25" font-family="Helvetica,sans-Serif" font-size="10.00">appContainer</text>
</a>
</g>
</g>
<!-- Node2 -->
<g id="node2" class="node">
<title>Node2</title>
<g id="a_node2"><a xlink:href="namespace_o_c_a_1_1_c_a_f_e_v_d_b_1_1_traits.html#a0f8f77ebc7e2ed62151c9213aebed956" target="_top" xlink:title="Dependency injection of $className.">
<polygon fill="white" stroke="#666666" points="182,-56 153,-56 153,-37 182,-37 182,-56"/>
<text text-anchor="middle" x="167.5" y="-44" font-family="Helvetica,sans-Serif" font-size="10.00">di</text>
</a>
</g>
</g>
<!-- Node1&#45;&gt;Node2 -->
<g id="edge1" class="edge">
<title>Node1&#45;&gt;Node2</title>
<path fill="none" stroke="#63b8ff" d="M240.19,-35.01C219.41,-38.34 196.49,-42.01 182.29,-44.29"/>
<polygon fill="#63b8ff" stroke="#63b8ff" points="240.48,-38.34 249.8,-33.3 239.37,-31.43 240.48,-38.34"/>
</g>
<!-- Node5 -->
<g id="node5" class="node">
<title>Node5</title>
<g id="a_node5"><a xlink:href="namespace_o_c_a_1_1_c_a_f_e_v_d_b_1_1_traits.html#a40c1b03af72c7ab938c22e2c249dc272" target="_top" xlink:title="Get the current timezone.">
<polygon fill="white" stroke="#666666" points="215,-19 120,-19 120,0 215,0 215,-19"/>
<text text-anchor="middle" x="167.5" y="-7" font-family="Helvetica,sans-Serif" font-size="10.00">getDateTimeZone</text>
</a>
</g>
</g>
<!-- Node1&#45;&gt;Node5 -->
<g id="edge5" class="edge">
<title>Node1&#45;&gt;Node5</title>
<path fill="none" stroke="#63b8ff" d="M240.02,-20.36C231.92,-19.13 223.5,-17.86 215.41,-16.63"/>
<polygon fill="#63b8ff" stroke="#63b8ff" points="239.39,-23.96 249.8,-22 240.44,-17.04 239.39,-23.96"/>
</g>
<!-- Node3 -->
<g id="node3" class="node">
<title>Node3</title>
<g id="a_node3"><a xlink:href="namespace_o_c_a_1_1_c_a_f_e_v_d_b_1_1_traits.html#a12530ef8e22b2cc5507292bf7e1bc876" target="_top" xlink:title=" ">
<polygon fill="white" stroke="#666666" points="74.5,-83 9.5,-83 9.5,-64 74.5,-64 74.5,-83"/>
<text text-anchor="middle" x="42" y="-71" font-family="Helvetica,sans-Serif" font-size="10.00">appVersion</text>
</a>
</g>
</g>
<!-- Node2&#45;&gt;Node3 -->
<g id="edge2" class="edge">
<title>Node2&#45;&gt;Node3</title>
<path fill="none" stroke="#63b8ff" d="M142.23,-51.81C123,-56.01 95.96,-61.92 74.96,-66.51"/>
<polygon fill="#63b8ff" stroke="#63b8ff" points="142.79,-55.05 151.81,-49.49 141.29,-48.21 142.79,-55.05"/>
</g>
<!-- Node4 -->
<g id="node4" class="node">
<title>Node4</title>
<g id="a_node4"><a xlink:href="namespace_o_c_a_1_1_c_a_f_e_v_d_b_1_1_traits.html#a472bbe777a54645edcf8a79726eca3dc" target="_top" xlink:title=" ">
<polygon fill="white" stroke="#666666" points="84,-28 0,-28 0,-9 84,-9 84,-28"/>
<text text-anchor="middle" x="42" y="-16" font-family="Helvetica,sans-Serif" font-size="10.00">toolTipsService</text>
</a>
</g>
</g>
<!-- Node2&#45;&gt;Node4 -->
<g id="edge3" class="edge">
<title>Node2&#45;&gt;Node4</title>
<path fill="none" stroke="#63b8ff" d="M142.45,-41.05C126,-37.32 103.76,-32.27 84.48,-27.9"/>
<polygon fill="#63b8ff" stroke="#63b8ff" points="141.29,-44.6 151.81,-43.4 142.83,-37.77 141.29,-44.6"/>
</g>
<!-- Node4&#45;&gt;Node4 -->
<g id="edge4" class="edge">
<title>Node4&#45;&gt;Node4</title>
<path fill="none" stroke="#63b8ff" d="M64.71,-38.76C62.32,-42.97 54.75,-46 42,-46 19.94,-46 13.39,-36.94 22.35,-28.37"/>
<polygon fill="#63b8ff" stroke="#63b8ff" points="67.83,-37.97 61.65,-29.37 61.12,-39.95 67.83,-37.97"/>
</g>
</g>
</svg>
