<?xml version="1.0" encoding="UTF-8" standalone="no"?>
<!DOCTYPE svg PUBLIC "-//W3C//DTD SVG 1.1//EN"
 "http://www.w3.org/Graphics/SVG/1.1/DTD/svg11.dtd">
<!-- Generated by graphviz version 8.0.3 (20230416.2022)
 -->
<!-- Title: getOutBoxFolderPath Pages: 1 -->
<svg width="654pt" height="46pt"
 viewBox="0.00 0.00 654.00 46.00" xmlns="http://www.w3.org/2000/svg" xmlns:xlink="http://www.w3.org/1999/xlink">
<g id="graph0" class="graph" transform="scale(1 1) rotate(0) translate(4 42)">
<title>getOutBoxFolderPath</title>
<!-- Node1 -->
<g id="node1" class="node">
<title>Node1</title>
<g id="a_node1"><a xlink:title=" ">
<polygon fill="#999999" stroke="#666666" points="110,-38 0,-38 0,-19 110,-19 110,-38"/>
<text text-anchor="middle" x="55" y="-26" font-family="Helvetica,sans-Serif" font-size="10.00">getOutBoxFolderPath</text>
</a>
</g>
</g>
<!-- Node2 -->
<g id="node2" class="node">
<title>Node2</title>
<g id="a_node2"><a xlink:href="namespace_o_c_a_1_1_c_a_f_e_v_d_b_1_1_traits.html#a1fe279ec39675001095beafdf178b811" target="_top" xlink:title="Create the full&#45;path for the sub&#45;folder corresponding to the given config key.">
<polygon fill="white" stroke="#666666" points="271,-38 146,-38 146,-19 271,-19 271,-38"/>
<text text-anchor="middle" x="208.5" y="-26" font-family="Helvetica,sans-Serif" font-size="10.00">getSharedSubFolderPath</text>
</a>
</g>
</g>
<!-- Node1&#45;&gt;Node2 -->
<g id="edge1" class="edge">
<title>Node1&#45;&gt;Node2</title>
<path fill="none" stroke="#63b8ff" d="M110.27,-28.5C118.24,-28.5 126.55,-28.5 134.82,-28.5"/>
<polygon fill="#63b8ff" stroke="#63b8ff" points="134.63,-32 144.63,-28.5 134.63,-25 134.63,-32"/>
</g>
<!-- Node3 -->
<g id="node3" class="node">
<title>Node3</title>
<g id="a_node3"><a xlink:href="namespace_o_c_a_1_1_c_a_f_e_v_d_b_1_1_traits.html#aa57ee6dad7c7f33cff6983ad79080946" target="_top" xlink:title="Get a possibly encrypted config value.">
<polygon fill="white" stroke="#666666" points="534,-38 451,-38 451,-19 534,-19 534,-38"/>
<text text-anchor="middle" x="492.5" y="-26" font-family="Helvetica,sans-Serif" font-size="10.00">getConfigValue</text>
</a>
</g>
</g>
<!-- Node2&#45;&gt;Node3 -->
<g id="edge2" class="edge">
<title>Node2&#45;&gt;Node3</title>
<path fill="none" stroke="#63b8ff" d="M271.39,-28.5C321.82,-28.5 392.22,-28.5 439.71,-28.5"/>
<polygon fill="#63b8ff" stroke="#63b8ff" points="439.66,-32 449.66,-28.5 439.66,-25 439.66,-32"/>
</g>
<!-- Node5 -->
<g id="node5" class="node">
<title>Node5</title>
<g id="a_node5"><a xlink:href="namespace_o_c_a_1_1_c_a_f_e_v_d_b_1_1_traits.html#adac8fad662663420dc8d9b73e0134673" target="_top" xlink:title=" ">
<polygon fill="white" stroke="#666666" points="415,-19 307,-19 307,0 415,0 415,-19"/>
<text text-anchor="middle" x="361" y="-7" font-family="Helvetica,sans-Serif" font-size="10.00">getSharedFolderPath</text>
</a>
</g>
</g>
<!-- Node2&#45;&gt;Node5 -->
<g id="edge4" class="edge">
<title>Node2&#45;&gt;Node5</title>
<path fill="none" stroke="#63b8ff" d="M271.15,-20.72C279.39,-19.68 287.85,-18.61 296.13,-17.56"/>
<polygon fill="#63b8ff" stroke="#63b8ff" points="296.39,-20.93 305.87,-16.21 295.51,-13.99 296.39,-20.93"/>
</g>
<!-- Node4 -->
<g id="node4" class="node">
<title>Node4</title>
<g id="a_node4"><a xlink:href="namespace_o_c_a_1_1_c_a_f_e_v_d_b_1_1_traits.html#a4bb87734b0f297c2a6d2095820942c48" target="_top" xlink:title="Return the stored config&#45;service for convenience.">
<polygon fill="white" stroke="#666666" points="646,-38 570,-38 570,-19 646,-19 646,-38"/>
<text text-anchor="middle" x="608" y="-26" font-family="Helvetica,sans-Serif" font-size="10.00">configService</text>
</a>
</g>
</g>
<!-- Node3&#45;&gt;Node4 -->
<g id="edge3" class="edge">
<title>Node3&#45;&gt;Node4</title>
<path fill="none" stroke="#63b8ff" d="M534.48,-28.5C542.42,-28.5 550.81,-28.5 558.96,-28.5"/>
<polygon fill="#63b8ff" stroke="#63b8ff" points="558.86,-32 568.86,-28.5 558.86,-25 558.86,-32"/>
</g>
<!-- Node5&#45;&gt;Node3 -->
<g id="edge5" class="edge">
<title>Node5&#45;&gt;Node3</title>
<path fill="none" stroke="#63b8ff" d="M415.42,-17.34C423.56,-18.53 431.95,-19.76 440.05,-20.95"/>
<polygon fill="#63b8ff" stroke="#63b8ff" points="439.46,-24.55 449.87,-22.54 440.48,-17.62 439.46,-24.55"/>
</g>
</g>
</svg>
