<?xml version="1.0" encoding="UTF-8" standalone="no"?>
<!DOCTYPE svg PUBLIC "-//W3C//DTD SVG 1.1//EN"
 "http://www.w3.org/Graphics/SVG/1.1/DTD/svg11.dtd">
<!-- Generated by graphviz version 8.0.3 (20230416.2022)
 -->
<!-- Title: setDatabaseRepository Pages: 1 -->
<svg width="380pt" height="212pt"
 viewBox="0.00 0.00 380.00 212.00" xmlns="http://www.w3.org/2000/svg" xmlns:xlink="http://www.w3.org/1999/xlink">
<g id="graph0" class="graph" transform="scale(1 1) rotate(0) translate(4 208)">
<title>setDatabaseRepository</title>
<!-- Node1 -->
<g id="node1" class="node">
<title>Node1</title>
<g id="a_node1"><a xlink:title="Set the given name as the current database target entity.">
<polygon fill="#999999" stroke="#666666" points="372,-111 253,-111 253,-92 372,-92 372,-111"/>
<text text-anchor="middle" x="312.5" y="-99" font-family="Helvetica,sans-Serif" font-size="10.00">setDatabaseRepository</text>
</a>
</g>
</g>
<!-- Node2 -->
<g id="node2" class="node">
<title>Node2</title>
<g id="a_node2"><a xlink:href="namespace_o_c_a_1_1_c_a_f_e_v_d_b_1_1_traits.html#ab6f5f4edde190f5e5f1cd1e2fdd402d4" target="_top" xlink:title="Set and get the given name as the current database target entity.">
<polygon fill="white" stroke="#666666" points="217,-111 98,-111 98,-92 217,-92 217,-111"/>
<text text-anchor="middle" x="157.5" y="-99" font-family="Helvetica,sans-Serif" font-size="10.00">getDatabaseRepository</text>
</a>
</g>
</g>
<!-- Node1&#45;&gt;Node2 -->
<g id="edge1" class="edge">
<title>Node1&#45;&gt;Node2</title>
<path fill="none" stroke="#63b8ff" d="M242.02,-101.5C233.77,-101.5 225.4,-101.5 217.31,-101.5"/>
<polygon fill="#63b8ff" stroke="#63b8ff" points="241.78,-105 251.78,-101.5 241.78,-98 241.78,-105"/>
</g>
<!-- Node3 -->
<g id="node3" class="node">
<title>Node3</title>
<g id="a_node3"><a xlink:href="namespace_o_c_a_1_1_c_a_f_e_v_d_b_1_1_traits.html#a8e12ef5cafdab7b950132867526d1113" target="_top" xlink:title="Counts entities by a set of criteria.">
<polygon fill="white" stroke="#666666" points="51.5,-204 10.5,-204 10.5,-185 51.5,-185 51.5,-204"/>
<text text-anchor="middle" x="31" y="-192" font-family="Helvetica,sans-Serif" font-size="10.00">count</text>
</a>
</g>
</g>
<!-- Node2&#45;&gt;Node3 -->
<g id="edge2" class="edge">
<title>Node2&#45;&gt;Node3</title>
<path fill="none" stroke="#63b8ff" d="M136.64,-118.51C117.91,-134.26 88.79,-157.95 62,-176.5 58.01,-179.27 53.58,-182.06 49.38,-184.6"/>
<polygon fill="#63b8ff" stroke="#63b8ff" points="138.57,-120.62 143.95,-111.48 134.05,-115.27 138.57,-120.62"/>
</g>
<!-- Node4 -->
<g id="node4" class="node">
<title>Node4</title>
<g id="a_node4"><a xlink:href="namespace_o_c_a_1_1_c_a_f_e_v_d_b_1_1_traits.html#a53ac2b252066fd57152201418ca9a238" target="_top" xlink:title="Finds an entity by its primary key / identifier.">
<polygon fill="white" stroke="#666666" points="47,-167 15,-167 15,-148 47,-148 47,-167"/>
<text text-anchor="middle" x="31" y="-155" font-family="Helvetica,sans-Serif" font-size="10.00">find</text>
</a>
</g>
</g>
<!-- Node2&#45;&gt;Node4 -->
<g id="edge3" class="edge">
<title>Node2&#45;&gt;Node4</title>
<path fill="none" stroke="#63b8ff" d="M124.51,-115.89C99.78,-127.01 66.63,-141.92 47.46,-150.54"/>
<polygon fill="#63b8ff" stroke="#63b8ff" points="125.84,-118.68 133.53,-111.38 122.97,-112.29 125.84,-118.68"/>
</g>
<!-- Node5 -->
<g id="node5" class="node">
<title>Node5</title>
<g id="a_node5"><a xlink:href="namespace_o_c_a_1_1_c_a_f_e_v_d_b_1_1_traits.html#af92918b0467da12c739883470b4bcc31" target="_top" xlink:title="Finds all entities in the repository.">
<polygon fill="white" stroke="#666666" points="53,-130 9,-130 9,-111 53,-111 53,-130"/>
<text text-anchor="middle" x="31" y="-118" font-family="Helvetica,sans-Serif" font-size="10.00">findAll</text>
</a>
</g>
</g>
<!-- Node2&#45;&gt;Node5 -->
<g id="edge4" class="edge">
<title>Node2&#45;&gt;Node5</title>
<path fill="none" stroke="#63b8ff" d="M86.77,-112.14C74.58,-114 62.79,-115.8 53.28,-117.25"/>
<polygon fill="#63b8ff" stroke="#63b8ff" points="87.17,-115.47 96.53,-110.5 86.12,-108.55 87.17,-115.47"/>
</g>
<!-- Node6 -->
<g id="node6" class="node">
<title>Node6</title>
<g id="a_node6"><a xlink:href="namespace_o_c_a_1_1_c_a_f_e_v_d_b_1_1_traits.html#a94c8ff9bcf707932a5c13d04d16a8e7f" target="_top" xlink:title="Finds entities by a set of criteria.">
<polygon fill="white" stroke="#666666" points="53,-93 9,-93 9,-74 53,-74 53,-93"/>
<text text-anchor="middle" x="31" y="-81" font-family="Helvetica,sans-Serif" font-size="10.00">findBy</text>
</a>
</g>
</g>
<!-- Node2&#45;&gt;Node6 -->
<g id="edge5" class="edge">
<title>Node2&#45;&gt;Node6</title>
<path fill="none" stroke="#63b8ff" d="M86.77,-91.42C74.58,-89.66 62.79,-87.95 53.28,-86.58"/>
<polygon fill="#63b8ff" stroke="#63b8ff" points="86.13,-95.01 96.53,-92.97 87.14,-88.08 86.13,-95.01"/>
</g>
<!-- Node7 -->
<g id="node7" class="node">
<title>Node7</title>
<g id="a_node7"><a xlink:href="namespace_o_c_a_1_1_c_a_f_e_v_d_b_1_1_traits.html#a25792cc13a33a74c4a8ecc7755fd76bc" target="_top" xlink:title="Finds a single entity by a set of criteria.">
<polygon fill="white" stroke="#666666" points="62,-56 0,-56 0,-37 62,-37 62,-56"/>
<text text-anchor="middle" x="31" y="-44" font-family="Helvetica,sans-Serif" font-size="10.00">findOneBy</text>
</a>
</g>
</g>
<!-- Node2&#45;&gt;Node7 -->
<g id="edge6" class="edge">
<title>Node2&#45;&gt;Node7</title>
<path fill="none" stroke="#63b8ff" d="M124.09,-87.18C102.18,-77.5 73.81,-64.97 54.38,-56.39"/>
<polygon fill="#63b8ff" stroke="#63b8ff" points="122.39,-90.7 132.95,-91.54 125.22,-84.3 122.39,-90.7"/>
</g>
<!-- Node8 -->
<g id="node8" class="node">
<title>Node8</title>
<g id="a_node8"><a xlink:href="namespace_o_c_a_1_1_c_a_f_e_v_d_b_1_1_traits.html#ad9829bdefbdf3098ba512082b136ab4e" target="_top" xlink:title="Select all elements from a selectable that match the expression and return a new collection containin...">
<polygon fill="white" stroke="#666666" points="59,-19 3,-19 3,0 59,0 59,-19"/>
<text text-anchor="middle" x="31" y="-7" font-family="Helvetica,sans-Serif" font-size="10.00">matching</text>
</a>
</g>
</g>
<!-- Node2&#45;&gt;Node8 -->
<g id="edge7" class="edge">
<title>Node2&#45;&gt;Node8</title>
<path fill="none" stroke="#63b8ff" d="M136.15,-84.9C117.29,-69.72 88.26,-46.9 62,-28.5 57.66,-25.46 52.85,-22.32 48.37,-19.48"/>
<polygon fill="#63b8ff" stroke="#63b8ff" points="133.56,-88.11 143.54,-91.68 137.97,-82.67 133.56,-88.11"/>
</g>
</g>
</svg>
