<?xml version="1.0" encoding="UTF-8" standalone="no"?>
<!DOCTYPE svg PUBLIC "-//W3C//DTD SVG 1.1//EN"
 "http://www.w3.org/Graphics/SVG/1.1/DTD/svg11.dtd">
<!-- Generated by graphviz version 7.1.0 (20230121.1956)
 -->
<!-- Title: formatDate Pages: 1 -->
<svg width="320pt" height="27pt"
 viewBox="0.00 0.00 320.00 27.00" xmlns="http://www.w3.org/2000/svg" xmlns:xlink="http://www.w3.org/1999/xlink">
<g id="graph0" class="graph" transform="scale(1 1) rotate(0) translate(4 23)">
<title>formatDate</title>
<!-- Node1 -->
<g id="node1" class="node">
<title>Node1</title>
<g id="a_node1"><a xlink:title="Work around NC annoyingly not accepting \DateTimeInterface.">
<polygon fill="#999999" stroke="#666666" points="65,-19 0,-19 0,0 65,0 65,-19"/>
<text text-anchor="middle" x="32.5" y="-7" font-family="Helvetica,sans-Serif" font-size="10.00">formatDate</text>
</a>
</g>
</g>
<!-- Node2 -->
<g id="node2" class="node">
<title>Node2</title>
<g id="a_node2"><a xlink:href="namespace_o_c_a_1_1_c_a_f_e_v_d_b_1_1_traits.html#af3b3d2dae405ec96b29b4072ef4824a2" target="_top" xlink:title=" ">
<polygon fill="white" stroke="#666666" points="200,-19 101,-19 101,0 200,0 200,-19"/>
<text text-anchor="middle" x="150.5" y="-7" font-family="Helvetica,sans-Serif" font-size="10.00">dateTimeFormatter</text>
</a>
</g>
</g>
<!-- Node1&#45;&gt;Node2 -->
<g id="edge1" class="edge">
<title>Node1&#45;&gt;Node2</title>
<path fill="none" stroke="#63b8ff" d="M65.2,-9.5C72.76,-9.5 81.08,-9.5 89.46,-9.5"/>
<polygon fill="#63b8ff" stroke="#63b8ff" points="89.34,-13 99.34,-9.5 89.34,-6 89.34,-13"/>
</g>
<!-- Node3 -->
<g id="node3" class="node">
<title>Node3</title>
<g id="a_node3"><a xlink:href="namespace_o_c_a_1_1_c_a_f_e_v_d_b_1_1_traits.html#a4bb87734b0f297c2a6d2095820942c48" target="_top" xlink:title="Return the stored config&#45;service for convenience.">
<polygon fill="white" stroke="#666666" points="312,-19 236,-19 236,0 312,0 312,-19"/>
<text text-anchor="middle" x="274" y="-7" font-family="Helvetica,sans-Serif" font-size="10.00">configService</text>
</a>
</g>
</g>
<!-- Node2&#45;&gt;Node3 -->
<g id="edge2" class="edge">
<title>Node2&#45;&gt;Node3</title>
<path fill="none" stroke="#63b8ff" d="M200.22,-9.5C208.2,-9.5 216.48,-9.5 224.46,-9.5"/>
<polygon fill="#63b8ff" stroke="#63b8ff" points="224.36,-13 234.36,-9.5 224.36,-6 224.36,-13"/>
</g>
</g>
</svg>
