<?xml version="1.0" encoding="UTF-8" standalone="no"?>
<!DOCTYPE svg PUBLIC "-//W3C//DTD SVG 1.1//EN"
 "http://www.w3.org/Graphics/SVG/1.1/DTD/svg11.dtd">
<!-- Generated by graphviz version 7.1.0 (20230121.1956)
 -->
<!-- Title: getPostBoxFolderPath Pages: 1 -->
<svg width="659pt" height="46pt"
 viewBox="0.00 0.00 659.00 46.00" xmlns="http://www.w3.org/2000/svg" xmlns:xlink="http://www.w3.org/1999/xlink">
<g id="graph0" class="graph" transform="scale(1 1) rotate(0) translate(4 42)">
<title>getPostBoxFolderPath</title>
<!-- Node1 -->
<g id="node1" class="node">
<title>Node1</title>
<g id="a_node1"><a xlink:title=" ">
<polygon fill="#999999" stroke="#666666" points="115,-38 0,-38 0,-19 115,-19 115,-38"/>
<text text-anchor="middle" x="57.5" y="-26" font-family="Helvetica,sans-Serif" font-size="10.00">getPostBoxFolderPath</text>
</a>
</g>
</g>
<!-- Node2 -->
<g id="node2" class="node">
<title>Node2</title>
<g id="a_node2"><a xlink:href="namespace_o_c_a_1_1_c_a_f_e_v_d_b_1_1_traits.html#a1fe279ec39675001095beafdf178b811" target="_top" xlink:title="Create the full&#45;path for the sub&#45;folder corresponding to the given config key.">
<polygon fill="white" stroke="#666666" points="276,-38 151,-38 151,-19 276,-19 276,-38"/>
<text text-anchor="middle" x="213.5" y="-26" font-family="Helvetica,sans-Serif" font-size="10.00">getSharedSubFolderPath</text>
</a>
</g>
</g>
<!-- Node1&#45;&gt;Node2 -->
<g id="edge1" class="edge">
<title>Node1&#45;&gt;Node2</title>
<path fill="none" stroke="#63b8ff" d="M115.41,-28.5C123.21,-28.5 131.31,-28.5 139.35,-28.5"/>
<polygon fill="#63b8ff" stroke="#63b8ff" points="139.14,-32 149.14,-28.5 139.14,-25 139.14,-32"/>
</g>
<!-- Node3 -->
<g id="node3" class="node">
<title>Node3</title>
<g id="a_node3"><a xlink:href="namespace_o_c_a_1_1_c_a_f_e_v_d_b_1_1_traits.html#aa57ee6dad7c7f33cff6983ad79080946" target="_top" xlink:title="Get a possibly encrypted config value.">
<polygon fill="white" stroke="#666666" points="539,-38 456,-38 456,-19 539,-19 539,-38"/>
<text text-anchor="middle" x="497.5" y="-26" font-family="Helvetica,sans-Serif" font-size="10.00">getConfigValue</text>
</a>
</g>
</g>
<!-- Node2&#45;&gt;Node3 -->
<g id="edge2" class="edge">
<title>Node2&#45;&gt;Node3</title>
<path fill="none" stroke="#63b8ff" d="M276.39,-28.5C326.71,-28.5 396.92,-28.5 444.41,-28.5"/>
<polygon fill="#63b8ff" stroke="#63b8ff" points="444.15,-32 454.15,-28.5 444.15,-25 444.15,-32"/>
</g>
<!-- Node5 -->
<g id="node5" class="node">
<title>Node5</title>
<g id="a_node5"><a xlink:href="namespace_o_c_a_1_1_c_a_f_e_v_d_b_1_1_traits.html#adac8fad662663420dc8d9b73e0134673" target="_top" xlink:title=" ">
<polygon fill="white" stroke="#666666" points="420,-19 312,-19 312,0 420,0 420,-19"/>
<text text-anchor="middle" x="366" y="-7" font-family="Helvetica,sans-Serif" font-size="10.00">getSharedFolderPath</text>
</a>
</g>
</g>
<!-- Node2&#45;&gt;Node5 -->
<g id="edge4" class="edge">
<title>Node2&#45;&gt;Node5</title>
<path fill="none" stroke="#63b8ff" d="M276.15,-20.72C284.2,-19.7 292.47,-18.66 300.57,-17.63"/>
<polygon fill="#63b8ff" stroke="#63b8ff" points="300.89,-21.12 310.37,-16.4 300.01,-14.18 300.89,-21.12"/>
</g>
<!-- Node4 -->
<g id="node4" class="node">
<title>Node4</title>
<g id="a_node4"><a xlink:href="namespace_o_c_a_1_1_c_a_f_e_v_d_b_1_1_traits.html#a4bb87734b0f297c2a6d2095820942c48" target="_top" xlink:title="Return the stored config&#45;service for convenience.">
<polygon fill="white" stroke="#666666" points="651,-38 575,-38 575,-19 651,-19 651,-38"/>
<text text-anchor="middle" x="613" y="-26" font-family="Helvetica,sans-Serif" font-size="10.00">configService</text>
</a>
</g>
</g>
<!-- Node3&#45;&gt;Node4 -->
<g id="edge3" class="edge">
<title>Node3&#45;&gt;Node4</title>
<path fill="none" stroke="#63b8ff" d="M539.48,-28.5C547.24,-28.5 555.43,-28.5 563.41,-28.5"/>
<polygon fill="#63b8ff" stroke="#63b8ff" points="563.34,-32 573.34,-28.5 563.34,-25 563.34,-32"/>
</g>
<!-- Node5&#45;&gt;Node3 -->
<g id="edge5" class="edge">
<title>Node5&#45;&gt;Node3</title>
<path fill="none" stroke="#63b8ff" d="M420.42,-17.34C428.38,-18.51 436.57,-19.71 444.5,-20.87"/>
<polygon fill="#63b8ff" stroke="#63b8ff" points="443.97,-24.33 454.37,-22.32 444.98,-17.4 443.97,-24.33"/>
</g>
</g>
</svg>
