<?xml version="1.0" encoding="UTF-8" standalone="no"?>
<!DOCTYPE svg PUBLIC "-//W3C//DTD SVG 1.1//EN"
 "http://www.w3.org/Graphics/SVG/1.1/DTD/svg11.dtd">
<!-- Generated by graphviz version 7.1.0 (20230121.1956)
 -->
<!-- Title: toArray Pages: 1 -->
<svg width="363pt" height="64pt"
 viewBox="0.00 0.00 363.00 64.00" xmlns="http://www.w3.org/2000/svg" xmlns:xlink="http://www.w3.org/1999/xlink">
<g id="graph0" class="graph" transform="scale(1 1) rotate(0) translate(4 60)">
<title>toArray</title>
<!-- Node1 -->
<g id="node1" class="node">
<title>Node1</title>
<g id="a_node1"><a xlink:title=" ">
<polygon fill="#999999" stroke="#666666" points="48,-37 0,-37 0,-18 48,-18 48,-37"/>
<text text-anchor="middle" x="24" y="-25" font-family="Helvetica,sans-Serif" font-size="10.00">toArray</text>
</a>
</g>
</g>
<!-- Node2 -->
<g id="node2" class="node">
<title>Node2</title>
<g id="a_node2"><a xlink:href="namespace_o_c_a_1_1_c_a_f_e_v_d_b_1_1_database_1_1_doctrine_1_1_o_r_m_1_1_traits.html#a3d6a26d211a99287459a423d3965f11f" target="_top" xlink:title="{}">
<polygon fill="white" stroke="#666666" points="141,-37 84,-37 84,-18 141,-18 141,-37"/>
<text text-anchor="middle" x="112.5" y="-25" font-family="Helvetica,sans-Serif" font-size="10.00">offsetGet</text>
</a>
</g>
</g>
<!-- Node1&#45;&gt;Node2 -->
<g id="edge1" class="edge">
<title>Node1&#45;&gt;Node2</title>
<path fill="none" stroke="#63b8ff" d="M48.18,-27.5C55.6,-27.5 64.02,-27.5 72.25,-27.5"/>
<polygon fill="#63b8ff" stroke="#63b8ff" points="72.12,-31 82.12,-27.5 72.12,-24 72.12,-31"/>
</g>
<!-- Node3 -->
<g id="node3" class="node">
<title>Node3</title>
<g id="a_node3"><a xlink:href="namespace_o_c_a_1_1_c_a_f_e_v_d_b_1_1_database_1_1_doctrine_1_1_o_r_m_1_1_traits.html#aad6cdb28c78892f790755af76d01dc4e" target="_top" xlink:title=" ">
<polygon fill="white" stroke="#666666" points="252,-56 177,-56 177,-37 252,-37 252,-56"/>
<text text-anchor="middle" x="214.5" y="-44" font-family="Helvetica,sans-Serif" font-size="10.00">methodName</text>
</a>
</g>
</g>
<!-- Node2&#45;&gt;Node3 -->
<g id="edge2" class="edge">
<title>Node2&#45;&gt;Node3</title>
<path fill="none" stroke="#63b8ff" d="M141.36,-32.79C148.9,-34.23 157.3,-35.82 165.61,-37.4"/>
<polygon fill="#63b8ff" stroke="#63b8ff" points="164.85,-40.82 175.33,-39.25 166.16,-33.94 164.85,-40.82"/>
</g>
<!-- Node4 -->
<g id="node4" class="node">
<title>Node4</title>
<g id="a_node4"><a xlink:href="namespace_o_c_a_1_1_c_a_f_e_v_d_b_1_1_database_1_1_doctrine_1_1_o_r_m_1_1_traits.html#a2fa83c64b65bfcd6ae01aa378370f012" target="_top" xlink:title="{}">
<polygon fill="white" stroke="#666666" points="249,-19 180,-19 180,0 249,0 249,-19"/>
<text text-anchor="middle" x="214.5" y="-7" font-family="Helvetica,sans-Serif" font-size="10.00">offsetExists</text>
</a>
</g>
</g>
<!-- Node2&#45;&gt;Node4 -->
<g id="edge3" class="edge">
<title>Node2&#45;&gt;Node4</title>
<path fill="none" stroke="#63b8ff" d="M141.36,-22.49C149.82,-20.96 159.34,-19.25 168.63,-17.58"/>
<polygon fill="#63b8ff" stroke="#63b8ff" points="169.04,-21.06 178.26,-15.84 167.8,-14.17 169.04,-21.06"/>
</g>
<!-- Node5 -->
<g id="node5" class="node">
<title>Node5</title>
<g id="a_node5"><a xlink:href="namespace_o_c_a_1_1_c_a_f_e_v_d_b_1_1_database_1_1_doctrine_1_1_o_r_m_1_1_traits.html#a6a9f8143f3725e95dbf7f1ff70c78f94" target="_top" xlink:title="Use reflection inspection to export all of the private keys; automatically called on post&#45;load if the...">
<polygon fill="white" stroke="#666666" points="355,-19 288,-19 288,0 355,0 355,-19"/>
<text text-anchor="middle" x="321.5" y="-7" font-family="Helvetica,sans-Serif" font-size="10.00">arrayCTOR</text>
</a>
</g>
</g>
<!-- Node4&#45;&gt;Node5 -->
<g id="edge4" class="edge">
<title>Node4&#45;&gt;Node5</title>
<path fill="none" stroke="#63b8ff" d="M249.3,-9.5C257.98,-9.5 267.45,-9.5 276.57,-9.5"/>
<polygon fill="#63b8ff" stroke="#63b8ff" points="276.32,-13 286.32,-9.5 276.32,-6 276.32,-13"/>
</g>
</g>
</svg>
