<?xml version="1.0" encoding="UTF-8" standalone="no"?>
<!DOCTYPE svg PUBLIC "-//W3C//DTD SVG 1.1//EN"
 "http://www.w3.org/Graphics/SVG/1.1/DTD/svg11.dtd">
<!-- Generated by graphviz version 7.1.0 (20230121.1956)
 -->
<!-- Title: getDebitMandatesFolderName Pages: 1 -->
<svg width="423pt" height="38pt"
 viewBox="0.00 0.00 423.00 38.00" xmlns="http://www.w3.org/2000/svg" xmlns:xlink="http://www.w3.org/1999/xlink">
<g id="graph0" class="graph" transform="scale(1 1) rotate(0) translate(4 34)">
<title>getDebitMandatesFolderName</title>
<!-- Node1 -->
<g id="node1" class="node">
<title>Node1</title>
<g id="a_node1"><a xlink:title="Get the name of the sub&#45;folder holding hard&#45;copies of debit&#45;mandates.">
<polygon fill="#999999" stroke="#666666" points="149,-24.5 0,-24.5 0,-5.5 149,-5.5 149,-24.5"/>
<text text-anchor="middle" x="74.5" y="-12.5" font-family="Helvetica,sans-Serif" font-size="10.00">getDebitMandatesFolderName</text>
</a>
</g>
</g>
<!-- Node2 -->
<g id="node2" class="node">
<title>Node2</title>
<g id="a_node2"><a xlink:href="namespace_o_c_a_1_1_c_a_f_e_v_d_b_1_1_storage_1_1_database.html#ac9a30d52a63b1426a994fc3146facfba" target="_top" xlink:title=" ">
<polygon fill="white" stroke="#666666" points="253,-24.5 185,-24.5 185,-5.5 253,-5.5 253,-24.5"/>
<text text-anchor="middle" x="219" y="-12.5" font-family="Helvetica,sans-Serif" font-size="10.00">getAppL10n</text>
</a>
</g>
</g>
<!-- Node1&#45;&gt;Node2 -->
<g id="edge1" class="edge">
<title>Node1&#45;&gt;Node2</title>
<path fill="none" stroke="#63b8ff" d="M149.25,-15C157.37,-15 165.43,-15 173.04,-15"/>
<polygon fill="#63b8ff" stroke="#63b8ff" points="173.03,-18.5 183.03,-15 173.03,-11.5 173.03,-18.5"/>
</g>
<!-- Node3 -->
<g id="node3" class="node">
<title>Node3</title>
<g id="a_node3"><a xlink:href="class_o_c_a_1_1_c_a_f_e_v_d_b_1_1_app_info_1_1_application.html#a50bb03229a4b4114dd9c4bdd734e3cb3" target="_top" xlink:title="Static query of a service through the app container.">
<polygon fill="white" stroke="#666666" points="415,-30 289,-30 289,0 415,0 415,-30"/>
<text text-anchor="start" x="297" y="-18" font-family="Helvetica,sans-Serif" font-size="10.00">OCA\CAFEVDB\AppInfo</text>
<text text-anchor="middle" x="352" y="-7" font-family="Helvetica,sans-Serif" font-size="10.00">\Application\get</text>
</a>
</g>
</g>
<!-- Node2&#45;&gt;Node3 -->
<g id="edge2" class="edge">
<title>Node2&#45;&gt;Node3</title>
<path fill="none" stroke="#63b8ff" d="M253.4,-15C260.8,-15 268.92,-15 277.23,-15"/>
<polygon fill="#63b8ff" stroke="#63b8ff" points="277.11,-18.5 287.11,-15 277.11,-11.5 277.11,-18.5"/>
</g>
</g>
</svg>
