<?xml version="1.0" encoding="UTF-8" standalone="no"?>
<!DOCTYPE svg PUBLIC "-//W3C//DTD SVG 1.1//EN"
 "http://www.w3.org/Graphics/SVG/1.1/DTD/svg11.dtd">
<!-- Generated by graphviz version 9.0.0 (20230911.1827)
 -->
<!-- Title: log Pages: 1 -->
<svg width="152pt" height="66pt"
 viewBox="0.00 0.00 151.80 66.00" xmlns="http://www.w3.org/2000/svg" xmlns:xlink="http://www.w3.org/1999/xlink">
<g id="graph0" class="graph" transform="scale(1 1) rotate(0) translate(4 62)">
<title>log</title>
<!-- Node1 -->
<g id="Node000001" class="node">
<title>Node1</title>
<g id="a_Node000001"><a xlink:title="Log the given message at the specified level.">
<polygon fill="#999999" stroke="#666666" points="28.8,-39 0,-39 0,-19 28.8,-19 28.8,-39"/>
<text text-anchor="middle" x="14.4" y="-25.5" font-family="Helvetica,sans-Serif" font-size="10.00">log</text>
</a>
</g>
</g>
<!-- Node2 -->
<g id="Node000002" class="node">
<title>Node2</title>
<g id="a_Node000002"><a xlink:href="namespace_o_c_a_1_1_c_a_f_e_v_d_b_1_1_toolkit_1_1_traits.html#a97e3b3adabf67bc7d3650ed14214ddaa" target="_top" xlink:title="Return the stored logger class.">
<polygon fill="white" stroke="#666666" points="125.43,-58 83.18,-58 83.18,-38 125.43,-38 125.43,-58"/>
<text text-anchor="middle" x="104.3" y="-44.5" font-family="Helvetica,sans-Serif" font-size="10.00">logger</text>
</a>
</g>
</g>
<!-- Node1&#45;&gt;Node2 -->
<g id="edge1_Node000001_Node000002" class="edge">
<title>Node1&#45;&gt;Node2</title>
<g id="a_edge1_Node000001_Node000002"><a xlink:title=" ">
<path fill="none" stroke="#63b8ff" d="M29.13,-31.97C40.49,-34.42 57.06,-38 71.65,-41.16"/>
<polygon fill="#63b8ff" stroke="#63b8ff" points="70.81,-44.56 81.32,-43.25 72.29,-37.72 70.81,-44.56"/>
</a>
</g>
</g>
<!-- Node3 -->
<g id="Node000003" class="node">
<title>Node3</title>
<g id="a_Node000003"><a xlink:href="namespace_o_c_a_1_1_c_a_f_e_v_d_b_1_1_toolkit_1_1_traits.html#ab690a84fb4e720f43308bc354c392bee" target="_top" xlink:title="Map PSR log&#45;levels to ILogger log&#45;levels as the PsrLoggerAdapter only understands those.">
<polygon fill="white" stroke="#666666" points="143.8,-20 64.8,-20 64.8,0 143.8,0 143.8,-20"/>
<text text-anchor="middle" x="104.3" y="-6.5" font-family="Helvetica,sans-Serif" font-size="10.00">mapLogLevels</text>
</a>
</g>
</g>
<!-- Node1&#45;&gt;Node3 -->
<g id="edge2_Node000001_Node000003" class="edge">
<title>Node1&#45;&gt;Node3</title>
<g id="a_edge2_Node000001_Node000003"><a xlink:title=" ">
<path fill="none" stroke="#63b8ff" d="M29.13,-26.03C35.93,-24.56 44.6,-22.69 53.59,-20.75"/>
<polygon fill="#63b8ff" stroke="#63b8ff" points="54.1,-24.21 63.14,-18.68 52.62,-17.37 54.1,-24.21"/>
</a>
</g>
</g>
</g>
</svg>
