<?xml version="1.0" encoding="UTF-8" standalone="no"?>
<!DOCTYPE svg PUBLIC "-//W3C//DTD SVG 1.1//EN"
 "http://www.w3.org/Graphics/SVG/1.1/DTD/svg11.dtd">
<!-- Generated by graphviz version 9.0.0 (20230911.1827)
 -->
<!-- Title: getSharedFolderPath Pages: 1 -->
<!--zoomable 199 -->

<svg id="main" version="1.1" xmlns="http://www.w3.org/2000/svg" xmlns:xlink="http://www.w3.org/1999/xlink" xml:space="preserve" onload="init(evt)">
<style type="text/css"><![CDATA[
.node, .edge {opacity: 0.7;}
.node.selected, .edge.selected {opacity: 1;}
.edge:hover path { stroke: red; }
.edge:hover polygon { stroke: red; fill: red; }
]]></style>

<defs>
  <circle id="rim" cx="0" cy="0" r="7"/>
  <circle id="rim2" cx="0" cy="0" r="3.5"/>
  <g id="zoomPlus">
    <use xlink:href="#rim" fill="#404040"><set attributeName="fill" to="#808080" begin="zoomplus.mouseover" end="zoomplus.mouseout"/></use>
    <path d="M-4,0h8M0,-4v8" fill="none" stroke="white" stroke-width="1.5" pointer-events="none"/>
  </g>
  <g id="zoomMin">
    <use xlink:href="#rim" fill="#404040"><set attributeName="fill" to="#808080" begin="zoomminus.mouseover" end="zoomminus.mouseout"/></use>
    <path d="M-4,0h8" fill="none" stroke="white" stroke-width="1.5" pointer-events="none"/>
  </g>
  <g id="arrowUp" transform="translate(30 24)">
    <use xlink:href="#rim"/>
    <path pointer-events="none" fill="none" stroke="white" stroke-width="1.5" d="M0,-3.0v7 M-2.5,-0.5L0,-3.0L2.5,-0.5"/>
  </g>
  <g id="arrowRight" transform="rotate(90) translate(36 -43)">
    <use xlink:href="#rim"/>
    <path pointer-events="none" fill="none" stroke="white" stroke-width="1.5" d="M0,-3.0v7 M-2.5,-0.5L0,-3.0L2.5,-0.5"/>
  </g>
  <g id="arrowDown" transform="rotate(180) translate(-30 -48)">
    <use xlink:href="#rim"/>
    <path pointer-events="none" fill="none" stroke="white" stroke-width="1.5" d="M0,-3.0v7 M-2.5,-0.5L0,-3.0L2.5,-0.5"/>
  </g>
  <g id="arrowLeft" transform="rotate(270) translate(-36 17)">
    <use xlink:href="#rim"/>
    <path pointer-events="none" fill="none" stroke="white" stroke-width="1.5" d="M0,-3.0v7 M-2.5,-0.5L0,-3.0L2.5,-0.5"/>
  </g>
  <g id="resetDef">
    <use xlink:href="#rim2" fill="#404040"><set attributeName="fill" to="#808080" begin="reset.mouseover" end="reset.mouseout"/></use>
  </g>
</defs>
<script type="application/ecmascript">
var viewWidth = 789;
var viewHeight = 199;
var sectionId = 'dynsection-74';
</script>
<script type="application/ecmascript" xlink:href="svg.min.js"/>
<svg id="graph" class="graph">
<g id="viewport">
<title>getSharedFolderPath</title>
<!-- Node1 -->
<g id="Node000001" class="node">
<title>Node1</title>
<g id="a_Node000001"><a xlink:title=" ">
<polygon fill="#999999" stroke="#666666" points="780.5,-77 673,-77 673,-57 780.5,-57 780.5,-77"/>
<text text-anchor="middle" x="726.75" y="-63.5" font-family="Helvetica,sans-Serif" font-size="10.00">getSharedFolderPath</text>
</a>
</g>
</g>
<!-- Node2 -->
<g id="Node000002" class="node">
<title>Node2</title>
<g id="a_Node000002"><a xlink:href="namespace_o_c_a_1_1_c_a_f_e_v_d_b_1_1_traits.html#a0e96448f5a53a026f555528ae0750914" target="_top" xlink:title="Return the full path to the document templates folder.">
<polygon fill="white" stroke="#666666" points="637,-115 497.25,-115 497.25,-95 637,-95 637,-115"/>
<text text-anchor="middle" x="567.12" y="-101.5" font-family="Helvetica,sans-Serif" font-size="10.00">getDocumentTemplatesPath</text>
</a>
</g>
</g>
<!-- Node1&#45;&gt;Node2 -->
<g id="edge1_Node000001_Node000002" class="edge">
<title>Node1&#45;&gt;Node2</title>
<g id="a_edge1_Node000001_Node000002"><a xlink:title=" ">
<path fill="none" stroke="#63b8ff" d="M671.07,-80.18C651.57,-84.88 629.89,-90.11 611.47,-94.55"/>
<polygon fill="#63b8ff" stroke="#63b8ff" points="671.89,-83.59 680.79,-77.84 670.25,-76.78 671.89,-83.59"/>
</a>
</g>
</g>
<!-- Node3 -->
<g id="Node000003" class="node">
<title>Node3</title>
<g id="a_Node000003"><a xlink:href="namespace_o_c_a_1_1_c_a_f_e_v_d_b_1_1_traits.html#a1fe279ec39675001095beafdf178b811" target="_top" xlink:title="Create the full&#45;path for the sub&#45;folder corresponding to the given config key.">
<polygon fill="white" stroke="#666666" points="629.5,-77 504.75,-77 504.75,-57 629.5,-57 629.5,-77"/>
<text text-anchor="middle" x="567.12" y="-63.5" font-family="Helvetica,sans-Serif" font-size="10.00">getSharedSubFolderPath</text>
</a>
</g>
</g>
<!-- Node1&#45;&gt;Node3 -->
<g id="edge2_Node000001_Node000003" class="edge">
<title>Node1&#45;&gt;Node3</title>
<g id="a_edge2_Node000001_Node000003"><a xlink:title=" ">
<path fill="none" stroke="#63b8ff" d="M661.63,-67C651.16,-67 640.32,-67 629.9,-67"/>
<polygon fill="#63b8ff" stroke="#63b8ff" points="661.31,-70.5 671.31,-67 661.31,-63.5 661.31,-70.5"/>
</a>
</g>
</g>
<!-- Node13 -->
<g id="Node000013" class="node">
<title>Node13</title>
<g id="a_Node000013"><a xlink:href="namespace_o_c_a_1_1_c_a_f_e_v_d_b_1_1_traits.html#a414231574e1ad67b0334f0581afc8d3e" target="_top" xlink:title=" ">
<polygon fill="white" stroke="#666666" points="310.62,-20 182.12,-20 182.12,0 310.62,0 310.62,-20"/>
<text text-anchor="middle" x="246.38" y="-6.5" font-family="Helvetica,sans-Serif" font-size="10.00">publishInitialStateForUser</text>
</a>
</g>
</g>
<!-- Node1&#45;&gt;Node13 -->
<g id="edge13_Node000001_Node000013" class="edge">
<title>Node1&#45;&gt;Node13</title>
<g id="a_edge13_Node000001_Node000013"><a xlink:title=" ">
<path fill="none" stroke="#63b8ff" d="M678.37,-53.6C625.82,-39.49 538.28,-18.21 461.25,-10 410.85,-4.63 353.39,-4.99 310.73,-6.49"/>
<polygon fill="#63b8ff" stroke="#63b8ff" points="677.32,-56.94 687.89,-56.19 679.16,-50.19 677.32,-56.94"/>
</a>
</g>
</g>
<!-- Node4 -->
<g id="Node000004" class="node">
<title>Node4</title>
<g id="a_Node000004"><a xlink:href="namespace_o_c_a_1_1_c_a_f_e_v_d_b_1_1_traits.html#a642b5ca28f1a47e6409971d1aeb16c2c" target="_top" xlink:title=" ">
<polygon fill="white" stroke="#666666" points="459.75,-153 348.5,-153 348.5,-133 459.75,-133 459.75,-153"/>
<text text-anchor="middle" x="404.12" y="-139.5" font-family="Helvetica,sans-Serif" font-size="10.00">getFinanceFolderPath</text>
</a>
</g>
</g>
<!-- Node3&#45;&gt;Node4 -->
<g id="edge3_Node000003_Node000004" class="edge">
<title>Node3&#45;&gt;Node4</title>
<g id="a_edge3_Node000003_Node000004"><a xlink:title=" ">
<path fill="none" stroke="#63b8ff" d="M505.4,-81.68C502.59,-83 499.85,-84.44 497.25,-86 477.31,-97.98 480.84,-111.46 461.25,-124 455.96,-127.38 450.01,-130.23 444.01,-132.61"/>
<polygon fill="#63b8ff" stroke="#63b8ff" points="506.55,-84.99 514.48,-77.95 503.9,-78.51 506.55,-84.99"/>
</a>
</g>
</g>
<!-- Node10 -->
<g id="Node000010" class="node">
<title>Node10</title>
<g id="a_Node000010"><a xlink:href="namespace_o_c_a_1_1_c_a_f_e_v_d_b_1_1_traits.html#a357251e007461d82f748af451aed3a91" target="_top" xlink:title=" ">
<polygon fill="white" stroke="#666666" points="459,-115 349.25,-115 349.25,-95 459,-95 459,-115"/>
<text text-anchor="middle" x="404.12" y="-101.5" font-family="Helvetica,sans-Serif" font-size="10.00">getOutBoxFolderPath</text>
</a>
</g>
</g>
<!-- Node3&#45;&gt;Node10 -->
<g id="edge9_Node000003_Node000010" class="edge">
<title>Node3&#45;&gt;Node10</title>
<g id="a_edge9_Node000003_Node000010"><a xlink:title=" ">
<path fill="none" stroke="#63b8ff" d="M510.56,-80.12C490.57,-84.83 468.3,-90.09 449.4,-94.55"/>
<polygon fill="#63b8ff" stroke="#63b8ff" points="511.3,-83.54 520.23,-77.83 509.7,-76.72 511.3,-83.54"/>
</a>
</g>
</g>
<!-- Node11 -->
<g id="Node000011" class="node">
<title>Node11</title>
<g id="a_Node000011"><a xlink:href="namespace_o_c_a_1_1_c_a_f_e_v_d_b_1_1_traits.html#ac387596eb24fa62f0170220095911a30" target="_top" xlink:title=" ">
<polygon fill="white" stroke="#666666" points="461.25,-77 347,-77 347,-57 461.25,-57 461.25,-77"/>
<text text-anchor="middle" x="404.12" y="-63.5" font-family="Helvetica,sans-Serif" font-size="10.00">getPostBoxFolderPath</text>
</a>
</g>
</g>
<!-- Node3&#45;&gt;Node11 -->
<g id="edge10_Node000003_Node000011" class="edge">
<title>Node3&#45;&gt;Node11</title>
<g id="a_edge10_Node000003_Node000011"><a xlink:title=" ">
<path fill="none" stroke="#63b8ff" d="M493.04,-67C482.53,-67 471.85,-67 461.73,-67"/>
<polygon fill="#63b8ff" stroke="#63b8ff" points="492.83,-70.5 502.83,-67 492.83,-63.5 492.83,-70.5"/>
</a>
</g>
</g>
<!-- Node12 -->
<g id="Node000012" class="node">
<title>Node12</title>
<g id="a_Node000012"><a xlink:href="namespace_o_c_a_1_1_c_a_f_e_v_d_b_1_1_traits.html#aa58d61eef353556bd02376d0ac587ba0" target="_top" xlink:title=" ">
<polygon fill="white" stroke="#666666" points="460.5,-39 347.75,-39 347.75,-19 460.5,-19 460.5,-39"/>
<text text-anchor="middle" x="404.12" y="-25.5" font-family="Helvetica,sans-Serif" font-size="10.00">getProjectsFolderPath</text>
</a>
</g>
</g>
<!-- Node3&#45;&gt;Node12 -->
<g id="edge11_Node000003_Node000012" class="edge">
<title>Node3&#45;&gt;Node12</title>
<g id="a_edge11_Node000003_Node000012"><a xlink:title=" ">
<path fill="none" stroke="#63b8ff" d="M510.56,-53.88C490.57,-49.17 468.3,-43.91 449.4,-39.45"/>
<polygon fill="#63b8ff" stroke="#63b8ff" points="509.7,-57.28 520.23,-56.17 511.3,-50.46 509.7,-57.28"/>
</a>
</g>
</g>
<!-- Node5 -->
<g id="Node000005" class="node">
<title>Node5</title>
<g id="a_Node000005"><a xlink:href="namespace_o_c_a_1_1_c_a_f_e_v_d_b_1_1_traits.html#a96fbb9c63c9b6d8451834c182a7484b9" target="_top" xlink:title=" ">
<polygon fill="white" stroke="#666666" points="310.62,-191 182.12,-191 182.12,-171 310.62,-171 310.62,-191"/>
<text text-anchor="middle" x="246.38" y="-177.5" font-family="Helvetica,sans-Serif" font-size="10.00">getBankTransactionsPath</text>
</a>
</g>
</g>
<!-- Node4&#45;&gt;Node5 -->
<g id="edge4_Node000004_Node000005" class="edge">
<title>Node4&#45;&gt;Node5</title>
<g id="a_edge4_Node000004_Node000005"><a xlink:title=" ">
<path fill="none" stroke="#63b8ff" d="M349.1,-156.18C329.83,-160.88 308.4,-166.11 290.21,-170.55"/>
<polygon fill="#63b8ff" stroke="#63b8ff" points="349.8,-159.61 358.68,-153.84 348.14,-152.81 349.8,-159.61"/>
</a>
</g>
</g>
<!-- Node6 -->
<g id="Node000006" class="node">
<title>Node6</title>
<g id="a_Node000006"><a xlink:href="namespace_o_c_a_1_1_c_a_f_e_v_d_b_1_1_traits.html#aa0764db1b1533db78bb2f515fad6f25a" target="_top" xlink:title=" ">
<polygon fill="white" stroke="#666666" points="311,-153 181.75,-153 181.75,-133 311,-133 311,-153"/>
<text text-anchor="middle" x="246.38" y="-139.5" font-family="Helvetica,sans-Serif" font-size="10.00">getFinancialBalancesPath</text>
</a>
</g>
</g>
<!-- Node4&#45;&gt;Node6 -->
<g id="edge5_Node000004_Node000006" class="edge">
<title>Node4&#45;&gt;Node6</title>
<g id="a_edge5_Node000004_Node000006"><a xlink:title=" ">
<path fill="none" stroke="#63b8ff" d="M336.85,-143C328.41,-143 319.78,-143 311.38,-143"/>
<polygon fill="#63b8ff" stroke="#63b8ff" points="336.7,-146.5 346.7,-143 336.7,-139.5 336.7,-146.5"/>
</a>
</g>
</g>
<!-- Node8 -->
<g id="Node000008" class="node">
<title>Node8</title>
<g id="a_Node000008"><a xlink:href="namespace_o_c_a_1_1_c_a_f_e_v_d_b_1_1_traits.html#ab75c56fd73f62d264749cb114869e61f" target="_top" xlink:title=" ">
<polygon fill="white" stroke="#666666" points="302.38,-115 190.38,-115 190.38,-95 302.38,-95 302.38,-115"/>
<text text-anchor="middle" x="246.38" y="-101.5" font-family="Helvetica,sans-Serif" font-size="10.00">getTaxAuthoritiesPath</text>
</a>
</g>
</g>
<!-- Node4&#45;&gt;Node8 -->
<g id="edge7_Node000004_Node000008" class="edge">
<title>Node4&#45;&gt;Node8</title>
<g id="a_edge7_Node000004_Node000008"><a xlink:title=" ">
<path fill="none" stroke="#63b8ff" d="M349.1,-129.82C329.83,-125.12 308.4,-119.89 290.21,-115.45"/>
<polygon fill="#63b8ff" stroke="#63b8ff" points="348.14,-133.19 358.68,-132.16 349.8,-126.39 348.14,-133.19"/>
</a>
</g>
</g>
<!-- Node7 -->
<g id="Node000007" class="node">
<title>Node7</title>
<g id="a_Node000007"><a xlink:href="namespace_o_c_a_1_1_c_a_f_e_v_d_b_1_1_traits.html#a50bd1326b527dbc5a86f52520df9b930" target="_top" xlink:title=" ">
<polygon fill="white" stroke="#666666" points="133.38,-153 12.38,-153 12.38,-133 133.38,-133 133.38,-153"/>
<text text-anchor="middle" x="72.88" y="-139.5" font-family="Helvetica,sans-Serif" font-size="10.00">getProjectBalancesPath</text>
</a>
</g>
</g>
<!-- Node6&#45;&gt;Node7 -->
<g id="edge6_Node000006_Node000007" class="edge">
<title>Node6&#45;&gt;Node7</title>
<g id="a_edge6_Node000006_Node000007"><a xlink:title=" ">
<path fill="none" stroke="#63b8ff" d="M170.02,-143C157.9,-143 145.5,-143 133.81,-143"/>
<polygon fill="#63b8ff" stroke="#63b8ff" points="170,-146.5 180,-143 170,-139.5 170,-146.5"/>
</a>
</g>
</g>
<!-- Node9 -->
<g id="Node000009" class="node">
<title>Node9</title>
<g id="a_Node000009"><a xlink:href="namespace_o_c_a_1_1_c_a_f_e_v_d_b_1_1_traits.html#a902ebc003b3dd89af022973166d54d48" target="_top" xlink:title=" ">
<polygon fill="white" stroke="#666666" points="145.75,-115 0,-115 0,-95 145.75,-95 145.75,-115"/>
<text text-anchor="middle" x="72.88" y="-101.5" font-family="Helvetica,sans-Serif" font-size="10.00">getTaxExemptionNoticesPath</text>
</a>
</g>
</g>
<!-- Node8&#45;&gt;Node9 -->
<g id="edge8_Node000008_Node000009" class="edge">
<title>Node8&#45;&gt;Node9</title>
<g id="a_edge8_Node000008_Node000009"><a xlink:title=" ">
<path fill="none" stroke="#63b8ff" d="M178.78,-105C168.1,-105 157,-105 146.2,-105"/>
<polygon fill="#63b8ff" stroke="#63b8ff" points="178.65,-108.5 188.65,-105 178.65,-101.5 178.65,-108.5"/>
</a>
</g>
</g>
<!-- Node12&#45;&gt;Node13 -->
<g id="edge12_Node000012_Node000013" class="edge">
<title>Node12&#45;&gt;Node13</title>
<g id="a_edge12_Node000012_Node000013"><a xlink:title=" ">
<path fill="none" stroke="#63b8ff" d="M336.11,-20.82C327.77,-19.81 319.27,-18.77 310.99,-17.76"/>
<polygon fill="#63b8ff" stroke="#63b8ff" points="335.48,-24.27 345.83,-22.01 336.33,-17.33 335.48,-24.27"/>
</a>
</g>
</g>
</g>
</svg>

<g id="navigator" transform="translate(0 0)" fill="#404254">
  <rect fill="#f2f5e9" fill-opacity="0.5" stroke="#606060" stroke-width=".5" x="0" y="0" width="60" height="60"/>
  <use id="zoomplus" xlink:href="#zoomPlus" x="17" y="9" onmousedown="handleZoom(evt,'in')"/>
  <use id="zoomminus" xlink:href="#zoomMin" x="42" y="9" onmousedown="handleZoom(evt,'out')"/>
  <use id="reset" xlink:href="#resetDef" x="30" y="36" onmousedown="handleReset()"/>
   <use id="arrowup" xlink:href="#arrowUp" x="0" y="0" onmousedown="handlePan(0,-1)"/>
  <use id="arrowright" xlink:href="#arrowRight" x="0" y="0" onmousedown="handlePan(1,0)"/>
  <use id="arrowdown" xlink:href="#arrowDown" x="0" y="0" onmousedown="handlePan(0,1)"/>
  <use id="arrowleft" xlink:href="#arrowLeft" x="0" y="0" onmousedown="handlePan(-1,0)"/>
</g>
<svg viewBox="0 0 15 15" width="100%" height="30px" preserveAspectRatio="xMaxYMin meet">
 <g id="arrow_out" transform="scale(0.3 0.3)">
  <a xlink:href="namespace_o_c_a_1_1_c_a_f_e_v_d_b_1_1_traits_adac8fad662663420dc8d9b73e0134673_icgraph_org.svg" target="_base">
   <rect id="button" ry="5" rx="5" y="6" x="6" height="38" width="38"
        fill="#f2f5e9" fill-opacity="0.5" stroke="#606060" stroke-width="1.0"/>
   <path id="arrow"
     d="M 11.500037,31.436501 C 11.940474,20.09759 22.043105,11.32322 32.158766,21.979434 L 37.068811,17.246167 C 37.068811,17.246167 37.088388,32 37.088388,32 L 22.160133,31.978069 C 22.160133,31.978069 26.997745,27.140456 26.997745,27.140456 C 18.528582,18.264221 13.291696,25.230495 11.500037,31.436501 z"
     style="fill:#404040;"/>
  </a>
 </g>
</svg>

<style type='text/css'>
<![CDATA[
[data-mouse-over-selected='false'] { opacity: 0.7; }
[data-mouse-over-selected='true']  { opacity: 1.0; }
]]>
</style>
<script type="application/ecmascript"><![CDATA[
document.addEventListener('DOMContentLoaded', (event) => {
  highlightEdges();
  highlightAdjacentNodes();
});
]]></script>
</svg>
