<?xml version="1.0" encoding="UTF-8" standalone="no"?>
<!DOCTYPE svg PUBLIC "-//W3C//DTD SVG 1.1//EN"
 "http://www.w3.org/Graphics/SVG/1.1/DTD/svg11.dtd">
<!-- Generated by graphviz version 9.0.0 (20230911.1827)
 -->
<!-- Title: getBankTransactionsPath Pages: 1 -->
<svg width="817pt" height="85pt"
 viewBox="0.00 0.00 817.25 85.00" xmlns="http://www.w3.org/2000/svg" xmlns:xlink="http://www.w3.org/1999/xlink">
<g id="graph0" class="graph" transform="scale(1 1) rotate(0) translate(4 81)">
<title>getBankTransactionsPath</title>
<!-- Node1 -->
<g id="Node000001" class="node">
<title>Node1</title>
<g id="a_Node000001"><a xlink:title=" ">
<polygon fill="#999999" stroke="#666666" points="128.5,-77 0,-77 0,-57 128.5,-57 128.5,-77"/>
<text text-anchor="middle" x="64.25" y="-63.5" font-family="Helvetica,sans-Serif" font-size="10.00">getBankTransactionsPath</text>
</a>
</g>
</g>
<!-- Node2 -->
<g id="Node000002" class="node">
<title>Node2</title>
<g id="a_Node000002"><a xlink:href="namespace_o_c_a_1_1_c_a_f_e_v_d_b_1_1_traits.html#aa57ee6dad7c7f33cff6983ad79080946" target="_top" xlink:title="Get a possibly encrypted config value.">
<polygon fill="white" stroke="#666666" points="698,-58 616,-58 616,-38 698,-38 698,-58"/>
<text text-anchor="middle" x="657" y="-44.5" font-family="Helvetica,sans-Serif" font-size="10.00">getConfigValue</text>
</a>
</g>
</g>
<!-- Node1&#45;&gt;Node2 -->
<g id="edge1_Node000001_Node000002" class="edge">
<title>Node1&#45;&gt;Node2</title>
<g id="a_edge1_Node000001_Node000002"><a xlink:title=" ">
<path fill="none" stroke="#63b8ff" d="M128.88,-70.4C226.35,-74.71 418.3,-79.61 580,-62 587.89,-61.14 596.19,-59.93 604.28,-58.58"/>
<polygon fill="#63b8ff" stroke="#63b8ff" points="604.81,-62.04 614.05,-56.86 603.59,-55.15 604.81,-62.04"/>
</a>
</g>
</g>
<!-- Node4 -->
<g id="Node000004" class="node">
<title>Node4</title>
<g id="a_Node000004"><a xlink:href="namespace_o_c_a_1_1_c_a_f_e_v_d_b_1_1_traits.html#a642b5ca28f1a47e6409971d1aeb16c2c" target="_top" xlink:title=" ">
<polygon fill="white" stroke="#666666" points="275.75,-58 164.5,-58 164.5,-38 275.75,-38 275.75,-58"/>
<text text-anchor="middle" x="220.12" y="-44.5" font-family="Helvetica,sans-Serif" font-size="10.00">getFinanceFolderPath</text>
</a>
</g>
</g>
<!-- Node1&#45;&gt;Node4 -->
<g id="edge3_Node000001_Node000004" class="edge">
<title>Node1&#45;&gt;Node4</title>
<g id="a_edge3_Node000001_Node000004"><a xlink:title=" ">
<path fill="none" stroke="#63b8ff" d="M128.73,-59.16C136.72,-58.18 144.91,-57.16 152.94,-56.17"/>
<polygon fill="#63b8ff" stroke="#63b8ff" points="153.15,-59.67 162.64,-54.97 152.29,-52.73 153.15,-59.67"/>
</a>
</g>
</g>
<!-- Node3 -->
<g id="Node000003" class="node">
<title>Node3</title>
<g id="a_Node000003"><a xlink:href="namespace_o_c_a_1_1_c_a_f_e_v_d_b_1_1_traits.html#a4bb87734b0f297c2a6d2095820942c48" target="_top" xlink:title="Return the stored config&#45;service for convenience.">
<polygon fill="white" stroke="#666666" points="809.25,-58 734,-58 734,-38 809.25,-38 809.25,-58"/>
<text text-anchor="middle" x="771.62" y="-44.5" font-family="Helvetica,sans-Serif" font-size="10.00">configService</text>
</a>
</g>
</g>
<!-- Node2&#45;&gt;Node3 -->
<g id="edge2_Node000002_Node000003" class="edge">
<title>Node2&#45;&gt;Node3</title>
<g id="a_edge2_Node000002_Node000003"><a xlink:title=" ">
<path fill="none" stroke="#63b8ff" d="M698.34,-48C706.06,-48 714.21,-48 722.16,-48"/>
<polygon fill="#63b8ff" stroke="#63b8ff" points="722.05,-51.5 732.05,-48 722.05,-44.5 722.05,-51.5"/>
</a>
</g>
</g>
<!-- Node5 -->
<g id="Node000005" class="node">
<title>Node5</title>
<g id="a_Node000005"><a xlink:href="namespace_o_c_a_1_1_c_a_f_e_v_d_b_1_1_traits.html#a1fe279ec39675001095beafdf178b811" target="_top" xlink:title="Create the full&#45;path for the sub&#45;folder corresponding to the given config key.">
<polygon fill="white" stroke="#666666" points="436.5,-58 311.75,-58 311.75,-38 436.5,-38 436.5,-58"/>
<text text-anchor="middle" x="374.12" y="-44.5" font-family="Helvetica,sans-Serif" font-size="10.00">getSharedSubFolderPath</text>
</a>
</g>
</g>
<!-- Node4&#45;&gt;Node5 -->
<g id="edge4_Node000004_Node000005" class="edge">
<title>Node4&#45;&gt;Node5</title>
<g id="a_edge4_Node000004_Node000005"><a xlink:title=" ">
<path fill="none" stroke="#63b8ff" d="M276,-48C283.8,-48 291.93,-48 300.01,-48"/>
<polygon fill="#63b8ff" stroke="#63b8ff" points="299.86,-51.5 309.86,-48 299.86,-44.5 299.86,-51.5"/>
</a>
</g>
</g>
<!-- Node5&#45;&gt;Node2 -->
<g id="edge5_Node000005_Node000002" class="edge">
<title>Node5&#45;&gt;Node2</title>
<g id="a_edge5_Node000005_Node000002"><a xlink:title=" ">
<path fill="none" stroke="#63b8ff" d="M436.76,-48C486.93,-48 556.94,-48 604.24,-48"/>
<polygon fill="#63b8ff" stroke="#63b8ff" points="604.23,-51.5 614.23,-48 604.23,-44.5 604.23,-51.5"/>
</a>
</g>
</g>
<!-- Node6 -->
<g id="Node000006" class="node">
<title>Node6</title>
<g id="a_Node000006"><a xlink:href="namespace_o_c_a_1_1_c_a_f_e_v_d_b_1_1_traits.html#adac8fad662663420dc8d9b73e0134673" target="_top" xlink:title=" ">
<polygon fill="white" stroke="#666666" points="580,-20 472.5,-20 472.5,0 580,0 580,-20"/>
<text text-anchor="middle" x="526.25" y="-6.5" font-family="Helvetica,sans-Serif" font-size="10.00">getSharedFolderPath</text>
</a>
</g>
</g>
<!-- Node5&#45;&gt;Node6 -->
<g id="edge6_Node000005_Node000006" class="edge">
<title>Node5&#45;&gt;Node6</title>
<g id="a_edge6_Node000005_Node000006"><a xlink:title=" ">
<path fill="none" stroke="#63b8ff" d="M416.54,-37.52C434.02,-33.09 454.56,-27.89 473.06,-23.21"/>
<polygon fill="#63b8ff" stroke="#63b8ff" points="473.66,-26.67 482.5,-20.82 471.95,-19.88 473.66,-26.67"/>
</a>
</g>
</g>
<!-- Node6&#45;&gt;Node2 -->
<g id="edge7_Node000006_Node000002" class="edge">
<title>Node6&#45;&gt;Node2</title>
<g id="a_edge7_Node000006_Node000002"><a xlink:title=" ">
<path fill="none" stroke="#63b8ff" d="M562.77,-20.48C577.27,-24.76 594.22,-29.77 609.67,-34.33"/>
<polygon fill="#63b8ff" stroke="#63b8ff" points="608.56,-37.65 619.14,-37.12 610.54,-30.93 608.56,-37.65"/>
</a>
</g>
</g>
</g>
</svg>
