<?xml version="1.0" encoding="UTF-8" standalone="no"?>
<!DOCTYPE svg PUBLIC "-//W3C//DTD SVG 1.1//EN"
 "http://www.w3.org/Graphics/SVG/1.1/DTD/svg11.dtd">
<!-- Generated by graphviz version 9.0.0 (20230911.1827)
 -->
<!-- Title: offsetUnset Pages: 1 -->
<svg width="380pt" height="66pt"
 viewBox="0.00 0.00 379.50 66.00" xmlns="http://www.w3.org/2000/svg" xmlns:xlink="http://www.w3.org/1999/xlink">

<svg id="main" version="1.1" xmlns="http://www.w3.org/2000/svg" xmlns:xlink="http://www.w3.org/1999/xlink" xml:space="preserve" onload="init(evt)">
<style type="text/css"><![CDATA[
.node, .edge {opacity: 0.7;}
.node.selected, .edge.selected {opacity: 1;}
.edge:hover path { stroke: red; }
.edge:hover polygon { stroke: red; fill: red; }
]]></style>
<script type="application/ecmascript" xlink:href="svg.min.js"/>
<svg id="graph" class="graph">
<g id="graph0" class="graph" transform="scale(1 1) rotate(0) translate(4 62)">
<title>offsetUnset</title>
<!-- Node1 -->
<g id="Node000001" class="node">
<title>Node1</title>
<g id="a_Node000001"><a xlink:title="{}">
<polygon fill="#999999" stroke="#666666" points="67,-39 0,-39 0,-19 67,-19 67,-39"/>
<text text-anchor="middle" x="33.5" y="-25.5" font-family="Helvetica,sans-Serif" font-size="10.00">offsetUnset</text>
</a>
</g>
</g>
<!-- Node2 -->
<g id="Node000002" class="node">
<title>Node2</title>
<g id="a_Node000002"><a xlink:href="namespace_o_c_a_1_1_c_a_f_e_v_d_b_1_1_database_1_1_doctrine_1_1_o_r_m_1_1_traits.html#abd3a144f8df4dea56d1ac58da5bc762a" target="_top" xlink:title="{}">
<polygon fill="white" stroke="#666666" points="158.75,-39 103,-39 103,-19 158.75,-19 158.75,-39"/>
<text text-anchor="middle" x="130.88" y="-25.5" font-family="Helvetica,sans-Serif" font-size="10.00">offsetSet</text>
</a>
</g>
</g>
<!-- Node1&#45;&gt;Node2 -->
<g id="edge1_Node000001_Node000002" class="edge">
<title>Node1&#45;&gt;Node2</title>
<g id="a_edge1_Node000001_Node000002"><a xlink:title=" ">
<path fill="none" stroke="#63b8ff" d="M67.32,-29C75.07,-29 83.4,-29 91.37,-29"/>
<polygon fill="#63b8ff" stroke="#63b8ff" points="91.18,-32.5 101.18,-29 91.18,-25.5 91.18,-32.5"/>
</a>
</g>
</g>
<!-- Node3 -->
<g id="Node000003" class="node">
<title>Node3</title>
<g id="a_Node000003"><a xlink:href="namespace_o_c_a_1_1_c_a_f_e_v_d_b_1_1_database_1_1_doctrine_1_1_o_r_m_1_1_traits.html#aad6cdb28c78892f790755af76d01dc4e" target="_top" xlink:title=" ">
<polygon fill="white" stroke="#666666" points="269.25,-58 194.75,-58 194.75,-38 269.25,-38 269.25,-58"/>
<text text-anchor="middle" x="232" y="-44.5" font-family="Helvetica,sans-Serif" font-size="10.00">methodName</text>
</a>
</g>
</g>
<!-- Node2&#45;&gt;Node3 -->
<g id="edge2_Node000002_Node000003" class="edge">
<title>Node2&#45;&gt;Node3</title>
<g id="a_edge2_Node000002_Node000003"><a xlink:title=" ">
<path fill="none" stroke="#63b8ff" d="M159.22,-34.24C166.71,-35.68 175.05,-37.28 183.32,-38.86"/>
<polygon fill="#63b8ff" stroke="#63b8ff" points="182.49,-42.27 192.97,-40.71 183.81,-35.39 182.49,-42.27"/>
</a>
</g>
</g>
<!-- Node4 -->
<g id="Node000004" class="node">
<title>Node4</title>
<g id="a_Node000004"><a xlink:href="namespace_o_c_a_1_1_c_a_f_e_v_d_b_1_1_database_1_1_doctrine_1_1_o_r_m_1_1_traits.html#a2fa83c64b65bfcd6ae01aa378370f012" target="_top" xlink:title="{}">
<polygon fill="white" stroke="#666666" points="266.25,-20 197.75,-20 197.75,0 266.25,0 266.25,-20"/>
<text text-anchor="middle" x="232" y="-6.5" font-family="Helvetica,sans-Serif" font-size="10.00">offsetExists</text>
</a>
</g>
</g>
<!-- Node2&#45;&gt;Node4 -->
<g id="edge3_Node000002_Node000004" class="edge">
<title>Node2&#45;&gt;Node4</title>
<g id="a_edge3_Node000002_Node000004"><a xlink:title=" ">
<path fill="none" stroke="#63b8ff" d="M159.22,-23.76C167.62,-22.15 177.08,-20.34 186.32,-18.56"/>
<polygon fill="#63b8ff" stroke="#63b8ff" points="186.73,-22.05 195.89,-16.73 185.41,-15.17 186.73,-22.05"/>
</a>
</g>
</g>
<!-- Node5 -->
<g id="Node000005" class="node">
<title>Node5</title>
<g id="a_Node000005"><a xlink:href="namespace_o_c_a_1_1_c_a_f_e_v_d_b_1_1_database_1_1_doctrine_1_1_o_r_m_1_1_traits.html#a6a9f8143f3725e95dbf7f1ff70c78f94" target="_top" xlink:title="Use reflection inspection to export all of the private keys; automatically called on post&#45;load if the...">
<polygon fill="white" stroke="#666666" points="371.5,-20 305.25,-20 305.25,0 371.5,0 371.5,-20"/>
<text text-anchor="middle" x="338.38" y="-6.5" font-family="Helvetica,sans-Serif" font-size="10.00">arrayCTOR</text>
</a>
</g>
</g>
<!-- Node4&#45;&gt;Node5 -->
<g id="edge4_Node000004_Node000005" class="edge">
<title>Node4&#45;&gt;Node5</title>
<g id="a_edge4_Node000004_Node000005"><a xlink:title=" ">
<path fill="none" stroke="#63b8ff" d="M266.6,-10C275.14,-10 284.43,-10 293.4,-10"/>
<polygon fill="#63b8ff" stroke="#63b8ff" points="293.39,-13.5 303.39,-10 293.39,-6.5 293.39,-13.5"/>
</a>
</g>
</g>
</g>
</svg>
</svg>

<style type='text/css'>
<![CDATA[
[data-mouse-over-selected='false'] { opacity: 0.7; }
[data-mouse-over-selected='true']  { opacity: 1.0; }
]]>
</style>
<script type="application/ecmascript"><![CDATA[
document.addEventListener('DOMContentLoaded', (event) => {
  highlightEdges();
  highlightAdjacentNodes();
});
]]></script>
</svg>
