<?xml version="1.0" encoding="UTF-8" standalone="no"?>
<!DOCTYPE svg PUBLIC "-//W3C//DTD SVG 1.1//EN"
 "http://www.w3.org/Graphics/SVG/1.1/DTD/svg11.dtd">
<!-- Generated by graphviz version 8.0.3 (20230416.2022)
 -->
<!-- Title: dateTimeFormatter Pages: 1 -->
<svg width="230pt" height="64pt"
 viewBox="0.00 0.00 230.00 64.00" xmlns="http://www.w3.org/2000/svg" xmlns:xlink="http://www.w3.org/1999/xlink">
<g id="graph0" class="graph" transform="scale(1 1) rotate(0) translate(4 60)">
<title>dateTimeFormatter</title>
<!-- Node1 -->
<g id="node1" class="node">
<title>Node1</title>
<g id="a_node1"><a xlink:title=" ">
<polygon fill="#999999" stroke="#666666" points="222,-37 123,-37 123,-18 222,-18 222,-37"/>
<text text-anchor="middle" x="172.5" y="-25" font-family="Helvetica,sans-Serif" font-size="10.00">dateTimeFormatter</text>
</a>
</g>
</g>
<!-- Node2 -->
<g id="node2" class="node">
<title>Node2</title>
<g id="a_node2"><a xlink:href="namespace_o_c_a_1_1_c_a_f_e_v_d_b_1_1_traits.html#a010c9c0626aa3587f7062ffbcc9ff64e" target="_top" xlink:title="Work around NC annoyingly not accepting \DateTimeInterface.">
<polygon fill="white" stroke="#666666" points="76,-56 11,-56 11,-37 76,-37 76,-56"/>
<text text-anchor="middle" x="43.5" y="-44" font-family="Helvetica,sans-Serif" font-size="10.00">formatDate</text>
</a>
</g>
</g>
<!-- Node1&#45;&gt;Node2 -->
<g id="edge1" class="edge">
<title>Node1&#45;&gt;Node2</title>
<path fill="none" stroke="#63b8ff" d="M112.06,-36.39C99.77,-38.23 87.28,-40.1 76.43,-41.72"/>
<polygon fill="#63b8ff" stroke="#63b8ff" points="112.39,-39.73 121.76,-34.79 111.35,-32.81 112.39,-39.73"/>
</g>
<!-- Node3 -->
<g id="node3" class="node">
<title>Node3</title>
<g id="a_node3"><a xlink:href="namespace_o_c_a_1_1_c_a_f_e_v_d_b_1_1_traits.html#ad0e227937c98eb3733d82ea455977862" target="_top" xlink:title="Work around NC annoyingly not accepting \DateTimeInterface.">
<polygon fill="white" stroke="#666666" points="87,-19 0,-19 0,0 87,0 87,-19"/>
<text text-anchor="middle" x="43.5" y="-7" font-family="Helvetica,sans-Serif" font-size="10.00">formatDateTime</text>
</a>
</g>
</g>
<!-- Node1&#45;&gt;Node3 -->
<g id="edge2" class="edge">
<title>Node1&#45;&gt;Node3</title>
<path fill="none" stroke="#63b8ff" d="M112.15,-19.09C103.7,-17.89 95.15,-16.68 87.1,-15.54"/>
<polygon fill="#63b8ff" stroke="#63b8ff" points="111.37,-22.65 121.76,-20.59 112.35,-15.72 111.37,-22.65"/>
</g>
</g>
</svg>
