<?xml version="1.0" encoding="UTF-8" standalone="no"?>
<!DOCTYPE svg PUBLIC "-//W3C//DTD SVG 1.1//EN"
 "http://www.w3.org/Graphics/SVG/1.1/DTD/svg11.dtd">
<!-- Generated by graphviz version 9.0.0 (20230911.1827)
 -->
<!-- Title: logDebug Pages: 1 -->
<!--zoomable 252 -->

<svg id="main" version="1.1" xmlns="http://www.w3.org/2000/svg" xmlns:xlink="http://www.w3.org/1999/xlink" xml:space="preserve" onload="init(evt)">
<style type="text/css"><![CDATA[
.node, .edge {opacity: 0.7;}
.node.selected, .edge.selected {opacity: 1;}
.edge:hover path { stroke: red; }
.edge:hover polygon { stroke: red; fill: red; }
]]></style>

<defs>
  <circle id="rim" cx="0" cy="0" r="7"/>
  <circle id="rim2" cx="0" cy="0" r="3.5"/>
  <g id="zoomPlus">
    <use xlink:href="#rim" fill="#404040"><set attributeName="fill" to="#808080" begin="zoomplus.mouseover" end="zoomplus.mouseout"/></use>
    <path d="M-4,0h8M0,-4v8" fill="none" stroke="white" stroke-width="1.5" pointer-events="none"/>
  </g>
  <g id="zoomMin">
    <use xlink:href="#rim" fill="#404040"><set attributeName="fill" to="#808080" begin="zoomminus.mouseover" end="zoomminus.mouseout"/></use>
    <path d="M-4,0h8" fill="none" stroke="white" stroke-width="1.5" pointer-events="none"/>
  </g>
  <g id="arrowUp" transform="translate(30 24)">
    <use xlink:href="#rim"/>
    <path pointer-events="none" fill="none" stroke="white" stroke-width="1.5" d="M0,-3.0v7 M-2.5,-0.5L0,-3.0L2.5,-0.5"/>
  </g>
  <g id="arrowRight" transform="rotate(90) translate(36 -43)">
    <use xlink:href="#rim"/>
    <path pointer-events="none" fill="none" stroke="white" stroke-width="1.5" d="M0,-3.0v7 M-2.5,-0.5L0,-3.0L2.5,-0.5"/>
  </g>
  <g id="arrowDown" transform="rotate(180) translate(-30 -48)">
    <use xlink:href="#rim"/>
    <path pointer-events="none" fill="none" stroke="white" stroke-width="1.5" d="M0,-3.0v7 M-2.5,-0.5L0,-3.0L2.5,-0.5"/>
  </g>
  <g id="arrowLeft" transform="rotate(270) translate(-36 17)">
    <use xlink:href="#rim"/>
    <path pointer-events="none" fill="none" stroke="white" stroke-width="1.5" d="M0,-3.0v7 M-2.5,-0.5L0,-3.0L2.5,-0.5"/>
  </g>
  <g id="resetDef">
    <use xlink:href="#rim2" fill="#404040"><set attributeName="fill" to="#808080" begin="reset.mouseover" end="reset.mouseout"/></use>
  </g>
</defs>
<script type="application/ecmascript">
var viewWidth = 795;
var viewHeight = 252;
var sectionId = 'dynsection-31';
</script>
<script type="application/ecmascript" xlink:href="svg.min.js"/>
<svg id="graph" class="graph">
<g id="viewport">
<title>logDebug</title>
<!-- Node1 -->
<g id="Node000001" class="node">
<title>Node1</title>
<g id="a_Node000001"><a xlink:title="Log a debug message.">
<polygon fill="#999999" stroke="#666666" points="787.25,-144 730,-144 730,-124 787.25,-124 787.25,-144"/>
<text text-anchor="middle" x="758.62" y="-130.5" font-family="Helvetica,sans-Serif" font-size="10.00">logDebug</text>
</a>
</g>
</g>
<!-- Node2 -->
<g id="Node000002" class="node">
<title>Node2</title>
<g id="a_Node000002"><a xlink:href="class_o_c_a_1_1_c_a_f_e_v_d_b_1_1_toolkit_1_1_service_1_1_group_folders_service.html#a13bfe0a165b8f3fc32dd8e598709e465" target="_top" xlink:title=" ">
<polygon fill="white" stroke="#666666" points="694,-244 547.5,-244 547.5,-200 694,-200 694,-244"/>
<text text-anchor="start" x="555.5" y="-230.5" font-family="Helvetica,sans-Serif" font-size="10.00">OCA\CAFEVDB\Toolkit</text>
<text text-anchor="start" x="555.5" y="-218.5" font-family="Helvetica,sans-Serif" font-size="10.00">\Service\GroupFoldersService</text>
<text text-anchor="middle" x="620.75" y="-206.5" font-family="Helvetica,sans-Serif" font-size="10.00">\changeFolderManager</text>
</a>
</g>
</g>
<!-- Node1&#45;&gt;Node2 -->
<g id="edge1_Node000001_Node000002" class="edge">
<title>Node1&#45;&gt;Node2</title>
<g id="a_edge1_Node000001_Node000002"><a xlink:title=" ">
<path fill="none" stroke="#63b8ff" d="M738.07,-151.91C725.91,-162.54 709.66,-175.88 694,-186 686.58,-190.79 678.44,-195.41 670.38,-199.64"/>
<polygon fill="#63b8ff" stroke="#63b8ff" points="740.23,-154.67 745.36,-145.41 735.57,-149.45 740.23,-154.67"/>
</a>
</g>
</g>
<!-- Node3 -->
<g id="Node000003" class="node">
<title>Node3</title>
<g id="a_Node000003"><a xlink:href="class_o_c_a_1_1_c_a_f_e_v_d_b_1_1_toolkit_1_1_service_1_1_group_folders_service.html#acb65d3f859f30837e4b9f7ea14b88b9c" target="_top" xlink:title="Fetch and cache all shared folders from the groupfolders app.">
<polygon fill="white" stroke="#666666" points="694,-106 547.5,-106 547.5,-62 694,-62 694,-106"/>
<text text-anchor="start" x="555.5" y="-92.5" font-family="Helvetica,sans-Serif" font-size="10.00">OCA\CAFEVDB\Toolkit</text>
<text text-anchor="start" x="555.5" y="-80.5" font-family="Helvetica,sans-Serif" font-size="10.00">\Service\GroupFoldersService</text>
<text text-anchor="middle" x="620.75" y="-68.5" font-family="Helvetica,sans-Serif" font-size="10.00">\fetchFolders</text>
</a>
</g>
</g>
<!-- Node1&#45;&gt;Node3 -->
<g id="edge2_Node000001_Node000003" class="edge">
<title>Node1&#45;&gt;Node3</title>
<g id="a_edge2_Node000001_Node000003"><a xlink:title=" ">
<path fill="none" stroke="#63b8ff" d="M719.33,-119.91C707.92,-115.71 695.11,-110.99 682.62,-106.4"/>
<polygon fill="#63b8ff" stroke="#63b8ff" points="717.79,-123.07 728.38,-123.24 720.2,-116.5 717.79,-123.07"/>
</a>
</g>
</g>
<!-- Node5 -->
<g id="Node000005" class="node">
<title>Node5</title>
<g id="a_Node000005"><a xlink:href="class_o_c_a_1_1_c_a_f_e_v_d_b_1_1_toolkit_1_1_service_1_1_group_folders_service.html#a4d4c99de2d9c451fa1e4f4cb2123fb04" target="_top" xlink:title="Obtain the shared folder data for the given mount&#45;point.">
<polygon fill="white" stroke="#666666" points="329,-156 182.5,-156 182.5,-112 329,-112 329,-156"/>
<text text-anchor="start" x="190.5" y="-142.5" font-family="Helvetica,sans-Serif" font-size="10.00">OCA\CAFEVDB\Toolkit</text>
<text text-anchor="start" x="190.5" y="-130.5" font-family="Helvetica,sans-Serif" font-size="10.00">\Service\GroupFoldersService</text>
<text text-anchor="middle" x="255.75" y="-118.5" font-family="Helvetica,sans-Serif" font-size="10.00">\getFolder</text>
</a>
</g>
</g>
<!-- Node1&#45;&gt;Node5 -->
<g id="edge8_Node000001_Node000005" class="edge">
<title>Node1&#45;&gt;Node5</title>
<g id="a_edge8_Node000001_Node000005"><a xlink:title=" ">
<path fill="none" stroke="#63b8ff" d="M718.33,-134C634.49,-134 436.95,-134 329.47,-134"/>
<polygon fill="#63b8ff" stroke="#63b8ff" points="718.11,-137.5 728.11,-134 718.11,-130.5 718.11,-137.5"/>
</a>
</g>
</g>
<!-- Node7 -->
<g id="Node000007" class="node">
<title>Node7</title>
<g id="a_Node000007"><a xlink:href="class_o_c_a_1_1_c_a_f_e_v_d_b_1_1_toolkit_1_1_service_1_1_group_folders_service.html#ab053279bea70dd2be3ff1676354fd041" target="_top" xlink:title="Return all shared folders matching the given regexp.">
<polygon fill="white" stroke="#666666" points="511.5,-44 365,-44 365,0 511.5,0 511.5,-44"/>
<text text-anchor="start" x="373" y="-30.5" font-family="Helvetica,sans-Serif" font-size="10.00">OCA\CAFEVDB\Toolkit</text>
<text text-anchor="start" x="373" y="-18.5" font-family="Helvetica,sans-Serif" font-size="10.00">\Service\GroupFoldersService</text>
<text text-anchor="middle" x="438.25" y="-6.5" font-family="Helvetica,sans-Serif" font-size="10.00">\searchFolders</text>
</a>
</g>
</g>
<!-- Node1&#45;&gt;Node7 -->
<g id="edge11_Node000001_Node000007" class="edge">
<title>Node1&#45;&gt;Node7</title>
<g id="a_edge11_Node000001_Node000007"><a xlink:title=" ">
<path fill="none" stroke="#63b8ff" d="M747.61,-113.57C737.08,-94.47 718.62,-66.87 694,-53 638.49,-21.73 565.51,-15.72 511.89,-16.51"/>
<polygon fill="#63b8ff" stroke="#63b8ff" points="744.45,-115.08 752.18,-122.33 750.66,-111.84 744.45,-115.08"/>
</a>
</g>
</g>
<!-- Node9 -->
<g id="Node000009" class="node">
<title>Node9</title>
<g id="a_Node000009"><a xlink:href="class_o_c_a_1_1_c_a_f_e_v_d_b_1_1_toolkit_1_1_service_1_1_group_folders_service.html#a2c5736677056d73dbd8d456de4babd92" target="_top" xlink:title="Get the shared folder by its id.">
<polygon fill="white" stroke="#666666" points="511.5,-206 365,-206 365,-162 511.5,-162 511.5,-206"/>
<text text-anchor="start" x="373" y="-192.5" font-family="Helvetica,sans-Serif" font-size="10.00">OCA\CAFEVDB\Toolkit</text>
<text text-anchor="start" x="373" y="-180.5" font-family="Helvetica,sans-Serif" font-size="10.00">\Service\GroupFoldersService</text>
<text text-anchor="middle" x="438.25" y="-168.5" font-family="Helvetica,sans-Serif" font-size="10.00">\getFolderById</text>
</a>
</g>
</g>
<!-- Node1&#45;&gt;Node9 -->
<g id="edge9_Node000001_Node000009" class="edge">
<title>Node1&#45;&gt;Node9</title>
<g id="a_edge9_Node000001_Node000009"><a xlink:title=" ">
<path fill="none" stroke="#63b8ff" d="M718.47,-143.11C710.4,-144.84 701.94,-146.57 694,-148 632.9,-159.02 563.05,-168.69 511.96,-175.22"/>
<polygon fill="#63b8ff" stroke="#63b8ff" points="719.04,-146.57 728.05,-140.99 717.53,-139.73 719.04,-146.57"/>
</a>
</g>
</g>
<!-- Node4 -->
<g id="Node000004" class="node">
<title>Node4</title>
<g id="a_Node000004"><a xlink:href="class_o_c_a_1_1_c_a_f_e_v_d_b_1_1_toolkit_1_1_service_1_1_group_folders_service.html#a7e14d6479c6ecacdf6ec831270d1b99b" target="_top" xlink:title=" ">
<polygon fill="white" stroke="#666666" points="511.5,-106 365,-106 365,-62 511.5,-62 511.5,-106"/>
<text text-anchor="start" x="373" y="-92.5" font-family="Helvetica,sans-Serif" font-size="10.00">OCA\CAFEVDB\Toolkit</text>
<text text-anchor="start" x="373" y="-80.5" font-family="Helvetica,sans-Serif" font-size="10.00">\Service\GroupFoldersService</text>
<text text-anchor="middle" x="438.25" y="-68.5" font-family="Helvetica,sans-Serif" font-size="10.00">\ensureFolders</text>
</a>
</g>
</g>
<!-- Node3&#45;&gt;Node4 -->
<g id="edge3_Node000003_Node000004" class="edge">
<title>Node3&#45;&gt;Node4</title>
<g id="a_edge3_Node000003_Node000004"><a xlink:title=" ">
<path fill="none" stroke="#63b8ff" d="M535.81,-84C527.77,-84 519.66,-84 511.74,-84"/>
<polygon fill="#63b8ff" stroke="#63b8ff" points="535.6,-87.5 545.6,-84 535.6,-80.5 535.6,-87.5"/>
</a>
</g>
</g>
<!-- Node3&#45;&gt;Node7 -->
<g id="edge6_Node000003_Node000007" class="edge">
<title>Node3&#45;&gt;Node7</title>
<g id="a_edge6_Node000003_Node000007"><a xlink:title=" ">
<path fill="none" stroke="#63b8ff" d="M543.6,-57.84C530.68,-53.4 517.36,-48.83 504.75,-44.5"/>
<polygon fill="#63b8ff" stroke="#63b8ff" points="542.3,-61.1 552.9,-61.04 544.58,-54.48 542.3,-61.1"/>
</a>
</g>
</g>
<!-- Node4&#45;&gt;Node5 -->
<g id="edge4_Node000004_Node000005" class="edge">
<title>Node4&#45;&gt;Node5</title>
<g id="a_edge4_Node000004_Node000005"><a xlink:title=" ">
<path fill="none" stroke="#63b8ff" d="M353.59,-107.17C345.46,-109.43 337.25,-111.7 329.24,-113.92"/>
<polygon fill="#63b8ff" stroke="#63b8ff" points="354.45,-110.57 363.16,-104.52 352.58,-103.82 354.45,-110.57"/>
</a>
</g>
</g>
<!-- Node6 -->
<g id="Node000006" class="node">
<title>Node6</title>
<g id="a_Node000006"><a xlink:href="class_o_c_a_1_1_c_a_f_e_v_d_b_1_1_toolkit_1_1_service_1_1_group_folders_service.html#ab6b826e4a8edcd655850277fbb5e9e74" target="_top" xlink:title="Create a shared folder and set appropriate permissions.">
<polygon fill="white" stroke="#666666" points="146.5,-181 0,-181 0,-137 146.5,-137 146.5,-181"/>
<text text-anchor="start" x="8" y="-167.5" font-family="Helvetica,sans-Serif" font-size="10.00">OCA\CAFEVDB\Toolkit</text>
<text text-anchor="start" x="8" y="-155.5" font-family="Helvetica,sans-Serif" font-size="10.00">\Service\GroupFoldersService</text>
<text text-anchor="middle" x="73.25" y="-143.5" font-family="Helvetica,sans-Serif" font-size="10.00">\createFolder</text>
</a>
</g>
</g>
<!-- Node5&#45;&gt;Node6 -->
<g id="edge5_Node000005_Node000006" class="edge">
<title>Node5&#45;&gt;Node6</title>
<g id="a_edge5_Node000005_Node000006"><a xlink:title=" ">
<path fill="none" stroke="#63b8ff" d="M170.81,-145.63C162.77,-146.74 154.66,-147.86 146.74,-148.96"/>
<polygon fill="#63b8ff" stroke="#63b8ff" points="171.19,-149.11 180.61,-144.27 170.23,-142.17 171.19,-149.11"/>
</a>
</g>
</g>
<!-- Node8 -->
<g id="Node000008" class="node">
<title>Node8</title>
<g id="a_Node000008"><a xlink:href="class_o_c_a_1_1_c_a_f_e_v_d_b_1_1_toolkit_1_1_service_1_1_group_folders_service.html#ad4fb86c5bb03d98824c51cfe67154a56" target="_top" xlink:title=" ">
<polygon fill="white" stroke="#666666" points="329,-44 182.5,-44 182.5,0 329,0 329,-44"/>
<text text-anchor="start" x="190.5" y="-30.5" font-family="Helvetica,sans-Serif" font-size="10.00">OCA\CAFEVDB\Toolkit</text>
<text text-anchor="start" x="190.5" y="-18.5" font-family="Helvetica,sans-Serif" font-size="10.00">\Service\GroupFoldersService</text>
<text text-anchor="middle" x="255.75" y="-6.5" font-family="Helvetica,sans-Serif" font-size="10.00">\deleteFolders</text>
</a>
</g>
</g>
<!-- Node7&#45;&gt;Node8 -->
<g id="edge7_Node000007_Node000008" class="edge">
<title>Node7&#45;&gt;Node8</title>
<g id="a_edge7_Node000007_Node000008"><a xlink:title=" ">
<path fill="none" stroke="#63b8ff" d="M353.31,-22C345.27,-22 337.16,-22 329.24,-22"/>
<polygon fill="#63b8ff" stroke="#63b8ff" points="353.1,-25.5 363.1,-22 353.1,-18.5 353.1,-25.5"/>
</a>
</g>
</g>
<!-- Node9&#45;&gt;Node6 -->
<g id="edge10_Node000009_Node000006" class="edge">
<title>Node9&#45;&gt;Node6</title>
<g id="a_edge10_Node000009_Node000006"><a xlink:title=" ">
<path fill="none" stroke="#63b8ff" d="M353.26,-178.22C290.74,-173.91 206.28,-168.09 146.71,-163.99"/>
<polygon fill="#63b8ff" stroke="#63b8ff" points="352.94,-181.7 363.15,-178.9 353.42,-174.72 352.94,-181.7"/>
</a>
</g>
</g>
</g>
</svg>

<g id="navigator" transform="translate(0 0)" fill="#404254">
  <rect fill="#f2f5e9" fill-opacity="0.5" stroke="#606060" stroke-width=".5" x="0" y="0" width="60" height="60"/>
  <use id="zoomplus" xlink:href="#zoomPlus" x="17" y="9" onmousedown="handleZoom(evt,'in')"/>
  <use id="zoomminus" xlink:href="#zoomMin" x="42" y="9" onmousedown="handleZoom(evt,'out')"/>
  <use id="reset" xlink:href="#resetDef" x="30" y="36" onmousedown="handleReset()"/>
   <use id="arrowup" xlink:href="#arrowUp" x="0" y="0" onmousedown="handlePan(0,-1)"/>
  <use id="arrowright" xlink:href="#arrowRight" x="0" y="0" onmousedown="handlePan(1,0)"/>
  <use id="arrowdown" xlink:href="#arrowDown" x="0" y="0" onmousedown="handlePan(0,1)"/>
  <use id="arrowleft" xlink:href="#arrowLeft" x="0" y="0" onmousedown="handlePan(-1,0)"/>
</g>
<svg viewBox="0 0 15 15" width="100%" height="30px" preserveAspectRatio="xMaxYMin meet">
 <g id="arrow_out" transform="scale(0.3 0.3)">
  <a xlink:href="namespace_o_c_a_1_1_c_a_f_e_v_d_b_1_1_toolkit_1_1_traits_a4d87f4e47d18fb535d235414c357f821_icgraph_org.svg" target="_base">
   <rect id="button" ry="5" rx="5" y="6" x="6" height="38" width="38"
        fill="#f2f5e9" fill-opacity="0.5" stroke="#606060" stroke-width="1.0"/>
   <path id="arrow"
     d="M 11.500037,31.436501 C 11.940474,20.09759 22.043105,11.32322 32.158766,21.979434 L 37.068811,17.246167 C 37.068811,17.246167 37.088388,32 37.088388,32 L 22.160133,31.978069 C 22.160133,31.978069 26.997745,27.140456 26.997745,27.140456 C 18.528582,18.264221 13.291696,25.230495 11.500037,31.436501 z"
     style="fill:#404040;"/>
  </a>
 </g>
</svg>

<style type='text/css'>
<![CDATA[
[data-mouse-over-selected='false'] { opacity: 0.7; }
[data-mouse-over-selected='true']  { opacity: 1.0; }
]]>
</style>
<script type="application/ecmascript"><![CDATA[
document.addEventListener('DOMContentLoaded', (event) => {
  highlightEdges();
  highlightAdjacentNodes();
});
]]></script>
</svg>
