<?xml version="1.0" encoding="UTF-8" standalone="no"?>
<!DOCTYPE svg PUBLIC "-//W3C//DTD SVG 1.1//EN"
 "http://www.w3.org/Graphics/SVG/1.1/DTD/svg11.dtd">
<!-- Generated by graphviz version 9.0.0 (20230911.1827)
 -->
<!-- Title: appVersion Pages: 1 -->
<svg width="359pt" height="66pt"
 viewBox="0.00 0.00 358.55 66.00" xmlns="http://www.w3.org/2000/svg" xmlns:xlink="http://www.w3.org/1999/xlink">

<svg id="main" version="1.1" xmlns="http://www.w3.org/2000/svg" xmlns:xlink="http://www.w3.org/1999/xlink" xml:space="preserve" onload="init(evt)">
<style type="text/css"><![CDATA[
.node, .edge {opacity: 0.7;}
.node.selected, .edge.selected {opacity: 1;}
.edge:hover path { stroke: red; }
.edge:hover polygon { stroke: red; fill: red; }
]]></style>
<script type="application/ecmascript" xlink:href="svg.min.js"/>
<svg id="graph" class="graph">
<g id="graph0" class="graph" transform="scale(1 1) rotate(0) translate(4 62)">
<title>appVersion</title>
<!-- Node1 -->
<g id="Node000001" class="node">
<title>Node1</title>
<g id="a_Node000001"><a xlink:title=" ">
<polygon fill="#999999" stroke="#666666" points="64.75,-39 0,-39 0,-19 64.75,-19 64.75,-39"/>
<text text-anchor="middle" x="32.38" y="-25.5" font-family="Helvetica,sans-Serif" font-size="10.00">appVersion</text>
</a>
</g>
</g>
<!-- Node2 -->
<g id="Node000002" class="node">
<title>Node2</title>
<g id="a_Node000002"><a xlink:href="namespace_o_c_a_1_1_c_a_f_e_v_d_b_1_1_traits.html#a10f42c7875a6151887519547ff045907" target="_top" xlink:title=" ">
<polygon fill="white" stroke="#666666" points="231.43,-58 173.43,-58 173.43,-38 231.43,-38 231.43,-58"/>
<text text-anchor="middle" x="202.43" y="-44.5" font-family="Helvetica,sans-Serif" font-size="10.00">appName</text>
</a>
</g>
</g>
<!-- Node1&#45;&gt;Node2 -->
<g id="edge1_Node000001_Node000002" class="edge">
<title>Node1&#45;&gt;Node2</title>
<g id="a_edge1_Node000001_Node000002"><a xlink:title=" ">
<path fill="none" stroke="#63b8ff" d="M64.98,-32.57C92.43,-35.68 132.3,-40.18 161.86,-43.53"/>
<polygon fill="#63b8ff" stroke="#63b8ff" points="161.2,-46.97 171.53,-44.62 161.99,-40.02 161.2,-46.97"/>
</a>
</g>
</g>
<!-- Node4 -->
<g id="Node000004" class="node">
<title>Node4</title>
<g id="a_Node000004"><a xlink:href="namespace_o_c_a_1_1_c_a_f_e_v_d_b_1_1_traits.html#a0f8f77ebc7e2ed62151c9213aebed956" target="_top" xlink:title="Dependency injection of $className.">
<polygon fill="white" stroke="#666666" points="129.55,-20 100.75,-20 100.75,0 129.55,0 129.55,-20"/>
<text text-anchor="middle" x="115.15" y="-6.5" font-family="Helvetica,sans-Serif" font-size="10.00">di</text>
</a>
</g>
</g>
<!-- Node1&#45;&gt;Node4 -->
<g id="edge3_Node000001_Node000004" class="edge">
<title>Node1&#45;&gt;Node4</title>
<g id="a_edge3_Node000001_Node000004"><a xlink:title=" ">
<path fill="none" stroke="#63b8ff" d="M64.84,-21.6C73.07,-19.66 81.83,-17.6 89.64,-15.76"/>
<polygon fill="#63b8ff" stroke="#63b8ff" points="90.18,-19.23 99.12,-13.54 88.58,-12.42 90.18,-19.23"/>
</a>
</g>
</g>
<!-- Node3 -->
<g id="Node000003" class="node">
<title>Node3</title>
<g id="a_Node000003"><a xlink:href="namespace_o_c_a_1_1_c_a_f_e_v_d_b_1_1_traits.html#a4bb87734b0f297c2a6d2095820942c48" target="_top" xlink:title="Return the stored config&#45;service for convenience.">
<polygon fill="white" stroke="#666666" points="350.55,-39 275.3,-39 275.3,-19 350.55,-19 350.55,-39"/>
<text text-anchor="middle" x="312.93" y="-25.5" font-family="Helvetica,sans-Serif" font-size="10.00">configService</text>
</a>
</g>
</g>
<!-- Node2&#45;&gt;Node3 -->
<g id="edge2_Node000002_Node000003" class="edge">
<title>Node2&#45;&gt;Node3</title>
<g id="a_edge2_Node000002_Node000003"><a xlink:title=" ">
<path fill="none" stroke="#63b8ff" d="M231.65,-43.06C241.44,-41.34 252.7,-39.37 263.64,-37.46"/>
<polygon fill="#63b8ff" stroke="#63b8ff" points="264.11,-40.93 273.36,-35.75 262.9,-34.03 264.11,-40.93"/>
</a>
</g>
</g>
<!-- Node5 -->
<g id="Node000005" class="node">
<title>Node5</title>
<g id="a_Node000005"><a xlink:href="namespace_o_c_a_1_1_c_a_f_e_v_d_b_1_1_traits.html#a3a2983317152273aaf635e4bd61f0c7a" target="_top" xlink:title=" ">
<polygon fill="white" stroke="#666666" points="239.3,-20 165.55,-20 165.55,0 239.3,0 239.3,-20"/>
<text text-anchor="middle" x="202.43" y="-6.5" font-family="Helvetica,sans-Serif" font-size="10.00">appContainer</text>
</a>
</g>
</g>
<!-- Node4&#45;&gt;Node5 -->
<g id="edge4_Node000004_Node000005" class="edge">
<title>Node4&#45;&gt;Node5</title>
<g id="a_edge4_Node000004_Node000005"><a xlink:title=" ">
<path fill="none" stroke="#63b8ff" d="M129.85,-10C136.6,-10 145.19,-10 154.05,-10"/>
<polygon fill="#63b8ff" stroke="#63b8ff" points="153.8,-13.5 163.8,-10 153.8,-6.5 153.8,-13.5"/>
</a>
</g>
</g>
<!-- Node5&#45;&gt;Node3 -->
<g id="edge5_Node000005_Node000003" class="edge">
<title>Node5&#45;&gt;Node3</title>
<g id="a_edge5_Node000005_Node000003"><a xlink:title=" ">
<path fill="none" stroke="#63b8ff" d="M239.55,-16.33C247.26,-17.68 255.52,-19.12 263.61,-20.54"/>
<polygon fill="#63b8ff" stroke="#63b8ff" points="262.9,-23.97 273.35,-22.25 264.1,-17.07 262.9,-23.97"/>
</a>
</g>
</g>
</g>
</svg>
</svg>

<style type='text/css'>
<![CDATA[
[data-mouse-over-selected='false'] { opacity: 0.7; }
[data-mouse-over-selected='true']  { opacity: 1.0; }
]]>
</style>
<script type="application/ecmascript"><![CDATA[
document.addEventListener('DOMContentLoaded', (event) => {
  highlightEdges();
  highlightAdjacentNodes();
});
]]></script>
</svg>
