<?xml version="1.0" encoding="UTF-8" standalone="no"?>
<!DOCTYPE svg PUBLIC "-//W3C//DTD SVG 1.1//EN"
 "http://www.w3.org/Graphics/SVG/1.1/DTD/svg11.dtd">
<!-- Generated by graphviz version 7.1.0 (20230121.1956)
 -->
<!-- Title: criteriaWhere Pages: 1 -->
<svg width="423pt" height="86pt"
 viewBox="0.00 0.00 423.00 86.00" xmlns="http://www.w3.org/2000/svg" xmlns:xlink="http://www.w3.org/1999/xlink">
<g id="graph0" class="graph" transform="scale(1 1) rotate(0) translate(4 82)">
<title>criteriaWhere</title>
<!-- Node1 -->
<g id="node1" class="node">
<title>Node1</title>
<g id="a_node1"><a xlink:title=" ">
<polygon fill="#999999" stroke="#666666" points="74,-48.5 0,-48.5 0,-29.5 74,-29.5 74,-48.5"/>
<text text-anchor="middle" x="37" y="-36.5" font-family="Helvetica,sans-Serif" font-size="10.00">criteriaWhere</text>
</a>
</g>
</g>
<!-- Node2 -->
<g id="node2" class="node">
<title>Node2</title>
<g id="a_node2"><a xlink:href="class_o_c_a_1_1_c_a_f_e_v_d_b_1_1_database_1_1_doctrine_1_1_util.html#aafe8e2082bd107d572aa76086a06b24e" target="_top" xlink:title="Convenience function.">
<polygon fill="white" stroke="#666666" points="245,-54 110,-54 110,-24 245,-24 245,-54"/>
<text text-anchor="start" x="118" y="-42" font-family="Helvetica,sans-Serif" font-size="10.00">OCA\CAFEVDB\Database</text>
<text text-anchor="middle" x="177.5" y="-31" font-family="Helvetica,sans-Serif" font-size="10.00">\Doctrine\Util\criteriaWhere</text>
</a>
</g>
</g>
<!-- Node1&#45;&gt;Node2 -->
<g id="edge1" class="edge">
<title>Node1&#45;&gt;Node2</title>
<path fill="none" stroke="#63b8ff" d="M74.39,-39C81.83,-39 89.93,-39 98.2,-39"/>
<polygon fill="#63b8ff" stroke="#63b8ff" points="98.03,-42.5 108.03,-39 98.03,-35.5 98.03,-42.5"/>
</g>
<!-- Node3 -->
<g id="node3" class="node">
<title>Node3</title>
<g id="a_node3"><a xlink:href="class_o_c_a_1_1_c_a_f_e_v_d_b_1_1_database_1_1_doctrine_1_1_util.html#af2691c40495d429502e48d4824f0b080" target="_top" xlink:title="Convenience function to generate Collections\Criteria.">
<polygon fill="white" stroke="#666666" points="415,-78 281,-78 281,-48 415,-48 415,-78"/>
<text text-anchor="start" x="289" y="-66" font-family="Helvetica,sans-Serif" font-size="10.00">OCA\CAFEVDB\Database</text>
<text text-anchor="middle" x="348" y="-55" font-family="Helvetica,sans-Serif" font-size="10.00">\Doctrine\Util\criteria</text>
</a>
</g>
</g>
<!-- Node2&#45;&gt;Node3 -->
<g id="edge2" class="edge">
<title>Node2&#45;&gt;Node3</title>
<path fill="none" stroke="#63b8ff" d="M245.1,-48.49C253.04,-49.62 261.2,-50.78 269.27,-51.93"/>
<polygon fill="#63b8ff" stroke="#63b8ff" points="268.72,-55.39 279.11,-53.33 269.71,-48.46 268.72,-55.39"/>
</g>
<!-- Node4 -->
<g id="node4" class="node">
<title>Node4</title>
<g id="a_node4"><a xlink:href="class_o_c_a_1_1_c_a_f_e_v_d_b_1_1_database_1_1_doctrine_1_1_util.html#ae987ce50626dd3e4a9b255037433c776" target="_top" xlink:title="Convenience function to generate CollectionsxpressionBuilder.">
<polygon fill="white" stroke="#666666" points="415,-30 281,-30 281,0 415,0 415,-30"/>
<text text-anchor="start" x="289" y="-18" font-family="Helvetica,sans-Serif" font-size="10.00">OCA\CAFEVDB\Database</text>
<text text-anchor="middle" x="348" y="-7" font-family="Helvetica,sans-Serif" font-size="10.00">\Doctrine\Util\criteriaExpr</text>
</a>
</g>
</g>
<!-- Node2&#45;&gt;Node4 -->
<g id="edge3" class="edge">
<title>Node2&#45;&gt;Node4</title>
<path fill="none" stroke="#63b8ff" d="M245.1,-29.51C253.04,-28.38 261.2,-27.22 269.27,-26.07"/>
<polygon fill="#63b8ff" stroke="#63b8ff" points="269.71,-29.54 279.11,-24.67 268.72,-22.61 269.71,-29.54"/>
</g>
</g>
</svg>
