<?xml version="1.0" encoding="UTF-8" standalone="no"?>
<!DOCTYPE svg PUBLIC "-//W3C//DTD SVG 1.1//EN"
 "http://www.w3.org/Graphics/SVG/1.1/DTD/svg11.dtd">
<!-- Generated by graphviz version 8.0.3 (20230416.2022)
 -->
<!-- Title: getPostBoxFolderPath Pages: 1 -->
<svg width="659pt" height="46pt"
 viewBox="0.00 0.00 659.00 46.00" xmlns="http://www.w3.org/2000/svg" xmlns:xlink="http://www.w3.org/1999/xlink">
<g id="graph0" class="graph" transform="scale(1 1) rotate(0) translate(4 42)">
<title>getPostBoxFolderPath</title>
<!-- Node1 -->
<g id="node1" class="node">
<title>Node1</title>
<g id="a_node1"><a xlink:title=" ">
<polygon fill="#999999" stroke="#666666" points="115,-38 0,-38 0,-19 115,-19 115,-38"/>
<text text-anchor="middle" x="57.5" y="-26" font-family="Helvetica,sans-Serif" font-size="10.00">getPostBoxFolderPath</text>
</a>
</g>
</g>
<!-- Node2 -->
<g id="node2" class="node">
<title>Node2</title>
<g id="a_node2"><a xlink:href="namespace_o_c_a_1_1_c_a_f_e_v_d_b_1_1_traits.html#a1fe279ec39675001095beafdf178b811" target="_top" xlink:title="Create the full&#45;path for the sub&#45;folder corresponding to the given config key.">
<polygon fill="white" stroke="#666666" points="276,-38 151,-38 151,-19 276,-19 276,-38"/>
<text text-anchor="middle" x="213.5" y="-26" font-family="Helvetica,sans-Serif" font-size="10.00">getSharedSubFolderPath</text>
</a>
</g>
</g>
<!-- Node1&#45;&gt;Node2 -->
<g id="edge1" class="edge">
<title>Node1&#45;&gt;Node2</title>
<path fill="none" stroke="#63b8ff" d="M115.41,-28.5C123.39,-28.5 131.68,-28.5 139.91,-28.5"/>
<polygon fill="#63b8ff" stroke="#63b8ff" points="139.65,-32 149.65,-28.5 139.65,-25 139.65,-32"/>
</g>
<!-- Node3 -->
<g id="node3" class="node">
<title>Node3</title>
<g id="a_node3"><a xlink:href="namespace_o_c_a_1_1_c_a_f_e_v_d_b_1_1_traits.html#aa57ee6dad7c7f33cff6983ad79080946" target="_top" xlink:title="Get a possibly encrypted config value.">
<polygon fill="white" stroke="#666666" points="539,-38 456,-38 456,-19 539,-19 539,-38"/>
<text text-anchor="middle" x="497.5" y="-26" font-family="Helvetica,sans-Serif" font-size="10.00">getConfigValue</text>
</a>
</g>
</g>
<!-- Node2&#45;&gt;Node3 -->
<g id="edge2" class="edge">
<title>Node2&#45;&gt;Node3</title>
<path fill="none" stroke="#63b8ff" d="M276.39,-28.5C326.82,-28.5 397.22,-28.5 444.71,-28.5"/>
<polygon fill="#63b8ff" stroke="#63b8ff" points="444.66,-32 454.66,-28.5 444.66,-25 444.66,-32"/>
</g>
<!-- Node5 -->
<g id="node5" class="node">
<title>Node5</title>
<g id="a_node5"><a xlink:href="namespace_o_c_a_1_1_c_a_f_e_v_d_b_1_1_traits.html#adac8fad662663420dc8d9b73e0134673" target="_top" xlink:title=" ">
<polygon fill="white" stroke="#666666" points="420,-19 312,-19 312,0 420,0 420,-19"/>
<text text-anchor="middle" x="366" y="-7" font-family="Helvetica,sans-Serif" font-size="10.00">getSharedFolderPath</text>
</a>
</g>
</g>
<!-- Node2&#45;&gt;Node5 -->
<g id="edge4" class="edge">
<title>Node2&#45;&gt;Node5</title>
<path fill="none" stroke="#63b8ff" d="M276.15,-20.72C284.39,-19.68 292.85,-18.61 301.13,-17.56"/>
<polygon fill="#63b8ff" stroke="#63b8ff" points="301.39,-20.93 310.87,-16.21 300.51,-13.99 301.39,-20.93"/>
</g>
<!-- Node4 -->
<g id="node4" class="node">
<title>Node4</title>
<g id="a_node4"><a xlink:href="namespace_o_c_a_1_1_c_a_f_e_v_d_b_1_1_traits.html#a4bb87734b0f297c2a6d2095820942c48" target="_top" xlink:title="Return the stored config&#45;service for convenience.">
<polygon fill="white" stroke="#666666" points="651,-38 575,-38 575,-19 651,-19 651,-38"/>
<text text-anchor="middle" x="613" y="-26" font-family="Helvetica,sans-Serif" font-size="10.00">configService</text>
</a>
</g>
</g>
<!-- Node3&#45;&gt;Node4 -->
<g id="edge3" class="edge">
<title>Node3&#45;&gt;Node4</title>
<path fill="none" stroke="#63b8ff" d="M539.48,-28.5C547.42,-28.5 555.81,-28.5 563.96,-28.5"/>
<polygon fill="#63b8ff" stroke="#63b8ff" points="563.86,-32 573.86,-28.5 563.86,-25 563.86,-32"/>
</g>
<!-- Node5&#45;&gt;Node3 -->
<g id="edge5" class="edge">
<title>Node5&#45;&gt;Node3</title>
<path fill="none" stroke="#63b8ff" d="M420.42,-17.34C428.56,-18.53 436.95,-19.76 445.05,-20.95"/>
<polygon fill="#63b8ff" stroke="#63b8ff" points="444.46,-24.55 454.87,-22.54 445.48,-17.62 444.46,-24.55"/>
</g>
</g>
</svg>
