<?xml version="1.0" encoding="UTF-8" standalone="no"?>
<!DOCTYPE svg PUBLIC "-//W3C//DTD SVG 1.1//EN"
 "http://www.w3.org/Graphics/SVG/1.1/DTD/svg11.dtd">
<!-- Generated by graphviz version 8.0.3 (20230416.2022)
 -->
<!-- Title: getProjectBalancesPath Pages: 1 -->
<svg width="980pt" height="132pt"
 viewBox="0.00 0.00 980.00 131.50" xmlns="http://www.w3.org/2000/svg" xmlns:xlink="http://www.w3.org/1999/xlink">
<g id="graph0" class="graph" transform="scale(1 1) rotate(0) translate(4 127.5)">
<title>getProjectBalancesPath</title>
<!-- Node1 -->
<g id="node1" class="node">
<title>Node1</title>
<g id="a_node1"><a xlink:title=" ">
<polygon fill="#999999" stroke="#666666" points="122,-114 0,-114 0,-95 122,-95 122,-114"/>
<text text-anchor="middle" x="61" y="-102" font-family="Helvetica,sans-Serif" font-size="10.00">getProjectBalancesPath</text>
</a>
</g>
</g>
<!-- Node2 -->
<g id="node2" class="node">
<title>Node2</title>
<g id="a_node2"><a xlink:href="namespace_o_c_a_1_1_c_a_f_e_v_d_b_1_1_traits.html#aa57ee6dad7c7f33cff6983ad79080946" target="_top" xlink:title="Get a possibly encrypted config value.">
<polygon fill="white" stroke="#666666" points="860,-76 777,-76 777,-57 860,-57 860,-76"/>
<text text-anchor="middle" x="818.5" y="-64" font-family="Helvetica,sans-Serif" font-size="10.00">getConfigValue</text>
</a>
</g>
</g>
<!-- Node1&#45;&gt;Node2 -->
<g id="edge1" class="edge">
<title>Node1&#45;&gt;Node2</title>
<path fill="none" stroke="#63b8ff" d="M122.41,-110.28C186.15,-115.87 289.55,-123.5 379,-123.5 379,-123.5 379,-123.5 535.5,-123.5 623.53,-123.5 724.02,-96.48 778.08,-79.65"/>
<polygon fill="#63b8ff" stroke="#63b8ff" points="778.78,-82.78 787.26,-76.43 776.67,-76.11 778.78,-82.78"/>
</g>
<!-- Node4 -->
<g id="node4" class="node">
<title>Node4</title>
<g id="a_node4"><a xlink:href="namespace_o_c_a_1_1_c_a_f_e_v_d_b_1_1_traits.html#aa0764db1b1533db78bb2f515fad6f25a" target="_top" xlink:title=" ">
<polygon fill="white" stroke="#666666" points="288,-95 158,-95 158,-76 288,-76 288,-95"/>
<text text-anchor="middle" x="223" y="-83" font-family="Helvetica,sans-Serif" font-size="10.00">getFinancialBalancesPath</text>
</a>
</g>
</g>
<!-- Node1&#45;&gt;Node4 -->
<g id="edge3" class="edge">
<title>Node1&#45;&gt;Node4</title>
<path fill="none" stroke="#63b8ff" d="M122.49,-97.32C130.49,-96.37 138.76,-95.38 146.97,-94.41"/>
<polygon fill="#63b8ff" stroke="#63b8ff" points="147.17,-97.79 156.69,-93.14 146.35,-90.84 147.17,-97.79"/>
</g>
<!-- Node3 -->
<g id="node3" class="node">
<title>Node3</title>
<g id="a_node3"><a xlink:href="namespace_o_c_a_1_1_c_a_f_e_v_d_b_1_1_traits.html#a4bb87734b0f297c2a6d2095820942c48" target="_top" xlink:title="Return the stored config&#45;service for convenience.">
<polygon fill="white" stroke="#666666" points="972,-76 896,-76 896,-57 972,-57 972,-76"/>
<text text-anchor="middle" x="934" y="-64" font-family="Helvetica,sans-Serif" font-size="10.00">configService</text>
</a>
</g>
</g>
<!-- Node2&#45;&gt;Node3 -->
<g id="edge2" class="edge">
<title>Node2&#45;&gt;Node3</title>
<path fill="none" stroke="#63b8ff" d="M860.48,-66.5C868.42,-66.5 876.81,-66.5 884.96,-66.5"/>
<polygon fill="#63b8ff" stroke="#63b8ff" points="884.86,-70 894.86,-66.5 884.86,-63 884.86,-70"/>
</g>
<!-- Node4&#45;&gt;Node2 -->
<g id="edge4" class="edge">
<title>Node4&#45;&gt;Node2</title>
<path fill="none" stroke="#63b8ff" d="M288.11,-84.55C385.85,-82.93 577.98,-79.03 741,-71.5 749.04,-71.13 757.56,-70.65 765.87,-70.14"/>
<polygon fill="#63b8ff" stroke="#63b8ff" points="765.87,-73.59 775.62,-69.46 765.42,-66.6 765.87,-73.59"/>
</g>
<!-- Node5 -->
<g id="node5" class="node">
<title>Node5</title>
<g id="a_node5"><a xlink:href="namespace_o_c_a_1_1_c_a_f_e_v_d_b_1_1_traits.html#a642b5ca28f1a47e6409971d1aeb16c2c" target="_top" xlink:title=" ">
<polygon fill="white" stroke="#666666" points="436,-57 324,-57 324,-38 436,-38 436,-57"/>
<text text-anchor="middle" x="380" y="-45" font-family="Helvetica,sans-Serif" font-size="10.00">getFinanceFolderPath</text>
</a>
</g>
</g>
<!-- Node4&#45;&gt;Node5 -->
<g id="edge5" class="edge">
<title>Node4&#45;&gt;Node5</title>
<path fill="none" stroke="#63b8ff" d="M264.72,-75.52C284.05,-70.78 307.34,-65.07 327.85,-60.04"/>
<polygon fill="#63b8ff" stroke="#63b8ff" points="328.4,-63.26 337.28,-57.48 326.73,-56.47 328.4,-63.26"/>
</g>
<!-- Node6 -->
<g id="node6" class="node">
<title>Node6</title>
<g id="a_node6"><a xlink:href="namespace_o_c_a_1_1_c_a_f_e_v_d_b_1_1_traits.html#a1fe279ec39675001095beafdf178b811" target="_top" xlink:title="Create the full&#45;path for the sub&#45;folder corresponding to the given config key.">
<polygon fill="white" stroke="#666666" points="597,-57 472,-57 472,-38 597,-38 597,-57"/>
<text text-anchor="middle" x="534.5" y="-45" font-family="Helvetica,sans-Serif" font-size="10.00">getSharedSubFolderPath</text>
</a>
</g>
</g>
<!-- Node5&#45;&gt;Node6 -->
<g id="edge6" class="edge">
<title>Node5&#45;&gt;Node6</title>
<path fill="none" stroke="#63b8ff" d="M436.49,-47.5C444.33,-47.5 452.5,-47.5 460.61,-47.5"/>
<polygon fill="#63b8ff" stroke="#63b8ff" points="460.6,-51 470.6,-47.5 460.6,-44 460.6,-51"/>
</g>
<!-- Node6&#45;&gt;Node2 -->
<g id="edge7" class="edge">
<title>Node6&#45;&gt;Node2</title>
<path fill="none" stroke="#63b8ff" d="M597.39,-51.67C647.82,-55.07 718.22,-59.81 765.71,-63.01"/>
<polygon fill="#63b8ff" stroke="#63b8ff" points="765.45,-66.57 775.66,-63.75 765.92,-59.58 765.45,-66.57"/>
</g>
<!-- Node7 -->
<g id="node7" class="node">
<title>Node7</title>
<g id="a_node7"><a xlink:href="namespace_o_c_a_1_1_c_a_f_e_v_d_b_1_1_traits.html#adac8fad662663420dc8d9b73e0134673" target="_top" xlink:title=" ">
<polygon fill="white" stroke="#666666" points="741,-19 633,-19 633,0 741,0 741,-19"/>
<text text-anchor="middle" x="687" y="-7" font-family="Helvetica,sans-Serif" font-size="10.00">getSharedFolderPath</text>
</a>
</g>
</g>
<!-- Node6&#45;&gt;Node7 -->
<g id="edge8" class="edge">
<title>Node6&#45;&gt;Node7</title>
<path fill="none" stroke="#63b8ff" d="M575.04,-37.52C593.72,-32.8 616.22,-27.12 636.06,-22.11"/>
<polygon fill="#63b8ff" stroke="#63b8ff" points="636.62,-25.32 645.46,-19.48 634.91,-18.54 636.62,-25.32"/>
</g>
<!-- Node7&#45;&gt;Node2 -->
<g id="edge9" class="edge">
<title>Node7&#45;&gt;Node2</title>
<path fill="none" stroke="#63b8ff" d="M710.56,-19.43C731.26,-28.54 762.16,-42.14 785.43,-52.38"/>
<polygon fill="#63b8ff" stroke="#63b8ff" points="783.64,-55.86 794.2,-56.69 786.46,-49.45 783.64,-55.86"/>
</g>
</g>
</svg>
