<?xml version="1.0" encoding="UTF-8" standalone="no"?>
<!DOCTYPE svg PUBLIC "-//W3C//DTD SVG 1.1//EN"
 "http://www.w3.org/Graphics/SVG/1.1/DTD/svg11.dtd">
<!-- Generated by graphviz version 9.0.0 (20230911.1827)
 -->
<!-- Title: logException Pages: 1 -->
<svg width="463pt" height="259pt"
 viewBox="0.00 0.00 463.25 259.00" xmlns="http://www.w3.org/2000/svg" xmlns:xlink="http://www.w3.org/1999/xlink">
<g id="graph0" class="graph" transform="scale(1 1) rotate(0) translate(4 255)">
<title>logException</title>
<!-- Node1 -->
<g id="Node000001" class="node">
<title>Node1</title>
<g id="a_Node000001"><a xlink:title=" ">
<polygon fill="#999999" stroke="#666666" points="455.25,-151 383,-151 383,-131 455.25,-131 455.25,-151"/>
<text text-anchor="middle" x="419.12" y="-137.5" font-family="Helvetica,sans-Serif" font-size="10.00">logException</text>
</a>
</g>
</g>
<!-- Node2 -->
<g id="Node000002" class="node">
<title>Node2</title>
<g id="a_Node000002"><a xlink:href="class_o_c_a_1_1_c_a_f_e_v_d_b_1_1_toolkit_1_1_service_1_1_group_folders_service.html#ae41bfe81b67dc7952c7a75d6dbc16c85" target="_top" xlink:title="Change the given group&#45;shared folder – given by its old mount&#45;point – to a new mount&#45;point.">
<polygon fill="white" stroke="#666666" points="344.75,-251 198.25,-251 198.25,-207 344.75,-207 344.75,-251"/>
<text text-anchor="start" x="206.25" y="-237.5" font-family="Helvetica,sans-Serif" font-size="10.00">OCA\CAFEVDB\Toolkit</text>
<text text-anchor="start" x="206.25" y="-225.5" font-family="Helvetica,sans-Serif" font-size="10.00">\Service\GroupFoldersService</text>
<text text-anchor="middle" x="271.5" y="-213.5" font-family="Helvetica,sans-Serif" font-size="10.00">\changeMountPoint</text>
</a>
</g>
</g>
<!-- Node1&#45;&gt;Node2 -->
<g id="edge1_Node000001_Node000002" class="edge">
<title>Node1&#45;&gt;Node2</title>
<g id="a_edge1_Node000001_Node000002"><a xlink:title=" ">
<path fill="none" stroke="#63b8ff" d="M398.73,-159.04C385.02,-171.15 365.8,-186.86 347,-198 341.94,-201 336.53,-203.85 331.03,-206.52"/>
<polygon fill="#63b8ff" stroke="#63b8ff" points="401.07,-161.64 406.15,-152.35 396.38,-156.45 401.07,-161.64"/>
</a>
</g>
</g>
<!-- Node3 -->
<g id="Node000003" class="node">
<title>Node3</title>
<g id="a_Node000003"><a xlink:href="namespace_o_c_a_1_1_c_a_f_e_v_d_b_1_1_toolkit_1_1_traits.html#a53fd119ff90cc9e9a546accd6bd9f9e2" target="_top" xlink:title="Delete any auth token secured with the given passphrase.">
<polygon fill="white" stroke="#666666" points="315.88,-189 227.12,-189 227.12,-169 315.88,-169 315.88,-189"/>
<text text-anchor="middle" x="271.5" y="-175.5" font-family="Helvetica,sans-Serif" font-size="10.00">deleteAuthToken</text>
</a>
</g>
</g>
<!-- Node1&#45;&gt;Node3 -->
<g id="edge2_Node000001_Node000003" class="edge">
<title>Node1&#45;&gt;Node3</title>
<g id="a_edge2_Node000001_Node000003"><a xlink:title=" ">
<path fill="none" stroke="#63b8ff" d="M371.71,-153.48C363.48,-155.67 354.99,-157.91 347,-160 336.28,-162.8 324.68,-165.78 313.9,-168.53"/>
<polygon fill="#63b8ff" stroke="#63b8ff" points="372.47,-156.9 381.23,-150.94 370.66,-150.14 372.47,-156.9"/>
</a>
</g>
</g>
<!-- Node5 -->
<g id="Node000005" class="node">
<title>Node5</title>
<g id="a_Node000005"><a xlink:href="namespace_o_c_a_1_1_c_a_f_e_v_d_b_1_1_toolkit_1_1_traits.html#aaa8017e1895f612bf3c22f75f20705d0" target="_top" xlink:title="Fetch the login credentials from the credentials store and generate a login&#45;token from it.">
<polygon fill="white" stroke="#666666" points="309.5,-151 233.5,-151 233.5,-131 309.5,-131 309.5,-151"/>
<text text-anchor="middle" x="271.5" y="-137.5" font-family="Helvetica,sans-Serif" font-size="10.00">getAuthToken</text>
</a>
</g>
</g>
<!-- Node1&#45;&gt;Node5 -->
<g id="edge4_Node000001_Node000005" class="edge">
<title>Node1&#45;&gt;Node5</title>
<g id="a_edge4_Node000001_Node000005"><a xlink:title=" ">
<path fill="none" stroke="#63b8ff" d="M371.19,-141C351.32,-141 328.48,-141 309.79,-141"/>
<polygon fill="#63b8ff" stroke="#63b8ff" points="370.99,-144.5 380.99,-141 370.99,-137.5 370.99,-144.5"/>
</a>
</g>
</g>
<!-- Node6 -->
<g id="Node000006" class="node">
<title>Node6</title>
<g id="a_Node000006"><a xlink:href="namespace_o_c_a_1_1_c_a_f_e_v_d_b_1_1_toolkit_1_1_traits.html#a700b0335035909f6817fb197ae6ef571" target="_top" xlink:title="Try to fetch the login&#45;credentials contained in the auth token which is secured with the given passwo...">
<polygon fill="white" stroke="#666666" points="347,-113 196,-113 196,-93 347,-93 347,-113"/>
<text text-anchor="middle" x="271.5" y="-99.5" font-family="Helvetica,sans-Serif" font-size="10.00">getLoginCredentialsFromToken</text>
</a>
</g>
</g>
<!-- Node1&#45;&gt;Node6 -->
<g id="edge5_Node000001_Node000006" class="edge">
<title>Node1&#45;&gt;Node6</title>
<g id="a_edge5_Node000001_Node000006"><a xlink:title=" ">
<path fill="none" stroke="#63b8ff" d="M371.71,-128.52C363.48,-126.33 354.99,-124.09 347,-122 336.28,-119.2 324.68,-116.22 313.9,-113.47"/>
<polygon fill="#63b8ff" stroke="#63b8ff" points="370.66,-131.86 381.23,-131.06 372.47,-125.1 370.66,-131.86"/>
</a>
</g>
</g>
<!-- Node7 -->
<g id="Node000007" class="node">
<title>Node7</title>
<g id="a_Node000007"><a xlink:href="class_o_c_a_1_1_c_a_f_e_v_d_b_1_1_toolkit_1_1_service_1_1_mime_type_service.html#a1b1d06b8849380605b6a83ff72dd8689" target="_top" xlink:title=" ">
<polygon fill="white" stroke="#666666" points="338,-75 205,-75 205,-31 338,-31 338,-75"/>
<text text-anchor="start" x="213" y="-61.5" font-family="Helvetica,sans-Serif" font-size="10.00">OCA\CAFEVDB\Toolkit</text>
<text text-anchor="start" x="213" y="-49.5" font-family="Helvetica,sans-Serif" font-size="10.00">\Service\MimeTypeService</text>
<text text-anchor="middle" x="271.5" y="-37.5" font-family="Helvetica,sans-Serif" font-size="10.00">\getMimeTypeMapping</text>
</a>
</g>
</g>
<!-- Node1&#45;&gt;Node7 -->
<g id="edge6_Node000001_Node000007" class="edge">
<title>Node1&#45;&gt;Node7</title>
<g id="a_edge6_Node000001_Node000007"><a xlink:title=" ">
<path fill="none" stroke="#63b8ff" d="M398.73,-122.96C385.02,-110.85 365.8,-95.14 347,-84 341.94,-81 336.53,-78.15 331.03,-75.48"/>
<polygon fill="#63b8ff" stroke="#63b8ff" points="396.38,-125.55 406.15,-129.65 401.07,-120.36 396.38,-125.55"/>
</a>
</g>
</g>
<!-- Node4 -->
<g id="Node000004" class="node">
<title>Node4</title>
<g id="a_Node000004"><a xlink:href="class_o_c_a_1_1_c_a_f_e_v_d_b_1_1_toolkit_1_1_service_1_1_user_scope_service.html#a32093fe0abe4f324af6bda53cb2a2a07" target="_top" xlink:title="Delete the token and its cookie, e.g.">
<polygon fill="white" stroke="#666666" points="148.38,-201 11.62,-201 11.62,-157 148.38,-157 148.38,-201"/>
<text text-anchor="start" x="19.62" y="-187.5" font-family="Helvetica,sans-Serif" font-size="10.00">OCA\CAFEVDB\Toolkit</text>
<text text-anchor="start" x="19.62" y="-175.5" font-family="Helvetica,sans-Serif" font-size="10.00">\Service\UserScopeService</text>
<text text-anchor="middle" x="80" y="-163.5" font-family="Helvetica,sans-Serif" font-size="10.00">\deleteAuthCookie</text>
</a>
</g>
</g>
<!-- Node3&#45;&gt;Node4 -->
<g id="edge3_Node000003_Node000004" class="edge">
<title>Node3&#45;&gt;Node4</title>
<g id="a_edge3_Node000003_Node000004"><a xlink:title=" ">
<path fill="none" stroke="#63b8ff" d="M215.77,-179C194.86,-179 170.77,-179 148.79,-179"/>
<polygon fill="#63b8ff" stroke="#63b8ff" points="215.51,-182.5 225.51,-179 215.51,-175.5 215.51,-182.5"/>
</a>
</g>
</g>
<!-- Node8 -->
<g id="Node000008" class="node">
<title>Node8</title>
<g id="a_Node000008"><a xlink:href="class_o_c_a_1_1_c_a_f_e_v_d_b_1_1_toolkit_1_1_service_1_1_mime_type_service.html#a89cc023810bad0773bc2699e1265c96c" target="_top" xlink:title=" ">
<polygon fill="white" stroke="#666666" points="160,-106 0,-106 0,-62 160,-62 160,-106"/>
<text text-anchor="start" x="8" y="-92.5" font-family="Helvetica,sans-Serif" font-size="10.00">OCA\CAFEVDB\Toolkit</text>
<text text-anchor="start" x="8" y="-80.5" font-family="Helvetica,sans-Serif" font-size="10.00">\Service\MimeTypeService</text>
<text text-anchor="middle" x="80" y="-68.5" font-family="Helvetica,sans-Serif" font-size="10.00">\getSupportedArchiveMimeTypes</text>
</a>
</g>
</g>
<!-- Node7&#45;&gt;Node8 -->
<g id="edge7_Node000007_Node000008" class="edge">
<title>Node7&#45;&gt;Node8</title>
<g id="a_edge7_Node000007_Node000008"><a xlink:title=" ">
<path fill="none" stroke="#63b8ff" d="M193.51,-65.6C182.57,-67.38 171.31,-69.23 160.34,-71.02"/>
<polygon fill="#63b8ff" stroke="#63b8ff" points="193.96,-69.07 203.26,-64 192.83,-62.16 193.96,-69.07"/>
</a>
</g>
</g>
<!-- Node9 -->
<g id="Node000009" class="node">
<title>Node9</title>
<g id="a_Node000009"><a xlink:href="class_o_c_a_1_1_c_a_f_e_v_d_b_1_1_toolkit_1_1_service_1_1_mime_type_service.html#ab63abc381405369b014b433dded6a20c" target="_top" xlink:title="Register the needed extension to MIME&#45;type mappings with the Nextcloud server.">
<polygon fill="white" stroke="#666666" points="149.12,-44 10.88,-44 10.88,0 149.12,0 149.12,-44"/>
<text text-anchor="start" x="18.88" y="-30.5" font-family="Helvetica,sans-Serif" font-size="10.00">OCA\CAFEVDB\Toolkit</text>
<text text-anchor="start" x="18.88" y="-18.5" font-family="Helvetica,sans-Serif" font-size="10.00">\Service\MimeTypeService</text>
<text text-anchor="middle" x="80" y="-6.5" font-family="Helvetica,sans-Serif" font-size="10.00">\registerMimeTypeMappings</text>
</a>
</g>
</g>
<!-- Node7&#45;&gt;Node9 -->
<g id="edge8_Node000007_Node000009" class="edge">
<title>Node7&#45;&gt;Node9</title>
<g id="a_edge8_Node000007_Node000009"><a xlink:title=" ">
<path fill="none" stroke="#63b8ff" d="M193.71,-40.44C179.09,-38.05 163.87,-35.56 149.53,-33.21"/>
<polygon fill="#63b8ff" stroke="#63b8ff" points="192.83,-43.84 203.26,-42 193.96,-36.93 192.83,-43.84"/>
</a>
</g>
</g>
</g>
</svg>
