<?xml version="1.0" encoding="UTF-8" standalone="no"?>
<!DOCTYPE svg PUBLIC "-//W3C//DTD SVG 1.1//EN"
 "http://www.w3.org/Graphics/SVG/1.1/DTD/svg11.dtd">
<!-- Generated by graphviz version 9.0.0 (20230911.1827)
 -->
<!-- Title: getCommonPath Pages: 1 -->
<svg width="609pt" height="52pt"
 viewBox="0.00 0.00 609.00 52.00" xmlns="http://www.w3.org/2000/svg" xmlns:xlink="http://www.w3.org/1999/xlink">
<g id="graph0" class="graph" transform="scale(1 1) rotate(0) translate(4 48)">
<title>getCommonPath</title>
<!-- Node1 -->
<g id="Node000001" class="node">
<title>Node1</title>
<g id="a_Node000001"><a xlink:title=" ">
<polygon fill="#999999" stroke="#666666" points="601,-32 511.5,-32 511.5,-12 601,-12 601,-32"/>
<text text-anchor="middle" x="556.25" y="-18.5" font-family="Helvetica,sans-Serif" font-size="10.00">getCommonPath</text>
</a>
</g>
</g>
<!-- Node2 -->
<g id="Node000002" class="node">
<title>Node2</title>
<g id="a_Node000002"><a xlink:href="class_o_c_a_1_1_c_a_f_e_v_d_b_1_1_toolkit_1_1_service_1_1_archive_service.html#a2e9079a65d5beb0113b23bf5fac58125" target="_top" xlink:title="Return the name of the top&#45;level folder for the case that there is only a single folder at folder nes...">
<polygon fill="white" stroke="#666666" points="475.5,-44 338,-44 338,0 475.5,0 475.5,-44"/>
<text text-anchor="start" x="346" y="-30.5" font-family="Helvetica,sans-Serif" font-size="10.00">OCA\CAFEVDB\Toolkit</text>
<text text-anchor="start" x="346" y="-18.5" font-family="Helvetica,sans-Serif" font-size="10.00">\Service\ArchiveService</text>
<text text-anchor="middle" x="406.75" y="-6.5" font-family="Helvetica,sans-Serif" font-size="10.00">\getCommonDirectoryPrefix</text>
</a>
</g>
</g>
<!-- Node1&#45;&gt;Node2 -->
<g id="edge1_Node000001_Node000002" class="edge">
<title>Node1&#45;&gt;Node2</title>
<g id="a_edge1_Node000001_Node000002"><a xlink:title=" ">
<path fill="none" stroke="#63b8ff" d="M500.05,-22C492.12,-22 483.89,-22 475.76,-22"/>
<polygon fill="#63b8ff" stroke="#63b8ff" points="499.88,-25.5 509.88,-22 499.88,-18.5 499.88,-25.5"/>
</a>
</g>
</g>
<!-- Node3 -->
<g id="Node000003" class="node">
<title>Node3</title>
<g id="a_Node000003"><a xlink:href="class_o_c_a_1_1_c_a_f_e_v_d_b_1_1_toolkit_1_1_service_1_1_archive_service.html#adb7197696a0127bef42768cfb61ec66b" target="_top" xlink:title=" ">
<polygon fill="white" stroke="#666666" points="302,-44 181,-44 181,0 302,0 302,-44"/>
<text text-anchor="start" x="189" y="-30.5" font-family="Helvetica,sans-Serif" font-size="10.00">OCA\CAFEVDB\Toolkit</text>
<text text-anchor="start" x="189" y="-18.5" font-family="Helvetica,sans-Serif" font-size="10.00">\Service\ArchiveService</text>
<text text-anchor="middle" x="241.5" y="-6.5" font-family="Helvetica,sans-Serif" font-size="10.00">\getArchiveInfo</text>
</a>
</g>
</g>
<!-- Node2&#45;&gt;Node3 -->
<g id="edge2_Node000002_Node000003" class="edge">
<title>Node2&#45;&gt;Node3</title>
<g id="a_edge2_Node000002_Node000003"><a xlink:title=" ">
<path fill="none" stroke="#63b8ff" d="M326.48,-22C318.34,-22 310.17,-22 302.29,-22"/>
<polygon fill="#63b8ff" stroke="#63b8ff" points="326.42,-25.5 336.42,-22 326.42,-18.5 326.42,-25.5"/>
</a>
</g>
</g>
<!-- Node4 -->
<g id="Node000004" class="node">
<title>Node4</title>
<g id="a_Node000004"><a xlink:href="class_o_c_a_1_1_c_a_f_e_v_d_b_1_1_toolkit_1_1_service_1_1_archive_service.html#ad1d53e5cbdc6d39c917e86f2ae794aeb" target="_top" xlink:title=" ">
<polygon fill="white" stroke="#666666" points="145,-38 0,-38 0,-6 145,-6 145,-38"/>
<text text-anchor="start" x="8" y="-24.5" font-family="Helvetica,sans-Serif" font-size="10.00">OCA\CAFEVDB\Toolkit</text>
<text text-anchor="middle" x="72.5" y="-12.5" font-family="Helvetica,sans-Serif" font-size="10.00">\Service\ArchiveService\open</text>
</a>
</g>
</g>
<!-- Node3&#45;&gt;Node4 -->
<g id="edge3_Node000003_Node000004" class="edge">
<title>Node3&#45;&gt;Node4</title>
<g id="a_edge3_Node000003_Node000004"><a xlink:title=" ">
<path fill="none" stroke="#63b8ff" d="M169.27,-22C161.38,-22 153.34,-22 145.45,-22"/>
<polygon fill="#63b8ff" stroke="#63b8ff" points="169.17,-25.5 179.17,-22 169.17,-18.5 169.17,-25.5"/>
</a>
</g>
</g>
</g>
</svg>
