<?xml version="1.0" encoding="UTF-8" standalone="no"?>
<!DOCTYPE svg PUBLIC "-//W3C//DTD SVG 1.1//EN"
 "http://www.w3.org/Graphics/SVG/1.1/DTD/svg11.dtd">
<!-- Generated by graphviz version 8.0.3 (20230416.2022)
 -->
<!-- Title: getFinanceFolderPath Pages: 1 -->
<svg width="444pt" height="64pt"
 viewBox="0.00 0.00 444.00 64.00" xmlns="http://www.w3.org/2000/svg" xmlns:xlink="http://www.w3.org/1999/xlink">
<g id="graph0" class="graph" transform="scale(1 1) rotate(0) translate(4 60)">
<title>getFinanceFolderPath</title>
<!-- Node1 -->
<g id="node1" class="node">
<title>Node1</title>
<g id="a_node1"><a xlink:title=" ">
<polygon fill="#999999" stroke="#666666" points="436,-37 324,-37 324,-18 436,-18 436,-37"/>
<text text-anchor="middle" x="380" y="-25" font-family="Helvetica,sans-Serif" font-size="10.00">getFinanceFolderPath</text>
</a>
</g>
</g>
<!-- Node2 -->
<g id="node2" class="node">
<title>Node2</title>
<g id="a_node2"><a xlink:href="namespace_o_c_a_1_1_c_a_f_e_v_d_b_1_1_traits.html#a96fbb9c63c9b6d8451834c182a7484b9" target="_top" xlink:title=" ">
<polygon fill="white" stroke="#666666" points="287.5,-56 158.5,-56 158.5,-37 287.5,-37 287.5,-56"/>
<text text-anchor="middle" x="223" y="-44" font-family="Helvetica,sans-Serif" font-size="10.00">getBankTransactionsPath</text>
</a>
</g>
</g>
<!-- Node1&#45;&gt;Node2 -->
<g id="edge1" class="edge">
<title>Node1&#45;&gt;Node2</title>
<path fill="none" stroke="#63b8ff" d="M313.09,-35.58C304.74,-36.6 296.21,-37.65 287.9,-38.67"/>
<polygon fill="#63b8ff" stroke="#63b8ff" points="313.42,-38.94 322.92,-34.25 312.56,-31.99 313.42,-38.94"/>
</g>
<!-- Node3 -->
<g id="node3" class="node">
<title>Node3</title>
<g id="a_node3"><a xlink:href="namespace_o_c_a_1_1_c_a_f_e_v_d_b_1_1_traits.html#aa0764db1b1533db78bb2f515fad6f25a" target="_top" xlink:title=" ">
<polygon fill="white" stroke="#666666" points="288,-19 158,-19 158,0 288,0 288,-19"/>
<text text-anchor="middle" x="223" y="-7" font-family="Helvetica,sans-Serif" font-size="10.00">getFinancialBalancesPath</text>
</a>
</g>
</g>
<!-- Node1&#45;&gt;Node3 -->
<g id="edge2" class="edge">
<title>Node1&#45;&gt;Node3</title>
<path fill="none" stroke="#63b8ff" d="M313.25,-19.86C305.03,-18.91 296.63,-17.93 288.44,-16.98"/>
<polygon fill="#63b8ff" stroke="#63b8ff" points="312.58,-23.43 322.92,-21.1 313.39,-16.47 312.58,-23.43"/>
</g>
<!-- Node4 -->
<g id="node4" class="node">
<title>Node4</title>
<g id="a_node4"><a xlink:href="namespace_o_c_a_1_1_c_a_f_e_v_d_b_1_1_traits.html#a50bd1326b527dbc5a86f52520df9b930" target="_top" xlink:title=" ">
<polygon fill="white" stroke="#666666" points="122,-19 0,-19 0,0 122,0 122,-19"/>
<text text-anchor="middle" x="61" y="-7" font-family="Helvetica,sans-Serif" font-size="10.00">getProjectBalancesPath</text>
</a>
</g>
</g>
<!-- Node3&#45;&gt;Node4 -->
<g id="edge3" class="edge">
<title>Node3&#45;&gt;Node4</title>
<path fill="none" stroke="#63b8ff" d="M147.01,-9.5C138.72,-9.5 130.36,-9.5 122.28,-9.5"/>
<polygon fill="#63b8ff" stroke="#63b8ff" points="146.84,-13 156.84,-9.5 146.84,-6 146.84,-13"/>
</g>
</g>
</svg>
