<?xml version="1.0" encoding="UTF-8" standalone="no"?>
<!DOCTYPE svg PUBLIC "-//W3C//DTD SVG 1.1//EN"
 "http://www.w3.org/Graphics/SVG/1.1/DTD/svg11.dtd">
<!-- Generated by graphviz version 7.1.0 (20230121.1956)
 -->
<!-- Title: getFinancialBalancesPath Pages: 1 -->
<svg width="822pt" height="84pt"
 viewBox="0.00 0.00 822.00 84.00" xmlns="http://www.w3.org/2000/svg" xmlns:xlink="http://www.w3.org/1999/xlink">
<g id="graph0" class="graph" transform="scale(1 1) rotate(0) translate(4 80)">
<title>getFinancialBalancesPath</title>
<!-- Node1 -->
<g id="node1" class="node">
<title>Node1</title>
<g id="a_node1"><a xlink:title=" ">
<polygon fill="#999999" stroke="#666666" points="130,-76 0,-76 0,-57 130,-57 130,-76"/>
<text text-anchor="middle" x="65" y="-64" font-family="Helvetica,sans-Serif" font-size="10.00">getFinancialBalancesPath</text>
</a>
</g>
</g>
<!-- Node2 -->
<g id="node2" class="node">
<title>Node2</title>
<g id="a_node2"><a xlink:href="namespace_o_c_a_1_1_c_a_f_e_v_d_b_1_1_traits.html#aa57ee6dad7c7f33cff6983ad79080946" target="_top" xlink:title="Get a possibly encrypted config value.">
<polygon fill="white" stroke="#666666" points="702,-57 619,-57 619,-38 702,-38 702,-57"/>
<text text-anchor="middle" x="660.5" y="-45" font-family="Helvetica,sans-Serif" font-size="10.00">getConfigValue</text>
</a>
</g>
</g>
<!-- Node1&#45;&gt;Node2 -->
<g id="edge1" class="edge">
<title>Node1&#45;&gt;Node2</title>
<path fill="none" stroke="#63b8ff" d="M130.3,-69.77C228.29,-73.88 420.75,-78.5 583,-61.5 590.94,-60.67 599.29,-59.47 607.45,-58.13"/>
<polygon fill="#63b8ff" stroke="#63b8ff" points="608.04,-61.58 617.28,-56.41 606.83,-54.68 608.04,-61.58"/>
</g>
<!-- Node4 -->
<g id="node4" class="node">
<title>Node4</title>
<g id="a_node4"><a xlink:href="namespace_o_c_a_1_1_c_a_f_e_v_d_b_1_1_traits.html#a642b5ca28f1a47e6409971d1aeb16c2c" target="_top" xlink:title=" ">
<polygon fill="white" stroke="#666666" points="278,-57 166,-57 166,-38 278,-38 278,-57"/>
<text text-anchor="middle" x="222" y="-45" font-family="Helvetica,sans-Serif" font-size="10.00">getFinanceFolderPath</text>
</a>
</g>
</g>
<!-- Node1&#45;&gt;Node4 -->
<g id="edge3" class="edge">
<title>Node1&#45;&gt;Node4</title>
<path fill="none" stroke="#63b8ff" d="M130.39,-58.61C138.42,-57.62 146.64,-56.62 154.69,-55.63"/>
<polygon fill="#63b8ff" stroke="#63b8ff" points="154.93,-59.12 164.43,-54.43 154.08,-52.18 154.93,-59.12"/>
</g>
<!-- Node3 -->
<g id="node3" class="node">
<title>Node3</title>
<g id="a_node3"><a xlink:href="namespace_o_c_a_1_1_c_a_f_e_v_d_b_1_1_traits.html#a4bb87734b0f297c2a6d2095820942c48" target="_top" xlink:title="Return the stored config&#45;service for convenience.">
<polygon fill="white" stroke="#666666" points="814,-57 738,-57 738,-38 814,-38 814,-57"/>
<text text-anchor="middle" x="776" y="-45" font-family="Helvetica,sans-Serif" font-size="10.00">configService</text>
</a>
</g>
</g>
<!-- Node2&#45;&gt;Node3 -->
<g id="edge2" class="edge">
<title>Node2&#45;&gt;Node3</title>
<path fill="none" stroke="#63b8ff" d="M702.48,-47.5C710.24,-47.5 718.43,-47.5 726.41,-47.5"/>
<polygon fill="#63b8ff" stroke="#63b8ff" points="726.34,-51 736.34,-47.5 726.34,-44 726.34,-51"/>
</g>
<!-- Node5 -->
<g id="node5" class="node">
<title>Node5</title>
<g id="a_node5"><a xlink:href="namespace_o_c_a_1_1_c_a_f_e_v_d_b_1_1_traits.html#a1fe279ec39675001095beafdf178b811" target="_top" xlink:title="Create the full&#45;path for the sub&#45;folder corresponding to the given config key.">
<polygon fill="white" stroke="#666666" points="439,-57 314,-57 314,-38 439,-38 439,-57"/>
<text text-anchor="middle" x="376.5" y="-45" font-family="Helvetica,sans-Serif" font-size="10.00">getSharedSubFolderPath</text>
</a>
</g>
</g>
<!-- Node4&#45;&gt;Node5 -->
<g id="edge4" class="edge">
<title>Node4&#45;&gt;Node5</title>
<path fill="none" stroke="#63b8ff" d="M278.49,-47.5C286.24,-47.5 294.31,-47.5 302.33,-47.5"/>
<polygon fill="#63b8ff" stroke="#63b8ff" points="302.09,-51 312.09,-47.5 302.09,-44 302.09,-51"/>
</g>
<!-- Node5&#45;&gt;Node2 -->
<g id="edge5" class="edge">
<title>Node5&#45;&gt;Node2</title>
<path fill="none" stroke="#63b8ff" d="M439.39,-47.5C489.71,-47.5 559.92,-47.5 607.41,-47.5"/>
<polygon fill="#63b8ff" stroke="#63b8ff" points="607.15,-51 617.15,-47.5 607.15,-44 607.15,-51"/>
</g>
<!-- Node6 -->
<g id="node6" class="node">
<title>Node6</title>
<g id="a_node6"><a xlink:href="namespace_o_c_a_1_1_c_a_f_e_v_d_b_1_1_traits.html#adac8fad662663420dc8d9b73e0134673" target="_top" xlink:title=" ">
<polygon fill="white" stroke="#666666" points="583,-19 475,-19 475,0 583,0 583,-19"/>
<text text-anchor="middle" x="529" y="-7" font-family="Helvetica,sans-Serif" font-size="10.00">getSharedFolderPath</text>
</a>
</g>
</g>
<!-- Node5&#45;&gt;Node6 -->
<g id="edge6" class="edge">
<title>Node5&#45;&gt;Node6</title>
<path fill="none" stroke="#63b8ff" d="M417.04,-37.52C435.55,-32.84 457.8,-27.22 477.51,-22.25"/>
<polygon fill="#63b8ff" stroke="#63b8ff" points="478.15,-25.7 486.99,-19.85 476.44,-18.91 478.15,-25.7"/>
</g>
<!-- Node6&#45;&gt;Node2 -->
<g id="edge7" class="edge">
<title>Node6&#45;&gt;Node2</title>
<path fill="none" stroke="#63b8ff" d="M564.02,-19.48C579.64,-24.07 598.36,-29.56 615.07,-34.46"/>
<polygon fill="#63b8ff" stroke="#63b8ff" points="613.67,-37.7 624.25,-37.16 615.64,-30.98 613.67,-37.7"/>
</g>
</g>
</svg>
