<?xml version="1.0" encoding="UTF-8" standalone="no"?>
<!DOCTYPE svg PUBLIC "-//W3C//DTD SVG 1.1//EN"
 "http://www.w3.org/Graphics/SVG/1.1/DTD/svg11.dtd">
<!-- Generated by graphviz version 7.1.0 (20230121.1956)
 -->
<!-- Title: getBankTransactionsPath Pages: 1 -->
<svg width="821pt" height="84pt"
 viewBox="0.00 0.00 821.00 84.00" xmlns="http://www.w3.org/2000/svg" xmlns:xlink="http://www.w3.org/1999/xlink">
<g id="graph0" class="graph" transform="scale(1 1) rotate(0) translate(4 80)">
<title>getBankTransactionsPath</title>
<!-- Node1 -->
<g id="node1" class="node">
<title>Node1</title>
<g id="a_node1"><a xlink:title=" ">
<polygon fill="#999999" stroke="#666666" points="129,-76 0,-76 0,-57 129,-57 129,-76"/>
<text text-anchor="middle" x="64.5" y="-64" font-family="Helvetica,sans-Serif" font-size="10.00">getBankTransactionsPath</text>
</a>
</g>
</g>
<!-- Node2 -->
<g id="node2" class="node">
<title>Node2</title>
<g id="a_node2"><a xlink:href="namespace_o_c_a_1_1_c_a_f_e_v_d_b_1_1_traits.html#aa57ee6dad7c7f33cff6983ad79080946" target="_top" xlink:title="Get a possibly encrypted config value.">
<polygon fill="white" stroke="#666666" points="701,-57 618,-57 618,-38 701,-38 701,-57"/>
<text text-anchor="middle" x="659.5" y="-45" font-family="Helvetica,sans-Serif" font-size="10.00">getConfigValue</text>
</a>
</g>
</g>
<!-- Node1&#45;&gt;Node2 -->
<g id="edge1" class="edge">
<title>Node1&#45;&gt;Node2</title>
<path fill="none" stroke="#63b8ff" d="M129.33,-69.75C227.1,-73.86 419.68,-78.51 582,-61.5 589.94,-60.67 598.29,-59.47 606.45,-58.13"/>
<polygon fill="#63b8ff" stroke="#63b8ff" points="607.04,-61.58 616.28,-56.41 605.83,-54.68 607.04,-61.58"/>
</g>
<!-- Node4 -->
<g id="node4" class="node">
<title>Node4</title>
<g id="a_node4"><a xlink:href="namespace_o_c_a_1_1_c_a_f_e_v_d_b_1_1_traits.html#a642b5ca28f1a47e6409971d1aeb16c2c" target="_top" xlink:title=" ">
<polygon fill="white" stroke="#666666" points="277,-57 165,-57 165,-38 277,-38 277,-57"/>
<text text-anchor="middle" x="221" y="-45" font-family="Helvetica,sans-Serif" font-size="10.00">getFinanceFolderPath</text>
</a>
</g>
</g>
<!-- Node1&#45;&gt;Node4 -->
<g id="edge3" class="edge">
<title>Node1&#45;&gt;Node4</title>
<path fill="none" stroke="#63b8ff" d="M129.23,-58.66C137.26,-57.68 145.48,-56.66 153.54,-55.67"/>
<polygon fill="#63b8ff" stroke="#63b8ff" points="153.8,-59.17 163.3,-54.47 152.94,-52.22 153.8,-59.17"/>
</g>
<!-- Node3 -->
<g id="node3" class="node">
<title>Node3</title>
<g id="a_node3"><a xlink:href="namespace_o_c_a_1_1_c_a_f_e_v_d_b_1_1_traits.html#a4bb87734b0f297c2a6d2095820942c48" target="_top" xlink:title="Return the stored config&#45;service for convenience.">
<polygon fill="white" stroke="#666666" points="813,-57 737,-57 737,-38 813,-38 813,-57"/>
<text text-anchor="middle" x="775" y="-45" font-family="Helvetica,sans-Serif" font-size="10.00">configService</text>
</a>
</g>
</g>
<!-- Node2&#45;&gt;Node3 -->
<g id="edge2" class="edge">
<title>Node2&#45;&gt;Node3</title>
<path fill="none" stroke="#63b8ff" d="M701.48,-47.5C709.24,-47.5 717.43,-47.5 725.41,-47.5"/>
<polygon fill="#63b8ff" stroke="#63b8ff" points="725.34,-51 735.34,-47.5 725.34,-44 725.34,-51"/>
</g>
<!-- Node5 -->
<g id="node5" class="node">
<title>Node5</title>
<g id="a_node5"><a xlink:href="namespace_o_c_a_1_1_c_a_f_e_v_d_b_1_1_traits.html#a1fe279ec39675001095beafdf178b811" target="_top" xlink:title="Create the full&#45;path for the sub&#45;folder corresponding to the given config key.">
<polygon fill="white" stroke="#666666" points="438,-57 313,-57 313,-38 438,-38 438,-57"/>
<text text-anchor="middle" x="375.5" y="-45" font-family="Helvetica,sans-Serif" font-size="10.00">getSharedSubFolderPath</text>
</a>
</g>
</g>
<!-- Node4&#45;&gt;Node5 -->
<g id="edge4" class="edge">
<title>Node4&#45;&gt;Node5</title>
<path fill="none" stroke="#63b8ff" d="M277.49,-47.5C285.24,-47.5 293.31,-47.5 301.33,-47.5"/>
<polygon fill="#63b8ff" stroke="#63b8ff" points="301.09,-51 311.09,-47.5 301.09,-44 301.09,-51"/>
</g>
<!-- Node5&#45;&gt;Node2 -->
<g id="edge5" class="edge">
<title>Node5&#45;&gt;Node2</title>
<path fill="none" stroke="#63b8ff" d="M438.39,-47.5C488.71,-47.5 558.92,-47.5 606.41,-47.5"/>
<polygon fill="#63b8ff" stroke="#63b8ff" points="606.15,-51 616.15,-47.5 606.15,-44 606.15,-51"/>
</g>
<!-- Node6 -->
<g id="node6" class="node">
<title>Node6</title>
<g id="a_node6"><a xlink:href="namespace_o_c_a_1_1_c_a_f_e_v_d_b_1_1_traits.html#adac8fad662663420dc8d9b73e0134673" target="_top" xlink:title=" ">
<polygon fill="white" stroke="#666666" points="582,-19 474,-19 474,0 582,0 582,-19"/>
<text text-anchor="middle" x="528" y="-7" font-family="Helvetica,sans-Serif" font-size="10.00">getSharedFolderPath</text>
</a>
</g>
</g>
<!-- Node5&#45;&gt;Node6 -->
<g id="edge6" class="edge">
<title>Node5&#45;&gt;Node6</title>
<path fill="none" stroke="#63b8ff" d="M416.04,-37.52C434.55,-32.84 456.8,-27.22 476.51,-22.25"/>
<polygon fill="#63b8ff" stroke="#63b8ff" points="477.15,-25.7 485.99,-19.85 475.44,-18.91 477.15,-25.7"/>
</g>
<!-- Node6&#45;&gt;Node2 -->
<g id="edge7" class="edge">
<title>Node6&#45;&gt;Node2</title>
<path fill="none" stroke="#63b8ff" d="M563.02,-19.48C578.64,-24.07 597.36,-29.56 614.07,-34.46"/>
<polygon fill="#63b8ff" stroke="#63b8ff" points="612.67,-37.7 623.25,-37.16 614.64,-30.98 612.67,-37.7"/>
</g>
</g>
</svg>
