<?xml version="1.0" encoding="UTF-8" standalone="no"?>
<!DOCTYPE svg PUBLIC "-//W3C//DTD SVG 1.1//EN"
 "http://www.w3.org/Graphics/SVG/1.1/DTD/svg11.dtd">
<!-- Generated by graphviz version 9.0.0 (20230911.1827)
 -->
<!-- Title: formatNode Pages: 1 -->
<svg width="606pt" height="47pt"
 viewBox="0.00 0.00 606.25 47.00" xmlns="http://www.w3.org/2000/svg" xmlns:xlink="http://www.w3.org/1999/xlink">
<g id="graph0" class="graph" transform="scale(1 1) rotate(0) translate(4 43)">
<title>formatNode</title>
<!-- Node1 -->
<g id="Node000001" class="node">
<title>Node1</title>
<g id="a_Node000001"><a xlink:title="Stolen from the template&#45;manager.">
<polygon fill="#999999" stroke="#666666" points="67,-20 0,-20 0,0 67,0 67,-20"/>
<text text-anchor="middle" x="33.5" y="-6.5" font-family="Helvetica,sans-Serif" font-size="10.00">formatNode</text>
</a>
</g>
</g>
<!-- Node2 -->
<g id="Node000002" class="node">
<title>Node2</title>
<g id="a_Node000002"><a xlink:href="namespace_o_c_a_1_1_c_a_f_e_v_d_b_1_1_toolkit_1_1_traits.html#a510047f7a8e00f4170c35b5718362afc" target="_top" xlink:title=" ">
<polygon fill="white" stroke="#666666" points="197.75,-39 103,-39 103,-19 197.75,-19 197.75,-39"/>
<text text-anchor="middle" x="150.38" y="-25.5" font-family="Helvetica,sans-Serif" font-size="10.00">getUserAppFolder</text>
</a>
</g>
</g>
<!-- Node1&#45;&gt;Node2 -->
<g id="edge1_Node000001_Node000002" class="edge">
<title>Node1&#45;&gt;Node2</title>
<g id="a_edge1_Node000001_Node000002"><a xlink:title=" ">
<path fill="none" stroke="#63b8ff" d="M67.42,-15.44C74.98,-16.7 83.25,-18.06 91.53,-19.43"/>
<polygon fill="#63b8ff" stroke="#63b8ff" points="90.83,-22.86 101.26,-21.04 91.97,-15.96 90.83,-22.86"/>
</a>
</g>
</g>
<!-- Node5 -->
<g id="Node000005" class="node">
<title>Node5</title>
<g id="a_Node000005"><a xlink:href="namespace_o_c_a_1_1_c_a_f_e_v_d_b_1_1_toolkit_1_1_traits.html#ad1ceaa136377a6a4e4de64a249daefff" target="_top" xlink:title=" ">
<polygon fill="white" stroke="#666666" points="598.25,-20 520.75,-20 520.75,0 598.25,0 598.25,-20"/>
<text text-anchor="middle" x="559.5" y="-6.5" font-family="Helvetica,sans-Serif" font-size="10.00">getUserFolder</text>
</a>
</g>
</g>
<!-- Node1&#45;&gt;Node5 -->
<g id="edge5_Node000001_Node000005" class="edge">
<title>Node1&#45;&gt;Node5</title>
<g id="a_edge5_Node000001_Node000005"><a xlink:title=" ">
<path fill="none" stroke="#63b8ff" d="M67.28,-10C156.36,-10 403.31,-10 509.23,-10"/>
<polygon fill="#63b8ff" stroke="#63b8ff" points="509.01,-13.5 519.01,-10 509.01,-6.5 509.01,-13.5"/>
</a>
</g>
</g>
<!-- Node3 -->
<g id="Node000003" class="node">
<title>Node3</title>
<g id="a_Node000003"><a xlink:href="namespace_o_c_a_1_1_c_a_f_e_v_d_b_1_1_toolkit_1_1_traits.html#a846d85acaa379ee927acbc7120838a1b" target="_top" xlink:title="Return the name top&#45;level folder as Folder instance.">
<polygon fill="white" stroke="#666666" points="350.25,-39 233.75,-39 233.75,-19 350.25,-19 350.25,-39"/>
<text text-anchor="middle" x="292" y="-25.5" font-family="Helvetica,sans-Serif" font-size="10.00">getUserTopLevelFolder</text>
</a>
</g>
</g>
<!-- Node2&#45;&gt;Node3 -->
<g id="edge2_Node000002_Node000003" class="edge">
<title>Node2&#45;&gt;Node3</title>
<g id="a_edge2_Node000002_Node000003"><a xlink:title=" ">
<path fill="none" stroke="#63b8ff" d="M197.87,-29C205.63,-29 213.83,-29 222.02,-29"/>
<polygon fill="#63b8ff" stroke="#63b8ff" points="222.02,-32.5 232.02,-29 222.02,-25.5 222.02,-32.5"/>
</a>
</g>
</g>
<!-- Node4 -->
<g id="Node000004" class="node">
<title>Node4</title>
<g id="a_Node000004"><a xlink:href="namespace_o_c_a_1_1_c_a_f_e_v_d_b_1_1_toolkit_1_1_traits.html#acde6e347f6701fb57e1028789f979f8e" target="_top" xlink:title=" ">
<polygon fill="white" stroke="#666666" points="484.75,-39 386.25,-39 386.25,-19 484.75,-19 484.75,-39"/>
<text text-anchor="middle" x="435.5" y="-25.5" font-family="Helvetica,sans-Serif" font-size="10.00">getUserRootFolder</text>
</a>
</g>
</g>
<!-- Node3&#45;&gt;Node4 -->
<g id="edge3_Node000003_Node000004" class="edge">
<title>Node3&#45;&gt;Node4</title>
<g id="a_edge3_Node000003_Node000004"><a xlink:title=" ">
<path fill="none" stroke="#63b8ff" d="M350.55,-29C358.47,-29 366.62,-29 374.57,-29"/>
<polygon fill="#63b8ff" stroke="#63b8ff" points="374.54,-32.5 384.54,-29 374.54,-25.5 374.54,-32.5"/>
</a>
</g>
</g>
<!-- Node4&#45;&gt;Node5 -->
<g id="edge4_Node000004_Node000005" class="edge">
<title>Node4&#45;&gt;Node5</title>
<g id="a_edge4_Node000004_Node000005"><a xlink:title=" ">
<path fill="none" stroke="#63b8ff" d="M485.07,-21.44C493.11,-20.18 501.45,-18.89 509.5,-17.63"/>
<polygon fill="#63b8ff" stroke="#63b8ff" points="509.79,-21.13 519.13,-16.13 508.71,-14.21 509.79,-21.13"/>
</a>
</g>
</g>
</g>
</svg>
