<?xml version="1.0" encoding="UTF-8" standalone="no"?>
<!DOCTYPE svg PUBLIC "-//W3C//DTD SVG 1.1//EN"
 "http://www.w3.org/Graphics/SVG/1.1/DTD/svg11.dtd">
<!-- Generated by graphviz version 8.0.3 (20230416.2022)
 -->
<!-- Title: find Pages: 1 -->
<svg width="403pt" height="86pt"
 viewBox="0.00 0.00 403.00 86.00" xmlns="http://www.w3.org/2000/svg" xmlns:xlink="http://www.w3.org/1999/xlink">
<g id="graph0" class="graph" transform="scale(1 1) rotate(0) translate(4 82)">
<title>find</title>
<!-- Node1 -->
<g id="node1" class="node">
<title>Node1</title>
<g id="a_node1"><a xlink:title="Finds an entity by its primary key / identifier.">
<polygon fill="#999999" stroke="#666666" points="32,-43 0,-43 0,-24 32,-24 32,-43"/>
<text text-anchor="middle" x="16" y="-31" font-family="Helvetica,sans-Serif" font-size="10.00">find</text>
</a>
</g>
</g>
<!-- Node2 -->
<g id="node2" class="node">
<title>Node2</title>
<g id="a_node2"><a xlink:href="namespace_o_c_a_1_1_c_a_f_e_v_d_b_1_1_traits.html#ab6f5f4edde190f5e5f1cd1e2fdd402d4" target="_top" xlink:title="Set and get the given name as the current database target entity.">
<polygon fill="white" stroke="#666666" points="187,-43 68,-43 68,-24 187,-24 187,-43"/>
<text text-anchor="middle" x="127.5" y="-31" font-family="Helvetica,sans-Serif" font-size="10.00">getDatabaseRepository</text>
</a>
</g>
</g>
<!-- Node1&#45;&gt;Node2 -->
<g id="edge1" class="edge">
<title>Node1&#45;&gt;Node2</title>
<path fill="none" stroke="#63b8ff" d="M32.23,-33.5C39.14,-33.5 47.86,-33.5 57.19,-33.5"/>
<polygon fill="#63b8ff" stroke="#63b8ff" points="56.91,-37 66.91,-33.5 56.91,-30 56.91,-37"/>
</g>
<!-- Node3 -->
<g id="node3" class="node">
<title>Node3</title>
<g id="a_node3"><a xlink:href="class_o_c_a_1_1_c_a_f_e_v_d_b_1_1_database_1_1_doctrine_1_1_o_r_m_1_1_repositories_1_1_entity_repository.html#ae2b0e1dbe7640aefaf7d54c6a94d08fe" target="_top" xlink:title="Public export of parent function.">
<polygon fill="white" stroke="#666666" points="395,-78 223,-78 223,-37 395,-37 395,-78"/>
<text text-anchor="start" x="231" y="-66" font-family="Helvetica,sans-Serif" font-size="10.00">OCA\CAFEVDB\Database</text>
<text text-anchor="start" x="231" y="-55" font-family="Helvetica,sans-Serif" font-size="10.00">\Doctrine\ORM\Repositories</text>
<text text-anchor="middle" x="309" y="-44" font-family="Helvetica,sans-Serif" font-size="10.00">\EntityRepository\getEntityManager</text>
</a>
</g>
</g>
<!-- Node2&#45;&gt;Node3 -->
<g id="edge2" class="edge">
<title>Node2&#45;&gt;Node3</title>
<path fill="none" stroke="#63b8ff" d="M187.28,-41.36C195.25,-42.43 203.61,-43.54 212.03,-44.67"/>
<polygon fill="#63b8ff" stroke="#63b8ff" points="211.35,-48.24 221.72,-46.1 212.27,-41.3 211.35,-48.24"/>
</g>
<!-- Node4 -->
<g id="node4" class="node">
<title>Node4</title>
<g id="a_node4"><a xlink:href="namespace_o_c_a_1_1_c_a_f_e_v_d_b_1_1_traits.html#ae8292d652c1dc8225df1cd0630dbaf27" target="_top" xlink:title="Set the given name as the current database target entity.">
<polygon fill="white" stroke="#666666" points="368.5,-19 249.5,-19 249.5,0 368.5,0 368.5,-19"/>
<text text-anchor="middle" x="309" y="-7" font-family="Helvetica,sans-Serif" font-size="10.00">setDatabaseRepository</text>
</a>
</g>
</g>
<!-- Node2&#45;&gt;Node4 -->
<g id="edge3" class="edge">
<title>Node2&#45;&gt;Node4</title>
<path fill="none" stroke="#63b8ff" d="M187.28,-25.64C203.55,-23.47 221.37,-21.08 238.2,-18.83"/>
<polygon fill="#63b8ff" stroke="#63b8ff" points="238.65,-22.17 248.09,-17.38 237.72,-15.23 238.65,-22.17"/>
</g>
</g>
</svg>
