<?xml version="1.0" encoding="UTF-8" standalone="no"?>
<!DOCTYPE svg PUBLIC "-//W3C//DTD SVG 1.1//EN"
 "http://www.w3.org/Graphics/SVG/1.1/DTD/svg11.dtd">
<!-- Generated by graphviz version 8.0.3 (20230416.2022)
 -->
<!-- Title: findOneBy Pages: 1 -->
<svg width="433pt" height="86pt"
 viewBox="0.00 0.00 433.00 86.00" xmlns="http://www.w3.org/2000/svg" xmlns:xlink="http://www.w3.org/1999/xlink">
<g id="graph0" class="graph" transform="scale(1 1) rotate(0) translate(4 82)">
<title>findOneBy</title>
<!-- Node1 -->
<g id="node1" class="node">
<title>Node1</title>
<g id="a_node1"><a xlink:title="Finds a single entity by a set of criteria.">
<polygon fill="#999999" stroke="#666666" points="62,-43 0,-43 0,-24 62,-24 62,-43"/>
<text text-anchor="middle" x="31" y="-31" font-family="Helvetica,sans-Serif" font-size="10.00">findOneBy</text>
</a>
</g>
</g>
<!-- Node2 -->
<g id="node2" class="node">
<title>Node2</title>
<g id="a_node2"><a xlink:href="namespace_o_c_a_1_1_c_a_f_e_v_d_b_1_1_traits.html#ab6f5f4edde190f5e5f1cd1e2fdd402d4" target="_top" xlink:title="Set and get the given name as the current database target entity.">
<polygon fill="white" stroke="#666666" points="217,-43 98,-43 98,-24 217,-24 217,-43"/>
<text text-anchor="middle" x="157.5" y="-31" font-family="Helvetica,sans-Serif" font-size="10.00">getDatabaseRepository</text>
</a>
</g>
</g>
<!-- Node1&#45;&gt;Node2 -->
<g id="edge1" class="edge">
<title>Node1&#45;&gt;Node2</title>
<path fill="none" stroke="#63b8ff" d="M62.46,-33.5C69.95,-33.5 78.28,-33.5 86.8,-33.5"/>
<polygon fill="#63b8ff" stroke="#63b8ff" points="86.64,-37 96.64,-33.5 86.64,-30 86.64,-37"/>
</g>
<!-- Node3 -->
<g id="node3" class="node">
<title>Node3</title>
<g id="a_node3"><a xlink:href="class_o_c_a_1_1_c_a_f_e_v_d_b_1_1_database_1_1_doctrine_1_1_o_r_m_1_1_repositories_1_1_entity_repository.html#ae2b0e1dbe7640aefaf7d54c6a94d08fe" target="_top" xlink:title="Public export of parent function.">
<polygon fill="white" stroke="#666666" points="425,-78 253,-78 253,-37 425,-37 425,-78"/>
<text text-anchor="start" x="261" y="-66" font-family="Helvetica,sans-Serif" font-size="10.00">OCA\CAFEVDB\Database</text>
<text text-anchor="start" x="261" y="-55" font-family="Helvetica,sans-Serif" font-size="10.00">\Doctrine\ORM\Repositories</text>
<text text-anchor="middle" x="339" y="-44" font-family="Helvetica,sans-Serif" font-size="10.00">\EntityRepository\getEntityManager</text>
</a>
</g>
</g>
<!-- Node2&#45;&gt;Node3 -->
<g id="edge2" class="edge">
<title>Node2&#45;&gt;Node3</title>
<path fill="none" stroke="#63b8ff" d="M217.28,-41.36C225.25,-42.43 233.61,-43.54 242.03,-44.67"/>
<polygon fill="#63b8ff" stroke="#63b8ff" points="241.35,-48.24 251.72,-46.1 242.27,-41.3 241.35,-48.24"/>
</g>
<!-- Node4 -->
<g id="node4" class="node">
<title>Node4</title>
<g id="a_node4"><a xlink:href="namespace_o_c_a_1_1_c_a_f_e_v_d_b_1_1_traits.html#ae8292d652c1dc8225df1cd0630dbaf27" target="_top" xlink:title="Set the given name as the current database target entity.">
<polygon fill="white" stroke="#666666" points="398.5,-19 279.5,-19 279.5,0 398.5,0 398.5,-19"/>
<text text-anchor="middle" x="339" y="-7" font-family="Helvetica,sans-Serif" font-size="10.00">setDatabaseRepository</text>
</a>
</g>
</g>
<!-- Node2&#45;&gt;Node4 -->
<g id="edge3" class="edge">
<title>Node2&#45;&gt;Node4</title>
<path fill="none" stroke="#63b8ff" d="M217.28,-25.64C233.55,-23.47 251.37,-21.08 268.2,-18.83"/>
<polygon fill="#63b8ff" stroke="#63b8ff" points="268.65,-22.17 278.09,-17.38 267.72,-15.23 268.65,-22.17"/>
</g>
</g>
</svg>
