<?xml version="1.0" encoding="UTF-8" standalone="no"?>
<!DOCTYPE svg PUBLIC "-//W3C//DTD SVG 1.1//EN"
 "http://www.w3.org/Graphics/SVG/1.1/DTD/svg11.dtd">
<!-- Generated by graphviz version 7.1.0 (20230121.1956)
 -->
<!-- Title: getSharedSubFolderPath Pages: 1 -->
<svg width="508pt" height="46pt"
 viewBox="0.00 0.00 508.00 46.00" xmlns="http://www.w3.org/2000/svg" xmlns:xlink="http://www.w3.org/1999/xlink">
<g id="graph0" class="graph" transform="scale(1 1) rotate(0) translate(4 42)">
<title>getSharedSubFolderPath</title>
<!-- Node1 -->
<g id="node1" class="node">
<title>Node1</title>
<g id="a_node1"><a xlink:title="Create the full&#45;path for the sub&#45;folder corresponding to the given config key.">
<polygon fill="#999999" stroke="#666666" points="125,-38 0,-38 0,-19 125,-19 125,-38"/>
<text text-anchor="middle" x="62.5" y="-26" font-family="Helvetica,sans-Serif" font-size="10.00">getSharedSubFolderPath</text>
</a>
</g>
</g>
<!-- Node2 -->
<g id="node2" class="node">
<title>Node2</title>
<g id="a_node2"><a xlink:href="namespace_o_c_a_1_1_c_a_f_e_v_d_b_1_1_traits.html#aa57ee6dad7c7f33cff6983ad79080946" target="_top" xlink:title="Get a possibly encrypted config value.">
<polygon fill="white" stroke="#666666" points="388,-38 305,-38 305,-19 388,-19 388,-38"/>
<text text-anchor="middle" x="346.5" y="-26" font-family="Helvetica,sans-Serif" font-size="10.00">getConfigValue</text>
</a>
</g>
</g>
<!-- Node1&#45;&gt;Node2 -->
<g id="edge1" class="edge">
<title>Node1&#45;&gt;Node2</title>
<path fill="none" stroke="#63b8ff" d="M125.39,-28.5C175.71,-28.5 245.92,-28.5 293.41,-28.5"/>
<polygon fill="#63b8ff" stroke="#63b8ff" points="293.15,-32 303.15,-28.5 293.15,-25 293.15,-32"/>
</g>
<!-- Node4 -->
<g id="node4" class="node">
<title>Node4</title>
<g id="a_node4"><a xlink:href="namespace_o_c_a_1_1_c_a_f_e_v_d_b_1_1_traits.html#adac8fad662663420dc8d9b73e0134673" target="_top" xlink:title=" ">
<polygon fill="white" stroke="#666666" points="269,-19 161,-19 161,0 269,0 269,-19"/>
<text text-anchor="middle" x="215" y="-7" font-family="Helvetica,sans-Serif" font-size="10.00">getSharedFolderPath</text>
</a>
</g>
</g>
<!-- Node1&#45;&gt;Node4 -->
<g id="edge3" class="edge">
<title>Node1&#45;&gt;Node4</title>
<path fill="none" stroke="#63b8ff" d="M125.15,-20.72C133.2,-19.7 141.47,-18.66 149.57,-17.63"/>
<polygon fill="#63b8ff" stroke="#63b8ff" points="149.89,-21.12 159.37,-16.4 149.01,-14.18 149.89,-21.12"/>
</g>
<!-- Node3 -->
<g id="node3" class="node">
<title>Node3</title>
<g id="a_node3"><a xlink:href="namespace_o_c_a_1_1_c_a_f_e_v_d_b_1_1_traits.html#a4bb87734b0f297c2a6d2095820942c48" target="_top" xlink:title="Return the stored config&#45;service for convenience.">
<polygon fill="white" stroke="#666666" points="500,-38 424,-38 424,-19 500,-19 500,-38"/>
<text text-anchor="middle" x="462" y="-26" font-family="Helvetica,sans-Serif" font-size="10.00">configService</text>
</a>
</g>
</g>
<!-- Node2&#45;&gt;Node3 -->
<g id="edge2" class="edge">
<title>Node2&#45;&gt;Node3</title>
<path fill="none" stroke="#63b8ff" d="M388.48,-28.5C396.24,-28.5 404.43,-28.5 412.41,-28.5"/>
<polygon fill="#63b8ff" stroke="#63b8ff" points="412.34,-32 422.34,-28.5 412.34,-25 412.34,-32"/>
</g>
<!-- Node4&#45;&gt;Node2 -->
<g id="edge4" class="edge">
<title>Node4&#45;&gt;Node2</title>
<path fill="none" stroke="#63b8ff" d="M269.42,-17.34C277.38,-18.51 285.57,-19.71 293.5,-20.87"/>
<polygon fill="#63b8ff" stroke="#63b8ff" points="292.97,-24.33 303.37,-22.32 293.98,-17.4 292.97,-24.33"/>
</g>
</g>
</svg>
