<?xml version="1.0" encoding="UTF-8" standalone="no"?>
<!DOCTYPE svg PUBLIC "-//W3C//DTD SVG 1.1//EN"
 "http://www.w3.org/Graphics/SVG/1.1/DTD/svg11.dtd">
<!-- Generated by graphviz version 8.0.3 (20230416.2022)
 -->
<!-- Title: getProjectsFolderPath Pages: 1 -->
<svg width="657pt" height="46pt"
 viewBox="0.00 0.00 657.00 46.00" xmlns="http://www.w3.org/2000/svg" xmlns:xlink="http://www.w3.org/1999/xlink">
<g id="graph0" class="graph" transform="scale(1 1) rotate(0) translate(4 42)">
<title>getProjectsFolderPath</title>
<!-- Node1 -->
<g id="node1" class="node">
<title>Node1</title>
<g id="a_node1"><a xlink:title=" ">
<polygon fill="#999999" stroke="#666666" points="113,-38 0,-38 0,-19 113,-19 113,-38"/>
<text text-anchor="middle" x="56.5" y="-26" font-family="Helvetica,sans-Serif" font-size="10.00">getProjectsFolderPath</text>
</a>
</g>
</g>
<!-- Node2 -->
<g id="node2" class="node">
<title>Node2</title>
<g id="a_node2"><a xlink:href="namespace_o_c_a_1_1_c_a_f_e_v_d_b_1_1_traits.html#a1fe279ec39675001095beafdf178b811" target="_top" xlink:title="Create the full&#45;path for the sub&#45;folder corresponding to the given config key.">
<polygon fill="white" stroke="#666666" points="274,-38 149,-38 149,-19 274,-19 274,-38"/>
<text text-anchor="middle" x="211.5" y="-26" font-family="Helvetica,sans-Serif" font-size="10.00">getSharedSubFolderPath</text>
</a>
</g>
</g>
<!-- Node1&#45;&gt;Node2 -->
<g id="edge1" class="edge">
<title>Node1&#45;&gt;Node2</title>
<path fill="none" stroke="#63b8ff" d="M113.17,-28.5C121.19,-28.5 129.54,-28.5 137.83,-28.5"/>
<polygon fill="#63b8ff" stroke="#63b8ff" points="137.66,-32 147.66,-28.5 137.66,-25 137.66,-32"/>
</g>
<!-- Node3 -->
<g id="node3" class="node">
<title>Node3</title>
<g id="a_node3"><a xlink:href="namespace_o_c_a_1_1_c_a_f_e_v_d_b_1_1_traits.html#aa57ee6dad7c7f33cff6983ad79080946" target="_top" xlink:title="Get a possibly encrypted config value.">
<polygon fill="white" stroke="#666666" points="537,-38 454,-38 454,-19 537,-19 537,-38"/>
<text text-anchor="middle" x="495.5" y="-26" font-family="Helvetica,sans-Serif" font-size="10.00">getConfigValue</text>
</a>
</g>
</g>
<!-- Node2&#45;&gt;Node3 -->
<g id="edge2" class="edge">
<title>Node2&#45;&gt;Node3</title>
<path fill="none" stroke="#63b8ff" d="M274.39,-28.5C324.82,-28.5 395.22,-28.5 442.71,-28.5"/>
<polygon fill="#63b8ff" stroke="#63b8ff" points="442.66,-32 452.66,-28.5 442.66,-25 442.66,-32"/>
</g>
<!-- Node5 -->
<g id="node5" class="node">
<title>Node5</title>
<g id="a_node5"><a xlink:href="namespace_o_c_a_1_1_c_a_f_e_v_d_b_1_1_traits.html#adac8fad662663420dc8d9b73e0134673" target="_top" xlink:title=" ">
<polygon fill="white" stroke="#666666" points="418,-19 310,-19 310,0 418,0 418,-19"/>
<text text-anchor="middle" x="364" y="-7" font-family="Helvetica,sans-Serif" font-size="10.00">getSharedFolderPath</text>
</a>
</g>
</g>
<!-- Node2&#45;&gt;Node5 -->
<g id="edge4" class="edge">
<title>Node2&#45;&gt;Node5</title>
<path fill="none" stroke="#63b8ff" d="M274.15,-20.72C282.39,-19.68 290.85,-18.61 299.13,-17.56"/>
<polygon fill="#63b8ff" stroke="#63b8ff" points="299.39,-20.93 308.87,-16.21 298.51,-13.99 299.39,-20.93"/>
</g>
<!-- Node4 -->
<g id="node4" class="node">
<title>Node4</title>
<g id="a_node4"><a xlink:href="namespace_o_c_a_1_1_c_a_f_e_v_d_b_1_1_traits.html#a4bb87734b0f297c2a6d2095820942c48" target="_top" xlink:title="Return the stored config&#45;service for convenience.">
<polygon fill="white" stroke="#666666" points="649,-38 573,-38 573,-19 649,-19 649,-38"/>
<text text-anchor="middle" x="611" y="-26" font-family="Helvetica,sans-Serif" font-size="10.00">configService</text>
</a>
</g>
</g>
<!-- Node3&#45;&gt;Node4 -->
<g id="edge3" class="edge">
<title>Node3&#45;&gt;Node4</title>
<path fill="none" stroke="#63b8ff" d="M537.48,-28.5C545.42,-28.5 553.81,-28.5 561.96,-28.5"/>
<polygon fill="#63b8ff" stroke="#63b8ff" points="561.86,-32 571.86,-28.5 561.86,-25 561.86,-32"/>
</g>
<!-- Node5&#45;&gt;Node3 -->
<g id="edge5" class="edge">
<title>Node5&#45;&gt;Node3</title>
<path fill="none" stroke="#63b8ff" d="M418.42,-17.34C426.56,-18.53 434.95,-19.76 443.05,-20.95"/>
<polygon fill="#63b8ff" stroke="#63b8ff" points="442.46,-24.55 452.87,-22.54 443.48,-17.62 442.46,-24.55"/>
</g>
</g>
</svg>
