<?xml version="1.0" encoding="UTF-8" standalone="no"?>
<!DOCTYPE svg PUBLIC "-//W3C//DTD SVG 1.1//EN"
 "http://www.w3.org/Graphics/SVG/1.1/DTD/svg11.dtd">
<!-- Generated by graphviz version 7.1.0 (20230121.1956)
 -->
<!-- Title: findAll Pages: 1 -->
<svg width="415pt" height="86pt"
 viewBox="0.00 0.00 415.00 86.00" xmlns="http://www.w3.org/2000/svg" xmlns:xlink="http://www.w3.org/1999/xlink">
<g id="graph0" class="graph" transform="scale(1 1) rotate(0) translate(4 82)">
<title>findAll</title>
<!-- Node1 -->
<g id="node1" class="node">
<title>Node1</title>
<g id="a_node1"><a xlink:title="Finds all entities in the repository.">
<polygon fill="#999999" stroke="#666666" points="44,-43 0,-43 0,-24 44,-24 44,-43"/>
<text text-anchor="middle" x="22" y="-31" font-family="Helvetica,sans-Serif" font-size="10.00">findAll</text>
</a>
</g>
</g>
<!-- Node2 -->
<g id="node2" class="node">
<title>Node2</title>
<g id="a_node2"><a xlink:href="namespace_o_c_a_1_1_c_a_f_e_v_d_b_1_1_traits.html#ab6f5f4edde190f5e5f1cd1e2fdd402d4" target="_top" xlink:title="Set and get the given name as the current database target entity.">
<polygon fill="white" stroke="#666666" points="199,-43 80,-43 80,-24 199,-24 199,-43"/>
<text text-anchor="middle" x="139.5" y="-31" font-family="Helvetica,sans-Serif" font-size="10.00">getDatabaseRepository</text>
</a>
</g>
</g>
<!-- Node1&#45;&gt;Node2 -->
<g id="edge1" class="edge">
<title>Node1&#45;&gt;Node2</title>
<path fill="none" stroke="#63b8ff" d="M44.45,-33.5C51.44,-33.5 59.62,-33.5 68.18,-33.5"/>
<polygon fill="#63b8ff" stroke="#63b8ff" points="68.08,-37 78.08,-33.5 68.08,-30 68.08,-37"/>
</g>
<!-- Node3 -->
<g id="node3" class="node">
<title>Node3</title>
<g id="a_node3"><a xlink:href="class_o_c_a_1_1_c_a_f_e_v_d_b_1_1_database_1_1_doctrine_1_1_o_r_m_1_1_repositories_1_1_entity_repository.html#ae2b0e1dbe7640aefaf7d54c6a94d08fe" target="_top" xlink:title="Public export of parent function.">
<polygon fill="white" stroke="#666666" points="407,-78 235,-78 235,-37 407,-37 407,-78"/>
<text text-anchor="start" x="243" y="-66" font-family="Helvetica,sans-Serif" font-size="10.00">OCA\CAFEVDB\Database</text>
<text text-anchor="start" x="243" y="-55" font-family="Helvetica,sans-Serif" font-size="10.00">\Doctrine\ORM\Repositories</text>
<text text-anchor="middle" x="321" y="-44" font-family="Helvetica,sans-Serif" font-size="10.00">\EntityRepository\getEntityManager</text>
</a>
</g>
</g>
<!-- Node2&#45;&gt;Node3 -->
<g id="edge2" class="edge">
<title>Node2&#45;&gt;Node3</title>
<path fill="none" stroke="#63b8ff" d="M199.28,-41.36C207.08,-42.4 215.24,-43.49 223.47,-44.59"/>
<polygon fill="#63b8ff" stroke="#63b8ff" points="222.85,-48.04 233.22,-45.9 223.77,-41.1 222.85,-48.04"/>
</g>
<!-- Node4 -->
<g id="node4" class="node">
<title>Node4</title>
<g id="a_node4"><a xlink:href="namespace_o_c_a_1_1_c_a_f_e_v_d_b_1_1_traits.html#ae8292d652c1dc8225df1cd0630dbaf27" target="_top" xlink:title="Set the given name as the current database target entity.">
<polygon fill="white" stroke="#666666" points="380.5,-19 261.5,-19 261.5,0 380.5,0 380.5,-19"/>
<text text-anchor="middle" x="321" y="-7" font-family="Helvetica,sans-Serif" font-size="10.00">setDatabaseRepository</text>
</a>
</g>
</g>
<!-- Node2&#45;&gt;Node4 -->
<g id="edge3" class="edge">
<title>Node2&#45;&gt;Node4</title>
<path fill="none" stroke="#63b8ff" d="M199.28,-25.64C215.39,-23.49 233.03,-21.13 249.72,-18.9"/>
<polygon fill="#63b8ff" stroke="#63b8ff" points="250.14,-22.37 259.59,-17.58 249.22,-15.43 250.14,-22.37"/>
</g>
</g>
</svg>
