<?xml version="1.0" encoding="UTF-8" standalone="no"?>
<!DOCTYPE svg PUBLIC "-//W3C//DTD SVG 1.1//EN"
 "http://www.w3.org/Graphics/SVG/1.1/DTD/svg11.dtd">
<!-- Generated by graphviz version 7.1.0 (20230121.1956)
 -->
<!-- Title: getSharedFolderPath Pages: 1 -->
<svg width="767pt" height="156pt"
 viewBox="0.00 0.00 767.00 156.00" xmlns="http://www.w3.org/2000/svg" xmlns:xlink="http://www.w3.org/1999/xlink">
<g id="graph0" class="graph" transform="scale(1 1) rotate(0) translate(4 152)">
<title>getSharedFolderPath</title>
<!-- Node1 -->
<g id="node1" class="node">
<title>Node1</title>
<g id="a_node1"><a xlink:title=" ">
<polygon fill="#999999" stroke="#666666" points="759,-92 651,-92 651,-73 759,-73 759,-92"/>
<text text-anchor="middle" x="705" y="-80" font-family="Helvetica,sans-Serif" font-size="10.00">getSharedFolderPath</text>
</a>
</g>
</g>
<!-- Node2 -->
<g id="node2" class="node">
<title>Node2</title>
<g id="a_node2"><a xlink:href="namespace_o_c_a_1_1_c_a_f_e_v_d_b_1_1_traits.html#a0e96448f5a53a026f555528ae0750914" target="_top" xlink:title="Return the full path to the document templates folder.">
<polygon fill="white" stroke="#666666" points="615,-111 475,-111 475,-92 615,-92 615,-111"/>
<text text-anchor="middle" x="545" y="-99" font-family="Helvetica,sans-Serif" font-size="10.00">getDocumentTemplatesPath</text>
</a>
</g>
</g>
<!-- Node1&#45;&gt;Node2 -->
<g id="edge1" class="edge">
<title>Node1&#45;&gt;Node2</title>
<path fill="none" stroke="#63b8ff" d="M639.19,-90.29C631.35,-91.24 623.31,-92.2 615.4,-93.15"/>
<polygon fill="#63b8ff" stroke="#63b8ff" points="639.5,-93.78 649.01,-89.11 638.66,-86.83 639.5,-93.78"/>
</g>
<!-- Node3 -->
<g id="node3" class="node">
<title>Node3</title>
<g id="a_node3"><a xlink:href="namespace_o_c_a_1_1_c_a_f_e_v_d_b_1_1_traits.html#a1fe279ec39675001095beafdf178b811" target="_top" xlink:title="Create the full&#45;path for the sub&#45;folder corresponding to the given config key.">
<polygon fill="white" stroke="#666666" points="607.5,-74 482.5,-74 482.5,-55 607.5,-55 607.5,-74"/>
<text text-anchor="middle" x="545" y="-62" font-family="Helvetica,sans-Serif" font-size="10.00">getSharedSubFolderPath</text>
</a>
</g>
</g>
<!-- Node1&#45;&gt;Node3 -->
<g id="edge2" class="edge">
<title>Node1&#45;&gt;Node3</title>
<path fill="none" stroke="#63b8ff" d="M639.39,-75.14C628.98,-73.95 618.23,-72.73 607.89,-71.55"/>
<polygon fill="#63b8ff" stroke="#63b8ff" points="638.67,-78.58 649,-76.23 639.47,-71.63 638.67,-78.58"/>
</g>
<!-- Node4 -->
<g id="node4" class="node">
<title>Node4</title>
<g id="a_node4"><a xlink:href="namespace_o_c_a_1_1_c_a_f_e_v_d_b_1_1_traits.html#a642b5ca28f1a47e6409971d1aeb16c2c" target="_top" xlink:title=" ">
<polygon fill="white" stroke="#666666" points="437.5,-130 325.5,-130 325.5,-111 437.5,-111 437.5,-130"/>
<text text-anchor="middle" x="381.5" y="-118" font-family="Helvetica,sans-Serif" font-size="10.00">getFinanceFolderPath</text>
</a>
</g>
</g>
<!-- Node3&#45;&gt;Node4 -->
<g id="edge3" class="edge">
<title>Node3&#45;&gt;Node4</title>
<path fill="none" stroke="#63b8ff" d="M491.5,-77.67C485.87,-79.46 480.28,-81.41 475,-83.5 458.18,-90.16 455.68,-95.5 439,-102.5 432.07,-105.41 424.5,-108.12 417.21,-110.51"/>
<polygon fill="#63b8ff" stroke="#63b8ff" points="492.27,-81.09 500.84,-74.85 490.26,-74.39 492.27,-81.09"/>
</g>
<!-- Node8 -->
<g id="node8" class="node">
<title>Node8</title>
<g id="a_node8"><a xlink:href="namespace_o_c_a_1_1_c_a_f_e_v_d_b_1_1_traits.html#a357251e007461d82f748af451aed3a91" target="_top" xlink:title=" ">
<polygon fill="white" stroke="#666666" points="436.5,-93 326.5,-93 326.5,-74 436.5,-74 436.5,-93"/>
<text text-anchor="middle" x="381.5" y="-81" font-family="Helvetica,sans-Serif" font-size="10.00">getOutBoxFolderPath</text>
</a>
</g>
</g>
<!-- Node3&#45;&gt;Node8 -->
<g id="edge7" class="edge">
<title>Node3&#45;&gt;Node8</title>
<path fill="none" stroke="#63b8ff" d="M470.75,-73.12C459.37,-74.46 447.79,-75.82 436.93,-77.1"/>
<polygon fill="#63b8ff" stroke="#63b8ff" points="471,-76.61 480.52,-71.97 470.18,-69.66 471,-76.61"/>
</g>
<!-- Node9 -->
<g id="node9" class="node">
<title>Node9</title>
<g id="a_node9"><a xlink:href="namespace_o_c_a_1_1_c_a_f_e_v_d_b_1_1_traits.html#ac387596eb24fa62f0170220095911a30" target="_top" xlink:title=" ">
<polygon fill="white" stroke="#666666" points="439,-56 324,-56 324,-37 439,-37 439,-56"/>
<text text-anchor="middle" x="381.5" y="-44" font-family="Helvetica,sans-Serif" font-size="10.00">getPostBoxFolderPath</text>
</a>
</g>
</g>
<!-- Node3&#45;&gt;Node9 -->
<g id="edge8" class="edge">
<title>Node3&#45;&gt;Node9</title>
<path fill="none" stroke="#63b8ff" d="M470.69,-56.33C460.15,-55.15 449.44,-53.96 439.28,-52.83"/>
<polygon fill="#63b8ff" stroke="#63b8ff" points="470.19,-59.8 480.52,-57.42 470.97,-52.84 470.19,-59.8"/>
</g>
<!-- Node10 -->
<g id="node10" class="node">
<title>Node10</title>
<g id="a_node10"><a xlink:href="namespace_o_c_a_1_1_c_a_f_e_v_d_b_1_1_traits.html#aa58d61eef353556bd02376d0ac587ba0" target="_top" xlink:title=" ">
<polygon fill="white" stroke="#666666" points="438,-19 325,-19 325,0 438,0 438,-19"/>
<text text-anchor="middle" x="381.5" y="-7" font-family="Helvetica,sans-Serif" font-size="10.00">getProjectsFolderPath</text>
</a>
</g>
</g>
<!-- Node3&#45;&gt;Node10 -->
<g id="edge9" class="edge">
<title>Node3&#45;&gt;Node10</title>
<path fill="none" stroke="#63b8ff" d="M504.34,-50.84C484.69,-44.09 460.61,-35.84 439,-28.5 430.28,-25.54 420.79,-22.34 412.13,-19.43"/>
<polygon fill="#63b8ff" stroke="#63b8ff" points="503.02,-54.09 513.62,-54.03 505.3,-47.47 503.02,-54.09"/>
</g>
<!-- Node5 -->
<g id="node5" class="node">
<title>Node5</title>
<g id="a_node5"><a xlink:href="namespace_o_c_a_1_1_c_a_f_e_v_d_b_1_1_traits.html#a96fbb9c63c9b6d8451834c182a7484b9" target="_top" xlink:title=" ">
<polygon fill="white" stroke="#666666" points="287.5,-148 158.5,-148 158.5,-129 287.5,-129 287.5,-148"/>
<text text-anchor="middle" x="223" y="-136" font-family="Helvetica,sans-Serif" font-size="10.00">getBankTransactionsPath</text>
</a>
</g>
</g>
<!-- Node4&#45;&gt;Node5 -->
<g id="edge4" class="edge">
<title>Node4&#45;&gt;Node5</title>
<path fill="none" stroke="#63b8ff" d="M314.03,-128.14C305.33,-129.15 296.43,-130.17 287.77,-131.17"/>
<polygon fill="#63b8ff" stroke="#63b8ff" points="314.29,-131.64 323.82,-127.02 313.49,-124.68 314.29,-131.64"/>
</g>
<!-- Node6 -->
<g id="node6" class="node">
<title>Node6</title>
<g id="a_node6"><a xlink:href="namespace_o_c_a_1_1_c_a_f_e_v_d_b_1_1_traits.html#aa0764db1b1533db78bb2f515fad6f25a" target="_top" xlink:title=" ">
<polygon fill="white" stroke="#666666" points="288,-111 158,-111 158,-92 288,-92 288,-111"/>
<text text-anchor="middle" x="223" y="-99" font-family="Helvetica,sans-Serif" font-size="10.00">getFinancialBalancesPath</text>
</a>
</g>
</g>
<!-- Node4&#45;&gt;Node6 -->
<g id="edge5" class="edge">
<title>Node4&#45;&gt;Node6</title>
<path fill="none" stroke="#63b8ff" d="M313.91,-112.42C305.43,-111.39 296.76,-110.33 288.31,-109.31"/>
<polygon fill="#63b8ff" stroke="#63b8ff" points="313.47,-115.89 323.82,-113.62 314.32,-108.94 313.47,-115.89"/>
</g>
<!-- Node7 -->
<g id="node7" class="node">
<title>Node7</title>
<g id="a_node7"><a xlink:href="namespace_o_c_a_1_1_c_a_f_e_v_d_b_1_1_traits.html#a50bd1326b527dbc5a86f52520df9b930" target="_top" xlink:title=" ">
<polygon fill="white" stroke="#666666" points="122,-111 0,-111 0,-92 122,-92 122,-111"/>
<text text-anchor="middle" x="61" y="-99" font-family="Helvetica,sans-Serif" font-size="10.00">getProjectBalancesPath</text>
</a>
</g>
</g>
<!-- Node6&#45;&gt;Node7 -->
<g id="edge6" class="edge">
<title>Node6&#45;&gt;Node7</title>
<path fill="none" stroke="#63b8ff" d="M146.45,-101.5C138.35,-101.5 130.17,-101.5 122.28,-101.5"/>
<polygon fill="#63b8ff" stroke="#63b8ff" points="146.33,-105 156.33,-101.5 146.33,-98 146.33,-105"/>
</g>
</g>
</svg>
