<?xml version="1.0" encoding="UTF-8" standalone="no"?>
<!DOCTYPE svg PUBLIC "-//W3C//DTD SVG 1.1//EN"
 "http://www.w3.org/Graphics/SVG/1.1/DTD/svg11.dtd">
<!-- Generated by graphviz version 9.0.0 (20230911.1827)
 -->
<!-- Title: publishInitialStateForUser Pages: 1 -->
<svg width="823pt" height="218pt"
 viewBox="0.00 0.00 823.25 218.00" xmlns="http://www.w3.org/2000/svg" xmlns:xlink="http://www.w3.org/1999/xlink">
<g id="graph0" class="graph" transform="scale(1 1) rotate(0) translate(4 214)">
<title>publishInitialStateForUser</title>
<!-- Node1 -->
<g id="Node000001" class="node">
<title>Node1</title>
<g id="a_Node000001"><a xlink:title=" ">
<polygon fill="#999999" stroke="#666666" points="128.5,-115 0,-115 0,-95 128.5,-95 128.5,-115"/>
<text text-anchor="middle" x="64.25" y="-101.5" font-family="Helvetica,sans-Serif" font-size="10.00">publishInitialStateForUser</text>
</a>
</g>
</g>
<!-- Node2 -->
<g id="Node000002" class="node">
<title>Node2</title>
<g id="a_Node000002"><a xlink:href="namespace_o_c_a_1_1_c_a_f_e_v_d_b_1_1_traits.html#a10f42c7875a6151887519547ff045907" target="_top" xlink:title=" ">
<polygon fill="white" stroke="#666666" points="404.62,-210 346.62,-210 346.62,-190 404.62,-190 404.62,-210"/>
<text text-anchor="middle" x="375.62" y="-196.5" font-family="Helvetica,sans-Serif" font-size="10.00">appName</text>
</a>
</g>
</g>
<!-- Node1&#45;&gt;Node2 -->
<g id="edge1_Node000001_Node000002" class="edge">
<title>Node1&#45;&gt;Node2</title>
<g id="a_edge1_Node000001_Node000002"><a xlink:title=" ">
<path fill="none" stroke="#63b8ff" d="M75.75,-115.37C92.76,-131.45 128.12,-162 164.5,-176 220.88,-197.7 291.58,-201.42 334.91,-201.31"/>
<polygon fill="#63b8ff" stroke="#63b8ff" points="334.9,-204.81 344.86,-201.2 334.82,-197.81 334.9,-204.81"/>
</a>
</g>
</g>
<!-- Node4 -->
<g id="Node000004" class="node">
<title>Node4</title>
<g id="a_Node000004"><a xlink:href="namespace_o_c_a_1_1_c_a_f_e_v_d_b_1_1_traits.html#afda7b5e972ce776bc44742e44e5be0e7" target="_top" xlink:title="Return the currency code for the locale.">
<polygon fill="white" stroke="#666666" points="566.12,-172 489.38,-172 489.38,-152 566.12,-152 566.12,-172"/>
<text text-anchor="middle" x="527.75" y="-158.5" font-family="Helvetica,sans-Serif" font-size="10.00">currencyCode</text>
</a>
</g>
</g>
<!-- Node1&#45;&gt;Node4 -->
<g id="edge3_Node000001_Node000004" class="edge">
<title>Node1&#45;&gt;Node4</title>
<g id="a_edge3_Node000001_Node000004"><a xlink:title=" ">
<path fill="none" stroke="#63b8ff" d="M90.47,-115.38C110.25,-123.02 138.66,-132.93 164.5,-138 275.09,-159.68 407.91,-162.78 477.96,-162.68"/>
<polygon fill="#63b8ff" stroke="#63b8ff" points="477.56,-166.18 487.54,-162.65 477.53,-159.18 477.56,-166.18"/>
</a>
</g>
</g>
<!-- Node5 -->
<g id="Node000005" class="node">
<title>Node5</title>
<g id="a_Node000005"><a xlink:href="namespace_o_c_a_1_1_c_a_f_e_v_d_b_1_1_traits.html#a5e680d23a4df2b643783a35165b32d81" target="_top" xlink:title="Return the currency symbol for the locale.">
<polygon fill="white" stroke="#666666" points="704,-134 617.5,-134 617.5,-114 704,-114 704,-134"/>
<text text-anchor="middle" x="660.75" y="-120.5" font-family="Helvetica,sans-Serif" font-size="10.00">currencySymbol</text>
</a>
</g>
</g>
<!-- Node1&#45;&gt;Node5 -->
<g id="edge5_Node000001_Node000005" class="edge">
<title>Node1&#45;&gt;Node5</title>
<g id="a_edge5_Node000001_Node000005"><a xlink:title=" ">
<path fill="none" stroke="#63b8ff" d="M128.87,-107.03C246.5,-110.79 495.98,-118.77 605.87,-122.28"/>
<polygon fill="#63b8ff" stroke="#63b8ff" points="605.69,-125.77 615.8,-122.6 605.91,-118.78 605.69,-125.77"/>
</a>
</g>
</g>
<!-- Node6 -->
<g id="Node000006" class="node">
<title>Node6</title>
<g id="a_Node000006"><a xlink:href="namespace_o_c_a_1_1_c_a_f_e_v_d_b_1_1_traits.html#aa58d61eef353556bd02376d0ac587ba0" target="_top" xlink:title=" ">
<polygon fill="white" stroke="#666666" points="277.25,-96 164.5,-96 164.5,-76 277.25,-76 277.25,-96"/>
<text text-anchor="middle" x="220.88" y="-82.5" font-family="Helvetica,sans-Serif" font-size="10.00">getProjectsFolderPath</text>
</a>
</g>
</g>
<!-- Node1&#45;&gt;Node6 -->
<g id="edge7_Node000001_Node000006" class="edge">
<title>Node1&#45;&gt;Node6</title>
<g id="a_edge7_Node000001_Node000006"><a xlink:title=" ">
<path fill="none" stroke="#63b8ff" d="M128.59,-97.22C136.64,-96.23 144.9,-95.21 153,-94.22"/>
<polygon fill="#63b8ff" stroke="#63b8ff" points="153.31,-97.71 162.81,-93.01 152.46,-90.76 153.31,-97.71"/>
</a>
</g>
</g>
<!-- Node9 -->
<g id="Node000009" class="node">
<title>Node9</title>
<g id="a_Node000009"><a xlink:href="namespace_o_c_a_1_1_c_a_f_e_v_d_b_1_1_traits.html#adac8fad662663420dc8d9b73e0134673" target="_top" xlink:title=" ">
<polygon fill="white" stroke="#666666" points="581.5,-58 474,-58 474,-38 581.5,-38 581.5,-58"/>
<text text-anchor="middle" x="527.75" y="-44.5" font-family="Helvetica,sans-Serif" font-size="10.00">getSharedFolderPath</text>
</a>
</g>
</g>
<!-- Node1&#45;&gt;Node9 -->
<g id="edge13_Node000001_Node000009" class="edge">
<title>Node1&#45;&gt;Node9</title>
<g id="a_edge13_Node000001_Node000009"><a xlink:title=" ">
<path fill="none" stroke="#63b8ff" d="M86.72,-94.52C106.43,-85.45 136.7,-72.9 164.5,-67 266.98,-45.26 389.24,-43.75 462.29,-45.36"/>
<polygon fill="#63b8ff" stroke="#63b8ff" points="461.99,-48.85 472.07,-45.6 462.16,-41.86 461.99,-48.85"/>
</a>
</g>
</g>
<!-- Node10 -->
<g id="Node000010" class="node">
<title>Node10</title>
<g id="a_Node000010"><a xlink:href="namespace_o_c_a_1_1_c_a_f_e_v_d_b_1_1_traits.html#a7edad4866aa3ca9b33d80a94bbca867f" target="_top" xlink:title=" ">
<polygon fill="white" stroke="#666666" points="258.12,-20 183.62,-20 183.62,0 258.12,0 258.12,-20"/>
<text text-anchor="middle" x="220.88" y="-6.5" font-family="Helvetica,sans-Serif" font-size="10.00">getUserValue</text>
</a>
</g>
</g>
<!-- Node1&#45;&gt;Node10 -->
<g id="edge14_Node000001_Node000010" class="edge">
<title>Node1&#45;&gt;Node10</title>
<g id="a_edge14_Node000001_Node000010"><a xlink:title=" ">
<path fill="none" stroke="#63b8ff" d="M77.83,-94.66C96.12,-79.95 131.5,-52.68 164.5,-34 170.17,-30.79 176.34,-27.73 182.45,-24.93"/>
<polygon fill="#63b8ff" stroke="#63b8ff" points="183.43,-28.32 191.18,-21.09 180.61,-21.91 183.43,-28.32"/>
</a>
</g>
</g>
<!-- Node3 -->
<g id="Node000003" class="node">
<title>Node3</title>
<g id="a_Node000003"><a xlink:href="namespace_o_c_a_1_1_c_a_f_e_v_d_b_1_1_traits.html#a4bb87734b0f297c2a6d2095820942c48" target="_top" xlink:title="Return the stored config&#45;service for convenience.">
<polygon fill="white" stroke="#666666" points="815.25,-134 740,-134 740,-114 815.25,-114 815.25,-134"/>
<text text-anchor="middle" x="777.62" y="-120.5" font-family="Helvetica,sans-Serif" font-size="10.00">configService</text>
</a>
</g>
</g>
<!-- Node2&#45;&gt;Node3 -->
<g id="edge2_Node000002_Node000003" class="edge">
<title>Node2&#45;&gt;Node3</title>
<g id="a_edge2_Node000002_Node000003"><a xlink:title=" ">
<path fill="none" stroke="#63b8ff" d="M405.03,-200.5C462.86,-200.69 597.75,-196.97 704,-162 720.37,-156.61 737.51,-147.81 751.02,-140.04"/>
<polygon fill="#63b8ff" stroke="#63b8ff" points="752.46,-143.26 759.28,-135.14 748.89,-137.24 752.46,-143.26"/>
</a>
</g>
</g>
<!-- Node4&#45;&gt;Node3 -->
<g id="edge4_Node000004_Node000003" class="edge">
<title>Node4&#45;&gt;Node3</title>
<g id="a_edge4_Node000004_Node000003"><a xlink:title=" ">
<path fill="none" stroke="#63b8ff" d="M566.59,-159.52C602.24,-156.8 657.05,-151.64 704,-143 712.47,-141.44 721.4,-139.42 729.99,-137.29"/>
<polygon fill="#63b8ff" stroke="#63b8ff" points="730.76,-140.7 739.56,-134.81 729.01,-133.93 730.76,-140.7"/>
</a>
</g>
</g>
<!-- Node5&#45;&gt;Node3 -->
<g id="edge6_Node000005_Node000003" class="edge">
<title>Node5&#45;&gt;Node3</title>
<g id="a_edge6_Node000005_Node000003"><a xlink:title=" ">
<path fill="none" stroke="#63b8ff" d="M704.2,-124C712.01,-124 720.23,-124 728.2,-124"/>
<polygon fill="#63b8ff" stroke="#63b8ff" points="728.13,-127.5 738.13,-124 728.13,-120.5 728.13,-127.5"/>
</a>
</g>
</g>
<!-- Node7 -->
<g id="Node000007" class="node">
<title>Node7</title>
<g id="a_Node000007"><a xlink:href="namespace_o_c_a_1_1_c_a_f_e_v_d_b_1_1_traits.html#a1fe279ec39675001095beafdf178b811" target="_top" xlink:title="Create the full&#45;path for the sub&#45;folder corresponding to the given config key.">
<polygon fill="white" stroke="#666666" points="438,-96 313.25,-96 313.25,-76 438,-76 438,-96"/>
<text text-anchor="middle" x="375.62" y="-82.5" font-family="Helvetica,sans-Serif" font-size="10.00">getSharedSubFolderPath</text>
</a>
</g>
</g>
<!-- Node6&#45;&gt;Node7 -->
<g id="edge8_Node000006_Node000007" class="edge">
<title>Node6&#45;&gt;Node7</title>
<g id="a_edge8_Node000006_Node000007"><a xlink:title=" ">
<path fill="none" stroke="#63b8ff" d="M277.45,-86C285.28,-86 293.42,-86 301.52,-86"/>
<polygon fill="#63b8ff" stroke="#63b8ff" points="301.38,-89.5 311.38,-86 301.38,-82.5 301.38,-89.5"/>
</a>
</g>
</g>
<!-- Node8 -->
<g id="Node000008" class="node">
<title>Node8</title>
<g id="a_Node000008"><a xlink:href="namespace_o_c_a_1_1_c_a_f_e_v_d_b_1_1_traits.html#aa57ee6dad7c7f33cff6983ad79080946" target="_top" xlink:title="Get a possibly encrypted config value.">
<polygon fill="white" stroke="#666666" points="701.75,-96 619.75,-96 619.75,-76 701.75,-76 701.75,-96"/>
<text text-anchor="middle" x="660.75" y="-82.5" font-family="Helvetica,sans-Serif" font-size="10.00">getConfigValue</text>
</a>
</g>
</g>
<!-- Node7&#45;&gt;Node8 -->
<g id="edge9_Node000007_Node000008" class="edge">
<title>Node7&#45;&gt;Node8</title>
<g id="a_edge9_Node000007_Node000008"><a xlink:title=" ">
<path fill="none" stroke="#63b8ff" d="M438.41,-86C489.21,-86 560.38,-86 608.17,-86"/>
<polygon fill="#63b8ff" stroke="#63b8ff" points="607.98,-89.5 617.98,-86 607.98,-82.5 607.98,-89.5"/>
</a>
</g>
</g>
<!-- Node7&#45;&gt;Node9 -->
<g id="edge11_Node000007_Node000009" class="edge">
<title>Node7&#45;&gt;Node9</title>
<g id="a_edge11_Node000007_Node000009"><a xlink:title=" ">
<path fill="none" stroke="#63b8ff" d="M418.04,-75.52C435.52,-71.09 456.06,-65.89 474.56,-61.21"/>
<polygon fill="#63b8ff" stroke="#63b8ff" points="475.16,-64.67 484,-58.82 473.45,-57.88 475.16,-64.67"/>
</a>
</g>
</g>
<!-- Node8&#45;&gt;Node3 -->
<g id="edge10_Node000008_Node000003" class="edge">
<title>Node8&#45;&gt;Node3</title>
<g id="a_edge10_Node000008_Node000003"><a xlink:title=" ">
<path fill="none" stroke="#63b8ff" d="M693.44,-96.48C706.13,-100.68 720.92,-105.57 734.48,-110.06"/>
<polygon fill="#63b8ff" stroke="#63b8ff" points="733,-113.26 743.6,-113.07 735.2,-106.61 733,-113.26"/>
</a>
</g>
</g>
<!-- Node9&#45;&gt;Node8 -->
<g id="edge12_Node000009_Node000008" class="edge">
<title>Node9&#45;&gt;Node8</title>
<g id="a_edge12_Node000009_Node000008"><a xlink:title=" ">
<path fill="none" stroke="#63b8ff" d="M564.89,-58.48C579.78,-62.8 597.23,-67.86 613.07,-72.46"/>
<polygon fill="#63b8ff" stroke="#63b8ff" points="611.69,-75.7 622.27,-75.13 613.64,-68.98 611.69,-75.7"/>
</a>
</g>
</g>
<!-- Node10&#45;&gt;Node3 -->
<g id="edge15_Node000010_Node000003" class="edge">
<title>Node10&#45;&gt;Node3</title>
<g id="a_edge15_Node000010_Node000003"><a xlink:title=" ">
<path fill="none" stroke="#63b8ff" d="M258.61,-5.84C342.85,1.98 554.16,11.6 704,-67 724.03,-77.51 744.04,-93.75 757.97,-106.21"/>
<polygon fill="#63b8ff" stroke="#63b8ff" points="755.34,-108.54 765.07,-112.73 760.07,-103.39 755.34,-108.54"/>
</a>
</g>
</g>
</g>
</svg>
