<?xml version="1.0" encoding="UTF-8" standalone="no"?>
<!DOCTYPE svg PUBLIC "-//W3C//DTD SVG 1.1//EN"
 "http://www.w3.org/Graphics/SVG/1.1/DTD/svg11.dtd">
<!-- Generated by graphviz version 9.0.0 (20230911.1827)
 -->
<!-- Title: getFinanceFolderPath Pages: 1 -->
<svg width="466pt" height="104pt"
 viewBox="0.00 0.00 466.25 104.00" xmlns="http://www.w3.org/2000/svg" xmlns:xlink="http://www.w3.org/1999/xlink">

<svg id="main" version="1.1" xmlns="http://www.w3.org/2000/svg" xmlns:xlink="http://www.w3.org/1999/xlink" xml:space="preserve" onload="init(evt)">
<style type="text/css"><![CDATA[
.node, .edge {opacity: 0.7;}
.node.selected, .edge.selected {opacity: 1;}
.edge:hover path { stroke: red; }
.edge:hover polygon { stroke: red; fill: red; }
]]></style>
<script type="application/ecmascript" xlink:href="svg.min.js"/>
<svg id="graph" class="graph">
<g id="graph0" class="graph" transform="scale(1 1) rotate(0) translate(4 100)">
<title>getFinanceFolderPath</title>
<!-- Node1 -->
<g id="Node000001" class="node">
<title>Node1</title>
<g id="a_Node000001"><a xlink:title=" ">
<polygon fill="#999999" stroke="#666666" points="458.25,-58 347,-58 347,-38 458.25,-38 458.25,-58"/>
<text text-anchor="middle" x="402.62" y="-44.5" font-family="Helvetica,sans-Serif" font-size="10.00">getFinanceFolderPath</text>
</a>
</g>
</g>
<!-- Node2 -->
<g id="Node000002" class="node">
<title>Node2</title>
<g id="a_Node000002"><a xlink:href="namespace_o_c_a_1_1_c_a_f_e_v_d_b_1_1_traits.html#a96fbb9c63c9b6d8451834c182a7484b9" target="_top" xlink:title=" ">
<polygon fill="white" stroke="#666666" points="310.62,-96 182.12,-96 182.12,-76 310.62,-76 310.62,-96"/>
<text text-anchor="middle" x="246.38" y="-82.5" font-family="Helvetica,sans-Serif" font-size="10.00">getBankTransactionsPath</text>
</a>
</g>
</g>
<!-- Node1&#45;&gt;Node2 -->
<g id="edge1_Node000001_Node000002" class="edge">
<title>Node1&#45;&gt;Node2</title>
<g id="a_edge1_Node000001_Node000002"><a xlink:title=" ">
<path fill="none" stroke="#63b8ff" d="M348.12,-61.18C329.04,-65.88 307.82,-71.11 289.79,-75.55"/>
<polygon fill="#63b8ff" stroke="#63b8ff" points="348.73,-64.64 357.6,-58.85 347.05,-57.84 348.73,-64.64"/>
</a>
</g>
</g>
<!-- Node3 -->
<g id="Node000003" class="node">
<title>Node3</title>
<g id="a_Node000003"><a xlink:href="namespace_o_c_a_1_1_c_a_f_e_v_d_b_1_1_traits.html#aa0764db1b1533db78bb2f515fad6f25a" target="_top" xlink:title=" ">
<polygon fill="white" stroke="#666666" points="311,-58 181.75,-58 181.75,-38 311,-38 311,-58"/>
<text text-anchor="middle" x="246.38" y="-44.5" font-family="Helvetica,sans-Serif" font-size="10.00">getFinancialBalancesPath</text>
</a>
</g>
</g>
<!-- Node1&#45;&gt;Node3 -->
<g id="edge2_Node000001_Node000003" class="edge">
<title>Node1&#45;&gt;Node3</title>
<g id="a_edge2_Node000001_Node000003"><a xlink:title=" ">
<path fill="none" stroke="#63b8ff" d="M335.36,-48C327.45,-48 319.38,-48 311.5,-48"/>
<polygon fill="#63b8ff" stroke="#63b8ff" points="335.29,-51.5 345.29,-48 335.29,-44.5 335.29,-51.5"/>
</a>
</g>
</g>
<!-- Node5 -->
<g id="Node000005" class="node">
<title>Node5</title>
<g id="a_Node000005"><a xlink:href="namespace_o_c_a_1_1_c_a_f_e_v_d_b_1_1_traits.html#ab75c56fd73f62d264749cb114869e61f" target="_top" xlink:title=" ">
<polygon fill="white" stroke="#666666" points="302.38,-20 190.38,-20 190.38,0 302.38,0 302.38,-20"/>
<text text-anchor="middle" x="246.38" y="-6.5" font-family="Helvetica,sans-Serif" font-size="10.00">getTaxAuthoritiesPath</text>
</a>
</g>
</g>
<!-- Node1&#45;&gt;Node5 -->
<g id="edge4_Node000001_Node000005" class="edge">
<title>Node1&#45;&gt;Node5</title>
<g id="a_edge4_Node000001_Node000005"><a xlink:title=" ">
<path fill="none" stroke="#63b8ff" d="M348.12,-34.82C329.04,-30.12 307.82,-24.89 289.79,-20.45"/>
<polygon fill="#63b8ff" stroke="#63b8ff" points="347.05,-38.16 357.6,-37.15 348.73,-31.36 347.05,-38.16"/>
</a>
</g>
</g>
<!-- Node4 -->
<g id="Node000004" class="node">
<title>Node4</title>
<g id="a_Node000004"><a xlink:href="namespace_o_c_a_1_1_c_a_f_e_v_d_b_1_1_traits.html#a50bd1326b527dbc5a86f52520df9b930" target="_top" xlink:title=" ">
<polygon fill="white" stroke="#666666" points="133.38,-58 12.38,-58 12.38,-38 133.38,-38 133.38,-58"/>
<text text-anchor="middle" x="72.88" y="-44.5" font-family="Helvetica,sans-Serif" font-size="10.00">getProjectBalancesPath</text>
</a>
</g>
</g>
<!-- Node3&#45;&gt;Node4 -->
<g id="edge3_Node000003_Node000004" class="edge">
<title>Node3&#45;&gt;Node4</title>
<g id="a_edge3_Node000003_Node000004"><a xlink:title=" ">
<path fill="none" stroke="#63b8ff" d="M170.02,-48C157.9,-48 145.5,-48 133.81,-48"/>
<polygon fill="#63b8ff" stroke="#63b8ff" points="170,-51.5 180,-48 170,-44.5 170,-51.5"/>
</a>
</g>
</g>
<!-- Node6 -->
<g id="Node000006" class="node">
<title>Node6</title>
<g id="a_Node000006"><a xlink:href="namespace_o_c_a_1_1_c_a_f_e_v_d_b_1_1_traits.html#a902ebc003b3dd89af022973166d54d48" target="_top" xlink:title=" ">
<polygon fill="white" stroke="#666666" points="145.75,-20 0,-20 0,0 145.75,0 145.75,-20"/>
<text text-anchor="middle" x="72.88" y="-6.5" font-family="Helvetica,sans-Serif" font-size="10.00">getTaxExemptionNoticesPath</text>
</a>
</g>
</g>
<!-- Node5&#45;&gt;Node6 -->
<g id="edge5_Node000005_Node000006" class="edge">
<title>Node5&#45;&gt;Node6</title>
<g id="a_edge5_Node000005_Node000006"><a xlink:title=" ">
<path fill="none" stroke="#63b8ff" d="M178.78,-10C168.1,-10 157,-10 146.2,-10"/>
<polygon fill="#63b8ff" stroke="#63b8ff" points="178.65,-13.5 188.65,-10 178.65,-6.5 178.65,-13.5"/>
</a>
</g>
</g>
</g>
</svg>
</svg>

<style type='text/css'>
<![CDATA[
[data-mouse-over-selected='false'] { opacity: 0.7; }
[data-mouse-over-selected='true']  { opacity: 1.0; }
]]>
</style>
<script type="application/ecmascript"><![CDATA[
document.addEventListener('DOMContentLoaded', (event) => {
  highlightEdges();
  highlightAdjacentNodes();
});
]]></script>
</svg>
