<?xml version="1.0" encoding="UTF-8" standalone="no"?>
<!DOCTYPE svg PUBLIC "-//W3C//DTD SVG 1.1//EN"
 "http://www.w3.org/Graphics/SVG/1.1/DTD/svg11.dtd">
<!-- Generated by graphviz version 7.1.0 (20230121.1956)
 -->
<!-- Title: AbstractUndoable Pages: 1 -->
<svg width="741pt" height="212pt"
 viewBox="0.00 0.00 741.00 212.00" xmlns="http://www.w3.org/2000/svg" xmlns:xlink="http://www.w3.org/1999/xlink">
<g id="graph0" class="graph" transform="scale(1 1) rotate(0) translate(4 208)">
<title>AbstractUndoable</title>
<!-- Node1 -->
<g id="node1" class="node">
<title>Node1</title>
<g id="a_node1"><a xlink:title="Default implementation for some methods.">
<polygon fill="#999999" stroke="#666666" points="192,-92 97,-92 97,-73 192,-73 192,-92"/>
<text text-anchor="middle" x="144.5" y="-80" font-family="Helvetica,sans-Serif" font-size="10.00">AbstractUndoable</text>
</a>
</g>
</g>
<!-- Node3 -->
<g id="node3" class="node">
<title>Node3</title>
<g id="a_node3"><a xlink:href="class_o_c_a_1_1_c_a_f_e_v_d_b_1_1_common_1_1_abstract_file_system_undoable.html" target="_top" xlink:title="Base for file&#45;system related IUndoable implementations.">
<polygon fill="white" stroke="#666666" points="372,-111 228,-111 228,-92 372,-92 372,-111"/>
<text text-anchor="middle" x="300" y="-99" font-family="Helvetica,sans-Serif" font-size="10.00">AbstractFileSystemUndoable</text>
</a>
</g>
</g>
<!-- Node1&#45;&gt;Node3 -->
<g id="edge2" class="edge">
<title>Node1&#45;&gt;Node3</title>
<path fill="none" stroke="#63b8ff" d="M203.6,-89.69C211.42,-90.66 219.51,-91.66 227.52,-92.65"/>
<polygon fill="#63b8ff" stroke="#63b8ff" points="204.25,-86.24 193.89,-88.49 203.39,-93.19 204.25,-86.24"/>
</g>
<!-- Node12 -->
<g id="node12" class="node">
<title>Node12</title>
<g id="a_node12"><a xlink:href="class_o_c_a_1_1_c_a_f_e_v_d_b_1_1_common_1_1_generic_undoable.html" target="_top" xlink:title="Simplistic do&#45;undo interface in order to be stacked into a do&#45;undo&#45;list.">
<polygon fill="white" stroke="#666666" points="346,-74 254,-74 254,-55 346,-55 346,-74"/>
<text text-anchor="middle" x="300" y="-62" font-family="Helvetica,sans-Serif" font-size="10.00">GenericUndoable</text>
</a>
</g>
</g>
<!-- Node1&#45;&gt;Node12 -->
<g id="edge11" class="edge">
<title>Node1&#45;&gt;Node12</title>
<path fill="none" stroke="#63b8ff" d="M203.63,-75.68C220.21,-73.74 238.02,-71.65 253.71,-69.81"/>
<polygon fill="#63b8ff" stroke="#63b8ff" points="203.42,-72.18 193.89,-76.83 204.23,-79.14 203.42,-72.18"/>
</g>
<!-- Node2 -->
<g id="node2" class="node">
<title>Node2</title>
<g id="a_node2"><a xlink:href="interface_o_c_a_1_1_c_a_f_e_v_d_b_1_1_common_1_1_i_undoable.html" target="_top" xlink:title="Simplistic do&#45;undo interface in order to be stacked into a do&#45;undo&#45;list.">
<polygon fill="white" stroke="#666666" points="61,-92 0,-92 0,-73 61,-73 61,-92"/>
<text text-anchor="middle" x="30.5" y="-80" font-family="Helvetica,sans-Serif" font-size="10.00">IUndoable</text>
</a>
</g>
</g>
<!-- Node2&#45;&gt;Node1 -->
<g id="edge1" class="edge">
<title>Node2&#45;&gt;Node1</title>
<path fill="none" stroke="#63b8ff" d="M72.69,-82.5C80.51,-82.5 88.75,-82.5 96.73,-82.5"/>
<polygon fill="#63b8ff" stroke="#63b8ff" points="72.73,-79 62.73,-82.5 72.73,-86 72.73,-79"/>
</g>
<!-- Node4 -->
<g id="node4" class="node">
<title>Node4</title>
<g id="a_node4"><a xlink:href="class_o_c_a_1_1_c_a_f_e_v_d_b_1_1_common_1_1_undoable_file_rename.html" target="_top" xlink:title="Rename the given paths.">
<polygon fill="white" stroke="#666666" points="546.5,-204 436.5,-204 436.5,-185 546.5,-185 546.5,-204"/>
<text text-anchor="middle" x="491.5" y="-192" font-family="Helvetica,sans-Serif" font-size="10.00">UndoableFileRename</text>
</a>
</g>
</g>
<!-- Node3&#45;&gt;Node4 -->
<g id="edge3" class="edge">
<title>Node3&#45;&gt;Node4</title>
<path fill="none" stroke="#63b8ff" d="M320.61,-118.9C341.03,-136.09 374.64,-161.88 408,-176.5 416.86,-180.38 426.64,-183.46 436.27,-185.89"/>
<polygon fill="#63b8ff" stroke="#63b8ff" points="322.97,-116.31 313.1,-112.44 318.4,-121.62 322.97,-116.31"/>
</g>
<!-- Node5 -->
<g id="node5" class="node">
<title>Node5</title>
<g id="a_node5"><a xlink:href="class_o_c_a_1_1_c_a_f_e_v_d_b_1_1_common_1_1_undoable_file_replace.html" target="_top" xlink:title="Replace one file by another, maintaining an undo history in the cloud.">
<polygon fill="white" stroke="#666666" points="546.5,-167 436.5,-167 436.5,-148 546.5,-148 546.5,-167"/>
<text text-anchor="middle" x="491.5" y="-155" font-family="Helvetica,sans-Serif" font-size="10.00">UndoableFileReplace</text>
</a>
</g>
</g>
<!-- Node3&#45;&gt;Node5 -->
<g id="edge4" class="edge">
<title>Node3&#45;&gt;Node5</title>
<path fill="none" stroke="#63b8ff" d="M337.89,-115.35C358.37,-122.76 384.41,-131.73 408,-138.5 419.3,-141.75 431.6,-144.82 443.16,-147.51"/>
<polygon fill="#63b8ff" stroke="#63b8ff" points="339.15,-112.08 328.56,-111.93 336.75,-118.65 339.15,-112.08"/>
</g>
<!-- Node6 -->
<g id="node6" class="node">
<title>Node6</title>
<g id="a_node6"><a xlink:href="class_o_c_a_1_1_c_a_f_e_v_d_b_1_1_common_1_1_undoable_file_system_node_remove.html" target="_top" xlink:title="Remove the given path which may either point to a file or folder.">
<polygon fill="white" stroke="#666666" points="575,-130 408,-130 408,-111 575,-111 575,-130"/>
<text text-anchor="middle" x="491.5" y="-118" font-family="Helvetica,sans-Serif" font-size="10.00">UndoableFileSystemNodeRemove</text>
</a>
</g>
</g>
<!-- Node3&#45;&gt;Node6 -->
<g id="edge5" class="edge">
<title>Node3&#45;&gt;Node6</title>
<path fill="none" stroke="#63b8ff" d="M383.59,-109.78C391.6,-110.58 399.72,-111.4 407.73,-112.2"/>
<polygon fill="#63b8ff" stroke="#63b8ff" points="384.18,-106.32 373.88,-108.81 383.48,-113.29 384.18,-106.32"/>
</g>
<!-- Node9 -->
<g id="node9" class="node">
<title>Node9</title>
<g id="a_node9"><a xlink:href="class_o_c_a_1_1_c_a_f_e_v_d_b_1_1_common_1_1_undoable_folder_create.html" target="_top" xlink:title="Create the given path as folder, remove the directory when undo is requested.">
<polygon fill="white" stroke="#666666" points="548.5,-93 434.5,-93 434.5,-74 548.5,-74 548.5,-93"/>
<text text-anchor="middle" x="491.5" y="-81" font-family="Helvetica,sans-Serif" font-size="10.00">UndoableFolderCreate</text>
</a>
</g>
</g>
<!-- Node3&#45;&gt;Node9 -->
<g id="edge8" class="edge">
<title>Node3&#45;&gt;Node9</title>
<path fill="none" stroke="#63b8ff" d="M383.53,-93.66C400.66,-92.03 418.33,-90.36 434.25,-88.84"/>
<polygon fill="#63b8ff" stroke="#63b8ff" points="383.5,-90.15 373.88,-94.58 384.16,-97.12 383.5,-90.15"/>
</g>
<!-- Node10 -->
<g id="node10" class="node">
<title>Node10</title>
<g id="a_node10"><a xlink:href="class_o_c_a_1_1_c_a_f_e_v_d_b_1_1_common_1_1_undoable_folder_rename.html" target="_top" xlink:title="Rename the given paths.">
<polygon fill="white" stroke="#666666" points="552.5,-56 430.5,-56 430.5,-37 552.5,-37 552.5,-56"/>
<text text-anchor="middle" x="491.5" y="-44" font-family="Helvetica,sans-Serif" font-size="10.00">UndoableFolderRename</text>
</a>
</g>
</g>
<!-- Node3&#45;&gt;Node10 -->
<g id="edge9" class="edge">
<title>Node3&#45;&gt;Node10</title>
<path fill="none" stroke="#63b8ff" d="M354.53,-88.42C360.48,-86.6 366.41,-84.62 372,-82.5 388.73,-76.16 391.13,-70.45 408,-64.5 416.85,-61.38 426.43,-58.69 435.82,-56.42"/>
<polygon fill="#63b8ff" stroke="#63b8ff" points="353.95,-84.95 345.32,-91.1 355.9,-91.67 353.95,-84.95"/>
</g>
<!-- Node11 -->
<g id="node11" class="node">
<title>Node11</title>
<g id="a_node11"><a xlink:href="class_o_c_a_1_1_c_a_f_e_v_d_b_1_1_common_1_1_undoable_text_file_update.html" target="_top" xlink:title="Update the content of the given text&#45;file with the given content.">
<polygon fill="white" stroke="#666666" points="553.5,-19 429.5,-19 429.5,0 553.5,0 553.5,-19"/>
<text text-anchor="middle" x="491.5" y="-7" font-family="Helvetica,sans-Serif" font-size="10.00">UndoableTextFileUpdate</text>
</a>
</g>
</g>
<!-- Node3&#45;&gt;Node11 -->
<g id="edge10" class="edge">
<title>Node3&#45;&gt;Node11</title>
<path fill="none" stroke="#63b8ff" d="M365.53,-86.63C367.77,-85.36 369.94,-83.99 372,-82.5 395.67,-65.37 383.94,-44.07 408,-27.5 414.4,-23.09 421.69,-19.74 429.22,-17.19"/>
<polygon fill="#63b8ff" stroke="#63b8ff" points="364.15,-83.41 356.62,-90.86 367.16,-89.73 364.15,-83.41"/>
</g>
<!-- Node7 -->
<g id="node7" class="node">
<title>Node7</title>
<g id="a_node7"><a xlink:href="class_o_c_a_1_1_c_a_f_e_v_d_b_1_1_common_1_1_undoable_file_remove.html" target="_top" xlink:title="Remove the given node, which must be a regular file.">
<polygon fill="white" stroke="#666666" points="727,-148 617,-148 617,-129 727,-129 727,-148"/>
<text text-anchor="middle" x="672" y="-136" font-family="Helvetica,sans-Serif" font-size="10.00">UndoableFileRemove</text>
</a>
</g>
</g>
<!-- Node6&#45;&gt;Node7 -->
<g id="edge6" class="edge">
<title>Node6&#45;&gt;Node7</title>
<path fill="none" stroke="#63b8ff" d="M586.92,-130.02C597.05,-131.04 607.09,-132.06 616.52,-133.01"/>
<polygon fill="#63b8ff" stroke="#63b8ff" points="587.29,-126.54 576.99,-129.02 586.58,-133.51 587.29,-126.54"/>
</g>
<!-- Node8 -->
<g id="node8" class="node">
<title>Node8</title>
<g id="a_node8"><a xlink:href="class_o_c_a_1_1_c_a_f_e_v_d_b_1_1_common_1_1_undoable_folder_remove.html" target="_top" xlink:title="Remove the given node, which must be a folder.">
<polygon fill="white" stroke="#666666" points="733,-111 611,-111 611,-92 733,-92 733,-111"/>
<text text-anchor="middle" x="672" y="-99" font-family="Helvetica,sans-Serif" font-size="10.00">UndoableFolderRemove</text>
</a>
</g>
</g>
<!-- Node6&#45;&gt;Node8 -->
<g id="edge7" class="edge">
<title>Node6&#45;&gt;Node8</title>
<path fill="none" stroke="#63b8ff" d="M586.87,-110.45C594.92,-109.6 602.92,-108.75 610.59,-107.93"/>
<polygon fill="#63b8ff" stroke="#63b8ff" points="586.56,-106.97 576.98,-111.51 587.3,-113.93 586.56,-106.97"/>
</g>
</g>
</svg>
