<?xml version="1.0" encoding="UTF-8" standalone="no"?>
<!DOCTYPE svg PUBLIC "-//W3C//DTD SVG 1.1//EN"
 "http://www.w3.org/Graphics/SVG/1.1/DTD/svg11.dtd">
<!-- Generated by graphviz version 7.1.0 (20230121.1956)
 -->
<!-- Title: offsetGet Pages: 1 -->
<svg width="331pt" height="121pt"
 viewBox="0.00 0.00 331.00 121.00" xmlns="http://www.w3.org/2000/svg" xmlns:xlink="http://www.w3.org/1999/xlink">
<g id="graph0" class="graph" transform="scale(1 1) rotate(0) translate(4 117)">
<title>offsetGet</title>
<!-- Node1 -->
<g id="node1" class="node">
<title>Node1</title>
<g id="a_node1"><a xlink:title="{}">
<polygon fill="#999999" stroke="#666666" points="57,-75 0,-75 0,-56 57,-56 57,-75"/>
<text text-anchor="middle" x="28.5" y="-63" font-family="Helvetica,sans-Serif" font-size="10.00">offsetGet</text>
</a>
</g>
</g>
<!-- Node2 -->
<g id="node2" class="node">
<title>Node2</title>
<g id="a_node2"><a xlink:href="class_o_c_a_1_1_c_a_f_e_v_d_b_1_1_service_1_1_tool_tips_service.html#afa7ed4ea9907527ec2359bd5e03e6bfc" target="_top" xlink:title="Return a translated tool&#45;tip for the given key.">
<polygon fill="white" stroke="#666666" points="131,-75 93,-75 93,-56 131,-56 131,-75"/>
<text text-anchor="middle" x="112" y="-63" font-family="Helvetica,sans-Serif" font-size="10.00">fetch</text>
</a>
</g>
</g>
<!-- Node1&#45;&gt;Node2 -->
<g id="edge1" class="edge">
<title>Node1&#45;&gt;Node2</title>
<path fill="none" stroke="#63b8ff" d="M57.09,-65.5C64.94,-65.5 73.52,-65.5 81.48,-65.5"/>
<polygon fill="#63b8ff" stroke="#63b8ff" points="81.4,-69 91.4,-65.5 81.4,-62 81.4,-69"/>
</g>
<!-- Node3 -->
<g id="node3" class="node">
<title>Node3</title>
<g id="a_node3"><a xlink:href="class_o_c_a_1_1_c_a_f_e_v_d_b_1_1_service_1_1_tool_tips_service.html#ac751e87b3d4c4bf2feb03bee8b092755" target="_top" xlink:title="{}">
<polygon fill="white" stroke="#666666" points="209,-113 168,-113 168,-94 209,-94 209,-113"/>
<text text-anchor="middle" x="188.5" y="-101" font-family="Helvetica,sans-Serif" font-size="10.00">count</text>
</a>
</g>
</g>
<!-- Node2&#45;&gt;Node3 -->
<g id="edge2" class="edge">
<title>Node2&#45;&gt;Node3</title>
<path fill="none" stroke="#63b8ff" d="M131.42,-74.89C139.41,-78.97 148.97,-83.84 157.91,-88.41"/>
<polygon fill="#63b8ff" stroke="#63b8ff" points="156.15,-91.44 166.65,-92.86 159.33,-85.2 156.15,-91.44"/>
</g>
<!-- Node4 -->
<g id="node4" class="node">
<title>Node4</title>
<g id="a_node4"><a xlink:href="class_o_c_a_1_1_c_a_f_e_v_d_b_1_1_service_1_1_tool_tips_service.html#a756eeee725ffd84485bfe9511e135f37" target="_top" xlink:title="Generate the tooltips&#45;data.">
<polygon fill="white" stroke="#666666" points="323,-94 246,-94 246,-75 323,-75 323,-94"/>
<text text-anchor="middle" x="284.5" y="-82" font-family="Helvetica,sans-Serif" font-size="10.00">makeToolTips</text>
</a>
</g>
</g>
<!-- Node2&#45;&gt;Node4 -->
<g id="edge6" class="edge">
<title>Node2&#45;&gt;Node4</title>
<path fill="none" stroke="#63b8ff" d="M131.25,-67.53C155.64,-70.25 199.79,-75.17 234.29,-79.02"/>
<polygon fill="#63b8ff" stroke="#63b8ff" points="233.75,-82.48 244.08,-80.11 234.53,-75.52 233.75,-82.48"/>
</g>
<!-- Node5 -->
<g id="node5" class="node">
<title>Node5</title>
<g id="a_node5"><a xlink:href="class_o_c_a_1_1_c_a_f_e_v_d_b_1_1_service_1_1_tool_tips_service.html#a03641a16d883fe0d2f875c96b65a4216" target="_top" xlink:title="Enable debug&#45;messages.">
<polygon fill="white" stroke="#666666" points="210,-19 167,-19 167,0 210,0 210,-19"/>
<text text-anchor="middle" x="188.5" y="-7" font-family="Helvetica,sans-Serif" font-size="10.00">debug</text>
</a>
</g>
</g>
<!-- Node2&#45;&gt;Node5 -->
<g id="edge4" class="edge">
<title>Node2&#45;&gt;Node5</title>
<path fill="none" stroke="#63b8ff" d="M125.98,-55.75C136.81,-47.6 152.49,-35.82 165.3,-26.18"/>
<polygon fill="#63b8ff" stroke="#63b8ff" points="167.32,-29.05 173.21,-20.24 163.12,-23.45 167.32,-29.05"/>
</g>
<!-- Node3&#45;&gt;Node4 -->
<g id="edge3" class="edge">
<title>Node3&#45;&gt;Node4</title>
<path fill="none" stroke="#63b8ff" d="M209.43,-99.47C216.86,-97.97 225.66,-96.19 234.55,-94.4"/>
<polygon fill="#63b8ff" stroke="#63b8ff" points="235.17,-97.84 244.27,-92.43 233.78,-90.98 235.17,-97.84"/>
</g>
<!-- Node5&#45;&gt;Node5 -->
<g id="edge5" class="edge">
<title>Node5&#45;&gt;Node5</title>
<path fill="none" stroke="#63b8ff" d="M176.52,-19.37C171.06,-27.94 175.05,-37 188.5,-37 195.64,-37 200.12,-34.44 201.93,-30.76"/>
<polygon fill="#63b8ff" stroke="#63b8ff" points="205.4,-30.35 200.67,-20.87 198.46,-31.23 205.4,-30.35"/>
</g>
</g>
</svg>
