<?xml version="1.0" encoding="UTF-8" standalone="no"?>
<!DOCTYPE svg PUBLIC "-//W3C//DTD SVG 1.1//EN"
 "http://www.w3.org/Graphics/SVG/1.1/DTD/svg11.dtd">
<!-- Generated by graphviz version 7.1.0 (20230121.1956)
 -->
<!-- Title: DatabaseException Pages: 1 -->
<!--zoomable 321 -->
<svg id="main" version="1.1" xmlns="http://www.w3.org/2000/svg" xmlns:xlink="http://www.w3.org/1999/xlink" xml:space="preserve" onload="init(evt)">
<style type="text/css"><![CDATA[
.edge:hover path { stroke: red; }
.edge:hover polygon { stroke: red; fill: red; }
]]></style>
<script type="text/javascript"><![CDATA[
var edges = document.getElementsByTagName('g');
if (edges && edges.length) {
  for (var i=0;i<edges.length;i++) {
    if (edges[i].id.substr(0,4)=='edge') {
      edges[i].setAttribute('class','edge');
    }
  }
}
]]></script>
        <defs>
                <circle id="rim" cx="0" cy="0" r="7"/>
                <circle id="rim2" cx="0" cy="0" r="3.5"/>
                <g id="zoomPlus">
                        <use xlink:href="#rim" fill="#404040">
                                <set attributeName="fill" to="#808080" begin="zoomplus.mouseover" end="zoomplus.mouseout"/>
                        </use>
                        <path d="M-4,0h8M0,-4v8" fill="none" stroke="white" stroke-width="1.5" pointer-events="none"/>
                </g>
                <g id="zoomMin">
                        <use xlink:href="#rim" fill="#404040">
                                <set attributeName="fill" to="#808080" begin="zoomminus.mouseover" end="zoomminus.mouseout"/>
                        </use>
                        <path d="M-4,0h8" fill="none" stroke="white" stroke-width="1.5" pointer-events="none"/>
                </g>
                <g id="dirArrow">
                        <path fill="none" stroke="white" stroke-width="1.5" d="M0,-3.0v7 M-2.5,-0.5L0,-3.0L2.5,-0.5"/>
                </g>
               <g id="resetDef">
                       <use xlink:href="#rim2" fill="#404040">
                               <set attributeName="fill" to="#808080" begin="reset.mouseover" end="reset.mouseout"/>
                       </use>
               </g>
        </defs>

<script type="text/javascript">
var viewWidth = 533;
var viewHeight = 321;
var sectionId = 'dynsection-0';
</script>
<script xlink:href="svgpan.js"/>
<svg id="graph" class="graph">
<g id="viewport">
<title>DatabaseException</title>
<!-- Node1 -->
<g id="node1" class="node">
<title>Node1</title>
<g id="a_node1"><a xlink:title="Base&#45;class for database exceptions.">
<polygon fill="#999999" stroke="#666666" points="315,-162.5 213,-162.5 213,-143.5 315,-143.5 315,-162.5"/>
<text text-anchor="middle" x="264" y="-150.5" font-family="Helvetica,sans-Serif" font-size="10.00">DatabaseException</text>
</a>
</g>
</g>
<!-- Node4 -->
<g id="node4" class="node">
<title>Node4</title>
<g id="a_node4"><a xlink:href="class_o_c_a_1_1_c_a_f_e_v_d_b_1_1_exceptions_1_1_database_cloud_connector_view_exception.html" target="_top" xlink:title="Thrown during generation of the cloud&#45;user connector views.">
<polygon fill="white" stroke="#666666" points="513.5,-313 362.5,-313 362.5,-283 513.5,-283 513.5,-313"/>
<text text-anchor="start" x="370.5" y="-301" font-family="Helvetica,sans-Serif" font-size="10.00">DatabaseCloudConnectorView</text>
<text text-anchor="middle" x="438" y="-290" font-family="Helvetica,sans-Serif" font-size="10.00">Exception</text>
</a>
</g>
</g>
<!-- Node1&#45;&gt;Node4 -->
<g id="edge3" class="edge">
<title>Node1&#45;&gt;Node4</title>
<path fill="none" stroke="#63b8ff" d="M273.91,-173.08C286.93,-200.11 313.73,-247.81 351,-274 355.69,-277.3 360.83,-280.14 366.17,-282.6"/>
<polygon fill="#63b8ff" stroke="#63b8ff" points="277.2,-171.86 269.82,-164.26 270.85,-174.8 277.2,-171.86"/>
</g>
<!-- Node5 -->
<g id="node5" class="node">
<title>Node5</title>
<g id="a_node5"><a xlink:href="class_o_c_a_1_1_c_a_f_e_v_d_b_1_1_exceptions_1_1_database_entity_not_found_exception.html" target="_top" xlink:title="Thrown if an entity could not be found.">
<polygon fill="white" stroke="#666666" points="523,-264.5 353,-264.5 353,-245.5 523,-245.5 523,-264.5"/>
<text text-anchor="middle" x="438" y="-252.5" font-family="Helvetica,sans-Serif" font-size="10.00">DatabaseEntityNotFoundException</text>
</a>
</g>
</g>
<!-- Node1&#45;&gt;Node5 -->
<g id="edge4" class="edge">
<title>Node1&#45;&gt;Node5</title>
<path fill="none" stroke="#63b8ff" d="M279.02,-171.99C294.44,-191.44 321.05,-221.02 351,-237 357.06,-240.23 363.64,-242.88 370.38,-245.06"/>
<polygon fill="#63b8ff" stroke="#63b8ff" points="281.8,-169.87 272.94,-164.07 276.25,-174.13 281.8,-169.87"/>
</g>
<!-- Node6 -->
<g id="node6" class="node">
<title>Node6</title>
<g id="a_node6"><a xlink:href="class_o_c_a_1_1_c_a_f_e_v_d_b_1_1_exceptions_1_1_database_entity_not_unique_exception.html" target="_top" xlink:title="Thrown if more than one entity is found when there should be only one.">
<polygon fill="white" stroke="#666666" points="525,-227.5 351,-227.5 351,-208.5 525,-208.5 525,-227.5"/>
<text text-anchor="middle" x="438" y="-215.5" font-family="Helvetica,sans-Serif" font-size="10.00">DatabaseEntityNotUniqueException</text>
</a>
</g>
</g>
<!-- Node1&#45;&gt;Node6 -->
<g id="edge5" class="edge">
<title>Node1&#45;&gt;Node6</title>
<path fill="none" stroke="#63b8ff" d="M289.81,-168.62C306.54,-178.56 329.43,-191.02 351,-199 360.61,-202.55 371.08,-205.55 381.3,-208.03"/>
<polygon fill="#63b8ff" stroke="#63b8ff" points="291.91,-165.8 281.54,-163.61 288.27,-171.79 291.91,-165.8"/>
</g>
<!-- Node7 -->
<g id="node7" class="node">
<title>Node7</title>
<g id="a_node7"><a xlink:href="class_o_c_a_1_1_c_a_f_e_v_d_b_1_1_exceptions_1_1_database_inconsistent_value_exception.html" target="_top" xlink:title="Thrown if inconsistencies are detected.">
<polygon fill="white" stroke="#666666" points="506,-190 370,-190 370,-160 506,-160 506,-190"/>
<text text-anchor="start" x="378" y="-178" font-family="Helvetica,sans-Serif" font-size="10.00">DatabaseInconsistentValue</text>
<text text-anchor="middle" x="438" y="-167" font-family="Helvetica,sans-Serif" font-size="10.00">Exception</text>
</a>
</g>
</g>
<!-- Node1&#45;&gt;Node7 -->
<g id="edge6" class="edge">
<title>Node1&#45;&gt;Node7</title>
<path fill="none" stroke="#63b8ff" d="M326.28,-160.84C340.37,-162.64 355.44,-164.57 369.77,-166.4"/>
<polygon fill="#63b8ff" stroke="#63b8ff" points="327.08,-157.41 316.71,-159.61 326.19,-164.36 327.08,-157.41"/>
</g>
<!-- Node8 -->
<g id="node8" class="node">
<title>Node8</title>
<g id="a_node8"><a xlink:href="class_o_c_a_1_1_c_a_f_e_v_d_b_1_1_exceptions_1_1_database_invalid_field_exception.html" target="_top" xlink:title="Thrown if a field has an incompatible type for the operation.">
<polygon fill="white" stroke="#666666" points="514,-141.5 362,-141.5 362,-122.5 514,-122.5 514,-141.5"/>
<text text-anchor="middle" x="438" y="-129.5" font-family="Helvetica,sans-Serif" font-size="10.00">DatabaseInvalidFieldException</text>
</a>
</g>
</g>
<!-- Node1&#45;&gt;Node8 -->
<g id="edge7" class="edge">
<title>Node1&#45;&gt;Node8</title>
<path fill="none" stroke="#63b8ff" d="M326.42,-145.5C337.88,-144.1 349.97,-142.63 361.79,-141.18"/>
<polygon fill="#63b8ff" stroke="#63b8ff" points="326.22,-142 316.71,-146.69 327.06,-148.95 326.22,-142"/>
</g>
<!-- Node9 -->
<g id="node9" class="node">
<title>Node9</title>
<g id="a_node9"><a xlink:href="class_o_c_a_1_1_c_a_f_e_v_d_b_1_1_exceptions_1_1_database_migration_exception.html" target="_top" xlink:title="Thrown during database migrations.">
<polygon fill="white" stroke="#666666" points="509,-104.5 367,-104.5 367,-85.5 509,-85.5 509,-104.5"/>
<text text-anchor="middle" x="438" y="-92.5" font-family="Helvetica,sans-Serif" font-size="10.00">DatabaseMigrationException</text>
</a>
</g>
</g>
<!-- Node1&#45;&gt;Node9 -->
<g id="edge8" class="edge">
<title>Node1&#45;&gt;Node9</title>
<path fill="none" stroke="#63b8ff" d="M293.01,-137.98C309.51,-129.64 331,-119.65 351,-113 360.26,-109.92 370.27,-107.26 380.07,-104.99"/>
<polygon fill="#63b8ff" stroke="#63b8ff" points="291.58,-134.78 284.3,-142.47 294.79,-141 291.58,-134.78"/>
</g>
<!-- Node10 -->
<g id="node10" class="node">
<title>Node10</title>
<g id="a_node10"><a xlink:href="class_o_c_a_1_1_c_a_f_e_v_d_b_1_1_exceptions_1_1_database_readonly_exception.html" target="_top" xlink:title="Thrown when trying to mute data which should not be muted.">
<polygon fill="white" stroke="#666666" points="509.5,-67.5 366.5,-67.5 366.5,-48.5 509.5,-48.5 509.5,-67.5"/>
<text text-anchor="middle" x="438" y="-55.5" font-family="Helvetica,sans-Serif" font-size="10.00">DatabaseReadonlyException</text>
</a>
</g>
</g>
<!-- Node1&#45;&gt;Node10 -->
<g id="edge9" class="edge">
<title>Node1&#45;&gt;Node10</title>
<path fill="none" stroke="#63b8ff" d="M280.11,-134.77C295.92,-116.96 322.37,-90.48 351,-76 357.4,-72.76 364.34,-70.11 371.42,-67.93"/>
<polygon fill="#63b8ff" stroke="#63b8ff" points="277.73,-132.18 273.85,-142.04 283.03,-136.75 277.73,-132.18"/>
</g>
<!-- Node11 -->
<g id="node11" class="node">
<title>Node11</title>
<g id="a_node11"><a xlink:href="class_o_c_a_1_1_c_a_f_e_v_d_b_1_1_exceptions_1_1_database_transaction_not_active_exception.html" target="_top" xlink:title="Thrown when trying to fiddle with an active transaction but there is none.">
<polygon fill="white" stroke="#666666" points="514.5,-30 361.5,-30 361.5,0 514.5,0 514.5,-30"/>
<text text-anchor="start" x="369.5" y="-18" font-family="Helvetica,sans-Serif" font-size="10.00">DatabaseTransactionNotActive</text>
<text text-anchor="middle" x="438" y="-7" font-family="Helvetica,sans-Serif" font-size="10.00">Exception</text>
</a>
</g>
</g>
<!-- Node1&#45;&gt;Node11 -->
<g id="edge10" class="edge">
<title>Node1&#45;&gt;Node11</title>
<path fill="none" stroke="#63b8ff" d="M274.8,-132.98C288.37,-107.34 315.31,-63.33 351,-39 355.87,-35.68 361.18,-32.82 366.71,-30.35"/>
<polygon fill="#63b8ff" stroke="#63b8ff" points="271.78,-131.18 270.35,-141.68 278.02,-134.37 271.78,-131.18"/>
</g>
<!-- Node2 -->
<g id="node2" class="node">
<title>Node2</title>
<g id="a_node2"><a xlink:href="class_o_c_a_1_1_c_a_f_e_v_d_b_1_1_exceptions_1_1_exception.html" target="_top" xlink:title="General abstraction base&#45;class.">
<polygon fill="white" stroke="#666666" points="177,-162.5 117,-162.5 117,-143.5 177,-143.5 177,-162.5"/>
<text text-anchor="middle" x="147" y="-150.5" font-family="Helvetica,sans-Serif" font-size="10.00">Exception</text>
</a>
</g>
</g>
<!-- Node2&#45;&gt;Node1 -->
<g id="edge1" class="edge">
<title>Node2&#45;&gt;Node1</title>
<path fill="none" stroke="#63b8ff" d="M188.69,-153C196.47,-153 204.7,-153 212.74,-153"/>
<polygon fill="#63b8ff" stroke="#63b8ff" points="188.83,-149.5 178.83,-153 188.83,-156.5 188.83,-149.5"/>
</g>
<!-- Node3 -->
<g id="node3" class="node">
<title>Node3</title>
<g id="a_node3"><a xlink:title=" ">
<polygon fill="white" stroke="#bfbfbf" points="81,-162.5 0,-162.5 0,-143.5 81,-143.5 81,-162.5"/>
<text text-anchor="middle" x="40.5" y="-150.5" font-family="Helvetica,sans-Serif" font-size="10.00">CoreException</text>
</a>
</g>
</g>
<!-- Node3&#45;&gt;Node2 -->
<g id="edge2" class="edge">
<title>Node3&#45;&gt;Node2</title>
<path fill="none" stroke="#63b8ff" d="M92.8,-153C101.01,-153 109.25,-153 116.71,-153"/>
<polygon fill="#63b8ff" stroke="#63b8ff" points="92.82,-149.5 82.82,-153 92.82,-156.5 92.82,-149.5"/>
</g>
</g>
</svg>
        <g id="navigator" transform="translate(0 0)" fill="#404254">
                <rect fill="#f2f5e9" fill-opacity="0.5" stroke="#606060" stroke-width=".5" x="0" y="0" width="60" height="60"/>
                <use id="zoomplus" xlink:href="#zoomPlus" x="17" y="9" onmousedown="handleZoom(evt,'in')"/>
                <use id="zoomminus" xlink:href="#zoomMin" x="42" y="9" onmousedown="handleZoom(evt,'out')"/>
                <use id="reset" xlink:href="#resetDef" x="30" y="36" onmousedown="handleReset()"/>
                <g id="arrowUp" xlink:href="#dirArrow" transform="translate(30 24)" onmousedown="handlePan(0,-1)">
                  <use xlink:href="#rim" fill="#404040">
                        <set attributeName="fill" to="#808080" begin="arrowUp.mouseover" end="arrowUp.mouseout"/>
                  </use>
                  <path fill="none" stroke="white" stroke-width="1.5" d="M0,-3.0v7 M-2.5,-0.5L0,-3.0L2.5,-0.5"/>
                </g>
                <g id="arrowRight" xlink:href="#dirArrow" transform="rotate(90) translate(36 -43)" onmousedown="handlePan(1,0)">
                  <use xlink:href="#rim" fill="#404040">
                        <set attributeName="fill" to="#808080" begin="arrowRight.mouseover" end="arrowRight.mouseout"/>
                  </use>
                  <path fill="none" stroke="white" stroke-width="1.5" d="M0,-3.0v7 M-2.5,-0.5L0,-3.0L2.5,-0.5"/>
                </g>
                <g id="arrowDown" xlink:href="#dirArrow" transform="rotate(180) translate(-30 -48)" onmousedown="handlePan(0,1)">
                  <use xlink:href="#rim" fill="#404040">
                        <set attributeName="fill" to="#808080" begin="arrowDown.mouseover" end="arrowDown.mouseout"/>
                  </use>
                  <path fill="none" stroke="white" stroke-width="1.5" d="M0,-3.0v7 M-2.5,-0.5L0,-3.0L2.5,-0.5"/>
                </g>
                <g id="arrowLeft" xlink:href="#dirArrow" transform="rotate(270) translate(-36 17)" onmousedown="handlePan(-1,0)">
                  <use xlink:href="#rim" fill="#404040">
                        <set attributeName="fill" to="#808080" begin="arrowLeft.mouseover" end="arrowLeft.mouseout"/>
                  </use>
                  <path fill="none" stroke="white" stroke-width="1.5" d="M0,-3.0v7 M-2.5,-0.5L0,-3.0L2.5,-0.5"/>
                </g>
        </g>
        <svg viewBox="0 0 15 15" width="100%" height="30px" preserveAspectRatio="xMaxYMin meet">
         <g id="arrow_out" transform="scale(0.3 0.3)">
          <a xlink:href="class_o_c_a_1_1_c_a_f_e_v_d_b_1_1_exceptions_1_1_database_exception__inherit__graph_org.svg" target="_base">
           <rect id="button" ry="5" rx="5" y="6" x="6" height="38" width="38"
                fill="#f2f5e9" fill-opacity="0.5" stroke="#606060" stroke-width="1.0"/>
           <path id="arrow"
             d="M 11.500037,31.436501 C 11.940474,20.09759 22.043105,11.32322 32.158766,21.979434 L 37.068811,17.246167 C 37.068811,17.246167 37.088388,32 37.088388,32 L 22.160133,31.978069 C 22.160133,31.978069 26.997745,27.140456 26.997745,27.140456 C 18.528582,18.264221 13.291696,25.230495 11.500037,31.436501 z"
             style="fill:#404040;"/>
          </a>
         </g>
        </svg>
</svg>
