<?xml version="1.0" encoding="UTF-8" standalone="no"?>
<!DOCTYPE svg PUBLIC "-//W3C//DTD SVG 1.1//EN"
 "http://www.w3.org/Graphics/SVG/1.1/DTD/svg11.dtd">
<!-- Generated by graphviz version 7.1.0 (20230121.1956)
 -->
<!-- Title: getFontsFolderName Pages: 1 -->
<svg width="651pt" height="140pt"
 viewBox="0.00 0.00 651.00 140.00" xmlns="http://www.w3.org/2000/svg" xmlns:xlink="http://www.w3.org/1999/xlink">
<g id="graph0" class="graph" transform="scale(1 1) rotate(0) translate(4 136)">
<title>getFontsFolderName</title>
<!-- Node1 -->
<g id="node1" class="node">
<title>Node1</title>
<g id="a_node1"><a xlink:title=" ">
<polygon fill="#999999" stroke="#666666" points="643,-75 535,-75 535,-56 643,-56 643,-75"/>
<text text-anchor="middle" x="589" y="-63" font-family="Helvetica,sans-Serif" font-size="10.00">getFontsFolderName</text>
</a>
</g>
</g>
<!-- Node2 -->
<g id="node2" class="node">
<title>Node2</title>
<g id="a_node2"><a xlink:href="class_o_c_a_1_1_c_a_f_e_v_d_b_1_1_service_1_1_font_service.html#a607337401225854431cb0f7f9605d3d8" target="_top" xlink:title=" ">
<polygon fill="white" stroke="#666666" points="499,-132 405,-132 405,-113 499,-113 499,-132"/>
<text text-anchor="middle" x="452" y="-120" font-family="Helvetica,sans-Serif" font-size="10.00">findOfficeFontFile</text>
</a>
</g>
</g>
<!-- Node1&#45;&gt;Node2 -->
<g id="edge1" class="edge">
<title>Node1&#45;&gt;Node2</title>
<path fill="none" stroke="#63b8ff" d="M553.94,-79.88C529.65,-90.14 497.64,-103.65 476.25,-112.69"/>
<polygon fill="#63b8ff" stroke="#63b8ff" points="555.24,-83.13 563.09,-76.02 552.52,-76.68 555.24,-83.13"/>
</g>
<!-- Node3 -->
<g id="node3" class="node">
<title>Node3</title>
<g id="a_node3"><a xlink:href="class_o_c_a_1_1_c_a_f_e_v_d_b_1_1_service_1_1_font_service.html#a6b55501d93b01c9bb65dea8c403db037" target="_top" xlink:title="Populate the true&#45;type fonts folder with font&#45;files from the system or from other sources (download?...">
<polygon fill="white" stroke="#666666" points="368,-113 263,-113 263,-94 368,-94 368,-113"/>
<text text-anchor="middle" x="315.5" y="-101" font-family="Helvetica,sans-Serif" font-size="10.00">populateFontsFolder</text>
</a>
</g>
</g>
<!-- Node1&#45;&gt;Node3 -->
<g id="edge3" class="edge">
<title>Node1&#45;&gt;Node3</title>
<path fill="none" stroke="#63b8ff" d="M523.31,-74.55C475.9,-81.19 412.39,-90.08 368.31,-96.25"/>
<polygon fill="#63b8ff" stroke="#63b8ff" points="523.77,-78.02 533.19,-73.17 522.8,-71.09 523.77,-78.02"/>
</g>
<!-- Node4 -->
<g id="node4" class="node">
<title>Node4</title>
<g id="a_node4"><a xlink:href="class_o_c_a_1_1_c_a_f_e_v_d_b_1_1_service_1_1_font_service.html#a7c3d0f3a25e3212aaf9c467682244f42" target="_top" xlink:title="Delete all files in the app&#39;s font folder and clear all cache entries.">
<polygon fill="white" stroke="#666666" points="498,-56 406,-56 406,-37 498,-37 498,-56"/>
<text text-anchor="middle" x="452" y="-44" font-family="Helvetica,sans-Serif" font-size="10.00">purgeFontsFolder</text>
</a>
</g>
</g>
<!-- Node1&#45;&gt;Node4 -->
<g id="edge4" class="edge">
<title>Node1&#45;&gt;Node4</title>
<path fill="none" stroke="#63b8ff" d="M523.47,-56.42C514.9,-55.21 506.27,-54 498.13,-52.85"/>
<polygon fill="#63b8ff" stroke="#63b8ff" points="522.76,-59.85 533.15,-57.78 523.73,-52.92 522.76,-59.85"/>
</g>
<!-- Node5 -->
<g id="node5" class="node">
<title>Node5</title>
<g id="a_node5"><a xlink:href="class_o_c_a_1_1_c_a_f_e_v_d_b_1_1_service_1_1_font_service.html#a11370c328f78412deb89ea3a113e01dc" target="_top" xlink:title="Scan the app&#39;s fonts folder and return the contents grouped by font family.">
<polygon fill="white" stroke="#666666" points="496.5,-19 407.5,-19 407.5,0 496.5,0 496.5,-19"/>
<text text-anchor="middle" x="452" y="-7" font-family="Helvetica,sans-Serif" font-size="10.00">scanFontsFolder</text>
</a>
</g>
</g>
<!-- Node1&#45;&gt;Node5 -->
<g id="edge5" class="edge">
<title>Node1&#45;&gt;Node5</title>
<path fill="none" stroke="#63b8ff" d="M555.03,-51.14C538.3,-43.92 517.62,-35.12 499,-27.5 492.49,-24.84 485.43,-22.03 478.84,-19.45"/>
<polygon fill="#63b8ff" stroke="#63b8ff" points="553.44,-54.27 564.01,-55.02 556.22,-47.84 553.44,-54.27"/>
</g>
<!-- Node2&#45;&gt;Node3 -->
<g id="edge2" class="edge">
<title>Node2&#45;&gt;Node3</title>
<path fill="none" stroke="#63b8ff" d="M393.52,-114.38C385.18,-113.2 376.63,-111.99 368.41,-110.83"/>
<polygon fill="#63b8ff" stroke="#63b8ff" points="392.82,-117.82 403.21,-115.75 393.8,-110.89 392.82,-117.82"/>
</g>
<!-- Node6 -->
<g id="node6" class="node">
<title>Node6</title>
<g id="a_node6"><a xlink:href="class_o_c_a_1_1_c_a_f_e_v_d_b_1_1_service_1_1_font_service.html#ad4a3b7b4eedfc6652afc11bd2f63a89e" target="_top" xlink:title="Obtain the cached contents of the font&#45;folder, grouped by family.">
<polygon fill="white" stroke="#666666" points="369,-19 262,-19 262,0 369,0 369,-19"/>
<text text-anchor="middle" x="315.5" y="-7" font-family="Helvetica,sans-Serif" font-size="10.00">getFontFolderEntries</text>
</a>
</g>
</g>
<!-- Node5&#45;&gt;Node6 -->
<g id="edge6" class="edge">
<title>Node5&#45;&gt;Node6</title>
<path fill="none" stroke="#63b8ff" d="M395.98,-9.5C387.18,-9.5 378.09,-9.5 369.34,-9.5"/>
<polygon fill="#63b8ff" stroke="#63b8ff" points="395.82,-13 405.82,-9.5 395.82,-6 395.82,-13"/>
</g>
<!-- Node7 -->
<g id="node7" class="node">
<title>Node7</title>
<g id="a_node7"><a xlink:href="class_o_c_a_1_1_c_a_f_e_v_d_b_1_1_service_1_1_font_service.html#a4f12fbd8873025e70264e416c3cb9308" target="_top" xlink:title="Check whether the given font.">
<polygon fill="white" stroke="#666666" points="226,-19 143,-19 143,0 226,0 226,-19"/>
<text text-anchor="middle" x="184.5" y="-7" font-family="Helvetica,sans-Serif" font-size="10.00">isFontAvailable</text>
</a>
</g>
</g>
<!-- Node6&#45;&gt;Node7 -->
<g id="edge7" class="edge">
<title>Node6&#45;&gt;Node7</title>
<path fill="none" stroke="#63b8ff" d="M250.18,-9.5C242.02,-9.5 233.86,-9.5 226.21,-9.5"/>
<polygon fill="#63b8ff" stroke="#63b8ff" points="250.15,-13 260.15,-9.5 250.14,-6 250.15,-13"/>
</g>
<!-- Node8 -->
<g id="node8" class="node">
<title>Node8</title>
<g id="a_node8"><a xlink:href="class_o_c_a_1_1_c_a_f_e_v_d_b_1_1_service_1_1_font_service.html#a5e7ba34cff754351f6d70869594408fa" target="_top" xlink:title="Return the chosen font&#45;default if it is available and set, otherwise one of the installed fonts.">
<polygon fill="white" stroke="#666666" points="107,-19 0,-19 0,0 107,0 107,-19"/>
<text text-anchor="middle" x="53.5" y="-7" font-family="Helvetica,sans-Serif" font-size="10.00">getDefaultFontName</text>
</a>
</g>
</g>
<!-- Node7&#45;&gt;Node8 -->
<g id="edge8" class="edge">
<title>Node7&#45;&gt;Node8</title>
<path fill="none" stroke="#63b8ff" d="M131.34,-9.5C123.43,-9.5 115.26,-9.5 107.34,-9.5"/>
<polygon fill="#63b8ff" stroke="#63b8ff" points="131.17,-13 141.17,-9.5 131.17,-6 131.17,-13"/>
</g>
</g>
</svg>
