<?xml version="1.0" encoding="UTF-8" standalone="no"?>
<!DOCTYPE svg PUBLIC "-//W3C//DTD SVG 1.1//EN"
 "http://www.w3.org/Graphics/SVG/1.1/DTD/svg11.dtd">
<!-- Generated by graphviz version 7.1.0 (20230121.1956)
 -->
<!-- Title: normalizeSpaces Pages: 1 -->
<svg width="728pt" height="126pt"
 viewBox="0.00 0.00 728.00 126.00" xmlns="http://www.w3.org/2000/svg" xmlns:xlink="http://www.w3.org/1999/xlink">
<g id="graph0" class="graph" transform="scale(1 1) rotate(0) translate(4 122)">
<title>normalizeSpaces</title>
<!-- Node1 -->
<g id="node1" class="node">
<title>Node1</title>
<g id="a_node1"><a xlink:title="Normalize spaces and commas after and before spaces.">
<polygon fill="#999999" stroke="#666666" points="720,-83 628,-83 628,-64 720,-64 720,-83"/>
<text text-anchor="middle" x="674" y="-71" font-family="Helvetica,sans-Serif" font-size="10.00">normalizeSpaces</text>
</a>
</g>
</g>
<!-- Node2 -->
<g id="node2" class="node">
<title>Node2</title>
<g id="a_node2"><a xlink:href="class_o_c_a_1_1_c_a_f_e_v_d_b_1_1_page_renderer_1_1_p_m_e_table_view_base.html#a33ebd2cd145951f1fc62fe8bdb24a315" target="_top" xlink:title="The phpMyEdit instance calls the triggers (callbacks) with the following arguments:">
<polygon fill="white" stroke="#666666" points="592,-118 415,-118 415,-77 592,-77 592,-118"/>
<text text-anchor="start" x="423" y="-106" font-family="Helvetica,sans-Serif" font-size="10.00">OCA\CAFEVDB\PageRenderer</text>
<text text-anchor="start" x="423" y="-95" font-family="Helvetica,sans-Serif" font-size="10.00">\PMETableViewBase\beforeAnything</text>
<text text-anchor="middle" x="503.5" y="-84" font-family="Helvetica,sans-Serif" font-size="10.00">TrimAnything</text>
</a>
</g>
</g>
<!-- Node1&#45;&gt;Node2 -->
<g id="edge1" class="edge">
<title>Node1&#45;&gt;Node2</title>
<path fill="none" stroke="#63b8ff" d="M616.67,-81.52C608.84,-82.64 600.64,-83.81 592.4,-84.98"/>
<polygon fill="#63b8ff" stroke="#63b8ff" points="616.94,-85.02 626.35,-80.14 615.95,-78.09 616.94,-85.02"/>
</g>
<!-- Node3 -->
<g id="node3" class="node">
<title>Node3</title>
<g id="a_node3"><a xlink:href="class_o_c_a_1_1_c_a_f_e_v_d_b_1_1_common_1_1_util.html#aa61d3de43b26061a4d0097306931c64f" target="_top" xlink:title="Remove all whitespace.">
<polygon fill="white" stroke="#666666" points="544.5,-59 462.5,-59 462.5,-40 544.5,-40 544.5,-59"/>
<text text-anchor="middle" x="503.5" y="-47" font-family="Helvetica,sans-Serif" font-size="10.00">removeSpaces</text>
</a>
</g>
</g>
<!-- Node1&#45;&gt;Node3 -->
<g id="edge2" class="edge">
<title>Node1&#45;&gt;Node3</title>
<path fill="none" stroke="#63b8ff" d="M616.61,-65.47C593.12,-62.12 566.36,-58.31 544.89,-55.25"/>
<polygon fill="#63b8ff" stroke="#63b8ff" points="615.95,-68.91 626.35,-66.86 616.94,-61.98 615.95,-68.91"/>
</g>
<!-- Node4 -->
<g id="node4" class="node">
<title>Node4</title>
<g id="a_node4"><a xlink:href="class_o_c_a_1_1_c_a_f_e_v_d_b_1_1_page_renderer_1_1_p_m_e_table_view_base.html#a882a0897b82d354409342d1c195c2f4d" target="_top" xlink:title="Before update&#45;trigger which ideally should update all data such that nothing remains to do for phpMyE...">
<polygon fill="white" stroke="#666666" points="370,-100 200,-100 200,-59 370,-59 370,-100"/>
<text text-anchor="start" x="208" y="-88" font-family="Helvetica,sans-Serif" font-size="10.00">OCA\CAFEVDB\PageRenderer</text>
<text text-anchor="start" x="208" y="-77" font-family="Helvetica,sans-Serif" font-size="10.00">\PMETableViewBase\beforeUpdate</text>
<text text-anchor="middle" x="285" y="-66" font-family="Helvetica,sans-Serif" font-size="10.00">DoUpdateAll</text>
</a>
</g>
</g>
<!-- Node3&#45;&gt;Node4 -->
<g id="edge3" class="edge">
<title>Node3&#45;&gt;Node4</title>
<path fill="none" stroke="#63b8ff" d="M450.66,-56.68C426.58,-60.02 397.33,-64.07 370.21,-67.83"/>
<polygon fill="#63b8ff" stroke="#63b8ff" points="451.11,-60.15 460.53,-55.32 450.15,-53.22 451.11,-60.15"/>
</g>
<!-- Node6 -->
<g id="node6" class="node">
<title>Node6</title>
<g id="a_node6"><a xlink:href="class_o_c_a_1_1_c_a_f_e_v_d_b_1_1_page_renderer_1_1_p_m_e_table_view_base.html#ac4930892b628989ea570c18ef64c0b4b" target="_top" xlink:title="The ranking of the mussician&#39;s instruments is implicitly stored in the order of the instrument ids.">
<polygon fill="white" stroke="#666666" points="379,-41 191,-41 191,0 379,0 379,-41"/>
<text text-anchor="start" x="199" y="-29" font-family="Helvetica,sans-Serif" font-size="10.00">OCA\CAFEVDB\PageRenderer</text>
<text text-anchor="start" x="199" y="-18" font-family="Helvetica,sans-Serif" font-size="10.00">\PMETableViewBase\extractInstrument</text>
<text text-anchor="middle" x="285" y="-7" font-family="Helvetica,sans-Serif" font-size="10.00">Ranking</text>
</a>
</g>
</g>
<!-- Node3&#45;&gt;Node6 -->
<g id="edge5" class="edge">
<title>Node3&#45;&gt;Node6</title>
<path fill="none" stroke="#63b8ff" d="M450.89,-42.59C429.42,-39.71 403.81,-36.28 379.25,-32.99"/>
<polygon fill="#63b8ff" stroke="#63b8ff" points="450.16,-46.02 460.53,-43.88 451.09,-39.08 450.16,-46.02"/>
</g>
<!-- Node5 -->
<g id="node5" class="node">
<title>Node5</title>
<g id="a_node5"><a xlink:href="class_o_c_a_1_1_c_a_f_e_v_d_b_1_1_page_renderer_1_1_project_participant_fields.html#ab91557ae1e08e1183c76c9ce39edfe33" target="_top" xlink:title="{Show the underlying template page.This is supposed to echo html code to stdout. This is the default ...">
<polygon fill="white" stroke="#666666" points="155,-94.5 0,-94.5 0,-64.5 155,-64.5 155,-94.5"/>
<text text-anchor="start" x="8" y="-82.5" font-family="Helvetica,sans-Serif" font-size="10.00">OCA\CAFEVDB\PageRenderer</text>
<text text-anchor="middle" x="77.5" y="-71.5" font-family="Helvetica,sans-Serif" font-size="10.00">\ProjectParticipantFields\render</text>
</a>
</g>
</g>
<!-- Node4&#45;&gt;Node5 -->
<g id="edge4" class="edge">
<title>Node4&#45;&gt;Node5</title>
<path fill="none" stroke="#63b8ff" d="M188.14,-79.5C177.16,-79.5 166.08,-79.5 155.39,-79.5"/>
<polygon fill="#63b8ff" stroke="#63b8ff" points="188.01,-83 198.01,-79.5 188.01,-76 188.01,-83"/>
</g>
</g>
</svg>
