<?xml version="1.0" encoding="UTF-8" standalone="no"?>
<!DOCTYPE svg PUBLIC "-//W3C//DTD SVG 1.1//EN"
 "http://www.w3.org/Graphics/SVG/1.1/DTD/svg11.dtd">
<!-- Generated by graphviz version 7.1.0 (20230121.1956)
 -->
<!-- Title: fileExistsInFolder Pages: 1 -->
<svg width="209pt" height="64pt"
 viewBox="0.00 0.00 209.00 64.00" xmlns="http://www.w3.org/2000/svg" xmlns:xlink="http://www.w3.org/1999/xlink">
<g id="graph0" class="graph" transform="scale(1 1) rotate(0) translate(4 60)">
<title>fileExistsInFolder</title>
<!-- Node1 -->
<g id="node1" class="node">
<title>Node1</title>
<g id="a_node1"><a xlink:title=" ">
<polygon fill="#999999" stroke="#666666" points="201,-37 109,-37 109,-18 201,-18 201,-37"/>
<text text-anchor="middle" x="155" y="-25" font-family="Helvetica,sans-Serif" font-size="10.00">fileExistsInFolder</text>
</a>
</g>
</g>
<!-- Node2 -->
<g id="node2" class="node">
<title>Node2</title>
<g id="a_node2"><a xlink:href="class_o_c_a_1_1_c_a_f_e_v_d_b_1_1_storage_1_1_app_storage.html#ac6bf6b7d24ab36073fa9a34068059fec" target="_top" xlink:title=" ">
<polygon fill="white" stroke="#666666" points="68.5,-56 4.5,-56 4.5,-37 68.5,-37 68.5,-56"/>
<text text-anchor="middle" x="36.5" y="-44" font-family="Helvetica,sans-Serif" font-size="10.00">draftExists</text>
</a>
</g>
</g>
<!-- Node1&#45;&gt;Node2 -->
<g id="edge1" class="edge">
<title>Node1&#45;&gt;Node2</title>
<path fill="none" stroke="#63b8ff" d="M97.57,-36.7C87.7,-38.31 77.77,-39.93 68.89,-41.38"/>
<polygon fill="#63b8ff" stroke="#63b8ff" points="97.82,-40.21 107.13,-35.14 96.7,-33.3 97.82,-40.21"/>
</g>
<!-- Node3 -->
<g id="node3" class="node">
<title>Node3</title>
<g id="a_node3"><a xlink:href="class_o_c_a_1_1_c_a_f_e_v_d_b_1_1_storage_1_1_app_storage.html#ac3edcd3978ad2679e0d7b127ef404010" target="_top" xlink:title=" ">
<polygon fill="white" stroke="#666666" points="73,-19 0,-19 0,0 73,0 73,-19"/>
<text text-anchor="middle" x="36.5" y="-7" font-family="Helvetica,sans-Serif" font-size="10.00">uploadExists</text>
</a>
</g>
</g>
<!-- Node1&#45;&gt;Node3 -->
<g id="edge2" class="edge">
<title>Node1&#45;&gt;Node3</title>
<path fill="none" stroke="#63b8ff" d="M97.45,-18.76C89.19,-17.49 80.88,-16.2 73.2,-15.02"/>
<polygon fill="#63b8ff" stroke="#63b8ff" points="96.71,-22.19 107.13,-20.26 97.78,-15.27 96.71,-22.19"/>
</g>
</g>
</svg>
