<?xml version="1.0" encoding="UTF-8" standalone="no"?>
<!DOCTYPE svg PUBLIC "-//W3C//DTD SVG 1.1//EN"
 "http://www.w3.org/Graphics/SVG/1.1/DTD/svg11.dtd">
<!-- Generated by graphviz version 7.1.0 (20230121.1956)
 -->
<!-- Title: getOptionFromFileName Pages: 1 -->
<svg width="703pt" height="49pt"
 viewBox="0.00 0.00 703.00 49.00" xmlns="http://www.w3.org/2000/svg" xmlns:xlink="http://www.w3.org/1999/xlink">
<g id="graph0" class="graph" transform="scale(1 1) rotate(0) translate(4 45)">
<title>getOptionFromFileName</title>
<!-- Node1 -->
<g id="node1" class="node">
<title>Node1</title>
<g id="a_node1"><a xlink:title="Reconstruct the field from the label, assuming the file&#45;name has the format LABEL&#45;JohnDoe....">
<polygon fill="#999999" stroke="#666666" points="123,-30 0,-30 0,-11 123,-11 123,-30"/>
<text text-anchor="middle" x="61.5" y="-18" font-family="Helvetica,sans-Serif" font-size="10.00">getOptionFromFileName</text>
</a>
</g>
</g>
<!-- Node2 -->
<g id="node2" class="node">
<title>Node2</title>
<g id="a_node2"><a xlink:href="class_o_c_a_1_1_c_a_f_e_v_d_b_1_1_service_1_1_musician_service.html#aa0225a6afe69f35c314ad6b3954b254a" target="_top" xlink:title=" ">
<polygon fill="white" stroke="#666666" points="324,-35.5 159,-35.5 159,-5.5 324,-5.5 324,-35.5"/>
<text text-anchor="start" x="167" y="-23.5" font-family="Helvetica,sans-Serif" font-size="10.00">OCA\CAFEVDB\Service</text>
<text text-anchor="middle" x="241.5" y="-12.5" font-family="Helvetica,sans-Serif" font-size="10.00">\MusicianService\slugifyFileName</text>
</a>
</g>
</g>
<!-- Node1&#45;&gt;Node2 -->
<g id="edge1" class="edge">
<title>Node1&#45;&gt;Node2</title>
<path fill="none" stroke="#63b8ff" d="M123.26,-20.5C130.99,-20.5 139.05,-20.5 147.15,-20.5"/>
<polygon fill="#63b8ff" stroke="#63b8ff" points="147.09,-24 157.09,-20.5 147.09,-17 147.09,-24"/>
</g>
<!-- Node3 -->
<g id="node3" class="node">
<title>Node3</title>
<g id="a_node3"><a xlink:href="class_o_c_a_1_1_c_a_f_e_v_d_b_1_1_service_1_1_musician_service.html#a719369c18e17be9a1865044076917bcf" target="_top" xlink:title=" ">
<polygon fill="white" stroke="#666666" points="518,-35.5 360,-35.5 360,-5.5 518,-5.5 518,-35.5"/>
<text text-anchor="start" x="368" y="-23.5" font-family="Helvetica,sans-Serif" font-size="10.00">OCA\CAFEVDB\Service</text>
<text text-anchor="middle" x="439" y="-12.5" font-family="Helvetica,sans-Serif" font-size="10.00">\MusicianService\getSlugPostfix</text>
</a>
</g>
</g>
<!-- Node2&#45;&gt;Node3 -->
<g id="edge2" class="edge">
<title>Node2&#45;&gt;Node3</title>
<path fill="none" stroke="#63b8ff" d="M324.28,-20.5C332.24,-20.5 340.35,-20.5 348.39,-20.5"/>
<polygon fill="#63b8ff" stroke="#63b8ff" points="348.17,-24 358.17,-20.5 348.17,-17 348.17,-24"/>
</g>
<!-- Node4 -->
<g id="node4" class="node">
<title>Node4</title>
<g id="a_node4"><a xlink:href="class_o_c_a_1_1_c_a_f_e_v_d_b_1_1_service_1_1_musician_service.html#a4bdc907f686e63542b0175ea3d7aadf2" target="_top" xlink:title="Convert a user&#45;id to a file&#45;name&#45;part avoiding &quot;duplicate&quot; extensions, i.e.">
<polygon fill="white" stroke="#666666" points="695,-41 554,-41 554,0 695,0 695,-41"/>
<text text-anchor="start" x="562" y="-29" font-family="Helvetica,sans-Serif" font-size="10.00">OCA\CAFEVDB\Service</text>
<text text-anchor="start" x="562" y="-18" font-family="Helvetica,sans-Serif" font-size="10.00">\MusicianService\userIdSlug</text>
<text text-anchor="middle" x="624.5" y="-7" font-family="Helvetica,sans-Serif" font-size="10.00">ToFileName</text>
</a>
</g>
</g>
<!-- Node3&#45;&gt;Node4 -->
<g id="edge3" class="edge">
<title>Node3&#45;&gt;Node4</title>
<path fill="none" stroke="#63b8ff" d="M518.35,-20.5C526.21,-20.5 534.19,-20.5 542.08,-20.5"/>
<polygon fill="#63b8ff" stroke="#63b8ff" points="542.02,-24 552.02,-20.5 542.02,-17 542.02,-24"/>
</g>
</g>
</svg>
