<?xml version="1.0" encoding="UTF-8" standalone="no"?>
<!DOCTYPE svg PUBLIC "-//W3C//DTD SVG 1.1//EN"
 "http://www.w3.org/Graphics/SVG/1.1/DTD/svg11.dtd">
<!-- Generated by graphviz version 7.1.0 (20230121.1956)
 -->
<!-- Title: index Pages: 1 -->
<svg width="182pt" height="101pt"
 viewBox="0.00 0.00 182.00 101.00" xmlns="http://www.w3.org/2000/svg" xmlns:xlink="http://www.w3.org/1999/xlink">
<g id="graph0" class="graph" transform="scale(1 1) rotate(0) translate(4 97)">
<title>index</title>
<!-- Node1 -->
<g id="node1" class="node">
<title>Node1</title>
<g id="a_node1"><a xlink:title="Load the main page of the App.">
<polygon fill="#999999" stroke="#666666" points="40,-56 0,-56 0,-37 40,-37 40,-56"/>
<text text-anchor="middle" x="20" y="-44" font-family="Helvetica,sans-Serif" font-size="10.00">index</text>
</a>
</g>
</g>
<!-- Node2 -->
<g id="node2" class="node">
<title>Node2</title>
<g id="a_node2"><a xlink:href="class_o_c_a_1_1_c_a_f_e_v_d_b_1_1_controller_1_1_page_controller.html#a24e190f069746909ea1187a6b9a3283a" target="_top" xlink:title="Load a page at the specified offset from the history.">
<polygon fill="white" stroke="#666666" points="148,-93 102,-93 102,-74 148,-74 148,-93"/>
<text text-anchor="middle" x="125" y="-81" font-family="Helvetica,sans-Serif" font-size="10.00">history</text>
</a>
</g>
</g>
<!-- Node1&#45;&gt;Node2 -->
<g id="edge1" class="edge">
<title>Node1&#45;&gt;Node2</title>
<path fill="none" stroke="#63b8ff" d="M40.37,-53.46C54.71,-58.61 74.59,-65.75 91.37,-71.78"/>
<polygon fill="#63b8ff" stroke="#63b8ff" points="89.83,-74.95 100.43,-75.03 92.2,-68.36 89.83,-74.95"/>
</g>
<!-- Node3 -->
<g id="node3" class="node">
<title>Node3</title>
<g id="a_node3"><a xlink:href="class_o_c_a_1_1_c_a_f_e_v_d_b_1_1_controller_1_1_page_controller.html#a8cb85c27e0079a7260abb2976bdb1182" target="_top" xlink:title="Load a page and remembers the request parameters in the history.">
<polygon fill="white" stroke="#666666" points="155,-56 95,-56 95,-37 155,-37 155,-56"/>
<text text-anchor="middle" x="125" y="-44" font-family="Helvetica,sans-Serif" font-size="10.00">remember</text>
</a>
</g>
</g>
<!-- Node1&#45;&gt;Node3 -->
<g id="edge2" class="edge">
<title>Node1&#45;&gt;Node3</title>
<path fill="none" stroke="#63b8ff" d="M40.37,-46.5C52.42,-46.5 68.37,-46.5 83.11,-46.5"/>
<polygon fill="#63b8ff" stroke="#63b8ff" points="83.06,-50 93.06,-46.5 83.06,-43 83.06,-50"/>
</g>
<!-- Node4 -->
<g id="node4" class="node">
<title>Node4</title>
<g id="a_node4"><a xlink:href="class_o_c_a_1_1_c_a_f_e_v_d_b_1_1_controller_1_1_page_controller.html#a642cd75ab82e99734c92a3429edd8569" target="_top" xlink:title=" ">
<polygon fill="white" stroke="#666666" points="174,-19 76,-19 76,0 174,0 174,-19"/>
<text text-anchor="middle" x="125" y="-7" font-family="Helvetica,sans-Serif" font-size="10.00">shouldLoadHistory</text>
</a>
</g>
</g>
<!-- Node1&#45;&gt;Node4 -->
<g id="edge3" class="edge">
<title>Node1&#45;&gt;Node4</title>
<path fill="none" stroke="#63b8ff" d="M40.37,-39.54C53.25,-34.91 70.59,-28.68 86.15,-23.1"/>
<polygon fill="#63b8ff" stroke="#63b8ff" points="86.9,-26.55 95.13,-19.87 84.53,-19.96 86.9,-26.55"/>
</g>
</g>
</svg>
