<?xml version="1.0" encoding="UTF-8" standalone="no"?>
<!DOCTYPE svg PUBLIC "-//W3C//DTD SVG 1.1//EN"
 "http://www.w3.org/Graphics/SVG/1.1/DTD/svg11.dtd">
<!-- Generated by graphviz version 7.1.0 (20230121.1956)
 -->
<!-- Title: __construct Pages: 1 -->
<svg width="187pt" height="64pt"
 viewBox="0.00 0.00 187.00 64.00" xmlns="http://www.w3.org/2000/svg" xmlns:xlink="http://www.w3.org/1999/xlink">
<g id="graph0" class="graph" transform="scale(1 1) rotate(0) translate(4 60)">
<title>__construct</title>
<!-- Node1 -->
<g id="node1" class="node">
<title>Node1</title>
<g id="a_node1"><a xlink:title="{}">
<polygon fill="#999999" stroke="#666666" points="68,-37 0,-37 0,-18 68,-18 68,-37"/>
<text text-anchor="middle" x="34" y="-25" font-family="Helvetica,sans-Serif" font-size="10.00">__construct</text>
</a>
</g>
</g>
<!-- Node2 -->
<g id="node2" class="node">
<title>Node2</title>
<g id="a_node2"><a xlink:href="class_o_c_a_1_1_c_a_f_e_v_d_b_1_1_database_1_1_doctrine_1_1_o_r_m_1_1_entities_1_1_file.html#a123380ced15440dc598ce6f244862e9a" target="_top" xlink:title="Set fileName.">
<polygon fill="white" stroke="#666666" points="177.5,-56 105.5,-56 105.5,-37 177.5,-37 177.5,-56"/>
<text text-anchor="middle" x="141.5" y="-44" font-family="Helvetica,sans-Serif" font-size="10.00">setFileName</text>
</a>
</g>
</g>
<!-- Node1&#45;&gt;Node2 -->
<g id="edge1" class="edge">
<title>Node1&#45;&gt;Node2</title>
<path fill="none" stroke="#63b8ff" d="M68.38,-33.51C76.52,-34.98 85.38,-36.57 94.01,-38.13"/>
<polygon fill="#63b8ff" stroke="#63b8ff" points="93.2,-41.54 103.66,-39.87 94.44,-34.65 93.2,-41.54"/>
</g>
<!-- Node3 -->
<g id="node3" class="node">
<title>Node3</title>
<g id="a_node3"><a xlink:href="class_o_c_a_1_1_c_a_f_e_v_d_b_1_1_database_1_1_doctrine_1_1_o_r_m_1_1_entities_1_1_file.html#a0e6f42535dcefcdab46e3348b6861ec7" target="_top" xlink:title="Set mimeType.">
<polygon fill="white" stroke="#666666" points="179,-19 104,-19 104,0 179,0 179,-19"/>
<text text-anchor="middle" x="141.5" y="-7" font-family="Helvetica,sans-Serif" font-size="10.00">setMimeType</text>
</a>
</g>
</g>
<!-- Node1&#45;&gt;Node3 -->
<g id="edge2" class="edge">
<title>Node1&#45;&gt;Node3</title>
<path fill="none" stroke="#63b8ff" d="M68.38,-21.8C76.01,-20.5 84.27,-19.09 92.39,-17.71"/>
<polygon fill="#63b8ff" stroke="#63b8ff" points="92.91,-21.17 102.18,-16.04 91.74,-14.27 92.91,-21.17"/>
</g>
</g>
</svg>
