<?xml version="1.0" encoding="UTF-8" standalone="no"?>
<!DOCTYPE svg PUBLIC "-//W3C//DTD SVG 1.1//EN"
 "http://www.w3.org/Graphics/SVG/1.1/DTD/svg11.dtd">
<!-- Generated by graphviz version 7.1.0 (20230121.1956)
 -->
<!-- Title: implodeIndexedMulti Pages: 1 -->
<svg width="323pt" height="45pt"
 viewBox="0.00 0.00 323.00 45.00" xmlns="http://www.w3.org/2000/svg" xmlns:xlink="http://www.w3.org/1999/xlink">
<g id="graph0" class="graph" transform="scale(1 1) rotate(0) translate(4 41)">
<title>implodeIndexedMulti</title>
<!-- Node1 -->
<g id="node1" class="node">
<title>Node1</title>
<g id="a_node1"><a xlink:title="Undo self::explodeIndexedMulti().">
<polygon fill="#999999" stroke="#666666" points="106,-19 0,-19 0,0 106,0 106,-19"/>
<text text-anchor="middle" x="53" y="-7" font-family="Helvetica,sans-Serif" font-size="10.00">implodeIndexedMulti</text>
</a>
</g>
</g>
<!-- Node2 -->
<g id="node2" class="node">
<title>Node2</title>
<g id="a_node2"><a xlink:href="class_o_c_a_1_1_c_a_f_e_v_d_b_1_1_common_1_1_util.html#a9d61dd42fc39a8ffa123b80bab2bf94f" target="_top" xlink:title="Counter&#45;part to self::explode().">
<polygon fill="white" stroke="#666666" points="192,-19 142,-19 142,0 192,0 192,-19"/>
<text text-anchor="middle" x="167" y="-7" font-family="Helvetica,sans-Serif" font-size="10.00">implode</text>
</a>
</g>
</g>
<!-- Node1&#45;&gt;Node2 -->
<g id="edge1" class="edge">
<title>Node1&#45;&gt;Node2</title>
<path fill="none" stroke="#63b8ff" d="M106.39,-9.5C114.46,-9.5 122.63,-9.5 130.23,-9.5"/>
<polygon fill="#63b8ff" stroke="#63b8ff" points="130.08,-13 140.08,-9.5 130.08,-6 130.08,-13"/>
</g>
<!-- Node2&#45;&gt;Node2 -->
<g id="edge3" class="edge">
<title>Node2&#45;&gt;Node2</title>
<path fill="none" stroke="#63b8ff" d="M150.64,-19.37C143.18,-27.94 148.63,-37 167,-37 177.05,-37 183.23,-34.29 185.55,-30.43"/>
<polygon fill="#63b8ff" stroke="#63b8ff" points="189.03,-29.98 183.65,-20.85 182.16,-31.34 189.03,-29.98"/>
</g>
<!-- Node3 -->
<g id="node3" class="node">
<title>Node3</title>
<g id="a_node3"><a xlink:href="class_o_c_a_1_1_c_a_f_e_v_d_b_1_1_common_1_1_util.html#a733456b8dde51667bb86ef79e08597a7" target="_top" xlink:title="Escape delimiters in the given value.">
<polygon fill="white" stroke="#666666" points="315,-19 228,-19 228,0 315,0 315,-19"/>
<text text-anchor="middle" x="271.5" y="-7" font-family="Helvetica,sans-Serif" font-size="10.00">escapeDelimiter</text>
</a>
</g>
</g>
<!-- Node2&#45;&gt;Node3 -->
<g id="edge2" class="edge">
<title>Node2&#45;&gt;Node3</title>
<path fill="none" stroke="#63b8ff" d="M192.29,-9.5C199.54,-9.5 207.79,-9.5 216.15,-9.5"/>
<polygon fill="#63b8ff" stroke="#63b8ff" points="216.02,-13 226.02,-9.5 216.02,-6 216.02,-13"/>
</g>
</g>
</svg>
