<?xml version="1.0" encoding="UTF-8" standalone="no"?>
<!DOCTYPE svg PUBLIC "-//W3C//DTD SVG 1.1//EN"
 "http://www.w3.org/Graphics/SVG/1.1/DTD/svg11.dtd">
<!-- Generated by graphviz version 7.1.0 (20230121.1956)
 -->
<!-- Title: getPublicKey Pages: 1 -->
<svg width="198pt" height="64pt"
 viewBox="0.00 0.00 198.00 64.00" xmlns="http://www.w3.org/2000/svg" xmlns:xlink="http://www.w3.org/1999/xlink">
<g id="graph0" class="graph" transform="scale(1 1) rotate(0) translate(4 60)">
<title>getPublicKey</title>
<!-- Node1 -->
<g id="node1" class="node">
<title>Node1</title>
<g id="a_node1"><a xlink:title="{Retrieve an existing pulic key from the key&#45;storage.mixed|null Public key or null if none is found....">
<polygon fill="#999999" stroke="#666666" points="74,-37 0,-37 0,-18 74,-18 74,-37"/>
<text text-anchor="middle" x="37" y="-25" font-family="Helvetica,sans-Serif" font-size="10.00">getPublicKey</text>
</a>
</g>
</g>
<!-- Node2 -->
<g id="node2" class="node">
<title>Node2</title>
<g id="a_node2"><a xlink:href="class_o_c_a_1_1_c_a_f_e_v_d_b_1_1_crypto_1_1_cloud_asymmetric_key_storage.html#a22f229329d340dcd3fb629e91c9b95b9" target="_top" xlink:title=" ">
<polygon fill="white" stroke="#666666" points="187.5,-56 112.5,-56 112.5,-37 187.5,-37 187.5,-56"/>
<text text-anchor="middle" x="150" y="-44" font-family="Helvetica,sans-Serif" font-size="10.00">getUserValue</text>
</a>
</g>
</g>
<!-- Node1&#45;&gt;Node2 -->
<g id="edge1" class="edge">
<title>Node1&#45;&gt;Node2</title>
<path fill="none" stroke="#63b8ff" d="M74.35,-33.72C82.88,-35.18 92.11,-36.76 101.06,-38.29"/>
<polygon fill="#63b8ff" stroke="#63b8ff" points="100.25,-41.71 110.7,-39.94 101.43,-34.81 100.25,-41.71"/>
</g>
<!-- Node3 -->
<g id="node3" class="node">
<title>Node3</title>
<g id="a_node3"><a xlink:href="class_o_c_a_1_1_c_a_f_e_v_d_b_1_1_crypto_1_1_cloud_asymmetric_key_storage.html#a63312920564297d50e6f355d9c3c6e9b" target="_top" xlink:title="Decode the raw data fetch from whatever storage backend.">
<polygon fill="white" stroke="#666666" points="190,-19 110,-19 110,0 190,0 190,-19"/>
<text text-anchor="middle" x="150" y="-7" font-family="Helvetica,sans-Serif" font-size="10.00">unserializeKey</text>
</a>
</g>
</g>
<!-- Node1&#45;&gt;Node3 -->
<g id="edge2" class="edge">
<title>Node1&#45;&gt;Node3</title>
<path fill="none" stroke="#63b8ff" d="M74.35,-21.61C82,-20.37 90.2,-19.04 98.27,-17.73"/>
<polygon fill="#63b8ff" stroke="#63b8ff" points="98.7,-21.2 108.01,-16.15 97.58,-14.29 98.7,-21.2"/>
</g>
</g>
</svg>
