<?xml version="1.0" encoding="UTF-8" standalone="no"?>
<!DOCTYPE svg PUBLIC "-//W3C//DTD SVG 1.1//EN"
 "http://www.w3.org/Graphics/SVG/1.1/DTD/svg11.dtd">
<!-- Generated by graphviz version 7.1.0 (20230121.1956)
 -->
<!-- Title: setData Pages: 1 -->
<svg width="234pt" height="134pt"
 viewBox="0.00 0.00 234.00 134.00" xmlns="http://www.w3.org/2000/svg" xmlns:xlink="http://www.w3.org/1999/xlink">
<g id="graph0" class="graph" transform="scale(1 1) rotate(0) translate(4 130)">
<title>setData</title>
<!-- Node1 -->
<g id="node1" class="node">
<title>Node1</title>
<g id="a_node1"><a xlink:title="{Set the data value and sync.void}">
<polygon fill="#999999" stroke="#666666" points="51,-72.5 0,-72.5 0,-53.5 51,-53.5 51,-72.5"/>
<text text-anchor="middle" x="25.5" y="-60.5" font-family="Helvetica,sans-Serif" font-size="10.00">setData</text>
</a>
</g>
</g>
<!-- Node2 -->
<g id="node2" class="node">
<title>Node2</title>
<g id="a_node2"><a xlink:href="interface_o_c_a_1_1_c_a_f_e_v_d_b_1_1_common_1_1_i_progress_status.html#ad926899d7cac34a3f1a90e552d8eb27d" target="_top" xlink:title="Return the cached value of the current state.">
<polygon fill="white" stroke="#666666" points="226,-126 87,-126 87,-96 226,-96 226,-126"/>
<text text-anchor="start" x="95" y="-114" font-family="Helvetica,sans-Serif" font-size="10.00">OCA\CAFEVDB\Common</text>
<text text-anchor="middle" x="156.5" y="-103" font-family="Helvetica,sans-Serif" font-size="10.00">\IProgressStatus\getCurrent</text>
</a>
</g>
</g>
<!-- Node1&#45;&gt;Node2 -->
<g id="edge1" class="edge">
<title>Node1&#45;&gt;Node2</title>
<path fill="none" stroke="#63b8ff" d="M50.85,-72.92C61.85,-77.33 75.04,-82.53 87,-87 91.13,-88.54 95.41,-90.11 99.73,-91.67"/>
<polygon fill="#63b8ff" stroke="#63b8ff" points="98.43,-94.93 109.03,-95 100.79,-88.34 98.43,-94.93"/>
</g>
<!-- Node3 -->
<g id="node3" class="node">
<title>Node3</title>
<g id="a_node3"><a xlink:href="interface_o_c_a_1_1_c_a_f_e_v_d_b_1_1_common_1_1_i_progress_status.html#afd77d5a1c164c8d6f4a18cbf9c341410" target="_top" xlink:title="Return the cached value of the target state.">
<polygon fill="white" stroke="#666666" points="223.5,-78 89.5,-78 89.5,-48 223.5,-48 223.5,-78"/>
<text text-anchor="start" x="97.5" y="-66" font-family="Helvetica,sans-Serif" font-size="10.00">OCA\CAFEVDB\Common</text>
<text text-anchor="middle" x="156.5" y="-55" font-family="Helvetica,sans-Serif" font-size="10.00">\IProgressStatus\getTarget</text>
</a>
</g>
</g>
<!-- Node1&#45;&gt;Node3 -->
<g id="edge2" class="edge">
<title>Node1&#45;&gt;Node3</title>
<path fill="none" stroke="#63b8ff" d="M51.37,-63C59.21,-63 68.33,-63 77.85,-63"/>
<polygon fill="#63b8ff" stroke="#63b8ff" points="77.63,-66.5 87.63,-63 77.63,-59.5 77.63,-66.5"/>
</g>
<!-- Node4 -->
<g id="node4" class="node">
<title>Node4</title>
<g id="a_node4"><a xlink:href="interface_o_c_a_1_1_c_a_f_e_v_d_b_1_1_common_1_1_i_progress_status.html#a60696fa745c7b2fd721f2f3fbbc8d39f" target="_top" xlink:title="Update to the given values, where null arguments are simply ignored.">
<polygon fill="white" stroke="#666666" points="222.5,-30 90.5,-30 90.5,0 222.5,0 222.5,-30"/>
<text text-anchor="start" x="98.5" y="-18" font-family="Helvetica,sans-Serif" font-size="10.00">OCA\CAFEVDB\Common</text>
<text text-anchor="middle" x="156.5" y="-7" font-family="Helvetica,sans-Serif" font-size="10.00">\IProgressStatus\update</text>
</a>
</g>
</g>
<!-- Node1&#45;&gt;Node4 -->
<g id="edge3" class="edge">
<title>Node1&#45;&gt;Node4</title>
<path fill="none" stroke="#63b8ff" d="M50.85,-53.08C61.85,-48.67 75.04,-43.47 87,-39 91.13,-37.46 95.41,-35.89 99.73,-34.33"/>
<polygon fill="#63b8ff" stroke="#63b8ff" points="100.79,-37.66 109.03,-31 98.43,-31.07 100.79,-37.66"/>
</g>
</g>
</svg>
