<?xml version="1.0" encoding="UTF-8" standalone="no"?>
<!DOCTYPE svg PUBLIC "-//W3C//DTD SVG 1.1//EN"
 "http://www.w3.org/Graphics/SVG/1.1/DTD/svg11.dtd">
<!-- Generated by graphviz version 7.1.0 (20230121.1956)
 -->
<!-- Title: filemtime Pages: 1 -->
<svg width="693pt" height="121pt"
 viewBox="0.00 0.00 693.00 121.03" xmlns="http://www.w3.org/2000/svg" xmlns:xlink="http://www.w3.org/1999/xlink">
<g id="graph0" class="graph" transform="scale(1 1) rotate(0) translate(4 117.03)">
<title>filemtime</title>
<!-- Node1 -->
<g id="node1" class="node">
<title>Node1</title>
<g id="a_node1"><a xlink:title="{}">
<polygon fill="#999999" stroke="#666666" points="56,-74 0,-74 0,-55 56,-55 56,-74"/>
<text text-anchor="middle" x="28" y="-62" font-family="Helvetica,sans-Serif" font-size="10.00">filemtime</text>
</a>
</g>
</g>
<!-- Node2 -->
<g id="node2" class="node">
<title>Node2</title>
<g id="a_node2"><a xlink:href="class_o_c_a_1_1_c_a_f_e_v_d_b_1_1_storage_1_1_database_1_1_storage.html#a7ec90cd17ef214d5fe4280b13d7c144a" target="_top" xlink:title="Fetch the file entity corresponding to file&#45;name.">
<polygon fill="white" stroke="#666666" points="398.5,-93 304.5,-93 304.5,-74 398.5,-74 398.5,-93"/>
<text text-anchor="middle" x="351.5" y="-81" font-family="Helvetica,sans-Serif" font-size="10.00">fileFromFileName</text>
</a>
</g>
</g>
<!-- Node1&#45;&gt;Node2 -->
<g id="edge1" class="edge">
<title>Node1&#45;&gt;Node2</title>
<path fill="none" stroke="#63b8ff" d="M40.63,-74.21C52.62,-83.55 72.31,-97.02 92,-102.5 164.3,-122.62 252.1,-108.46 304.52,-96.15"/>
<polygon fill="#63b8ff" stroke="#63b8ff" points="305.11,-99.61 314,-93.84 303.46,-92.81 305.11,-99.61"/>
</g>
<!-- Node6 -->
<g id="node6" class="node">
<title>Node6</title>
<g id="a_node6"><a xlink:href="class_o_c_a_1_1_c_a_f_e_v_d_b_1_1_storage_1_1_database_1_1_storage.html#a9d7ac9f8614357ce6b7358708b9ab040" target="_top" xlink:title=" ">
<polygon fill="white" stroke="#666666" points="236,-93 92,-93 92,-74 236,-74 236,-93"/>
<text text-anchor="middle" x="164" y="-81" font-family="Helvetica,sans-Serif" font-size="10.00">getDirectoryModificationTime</text>
</a>
</g>
</g>
<!-- Node1&#45;&gt;Node6 -->
<g id="edge5" class="edge">
<title>Node1&#45;&gt;Node6</title>
<path fill="none" stroke="#63b8ff" d="M56.44,-68.39C63.92,-69.45 72.43,-70.66 81.3,-71.92"/>
<polygon fill="#63b8ff" stroke="#63b8ff" points="80.79,-75.38 91.18,-73.32 81.78,-68.45 80.79,-75.38"/>
</g>
<!-- Node7 -->
<g id="node7" class="node">
<title>Node7</title>
<g id="a_node7"><a xlink:href="class_o_c_a_1_1_c_a_f_e_v_d_b_1_1_storage_1_1_database_1_1_storage.html#a8eb3e49592d26a52be7e8987722d1aa3" target="_top" xlink:title="Get the overall modification time of the entire storage as Unix time&#45;stamp.">
<polygon fill="white" stroke="#666666" points="233,-19 95,-19 95,0 233,0 233,-19"/>
<text text-anchor="middle" x="164" y="-7" font-family="Helvetica,sans-Serif" font-size="10.00">getStorageModificationTime</text>
</a>
</g>
</g>
<!-- Node1&#45;&gt;Node7 -->
<g id="edge7" class="edge">
<title>Node1&#45;&gt;Node7</title>
<path fill="none" stroke="#63b8ff" d="M42.91,-54.77C55.3,-46.49 74.17,-34.82 92,-27.5 96.12,-25.81 100.44,-24.24 104.82,-22.8"/>
<polygon fill="#63b8ff" stroke="#63b8ff" points="105.8,-26.16 114.35,-19.91 103.76,-19.47 105.8,-26.16"/>
</g>
<!-- Node9 -->
<g id="node9" class="node">
<title>Node9</title>
<g id="a_node9"><a xlink:href="class_o_c_a_1_1_c_a_f_e_v_d_b_1_1_storage_1_1_database_1_1_storage.html#a5877dd78fbe10fb5f3ee3d25e3fbe11e" target="_top" xlink:title="{}">
<polygon fill="white" stroke="#666666" points="184,-56 144,-56 144,-37 184,-37 184,-56"/>
<text text-anchor="middle" x="164" y="-44" font-family="Helvetica,sans-Serif" font-size="10.00">is_dir</text>
</a>
</g>
</g>
<!-- Node1&#45;&gt;Node9 -->
<g id="edge9" class="edge">
<title>Node1&#45;&gt;Node9</title>
<path fill="none" stroke="#63b8ff" d="M56.44,-60.81C78.61,-57.84 109.78,-53.65 132.68,-50.57"/>
<polygon fill="#63b8ff" stroke="#63b8ff" points="132.87,-54.08 142.32,-49.28 131.94,-47.14 132.87,-54.08"/>
</g>
<!-- Node3 -->
<g id="node3" class="node">
<title>Node3</title>
<g id="a_node3"><a xlink:href="class_o_c_a_1_1_c_a_f_e_v_d_b_1_1_storage_1_1_database_1_1_storage.html#ab721841df814a2337039d39cc03da82a" target="_top" xlink:title=" ">
<polygon fill="white" stroke="#666666" points="524,-112 467,-112 467,-93 524,-93 524,-112"/>
<text text-anchor="middle" x="495.5" y="-100" font-family="Helvetica,sans-Serif" font-size="10.00">buildPath</text>
</a>
</g>
</g>
<!-- Node2&#45;&gt;Node3 -->
<g id="edge2" class="edge">
<title>Node2&#45;&gt;Node3</title>
<path fill="none" stroke="#63b8ff" d="M399,-89.72C417.31,-92.17 438.1,-94.95 455.6,-97.29"/>
<polygon fill="#63b8ff" stroke="#63b8ff" points="454.69,-100.7 465.06,-98.56 455.61,-93.77 454.69,-100.7"/>
</g>
<!-- Node4 -->
<g id="node4" class="node">
<title>Node4</title>
<g id="a_node4"><a xlink:href="class_o_c_a_1_1_c_a_f_e_v_d_b_1_1_storage_1_1_database_1_1_storage.html#aa8e4fc68bcf28c10413b664b7d89ae81" target="_top" xlink:title="Slightly modified pathinfo() function which also normalized directories before computing the componen...">
<polygon fill="white" stroke="#666666" points="521.5,-75 469.5,-75 469.5,-56 521.5,-56 521.5,-75"/>
<text text-anchor="middle" x="495.5" y="-63" font-family="Helvetica,sans-Serif" font-size="10.00">pathInfo</text>
</a>
</g>
</g>
<!-- Node2&#45;&gt;Node4 -->
<g id="edge3" class="edge">
<title>Node2&#45;&gt;Node4</title>
<path fill="none" stroke="#63b8ff" d="M399,-77.61C418.11,-75.18 439.91,-72.42 457.86,-70.14"/>
<polygon fill="#63b8ff" stroke="#63b8ff" points="458.05,-73.65 467.53,-68.92 457.17,-66.7 458.05,-73.65"/>
</g>
<!-- Node5 -->
<g id="node5" class="node">
<title>Node5</title>
<g id="a_node5"><a xlink:href="class_o_c_a_1_1_c_a_f_e_v_d_b_1_1_storage_1_1_database_1_1_storage.html#ac5c1b62ecc9eb2ebe08f1e8c7ee2b283" target="_top" xlink:title="Attach self::PATH_SEPARATOR to the dirname if it is not the root directory.">
<polygon fill="white" stroke="#666666" points="685,-75 560,-75 560,-56 685,-56 685,-75"/>
<text text-anchor="middle" x="622.5" y="-63" font-family="Helvetica,sans-Serif" font-size="10.00">normalizeDirectoryName</text>
</a>
</g>
</g>
<!-- Node4&#45;&gt;Node5 -->
<g id="edge4" class="edge">
<title>Node4&#45;&gt;Node5</title>
<path fill="none" stroke="#63b8ff" d="M521.8,-65.5C529.69,-65.5 538.83,-65.5 548.31,-65.5"/>
<polygon fill="#63b8ff" stroke="#63b8ff" points="548.03,-69 558.03,-65.5 548.03,-62 548.03,-69"/>
</g>
<!-- Node6&#45;&gt;Node2 -->
<g id="edge6" class="edge">
<title>Node6&#45;&gt;Node2</title>
<path fill="none" stroke="#63b8ff" d="M236.45,-83.5C255.12,-83.5 275.01,-83.5 292.86,-83.5"/>
<polygon fill="#63b8ff" stroke="#63b8ff" points="292.75,-87 302.75,-83.5 292.75,-80 292.75,-87"/>
</g>
<!-- Node8 -->
<g id="node8" class="node">
<title>Node8</title>
<g id="a_node8"><a xlink:href="class_o_c_a_1_1_c_a_f_e_v_d_b_1_1_storage_1_1_database_1_1_storage.html#ae5a252c76f3eca6363a55691f69dd932" target="_top" xlink:title="Return the overall modification time of the entire storage.">
<polygon fill="white" stroke="#666666" points="431,-19 272,-19 272,0 431,0 431,-19"/>
<text text-anchor="middle" x="351.5" y="-7" font-family="Helvetica,sans-Serif" font-size="10.00">getStorageModificationDateTime</text>
</a>
</g>
</g>
<!-- Node7&#45;&gt;Node8 -->
<g id="edge8" class="edge">
<title>Node7&#45;&gt;Node8</title>
<path fill="none" stroke="#63b8ff" d="M233.28,-9.5C242.07,-9.5 251.18,-9.5 260.25,-9.5"/>
<polygon fill="#63b8ff" stroke="#63b8ff" points="260.18,-13 270.18,-9.5 260.18,-6 260.18,-13"/>
</g>
<!-- Node9&#45;&gt;Node2 -->
<g id="edge10" class="edge">
<title>Node9&#45;&gt;Node2</title>
<path fill="none" stroke="#63b8ff" d="M184.15,-50.32C209.66,-55.41 255.88,-64.63 293.14,-72.06"/>
<polygon fill="#63b8ff" stroke="#63b8ff" points="292.4,-75.48 302.89,-74 293.77,-68.62 292.4,-75.48"/>
</g>
</g>
</svg>
