<?xml version="1.0" encoding="UTF-8" standalone="no"?>
<!DOCTYPE svg PUBLIC "-//W3C//DTD SVG 1.1//EN"
 "http://www.w3.org/Graphics/SVG/1.1/DTD/svg11.dtd">
<!-- Generated by graphviz version 7.1.0 (20230121.1956)
 -->
<!-- Title: register Pages: 1 -->
<svg width="398pt" height="38pt"
 viewBox="0.00 0.00 398.00 38.00" xmlns="http://www.w3.org/2000/svg" xmlns:xlink="http://www.w3.org/1999/xlink">
<g id="graph0" class="graph" transform="scale(1 1) rotate(0) translate(4 34)">
<title>register</title>
<!-- Node1 -->
<g id="node1" class="node">
<title>Node1</title>
<g id="a_node1"><a xlink:title="{}">
<polygon fill="#999999" stroke="#666666" points="49,-24.5 0,-24.5 0,-5.5 49,-5.5 49,-24.5"/>
<text text-anchor="middle" x="24.5" y="-12.5" font-family="Helvetica,sans-Serif" font-size="10.00">register</text>
</a>
</g>
</g>
<!-- Node2 -->
<g id="node2" class="node">
<title>Node2</title>
<g id="a_node2"><a xlink:href="class_o_c_a_1_1_c_a_f_e_v_d_b_1_1_listener_1_1_registration.html#a357c91f51d69c6679aef3b1d85e2ca25" target="_top" xlink:title=" ">
<polygon fill="white" stroke="#666666" points="212,-30 85,-30 85,0 212,0 212,-30"/>
<text text-anchor="start" x="93" y="-18" font-family="Helvetica,sans-Serif" font-size="10.00">OCA\CAFEVDB\Listener</text>
<text text-anchor="middle" x="148.5" y="-7" font-family="Helvetica,sans-Serif" font-size="10.00">\Registration\register</text>
</a>
</g>
</g>
<!-- Node1&#45;&gt;Node2 -->
<g id="edge1" class="edge">
<title>Node1&#45;&gt;Node2</title>
<path fill="none" stroke="#63b8ff" d="M49.31,-15C56.45,-15 64.68,-15 73.28,-15"/>
<polygon fill="#63b8ff" stroke="#63b8ff" points="73.23,-18.5 83.23,-15 73.23,-11.5 73.23,-18.5"/>
</g>
<!-- Node3 -->
<g id="node3" class="node">
<title>Node3</title>
<g id="a_node3"><a xlink:href="class_o_c_a_1_1_c_a_f_e_v_d_b_1_1_listener_1_1_registration.html#a5d11831ee5e1813e4a950f9a6cbeb028" target="_top" xlink:title=" ">
<polygon fill="white" stroke="#666666" points="390,-30 248,-30 248,0 390,0 390,-30"/>
<text text-anchor="start" x="256" y="-18" font-family="Helvetica,sans-Serif" font-size="10.00">OCA\CAFEVDB\Listener</text>
<text text-anchor="middle" x="319" y="-7" font-family="Helvetica,sans-Serif" font-size="10.00">\Registration\registerListener</text>
</a>
</g>
</g>
<!-- Node2&#45;&gt;Node3 -->
<g id="edge2" class="edge">
<title>Node2&#45;&gt;Node3</title>
<path fill="none" stroke="#63b8ff" d="M212.24,-15C220.07,-15 228.15,-15 236.21,-15"/>
<polygon fill="#63b8ff" stroke="#63b8ff" points="236.04,-18.5 246.04,-15 236.04,-11.5 236.04,-18.5"/>
</g>
</g>
</svg>
