<?xml version="1.0" encoding="UTF-8" standalone="no"?>
<!DOCTYPE svg PUBLIC "-//W3C//DTD SVG 1.1//EN"
 "http://www.w3.org/Graphics/SVG/1.1/DTD/svg11.dtd">
<!-- Generated by graphviz version 7.1.0 (20230121.1956)
 -->
<!-- Title: backTranslate Pages: 1 -->
<svg width="419pt" height="27pt"
 viewBox="0.00 0.00 419.00 27.00" xmlns="http://www.w3.org/2000/svg" xmlns:xlink="http://www.w3.org/1999/xlink">
<g id="graph0" class="graph" transform="scale(1 1) rotate(0) translate(4 23)">
<title>backTranslate</title>
<!-- Node1 -->
<g id="node1" class="node">
<title>Node1</title>
<g id="a_node1"><a xlink:title="Attempt an un&#45;translation.">
<polygon fill="#999999" stroke="#666666" points="78,-19 0,-19 0,0 78,0 78,-19"/>
<text text-anchor="middle" x="39" y="-7" font-family="Helvetica,sans-Serif" font-size="10.00">backTranslate</text>
</a>
</g>
</g>
<!-- Node2 -->
<g id="node2" class="node">
<title>Node2</title>
<g id="a_node2"><a xlink:href="class_o_c_a_1_1_c_a_f_e_v_d_b_1_1_service_1_1_l10_n_1_1_bi_directional_l10_n.html#abe6f3839a06e677b13f00eccf19dc477" target="_top" xlink:title=" ">
<polygon fill="white" stroke="#666666" points="212,-19 114,-19 114,0 212,0 212,-19"/>
<text text-anchor="middle" x="163" y="-7" font-family="Helvetica,sans-Serif" font-size="10.00">loadLanguageData</text>
</a>
</g>
</g>
<!-- Node1&#45;&gt;Node2 -->
<g id="edge1" class="edge">
<title>Node1&#45;&gt;Node2</title>
<path fill="none" stroke="#63b8ff" d="M78.27,-9.5C85.87,-9.5 94.02,-9.5 102.14,-9.5"/>
<polygon fill="#63b8ff" stroke="#63b8ff" points="102.03,-13 112.03,-9.5 102.03,-6 102.03,-13"/>
</g>
<!-- Node3 -->
<g id="node3" class="node">
<title>Node3</title>
<g id="a_node3"><a xlink:href="class_o_c_a_1_1_c_a_f_e_v_d_b_1_1_service_1_1_l10_n_1_1_bi_directional_l10_n.html#a728dab9cf0d1e1e30170b832dd3eb36d" target="_top" xlink:title=" ">
<polygon fill="white" stroke="#666666" points="313,-19 248,-19 248,0 313,0 313,-19"/>
<text text-anchor="middle" x="280.5" y="-7" font-family="Helvetica,sans-Serif" font-size="10.00">mergeCSV</text>
</a>
</g>
</g>
<!-- Node2&#45;&gt;Node3 -->
<g id="edge2" class="edge">
<title>Node2&#45;&gt;Node3</title>
<path fill="none" stroke="#63b8ff" d="M212.31,-9.5C220.28,-9.5 228.49,-9.5 236.31,-9.5"/>
<polygon fill="#63b8ff" stroke="#63b8ff" points="236.31,-13 246.31,-9.5 236.31,-6 236.31,-13"/>
</g>
<!-- Node4 -->
<g id="node4" class="node">
<title>Node4</title>
<g id="a_node4"><a xlink:href="class_o_c_a_1_1_c_a_f_e_v_d_b_1_1_service_1_1_l10_n_1_1_bi_directional_l10_n.html#a1da7e548f1b54878d5c6b027ec7eb184" target="_top" xlink:title=" ">
<polygon fill="white" stroke="#666666" points="411,-19 349,-19 349,0 411,0 411,-19"/>
<text text-anchor="middle" x="380" y="-7" font-family="Helvetica,sans-Serif" font-size="10.00">parseCSV</text>
</a>
</g>
</g>
<!-- Node3&#45;&gt;Node4 -->
<g id="edge3" class="edge">
<title>Node3&#45;&gt;Node4</title>
<path fill="none" stroke="#63b8ff" d="M313.43,-9.5C321.04,-9.5 329.27,-9.5 337.25,-9.5"/>
<polygon fill="#63b8ff" stroke="#63b8ff" points="337.15,-13 347.15,-9.5 337.15,-6 337.15,-13"/>
</g>
</g>
</svg>
