<?xml version="1.0" encoding="UTF-8" standalone="no"?>
<!DOCTYPE svg PUBLIC "-//W3C//DTD SVG 1.1//EN"
 "http://www.w3.org/Graphics/SVG/1.1/DTD/svg11.dtd">
<!-- Generated by graphviz version 7.1.0 (20230121.1956)
 -->
<!-- Title: AbstractMigration Pages: 1 -->
<svg width="538pt" height="162pt"
 viewBox="0.00 0.00 538.00 161.50" xmlns="http://www.w3.org/2000/svg" xmlns:xlink="http://www.w3.org/1999/xlink">
<g id="graph0" class="graph" transform="scale(1 1) rotate(0) translate(4 157.5)">
<title>AbstractMigration</title>
<!-- Node1 -->
<g id="node1" class="node">
<title>Node1</title>
<g id="a_node1"><a xlink:title="Abstract migration class, the derived classes have to fill AbstractMigration::$sql.">
<polygon fill="#999999" stroke="#666666" points="188,-83 95,-83 95,-64 188,-64 188,-83"/>
<text text-anchor="middle" x="141.5" y="-71" font-family="Helvetica,sans-Serif" font-size="10.00">AbstractMigration</text>
</a>
</g>
</g>
<!-- Node3 -->
<g id="node3" class="node">
<title>Node3</title>
<g id="a_node3"><a xlink:href="class_o_c_a_1_1_c_a_f_e_v_d_b_1_1_maintenance_1_1_migrations_1_1_participant_drop_bank_account_columns.html" target="_top" xlink:title="Change participantAccess field to enum.">
<polygon fill="white" stroke="#666666" points="369,-153.5 226,-153.5 226,-123.5 369,-123.5 369,-153.5"/>
<text text-anchor="start" x="234" y="-141.5" font-family="Helvetica,sans-Serif" font-size="10.00">ParticipantDropBankAccount</text>
<text text-anchor="middle" x="297.5" y="-130.5" font-family="Helvetica,sans-Serif" font-size="10.00">Columns</text>
</a>
</g>
</g>
<!-- Node1&#45;&gt;Node3 -->
<g id="edge2" class="edge">
<title>Node1&#45;&gt;Node3</title>
<path fill="none" stroke="#63b8ff" d="M170.27,-88.74C185.81,-96.95 205.69,-106.91 224,-114.5 231.23,-117.49 238.97,-120.38 246.62,-123.06"/>
<polygon fill="#63b8ff" stroke="#63b8ff" points="172.08,-85.74 161.61,-84.11 168.77,-91.91 172.08,-85.74"/>
</g>
<!-- Node5 -->
<g id="node5" class="node">
<title>Node5</title>
<g id="a_node5"><a xlink:href="class_o_c_a_1_1_c_a_f_e_v_d_b_1_1_maintenance_1_1_migrations_1_1_participant_field_access_enum.html" target="_top" xlink:title="Change participantAccess field to enum.">
<polygon fill="white" stroke="#666666" points="369,-105 226,-105 226,-86 369,-86 369,-105"/>
<text text-anchor="middle" x="297.5" y="-93" font-family="Helvetica,sans-Serif" font-size="10.00">ParticipantFieldAccessEnum</text>
</a>
</g>
</g>
<!-- Node1&#45;&gt;Node5 -->
<g id="edge4" class="edge">
<title>Node1&#45;&gt;Node5</title>
<path fill="none" stroke="#63b8ff" d="M199.61,-81.66C208.42,-82.92 217.6,-84.23 226.65,-85.52"/>
<polygon fill="#63b8ff" stroke="#63b8ff" points="200.18,-78.2 189.79,-80.26 199.19,-85.13 200.18,-78.2"/>
</g>
<!-- Node7 -->
<g id="node7" class="node">
<title>Node7</title>
<g id="a_node7"><a xlink:href="class_o_c_a_1_1_c_a_f_e_v_d_b_1_1_maintenance_1_1_migrations_1_1_participant_field_drop_unused_columns.html" target="_top" xlink:title="Change participantAccess field to enum.">
<polygon fill="white" stroke="#666666" points="367,-67.5 228,-67.5 228,-37.5 367,-37.5 367,-67.5"/>
<text text-anchor="start" x="236" y="-55.5" font-family="Helvetica,sans-Serif" font-size="10.00">ParticipantFieldDropUnused</text>
<text text-anchor="middle" x="297.5" y="-44.5" font-family="Helvetica,sans-Serif" font-size="10.00">Columns</text>
</a>
</g>
</g>
<!-- Node1&#45;&gt;Node7 -->
<g id="edge6" class="edge">
<title>Node1&#45;&gt;Node7</title>
<path fill="none" stroke="#63b8ff" d="M199.56,-65.72C208.66,-64.48 218.16,-63.18 227.51,-61.91"/>
<polygon fill="#63b8ff" stroke="#63b8ff" points="199.22,-62.23 189.79,-67.05 200.17,-69.17 199.22,-62.23"/>
</g>
<!-- Node9 -->
<g id="node9" class="node">
<title>Node9</title>
<g id="a_node9"><a xlink:href="class_o_c_a_1_1_c_a_f_e_v_d_b_1_1_maintenance_1_1_migrations_1_1_participant_fields_add_liabilities.html" target="_top" xlink:title="Change participantAccess field to enum.">
<polygon fill="white" stroke="#666666" points="371,-19 224,-19 224,0 371,0 371,-19"/>
<text text-anchor="middle" x="297.5" y="-7" font-family="Helvetica,sans-Serif" font-size="10.00">ParticipantFieldsAddLiabilities</text>
</a>
</g>
</g>
<!-- Node1&#45;&gt;Node9 -->
<g id="edge8" class="edge">
<title>Node1&#45;&gt;Node9</title>
<path fill="none" stroke="#63b8ff" d="M167.08,-57.82C182.86,-48.3 204.06,-36.47 224,-28.5 232.7,-25.02 242.24,-22 251.46,-19.45"/>
<polygon fill="#63b8ff" stroke="#63b8ff" points="165.53,-54.67 158.85,-62.89 169.2,-60.63 165.53,-54.67"/>
</g>
<!-- Node2 -->
<g id="node2" class="node">
<title>Node2</title>
<g id="a_node2"><a xlink:href="interface_o_c_a_1_1_c_a_f_e_v_d_b_1_1_maintenance_1_1_i_migration.html" target="_top" xlink:title="Uni&#45;directional migrations for the orchestra DB.">
<polygon fill="white" stroke="#666666" points="59,-83 0,-83 0,-64 59,-64 59,-83"/>
<text text-anchor="middle" x="29.5" y="-71" font-family="Helvetica,sans-Serif" font-size="10.00">IMigration</text>
</a>
</g>
</g>
<!-- Node2&#45;&gt;Node1 -->
<g id="edge1" class="edge">
<title>Node2&#45;&gt;Node1</title>
<path fill="none" stroke="#63b8ff" d="M70.81,-73.5C78.6,-73.5 86.82,-73.5 94.77,-73.5"/>
<polygon fill="#63b8ff" stroke="#63b8ff" points="70.91,-70 60.91,-73.5 70.91,-77 70.91,-70"/>
</g>
<!-- Node4 -->
<g id="node4" class="node">
<title>Node4</title>
<g id="a_node4"><a xlink:href="class_o_c_a_1_1_c_a_f_e_v_d_b_1_1_maintenance_1_1_migrations_1_1_version20230227090000.html" target="_top" xlink:title="Wrapper class which gives the migration a proper sequence number and redirects to the actual implemen...">
<polygon fill="white" stroke="#666666" points="530,-148 407,-148 407,-129 530,-129 530,-148"/>
<text text-anchor="middle" x="468.5" y="-136" font-family="Helvetica,sans-Serif" font-size="10.00">Version20230227090000</text>
</a>
</g>
</g>
<!-- Node3&#45;&gt;Node4 -->
<g id="edge3" class="edge">
<title>Node3&#45;&gt;Node4</title>
<path fill="none" stroke="#63b8ff" d="M380.68,-138.5C389.47,-138.5 398.28,-138.5 406.75,-138.5"/>
<polygon fill="#63b8ff" stroke="#63b8ff" points="380.71,-135 370.71,-138.5 380.71,-142 380.71,-135"/>
</g>
<!-- Node6 -->
<g id="node6" class="node">
<title>Node6</title>
<g id="a_node6"><a xlink:href="class_o_c_a_1_1_c_a_f_e_v_d_b_1_1_maintenance_1_1_migrations_1_1_version20230206204000.html" target="_top" xlink:title="Wrapper class which gives the migration a proper sequence number and redirects to the actual implemen...">
<polygon fill="white" stroke="#666666" points="530,-105 407,-105 407,-86 530,-86 530,-105"/>
<text text-anchor="middle" x="468.5" y="-93" font-family="Helvetica,sans-Serif" font-size="10.00">Version20230206204000</text>
</a>
</g>
</g>
<!-- Node5&#45;&gt;Node6 -->
<g id="edge5" class="edge">
<title>Node5&#45;&gt;Node6</title>
<path fill="none" stroke="#63b8ff" d="M380.68,-95.5C389.47,-95.5 398.28,-95.5 406.75,-95.5"/>
<polygon fill="#63b8ff" stroke="#63b8ff" points="380.71,-92 370.71,-95.5 380.71,-99 380.71,-92"/>
</g>
<!-- Node8 -->
<g id="node8" class="node">
<title>Node8</title>
<g id="a_node8"><a xlink:href="class_o_c_a_1_1_c_a_f_e_v_d_b_1_1_maintenance_1_1_migrations_1_1_version20230206203000.html" target="_top" xlink:title="Wrapper class which gives the migration a proper sequence number and redirects to the actual implemen...">
<polygon fill="white" stroke="#666666" points="530,-62 407,-62 407,-43 530,-43 530,-62"/>
<text text-anchor="middle" x="468.5" y="-50" font-family="Helvetica,sans-Serif" font-size="10.00">Version20230206203000</text>
</a>
</g>
</g>
<!-- Node7&#45;&gt;Node8 -->
<g id="edge7" class="edge">
<title>Node7&#45;&gt;Node8</title>
<path fill="none" stroke="#63b8ff" d="M378.67,-52.5C388.1,-52.5 397.6,-52.5 406.7,-52.5"/>
<polygon fill="#63b8ff" stroke="#63b8ff" points="378.75,-49 368.75,-52.5 378.75,-56 378.75,-49"/>
</g>
<!-- Node10 -->
<g id="node10" class="node">
<title>Node10</title>
<g id="a_node10"><a xlink:href="class_o_c_a_1_1_c_a_f_e_v_d_b_1_1_maintenance_1_1_migrations_1_1_version20230207133000.html" target="_top" xlink:title="Wrapper class which gives the migration a proper sequence number and redirects to the actual implemen...">
<polygon fill="white" stroke="#666666" points="530,-19 407,-19 407,0 530,0 530,-19"/>
<text text-anchor="middle" x="468.5" y="-7" font-family="Helvetica,sans-Serif" font-size="10.00">Version20230207133000</text>
</a>
</g>
</g>
<!-- Node9&#45;&gt;Node10 -->
<g id="edge9" class="edge">
<title>Node9&#45;&gt;Node10</title>
<path fill="none" stroke="#63b8ff" d="M382.57,-9.5C390.66,-9.5 398.77,-9.5 406.58,-9.5"/>
<polygon fill="#63b8ff" stroke="#63b8ff" points="382.67,-6 372.67,-9.5 382.67,-13 382.67,-6"/>
</g>
</g>
</svg>
