<?xml version="1.0" encoding="UTF-8" standalone="no"?>
<!DOCTYPE svg PUBLIC "-//W3C//DTD SVG 1.1//EN"
 "http://www.w3.org/Graphics/SVG/1.1/DTD/svg11.dtd">
<!-- Generated by graphviz version 7.1.0 (20230121.1956)
 -->
<!-- Title: initAppKeyPair Pages: 1 -->
<svg width="236pt" height="64pt"
 viewBox="0.00 0.00 236.00 64.00" xmlns="http://www.w3.org/2000/svg" xmlns:xlink="http://www.w3.org/1999/xlink">
<g id="graph0" class="graph" transform="scale(1 1) rotate(0) translate(4 60)">
<title>initAppKeyPair</title>
<!-- Node1 -->
<g id="node1" class="node">
<title>Node1</title>
<g id="a_node1"><a xlink:title=" ">
<polygon fill="#999999" stroke="#666666" points="81,-37 0,-37 0,-18 81,-18 81,-37"/>
<text text-anchor="middle" x="40.5" y="-25" font-family="Helvetica,sans-Serif" font-size="10.00">initAppKeyPair</text>
</a>
</g>
</g>
<!-- Node2 -->
<g id="node2" class="node">
<title>Node2</title>
<g id="a_node2"><a xlink:href="class_o_c_a_1_1_c_a_f_e_v_d_b_1_1_service_1_1_encryption_service.html#aef02d325583d49207e4852023acf572d" target="_top" xlink:title=" ">
<polygon fill="white" stroke="#666666" points="228,-56 117,-56 117,-37 228,-37 228,-56"/>
<text text-anchor="middle" x="172.5" y="-44" font-family="Helvetica,sans-Serif" font-size="10.00">getAppEncryptionKey</text>
</a>
</g>
</g>
<!-- Node1&#45;&gt;Node2 -->
<g id="edge1" class="edge">
<title>Node1&#45;&gt;Node2</title>
<path fill="none" stroke="#63b8ff" d="M81.21,-33.3C88.91,-34.43 97.17,-35.64 105.46,-36.85"/>
<polygon fill="#63b8ff" stroke="#63b8ff" points="104.82,-40.29 115.22,-38.27 105.83,-33.36 104.82,-40.29"/>
</g>
<!-- Node3 -->
<g id="node3" class="node">
<title>Node3</title>
<g id="a_node3"><a xlink:href="class_o_c_a_1_1_c_a_f_e_v_d_b_1_1_service_1_1_encryption_service.html#a6c2a8487a2ff84a0fa4530de4d61d83b" target="_top" xlink:title="A short&#45;cut, redirecting to the stock functions for the app.">
<polygon fill="white" stroke="#666666" points="208,-19 137,-19 137,0 208,0 208,-19"/>
<text text-anchor="middle" x="172.5" y="-7" font-family="Helvetica,sans-Serif" font-size="10.00">getAppValue</text>
</a>
</g>
</g>
<!-- Node1&#45;&gt;Node3 -->
<g id="edge2" class="edge">
<title>Node1&#45;&gt;Node3</title>
<path fill="none" stroke="#63b8ff" d="M81.21,-22C95.23,-20.06 111.12,-17.86 125.61,-15.85"/>
<polygon fill="#63b8ff" stroke="#63b8ff" points="125.95,-19.34 135.37,-14.5 124.99,-12.41 125.95,-19.34"/>
</g>
</g>
</svg>
