<?xml version="1.0" encoding="UTF-8" standalone="no"?>
<!DOCTYPE svg PUBLIC "-//W3C//DTD SVG 1.1//EN"
 "http://www.w3.org/Graphics/SVG/1.1/DTD/svg11.dtd">
<!-- Generated by graphviz version 7.1.0 (20230121.1956)
 -->
<!-- Title: increment Pages: 1 -->
<svg width="242pt" height="86pt"
 viewBox="0.00 0.00 242.00 86.00" xmlns="http://www.w3.org/2000/svg" xmlns:xlink="http://www.w3.org/1999/xlink">
<g id="graph0" class="graph" transform="scale(1 1) rotate(0) translate(4 82)">
<title>increment</title>
<!-- Node1 -->
<g id="node1" class="node">
<title>Node1</title>
<g id="a_node1"><a xlink:title="{Add the given amount to the progress&#45;status counter.bool|int Current value of the counter or false i...">
<polygon fill="#999999" stroke="#666666" points="59,-48.5 0,-48.5 0,-29.5 59,-29.5 59,-48.5"/>
<text text-anchor="middle" x="29.5" y="-36.5" font-family="Helvetica,sans-Serif" font-size="10.00">increment</text>
</a>
</g>
</g>
<!-- Node2 -->
<g id="node2" class="node">
<title>Node2</title>
<g id="a_node2"><a xlink:href="interface_o_c_a_1_1_c_a_f_e_v_d_b_1_1_common_1_1_i_progress_status.html#ad926899d7cac34a3f1a90e552d8eb27d" target="_top" xlink:title="Return the cached value of the current state.">
<polygon fill="white" stroke="#666666" points="234,-78 95,-78 95,-48 234,-48 234,-78"/>
<text text-anchor="start" x="103" y="-66" font-family="Helvetica,sans-Serif" font-size="10.00">OCA\CAFEVDB\Common</text>
<text text-anchor="middle" x="164.5" y="-55" font-family="Helvetica,sans-Serif" font-size="10.00">\IProgressStatus\getCurrent</text>
</a>
</g>
</g>
<!-- Node1&#45;&gt;Node2 -->
<g id="edge1" class="edge">
<title>Node1&#45;&gt;Node2</title>
<path fill="none" stroke="#63b8ff" d="M59.36,-44.21C66.64,-45.52 74.81,-47 83.3,-48.53"/>
<polygon fill="#63b8ff" stroke="#63b8ff" points="82.63,-51.96 93.09,-50.29 83.87,-45.07 82.63,-51.96"/>
</g>
<!-- Node3 -->
<g id="node3" class="node">
<title>Node3</title>
<g id="a_node3"><a xlink:href="interface_o_c_a_1_1_c_a_f_e_v_d_b_1_1_common_1_1_i_progress_status.html#a60696fa745c7b2fd721f2f3fbbc8d39f" target="_top" xlink:title="Update to the given values, where null arguments are simply ignored.">
<polygon fill="white" stroke="#666666" points="230.5,-30 98.5,-30 98.5,0 230.5,0 230.5,-30"/>
<text text-anchor="start" x="106.5" y="-18" font-family="Helvetica,sans-Serif" font-size="10.00">OCA\CAFEVDB\Common</text>
<text text-anchor="middle" x="164.5" y="-7" font-family="Helvetica,sans-Serif" font-size="10.00">\IProgressStatus\update</text>
</a>
</g>
</g>
<!-- Node1&#45;&gt;Node3 -->
<g id="edge2" class="edge">
<title>Node1&#45;&gt;Node3</title>
<path fill="none" stroke="#63b8ff" d="M59.36,-33.79C67.69,-32.29 77.19,-30.58 86.98,-28.81"/>
<polygon fill="#63b8ff" stroke="#63b8ff" points="87.41,-32.29 96.63,-27.07 86.17,-25.4 87.41,-32.29"/>
</g>
</g>
</svg>
