<?xml version="1.0" encoding="UTF-8" standalone="no"?>
<!DOCTYPE svg PUBLIC "-//W3C//DTD SVG 1.1//EN"
 "http://www.w3.org/Graphics/SVG/1.1/DTD/svg11.dtd">
<!-- Generated by graphviz version 7.1.0 (20230121.1956)
 -->
<!-- Title: getRootFolder Pages: 1 -->
<svg width="616pt" height="92pt"
 viewBox="0.00 0.00 616.00 91.50" xmlns="http://www.w3.org/2000/svg" xmlns:xlink="http://www.w3.org/1999/xlink">
<g id="graph0" class="graph" transform="scale(1 1) rotate(0) translate(4 87.5)">
<title>getRootFolder</title>
<!-- Node1 -->
<g id="node1" class="node">
<title>Node1</title>
<g id="a_node1"><a xlink:title="{}">
<polygon fill="#999999" stroke="#666666" points="78,-54 0,-54 0,-35 78,-35 78,-54"/>
<text text-anchor="middle" x="39" y="-42" font-family="Helvetica,sans-Serif" font-size="10.00">getRootFolder</text>
</a>
</g>
</g>
<!-- Node2 -->
<g id="node2" class="node">
<title>Node2</title>
<g id="a_node2"><a xlink:href="class_o_c_a_1_1_c_a_f_e_v_d_b_1_1_storage_1_1_database_1_1_storage.html#a7ec90cd17ef214d5fe4280b13d7c144a" target="_top" xlink:title="Fetch the file entity corresponding to file&#45;name.">
<polygon fill="white" stroke="#666666" points="251,-65 114,-65 114,-24 251,-24 251,-65"/>
<text text-anchor="start" x="122" y="-53" font-family="Helvetica,sans-Serif" font-size="10.00">OCA\CAFEVDB\Storage</text>
<text text-anchor="start" x="122" y="-42" font-family="Helvetica,sans-Serif" font-size="10.00">\Database\Storage\fileFrom</text>
<text text-anchor="middle" x="182.5" y="-31" font-family="Helvetica,sans-Serif" font-size="10.00">FileName</text>
</a>
</g>
</g>
<!-- Node1&#45;&gt;Node2 -->
<g id="edge1" class="edge">
<title>Node1&#45;&gt;Node2</title>
<path fill="none" stroke="#63b8ff" d="M78.29,-44.5C85.83,-44.5 94,-44.5 102.33,-44.5"/>
<polygon fill="#63b8ff" stroke="#63b8ff" points="102.22,-48 112.22,-44.5 102.22,-41 102.22,-48"/>
</g>
<!-- Node3 -->
<g id="node3" class="node">
<title>Node3</title>
<g id="a_node3"><a xlink:href="class_o_c_a_1_1_c_a_f_e_v_d_b_1_1_storage_1_1_database_1_1_storage.html#ab721841df814a2337039d39cc03da82a" target="_top" xlink:title=" ">
<polygon fill="white" stroke="#666666" points="429,-83.5 287,-83.5 287,-53.5 429,-53.5 429,-83.5"/>
<text text-anchor="start" x="295" y="-71.5" font-family="Helvetica,sans-Serif" font-size="10.00">OCA\CAFEVDB\Storage</text>
<text text-anchor="middle" x="358" y="-60.5" font-family="Helvetica,sans-Serif" font-size="10.00">\Database\Storage\buildPath</text>
</a>
</g>
</g>
<!-- Node2&#45;&gt;Node3 -->
<g id="edge2" class="edge">
<title>Node2&#45;&gt;Node3</title>
<path fill="none" stroke="#63b8ff" d="M251.08,-53.85C259.12,-54.96 267.4,-56.11 275.61,-57.24"/>
<polygon fill="#63b8ff" stroke="#63b8ff" points="274.86,-60.67 285.25,-58.57 275.82,-53.74 274.86,-60.67"/>
</g>
<!-- Node4 -->
<g id="node4" class="node">
<title>Node4</title>
<g id="a_node4"><a xlink:href="class_o_c_a_1_1_c_a_f_e_v_d_b_1_1_storage_1_1_database_1_1_storage.html#aa8e4fc68bcf28c10413b664b7d89ae81" target="_top" xlink:title="Slightly modified pathinfo() function which also normalized directories before computing the componen...">
<polygon fill="white" stroke="#666666" points="426.5,-35.5 289.5,-35.5 289.5,-5.5 426.5,-5.5 426.5,-35.5"/>
<text text-anchor="start" x="297.5" y="-23.5" font-family="Helvetica,sans-Serif" font-size="10.00">OCA\CAFEVDB\Storage</text>
<text text-anchor="middle" x="358" y="-12.5" font-family="Helvetica,sans-Serif" font-size="10.00">\Database\Storage\pathInfo</text>
</a>
</g>
</g>
<!-- Node2&#45;&gt;Node4 -->
<g id="edge3" class="edge">
<title>Node2&#45;&gt;Node4</title>
<path fill="none" stroke="#63b8ff" d="M251.08,-35.15C259.84,-33.94 268.88,-32.69 277.81,-31.45"/>
<polygon fill="#63b8ff" stroke="#63b8ff" points="278.11,-34.95 287.54,-30.11 277.15,-28.01 278.11,-34.95"/>
</g>
<!-- Node5 -->
<g id="node5" class="node">
<title>Node5</title>
<g id="a_node5"><a xlink:href="class_o_c_a_1_1_c_a_f_e_v_d_b_1_1_storage_1_1_database_1_1_storage.html#ac5c1b62ecc9eb2ebe08f1e8c7ee2b283" target="_top" xlink:title="Attach self::PATH_SEPARATOR to the dirname if it is not the root directory.">
<polygon fill="white" stroke="#666666" points="608,-41 465,-41 465,0 608,0 608,-41"/>
<text text-anchor="start" x="473" y="-29" font-family="Helvetica,sans-Serif" font-size="10.00">OCA\CAFEVDB\Storage</text>
<text text-anchor="start" x="473" y="-18" font-family="Helvetica,sans-Serif" font-size="10.00">\Database\Storage\normalize</text>
<text text-anchor="middle" x="536.5" y="-7" font-family="Helvetica,sans-Serif" font-size="10.00">DirectoryName</text>
</a>
</g>
</g>
<!-- Node4&#45;&gt;Node5 -->
<g id="edge4" class="edge">
<title>Node4&#45;&gt;Node5</title>
<path fill="none" stroke="#63b8ff" d="M426.99,-20.5C435.56,-20.5 444.41,-20.5 453.17,-20.5"/>
<polygon fill="#63b8ff" stroke="#63b8ff" points="453.11,-24 463.11,-20.5 453.11,-17 453.11,-24"/>
</g>
</g>
</svg>
