<?xml version="1.0" encoding="UTF-8" standalone="no"?>
<!DOCTYPE svg PUBLIC "-//W3C//DTD SVG 1.1//EN"
 "http://www.w3.org/Graphics/SVG/1.1/DTD/svg11.dtd">
<!-- Generated by graphviz version 7.1.0 (20230121.1956)
 -->
<!-- Title: UndoableFileSystemNodeRemove Pages: 1 -->
<svg width="258pt" height="247pt"
 viewBox="0.00 0.00 258.00 247.00" xmlns="http://www.w3.org/2000/svg" xmlns:xlink="http://www.w3.org/1999/xlink">
<g id="graph0" class="graph" transform="scale(1 1) rotate(0) translate(4 243)">
<title>UndoableFileSystemNodeRemove</title>
<!-- Node1 -->
<g id="node1" class="node">
<title>Node1</title>
<g id="a_node1"><a xlink:title="Remove the given path which may either point to a file or folder.">
<polygon fill="#999999" stroke="#666666" points="205.5,-74 38.5,-74 38.5,-55 205.5,-55 205.5,-74"/>
<text text-anchor="middle" x="122" y="-62" font-family="Helvetica,sans-Serif" font-size="10.00">UndoableFileSystemNodeRemove</text>
</a>
</g>
</g>
<!-- Node5 -->
<g id="node5" class="node">
<title>Node5</title>
<g id="a_node5"><a xlink:href="class_o_c_a_1_1_c_a_f_e_v_d_b_1_1_common_1_1_undoable_file_remove.html" target="_top" xlink:title="Remove the given node, which must be a regular file.">
<polygon fill="white" stroke="#666666" points="110,-19 0,-19 0,0 110,0 110,-19"/>
<text text-anchor="middle" x="55" y="-7" font-family="Helvetica,sans-Serif" font-size="10.00">UndoableFileRemove</text>
</a>
</g>
</g>
<!-- Node1&#45;&gt;Node5 -->
<g id="edge4" class="edge">
<title>Node1&#45;&gt;Node5</title>
<path fill="none" stroke="#63b8ff" d="M101.95,-47.64C90.25,-38.39 75.93,-27.05 66.2,-19.36"/>
<polygon fill="#63b8ff" stroke="#63b8ff" points="99.43,-50.11 109.45,-53.57 103.78,-44.62 99.43,-50.11"/>
</g>
<!-- Node6 -->
<g id="node6" class="node">
<title>Node6</title>
<g id="a_node6"><a xlink:href="class_o_c_a_1_1_c_a_f_e_v_d_b_1_1_common_1_1_undoable_folder_remove.html" target="_top" xlink:title="Remove the given node, which must be a folder.">
<polygon fill="white" stroke="#666666" points="250,-19 128,-19 128,0 250,0 250,-19"/>
<text text-anchor="middle" x="189" y="-7" font-family="Helvetica,sans-Serif" font-size="10.00">UndoableFolderRemove</text>
</a>
</g>
</g>
<!-- Node1&#45;&gt;Node6 -->
<g id="edge5" class="edge">
<title>Node1&#45;&gt;Node6</title>
<path fill="none" stroke="#63b8ff" d="M142.05,-47.64C153.75,-38.39 168.07,-27.05 177.8,-19.36"/>
<polygon fill="#63b8ff" stroke="#63b8ff" points="140.22,-44.62 134.55,-53.57 144.57,-50.11 140.22,-44.62"/>
</g>
<!-- Node2 -->
<g id="node2" class="node">
<title>Node2</title>
<g id="a_node2"><a xlink:href="class_o_c_a_1_1_c_a_f_e_v_d_b_1_1_common_1_1_abstract_file_system_undoable.html" target="_top" xlink:title="Base for file&#45;system related IUndoable implementations.">
<polygon fill="white" stroke="#666666" points="194,-129 50,-129 50,-110 194,-110 194,-129"/>
<text text-anchor="middle" x="122" y="-117" font-family="Helvetica,sans-Serif" font-size="10.00">AbstractFileSystemUndoable</text>
</a>
</g>
</g>
<!-- Node2&#45;&gt;Node1 -->
<g id="edge1" class="edge">
<title>Node2&#45;&gt;Node1</title>
<path fill="none" stroke="#63b8ff" d="M122,-98.35C122,-90.1 122,-80.97 122,-74.44"/>
<polygon fill="#63b8ff" stroke="#63b8ff" points="118.5,-98.23 122,-108.23 125.5,-98.23 118.5,-98.23"/>
</g>
<!-- Node3 -->
<g id="node3" class="node">
<title>Node3</title>
<g id="a_node3"><a xlink:href="class_o_c_a_1_1_c_a_f_e_v_d_b_1_1_common_1_1_abstract_undoable.html" target="_top" xlink:title="Default implementation for some methods.">
<polygon fill="white" stroke="#666666" points="169.5,-184 74.5,-184 74.5,-165 169.5,-165 169.5,-184"/>
<text text-anchor="middle" x="122" y="-172" font-family="Helvetica,sans-Serif" font-size="10.00">AbstractUndoable</text>
</a>
</g>
</g>
<!-- Node3&#45;&gt;Node2 -->
<g id="edge2" class="edge">
<title>Node3&#45;&gt;Node2</title>
<path fill="none" stroke="#63b8ff" d="M122,-153.35C122,-145.1 122,-135.97 122,-129.44"/>
<polygon fill="#63b8ff" stroke="#63b8ff" points="118.5,-153.23 122,-163.23 125.5,-153.23 118.5,-153.23"/>
</g>
<!-- Node4 -->
<g id="node4" class="node">
<title>Node4</title>
<g id="a_node4"><a xlink:href="interface_o_c_a_1_1_c_a_f_e_v_d_b_1_1_common_1_1_i_undoable.html" target="_top" xlink:title="Simplistic do&#45;undo interface in order to be stacked into a do&#45;undo&#45;list.">
<polygon fill="white" stroke="#666666" points="152.5,-239 91.5,-239 91.5,-220 152.5,-220 152.5,-239"/>
<text text-anchor="middle" x="122" y="-227" font-family="Helvetica,sans-Serif" font-size="10.00">IUndoable</text>
</a>
</g>
</g>
<!-- Node4&#45;&gt;Node3 -->
<g id="edge3" class="edge">
<title>Node4&#45;&gt;Node3</title>
<path fill="none" stroke="#63b8ff" d="M122,-208.35C122,-200.1 122,-190.97 122,-184.44"/>
<polygon fill="#63b8ff" stroke="#63b8ff" points="118.5,-208.23 122,-218.23 125.5,-208.23 118.5,-208.23"/>
</g>
</g>
</svg>
