<?xml version="1.0" encoding="UTF-8" standalone="no"?>
<!DOCTYPE svg PUBLIC "-//W3C//DTD SVG 1.1//EN"
 "http://www.w3.org/Graphics/SVG/1.1/DTD/svg11.dtd">
<!-- Generated by graphviz version 7.1.0 (20230121.1956)
 -->
<!-- Title: ProjectParticipantField Pages: 1 -->
<svg width="184pt" height="137pt"
 viewBox="0.00 0.00 183.50 137.00" xmlns="http://www.w3.org/2000/svg" xmlns:xlink="http://www.w3.org/1999/xlink">
<g id="graph0" class="graph" transform="scale(1 1) rotate(0) translate(4 133)">
<title>ProjectParticipantField</title>
<!-- Node1 -->
<g id="node1" class="node">
<title>Node1</title>
<g id="a_node1"><a xlink:title="DO NOT EDIT THIS FILE &#45; IT WAS CREATED BY DOCTRINE&#39;S PROXY GENERATOR.">
<polygon fill="#999999" stroke="#666666" points="163,-19 48,-19 48,0 163,0 163,-19"/>
<text text-anchor="middle" x="105.5" y="-7" font-family="Helvetica,sans-Serif" font-size="10.00">ProjectParticipantField</text>
</a>
</g>
</g>
<!-- Node2 -->
<g id="node2" class="node">
<title>Node2</title>
<g id="a_node2"><a xlink:href="class_o_c_a_1_1_c_a_f_e_v_d_b_1_1_database_1_1_doctrine_1_1_o_r_m_1_1_entities_1_1_project_participant_field.html" target="_top" xlink:title="ProjectParticipantFields.">
<polygon fill="white" stroke="#666666" points="115,-74 0,-74 0,-55 115,-55 115,-74"/>
<text text-anchor="middle" x="57.5" y="-62" font-family="Helvetica,sans-Serif" font-size="10.00">ProjectParticipantField</text>
</a>
</g>
</g>
<!-- Node2&#45;&gt;Node1 -->
<g id="edge1" class="edge">
<title>Node2&#45;&gt;Node1</title>
<path fill="none" stroke="#63b8ff" d="M73.15,-46.22C81.25,-37.28 90.79,-26.74 97.4,-19.44"/>
<polygon fill="#63b8ff" stroke="#63b8ff" points="70.56,-43.86 66.44,-53.63 75.75,-48.56 70.56,-43.86"/>
</g>
<!-- Node3 -->
<g id="node3" class="node">
<title>Node3</title>
<g id="a_node3"><a xlink:title=" ">
<polygon fill="white" stroke="#bfbfbf" points="94,-129 21,-129 21,-110 94,-110 94,-129"/>
<text text-anchor="middle" x="57.5" y="-117" font-family="Helvetica,sans-Serif" font-size="10.00">ArrayAccess</text>
</a>
</g>
</g>
<!-- Node3&#45;&gt;Node2 -->
<g id="edge2" class="edge">
<title>Node3&#45;&gt;Node2</title>
<path fill="none" stroke="#63b8ff" d="M57.5,-98.35C57.5,-90.1 57.5,-80.97 57.5,-74.44"/>
<polygon fill="#63b8ff" stroke="#63b8ff" points="54,-98.23 57.5,-108.23 61,-98.23 54,-98.23"/>
</g>
<!-- Node4 -->
<g id="node4" class="node">
<title>Node4</title>
<g id="a_node4"><a xlink:title=" ">
<polygon fill="white" stroke="#bfbfbf" points="175.5,-74 133.5,-74 133.5,-55 175.5,-55 175.5,-74"/>
<text text-anchor="middle" x="154.5" y="-62" font-family="Helvetica,sans-Serif" font-size="10.00">Proxy</text>
</a>
</g>
</g>
<!-- Node4&#45;&gt;Node1 -->
<g id="edge3" class="edge">
<title>Node4&#45;&gt;Node1</title>
<path fill="none" stroke="#63b8ff" d="M138.78,-46.5C130.46,-37.5 120.59,-26.82 113.77,-19.44"/>
<polygon fill="#63b8ff" stroke="#63b8ff" points="136.02,-48.67 145.38,-53.64 141.16,-43.92 136.02,-48.67"/>
</g>
</g>
</svg>
