<?xml version="1.0" encoding="UTF-8" standalone="no"?>
<!DOCTYPE svg PUBLIC "-//W3C//DTD SVG 1.1//EN"
 "http://www.w3.org/Graphics/SVG/1.1/DTD/svg11.dtd">
<!-- Generated by graphviz version 7.1.0 (20230121.1956)
 -->
<!-- Title: addMessage Pages: 1 -->
<svg width="458pt" height="49pt"
 viewBox="0.00 0.00 458.00 49.00" xmlns="http://www.w3.org/2000/svg" xmlns:xlink="http://www.w3.org/1999/xlink">
<g id="graph0" class="graph" transform="scale(1 1) rotate(0) translate(4 45)">
<title>addMessage</title>
<!-- Node1 -->
<g id="node1" class="node">
<title>Node1</title>
<g id="a_node1"><a xlink:title=" ">
<polygon fill="#999999" stroke="#666666" points="450,-30 378,-30 378,-11 450,-11 450,-30"/>
<text text-anchor="middle" x="414" y="-18" font-family="Helvetica,sans-Serif" font-size="10.00">addMessage</text>
</a>
</g>
</g>
<!-- Node2 -->
<g id="node2" class="node">
<title>Node2</title>
<g id="a_node2"><a xlink:href="class_o_c_a_1_1_c_a_f_e_v_d_b_1_1_maintenance_1_1_sanitizers_1_1_google_mail_sanitizer.html#a184909dab34698899937d810a9f5d393" target="_top" xlink:title="{{bool Return \true if the entity is ok to the judgement of this sanitizer, \false otherwise....">
<polygon fill="white" stroke="#666666" points="342,-41 189,-41 189,0 342,0 342,-41"/>
<text text-anchor="start" x="197" y="-29" font-family="Helvetica,sans-Serif" font-size="10.00">OCA\CAFEVDB\Maintenance</text>
<text text-anchor="start" x="197" y="-18" font-family="Helvetica,sans-Serif" font-size="10.00">\Sanitizers\GoogleMailSanitizer</text>
<text text-anchor="middle" x="265.5" y="-7" font-family="Helvetica,sans-Serif" font-size="10.00">\validate</text>
</a>
</g>
</g>
<!-- Node1&#45;&gt;Node2 -->
<g id="edge1" class="edge">
<title>Node1&#45;&gt;Node2</title>
<path fill="none" stroke="#63b8ff" d="M366.07,-20.5C358.51,-20.5 350.51,-20.5 342.48,-20.5"/>
<polygon fill="#63b8ff" stroke="#63b8ff" points="366.02,-24 376.02,-20.5 366.02,-17 366.02,-24"/>
</g>
<!-- Node3 -->
<g id="node3" class="node">
<title>Node3</title>
<g id="a_node3"><a xlink:href="class_o_c_a_1_1_c_a_f_e_v_d_b_1_1_maintenance_1_1_sanitizers_1_1_google_mail_sanitizer.html#ab6f35bf773b3e078c9f9acd8e4f8de84" target="_top" xlink:title="{{Call sanitize(SANITIZE_PERSIST, $flush).void\SanitizerException}}">
<polygon fill="white" stroke="#666666" points="153,-41 0,-41 0,0 153,0 153,-41"/>
<text text-anchor="start" x="8" y="-29" font-family="Helvetica,sans-Serif" font-size="10.00">OCA\CAFEVDB\Maintenance</text>
<text text-anchor="start" x="8" y="-18" font-family="Helvetica,sans-Serif" font-size="10.00">\Sanitizers\GoogleMailSanitizer</text>
<text text-anchor="middle" x="76.5" y="-7" font-family="Helvetica,sans-Serif" font-size="10.00">\sanitizePersist</text>
</a>
</g>
</g>
<!-- Node2&#45;&gt;Node3 -->
<g id="edge2" class="edge">
<title>Node2&#45;&gt;Node3</title>
<path fill="none" stroke="#63b8ff" d="M177.43,-20.5C169.4,-20.5 161.31,-20.5 153.4,-20.5"/>
<polygon fill="#63b8ff" stroke="#63b8ff" points="177.2,-24 187.2,-20.5 177.2,-17 177.2,-24"/>
</g>
</g>
</svg>
