<?xml version="1.0" encoding="UTF-8" standalone="no"?>
<!DOCTYPE svg PUBLIC "-//W3C//DTD SVG 1.1//EN"
 "http://www.w3.org/Graphics/SVG/1.1/DTD/svg11.dtd">
<!-- Generated by graphviz version 7.1.0 (20230121.1956)
 -->
<!-- Title: merge Pages: 1 -->
<svg width="209pt" height="64pt"
 viewBox="0.00 0.00 209.00 64.00" xmlns="http://www.w3.org/2000/svg" xmlns:xlink="http://www.w3.org/1999/xlink">
<g id="graph0" class="graph" transform="scale(1 1) rotate(0) translate(4 60)">
<title>merge</title>
<!-- Node1 -->
<g id="node1" class="node">
<title>Node1</title>
<g id="a_node1"><a xlink:title="Update multiple properties and write them through to the database if we are in $attached state.">
<polygon fill="#999999" stroke="#666666" points="44,-38 0,-38 0,-19 44,-19 44,-38"/>
<text text-anchor="middle" x="22" y="-26" font-family="Helvetica,sans-Serif" font-size="10.00">merge</text>
</a>
</g>
</g>
<!-- Node2 -->
<g id="node2" class="node">
<title>Node2</title>
<g id="a_node2"><a xlink:href="class_o_c_a_1_1_c_a_f_e_v_d_b_1_1_database_1_1_cloud_1_1_synchronized.html#a57291364b6d186af794627f03aefd38c" target="_top" xlink:title="Obtain object from database if it is &quot;clean&quot;, if it is dirty or new (no id) then create or update the...">
<polygon fill="white" stroke="#666666" points="124,-19 80,-19 80,0 124,0 124,-19"/>
<text text-anchor="middle" x="102" y="-7" font-family="Helvetica,sans-Serif" font-size="10.00">attach</text>
</a>
</g>
</g>
<!-- Node1&#45;&gt;Node2 -->
<g id="edge1" class="edge">
<title>Node1&#45;&gt;Node2</title>
<path fill="none" stroke="#63b8ff" d="M44.31,-23.31C51.79,-21.49 60.38,-19.4 68.56,-17.4"/>
<polygon fill="#63b8ff" stroke="#63b8ff" points="69.35,-20.81 78.24,-15.04 67.7,-14.01 69.35,-20.81"/>
</g>
<!-- Node3 -->
<g id="node3" class="node">
<title>Node3</title>
<g id="a_node3"><a xlink:href="class_o_c_a_1_1_c_a_f_e_v_d_b_1_1_database_1_1_cloud_1_1_synchronized.html#a8c152f6ef1c779ffd79d5c7ee4d37721" target="_top" xlink:title=" ">
<polygon fill="white" stroke="#666666" points="201,-56 160,-56 160,-37 201,-37 201,-56"/>
<text text-anchor="middle" x="180.5" y="-44" font-family="Helvetica,sans-Serif" font-size="10.00">entity</text>
</a>
</g>
</g>
<!-- Node1&#45;&gt;Node3 -->
<g id="edge4" class="edge">
<title>Node1&#45;&gt;Node3</title>
<path fill="none" stroke="#63b8ff" d="M44.43,-30.97C71.33,-34.06 117.67,-39.39 148.45,-42.93"/>
<polygon fill="#63b8ff" stroke="#63b8ff" points="147.97,-46.4 158.3,-44.06 148.77,-39.44 147.97,-46.4"/>
</g>
<!-- Node2&#45;&gt;Node3 -->
<g id="edge2" class="edge">
<title>Node2&#45;&gt;Node3</title>
<path fill="none" stroke="#63b8ff" d="M123.5,-19.42C131.49,-23.28 140.81,-27.79 149.53,-32.01"/>
<polygon fill="#63b8ff" stroke="#63b8ff" points="147.85,-35.08 158.37,-36.28 150.89,-28.78 147.85,-35.08"/>
</g>
<!-- Node4 -->
<g id="node4" class="node">
<title>Node4</title>
<g id="a_node4"><a xlink:href="class_o_c_a_1_1_c_a_f_e_v_d_b_1_1_database_1_1_cloud_1_1_synchronized.html#a1ba50cbde423b0b17031ea550a599ae8" target="_top" xlink:title=" ">
<polygon fill="white" stroke="#666666" points="196.5,-19 164.5,-19 164.5,0 196.5,0 196.5,-19"/>
<text text-anchor="middle" x="180.5" y="-7" font-family="Helvetica,sans-Serif" font-size="10.00">find</text>
</a>
</g>
</g>
<!-- Node2&#45;&gt;Node4 -->
<g id="edge3" class="edge">
<title>Node2&#45;&gt;Node4</title>
<path fill="none" stroke="#63b8ff" d="M124.31,-9.5C133.16,-9.5 143.53,-9.5 152.88,-9.5"/>
<polygon fill="#63b8ff" stroke="#63b8ff" points="152.85,-13 162.85,-9.5 152.85,-6 152.85,-13"/>
</g>
</g>
</svg>
