<?xml version="1.0" encoding="UTF-8" standalone="no"?>
<!DOCTYPE svg PUBLIC "-//W3C//DTD SVG 1.1//EN"
 "http://www.w3.org/Graphics/SVG/1.1/DTD/svg11.dtd">
<!-- Generated by graphviz version 7.1.0 (20230121.1956)
 -->
<!-- Title: getCategories Pages: 1 -->
<svg width="485pt" height="157pt"
 viewBox="0.00 0.00 485.00 156.50" xmlns="http://www.w3.org/2000/svg" xmlns:xlink="http://www.w3.org/1999/xlink">
<g id="graph0" class="graph" transform="scale(1 1) rotate(0) translate(4 152.5)">
<title>getCategories</title>
<!-- Node1 -->
<g id="node1" class="node">
<title>Node1</title>
<g id="a_node1"><a xlink:title="Return the category list for the given object.">
<polygon fill="#999999" stroke="#666666" points="477,-78.5 400,-78.5 400,-59.5 477,-59.5 477,-78.5"/>
<text text-anchor="middle" x="438.5" y="-66.5" font-family="Helvetica,sans-Serif" font-size="10.00">getCategories</text>
</a>
</g>
</g>
<!-- Node2 -->
<g id="node2" class="node">
<title>Node2</title>
<g id="a_node2"><a xlink:href="class_o_c_a_1_1_c_a_f_e_v_d_b_1_1_service_1_1_events_service.html#a65acaff5b7ab74125bbfabf6cc45c3cc" target="_top" xlink:title=" ">
<polygon fill="white" stroke="#666666" points="364,-138 200,-138 200,-108 364,-108 364,-138"/>
<text text-anchor="start" x="208" y="-126" font-family="Helvetica,sans-Serif" font-size="10.00">OCA\CAFEVDB\Service</text>
<text text-anchor="middle" x="282" y="-115" font-family="Helvetica,sans-Serif" font-size="10.00">\EventsService\onProjectUpdated</text>
</a>
</g>
</g>
<!-- Node1&#45;&gt;Node2 -->
<g id="edge1" class="edge">
<title>Node1&#45;&gt;Node2</title>
<path fill="none" stroke="#63b8ff" d="M404.42,-83.32C391.87,-88.54 377.38,-94.3 364,-99 355.56,-101.96 346.54,-104.88 337.7,-107.6"/>
<polygon fill="#63b8ff" stroke="#63b8ff" points="405.63,-86.61 413.48,-79.5 402.91,-80.16 405.63,-86.61"/>
</g>
<!-- Node3 -->
<g id="node3" class="node">
<title>Node3</title>
<g id="a_node3"><a xlink:href="class_o_c_a_1_1_c_a_f_e_v_d_b_1_1_service_1_1_events_service.html#a9c5b6c8d51d88794475b33331e1afa98" target="_top" xlink:title="Parse the respective event data and make sure the ProjectEvents table is uptodate.">
<polygon fill="white" stroke="#666666" points="355,-89.5 209,-89.5 209,-48.5 355,-48.5 355,-89.5"/>
<text text-anchor="start" x="217" y="-77.5" font-family="Helvetica,sans-Serif" font-size="10.00">OCA\CAFEVDB\Service</text>
<text text-anchor="start" x="217" y="-66.5" font-family="Helvetica,sans-Serif" font-size="10.00">\EventsService\syncCalendar</text>
<text text-anchor="middle" x="282" y="-55.5" font-family="Helvetica,sans-Serif" font-size="10.00">Object</text>
</a>
</g>
</g>
<!-- Node1&#45;&gt;Node3 -->
<g id="edge2" class="edge">
<title>Node1&#45;&gt;Node3</title>
<path fill="none" stroke="#63b8ff" d="M388.28,-69C377.81,-69 366.55,-69 355.43,-69"/>
<polygon fill="#63b8ff" stroke="#63b8ff" points="388.19,-72.5 398.19,-69 388.19,-65.5 388.19,-72.5"/>
</g>
<!-- Node6 -->
<g id="node6" class="node">
<title>Node6</title>
<g id="a_node6"><a xlink:href="class_o_c_a_1_1_c_a_f_e_v_d_b_1_1_service_1_1_events_service.html#aea891e648fce8ad16b530a23c9eda30c" target="_top" xlink:title="Unconditionally unregister the given event with the given project, and remove the project&#45;name from t...">
<polygon fill="white" stroke="#666666" points="344.5,-30 219.5,-30 219.5,0 344.5,0 344.5,-30"/>
<text text-anchor="start" x="227.5" y="-18" font-family="Helvetica,sans-Serif" font-size="10.00">OCA\CAFEVDB\Service</text>
<text text-anchor="middle" x="282" y="-7" font-family="Helvetica,sans-Serif" font-size="10.00">\EventsService\unchain</text>
</a>
</g>
</g>
<!-- Node1&#45;&gt;Node6 -->
<g id="edge5" class="edge">
<title>Node1&#45;&gt;Node6</title>
<path fill="none" stroke="#63b8ff" d="M404.42,-54.68C391.87,-49.46 377.38,-43.7 364,-39 355.56,-36.04 346.54,-33.12 337.7,-30.4"/>
<polygon fill="#63b8ff" stroke="#63b8ff" points="402.91,-57.84 413.48,-58.5 405.63,-51.39 402.91,-57.84"/>
</g>
<!-- Node4 -->
<g id="node4" class="node">
<title>Node4</title>
<g id="a_node4"><a xlink:href="class_o_c_a_1_1_c_a_f_e_v_d_b_1_1_service_1_1_events_service.html#a3b6658ae82665c492cf28af4e6277831" target="_top" xlink:title=" ">
<polygon fill="white" stroke="#666666" points="164,-148.5 0,-148.5 0,-107.5 164,-107.5 164,-148.5"/>
<text text-anchor="start" x="8" y="-136.5" font-family="Helvetica,sans-Serif" font-size="10.00">OCA\CAFEVDB\Service</text>
<text text-anchor="start" x="8" y="-125.5" font-family="Helvetica,sans-Serif" font-size="10.00">\EventsService\onCalendarObject</text>
<text text-anchor="middle" x="82" y="-114.5" font-family="Helvetica,sans-Serif" font-size="10.00">Created</text>
</a>
</g>
</g>
<!-- Node3&#45;&gt;Node4 -->
<g id="edge3" class="edge">
<title>Node3&#45;&gt;Node4</title>
<path fill="none" stroke="#63b8ff" d="M199.61,-93.25C184.3,-97.81 168.41,-102.55 153.47,-107"/>
<polygon fill="#63b8ff" stroke="#63b8ff" points="200.6,-96.61 209.18,-90.4 198.6,-89.9 200.6,-96.61"/>
</g>
<!-- Node5 -->
<g id="node5" class="node">
<title>Node5</title>
<g id="a_node5"><a xlink:href="class_o_c_a_1_1_c_a_f_e_v_d_b_1_1_service_1_1_events_service.html#ad0dad4413ad713821f2a1be6a76fd888" target="_top" xlink:title=" ">
<polygon fill="white" stroke="#666666" points="164,-89.5 0,-89.5 0,-48.5 164,-48.5 164,-89.5"/>
<text text-anchor="start" x="8" y="-77.5" font-family="Helvetica,sans-Serif" font-size="10.00">OCA\CAFEVDB\Service</text>
<text text-anchor="start" x="8" y="-66.5" font-family="Helvetica,sans-Serif" font-size="10.00">\EventsService\onCalendarObject</text>
<text text-anchor="middle" x="82" y="-55.5" font-family="Helvetica,sans-Serif" font-size="10.00">Updated</text>
</a>
</g>
</g>
<!-- Node3&#45;&gt;Node5 -->
<g id="edge4" class="edge">
<title>Node3&#45;&gt;Node5</title>
<path fill="none" stroke="#63b8ff" d="M197.34,-69C186.36,-69 175.11,-69 164.16,-69"/>
<polygon fill="#63b8ff" stroke="#63b8ff" points="197.16,-72.5 207.16,-69 197.16,-65.5 197.16,-72.5"/>
</g>
<!-- Node7 -->
<g id="node7" class="node">
<title>Node7</title>
<g id="a_node7"><a xlink:href="class_o_c_a_1_1_c_a_f_e_v_d_b_1_1_service_1_1_events_service.html#aa0ac3177e93f6493517061766988cb27" target="_top" xlink:title=" ">
<polygon fill="white" stroke="#666666" points="162.5,-30 1.5,-30 1.5,0 162.5,0 162.5,-30"/>
<text text-anchor="start" x="9.5" y="-18" font-family="Helvetica,sans-Serif" font-size="10.00">OCA\CAFEVDB\Service</text>
<text text-anchor="middle" x="82" y="-7" font-family="Helvetica,sans-Serif" font-size="10.00">\EventsService\onProjectDeleted</text>
</a>
</g>
</g>
<!-- Node6&#45;&gt;Node7 -->
<g id="edge6" class="edge">
<title>Node6&#45;&gt;Node7</title>
<path fill="none" stroke="#63b8ff" d="M207.67,-15C193.09,-15 177.71,-15 162.91,-15"/>
<polygon fill="#63b8ff" stroke="#63b8ff" points="207.65,-18.5 217.65,-15 207.65,-11.5 207.65,-18.5"/>
</g>
</g>
</svg>
