<?xml version="1.0" encoding="UTF-8" standalone="no"?>
<!DOCTYPE svg PUBLIC "-//W3C//DTD SVG 1.1//EN"
 "http://www.w3.org/Graphics/SVG/1.1/DTD/svg11.dtd">
<!-- Generated by graphviz version 7.1.0 (20230121.1956)
 -->
<!-- Title: defaultUserBase Pages: 1 -->
<svg width="521pt" height="64pt"
 viewBox="0.00 0.00 521.00 64.00" xmlns="http://www.w3.org/2000/svg" xmlns:xlink="http://www.w3.org/1999/xlink">
<g id="graph0" class="graph" transform="scale(1 1) rotate(0) translate(4 60)">
<title>defaultUserBase</title>
<!-- Node1 -->
<g id="node1" class="node">
<title>Node1</title>
<g id="a_node1"><a xlink:title="The default user base.">
<polygon fill="#999999" stroke="#666666" points="513,-37 424,-37 424,-18 513,-18 513,-37"/>
<text text-anchor="middle" x="468.5" y="-25" font-family="Helvetica,sans-Serif" font-size="10.00">defaultUserBase</text>
</a>
</g>
</g>
<!-- Node2 -->
<g id="node2" class="node">
<title>Node2</title>
<g id="a_node2"><a xlink:href="class_o_c_a_1_1_c_a_f_e_v_d_b_1_1_email_form_1_1_recipients_filter.html#a91325e5bf1c1dafd989c072cdd289f7e" target="_top" xlink:title="Decode the check&#45;boxes which select the set of users we consider basically.">
<polygon fill="white" stroke="#666666" points="388,-37 285,-37 285,-18 388,-18 388,-37"/>
<text text-anchor="middle" x="336.5" y="-25" font-family="Helvetica,sans-Serif" font-size="10.00">determineUserBase</text>
</a>
</g>
</g>
<!-- Node1&#45;&gt;Node2 -->
<g id="edge1" class="edge">
<title>Node1&#45;&gt;Node2</title>
<path fill="none" stroke="#63b8ff" d="M412.41,-27.5C404.46,-27.5 396.31,-27.5 388.45,-27.5"/>
<polygon fill="#63b8ff" stroke="#63b8ff" points="412.34,-31 422.34,-27.5 412.34,-24 412.34,-31"/>
</g>
<!-- Node3 -->
<g id="node3" class="node">
<title>Node3</title>
<g id="a_node3"><a xlink:href="class_o_c_a_1_1_c_a_f_e_v_d_b_1_1_email_form_1_1_recipients_filter.html#a1909f4b7f8129c7790cb75de2ffbe1e4" target="_top" xlink:title="Parse the CGI stuff and compute the list of selected musicians, either for the initial form setup as ...">
<polygon fill="white" stroke="#666666" points="237.5,-56 186.5,-56 186.5,-37 237.5,-37 237.5,-56"/>
<text text-anchor="middle" x="212" y="-44" font-family="Helvetica,sans-Serif" font-size="10.00">execute</text>
</a>
</g>
</g>
<!-- Node2&#45;&gt;Node3 -->
<g id="edge2" class="edge">
<title>Node2&#45;&gt;Node3</title>
<path fill="none" stroke="#63b8ff" d="M273.52,-37.11C260.85,-39.08 248.23,-41.04 237.81,-42.65"/>
<polygon fill="#63b8ff" stroke="#63b8ff" points="273.77,-40.62 283.12,-35.62 272.7,-33.7 273.77,-40.62"/>
</g>
<!-- Node6 -->
<g id="node6" class="node">
<title>Node6</title>
<g id="a_node6"><a xlink:href="class_o_c_a_1_1_c_a_f_e_v_d_b_1_1_email_form_1_1_recipients_filter.html#a663723b25bb16f0aa79658c5111c8af9" target="_top" xlink:title="Programmatically set the user base, e.g.">
<polygon fill="white" stroke="#666666" points="249,-19 175,-19 175,0 249,0 249,-19"/>
<text text-anchor="middle" x="212" y="-7" font-family="Helvetica,sans-Serif" font-size="10.00">setUserBase</text>
</a>
</g>
</g>
<!-- Node2&#45;&gt;Node6 -->
<g id="edge5" class="edge">
<title>Node2&#45;&gt;Node6</title>
<path fill="none" stroke="#63b8ff" d="M273.42,-18.38C265.18,-17.17 256.96,-15.96 249.36,-14.84"/>
<polygon fill="#63b8ff" stroke="#63b8ff" points="272.71,-21.81 283.12,-19.8 273.73,-14.89 272.71,-21.81"/>
</g>
<!-- Node4 -->
<g id="node4" class="node">
<title>Node4</title>
<g id="a_node4"><a xlink:href="class_o_c_a_1_1_c_a_f_e_v_d_b_1_1_email_form_1_1_recipients_filter.html#ae40c9dafec946961dfd72815f6764fb8" target="_top" xlink:title=" ">
<polygon fill="white" stroke="#666666" points="139,-56 104,-56 104,-37 139,-37 139,-56"/>
<text text-anchor="middle" x="121.5" y="-44" font-family="Helvetica,sans-Serif" font-size="10.00">bind</text>
</a>
</g>
</g>
<!-- Node3&#45;&gt;Node4 -->
<g id="edge3" class="edge">
<title>Node3&#45;&gt;Node4</title>
<path fill="none" stroke="#63b8ff" d="M174.97,-46.5C162.69,-46.5 149.53,-46.5 139.46,-46.5"/>
<polygon fill="#63b8ff" stroke="#63b8ff" points="174.83,-50 184.83,-46.5 174.83,-43 174.83,-50"/>
</g>
<!-- Node5 -->
<g id="node5" class="node">
<title>Node5</title>
<g id="a_node5"><a xlink:href="class_o_c_a_1_1_c_a_f_e_v_d_b_1_1_email_form_1_1_recipients_filter.html#a1a3fa621489e73c7386685aa0e152c30" target="_top" xlink:title="{}">
<polygon fill="white" stroke="#666666" points="68,-56 0,-56 0,-37 68,-37 68,-56"/>
<text text-anchor="middle" x="34" y="-44" font-family="Helvetica,sans-Serif" font-size="10.00">__construct</text>
</a>
</g>
</g>
<!-- Node4&#45;&gt;Node5 -->
<g id="edge4" class="edge">
<title>Node4&#45;&gt;Node5</title>
<path fill="none" stroke="#63b8ff" d="M92.36,-46.5C84.72,-46.5 76.38,-46.5 68.48,-46.5"/>
<polygon fill="#63b8ff" stroke="#63b8ff" points="92.09,-50 102.09,-46.5 92.09,-43 92.09,-50"/>
</g>
</g>
</svg>
