<?xml version="1.0" encoding="UTF-8" standalone="no"?>
<!DOCTYPE svg PUBLIC "-//W3C//DTD SVG 1.1//EN"
 "http://www.w3.org/Graphics/SVG/1.1/DTD/svg11.dtd">
<!-- Generated by graphviz version 7.1.0 (20230121.1956)
 -->
<!-- Title: serviceSwitch Pages: 1 -->
<svg width="458pt" height="212pt"
 viewBox="0.00 0.00 458.00 212.00" xmlns="http://www.w3.org/2000/svg" xmlns:xlink="http://www.w3.org/1999/xlink">
<g id="graph0" class="graph" transform="scale(1 1) rotate(0) translate(4 208)">
<title>serviceSwitch</title>
<!-- Node1 -->
<g id="node1" class="node">
<title>Node1</title>
<g id="a_node1"><a xlink:title=" ">
<polygon fill="#999999" stroke="#666666" points="78,-111 0,-111 0,-92 78,-92 78,-111"/>
<text text-anchor="middle" x="39" y="-99" font-family="Helvetica,sans-Serif" font-size="10.00">serviceSwitch</text>
</a>
</g>
</g>
<!-- Node2 -->
<g id="node2" class="node">
<title>Node2</title>
<g id="a_node2"><a xlink:href="class_o_c_a_1_1_c_a_f_e_v_d_b_1_1_controller_1_1_legacy_events_controller.html#a76774ba8d11d25ceb3c894f192362413" target="_top" xlink:title=" ">
<polygon fill="white" stroke="#666666" points="189.5,-204 121.5,-204 121.5,-185 189.5,-185 189.5,-204"/>
<text text-anchor="middle" x="155.5" y="-192" font-family="Helvetica,sans-Serif" font-size="10.00">deleteEvent</text>
</a>
</g>
</g>
<!-- Node1&#45;&gt;Node2 -->
<g id="edge1" class="edge">
<title>Node1&#45;&gt;Node2</title>
<path fill="none" stroke="#63b8ff" d="M47.7,-111.42C60.2,-126.98 86.32,-157.35 114,-176.5 115.38,-177.46 116.83,-178.38 118.31,-179.27"/>
<polygon fill="#63b8ff" stroke="#63b8ff" points="116.63,-182.35 127.11,-183.94 119.92,-176.16 116.63,-182.35"/>
</g>
<!-- Node3 -->
<g id="node3" class="node">
<title>Node3</title>
<g id="a_node3"><a xlink:href="class_o_c_a_1_1_c_a_f_e_v_d_b_1_1_controller_1_1_legacy_events_controller.html#aa0af854aeaaf83b040b29d006e79fa0a" target="_top" xlink:title=" ">
<polygon fill="white" stroke="#666666" points="184.5,-167 126.5,-167 126.5,-148 184.5,-148 184.5,-167"/>
<text text-anchor="middle" x="155.5" y="-155" font-family="Helvetica,sans-Serif" font-size="10.00">editEvent</text>
</a>
</g>
</g>
<!-- Node1&#45;&gt;Node3 -->
<g id="edge2" class="edge">
<title>Node1&#45;&gt;Node3</title>
<path fill="none" stroke="#63b8ff" d="M58.71,-111.48C73.59,-119.32 94.98,-130.4 114,-139.5 116.4,-140.65 118.89,-141.82 121.41,-142.98"/>
<polygon fill="#63b8ff" stroke="#63b8ff" points="119.76,-146.07 130.31,-147.01 122.65,-139.69 119.76,-146.07"/>
</g>
<!-- Node4 -->
<g id="node4" class="node">
<title>Node4</title>
<g id="a_node4"><a xlink:href="class_o_c_a_1_1_c_a_f_e_v_d_b_1_1_controller_1_1_legacy_events_controller.html#a450a21c4fa0b70707a5fd8aaf6a96466" target="_top" xlink:title="Edit an existing event.">
<polygon fill="white" stroke="#666666" points="195.5,-130 115.5,-130 115.5,-111 195.5,-111 195.5,-130"/>
<text text-anchor="middle" x="155.5" y="-118" font-family="Helvetica,sans-Serif" font-size="10.00">editEventForm</text>
</a>
</g>
</g>
<!-- Node1&#45;&gt;Node4 -->
<g id="edge3" class="edge">
<title>Node1&#45;&gt;Node4</title>
<path fill="none" stroke="#63b8ff" d="M78.45,-107.88C86.67,-109.24 95.47,-110.7 104.07,-112.13"/>
<polygon fill="#63b8ff" stroke="#63b8ff" points="103.25,-115.54 113.69,-113.73 104.39,-108.64 103.25,-115.54"/>
</g>
<!-- Node6 -->
<g id="node6" class="node">
<title>Node6</title>
<g id="a_node6"><a xlink:href="class_o_c_a_1_1_c_a_f_e_v_d_b_1_1_controller_1_1_legacy_events_controller.html#a6776b2fe4827e91b061b815f7730c89b" target="_top" xlink:title=" ">
<polygon fill="white" stroke="#666666" points="190,-93 121,-93 121,-74 190,-74 190,-93"/>
<text text-anchor="middle" x="155.5" y="-81" font-family="Helvetica,sans-Serif" font-size="10.00">exportEvent</text>
</a>
</g>
</g>
<!-- Node1&#45;&gt;Node6 -->
<g id="edge5" class="edge">
<title>Node1&#45;&gt;Node6</title>
<path fill="none" stroke="#63b8ff" d="M78.45,-95.46C88.36,-93.9 99.12,-92.21 109.34,-90.6"/>
<polygon fill="#63b8ff" stroke="#63b8ff" points="109.74,-94.08 119.08,-89.07 108.66,-87.16 109.74,-94.08"/>
</g>
<!-- Node10 -->
<g id="node10" class="node">
<title>Node10</title>
<g id="a_node10"><a xlink:href="class_o_c_a_1_1_c_a_f_e_v_d_b_1_1_controller_1_1_legacy_events_controller.html#a6c83e799d4a9e5c85e69f5980f3ed41a" target="_top" xlink:title=" ">
<polygon fill="white" stroke="#666666" points="185.5,-56 125.5,-56 125.5,-37 185.5,-37 185.5,-56"/>
<text text-anchor="middle" x="155.5" y="-44" font-family="Helvetica,sans-Serif" font-size="10.00">newEvent</text>
</a>
</g>
</g>
<!-- Node1&#45;&gt;Node10 -->
<g id="edge10" class="edge">
<title>Node1&#45;&gt;Node10</title>
<path fill="none" stroke="#63b8ff" d="M60.06,-91.64C74.93,-84.37 95.69,-74.25 114,-65.5 116.96,-64.09 120.04,-62.62 123.12,-61.17"/>
<polygon fill="#63b8ff" stroke="#63b8ff" points="124.53,-64.37 132.08,-56.95 121.55,-58.04 124.53,-64.37"/>
</g>
<!-- Node11 -->
<g id="node11" class="node">
<title>Node11</title>
<g id="a_node11"><a xlink:href="class_o_c_a_1_1_c_a_f_e_v_d_b_1_1_controller_1_1_legacy_events_controller.html#a8760a80191af6b0890768e015fd317e6" target="_top" xlink:title=" ">
<polygon fill="white" stroke="#666666" points="197,-19 114,-19 114,0 197,0 197,-19"/>
<text text-anchor="middle" x="155.5" y="-7" font-family="Helvetica,sans-Serif" font-size="10.00">newEventForm</text>
</a>
</g>
</g>
<!-- Node1&#45;&gt;Node11 -->
<g id="edge11" class="edge">
<title>Node1&#45;&gt;Node11</title>
<path fill="none" stroke="#63b8ff" d="M47.73,-91.72C60.27,-76.37 86.44,-46.43 114,-27.5 115.39,-26.55 116.83,-25.63 118.32,-24.74"/>
<polygon fill="#63b8ff" stroke="#63b8ff" points="119.92,-27.85 127.12,-20.08 116.65,-21.66 119.92,-27.85"/>
</g>
<!-- Node5 -->
<g id="node5" class="node">
<title>Node5</title>
<g id="a_node5"><a xlink:href="class_o_c_a_1_1_c_a_f_e_v_d_b_1_1_controller_1_1_legacy_events_controller.html#aa6de6a8a34ec5b29770b561cef8da649" target="_top" xlink:title=" ">
<polygon fill="white" stroke="#666666" points="310,-130 236,-130 236,-111 310,-111 310,-130"/>
<text text-anchor="middle" x="273" y="-118" font-family="Helvetica,sans-Serif" font-size="10.00">accessClass</text>
</a>
</g>
</g>
<!-- Node4&#45;&gt;Node5 -->
<g id="edge4" class="edge">
<title>Node4&#45;&gt;Node5</title>
<path fill="none" stroke="#63b8ff" d="M195.93,-120.5C205.12,-120.5 215.02,-120.5 224.52,-120.5"/>
<polygon fill="#63b8ff" stroke="#63b8ff" points="224.34,-124 234.34,-120.5 224.34,-117 224.34,-124"/>
</g>
<!-- Node6&#45;&gt;Node5 -->
<g id="edge6" class="edge">
<title>Node6&#45;&gt;Node5</title>
<path fill="none" stroke="#63b8ff" d="M187.45,-93.42C200.53,-97.6 215.96,-102.55 230.04,-107.06"/>
<polygon fill="#63b8ff" stroke="#63b8ff" points="228.93,-110.38 239.52,-110.1 231.07,-103.71 228.93,-110.38"/>
</g>
<!-- Node7 -->
<g id="node7" class="node">
<title>Node7</title>
<g id="a_node7"><a xlink:href="class_o_c_a_1_1_c_a_f_e_v_d_b_1_1_controller_1_1_legacy_events_controller.html#a2e81591e72e8b5131501fadb6ad98a91" target="_top" xlink:title="Exports an event and convert all times to UTC.">
<polygon fill="white" stroke="#666666" points="313,-93 233,-93 233,-74 313,-74 313,-93"/>
<text text-anchor="middle" x="273" y="-81" font-family="Helvetica,sans-Serif" font-size="10.00">generateEvent</text>
</a>
</g>
</g>
<!-- Node6&#45;&gt;Node7 -->
<g id="edge7" class="edge">
<title>Node6&#45;&gt;Node7</title>
<path fill="none" stroke="#63b8ff" d="M190.22,-83.5C200,-83.5 210.9,-83.5 221.47,-83.5"/>
<polygon fill="#63b8ff" stroke="#63b8ff" points="221.23,-87 231.23,-83.5 221.23,-80 221.23,-87"/>
</g>
<!-- Node8 -->
<g id="node8" class="node">
<title>Node8</title>
<g id="a_node8"><a xlink:href="class_o_c_a_1_1_c_a_f_e_v_d_b_1_1_controller_1_1_legacy_events_controller.html#a66debc077e1a747c0da16f296c9487c7" target="_top" xlink:title="Fixes new line breaks (fixes problems with Apple iCal).">
<polygon fill="white" stroke="#666666" points="437.5,-112 361.5,-112 361.5,-93 437.5,-93 437.5,-112"/>
<text text-anchor="middle" x="399.5" y="-100" font-family="Helvetica,sans-Serif" font-size="10.00">fixLineBreaks</text>
</a>
</g>
</g>
<!-- Node7&#45;&gt;Node8 -->
<g id="edge8" class="edge">
<title>Node7&#45;&gt;Node8</title>
<path fill="none" stroke="#63b8ff" d="M313.39,-89.51C324.95,-91.27 337.72,-93.22 349.78,-95.06"/>
<polygon fill="#63b8ff" stroke="#63b8ff" points="349.15,-98.51 359.57,-96.56 350.21,-91.59 349.15,-98.51"/>
</g>
<!-- Node9 -->
<g id="node9" class="node">
<title>Node9</title>
<g id="a_node9"><a xlink:href="class_o_c_a_1_1_c_a_f_e_v_d_b_1_1_controller_1_1_legacy_events_controller.html#ab7d3c1c71289090ef10741bd4be4331a" target="_top" xlink:title="Serializes the VEVENT/VTODO/VJOURNAL with UTC dates.">
<polygon fill="white" stroke="#666666" points="450,-75 349,-75 349,-56 450,-56 450,-75"/>
<text text-anchor="middle" x="399.5" y="-63" font-family="Helvetica,sans-Serif" font-size="10.00">generateEventData</text>
</a>
</g>
</g>
<!-- Node7&#45;&gt;Node9 -->
<g id="edge9" class="edge">
<title>Node7&#45;&gt;Node9</title>
<path fill="none" stroke="#63b8ff" d="M313.39,-77.8C321.13,-76.69 329.42,-75.49 337.67,-74.29"/>
<polygon fill="#63b8ff" stroke="#63b8ff" points="337.95,-77.79 347.35,-72.9 336.95,-70.86 337.95,-77.79"/>
</g>
</g>
</svg>
