<?xml version="1.0" encoding="UTF-8" standalone="no"?>
<!DOCTYPE svg PUBLIC "-//W3C//DTD SVG 1.1//EN"
 "http://www.w3.org/Graphics/SVG/1.1/DTD/svg11.dtd">
<!-- Generated by graphviz version 7.1.0 (20230121.1956)
 -->
<!-- Title: Exception Pages: 1 -->
<svg width="601pt" height="741pt"
 viewBox="0.00 0.00 601.00 740.50" xmlns="http://www.w3.org/2000/svg" xmlns:xlink="http://www.w3.org/1999/xlink">
<g id="graph0" class="graph" transform="scale(1 1) rotate(0) translate(4 736.5)">
<title>Exception</title>
<!-- Node1 -->
<g id="node1" class="node">
<title>Node1</title>
<g id="a_node1"><a xlink:title="General abstraction base&#45;class.">
<polygon fill="#999999" stroke="#666666" points="177,-228 117,-228 117,-209 177,-209 177,-228"/>
<text text-anchor="middle" x="147" y="-216" font-family="Helvetica,sans-Serif" font-size="10.00">Exception</text>
</a>
</g>
</g>
<!-- Node3 -->
<g id="node3" class="node">
<title>Node3</title>
<g id="a_node3"><a xlink:href="class_o_c_a_1_1_c_a_f_e_v_d_b_1_1_exceptions_1_1_config_locked_exception.html" target="_top" xlink:title=" ">
<polygon fill="white" stroke="#666666" points="358,-579 238,-579 238,-560 358,-560 358,-579"/>
<text text-anchor="middle" x="298" y="-567" font-family="Helvetica,sans-Serif" font-size="10.00">ConfigLockedException</text>
</a>
</g>
</g>
<!-- Node1&#45;&gt;Node3 -->
<g id="edge2" class="edge">
<title>Node1&#45;&gt;Node3</title>
<path fill="none" stroke="#63b8ff" d="M149.15,-239.48C153.2,-305.4 168.99,-506.68 213,-551.5 219.79,-558.42 228.55,-562.98 237.84,-565.94"/>
<polygon fill="#63b8ff" stroke="#63b8ff" points="152.66,-239.48 148.58,-229.7 145.67,-239.88 152.66,-239.48"/>
</g>
<!-- Node4 -->
<g id="node4" class="node">
<title>Node4</title>
<g id="a_node4"><a xlink:href="class_o_c_a_1_1_c_a_f_e_v_d_b_1_1_exceptions_1_1_database_exception.html" target="_top" xlink:title="Base&#45;class for database exceptions.">
<polygon fill="white" stroke="#666666" points="349,-542 247,-542 247,-523 349,-523 349,-542"/>
<text text-anchor="middle" x="298" y="-530" font-family="Helvetica,sans-Serif" font-size="10.00">DatabaseException</text>
</a>
</g>
</g>
<!-- Node1&#45;&gt;Node4 -->
<g id="edge3" class="edge">
<title>Node1&#45;&gt;Node4</title>
<path fill="none" stroke="#63b8ff" d="M157.42,-238.35C186.03,-298.65 271.28,-478.3 292.28,-522.56"/>
<polygon fill="#63b8ff" stroke="#63b8ff" points="160.72,-237.14 153.27,-229.61 154.4,-240.14 160.72,-237.14"/>
</g>
<!-- Node13 -->
<g id="node13" class="node">
<title>Node13</title>
<g id="a_node13"><a xlink:href="class_o_c_a_1_1_c_a_f_e_v_d_b_1_1_exceptions_1_1_database_storage_exception.html" target="_top" xlink:title="Exception class tag for the database storage backend.">
<polygon fill="white" stroke="#666666" points="366,-321 230,-321 230,-302 366,-302 366,-321"/>
<text text-anchor="middle" x="298" y="-309" font-family="Helvetica,sans-Serif" font-size="10.00">DatabaseStorageException</text>
</a>
</g>
</g>
<!-- Node1&#45;&gt;Node13 -->
<g id="edge12" class="edge">
<title>Node1&#45;&gt;Node13</title>
<path fill="none" stroke="#63b8ff" d="M159.66,-238.01C171.07,-255.33 190.03,-279.92 213,-293.5 218.52,-296.76 224.56,-299.44 230.78,-301.63"/>
<polygon fill="#63b8ff" stroke="#63b8ff" points="162.67,-236.22 154.38,-229.62 156.75,-239.94 162.67,-236.22"/>
</g>
<!-- Node14 -->
<g id="node14" class="node">
<title>Node14</title>
<g id="a_node14"><a xlink:href="class_o_c_a_1_1_c_a_f_e_v_d_b_1_1_exceptions_1_1_encryption_exception.html" target="_top" xlink:title="Base class for other exceptions.">
<polygon fill="white" stroke="#666666" points="351.5,-284 244.5,-284 244.5,-265 351.5,-265 351.5,-284"/>
<text text-anchor="middle" x="298" y="-272" font-family="Helvetica,sans-Serif" font-size="10.00">EncryptionException</text>
</a>
</g>
</g>
<!-- Node1&#45;&gt;Node14 -->
<g id="edge13" class="edge">
<title>Node1&#45;&gt;Node14</title>
<path fill="none" stroke="#63b8ff" d="M171.07,-234.42C183.1,-242.08 198.34,-250.81 213,-256.5 222.87,-260.33 233.73,-263.42 244.27,-265.89"/>
<polygon fill="#63b8ff" stroke="#63b8ff" points="173.34,-231.72 163.06,-229.15 169.5,-237.57 173.34,-231.72"/>
</g>
<!-- Node22 -->
<g id="node22" class="node">
<title>Node22</title>
<g id="a_node22"><a xlink:href="class_o_c_a_1_1_c_a_f_e_v_d_b_1_1_exceptions_1_1_enduser_notification_exception.html" target="_top" xlink:title="This exception should provide an error message which informs an end&#45;user about an error.">
<polygon fill="white" stroke="#666666" points="371,-247 225,-247 225,-228 371,-228 371,-247"/>
<text text-anchor="middle" x="298" y="-235" font-family="Helvetica,sans-Serif" font-size="10.00">EnduserNotificationException</text>
</a>
</g>
</g>
<!-- Node1&#45;&gt;Node22 -->
<g id="edge21" class="edge">
<title>Node1&#45;&gt;Node22</title>
<path fill="none" stroke="#63b8ff" d="M188.59,-223.68C199.79,-225.1 212.3,-226.7 224.72,-228.28"/>
<polygon fill="#63b8ff" stroke="#63b8ff" points="189.3,-220.24 178.94,-222.45 188.42,-227.18 189.3,-220.24"/>
</g>
<!-- Node23 -->
<g id="node23" class="node">
<title>Node23</title>
<g id="a_node23"><a xlink:href="class_o_c_a_1_1_c_a_f_e_v_d_b_1_1_exceptions_1_1_missing_projects_folder_exception.html" target="_top" xlink:title=" ">
<polygon fill="white" stroke="#666666" points="376.5,-210 219.5,-210 219.5,-191 376.5,-191 376.5,-210"/>
<text text-anchor="middle" x="298" y="-198" font-family="Helvetica,sans-Serif" font-size="10.00">MissingProjectsFolderException</text>
</a>
</g>
</g>
<!-- Node1&#45;&gt;Node23 -->
<g id="edge22" class="edge">
<title>Node1&#45;&gt;Node23</title>
<path fill="none" stroke="#63b8ff" d="M188.85,-213.56C198.3,-212.42 208.66,-211.17 219.11,-209.91"/>
<polygon fill="#63b8ff" stroke="#63b8ff" points="188.45,-210.09 178.94,-214.76 189.29,-217.04 188.45,-210.09"/>
</g>
<!-- Node24 -->
<g id="node24" class="node">
<title>Node24</title>
<g id="a_node24"><a xlink:href="class_o_c_a_1_1_c_a_f_e_v_d_b_1_1_exceptions_1_1_php_session_exception.html" target="_top" xlink:title="Base for other exceptions.">
<polygon fill="white" stroke="#666666" points="354.5,-173 241.5,-173 241.5,-154 354.5,-154 354.5,-173"/>
<text text-anchor="middle" x="298" y="-161" font-family="Helvetica,sans-Serif" font-size="10.00">PhpSessionException</text>
</a>
</g>
</g>
<!-- Node1&#45;&gt;Node24 -->
<g id="edge23" class="edge">
<title>Node1&#45;&gt;Node24</title>
<path fill="none" stroke="#63b8ff" d="M171.95,-202.51C183.87,-195.19 198.74,-186.94 213,-181.5 221.92,-178.1 231.63,-175.27 241.18,-172.95"/>
<polygon fill="#63b8ff" stroke="#63b8ff" points="170.18,-199.5 163.61,-207.81 173.93,-205.4 170.18,-199.5"/>
</g>
<!-- Node26 -->
<g id="node26" class="node">
<title>Node26</title>
<g id="a_node26"><a xlink:href="class_o_c_a_1_1_c_a_f_e_v_d_b_1_1_exceptions_1_1_progress_status_not_found_exception.html" target="_top" xlink:title=" ">
<polygon fill="white" stroke="#666666" points="383,-136 213,-136 213,-117 383,-117 383,-136"/>
<text text-anchor="middle" x="298" y="-124" font-family="Helvetica,sans-Serif" font-size="10.00">ProgressStatusNotFoundException</text>
</a>
</g>
</g>
<!-- Node1&#45;&gt;Node26 -->
<g id="edge25" class="edge">
<title>Node1&#45;&gt;Node26</title>
<path fill="none" stroke="#63b8ff" d="M159.91,-198.98C171.37,-181.91 190.28,-157.83 213,-144.5 218.53,-141.25 224.57,-138.59 230.8,-136.41"/>
<polygon fill="#63b8ff" stroke="#63b8ff" points="157.05,-196.96 154.59,-207.26 162.94,-200.74 157.05,-196.96"/>
</g>
<!-- Node27 -->
<g id="node27" class="node">
<title>Node27</title>
<g id="a_node27"><a xlink:href="class_o_c_a_1_1_c_a_f_e_v_d_b_1_1_exceptions_1_1_sanitizer_exception.html" target="_top" xlink:title="Exceptions thrown by the database sanitizers.">
<polygon fill="white" stroke="#666666" points="347,-93 249,-93 249,-74 347,-74 347,-93"/>
<text text-anchor="middle" x="298" y="-81" font-family="Helvetica,sans-Serif" font-size="10.00">SanitizerException</text>
</a>
</g>
</g>
<!-- Node1&#45;&gt;Node27 -->
<g id="edge26" class="edge">
<title>Node1&#45;&gt;Node27</title>
<path fill="none" stroke="#63b8ff" d="M154.62,-198.04C163.77,-172.99 182.67,-131.02 213,-107.5 223.31,-99.51 236.17,-94.17 248.71,-90.62"/>
<polygon fill="#63b8ff" stroke="#63b8ff" points="151.35,-196.79 151.4,-207.39 157.96,-199.07 151.35,-196.79"/>
</g>
<!-- Node31 -->
<g id="node31" class="node">
<title>Node31</title>
<g id="a_node31"><a xlink:href="class_o_c_a_1_1_c_a_f_e_v_d_b_1_1_exceptions_1_1_substitution_exception.html" target="_top" xlink:title=" ">
<polygon fill="white" stroke="#666666" points="354,-56 242,-56 242,-37 354,-37 354,-56"/>
<text text-anchor="middle" x="298" y="-44" font-family="Helvetica,sans-Serif" font-size="10.00">SubstitutionException</text>
</a>
</g>
</g>
<!-- Node1&#45;&gt;Node31 -->
<g id="edge30" class="edge">
<title>Node1&#45;&gt;Node31</title>
<path fill="none" stroke="#63b8ff" d="M150.65,-197.61C156.06,-164.14 171.56,-98.79 213,-64.5 221.16,-57.75 231.25,-53.36 241.58,-50.54"/>
<polygon fill="#63b8ff" stroke="#63b8ff" points="147.23,-196.85 149.26,-207.25 154.15,-197.85 147.23,-196.85"/>
</g>
<!-- Node2 -->
<g id="node2" class="node">
<title>Node2</title>
<g id="a_node2"><a xlink:title=" ">
<polygon fill="white" stroke="#bfbfbf" points="81,-228 0,-228 0,-209 81,-209 81,-228"/>
<text text-anchor="middle" x="40.5" y="-216" font-family="Helvetica,sans-Serif" font-size="10.00">CoreException</text>
</a>
</g>
</g>
<!-- Node2&#45;&gt;Node1 -->
<g id="edge1" class="edge">
<title>Node2&#45;&gt;Node1</title>
<path fill="none" stroke="#63b8ff" d="M92.8,-218.5C101.01,-218.5 109.25,-218.5 116.71,-218.5"/>
<polygon fill="#63b8ff" stroke="#63b8ff" points="92.82,-215 82.82,-218.5 92.82,-222 92.82,-215"/>
</g>
<!-- Node5 -->
<g id="node5" class="node">
<title>Node5</title>
<g id="a_node5"><a xlink:href="class_o_c_a_1_1_c_a_f_e_v_d_b_1_1_exceptions_1_1_database_cloud_connector_view_exception.html" target="_top" xlink:title="Thrown during generation of the cloud&#45;user connector views.">
<polygon fill="white" stroke="#666666" points="581.5,-732.5 430.5,-732.5 430.5,-702.5 581.5,-702.5 581.5,-732.5"/>
<text text-anchor="start" x="438.5" y="-720.5" font-family="Helvetica,sans-Serif" font-size="10.00">DatabaseCloudConnectorView</text>
<text text-anchor="middle" x="506" y="-709.5" font-family="Helvetica,sans-Serif" font-size="10.00">Exception</text>
</a>
</g>
</g>
<!-- Node4&#45;&gt;Node5 -->
<g id="edge4" class="edge">
<title>Node4&#45;&gt;Node5</title>
<path fill="none" stroke="#63b8ff" d="M360.12,-537.88C368.61,-540.9 376.6,-545.26 383,-551.5 429.63,-596.94 373.51,-646.92 419,-693.5 422.36,-696.94 426.16,-699.9 430.26,-702.44"/>
<polygon fill="#63b8ff" stroke="#63b8ff" points="361.22,-534.56 350.64,-535.15 359.28,-541.28 361.22,-534.56"/>
</g>
<!-- Node6 -->
<g id="node6" class="node">
<title>Node6</title>
<g id="a_node6"><a xlink:href="class_o_c_a_1_1_c_a_f_e_v_d_b_1_1_exceptions_1_1_database_entity_not_found_exception.html" target="_top" xlink:title="Thrown if an entity could not be found.">
<polygon fill="white" stroke="#666666" points="591,-684 421,-684 421,-665 591,-665 591,-684"/>
<text text-anchor="middle" x="506" y="-672" font-family="Helvetica,sans-Serif" font-size="10.00">DatabaseEntityNotFoundException</text>
</a>
</g>
</g>
<!-- Node4&#45;&gt;Node6 -->
<g id="edge5" class="edge">
<title>Node4&#45;&gt;Node6</title>
<path fill="none" stroke="#63b8ff" d="M359.98,-538.46C368.42,-541.41 376.43,-545.6 383,-551.5 419.71,-584.45 382.02,-623.84 419,-656.5 422.66,-659.73 426.75,-662.44 431.1,-664.7"/>
<polygon fill="#63b8ff" stroke="#63b8ff" points="361.18,-535.16 350.6,-535.76 359.24,-541.89 361.18,-535.16"/>
</g>
<!-- Node7 -->
<g id="node7" class="node">
<title>Node7</title>
<g id="a_node7"><a xlink:href="class_o_c_a_1_1_c_a_f_e_v_d_b_1_1_exceptions_1_1_database_entity_not_unique_exception.html" target="_top" xlink:title="Thrown if more than one entity is found when there should be only one.">
<polygon fill="white" stroke="#666666" points="593,-647 419,-647 419,-628 593,-628 593,-647"/>
<text text-anchor="middle" x="506" y="-635" font-family="Helvetica,sans-Serif" font-size="10.00">DatabaseEntityNotUniqueException</text>
</a>
</g>
</g>
<!-- Node4&#45;&gt;Node7 -->
<g id="edge6" class="edge">
<title>Node4&#45;&gt;Node7</title>
<path fill="none" stroke="#63b8ff" d="M360.06,-539.74C368.28,-542.54 376.21,-546.34 383,-551.5 409.91,-571.96 392.04,-598.11 419,-618.5 423.88,-622.19 429.33,-625.19 435.06,-627.63"/>
<polygon fill="#63b8ff" stroke="#63b8ff" points="361.17,-536.42 350.59,-537.03 359.25,-543.15 361.17,-536.42"/>
</g>
<!-- Node8 -->
<g id="node8" class="node">
<title>Node8</title>
<g id="a_node8"><a xlink:href="class_o_c_a_1_1_c_a_f_e_v_d_b_1_1_exceptions_1_1_database_inconsistent_value_exception.html" target="_top" xlink:title="Thrown if inconsistencies are detected.">
<polygon fill="white" stroke="#666666" points="574,-609.5 438,-609.5 438,-579.5 574,-579.5 574,-609.5"/>
<text text-anchor="start" x="446" y="-597.5" font-family="Helvetica,sans-Serif" font-size="10.00">DatabaseInconsistentValue</text>
<text text-anchor="middle" x="506" y="-586.5" font-family="Helvetica,sans-Serif" font-size="10.00">Exception</text>
</a>
</g>
</g>
<!-- Node4&#45;&gt;Node8 -->
<g id="edge7" class="edge">
<title>Node4&#45;&gt;Node8</title>
<path fill="none" stroke="#63b8ff" d="M360.54,-544.45C368.19,-546.51 375.84,-548.85 383,-551.5 399.97,-557.77 402.19,-563.81 419,-570.5 426.78,-573.6 435.1,-576.45 443.39,-579.04"/>
<polygon fill="#63b8ff" stroke="#63b8ff" points="361.4,-541.05 350.84,-542 359.68,-547.84 361.4,-541.05"/>
</g>
<!-- Node9 -->
<g id="node9" class="node">
<title>Node9</title>
<g id="a_node9"><a xlink:href="class_o_c_a_1_1_c_a_f_e_v_d_b_1_1_exceptions_1_1_database_invalid_field_exception.html" target="_top" xlink:title="Thrown if a field has an incompatible type for the operation.">
<polygon fill="white" stroke="#666666" points="582,-561 430,-561 430,-542 582,-542 582,-561"/>
<text text-anchor="middle" x="506" y="-549" font-family="Helvetica,sans-Serif" font-size="10.00">DatabaseInvalidFieldException</text>
</a>
</g>
</g>
<!-- Node4&#45;&gt;Node9 -->
<g id="edge8" class="edge">
<title>Node4&#45;&gt;Node9</title>
<path fill="none" stroke="#63b8ff" d="M360.78,-538.2C382.49,-540.2 407.12,-542.47 429.8,-544.56"/>
<polygon fill="#63b8ff" stroke="#63b8ff" points="361.18,-534.72 350.9,-537.29 360.54,-541.69 361.18,-534.72"/>
</g>
<!-- Node10 -->
<g id="node10" class="node">
<title>Node10</title>
<g id="a_node10"><a xlink:href="class_o_c_a_1_1_c_a_f_e_v_d_b_1_1_exceptions_1_1_database_migration_exception.html" target="_top" xlink:title="Thrown during database migrations.">
<polygon fill="white" stroke="#666666" points="577,-524 435,-524 435,-505 577,-505 577,-524"/>
<text text-anchor="middle" x="506" y="-512" font-family="Helvetica,sans-Serif" font-size="10.00">DatabaseMigrationException</text>
</a>
</g>
</g>
<!-- Node4&#45;&gt;Node10 -->
<g id="edge9" class="edge">
<title>Node4&#45;&gt;Node10</title>
<path fill="none" stroke="#63b8ff" d="M360.84,-527.1C384.05,-525.07 410.59,-522.75 434.52,-520.66"/>
<polygon fill="#63b8ff" stroke="#63b8ff" points="360.56,-523.61 350.9,-527.96 361.17,-530.58 360.56,-523.61"/>
</g>
<!-- Node11 -->
<g id="node11" class="node">
<title>Node11</title>
<g id="a_node11"><a xlink:href="class_o_c_a_1_1_c_a_f_e_v_d_b_1_1_exceptions_1_1_database_readonly_exception.html" target="_top" xlink:title="Thrown when trying to mute data which should not be muted.">
<polygon fill="white" stroke="#666666" points="577.5,-487 434.5,-487 434.5,-468 577.5,-468 577.5,-487"/>
<text text-anchor="middle" x="506" y="-475" font-family="Helvetica,sans-Serif" font-size="10.00">DatabaseReadonlyException</text>
</a>
</g>
</g>
<!-- Node4&#45;&gt;Node11 -->
<g id="edge10" class="edge">
<title>Node4&#45;&gt;Node11</title>
<path fill="none" stroke="#63b8ff" d="M340.65,-519.18C363.64,-512.03 392.77,-503.32 419,-496.5 431.28,-493.31 444.64,-490.19 457.09,-487.43"/>
<polygon fill="#63b8ff" stroke="#63b8ff" points="339.84,-515.76 331.35,-522.09 341.94,-522.44 339.84,-515.76"/>
</g>
<!-- Node12 -->
<g id="node12" class="node">
<title>Node12</title>
<g id="a_node12"><a xlink:href="class_o_c_a_1_1_c_a_f_e_v_d_b_1_1_exceptions_1_1_database_transaction_not_active_exception.html" target="_top" xlink:title="Thrown when trying to fiddle with an active transaction but there is none.">
<polygon fill="white" stroke="#666666" points="582.5,-449.5 429.5,-449.5 429.5,-419.5 582.5,-419.5 582.5,-449.5"/>
<text text-anchor="start" x="437.5" y="-437.5" font-family="Helvetica,sans-Serif" font-size="10.00">DatabaseTransactionNotActive</text>
<text text-anchor="middle" x="506" y="-426.5" font-family="Helvetica,sans-Serif" font-size="10.00">Exception</text>
</a>
</g>
</g>
<!-- Node4&#45;&gt;Node12 -->
<g id="edge11" class="edge">
<title>Node4&#45;&gt;Node12</title>
<path fill="none" stroke="#63b8ff" d="M321.78,-516.12C345.21,-499.89 383.23,-475.25 419,-459.5 427.11,-455.93 435.87,-452.71 444.6,-449.86"/>
<polygon fill="#63b8ff" stroke="#63b8ff" points="319.8,-513.23 313.63,-521.85 323.83,-518.96 319.8,-513.23"/>
</g>
<!-- Node15 -->
<g id="node15" class="node">
<title>Node15</title>
<g id="a_node15"><a xlink:href="class_o_c_a_1_1_c_a_f_e_v_d_b_1_1_exceptions_1_1_cannot_decrypt_exception.html" target="_top" xlink:title=" ">
<polygon fill="white" stroke="#666666" points="569,-401 443,-401 443,-382 569,-382 569,-401"/>
<text text-anchor="middle" x="506" y="-389" font-family="Helvetica,sans-Serif" font-size="10.00">CannotDecryptException</text>
</a>
</g>
</g>
<!-- Node14&#45;&gt;Node15 -->
<g id="edge14" class="edge">
<title>Node14&#45;&gt;Node15</title>
<path fill="none" stroke="#63b8ff" d="M362.66,-282.14C370.01,-284.91 377.01,-288.6 383,-293.5 413.19,-318.17 388.61,-349.07 419,-373.5 425.9,-379.04 434.08,-383 442.62,-385.8"/>
<polygon fill="#63b8ff" stroke="#63b8ff" points="363.73,-278.81 353.14,-279.15 361.63,-285.48 363.73,-278.81"/>
</g>
<!-- Node16 -->
<g id="node16" class="node">
<title>Node16</title>
<g id="a_node16"><a xlink:href="class_o_c_a_1_1_c_a_f_e_v_d_b_1_1_exceptions_1_1_cannot_encrypt_exception.html" target="_top" xlink:title=" ">
<polygon fill="white" stroke="#666666" points="568.5,-364 443.5,-364 443.5,-345 568.5,-345 568.5,-364"/>
<text text-anchor="middle" x="506" y="-352" font-family="Helvetica,sans-Serif" font-size="10.00">CannotEncryptException</text>
</a>
</g>
</g>
<!-- Node14&#45;&gt;Node16 -->
<g id="edge15" class="edge">
<title>Node14&#45;&gt;Node16</title>
<path fill="none" stroke="#63b8ff" d="M362.62,-284.17C369.77,-286.61 376.73,-289.67 383,-293.5 404.27,-306.49 397.62,-323.68 419,-336.5 426.46,-340.97 434.86,-344.34 443.41,-346.88"/>
<polygon fill="#63b8ff" stroke="#63b8ff" points="363.72,-280.84 353.13,-281.34 361.72,-287.55 363.72,-280.84"/>
</g>
<!-- Node17 -->
<g id="node17" class="node">
<title>Node17</title>
<g id="a_node17"><a xlink:href="class_o_c_a_1_1_c_a_f_e_v_d_b_1_1_exceptions_1_1_decryption_failed_exception.html" target="_top" xlink:title=" ">
<polygon fill="white" stroke="#666666" points="573,-327 439,-327 439,-308 573,-308 573,-327"/>
<text text-anchor="middle" x="506" y="-315" font-family="Helvetica,sans-Serif" font-size="10.00">DecryptionFailedException</text>
</a>
</g>
</g>
<!-- Node14&#45;&gt;Node17 -->
<g id="edge16" class="edge">
<title>Node14&#45;&gt;Node17</title>
<path fill="none" stroke="#63b8ff" d="M358.02,-286.82C389.44,-293.38 427.57,-301.34 457.12,-307.51"/>
<polygon fill="#63b8ff" stroke="#63b8ff" points="358.76,-283.4 348.26,-284.78 357.33,-290.25 358.76,-283.4"/>
</g>
<!-- Node18 -->
<g id="node18" class="node">
<title>Node18</title>
<g id="a_node18"><a xlink:href="class_o_c_a_1_1_c_a_f_e_v_d_b_1_1_exceptions_1_1_encryption_failed_exception.html" target="_top" xlink:title=" ">
<polygon fill="white" stroke="#666666" points="572.5,-290 439.5,-290 439.5,-271 572.5,-271 572.5,-290"/>
<text text-anchor="middle" x="506" y="-278" font-family="Helvetica,sans-Serif" font-size="10.00">EncryptionFailedException</text>
</a>
</g>
</g>
<!-- Node14&#45;&gt;Node18 -->
<g id="edge17" class="edge">
<title>Node14&#45;&gt;Node18</title>
<path fill="none" stroke="#63b8ff" d="M362.99,-276.36C387.17,-277.07 414.72,-277.87 439.07,-278.58"/>
<polygon fill="#63b8ff" stroke="#63b8ff" points="363.39,-272.87 353.3,-276.08 363.19,-279.87 363.39,-272.87"/>
</g>
<!-- Node19 -->
<g id="node19" class="node">
<title>Node19</title>
<g id="a_node19"><a xlink:href="class_o_c_a_1_1_c_a_f_e_v_d_b_1_1_exceptions_1_1_encryption_key_exception.html" target="_top" xlink:title=" ">
<polygon fill="white" stroke="#666666" points="568,-253 444,-253 444,-234 568,-234 568,-253"/>
<text text-anchor="middle" x="506" y="-241" font-family="Helvetica,sans-Serif" font-size="10.00">EncryptionKeyException</text>
</a>
</g>
</g>
<!-- Node14&#45;&gt;Node19 -->
<g id="edge18" class="edge">
<title>Node14&#45;&gt;Node19</title>
<path fill="none" stroke="#63b8ff" d="M362.92,-264.88C388.62,-261.01 418.14,-256.57 443.58,-252.74"/>
<polygon fill="#63b8ff" stroke="#63b8ff" points="362.65,-261.38 353.28,-266.33 363.69,-268.3 362.65,-261.38"/>
</g>
<!-- Node20 -->
<g id="node20" class="node">
<title>Node20</title>
<g id="a_node20"><a xlink:href="class_o_c_a_1_1_c_a_f_e_v_d_b_1_1_exceptions_1_1_recryption_failed_exception.html" target="_top" xlink:title=" ">
<polygon fill="white" stroke="#666666" points="573,-216 439,-216 439,-197 573,-197 573,-216"/>
<text text-anchor="middle" x="506" y="-204" font-family="Helvetica,sans-Serif" font-size="10.00">RecryptionFailedException</text>
</a>
</g>
</g>
<!-- Node14&#45;&gt;Node20 -->
<g id="edge19" class="edge">
<title>Node14&#45;&gt;Node20</title>
<path fill="none" stroke="#63b8ff" d="M362.88,-264.37C369.85,-262.23 376.69,-259.63 383,-256.5 401.91,-247.11 400.12,-234.95 419,-225.5 426.38,-221.8 434.48,-218.82 442.66,-216.42"/>
<polygon fill="#63b8ff" stroke="#63b8ff" points="362.08,-260.96 353.36,-266.97 363.93,-267.71 362.08,-260.96"/>
</g>
<!-- Node21 -->
<g id="node21" class="node">
<title>Node21</title>
<g id="a_node21"><a xlink:href="class_o_c_a_1_1_c_a_f_e_v_d_b_1_1_exceptions_1_1_recryption_request_not_found_exception.html" target="_top" xlink:title=" ">
<polygon fill="white" stroke="#666666" points="577.5,-178.5 434.5,-178.5 434.5,-148.5 577.5,-148.5 577.5,-178.5"/>
<text text-anchor="start" x="442.5" y="-166.5" font-family="Helvetica,sans-Serif" font-size="10.00">RecryptionRequestNotFound</text>
<text text-anchor="middle" x="506" y="-155.5" font-family="Helvetica,sans-Serif" font-size="10.00">Exception</text>
</a>
</g>
</g>
<!-- Node14&#45;&gt;Node21 -->
<g id="edge20" class="edge">
<title>Node14&#45;&gt;Node21</title>
<path fill="none" stroke="#63b8ff" d="M362.66,-267.23C369.95,-264.6 376.94,-261.11 383,-256.5 410.53,-235.55 392.13,-209.28 419,-187.5 423.58,-183.79 428.69,-180.66 434.08,-178"/>
<polygon fill="#63b8ff" stroke="#63b8ff" points="361.82,-263.83 353.26,-270.06 363.84,-270.53 361.82,-263.83"/>
</g>
<!-- Node25 -->
<g id="node25" class="node">
<title>Node25</title>
<g id="a_node25"><a xlink:href="class_o_c_a_1_1_c_a_f_e_v_d_b_1_1_exceptions_1_1_session_still_open_exception.html" target="_top" xlink:title=" ">
<polygon fill="white" stroke="#666666" points="573.5,-130 438.5,-130 438.5,-111 573.5,-111 573.5,-130"/>
<text text-anchor="middle" x="506" y="-118" font-family="Helvetica,sans-Serif" font-size="10.00">SessionStillOpenException</text>
</a>
</g>
</g>
<!-- Node24&#45;&gt;Node25 -->
<g id="edge24" class="edge">
<title>Node24&#45;&gt;Node25</title>
<path fill="none" stroke="#63b8ff" d="M358.02,-151.18C389.44,-144.62 427.57,-136.66 457.12,-130.49"/>
<polygon fill="#63b8ff" stroke="#63b8ff" points="357.33,-147.75 348.26,-153.22 358.76,-154.6 357.33,-147.75"/>
</g>
<!-- Node28 -->
<g id="node28" class="node">
<title>Node28</title>
<g id="a_node28"><a xlink:href="class_o_c_a_1_1_c_a_f_e_v_d_b_1_1_exceptions_1_1_sanitizer_failed_exception.html" target="_top" xlink:title="Exception thrown if the respective sanitizer operation is not implemented.">
<polygon fill="white" stroke="#666666" points="568.5,-93 443.5,-93 443.5,-74 568.5,-74 568.5,-93"/>
<text text-anchor="middle" x="506" y="-81" font-family="Helvetica,sans-Serif" font-size="10.00">SanitizerFailedException</text>
</a>
</g>
</g>
<!-- Node27&#45;&gt;Node28 -->
<g id="edge27" class="edge">
<title>Node27&#45;&gt;Node28</title>
<path fill="none" stroke="#63b8ff" d="M358.75,-83.5C385.3,-83.5 416.54,-83.5 443.31,-83.5"/>
<polygon fill="#63b8ff" stroke="#63b8ff" points="358.81,-80 348.81,-83.5 358.81,-87 358.81,-80"/>
</g>
<!-- Node29 -->
<g id="node29" class="node">
<title>Node29</title>
<g id="a_node29"><a xlink:href="class_o_c_a_1_1_c_a_f_e_v_d_b_1_1_exceptions_1_1_sanitizer_not_implemented_exception.html" target="_top" xlink:title="Exception thrown if the respective sanitizer operation is not implemented.">
<polygon fill="white" stroke="#666666" points="591,-56 421,-56 421,-37 591,-37 591,-56"/>
<text text-anchor="middle" x="506" y="-44" font-family="Helvetica,sans-Serif" font-size="10.00">SanitizerNotImplementedException</text>
</a>
</g>
</g>
<!-- Node27&#45;&gt;Node29 -->
<g id="edge28" class="edge">
<title>Node27&#45;&gt;Node29</title>
<path fill="none" stroke="#63b8ff" d="M358.39,-72.83C387.04,-67.69 421.21,-61.55 449.35,-56.49"/>
<polygon fill="#63b8ff" stroke="#63b8ff" points="358.01,-69.34 348.79,-74.56 359.25,-76.23 358.01,-69.34"/>
</g>
<!-- Node30 -->
<g id="node30" class="node">
<title>Node30</title>
<g id="a_node30"><a xlink:href="class_o_c_a_1_1_c_a_f_e_v_d_b_1_1_exceptions_1_1_sanitizer_not_needed_exception.html" target="_top" xlink:title="Exception thrown if the respective sanitizer operation is not implemented.">
<polygon fill="white" stroke="#666666" points="580,-19 432,-19 432,0 580,0 580,-19"/>
<text text-anchor="middle" x="506" y="-7" font-family="Helvetica,sans-Serif" font-size="10.00">SanitizerNotNeededException</text>
</a>
</g>
</g>
<!-- Node27&#45;&gt;Node30 -->
<g id="edge29" class="edge">
<title>Node27&#45;&gt;Node30</title>
<path fill="none" stroke="#63b8ff" d="M358.28,-74.64C366.88,-72.07 375.39,-68.77 383,-64.5 403.02,-53.28 398.89,-38.55 419,-27.5 424.88,-24.27 431.28,-21.61 437.85,-19.43"/>
<polygon fill="#63b8ff" stroke="#63b8ff" points="357.64,-71.19 348.87,-77.12 359.43,-77.96 357.64,-71.19"/>
</g>
</g>
</svg>
