<?xml version="1.0" encoding="UTF-8" standalone="no"?>
<!DOCTYPE svg PUBLIC "-//W3C//DTD SVG 1.1//EN"
 "http://www.w3.org/Graphics/SVG/1.1/DTD/svg11.dtd">
<!-- Generated by graphviz version 7.1.0 (20230121.1956)
 -->
<!-- Title: validateRecords Pages: 1 -->
<svg width="252pt" height="27pt"
 viewBox="0.00 0.00 252.00 27.00" xmlns="http://www.w3.org/2000/svg" xmlns:xlink="http://www.w3.org/1999/xlink">
<g id="graph0" class="graph" transform="scale(1 1) rotate(0) translate(4 23)">
<title>validateRecords</title>
<!-- Node1 -->
<g id="node1" class="node">
<title>Node1</title>
<g id="a_node1"><a xlink:title="Validate all history records.">
<polygon fill="#999999" stroke="#666666" points="244,-19 157,-19 157,0 244,0 244,-19"/>
<text text-anchor="middle" x="200.5" y="-7" font-family="Helvetica,sans-Serif" font-size="10.00">validateRecords</text>
</a>
</g>
</g>
<!-- Node2 -->
<g id="node2" class="node">
<title>Node2</title>
<g id="a_node2"><a xlink:href="class_o_c_a_1_1_c_a_f_e_v_d_b_1_1_service_1_1_history_service.html#a209c2a40ceaef87a5f2e66954aeefc19" target="_top" xlink:title="Validate the given history records, return false on error.">
<polygon fill="white" stroke="#666666" points="121,-19 71,-19 71,0 121,0 121,-19"/>
<text text-anchor="middle" x="96" y="-7" font-family="Helvetica,sans-Serif" font-size="10.00">validate</text>
</a>
</g>
</g>
<!-- Node1&#45;&gt;Node2 -->
<g id="edge1" class="edge">
<title>Node1&#45;&gt;Node2</title>
<path fill="none" stroke="#63b8ff" d="M145.21,-9.5C136.82,-9.5 128.55,-9.5 121.28,-9.5"/>
<polygon fill="#63b8ff" stroke="#63b8ff" points="145.11,-13 155.11,-9.5 145.11,-6 145.11,-13"/>
</g>
<!-- Node3 -->
<g id="node3" class="node">
<title>Node3</title>
<g id="a_node3"><a xlink:href="class_o_c_a_1_1_c_a_f_e_v_d_b_1_1_service_1_1_history_service.html#a4dcaa8f72c8423d4de25a9e87fa6f3e4" target="_top" xlink:title="Load the history state.">
<polygon fill="white" stroke="#666666" points="35,-19 0,-19 0,0 35,0 35,-19"/>
<text text-anchor="middle" x="17.5" y="-7" font-family="Helvetica,sans-Serif" font-size="10.00">load</text>
</a>
</g>
</g>
<!-- Node2&#45;&gt;Node3 -->
<g id="edge2" class="edge">
<title>Node2&#45;&gt;Node3</title>
<path fill="none" stroke="#63b8ff" d="M59.54,-9.5C51.08,-9.5 42.44,-9.5 35.29,-9.5"/>
<polygon fill="#63b8ff" stroke="#63b8ff" points="59.28,-13 69.28,-9.5 59.28,-6 59.28,-13"/>
</g>
</g>
</svg>
