<?xml version="1.0" encoding="UTF-8" standalone="no"?>
<!DOCTYPE svg PUBLIC "-//W3C//DTD SVG 1.1//EN"
 "http://www.w3.org/Graphics/SVG/1.1/DTD/svg11.dtd">
<!-- Generated by graphviz version 7.1.0 (20230121.1956)
 -->
<!-- Title: reverseTransform Pages: 1 -->
<svg width="269pt" height="101pt"
 viewBox="0.00 0.00 269.00 101.00" xmlns="http://www.w3.org/2000/svg" xmlns:xlink="http://www.w3.org/1999/xlink">
<g id="graph0" class="graph" transform="scale(1 1) rotate(0) translate(4 97)">
<title>reverseTransform</title>
<!-- Node1 -->
<g id="node1" class="node">
<title>Node1</title>
<g id="a_node1"><a xlink:title="Decrypt.">
<polygon fill="#999999" stroke="#666666" points="93,-56 0,-56 0,-37 93,-37 93,-56"/>
<text text-anchor="middle" x="46.5" y="-44" font-family="Helvetica,sans-Serif" font-size="10.00">reverseTransform</text>
</a>
</g>
</g>
<!-- Node2 -->
<g id="node2" class="node">
<title>Node2</title>
<g id="a_node2"><a xlink:href="class_o_c_a_1_1_c_a_f_e_v_d_b_1_1_database_1_1_doctrine_1_1_o_r_m_1_1_listeners_1_1_transformable_1_1_encryption.html#a489cb6b1e4b09a18879273ec6c8173b3" target="_top" xlink:title=" ">
<polygon fill="white" stroke="#666666" points="236,-93 154,-93 154,-74 236,-74 236,-93"/>
<text text-anchor="middle" x="195" y="-81" font-family="Helvetica,sans-Serif" font-size="10.00">getSealCryptor</text>
</a>
</g>
</g>
<!-- Node1&#45;&gt;Node2 -->
<g id="edge1" class="edge">
<title>Node1&#45;&gt;Node2</title>
<path fill="none" stroke="#63b8ff" d="M86.76,-56.42C104.25,-60.83 125.06,-66.09 143.67,-70.79"/>
<polygon fill="#63b8ff" stroke="#63b8ff" points="142.61,-74.13 153.16,-73.19 144.33,-67.34 142.61,-74.13"/>
</g>
<!-- Node3 -->
<g id="node3" class="node">
<title>Node3</title>
<g id="a_node3"><a xlink:href="class_o_c_a_1_1_c_a_f_e_v_d_b_1_1_database_1_1_doctrine_1_1_o_r_m_1_1_listeners_1_1_transformable_1_1_encryption.html#aa2d6a55478bae33413abfd99f27d2d34" target="_top" xlink:title=" ">
<polygon fill="white" stroke="#666666" points="229,-56 161,-56 161,-37 229,-37 229,-56"/>
<text text-anchor="middle" x="195" y="-44" font-family="Helvetica,sans-Serif" font-size="10.00">isEncrypted</text>
</a>
</g>
</g>
<!-- Node1&#45;&gt;Node3 -->
<g id="edge2" class="edge">
<title>Node1&#45;&gt;Node3</title>
<path fill="none" stroke="#63b8ff" d="M93.45,-46.5C111.26,-46.5 131.59,-46.5 149.28,-46.5"/>
<polygon fill="#63b8ff" stroke="#63b8ff" points="149.25,-50 159.25,-46.5 149.25,-43 149.25,-50"/>
</g>
<!-- Node4 -->
<g id="node4" class="node">
<title>Node4</title>
<g id="a_node4"><a xlink:href="class_o_c_a_1_1_c_a_f_e_v_d_b_1_1_database_1_1_doctrine_1_1_o_r_m_1_1_listeners_1_1_transformable_1_1_encryption.html#a4dee913114bb697bc9e1d67a20eea2eb" target="_top" xlink:title=" ">
<polygon fill="white" stroke="#666666" points="261,-19 129,-19 129,0 261,0 261,-19"/>
<text text-anchor="middle" x="195" y="-7" font-family="Helvetica,sans-Serif" font-size="10.00">manageEncryptionContext</text>
</a>
</g>
</g>
<!-- Node1&#45;&gt;Node4 -->
<g id="edge3" class="edge">
<title>Node1&#45;&gt;Node4</title>
<path fill="none" stroke="#63b8ff" d="M86.76,-36.58C104.25,-32.17 125.06,-26.91 143.67,-22.21"/>
<polygon fill="#63b8ff" stroke="#63b8ff" points="144.33,-25.66 153.16,-19.81 142.61,-18.87 144.33,-25.66"/>
</g>
</g>
</svg>
