<?xml version="1.0" encoding="UTF-8" standalone="no"?>
<!DOCTYPE svg PUBLIC "-//W3C//DTD SVG 1.1//EN"
 "http://www.w3.org/Graphics/SVG/1.1/DTD/svg11.dtd">
<!-- Generated by graphviz version 7.1.0 (20230121.1956)
 -->
<!-- Title: getAppKeys Pages: 1 -->
<svg width="221pt" height="64pt"
 viewBox="0.00 0.00 221.00 64.00" xmlns="http://www.w3.org/2000/svg" xmlns:xlink="http://www.w3.org/1999/xlink">
<g id="graph0" class="graph" transform="scale(1 1) rotate(0) translate(4 60)">
<title>getAppKeys</title>
<!-- Node1 -->
<g id="node1" class="node">
<title>Node1</title>
<g id="a_node1"><a xlink:title=" ">
<polygon fill="#999999" stroke="#666666" points="213,-37 143,-37 143,-18 213,-18 213,-37"/>
<text text-anchor="middle" x="178" y="-25" font-family="Helvetica,sans-Serif" font-size="10.00">getAppKeys</text>
</a>
</g>
</g>
<!-- Node2 -->
<g id="node2" class="node">
<title>Node2</title>
<g id="a_node2"><a xlink:href="class_o_c_a_1_1_c_a_f_e_v_d_b_1_1_service_1_1_config_service.html#acfd177d26300298d7c2758fe04ee615b" target="_top" xlink:title="Fetch all config values and decrypt them.">
<polygon fill="white" stroke="#666666" points="107,-56 0,-56 0,-37 107,-37 107,-56"/>
<text text-anchor="middle" x="53.5" y="-44" font-family="Helvetica,sans-Serif" font-size="10.00">decryptConfigValues</text>
</a>
</g>
</g>
<!-- Node1&#45;&gt;Node2 -->
<g id="edge1" class="edge">
<title>Node1&#45;&gt;Node2</title>
<path fill="none" stroke="#63b8ff" d="M131.43,-34.57C123.62,-35.78 115.45,-37.05 107.46,-38.29"/>
<polygon fill="#63b8ff" stroke="#63b8ff" points="131.71,-38.07 141.06,-33.08 130.64,-31.15 131.71,-38.07"/>
</g>
<!-- Node3 -->
<g id="node3" class="node">
<title>Node3</title>
<g id="a_node3"><a xlink:href="class_o_c_a_1_1_c_a_f_e_v_d_b_1_1_service_1_1_config_service.html#a241ca6802fbc0627ec7c9baee0d3fc35" target="_top" xlink:title="Flush all configuration values to the database, possibly encrypting them.T his is only meant for use ...">
<polygon fill="white" stroke="#666666" points="107,-19 0,-19 0,0 107,0 107,-19"/>
<text text-anchor="middle" x="53.5" y="-7" font-family="Helvetica,sans-Serif" font-size="10.00">encryptConfigValues</text>
</a>
</g>
</g>
<!-- Node1&#45;&gt;Node3 -->
<g id="edge2" class="edge">
<title>Node1&#45;&gt;Node3</title>
<path fill="none" stroke="#63b8ff" d="M131.16,-20.76C123.43,-19.63 115.35,-18.44 107.46,-17.28"/>
<polygon fill="#63b8ff" stroke="#63b8ff" points="130.65,-24.23 141.05,-22.22 131.67,-17.3 130.65,-24.23"/>
</g>
</g>
</svg>
