<?xml version="1.0" encoding="UTF-8" standalone="no"?>
<!DOCTYPE svg PUBLIC "-//W3C//DTD SVG 1.1//EN"
 "http://www.w3.org/Graphics/SVG/1.1/DTD/svg11.dtd">
<!-- Generated by graphviz version 7.1.0 (20230121.1956)
 -->
<!-- Title: getPayment Pages: 1 -->
<svg width="274pt" height="108pt"
 viewBox="0.00 0.00 274.00 108.00" xmlns="http://www.w3.org/2000/svg" xmlns:xlink="http://www.w3.org/1999/xlink">
<g id="graph0" class="graph" transform="scale(1 1) rotate(0) translate(4 104)">
<title>getPayment</title>
<!-- Node1 -->
<g id="node1" class="node">
<title>Node1</title>
<g id="a_node1"><a xlink:title="Get the payment for the specified musician.">
<polygon fill="#999999" stroke="#666666" points="69,-59 0,-59 0,-40 69,-40 69,-59"/>
<text text-anchor="middle" x="34.5" y="-47" font-family="Helvetica,sans-Serif" font-size="10.00">getPayment</text>
</a>
</g>
</g>
<!-- Node2 -->
<g id="node2" class="node">
<title>Node2</title>
<g id="a_node2"><a xlink:href="class_o_c_a_1_1_c_a_f_e_v_d_b_1_1_database_1_1_doctrine_1_1_o_r_m_1_1_entities_1_1_composite_payment.html#a12251d0c022e9e21c137a105ff683f13" target="_top" xlink:title="Get id.">
<polygon fill="white" stroke="#666666" points="252.5,-100 118.5,-100 118.5,-59 252.5,-59 252.5,-100"/>
<text text-anchor="start" x="126.5" y="-88" font-family="Helvetica,sans-Serif" font-size="10.00">OCA\CAFEVDB\Database</text>
<text text-anchor="start" x="126.5" y="-77" font-family="Helvetica,sans-Serif" font-size="10.00">\Doctrine\ORM\Entities</text>
<text text-anchor="middle" x="185.5" y="-66" font-family="Helvetica,sans-Serif" font-size="10.00">\CompositePayment\getId</text>
</a>
</g>
</g>
<!-- Node1&#45;&gt;Node2 -->
<g id="edge1" class="edge">
<title>Node1&#45;&gt;Node2</title>
<path fill="none" stroke="#63b8ff" d="M69.31,-56.31C80.65,-58.59 93.8,-61.24 107.07,-63.91"/>
<polygon fill="#63b8ff" stroke="#63b8ff" points="106.23,-67.31 116.73,-65.85 107.62,-60.45 106.23,-67.31"/>
</g>
<!-- Node3 -->
<g id="node3" class="node">
<title>Node3</title>
<g id="a_node3"><a xlink:href="class_o_c_a_1_1_c_a_f_e_v_d_b_1_1_database_1_1_doctrine_1_1_o_r_m_1_1_entities_1_1_composite_payment.html#aabfc34e2707f9ad109ef4ce93abdf56f" target="_top" xlink:title="Get musician.">
<polygon fill="white" stroke="#666666" points="266,-41 105,-41 105,0 266,0 266,-41"/>
<text text-anchor="start" x="113" y="-29" font-family="Helvetica,sans-Serif" font-size="10.00">OCA\CAFEVDB\Database</text>
<text text-anchor="start" x="113" y="-18" font-family="Helvetica,sans-Serif" font-size="10.00">\Doctrine\ORM\Entities</text>
<text text-anchor="middle" x="185.5" y="-7" font-family="Helvetica,sans-Serif" font-size="10.00">\CompositePayment\getMusician</text>
</a>
</g>
</g>
<!-- Node1&#45;&gt;Node3 -->
<g id="edge2" class="edge">
<title>Node1&#45;&gt;Node3</title>
<path fill="none" stroke="#63b8ff" d="M69.31,-42.92C76.71,-41.48 84.89,-39.89 93.37,-38.24"/>
<polygon fill="#63b8ff" stroke="#63b8ff" points="94.02,-41.68 103.16,-36.33 92.68,-34.81 94.02,-41.68"/>
</g>
</g>
</svg>
