<?xml version="1.0" encoding="UTF-8" standalone="no"?>
<!DOCTYPE svg PUBLIC "-//W3C//DTD SVG 1.1//EN"
 "http://www.w3.org/Graphics/SVG/1.1/DTD/svg11.dtd">
<!-- Generated by graphviz version 7.1.0 (20230121.1956)
 -->
<!-- Title: shortTitle Pages: 1 -->
<svg width="286pt" height="230pt"
 viewBox="0.00 0.00 286.00 230.00" xmlns="http://www.w3.org/2000/svg" xmlns:xlink="http://www.w3.org/1999/xlink">
<g id="graph0" class="graph" transform="scale(1 1) rotate(0) translate(4 226)">
<title>shortTitle</title>
<!-- Node1 -->
<g id="node1" class="node">
<title>Node1</title>
<g id="a_node1"><a xlink:title="{string Short title for heading. }">
<polygon fill="#999999" stroke="#666666" points="57,-120.5 0,-120.5 0,-101.5 57,-101.5 57,-120.5"/>
<text text-anchor="middle" x="28.5" y="-108.5" font-family="Helvetica,sans-Serif" font-size="10.00">shortTitle</text>
</a>
</g>
</g>
<!-- Node2 -->
<g id="node2" class="node">
<title>Node2</title>
<g id="a_node2"><a xlink:href="class_o_c_a_1_1_c_a_f_e_v_d_b_1_1_page_renderer_1_1_p_m_e_table_view_base.html#aab9f60dec77a4ef2a6e6da285185427a" target="_top" xlink:title=" ">
<polygon fill="white" stroke="#666666" points="270.5,-222 100.5,-222 100.5,-192 270.5,-192 270.5,-222"/>
<text text-anchor="start" x="108.5" y="-210" font-family="Helvetica,sans-Serif" font-size="10.00">OCA\CAFEVDB\PageRenderer</text>
<text text-anchor="middle" x="185.5" y="-199" font-family="Helvetica,sans-Serif" font-size="10.00">\PMETableViewBase\addOperation</text>
</a>
</g>
</g>
<!-- Node1&#45;&gt;Node2 -->
<g id="edge1" class="edge">
<title>Node1&#45;&gt;Node2</title>
<path fill="none" stroke="#63b8ff" d="M35.23,-120.56C45.05,-136.1 66.61,-166.74 93,-183 95.16,-184.33 97.39,-185.59 99.68,-186.77"/>
<polygon fill="#63b8ff" stroke="#63b8ff" points="98.09,-189.9 108.63,-190.92 101.03,-183.54 98.09,-189.9"/>
</g>
<!-- Node3 -->
<g id="node3" class="node">
<title>Node3</title>
<g id="a_node3"><a xlink:href="class_o_c_a_1_1_c_a_f_e_v_d_b_1_1_page_renderer_1_1_p_m_e_table_view_base.html#a7b8022d67f12132e31e2230161afcf46" target="_top" xlink:title=" ">
<polygon fill="white" stroke="#666666" points="278,-174 93,-174 93,-144 278,-144 278,-174"/>
<text text-anchor="start" x="101" y="-162" font-family="Helvetica,sans-Serif" font-size="10.00">OCA\CAFEVDB\PageRenderer</text>
<text text-anchor="middle" x="185.5" y="-151" font-family="Helvetica,sans-Serif" font-size="10.00">\PMETableViewBase\changeOperation</text>
</a>
</g>
</g>
<!-- Node1&#45;&gt;Node3 -->
<g id="edge2" class="edge">
<title>Node1&#45;&gt;Node3</title>
<path fill="none" stroke="#63b8ff" d="M54.02,-120.95C65.72,-125.53 79.98,-130.84 93,-135 99.01,-136.92 105.28,-138.8 111.6,-140.62"/>
<polygon fill="#63b8ff" stroke="#63b8ff" points="110.2,-143.86 120.77,-143.2 112.09,-137.12 110.2,-143.86"/>
</g>
<!-- Node4 -->
<g id="node4" class="node">
<title>Node4</title>
<g id="a_node4"><a xlink:href="class_o_c_a_1_1_c_a_f_e_v_d_b_1_1_page_renderer_1_1_p_m_e_table_view_base.html#a9dc9d571bb59ca28ec0cc2bd28fe0159" target="_top" xlink:title=" ">
<polygon fill="white" stroke="#666666" points="273,-126 98,-126 98,-96 273,-96 273,-126"/>
<text text-anchor="start" x="106" y="-114" font-family="Helvetica,sans-Serif" font-size="10.00">OCA\CAFEVDB\PageRenderer</text>
<text text-anchor="middle" x="185.5" y="-103" font-family="Helvetica,sans-Serif" font-size="10.00">\PMETableViewBase\copyOperation</text>
</a>
</g>
</g>
<!-- Node1&#45;&gt;Node4 -->
<g id="edge3" class="edge">
<title>Node1&#45;&gt;Node4</title>
<path fill="none" stroke="#63b8ff" d="M57.21,-111C65.72,-111 75.61,-111 86.05,-111"/>
<polygon fill="#63b8ff" stroke="#63b8ff" points="86.04,-114.5 96.04,-111 86.04,-107.5 86.04,-114.5"/>
</g>
<!-- Node5 -->
<g id="node5" class="node">
<title>Node5</title>
<g id="a_node5"><a xlink:href="class_o_c_a_1_1_c_a_f_e_v_d_b_1_1_page_renderer_1_1_p_m_e_table_view_base.html#a9d19c525d1f80491f1c916ffdaab92f9" target="_top" xlink:title=" ">
<polygon fill="white" stroke="#666666" points="275.5,-78 95.5,-78 95.5,-48 275.5,-48 275.5,-78"/>
<text text-anchor="start" x="103.5" y="-66" font-family="Helvetica,sans-Serif" font-size="10.00">OCA\CAFEVDB\PageRenderer</text>
<text text-anchor="middle" x="185.5" y="-55" font-family="Helvetica,sans-Serif" font-size="10.00">\PMETableViewBase\deleteOperation</text>
</a>
</g>
</g>
<!-- Node1&#45;&gt;Node5 -->
<g id="edge4" class="edge">
<title>Node1&#45;&gt;Node5</title>
<path fill="none" stroke="#63b8ff" d="M54.02,-101.05C65.72,-96.47 79.98,-91.16 93,-87 99.01,-85.08 105.28,-83.2 111.6,-81.38"/>
<polygon fill="#63b8ff" stroke="#63b8ff" points="112.09,-84.88 120.77,-78.8 110.2,-78.14 112.09,-84.88"/>
</g>
<!-- Node6 -->
<g id="node6" class="node">
<title>Node6</title>
<g id="a_node6"><a xlink:href="class_o_c_a_1_1_c_a_f_e_v_d_b_1_1_page_renderer_1_1_p_m_e_table_view_base.html#a7f9c4bce2f800cbf5e81b80f1f751fff" target="_top" xlink:title=" ">
<polygon fill="white" stroke="#666666" points="272.5,-30 98.5,-30 98.5,0 272.5,0 272.5,-30"/>
<text text-anchor="start" x="106.5" y="-18" font-family="Helvetica,sans-Serif" font-size="10.00">OCA\CAFEVDB\PageRenderer</text>
<text text-anchor="middle" x="185.5" y="-7" font-family="Helvetica,sans-Serif" font-size="10.00">\PMETableViewBase\viewOperation</text>
</a>
</g>
</g>
<!-- Node1&#45;&gt;Node6 -->
<g id="edge5" class="edge">
<title>Node1&#45;&gt;Node6</title>
<path fill="none" stroke="#63b8ff" d="M35.23,-101.44C45.05,-85.9 66.61,-55.26 93,-39 95.16,-37.67 97.39,-36.41 99.68,-35.23"/>
<polygon fill="#63b8ff" stroke="#63b8ff" points="101.03,-38.46 108.63,-31.08 98.09,-32.1 101.03,-38.46"/>
</g>
</g>
</svg>
