<?xml version="1.0" encoding="UTF-8" standalone="no"?>
<!DOCTYPE svg PUBLIC "-//W3C//DTD SVG 1.1//EN"
 "http://www.w3.org/Graphics/SVG/1.1/DTD/svg11.dtd">
<!-- Generated by graphviz version 7.1.0 (20230121.1956)
 -->
<!-- Title: createNode Pages: 1 -->
<svg width="231pt" height="27pt"
 viewBox="0.00 0.00 231.00 27.00" xmlns="http://www.w3.org/2000/svg" xmlns:xlink="http://www.w3.org/1999/xlink">
<g id="graph0" class="graph" transform="scale(1 1) rotate(0) translate(4 23)">
<title>createNode</title>
<!-- Node1 -->
<g id="node1" class="node">
<title>Node1</title>
<g id="a_node1"><a xlink:title="Internal helper function.">
<polygon fill="#999999" stroke="#666666" points="223,-19 156,-19 156,0 223,0 223,-19"/>
<text text-anchor="middle" x="189.5" y="-7" font-family="Helvetica,sans-Serif" font-size="10.00">createNode</text>
</a>
</g>
</g>
<!-- Node2 -->
<g id="node2" class="node">
<title>Node2</title>
<g id="a_node2"><a xlink:href="class_o_c_a_1_1_c_a_f_e_v_d_b_1_1_common_1_1_uuid.html#ae466f6e98c463abb7c4fdbca7d7ce3b1" target="_top" xlink:title="{}">
<polygon fill="white" stroke="#666666" points="120,-19 80,-19 80,0 120,0 120,-19"/>
<text text-anchor="middle" x="100" y="-7" font-family="Helvetica,sans-Serif" font-size="10.00">uuid1</text>
</a>
</g>
</g>
<!-- Node1&#45;&gt;Node2 -->
<g id="edge1" class="edge">
<title>Node1&#45;&gt;Node2</title>
<path fill="none" stroke="#63b8ff" d="M144.48,-9.5C136.01,-9.5 127.56,-9.5 120.39,-9.5"/>
<polygon fill="#63b8ff" stroke="#63b8ff" points="144.4,-13 154.4,-9.5 144.4,-6 144.4,-13"/>
</g>
<!-- Node3 -->
<g id="node3" class="node">
<title>Node3</title>
<g id="a_node3"><a xlink:href="class_o_c_a_1_1_c_a_f_e_v_d_b_1_1_common_1_1_uuid.html#a239b1c70258014a86569483c2d009de6" target="_top" xlink:title="Create a default Uuid.">
<polygon fill="white" stroke="#666666" points="44,-19 0,-19 0,0 44,0 44,-19"/>
<text text-anchor="middle" x="22" y="-7" font-family="Helvetica,sans-Serif" font-size="10.00">create</text>
</a>
</g>
</g>
<!-- Node2&#45;&gt;Node3 -->
<g id="edge2" class="edge">
<title>Node2&#45;&gt;Node3</title>
<path fill="none" stroke="#63b8ff" d="M68.47,-9.5C60.38,-9.5 51.81,-9.5 44.32,-9.5"/>
<polygon fill="#63b8ff" stroke="#63b8ff" points="68.31,-13 78.31,-9.5 68.31,-6 68.31,-13"/>
</g>
</g>
</svg>
