<?xml version="1.0" encoding="UTF-8" standalone="no"?>
<!DOCTYPE svg PUBLIC "-//W3C//DTD SVG 1.1//EN"
 "http://www.w3.org/Graphics/SVG/1.1/DTD/svg11.dtd">
<!-- Generated by graphviz version 7.1.0 (20230121.1956)
 -->
<!-- Title: createVCalendarFromRequest Pages: 1 -->
<svg width="492pt" height="101pt"
 viewBox="0.00 0.00 492.00 101.00" xmlns="http://www.w3.org/2000/svg" xmlns:xlink="http://www.w3.org/1999/xlink">
<g id="graph0" class="graph" transform="scale(1 1) rotate(0) translate(4 97)">
<title>createVCalendarFromRequest</title>
<!-- Node1 -->
<g id="node1" class="node">
<title>Node1</title>
<g id="a_node1"><a xlink:title=" ">
<polygon fill="#999999" stroke="#666666" points="149,-37 0,-37 0,-18 149,-18 149,-37"/>
<text text-anchor="middle" x="74.5" y="-25" font-family="Helvetica,sans-Serif" font-size="10.00">createVCalendarFromRequest</text>
</a>
</g>
</g>
<!-- Node2 -->
<g id="node2" class="node">
<title>Node2</title>
<g id="a_node2"><a xlink:href="class_o_c_a_1_1_c_a_f_e_v_d_b_1_1_service_1_1_v_calendar_service.html#af29ef0e454ee9f357ef918f183c5d001" target="_top" xlink:title=" ">
<polygon fill="white" stroke="#666666" points="320,-56 185,-56 185,-37 320,-37 320,-56"/>
<text text-anchor="middle" x="252.5" y="-44" font-family="Helvetica,sans-Serif" font-size="10.00">createVEventFromRequest</text>
</a>
</g>
</g>
<!-- Node1&#45;&gt;Node2 -->
<g id="edge1" class="edge">
<title>Node1&#45;&gt;Node2</title>
<path fill="none" stroke="#63b8ff" d="M149.37,-35.48C157.3,-36.33 165.39,-37.2 173.36,-38.06"/>
<polygon fill="#63b8ff" stroke="#63b8ff" points="172.72,-41.52 183.04,-39.11 173.47,-34.56 172.72,-41.52"/>
</g>
<!-- Node6 -->
<g id="node6" class="node">
<title>Node6</title>
<g id="a_node6"><a xlink:href="class_o_c_a_1_1_c_a_f_e_v_d_b_1_1_service_1_1_v_calendar_service.html#a6fed837c6f053a8cd036ccaf652739fa" target="_top" xlink:title=" ">
<polygon fill="white" stroke="#666666" points="318,-19 187,-19 187,0 318,0 318,-19"/>
<text text-anchor="middle" x="252.5" y="-7" font-family="Helvetica,sans-Serif" font-size="10.00">createVTodoFromRequest</text>
</a>
</g>
</g>
<!-- Node1&#45;&gt;Node6 -->
<g id="edge5" class="edge">
<title>Node1&#45;&gt;Node6</title>
<path fill="none" stroke="#63b8ff" d="M149.37,-19.94C158.01,-19.06 166.83,-18.16 175.49,-17.27"/>
<polygon fill="#63b8ff" stroke="#63b8ff" points="175.66,-20.77 185.25,-16.28 174.95,-13.81 175.66,-20.77"/>
</g>
<!-- Node3 -->
<g id="node3" class="node">
<title>Node3</title>
<g id="a_node3"><a xlink:href="class_o_c_a_1_1_c_a_f_e_v_d_b_1_1_service_1_1_v_calendar_service.html#aabb41dada7b7f42283e1fe61bab0a887" target="_top" xlink:title="Add one or multiple participans to the given VTodo or VEvent.">
<polygon fill="white" stroke="#666666" points="462,-93 378,-93 378,-74 462,-74 462,-93"/>
<text text-anchor="middle" x="420" y="-81" font-family="Helvetica,sans-Serif" font-size="10.00">addParticipants</text>
</a>
</g>
</g>
<!-- Node2&#45;&gt;Node3 -->
<g id="edge2" class="edge">
<title>Node2&#45;&gt;Node3</title>
<path fill="none" stroke="#63b8ff" d="M297.85,-56.42C318.97,-61.14 344.37,-66.82 366.45,-71.75"/>
<polygon fill="#63b8ff" stroke="#63b8ff" points="365.66,-75.16 376.18,-73.93 367.18,-68.33 365.66,-75.16"/>
</g>
<!-- Node4 -->
<g id="node4" class="node">
<title>Node4</title>
<g id="a_node4"><a xlink:href="class_o_c_a_1_1_c_a_f_e_v_d_b_1_1_service_1_1_v_calendar_service.html#ae752a1150511a5891f344e73105d901d" target="_top" xlink:title="Add one or multiple relations to the given VTodo or VEvent.">
<polygon fill="white" stroke="#666666" points="457,-56 383,-56 383,-37 457,-37 457,-56"/>
<text text-anchor="middle" x="420" y="-44" font-family="Helvetica,sans-Serif" font-size="10.00">addRelations</text>
</a>
</g>
</g>
<!-- Node2&#45;&gt;Node4 -->
<g id="edge3" class="edge">
<title>Node2&#45;&gt;Node4</title>
<path fill="none" stroke="#63b8ff" d="M320.34,-46.5C337.52,-46.5 355.65,-46.5 371.62,-46.5"/>
<polygon fill="#63b8ff" stroke="#63b8ff" points="371.31,-50 381.31,-46.5 371.31,-43 371.31,-50"/>
</g>
<!-- Node5 -->
<g id="node5" class="node">
<title>Node5</title>
<g id="a_node5"><a xlink:href="class_o_c_a_1_1_c_a_f_e_v_d_b_1_1_service_1_1_v_calendar_service.html#a349505932cfde0b222b7d7ea55fdcf19" target="_top" xlink:title="Add one or multiple alarms to the given VTodo or VEvent.">
<polygon fill="white" stroke="#666666" points="484,-19 356,-19 356,0 484,0 484,-19"/>
<text text-anchor="middle" x="420" y="-7" font-family="Helvetica,sans-Serif" font-size="10.00">addVAlarmsFromRequest</text>
</a>
</g>
</g>
<!-- Node2&#45;&gt;Node5 -->
<g id="edge4" class="edge">
<title>Node2&#45;&gt;Node5</title>
<path fill="none" stroke="#63b8ff" d="M297.85,-36.58C317.98,-32.08 342,-26.71 363.33,-21.95"/>
<polygon fill="#63b8ff" stroke="#63b8ff" points="364.05,-25.37 373.05,-19.77 362.53,-18.54 364.05,-25.37"/>
</g>
</g>
</svg>
