<?xml version="1.0" encoding="UTF-8" standalone="no"?>
<!DOCTYPE svg PUBLIC "-//W3C//DTD SVG 1.1//EN"
 "http://www.w3.org/Graphics/SVG/1.1/DTD/svg11.dtd">
<!-- Generated by graphviz version 7.1.0 (20230121.1956)
 -->
<!-- Title: getPublicName Pages: 1 -->
<svg width="199pt" height="64pt"
 viewBox="0.00 0.00 199.00 64.00" xmlns="http://www.w3.org/2000/svg" xmlns:xlink="http://www.w3.org/1999/xlink">
<g id="graph0" class="graph" transform="scale(1 1) rotate(0) translate(4 60)">
<title>getPublicName</title>
<!-- Node1 -->
<g id="node1" class="node">
<title>Node1</title>
<g id="a_node1"><a xlink:title="Get the cooked display&#45;name, taking nick&#45;name into account and just using $displayName if that set.">
<polygon fill="#999999" stroke="#666666" points="191,-37 108,-37 108,-18 191,-18 191,-37"/>
<text text-anchor="middle" x="149.5" y="-25" font-family="Helvetica,sans-Serif" font-size="10.00">getPublicName</text>
</a>
</g>
</g>
<!-- Node2 -->
<g id="node2" class="node">
<title>Node2</title>
<g id="a_node2"><a xlink:href="class_o_c_a_1_1_c_a_f_e_v_d_b_1_1_database_1_1_doctrine_1_1_o_r_m_1_1_entities_1_1_musician.html#a7516ca30af0db3cdbf9a7739b48ce91d" target="_top" xlink:title="{}">
<polygon fill="white" stroke="#666666" points="66.5,-56 5.5,-56 5.5,-37 66.5,-37 66.5,-56"/>
<text text-anchor="middle" x="36" y="-44" font-family="Helvetica,sans-Serif" font-size="10.00">__toString</text>
</a>
</g>
</g>
<!-- Node1&#45;&gt;Node2 -->
<g id="edge1" class="edge">
<title>Node1&#45;&gt;Node2</title>
<path fill="none" stroke="#63b8ff" d="M96.29,-36.4C86.13,-38.13 75.82,-39.88 66.71,-41.44"/>
<polygon fill="#63b8ff" stroke="#63b8ff" points="96.85,-39.85 106.12,-34.72 95.68,-32.95 96.85,-39.85"/>
</g>
<!-- Node3 -->
<g id="node3" class="node">
<title>Node3</title>
<g id="a_node3"><a xlink:href="class_o_c_a_1_1_c_a_f_e_v_d_b_1_1_database_1_1_doctrine_1_1_o_r_m_1_1_entities_1_1_musician.html#ad402d8679325bc514874370f02b5c2ac" target="_top" xlink:title="{}">
<polygon fill="white" stroke="#666666" points="72,-19 0,-19 0,0 72,0 72,-19"/>
<text text-anchor="middle" x="36" y="-7" font-family="Helvetica,sans-Serif" font-size="10.00">jsonSerialize</text>
</a>
</g>
</g>
<!-- Node1&#45;&gt;Node3 -->
<g id="edge2" class="edge">
<title>Node1&#45;&gt;Node3</title>
<path fill="none" stroke="#63b8ff" d="M96.29,-19.07C88.19,-17.76 79.98,-16.44 72.37,-15.21"/>
<polygon fill="#63b8ff" stroke="#63b8ff" points="95.69,-22.52 106.12,-20.66 96.81,-15.61 95.69,-22.52"/>
</g>
</g>
</svg>
