<?xml version="1.0" encoding="UTF-8" standalone="no"?>
<!DOCTYPE svg PUBLIC "-//W3C//DTD SVG 1.1//EN"
 "http://www.w3.org/Graphics/SVG/1.1/DTD/svg11.dtd">
<!-- Generated by graphviz version 7.1.0 (20230121.1956)
 -->
<!-- Title: debug Pages: 1 -->
<svg width="185pt" height="45pt"
 viewBox="0.00 0.00 185.00 45.00" xmlns="http://www.w3.org/2000/svg" xmlns:xlink="http://www.w3.org/1999/xlink">
<g id="graph0" class="graph" transform="scale(1 1) rotate(0) translate(4 41)">
<title>debug</title>
<!-- Node1 -->
<g id="node1" class="node">
<title>Node1</title>
<g id="a_node1"><a xlink:title=" ">
<polygon fill="#999999" stroke="#666666" points="177,-19 134,-19 134,0 177,0 177,-19"/>
<text text-anchor="middle" x="155.5" y="-7" font-family="Helvetica,sans-Serif" font-size="10.00">debug</text>
</a>
</g>
</g>
<!-- Node1&#45;&gt;Node1 -->
<g id="edge1" class="edge">
<title>Node1&#45;&gt;Node1</title>
<path fill="none" stroke="#63b8ff" d="M174.4,-30.43C172.04,-34.29 165.74,-37 155.5,-37 136.78,-37 131.22,-27.94 138.83,-19.37"/>
<polygon fill="#63b8ff" stroke="#63b8ff" points="177.88,-29.96 172.47,-20.85 171.02,-31.35 177.88,-29.96"/>
</g>
<!-- Node2 -->
<g id="node2" class="node">
<title>Node2</title>
<g id="a_node2"><a xlink:href="class_o_c_a_1_1_c_a_f_e_v_d_b_1_1_database_1_1_doctrine_1_1_o_r_m_1_1_mapping_1_1_class_metadata_decorator.html#a77ab9505ae36ef5969a69fac19fb3090" target="_top" xlink:title="Update the inverse side of an association after auto&#45;installing $targetEntity into $entity (the ownin...">
<polygon fill="white" stroke="#666666" points="98,-19 0,-19 0,0 98,0 98,-19"/>
<text text-anchor="middle" x="49" y="-7" font-family="Helvetica,sans-Serif" font-size="10.00">updateInverseSide</text>
</a>
</g>
</g>
<!-- Node1&#45;&gt;Node2 -->
<g id="edge2" class="edge">
<title>Node1&#45;&gt;Node2</title>
<path fill="none" stroke="#63b8ff" d="M122.25,-9.5C114.6,-9.5 106.27,-9.5 98.08,-9.5"/>
<polygon fill="#63b8ff" stroke="#63b8ff" points="122.09,-13 132.09,-9.5 122.09,-6 122.09,-13"/>
</g>
</g>
</svg>
