<?xml version="1.0" encoding="UTF-8" standalone="no"?>
<!DOCTYPE svg PUBLIC "-//W3C//DTD SVG 1.1//EN"
 "http://www.w3.org/Graphics/SVG/1.1/DTD/svg11.dtd">
<!-- Generated by graphviz version 7.1.0 (20230121.1956)
 -->
<!-- Title: fileFromFileName Pages: 1 -->
<svg width="356pt" height="64pt"
 viewBox="0.00 0.00 356.00 64.00" xmlns="http://www.w3.org/2000/svg" xmlns:xlink="http://www.w3.org/1999/xlink">
<g id="graph0" class="graph" transform="scale(1 1) rotate(0) translate(4 60)">
<title>fileFromFileName</title>
<!-- Node1 -->
<g id="node1" class="node">
<title>Node1</title>
<g id="a_node1"><a xlink:title="Fetch the file entity corresponding to file&#45;name.">
<polygon fill="#999999" stroke="#666666" points="94,-37 0,-37 0,-18 94,-18 94,-37"/>
<text text-anchor="middle" x="47" y="-25" font-family="Helvetica,sans-Serif" font-size="10.00">fileFromFileName</text>
</a>
</g>
</g>
<!-- Node2 -->
<g id="node2" class="node">
<title>Node2</title>
<g id="a_node2"><a xlink:href="class_o_c_a_1_1_c_a_f_e_v_d_b_1_1_storage_1_1_database_1_1_storage.html#ab721841df814a2337039d39cc03da82a" target="_top" xlink:title=" ">
<polygon fill="white" stroke="#666666" points="187,-56 130,-56 130,-37 187,-37 187,-56"/>
<text text-anchor="middle" x="158.5" y="-44" font-family="Helvetica,sans-Serif" font-size="10.00">buildPath</text>
</a>
</g>
</g>
<!-- Node1&#45;&gt;Node2 -->
<g id="edge1" class="edge">
<title>Node1&#45;&gt;Node2</title>
<path fill="none" stroke="#63b8ff" d="M94.44,-35.56C102.41,-36.94 110.63,-38.37 118.38,-39.71"/>
<polygon fill="#63b8ff" stroke="#63b8ff" points="117.77,-43.16 128.22,-41.42 118.97,-36.26 117.77,-43.16"/>
</g>
<!-- Node3 -->
<g id="node3" class="node">
<title>Node3</title>
<g id="a_node3"><a xlink:href="class_o_c_a_1_1_c_a_f_e_v_d_b_1_1_storage_1_1_database_1_1_storage.html#aa8e4fc68bcf28c10413b664b7d89ae81" target="_top" xlink:title="Slightly modified pathinfo() function which also normalized directories before computing the componen...">
<polygon fill="white" stroke="#666666" points="184.5,-19 132.5,-19 132.5,0 184.5,0 184.5,-19"/>
<text text-anchor="middle" x="158.5" y="-7" font-family="Helvetica,sans-Serif" font-size="10.00">pathInfo</text>
</a>
</g>
</g>
<!-- Node1&#45;&gt;Node3 -->
<g id="edge2" class="edge">
<title>Node1&#45;&gt;Node3</title>
<path fill="none" stroke="#63b8ff" d="M94.44,-19.87C103.33,-18.4 112.53,-16.89 121.06,-15.49"/>
<polygon fill="#63b8ff" stroke="#63b8ff" points="121.39,-18.98 130.69,-13.91 120.25,-12.08 121.39,-18.98"/>
</g>
<!-- Node4 -->
<g id="node4" class="node">
<title>Node4</title>
<g id="a_node4"><a xlink:href="class_o_c_a_1_1_c_a_f_e_v_d_b_1_1_storage_1_1_database_1_1_storage.html#ac5c1b62ecc9eb2ebe08f1e8c7ee2b283" target="_top" xlink:title="Attach self::PATH_SEPARATOR to the dirname if it is not the root directory.">
<polygon fill="white" stroke="#666666" points="348,-19 223,-19 223,0 348,0 348,-19"/>
<text text-anchor="middle" x="285.5" y="-7" font-family="Helvetica,sans-Serif" font-size="10.00">normalizeDirectoryName</text>
</a>
</g>
</g>
<!-- Node3&#45;&gt;Node4 -->
<g id="edge3" class="edge">
<title>Node3&#45;&gt;Node4</title>
<path fill="none" stroke="#63b8ff" d="M184.8,-9.5C192.69,-9.5 201.83,-9.5 211.31,-9.5"/>
<polygon fill="#63b8ff" stroke="#63b8ff" points="211.03,-13 221.03,-9.5 211.03,-6 211.03,-13"/>
</g>
</g>
</svg>
