<?xml version="1.0" encoding="UTF-8" standalone="no"?>
<!DOCTYPE svg PUBLIC "-//W3C//DTD SVG 1.1//EN"
 "http://www.w3.org/Graphics/SVG/1.1/DTD/svg11.dtd">
<!-- Generated by graphviz version 7.1.0 (20230121.1956)
 -->
<!-- Title: isFontAvailable Pages: 1 -->
<svg width="621pt" height="27pt"
 viewBox="0.00 0.00 621.00 27.00" xmlns="http://www.w3.org/2000/svg" xmlns:xlink="http://www.w3.org/1999/xlink">
<g id="graph0" class="graph" transform="scale(1 1) rotate(0) translate(4 23)">
<title>isFontAvailable</title>
<!-- Node1 -->
<g id="node1" class="node">
<title>Node1</title>
<g id="a_node1"><a xlink:title="Check whether the given font.">
<polygon fill="#999999" stroke="#666666" points="83,-19 0,-19 0,0 83,0 83,-19"/>
<text text-anchor="middle" x="41.5" y="-7" font-family="Helvetica,sans-Serif" font-size="10.00">isFontAvailable</text>
</a>
</g>
</g>
<!-- Node2 -->
<g id="node2" class="node">
<title>Node2</title>
<g id="a_node2"><a xlink:href="class_o_c_a_1_1_c_a_f_e_v_d_b_1_1_service_1_1_font_service.html#ad4a3b7b4eedfc6652afc11bd2f63a89e" target="_top" xlink:title="Obtain the cached contents of the font&#45;folder, grouped by family.">
<polygon fill="white" stroke="#666666" points="226,-19 119,-19 119,0 226,0 226,-19"/>
<text text-anchor="middle" x="172.5" y="-7" font-family="Helvetica,sans-Serif" font-size="10.00">getFontFolderEntries</text>
</a>
</g>
</g>
<!-- Node1&#45;&gt;Node2 -->
<g id="edge1" class="edge">
<title>Node1&#45;&gt;Node2</title>
<path fill="none" stroke="#63b8ff" d="M83.32,-9.5C90.94,-9.5 99.08,-9.5 107.22,-9.5"/>
<polygon fill="#63b8ff" stroke="#63b8ff" points="107.15,-13 117.15,-9.5 107.14,-6 107.15,-13"/>
</g>
<!-- Node3 -->
<g id="node3" class="node">
<title>Node3</title>
<g id="a_node3"><a xlink:href="class_o_c_a_1_1_c_a_f_e_v_d_b_1_1_service_1_1_font_service.html#a11370c328f78412deb89ea3a113e01dc" target="_top" xlink:title="Scan the app&#39;s fonts folder and return the contents grouped by font family.">
<polygon fill="white" stroke="#666666" points="351,-19 262,-19 262,0 351,0 351,-19"/>
<text text-anchor="middle" x="306.5" y="-7" font-family="Helvetica,sans-Serif" font-size="10.00">scanFontsFolder</text>
</a>
</g>
</g>
<!-- Node2&#45;&gt;Node3 -->
<g id="edge2" class="edge">
<title>Node2&#45;&gt;Node3</title>
<path fill="none" stroke="#63b8ff" d="M226.43,-9.5C234.33,-9.5 242.5,-9.5 250.44,-9.5"/>
<polygon fill="#63b8ff" stroke="#63b8ff" points="250.36,-13 260.36,-9.5 250.36,-6 250.36,-13"/>
</g>
<!-- Node4 -->
<g id="node4" class="node">
<title>Node4</title>
<g id="a_node4"><a xlink:href="class_o_c_a_1_1_c_a_f_e_v_d_b_1_1_service_1_1_font_service.html#a77513dce29558f6d1474fb786b9ef885" target="_top" xlink:title=" ">
<polygon fill="white" stroke="#666666" points="495,-19 387,-19 387,0 495,0 495,-19"/>
<text text-anchor="middle" x="441" y="-7" font-family="Helvetica,sans-Serif" font-size="10.00">getFontsFolderName</text>
</a>
</g>
</g>
<!-- Node3&#45;&gt;Node4 -->
<g id="edge3" class="edge">
<title>Node3&#45;&gt;Node4</title>
<path fill="none" stroke="#63b8ff" d="M351.25,-9.5C358.94,-9.5 367.08,-9.5 375.2,-9.5"/>
<polygon fill="#63b8ff" stroke="#63b8ff" points="375.08,-13 385.08,-9.5 375.08,-6 375.08,-13"/>
</g>
<!-- Node5 -->
<g id="node5" class="node">
<title>Node5</title>
<g id="a_node5"><a xlink:href="class_o_c_a_1_1_c_a_f_e_v_d_b_1_1_service_1_1_font_service.html#a1548029c9c58b03ee3a95f9d5c143920" target="_top" xlink:title=" ">
<polygon fill="white" stroke="#666666" points="613,-19 531,-19 531,0 613,0 613,-19"/>
<text text-anchor="middle" x="572" y="-7" font-family="Helvetica,sans-Serif" font-size="10.00">getFontsFolder</text>
</a>
</g>
</g>
<!-- Node4&#45;&gt;Node5 -->
<g id="edge4" class="edge">
<title>Node4&#45;&gt;Node5</title>
<path fill="none" stroke="#63b8ff" d="M495.21,-9.5C503.14,-9.5 511.3,-9.5 519.2,-9.5"/>
<polygon fill="#63b8ff" stroke="#63b8ff" points="519.01,-13 529.01,-9.5 519.01,-6 519.01,-13"/>
</g>
</g>
</svg>
