<?xml version="1.0" encoding="UTF-8" standalone="no"?>
<!DOCTYPE svg PUBLIC "-//W3C//DTD SVG 1.1//EN"
 "http://www.w3.org/Graphics/SVG/1.1/DTD/svg11.dtd">
<!-- Generated by graphviz version 7.1.0 (20230121.1956)
 -->
<!-- Title: getCard Pages: 1 -->
<svg width="303pt" height="64pt"
 viewBox="0.00 0.00 303.00 64.00" xmlns="http://www.w3.org/2000/svg" xmlns:xlink="http://www.w3.org/1999/xlink">
<g id="graph0" class="graph" transform="scale(1 1) rotate(0) translate(4 60)">
<title>getCard</title>
<!-- Node1 -->
<g id="node1" class="node">
<title>Node1</title>
<g id="a_node1"><a xlink:title="{MusicianCard\Sabre\DAVxceptionNode1otFound}">
<polygon fill="#999999" stroke="#666666" points="51,-37 0,-37 0,-18 51,-18 51,-37"/>
<text text-anchor="middle" x="25.5" y="-25" font-family="Helvetica,sans-Serif" font-size="10.00">getCard</text>
</a>
</g>
</g>
<!-- Node2 -->
<g id="node2" class="node">
<title>Node2</title>
<g id="a_node2"><a xlink:href="class_o_c_a_1_1_c_a_f_e_v_d_b_1_1_address_book_1_1_musician_card_backend.html#ae67e20e0060d08fda2a321db24706055" target="_top" xlink:title="{}">
<polygon fill="white" stroke="#666666" points="165,-56 95,-56 95,-37 165,-37 165,-56"/>
<text text-anchor="middle" x="130" y="-44" font-family="Helvetica,sans-Serif" font-size="10.00">entryToCard</text>
</a>
</g>
</g>
<!-- Node1&#45;&gt;Node2 -->
<g id="edge1" class="edge">
<title>Node1&#45;&gt;Node2</title>
<path fill="none" stroke="#63b8ff" d="M51.31,-32.1C60.99,-33.89 72.39,-36.01 83.44,-38.05"/>
<polygon fill="#63b8ff" stroke="#63b8ff" points="82.78,-41.49 93.25,-39.87 84.05,-34.61 82.78,-41.49"/>
</g>
<!-- Node4 -->
<g id="node4" class="node">
<title>Node4</title>
<g id="a_node4"><a xlink:href="class_o_c_a_1_1_c_a_f_e_v_d_b_1_1_address_book_1_1_musician_card_backend.html#a85a38f3986e5ceb33fc7dfd5d53408be" target="_top" xlink:title="{}">
<polygon fill="white" stroke="#666666" points="173,-19 87,-19 87,0 173,0 173,-19"/>
<text text-anchor="middle" x="130" y="-7" font-family="Helvetica,sans-Serif" font-size="10.00">getUuidFromUri</text>
</a>
</g>
</g>
<!-- Node1&#45;&gt;Node4 -->
<g id="edge3" class="edge">
<title>Node1&#45;&gt;Node4</title>
<path fill="none" stroke="#63b8ff" d="M51.31,-23.14C58.73,-21.84 67.16,-20.36 75.67,-18.87"/>
<polygon fill="#63b8ff" stroke="#63b8ff" points="76.08,-22.35 85.33,-17.17 74.87,-15.45 76.08,-22.35"/>
</g>
<!-- Node3 -->
<g id="node3" class="node">
<title>Node3</title>
<g id="a_node3"><a xlink:href="class_o_c_a_1_1_c_a_f_e_v_d_b_1_1_address_book_1_1_musician_card_backend.html#a485c110595ab2fae9aed67693e23f38f" target="_top" xlink:title="{}">
<polygon fill="white" stroke="#666666" points="295,-56 209,-56 209,-37 295,-37 295,-56"/>
<text text-anchor="middle" x="252" y="-44" font-family="Helvetica,sans-Serif" font-size="10.00">getUriFromUuid</text>
</a>
</g>
</g>
<!-- Node2&#45;&gt;Node3 -->
<g id="edge2" class="edge">
<title>Node2&#45;&gt;Node3</title>
<path fill="none" stroke="#63b8ff" d="M165.39,-46.5C175.46,-46.5 186.72,-46.5 197.68,-46.5"/>
<polygon fill="#63b8ff" stroke="#63b8ff" points="197.42,-50 207.42,-46.5 197.42,-43 197.42,-50"/>
</g>
</g>
</svg>
