<?xml version="1.0" encoding="UTF-8" standalone="no"?>
<!DOCTYPE svg PUBLIC "-//W3C//DTD SVG 1.1//EN"
 "http://www.w3.org/Graphics/SVG/1.1/DTD/svg11.dtd">
<!-- Generated by graphviz version 7.1.0 (20230121.1956)
 -->
<!-- Title: localeCountryNames Pages: 1 -->
<svg width="211pt" height="45pt"
 viewBox="0.00 0.00 211.00 45.00" xmlns="http://www.w3.org/2000/svg" xmlns:xlink="http://www.w3.org/1999/xlink">
<g id="graph0" class="graph" transform="scale(1 1) rotate(0) translate(4 41)">
<title>localeCountryNames</title>
<!-- Node1 -->
<g id="node1" class="node">
<title>Node1</title>
<g id="a_node1"><a xlink:title=" ">
<polygon fill="#999999" stroke="#666666" points="108,-19 0,-19 0,0 108,0 108,-19"/>
<text text-anchor="middle" x="54" y="-7" font-family="Helvetica,sans-Serif" font-size="10.00">localeCountryNames</text>
</a>
</g>
</g>
<!-- Node1&#45;&gt;Node1 -->
<g id="edge2" class="edge">
<title>Node1&#45;&gt;Node1</title>
<path fill="none" stroke="#63b8ff" d="M35.29,-19.37C26.76,-27.94 32.99,-37 54,-37 65.49,-37 72.56,-34.29 75.21,-30.43"/>
<polygon fill="#63b8ff" stroke="#63b8ff" points="78.66,-29.83 73.04,-20.84 71.84,-31.37 78.66,-29.83"/>
</g>
<!-- Node2 -->
<g id="node2" class="node">
<title>Node2</title>
<g id="a_node2"><a xlink:href="class_o_c_a_1_1_c_a_f_e_v_d_b_1_1_service_1_1_config_service.html#ae705742d573e516c783122fb4a0e1aea" target="_top" xlink:title="Return the locale as string, e.g.">
<polygon fill="white" stroke="#666666" points="203,-19 144,-19 144,0 203,0 203,-19"/>
<text text-anchor="middle" x="173.5" y="-7" font-family="Helvetica,sans-Serif" font-size="10.00">getLocale</text>
</a>
</g>
</g>
<!-- Node1&#45;&gt;Node2 -->
<g id="edge1" class="edge">
<title>Node1&#45;&gt;Node2</title>
<path fill="none" stroke="#63b8ff" d="M108.25,-9.5C116.31,-9.5 124.52,-9.5 132.25,-9.5"/>
<polygon fill="#63b8ff" stroke="#63b8ff" points="132.02,-13 142.02,-9.5 132.02,-6 132.02,-13"/>
</g>
</g>
</svg>
