<?xml version="1.0" encoding="UTF-8" standalone="no"?>
<!DOCTYPE svg PUBLIC "-//W3C//DTD SVG 1.1//EN"
 "http://www.w3.org/Graphics/SVG/1.1/DTD/svg11.dtd">
<!-- Generated by graphviz version 7.1.0 (20230121.1956)
 -->
<!-- Title: createVCalendarFromRequest Pages: 1 -->
<svg width="483pt" height="64pt"
 viewBox="0.00 0.00 483.00 64.00" xmlns="http://www.w3.org/2000/svg" xmlns:xlink="http://www.w3.org/1999/xlink">
<g id="graph0" class="graph" transform="scale(1 1) rotate(0) translate(4 60)">
<title>createVCalendarFromRequest</title>
<!-- Node1 -->
<g id="node1" class="node">
<title>Node1</title>
<g id="a_node1"><a xlink:title="Creates an VCalendar Object from the request data.">
<polygon fill="#999999" stroke="#666666" points="149,-37 0,-37 0,-18 149,-18 149,-37"/>
<text text-anchor="middle" x="74.5" y="-25" font-family="Helvetica,sans-Serif" font-size="10.00">createVCalendarFromRequest</text>
</a>
</g>
</g>
<!-- Node2 -->
<g id="node2" class="node">
<title>Node2</title>
<g id="a_node2"><a xlink:href="class_o_c_a_1_1_c_a_f_e_v_d_b_1_1_legacy_1_1_calendar_1_1_o_c___calendar___object.html#aedd8ff06659737d2643f2e072371f134" target="_top" xlink:title="Updates an VCalendar Object from the request data.">
<polygon fill="white" stroke="#666666" points="336,-37 185,-37 185,-18 336,-18 336,-37"/>
<text text-anchor="middle" x="260.5" y="-25" font-family="Helvetica,sans-Serif" font-size="10.00">updateVCalendarFromRequest</text>
</a>
</g>
</g>
<!-- Node1&#45;&gt;Node2 -->
<g id="edge1" class="edge">
<title>Node1&#45;&gt;Node2</title>
<path fill="none" stroke="#63b8ff" d="M149.28,-27.5C157.16,-27.5 165.23,-27.5 173.24,-27.5"/>
<polygon fill="#63b8ff" stroke="#63b8ff" points="172.99,-31 182.99,-27.5 172.99,-24 172.99,-31"/>
</g>
<!-- Node3 -->
<g id="node3" class="node">
<title>Node3</title>
<g id="a_node3"><a xlink:href="class_o_c_a_1_1_c_a_f_e_v_d_b_1_1_legacy_1_1_calendar_1_1_o_c___calendar___object.html#abeb36349d137f59529296be433ce51b4" target="_top" xlink:title="Returns the options for an yearly repeating event which occurs on specific month of the year.">
<polygon fill="white" stroke="#666666" points="475,-56 372,-56 372,-37 475,-37 475,-56"/>
<text text-anchor="middle" x="423.5" y="-44" font-family="Helvetica,sans-Serif" font-size="10.00">getByMonthOptions</text>
</a>
</g>
</g>
<!-- Node2&#45;&gt;Node3 -->
<g id="edge2" class="edge">
<title>Node2&#45;&gt;Node3</title>
<path fill="none" stroke="#63b8ff" d="M336.34,-36.33C344.4,-37.28 352.53,-38.24 360.41,-39.17"/>
<polygon fill="#63b8ff" stroke="#63b8ff" points="359.9,-42.64 370.24,-40.33 360.72,-35.68 359.9,-42.64"/>
</g>
<!-- Node4 -->
<g id="node4" class="node">
<title>Node4</title>
<g id="a_node4"><a xlink:href="class_o_c_a_1_1_c_a_f_e_v_d_b_1_1_legacy_1_1_calendar_1_1_o_c___calendar___object.html#ad515ca85336eabd9bab2062442e733f8" target="_top" xlink:title="Returns the options for an weekly repeating event.">
<polygon fill="white" stroke="#666666" points="471.5,-19 375.5,-19 375.5,0 471.5,0 471.5,-19"/>
<text text-anchor="middle" x="423.5" y="-7" font-family="Helvetica,sans-Serif" font-size="10.00">getWeeklyOptions</text>
</a>
</g>
</g>
<!-- Node2&#45;&gt;Node4 -->
<g id="edge3" class="edge">
<title>Node2&#45;&gt;Node4</title>
<path fill="none" stroke="#63b8ff" d="M336.34,-19.13C345.7,-18.09 355.15,-17.03 364.2,-16.02"/>
<polygon fill="#63b8ff" stroke="#63b8ff" points="364.36,-19.52 373.91,-14.93 363.58,-12.57 364.36,-19.52"/>
</g>
</g>
</svg>
