<?xml version="1.0" encoding="UTF-8" standalone="no"?>
<!DOCTYPE svg PUBLIC "-//W3C//DTD SVG 1.1//EN"
 "http://www.w3.org/Graphics/SVG/1.1/DTD/svg11.dtd">
<!-- Generated by graphviz version 7.1.0 (20230121.1956)
 -->
<!-- Title: fetchEvent Pages: 1 -->
<svg width="371pt" height="172pt"
 viewBox="0.00 0.00 371.00 171.50" xmlns="http://www.w3.org/2000/svg" xmlns:xlink="http://www.w3.org/1999/xlink">
<g id="graph0" class="graph" transform="scale(1 1) rotate(0) translate(4 167.5)">
<title>fetchEvent</title>
<!-- Node1 -->
<g id="node1" class="node">
<title>Node1</title>
<g id="a_node1"><a xlink:title="Fetch one specific event and convert start and end to DateTime, also determine allDay.">
<polygon fill="#999999" stroke="#666666" points="64,-86 0,-86 0,-67 64,-67 64,-86"/>
<text text-anchor="middle" x="32" y="-74" font-family="Helvetica,sans-Serif" font-size="10.00">fetchEvent</text>
</a>
</g>
</g>
<!-- Node2 -->
<g id="node2" class="node">
<title>Node2</title>
<g id="a_node2"><a xlink:href="class_o_c_a_1_1_c_a_f_e_v_d_b_1_1_service_1_1_events_service.html#adb10e26ac6192b69880597d9384f9685" target="_top" xlink:title="Augment the database entity by calendar data.">
<polygon fill="white" stroke="#666666" points="166,-86 100,-86 100,-67 166,-67 166,-86"/>
<text text-anchor="middle" x="133" y="-74" font-family="Helvetica,sans-Serif" font-size="10.00">makeEvent</text>
</a>
</g>
</g>
<!-- Node1&#45;&gt;Node2 -->
<g id="edge1" class="edge">
<title>Node1&#45;&gt;Node2</title>
<path fill="none" stroke="#63b8ff" d="M64.32,-76.5C71.86,-76.5 80.05,-76.5 88.04,-76.5"/>
<polygon fill="#63b8ff" stroke="#63b8ff" points="88,-80 98,-76.5 88,-73 88,-80"/>
</g>
<!-- Node3 -->
<g id="node3" class="node">
<title>Node3</title>
<g id="a_node3"><a xlink:href="class_o_c_a_1_1_c_a_f_e_v_d_b_1_1_service_1_1_v_calendar_service.html#a20bce1060035becc1a931e3cd65aeecc" target="_top" xlink:title=" ">
<polygon fill="white" stroke="#666666" points="355.5,-163.5 209.5,-163.5 209.5,-133.5 355.5,-133.5 355.5,-163.5"/>
<text text-anchor="start" x="217.5" y="-151.5" font-family="Helvetica,sans-Serif" font-size="10.00">OCA\CAFEVDB\Service</text>
<text text-anchor="middle" x="282.5" y="-140.5" font-family="Helvetica,sans-Serif" font-size="10.00">\VCalendarService\getDTEnd</text>
</a>
</g>
</g>
<!-- Node2&#45;&gt;Node3 -->
<g id="edge2" class="edge">
<title>Node2&#45;&gt;Node3</title>
<path fill="none" stroke="#63b8ff" d="M145.31,-86.23C158.25,-96.92 180.44,-113.98 202,-124.5 205.24,-126.08 208.6,-127.58 212.04,-129"/>
<polygon fill="#63b8ff" stroke="#63b8ff" points="210.5,-132.16 221.09,-132.49 213.01,-125.63 210.5,-132.16"/>
</g>
<!-- Node4 -->
<g id="node4" class="node">
<title>Node4</title>
<g id="a_node4"><a xlink:href="class_o_c_a_1_1_c_a_f_e_v_d_b_1_1_service_1_1_v_calendar_service.html#aa25cdcd89ba57212663eaafec422453d" target="_top" xlink:title=" ">
<polygon fill="white" stroke="#666666" points="363,-115.5 202,-115.5 202,-85.5 363,-85.5 363,-115.5"/>
<text text-anchor="start" x="210" y="-103.5" font-family="Helvetica,sans-Serif" font-size="10.00">OCA\CAFEVDB\Service</text>
<text text-anchor="middle" x="282.5" y="-92.5" font-family="Helvetica,sans-Serif" font-size="10.00">\VCalendarService\getVCalendar</text>
</a>
</g>
</g>
<!-- Node2&#45;&gt;Node4 -->
<g id="edge3" class="edge">
<title>Node2&#45;&gt;Node4</title>
<path fill="none" stroke="#63b8ff" d="M166.37,-81.77C173.74,-82.97 181.93,-84.3 190.44,-85.68"/>
<polygon fill="#63b8ff" stroke="#63b8ff" points="189.85,-89.13 200.28,-87.28 190.97,-82.22 189.85,-89.13"/>
</g>
<!-- Node5 -->
<g id="node5" class="node">
<title>Node5</title>
<g id="a_node5"><a xlink:href="class_o_c_a_1_1_c_a_f_e_v_d_b_1_1_service_1_1_v_calendar_service.html#a2dad03f32dc06c2aa1711b0f2243c18d" target="_top" xlink:title="Return a reference to the object contained in a Sabre VCALENDAR object.">
<polygon fill="white" stroke="#666666" points="357.5,-67.5 207.5,-67.5 207.5,-37.5 357.5,-37.5 357.5,-67.5"/>
<text text-anchor="start" x="215.5" y="-55.5" font-family="Helvetica,sans-Serif" font-size="10.00">OCA\CAFEVDB\Service</text>
<text text-anchor="middle" x="282.5" y="-44.5" font-family="Helvetica,sans-Serif" font-size="10.00">\VCalendarService\getVObject</text>
</a>
</g>
</g>
<!-- Node2&#45;&gt;Node5 -->
<g id="edge4" class="edge">
<title>Node2&#45;&gt;Node5</title>
<path fill="none" stroke="#63b8ff" d="M166.37,-71.23C175.37,-69.77 185.59,-68.11 196.13,-66.39"/>
<polygon fill="#63b8ff" stroke="#63b8ff" points="196.39,-69.89 205.7,-64.83 195.27,-62.99 196.39,-69.89"/>
</g>
<!-- Node6 -->
<g id="node6" class="node">
<title>Node6</title>
<g id="a_node6"><a xlink:href="class_o_c_a_1_1_c_a_f_e_v_d_b_1_1_service_1_1_events_service.html#a8aa4a7a29d5680924f966b2fbc64a901" target="_top" xlink:title="Unconditionally unregister the given event with the given project.">
<polygon fill="white" stroke="#666666" points="312,-19 253,-19 253,0 312,0 312,-19"/>
<text text-anchor="middle" x="282.5" y="-7" font-family="Helvetica,sans-Serif" font-size="10.00">unregister</text>
</a>
</g>
</g>
<!-- Node2&#45;&gt;Node6 -->
<g id="edge5" class="edge">
<title>Node2&#45;&gt;Node6</title>
<path fill="none" stroke="#63b8ff" d="M145.2,-66.54C158.04,-55.63 180.14,-38.38 202,-28.5 214.4,-22.89 228.67,-18.82 241.66,-15.92"/>
<polygon fill="#63b8ff" stroke="#63b8ff" points="242.1,-19.4 251.19,-13.97 240.69,-12.55 242.1,-19.4"/>
</g>
</g>
</svg>
