<?xml version="1.0" encoding="UTF-8" standalone="no"?>
<!DOCTYPE svg PUBLIC "-//W3C//DTD SVG 1.1//EN"
 "http://www.w3.org/Graphics/SVG/1.1/DTD/svg11.dtd">
<!-- Generated by graphviz version 7.1.0 (20230121.1956)
 -->
<!-- Title: arraySliceKeys Pages: 1 -->
<svg width="763pt" height="226pt"
 viewBox="0.00 0.00 763.00 226.00" xmlns="http://www.w3.org/2000/svg" xmlns:xlink="http://www.w3.org/1999/xlink">
<g id="graph0" class="graph" transform="scale(1 1) rotate(0) translate(4 222)">
<title>arraySliceKeys</title>
<!-- Node1 -->
<g id="node1" class="node">
<title>Node1</title>
<g id="a_node1"><a xlink:title=" ">
<polygon fill="#999999" stroke="#666666" points="755,-118 672,-118 672,-99 755,-99 755,-118"/>
<text text-anchor="middle" x="713.5" y="-106" font-family="Helvetica,sans-Serif" font-size="10.00">arraySliceKeys</text>
</a>
</g>
</g>
<!-- Node2 -->
<g id="node2" class="node">
<title>Node2</title>
<g id="a_node2"><a xlink:href="class_o_c_a_1_1_c_a_f_e_v_d_b_1_1_page_renderer_1_1_p_m_e_table_view_base.html#a0160798c24d6bddc98d5192235a59982" target="_top" xlink:title=" ">
<polygon fill="white" stroke="#666666" points="636,-123.5 448,-123.5 448,-93.5 636,-93.5 636,-123.5"/>
<text text-anchor="start" x="456" y="-111.5" font-family="Helvetica,sans-Serif" font-size="10.00">OCA\CAFEVDB\PageRenderer</text>
<text text-anchor="middle" x="542" y="-100.5" font-family="Helvetica,sans-Serif" font-size="10.00">\PMETableViewBase\debugPrintValues</text>
</a>
</g>
</g>
<!-- Node1&#45;&gt;Node2 -->
<g id="edge1" class="edge">
<title>Node1&#45;&gt;Node2</title>
<path fill="none" stroke="#63b8ff" d="M660.53,-108.5C652.79,-108.5 644.63,-108.5 636.35,-108.5"/>
<polygon fill="#63b8ff" stroke="#63b8ff" points="660.39,-112 670.39,-108.5 660.39,-105 660.39,-112"/>
</g>
<!-- Node3 -->
<g id="node3" class="node">
<title>Node3</title>
<g id="a_node3"><a xlink:href="class_o_c_a_1_1_c_a_f_e_v_d_b_1_1_page_renderer_1_1_p_m_e_table_view_base.html#a936748b21bb69d2a3f9d51e14ce2cd87" target="_top" xlink:title="Before insert&#45;trigger which ideally should insert all data such that nothing remains to be done for p...">
<polygon fill="white" stroke="#666666" points="400,-218 236,-218 236,-177 400,-177 400,-218"/>
<text text-anchor="start" x="244" y="-206" font-family="Helvetica,sans-Serif" font-size="10.00">OCA\CAFEVDB\PageRenderer</text>
<text text-anchor="start" x="244" y="-195" font-family="Helvetica,sans-Serif" font-size="10.00">\PMETableViewBase\beforeInsert</text>
<text text-anchor="middle" x="318" y="-184" font-family="Helvetica,sans-Serif" font-size="10.00">DoInsertAll</text>
</a>
</g>
</g>
<!-- Node2&#45;&gt;Node3 -->
<g id="edge2" class="edge">
<title>Node2&#45;&gt;Node3</title>
<path fill="none" stroke="#63b8ff" d="M500.5,-129.03C475.38,-141.34 442.24,-156.81 412,-168.5 404.82,-171.27 397.26,-173.98 389.67,-176.55"/>
<polygon fill="#63b8ff" stroke="#63b8ff" points="501.97,-132.21 509.38,-124.64 498.87,-125.93 501.97,-132.21"/>
</g>
<!-- Node6 -->
<g id="node6" class="node">
<title>Node6</title>
<g id="a_node6"><a xlink:href="class_o_c_a_1_1_c_a_f_e_v_d_b_1_1_page_renderer_1_1_p_m_e_table_view_base.html#a882a0897b82d354409342d1c195c2f4d" target="_top" xlink:title="Before update&#45;trigger which ideally should update all data such that nothing remains to do for phpMyE...">
<polygon fill="white" stroke="#666666" points="403,-159 233,-159 233,-118 403,-118 403,-159"/>
<text text-anchor="start" x="241" y="-147" font-family="Helvetica,sans-Serif" font-size="10.00">OCA\CAFEVDB\PageRenderer</text>
<text text-anchor="start" x="241" y="-136" font-family="Helvetica,sans-Serif" font-size="10.00">\PMETableViewBase\beforeUpdate</text>
<text text-anchor="middle" x="318" y="-125" font-family="Helvetica,sans-Serif" font-size="10.00">DoUpdateAll</text>
</a>
</g>
</g>
<!-- Node2&#45;&gt;Node6 -->
<g id="edge5" class="edge">
<title>Node2&#45;&gt;Node6</title>
<path fill="none" stroke="#63b8ff" d="M436.72,-122.59C425.57,-124.1 414.34,-125.62 403.46,-127.09"/>
<polygon fill="#63b8ff" stroke="#63b8ff" points="436.88,-126.1 446.32,-121.3 435.94,-119.17 436.88,-126.1"/>
</g>
<!-- Node7 -->
<g id="node7" class="node">
<title>Node7</title>
<g id="a_node7"><a xlink:href="class_o_c_a_1_1_c_a_f_e_v_d_b_1_1_page_renderer_1_1_instrument_insurances.html#a845b4952ec7ba86475b456928bd641ae" target="_top" xlink:title="Cleanup &quot;trigger&quot; which relocates several virtual inputs to their proper destination columns.">
<polygon fill="white" stroke="#666666" points="406,-100 230,-100 230,-59 406,-59 406,-100"/>
<text text-anchor="start" x="238" y="-88" font-family="Helvetica,sans-Serif" font-size="10.00">OCA\CAFEVDB\PageRenderer</text>
<text text-anchor="start" x="238" y="-77" font-family="Helvetica,sans-Serif" font-size="10.00">\InstrumentInsurances\beforeUpdate</text>
<text text-anchor="middle" x="318" y="-66" font-family="Helvetica,sans-Serif" font-size="10.00">OrInsertTrigger</text>
</a>
</g>
</g>
<!-- Node2&#45;&gt;Node7 -->
<g id="edge7" class="edge">
<title>Node2&#45;&gt;Node7</title>
<path fill="none" stroke="#63b8ff" d="M436.46,-94.84C426.36,-93.52 416.18,-92.2 406.27,-90.9"/>
<polygon fill="#63b8ff" stroke="#63b8ff" points="435.95,-98.31 446.32,-96.13 436.85,-91.37 435.95,-98.31"/>
</g>
<!-- Node8 -->
<g id="node8" class="node">
<title>Node8</title>
<g id="a_node8"><a xlink:href="class_o_c_a_1_1_c_a_f_e_v_d_b_1_1_page_renderer_1_1_p_m_e_table_view_base.html#ac4930892b628989ea570c18ef64c0b4b" target="_top" xlink:title="The ranking of the mussician&#39;s instruments is implicitly stored in the order of the instrument ids.">
<polygon fill="white" stroke="#666666" points="412,-41 224,-41 224,0 412,0 412,-41"/>
<text text-anchor="start" x="232" y="-29" font-family="Helvetica,sans-Serif" font-size="10.00">OCA\CAFEVDB\PageRenderer</text>
<text text-anchor="start" x="232" y="-18" font-family="Helvetica,sans-Serif" font-size="10.00">\PMETableViewBase\extractInstrument</text>
<text text-anchor="middle" x="318" y="-7" font-family="Helvetica,sans-Serif" font-size="10.00">Ranking</text>
</a>
</g>
</g>
<!-- Node2&#45;&gt;Node8 -->
<g id="edge8" class="edge">
<title>Node2&#45;&gt;Node8</title>
<path fill="none" stroke="#63b8ff" d="M499.12,-88.25C474.12,-76.53 441.58,-61.88 412,-50.5 403.92,-47.39 395.38,-44.33 386.86,-41.43"/>
<polygon fill="#63b8ff" stroke="#63b8ff" points="497.44,-91.33 507.97,-92.44 500.43,-85 497.44,-91.33"/>
</g>
<!-- Node4 -->
<g id="node4" class="node">
<title>Node4</title>
<g id="a_node4"><a xlink:href="class_o_c_a_1_1_c_a_f_e_v_d_b_1_1_page_renderer_1_1_project_instrumentation_numbers.html#ab91557ae1e08e1183c76c9ce39edfe33" target="_top" xlink:title="{Show the underlying template page.This is supposed to echo html code to stdout. This is the default ...">
<polygon fill="white" stroke="#666666" points="188,-212.5 0,-212.5 0,-182.5 188,-182.5 188,-212.5"/>
<text text-anchor="start" x="8" y="-200.5" font-family="Helvetica,sans-Serif" font-size="10.00">OCA\CAFEVDB\PageRenderer</text>
<text text-anchor="middle" x="94" y="-189.5" font-family="Helvetica,sans-Serif" font-size="10.00">\ProjectInstrumentationNumbers\render</text>
</a>
</g>
</g>
<!-- Node3&#45;&gt;Node4 -->
<g id="edge3" class="edge">
<title>Node3&#45;&gt;Node4</title>
<path fill="none" stroke="#63b8ff" d="M224.32,-197.5C212.45,-197.5 200.3,-197.5 188.41,-197.5"/>
<polygon fill="#63b8ff" stroke="#63b8ff" points="224.08,-201 234.08,-197.5 224.08,-194 224.08,-201"/>
</g>
<!-- Node5 -->
<g id="node5" class="node">
<title>Node5</title>
<g id="a_node5"><a xlink:href="class_o_c_a_1_1_c_a_f_e_v_d_b_1_1_page_renderer_1_1_project_participant_fields.html#ab91557ae1e08e1183c76c9ce39edfe33" target="_top" xlink:title="{Show the underlying template page.This is supposed to echo html code to stdout. This is the default ...">
<polygon fill="white" stroke="#666666" points="171.5,-159.5 16.5,-159.5 16.5,-129.5 171.5,-129.5 171.5,-159.5"/>
<text text-anchor="start" x="24.5" y="-147.5" font-family="Helvetica,sans-Serif" font-size="10.00">OCA\CAFEVDB\PageRenderer</text>
<text text-anchor="middle" x="94" y="-136.5" font-family="Helvetica,sans-Serif" font-size="10.00">\ProjectParticipantFields\render</text>
</a>
</g>
</g>
<!-- Node3&#45;&gt;Node5 -->
<g id="edge4" class="edge">
<title>Node3&#45;&gt;Node5</title>
<path fill="none" stroke="#63b8ff" d="M224.64,-175.45C202.82,-170.24 180.01,-164.8 159.72,-159.95"/>
<polygon fill="#63b8ff" stroke="#63b8ff" points="223.58,-178.8 234.12,-177.71 225.21,-171.99 223.58,-178.8"/>
</g>
<!-- Node6&#45;&gt;Node5 -->
<g id="edge6" class="edge">
<title>Node6&#45;&gt;Node5</title>
<path fill="none" stroke="#63b8ff" d="M221.4,-141.08C204.86,-141.53 187.85,-141.99 171.89,-142.42"/>
<polygon fill="#63b8ff" stroke="#63b8ff" points="221.34,-144.59 231.24,-140.82 221.15,-137.59 221.34,-144.59"/>
</g>
</g>
</svg>
