<?xml version="1.0" encoding="UTF-8" standalone="no"?>
<!DOCTYPE svg PUBLIC "-//W3C//DTD SVG 1.1//EN"
 "http://www.w3.org/Graphics/SVG/1.1/DTD/svg11.dtd">
<!-- Generated by graphviz version 7.1.0 (20230121.1956)
 -->
<!-- Title: makeToolTips Pages: 1 -->
<svg width="351pt" height="103pt"
 viewBox="0.00 0.00 351.00 103.00" xmlns="http://www.w3.org/2000/svg" xmlns:xlink="http://www.w3.org/1999/xlink">
<g id="graph0" class="graph" transform="scale(1 1) rotate(0) translate(4 99)">
<title>makeToolTips</title>
<!-- Node1 -->
<g id="node1" class="node">
<title>Node1</title>
<g id="a_node1"><a xlink:title="Generate the tooltips&#45;data.">
<polygon fill="#999999" stroke="#666666" points="343,-57 266,-57 266,-38 343,-38 343,-57"/>
<text text-anchor="middle" x="304.5" y="-45" font-family="Helvetica,sans-Serif" font-size="10.00">makeToolTips</text>
</a>
</g>
</g>
<!-- Node2 -->
<g id="node2" class="node">
<title>Node2</title>
<g id="a_node2"><a xlink:href="class_o_c_a_1_1_c_a_f_e_v_d_b_1_1_service_1_1_tool_tips_service.html#ac751e87b3d4c4bf2feb03bee8b092755" target="_top" xlink:title="{}">
<polygon fill="white" stroke="#666666" points="225,-95 184,-95 184,-76 225,-76 225,-95"/>
<text text-anchor="middle" x="204.5" y="-83" font-family="Helvetica,sans-Serif" font-size="10.00">count</text>
</a>
</g>
</g>
<!-- Node1&#45;&gt;Node2 -->
<g id="edge1" class="edge">
<title>Node1&#45;&gt;Node2</title>
<path fill="none" stroke="#63b8ff" d="M267.25,-61.55C253.02,-67.07 237.24,-73.19 225.2,-77.86"/>
<polygon fill="#63b8ff" stroke="#63b8ff" points="268.28,-64.91 276.34,-58.03 265.75,-58.38 268.28,-64.91"/>
</g>
<!-- Node3 -->
<g id="node3" class="node">
<title>Node3</title>
<g id="a_node3"><a xlink:href="class_o_c_a_1_1_c_a_f_e_v_d_b_1_1_service_1_1_tool_tips_service.html#afa7ed4ea9907527ec2359bd5e03e6bfc" target="_top" xlink:title="Return a translated tool&#45;tip for the given key.">
<polygon fill="white" stroke="#666666" points="143,-76 105,-76 105,-57 143,-57 143,-76"/>
<text text-anchor="middle" x="124" y="-64" font-family="Helvetica,sans-Serif" font-size="10.00">fetch</text>
</a>
</g>
</g>
<!-- Node1&#45;&gt;Node3 -->
<g id="edge5" class="edge">
<title>Node1&#45;&gt;Node3</title>
<path fill="none" stroke="#63b8ff" d="M254.6,-52.7C217.69,-56.63 169.12,-61.8 143.18,-64.56"/>
<polygon fill="#63b8ff" stroke="#63b8ff" points="254.57,-56.23 264.14,-51.69 253.83,-49.27 254.57,-56.23"/>
</g>
<!-- Node6 -->
<g id="node6" class="node">
<title>Node6</title>
<g id="a_node6"><a xlink:href="class_o_c_a_1_1_c_a_f_e_v_d_b_1_1_service_1_1_tool_tips_service.html#a4f3cad275077d14c17327a4fdfa380bb" target="_top" xlink:title="Return all tooltips contained in this class.">
<polygon fill="white" stroke="#666666" points="230,-19 179,-19 179,0 230,0 230,-19"/>
<text text-anchor="middle" x="204.5" y="-7" font-family="Helvetica,sans-Serif" font-size="10.00">toolTips</text>
</a>
</g>
</g>
<!-- Node1&#45;&gt;Node6 -->
<g id="edge6" class="edge">
<title>Node1&#45;&gt;Node6</title>
<path fill="none" stroke="#63b8ff" d="M267.34,-33.48C255.05,-28.71 241.61,-23.5 230.4,-19.16"/>
<polygon fill="#63b8ff" stroke="#63b8ff" points="265.75,-36.62 276.34,-36.97 268.28,-30.09 265.75,-36.62"/>
</g>
<!-- Node2&#45;&gt;Node3 -->
<g id="edge2" class="edge">
<title>Node2&#45;&gt;Node3</title>
<path fill="none" stroke="#63b8ff" d="M172.61,-78.02C162.75,-75.64 152.14,-73.07 143.45,-70.97"/>
<polygon fill="#63b8ff" stroke="#63b8ff" points="171.68,-81.4 182.22,-80.35 173.32,-74.6 171.68,-81.4"/>
</g>
<!-- Node4 -->
<g id="node4" class="node">
<title>Node4</title>
<g id="a_node4"><a xlink:href="class_o_c_a_1_1_c_a_f_e_v_d_b_1_1_service_1_1_tool_tips_service.html#a2fa83c64b65bfcd6ae01aa378370f012" target="_top" xlink:title="{}">
<polygon fill="white" stroke="#666666" points="69,-95 0,-95 0,-76 69,-76 69,-95"/>
<text text-anchor="middle" x="34.5" y="-83" font-family="Helvetica,sans-Serif" font-size="10.00">offsetExists</text>
</a>
</g>
</g>
<!-- Node3&#45;&gt;Node4 -->
<g id="edge3" class="edge">
<title>Node3&#45;&gt;Node4</title>
<path fill="none" stroke="#63b8ff" d="M93.64,-72.88C85.78,-74.58 77.23,-76.44 69.17,-78.19"/>
<polygon fill="#63b8ff" stroke="#63b8ff" points="94.36,-76.3 103.39,-70.76 92.88,-69.46 94.36,-76.3"/>
</g>
<!-- Node5 -->
<g id="node5" class="node">
<title>Node5</title>
<g id="a_node5"><a xlink:href="class_o_c_a_1_1_c_a_f_e_v_d_b_1_1_service_1_1_tool_tips_service.html#a3d6a26d211a99287459a423d3965f11f" target="_top" xlink:title="{}">
<polygon fill="white" stroke="#666666" points="63,-58 6,-58 6,-39 63,-39 63,-58"/>
<text text-anchor="middle" x="34.5" y="-46" font-family="Helvetica,sans-Serif" font-size="10.00">offsetGet</text>
</a>
</g>
</g>
<!-- Node3&#45;&gt;Node5 -->
<g id="edge4" class="edge">
<title>Node3&#45;&gt;Node5</title>
<path fill="none" stroke="#63b8ff" d="M93.61,-60.45C83.81,-58.44 72.93,-56.2 63.26,-54.21"/>
<polygon fill="#63b8ff" stroke="#63b8ff" points="92.89,-63.88 103.39,-62.47 94.3,-57.02 92.89,-63.88"/>
</g>
</g>
</svg>
