<?xml version="1.0" encoding="UTF-8" standalone="no"?>
<!DOCTYPE svg PUBLIC "-//W3C//DTD SVG 1.1//EN"
 "http://www.w3.org/Graphics/SVG/1.1/DTD/svg11.dtd">
<!-- Generated by graphviz version 7.1.0 (20230121.1956)
 -->
<!-- Title: EnumType Pages: 1 -->
<svg width="379pt" height="471pt"
 viewBox="0.00 0.00 379.00 471.00" xmlns="http://www.w3.org/2000/svg" xmlns:xlink="http://www.w3.org/1999/xlink">
<g id="graph0" class="graph" transform="scale(1 1) rotate(0) translate(4 467)">
<title>EnumType</title>
<!-- Node1 -->
<g id="node1" class="node">
<title>Node1</title>
<g id="a_node1"><a xlink:title="Base enum&#45;type class.">
<polygon fill="#999999" stroke="#666666" points="179,-241 116,-241 116,-222 179,-222 179,-241"/>
<text text-anchor="middle" x="147.5" y="-229" font-family="Helvetica,sans-Serif" font-size="10.00">EnumType</text>
</a>
</g>
</g>
<!-- Node3 -->
<g id="node3" class="node">
<title>Node3</title>
<g id="a_node3"><a xlink:href="class_o_c_a_1_1_c_a_f_e_v_d_b_1_1_database_1_1_doctrine_1_1_d_b_a_l_1_1_types_1_1_enum_access_permission.html" target="_top" xlink:title=" ">
<polygon fill="white" stroke="#bfbfbf" points="355,-463 231,-463 231,-444 355,-444 355,-463"/>
<text text-anchor="middle" x="293" y="-451" font-family="Helvetica,sans-Serif" font-size="10.00">EnumAccessPermission</text>
</a>
</g>
</g>
<!-- Node1&#45;&gt;Node3 -->
<g id="edge2" class="edge">
<title>Node1&#45;&gt;Node3</title>
<path fill="none" stroke="#63b8ff" d="M148.93,-252.73C150.98,-294.27 161.65,-386.52 215,-435.5 219.55,-439.68 224.88,-442.94 230.58,-445.49"/>
<polygon fill="#63b8ff" stroke="#63b8ff" points="152.43,-252.74 148.58,-242.87 145.44,-252.98 152.43,-252.74"/>
</g>
<!-- Node4 -->
<g id="node4" class="node">
<title>Node4</title>
<g id="a_node4"><a xlink:href="class_o_c_a_1_1_c_a_f_e_v_d_b_1_1_database_1_1_doctrine_1_1_d_b_a_l_1_1_types_1_1_enum_attachment_origin.html" target="_top" xlink:title=" ">
<polygon fill="white" stroke="#bfbfbf" points="352,-426 234,-426 234,-407 352,-407 352,-426"/>
<text text-anchor="middle" x="293" y="-414" font-family="Helvetica,sans-Serif" font-size="10.00">EnumAttachmentOrigin</text>
</a>
</g>
</g>
<!-- Node1&#45;&gt;Node4 -->
<g id="edge3" class="edge">
<title>Node1&#45;&gt;Node4</title>
<path fill="none" stroke="#63b8ff" d="M150.68,-252.53C155.53,-288.16 170.55,-360.24 215,-398.5 220.41,-403.16 226.8,-406.67 233.55,-409.3"/>
<polygon fill="#63b8ff" stroke="#63b8ff" points="154.16,-252.2 149.5,-242.69 147.21,-253.03 154.16,-252.2"/>
</g>
<!-- Node5 -->
<g id="node5" class="node">
<title>Node5</title>
<g id="a_node5"><a xlink:href="class_o_c_a_1_1_c_a_f_e_v_d_b_1_1_database_1_1_doctrine_1_1_d_b_a_l_1_1_types_1_1_enum_data_transformation.html" target="_top" xlink:title=" ">
<polygon fill="white" stroke="#bfbfbf" points="357,-389 229,-389 229,-370 357,-370 357,-389"/>
<text text-anchor="middle" x="293" y="-377" font-family="Helvetica,sans-Serif" font-size="10.00">EnumDataTransformation</text>
</a>
</g>
</g>
<!-- Node1&#45;&gt;Node5 -->
<g id="edge4" class="edge">
<title>Node1&#45;&gt;Node5</title>
<path fill="none" stroke="#63b8ff" d="M153.29,-252.36C161.09,-281.42 179.36,-333.62 215,-361.5 219.11,-364.71 223.69,-367.37 228.53,-369.56"/>
<polygon fill="#63b8ff" stroke="#63b8ff" points="156.76,-251.79 150.94,-242.94 149.97,-253.49 156.76,-251.79"/>
</g>
<!-- Node6 -->
<g id="node6" class="node">
<title>Node6</title>
<g id="a_node6"><a xlink:href="class_o_c_a_1_1_c_a_f_e_v_d_b_1_1_database_1_1_doctrine_1_1_d_b_a_l_1_1_types_1_1_enum_dir_entry_type.html" target="_top" xlink:title=" ">
<polygon fill="white" stroke="#bfbfbf" points="342.5,-352 243.5,-352 243.5,-333 342.5,-333 342.5,-352"/>
<text text-anchor="middle" x="293" y="-340" font-family="Helvetica,sans-Serif" font-size="10.00">EnumDirEntryType</text>
</a>
</g>
</g>
<!-- Node1&#45;&gt;Node6 -->
<g id="edge5" class="edge">
<title>Node1&#45;&gt;Node6</title>
<path fill="none" stroke="#63b8ff" d="M157.52,-251.71C168.16,-273.14 187.87,-306.34 215,-324.5 223.44,-330.15 233.44,-334.04 243.38,-336.71"/>
<polygon fill="#63b8ff" stroke="#63b8ff" points="160.76,-250.37 153.33,-242.82 154.43,-253.36 160.76,-250.37"/>
</g>
<!-- Node7 -->
<g id="node7" class="node">
<title>Node7</title>
<g id="a_node7"><a xlink:href="class_o_c_a_1_1_c_a_f_e_v_d_b_1_1_database_1_1_doctrine_1_1_d_b_a_l_1_1_types_1_1_enum_file_type.html" target="_top" xlink:title=" ">
<polygon fill="white" stroke="#bfbfbf" points="332.5,-315 253.5,-315 253.5,-296 332.5,-296 332.5,-315"/>
<text text-anchor="middle" x="293" y="-303" font-family="Helvetica,sans-Serif" font-size="10.00">EnumFileType</text>
</a>
</g>
</g>
<!-- Node1&#45;&gt;Node7 -->
<g id="edge6" class="edge">
<title>Node1&#45;&gt;Node7</title>
<path fill="none" stroke="#63b8ff" d="M165.08,-249.37C177.64,-261.86 195.93,-277.94 215,-287.5 226.78,-293.41 240.55,-297.42 253.17,-300.12"/>
<polygon fill="#63b8ff" stroke="#63b8ff" points="167.9,-247.25 158.43,-242.52 162.88,-252.13 167.9,-247.25"/>
</g>
<!-- Node8 -->
<g id="node8" class="node">
<title>Node8</title>
<g id="a_node8"><a xlink:href="class_o_c_a_1_1_c_a_f_e_v_d_b_1_1_database_1_1_doctrine_1_1_d_b_a_l_1_1_types_1_1_enum_geographical_scope.html" target="_top" xlink:title=" ">
<polygon fill="white" stroke="#bfbfbf" points="356.5,-278 229.5,-278 229.5,-259 356.5,-259 356.5,-278"/>
<text text-anchor="middle" x="293" y="-266" font-family="Helvetica,sans-Serif" font-size="10.00">EnumGeographicalScope</text>
</a>
</g>
</g>
<!-- Node1&#45;&gt;Node8 -->
<g id="edge7" class="edge">
<title>Node1&#45;&gt;Node8</title>
<path fill="none" stroke="#63b8ff" d="M190.12,-243.73C198.35,-246.05 206.93,-248.41 215,-250.5 225.63,-253.26 237.14,-256.05 247.93,-258.59"/>
<polygon fill="#63b8ff" stroke="#63b8ff" points="191.24,-240.41 180.66,-241.03 189.31,-247.14 191.24,-240.41"/>
</g>
<!-- Node9 -->
<g id="node9" class="node">
<title>Node9</title>
<g id="a_node9"><a xlink:href="class_o_c_a_1_1_c_a_f_e_v_d_b_1_1_database_1_1_doctrine_1_1_d_b_a_l_1_1_types_1_1_enum_member_status.html" target="_top" xlink:title=" ">
<polygon fill="white" stroke="#bfbfbf" points="346,-241 240,-241 240,-222 346,-222 346,-241"/>
<text text-anchor="middle" x="293" y="-229" font-family="Helvetica,sans-Serif" font-size="10.00">EnumMemberStatus</text>
</a>
</g>
</g>
<!-- Node1&#45;&gt;Node9 -->
<g id="edge8" class="edge">
<title>Node1&#45;&gt;Node9</title>
<path fill="none" stroke="#63b8ff" d="M190.52,-231.5C205.86,-231.5 223.39,-231.5 239.52,-231.5"/>
<polygon fill="#63b8ff" stroke="#63b8ff" points="190.8,-228 180.8,-231.5 190.8,-235 190.8,-228"/>
</g>
<!-- Node10 -->
<g id="node10" class="node">
<title>Node10</title>
<g id="a_node10"><a xlink:href="class_o_c_a_1_1_c_a_f_e_v_d_b_1_1_database_1_1_doctrine_1_1_d_b_a_l_1_1_types_1_1_enum_participant_field_data_type.html" target="_top" xlink:title=" ">
<polygon fill="white" stroke="#bfbfbf" points="369,-204 217,-204 217,-185 369,-185 369,-204"/>
<text text-anchor="middle" x="293" y="-192" font-family="Helvetica,sans-Serif" font-size="10.00">EnumParticipantFieldDataType</text>
</a>
</g>
</g>
<!-- Node1&#45;&gt;Node10 -->
<g id="edge9" class="edge">
<title>Node1&#45;&gt;Node10</title>
<path fill="none" stroke="#63b8ff" d="M190.12,-219.27C198.35,-216.95 206.93,-214.59 215,-212.5 225.63,-209.74 237.14,-206.95 247.93,-204.41"/>
<polygon fill="#63b8ff" stroke="#63b8ff" points="189.31,-215.86 180.66,-221.97 191.24,-222.59 189.31,-215.86"/>
</g>
<!-- Node11 -->
<g id="node11" class="node">
<title>Node11</title>
<g id="a_node11"><a xlink:href="class_o_c_a_1_1_c_a_f_e_v_d_b_1_1_database_1_1_doctrine_1_1_d_b_a_l_1_1_types_1_1_enum_participant_field_multiplicity.html" target="_top" xlink:title=" ">
<polygon fill="white" stroke="#bfbfbf" points="371,-167 215,-167 215,-148 371,-148 371,-167"/>
<text text-anchor="middle" x="293" y="-155" font-family="Helvetica,sans-Serif" font-size="10.00">EnumParticipantFieldMultiplicity</text>
</a>
</g>
</g>
<!-- Node1&#45;&gt;Node11 -->
<g id="edge10" class="edge">
<title>Node1&#45;&gt;Node11</title>
<path fill="none" stroke="#63b8ff" d="M165.08,-213.63C177.64,-201.14 195.93,-185.06 215,-175.5 221.38,-172.3 228.35,-169.66 235.4,-167.48"/>
<polygon fill="#63b8ff" stroke="#63b8ff" points="162.88,-210.87 158.43,-220.48 167.9,-215.75 162.88,-210.87"/>
</g>
<!-- Node12 -->
<g id="node12" class="node">
<title>Node12</title>
<g id="a_node12"><a xlink:href="class_o_c_a_1_1_c_a_f_e_v_d_b_1_1_database_1_1_doctrine_1_1_d_b_a_l_1_1_types_1_1_enum_project_temporal_type.html" target="_top" xlink:title=" ">
<polygon fill="white" stroke="#bfbfbf" points="360,-130 226,-130 226,-111 360,-111 360,-130"/>
<text text-anchor="middle" x="293" y="-118" font-family="Helvetica,sans-Serif" font-size="10.00">EnumProjectTemporalType</text>
</a>
</g>
</g>
<!-- Node1&#45;&gt;Node12 -->
<g id="edge11" class="edge">
<title>Node1&#45;&gt;Node12</title>
<path fill="none" stroke="#63b8ff" d="M157.52,-211.29C168.16,-189.86 187.87,-156.66 215,-138.5 219.79,-135.29 225.08,-132.65 230.58,-130.48"/>
<polygon fill="#63b8ff" stroke="#63b8ff" points="154.43,-209.64 153.33,-220.18 160.76,-212.63 154.43,-209.64"/>
</g>
<!-- Node13 -->
<g id="node13" class="node">
<title>Node13</title>
<g id="a_node13"><a xlink:href="class_o_c_a_1_1_c_a_f_e_v_d_b_1_1_database_1_1_doctrine_1_1_d_b_a_l_1_1_types_1_1_enum_sepa_transaction.html" target="_top" xlink:title=" ">
<polygon fill="white" stroke="#bfbfbf" points="351,-93 235,-93 235,-74 351,-74 351,-93"/>
<text text-anchor="middle" x="293" y="-81" font-family="Helvetica,sans-Serif" font-size="10.00">EnumSepaTransaction</text>
</a>
</g>
</g>
<!-- Node1&#45;&gt;Node13 -->
<g id="edge12" class="edge">
<title>Node1&#45;&gt;Node13</title>
<path fill="none" stroke="#63b8ff" d="M153.29,-210.64C161.09,-181.58 179.36,-129.38 215,-101.5 220.84,-96.93 227.64,-93.49 234.74,-90.9"/>
<polygon fill="#63b8ff" stroke="#63b8ff" points="149.97,-209.51 150.94,-220.06 156.76,-211.21 149.97,-209.51"/>
</g>
<!-- Node14 -->
<g id="node14" class="node">
<title>Node14</title>
<g id="a_node14"><a xlink:href="class_o_c_a_1_1_c_a_f_e_v_d_b_1_1_database_1_1_doctrine_1_1_d_b_a_l_1_1_types_1_1_enum_v_calendar_type.html" target="_top" xlink:title=" ">
<polygon fill="white" stroke="#bfbfbf" points="347.5,-56 238.5,-56 238.5,-37 347.5,-37 347.5,-56"/>
<text text-anchor="middle" x="293" y="-44" font-family="Helvetica,sans-Serif" font-size="10.00">EnumVCalendarType</text>
</a>
</g>
</g>
<!-- Node1&#45;&gt;Node14 -->
<g id="edge13" class="edge">
<title>Node1&#45;&gt;Node14</title>
<path fill="none" stroke="#63b8ff" d="M150.68,-210.47C155.53,-174.84 170.55,-102.76 215,-64.5 221.66,-58.77 229.8,-54.78 238.27,-52.01"/>
<polygon fill="#63b8ff" stroke="#63b8ff" points="147.21,-209.97 149.5,-220.31 154.16,-210.8 147.21,-209.97"/>
</g>
<!-- Node15 -->
<g id="node15" class="node">
<title>Node15</title>
<g id="a_node15"><a xlink:href="class_o_c_a_1_1_c_a_f_e_v_d_b_1_1_page_renderer_1_1_export_1_1_export_format.html" target="_top" xlink:title="Quasi enum with the supported export formats.">
<polygon fill="white" stroke="#666666" points="331,-19 255,-19 255,0 331,0 331,-19"/>
<text text-anchor="middle" x="293" y="-7" font-family="Helvetica,sans-Serif" font-size="10.00">ExportFormat</text>
</a>
</g>
</g>
<!-- Node1&#45;&gt;Node15 -->
<g id="edge14" class="edge">
<title>Node1&#45;&gt;Node15</title>
<path fill="none" stroke="#63b8ff" d="M148.93,-210.27C150.98,-168.73 161.65,-76.48 215,-27.5 225.72,-17.66 240.76,-12.88 254.71,-10.66"/>
<polygon fill="#63b8ff" stroke="#63b8ff" points="145.44,-210.02 148.58,-220.13 152.43,-210.26 145.44,-210.02"/>
</g>
<!-- Node2 -->
<g id="node2" class="node">
<title>Node2</title>
<g id="a_node2"><a xlink:title=" ">
<polygon fill="white" stroke="#bfbfbf" points="80,-241 0,-241 0,-222 80,-222 80,-241"/>
<text text-anchor="middle" x="40" y="-229" font-family="Helvetica,sans-Serif" font-size="10.00">PhpEnumType</text>
</a>
</g>
</g>
<!-- Node2&#45;&gt;Node1 -->
<g id="edge1" class="edge">
<title>Node2&#45;&gt;Node1</title>
<path fill="none" stroke="#63b8ff" d="M91.75,-231.5C99.95,-231.5 108.22,-231.5 115.75,-231.5"/>
<polygon fill="#63b8ff" stroke="#63b8ff" points="91.8,-228 81.8,-231.5 91.8,-235 91.8,-228"/>
</g>
</g>
</svg>
