<?xml version="1.0" encoding="UTF-8" standalone="no"?>
<!DOCTYPE svg PUBLIC "-//W3C//DTD SVG 1.1//EN"
 "http://www.w3.org/Graphics/SVG/1.1/DTD/svg11.dtd">
<!-- Generated by graphviz version 7.1.0 (20230121.1956)
 -->
<!-- Title: EntityRepository Pages: 1 -->
<!--zoomable 998 -->
<svg id="main" version="1.1" xmlns="http://www.w3.org/2000/svg" xmlns:xlink="http://www.w3.org/1999/xlink" xml:space="preserve" onload="init(evt)">
<style type="text/css"><![CDATA[
.edge:hover path { stroke: red; }
.edge:hover polygon { stroke: red; fill: red; }
]]></style>
<script type="text/javascript"><![CDATA[
var edges = document.getElementsByTagName('g');
if (edges && edges.length) {
  for (var i=0;i<edges.length;i++) {
    if (edges[i].id.substr(0,4)=='edge') {
      edges[i].setAttribute('class','edge');
    }
  }
}
]]></script>
        <defs>
                <circle id="rim" cx="0" cy="0" r="7"/>
                <circle id="rim2" cx="0" cy="0" r="3.5"/>
                <g id="zoomPlus">
                        <use xlink:href="#rim" fill="#404040">
                                <set attributeName="fill" to="#808080" begin="zoomplus.mouseover" end="zoomplus.mouseout"/>
                        </use>
                        <path d="M-4,0h8M0,-4v8" fill="none" stroke="white" stroke-width="1.5" pointer-events="none"/>
                </g>
                <g id="zoomMin">
                        <use xlink:href="#rim" fill="#404040">
                                <set attributeName="fill" to="#808080" begin="zoomminus.mouseover" end="zoomminus.mouseout"/>
                        </use>
                        <path d="M-4,0h8" fill="none" stroke="white" stroke-width="1.5" pointer-events="none"/>
                </g>
                <g id="dirArrow">
                        <path fill="none" stroke="white" stroke-width="1.5" d="M0,-3.0v7 M-2.5,-0.5L0,-3.0L2.5,-0.5"/>
                </g>
               <g id="resetDef">
                       <use xlink:href="#rim2" fill="#404040">
                               <set attributeName="fill" to="#808080" begin="reset.mouseover" end="reset.mouseout"/>
                       </use>
               </g>
        </defs>

<script type="text/javascript">
var viewWidth = 628;
var viewHeight = 998;
var sectionId = 'dynsection-0';
</script>
<script xlink:href="svgpan.js"/>
<svg id="graph" class="graph">
<g id="viewport">
<title>EntityRepository</title>
<!-- Node1 -->
<g id="node1" class="node">
<title>Node1</title>
<g id="a_node1"><a xlink:title="Base class for all of our repositories.">
<polygon fill="#999999" stroke="#666666" points="214,-504 125,-504 125,-485 214,-485 214,-504"/>
<text text-anchor="middle" x="169.5" y="-492" font-family="Helvetica,sans-Serif" font-size="10.00">EntityRepository</text>
</a>
</g>
</g>
<!-- Node3 -->
<g id="node3" class="node">
<title>Node3</title>
<g id="a_node3"><a xlink:href="class_o_c_a_1_1_c_a_f_e_v_d_b_1_1_database_1_1_doctrine_1_1_o_r_m_1_1_repositories_1_1_composite_payments_repository.html" target="_top" xlink:title="Database repository for CompositePayments entities.">
<polygon fill="white" stroke="#666666" points="408.5,-990 253.5,-990 253.5,-971 408.5,-971 408.5,-990"/>
<text text-anchor="middle" x="331" y="-978" font-family="Helvetica,sans-Serif" font-size="10.00">CompositePaymentsRepository</text>
</a>
</g>
</g>
<!-- Node1&#45;&gt;Node3 -->
<g id="edge2" class="edge">
<title>Node1&#45;&gt;Node3</title>
<path fill="none" stroke="#63b8ff" d="M171.1,-515.7C173.89,-598.07 188.13,-895.5 250,-961.5 253.42,-965.15 257.4,-968.15 261.72,-970.62"/>
<polygon fill="#63b8ff" stroke="#63b8ff" points="174.6,-515.61 170.79,-505.72 167.61,-515.83 174.6,-515.61"/>
</g>
<!-- Node4 -->
<g id="node4" class="node">
<title>Node4</title>
<g id="a_node4"><a xlink:href="class_o_c_a_1_1_c_a_f_e_v_d_b_1_1_database_1_1_doctrine_1_1_o_r_m_1_1_repositories_1_1_database_storage_dir_entries_repository.html" target="_top" xlink:title="Database repository for DatabaseStorageDirEntry entities.">
<polygon fill="white" stroke="#666666" points="399,-952.5 263,-952.5 263,-922.5 399,-922.5 399,-952.5"/>
<text text-anchor="start" x="271" y="-940.5" font-family="Helvetica,sans-Serif" font-size="10.00">DatabaseStorageDirEntries</text>
<text text-anchor="middle" x="331" y="-929.5" font-family="Helvetica,sans-Serif" font-size="10.00">Repository</text>
</a>
</g>
</g>
<!-- Node1&#45;&gt;Node4 -->
<g id="edge3" class="edge">
<title>Node1&#45;&gt;Node4</title>
<path fill="none" stroke="#63b8ff" d="M171.7,-515.53C176.47,-591.79 196.45,-852.42 250,-912.5 253.68,-916.63 258.03,-920.08 262.77,-922.97"/>
<polygon fill="#63b8ff" stroke="#63b8ff" points="175.21,-515.51 171.11,-505.73 168.22,-515.93 175.21,-515.51"/>
</g>
<!-- Node7 -->
<g id="node7" class="node">
<title>Node7</title>
<g id="a_node7"><a xlink:href="class_o_c_a_1_1_c_a_f_e_v_d_b_1_1_database_1_1_doctrine_1_1_o_r_m_1_1_repositories_1_1_database_storages_repository.html" target="_top" xlink:title="Database repository for DatabaseStorages entities.">
<polygon fill="white" stroke="#666666" points="403.5,-904 258.5,-904 258.5,-885 403.5,-885 403.5,-904"/>
<text text-anchor="middle" x="331" y="-892" font-family="Helvetica,sans-Serif" font-size="10.00">DatabaseStoragesRepository</text>
</a>
</g>
</g>
<!-- Node1&#45;&gt;Node7 -->
<g id="edge6" class="edge">
<title>Node1&#45;&gt;Node7</title>
<path fill="none" stroke="#63b8ff" d="M171.99,-515.64C177.49,-587.85 199.1,-823.19 250,-875.5 253.58,-879.18 257.74,-882.21 262.24,-884.68"/>
<polygon fill="#63b8ff" stroke="#63b8ff" points="175.5,-515.7 171.28,-505.98 168.52,-516.21 175.5,-515.7"/>
</g>
<!-- Node8 -->
<g id="node8" class="node">
<title>Node8</title>
<g id="a_node8"><a xlink:href="class_o_c_a_1_1_c_a_f_e_v_d_b_1_1_database_1_1_doctrine_1_1_o_r_m_1_1_repositories_1_1_email_drafts_repository.html" target="_top" xlink:title=" ">
<polygon fill="white" stroke="#666666" points="389,-867 273,-867 273,-848 389,-848 389,-867"/>
<text text-anchor="middle" x="331" y="-855" font-family="Helvetica,sans-Serif" font-size="10.00">EmailDraftsRepository</text>
</a>
</g>
</g>
<!-- Node1&#45;&gt;Node8 -->
<g id="edge7" class="edge">
<title>Node1&#45;&gt;Node8</title>
<path fill="none" stroke="#63b8ff" d="M172.47,-515.3C179.23,-582.47 203.72,-791.94 250,-838.5 256.24,-844.78 264.15,-849.13 272.55,-852.12"/>
<polygon fill="#63b8ff" stroke="#63b8ff" points="175.98,-515.29 171.52,-505.67 169.01,-515.97 175.98,-515.29"/>
</g>
<!-- Node9 -->
<g id="node9" class="node">
<title>Node9</title>
<g id="a_node9"><a xlink:href="class_o_c_a_1_1_c_a_f_e_v_d_b_1_1_database_1_1_doctrine_1_1_o_r_m_1_1_repositories_1_1_email_templates_repository.html" target="_top" xlink:title=" ">
<polygon fill="white" stroke="#666666" points="398,-830 264,-830 264,-811 398,-811 398,-830"/>
<text text-anchor="middle" x="331" y="-818" font-family="Helvetica,sans-Serif" font-size="10.00">EmailTemplatesRepository</text>
</a>
</g>
</g>
<!-- Node1&#45;&gt;Node9 -->
<g id="edge8" class="edge">
<title>Node1&#45;&gt;Node9</title>
<path fill="none" stroke="#63b8ff" d="M173.11,-515.47C181.3,-577.9 208.43,-760.76 250,-801.5 253.98,-805.4 258.6,-808.55 263.58,-811.09"/>
<polygon fill="#63b8ff" stroke="#63b8ff" points="176.62,-515.34 171.88,-505.87 169.68,-516.23 176.62,-515.34"/>
</g>
<!-- Node10 -->
<g id="node10" class="node">
<title>Node10</title>
<g id="a_node10"><a xlink:href="class_o_c_a_1_1_c_a_f_e_v_d_b_1_1_database_1_1_doctrine_1_1_o_r_m_1_1_repositories_1_1_files_repository.html" target="_top" xlink:title="Entity&#45;repository for file enitites.">
<polygon fill="white" stroke="#666666" points="373.5,-793 288.5,-793 288.5,-774 373.5,-774 373.5,-793"/>
<text text-anchor="middle" x="331" y="-781" font-family="Helvetica,sans-Serif" font-size="10.00">FilesRepository</text>
</a>
</g>
</g>
<!-- Node1&#45;&gt;Node10 -->
<g id="edge9" class="edge">
<title>Node1&#45;&gt;Node10</title>
<path fill="none" stroke="#63b8ff" d="M170.06,-515.77C170.22,-566.66 178.07,-696.3 250,-764.5 260.26,-774.22 274.54,-779.27 288.21,-781.8"/>
<polygon fill="#63b8ff" stroke="#63b8ff" points="173.56,-515.9 170.14,-505.87 166.56,-515.84 173.56,-515.9"/>
</g>
<!-- Node12 -->
<g id="node12" class="node">
<title>Node12</title>
<g id="a_node12"><a xlink:href="class_o_c_a_1_1_c_a_f_e_v_d_b_1_1_database_1_1_doctrine_1_1_o_r_m_1_1_repositories_1_1_images_repository.html" target="_top" xlink:title="Repository for images.">
<polygon fill="white" stroke="#666666" points="379,-756 283,-756 283,-737 379,-737 379,-756"/>
<text text-anchor="middle" x="331" y="-744" font-family="Helvetica,sans-Serif" font-size="10.00">ImagesRepository</text>
</a>
</g>
</g>
<!-- Node1&#45;&gt;Node12 -->
<g id="edge11" class="edge">
<title>Node1&#45;&gt;Node12</title>
<path fill="none" stroke="#63b8ff" d="M171.21,-515.61C173.95,-561.41 187.1,-670.35 250,-727.5 258.98,-735.66 270.82,-740.5 282.62,-743.32"/>
<polygon fill="#63b8ff" stroke="#63b8ff" points="174.72,-515.57 170.75,-505.75 167.72,-515.9 174.72,-515.57"/>
</g>
<!-- Node13 -->
<g id="node13" class="node">
<title>Node13</title>
<g id="a_node13"><a xlink:href="class_o_c_a_1_1_c_a_f_e_v_d_b_1_1_database_1_1_doctrine_1_1_o_r_m_1_1_repositories_1_1_instrument_families_repository.html" target="_top" xlink:title="Repository for instrument families.">
<polygon fill="white" stroke="#666666" points="404.5,-719 257.5,-719 257.5,-700 404.5,-700 404.5,-719"/>
<text text-anchor="middle" x="331" y="-707" font-family="Helvetica,sans-Serif" font-size="10.00">InstrumentFamiliesRepository</text>
</a>
</g>
</g>
<!-- Node1&#45;&gt;Node13 -->
<g id="edge12" class="edge">
<title>Node1&#45;&gt;Node13</title>
<path fill="none" stroke="#63b8ff" d="M172.8,-515.82C178.33,-556.29 196.19,-644.32 250,-690.5 254.22,-694.13 259.02,-697.09 264.11,-699.5"/>
<polygon fill="#63b8ff" stroke="#63b8ff" points="176.28,-515.46 171.59,-505.97 169.33,-516.32 176.28,-515.46"/>
</g>
<!-- Node14 -->
<g id="node14" class="node">
<title>Node14</title>
<g id="a_node14"><a xlink:href="class_o_c_a_1_1_c_a_f_e_v_d_b_1_1_database_1_1_doctrine_1_1_o_r_m_1_1_repositories_1_1_instrument_insurances_repository.html" target="_top" xlink:title="Repository for instrument insurances.">
<polygon fill="white" stroke="#666666" points="410,-682 252,-682 252,-663 410,-663 410,-682"/>
<text text-anchor="middle" x="331" y="-670" font-family="Helvetica,sans-Serif" font-size="10.00">InstrumentInsurancesRepository</text>
</a>
</g>
</g>
<!-- Node1&#45;&gt;Node14 -->
<g id="edge13" class="edge">
<title>Node1&#45;&gt;Node14</title>
<path fill="none" stroke="#63b8ff" d="M174.85,-515.1C183.19,-549.31 204.76,-617.65 250,-653.5 254.7,-657.22 260.01,-660.24 265.6,-662.67"/>
<polygon fill="#63b8ff" stroke="#63b8ff" points="178.33,-514.61 172.69,-505.63 171.5,-516.16 178.33,-514.61"/>
</g>
<!-- Node15 -->
<g id="node15" class="node">
<title>Node15</title>
<g id="a_node15"><a xlink:href="class_o_c_a_1_1_c_a_f_e_v_d_b_1_1_database_1_1_doctrine_1_1_o_r_m_1_1_repositories_1_1_instruments_repository.html" target="_top" xlink:title="Repository for instruments.">
<polygon fill="white" stroke="#666666" points="389,-645 273,-645 273,-626 389,-626 389,-645"/>
<text text-anchor="middle" x="331" y="-633" font-family="Helvetica,sans-Serif" font-size="10.00">InstrumentsRepository</text>
</a>
</g>
</g>
<!-- Node1&#45;&gt;Node15 -->
<g id="edge14" class="edge">
<title>Node1&#45;&gt;Node15</title>
<path fill="none" stroke="#63b8ff" d="M178.12,-514.9C189.46,-542.38 213.44,-590.77 250,-616.5 256.77,-621.26 264.58,-624.85 272.61,-627.54"/>
<polygon fill="#63b8ff" stroke="#63b8ff" points="181.39,-513.66 174.47,-505.63 174.87,-516.22 181.39,-513.66"/>
</g>
<!-- Node16 -->
<g id="node16" class="node">
<title>Node16</title>
<g id="a_node16"><a xlink:href="class_o_c_a_1_1_c_a_f_e_v_d_b_1_1_database_1_1_doctrine_1_1_o_r_m_1_1_repositories_1_1_musician_photos_repository.html" target="_top" xlink:title="Repository for photos of persons.">
<polygon fill="white" stroke="#666666" points="398,-608 264,-608 264,-589 398,-589 398,-608"/>
<text text-anchor="middle" x="331" y="-596" font-family="Helvetica,sans-Serif" font-size="10.00">MusicianPhotosRepository</text>
</a>
</g>
</g>
<!-- Node1&#45;&gt;Node16 -->
<g id="edge15" class="edge">
<title>Node1&#45;&gt;Node16</title>
<path fill="none" stroke="#63b8ff" d="M183.36,-513.85C197.4,-533.43 221.71,-563.08 250,-579.5 256.42,-583.23 263.53,-586.22 270.79,-588.63"/>
<polygon fill="#63b8ff" stroke="#63b8ff" points="186.25,-511.88 177.68,-505.65 180.5,-515.87 186.25,-511.88"/>
</g>
<!-- Node17 -->
<g id="node17" class="node">
<title>Node17</title>
<g id="a_node17"><a xlink:href="class_o_c_a_1_1_c_a_f_e_v_d_b_1_1_database_1_1_doctrine_1_1_o_r_m_1_1_repositories_1_1_musicians_repository.html" target="_top" xlink:title="Repository for musicians.">
<polygon fill="white" stroke="#666666" points="385,-571 277,-571 277,-552 385,-552 385,-571"/>
<text text-anchor="middle" x="331" y="-559" font-family="Helvetica,sans-Serif" font-size="10.00">MusiciansRepository</text>
</a>
</g>
</g>
<!-- Node1&#45;&gt;Node17 -->
<g id="edge16" class="edge">
<title>Node1&#45;&gt;Node17</title>
<path fill="none" stroke="#63b8ff" d="M193.09,-510.74C208.48,-521.14 229.68,-534.19 250,-542.5 258.72,-546.07 268.26,-549.06 277.62,-551.53"/>
<polygon fill="#63b8ff" stroke="#63b8ff" points="195.34,-508.04 185.13,-505.23 191.36,-513.8 195.34,-508.04"/>
</g>
<!-- Node18 -->
<g id="node18" class="node">
<title>Node18</title>
<g id="a_node18"><a xlink:href="class_o_c_a_1_1_c_a_f_e_v_d_b_1_1_database_1_1_doctrine_1_1_o_r_m_1_1_repositories_1_1_project_ieba037c29b81c783ba29f7b802ae10ff.html" target="_top" xlink:title="Repositories for the required numbers of musicians per voice.">
<polygon fill="white" stroke="#666666" points="408.5,-533.5 253.5,-533.5 253.5,-503.5 408.5,-503.5 408.5,-533.5"/>
<text text-anchor="start" x="261.5" y="-521.5" font-family="Helvetica,sans-Serif" font-size="10.00">ProjectInstrumentationNumbers</text>
<text text-anchor="middle" x="331" y="-510.5" font-family="Helvetica,sans-Serif" font-size="10.00">Repository</text>
</a>
</g>
</g>
<!-- Node1&#45;&gt;Node18 -->
<g id="edge17" class="edge">
<title>Node1&#45;&gt;Node18</title>
<path fill="none" stroke="#63b8ff" d="M225.18,-502.73C234.17,-504.08 243.63,-505.5 253.04,-506.92"/>
<polygon fill="#63b8ff" stroke="#63b8ff" points="225.99,-499.31 215.58,-501.28 224.95,-506.23 225.99,-499.31"/>
</g>
<!-- Node19 -->
<g id="node19" class="node">
<title>Node19</title>
<g id="a_node19"><a xlink:href="class_o_c_a_1_1_c_a_f_e_v_d_b_1_1_database_1_1_doctrine_1_1_o_r_m_1_1_repositories_1_1_project_p7b1ebba4b277ad31000ac13bab6e65c6.html" target="_top" xlink:title="Repository for extra fields data.">
<polygon fill="white" stroke="#666666" points="399,-485.5 263,-485.5 263,-455.5 399,-455.5 399,-485.5"/>
<text text-anchor="start" x="271" y="-473.5" font-family="Helvetica,sans-Serif" font-size="10.00">ProjectParticipantFieldData</text>
<text text-anchor="middle" x="331" y="-462.5" font-family="Helvetica,sans-Serif" font-size="10.00">Repository</text>
</a>
</g>
</g>
<!-- Node1&#45;&gt;Node19 -->
<g id="edge18" class="edge">
<title>Node1&#45;&gt;Node19</title>
<path fill="none" stroke="#63b8ff" d="M225.28,-486.26C237.26,-484.45 250.09,-482.52 262.5,-480.66"/>
<polygon fill="#63b8ff" stroke="#63b8ff" points="224.95,-482.77 215.58,-487.72 225.99,-489.69 224.95,-482.77"/>
</g>
<!-- Node20 -->
<g id="node20" class="node">
<title>Node20</title>
<g id="a_node20"><a xlink:href="class_o_c_a_1_1_c_a_f_e_v_d_b_1_1_database_1_1_doctrine_1_1_o_r_m_1_1_repositories_1_1_project_participant_fields_repository.html" target="_top" xlink:title="Repository for per&#45;participant field definitions.">
<polygon fill="white" stroke="#666666" points="391,-437.5 271,-437.5 271,-407.5 391,-407.5 391,-437.5"/>
<text text-anchor="start" x="279" y="-425.5" font-family="Helvetica,sans-Serif" font-size="10.00">ProjectParticipantFields</text>
<text text-anchor="middle" x="331" y="-414.5" font-family="Helvetica,sans-Serif" font-size="10.00">Repository</text>
</a>
</g>
</g>
<!-- Node1&#45;&gt;Node20 -->
<g id="edge19" class="edge">
<title>Node1&#45;&gt;Node20</title>
<path fill="none" stroke="#63b8ff" d="M193.82,-478.27C209.23,-468.1 230.17,-455.29 250,-446.5 257.03,-443.39 264.57,-440.53 272.12,-437.96"/>
<polygon fill="#63b8ff" stroke="#63b8ff" points="192.15,-475.18 185.81,-483.66 196.06,-480.98 192.15,-475.18"/>
</g>
<!-- Node21 -->
<g id="node21" class="node">
<title>Node21</title>
<g id="a_node21"><a xlink:href="class_o_c_a_1_1_c_a_f_e_v_d_b_1_1_database_1_1_doctrine_1_1_o_r_m_1_1_repositories_1_1_project_participants_repository.html" target="_top" xlink:title="Repository for project participants.">
<polygon fill="white" stroke="#666666" points="404,-389 258,-389 258,-370 404,-370 404,-389"/>
<text text-anchor="middle" x="331" y="-377" font-family="Helvetica,sans-Serif" font-size="10.00">ProjectParticipantsRepository</text>
</a>
</g>
</g>
<!-- Node1&#45;&gt;Node21 -->
<g id="edge20" class="edge">
<title>Node1&#45;&gt;Node21</title>
<path fill="none" stroke="#63b8ff" d="M181.56,-474.6C194.88,-452.54 219.34,-417.56 250,-398.5 255.94,-394.81 262.54,-391.83 269.32,-389.43"/>
<polygon fill="#63b8ff" stroke="#63b8ff" points="178.54,-472.83 176.55,-483.23 184.6,-476.34 178.54,-472.83"/>
</g>
<!-- Node22 -->
<g id="node22" class="node">
<title>Node22</title>
<g id="a_node22"><a xlink:href="class_o_c_a_1_1_c_a_f_e_v_d_b_1_1_database_1_1_doctrine_1_1_o_r_m_1_1_repositories_1_1_project_payments_repository.html" target="_top" xlink:title="Repository for ProjectPayment entities.">
<polygon fill="white" stroke="#666666" points="400.5,-352 261.5,-352 261.5,-333 400.5,-333 400.5,-352"/>
<text text-anchor="middle" x="331" y="-340" font-family="Helvetica,sans-Serif" font-size="10.00">ProjectPaymentsRepository</text>
</a>
</g>
</g>
<!-- Node1&#45;&gt;Node22 -->
<g id="edge21" class="edge">
<title>Node1&#45;&gt;Node22</title>
<path fill="none" stroke="#63b8ff" d="M176.91,-473.74C187.26,-443.85 210.57,-389.15 250,-360.5 254.49,-357.24 259.47,-354.55 264.69,-352.34"/>
<polygon fill="#63b8ff" stroke="#63b8ff" points="173.63,-472.51 173.84,-483.11 180.28,-474.7 173.63,-472.51"/>
</g>
<!-- Node23 -->
<g id="node23" class="node">
<title>Node23</title>
<g id="a_node23"><a xlink:href="class_o_c_a_1_1_c_a_f_e_v_d_b_1_1_database_1_1_doctrine_1_1_o_r_m_1_1_repositories_1_1_project_web_pages_repository.html" target="_top" xlink:title="Repository for the per&#45;project web&#45;pages.">
<polygon fill="white" stroke="#666666" points="402,-315 260,-315 260,-296 402,-296 402,-315"/>
<text text-anchor="middle" x="331" y="-303" font-family="Helvetica,sans-Serif" font-size="10.00">ProjectWebPagesRepository</text>
</a>
</g>
</g>
<!-- Node1&#45;&gt;Node23 -->
<g id="edge22" class="edge">
<title>Node1&#45;&gt;Node23</title>
<path fill="none" stroke="#63b8ff" d="M174.12,-473.33C181.51,-436.83 201.89,-362.28 250,-323.5 253.99,-320.28 258.44,-317.62 263.14,-315.41"/>
<polygon fill="#63b8ff" stroke="#63b8ff" points="170.7,-472.56 172.3,-483.04 177.58,-473.85 170.7,-472.56"/>
</g>
<!-- Node24 -->
<g id="node24" class="node">
<title>Node24</title>
<g id="a_node24"><a xlink:href="class_o_c_a_1_1_c_a_f_e_v_d_b_1_1_database_1_1_doctrine_1_1_o_r_m_1_1_repositories_1_1_projects_repository.html" target="_top" xlink:title="Entity repository for projects.">
<polygon fill="white" stroke="#666666" points="381,-278 281,-278 281,-259 381,-259 381,-278"/>
<text text-anchor="middle" x="331" y="-266" font-family="Helvetica,sans-Serif" font-size="10.00">ProjectsRepository</text>
</a>
</g>
</g>
<!-- Node1&#45;&gt;Node24 -->
<g id="edge23" class="edge">
<title>Node1&#45;&gt;Node24</title>
<path fill="none" stroke="#63b8ff" d="M172.13,-473.59C176.59,-431.43 192.78,-336.03 250,-286.5 258.61,-279.05 269.65,-274.49 280.76,-271.76"/>
<polygon fill="#63b8ff" stroke="#63b8ff" points="168.66,-473.07 171.23,-483.35 175.63,-473.71 168.66,-473.07"/>
</g>
<!-- Node25 -->
<g id="node25" class="node">
<title>Node25</title>
<g id="a_node25"><a xlink:href="class_o_c_a_1_1_c_a_f_e_v_d_b_1_1_database_1_1_doctrine_1_1_o_r_m_1_1_repositories_1_1_sent_emails_repository.html" target="_top" xlink:title="Augment with our FindLikeTrait.">
<polygon fill="white" stroke="#666666" points="388,-241 274,-241 274,-222 388,-222 388,-241"/>
<text text-anchor="middle" x="331" y="-229" font-family="Helvetica,sans-Serif" font-size="10.00">SentEmailsRepository</text>
</a>
</g>
</g>
<!-- Node1&#45;&gt;Node25 -->
<g id="edge24" class="edge">
<title>Node1&#45;&gt;Node25</title>
<path fill="none" stroke="#63b8ff" d="M170.76,-473.21C172.54,-425.57 183.85,-309.8 250,-249.5 256.73,-243.36 265.1,-239.17 273.86,-236.33"/>
<polygon fill="#63b8ff" stroke="#63b8ff" points="167.26,-472.91 170.51,-482.99 174.26,-473.08 167.26,-472.91"/>
</g>
<!-- Node26 -->
<g id="node26" class="node">
<title>Node26</title>
<g id="a_node26"><a xlink:href="class_o_c_a_1_1_c_a_f_e_v_d_b_1_1_database_1_1_doctrine_1_1_o_r_m_1_1_repositories_1_1_sepa_bank_accounts_repository.html" target="_top" xlink:title="@method Entities\SepaBankAccount find($id)">
<polygon fill="white" stroke="#666666" points="406,-204 256,-204 256,-185 406,-185 406,-204"/>
<text text-anchor="middle" x="331" y="-192" font-family="Helvetica,sans-Serif" font-size="10.00">SepaBankAccountsRepository</text>
</a>
</g>
</g>
<!-- Node1&#45;&gt;Node26 -->
<g id="edge25" class="edge">
<title>Node1&#45;&gt;Node26</title>
<path fill="none" stroke="#63b8ff" d="M169.69,-473.31C168.91,-420.84 174.62,-283.96 250,-212.5 253.41,-209.27 257.27,-206.57 261.41,-204.32"/>
<polygon fill="#63b8ff" stroke="#63b8ff" points="166.19,-473.32 169.95,-483.23 173.18,-473.14 166.19,-473.32"/>
</g>
<!-- Node27 -->
<g id="node27" class="node">
<title>Node27</title>
<g id="a_node27"><a xlink:href="class_o_c_a_1_1_c_a_f_e_v_d_b_1_1_database_1_1_doctrine_1_1_o_r_m_1_1_repositories_1_1_sepa_bulk_transactions_repository.html" target="_top" xlink:title="@method Entities\SepaBulkTransaction find($id)">
<polygon fill="white" stroke="#666666" points="412,-167 250,-167 250,-148 412,-148 412,-167"/>
<text text-anchor="middle" x="331" y="-155" font-family="Helvetica,sans-Serif" font-size="10.00">SepaBulkTransactionsRepository</text>
</a>
</g>
</g>
<!-- Node1&#45;&gt;Node27 -->
<g id="edge26" class="edge">
<title>Node1&#45;&gt;Node27</title>
<path fill="none" stroke="#63b8ff" d="M172.87,-473.53C180.52,-409.42 206.66,-217.86 250,-175.5 253.26,-172.32 256.95,-169.65 260.92,-167.41"/>
<polygon fill="#63b8ff" stroke="#63b8ff" points="169.44,-472.73 171.76,-483.06 176.39,-473.54 169.44,-472.73"/>
</g>
<!-- Node28 -->
<g id="node28" class="node">
<title>Node28</title>
<g id="a_node28"><a xlink:href="class_o_c_a_1_1_c_a_f_e_v_d_b_1_1_database_1_1_doctrine_1_1_o_r_m_1_1_repositories_1_1_sepa_debit_mandates_repository.html" target="_top" xlink:title="@method Entities\SepaDebitMandate find($id)">
<polygon fill="white" stroke="#666666" points="407,-130 255,-130 255,-111 407,-111 407,-130"/>
<text text-anchor="middle" x="331" y="-118" font-family="Helvetica,sans-Serif" font-size="10.00">SepaDebitMandatesRepository</text>
</a>
</g>
</g>
<!-- Node1&#45;&gt;Node28 -->
<g id="edge27" class="edge">
<title>Node1&#45;&gt;Node28</title>
<path fill="none" stroke="#63b8ff" d="M172.29,-473.42C178.59,-404.35 201.98,-186.6 250,-138.5 253.22,-135.28 256.88,-132.58 260.83,-130.32"/>
<polygon fill="#63b8ff" stroke="#63b8ff" points="168.81,-473.05 171.42,-483.32 175.78,-473.67 168.81,-473.05"/>
</g>
<!-- Node29 -->
<g id="node29" class="node">
<title>Node29</title>
<g id="a_node29"><a xlink:href="class_o_c_a_1_1_c_a_f_e_v_d_b_1_1_database_1_1_doctrine_1_1_o_r_m_1_1_repositories_1_1_translation_keys_repository.html" target="_top" xlink:title="Repository of translatable strings.">
<polygon fill="white" stroke="#666666" points="398,-93 264,-93 264,-74 398,-74 398,-93"/>
<text text-anchor="middle" x="331" y="-81" font-family="Helvetica,sans-Serif" font-size="10.00">TranslationKeysRepository</text>
</a>
</g>
</g>
<!-- Node1&#45;&gt;Node29 -->
<g id="edge28" class="edge">
<title>Node1&#45;&gt;Node29</title>
<path fill="none" stroke="#63b8ff" d="M171.83,-473.17C176.88,-399.2 197.3,-155.36 250,-101.5 253.98,-97.43 258.67,-94.19 263.75,-91.63"/>
<polygon fill="#63b8ff" stroke="#63b8ff" points="168.34,-472.86 171.18,-483.06 175.33,-473.31 168.34,-472.86"/>
</g>
<!-- Node30 -->
<g id="node30" class="node">
<title>Node30</title>
<g id="a_node30"><a xlink:href="class_o_c_a_1_1_c_a_f_e_v_d_b_1_1_database_1_1_doctrine_1_1_o_r_m_1_1_repositories_1_1_translation_locations_repository.html" target="_top" xlink:title="Repository for in&#45;source&#45;file location of to&#45;be&#45;translated strings.">
<polygon fill="white" stroke="#666666" points="408,-56 254,-56 254,-37 408,-37 408,-56"/>
<text text-anchor="middle" x="331" y="-44" font-family="Helvetica,sans-Serif" font-size="10.00">TranslationLocationsRepository</text>
</a>
</g>
</g>
<!-- Node1&#45;&gt;Node30 -->
<g id="edge29" class="edge">
<title>Node1&#45;&gt;Node30</title>
<path fill="none" stroke="#63b8ff" d="M171.4,-473.71C175.19,-396.05 192.41,-124.35 250,-64.5 253.06,-61.32 256.55,-58.65 260.33,-56.4"/>
<polygon fill="#63b8ff" stroke="#63b8ff" points="167.92,-473.14 170.96,-483.29 174.91,-473.47 167.92,-473.14"/>
</g>
<!-- Node31 -->
<g id="node31" class="node">
<title>Node31</title>
<g id="a_node31"><a xlink:href="class_o_c_a_1_1_c_a_f_e_v_d_b_1_1_database_1_1_doctrine_1_1_o_r_m_1_1_repositories_1_1_translations_repository.html" target="_top" xlink:title="Repository for translation entity.">
<polygon fill="white" stroke="#666666" points="389.5,-19 272.5,-19 272.5,0 389.5,0 389.5,-19"/>
<text text-anchor="middle" x="331" y="-7" font-family="Helvetica,sans-Serif" font-size="10.00">TranslationsRepository</text>
</a>
</g>
</g>
<!-- Node1&#45;&gt;Node31 -->
<g id="edge30" class="edge">
<title>Node1&#45;&gt;Node31</title>
<path fill="none" stroke="#63b8ff" d="M171.08,-473.28C173.78,-390.83 187.74,-93.13 250,-27.5 256.07,-21.1 263.9,-16.74 272.27,-13.81"/>
<polygon fill="#63b8ff" stroke="#63b8ff" points="167.58,-473.17 170.78,-483.27 174.58,-473.38 167.58,-473.17"/>
</g>
<!-- Node2 -->
<g id="node2" class="node">
<title>Node2</title>
<g id="a_node2"><a xlink:title=" ">
<polygon fill="white" stroke="#bfbfbf" points="89,-504 0,-504 0,-485 89,-485 89,-504"/>
<text text-anchor="middle" x="44.5" y="-492" font-family="Helvetica,sans-Serif" font-size="10.00">EntityRepository</text>
</a>
</g>
</g>
<!-- Node2&#45;&gt;Node1 -->
<g id="edge1" class="edge">
<title>Node2&#45;&gt;Node1</title>
<path fill="none" stroke="#63b8ff" d="M100.72,-494.5C108.69,-494.5 116.8,-494.5 124.51,-494.5"/>
<polygon fill="#63b8ff" stroke="#63b8ff" points="100.73,-491 90.73,-494.5 100.73,-498 100.73,-491"/>
</g>
<!-- Node5 -->
<g id="node5" class="node">
<title>Node5</title>
<g id="a_node5"><a xlink:href="class_o_c_a_1_1_c_a_f_e_v_d_b_1_1_database_1_1_doctrine_1_1_o_r_m_1_1_repositories_1_1_database_storage_files_repository.html" target="_top" xlink:title="Database repository for DatabaseStorageDirEntry entities.">
<polygon fill="white" stroke="#666666" points="614.5,-965 453.5,-965 453.5,-946 614.5,-946 614.5,-965"/>
<text text-anchor="middle" x="534" y="-953" font-family="Helvetica,sans-Serif" font-size="10.00">DatabaseStorageFilesRepository</text>
</a>
</g>
</g>
<!-- Node4&#45;&gt;Node5 -->
<g id="edge4" class="edge">
<title>Node4&#45;&gt;Node5</title>
<path fill="none" stroke="#63b8ff" d="M410.56,-944.54C424.55,-945.79 439.14,-947.09 453.16,-948.35"/>
<polygon fill="#63b8ff" stroke="#63b8ff" points="411.27,-941.08 401,-943.68 410.64,-948.06 411.27,-941.08"/>
</g>
<!-- Node6 -->
<g id="node6" class="node">
<title>Node6</title>
<g id="a_node6"><a xlink:href="class_o_c_a_1_1_c_a_f_e_v_d_b_1_1_database_1_1_doctrine_1_1_o_r_m_1_1_repositories_1_1_database_storage_folders_repository.html" target="_top" xlink:title="Database repository for DatabaseStorageDirEntry entities.">
<polygon fill="white" stroke="#666666" points="620,-928 448,-928 448,-909 620,-909 620,-928"/>
<text text-anchor="middle" x="534" y="-916" font-family="Helvetica,sans-Serif" font-size="10.00">DatabaseStorageFoldersRepository</text>
</a>
</g>
</g>
<!-- Node4&#45;&gt;Node6 -->
<g id="edge5" class="edge">
<title>Node4&#45;&gt;Node6</title>
<path fill="none" stroke="#63b8ff" d="M410.94,-930.04C423.05,-928.89 435.6,-927.71 447.84,-926.55"/>
<polygon fill="#63b8ff" stroke="#63b8ff" points="410.62,-926.55 401,-930.98 411.28,-933.52 410.62,-926.55"/>
</g>
<!-- Node11 -->
<g id="node11" class="node">
<title>Node11</title>
<g id="a_node11"><a xlink:href="class_o_c_a_1_1_c_a_f_e_v_d_b_1_1_database_1_1_doctrine_1_1_o_r_m_1_1_repositories_1_1_encrypted_files_repository.html" target="_top" xlink:title="Entity&#45;repository for encrypted file enitites.">
<polygon fill="white" stroke="#666666" points="598.5,-793 469.5,-793 469.5,-774 598.5,-774 598.5,-793"/>
<text text-anchor="middle" x="534" y="-781" font-family="Helvetica,sans-Serif" font-size="10.00">EncryptedFilesRepository</text>
</a>
</g>
</g>
<!-- Node10&#45;&gt;Node11 -->
<g id="edge10" class="edge">
<title>Node10&#45;&gt;Node11</title>
<path fill="none" stroke="#63b8ff" d="M385.09,-783.5C410.91,-783.5 442.13,-783.5 469.23,-783.5"/>
<polygon fill="#63b8ff" stroke="#63b8ff" points="385.16,-780 375.16,-783.5 385.16,-787 385.16,-780"/>
</g>
</g>
</svg>
        <g id="navigator" transform="translate(0 0)" fill="#404254">
                <rect fill="#f2f5e9" fill-opacity="0.5" stroke="#606060" stroke-width=".5" x="0" y="0" width="60" height="60"/>
                <use id="zoomplus" xlink:href="#zoomPlus" x="17" y="9" onmousedown="handleZoom(evt,'in')"/>
                <use id="zoomminus" xlink:href="#zoomMin" x="42" y="9" onmousedown="handleZoom(evt,'out')"/>
                <use id="reset" xlink:href="#resetDef" x="30" y="36" onmousedown="handleReset()"/>
                <g id="arrowUp" xlink:href="#dirArrow" transform="translate(30 24)" onmousedown="handlePan(0,-1)">
                  <use xlink:href="#rim" fill="#404040">
                        <set attributeName="fill" to="#808080" begin="arrowUp.mouseover" end="arrowUp.mouseout"/>
                  </use>
                  <path fill="none" stroke="white" stroke-width="1.5" d="M0,-3.0v7 M-2.5,-0.5L0,-3.0L2.5,-0.5"/>
                </g>
                <g id="arrowRight" xlink:href="#dirArrow" transform="rotate(90) translate(36 -43)" onmousedown="handlePan(1,0)">
                  <use xlink:href="#rim" fill="#404040">
                        <set attributeName="fill" to="#808080" begin="arrowRight.mouseover" end="arrowRight.mouseout"/>
                  </use>
                  <path fill="none" stroke="white" stroke-width="1.5" d="M0,-3.0v7 M-2.5,-0.5L0,-3.0L2.5,-0.5"/>
                </g>
                <g id="arrowDown" xlink:href="#dirArrow" transform="rotate(180) translate(-30 -48)" onmousedown="handlePan(0,1)">
                  <use xlink:href="#rim" fill="#404040">
                        <set attributeName="fill" to="#808080" begin="arrowDown.mouseover" end="arrowDown.mouseout"/>
                  </use>
                  <path fill="none" stroke="white" stroke-width="1.5" d="M0,-3.0v7 M-2.5,-0.5L0,-3.0L2.5,-0.5"/>
                </g>
                <g id="arrowLeft" xlink:href="#dirArrow" transform="rotate(270) translate(-36 17)" onmousedown="handlePan(-1,0)">
                  <use xlink:href="#rim" fill="#404040">
                        <set attributeName="fill" to="#808080" begin="arrowLeft.mouseover" end="arrowLeft.mouseout"/>
                  </use>
                  <path fill="none" stroke="white" stroke-width="1.5" d="M0,-3.0v7 M-2.5,-0.5L0,-3.0L2.5,-0.5"/>
                </g>
        </g>
        <svg viewBox="0 0 15 15" width="100%" height="30px" preserveAspectRatio="xMaxYMin meet">
         <g id="arrow_out" transform="scale(0.3 0.3)">
          <a xlink:href="class_o_c_a_1_1_c_a_f_e_v_d_b_1_1_database_1_1_doctrine_1_1_o_r_m_1_1_repositories_1_1_entity_repository__inherit__graph_org.svg" target="_base">
           <rect id="button" ry="5" rx="5" y="6" x="6" height="38" width="38"
                fill="#f2f5e9" fill-opacity="0.5" stroke="#606060" stroke-width="1.0"/>
           <path id="arrow"
             d="M 11.500037,31.436501 C 11.940474,20.09759 22.043105,11.32322 32.158766,21.979434 L 37.068811,17.246167 C 37.068811,17.246167 37.088388,32 37.088388,32 L 22.160133,31.978069 C 22.160133,31.978069 26.997745,27.140456 26.997745,27.140456 C 18.528582,18.264221 13.291696,25.230495 11.500037,31.436501 z"
             style="fill:#404040;"/>
          </a>
         </g>
        </svg>
</svg>
