<?xml version="1.0" encoding="UTF-8" standalone="no"?>
<!DOCTYPE svg PUBLIC "-//W3C//DTD SVG 1.1//EN"
 "http://www.w3.org/Graphics/SVG/1.1/DTD/svg11.dtd">
<!-- Generated by graphviz version 7.1.0 (20230121.1956)
 -->
<!-- Title: ensureMigrationsAreLoaded Pages: 1 -->
<svg width="415pt" height="27pt"
 viewBox="0.00 0.00 415.00 27.00" xmlns="http://www.w3.org/2000/svg" xmlns:xlink="http://www.w3.org/1999/xlink">
<g id="graph0" class="graph" transform="scale(1 1) rotate(0) translate(4 23)">
<title>ensureMigrationsAreLoaded</title>
<!-- Node1 -->
<g id="node1" class="node">
<title>Node1</title>
<g id="a_node1"><a xlink:title="Ensure all unapplied migrations are loaded.">
<polygon fill="#999999" stroke="#666666" points="137,-19 0,-19 0,0 137,0 137,-19"/>
<text text-anchor="middle" x="68.5" y="-7" font-family="Helvetica,sans-Serif" font-size="10.00">ensureMigrationsAreLoaded</text>
</a>
</g>
</g>
<!-- Node2 -->
<g id="node2" class="node">
<title>Node2</title>
<g id="a_node2"><a xlink:href="class_o_c_a_1_1_c_a_f_e_v_d_b_1_1_service_1_1_migrations_service.html#a5a9dff6c1ff549453de63b85b2ece1a0" target="_top" xlink:title="Find all unapplied migrations.">
<polygon fill="white" stroke="#666666" points="294,-19 173,-19 173,0 294,0 294,-19"/>
<text text-anchor="middle" x="233.5" y="-7" font-family="Helvetica,sans-Serif" font-size="10.00">findUnappliedMigrations</text>
</a>
</g>
</g>
<!-- Node1&#45;&gt;Node2 -->
<g id="edge1" class="edge">
<title>Node1&#45;&gt;Node2</title>
<path fill="none" stroke="#63b8ff" d="M137.21,-9.5C145.09,-9.5 153.14,-9.5 161.06,-9.5"/>
<polygon fill="#63b8ff" stroke="#63b8ff" points="161.03,-13 171.03,-9.5 161.03,-6 161.03,-13"/>
</g>
<!-- Node3 -->
<g id="node3" class="node">
<title>Node3</title>
<g id="a_node3"><a xlink:href="class_o_c_a_1_1_c_a_f_e_v_d_b_1_1_service_1_1_migrations_service.html#af398c267dc84e9a97bf2a48a46871dcf" target="_top" xlink:title=" ">
<polygon fill="white" stroke="#666666" points="407,-19 330,-19 330,0 407,0 407,-19"/>
<text text-anchor="middle" x="368.5" y="-7" font-family="Helvetica,sans-Serif" font-size="10.00">findMigrations</text>
</a>
</g>
</g>
<!-- Node2&#45;&gt;Node3 -->
<g id="edge2" class="edge">
<title>Node2&#45;&gt;Node3</title>
<path fill="none" stroke="#63b8ff" d="M294.39,-9.5C302.35,-9.5 310.45,-9.5 318.21,-9.5"/>
<polygon fill="#63b8ff" stroke="#63b8ff" points="318.15,-13 328.15,-9.5 318.15,-6 318.15,-13"/>
</g>
</g>
</svg>
