<?xml version="1.0" encoding="UTF-8" standalone="no"?>
<!DOCTYPE svg PUBLIC "-//W3C//DTD SVG 1.1//EN"
 "http://www.w3.org/Graphics/SVG/1.1/DTD/svg11.dtd">
<!-- Generated by graphviz version 7.1.0 (20230121.1956)
 -->
<!-- Title: getUid Pages: 1 -->
<svg width="435pt" height="175pt"
 viewBox="0.00 0.00 435.00 174.50" xmlns="http://www.w3.org/2000/svg" xmlns:xlink="http://www.w3.org/1999/xlink">
<g id="graph0" class="graph" transform="scale(1 1) rotate(0) translate(4 170.5)">
<title>getUid</title>
<!-- Node1 -->
<g id="node1" class="node">
<title>Node1</title>
<g id="a_node1"><a xlink:title=" ">
<polygon fill="#999999" stroke="#666666" points="427,-113 382,-113 382,-94 427,-94 427,-113"/>
<text text-anchor="middle" x="404.5" y="-101" font-family="Helvetica,sans-Serif" font-size="10.00">getUid</text>
</a>
</g>
</g>
<!-- Node2 -->
<g id="node2" class="node">
<title>Node2</title>
<g id="a_node2"><a xlink:href="class_o_c_a_1_1_c_a_f_e_v_d_b_1_1_service_1_1_events_service.html#a89595fb1b45135568c26cc3cd895fb1b" target="_top" xlink:title="Inject a new event into the given calendar.">
<polygon fill="white" stroke="#666666" points="338,-166.5 208,-166.5 208,-136.5 338,-136.5 338,-166.5"/>
<text text-anchor="start" x="216" y="-154.5" font-family="Helvetica,sans-Serif" font-size="10.00">OCA\CAFEVDB\Service</text>
<text text-anchor="middle" x="273" y="-143.5" font-family="Helvetica,sans-Serif" font-size="10.00">\EventsService\newEvent</text>
</a>
</g>
</g>
<!-- Node1&#45;&gt;Node2 -->
<g id="edge1" class="edge">
<title>Node1&#45;&gt;Node2</title>
<path fill="none" stroke="#63b8ff" d="M370.96,-117.57C362.85,-120.94 354.15,-124.45 346,-127.5 338.23,-130.41 329.92,-133.35 321.81,-136.11"/>
<polygon fill="#63b8ff" stroke="#63b8ff" points="372.28,-120.81 380.14,-113.7 369.57,-114.36 372.28,-120.81"/>
</g>
<!-- Node3 -->
<g id="node3" class="node">
<title>Node3</title>
<g id="a_node3"><a xlink:href="class_o_c_a_1_1_c_a_f_e_v_d_b_1_1_service_1_1_events_service.html#a3bc5b15a2fa8fffd6b6b075b0e70c81a" target="_top" xlink:title="Inject a new task into the given calendar.">
<polygon fill="white" stroke="#666666" points="335.5,-118.5 210.5,-118.5 210.5,-88.5 335.5,-88.5 335.5,-118.5"/>
<text text-anchor="start" x="218.5" y="-106.5" font-family="Helvetica,sans-Serif" font-size="10.00">OCA\CAFEVDB\Service</text>
<text text-anchor="middle" x="273" y="-95.5" font-family="Helvetica,sans-Serif" font-size="10.00">\EventsService\newTask</text>
</a>
</g>
</g>
<!-- Node1&#45;&gt;Node3 -->
<g id="edge2" class="edge">
<title>Node1&#45;&gt;Node3</title>
<path fill="none" stroke="#63b8ff" d="M370.31,-103.5C359.73,-103.5 347.67,-103.5 335.74,-103.5"/>
<polygon fill="#63b8ff" stroke="#63b8ff" points="370.02,-107 380.02,-103.5 370.02,-100 370.02,-107"/>
</g>
<!-- Node4 -->
<g id="node4" class="node">
<title>Node4</title>
<g id="a_node4"><a xlink:href="class_o_c_a_1_1_c_a_f_e_v_d_b_1_1_service_1_1_events_service.html#a9c5b6c8d51d88794475b33331e1afa98" target="_top" xlink:title="Parse the respective event data and make sure the ProjectEvents table is uptodate.">
<polygon fill="white" stroke="#666666" points="346,-70 200,-70 200,-29 346,-29 346,-70"/>
<text text-anchor="start" x="208" y="-58" font-family="Helvetica,sans-Serif" font-size="10.00">OCA\CAFEVDB\Service</text>
<text text-anchor="start" x="208" y="-47" font-family="Helvetica,sans-Serif" font-size="10.00">\EventsService\syncCalendar</text>
<text text-anchor="middle" x="273" y="-36" font-family="Helvetica,sans-Serif" font-size="10.00">Object</text>
</a>
</g>
</g>
<!-- Node1&#45;&gt;Node4 -->
<g id="edge3" class="edge">
<title>Node1&#45;&gt;Node4</title>
<path fill="none" stroke="#63b8ff" d="M371.28,-90.05C363.04,-86.61 354.19,-82.92 346,-79.5 339,-76.58 331.62,-73.5 324.36,-70.48"/>
<polygon fill="#63b8ff" stroke="#63b8ff" points="369.68,-93.17 380.26,-93.8 372.38,-86.71 369.68,-93.17"/>
</g>
<!-- Node5 -->
<g id="node5" class="node">
<title>Node5</title>
<g id="a_node5"><a xlink:href="class_o_c_a_1_1_c_a_f_e_v_d_b_1_1_service_1_1_events_service.html#a3b6658ae82665c492cf28af4e6277831" target="_top" xlink:title=" ">
<polygon fill="white" stroke="#666666" points="164,-100 0,-100 0,-59 164,-59 164,-100"/>
<text text-anchor="start" x="8" y="-88" font-family="Helvetica,sans-Serif" font-size="10.00">OCA\CAFEVDB\Service</text>
<text text-anchor="start" x="8" y="-77" font-family="Helvetica,sans-Serif" font-size="10.00">\EventsService\onCalendarObject</text>
<text text-anchor="middle" x="82" y="-66" font-family="Helvetica,sans-Serif" font-size="10.00">Created</text>
</a>
</g>
</g>
<!-- Node4&#45;&gt;Node5 -->
<g id="edge4" class="edge">
<title>Node4&#45;&gt;Node5</title>
<path fill="none" stroke="#63b8ff" d="M188.5,-62.75C180.49,-64.03 172.36,-65.32 164.37,-66.58"/>
<polygon fill="#63b8ff" stroke="#63b8ff" points="188.92,-66.23 198.24,-61.21 187.82,-59.32 188.92,-66.23"/>
</g>
<!-- Node6 -->
<g id="node6" class="node">
<title>Node6</title>
<g id="a_node6"><a xlink:href="class_o_c_a_1_1_c_a_f_e_v_d_b_1_1_service_1_1_events_service.html#ad0dad4413ad713821f2a1be6a76fd888" target="_top" xlink:title=" ">
<polygon fill="white" stroke="#666666" points="164,-41 0,-41 0,0 164,0 164,-41"/>
<text text-anchor="start" x="8" y="-29" font-family="Helvetica,sans-Serif" font-size="10.00">OCA\CAFEVDB\Service</text>
<text text-anchor="start" x="8" y="-18" font-family="Helvetica,sans-Serif" font-size="10.00">\EventsService\onCalendarObject</text>
<text text-anchor="middle" x="82" y="-7" font-family="Helvetica,sans-Serif" font-size="10.00">Updated</text>
</a>
</g>
</g>
<!-- Node4&#45;&gt;Node6 -->
<g id="edge5" class="edge">
<title>Node4&#45;&gt;Node6</title>
<path fill="none" stroke="#63b8ff" d="M188.5,-36.69C180.49,-35.46 172.36,-34.21 164.37,-32.99"/>
<polygon fill="#63b8ff" stroke="#63b8ff" points="187.83,-40.13 198.24,-38.18 188.89,-33.21 187.83,-40.13"/>
</g>
</g>
</svg>
