<?xml version="1.0" encoding="UTF-8" standalone="no"?>
<!DOCTYPE svg PUBLIC "-//W3C//DTD SVG 1.1//EN"
 "http://www.w3.org/Graphics/SVG/1.1/DTD/svg11.dtd">
<!-- Generated by graphviz version 7.1.0 (20230121.1956)
 -->
<!-- Title: makeEvent Pages: 1 -->
<svg width="271pt" height="172pt"
 viewBox="0.00 0.00 271.00 171.50" xmlns="http://www.w3.org/2000/svg" xmlns:xlink="http://www.w3.org/1999/xlink">
<g id="graph0" class="graph" transform="scale(1 1) rotate(0) translate(4 167.5)">
<title>makeEvent</title>
<!-- Node1 -->
<g id="node1" class="node">
<title>Node1</title>
<g id="a_node1"><a xlink:title="Augment the database entity by calendar data.">
<polygon fill="#999999" stroke="#666666" points="66,-86 0,-86 0,-67 66,-67 66,-86"/>
<text text-anchor="middle" x="33" y="-74" font-family="Helvetica,sans-Serif" font-size="10.00">makeEvent</text>
</a>
</g>
</g>
<!-- Node2 -->
<g id="node2" class="node">
<title>Node2</title>
<g id="a_node2"><a xlink:href="class_o_c_a_1_1_c_a_f_e_v_d_b_1_1_service_1_1_v_calendar_service.html#a20bce1060035becc1a931e3cd65aeecc" target="_top" xlink:title=" ">
<polygon fill="white" stroke="#666666" points="255.5,-163.5 109.5,-163.5 109.5,-133.5 255.5,-133.5 255.5,-163.5"/>
<text text-anchor="start" x="117.5" y="-151.5" font-family="Helvetica,sans-Serif" font-size="10.00">OCA\CAFEVDB\Service</text>
<text text-anchor="middle" x="182.5" y="-140.5" font-family="Helvetica,sans-Serif" font-size="10.00">\VCalendarService\getDTEnd</text>
</a>
</g>
</g>
<!-- Node1&#45;&gt;Node2 -->
<g id="edge1" class="edge">
<title>Node1&#45;&gt;Node2</title>
<path fill="none" stroke="#63b8ff" d="M45.31,-86.23C58.25,-96.92 80.44,-113.98 102,-124.5 105.24,-126.08 108.6,-127.58 112.04,-129"/>
<polygon fill="#63b8ff" stroke="#63b8ff" points="110.5,-132.16 121.09,-132.49 113.01,-125.63 110.5,-132.16"/>
</g>
<!-- Node3 -->
<g id="node3" class="node">
<title>Node3</title>
<g id="a_node3"><a xlink:href="class_o_c_a_1_1_c_a_f_e_v_d_b_1_1_service_1_1_v_calendar_service.html#aa25cdcd89ba57212663eaafec422453d" target="_top" xlink:title=" ">
<polygon fill="white" stroke="#666666" points="263,-115.5 102,-115.5 102,-85.5 263,-85.5 263,-115.5"/>
<text text-anchor="start" x="110" y="-103.5" font-family="Helvetica,sans-Serif" font-size="10.00">OCA\CAFEVDB\Service</text>
<text text-anchor="middle" x="182.5" y="-92.5" font-family="Helvetica,sans-Serif" font-size="10.00">\VCalendarService\getVCalendar</text>
</a>
</g>
</g>
<!-- Node1&#45;&gt;Node3 -->
<g id="edge2" class="edge">
<title>Node1&#45;&gt;Node3</title>
<path fill="none" stroke="#63b8ff" d="M66.37,-81.77C73.74,-82.97 81.93,-84.3 90.44,-85.68"/>
<polygon fill="#63b8ff" stroke="#63b8ff" points="89.85,-89.13 100.28,-87.28 90.97,-82.22 89.85,-89.13"/>
</g>
<!-- Node4 -->
<g id="node4" class="node">
<title>Node4</title>
<g id="a_node4"><a xlink:href="class_o_c_a_1_1_c_a_f_e_v_d_b_1_1_service_1_1_v_calendar_service.html#a2dad03f32dc06c2aa1711b0f2243c18d" target="_top" xlink:title="Return a reference to the object contained in a Sabre VCALENDAR object.">
<polygon fill="white" stroke="#666666" points="257.5,-67.5 107.5,-67.5 107.5,-37.5 257.5,-37.5 257.5,-67.5"/>
<text text-anchor="start" x="115.5" y="-55.5" font-family="Helvetica,sans-Serif" font-size="10.00">OCA\CAFEVDB\Service</text>
<text text-anchor="middle" x="182.5" y="-44.5" font-family="Helvetica,sans-Serif" font-size="10.00">\VCalendarService\getVObject</text>
</a>
</g>
</g>
<!-- Node1&#45;&gt;Node4 -->
<g id="edge3" class="edge">
<title>Node1&#45;&gt;Node4</title>
<path fill="none" stroke="#63b8ff" d="M66.37,-71.23C75.37,-69.77 85.59,-68.11 96.13,-66.39"/>
<polygon fill="#63b8ff" stroke="#63b8ff" points="96.39,-69.89 105.7,-64.83 95.27,-62.99 96.39,-69.89"/>
</g>
<!-- Node5 -->
<g id="node5" class="node">
<title>Node5</title>
<g id="a_node5"><a xlink:href="class_o_c_a_1_1_c_a_f_e_v_d_b_1_1_service_1_1_events_service.html#a8aa4a7a29d5680924f966b2fbc64a901" target="_top" xlink:title="Unconditionally unregister the given event with the given project.">
<polygon fill="white" stroke="#666666" points="212,-19 153,-19 153,0 212,0 212,-19"/>
<text text-anchor="middle" x="182.5" y="-7" font-family="Helvetica,sans-Serif" font-size="10.00">unregister</text>
</a>
</g>
</g>
<!-- Node1&#45;&gt;Node5 -->
<g id="edge4" class="edge">
<title>Node1&#45;&gt;Node5</title>
<path fill="none" stroke="#63b8ff" d="M45.2,-66.54C58.04,-55.63 80.14,-38.38 102,-28.5 114.4,-22.89 128.67,-18.82 141.66,-15.92"/>
<polygon fill="#63b8ff" stroke="#63b8ff" points="142.1,-19.4 151.19,-13.97 140.69,-12.55 142.1,-19.4"/>
</g>
</g>
</svg>
