<?xml version="1.0" encoding="UTF-8" standalone="no"?>
<!DOCTYPE svg PUBLIC "-//W3C//DTD SVG 1.1//EN"
 "http://www.w3.org/Graphics/SVG/1.1/DTD/svg11.dtd">
<!-- Generated by graphviz version 7.1.0 (20230121.1956)
 -->
<!-- Title: getLocale Pages: 1 -->
<svg width="219pt" height="193pt"
 viewBox="0.00 0.00 219.00 193.00" xmlns="http://www.w3.org/2000/svg" xmlns:xlink="http://www.w3.org/1999/xlink">
<g id="graph0" class="graph" transform="scale(1 1) rotate(0) translate(4 189)">
<title>getLocale</title>
<!-- Node1 -->
<g id="node1" class="node">
<title>Node1</title>
<g id="a_node1"><a xlink:title="Return the locale as string, e.g.">
<polygon fill="#999999" stroke="#666666" points="211,-93 152,-93 152,-74 211,-74 211,-93"/>
<text text-anchor="middle" x="181.5" y="-81" font-family="Helvetica,sans-Serif" font-size="10.00">getLocale</text>
</a>
</g>
</g>
<!-- Node2 -->
<g id="node2" class="node">
<title>Node2</title>
<g id="a_node2"><a xlink:href="class_o_c_a_1_1_c_a_f_e_v_d_b_1_1_service_1_1_config_service.html#a36b4b01cbb88f7176a72e268695c0d6f" target="_top" xlink:title="Convert a float value in the given or default locale.">
<polygon fill="white" stroke="#666666" points="87.5,-185 28.5,-185 28.5,-166 87.5,-166 87.5,-185"/>
<text text-anchor="middle" x="58" y="-173" font-family="Helvetica,sans-Serif" font-size="10.00">floatValue</text>
</a>
</g>
</g>
<!-- Node1&#45;&gt;Node2 -->
<g id="edge1" class="edge">
<title>Node1&#45;&gt;Node2</title>
<path fill="none" stroke="#63b8ff" d="M168.22,-102.79C156.64,-119.51 137.84,-143.19 116,-157.5 107.58,-163.02 97.36,-166.94 87.91,-169.68"/>
<polygon fill="#63b8ff" stroke="#63b8ff" points="170.98,-104.95 173.61,-94.69 165.16,-101.07 170.98,-104.95"/>
</g>
<!-- Node3 -->
<g id="node3" class="node">
<title>Node3</title>
<g id="a_node3"><a xlink:href="class_o_c_a_1_1_c_a_f_e_v_d_b_1_1_service_1_1_config_service.html#ad50ea5d1877a5adc2e231dc935b7bffc" target="_top" xlink:title="Return the language part of the current or given locale.">
<polygon fill="white" stroke="#666666" points="94,-148 22,-148 22,-129 94,-129 94,-148"/>
<text text-anchor="middle" x="58" y="-136" font-family="Helvetica,sans-Serif" font-size="10.00">getLanguage</text>
</a>
</g>
</g>
<!-- Node1&#45;&gt;Node3 -->
<g id="edge2" class="edge">
<title>Node1&#45;&gt;Node3</title>
<path fill="none" stroke="#63b8ff" d="M155.8,-99.34C144.05,-106.43 129.62,-114.52 116,-120.5 109.16,-123.5 101.66,-126.24 94.41,-128.62"/>
<polygon fill="#63b8ff" stroke="#63b8ff" points="157.39,-102.47 164.06,-94.23 153.71,-96.51 157.39,-102.47"/>
</g>
<!-- Node4 -->
<g id="node4" class="node">
<title>Node4</title>
<g id="a_node4"><a xlink:href="class_o_c_a_1_1_c_a_f_e_v_d_b_1_1_service_1_1_config_service.html#aebf35da354e45247c2ee85031bfa3a82" target="_top" xlink:title=" ">
<polygon fill="white" stroke="#666666" points="112,-93 4,-93 4,-74 112,-74 112,-93"/>
<text text-anchor="middle" x="58" y="-81" font-family="Helvetica,sans-Serif" font-size="10.00">localeCountryNames</text>
</a>
</g>
</g>
<!-- Node1&#45;&gt;Node4 -->
<g id="edge3" class="edge">
<title>Node1&#45;&gt;Node4</title>
<path fill="none" stroke="#63b8ff" d="M140.38,-83.5C131.41,-83.5 121.76,-83.5 112.35,-83.5"/>
<polygon fill="#63b8ff" stroke="#63b8ff" points="140.19,-87 150.19,-83.5 140.19,-80 140.19,-87"/>
</g>
<!-- Node5 -->
<g id="node5" class="node">
<title>Node5</title>
<g id="a_node5"><a xlink:href="class_o_c_a_1_1_c_a_f_e_v_d_b_1_1_service_1_1_config_service.html#a4c1dc0e4e1b0686a92c0f6486e91b7c6" target="_top" xlink:title=" ">
<polygon fill="white" stroke="#666666" points="116,-56 0,-56 0,-37 116,-37 116,-56"/>
<text text-anchor="middle" x="58" y="-44" font-family="Helvetica,sans-Serif" font-size="10.00">localeLanguageNames</text>
</a>
</g>
</g>
<!-- Node1&#45;&gt;Node5 -->
<g id="edge5" class="edge">
<title>Node1&#45;&gt;Node5</title>
<path fill="none" stroke="#63b8ff" d="M141.03,-71.48C124.99,-66.6 106.69,-61.02 91.44,-56.38"/>
<polygon fill="#63b8ff" stroke="#63b8ff" points="139.67,-74.73 150.26,-74.29 141.71,-68.03 139.67,-74.73"/>
</g>
<!-- Node6 -->
<g id="node6" class="node">
<title>Node6</title>
<g id="a_node6"><a xlink:href="class_o_c_a_1_1_c_a_f_e_v_d_b_1_1_service_1_1_config_service.html#aaeb05cf94149de0821a30628a8c7bcef" target="_top" xlink:title="Convert $value to a currency value in the given or the user&#39;s locale.">
<polygon fill="white" stroke="#666666" points="93,-19 23,-19 23,0 93,0 93,-19"/>
<text text-anchor="middle" x="58" y="-7" font-family="Helvetica,sans-Serif" font-size="10.00">moneyValue</text>
</a>
</g>
</g>
<!-- Node1&#45;&gt;Node6 -->
<g id="edge6" class="edge">
<title>Node1&#45;&gt;Node6</title>
<path fill="none" stroke="#63b8ff" d="M163.4,-65.68C151.15,-53.78 133.74,-38.51 116,-28.5 109.01,-24.55 101.06,-21.26 93.37,-18.59"/>
<polygon fill="#63b8ff" stroke="#63b8ff" points="160.73,-67.96 170.27,-72.57 165.69,-63.02 160.73,-67.96"/>
</g>
<!-- Node4&#45;&gt;Node4 -->
<g id="edge4" class="edge">
<title>Node4&#45;&gt;Node4</title>
<path fill="none" stroke="#63b8ff" d="M79.92,-104.43C77.18,-108.29 69.87,-111 58,-111 36.29,-111 29.85,-101.94 38.67,-93.37"/>
<polygon fill="#63b8ff" stroke="#63b8ff" points="83.36,-103.78 77.68,-94.84 76.55,-105.38 83.36,-103.78"/>
</g>
</g>
</svg>
