<?xml version="1.0" encoding="UTF-8" standalone="no"?>
<!DOCTYPE svg PUBLIC "-//W3C//DTD SVG 1.1//EN"
 "http://www.w3.org/Graphics/SVG/1.1/DTD/svg11.dtd">
<!-- Generated by graphviz version 7.1.0 (20230121.1956)
 -->
<!-- Title: selectOptions Pages: 1 -->
<svg width="321pt" height="76pt"
 viewBox="0.00 0.00 321.00 75.50" xmlns="http://www.w3.org/2000/svg" xmlns:xlink="http://www.w3.org/1999/xlink">
<g id="graph0" class="graph" transform="scale(1 1) rotate(0) translate(4 71.5)">
<title>selectOptions</title>
<!-- Node1 -->
<g id="node1" class="node">
<title>Node1</title>
<g id="a_node1"><a xlink:title="Emit select options.">
<polygon fill="#999999" stroke="#666666" points="313,-40 236,-40 236,-21 313,-21 313,-40"/>
<text text-anchor="middle" x="274.5" y="-28" font-family="Helvetica,sans-Serif" font-size="10.00">selectOptions</text>
</a>
</g>
</g>
<!-- Node2 -->
<g id="node2" class="node">
<title>Node2</title>
<g id="a_node2"><a xlink:href="class_o_c_a_1_1_c_a_f_e_v_d_b_1_1_controller_1_1_projects_controller.html#aadb9cd4b282a085e94eb61753d68beca" target="_top" xlink:title=" ">
<polygon fill="white" stroke="#666666" points="200,-67.5 0,-67.5 0,-37.5 200,-37.5 200,-67.5"/>
<text text-anchor="start" x="8" y="-55.5" font-family="Helvetica,sans-Serif" font-size="10.00">OCA\CAFEVDB\Controller</text>
<text text-anchor="middle" x="100" y="-44.5" font-family="Helvetica,sans-Serif" font-size="10.00">\ProjectsController\changeInstrumentation</text>
</a>
</g>
</g>
<!-- Node1&#45;&gt;Node2 -->
<g id="edge1" class="edge">
<title>Node1&#45;&gt;Node2</title>
<path fill="none" stroke="#63b8ff" d="M224.39,-36.76C216.71,-37.74 208.53,-38.79 200.19,-39.85"/>
<polygon fill="#63b8ff" stroke="#63b8ff" points="224.67,-40.26 234.14,-35.52 223.78,-33.31 224.67,-40.26"/>
</g>
<!-- Node3 -->
<g id="node3" class="node">
<title>Node3</title>
<g id="a_node3"><a xlink:href="class_o_c_a_1_1_c_a_f_e_v_d_b_1_1_page_renderer_1_1_util_1_1_navigation.html#a837271ead6442a4f5f535b9e4a1dcbee" target="_top" xlink:title="Simple select option array from flat value array.">
<polygon fill="white" stroke="#666666" points="153.5,-19 46.5,-19 46.5,0 153.5,0 153.5,-19"/>
<text text-anchor="middle" x="100" y="-7" font-family="Helvetica,sans-Serif" font-size="10.00">simpleSelectOptions</text>
</a>
</g>
</g>
<!-- Node1&#45;&gt;Node3 -->
<g id="edge2" class="edge">
<title>Node1&#45;&gt;Node3</title>
<path fill="none" stroke="#63b8ff" d="M224.51,-24.54C202.43,-21.85 176.33,-18.67 153.82,-15.93"/>
<polygon fill="#63b8ff" stroke="#63b8ff" points="223.79,-27.97 234.14,-25.71 224.64,-21.03 223.79,-27.97"/>
</g>
</g>
</svg>
