<?xml version="1.0" encoding="UTF-8" standalone="no"?>
<!DOCTYPE svg PUBLIC "-//W3C//DTD SVG 1.1//EN"
 "http://www.w3.org/Graphics/SVG/1.1/DTD/svg11.dtd">
<!-- Generated by graphviz version 7.1.0 (20230121.1956)
 -->
<!-- Title: getCommonDirectoryPrefix Pages: 1 -->
<svg width="365pt" height="76pt"
 viewBox="0.00 0.00 365.00 75.50" xmlns="http://www.w3.org/2000/svg" xmlns:xlink="http://www.w3.org/1999/xlink">
<g id="graph0" class="graph" transform="scale(1 1) rotate(0) translate(4 71.5)">
<title>getCommonDirectoryPrefix</title>
<!-- Node1 -->
<g id="node1" class="node">
<title>Node1</title>
<g id="a_node1"><a xlink:title="Return the name of the top&#45;level folder for the case that there is only a single folder at folder nes...">
<polygon fill="#999999" stroke="#666666" points="135,-40 0,-40 0,-21 135,-21 135,-40"/>
<text text-anchor="middle" x="67.5" y="-28" font-family="Helvetica,sans-Serif" font-size="10.00">getCommonDirectoryPrefix</text>
</a>
</g>
</g>
<!-- Node2 -->
<g id="node2" class="node">
<title>Node2</title>
<g id="a_node2"><a xlink:href="namespace_o_c_a_1_1_c_a_f_e_v_d_b_1_1_toolkit_1_1_traits.html#afeccc115bd3157d8f327e1d48b44af46" target="_top" xlink:title=" ">
<polygon fill="white" stroke="#666666" points="292,-67.5 171,-67.5 171,-37.5 292,-37.5 292,-67.5"/>
<text text-anchor="start" x="179" y="-55.5" font-family="Helvetica,sans-Serif" font-size="10.00">OCA\CAFEVDB\Toolkit</text>
<text text-anchor="middle" x="231.5" y="-44.5" font-family="Helvetica,sans-Serif" font-size="10.00">\Traits\getCommonPath</text>
</a>
</g>
</g>
<!-- Node1&#45;&gt;Node2 -->
<g id="edge1" class="edge">
<title>Node1&#45;&gt;Node2</title>
<path fill="none" stroke="#63b8ff" d="M135.33,-39.58C143.27,-40.65 151.39,-41.76 159.39,-42.84"/>
<polygon fill="#63b8ff" stroke="#63b8ff" points="158.69,-46.28 169.07,-44.16 159.63,-39.34 158.69,-46.28"/>
</g>
<!-- Node3 -->
<g id="node3" class="node">
<title>Node3</title>
<g id="a_node3"><a xlink:href="class_o_c_a_1_1_c_a_f_e_v_d_b_1_1_toolkit_1_1_service_1_1_archive_service.html#a7010e197d8dce475dfdd443c11dd7ee9" target="_top" xlink:title=" ">
<polygon fill="white" stroke="#666666" points="257,-19 206,-19 206,0 257,0 257,-19"/>
<text text-anchor="middle" x="231.5" y="-7" font-family="Helvetica,sans-Serif" font-size="10.00">getFiles</text>
</a>
</g>
</g>
<!-- Node1&#45;&gt;Node3 -->
<g id="edge2" class="edge">
<title>Node1&#45;&gt;Node3</title>
<path fill="none" stroke="#63b8ff" d="M135.33,-21.84C155.58,-19.21 177.05,-16.43 194.47,-14.17"/>
<polygon fill="#63b8ff" stroke="#63b8ff" points="194.84,-17.65 204.31,-12.9 193.94,-10.71 194.84,-17.65"/>
</g>
<!-- Node4 -->
<g id="node4" class="node">
<title>Node4</title>
<g id="a_node4"><a xlink:href="class_o_c_a_1_1_c_a_f_e_v_d_b_1_1_toolkit_1_1_service_1_1_archive_service.html#ac4bb04636b9ff49d1eb1bce172994d36" target="_top" xlink:title="Guard against undefined $this&#45;&gt;l.">
<polygon fill="white" stroke="#666666" points="357,-19 328,-19 328,0 357,0 357,-19"/>
<text text-anchor="middle" x="342.5" y="-7" font-family="Helvetica,sans-Serif" font-size="10.00">t</text>
</a>
</g>
</g>
<!-- Node3&#45;&gt;Node4 -->
<g id="edge3" class="edge">
<title>Node3&#45;&gt;Node4</title>
<path fill="none" stroke="#63b8ff" d="M257.23,-9.5C274.81,-9.5 298.34,-9.5 316.06,-9.5"/>
<polygon fill="#63b8ff" stroke="#63b8ff" points="316.01,-13 326.01,-9.5 316.01,-6 316.01,-13"/>
</g>
</g>
</svg>
