<?xml version="1.0" encoding="UTF-8" standalone="no"?>
<!DOCTYPE svg PUBLIC "-//W3C//DTD SVG 1.1//EN"
 "http://www.w3.org/Graphics/SVG/1.1/DTD/svg11.dtd">
<!-- Generated by graphviz version 7.1.0 (20230121.1956)
 -->
<!-- Title: updateVCalendarFromRequest Pages: 1 -->
<svg width="298pt" height="64pt"
 viewBox="0.00 0.00 298.00 64.00" xmlns="http://www.w3.org/2000/svg" xmlns:xlink="http://www.w3.org/1999/xlink">
<g id="graph0" class="graph" transform="scale(1 1) rotate(0) translate(4 60)">
<title>updateVCalendarFromRequest</title>
<!-- Node1 -->
<g id="node1" class="node">
<title>Node1</title>
<g id="a_node1"><a xlink:title="Updates an VCalendar Object from the request data.">
<polygon fill="#999999" stroke="#666666" points="151,-37 0,-37 0,-18 151,-18 151,-37"/>
<text text-anchor="middle" x="75.5" y="-25" font-family="Helvetica,sans-Serif" font-size="10.00">updateVCalendarFromRequest</text>
</a>
</g>
</g>
<!-- Node2 -->
<g id="node2" class="node">
<title>Node2</title>
<g id="a_node2"><a xlink:href="class_o_c_a_1_1_c_a_f_e_v_d_b_1_1_legacy_1_1_calendar_1_1_o_c___calendar___object.html#abeb36349d137f59529296be433ce51b4" target="_top" xlink:title="Returns the options for an yearly repeating event which occurs on specific month of the year.">
<polygon fill="white" stroke="#666666" points="290,-56 187,-56 187,-37 290,-37 290,-56"/>
<text text-anchor="middle" x="238.5" y="-44" font-family="Helvetica,sans-Serif" font-size="10.00">getByMonthOptions</text>
</a>
</g>
</g>
<!-- Node1&#45;&gt;Node2 -->
<g id="edge1" class="edge">
<title>Node1&#45;&gt;Node2</title>
<path fill="none" stroke="#63b8ff" d="M151.34,-36.33C159.4,-37.28 167.53,-38.24 175.41,-39.17"/>
<polygon fill="#63b8ff" stroke="#63b8ff" points="174.9,-42.64 185.24,-40.33 175.72,-35.68 174.9,-42.64"/>
</g>
<!-- Node3 -->
<g id="node3" class="node">
<title>Node3</title>
<g id="a_node3"><a xlink:href="class_o_c_a_1_1_c_a_f_e_v_d_b_1_1_legacy_1_1_calendar_1_1_o_c___calendar___object.html#ad515ca85336eabd9bab2062442e733f8" target="_top" xlink:title="Returns the options for an weekly repeating event.">
<polygon fill="white" stroke="#666666" points="286.5,-19 190.5,-19 190.5,0 286.5,0 286.5,-19"/>
<text text-anchor="middle" x="238.5" y="-7" font-family="Helvetica,sans-Serif" font-size="10.00">getWeeklyOptions</text>
</a>
</g>
</g>
<!-- Node1&#45;&gt;Node3 -->
<g id="edge2" class="edge">
<title>Node1&#45;&gt;Node3</title>
<path fill="none" stroke="#63b8ff" d="M151.34,-19.13C160.7,-18.09 170.15,-17.03 179.2,-16.02"/>
<polygon fill="#63b8ff" stroke="#63b8ff" points="179.36,-19.52 188.91,-14.93 178.58,-12.57 179.36,-19.52"/>
</g>
</g>
</svg>
