<?xml version="1.0" encoding="UTF-8" standalone="no"?>
<!DOCTYPE svg PUBLIC "-//W3C//DTD SVG 1.1//EN"
 "http://www.w3.org/Graphics/SVG/1.1/DTD/svg11.dtd">
<!-- Generated by graphviz version 7.1.0 (20230121.1956)
 -->
<!-- Title: exportEvent Pages: 1 -->
<svg width="330pt" height="82pt"
 viewBox="0.00 0.00 330.00 82.00" xmlns="http://www.w3.org/2000/svg" xmlns:xlink="http://www.w3.org/1999/xlink">
<g id="graph0" class="graph" transform="scale(1 1) rotate(0) translate(4 78)">
<title>exportEvent</title>
<!-- Node1 -->
<g id="node1" class="node">
<title>Node1</title>
<g id="a_node1"><a xlink:title=" ">
<polygon fill="#999999" stroke="#666666" points="69,-55 0,-55 0,-36 69,-36 69,-55"/>
<text text-anchor="middle" x="34.5" y="-43" font-family="Helvetica,sans-Serif" font-size="10.00">exportEvent</text>
</a>
</g>
</g>
<!-- Node2 -->
<g id="node2" class="node">
<title>Node2</title>
<g id="a_node2"><a xlink:href="class_o_c_a_1_1_c_a_f_e_v_d_b_1_1_controller_1_1_legacy_events_controller.html#aa6de6a8a34ec5b29770b561cef8da649" target="_top" xlink:title=" ">
<polygon fill="white" stroke="#666666" points="182,-74 108,-74 108,-55 182,-55 182,-74"/>
<text text-anchor="middle" x="145" y="-62" font-family="Helvetica,sans-Serif" font-size="10.00">accessClass</text>
</a>
</g>
</g>
<!-- Node1&#45;&gt;Node2 -->
<g id="edge1" class="edge">
<title>Node1&#45;&gt;Node2</title>
<path fill="none" stroke="#63b8ff" d="M69.24,-51.41C77.9,-52.93 87.39,-54.59 96.61,-56.2"/>
<polygon fill="#63b8ff" stroke="#63b8ff" points="95.7,-59.6 106.16,-57.87 96.91,-52.7 95.7,-59.6"/>
</g>
<!-- Node3 -->
<g id="node3" class="node">
<title>Node3</title>
<g id="a_node3"><a xlink:href="class_o_c_a_1_1_c_a_f_e_v_d_b_1_1_controller_1_1_legacy_events_controller.html#a2e81591e72e8b5131501fadb6ad98a91" target="_top" xlink:title="Exports an event and convert all times to UTC.">
<polygon fill="white" stroke="#666666" points="185,-37 105,-37 105,-18 185,-18 185,-37"/>
<text text-anchor="middle" x="145" y="-25" font-family="Helvetica,sans-Serif" font-size="10.00">generateEvent</text>
</a>
</g>
</g>
<!-- Node1&#45;&gt;Node3 -->
<g id="edge2" class="edge">
<title>Node1&#45;&gt;Node3</title>
<path fill="none" stroke="#63b8ff" d="M69.24,-39.9C76.85,-38.64 85.09,-37.27 93.23,-35.92"/>
<polygon fill="#63b8ff" stroke="#63b8ff" points="93.8,-39.38 103.09,-34.29 92.65,-32.47 93.8,-39.38"/>
</g>
<!-- Node4 -->
<g id="node4" class="node">
<title>Node4</title>
<g id="a_node4"><a xlink:href="class_o_c_a_1_1_c_a_f_e_v_d_b_1_1_controller_1_1_legacy_events_controller.html#a66debc077e1a747c0da16f296c9487c7" target="_top" xlink:title="Fixes new line breaks (fixes problems with Apple iCal).">
<polygon fill="white" stroke="#666666" points="309.5,-56 233.5,-56 233.5,-37 309.5,-37 309.5,-56"/>
<text text-anchor="middle" x="271.5" y="-44" font-family="Helvetica,sans-Serif" font-size="10.00">fixLineBreaks</text>
</a>
</g>
</g>
<!-- Node3&#45;&gt;Node4 -->
<g id="edge3" class="edge">
<title>Node3&#45;&gt;Node4</title>
<path fill="none" stroke="#63b8ff" d="M185.39,-33.51C196.95,-35.27 209.72,-37.22 221.78,-39.06"/>
<polygon fill="#63b8ff" stroke="#63b8ff" points="221.15,-42.51 231.57,-40.56 222.21,-35.59 221.15,-42.51"/>
</g>
<!-- Node5 -->
<g id="node5" class="node">
<title>Node5</title>
<g id="a_node5"><a xlink:href="class_o_c_a_1_1_c_a_f_e_v_d_b_1_1_controller_1_1_legacy_events_controller.html#ab7d3c1c71289090ef10741bd4be4331a" target="_top" xlink:title="Serializes the VEVENT/VTODO/VJOURNAL with UTC dates.">
<polygon fill="white" stroke="#666666" points="322,-19 221,-19 221,0 322,0 322,-19"/>
<text text-anchor="middle" x="271.5" y="-7" font-family="Helvetica,sans-Serif" font-size="10.00">generateEventData</text>
</a>
</g>
</g>
<!-- Node3&#45;&gt;Node5 -->
<g id="edge4" class="edge">
<title>Node3&#45;&gt;Node5</title>
<path fill="none" stroke="#63b8ff" d="M185.39,-21.8C193.13,-20.69 201.42,-19.49 209.67,-18.29"/>
<polygon fill="#63b8ff" stroke="#63b8ff" points="209.95,-21.79 219.35,-16.9 208.95,-14.86 209.95,-21.79"/>
</g>
</g>
</svg>
