<?xml version="1.0" encoding="UTF-8" standalone="no"?>
<!DOCTYPE svg PUBLIC "-//W3C//DTD SVG 1.1//EN"
 "http://www.w3.org/Graphics/SVG/1.1/DTD/svg11.dtd">
<!-- Generated by graphviz version 7.1.0 (20230121.1956)
 -->
<!-- Title: getSealCryptor Pages: 1 -->
<svg width="219pt" height="64pt"
 viewBox="0.00 0.00 219.00 64.00" xmlns="http://www.w3.org/2000/svg" xmlns:xlink="http://www.w3.org/1999/xlink">
<g id="graph0" class="graph" transform="scale(1 1) rotate(0) translate(4 60)">
<title>getSealCryptor</title>
<!-- Node1 -->
<g id="node1" class="node">
<title>Node1</title>
<g id="a_node1"><a xlink:title=" ">
<polygon fill="#999999" stroke="#666666" points="211,-37 129,-37 129,-18 211,-18 211,-37"/>
<text text-anchor="middle" x="170" y="-25" font-family="Helvetica,sans-Serif" font-size="10.00">getSealCryptor</text>
</a>
</g>
</g>
<!-- Node2 -->
<g id="node2" class="node">
<title>Node2</title>
<g id="a_node2"><a xlink:href="class_o_c_a_1_1_c_a_f_e_v_d_b_1_1_database_1_1_doctrine_1_1_o_r_m_1_1_listeners_1_1_transformable_1_1_encryption.html#a56871e3b83fd4a24d3952ea567804d43" target="_top" xlink:title="Decrypt.">
<polygon fill="white" stroke="#666666" points="93,-56 0,-56 0,-37 93,-37 93,-56"/>
<text text-anchor="middle" x="46.5" y="-44" font-family="Helvetica,sans-Serif" font-size="10.00">reverseTransform</text>
</a>
</g>
</g>
<!-- Node1&#45;&gt;Node2 -->
<g id="edge1" class="edge">
<title>Node1&#45;&gt;Node2</title>
<path fill="none" stroke="#63b8ff" d="M117.4,-35.57C109.37,-36.83 101.12,-38.11 93.23,-39.35"/>
<polygon fill="#63b8ff" stroke="#63b8ff" points="117.71,-39.06 127.05,-34.06 116.63,-32.15 117.71,-39.06"/>
</g>
<!-- Node3 -->
<g id="node3" class="node">
<title>Node3</title>
<g id="a_node3"><a xlink:href="class_o_c_a_1_1_c_a_f_e_v_d_b_1_1_database_1_1_doctrine_1_1_o_r_m_1_1_listeners_1_1_transformable_1_1_encryption.html#a9f8fa0d399f047041f137695d9378421" target="_top" xlink:title="Forward transform to data&#45;base.">
<polygon fill="white" stroke="#666666" points="75.5,-19 17.5,-19 17.5,0 75.5,0 75.5,-19"/>
<text text-anchor="middle" x="46.5" y="-7" font-family="Helvetica,sans-Serif" font-size="10.00">transform</text>
</a>
</g>
</g>
<!-- Node1&#45;&gt;Node3 -->
<g id="edge2" class="edge">
<title>Node1&#45;&gt;Node3</title>
<path fill="none" stroke="#63b8ff" d="M117.35,-19.85C103.14,-17.74 88.25,-15.54 75.89,-13.71"/>
<polygon fill="#63b8ff" stroke="#63b8ff" points="116.64,-23.28 127.05,-21.28 117.67,-16.36 116.64,-23.28"/>
</g>
</g>
</svg>
