<?xml version="1.0" encoding="UTF-8" standalone="no"?>
<!DOCTYPE svg PUBLIC "-//W3C//DTD SVG 1.1//EN"
 "http://www.w3.org/Graphics/SVG/1.1/DTD/svg11.dtd">
<!-- Generated by graphviz version 7.1.0 (20230121.1956)
 -->
<!-- Title: ParticipantFieldDropUnusedColumns Pages: 1 -->
<svg width="147pt" height="148pt"
 viewBox="0.00 0.00 147.00 148.00" xmlns="http://www.w3.org/2000/svg" xmlns:xlink="http://www.w3.org/1999/xlink">
<g id="graph0" class="graph" transform="scale(1 1) rotate(0) translate(4 144)">
<title>ParticipantFieldDropUnusedColumns</title>
<!-- Node1 -->
<g id="node1" class="node">
<title>Node1</title>
<g id="a_node1"><a xlink:title="Change participantAccess field to enum.">
<polygon fill="#999999" stroke="#666666" points="139,-30 0,-30 0,0 139,0 139,-30"/>
<text text-anchor="start" x="8" y="-18" font-family="Helvetica,sans-Serif" font-size="10.00">ParticipantFieldDropUnused</text>
<text text-anchor="middle" x="69.5" y="-7" font-family="Helvetica,sans-Serif" font-size="10.00">Columns</text>
</a>
</g>
</g>
<!-- Node2 -->
<g id="node2" class="node">
<title>Node2</title>
<g id="a_node2"><a xlink:href="class_o_c_a_1_1_c_a_f_e_v_d_b_1_1_maintenance_1_1_migrations_1_1_abstract_migration.html" target="_top" xlink:title="Abstract migration class, the derived classes have to fill AbstractMigration::$sql.">
<polygon fill="white" stroke="#666666" points="116,-85 23,-85 23,-66 116,-66 116,-85"/>
<text text-anchor="middle" x="69.5" y="-73" font-family="Helvetica,sans-Serif" font-size="10.00">AbstractMigration</text>
</a>
</g>
</g>
<!-- Node2&#45;&gt;Node1 -->
<g id="edge1" class="edge">
<title>Node2&#45;&gt;Node1</title>
<path fill="none" stroke="#63b8ff" d="M69.5,-54.51C69.5,-46.49 69.5,-37.43 69.5,-30.11"/>
<polygon fill="#63b8ff" stroke="#63b8ff" points="66,-54.35 69.5,-64.35 73,-54.35 66,-54.35"/>
</g>
<!-- Node3 -->
<g id="node3" class="node">
<title>Node3</title>
<g id="a_node3"><a xlink:href="interface_o_c_a_1_1_c_a_f_e_v_d_b_1_1_maintenance_1_1_i_migration.html" target="_top" xlink:title="Uni&#45;directional migrations for the orchestra DB.">
<polygon fill="white" stroke="#666666" points="99,-140 40,-140 40,-121 99,-121 99,-140"/>
<text text-anchor="middle" x="69.5" y="-128" font-family="Helvetica,sans-Serif" font-size="10.00">IMigration</text>
</a>
</g>
</g>
<!-- Node3&#45;&gt;Node2 -->
<g id="edge2" class="edge">
<title>Node3&#45;&gt;Node2</title>
<path fill="none" stroke="#63b8ff" d="M69.5,-109.35C69.5,-101.1 69.5,-91.97 69.5,-85.44"/>
<polygon fill="#63b8ff" stroke="#63b8ff" points="66,-109.23 69.5,-119.23 73,-109.23 66,-109.23"/>
</g>
</g>
</svg>
