<?xml version="1.0" encoding="UTF-8" standalone="no"?>
<!DOCTYPE svg PUBLIC "-//W3C//DTD SVG 1.1//EN"
 "http://www.w3.org/Graphics/SVG/1.1/DTD/svg11.dtd">
<!-- Generated by graphviz version 7.1.0 (20230121.1956)
 -->
<!-- Title: makeJoinTableField Pages: 1 -->
<svg width="558pt" height="178pt"
 viewBox="0.00 0.00 558.00 178.00" xmlns="http://www.w3.org/2000/svg" xmlns:xlink="http://www.w3.org/1999/xlink">
<g id="graph0" class="graph" transform="scale(1 1) rotate(0) translate(4 174)">
<title>makeJoinTableField</title>
<!-- Node1 -->
<g id="node1" class="node">
<title>Node1</title>
<g id="a_node1"><a xlink:title="Generate a join&#45;table field, given join&#45;table and field name.">
<polygon fill="#999999" stroke="#666666" points="103,-77 0,-77 0,-58 103,-58 103,-77"/>
<text text-anchor="middle" x="51.5" y="-65" font-family="Helvetica,sans-Serif" font-size="10.00">makeJoinTableField</text>
</a>
</g>
</g>
<!-- Node2 -->
<g id="node2" class="node">
<title>Node2</title>
<g id="a_node2"><a xlink:href="class_o_c_a_1_1_c_a_f_e_v_d_b_1_1_page_renderer_1_1_p_m_e_table_view_base.html#a8a9d6dd0754451d7214ed760a2179bd4" target="_top" xlink:title="Add a &quot;slug&quot; as tooltips&#45;index and css&#45;class.">
<polygon fill="white" stroke="#666666" points="231,-151 179,-151 179,-132 231,-132 231,-151"/>
<text text-anchor="middle" x="205" y="-139" font-family="Helvetica,sans-Serif" font-size="10.00">addSlug</text>
</a>
</g>
</g>
<!-- Node1&#45;&gt;Node2 -->
<g id="edge1" class="edge">
<title>Node1&#45;&gt;Node2</title>
<path fill="none" stroke="#63b8ff" d="M70.17,-77.45C87.5,-87.07 114.78,-101.87 139,-113.5 148.76,-118.19 159.5,-122.97 169.4,-127.22"/>
<polygon fill="#63b8ff" stroke="#63b8ff" points="167.74,-130.32 178.32,-131 170.48,-123.87 167.74,-130.32"/>
</g>
<!-- Node5 -->
<g id="node5" class="node">
<title>Node5</title>
<g id="a_node5"><a xlink:href="class_o_c_a_1_1_c_a_f_e_v_d_b_1_1_common_1_1_util.html#a3ad8a4109147715b8c5573d1dbdb2d3d" target="_top" xlink:title="Merge $arrays recursively where later arguments in the list override the values of previous arguments...">
<polygon fill="white" stroke="#666666" points="271,-104.5 139,-104.5 139,-74.5 271,-74.5 271,-104.5"/>
<text text-anchor="start" x="147" y="-92.5" font-family="Helvetica,sans-Serif" font-size="10.00">OCA\CAFEVDB\Common</text>
<text text-anchor="middle" x="205" y="-81.5" font-family="Helvetica,sans-Serif" font-size="10.00">\Util\arrayMergeRecursive</text>
</a>
</g>
</g>
<!-- Node1&#45;&gt;Node5 -->
<g id="edge5" class="edge">
<title>Node1&#45;&gt;Node5</title>
<path fill="none" stroke="#63b8ff" d="M103.37,-74.89C111.17,-76.02 119.37,-77.21 127.57,-78.4"/>
<polygon fill="#63b8ff" stroke="#63b8ff" points="126.84,-81.83 137.24,-79.81 127.85,-74.9 126.84,-81.83"/>
</g>
<!-- Node7 -->
<g id="node7" class="node">
<title>Node7</title>
<g id="a_node7"><a xlink:href="class_o_c_a_1_1_c_a_f_e_v_d_b_1_1_page_renderer_1_1_p_m_e_table_view_base.html#abe18704ee0189ac55323c93db488770c" target="_top" xlink:title="The name of the field&#45;descriptor for a join&#45;table field referencing a master&#45;join&#45;table.">
<polygon fill="white" stroke="#666666" points="256,-56 154,-56 154,-37 256,-37 256,-56"/>
<text text-anchor="middle" x="205" y="-44" font-family="Helvetica,sans-Serif" font-size="10.00">joinTableFieldName</text>
</a>
</g>
</g>
<!-- Node1&#45;&gt;Node7 -->
<g id="edge8" class="edge">
<title>Node1&#45;&gt;Node7</title>
<path fill="none" stroke="#63b8ff" d="M103.37,-60.45C115.87,-58.72 129.38,-56.84 142.33,-55.05"/>
<polygon fill="#63b8ff" stroke="#63b8ff" points="142.6,-58.54 152.02,-53.7 141.64,-51.61 142.6,-58.54"/>
</g>
<!-- Node8 -->
<g id="node8" class="node">
<title>Node8</title>
<g id="a_node8"><a xlink:href="class_o_c_a_1_1_c_a_f_e_v_d_b_1_1_page_renderer_1_1_p_m_e_table_view_base.html#a67e29f07640bea5f1c3132bb88270a2b" target="_top" xlink:title="The name of the master join table field which triggers PME to actually do the join.">
<polygon fill="white" stroke="#666666" points="271,-19 139,-19 139,0 271,0 271,-19"/>
<text text-anchor="middle" x="205" y="-7" font-family="Helvetica,sans-Serif" font-size="10.00">joinTableMasterFieldName</text>
</a>
</g>
</g>
<!-- Node1&#45;&gt;Node8 -->
<g id="edge9" class="edge">
<title>Node1&#45;&gt;Node8</title>
<path fill="none" stroke="#63b8ff" d="M71.7,-57.52C88.98,-48.8 115.23,-36.22 139,-27.5 143.64,-25.8 148.52,-24.17 153.42,-22.63"/>
<polygon fill="#63b8ff" stroke="#63b8ff" points="154.11,-26.08 162.69,-19.86 152.11,-19.37 154.11,-26.08"/>
</g>
<!-- Node3 -->
<g id="node3" class="node">
<title>Node3</title>
<g id="a_node3"><a xlink:href="class_o_c_a_1_1_c_a_f_e_v_d_b_1_1_page_renderer_1_1_p_m_e_table_view_base.html#aee57cb8d60602879f6a65e257cdcbf63" target="_top" xlink:title=" ">
<polygon fill="white" stroke="#666666" points="550,-170 492,-170 492,-151 550,-151 550,-170"/>
<text text-anchor="middle" x="521" y="-158" font-family="Helvetica,sans-Serif" font-size="10.00">cssClass</text>
</a>
</g>
</g>
<!-- Node2&#45;&gt;Node3 -->
<g id="edge2" class="edge">
<title>Node2&#45;&gt;Node3</title>
<path fill="none" stroke="#63b8ff" d="M231.14,-147.58C251.46,-152.16 280.89,-158.07 307,-160.5 367.24,-166.12 437.49,-164.55 480.34,-162.69"/>
<polygon fill="#63b8ff" stroke="#63b8ff" points="480.33,-166.2 490.16,-162.24 480.01,-159.21 480.33,-166.2"/>
</g>
<!-- Node4 -->
<g id="node4" class="node">
<title>Node4</title>
<g id="a_node4"><a xlink:href="class_o_c_a_1_1_c_a_f_e_v_d_b_1_1_page_renderer_1_1_p_m_e_table_view_base.html#a166d2dbd24c4913a9461c5813bbb4232" target="_top" xlink:title="Generate a &quot;unified&quot; tooltip&#45;slug in order to obtain tool&#45;tips from the ToolTipsService.">
<polygon fill="white" stroke="#666666" points="412.5,-151 350.5,-151 350.5,-132 412.5,-132 412.5,-151"/>
<text text-anchor="middle" x="381.5" y="-139" font-family="Helvetica,sans-Serif" font-size="10.00">tooltipSlug</text>
</a>
</g>
</g>
<!-- Node2&#45;&gt;Node4 -->
<g id="edge3" class="edge">
<title>Node2&#45;&gt;Node4</title>
<path fill="none" stroke="#63b8ff" d="M231.37,-141.5C259.53,-141.5 305.4,-141.5 338.84,-141.5"/>
<polygon fill="#63b8ff" stroke="#63b8ff" points="338.59,-145 348.59,-141.5 338.59,-138 338.59,-145"/>
</g>
<!-- Node4&#45;&gt;Node3 -->
<g id="edge4" class="edge">
<title>Node4&#45;&gt;Node3</title>
<path fill="none" stroke="#63b8ff" d="M412.67,-145.67C432.64,-148.43 459.03,-152.08 480.65,-155.06"/>
<polygon fill="#63b8ff" stroke="#63b8ff" points="479.89,-158.49 490.27,-156.39 480.85,-151.56 479.89,-158.49"/>
</g>
<!-- Node6 -->
<g id="node6" class="node">
<title>Node6</title>
<g id="a_node6"><a xlink:href="class_o_c_a_1_1_c_a_f_e_v_d_b_1_1_common_1_1_util.html#a9396752fa41df5ffcd301d52263367f9" target="_top" xlink:title="Inner work&#45;horse for arrayMergeRecursive.">
<polygon fill="white" stroke="#666666" points="456,-95.5 307,-95.5 307,-65.5 456,-65.5 456,-95.5"/>
<text text-anchor="start" x="315" y="-83.5" font-family="Helvetica,sans-Serif" font-size="10.00">OCA\CAFEVDB\Common</text>
<text text-anchor="middle" x="381.5" y="-72.5" font-family="Helvetica,sans-Serif" font-size="10.00">\Util\arrayMergeTwoRecursive</text>
</a>
</g>
</g>
<!-- Node5&#45;&gt;Node6 -->
<g id="edge6" class="edge">
<title>Node5&#45;&gt;Node6</title>
<path fill="none" stroke="#63b8ff" d="M271.47,-86.12C279.3,-85.72 287.37,-85.3 295.41,-84.89"/>
<polygon fill="#63b8ff" stroke="#63b8ff" points="295.43,-88.39 305.23,-84.38 295.07,-81.4 295.43,-88.39"/>
</g>
<!-- Node6&#45;&gt;Node6 -->
<g id="edge7" class="edge">
<title>Node6&#45;&gt;Node6</title>
<path fill="none" stroke="#63b8ff" d="M356.98,-95.78C351.53,-104.91 359.7,-113.5 381.5,-113.5 393.42,-113.5 401.27,-110.93 405.04,-107.11"/>
<polygon fill="#63b8ff" stroke="#63b8ff" points="408.51,-107.55 405.89,-97.28 401.54,-106.94 408.51,-107.55"/>
</g>
</g>
</svg>
