<?xml version="1.0" encoding="UTF-8" standalone="no"?>
<!DOCTYPE svg PUBLIC "-//W3C//DTD SVG 1.1//EN"
 "http://www.w3.org/Graphics/SVG/1.1/DTD/svg11.dtd">
<!-- Generated by graphviz version 7.1.0 (20230121.1956)
 -->
<!-- Title: getUserValue Pages: 1 -->
<svg width="303pt" height="140pt"
 viewBox="0.00 0.00 303.00 140.00" xmlns="http://www.w3.org/2000/svg" xmlns:xlink="http://www.w3.org/1999/xlink">
<g id="graph0" class="graph" transform="scale(1 1) rotate(0) translate(4 136)">
<title>getUserValue</title>
<!-- Node1 -->
<g id="node1" class="node">
<title>Node1</title>
<g id="a_node1"><a xlink:title=" ">
<polygon fill="#999999" stroke="#666666" points="295,-75 220,-75 220,-56 295,-56 295,-75"/>
<text text-anchor="middle" x="257.5" y="-63" font-family="Helvetica,sans-Serif" font-size="10.00">getUserValue</text>
</a>
</g>
</g>
<!-- Node2 -->
<g id="node2" class="node">
<title>Node2</title>
<g id="a_node2"><a xlink:href="class_o_c_a_1_1_c_a_f_e_v_d_b_1_1_crypto_1_1_cloud_asymmetric_key_storage.html#aef8f7425caa5f04d01398286d6854f88" target="_top" xlink:title="{Make a backup copy.Meant as safe&#45;guard while changing the key and recrypting encrypted data....">
<polygon fill="white" stroke="#666666" points="184,-132 101,-132 101,-113 184,-113 184,-132"/>
<text text-anchor="middle" x="142.5" y="-120" font-family="Helvetica,sans-Serif" font-size="10.00">backupKeyPair</text>
</a>
</g>
</g>
<!-- Node1&#45;&gt;Node2 -->
<g id="edge1" class="edge">
<title>Node1&#45;&gt;Node2</title>
<path fill="none" stroke="#63b8ff" d="M226.6,-80.58C206.46,-90.74 180.47,-103.85 162.96,-112.69"/>
<polygon fill="#63b8ff" stroke="#63b8ff" points="228.11,-83.74 235.47,-76.11 224.96,-77.49 228.11,-83.74"/>
</g>
<!-- Node3 -->
<g id="node3" class="node">
<title>Node3</title>
<g id="a_node3"><a xlink:href="class_o_c_a_1_1_c_a_f_e_v_d_b_1_1_crypto_1_1_cloud_asymmetric_key_storage.html#a042db151aba1db9684f8bee2e2c8575e" target="_top" xlink:title="{Retrieve an existing private/public key pair from the key&#45;storage.array&lt;string, string&gt; [ &#39;privateEn...">
<polygon fill="white" stroke="#666666" points="65,-75 0,-75 0,-56 65,-56 65,-75"/>
<text text-anchor="middle" x="32.5" y="-63" font-family="Helvetica,sans-Serif" font-size="10.00">getKeyPair</text>
</a>
</g>
</g>
<!-- Node1&#45;&gt;Node3 -->
<g id="edge2" class="edge">
<title>Node1&#45;&gt;Node3</title>
<path fill="none" stroke="#63b8ff" d="M208.28,-65.5C164.99,-65.5 102.66,-65.5 65.32,-65.5"/>
<polygon fill="#63b8ff" stroke="#63b8ff" points="208.16,-69 218.16,-65.5 208.16,-62 208.16,-69"/>
</g>
<!-- Node4 -->
<g id="node4" class="node">
<title>Node4</title>
<g id="a_node4"><a xlink:href="class_o_c_a_1_1_c_a_f_e_v_d_b_1_1_crypto_1_1_cloud_asymmetric_key_storage.html#a234d412fd67a827e1ef76aee0263a985" target="_top" xlink:title="{Retrieve an existing pulic key from the key&#45;storage.mixed|null Public key or null if none is found....">
<polygon fill="white" stroke="#666666" points="179.5,-56 105.5,-56 105.5,-37 179.5,-37 179.5,-56"/>
<text text-anchor="middle" x="142.5" y="-44" font-family="Helvetica,sans-Serif" font-size="10.00">getPublicKey</text>
</a>
</g>
</g>
<!-- Node1&#45;&gt;Node4 -->
<g id="edge3" class="edge">
<title>Node1&#45;&gt;Node4</title>
<path fill="none" stroke="#63b8ff" d="M208.63,-57.45C198.92,-55.82 188.85,-54.12 179.62,-52.57"/>
<polygon fill="#63b8ff" stroke="#63b8ff" points="207.88,-60.87 218.32,-59.08 209.04,-53.97 207.88,-60.87"/>
</g>
<!-- Node5 -->
<g id="node5" class="node">
<title>Node5</title>
<g id="a_node5"><a xlink:href="class_o_c_a_1_1_c_a_f_e_v_d_b_1_1_crypto_1_1_cloud_asymmetric_key_storage.html#a8f8149776a05e7ef6d08ea772f2b4ecc" target="_top" xlink:title="{Restores a backup previously generated by backupKeyPair().Overwrites the currently active key&#45;pair w...">
<polygon fill="white" stroke="#666666" points="183,-19 102,-19 102,0 183,0 183,-19"/>
<text text-anchor="middle" x="142.5" y="-7" font-family="Helvetica,sans-Serif" font-size="10.00">restoreKeyPair</text>
</a>
</g>
</g>
<!-- Node1&#45;&gt;Node5 -->
<g id="edge5" class="edge">
<title>Node1&#45;&gt;Node5</title>
<path fill="none" stroke="#63b8ff" d="M227.55,-50.45C214.32,-43.64 198.42,-35.56 184,-28.5 177.86,-25.49 171.16,-22.31 165,-19.43"/>
<polygon fill="#63b8ff" stroke="#63b8ff" points="225.67,-53.42 236.16,-54.89 228.88,-47.2 225.67,-53.42"/>
</g>
<!-- Node4&#45;&gt;Node3 -->
<g id="edge4" class="edge">
<title>Node4&#45;&gt;Node3</title>
<path fill="none" stroke="#63b8ff" d="M93.99,-54.86C84.23,-56.58 74.18,-58.34 65.14,-59.93"/>
<polygon fill="#63b8ff" stroke="#63b8ff" points="94.5,-58.32 103.75,-53.14 93.29,-51.43 94.5,-58.32"/>
</g>
</g>
</svg>
