<?xml version="1.0" encoding="UTF-8" standalone="no"?>
<!DOCTYPE svg PUBLIC "-//W3C//DTD SVG 1.1//EN"
 "http://www.w3.org/Graphics/SVG/1.1/DTD/svg11.dtd">
<!-- Generated by graphviz version 7.1.0 (20230121.1956)
 -->
<!-- Title: fillSheet Pages: 1 -->
<svg width="197pt" height="175pt"
 viewBox="0.00 0.00 197.00 175.00" xmlns="http://www.w3.org/2000/svg" xmlns:xlink="http://www.w3.org/1999/xlink">
<g id="graph0" class="graph" transform="scale(1 1) rotate(0) translate(4 171)">
<title>fillSheet</title>
<!-- Node1 -->
<g id="node1" class="node">
<title>Node1</title>
<g id="a_node1"><a xlink:title="Implement parent::fillSheet() for exactly.">
<polygon fill="#999999" stroke="#666666" points="52,-93 0,-93 0,-74 52,-74 52,-93"/>
<text text-anchor="middle" x="26" y="-81" font-family="Helvetica,sans-Serif" font-size="10.00">fillSheet</text>
</a>
</g>
</g>
<!-- Node2 -->
<g id="node2" class="node">
<title>Node2</title>
<g id="a_node2"><a xlink:href="class_o_c_a_1_1_c_a_f_e_v_d_b_1_1_page_renderer_1_1_export_1_1_insurance_spreadsheet_exporter.html#a7deff66b7e2473908bad7c08d12621d4" target="_top" xlink:title=" ">
<polygon fill="white" stroke="#666666" points="189,-167 88,-167 88,-148 189,-148 189,-167"/>
<text text-anchor="middle" x="138.5" y="-155" font-family="Helvetica,sans-Serif" font-size="10.00">dumpMusicianTotal</text>
</a>
</g>
</g>
<!-- Node1&#45;&gt;Node2 -->
<g id="edge1" class="edge">
<title>Node1&#45;&gt;Node2</title>
<path fill="none" stroke="#63b8ff" d="M35.57,-93.49C46.59,-105.8 66.86,-126.67 88,-139.5 89.98,-140.71 92.06,-141.85 94.2,-142.93"/>
<polygon fill="#63b8ff" stroke="#63b8ff" points="92.5,-146.01 103.06,-146.92 95.38,-139.62 92.5,-146.01"/>
</g>
<!-- Node3 -->
<g id="node3" class="node">
<title>Node3</title>
<g id="a_node3"><a xlink:href="class_o_c_a_1_1_c_a_f_e_v_d_b_1_1_page_renderer_1_1_export_1_1_insurance_spreadsheet_exporter.html#a2aee7c038ed5e1ec3362c47d8b383274" target="_top" xlink:title=" ">
<polygon fill="white" stroke="#666666" points="180,-130 97,-130 97,-111 180,-111 180,-130"/>
<text text-anchor="middle" x="138.5" y="-118" font-family="Helvetica,sans-Serif" font-size="10.00">dumpNextTotal</text>
</a>
</g>
</g>
<!-- Node1&#45;&gt;Node3 -->
<g id="edge2" class="edge">
<title>Node1&#45;&gt;Node3</title>
<path fill="none" stroke="#63b8ff" d="M52.35,-91.99C65.68,-96.45 82.34,-102.03 97.37,-107.06"/>
<polygon fill="#63b8ff" stroke="#63b8ff" points="95.93,-110.27 106.53,-110.13 98.16,-103.64 95.93,-110.27"/>
</g>
<!-- Node4 -->
<g id="node4" class="node">
<title>Node4</title>
<g id="a_node4"><a xlink:href="class_o_c_a_1_1_c_a_f_e_v_d_b_1_1_page_renderer_1_1_export_1_1_insurance_spreadsheet_exporter.html#a4ce173158fa4eced37caaa6080dc29bb" target="_top" xlink:title=" ">
<polygon fill="white" stroke="#666666" points="169,-93 108,-93 108,-74 169,-74 169,-93"/>
<text text-anchor="middle" x="138.5" y="-81" font-family="Helvetica,sans-Serif" font-size="10.00">dumpRow</text>
</a>
</g>
</g>
<!-- Node1&#45;&gt;Node4 -->
<g id="edge3" class="edge">
<title>Node1&#45;&gt;Node4</title>
<path fill="none" stroke="#63b8ff" d="M52.35,-83.5C65.32,-83.5 81.44,-83.5 96.15,-83.5"/>
<polygon fill="#63b8ff" stroke="#63b8ff" points="96.05,-87 106.05,-83.5 96.05,-80 96.05,-87"/>
</g>
<!-- Node5 -->
<g id="node5" class="node">
<title>Node5</title>
<g id="a_node5"><a xlink:href="class_o_c_a_1_1_c_a_f_e_v_d_b_1_1_page_renderer_1_1_export_1_1_insurance_spreadsheet_exporter.html#a7c15e6ca5c97971c7ac7497ef5acf446" target="_top" xlink:title=" ">
<polygon fill="white" stroke="#666666" points="169.5,-56 107.5,-56 107.5,-37 169.5,-37 169.5,-56"/>
<text text-anchor="middle" x="138.5" y="-44" font-family="Helvetica,sans-Serif" font-size="10.00">dumpTotal</text>
</a>
</g>
</g>
<!-- Node1&#45;&gt;Node5 -->
<g id="edge4" class="edge">
<title>Node1&#45;&gt;Node5</title>
<path fill="none" stroke="#63b8ff" d="M52.35,-75.01C65.68,-70.55 82.34,-64.97 97.37,-59.94"/>
<polygon fill="#63b8ff" stroke="#63b8ff" points="98.16,-63.36 106.53,-56.87 95.93,-56.73 98.16,-63.36"/>
</g>
<!-- Node6 -->
<g id="node6" class="node">
<title>Node6</title>
<g id="a_node6"><a xlink:href="class_o_c_a_1_1_c_a_f_e_v_d_b_1_1_page_renderer_1_1_export_1_1_insurance_spreadsheet_exporter.html#a03fdb22f72c224804909984bd4ed6e55" target="_top" xlink:title=" ">
<polygon fill="white" stroke="#666666" points="181.5,-19 95.5,-19 95.5,0 181.5,0 181.5,-19"/>
<text text-anchor="middle" x="138.5" y="-7" font-family="Helvetica,sans-Serif" font-size="10.00">generateHeader</text>
</a>
</g>
</g>
<!-- Node1&#45;&gt;Node6 -->
<g id="edge5" class="edge">
<title>Node1&#45;&gt;Node6</title>
<path fill="none" stroke="#63b8ff" d="M35.64,-73.76C46.74,-61.74 67.09,-41.32 88,-28.5 90.56,-26.93 93.27,-25.45 96.05,-24.07"/>
<polygon fill="#63b8ff" stroke="#63b8ff" points="97.23,-27.38 104.92,-20.09 94.36,-20.99 97.23,-27.38"/>
</g>
</g>
</svg>
