<?xml version="1.0" encoding="UTF-8" standalone="no"?>
<!DOCTYPE svg PUBLIC "-//W3C//DTD SVG 1.1//EN"
 "http://www.w3.org/Graphics/SVG/1.1/DTD/svg11.dtd">
<!-- Generated by graphviz version 7.1.0 (20230121.1956)
 -->
<!-- Title: filesize Pages: 1 -->
<svg width="515pt" height="65pt"
 viewBox="0.00 0.00 515.00 65.00" xmlns="http://www.w3.org/2000/svg" xmlns:xlink="http://www.w3.org/1999/xlink">
<g id="graph0" class="graph" transform="scale(1 1) rotate(0) translate(4 61)">
<title>filesize</title>
<!-- Node1 -->
<g id="node1" class="node">
<title>Node1</title>
<g id="a_node1"><a xlink:title="{}">
<polygon fill="#999999" stroke="#666666" points="47,-38 0,-38 0,-19 47,-19 47,-38"/>
<text text-anchor="middle" x="23.5" y="-26" font-family="Helvetica,sans-Serif" font-size="10.00">filesize</text>
</a>
</g>
</g>
<!-- Node2 -->
<g id="node2" class="node">
<title>Node2</title>
<g id="a_node2"><a xlink:href="class_o_c_a_1_1_c_a_f_e_v_d_b_1_1_storage_1_1_database_1_1_storage.html#a7ec90cd17ef214d5fe4280b13d7c144a" target="_top" xlink:title="Fetch the file entity corresponding to file&#45;name.">
<polygon fill="white" stroke="#666666" points="253,-38 159,-38 159,-19 253,-19 253,-38"/>
<text text-anchor="middle" x="206" y="-26" font-family="Helvetica,sans-Serif" font-size="10.00">fileFromFileName</text>
</a>
</g>
</g>
<!-- Node1&#45;&gt;Node2 -->
<g id="edge1" class="edge">
<title>Node1&#45;&gt;Node2</title>
<path fill="none" stroke="#63b8ff" d="M47.36,-28.5C72.42,-28.5 113.58,-28.5 147.56,-28.5"/>
<polygon fill="#63b8ff" stroke="#63b8ff" points="147.26,-32 157.26,-28.5 147.26,-25 147.26,-32"/>
</g>
<!-- Node6 -->
<g id="node6" class="node">
<title>Node6</title>
<g id="a_node6"><a xlink:href="class_o_c_a_1_1_c_a_f_e_v_d_b_1_1_storage_1_1_database_1_1_storage.html#a5877dd78fbe10fb5f3ee3d25e3fbe11e" target="_top" xlink:title="{}">
<polygon fill="white" stroke="#666666" points="123,-19 83,-19 83,0 123,0 123,-19"/>
<text text-anchor="middle" x="103" y="-7" font-family="Helvetica,sans-Serif" font-size="10.00">is_dir</text>
</a>
</g>
</g>
<!-- Node1&#45;&gt;Node6 -->
<g id="edge5" class="edge">
<title>Node1&#45;&gt;Node6</title>
<path fill="none" stroke="#63b8ff" d="M47.33,-22.9C54.98,-21.03 63.63,-18.91 71.75,-16.92"/>
<polygon fill="#63b8ff" stroke="#63b8ff" points="72.38,-20.36 81.26,-14.58 70.71,-13.57 72.38,-20.36"/>
</g>
<!-- Node3 -->
<g id="node3" class="node">
<title>Node3</title>
<g id="a_node3"><a xlink:href="class_o_c_a_1_1_c_a_f_e_v_d_b_1_1_storage_1_1_database_1_1_storage.html#ab721841df814a2337039d39cc03da82a" target="_top" xlink:title=" ">
<polygon fill="white" stroke="#666666" points="346,-57 289,-57 289,-38 346,-38 346,-57"/>
<text text-anchor="middle" x="317.5" y="-45" font-family="Helvetica,sans-Serif" font-size="10.00">buildPath</text>
</a>
</g>
</g>
<!-- Node2&#45;&gt;Node3 -->
<g id="edge2" class="edge">
<title>Node2&#45;&gt;Node3</title>
<path fill="none" stroke="#63b8ff" d="M253.44,-36.56C261.41,-37.94 269.63,-39.37 277.38,-40.71"/>
<polygon fill="#63b8ff" stroke="#63b8ff" points="276.77,-44.16 287.22,-42.42 277.97,-37.26 276.77,-44.16"/>
</g>
<!-- Node4 -->
<g id="node4" class="node">
<title>Node4</title>
<g id="a_node4"><a xlink:href="class_o_c_a_1_1_c_a_f_e_v_d_b_1_1_storage_1_1_database_1_1_storage.html#aa8e4fc68bcf28c10413b664b7d89ae81" target="_top" xlink:title="Slightly modified pathinfo() function which also normalized directories before computing the componen...">
<polygon fill="white" stroke="#666666" points="343.5,-20 291.5,-20 291.5,-1 343.5,-1 343.5,-20"/>
<text text-anchor="middle" x="317.5" y="-8" font-family="Helvetica,sans-Serif" font-size="10.00">pathInfo</text>
</a>
</g>
</g>
<!-- Node2&#45;&gt;Node4 -->
<g id="edge3" class="edge">
<title>Node2&#45;&gt;Node4</title>
<path fill="none" stroke="#63b8ff" d="M253.44,-20.87C262.33,-19.4 271.53,-17.89 280.06,-16.49"/>
<polygon fill="#63b8ff" stroke="#63b8ff" points="280.39,-19.98 289.69,-14.91 279.25,-13.08 280.39,-19.98"/>
</g>
<!-- Node5 -->
<g id="node5" class="node">
<title>Node5</title>
<g id="a_node5"><a xlink:href="class_o_c_a_1_1_c_a_f_e_v_d_b_1_1_storage_1_1_database_1_1_storage.html#ac5c1b62ecc9eb2ebe08f1e8c7ee2b283" target="_top" xlink:title="Attach self::PATH_SEPARATOR to the dirname if it is not the root directory.">
<polygon fill="white" stroke="#666666" points="507,-20 382,-20 382,-1 507,-1 507,-20"/>
<text text-anchor="middle" x="444.5" y="-8" font-family="Helvetica,sans-Serif" font-size="10.00">normalizeDirectoryName</text>
</a>
</g>
</g>
<!-- Node4&#45;&gt;Node5 -->
<g id="edge4" class="edge">
<title>Node4&#45;&gt;Node5</title>
<path fill="none" stroke="#63b8ff" d="M343.8,-10.5C351.69,-10.5 360.83,-10.5 370.31,-10.5"/>
<polygon fill="#63b8ff" stroke="#63b8ff" points="370.03,-14 380.03,-10.5 370.03,-7 370.03,-14"/>
</g>
<!-- Node6&#45;&gt;Node2 -->
<g id="edge6" class="edge">
<title>Node6&#45;&gt;Node2</title>
<path fill="none" stroke="#63b8ff" d="M123.47,-13.16C130.57,-14.5 138.99,-16.08 147.7,-17.72"/>
<polygon fill="#63b8ff" stroke="#63b8ff" points="146.82,-21.12 157.3,-19.53 148.12,-14.24 146.82,-21.12"/>
</g>
</g>
</svg>
