<?xml version="1.0" encoding="UTF-8" standalone="no"?>
<!DOCTYPE svg PUBLIC "-//W3C//DTD SVG 1.1//EN"
 "http://www.w3.org/Graphics/SVG/1.1/DTD/svg11.dtd">
<!-- Generated by graphviz version 7.1.0 (20230121.1956)
 -->
<!-- Title: getUserEncryptionKey Pages: 1 -->
<svg width="444pt" height="64pt"
 viewBox="0.00 0.00 444.00 64.00" xmlns="http://www.w3.org/2000/svg" xmlns:xlink="http://www.w3.org/1999/xlink">
<g id="graph0" class="graph" transform="scale(1 1) rotate(0) translate(4 60)">
<title>getUserEncryptionKey</title>
<!-- Node1 -->
<g id="node1" class="node">
<title>Node1</title>
<g id="a_node1"><a xlink:title=" ">
<polygon fill="#999999" stroke="#666666" points="436,-37 321,-37 321,-18 436,-18 436,-37"/>
<text text-anchor="middle" x="378.5" y="-25" font-family="Helvetica,sans-Serif" font-size="10.00">getUserEncryptionKey</text>
</a>
</g>
</g>
<!-- Node2 -->
<g id="node2" class="node">
<title>Node2</title>
<g id="a_node2"><a xlink:href="class_o_c_a_1_1_c_a_f_e_v_d_b_1_1_service_1_1_encryption_service.html#ae0e6a2643a679ae23f2975018436da50" target="_top" xlink:title="Initialize the global symmetric app encryption key used to encrypt shared data.">
<polygon fill="white" stroke="#666666" points="285,-56 175,-56 175,-37 285,-37 285,-56"/>
<text text-anchor="middle" x="230" y="-44" font-family="Helvetica,sans-Serif" font-size="10.00">initAppEncryptionKey</text>
</a>
</g>
</g>
<!-- Node1&#45;&gt;Node2 -->
<g id="edge1" class="edge">
<title>Node1&#45;&gt;Node2</title>
<path fill="none" stroke="#63b8ff" d="M309.7,-36.29C301.45,-37.36 293.1,-38.45 285.08,-39.49"/>
<polygon fill="#63b8ff" stroke="#63b8ff" points="309.89,-39.8 319.36,-35.04 308.99,-32.86 309.89,-39.8"/>
</g>
<!-- Node5 -->
<g id="node5" class="node">
<title>Node5</title>
<g id="a_node5"><a xlink:href="class_o_c_a_1_1_c_a_f_e_v_d_b_1_1_service_1_1_encryption_service.html#ad340ac2983f99f3d7695db636ec83c6d" target="_top" xlink:title="Initialize the per&#45;user public/private key pair, which inparticular is used to propagate the app&#39;s en...">
<polygon fill="white" stroke="#666666" points="272.5,-19 187.5,-19 187.5,0 272.5,0 272.5,-19"/>
<text text-anchor="middle" x="230" y="-7" font-family="Helvetica,sans-Serif" font-size="10.00">initUserKeyPair</text>
</a>
</g>
</g>
<!-- Node1&#45;&gt;Node5 -->
<g id="edge4" class="edge">
<title>Node1&#45;&gt;Node5</title>
<path fill="none" stroke="#63b8ff" d="M309.51,-19.15C297.04,-17.61 284.37,-16.06 272.95,-14.65"/>
<polygon fill="#63b8ff" stroke="#63b8ff" points="309,-22.61 319.36,-20.36 309.86,-15.66 309,-22.61"/>
</g>
<!-- Node3 -->
<g id="node3" class="node">
<title>Node3</title>
<g id="a_node3"><a xlink:href="class_o_c_a_1_1_c_a_f_e_v_d_b_1_1_service_1_1_encryption_service.html#a4efe39e6059783c9439d484de8bf2590" target="_top" xlink:title="Bind $this to the given userId and password, for instance during listeners for password&#45;change etc.">
<polygon fill="white" stroke="#666666" points="139,-37 104,-37 104,-18 139,-18 139,-37"/>
<text text-anchor="middle" x="121.5" y="-25" font-family="Helvetica,sans-Serif" font-size="10.00">bind</text>
</a>
</g>
</g>
<!-- Node2&#45;&gt;Node3 -->
<g id="edge2" class="edge">
<title>Node2&#45;&gt;Node3</title>
<path fill="none" stroke="#63b8ff" d="M163.42,-34.8C154.47,-33.2 146.01,-31.69 139.13,-30.47"/>
<polygon fill="#63b8ff" stroke="#63b8ff" points="162.55,-38.2 173.01,-36.51 163.78,-31.31 162.55,-38.2"/>
</g>
<!-- Node4 -->
<g id="node4" class="node">
<title>Node4</title>
<g id="a_node4"><a xlink:href="class_o_c_a_1_1_c_a_f_e_v_d_b_1_1_service_1_1_encryption_service.html#aa164135a7474a6c9d34b7bee20056a4d" target="_top" xlink:title="{}">
<polygon fill="white" stroke="#666666" points="68,-37 0,-37 0,-18 68,-18 68,-37"/>
<text text-anchor="middle" x="34" y="-25" font-family="Helvetica,sans-Serif" font-size="10.00">__construct</text>
</a>
</g>
</g>
<!-- Node3&#45;&gt;Node4 -->
<g id="edge3" class="edge">
<title>Node3&#45;&gt;Node4</title>
<path fill="none" stroke="#63b8ff" d="M92.36,-27.5C84.72,-27.5 76.38,-27.5 68.48,-27.5"/>
<polygon fill="#63b8ff" stroke="#63b8ff" points="92.09,-31 102.09,-27.5 92.09,-24 92.09,-31"/>
</g>
<!-- Node5&#45;&gt;Node3 -->
<g id="edge5" class="edge">
<title>Node5&#45;&gt;Node3</title>
<path fill="none" stroke="#63b8ff" d="M176.12,-18.44C162.83,-20.68 149.5,-22.94 139.45,-24.63"/>
<polygon fill="#63b8ff" stroke="#63b8ff" points="176.44,-21.93 185.72,-16.81 175.28,-15.03 176.44,-21.93"/>
</g>
</g>
</svg>
