<?xml version="1.0" encoding="UTF-8" standalone="no"?>
<!DOCTYPE svg PUBLIC "-//W3C//DTD SVG 1.1//EN"
 "http://www.w3.org/Graphics/SVG/1.1/DTD/svg11.dtd">
<!-- Generated by graphviz version 7.1.0 (20230121.1956)
 -->
<!-- Title: CompositePayment Pages: 1 -->
<svg width="206pt" height="137pt"
 viewBox="0.00 0.00 205.50 137.00" xmlns="http://www.w3.org/2000/svg" xmlns:xlink="http://www.w3.org/1999/xlink">
<g id="graph0" class="graph" transform="scale(1 1) rotate(0) translate(4 133)">
<title>CompositePayment</title>
<!-- Node1 -->
<g id="node1" class="node">
<title>Node1</title>
<g id="a_node1"><a xlink:title="DO NOT EDIT THIS FILE &#45; IT WAS CREATED BY DOCTRINE&#39;S PROXY GENERATOR.">
<polygon fill="#999999" stroke="#666666" points="182,-19 79,-19 79,0 182,0 182,-19"/>
<text text-anchor="middle" x="130.5" y="-7" font-family="Helvetica,sans-Serif" font-size="10.00">CompositePayment</text>
</a>
</g>
</g>
<!-- Node2 -->
<g id="node2" class="node">
<title>Node2</title>
<g id="a_node2"><a xlink:href="class_o_c_a_1_1_c_a_f_e_v_d_b_1_1_database_1_1_doctrine_1_1_o_r_m_1_1_entities_1_1_composite_payment.html" target="_top" xlink:title="CompositePayments collect a couple of ProjectPayments of the same Musician.">
<polygon fill="white" stroke="#666666" points="137,-74 34,-74 34,-55 137,-55 137,-74"/>
<text text-anchor="middle" x="85.5" y="-62" font-family="Helvetica,sans-Serif" font-size="10.00">CompositePayment</text>
</a>
</g>
</g>
<!-- Node2&#45;&gt;Node1 -->
<g id="edge1" class="edge">
<title>Node2&#45;&gt;Node1</title>
<path fill="none" stroke="#63b8ff" d="M100.18,-46.22C107.76,-37.28 116.71,-26.74 122.91,-19.44"/>
<polygon fill="#63b8ff" stroke="#63b8ff" points="97.71,-43.71 93.91,-53.59 103.05,-48.24 97.71,-43.71"/>
</g>
<!-- Node3 -->
<g id="node3" class="node">
<title>Node3</title>
<g id="a_node3"><a xlink:title=" ">
<polygon fill="white" stroke="#bfbfbf" points="73,-129 0,-129 0,-110 73,-110 73,-129"/>
<text text-anchor="middle" x="36.5" y="-117" font-family="Helvetica,sans-Serif" font-size="10.00">ArrayAccess</text>
</a>
</g>
</g>
<!-- Node3&#45;&gt;Node2 -->
<g id="edge2" class="edge">
<title>Node3&#45;&gt;Node2</title>
<path fill="none" stroke="#63b8ff" d="M52.22,-101.5C60.54,-92.5 70.41,-81.82 77.23,-74.44"/>
<polygon fill="#63b8ff" stroke="#63b8ff" points="49.84,-98.92 45.62,-108.64 54.98,-103.67 49.84,-98.92"/>
</g>
<!-- Node4 -->
<g id="node4" class="node">
<title>Node4</title>
<g id="a_node4"><a xlink:title=" ">
<polygon fill="white" stroke="#bfbfbf" points="179.5,-129 91.5,-129 91.5,-110 179.5,-110 179.5,-129"/>
<text text-anchor="middle" x="135.5" y="-117" font-family="Helvetica,sans-Serif" font-size="10.00">JsonSerializable</text>
</a>
</g>
</g>
<!-- Node4&#45;&gt;Node2 -->
<g id="edge3" class="edge">
<title>Node4&#45;&gt;Node2</title>
<path fill="none" stroke="#63b8ff" d="M119.46,-101.5C110.97,-92.5 100.9,-81.82 93.94,-74.44"/>
<polygon fill="#63b8ff" stroke="#63b8ff" points="116.8,-103.78 126.2,-108.65 121.89,-98.97 116.8,-103.78"/>
</g>
<!-- Node5 -->
<g id="node5" class="node">
<title>Node5</title>
<g id="a_node5"><a xlink:title=" ">
<polygon fill="white" stroke="#bfbfbf" points="197.5,-74 155.5,-74 155.5,-55 197.5,-55 197.5,-74"/>
<text text-anchor="middle" x="176.5" y="-62" font-family="Helvetica,sans-Serif" font-size="10.00">Proxy</text>
</a>
</g>
</g>
<!-- Node5&#45;&gt;Node1 -->
<g id="edge4" class="edge">
<title>Node5&#45;&gt;Node1</title>
<path fill="none" stroke="#63b8ff" d="M161.5,-46.22C153.74,-37.28 144.6,-26.74 138.26,-19.44"/>
<polygon fill="#63b8ff" stroke="#63b8ff" points="158.71,-48.35 167.91,-53.61 164,-43.76 158.71,-48.35"/>
</g>
</g>
</svg>
