<?xml version="1.0" encoding="UTF-8" standalone="no"?>
<!DOCTYPE svg PUBLIC "-//W3C//DTD SVG 1.1//EN"
 "http://www.w3.org/Graphics/SVG/1.1/DTD/svg11.dtd">
<!-- Generated by graphviz version 7.1.0 (20230121.1956)
 -->
<!-- Title: authorized Pages: 1 -->
<svg width="232pt" height="98pt"
 viewBox="0.00 0.00 232.00 97.50" xmlns="http://www.w3.org/2000/svg" xmlns:xlink="http://www.w3.org/1999/xlink">
<g id="graph0" class="graph" transform="scale(1 1) rotate(0) translate(4 93.5)">
<title>authorized</title>
<!-- Node1 -->
<g id="node1" class="node">
<title>Node1</title>
<g id="a_node1"><a xlink:title="Basic check for authorization.">
<polygon fill="#999999" stroke="#666666" points="224,-51.5 162,-51.5 162,-32.5 224,-32.5 224,-51.5"/>
<text text-anchor="middle" x="193" y="-39.5" font-family="Helvetica,sans-Serif" font-size="10.00">authorized</text>
</a>
</g>
</g>
<!-- Node2 -->
<g id="node2" class="node">
<title>Node2</title>
<g id="a_node2"><a xlink:href="class_o_c_a_1_1_c_a_f_e_v_d_b_1_1_service_1_1_encryption_service.html#aa164135a7474a6c9d34b7bee20056a4d" target="_top" xlink:title="{}">
<polygon fill="white" stroke="#666666" points="125.5,-89.5 0.5,-89.5 0.5,-48.5 125.5,-48.5 125.5,-89.5"/>
<text text-anchor="start" x="8.5" y="-77.5" font-family="Helvetica,sans-Serif" font-size="10.00">OCA\CAFEVDB\Service</text>
<text text-anchor="start" x="8.5" y="-66.5" font-family="Helvetica,sans-Serif" font-size="10.00">\EncryptionService\</text>
<text text-anchor="middle" x="63" y="-55.5" font-family="Helvetica,sans-Serif" font-size="10.00">__construct</text>
</a>
</g>
</g>
<!-- Node1&#45;&gt;Node2 -->
<g id="edge1" class="edge">
<title>Node1&#45;&gt;Node2</title>
<path fill="none" stroke="#63b8ff" d="M150.53,-50.75C142.63,-52.41 134.2,-54.19 125.82,-55.96"/>
<polygon fill="#63b8ff" stroke="#63b8ff" points="151.12,-54.2 160.18,-48.71 149.68,-47.35 151.12,-54.2"/>
</g>
<!-- Node3 -->
<g id="node3" class="node">
<title>Node3</title>
<g id="a_node3"><a xlink:href="class_o_c_a_1_1_c_a_f_e_v_d_b_1_1_app_info_1_1_application.html#af15e33847e0e97e2289ef69be5d944e3" target="_top" xlink:title="{}">
<polygon fill="white" stroke="#666666" points="126,-30 0,-30 0,0 126,0 126,-30"/>
<text text-anchor="start" x="8" y="-18" font-family="Helvetica,sans-Serif" font-size="10.00">OCA\CAFEVDB\AppInfo</text>
<text text-anchor="middle" x="63" y="-7" font-family="Helvetica,sans-Serif" font-size="10.00">\Application\boot</text>
</a>
</g>
</g>
<!-- Node1&#45;&gt;Node3 -->
<g id="edge2" class="edge">
<title>Node1&#45;&gt;Node3</title>
<path fill="none" stroke="#63b8ff" d="M150.42,-33.23C142.71,-31.6 134.5,-29.87 126.34,-28.15"/>
<polygon fill="#63b8ff" stroke="#63b8ff" points="149.68,-36.65 160.18,-35.29 151.12,-29.8 149.68,-36.65"/>
</g>
</g>
</svg>
