<?xml version="1.0" encoding="UTF-8" standalone="no"?>
<!DOCTYPE svg PUBLIC "-//W3C//DTD SVG 1.1//EN"
 "http://www.w3.org/Graphics/SVG/1.1/DTD/svg11.dtd">
<!-- Generated by graphviz version 7.1.0 (20230121.1956)
 -->
<!-- Title: format Pages: 1 -->
<svg width="495pt" height="103pt"
 viewBox="0.00 0.00 495.00 103.00" xmlns="http://www.w3.org/2000/svg" xmlns:xlink="http://www.w3.org/1999/xlink">
<g id="graph0" class="graph" transform="scale(1 1) rotate(0) translate(4 99)">
<title>format</title>
<!-- Node1 -->
<g id="node1" class="node">
<title>Node1</title>
<g id="a_node1"><a xlink:title=" ">
<polygon fill="#999999" stroke="#666666" points="44,-76 0,-76 0,-57 44,-57 44,-76"/>
<text text-anchor="middle" x="22" y="-64" font-family="Helvetica,sans-Serif" font-size="10.00">format</text>
</a>
</g>
</g>
<!-- Node2 -->
<g id="node2" class="node">
<title>Node2</title>
<g id="a_node2"><a xlink:href="class_o_c_a_1_1_c_a_f_e_v_d_b_1_1_service_1_1_phone_number_service.html#a1f54caac71fbe16692d752e9648eaaf5" target="_top" xlink:title=" ">
<polygon fill="white" stroke="#666666" points="234,-95 166,-95 166,-76 234,-76 234,-95"/>
<text text-anchor="middle" x="200" y="-83" font-family="Helvetica,sans-Serif" font-size="10.00">getBackend</text>
</a>
</g>
</g>
<!-- Node1&#45;&gt;Node2 -->
<g id="edge1" class="edge">
<title>Node1&#45;&gt;Node2</title>
<path fill="none" stroke="#63b8ff" d="M44.23,-68.79C71.34,-71.72 118.95,-76.86 154.23,-80.67"/>
<polygon fill="#63b8ff" stroke="#63b8ff" points="153.85,-84.15 164.17,-81.74 154.6,-77.19 153.85,-84.15"/>
</g>
<!-- Node4 -->
<g id="node4" class="node">
<title>Node4</title>
<g id="a_node4"><a xlink:href="class_o_c_a_1_1_c_a_f_e_v_d_b_1_1_service_1_1_phone_number_service.html#a8c950d27bc55749ec38cd0ade17222f5" target="_top" xlink:title=" ">
<polygon fill="white" stroke="#666666" points="130,-57 80,-57 80,-38 130,-38 130,-57"/>
<text text-anchor="middle" x="105" y="-45" font-family="Helvetica,sans-Serif" font-size="10.00">validate</text>
</a>
</g>
</g>
<!-- Node1&#45;&gt;Node4 -->
<g id="edge3" class="edge">
<title>Node1&#45;&gt;Node4</title>
<path fill="none" stroke="#63b8ff" d="M44.28,-61.51C51.76,-59.75 60.37,-57.73 68.69,-55.78"/>
<polygon fill="#63b8ff" stroke="#63b8ff" points="69.3,-59.23 78.24,-53.54 67.7,-52.42 69.3,-59.23"/>
</g>
<!-- Node3 -->
<g id="node3" class="node">
<title>Node3</title>
<g id="a_node3"><a xlink:href="class_o_c_a_1_1_c_a_f_e_v_d_b_1_1_service_1_1_phone_number_service.html#a08a954d92f510f5df4e347a7557ba5e8" target="_top" xlink:title=" ">
<polygon fill="white" stroke="#666666" points="487,-57 398,-57 398,-38 487,-38 487,-57"/>
<text text-anchor="middle" x="442.5" y="-45" font-family="Helvetica,sans-Serif" font-size="10.00">initializeDefaults</text>
</a>
</g>
</g>
<!-- Node2&#45;&gt;Node3 -->
<g id="edge2" class="edge">
<title>Node2&#45;&gt;Node3</title>
<path fill="none" stroke="#63b8ff" d="M234.47,-82.7C267.15,-79.7 318.22,-74.29 362,-66.5 371.95,-64.73 382.51,-62.48 392.58,-60.14"/>
<polygon fill="#63b8ff" stroke="#63b8ff" points="393.29,-63.57 402.21,-57.85 391.67,-56.76 393.29,-63.57"/>
</g>
<!-- Node4&#45;&gt;Node2 -->
<g id="edge4" class="edge">
<title>Node4&#45;&gt;Node2</title>
<path fill="none" stroke="#63b8ff" d="M130.43,-57.48C140.79,-61.72 153.05,-66.73 164.32,-71.33"/>
<polygon fill="#63b8ff" stroke="#63b8ff" points="162.75,-74.47 173.33,-75.01 165.39,-67.99 162.75,-74.47"/>
</g>
<!-- Node5 -->
<g id="node5" class="node">
<title>Node5</title>
<g id="a_node5"><a xlink:href="class_o_c_a_1_1_c_a_f_e_v_d_b_1_1_service_1_1_phone_number_service.html#a17afded57ab95f68179da65bde0e5f0c" target="_top" xlink:title=" ">
<polygon fill="white" stroke="#666666" points="362,-57 270,-57 270,-38 362,-38 362,-57"/>
<text text-anchor="middle" x="316" y="-45" font-family="Helvetica,sans-Serif" font-size="10.00">getDefaultRegion</text>
</a>
</g>
</g>
<!-- Node4&#45;&gt;Node5 -->
<g id="edge5" class="edge">
<title>Node4&#45;&gt;Node5</title>
<path fill="none" stroke="#63b8ff" d="M130.38,-47.5C161.49,-47.5 216.25,-47.5 258.08,-47.5"/>
<polygon fill="#63b8ff" stroke="#63b8ff" points="258,-51 268,-47.5 258,-44 258,-51"/>
</g>
<!-- Node6 -->
<g id="node6" class="node">
<title>Node6</title>
<g id="a_node6"><a xlink:href="class_o_c_a_1_1_c_a_f_e_v_d_b_1_1_service_1_1_phone_number_service.html#a5e70683882a307d0d4c7ef1b3e546747" target="_top" xlink:title="Add the default area code if the number does not start with + or 0, and do some other normalization,...">
<polygon fill="white" stroke="#666666" points="229.5,-19 170.5,-19 170.5,0 229.5,0 229.5,-19"/>
<text text-anchor="middle" x="200" y="-7" font-family="Helvetica,sans-Serif" font-size="10.00">normalize</text>
</a>
</g>
</g>
<!-- Node4&#45;&gt;Node6 -->
<g id="edge7" class="edge">
<title>Node4&#45;&gt;Node6</title>
<path fill="none" stroke="#63b8ff" d="M130.43,-37.52C140.79,-33.28 153.05,-28.27 164.32,-23.67"/>
<polygon fill="#63b8ff" stroke="#63b8ff" points="165.39,-27.01 173.33,-19.99 162.75,-20.53 165.39,-27.01"/>
</g>
<!-- Node5&#45;&gt;Node3 -->
<g id="edge6" class="edge">
<title>Node5&#45;&gt;Node3</title>
<path fill="none" stroke="#63b8ff" d="M362.3,-47.5C370.14,-47.5 378.38,-47.5 386.45,-47.5"/>
<polygon fill="#63b8ff" stroke="#63b8ff" points="386.18,-51 396.18,-47.5 386.18,-44 386.18,-51"/>
</g>
<!-- Node7 -->
<g id="node7" class="node">
<title>Node7</title>
<g id="a_node7"><a xlink:href="class_o_c_a_1_1_c_a_f_e_v_d_b_1_1_service_1_1_phone_number_service.html#a97eaa8dc5677e033634c7b612474b521" target="_top" xlink:title=" ">
<polygon fill="white" stroke="#666666" points="359.5,-20 272.5,-20 272.5,-1 359.5,-1 359.5,-20"/>
<text text-anchor="middle" x="316" y="-8" font-family="Helvetica,sans-Serif" font-size="10.00">getDefaultPrefix</text>
</a>
</g>
</g>
<!-- Node6&#45;&gt;Node7 -->
<g id="edge8" class="edge">
<title>Node6&#45;&gt;Node7</title>
<path fill="none" stroke="#63b8ff" d="M229.77,-9.75C239.16,-9.83 249.93,-9.93 260.58,-10.02"/>
<polygon fill="#63b8ff" stroke="#63b8ff" points="260.47,-13.52 270.5,-10.11 260.53,-6.52 260.47,-13.52"/>
</g>
<!-- Node7&#45;&gt;Node3 -->
<g id="edge9" class="edge">
<title>Node7&#45;&gt;Node3</title>
<path fill="none" stroke="#63b8ff" d="M350.36,-20.42C364.74,-24.69 381.75,-29.74 397.17,-34.32"/>
<polygon fill="#63b8ff" stroke="#63b8ff" points="396.01,-37.63 406.59,-37.13 398,-30.92 396.01,-37.63"/>
</g>
</g>
</svg>
