<?xml version="1.0" encoding="UTF-8" standalone="no"?>
<!DOCTYPE svg PUBLIC "-//W3C//DTD SVG 1.1//EN"
 "http://www.w3.org/Graphics/SVG/1.1/DTD/svg11.dtd">
<!-- Generated by graphviz version 7.1.0 (20230121.1956)
 -->
<!-- Title: bind Pages: 1 -->
<!--zoomable 510 -->
<svg id="main" version="1.1" xmlns="http://www.w3.org/2000/svg" xmlns:xlink="http://www.w3.org/1999/xlink" xml:space="preserve" onload="init(evt)">
<style type="text/css"><![CDATA[
.edge:hover path { stroke: red; }
.edge:hover polygon { stroke: red; fill: red; }
]]></style>
<script type="text/javascript"><![CDATA[
var edges = document.getElementsByTagName('g');
if (edges && edges.length) {
  for (var i=0;i<edges.length;i++) {
    if (edges[i].id.substr(0,4)=='edge') {
      edges[i].setAttribute('class','edge');
    }
  }
}
]]></script>
        <defs>
                <circle id="rim" cx="0" cy="0" r="7"/>
                <circle id="rim2" cx="0" cy="0" r="3.5"/>
                <g id="zoomPlus">
                        <use xlink:href="#rim" fill="#404040">
                                <set attributeName="fill" to="#808080" begin="zoomplus.mouseover" end="zoomplus.mouseout"/>
                        </use>
                        <path d="M-4,0h8M0,-4v8" fill="none" stroke="white" stroke-width="1.5" pointer-events="none"/>
                </g>
                <g id="zoomMin">
                        <use xlink:href="#rim" fill="#404040">
                                <set attributeName="fill" to="#808080" begin="zoomminus.mouseover" end="zoomminus.mouseout"/>
                        </use>
                        <path d="M-4,0h8" fill="none" stroke="white" stroke-width="1.5" pointer-events="none"/>
                </g>
                <g id="dirArrow">
                        <path fill="none" stroke="white" stroke-width="1.5" d="M0,-3.0v7 M-2.5,-0.5L0,-3.0L2.5,-0.5"/>
                </g>
               <g id="resetDef">
                       <use xlink:href="#rim2" fill="#404040">
                               <set attributeName="fill" to="#808080" begin="reset.mouseover" end="reset.mouseout"/>
                       </use>
               </g>
        </defs>

<script type="text/javascript">
var viewWidth = 829;
var viewHeight = 510;
var sectionId = 'dynsection-5';
</script>
<script xlink:href="svgpan.js"/>
<svg id="graph" class="graph">
<g id="viewport">
<title>bind</title>
<!-- Node1 -->
<g id="node1" class="node">
<title>Node1</title>
<g id="a_node1"><a xlink:title=" ">
<polygon fill="#999999" stroke="#666666" points="35,-264 0,-264 0,-245 35,-245 35,-264"/>
<text text-anchor="middle" x="17.5" y="-252" font-family="Helvetica,sans-Serif" font-size="10.00">bind</text>
</a>
</g>
</g>
<!-- Node2 -->
<g id="node2" class="node">
<title>Node2</title>
<g id="a_node2"><a xlink:href="class_o_c_a_1_1_c_a_f_e_v_d_b_1_1_email_form_1_1_recipients_filter.html#a1497fe5acb2403ca1873ec2fd4b790fe" target="_top" xlink:title="Fetch a CGI&#45;variable out of the form&#45;select name&#45;space.">
<polygon fill="white" stroke="#666666" points="639,-302 586,-302 586,-283 639,-283 639,-302"/>
<text text-anchor="middle" x="612.5" y="-290" font-family="Helvetica,sans-Serif" font-size="10.00">cgiValue</text>
</a>
</g>
</g>
<!-- Node1&#45;&gt;Node2 -->
<g id="edge1" class="edge">
<title>Node1&#45;&gt;Node2</title>
<path fill="none" stroke="#63b8ff" d="M24.68,-264.05C47.87,-298.9 133.96,-419.41 241,-461.5 355.16,-506.39 411.19,-523.56 517,-461.5 545.5,-444.78 585.96,-354.08 603.2,-312.88"/>
<polygon fill="#63b8ff" stroke="#63b8ff" points="606.43,-314.22 607.02,-303.64 599.96,-311.55 606.43,-314.22"/>
</g>
<!-- Node3 -->
<g id="node3" class="node">
<title>Node3</title>
<g id="a_node3"><a xlink:href="class_o_c_a_1_1_c_a_f_e_v_d_b_1_1_email_form_1_1_recipients_filter.html#a1909f4b7f8129c7790cb75de2ffbe1e4" target="_top" xlink:title="Parse the CGI stuff and compute the list of selected musicians, either for the initial form setup as ...">
<polygon fill="white" stroke="#666666" points="163.5,-264 112.5,-264 112.5,-245 163.5,-245 163.5,-264"/>
<text text-anchor="middle" x="138" y="-252" font-family="Helvetica,sans-Serif" font-size="10.00">execute</text>
</a>
</g>
</g>
<!-- Node1&#45;&gt;Node3 -->
<g id="edge2" class="edge">
<title>Node1&#45;&gt;Node3</title>
<path fill="none" stroke="#63b8ff" d="M35.48,-254.5C52.43,-254.5 79.02,-254.5 100.74,-254.5"/>
<polygon fill="#63b8ff" stroke="#63b8ff" points="100.7,-258 110.7,-254.5 100.7,-251 100.7,-258"/>
</g>
<!-- Node24 -->
<g id="node24" class="node">
<title>Node24</title>
<g id="a_node24"><a xlink:href="class_o_c_a_1_1_c_a_f_e_v_d_b_1_1_service_1_1_request_parameter_service.html#aeafd6890cfd4ba9b30cb9706b2a12373" target="_top" xlink:title=" ">
<polygon fill="white" stroke="#666666" points="205,-227 71,-227 71,-186 205,-186 205,-227"/>
<text text-anchor="start" x="79" y="-215" font-family="Helvetica,sans-Serif" font-size="10.00">OCA\CAFEVDB\Service</text>
<text text-anchor="start" x="79" y="-204" font-family="Helvetica,sans-Serif" font-size="10.00">\RequestParameterService</text>
<text text-anchor="middle" x="138" y="-193" font-family="Helvetica,sans-Serif" font-size="10.00">\getParam</text>
</a>
</g>
</g>
<!-- Node1&#45;&gt;Node24 -->
<g id="edge35" class="edge">
<title>Node1&#45;&gt;Node24</title>
<path fill="none" stroke="#63b8ff" d="M35.48,-247.62C45.98,-243.37 60.19,-237.61 74.64,-231.76"/>
<polygon fill="#63b8ff" stroke="#63b8ff" points="75.8,-235.07 83.76,-228.07 73.17,-228.58 75.8,-235.07"/>
</g>
<!-- Node3&#45;&gt;Node2 -->
<g id="edge6" class="edge">
<title>Node3&#45;&gt;Node2</title>
<path fill="none" stroke="#63b8ff" d="M151.6,-264.38C169.99,-278.13 205.86,-302.35 241,-311.5 360.02,-342.5 507.62,-316.68 574.95,-301.56"/>
<polygon fill="#63b8ff" stroke="#63b8ff" points="575.37,-305.05 584.33,-299.4 573.8,-298.23 575.37,-305.05"/>
</g>
<!-- Node4 -->
<g id="node4" class="node">
<title>Node4</title>
<g id="a_node4"><a xlink:href="class_o_c_a_1_1_c_a_f_e_v_d_b_1_1_email_form_1_1_recipients_filter.html#abb68032ee09c309fa68ede14a34e348d" target="_top" xlink:title=" ">
<polygon fill="white" stroke="#666666" points="495,-169 424,-169 424,-150 495,-150 495,-169"/>
<text text-anchor="middle" x="459.5" y="-157" font-family="Helvetica,sans-Serif" font-size="10.00">applyHistory</text>
</a>
</g>
</g>
<!-- Node3&#45;&gt;Node4 -->
<g id="edge3" class="edge">
<title>Node3&#45;&gt;Node4</title>
<path fill="none" stroke="#63b8ff" d="M163.9,-252.28C177.36,-249.95 193.53,-245.2 205,-235.5 233.24,-211.63 209.75,-180.26 241,-160.5 293.18,-127.5 367.44,-136.25 414.28,-146.88"/>
<polygon fill="#63b8ff" stroke="#63b8ff" points="413.27,-150.23 423.81,-149.17 414.91,-143.43 413.27,-150.23"/>
</g>
<!-- Node6 -->
<g id="node6" class="node">
<title>Node6</title>
<g id="a_node6"><a xlink:href="class_o_c_a_1_1_c_a_f_e_v_d_b_1_1_email_form_1_1_recipients_filter.html#a91325e5bf1c1dafd989c072cdd289f7e" target="_top" xlink:title="Decode the check&#45;boxes which select the set of users we consider basically.">
<polygon fill="white" stroke="#666666" points="355,-452 252,-452 252,-433 355,-433 355,-452"/>
<text text-anchor="middle" x="303.5" y="-440" font-family="Helvetica,sans-Serif" font-size="10.00">determineUserBase</text>
</a>
</g>
</g>
<!-- Node3&#45;&gt;Node6 -->
<g id="edge7" class="edge">
<title>Node3&#45;&gt;Node6</title>
<path fill="none" stroke="#63b8ff" d="M142.02,-264.3C151.5,-293.41 183.52,-380.11 241,-424.5 242.32,-425.52 243.7,-426.48 245.12,-427.39"/>
<polygon fill="#63b8ff" stroke="#63b8ff" points="243.23,-430.35 253.71,-431.92 246.49,-424.16 243.23,-430.35"/>
</g>
<!-- Node9 -->
<g id="node9" class="node">
<title>Node9</title>
<g id="a_node9"><a xlink:href="class_o_c_a_1_1_c_a_f_e_v_d_b_1_1_email_form_1_1_recipients_filter.html#aa88d3b6470fc695c0e977cf6652e03ae" target="_top" xlink:title="Fetch the instruments filter from the CGI parameters.">
<polygon fill="white" stroke="#666666" points="359.5,-302 247.5,-302 247.5,-283 359.5,-283 359.5,-302"/>
<text text-anchor="middle" x="303.5" y="-290" font-family="Helvetica,sans-Serif" font-size="10.00">fetchInstrumentsFilter</text>
</a>
</g>
</g>
<!-- Node3&#45;&gt;Node9 -->
<g id="edge11" class="edge">
<title>Node3&#45;&gt;Node9</title>
<path fill="none" stroke="#63b8ff" d="M163.83,-260.27C186.23,-265.48 219.94,-273.31 248.52,-279.95"/>
<polygon fill="#63b8ff" stroke="#63b8ff" points="247.58,-283.33 258.11,-282.18 249.17,-276.51 247.58,-283.33"/>
</g>
<!-- Node11 -->
<g id="node11" class="node">
<title>Node11</title>
<g id="a_node11"><a xlink:href="class_o_c_a_1_1_c_a_f_e_v_d_b_1_1_email_form_1_1_recipients_filter.html#a4cc3ae15ce5ef543b8c9775626cb9acc" target="_top" xlink:title="Fill $this&#45;&gt;memberStatusNames with values.">
<polygon fill="white" stroke="#666666" points="366,-226 241,-226 241,-207 366,-207 366,-226"/>
<text text-anchor="middle" x="303.5" y="-214" font-family="Helvetica,sans-Serif" font-size="10.00">getMemberStatusNames</text>
</a>
</g>
</g>
<!-- Node3&#45;&gt;Node11 -->
<g id="edge15" class="edge">
<title>Node3&#45;&gt;Node11</title>
<path fill="none" stroke="#63b8ff" d="M163.83,-248.73C186.23,-243.52 219.94,-235.69 248.52,-229.05"/>
<polygon fill="#63b8ff" stroke="#63b8ff" points="249.17,-232.49 258.11,-226.82 247.58,-225.67 249.17,-232.49"/>
</g>
<!-- Node12 -->
<g id="node12" class="node">
<title>Node12</title>
<g id="a_node12"><a xlink:href="class_o_c_a_1_1_c_a_f_e_v_d_b_1_1_email_form_1_1_recipients_filter.html#a3325d0555cf869086e12761d8a7dbfc8" target="_top" xlink:title="Fetch the list of musicians for the given context (project/global).">
<polygon fill="white" stroke="#666666" points="359,-189 248,-189 248,-170 359,-170 359,-189"/>
<text text-anchor="middle" x="303.5" y="-177" font-family="Helvetica,sans-Serif" font-size="10.00">getMusiciansFromDB</text>
</a>
</g>
</g>
<!-- Node3&#45;&gt;Node12 -->
<g id="edge16" class="edge">
<title>Node3&#45;&gt;Node12</title>
<path fill="none" stroke="#63b8ff" d="M163.79,-250.61C176.74,-247.8 192.47,-243.12 205,-235.5 224.88,-223.41 221.15,-209.63 241,-197.5 243.12,-196.2 245.34,-195 247.62,-193.87"/>
<polygon fill="#63b8ff" stroke="#63b8ff" points="248.74,-197.2 256.56,-190.06 245.99,-190.77 248.74,-197.2"/>
</g>
<!-- Node13 -->
<g id="node13" class="node">
<title>Node13</title>
<g id="a_node13"><a xlink:href="class_o_c_a_1_1_c_a_f_e_v_d_b_1_1_email_form_1_1_recipients_filter.html#a9ae6e956522f1d298f15c4b2a07f0bd7" target="_top" xlink:title="Get the current filter.">
<polygon fill="white" stroke="#666666" points="517,-132 402,-132 402,-113 517,-113 517,-132"/>
<text text-anchor="middle" x="459.5" y="-120" font-family="Helvetica,sans-Serif" font-size="10.00">initMemberStatusFilter</text>
</a>
</g>
</g>
<!-- Node3&#45;&gt;Node13 -->
<g id="edge17" class="edge">
<title>Node3&#45;&gt;Node13</title>
<path fill="none" stroke="#63b8ff" d="M163.99,-252.8C177.65,-250.64 193.98,-245.89 205,-235.5 239.98,-202.52 202.47,-162.25 241,-133.5 288.97,-97.71 360.79,-101.98 408.61,-110.45"/>
<polygon fill="#63b8ff" stroke="#63b8ff" points="407.66,-113.83 418.14,-112.26 408.97,-106.95 407.66,-113.83"/>
</g>
<!-- Node15 -->
<g id="node15" class="node">
<title>Node15</title>
<g id="a_node15"><a xlink:href="class_o_c_a_1_1_c_a_f_e_v_d_b_1_1_email_form_1_1_recipients_filter.html#ab85bd7c01c06a6b1507047bfd28f941c" target="_top" xlink:title="Load the history from the session data.">
<polygon fill="white" stroke="#666666" points="336.5,-37 270.5,-37 270.5,-18 336.5,-18 336.5,-37"/>
<text text-anchor="middle" x="303.5" y="-25" font-family="Helvetica,sans-Serif" font-size="10.00">loadHistory</text>
</a>
</g>
</g>
<!-- Node3&#45;&gt;Node15 -->
<g id="edge20" class="edge">
<title>Node3&#45;&gt;Node15</title>
<path fill="none" stroke="#63b8ff" d="M163.94,-253.48C177.93,-251.58 194.61,-246.84 205,-235.5 261.3,-174.07 187.58,-115.45 241,-51.5 245.94,-45.59 252.52,-41.13 259.54,-37.76"/>
<polygon fill="#63b8ff" stroke="#63b8ff" points="260.62,-41.1 268.6,-34.14 258.02,-34.6 260.62,-41.1"/>
</g>
<!-- Node16 -->
<g id="node16" class="node">
<title>Node16</title>
<g id="a_node16"><a xlink:href="class_o_c_a_1_1_c_a_f_e_v_d_b_1_1_email_form_1_1_recipients_filter.html#a30a395e6e48481531a93ec374c412775" target="_top" xlink:title="Compose a default history record for the initial state.">
<polygon fill="white" stroke="#666666" points="506,-56 413,-56 413,-37 506,-37 506,-56"/>
<text text-anchor="middle" x="459.5" y="-44" font-family="Helvetica,sans-Serif" font-size="10.00">setDefaultHistory</text>
</a>
</g>
</g>
<!-- Node3&#45;&gt;Node16 -->
<g id="edge33" class="edge">
<title>Node3&#45;&gt;Node16</title>
<path fill="none" stroke="#63b8ff" d="M163.98,-253.17C177.8,-251.14 194.3,-246.39 205,-235.5 248.21,-191.51 197.07,-144.78 241,-101.5 283.38,-59.74 352.62,-48.24 401.58,-45.75"/>
<polygon fill="#63b8ff" stroke="#63b8ff" points="401.57,-49.25 411.43,-45.37 401.3,-42.25 401.57,-49.25"/>
</g>
<!-- Node21 -->
<g id="node21" class="node">
<title>Node21</title>
<g id="a_node21"><a xlink:href="class_o_c_a_1_1_c_a_f_e_v_d_b_1_1_email_form_1_1_recipients_filter.html#adc12d97d4d6b670014369f82669309c1" target="_top" xlink:title="Push the current filter selection onto the undo&#45;history stack.">
<polygon fill="white" stroke="#666666" points="494,-226 425,-226 425,-207 494,-207 494,-226"/>
<text text-anchor="middle" x="459.5" y="-214" font-family="Helvetica,sans-Serif" font-size="10.00">pushHistory</text>
</a>
</g>
</g>
<!-- Node3&#45;&gt;Node21 -->
<g id="edge29" class="edge">
<title>Node3&#45;&gt;Node21</title>
<path fill="none" stroke="#63b8ff" d="M163.95,-253.16C205.85,-250.71 292.94,-244.8 366,-234.5 381.62,-232.3 398.6,-229.2 413.69,-226.2"/>
<polygon fill="#63b8ff" stroke="#63b8ff" points="414.23,-229.66 423.33,-224.23 412.83,-222.8 414.23,-229.66"/>
</g>
<!-- Node22 -->
<g id="node22" class="node">
<title>Node22</title>
<g id="a_node22"><a xlink:href="class_o_c_a_1_1_c_a_f_e_v_d_b_1_1_email_form_1_1_recipients_filter.html#a14e60602822b0301e2ece2c15c4e0d82" target="_top" xlink:title="This function is called at the very start.">
<polygon fill="white" stroke="#666666" points="356,-415 251,-415 251,-396 356,-396 356,-415"/>
<text text-anchor="middle" x="303.5" y="-403" font-family="Helvetica,sans-Serif" font-size="10.00">remapEmailRecords</text>
</a>
</g>
</g>
<!-- Node3&#45;&gt;Node22 -->
<g id="edge32" class="edge">
<title>Node3&#45;&gt;Node22</title>
<path fill="none" stroke="#63b8ff" d="M143.67,-264.22C155.98,-288.78 191.79,-353.79 241,-387.5 242.61,-388.6 244.29,-389.64 246.01,-390.61"/>
<polygon fill="#63b8ff" stroke="#63b8ff" points="244.45,-393.74 254.99,-394.88 247.46,-387.42 244.45,-393.74"/>
</g>
<!-- Node23 -->
<g id="node23" class="node">
<title>Node23</title>
<g id="a_node23"><a xlink:href="class_o_c_a_1_1_c_a_f_e_v_d_b_1_1_email_form_1_1_recipients_filter.html#a0eece8535c88d9bc8da320736157b53b" target="_top" xlink:title="Store the history to somewhere, probably the session&#45;data.">
<polygon fill="white" stroke="#666666" points="338.5,-378 268.5,-378 268.5,-359 338.5,-359 338.5,-378"/>
<text text-anchor="middle" x="303.5" y="-366" font-family="Helvetica,sans-Serif" font-size="10.00">storeHistory</text>
</a>
</g>
</g>
<!-- Node3&#45;&gt;Node23 -->
<g id="edge34" class="edge">
<title>Node3&#45;&gt;Node23</title>
<path fill="none" stroke="#63b8ff" d="M147.94,-264.42C164.66,-282.48 202.49,-321.02 241,-344.5 247.04,-348.18 253.74,-351.48 260.43,-354.37"/>
<polygon fill="#63b8ff" stroke="#63b8ff" points="258.85,-357.51 269.43,-358 261.47,-351.02 258.85,-357.51"/>
</g>
<!-- Node5 -->
<g id="node5" class="node">
<title>Node5</title>
<g id="a_node5"><a xlink:href="class_o_c_a_1_1_c_a_f_e_v_d_b_1_1_email_form_1_1_recipients_filter.html#ab5ee0276791cc2947df51b32bc6c7ba6" target="_top" xlink:title=" ">
<polygon fill="white" stroke="#666666" points="646,-169 579,-169 579,-150 646,-150 646,-169"/>
<text text-anchor="middle" x="612.5" y="-157" font-family="Helvetica,sans-Serif" font-size="10.00">filterHistory</text>
</a>
</g>
</g>
<!-- Node4&#45;&gt;Node5 -->
<g id="edge4" class="edge">
<title>Node4&#45;&gt;Node5</title>
<path fill="none" stroke="#63b8ff" d="M495.14,-159.5C516.59,-159.5 544.34,-159.5 567.36,-159.5"/>
<polygon fill="#63b8ff" stroke="#63b8ff" points="567.06,-163 577.06,-159.5 567.06,-156 567.06,-163"/>
</g>
<!-- Node5&#45;&gt;Node5 -->
<g id="edge5" class="edge">
<title>Node5&#45;&gt;Node5</title>
<path fill="none" stroke="#63b8ff" d="M588.7,-169.37C577.85,-177.94 585.78,-187 612.5,-187 627.11,-187 636.11,-184.29 639.48,-180.43"/>
<polygon fill="#63b8ff" stroke="#63b8ff" points="642.84,-179.46 636.71,-170.82 636.12,-181.4 642.84,-179.46"/>
</g>
<!-- Node6&#45;&gt;Node2 -->
<g id="edge8" class="edge">
<title>Node6&#45;&gt;Node2</title>
<path fill="none" stroke="#63b8ff" d="M342.97,-432.54C350.69,-430.18 358.68,-427.47 366,-424.5 450.08,-390.34 542.72,-335.39 586.26,-308.44"/>
<polygon fill="#63b8ff" stroke="#63b8ff" points="588.07,-311.44 594.71,-303.18 584.37,-305.49 588.07,-311.44"/>
</g>
<!-- Node7 -->
<g id="node7" class="node">
<title>Node7</title>
<g id="a_node7"><a xlink:href="class_o_c_a_1_1_c_a_f_e_v_d_b_1_1_email_form_1_1_recipients_filter.html#a37ce309e4090903297fa1c705634537d" target="_top" xlink:title="The default user base.">
<polygon fill="white" stroke="#666666" points="504,-452 415,-452 415,-433 504,-433 504,-452"/>
<text text-anchor="middle" x="459.5" y="-440" font-family="Helvetica,sans-Serif" font-size="10.00">defaultUserBase</text>
</a>
</g>
</g>
<!-- Node6&#45;&gt;Node7 -->
<g id="edge9" class="edge">
<title>Node6&#45;&gt;Node7</title>
<path fill="none" stroke="#63b8ff" d="M355.35,-442.5C370.79,-442.5 387.82,-442.5 403.52,-442.5"/>
<polygon fill="#63b8ff" stroke="#63b8ff" points="403.16,-446 413.16,-442.5 403.16,-439 403.16,-446"/>
</g>
<!-- Node8 -->
<g id="node8" class="node">
<title>Node8</title>
<g id="a_node8"><a xlink:href="class_o_c_a_1_1_c_a_f_e_v_d_b_1_1_email_form_1_1_recipients_filter.html#a180e59b5c87d178df0b6929526f2c38a" target="_top" xlink:title=" ">
<polygon fill="white" stroke="#666666" points="657.5,-452 567.5,-452 567.5,-433 657.5,-433 657.5,-452"/>
<text text-anchor="middle" x="612.5" y="-440" font-family="Helvetica,sans-Serif" font-size="10.00">frozenRecipients</text>
</a>
</g>
</g>
<!-- Node7&#45;&gt;Node8 -->
<g id="edge10" class="edge">
<title>Node7&#45;&gt;Node8</title>
<path fill="none" stroke="#63b8ff" d="M504.18,-442.5C520.24,-442.5 538.66,-442.5 555.65,-442.5"/>
<polygon fill="#63b8ff" stroke="#63b8ff" points="555.62,-446 565.62,-442.5 555.62,-439 555.62,-446"/>
</g>
<!-- Node9&#45;&gt;Node2 -->
<g id="edge12" class="edge">
<title>Node9&#45;&gt;Node2</title>
<path fill="none" stroke="#63b8ff" d="M345.99,-282.59C363.21,-278.95 383.46,-275.29 402,-273.5 452.87,-268.59 466.14,-268.44 517,-273.5 536.26,-275.42 557.41,-279.48 574.8,-283.36"/>
<polygon fill="#63b8ff" stroke="#63b8ff" points="573.63,-286.68 584.16,-285.52 575.21,-279.86 573.63,-286.68"/>
</g>
<!-- Node10 -->
<g id="node10" class="node">
<title>Node10</title>
<g id="a_node10"><a xlink:href="class_o_c_a_1_1_c_a_f_e_v_d_b_1_1_email_form_1_1_recipients_filter.html#a2765950b3322c101496bb711b89709ed" target="_top" xlink:title=" ">
<polygon fill="white" stroke="#666666" points="504,-302 415,-302 415,-283 504,-283 504,-302"/>
<text text-anchor="middle" x="459.5" y="-290" font-family="Helvetica,sans-Serif" font-size="10.00">instrumentsFilter</text>
</a>
</g>
</g>
<!-- Node9&#45;&gt;Node10 -->
<g id="edge13" class="edge">
<title>Node9&#45;&gt;Node10</title>
<path fill="none" stroke="#63b8ff" d="M359.66,-292.5C373.96,-292.5 389.36,-292.5 403.65,-292.5"/>
<polygon fill="#63b8ff" stroke="#63b8ff" points="403.31,-296 413.31,-292.5 403.31,-289 403.31,-296"/>
</g>
<!-- Node10&#45;&gt;Node2 -->
<g id="edge14" class="edge">
<title>Node10&#45;&gt;Node2</title>
<path fill="none" stroke="#63b8ff" d="M504.18,-292.5C526.41,-292.5 553.16,-292.5 574.39,-292.5"/>
<polygon fill="#63b8ff" stroke="#63b8ff" points="574.35,-296 584.35,-292.5 574.35,-289 574.35,-296"/>
</g>
<!-- Node13&#45;&gt;Node2 -->
<g id="edge18" class="edge">
<title>Node13&#45;&gt;Node2</title>
<path fill="none" stroke="#63b8ff" d="M503.2,-132.44C508.12,-134.62 512.86,-137.27 517,-140.5 523.06,-145.22 576.2,-233.44 600.03,-273.27"/>
<polygon fill="#63b8ff" stroke="#63b8ff" points="596.87,-274.82 605.01,-281.61 602.88,-271.23 596.87,-274.82"/>
</g>
<!-- Node14 -->
<g id="node14" class="node">
<title>Node14</title>
<g id="a_node14"><a xlink:href="class_o_c_a_1_1_c_a_f_e_v_d_b_1_1_email_form_1_1_recipients_filter.html#a0835860e0bc6047f3eff6a9941dbbcf4" target="_top" xlink:title=" ">
<polygon fill="white" stroke="#666666" points="655.5,-113 569.5,-113 569.5,-94 655.5,-94 655.5,-113"/>
<text text-anchor="middle" x="612.5" y="-101" font-family="Helvetica,sans-Serif" font-size="10.00">defaultByStatus</text>
</a>
</g>
</g>
<!-- Node13&#45;&gt;Node14 -->
<g id="edge19" class="edge">
<title>Node13&#45;&gt;Node14</title>
<path fill="none" stroke="#63b8ff" d="M517.16,-115.37C530.49,-113.69 544.66,-111.91 557.86,-110.25"/>
<polygon fill="#63b8ff" stroke="#63b8ff" points="558.17,-113.74 567.66,-109.02 557.3,-106.79 558.17,-113.74"/>
</g>
<!-- Node15&#45;&gt;Node5 -->
<g id="edge21" class="edge">
<title>Node15&#45;&gt;Node5</title>
<path fill="none" stroke="#63b8ff" d="M330.07,-37.49C349.68,-45.08 377.46,-55.69 402,-64.5 452.79,-82.74 467.96,-80.95 517,-103.5 542,-114.99 568.84,-131.32 587.5,-143.38"/>
<polygon fill="#63b8ff" stroke="#63b8ff" points="585.42,-146.2 595.7,-148.75 589.25,-140.34 585.42,-146.2"/>
</g>
<!-- Node15&#45;&gt;Node16 -->
<g id="edge22" class="edge">
<title>Node15&#45;&gt;Node16</title>
<path fill="none" stroke="#63b8ff" d="M336.78,-31.48C355.49,-33.79 379.57,-36.76 401.38,-39.45"/>
<polygon fill="#63b8ff" stroke="#63b8ff" points="400.67,-42.89 411.03,-40.64 401.53,-35.94 400.67,-42.89"/>
</g>
<!-- Node18 -->
<g id="node18" class="node">
<title>Node18</title>
<g id="a_node18"><a xlink:href="class_o_c_a_1_1_c_a_f_e_v_d_b_1_1_email_form_1_1_recipients_filter.html#a69438f7e0899945b1e31f677ce1251af" target="_top" xlink:title="Validate the given history records, return false on error.">
<polygon fill="white" stroke="#666666" points="500.5,-19 418.5,-19 418.5,0 500.5,0 500.5,-19"/>
<text text-anchor="middle" x="459.5" y="-7" font-family="Helvetica,sans-Serif" font-size="10.00">validateHistory</text>
</a>
</g>
</g>
<!-- Node15&#45;&gt;Node18 -->
<g id="edge26" class="edge">
<title>Node15&#45;&gt;Node18</title>
<path fill="none" stroke="#63b8ff" d="M336.78,-23.73C357,-21.36 383.52,-18.26 406.64,-15.56"/>
<polygon fill="#63b8ff" stroke="#63b8ff" points="406.99,-19.04 416.52,-14.41 406.18,-12.09 406.99,-19.04"/>
</g>
<!-- Node16&#45;&gt;Node5 -->
<g id="edge25" class="edge">
<title>Node16&#45;&gt;Node5</title>
<path fill="none" stroke="#63b8ff" d="M492.42,-56.46C500.95,-60.04 509.78,-64.68 517,-70.5 538.59,-87.92 533.01,-102.26 553,-121.5 561.77,-129.94 572.67,-137.61 582.68,-143.81"/>
<polygon fill="#63b8ff" stroke="#63b8ff" points="580.58,-146.64 590.97,-148.73 584.15,-140.62 580.58,-146.64"/>
</g>
<!-- Node16&#45;&gt;Node14 -->
<g id="edge24" class="edge">
<title>Node16&#45;&gt;Node14</title>
<path fill="none" stroke="#63b8ff" d="M486.8,-56.43C511.09,-65.6 547.4,-79.3 574.58,-89.57"/>
<polygon fill="#63b8ff" stroke="#63b8ff" points="573.24,-92.8 583.83,-93.06 575.71,-86.25 573.24,-92.8"/>
</g>
<!-- Node17 -->
<g id="node17" class="node">
<title>Node17</title>
<g id="a_node17"><a xlink:href="class_o_c_a_1_1_c_a_f_e_v_d_b_1_1_email_form_1_1_recipients_filter.html#a9ceb14e2f27e74da6d3f47217cafac78" target="_top" xlink:title=" ">
<polygon fill="white" stroke="#666666" points="663,-56 562,-56 562,-37 663,-37 663,-56"/>
<text text-anchor="middle" x="612.5" y="-44" font-family="Helvetica,sans-Serif" font-size="10.00">basicRecipientsSet</text>
</a>
</g>
</g>
<!-- Node16&#45;&gt;Node17 -->
<g id="edge23" class="edge">
<title>Node16&#45;&gt;Node17</title>
<path fill="none" stroke="#63b8ff" d="M506.21,-46.5C520.19,-46.5 535.78,-46.5 550.59,-46.5"/>
<polygon fill="#63b8ff" stroke="#63b8ff" points="550.22,-50 560.22,-46.5 550.22,-43 550.22,-50"/>
</g>
<!-- Node19 -->
<g id="node19" class="node">
<title>Node19</title>
<g id="a_node19"><a xlink:href="class_o_c_a_1_1_c_a_f_e_v_d_b_1_1_email_form_1_1_recipients_filter.html#aeeefa163256bf7669c5591e228f57850" target="_top" xlink:title="Validate all history records.">
<polygon fill="white" stroke="#666666" points="672,-19 553,-19 553,0 672,0 672,-19"/>
<text text-anchor="middle" x="612.5" y="-7" font-family="Helvetica,sans-Serif" font-size="10.00">validateHistoryRecords</text>
</a>
</g>
</g>
<!-- Node18&#45;&gt;Node19 -->
<g id="edge27" class="edge">
<title>Node18&#45;&gt;Node19</title>
<path fill="none" stroke="#63b8ff" d="M500.97,-9.5C513.39,-9.5 527.43,-9.5 541.25,-9.5"/>
<polygon fill="#63b8ff" stroke="#63b8ff" points="541.24,-13 551.24,-9.5 541.24,-6 541.24,-13"/>
</g>
<!-- Node20 -->
<g id="node20" class="node">
<title>Node20</title>
<g id="a_node20"><a xlink:href="class_o_c_a_1_1_c_a_f_e_v_d_b_1_1_email_form_1_1_recipients_filter.html#a356c7d5f6dcee2bfc20c2285237a341f" target="_top" xlink:title="Validate one history entry.">
<polygon fill="white" stroke="#666666" points="821,-19 708,-19 708,0 821,0 821,-19"/>
<text text-anchor="middle" x="764.5" y="-7" font-family="Helvetica,sans-Serif" font-size="10.00">validateHistoryRecord</text>
</a>
</g>
</g>
<!-- Node19&#45;&gt;Node20 -->
<g id="edge28" class="edge">
<title>Node19&#45;&gt;Node20</title>
<path fill="none" stroke="#63b8ff" d="M672.35,-9.5C680.28,-9.5 688.45,-9.5 696.5,-9.5"/>
<polygon fill="#63b8ff" stroke="#63b8ff" points="696.24,-13 706.24,-9.5 696.24,-6 696.24,-13"/>
</g>
<!-- Node21&#45;&gt;Node2 -->
<g id="edge30" class="edge">
<title>Node21&#45;&gt;Node2</title>
<path fill="none" stroke="#63b8ff" d="M485.5,-226.48C495.41,-230.6 506.84,-235.56 517,-240.5 540.34,-251.84 566.1,-266.14 584.82,-276.87"/>
<polygon fill="#63b8ff" stroke="#63b8ff" points="582.98,-279.85 593.39,-281.82 586.48,-273.79 582.98,-279.85"/>
</g>
<!-- Node21&#45;&gt;Node5 -->
<g id="edge31" class="edge">
<title>Node21&#45;&gt;Node5</title>
<path fill="none" stroke="#63b8ff" d="M486.8,-206.57C511.09,-197.4 547.4,-183.7 574.58,-173.43"/>
<polygon fill="#63b8ff" stroke="#63b8ff" points="575.71,-176.75 583.83,-169.94 573.24,-170.2 575.71,-176.75"/>
</g>
</g>
</svg>
        <g id="navigator" transform="translate(0 0)" fill="#404254">
                <rect fill="#f2f5e9" fill-opacity="0.5" stroke="#606060" stroke-width=".5" x="0" y="0" width="60" height="60"/>
                <use id="zoomplus" xlink:href="#zoomPlus" x="17" y="9" onmousedown="handleZoom(evt,'in')"/>
                <use id="zoomminus" xlink:href="#zoomMin" x="42" y="9" onmousedown="handleZoom(evt,'out')"/>
                <use id="reset" xlink:href="#resetDef" x="30" y="36" onmousedown="handleReset()"/>
                <g id="arrowUp" xlink:href="#dirArrow" transform="translate(30 24)" onmousedown="handlePan(0,-1)">
                  <use xlink:href="#rim" fill="#404040">
                        <set attributeName="fill" to="#808080" begin="arrowUp.mouseover" end="arrowUp.mouseout"/>
                  </use>
                  <path fill="none" stroke="white" stroke-width="1.5" d="M0,-3.0v7 M-2.5,-0.5L0,-3.0L2.5,-0.5"/>
                </g>
                <g id="arrowRight" xlink:href="#dirArrow" transform="rotate(90) translate(36 -43)" onmousedown="handlePan(1,0)">
                  <use xlink:href="#rim" fill="#404040">
                        <set attributeName="fill" to="#808080" begin="arrowRight.mouseover" end="arrowRight.mouseout"/>
                  </use>
                  <path fill="none" stroke="white" stroke-width="1.5" d="M0,-3.0v7 M-2.5,-0.5L0,-3.0L2.5,-0.5"/>
                </g>
                <g id="arrowDown" xlink:href="#dirArrow" transform="rotate(180) translate(-30 -48)" onmousedown="handlePan(0,1)">
                  <use xlink:href="#rim" fill="#404040">
                        <set attributeName="fill" to="#808080" begin="arrowDown.mouseover" end="arrowDown.mouseout"/>
                  </use>
                  <path fill="none" stroke="white" stroke-width="1.5" d="M0,-3.0v7 M-2.5,-0.5L0,-3.0L2.5,-0.5"/>
                </g>
                <g id="arrowLeft" xlink:href="#dirArrow" transform="rotate(270) translate(-36 17)" onmousedown="handlePan(-1,0)">
                  <use xlink:href="#rim" fill="#404040">
                        <set attributeName="fill" to="#808080" begin="arrowLeft.mouseover" end="arrowLeft.mouseout"/>
                  </use>
                  <path fill="none" stroke="white" stroke-width="1.5" d="M0,-3.0v7 M-2.5,-0.5L0,-3.0L2.5,-0.5"/>
                </g>
        </g>
        <svg viewBox="0 0 15 15" width="100%" height="30px" preserveAspectRatio="xMaxYMin meet">
         <g id="arrow_out" transform="scale(0.3 0.3)">
          <a xlink:href="class_o_c_a_1_1_c_a_f_e_v_d_b_1_1_email_form_1_1_recipients_filter_ae40c9dafec946961dfd72815f6764fb8_cgraph_org.svg" target="_base">
           <rect id="button" ry="5" rx="5" y="6" x="6" height="38" width="38"
                fill="#f2f5e9" fill-opacity="0.5" stroke="#606060" stroke-width="1.0"/>
           <path id="arrow"
             d="M 11.500037,31.436501 C 11.940474,20.09759 22.043105,11.32322 32.158766,21.979434 L 37.068811,17.246167 C 37.068811,17.246167 37.088388,32 37.088388,32 L 22.160133,31.978069 C 22.160133,31.978069 26.997745,27.140456 26.997745,27.140456 C 18.528582,18.264221 13.291696,25.230495 11.500037,31.436501 z"
             style="fill:#404040;"/>
          </a>
         </g>
        </svg>
</svg>
