<?xml version="1.0" encoding="UTF-8" standalone="no"?>
<!DOCTYPE svg PUBLIC "-//W3C//DTD SVG 1.1//EN"
 "http://www.w3.org/Graphics/SVG/1.1/DTD/svg11.dtd">
<!-- Generated by graphviz version 7.1.0 (20230121.1956)
 -->
<!-- Title: Renderer Pages: 1 -->
<!--zoomable 471 -->
<svg id="main" version="1.1" xmlns="http://www.w3.org/2000/svg" xmlns:xlink="http://www.w3.org/1999/xlink" xml:space="preserve" onload="init(evt)">
<style type="text/css"><![CDATA[
.edge:hover path { stroke: red; }
.edge:hover polygon { stroke: red; fill: red; }
]]></style>
<script type="text/javascript"><![CDATA[
var edges = document.getElementsByTagName('g');
if (edges && edges.length) {
  for (var i=0;i<edges.length;i++) {
    if (edges[i].id.substr(0,4)=='edge') {
      edges[i].setAttribute('class','edge');
    }
  }
}
]]></script>
        <defs>
                <circle id="rim" cx="0" cy="0" r="7"/>
                <circle id="rim2" cx="0" cy="0" r="3.5"/>
                <g id="zoomPlus">
                        <use xlink:href="#rim" fill="#404040">
                                <set attributeName="fill" to="#808080" begin="zoomplus.mouseover" end="zoomplus.mouseout"/>
                        </use>
                        <path d="M-4,0h8M0,-4v8" fill="none" stroke="white" stroke-width="1.5" pointer-events="none"/>
                </g>
                <g id="zoomMin">
                        <use xlink:href="#rim" fill="#404040">
                                <set attributeName="fill" to="#808080" begin="zoomminus.mouseover" end="zoomminus.mouseout"/>
                        </use>
                        <path d="M-4,0h8" fill="none" stroke="white" stroke-width="1.5" pointer-events="none"/>
                </g>
                <g id="dirArrow">
                        <path fill="none" stroke="white" stroke-width="1.5" d="M0,-3.0v7 M-2.5,-0.5L0,-3.0L2.5,-0.5"/>
                </g>
               <g id="resetDef">
                       <use xlink:href="#rim2" fill="#404040">
                               <set attributeName="fill" to="#808080" begin="reset.mouseover" end="reset.mouseout"/>
                       </use>
               </g>
        </defs>

<script type="text/javascript">
var viewWidth = 492;
var viewHeight = 471;
var sectionId = 'dynsection-0';
</script>
<script xlink:href="svgpan.js"/>
<svg id="graph" class="graph">
<g id="viewport">
<title>Renderer</title>
<!-- Node1 -->
<g id="node1" class="node">
<title>Node1</title>
<g id="a_node1"><a xlink:title="Abstract base HTML renderer.">
<polygon fill="#999999" stroke="#666666" points="151,-241 95,-241 95,-222 151,-222 151,-241"/>
<text text-anchor="middle" x="123" y="-229" font-family="Helvetica,sans-Serif" font-size="10.00">Renderer</text>
</a>
</g>
</g>
<!-- Node3 -->
<g id="node3" class="node">
<title>Node3</title>
<g id="a_node3"><a xlink:href="class_o_c_a_1_1_c_a_f_e_v_d_b_1_1_page_renderer_1_1_p_m_e_table_view_base.html" target="_top" xlink:title="Base for phpMyEdit based table&#45;views.">
<polygon fill="white" stroke="#666666" points="293,-241 187,-241 187,-222 293,-222 293,-241"/>
<text text-anchor="middle" x="240" y="-229" font-family="Helvetica,sans-Serif" font-size="10.00">PMETableViewBase</text>
</a>
</g>
</g>
<!-- Node1&#45;&gt;Node3 -->
<g id="edge2" class="edge">
<title>Node1&#45;&gt;Node3</title>
<path fill="none" stroke="#63b8ff" d="M162.53,-231.5C170.28,-231.5 178.55,-231.5 186.67,-231.5"/>
<polygon fill="#63b8ff" stroke="#63b8ff" points="162.77,-228 152.77,-231.5 162.77,-235 162.77,-228"/>
</g>
<!-- Node2 -->
<g id="node2" class="node">
<title>Node2</title>
<g id="a_node2"><a xlink:href="interface_o_c_a_1_1_c_a_f_e_v_d_b_1_1_page_renderer_1_1_i_renderer.html" target="_top" xlink:title="HTML Renderer interface.">
<polygon fill="white" stroke="#666666" points="59,-241 0,-241 0,-222 59,-222 59,-241"/>
<text text-anchor="middle" x="29.5" y="-229" font-family="Helvetica,sans-Serif" font-size="10.00">IRenderer</text>
</a>
</g>
</g>
<!-- Node2&#45;&gt;Node1 -->
<g id="edge1" class="edge">
<title>Node2&#45;&gt;Node1</title>
<path fill="none" stroke="#63b8ff" d="M70.7,-231.5C78.84,-231.5 87.23,-231.5 94.79,-231.5"/>
<polygon fill="#63b8ff" stroke="#63b8ff" points="70.96,-228 60.96,-231.5 70.96,-235 70.96,-228"/>
</g>
<!-- Node4 -->
<g id="node4" class="node">
<title>Node4</title>
<g id="a_node4"><a xlink:href="class_o_c_a_1_1_c_a_f_e_v_d_b_1_1_page_renderer_1_1_instrument_families.html" target="_top" xlink:title="Table generator for Instruments table.">
<polygon fill="white" stroke="#666666" points="456.5,-463 356.5,-463 356.5,-444 456.5,-444 456.5,-463"/>
<text text-anchor="middle" x="406.5" y="-451" font-family="Helvetica,sans-Serif" font-size="10.00">InstrumentFamilies</text>
</a>
</g>
</g>
<!-- Node3&#45;&gt;Node4 -->
<g id="edge3" class="edge">
<title>Node3&#45;&gt;Node4</title>
<path fill="none" stroke="#63b8ff" d="M243.8,-252.6C250.5,-294.27 271.39,-387.24 329,-435.5 336.74,-441.98 346.4,-446.22 356.22,-448.97"/>
<polygon fill="#63b8ff" stroke="#63b8ff" points="247.3,-252.3 242.38,-242.92 240.37,-253.32 247.3,-252.3"/>
</g>
<!-- Node5 -->
<g id="node5" class="node">
<title>Node5</title>
<g id="a_node5"><a xlink:href="class_o_c_a_1_1_c_a_f_e_v_d_b_1_1_page_renderer_1_1_instrument_insurances.html" target="_top" xlink:title="Render the instrument insurances of the club&#45;members.">
<polygon fill="white" stroke="#666666" points="462,-426 351,-426 351,-407 462,-407 462,-426"/>
<text text-anchor="middle" x="406.5" y="-414" font-family="Helvetica,sans-Serif" font-size="10.00">InstrumentInsurances</text>
</a>
</g>
</g>
<!-- Node3&#45;&gt;Node5 -->
<g id="edge4" class="edge">
<title>Node3&#45;&gt;Node5</title>
<path fill="none" stroke="#63b8ff" d="M245.9,-252.18C255.46,-287.83 280.08,-360.65 329,-398.5 335.37,-403.43 342.86,-407.04 350.63,-409.68"/>
<polygon fill="#63b8ff" stroke="#63b8ff" points="249.35,-251.55 243.5,-242.71 242.56,-253.26 249.35,-251.55"/>
</g>
<!-- Node6 -->
<g id="node6" class="node">
<title>Node6</title>
<g id="a_node6"><a xlink:href="class_o_c_a_1_1_c_a_f_e_v_d_b_1_1_page_renderer_1_1_instruments.html" target="_top" xlink:title="Table generator for Instruments table.">
<polygon fill="white" stroke="#666666" points="440.5,-389 372.5,-389 372.5,-370 440.5,-370 440.5,-389"/>
<text text-anchor="middle" x="406.5" y="-377" font-family="Helvetica,sans-Serif" font-size="10.00">Instruments</text>
</a>
</g>
</g>
<!-- Node3&#45;&gt;Node6 -->
<g id="edge5" class="edge">
<title>Node3&#45;&gt;Node6</title>
<path fill="none" stroke="#63b8ff" d="M248.95,-251.62C261.46,-280.6 288.57,-333.64 329,-361.5 341.58,-370.17 357.8,-374.7 372.06,-377.05"/>
<polygon fill="#63b8ff" stroke="#63b8ff" points="252.25,-250.45 245.19,-242.55 245.78,-253.12 252.25,-250.45"/>
</g>
<!-- Node7 -->
<g id="node7" class="node">
<title>Node7</title>
<g id="a_node7"><a xlink:href="class_o_c_a_1_1_c_a_f_e_v_d_b_1_1_page_renderer_1_1_insurance_brokers.html" target="_top" xlink:title="Table generator for Instruments table.">
<polygon fill="white" stroke="#666666" points="453,-352 360,-352 360,-333 453,-333 453,-352"/>
<text text-anchor="middle" x="406.5" y="-340" font-family="Helvetica,sans-Serif" font-size="10.00">InsuranceBrokers</text>
</a>
</g>
</g>
<!-- Node3&#45;&gt;Node7 -->
<g id="edge6" class="edge">
<title>Node3&#45;&gt;Node7</title>
<path fill="none" stroke="#63b8ff" d="M253.92,-250.8C269.27,-272.17 296.88,-306.02 329,-324.5 338.34,-329.87 349.2,-333.65 359.76,-336.29"/>
<polygon fill="#63b8ff" stroke="#63b8ff" points="256.86,-248.89 248.27,-242.68 251.11,-252.89 256.86,-248.89"/>
</g>
<!-- Node8 -->
<g id="node8" class="node">
<title>Node8</title>
<g id="a_node8"><a xlink:href="class_o_c_a_1_1_c_a_f_e_v_d_b_1_1_page_renderer_1_1_insurance_rates.html" target="_top" xlink:title="Table generator for Instruments table.">
<polygon fill="white" stroke="#666666" points="449.5,-315 363.5,-315 363.5,-296 449.5,-296 449.5,-315"/>
<text text-anchor="middle" x="406.5" y="-303" font-family="Helvetica,sans-Serif" font-size="10.00">InsuranceRates</text>
</a>
</g>
</g>
<!-- Node3&#45;&gt;Node8 -->
<g id="edge7" class="edge">
<title>Node3&#45;&gt;Node8</title>
<path fill="none" stroke="#63b8ff" d="M262.48,-248.09C279.63,-260.59 304.73,-277.27 329,-287.5 339.69,-292 351.71,-295.5 363.01,-298.17"/>
<polygon fill="#63b8ff" stroke="#63b8ff" points="264.69,-245.37 254.58,-242.19 260.5,-250.98 264.69,-245.37"/>
</g>
<!-- Node9 -->
<g id="node9" class="node">
<title>Node9</title>
<g id="a_node9"><a xlink:href="class_o_c_a_1_1_c_a_f_e_v_d_b_1_1_page_renderer_1_1_musicians.html" target="_top" xlink:title="Table generator for Musicians table.">
<polygon fill="white" stroke="#666666" points="437,-278 376,-278 376,-259 437,-259 437,-278"/>
<text text-anchor="middle" x="406.5" y="-266" font-family="Helvetica,sans-Serif" font-size="10.00">Musicians</text>
</a>
</g>
</g>
<!-- Node3&#45;&gt;Node9 -->
<g id="edge8" class="edge">
<title>Node3&#45;&gt;Node9</title>
<path fill="none" stroke="#63b8ff" d="M296.16,-243.91C322.7,-249.88 353.47,-256.8 375.6,-261.77"/>
<polygon fill="#63b8ff" stroke="#63b8ff" points="297.08,-240.53 286.56,-241.75 295.55,-247.36 297.08,-240.53"/>
</g>
<!-- Node10 -->
<g id="node10" class="node">
<title>Node10</title>
<g id="a_node10"><a xlink:href="class_o_c_a_1_1_c_a_f_e_v_d_b_1_1_page_renderer_1_1_project_instrumentation_numbers.html" target="_top" xlink:title="Table generator for Instruments table.">
<polygon fill="white" stroke="#666666" points="484,-241 329,-241 329,-222 484,-222 484,-241"/>
<text text-anchor="middle" x="406.5" y="-229" font-family="Helvetica,sans-Serif" font-size="10.00">ProjectInstrumentationNumbers</text>
</a>
</g>
</g>
<!-- Node3&#45;&gt;Node10 -->
<g id="edge9" class="edge">
<title>Node3&#45;&gt;Node10</title>
<path fill="none" stroke="#63b8ff" d="M304.42,-231.5C312.32,-231.5 320.47,-231.5 328.55,-231.5"/>
<polygon fill="#63b8ff" stroke="#63b8ff" points="304.56,-228 294.56,-231.5 304.56,-235 304.56,-228"/>
</g>
<!-- Node11 -->
<g id="node11" class="node">
<title>Node11</title>
<g id="a_node11"><a xlink:href="class_o_c_a_1_1_c_a_f_e_v_d_b_1_1_page_renderer_1_1_project_participant_fields.html" target="_top" xlink:title="Table generator for Instruments table.">
<polygon fill="white" stroke="#666666" points="466.5,-204 346.5,-204 346.5,-185 466.5,-185 466.5,-204"/>
<text text-anchor="middle" x="406.5" y="-192" font-family="Helvetica,sans-Serif" font-size="10.00">ProjectParticipantFields</text>
</a>
</g>
</g>
<!-- Node3&#45;&gt;Node11 -->
<g id="edge10" class="edge">
<title>Node3&#45;&gt;Node11</title>
<path fill="none" stroke="#63b8ff" d="M296.21,-219.08C317.39,-214.32 341.27,-208.95 361.3,-204.44"/>
<polygon fill="#63b8ff" stroke="#63b8ff" points="295.55,-215.64 286.56,-221.25 297.08,-222.47 295.55,-215.64"/>
</g>
<!-- Node12 -->
<g id="node12" class="node">
<title>Node12</title>
<g id="a_node12"><a xlink:href="class_o_c_a_1_1_c_a_f_e_v_d_b_1_1_page_renderer_1_1_project_participants.html" target="_top" xlink:title="Table generator for Instruments table.">
<polygon fill="white" stroke="#666666" points="456,-167 357,-167 357,-148 456,-148 456,-167"/>
<text text-anchor="middle" x="406.5" y="-155" font-family="Helvetica,sans-Serif" font-size="10.00">ProjectParticipants</text>
</a>
</g>
</g>
<!-- Node3&#45;&gt;Node12 -->
<g id="edge11" class="edge">
<title>Node3&#45;&gt;Node12</title>
<path fill="none" stroke="#63b8ff" d="M262.48,-214.91C279.63,-202.41 304.73,-185.73 329,-175.5 337.68,-171.84 347.23,-168.85 356.56,-166.43"/>
<polygon fill="#63b8ff" stroke="#63b8ff" points="260.5,-212.02 254.58,-220.81 264.69,-217.63 260.5,-212.02"/>
</g>
<!-- Node13 -->
<g id="node13" class="node">
<title>Node13</title>
<g id="a_node13"><a xlink:href="class_o_c_a_1_1_c_a_f_e_v_d_b_1_1_page_renderer_1_1_project_payments.html" target="_top" xlink:title="Table generator for Instruments table.">
<polygon fill="white" stroke="#666666" points="452.5,-130 360.5,-130 360.5,-111 452.5,-111 452.5,-130"/>
<text text-anchor="middle" x="406.5" y="-118" font-family="Helvetica,sans-Serif" font-size="10.00">ProjectPayments</text>
</a>
</g>
</g>
<!-- Node3&#45;&gt;Node13 -->
<g id="edge12" class="edge">
<title>Node3&#45;&gt;Node13</title>
<path fill="none" stroke="#63b8ff" d="M253.92,-212.2C269.27,-190.83 296.88,-156.98 329,-138.5 338.46,-133.06 349.48,-129.26 360.16,-126.61"/>
<polygon fill="#63b8ff" stroke="#63b8ff" points="251.11,-210.11 248.27,-220.32 256.86,-214.11 251.11,-210.11"/>
</g>
<!-- Node14 -->
<g id="node14" class="node">
<title>Node14</title>
<g id="a_node14"><a xlink:href="class_o_c_a_1_1_c_a_f_e_v_d_b_1_1_page_renderer_1_1_projects.html" target="_top" xlink:title="Table generator for Projects table.">
<polygon fill="white" stroke="#666666" points="433,-93 380,-93 380,-74 433,-74 433,-93"/>
<text text-anchor="middle" x="406.5" y="-81" font-family="Helvetica,sans-Serif" font-size="10.00">Projects</text>
</a>
</g>
</g>
<!-- Node3&#45;&gt;Node14 -->
<g id="edge13" class="edge">
<title>Node3&#45;&gt;Node14</title>
<path fill="none" stroke="#63b8ff" d="M248.95,-211.38C261.46,-182.4 288.57,-129.36 329,-101.5 343.94,-91.2 364.01,-86.75 379.84,-84.84"/>
<polygon fill="#63b8ff" stroke="#63b8ff" points="245.78,-209.88 245.19,-220.45 252.25,-212.55 245.78,-209.88"/>
</g>
<!-- Node15 -->
<g id="node15" class="node">
<title>Node15</title>
<g id="a_node15"><a xlink:href="class_o_c_a_1_1_c_a_f_e_v_d_b_1_1_page_renderer_1_1_sepa_bank_accounts.html" target="_top" xlink:title="TBD.">
<polygon fill="white" stroke="#666666" points="458,-56 355,-56 355,-37 458,-37 458,-56"/>
<text text-anchor="middle" x="406.5" y="-44" font-family="Helvetica,sans-Serif" font-size="10.00">SepaBankAccounts</text>
</a>
</g>
</g>
<!-- Node3&#45;&gt;Node15 -->
<g id="edge14" class="edge">
<title>Node3&#45;&gt;Node15</title>
<path fill="none" stroke="#63b8ff" d="M245.9,-210.82C255.46,-175.17 280.08,-102.35 329,-64.5 336.45,-58.74 345.44,-54.78 354.6,-52.06"/>
<polygon fill="#63b8ff" stroke="#63b8ff" points="242.56,-209.74 243.5,-220.29 249.35,-211.45 242.56,-209.74"/>
</g>
<!-- Node16 -->
<g id="node16" class="node">
<title>Node16</title>
<g id="a_node16"><a xlink:href="class_o_c_a_1_1_c_a_f_e_v_d_b_1_1_page_renderer_1_1_sepa_bulk_transactions.html" target="_top" xlink:title="TBD.">
<polygon fill="white" stroke="#666666" points="464,-19 349,-19 349,0 464,0 464,-19"/>
<text text-anchor="middle" x="406.5" y="-7" font-family="Helvetica,sans-Serif" font-size="10.00">SepaBulkTransactions</text>
</a>
</g>
</g>
<!-- Node3&#45;&gt;Node16 -->
<g id="edge15" class="edge">
<title>Node3&#45;&gt;Node16</title>
<path fill="none" stroke="#63b8ff" d="M243.8,-210.4C250.5,-168.73 271.39,-75.76 329,-27.5 334.75,-22.68 341.56,-19.1 348.71,-16.45"/>
<polygon fill="#63b8ff" stroke="#63b8ff" points="240.37,-209.68 242.38,-220.08 247.3,-210.7 240.37,-209.68"/>
</g>
</g>
</svg>
        <g id="navigator" transform="translate(0 0)" fill="#404254">
                <rect fill="#f2f5e9" fill-opacity="0.5" stroke="#606060" stroke-width=".5" x="0" y="0" width="60" height="60"/>
                <use id="zoomplus" xlink:href="#zoomPlus" x="17" y="9" onmousedown="handleZoom(evt,'in')"/>
                <use id="zoomminus" xlink:href="#zoomMin" x="42" y="9" onmousedown="handleZoom(evt,'out')"/>
                <use id="reset" xlink:href="#resetDef" x="30" y="36" onmousedown="handleReset()"/>
                <g id="arrowUp" xlink:href="#dirArrow" transform="translate(30 24)" onmousedown="handlePan(0,-1)">
                  <use xlink:href="#rim" fill="#404040">
                        <set attributeName="fill" to="#808080" begin="arrowUp.mouseover" end="arrowUp.mouseout"/>
                  </use>
                  <path fill="none" stroke="white" stroke-width="1.5" d="M0,-3.0v7 M-2.5,-0.5L0,-3.0L2.5,-0.5"/>
                </g>
                <g id="arrowRight" xlink:href="#dirArrow" transform="rotate(90) translate(36 -43)" onmousedown="handlePan(1,0)">
                  <use xlink:href="#rim" fill="#404040">
                        <set attributeName="fill" to="#808080" begin="arrowRight.mouseover" end="arrowRight.mouseout"/>
                  </use>
                  <path fill="none" stroke="white" stroke-width="1.5" d="M0,-3.0v7 M-2.5,-0.5L0,-3.0L2.5,-0.5"/>
                </g>
                <g id="arrowDown" xlink:href="#dirArrow" transform="rotate(180) translate(-30 -48)" onmousedown="handlePan(0,1)">
                  <use xlink:href="#rim" fill="#404040">
                        <set attributeName="fill" to="#808080" begin="arrowDown.mouseover" end="arrowDown.mouseout"/>
                  </use>
                  <path fill="none" stroke="white" stroke-width="1.5" d="M0,-3.0v7 M-2.5,-0.5L0,-3.0L2.5,-0.5"/>
                </g>
                <g id="arrowLeft" xlink:href="#dirArrow" transform="rotate(270) translate(-36 17)" onmousedown="handlePan(-1,0)">
                  <use xlink:href="#rim" fill="#404040">
                        <set attributeName="fill" to="#808080" begin="arrowLeft.mouseover" end="arrowLeft.mouseout"/>
                  </use>
                  <path fill="none" stroke="white" stroke-width="1.5" d="M0,-3.0v7 M-2.5,-0.5L0,-3.0L2.5,-0.5"/>
                </g>
        </g>
        <svg viewBox="0 0 15 15" width="100%" height="30px" preserveAspectRatio="xMaxYMin meet">
         <g id="arrow_out" transform="scale(0.3 0.3)">
          <a xlink:href="class_o_c_a_1_1_c_a_f_e_v_d_b_1_1_page_renderer_1_1_renderer__inherit__graph_org.svg" target="_base">
           <rect id="button" ry="5" rx="5" y="6" x="6" height="38" width="38"
                fill="#f2f5e9" fill-opacity="0.5" stroke="#606060" stroke-width="1.0"/>
           <path id="arrow"
             d="M 11.500037,31.436501 C 11.940474,20.09759 22.043105,11.32322 32.158766,21.979434 L 37.068811,17.246167 C 37.068811,17.246167 37.088388,32 37.088388,32 L 22.160133,31.978069 C 22.160133,31.978069 26.997745,27.140456 26.997745,27.140456 C 18.528582,18.264221 13.291696,25.230495 11.500037,31.436501 z"
             style="fill:#404040;"/>
          </a>
         </g>
        </svg>
</svg>
