<?xml version="1.0" encoding="UTF-8" standalone="no"?>
<!DOCTYPE svg PUBLIC "-//W3C//DTD SVG 1.1//EN"
 "http://www.w3.org/Graphics/SVG/1.1/DTD/svg11.dtd">
<!-- Generated by graphviz version 7.1.0 (20230121.1956)
 -->
<!-- Title: getDefaultCategories Pages: 1 -->
<svg width="377pt" height="27pt"
 viewBox="0.00 0.00 377.00 27.00" xmlns="http://www.w3.org/2000/svg" xmlns:xlink="http://www.w3.org/1999/xlink">
<g id="graph0" class="graph" transform="scale(1 1) rotate(0) translate(4 23)">
<title>getDefaultCategories</title>
<!-- Node1 -->
<g id="node1" class="node">
<title>Node1</title>
<g id="a_node1"><a xlink:title="returns the default categories of ownCloud">
<polygon fill="#999999" stroke="#666666" points="369,-19 260,-19 260,0 369,0 369,-19"/>
<text text-anchor="middle" x="314.5" y="-7" font-family="Helvetica,sans-Serif" font-size="10.00">getDefaultCategories</text>
</a>
</g>
</g>
<!-- Node2 -->
<g id="node2" class="node">
<title>Node2</title>
<g id="a_node2"><a xlink:href="class_o_c_a_1_1_c_a_f_e_v_d_b_1_1_legacy_1_1_calendar_1_1_o_c___calendar___app.html#a4c5656d6a34fbce12f67fd3690511dcb" target="_top" xlink:title="returns the vcategories object of the user">
<polygon fill="white" stroke="#666666" points="224,-19 140,-19 140,0 224,0 224,-19"/>
<text text-anchor="middle" x="182" y="-7" font-family="Helvetica,sans-Serif" font-size="10.00">getVCategories</text>
</a>
</g>
</g>
<!-- Node1&#45;&gt;Node2 -->
<g id="edge1" class="edge">
<title>Node1&#45;&gt;Node2</title>
<path fill="none" stroke="#63b8ff" d="M248.23,-9.5C240.1,-9.5 231.97,-9.5 224.35,-9.5"/>
<polygon fill="#63b8ff" stroke="#63b8ff" points="248.15,-13 258.15,-9.5 248.15,-6 248.15,-13"/>
</g>
<!-- Node3 -->
<g id="node3" class="node">
<title>Node3</title>
<g id="a_node3"><a xlink:href="class_o_c_a_1_1_c_a_f_e_v_d_b_1_1_legacy_1_1_calendar_1_1_o_c___calendar___app.html#a4f51807e3837a73286e2cca20d70fb06" target="_top" xlink:title="returns the categories of the vcategories object">
<polygon fill="white" stroke="#666666" points="104,-19 0,-19 0,0 104,0 104,-19"/>
<text text-anchor="middle" x="52" y="-7" font-family="Helvetica,sans-Serif" font-size="10.00">getCategoryOptions</text>
</a>
</g>
</g>
<!-- Node2&#45;&gt;Node3 -->
<g id="edge2" class="edge">
<title>Node2&#45;&gt;Node3</title>
<path fill="none" stroke="#63b8ff" d="M128.43,-9.5C120.51,-9.5 112.35,-9.5 104.45,-9.5"/>
<polygon fill="#63b8ff" stroke="#63b8ff" points="128.28,-13 138.28,-9.5 128.28,-6 128.28,-13"/>
</g>
</g>
</svg>
