<?xml version="1.0" encoding="UTF-8" standalone="no"?>
<!DOCTYPE svg PUBLIC "-//W3C//DTD SVG 1.1//EN"
 "http://www.w3.org/Graphics/SVG/1.1/DTD/svg11.dtd">
<!-- Generated by graphviz version 7.1.0 (20230121.1956)
 -->
<!-- Title: searchFolders Pages: 1 -->
<svg width="664pt" height="86pt"
 viewBox="0.00 0.00 664.00 86.00" xmlns="http://www.w3.org/2000/svg" xmlns:xlink="http://www.w3.org/1999/xlink">
<g id="graph0" class="graph" transform="scale(1 1) rotate(0) translate(4 82)">
<title>searchFolders</title>
<!-- Node1 -->
<g id="node1" class="node">
<title>Node1</title>
<g id="a_node1"><a xlink:title="Return all shared folders matching the given regexp.">
<polygon fill="#999999" stroke="#666666" points="78,-48.5 0,-48.5 0,-29.5 78,-29.5 78,-48.5"/>
<text text-anchor="middle" x="39" y="-36.5" font-family="Helvetica,sans-Serif" font-size="10.00">searchFolders</text>
</a>
</g>
</g>
<!-- Node2 -->
<g id="node2" class="node">
<title>Node2</title>
<g id="a_node2"><a xlink:href="class_o_c_a_1_1_c_a_f_e_v_d_b_1_1_toolkit_1_1_service_1_1_group_folders_service.html#acb65d3f859f30837e4b9f7ea14b88b9c" target="_top" xlink:title="Fetch and cache all shared folders from the groupfolders app.">
<polygon fill="white" stroke="#666666" points="185,-67.5 114,-67.5 114,-48.5 185,-48.5 185,-67.5"/>
<text text-anchor="middle" x="149.5" y="-55.5" font-family="Helvetica,sans-Serif" font-size="10.00">fetchFolders</text>
</a>
</g>
</g>
<!-- Node1&#45;&gt;Node2 -->
<g id="edge1" class="edge">
<title>Node1&#45;&gt;Node2</title>
<path fill="none" stroke="#63b8ff" d="M78.25,-45.7C86.13,-47.08 94.51,-48.54 102.62,-49.97"/>
<polygon fill="#63b8ff" stroke="#63b8ff" points="101.9,-53.39 112.36,-51.67 103.11,-46.5 101.9,-53.39"/>
</g>
<!-- Node3 -->
<g id="node3" class="node">
<title>Node3</title>
<g id="a_node3"><a xlink:href="namespace_o_c_a_1_1_c_a_f_e_v_d_b_1_1_toolkit_1_1_traits.html#a4d87f4e47d18fb535d235414c357f821" target="_top" xlink:title="Log a debug message.">
<polygon fill="white" stroke="#666666" points="342,-54 221,-54 221,-24 342,-24 342,-54"/>
<text text-anchor="start" x="229" y="-42" font-family="Helvetica,sans-Serif" font-size="10.00">OCA\CAFEVDB\Toolkit</text>
<text text-anchor="middle" x="281.5" y="-31" font-family="Helvetica,sans-Serif" font-size="10.00">\Traits\logDebug</text>
</a>
</g>
</g>
<!-- Node1&#45;&gt;Node3 -->
<g id="edge6" class="edge">
<title>Node1&#45;&gt;Node3</title>
<path fill="none" stroke="#63b8ff" d="M78.37,-39C113.48,-39 166.32,-39 209.17,-39"/>
<polygon fill="#63b8ff" stroke="#63b8ff" points="209.17,-42.5 219.17,-39 209.17,-35.5 209.17,-42.5"/>
</g>
<!-- Node2&#45;&gt;Node3 -->
<g id="edge2" class="edge">
<title>Node2&#45;&gt;Node3</title>
<path fill="none" stroke="#63b8ff" d="M185.34,-52.91C192.84,-51.81 201.02,-50.62 209.34,-49.4"/>
<polygon fill="#63b8ff" stroke="#63b8ff" points="209.84,-52.87 219.22,-47.96 208.82,-45.94 209.84,-52.87"/>
</g>
<!-- Node4 -->
<g id="node4" class="node">
<title>Node4</title>
<g id="a_node4"><a xlink:href="namespace_o_c_a_1_1_c_a_f_e_v_d_b_1_1_toolkit_1_1_traits.html#a15cbaddba041ee5582b2bec28a58c7c9" target="_top" xlink:title="Log the given message at the specified level.">
<polygon fill="white" stroke="#666666" points="499,-54 378,-54 378,-24 499,-24 499,-54"/>
<text text-anchor="start" x="386" y="-42" font-family="Helvetica,sans-Serif" font-size="10.00">OCA\CAFEVDB\Toolkit</text>
<text text-anchor="middle" x="438.5" y="-31" font-family="Helvetica,sans-Serif" font-size="10.00">\Traits\log</text>
</a>
</g>
</g>
<!-- Node3&#45;&gt;Node4 -->
<g id="edge3" class="edge">
<title>Node3&#45;&gt;Node4</title>
<path fill="none" stroke="#63b8ff" d="M342.43,-39C350.3,-39 358.43,-39 366.47,-39"/>
<polygon fill="#63b8ff" stroke="#63b8ff" points="366.22,-42.5 376.22,-39 366.22,-35.5 366.22,-42.5"/>
</g>
<!-- Node5 -->
<g id="node5" class="node">
<title>Node5</title>
<g id="a_node5"><a xlink:href="namespace_o_c_a_1_1_c_a_f_e_v_d_b_1_1_toolkit_1_1_traits.html#a97e3b3adabf67bc7d3650ed14214ddaa" target="_top" xlink:title="Return the stored logger class.">
<polygon fill="white" stroke="#666666" points="656,-78 535,-78 535,-48 656,-48 656,-78"/>
<text text-anchor="start" x="543" y="-66" font-family="Helvetica,sans-Serif" font-size="10.00">OCA\CAFEVDB\Toolkit</text>
<text text-anchor="middle" x="595.5" y="-55" font-family="Helvetica,sans-Serif" font-size="10.00">\Traits\logger</text>
</a>
</g>
</g>
<!-- Node4&#45;&gt;Node5 -->
<g id="edge4" class="edge">
<title>Node4&#45;&gt;Node5</title>
<path fill="none" stroke="#63b8ff" d="M499.43,-48.28C507.3,-49.5 515.43,-50.76 523.47,-52"/>
<polygon fill="#63b8ff" stroke="#63b8ff" points="522.82,-55.44 533.24,-53.51 523.89,-48.53 522.82,-55.44"/>
</g>
<!-- Node6 -->
<g id="node6" class="node">
<title>Node6</title>
<g id="a_node6"><a xlink:href="namespace_o_c_a_1_1_c_a_f_e_v_d_b_1_1_toolkit_1_1_traits.html#ab690a84fb4e720f43308bc354c392bee" target="_top" xlink:title="Map PSR log&#45;levels to ILogger log&#45;levels as the PsrLoggerAdapter only understands those.">
<polygon fill="white" stroke="#666666" points="656,-30 535,-30 535,0 656,0 656,-30"/>
<text text-anchor="start" x="543" y="-18" font-family="Helvetica,sans-Serif" font-size="10.00">OCA\CAFEVDB\Toolkit</text>
<text text-anchor="middle" x="595.5" y="-7" font-family="Helvetica,sans-Serif" font-size="10.00">\Traits\mapLogLevels</text>
</a>
</g>
</g>
<!-- Node4&#45;&gt;Node6 -->
<g id="edge5" class="edge">
<title>Node4&#45;&gt;Node6</title>
<path fill="none" stroke="#63b8ff" d="M499.43,-29.72C507.3,-28.5 515.43,-27.24 523.47,-26"/>
<polygon fill="#63b8ff" stroke="#63b8ff" points="523.89,-29.47 533.24,-24.49 522.82,-22.56 523.89,-29.47"/>
</g>
</g>
</svg>
