<?xml version="1.0" encoding="UTF-8" standalone="no"?>
<!DOCTYPE svg PUBLIC "-//W3C//DTD SVG 1.1//EN"
 "http://www.w3.org/Graphics/SVG/1.1/DTD/svg11.dtd">
<!-- Generated by graphviz version 7.1.0 (20230121.1956)
 -->
<!-- Title: validate Pages: 1 -->
<svg width="299pt" height="27pt"
 viewBox="0.00 0.00 299.00 27.00" xmlns="http://www.w3.org/2000/svg" xmlns:xlink="http://www.w3.org/1999/xlink">
<g id="graph0" class="graph" transform="scale(1 1) rotate(0) translate(4 23)">
<title>validate</title>
<!-- Node1 -->
<g id="node1" class="node">
<title>Node1</title>
<g id="a_node1"><a xlink:title="Validate the given history records, return false on error.">
<polygon fill="#999999" stroke="#666666" points="50,-19 0,-19 0,0 50,0 50,-19"/>
<text text-anchor="middle" x="25" y="-7" font-family="Helvetica,sans-Serif" font-size="10.00">validate</text>
</a>
</g>
</g>
<!-- Node2 -->
<g id="node2" class="node">
<title>Node2</title>
<g id="a_node2"><a xlink:href="class_o_c_a_1_1_c_a_f_e_v_d_b_1_1_service_1_1_history_service.html#a6a72e82192c52470a66981c68ae2300c" target="_top" xlink:title="Validate all history records.">
<polygon fill="white" stroke="#666666" points="173,-19 86,-19 86,0 173,0 173,-19"/>
<text text-anchor="middle" x="129.5" y="-7" font-family="Helvetica,sans-Serif" font-size="10.00">validateRecords</text>
</a>
</g>
</g>
<!-- Node1&#45;&gt;Node2 -->
<g id="edge1" class="edge">
<title>Node1&#45;&gt;Node2</title>
<path fill="none" stroke="#63b8ff" d="M50.29,-9.5C57.54,-9.5 65.79,-9.5 74.15,-9.5"/>
<polygon fill="#63b8ff" stroke="#63b8ff" points="74.02,-13 84.02,-9.5 74.02,-6 74.02,-13"/>
</g>
<!-- Node3 -->
<g id="node3" class="node">
<title>Node3</title>
<g id="a_node3"><a xlink:href="class_o_c_a_1_1_c_a_f_e_v_d_b_1_1_service_1_1_history_service.html#a7ed7cb21ddeff13466b698d248318b56" target="_top" xlink:title="Validate one history entry.">
<polygon fill="white" stroke="#666666" points="291,-19 209,-19 209,0 291,0 291,-19"/>
<text text-anchor="middle" x="250" y="-7" font-family="Helvetica,sans-Serif" font-size="10.00">validateRecord</text>
</a>
</g>
</g>
<!-- Node2&#45;&gt;Node3 -->
<g id="edge2" class="edge">
<title>Node2&#45;&gt;Node3</title>
<path fill="none" stroke="#63b8ff" d="M173.28,-9.5C181.03,-9.5 189.19,-9.5 197.17,-9.5"/>
<polygon fill="#63b8ff" stroke="#63b8ff" points="197.14,-13 207.14,-9.5 197.14,-6 197.14,-13"/>
</g>
</g>
</svg>
