<?xml version="1.0" encoding="UTF-8" standalone="no"?>
<!DOCTYPE svg PUBLIC "-//W3C//DTD SVG 1.1//EN"
 "http://www.w3.org/Graphics/SVG/1.1/DTD/svg11.dtd">
<!-- Generated by graphviz version 7.1.0 (20230121.1956)
 -->
<!-- Title: __construct Pages: 1 -->
<svg width="155pt" height="45pt"
 viewBox="0.00 0.00 155.00 45.00" xmlns="http://www.w3.org/2000/svg" xmlns:xlink="http://www.w3.org/1999/xlink">
<g id="graph0" class="graph" transform="scale(1 1) rotate(0) translate(4 41)">
<title>__construct</title>
<!-- Node1 -->
<g id="node1" class="node">
<title>Node1</title>
<g id="a_node1"><a xlink:title="{}">
<polygon fill="#999999" stroke="#666666" points="68,-19 0,-19 0,0 68,0 68,-19"/>
<text text-anchor="middle" x="34" y="-7" font-family="Helvetica,sans-Serif" font-size="10.00">__construct</text>
</a>
</g>
</g>
<!-- Node2 -->
<g id="node2" class="node">
<title>Node2</title>
<g id="a_node2"><a xlink:href="class_o_c_a_1_1_c_a_f_e_v_d_b_1_1_service_1_1_tool_tips_service.html#a03641a16d883fe0d2f875c96b65a4216" target="_top" xlink:title="Enable debug&#45;messages.">
<polygon fill="white" stroke="#666666" points="147,-19 104,-19 104,0 147,0 147,-19"/>
<text text-anchor="middle" x="125.5" y="-7" font-family="Helvetica,sans-Serif" font-size="10.00">debug</text>
</a>
</g>
</g>
<!-- Node1&#45;&gt;Node2 -->
<g id="edge1" class="edge">
<title>Node1&#45;&gt;Node2</title>
<path fill="none" stroke="#63b8ff" d="M68.33,-9.5C76.18,-9.5 84.54,-9.5 92.34,-9.5"/>
<polygon fill="#63b8ff" stroke="#63b8ff" points="92.11,-13 102.11,-9.5 92.11,-6 92.11,-13"/>
</g>
<!-- Node2&#45;&gt;Node2 -->
<g id="edge2" class="edge">
<title>Node2&#45;&gt;Node2</title>
<path fill="none" stroke="#63b8ff" d="M111.18,-19.37C104.64,-27.94 109.42,-37 125.5,-37 134.3,-37 139.71,-34.29 141.74,-30.43"/>
<polygon fill="#63b8ff" stroke="#63b8ff" points="145.24,-30.12 140.08,-20.86 138.34,-31.31 145.24,-30.12"/>
</g>
</g>
</svg>
