<?xml version="1.0" encoding="UTF-8" standalone="no"?>
<!DOCTYPE svg PUBLIC "-//W3C//DTD SVG 1.1//EN"
 "http://www.w3.org/Graphics/SVG/1.1/DTD/svg11.dtd">
<!-- Generated by graphviz version 7.1.0 (20230121.1956)
 -->
<!-- Title: validate Pages: 1 -->
<svg width="153pt" height="101pt"
 viewBox="0.00 0.00 153.00 101.00" xmlns="http://www.w3.org/2000/svg" xmlns:xlink="http://www.w3.org/1999/xlink">
<g id="graph0" class="graph" transform="scale(1 1) rotate(0) translate(4 97)">
<title>validate</title>
<!-- Node1 -->
<g id="node1" class="node">
<title>Node1</title>
<g id="a_node1"><a xlink:title=" ">
<polygon fill="#999999" stroke="#666666" points="145,-56 95,-56 95,-37 145,-37 145,-56"/>
<text text-anchor="middle" x="120" y="-44" font-family="Helvetica,sans-Serif" font-size="10.00">validate</text>
</a>
</g>
</g>
<!-- Node2 -->
<g id="node2" class="node">
<title>Node2</title>
<g id="a_node2"><a xlink:href="class_o_c_a_1_1_c_a_f_e_v_d_b_1_1_service_1_1_phone_number_service.html#adb4c68b625c6083466b2fa516a6ad314" target="_top" xlink:title=" ">
<polygon fill="white" stroke="#666666" points="51.5,-93 7.5,-93 7.5,-74 51.5,-74 51.5,-93"/>
<text text-anchor="middle" x="29.5" y="-81" font-family="Helvetica,sans-Serif" font-size="10.00">format</text>
</a>
</g>
</g>
<!-- Node1&#45;&gt;Node2 -->
<g id="edge1" class="edge">
<title>Node1&#45;&gt;Node2</title>
<path fill="none" stroke="#63b8ff" d="M84.98,-60.72C73.85,-65.38 61.79,-70.42 51.86,-74.57"/>
<polygon fill="#63b8ff" stroke="#63b8ff" points="86.01,-64.09 93.89,-57 83.31,-57.63 86.01,-64.09"/>
</g>
<!-- Node3 -->
<g id="node3" class="node">
<title>Node3</title>
<g id="a_node3"><a xlink:href="class_o_c_a_1_1_c_a_f_e_v_d_b_1_1_service_1_1_phone_number_service.html#abac0564af0134547ded00c16b5c873ea" target="_top" xlink:title=" ">
<polygon fill="white" stroke="#666666" points="56,-56 3,-56 3,-37 56,-37 56,-56"/>
<text text-anchor="middle" x="29.5" y="-44" font-family="Helvetica,sans-Serif" font-size="10.00">isMobile</text>
</a>
</g>
</g>
<!-- Node1&#45;&gt;Node3 -->
<g id="edge2" class="edge">
<title>Node1&#45;&gt;Node3</title>
<path fill="none" stroke="#63b8ff" d="M83.31,-46.5C74.24,-46.5 64.67,-46.5 56.2,-46.5"/>
<polygon fill="#63b8ff" stroke="#63b8ff" points="83.3,-50 93.3,-46.5 83.3,-43 83.3,-50"/>
</g>
<!-- Node4 -->
<g id="node4" class="node">
<title>Node4</title>
<g id="a_node4"><a xlink:href="class_o_c_a_1_1_c_a_f_e_v_d_b_1_1_service_1_1_phone_number_service.html#ab5d979416900f9fed11ab7285356c356" target="_top" xlink:title="Return new&#45;line formatted meta&#45;data for the current or the given number and region.">
<polygon fill="white" stroke="#666666" points="59,-19 0,-19 0,0 59,0 59,-19"/>
<text text-anchor="middle" x="29.5" y="-7" font-family="Helvetica,sans-Serif" font-size="10.00">metaData</text>
</a>
</g>
</g>
<!-- Node1&#45;&gt;Node4 -->
<g id="edge3" class="edge">
<title>Node1&#45;&gt;Node4</title>
<path fill="none" stroke="#63b8ff" d="M84.98,-32.28C74.74,-27.99 63.71,-23.39 54.28,-19.44"/>
<polygon fill="#63b8ff" stroke="#63b8ff" points="83.31,-35.37 93.89,-36 86.01,-28.91 83.31,-35.37"/>
</g>
</g>
</svg>
