<?xml version="1.0" encoding="UTF-8" standalone="no"?>
<!DOCTYPE svg PUBLIC "-//W3C//DTD SVG 1.1//EN"
 "http://www.w3.org/Graphics/SVG/1.1/DTD/svg11.dtd">
<!-- Generated by graphviz version 7.1.0 (20230121.1956)
 -->
<!-- Title: pathInfo Pages: 1 -->
<!--zoomable 351 -->
<svg id="main" version="1.1" xmlns="http://www.w3.org/2000/svg" xmlns:xlink="http://www.w3.org/1999/xlink" xml:space="preserve" onload="init(evt)">
<style type="text/css"><![CDATA[
.edge:hover path { stroke: red; }
.edge:hover polygon { stroke: red; fill: red; }
]]></style>
<script type="text/javascript"><![CDATA[
var edges = document.getElementsByTagName('g');
if (edges && edges.length) {
  for (var i=0;i<edges.length;i++) {
    if (edges[i].id.substr(0,4)=='edge') {
      edges[i].setAttribute('class','edge');
    }
  }
}
]]></script>
        <defs>
                <circle id="rim" cx="0" cy="0" r="7"/>
                <circle id="rim2" cx="0" cy="0" r="3.5"/>
                <g id="zoomPlus">
                        <use xlink:href="#rim" fill="#404040">
                                <set attributeName="fill" to="#808080" begin="zoomplus.mouseover" end="zoomplus.mouseout"/>
                        </use>
                        <path d="M-4,0h8M0,-4v8" fill="none" stroke="white" stroke-width="1.5" pointer-events="none"/>
                </g>
                <g id="zoomMin">
                        <use xlink:href="#rim" fill="#404040">
                                <set attributeName="fill" to="#808080" begin="zoomminus.mouseover" end="zoomminus.mouseout"/>
                        </use>
                        <path d="M-4,0h8" fill="none" stroke="white" stroke-width="1.5" pointer-events="none"/>
                </g>
                <g id="dirArrow">
                        <path fill="none" stroke="white" stroke-width="1.5" d="M0,-3.0v7 M-2.5,-0.5L0,-3.0L2.5,-0.5"/>
                </g>
               <g id="resetDef">
                       <use xlink:href="#rim2" fill="#404040">
                               <set attributeName="fill" to="#808080" begin="reset.mouseover" end="reset.mouseout"/>
                       </use>
               </g>
        </defs>

<script type="text/javascript">
var viewWidth = 901;
var viewHeight = 351;
var sectionId = 'dynsection-30';
</script>
<script xlink:href="svgpan.js"/>
<svg id="graph" class="graph">
<g id="viewport">
<title>pathInfo</title>
<!-- Node1 -->
<g id="node1" class="node">
<title>Node1</title>
<g id="a_node1"><a xlink:title="Slightly modified pathinfo() function which also normalized directories before computing the componen...">
<polygon fill="#999999" stroke="#666666" points="893,-124 841,-124 841,-105 893,-105 893,-124"/>
<text text-anchor="middle" x="867" y="-112" font-family="Helvetica,sans-Serif" font-size="10.00">pathInfo</text>
</a>
</g>
</g>
<!-- Node2 -->
<g id="node2" class="node">
<title>Node2</title>
<g id="a_node2"><a xlink:href="class_o_c_a_1_1_c_a_f_e_v_d_b_1_1_storage_1_1_database_1_1_storage.html#a7ec90cd17ef214d5fe4280b13d7c144a" target="_top" xlink:title="Fetch the file entity corresponding to file&#45;name.">
<polygon fill="white" stroke="#666666" points="753,-172 659,-172 659,-153 753,-153 753,-172"/>
<text text-anchor="middle" x="706" y="-160" font-family="Helvetica,sans-Serif" font-size="10.00">fileFromFileName</text>
</a>
</g>
</g>
<!-- Node1&#45;&gt;Node2 -->
<g id="edge1" class="edge">
<title>Node1&#45;&gt;Node2</title>
<path fill="none" stroke="#63b8ff" d="M838.87,-129.84C828.53,-135.14 816.48,-140.71 805,-144.5 788.41,-149.99 769.66,-153.94 753.03,-156.73"/>
<polygon fill="#63b8ff" stroke="#63b8ff" points="840.4,-132.99 847.59,-125.2 837.12,-126.81 840.4,-132.99"/>
</g>
<!-- Node18 -->
<g id="node18" class="node">
<title>Node18</title>
<g id="a_node18"><a xlink:href="class_o_c_a_1_1_c_a_f_e_v_d_b_1_1_storage_1_1_database_1_1_project_balance_supporting_documents_storage.html#ac7863b39b783ea3446d2af5d5b251a32" target="_top" xlink:title="Insert a &quot;cache&quot; entry.">
<polygon fill="white" stroke="#666666" points="800,-135 612,-135 612,-94 800,-94 800,-135"/>
<text text-anchor="start" x="620" y="-123" font-family="Helvetica,sans-Serif" font-size="10.00">OCA\CAFEVDB\Storage</text>
<text text-anchor="start" x="620" y="-112" font-family="Helvetica,sans-Serif" font-size="10.00">\Database\ProjectBalanceSupporting</text>
<text text-anchor="middle" x="706" y="-101" font-family="Helvetica,sans-Serif" font-size="10.00">DocumentsStorage\setFileNameCache</text>
</a>
</g>
</g>
<!-- Node1&#45;&gt;Node18 -->
<g id="edge24" class="edge">
<title>Node1&#45;&gt;Node18</title>
<path fill="none" stroke="#63b8ff" d="M829.37,-114.5C820.46,-114.5 810.54,-114.5 800.3,-114.5"/>
<polygon fill="#63b8ff" stroke="#63b8ff" points="829.29,-118 839.29,-114.5 829.29,-111 829.29,-118"/>
</g>
<!-- Node19 -->
<g id="node19" class="node">
<title>Node19</title>
<g id="a_node19"><a xlink:href="class_o_c_a_1_1_c_a_f_e_v_d_b_1_1_storage_1_1_database_1_1_project_balance_supporting_documents_storage.html#a6adbf5f98e24ede0698c3c8cabf43067" target="_top" xlink:title="Remove a &quot;cache&quot; entry.">
<polygon fill="white" stroke="#666666" points="805,-76 607,-76 607,-35 805,-35 805,-76"/>
<text text-anchor="start" x="615" y="-64" font-family="Helvetica,sans-Serif" font-size="10.00">OCA\CAFEVDB\Storage</text>
<text text-anchor="start" x="615" y="-53" font-family="Helvetica,sans-Serif" font-size="10.00">\Database\ProjectBalanceSupporting</text>
<text text-anchor="middle" x="706" y="-42" font-family="Helvetica,sans-Serif" font-size="10.00">DocumentsStorage\unsetFileNameCache</text>
</a>
</g>
</g>
<!-- Node1&#45;&gt;Node19 -->
<g id="edge25" class="edge">
<title>Node1&#45;&gt;Node19</title>
<path fill="none" stroke="#63b8ff" d="M837.96,-99.47C827.75,-94.33 816.01,-88.8 805,-84.5 797.81,-81.69 790.24,-79 782.61,-76.47"/>
<polygon fill="#63b8ff" stroke="#63b8ff" points="836.11,-102.45 846.6,-103.92 839.31,-96.23 836.11,-102.45"/>
</g>
<!-- Node3 -->
<g id="node3" class="node">
<title>Node3</title>
<g id="a_node3"><a xlink:href="class_o_c_a_1_1_c_a_f_e_v_d_b_1_1_storage_1_1_database_1_1_storage.html#adeb1bc07330c61c5b94a88bc857fa7c2" target="_top" xlink:title="{}">
<polygon fill="white" stroke="#666666" points="358,-267 297,-267 297,-248 358,-248 358,-267"/>
<text text-anchor="middle" x="327.5" y="-255" font-family="Helvetica,sans-Serif" font-size="10.00">file_exists</text>
</a>
</g>
</g>
<!-- Node2&#45;&gt;Node3 -->
<g id="edge2" class="edge">
<title>Node2&#45;&gt;Node3</title>
<path fill="none" stroke="#63b8ff" d="M675.36,-177.28C648.68,-190 608.08,-207.93 571,-218.5 496.16,-239.83 404.78,-250.57 358.48,-254.98"/>
<polygon fill="#63b8ff" stroke="#63b8ff" points="676.71,-180.52 684.19,-173.01 673.66,-174.22 676.71,-180.52"/>
</g>
<!-- Node7 -->
<g id="node7" class="node">
<title>Node7</title>
<g id="a_node7"><a xlink:href="class_o_c_a_1_1_c_a_f_e_v_d_b_1_1_storage_1_1_database_1_1_storage.html#ae16b6afbab9462a9af681b9393af361e" target="_top" xlink:title="{}">
<polygon fill="white" stroke="#666666" points="355.5,-192 299.5,-192 299.5,-173 355.5,-173 355.5,-192"/>
<text text-anchor="middle" x="327.5" y="-180" font-family="Helvetica,sans-Serif" font-size="10.00">filemtime</text>
</a>
</g>
</g>
<!-- Node2&#45;&gt;Node7 -->
<g id="edge7" class="edge">
<title>Node2&#45;&gt;Node7</title>
<path fill="none" stroke="#63b8ff" d="M667.55,-176.13C641,-185.05 604.32,-195.87 571,-200.5 493.08,-211.33 471.96,-211.02 394,-200.5 381.26,-198.78 367.5,-195.26 355.89,-191.79"/>
<polygon fill="#63b8ff" stroke="#63b8ff" points="668.51,-179.5 676.83,-172.94 666.24,-172.88 668.51,-179.5"/>
</g>
<!-- Node9 -->
<g id="node9" class="node">
<title>Node9</title>
<g id="a_node9"><a xlink:href="class_o_c_a_1_1_c_a_f_e_v_d_b_1_1_storage_1_1_database_1_1_storage.html#ad22e004288b7149fe24fb166f4cff9ee" target="_top" xlink:title="{}">
<polygon fill="white" stroke="#666666" points="351,-79 304,-79 304,-60 351,-60 351,-79"/>
<text text-anchor="middle" x="327.5" y="-67" font-family="Helvetica,sans-Serif" font-size="10.00">filesize</text>
</a>
</g>
</g>
<!-- Node2&#45;&gt;Node9 -->
<g id="edge9" class="edge">
<title>Node2&#45;&gt;Node9</title>
<path fill="none" stroke="#63b8ff" d="M647.78,-154.79C634.22,-152.2 619.95,-148.83 607,-144.5 590.03,-138.83 587.85,-132.52 571,-126.5 495.05,-99.38 472.38,-105.52 394,-86.5 379.84,-83.06 364.03,-78.97 351.49,-75.66"/>
<polygon fill="#63b8ff" stroke="#63b8ff" points="647,-158.21 657.46,-156.52 648.23,-151.32 647,-158.21"/>
</g>
<!-- Node12 -->
<g id="node12" class="node">
<title>Node12</title>
<g id="a_node12"><a xlink:href="class_o_c_a_1_1_c_a_f_e_v_d_b_1_1_storage_1_1_database_1_1_storage.html#a9d7ac9f8614357ce6b7358708b9ab040" target="_top" xlink:title=" ">
<polygon fill="white" stroke="#666666" points="554.5,-191 410.5,-191 410.5,-172 554.5,-172 554.5,-191"/>
<text text-anchor="middle" x="482.5" y="-179" font-family="Helvetica,sans-Serif" font-size="10.00">getDirectoryModificationTime</text>
</a>
</g>
</g>
<!-- Node2&#45;&gt;Node12 -->
<g id="edge12" class="edge">
<title>Node2&#45;&gt;Node12</title>
<path fill="none" stroke="#63b8ff" d="M647.25,-167.45C618.96,-169.88 584.64,-172.82 554.74,-175.39"/>
<polygon fill="#63b8ff" stroke="#63b8ff" points="647.39,-170.95 657.06,-166.61 646.8,-163.98 647.39,-170.95"/>
</g>
<!-- Node13 -->
<g id="node13" class="node">
<title>Node13</title>
<g id="a_node13"><a xlink:href="class_o_c_a_1_1_c_a_f_e_v_d_b_1_1_storage_1_1_database_1_1_project_balance_supporting_documents_storage.html#ae4876df7e6054a7651ab7363c175822e" target="_top" xlink:title="{}">
<polygon fill="white" stroke="#666666" points="571,-78 394,-78 394,-37 571,-37 571,-78"/>
<text text-anchor="start" x="402" y="-66" font-family="Helvetica,sans-Serif" font-size="10.00">OCA\CAFEVDB\Storage</text>
<text text-anchor="start" x="402" y="-55" font-family="Helvetica,sans-Serif" font-size="10.00">\Database\ProjectBalanceSupporting</text>
<text text-anchor="middle" x="482.5" y="-44" font-family="Helvetica,sans-Serif" font-size="10.00">DocumentsStorage\getRootFolder</text>
</a>
</g>
</g>
<!-- Node2&#45;&gt;Node13 -->
<g id="edge14" class="edge">
<title>Node2&#45;&gt;Node13</title>
<path fill="none" stroke="#63b8ff" d="M647.67,-159.61C633.55,-156.9 619.04,-152.28 607,-144.5 583.39,-129.25 592.98,-110.02 571,-92.5 564.22,-87.1 556.49,-82.43 548.51,-78.43"/>
<polygon fill="#63b8ff" stroke="#63b8ff" points="646.94,-163.03 657.37,-161.15 648.04,-156.12 646.94,-163.03"/>
</g>
<!-- Node14 -->
<g id="node14" class="node">
<title>Node14</title>
<g id="a_node14"><a xlink:href="class_o_c_a_1_1_c_a_f_e_v_d_b_1_1_storage_1_1_database_1_1_storage.html#a5877dd78fbe10fb5f3ee3d25e3fbe11e" target="_top" xlink:title="{}">
<polygon fill="white" stroke="#666666" points="502.5,-154 462.5,-154 462.5,-135 502.5,-135 502.5,-154"/>
<text text-anchor="middle" x="482.5" y="-142" font-family="Helvetica,sans-Serif" font-size="10.00">is_dir</text>
</a>
</g>
</g>
<!-- Node2&#45;&gt;Node14 -->
<g id="edge15" class="edge">
<title>Node2&#45;&gt;Node14</title>
<path fill="none" stroke="#63b8ff" d="M647.15,-157.8C599.45,-153.92 534.65,-148.66 502.8,-146.07"/>
<polygon fill="#63b8ff" stroke="#63b8ff" points="646.81,-161.28 657.06,-158.6 647.37,-154.31 646.81,-161.28"/>
</g>
<!-- Node16 -->
<g id="node16" class="node">
<title>Node16</title>
<g id="a_node16"><a xlink:href="class_o_c_a_1_1_c_a_f_e_v_d_b_1_1_storage_1_1_database_1_1_storage.html#a893a92915f20d637be8bcee4201900a5" target="_top" xlink:title="{}">
<polygon fill="white" stroke="#666666" points="499,-19 466,-19 466,0 499,0 499,-19"/>
<text text-anchor="middle" x="482.5" y="-7" font-family="Helvetica,sans-Serif" font-size="10.00">stat</text>
</a>
</g>
</g>
<!-- Node2&#45;&gt;Node16 -->
<g id="edge21" class="edge">
<title>Node2&#45;&gt;Node16</title>
<path fill="none" stroke="#63b8ff" d="M647.49,-162.32C632.84,-159.67 618.12,-154.39 607,-144.5 566.35,-108.34 611.27,-64.09 571,-27.5 551.26,-9.56 518.55,-7.6 499.2,-8.25"/>
<polygon fill="#63b8ff" stroke="#63b8ff" points="646.72,-165.74 657.11,-163.65 647.68,-158.81 646.72,-165.74"/>
</g>
<!-- Node17 -->
<g id="node17" class="node">
<title>Node17</title>
<g id="a_node17"><a xlink:href="class_o_c_a_1_1_c_a_f_e_v_d_b_1_1_storage_1_1_database_1_1_storage.html#ad6244fc254de2b00ab567e4e0b82a4b3" target="_top" xlink:title="{}">
<polygon fill="white" stroke="#666666" points="348.5,-320 306.5,-320 306.5,-301 348.5,-301 348.5,-320"/>
<text text-anchor="middle" x="327.5" y="-308" font-family="Helvetica,sans-Serif" font-size="10.00">unlink</text>
</a>
</g>
</g>
<!-- Node2&#45;&gt;Node17 -->
<g id="edge22" class="edge">
<title>Node2&#45;&gt;Node17</title>
<path fill="none" stroke="#63b8ff" d="M683.76,-179.22C658.31,-198.49 613.74,-229.9 571,-248.5 492.5,-282.66 391.21,-300.96 348.7,-307.58"/>
<polygon fill="#63b8ff" stroke="#63b8ff" points="685.84,-182.03 691.63,-173.17 681.57,-176.49 685.84,-182.03"/>
</g>
<!-- Node4 -->
<g id="node4" class="node">
<title>Node4</title>
<g id="a_node4"><a xlink:href="class_o_c_a_1_1_c_a_f_e_v_d_b_1_1_storage_1_1_database_1_1_storage.html#a4572a171f5a258fb746f2ec694f377ee" target="_top" xlink:title="{}">
<polygon fill="white" stroke="#666666" points="193,-325 152,-325 152,-306 193,-306 193,-325"/>
<text text-anchor="middle" x="172.5" y="-313" font-family="Helvetica,sans-Serif" font-size="10.00">fopen</text>
</a>
</g>
</g>
<!-- Node3&#45;&gt;Node4 -->
<g id="edge3" class="edge">
<title>Node3&#45;&gt;Node4</title>
<path fill="none" stroke="#63b8ff" d="M304.31,-273.72C292.07,-281.95 276.3,-291.47 261,-297.5 238.64,-306.32 211.28,-311.06 193.17,-313.42"/>
<polygon fill="#63b8ff" stroke="#63b8ff" points="306.21,-276.65 312.42,-268.07 302.21,-270.91 306.21,-276.65"/>
</g>
<!-- Node5 -->
<g id="node5" class="node">
<title>Node5</title>
<g id="a_node5"><a xlink:href="class_o_c_a_1_1_c_a_f_e_v_d_b_1_1_storage_1_1_database_1_1_storage.html#ab7218f0ad1a09fdb0e0157d2beadbfb2" target="_top" xlink:title="{}">
<polygon fill="white" stroke="#666666" points="205,-288 140,-288 140,-269 205,-269 205,-288"/>
<text text-anchor="middle" x="172.5" y="-276" font-family="Helvetica,sans-Serif" font-size="10.00">isReadable</text>
</a>
</g>
</g>
<!-- Node3&#45;&gt;Node5 -->
<g id="edge5" class="edge">
<title>Node3&#45;&gt;Node5</title>
<path fill="none" stroke="#63b8ff" d="M285.26,-263.16C260.16,-266.61 228.58,-270.94 205.4,-274.12"/>
<polygon fill="#63b8ff" stroke="#63b8ff" points="285.71,-266.63 295.14,-261.8 284.75,-259.7 285.71,-266.63"/>
</g>
<!-- Node6 -->
<g id="node6" class="node">
<title>Node6</title>
<g id="a_node6"><a xlink:href="class_o_c_a_1_1_c_a_f_e_v_d_b_1_1_storage_1_1_database_1_1_project_balance_supporting_documents_storage.html#a8899a09a9d81b77b06ec4e371278d536" target="_top" xlink:title="{{}}">
<polygon fill="white" stroke="#666666" points="261,-251 84,-251 84,-210 261,-210 261,-251"/>
<text text-anchor="start" x="92" y="-239" font-family="Helvetica,sans-Serif" font-size="10.00">OCA\CAFEVDB\Storage</text>
<text text-anchor="start" x="92" y="-228" font-family="Helvetica,sans-Serif" font-size="10.00">\Database\ProjectBalanceSupporting</text>
<text text-anchor="middle" x="172.5" y="-217" font-family="Helvetica,sans-Serif" font-size="10.00">DocumentsStorage\isUpdatable</text>
</a>
</g>
</g>
<!-- Node3&#45;&gt;Node6 -->
<g id="edge6" class="edge">
<title>Node3&#45;&gt;Node6</title>
<path fill="none" stroke="#63b8ff" d="M285.37,-250.24C277.86,-248.92 269.76,-247.49 261.48,-246.03"/>
<polygon fill="#63b8ff" stroke="#63b8ff" points="284.69,-253.68 295.15,-251.97 285.91,-246.78 284.69,-253.68"/>
</g>
<!-- Node4&#45;&gt;Node4 -->
<g id="edge4" class="edge">
<title>Node4&#45;&gt;Node4</title>
<path fill="none" stroke="#63b8ff" d="M200.34,-332.55C200.49,-338.34 191.21,-343 172.5,-343 144.66,-343 137.7,-332.69 151.62,-323.66"/>
<polygon fill="#63b8ff" stroke="#63b8ff" points="203.24,-330.57 194.32,-324.86 197.72,-334.89 203.24,-330.57"/>
</g>
<!-- Node8 -->
<g id="node8" class="node">
<title>Node8</title>
<g id="a_node8"><a xlink:href="class_o_c_a_1_1_c_a_f_e_v_d_b_1_1_storage_1_1_database_1_1_storage.html#ae949e0991a703081d8b1c95f871e5025" target="_top" xlink:title="{}">
<polygon fill="white" stroke="#666666" points="207,-192 138,-192 138,-173 207,-173 207,-192"/>
<text text-anchor="middle" x="172.5" y="-180" font-family="Helvetica,sans-Serif" font-size="10.00">hasUpdated</text>
</a>
</g>
</g>
<!-- Node7&#45;&gt;Node8 -->
<g id="edge8" class="edge">
<title>Node7&#45;&gt;Node8</title>
<path fill="none" stroke="#63b8ff" d="M287.95,-182.5C263.11,-182.5 231.14,-182.5 207.3,-182.5"/>
<polygon fill="#63b8ff" stroke="#63b8ff" points="287.63,-186 297.63,-182.5 287.63,-179 287.63,-186"/>
</g>
<!-- Node10 -->
<g id="node10" class="node">
<title>Node10</title>
<g id="a_node10"><a xlink:href="class_o_c_a_1_1_c_a_f_e_v_d_b_1_1_storage_1_1_database_1_1_storage.html#ae93aaa5a52d031b9df08764bda508255" target="_top" xlink:title="{}">
<polygon fill="white" stroke="#666666" points="193.5,-98 151.5,-98 151.5,-79 193.5,-79 193.5,-98"/>
<text text-anchor="middle" x="172.5" y="-86" font-family="Helvetica,sans-Serif" font-size="10.00">is_file</text>
</a>
</g>
</g>
<!-- Node9&#45;&gt;Node10 -->
<g id="edge10" class="edge">
<title>Node9&#45;&gt;Node10</title>
<path fill="none" stroke="#63b8ff" d="M292.27,-73.75C261.95,-77.52 218.71,-82.89 193.63,-86"/>
<polygon fill="#63b8ff" stroke="#63b8ff" points="292.6,-77.24 302.09,-72.53 291.74,-70.29 292.6,-77.24"/>
</g>
<!-- Node11 -->
<g id="node11" class="node">
<title>Node11</title>
<g id="a_node11"><a xlink:href="class_o_c_a_1_1_c_a_f_e_v_d_b_1_1_storage_1_1_database_1_1_storage.html#a5dfe312b58b1d4f0dddbe0d1cf96fa2e" target="_top" xlink:title="{}">
<polygon fill="white" stroke="#666666" points="48,-117 0,-117 0,-98 48,-98 48,-117"/>
<text text-anchor="middle" x="24" y="-105" font-family="Helvetica,sans-Serif" font-size="10.00">filetype</text>
</a>
</g>
</g>
<!-- Node10&#45;&gt;Node11 -->
<g id="edge11" class="edge">
<title>Node10&#45;&gt;Node11</title>
<path fill="none" stroke="#63b8ff" d="M139.77,-92.62C112.25,-96.18 73.06,-101.27 48.34,-104.47"/>
<polygon fill="#63b8ff" stroke="#63b8ff" points="140.16,-96.09 149.63,-91.34 139.26,-89.15 140.16,-96.09"/>
</g>
<!-- Node12&#45;&gt;Node7 -->
<g id="edge13" class="edge">
<title>Node12&#45;&gt;Node7</title>
<path fill="none" stroke="#63b8ff" d="M399.02,-182.04C383.45,-182.14 368.22,-182.24 355.92,-182.32"/>
<polygon fill="#63b8ff" stroke="#63b8ff" points="398.88,-185.54 408.86,-181.97 398.84,-178.54 398.88,-185.54"/>
</g>
<!-- Node14&#45;&gt;Node3 -->
<g id="edge16" class="edge">
<title>Node14&#45;&gt;Node3</title>
<path fill="none" stroke="#63b8ff" d="M450.92,-145.64C433.05,-147.58 410.79,-152.31 394,-163.5 377.45,-174.53 346.78,-225.7 334.16,-247.56"/>
<polygon fill="#63b8ff" stroke="#63b8ff" points="451,-149.14 460.68,-144.84 450.43,-142.17 451,-149.14"/>
</g>
<!-- Node14&#45;&gt;Node7 -->
<g id="edge17" class="edge">
<title>Node14&#45;&gt;Node7</title>
<path fill="none" stroke="#63b8ff" d="M451.39,-150.51C434.46,-154.02 412.98,-158.69 394,-163.5 381.37,-166.7 367.51,-170.66 355.79,-174.13"/>
<polygon fill="#63b8ff" stroke="#63b8ff" points="451.72,-154.01 460.81,-148.58 450.31,-147.15 451.72,-154.01"/>
</g>
<!-- Node14&#45;&gt;Node9 -->
<g id="edge18" class="edge">
<title>Node14&#45;&gt;Node9</title>
<path fill="none" stroke="#63b8ff" d="M450.81,-139.78C433.37,-136.21 411.59,-130.22 394,-120.5 375,-110 375.35,-100.55 358,-87.5 354.26,-84.69 350.06,-81.92 346.03,-79.43"/>
<polygon fill="#63b8ff" stroke="#63b8ff" points="450.12,-143.21 460.59,-141.6 451.4,-136.33 450.12,-143.21"/>
</g>
<!-- Node14&#45;&gt;Node11 -->
<g id="edge19" class="edge">
<title>Node14&#45;&gt;Node11</title>
<path fill="none" stroke="#63b8ff" d="M450.93,-142.02C365.3,-135.08 124.38,-115.55 48.31,-109.39"/>
<polygon fill="#63b8ff" stroke="#63b8ff" points="450.42,-145.49 460.67,-142.81 450.98,-138.51 450.42,-145.49"/>
</g>
<!-- Node15 -->
<g id="node15" class="node">
<title>Node15</title>
<g id="a_node15"><a xlink:href="class_o_c_a_1_1_c_a_f_e_v_d_b_1_1_storage_1_1_database_1_1_storage.html#a1ca869d721a349a2b5efaaca3dffc49d" target="_top" xlink:title="{}">
<polygon fill="white" stroke="#666666" points="351.5,-116 303.5,-116 303.5,-97 351.5,-97 351.5,-116"/>
<text text-anchor="middle" x="327.5" y="-104" font-family="Helvetica,sans-Serif" font-size="10.00">opendir</text>
</a>
</g>
</g>
<!-- Node14&#45;&gt;Node15 -->
<g id="edge20" class="edge">
<title>Node14&#45;&gt;Node15</title>
<path fill="none" stroke="#63b8ff" d="M450.96,-136.91C421.81,-129.68 378.51,-118.92 351.97,-112.33"/>
<polygon fill="#63b8ff" stroke="#63b8ff" points="450.1,-140.31 460.65,-139.32 451.79,-133.52 450.1,-140.31"/>
</g>
<!-- Node17&#45;&gt;Node4 -->
<g id="edge23" class="edge">
<title>Node17&#45;&gt;Node4</title>
<path fill="none" stroke="#63b8ff" d="M294.9,-311.53C264.41,-312.53 219.19,-314.01 193.42,-314.85"/>
<polygon fill="#63b8ff" stroke="#63b8ff" points="294.79,-315.04 304.67,-311.21 294.56,-308.04 294.79,-315.04"/>
</g>
</g>
</svg>
        <g id="navigator" transform="translate(0 0)" fill="#404254">
                <rect fill="#f2f5e9" fill-opacity="0.5" stroke="#606060" stroke-width=".5" x="0" y="0" width="60" height="60"/>
                <use id="zoomplus" xlink:href="#zoomPlus" x="17" y="9" onmousedown="handleZoom(evt,'in')"/>
                <use id="zoomminus" xlink:href="#zoomMin" x="42" y="9" onmousedown="handleZoom(evt,'out')"/>
                <use id="reset" xlink:href="#resetDef" x="30" y="36" onmousedown="handleReset()"/>
                <g id="arrowUp" xlink:href="#dirArrow" transform="translate(30 24)" onmousedown="handlePan(0,-1)">
                  <use xlink:href="#rim" fill="#404040">
                        <set attributeName="fill" to="#808080" begin="arrowUp.mouseover" end="arrowUp.mouseout"/>
                  </use>
                  <path fill="none" stroke="white" stroke-width="1.5" d="M0,-3.0v7 M-2.5,-0.5L0,-3.0L2.5,-0.5"/>
                </g>
                <g id="arrowRight" xlink:href="#dirArrow" transform="rotate(90) translate(36 -43)" onmousedown="handlePan(1,0)">
                  <use xlink:href="#rim" fill="#404040">
                        <set attributeName="fill" to="#808080" begin="arrowRight.mouseover" end="arrowRight.mouseout"/>
                  </use>
                  <path fill="none" stroke="white" stroke-width="1.5" d="M0,-3.0v7 M-2.5,-0.5L0,-3.0L2.5,-0.5"/>
                </g>
                <g id="arrowDown" xlink:href="#dirArrow" transform="rotate(180) translate(-30 -48)" onmousedown="handlePan(0,1)">
                  <use xlink:href="#rim" fill="#404040">
                        <set attributeName="fill" to="#808080" begin="arrowDown.mouseover" end="arrowDown.mouseout"/>
                  </use>
                  <path fill="none" stroke="white" stroke-width="1.5" d="M0,-3.0v7 M-2.5,-0.5L0,-3.0L2.5,-0.5"/>
                </g>
                <g id="arrowLeft" xlink:href="#dirArrow" transform="rotate(270) translate(-36 17)" onmousedown="handlePan(-1,0)">
                  <use xlink:href="#rim" fill="#404040">
                        <set attributeName="fill" to="#808080" begin="arrowLeft.mouseover" end="arrowLeft.mouseout"/>
                  </use>
                  <path fill="none" stroke="white" stroke-width="1.5" d="M0,-3.0v7 M-2.5,-0.5L0,-3.0L2.5,-0.5"/>
                </g>
        </g>
        <svg viewBox="0 0 15 15" width="100%" height="30px" preserveAspectRatio="xMaxYMin meet">
         <g id="arrow_out" transform="scale(0.3 0.3)">
          <a xlink:href="class_o_c_a_1_1_c_a_f_e_v_d_b_1_1_storage_1_1_database_1_1_storage_aa8e4fc68bcf28c10413b664b7d89ae81_icgraph_org.svg" target="_base">
           <rect id="button" ry="5" rx="5" y="6" x="6" height="38" width="38"
                fill="#f2f5e9" fill-opacity="0.5" stroke="#606060" stroke-width="1.0"/>
           <path id="arrow"
             d="M 11.500037,31.436501 C 11.940474,20.09759 22.043105,11.32322 32.158766,21.979434 L 37.068811,17.246167 C 37.068811,17.246167 37.088388,32 37.088388,32 L 22.160133,31.978069 C 22.160133,31.978069 26.997745,27.140456 26.997745,27.140456 C 18.528582,18.264221 13.291696,25.230495 11.500037,31.436501 z"
             style="fill:#404040;"/>
          </a>
         </g>
        </svg>
</svg>
