<?xml version="1.0" encoding="UTF-8" standalone="no"?>
<!DOCTYPE svg PUBLIC "-//W3C//DTD SVG 1.1//EN"
 "http://www.w3.org/Graphics/SVG/1.1/DTD/svg11.dtd">
<!-- Generated by graphviz version 7.1.0 (20230121.1956)
 -->
<!-- Title: shortTitle Pages: 1 -->
<svg width="286pt" height="134pt"
 viewBox="0.00 0.00 286.00 134.00" xmlns="http://www.w3.org/2000/svg" xmlns:xlink="http://www.w3.org/1999/xlink">
<g id="graph0" class="graph" transform="scale(1 1) rotate(0) translate(4 130)">
<title>shortTitle</title>
<!-- Node1 -->
<g id="node1" class="node">
<title>Node1</title>
<g id="a_node1"><a xlink:title="{string Short title for heading. }">
<polygon fill="#999999" stroke="#666666" points="57,-72.5 0,-72.5 0,-53.5 57,-53.5 57,-72.5"/>
<text text-anchor="middle" x="28.5" y="-60.5" font-family="Helvetica,sans-Serif" font-size="10.00">shortTitle</text>
</a>
</g>
</g>
<!-- Node2 -->
<g id="node2" class="node">
<title>Node2</title>
<g id="a_node2"><a xlink:href="class_o_c_a_1_1_c_a_f_e_v_d_b_1_1_page_renderer_1_1_p_m_e_table_view_base.html#a7b8022d67f12132e31e2230161afcf46" target="_top" xlink:title=" ">
<polygon fill="white" stroke="#666666" points="278,-126 93,-126 93,-96 278,-96 278,-126"/>
<text text-anchor="start" x="101" y="-114" font-family="Helvetica,sans-Serif" font-size="10.00">OCA\CAFEVDB\PageRenderer</text>
<text text-anchor="middle" x="185.5" y="-103" font-family="Helvetica,sans-Serif" font-size="10.00">\PMETableViewBase\changeOperation</text>
</a>
</g>
</g>
<!-- Node1&#45;&gt;Node2 -->
<g id="edge1" class="edge">
<title>Node1&#45;&gt;Node2</title>
<path fill="none" stroke="#63b8ff" d="M54.02,-72.95C65.72,-77.53 79.98,-82.84 93,-87 99.01,-88.92 105.28,-90.8 111.6,-92.62"/>
<polygon fill="#63b8ff" stroke="#63b8ff" points="110.2,-95.86 120.77,-95.2 112.09,-89.12 110.2,-95.86"/>
</g>
<!-- Node3 -->
<g id="node3" class="node">
<title>Node3</title>
<g id="a_node3"><a xlink:href="class_o_c_a_1_1_c_a_f_e_v_d_b_1_1_page_renderer_1_1_p_m_e_table_view_base.html#a9d19c525d1f80491f1c916ffdaab92f9" target="_top" xlink:title=" ">
<polygon fill="white" stroke="#666666" points="275.5,-78 95.5,-78 95.5,-48 275.5,-48 275.5,-78"/>
<text text-anchor="start" x="103.5" y="-66" font-family="Helvetica,sans-Serif" font-size="10.00">OCA\CAFEVDB\PageRenderer</text>
<text text-anchor="middle" x="185.5" y="-55" font-family="Helvetica,sans-Serif" font-size="10.00">\PMETableViewBase\deleteOperation</text>
</a>
</g>
</g>
<!-- Node1&#45;&gt;Node3 -->
<g id="edge2" class="edge">
<title>Node1&#45;&gt;Node3</title>
<path fill="none" stroke="#63b8ff" d="M57.21,-63C65.1,-63 74.18,-63 83.78,-63"/>
<polygon fill="#63b8ff" stroke="#63b8ff" points="83.74,-66.5 93.74,-63 83.74,-59.5 83.74,-66.5"/>
</g>
<!-- Node4 -->
<g id="node4" class="node">
<title>Node4</title>
<g id="a_node4"><a xlink:href="class_o_c_a_1_1_c_a_f_e_v_d_b_1_1_page_renderer_1_1_p_m_e_table_view_base.html#a7f9c4bce2f800cbf5e81b80f1f751fff" target="_top" xlink:title=" ">
<polygon fill="white" stroke="#666666" points="272.5,-30 98.5,-30 98.5,0 272.5,0 272.5,-30"/>
<text text-anchor="start" x="106.5" y="-18" font-family="Helvetica,sans-Serif" font-size="10.00">OCA\CAFEVDB\PageRenderer</text>
<text text-anchor="middle" x="185.5" y="-7" font-family="Helvetica,sans-Serif" font-size="10.00">\PMETableViewBase\viewOperation</text>
</a>
</g>
</g>
<!-- Node1&#45;&gt;Node4 -->
<g id="edge3" class="edge">
<title>Node1&#45;&gt;Node4</title>
<path fill="none" stroke="#63b8ff" d="M54.02,-53.05C65.72,-48.47 79.98,-43.16 93,-39 99.01,-37.08 105.28,-35.2 111.6,-33.38"/>
<polygon fill="#63b8ff" stroke="#63b8ff" points="112.09,-36.88 120.77,-30.8 110.2,-30.14 112.09,-36.88"/>
</g>
</g>
</svg>
