<?xml version="1.0" encoding="UTF-8" standalone="no"?>
<!DOCTYPE svg PUBLIC "-//W3C//DTD SVG 1.1//EN"
 "http://www.w3.org/Graphics/SVG/1.1/DTD/svg11.dtd">
<!-- Generated by graphviz version 7.1.0 (20230121.1956)
 -->
<!-- Title: getEntityManager Pages: 1 -->
<!--zoomable 387 -->
<svg id="main" version="1.1" xmlns="http://www.w3.org/2000/svg" xmlns:xlink="http://www.w3.org/1999/xlink" xml:space="preserve" onload="init(evt)">
<style type="text/css"><![CDATA[
.edge:hover path { stroke: red; }
.edge:hover polygon { stroke: red; fill: red; }
]]></style>
<script type="text/javascript"><![CDATA[
var edges = document.getElementsByTagName('g');
if (edges && edges.length) {
  for (var i=0;i<edges.length;i++) {
    if (edges[i].id.substr(0,4)=='edge') {
      edges[i].setAttribute('class','edge');
    }
  }
}
]]></script>
        <defs>
                <circle id="rim" cx="0" cy="0" r="7"/>
                <circle id="rim2" cx="0" cy="0" r="3.5"/>
                <g id="zoomPlus">
                        <use xlink:href="#rim" fill="#404040">
                                <set attributeName="fill" to="#808080" begin="zoomplus.mouseover" end="zoomplus.mouseout"/>
                        </use>
                        <path d="M-4,0h8M0,-4v8" fill="none" stroke="white" stroke-width="1.5" pointer-events="none"/>
                </g>
                <g id="zoomMin">
                        <use xlink:href="#rim" fill="#404040">
                                <set attributeName="fill" to="#808080" begin="zoomminus.mouseover" end="zoomminus.mouseout"/>
                        </use>
                        <path d="M-4,0h8" fill="none" stroke="white" stroke-width="1.5" pointer-events="none"/>
                </g>
                <g id="dirArrow">
                        <path fill="none" stroke="white" stroke-width="1.5" d="M0,-3.0v7 M-2.5,-0.5L0,-3.0L2.5,-0.5"/>
                </g>
               <g id="resetDef">
                       <use xlink:href="#rim2" fill="#404040">
                               <set attributeName="fill" to="#808080" begin="reset.mouseover" end="reset.mouseout"/>
                       </use>
               </g>
        </defs>

<script type="text/javascript">
var viewWidth = 538;
var viewHeight = 387;
var sectionId = 'dynsection-2';
</script>
<script xlink:href="svgpan.js"/>
<svg id="graph" class="graph">
<g id="viewport">
<title>getEntityManager</title>
<!-- Node1 -->
<g id="node1" class="node">
<title>Node1</title>
<g id="a_node1"><a xlink:title="Public export of parent function.">
<polygon fill="#999999" stroke="#666666" points="530,-269.5 437,-269.5 437,-250.5 530,-250.5 530,-269.5"/>
<text text-anchor="middle" x="483.5" y="-257.5" font-family="Helvetica,sans-Serif" font-size="10.00">getEntityManager</text>
</a>
</g>
</g>
<!-- Node2 -->
<g id="node2" class="node">
<title>Node2</title>
<g id="a_node2"><a xlink:href="class_o_c_a_1_1_c_a_f_e_v_d_b_1_1_database_1_1_doctrine_1_1_o_r_m_1_1_repositories_1_1_sepa_debit_mandates_repository.html#a3435ec579db5b0ae00575b8f516a8e24" target="_top" xlink:title="Ban a SEPA&#45;mandate (timeout, withdrawn, erroneous data etc.).">
<polygon fill="white" stroke="#666666" points="401,-378.5 227,-378.5 227,-337.5 401,-337.5 401,-378.5"/>
<text text-anchor="start" x="235" y="-366.5" font-family="Helvetica,sans-Serif" font-size="10.00">OCA\CAFEVDB\Database</text>
<text text-anchor="start" x="235" y="-355.5" font-family="Helvetica,sans-Serif" font-size="10.00">\Doctrine\ORM\Repositories</text>
<text text-anchor="middle" x="314" y="-344.5" font-family="Helvetica,sans-Serif" font-size="10.00">\SepaDebitMandatesRepository\ban</text>
</a>
</g>
</g>
<!-- Node1&#45;&gt;Node2 -->
<g id="edge1" class="edge">
<title>Node1&#45;&gt;Node2</title>
<path fill="none" stroke="#63b8ff" d="M463.73,-276.91C447.85,-290.6 424.06,-309.72 401,-323 392.06,-328.15 382.21,-332.91 372.47,-337.15"/>
<polygon fill="#63b8ff" stroke="#63b8ff" points="465.75,-279.79 470.96,-270.56 461.13,-274.53 465.75,-279.79"/>
</g>
<!-- Node3 -->
<g id="node3" class="node">
<title>Node3</title>
<g id="a_node3"><a xlink:href="class_o_c_a_1_1_c_a_f_e_v_d_b_1_1_database_1_1_doctrine_1_1_o_r_m_1_1_repositories_1_1_sepa_debit_mandates_repository.html#a5592d318f18909a8b81537a3dce08164" target="_top" xlink:title="Delete the given mandate if it is not used.">
<polygon fill="white" stroke="#666666" points="191,-378.5 0,-378.5 0,-337.5 191,-337.5 191,-378.5"/>
<text text-anchor="start" x="8" y="-366.5" font-family="Helvetica,sans-Serif" font-size="10.00">OCA\CAFEVDB\Database</text>
<text text-anchor="start" x="8" y="-355.5" font-family="Helvetica,sans-Serif" font-size="10.00">\Doctrine\ORM\Repositories</text>
<text text-anchor="middle" x="95.5" y="-344.5" font-family="Helvetica,sans-Serif" font-size="10.00">\SepaDebitMandatesRepository\remove</text>
</a>
</g>
</g>
<!-- Node1&#45;&gt;Node3 -->
<g id="edge13" class="edge">
<title>Node1&#45;&gt;Node3</title>
<path fill="none" stroke="#63b8ff" d="M447.77,-273.94C433.43,-279.39 416.56,-285.42 401,-290 398.39,-290.77 278.99,-317.38 190.51,-337.08"/>
<polygon fill="#63b8ff" stroke="#63b8ff" points="448.7,-277.34 456.76,-270.47 446.18,-270.81 448.7,-277.34"/>
</g>
<!-- Node4 -->
<g id="node4" class="node">
<title>Node4</title>
<g id="a_node4"><a xlink:href="class_o_c_a_1_1_c_a_f_e_v_d_b_1_1_database_1_1_doctrine_1_1_o_r_m_1_1_repositories_1_1_images_repository.html#a9c87ed6646d36ad79c36d3d6daeca656" target="_top" xlink:title="Find images for the given &quot;using&quot; entity class.">
<polygon fill="white" stroke="#666666" points="393,-280.5 235,-280.5 235,-239.5 393,-239.5 393,-280.5"/>
<text text-anchor="start" x="243" y="-268.5" font-family="Helvetica,sans-Serif" font-size="10.00">OCA\CAFEVDB\Database</text>
<text text-anchor="start" x="243" y="-257.5" font-family="Helvetica,sans-Serif" font-size="10.00">\Doctrine\ORM\Repositories</text>
<text text-anchor="middle" x="314" y="-246.5" font-family="Helvetica,sans-Serif" font-size="10.00">\ImagesRepository\findForEntity</text>
</a>
</g>
</g>
<!-- Node1&#45;&gt;Node4 -->
<g id="edge3" class="edge">
<title>Node1&#45;&gt;Node4</title>
<path fill="none" stroke="#63b8ff" d="M425.35,-260C415.01,-260 404.07,-260 393.25,-260"/>
<polygon fill="#63b8ff" stroke="#63b8ff" points="425.22,-263.5 435.22,-260 425.22,-256.5 425.22,-263.5"/>
</g>
<!-- Node6 -->
<g id="node6" class="node">
<title>Node6</title>
<g id="a_node6"><a xlink:href="namespace_o_c_a_1_1_c_a_f_e_v_d_b_1_1_traits.html#ab6f5f4edde190f5e5f1cd1e2fdd402d4" target="_top" xlink:title="Set and get the given name as the current database target entity.">
<polygon fill="white" stroke="#666666" points="375,-195 253,-195 253,-165 375,-165 375,-195"/>
<text text-anchor="start" x="261" y="-183" font-family="Helvetica,sans-Serif" font-size="10.00">OCA\CAFEVDB\Traits</text>
<text text-anchor="middle" x="314" y="-172" font-family="Helvetica,sans-Serif" font-size="10.00">\getDatabaseRepository</text>
</a>
</g>
</g>
<!-- Node1&#45;&gt;Node6 -->
<g id="edge5" class="edge">
<title>Node1&#45;&gt;Node6</title>
<path fill="none" stroke="#63b8ff" d="M451.44,-245.16C421.82,-231.02 377.4,-209.8 347.36,-195.46"/>
<polygon fill="#63b8ff" stroke="#63b8ff" points="449.73,-248.23 460.26,-249.38 452.74,-241.91 449.73,-248.23"/>
</g>
<!-- Node13 -->
<g id="node13" class="node">
<title>Node13</title>
<g id="a_node13"><a xlink:href="class_o_c_a_1_1_c_a_f_e_v_d_b_1_1_database_1_1_doctrine_1_1_o_r_m_1_1_repositories_1_1_project_web_pages_repository.html#a7beca857a9256c414d23d82cc4aaf0c3" target="_top" xlink:title=" ">
<polygon fill="white" stroke="#666666" points="386.5,-147 241.5,-147 241.5,-95 386.5,-95 386.5,-147"/>
<text text-anchor="start" x="249.5" y="-135" font-family="Helvetica,sans-Serif" font-size="10.00">OCA\CAFEVDB\Database</text>
<text text-anchor="start" x="249.5" y="-124" font-family="Helvetica,sans-Serif" font-size="10.00">\Doctrine\ORM\Repositories</text>
<text text-anchor="start" x="249.5" y="-113" font-family="Helvetica,sans-Serif" font-size="10.00">\ProjectWebPagesRepository</text>
<text text-anchor="middle" x="314" y="-102" font-family="Helvetica,sans-Serif" font-size="10.00">\mergeAttributes</text>
</a>
</g>
</g>
<!-- Node1&#45;&gt;Node13 -->
<g id="edge12" class="edge">
<title>Node1&#45;&gt;Node13</title>
<path fill="none" stroke="#63b8ff" d="M471.43,-240.3C457.62,-217.28 431.99,-179.38 401,-156 396.62,-152.7 391.89,-149.66 386.98,-146.87"/>
<polygon fill="#63b8ff" stroke="#63b8ff" points="468.26,-241.81 476.32,-248.69 474.31,-238.29 468.26,-241.81"/>
</g>
<!-- Node2&#45;&gt;Node3 -->
<g id="edge2" class="edge">
<title>Node2&#45;&gt;Node3</title>
<path fill="none" stroke="#63b8ff" d="M215.05,-358C207.18,-358 199.24,-358 191.39,-358"/>
<polygon fill="#63b8ff" stroke="#63b8ff" points="214.99,-361.5 224.99,-358 214.99,-354.5 214.99,-361.5"/>
</g>
<!-- Node5 -->
<g id="node5" class="node">
<title>Node5</title>
<g id="a_node5"><a xlink:href="class_o_c_a_1_1_c_a_f_e_v_d_b_1_1_database_1_1_doctrine_1_1_o_r_m_1_1_repositories_1_1_images_repository.html#ae9058a484b4d2461ac8fb60b4c761db8" target="_top" xlink:title="Find the first or only image for the given using entity.">
<polygon fill="white" stroke="#666666" points="183.5,-319.5 7.5,-319.5 7.5,-278.5 183.5,-278.5 183.5,-319.5"/>
<text text-anchor="start" x="15.5" y="-307.5" font-family="Helvetica,sans-Serif" font-size="10.00">OCA\CAFEVDB\Database</text>
<text text-anchor="start" x="15.5" y="-296.5" font-family="Helvetica,sans-Serif" font-size="10.00">\Doctrine\ORM\Repositories</text>
<text text-anchor="middle" x="95.5" y="-285.5" font-family="Helvetica,sans-Serif" font-size="10.00">\ImagesRepository\findOneForEntity</text>
</a>
</g>
</g>
<!-- Node4&#45;&gt;Node5 -->
<g id="edge4" class="edge">
<title>Node4&#45;&gt;Node5</title>
<path fill="none" stroke="#63b8ff" d="M223.21,-276.17C210.2,-278.52 196.82,-280.93 183.86,-283.26"/>
<polygon fill="#63b8ff" stroke="#63b8ff" points="223.82,-279.62 233.04,-274.4 222.58,-272.73 223.82,-279.62"/>
</g>
<!-- Node7 -->
<g id="node7" class="node">
<title>Node7</title>
<g id="a_node7"><a xlink:href="namespace_o_c_a_1_1_c_a_f_e_v_d_b_1_1_traits.html#a8e12ef5cafdab7b950132867526d1113" target="_top" xlink:title="Counts entities by a set of criteria.">
<polygon fill="white" stroke="#666666" points="154,-260 37,-260 37,-230 154,-230 154,-260"/>
<text text-anchor="start" x="45" y="-248" font-family="Helvetica,sans-Serif" font-size="10.00">OCA\CAFEVDB\Traits</text>
<text text-anchor="middle" x="95.5" y="-237" font-family="Helvetica,sans-Serif" font-size="10.00">\count</text>
</a>
</g>
</g>
<!-- Node6&#45;&gt;Node7 -->
<g id="edge6" class="edge">
<title>Node6&#45;&gt;Node7</title>
<path fill="none" stroke="#63b8ff" d="M259.07,-199.1C237.95,-206.32 213.45,-214.39 191,-221 179.23,-224.47 166.54,-227.9 154.41,-231.03"/>
<polygon fill="#63b8ff" stroke="#63b8ff" points="260.03,-202.47 268.34,-195.91 257.75,-195.85 260.03,-202.47"/>
</g>
<!-- Node8 -->
<g id="node8" class="node">
<title>Node8</title>
<g id="a_node8"><a xlink:href="namespace_o_c_a_1_1_c_a_f_e_v_d_b_1_1_traits.html#a53ac2b252066fd57152201418ca9a238" target="_top" xlink:title="Finds an entity by its primary key / identifier.">
<polygon fill="white" stroke="#666666" points="163.5,-211.5 27.5,-211.5 27.5,-192.5 163.5,-192.5 163.5,-211.5"/>
<text text-anchor="middle" x="95.5" y="-199.5" font-family="Helvetica,sans-Serif" font-size="10.00">OCA\CAFEVDB\Traits\find</text>
</a>
</g>
</g>
<!-- Node6&#45;&gt;Node8 -->
<g id="edge7" class="edge">
<title>Node6&#45;&gt;Node8</title>
<path fill="none" stroke="#63b8ff" d="M241.42,-187.27C216.39,-189.82 188.38,-192.66 163.72,-195.17"/>
<polygon fill="#63b8ff" stroke="#63b8ff" points="241.59,-190.77 251.19,-186.28 240.88,-183.81 241.59,-190.77"/>
</g>
<!-- Node9 -->
<g id="node9" class="node">
<title>Node9</title>
<g id="a_node9"><a xlink:href="namespace_o_c_a_1_1_c_a_f_e_v_d_b_1_1_traits.html#af92918b0467da12c739883470b4bcc31" target="_top" xlink:title="Finds all entities in the repository.">
<polygon fill="white" stroke="#666666" points="154,-174 37,-174 37,-144 154,-144 154,-174"/>
<text text-anchor="start" x="45" y="-162" font-family="Helvetica,sans-Serif" font-size="10.00">OCA\CAFEVDB\Traits</text>
<text text-anchor="middle" x="95.5" y="-151" font-family="Helvetica,sans-Serif" font-size="10.00">\findAll</text>
</a>
</g>
</g>
<!-- Node6&#45;&gt;Node9 -->
<g id="edge8" class="edge">
<title>Node6&#45;&gt;Node9</title>
<path fill="none" stroke="#63b8ff" d="M241.25,-173.04C212.99,-170.3 180.97,-167.19 154.25,-164.6"/>
<polygon fill="#63b8ff" stroke="#63b8ff" points="240.89,-176.52 251.19,-174 241.57,-169.56 240.89,-176.52"/>
</g>
<!-- Node10 -->
<g id="node10" class="node">
<title>Node10</title>
<g id="a_node10"><a xlink:href="namespace_o_c_a_1_1_c_a_f_e_v_d_b_1_1_traits.html#a94c8ff9bcf707932a5c13d04d16a8e7f" target="_top" xlink:title="Finds entities by a set of criteria.">
<polygon fill="white" stroke="#666666" points="154,-126 37,-126 37,-96 154,-96 154,-126"/>
<text text-anchor="start" x="45" y="-114" font-family="Helvetica,sans-Serif" font-size="10.00">OCA\CAFEVDB\Traits</text>
<text text-anchor="middle" x="95.5" y="-103" font-family="Helvetica,sans-Serif" font-size="10.00">\findBy</text>
</a>
</g>
</g>
<!-- Node6&#45;&gt;Node10 -->
<g id="edge9" class="edge">
<title>Node6&#45;&gt;Node10</title>
<path fill="none" stroke="#63b8ff" d="M242.03,-161.76C236.89,-159.97 231.83,-158.04 227,-156 209.94,-148.78 208.14,-142.01 191,-135 179.41,-130.26 166.62,-126.25 154.3,-122.95"/>
<polygon fill="#63b8ff" stroke="#63b8ff" points="240.61,-164.98 251.21,-164.8 242.81,-158.34 240.61,-164.98"/>
</g>
<!-- Node11 -->
<g id="node11" class="node">
<title>Node11</title>
<g id="a_node11"><a xlink:href="namespace_o_c_a_1_1_c_a_f_e_v_d_b_1_1_traits.html#a25792cc13a33a74c4a8ecc7755fd76bc" target="_top" xlink:title="Finds a single entity by a set of criteria.">
<polygon fill="white" stroke="#666666" points="154,-78 37,-78 37,-48 154,-48 154,-78"/>
<text text-anchor="start" x="45" y="-66" font-family="Helvetica,sans-Serif" font-size="10.00">OCA\CAFEVDB\Traits</text>
<text text-anchor="middle" x="95.5" y="-55" font-family="Helvetica,sans-Serif" font-size="10.00">\findOneBy</text>
</a>
</g>
</g>
<!-- Node6&#45;&gt;Node11 -->
<g id="edge10" class="edge">
<title>Node6&#45;&gt;Node11</title>
<path fill="none" stroke="#63b8ff" d="M241.98,-165.45C236.63,-162.81 231.55,-159.69 227,-156 200.13,-134.22 218.13,-108.46 191,-87 180.38,-78.6 167.17,-73.1 154.02,-69.52"/>
<polygon fill="#63b8ff" stroke="#63b8ff" points="240.59,-168.66 251.16,-169.37 243.34,-162.22 240.59,-168.66"/>
</g>
<!-- Node12 -->
<g id="node12" class="node">
<title>Node12</title>
<g id="a_node12"><a xlink:href="namespace_o_c_a_1_1_c_a_f_e_v_d_b_1_1_traits.html#ad9829bdefbdf3098ba512082b136ab4e" target="_top" xlink:title="Select all elements from a selectable that match the expression and return a new collection containin...">
<polygon fill="white" stroke="#666666" points="154,-30 37,-30 37,0 154,0 154,-30"/>
<text text-anchor="start" x="45" y="-18" font-family="Helvetica,sans-Serif" font-size="10.00">OCA\CAFEVDB\Traits</text>
<text text-anchor="middle" x="95.5" y="-7" font-family="Helvetica,sans-Serif" font-size="10.00">\matching</text>
</a>
</g>
</g>
<!-- Node6&#45;&gt;Node12 -->
<g id="edge11" class="edge">
<title>Node6&#45;&gt;Node12</title>
<path fill="none" stroke="#63b8ff" d="M242.39,-166.95C236.76,-164 231.51,-160.39 227,-156 188.03,-118.04 230.42,-76.5 191,-39 180.94,-29.43 167.63,-23.53 154.19,-19.93"/>
<polygon fill="#63b8ff" stroke="#63b8ff" points="240.93,-170.13 251.49,-170.98 243.76,-163.73 240.93,-170.13"/>
</g>
</g>
</svg>
        <g id="navigator" transform="translate(0 0)" fill="#404254">
                <rect fill="#f2f5e9" fill-opacity="0.5" stroke="#606060" stroke-width=".5" x="0" y="0" width="60" height="60"/>
                <use id="zoomplus" xlink:href="#zoomPlus" x="17" y="9" onmousedown="handleZoom(evt,'in')"/>
                <use id="zoomminus" xlink:href="#zoomMin" x="42" y="9" onmousedown="handleZoom(evt,'out')"/>
                <use id="reset" xlink:href="#resetDef" x="30" y="36" onmousedown="handleReset()"/>
                <g id="arrowUp" xlink:href="#dirArrow" transform="translate(30 24)" onmousedown="handlePan(0,-1)">
                  <use xlink:href="#rim" fill="#404040">
                        <set attributeName="fill" to="#808080" begin="arrowUp.mouseover" end="arrowUp.mouseout"/>
                  </use>
                  <path fill="none" stroke="white" stroke-width="1.5" d="M0,-3.0v7 M-2.5,-0.5L0,-3.0L2.5,-0.5"/>
                </g>
                <g id="arrowRight" xlink:href="#dirArrow" transform="rotate(90) translate(36 -43)" onmousedown="handlePan(1,0)">
                  <use xlink:href="#rim" fill="#404040">
                        <set attributeName="fill" to="#808080" begin="arrowRight.mouseover" end="arrowRight.mouseout"/>
                  </use>
                  <path fill="none" stroke="white" stroke-width="1.5" d="M0,-3.0v7 M-2.5,-0.5L0,-3.0L2.5,-0.5"/>
                </g>
                <g id="arrowDown" xlink:href="#dirArrow" transform="rotate(180) translate(-30 -48)" onmousedown="handlePan(0,1)">
                  <use xlink:href="#rim" fill="#404040">
                        <set attributeName="fill" to="#808080" begin="arrowDown.mouseover" end="arrowDown.mouseout"/>
                  </use>
                  <path fill="none" stroke="white" stroke-width="1.5" d="M0,-3.0v7 M-2.5,-0.5L0,-3.0L2.5,-0.5"/>
                </g>
                <g id="arrowLeft" xlink:href="#dirArrow" transform="rotate(270) translate(-36 17)" onmousedown="handlePan(-1,0)">
                  <use xlink:href="#rim" fill="#404040">
                        <set attributeName="fill" to="#808080" begin="arrowLeft.mouseover" end="arrowLeft.mouseout"/>
                  </use>
                  <path fill="none" stroke="white" stroke-width="1.5" d="M0,-3.0v7 M-2.5,-0.5L0,-3.0L2.5,-0.5"/>
                </g>
        </g>
        <svg viewBox="0 0 15 15" width="100%" height="30px" preserveAspectRatio="xMaxYMin meet">
         <g id="arrow_out" transform="scale(0.3 0.3)">
          <a xlink:href="class_o_c_a_1_1_c_a_f_e_v_d_b_1_1_database_1_1_doctrine_1_1_o_r_m_1_1_repositories_1_1_entity_repository_ae2b0e1dbe7640aefaf7d54c6a94d08fe_icgraph_org.svg" target="_base">
           <rect id="button" ry="5" rx="5" y="6" x="6" height="38" width="38"
                fill="#f2f5e9" fill-opacity="0.5" stroke="#606060" stroke-width="1.0"/>
           <path id="arrow"
             d="M 11.500037,31.436501 C 11.940474,20.09759 22.043105,11.32322 32.158766,21.979434 L 37.068811,17.246167 C 37.068811,17.246167 37.088388,32 37.088388,32 L 22.160133,31.978069 C 22.160133,31.978069 26.997745,27.140456 26.997745,27.140456 C 18.528582,18.264221 13.291696,25.230495 11.500037,31.436501 z"
             style="fill:#404040;"/>
          </a>
         </g>
        </svg>
</svg>
