<?xml version="1.0" encoding="UTF-8" standalone="no"?>
<!DOCTYPE svg PUBLIC "-//W3C//DTD SVG 1.1//EN"
 "http://www.w3.org/Graphics/SVG/1.1/DTD/svg11.dtd">
<!-- Generated by graphviz version 7.1.0 (20230121.1956)
 -->
<!-- Title: unescapeDelimiter Pages: 1 -->
<!--zoomable 326 -->
<svg id="main" version="1.1" xmlns="http://www.w3.org/2000/svg" xmlns:xlink="http://www.w3.org/1999/xlink" xml:space="preserve" onload="init(evt)">
<style type="text/css"><![CDATA[
.edge:hover path { stroke: red; }
.edge:hover polygon { stroke: red; fill: red; }
]]></style>
<script type="text/javascript"><![CDATA[
var edges = document.getElementsByTagName('g');
if (edges && edges.length) {
  for (var i=0;i<edges.length;i++) {
    if (edges[i].id.substr(0,4)=='edge') {
      edges[i].setAttribute('class','edge');
    }
  }
}
]]></script>
        <defs>
                <circle id="rim" cx="0" cy="0" r="7"/>
                <circle id="rim2" cx="0" cy="0" r="3.5"/>
                <g id="zoomPlus">
                        <use xlink:href="#rim" fill="#404040">
                                <set attributeName="fill" to="#808080" begin="zoomplus.mouseover" end="zoomplus.mouseout"/>
                        </use>
                        <path d="M-4,0h8M0,-4v8" fill="none" stroke="white" stroke-width="1.5" pointer-events="none"/>
                </g>
                <g id="zoomMin">
                        <use xlink:href="#rim" fill="#404040">
                                <set attributeName="fill" to="#808080" begin="zoomminus.mouseover" end="zoomminus.mouseout"/>
                        </use>
                        <path d="M-4,0h8" fill="none" stroke="white" stroke-width="1.5" pointer-events="none"/>
                </g>
                <g id="dirArrow">
                        <path fill="none" stroke="white" stroke-width="1.5" d="M0,-3.0v7 M-2.5,-0.5L0,-3.0L2.5,-0.5"/>
                </g>
               <g id="resetDef">
                       <use xlink:href="#rim2" fill="#404040">
                               <set attributeName="fill" to="#808080" begin="reset.mouseover" end="reset.mouseout"/>
                       </use>
               </g>
        </defs>

<script type="text/javascript">
var viewWidth = 846;
var viewHeight = 326;
var sectionId = 'dynsection-26';
</script>
<script xlink:href="svgpan.js"/>
<svg id="graph" class="graph">
<g id="viewport">
<title>unescapeDelimiter</title>
<!-- Node1 -->
<g id="node1" class="node">
<title>Node1</title>
<g id="a_node1"><a xlink:title="Un&#45;escape delimiters in the given value.">
<polygon fill="#999999" stroke="#666666" points="838,-172 740,-172 740,-153 838,-153 838,-172"/>
<text text-anchor="middle" x="789" y="-160" font-family="Helvetica,sans-Serif" font-size="10.00">unescapeDelimiter</text>
</a>
</g>
</g>
<!-- Node2 -->
<g id="node2" class="node">
<title>Node2</title>
<g id="a_node2"><a xlink:href="class_o_c_a_1_1_c_a_f_e_v_d_b_1_1_common_1_1_util.html#a0bef3dc2eedd594dab3a84b15d183c36" target="_top" xlink:title="A preg_explode() wrapper with some extra features.">
<polygon fill="white" stroke="#666666" points="704,-172 654,-172 654,-153 704,-153 704,-172"/>
<text text-anchor="middle" x="679" y="-160" font-family="Helvetica,sans-Serif" font-size="10.00">explode</text>
</a>
</g>
</g>
<!-- Node1&#45;&gt;Node2 -->
<g id="edge1" class="edge">
<title>Node1&#45;&gt;Node2</title>
<path fill="none" stroke="#63b8ff" d="M728.46,-162.5C719.94,-162.5 711.61,-162.5 704.33,-162.5"/>
<polygon fill="#63b8ff" stroke="#63b8ff" points="728.17,-166 738.17,-162.5 728.17,-159 728.17,-166"/>
</g>
<!-- Node2&#45;&gt;Node2 -->
<g id="edge7" class="edge">
<title>Node2&#45;&gt;Node2</title>
<path fill="none" stroke="#63b8ff" d="M698.52,-183.43C696.08,-187.29 689.57,-190 679,-190 659.66,-190 653.92,-180.94 661.78,-172.37"/>
<polygon fill="#63b8ff" stroke="#63b8ff" points="701.99,-182.93 696.53,-173.85 695.14,-184.35 701.99,-182.93"/>
</g>
<!-- Node3 -->
<g id="node3" class="node">
<title>Node3</title>
<g id="a_node3"><a xlink:href="class_o_c_a_1_1_c_a_f_e_v_d_b_1_1_page_renderer_1_1_p_m_e_table_view_base.html#a936748b21bb69d2a3f9d51e14ce2cd87" target="_top" xlink:title="Before insert&#45;trigger which ideally should insert all data such that nothing remains to be done for p...">
<polygon fill="white" stroke="#666666" points="391,-261 227,-261 227,-220 391,-220 391,-261"/>
<text text-anchor="start" x="235" y="-249" font-family="Helvetica,sans-Serif" font-size="10.00">OCA\CAFEVDB\PageRenderer</text>
<text text-anchor="start" x="235" y="-238" font-family="Helvetica,sans-Serif" font-size="10.00">\PMETableViewBase\beforeInsert</text>
<text text-anchor="middle" x="309" y="-227" font-family="Helvetica,sans-Serif" font-size="10.00">DoInsertAll</text>
</a>
</g>
</g>
<!-- Node2&#45;&gt;Node3 -->
<g id="edge2" class="edge">
<title>Node2&#45;&gt;Node3</title>
<path fill="none" stroke="#63b8ff" d="M668.49,-182.5C658.67,-200.59 641.47,-226.08 618,-237.5 547.2,-271.96 455.94,-267.77 391.19,-257.99"/>
<polygon fill="#63b8ff" stroke="#63b8ff" points="671.54,-184.24 672.96,-173.74 665.3,-181.06 671.54,-184.24"/>
</g>
<!-- Node4 -->
<g id="node4" class="node">
<title>Node4</title>
<g id="a_node4"><a xlink:href="class_o_c_a_1_1_c_a_f_e_v_d_b_1_1_page_renderer_1_1_project_instrumentation_numbers.html#ab91557ae1e08e1183c76c9ce39edfe33" target="_top" xlink:title="{Show the underlying template page.This is supposed to echo html code to stdout. This is the default ...">
<polygon fill="white" stroke="#666666" points="188,-281.5 0,-281.5 0,-251.5 188,-251.5 188,-281.5"/>
<text text-anchor="start" x="8" y="-269.5" font-family="Helvetica,sans-Serif" font-size="10.00">OCA\CAFEVDB\PageRenderer</text>
<text text-anchor="middle" x="94" y="-258.5" font-family="Helvetica,sans-Serif" font-size="10.00">\ProjectInstrumentationNumbers\render</text>
</a>
</g>
</g>
<!-- Node2&#45;&gt;Node4 -->
<g id="edge16" class="edge">
<title>Node2&#45;&gt;Node4</title>
<path fill="none" stroke="#63b8ff" d="M672.45,-183.19C664.72,-207.49 648.13,-246.73 618,-264.5 466.28,-353.99 244.16,-309 145.47,-281.95"/>
<polygon fill="#63b8ff" stroke="#63b8ff" points="675.76,-184.36 675.21,-173.78 669.04,-182.39 675.76,-184.36"/>
</g>
<!-- Node6 -->
<g id="node6" class="node">
<title>Node6</title>
<g id="a_node6"><a xlink:href="class_o_c_a_1_1_c_a_f_e_v_d_b_1_1_page_renderer_1_1_p_m_e_table_view_base.html#a882a0897b82d354409342d1c195c2f4d" target="_top" xlink:title="Before update&#45;trigger which ideally should update all data such that nothing remains to do for phpMyE...">
<polygon fill="white" stroke="#666666" points="394,-202 224,-202 224,-161 394,-161 394,-202"/>
<text text-anchor="start" x="232" y="-190" font-family="Helvetica,sans-Serif" font-size="10.00">OCA\CAFEVDB\PageRenderer</text>
<text text-anchor="start" x="232" y="-179" font-family="Helvetica,sans-Serif" font-size="10.00">\PMETableViewBase\beforeUpdate</text>
<text text-anchor="middle" x="309" y="-168" font-family="Helvetica,sans-Serif" font-size="10.00">DoUpdateAll</text>
</a>
</g>
</g>
<!-- Node2&#45;&gt;Node6 -->
<g id="edge5" class="edge">
<title>Node2&#45;&gt;Node6</title>
<path fill="none" stroke="#63b8ff" d="M642.3,-160.75C594.05,-158.78 505.38,-156.57 430,-162.5 418.43,-163.41 406.3,-164.81 394.37,-166.44"/>
<polygon fill="#63b8ff" stroke="#63b8ff" points="642.01,-164.24 652.15,-161.17 642.31,-157.24 642.01,-164.24"/>
</g>
<!-- Node7 -->
<g id="node7" class="node">
<title>Node7</title>
<g id="a_node7"><a xlink:href="class_o_c_a_1_1_c_a_f_e_v_d_b_1_1_common_1_1_util.html#a224e0cc0562d0f2642f19e9f8fb03596" target="_top" xlink:title="Explode a string of the form.">
<polygon fill="white" stroke="#666666" points="566.5,-228 481.5,-228 481.5,-209 566.5,-209 566.5,-228"/>
<text text-anchor="middle" x="524" y="-216" font-family="Helvetica,sans-Serif" font-size="10.00">explodeIndexed</text>
</a>
</g>
</g>
<!-- Node2&#45;&gt;Node7 -->
<g id="edge8" class="edge">
<title>Node2&#45;&gt;Node7</title>
<path fill="none" stroke="#63b8ff" d="M655.74,-178.83C644.84,-186.13 631.24,-194.26 618,-199.5 601.76,-205.93 583.02,-210.29 566.64,-213.2"/>
<polygon fill="#63b8ff" stroke="#63b8ff" points="657.45,-181.91 663.66,-173.33 653.45,-176.16 657.45,-181.91"/>
</g>
<!-- Node8 -->
<g id="node8" class="node">
<title>Node8</title>
<g id="a_node8"><a xlink:href="class_o_c_a_1_1_c_a_f_e_v_d_b_1_1_common_1_1_util.html#a1c7326cf6f827db64c27bbb89f64dd7d" target="_top" xlink:title="Explode a string of the form.">
<polygon fill="white" stroke="#666666" points="577,-191 471,-191 471,-172 577,-172 577,-191"/>
<text text-anchor="middle" x="524" y="-179" font-family="Helvetica,sans-Serif" font-size="10.00">explodeIndexedMulti</text>
</a>
</g>
</g>
<!-- Node2&#45;&gt;Node8 -->
<g id="edge11" class="edge">
<title>Node2&#45;&gt;Node8</title>
<path fill="none" stroke="#63b8ff" d="M642.42,-166.92C623.08,-169.32 598.78,-172.34 577.32,-175"/>
<polygon fill="#63b8ff" stroke="#63b8ff" points="642.76,-170.4 652.25,-165.7 641.9,-163.46 642.76,-170.4"/>
</g>
<!-- Node9 -->
<g id="node9" class="node">
<title>Node9</title>
<g id="a_node9"><a xlink:href="class_o_c_a_1_1_c_a_f_e_v_d_b_1_1_page_renderer_1_1_p_m_e_table_view_base.html#ac4930892b628989ea570c18ef64c0b4b" target="_top" xlink:title="The ranking of the mussician&#39;s instruments is implicitly stored in the order of the instrument ids.">
<polygon fill="white" stroke="#666666" points="618,-115 430,-115 430,-74 618,-74 618,-115"/>
<text text-anchor="start" x="438" y="-103" font-family="Helvetica,sans-Serif" font-size="10.00">OCA\CAFEVDB\PageRenderer</text>
<text text-anchor="start" x="438" y="-92" font-family="Helvetica,sans-Serif" font-size="10.00">\PMETableViewBase\extractInstrument</text>
<text text-anchor="middle" x="524" y="-81" font-family="Helvetica,sans-Serif" font-size="10.00">Ranking</text>
</a>
</g>
</g>
<!-- Node2&#45;&gt;Node9 -->
<g id="edge14" class="edge">
<title>Node2&#45;&gt;Node9</title>
<path fill="none" stroke="#63b8ff" d="M651.84,-147.05C641.47,-141.21 629.34,-134.72 618,-129.5 607.34,-124.59 595.79,-119.83 584.56,-115.47"/>
<polygon fill="#63b8ff" stroke="#63b8ff" points="649.79,-149.91 660.21,-151.85 653.27,-143.84 649.79,-149.91"/>
</g>
<!-- Node10 -->
<g id="node10" class="node">
<title>Node10</title>
<g id="a_node10"><a xlink:href="class_o_c_a_1_1_c_a_f_e_v_d_b_1_1_common_1_1_util.html#a67a5fbebd2af7e58f4533e7256e11556" target="_top" xlink:title=" ">
<polygon fill="white" stroke="#666666" points="594,-56 454,-56 454,-37 594,-37 594,-56"/>
<text text-anchor="middle" x="524" y="-44" font-family="Helvetica,sans-Serif" font-size="10.00">fileExtensionFromMimeType</text>
</a>
</g>
</g>
<!-- Node2&#45;&gt;Node10 -->
<g id="edge15" class="edge">
<title>Node2&#45;&gt;Node10</title>
<path fill="none" stroke="#63b8ff" d="M671.08,-141.73C662.39,-119.03 645.24,-83.39 618,-64.5 610.84,-59.53 602.65,-55.85 594.18,-53.14"/>
<polygon fill="#63b8ff" stroke="#63b8ff" points="667.77,-142.89 674.44,-151.12 674.36,-140.53 667.77,-142.89"/>
</g>
<!-- Node11 -->
<g id="node11" class="node">
<title>Node11</title>
<g id="a_node11"><a xlink:href="class_o_c_a_1_1_c_a_f_e_v_d_b_1_1_common_1_1_util.html#ae7d345a0cb6a0cc4e54913f819db998d" target="_top" xlink:title="Shorten the given string by iteratively reducing the size of its camel&#45;case components until it fits ...">
<polygon fill="white" stroke="#666666" points="587,-19 461,-19 461,0 587,0 587,-19"/>
<text text-anchor="middle" x="524" y="-7" font-family="Helvetica,sans-Serif" font-size="10.00">shortenCamelCaseString</text>
</a>
</g>
</g>
<!-- Node2&#45;&gt;Node11 -->
<g id="edge17" class="edge">
<title>Node2&#45;&gt;Node11</title>
<path fill="none" stroke="#63b8ff" d="M674.85,-141.59C669.16,-111.46 654.18,-56.28 618,-27.5 609.12,-20.44 598.27,-15.87 587.16,-12.98"/>
<polygon fill="#63b8ff" stroke="#63b8ff" points="671.38,-142.06 676.51,-151.33 678.28,-140.89 671.38,-142.06"/>
</g>
<!-- Node3&#45;&gt;Node4 -->
<g id="edge3" class="edge">
<title>Node3&#45;&gt;Node4</title>
<path fill="none" stroke="#63b8ff" d="M215.37,-251.81C206.46,-252.9 197.41,-254 188.5,-255.09"/>
<polygon fill="#63b8ff" stroke="#63b8ff" points="215.56,-255.31 225.06,-250.62 214.71,-248.36 215.56,-255.31"/>
</g>
<!-- Node5 -->
<g id="node5" class="node">
<title>Node5</title>
<g id="a_node5"><a xlink:href="class_o_c_a_1_1_c_a_f_e_v_d_b_1_1_page_renderer_1_1_project_participant_fields.html#ab91557ae1e08e1183c76c9ce39edfe33" target="_top" xlink:title="{Show the underlying template page.This is supposed to echo html code to stdout. This is the default ...">
<polygon fill="white" stroke="#666666" points="171.5,-228.5 16.5,-228.5 16.5,-198.5 171.5,-198.5 171.5,-228.5"/>
<text text-anchor="start" x="24.5" y="-216.5" font-family="Helvetica,sans-Serif" font-size="10.00">OCA\CAFEVDB\PageRenderer</text>
<text text-anchor="middle" x="94" y="-205.5" font-family="Helvetica,sans-Serif" font-size="10.00">\ProjectParticipantFields\render</text>
</a>
</g>
</g>
<!-- Node3&#45;&gt;Node5 -->
<g id="edge4" class="edge">
<title>Node3&#45;&gt;Node5</title>
<path fill="none" stroke="#63b8ff" d="M215.51,-228.78C200.93,-226.93 186,-225.04 171.84,-223.24"/>
<polygon fill="#63b8ff" stroke="#63b8ff" points="214.7,-232.2 225.06,-229.99 215.58,-225.26 214.7,-232.2"/>
</g>
<!-- Node6&#45;&gt;Node5 -->
<g id="edge6" class="edge">
<title>Node6&#45;&gt;Node5</title>
<path fill="none" stroke="#63b8ff" d="M212.21,-195.89C198.67,-197.92 184.9,-199.99 171.78,-201.96"/>
<polygon fill="#63b8ff" stroke="#63b8ff" points="212.65,-199.36 222.01,-194.42 211.61,-192.44 212.65,-199.36"/>
</g>
<!-- Node7&#45;&gt;Node3 -->
<g id="edge9" class="edge">
<title>Node7&#45;&gt;Node3</title>
<path fill="none" stroke="#63b8ff" d="M469.94,-223.98C446.23,-226.43 417.74,-229.37 391.41,-232.09"/>
<polygon fill="#63b8ff" stroke="#63b8ff" points="470.08,-227.48 479.67,-222.98 469.36,-220.52 470.08,-227.48"/>
</g>
<!-- Node7&#45;&gt;Node6 -->
<g id="edge10" class="edge">
<title>Node7&#45;&gt;Node6</title>
<path fill="none" stroke="#63b8ff" d="M470.02,-209.3C447.2,-205.33 419.96,-200.6 394.47,-196.17"/>
<polygon fill="#63b8ff" stroke="#63b8ff" points="469.23,-212.71 479.68,-210.98 470.43,-205.82 469.23,-212.71"/>
</g>
<!-- Node8&#45;&gt;Node3 -->
<g id="edge12" class="edge">
<title>Node8&#45;&gt;Node3</title>
<path fill="none" stroke="#63b8ff" d="M459.49,-192.58C449.57,-194.66 439.47,-196.98 430,-199.5 417.93,-202.71 392.97,-211.14 368.93,-219.52"/>
<polygon fill="#63b8ff" stroke="#63b8ff" points="459.98,-196.05 469.09,-190.63 458.59,-189.19 459.98,-196.05"/>
</g>
<!-- Node8&#45;&gt;Node6 -->
<g id="edge13" class="edge">
<title>Node8&#45;&gt;Node6</title>
<path fill="none" stroke="#63b8ff" d="M459.23,-181.5C438.78,-181.5 415.82,-181.5 394.15,-181.5"/>
<polygon fill="#63b8ff" stroke="#63b8ff" points="459.11,-185 469.11,-181.5 459.11,-178 459.11,-185"/>
</g>
</g>
</svg>
        <g id="navigator" transform="translate(0 0)" fill="#404254">
                <rect fill="#f2f5e9" fill-opacity="0.5" stroke="#606060" stroke-width=".5" x="0" y="0" width="60" height="60"/>
                <use id="zoomplus" xlink:href="#zoomPlus" x="17" y="9" onmousedown="handleZoom(evt,'in')"/>
                <use id="zoomminus" xlink:href="#zoomMin" x="42" y="9" onmousedown="handleZoom(evt,'out')"/>
                <use id="reset" xlink:href="#resetDef" x="30" y="36" onmousedown="handleReset()"/>
                <g id="arrowUp" xlink:href="#dirArrow" transform="translate(30 24)" onmousedown="handlePan(0,-1)">
                  <use xlink:href="#rim" fill="#404040">
                        <set attributeName="fill" to="#808080" begin="arrowUp.mouseover" end="arrowUp.mouseout"/>
                  </use>
                  <path fill="none" stroke="white" stroke-width="1.5" d="M0,-3.0v7 M-2.5,-0.5L0,-3.0L2.5,-0.5"/>
                </g>
                <g id="arrowRight" xlink:href="#dirArrow" transform="rotate(90) translate(36 -43)" onmousedown="handlePan(1,0)">
                  <use xlink:href="#rim" fill="#404040">
                        <set attributeName="fill" to="#808080" begin="arrowRight.mouseover" end="arrowRight.mouseout"/>
                  </use>
                  <path fill="none" stroke="white" stroke-width="1.5" d="M0,-3.0v7 M-2.5,-0.5L0,-3.0L2.5,-0.5"/>
                </g>
                <g id="arrowDown" xlink:href="#dirArrow" transform="rotate(180) translate(-30 -48)" onmousedown="handlePan(0,1)">
                  <use xlink:href="#rim" fill="#404040">
                        <set attributeName="fill" to="#808080" begin="arrowDown.mouseover" end="arrowDown.mouseout"/>
                  </use>
                  <path fill="none" stroke="white" stroke-width="1.5" d="M0,-3.0v7 M-2.5,-0.5L0,-3.0L2.5,-0.5"/>
                </g>
                <g id="arrowLeft" xlink:href="#dirArrow" transform="rotate(270) translate(-36 17)" onmousedown="handlePan(-1,0)">
                  <use xlink:href="#rim" fill="#404040">
                        <set attributeName="fill" to="#808080" begin="arrowLeft.mouseover" end="arrowLeft.mouseout"/>
                  </use>
                  <path fill="none" stroke="white" stroke-width="1.5" d="M0,-3.0v7 M-2.5,-0.5L0,-3.0L2.5,-0.5"/>
                </g>
        </g>
        <svg viewBox="0 0 15 15" width="100%" height="30px" preserveAspectRatio="xMaxYMin meet">
         <g id="arrow_out" transform="scale(0.3 0.3)">
          <a xlink:href="class_o_c_a_1_1_c_a_f_e_v_d_b_1_1_common_1_1_util_a33027424113469f92dd6e70bcd90953f_icgraph_org.svg" target="_base">
           <rect id="button" ry="5" rx="5" y="6" x="6" height="38" width="38"
                fill="#f2f5e9" fill-opacity="0.5" stroke="#606060" stroke-width="1.0"/>
           <path id="arrow"
             d="M 11.500037,31.436501 C 11.940474,20.09759 22.043105,11.32322 32.158766,21.979434 L 37.068811,17.246167 C 37.068811,17.246167 37.088388,32 37.088388,32 L 22.160133,31.978069 C 22.160133,31.978069 26.997745,27.140456 26.997745,27.140456 C 18.528582,18.264221 13.291696,25.230495 11.500037,31.436501 z"
             style="fill:#404040;"/>
          </a>
         </g>
        </svg>
</svg>
