<?xml version="1.0" encoding="UTF-8" standalone="no"?>
<!DOCTYPE svg PUBLIC "-//W3C//DTD SVG 1.1//EN"
 "http://www.w3.org/Graphics/SVG/1.1/DTD/svg11.dtd">
<!-- Generated by graphviz version 7.1.0 (20230121.1956)
 -->
<!-- Title: Graphical Class Hierarchy Pages: 1 -->
<svg width="289pt" height="1305pt"
 viewBox="0.00 0.00 289.00 1304.50" xmlns="http://www.w3.org/2000/svg" xmlns:xlink="http://www.w3.org/1999/xlink">
<g id="graph0" class="graph" transform="scale(1 1) rotate(0) translate(4 1300.5)">
<title>Graphical Class Hierarchy</title>
<!-- Node0 -->
<g id="node1" class="node">
<title>Node0</title>
<g id="a_node1"><a xlink:title=" ">
<polygon fill="#e0e0e0" stroke="#999999" points="80,-644 0,-644 0,-625 80,-625 80,-644"/>
<text text-anchor="middle" x="40" y="-632" font-family="Helvetica,sans-Serif" font-size="10.00">IEventListener</text>
</a>
</g>
</g>
<!-- Node1 -->
<g id="node2" class="node">
<title>Node1</title>
<g id="a_node2"><a xlink:href="class_o_c_a_1_1_c_a_f_e_v_d_b_1_1_listener_1_1_after_encryption_key_pair_changed_listener.html" target="_top" xlink:title="Perform re&#45;encryption tasks after encryption keys have been changed.">
<polygon fill="white" stroke="#666666" points="277.5,-1296.5 119.5,-1296.5 119.5,-1266.5 277.5,-1266.5 277.5,-1296.5"/>
<text text-anchor="start" x="127.5" y="-1284.5" font-family="Helvetica,sans-Serif" font-size="10.00">AfterEncryptionKeyPairChanged</text>
<text text-anchor="middle" x="198.5" y="-1273.5" font-family="Helvetica,sans-Serif" font-size="10.00">Listener</text>
</a>
</g>
</g>
<!-- Node0&#45;&gt;Node1 -->
<g id="edge1" class="edge">
<title>Node0&#45;&gt;Node1</title>
<path fill="none" stroke="#63b8ff" d="M40.55,-655.71C38.89,-753.94 36.88,-1163.97 116,-1257.5 118.76,-1260.77 121.95,-1263.6 125.42,-1266.06"/>
<polygon fill="#63b8ff" stroke="#63b8ff" points="44.04,-655.99 40.73,-645.93 37.05,-655.86 44.04,-655.99"/>
</g>
<!-- Node2 -->
<g id="node3" class="node">
<title>Node2</title>
<g id="a_node3"><a xlink:href="class_o_c_a_1_1_c_a_f_e_v_d_b_1_1_listener_1_1_before_encryption_key_pair_changed_listener.html" target="_top" xlink:title="Perform necessary tasks in preparation of changing an encryption key pair.">
<polygon fill="white" stroke="#666666" points="281,-1248.5 116,-1248.5 116,-1218.5 281,-1218.5 281,-1248.5"/>
<text text-anchor="start" x="124" y="-1236.5" font-family="Helvetica,sans-Serif" font-size="10.00">BeforeEncryptionKeyPairChanged</text>
<text text-anchor="middle" x="198.5" y="-1225.5" font-family="Helvetica,sans-Serif" font-size="10.00">Listener</text>
</a>
</g>
</g>
<!-- Node0&#45;&gt;Node2 -->
<g id="edge2" class="edge">
<title>Node0&#45;&gt;Node2</title>
<path fill="none" stroke="#63b8ff" d="M40.79,-655.52C40.27,-748.72 42.84,-1123.88 116,-1209.5 118.78,-1212.75 121.97,-1215.58 125.45,-1218.03"/>
<polygon fill="#63b8ff" stroke="#63b8ff" points="44.29,-655.63 40.86,-645.6 37.29,-655.57 44.29,-655.63"/>
</g>
<!-- Node3 -->
<g id="node4" class="node">
<title>Node3</title>
<g id="a_node4"><a xlink:href="class_o_c_a_1_1_c_a_f_e_v_d_b_1_1_listener_1_1_calendar_deleted_event_listener.html" target="_top" xlink:title="Act on deleted calendars.">
<polygon fill="white" stroke="#666666" points="273,-1200 124,-1200 124,-1181 273,-1181 273,-1200"/>
<text text-anchor="middle" x="198.5" y="-1188" font-family="Helvetica,sans-Serif" font-size="10.00">CalendarDeletedEventListener</text>
</a>
</g>
</g>
<!-- Node0&#45;&gt;Node3 -->
<g id="edge3" class="edge">
<title>Node0&#45;&gt;Node3</title>
<path fill="none" stroke="#63b8ff" d="M40.89,-655.64C40.86,-745.44 45.35,-1094.16 116,-1171.5 119.33,-1175.15 123.22,-1178.16 127.45,-1180.64"/>
<polygon fill="#63b8ff" stroke="#63b8ff" points="44.39,-655.86 40.91,-645.85 37.39,-655.84 44.39,-655.86"/>
</g>
<!-- Node4 -->
<g id="node5" class="node">
<title>Node4</title>
<g id="a_node5"><a xlink:href="class_o_c_a_1_1_c_a_f_e_v_d_b_1_1_listener_1_1_calendar_object_created_event_listener.html" target="_top" xlink:title="Act on newly created events and tasks.">
<polygon fill="white" stroke="#666666" points="270.5,-1162.5 126.5,-1162.5 126.5,-1132.5 270.5,-1132.5 270.5,-1162.5"/>
<text text-anchor="start" x="134.5" y="-1150.5" font-family="Helvetica,sans-Serif" font-size="10.00">CalendarObjectCreatedEvent</text>
<text text-anchor="middle" x="198.5" y="-1139.5" font-family="Helvetica,sans-Serif" font-size="10.00">Listener</text>
</a>
</g>
</g>
<!-- Node0&#45;&gt;Node4 -->
<g id="edge4" class="edge">
<title>Node0&#45;&gt;Node4</title>
<path fill="none" stroke="#63b8ff" d="M41.32,-655.51C43.03,-739.76 53.56,-1052.07 116,-1123.5 119.01,-1126.94 122.48,-1129.9 126.27,-1132.45"/>
<polygon fill="#63b8ff" stroke="#63b8ff" points="44.83,-655.65 41.15,-645.72 37.83,-655.78 44.83,-655.65"/>
</g>
<!-- Node5 -->
<g id="node6" class="node">
<title>Node5</title>
<g id="a_node6"><a xlink:href="class_o_c_a_1_1_c_a_f_e_v_d_b_1_1_listener_1_1_calendar_object_deleted_event_listener.html" target="_top" xlink:title="Act on deleted tasks and events.">
<polygon fill="white" stroke="#666666" points="270,-1114.5 127,-1114.5 127,-1084.5 270,-1084.5 270,-1114.5"/>
<text text-anchor="start" x="135" y="-1102.5" font-family="Helvetica,sans-Serif" font-size="10.00">CalendarObjectDeletedEvent</text>
<text text-anchor="middle" x="198.5" y="-1091.5" font-family="Helvetica,sans-Serif" font-size="10.00">Listener</text>
</a>
</g>
</g>
<!-- Node0&#45;&gt;Node5 -->
<g id="edge5" class="edge">
<title>Node0&#45;&gt;Node5</title>
<path fill="none" stroke="#63b8ff" d="M41.72,-655.69C44.81,-734.85 59.56,-1011.98 116,-1075.5 119.14,-1079.03 122.76,-1082.05 126.7,-1084.64"/>
<polygon fill="#63b8ff" stroke="#63b8ff" points="45.22,-655.76 41.36,-645.89 38.22,-656.01 45.22,-655.76"/>
</g>
<!-- Node6 -->
<g id="node7" class="node">
<title>Node6</title>
<g id="a_node7"><a xlink:href="class_o_c_a_1_1_c_a_f_e_v_d_b_1_1_listener_1_1_calendar_object_updated_event_listener.html" target="_top" xlink:title="Act on updated events and tasks.">
<polygon fill="white" stroke="#666666" points="271.5,-1066.5 125.5,-1066.5 125.5,-1036.5 271.5,-1036.5 271.5,-1066.5"/>
<text text-anchor="start" x="133.5" y="-1054.5" font-family="Helvetica,sans-Serif" font-size="10.00">CalendarObjectUpdatedEvent</text>
<text text-anchor="middle" x="198.5" y="-1043.5" font-family="Helvetica,sans-Serif" font-size="10.00">Listener</text>
</a>
</g>
</g>
<!-- Node0&#45;&gt;Node6 -->
<g id="edge6" class="edge">
<title>Node0&#45;&gt;Node6</title>
<path fill="none" stroke="#63b8ff" d="M42.2,-655.7C46.77,-729.23 65.49,-971.8 116,-1027.5 118.97,-1030.78 122.37,-1033.62 126.04,-1036.08"/>
<polygon fill="#63b8ff" stroke="#63b8ff" points="45.7,-655.65 41.61,-645.87 38.71,-656.06 45.7,-655.65"/>
</g>
<!-- Node7 -->
<g id="node8" class="node">
<title>Node7</title>
<g id="a_node8"><a xlink:href="class_o_c_a_1_1_c_a_f_e_v_d_b_1_1_listener_1_1_calendar_updated_event_listener.html" target="_top" xlink:title="Act on updated calendars.">
<polygon fill="white" stroke="#666666" points="274.5,-1018 122.5,-1018 122.5,-999 274.5,-999 274.5,-1018"/>
<text text-anchor="middle" x="198.5" y="-1006" font-family="Helvetica,sans-Serif" font-size="10.00">CalendarUpdatedEventListener</text>
</a>
</g>
</g>
<!-- Node0&#45;&gt;Node7 -->
<g id="edge7" class="edge">
<title>Node0&#45;&gt;Node7</title>
<path fill="none" stroke="#63b8ff" d="M42.5,-655.58C47.86,-724.63 68.3,-942.33 116,-990.5 119.16,-993.69 122.75,-996.37 126.62,-998.62"/>
<polygon fill="#63b8ff" stroke="#63b8ff" points="46,-655.39 41.77,-645.68 39.02,-655.91 46,-655.39"/>
</g>
<!-- Node8 -->
<g id="node9" class="node">
<title>Node8</title>
<g id="a_node9"><a xlink:href="class_o_c_a_1_1_c_a_f_e_v_d_b_1_1_listener_1_1_file_node_listener.html" target="_top" xlink:title="Listen to renamed and deleted events in order to keep the configured document&#45;templates synchronized ...">
<polygon fill="white" stroke="#666666" points="243.5,-981 153.5,-981 153.5,-962 243.5,-962 243.5,-981"/>
<text text-anchor="middle" x="198.5" y="-969" font-family="Helvetica,sans-Serif" font-size="10.00">FileNodeListener</text>
</a>
</g>
</g>
<!-- Node0&#45;&gt;Node8 -->
<g id="edge8" class="edge">
<title>Node0&#45;&gt;Node8</title>
<path fill="none" stroke="#63b8ff" d="M43.09,-655.87C49.83,-720.35 73.09,-911.17 116,-953.5 125.9,-963.27 139.84,-968.24 153.39,-970.64"/>
<polygon fill="#63b8ff" stroke="#63b8ff" points="46.57,-655.53 42.08,-645.93 39.61,-656.24 46.57,-655.53"/>
</g>
<!-- Node9 -->
<g id="node10" class="node">
<title>Node9</title>
<g id="a_node10"><a xlink:href="class_o_c_a_1_1_c_a_f_e_v_d_b_1_1_listener_1_1_files_hooks_listener.html" target="_top" xlink:title="Listener for hooking up an additional context menu entry.">
<polygon fill="white" stroke="#666666" points="249,-944 148,-944 148,-925 249,-925 249,-944"/>
<text text-anchor="middle" x="198.5" y="-932" font-family="Helvetica,sans-Serif" font-size="10.00">FilesHooksListener</text>
</a>
</g>
</g>
<!-- Node0&#45;&gt;Node9 -->
<g id="edge9" class="edge">
<title>Node0&#45;&gt;Node9</title>
<path fill="none" stroke="#63b8ff" d="M43.81,-655.59C52.06,-714.49 78.07,-878.76 116,-915.5 124.56,-923.79 135.99,-928.72 147.59,-931.59"/>
<polygon fill="#63b8ff" stroke="#63b8ff" points="47.31,-655.36 42.48,-645.92 40.37,-656.31 47.31,-655.36"/>
</g>
<!-- Node10 -->
<g id="node11" class="node">
<title>Node10</title>
<g id="a_node11"><a xlink:href="class_o_c_a_1_1_c_a_f_e_v_d_b_1_1_listener_1_1_mailing_lists_auto_responses_listener.html" target="_top" xlink:title="Listen to renamed and deleted events in order to keep the configured document&#45;templates synchronized ...">
<polygon fill="white" stroke="#666666" points="267.5,-906.5 129.5,-906.5 129.5,-876.5 267.5,-876.5 267.5,-906.5"/>
<text text-anchor="start" x="137.5" y="-894.5" font-family="Helvetica,sans-Serif" font-size="10.00">MailingListsAutoResponses</text>
<text text-anchor="middle" x="198.5" y="-883.5" font-family="Helvetica,sans-Serif" font-size="10.00">Listener</text>
</a>
</g>
</g>
<!-- Node0&#45;&gt;Node10 -->
<g id="edge10" class="edge">
<title>Node0&#45;&gt;Node10</title>
<path fill="none" stroke="#63b8ff" d="M41.5,-655.34C43.74,-700.59 55.51,-808.5 116,-867.5 119.91,-871.31 124.39,-874.52 129.19,-877.22"/>
<polygon fill="#63b8ff" stroke="#63b8ff" points="45.01,-655.48 41.14,-645.61 38.01,-655.74 45.01,-655.48"/>
</g>
<!-- Node11 -->
<g id="node12" class="node">
<title>Node11</title>
<g id="a_node12"><a xlink:href="class_o_c_a_1_1_c_a_f_e_v_d_b_1_1_listener_1_1_mailing_lists_email_changed_listener.html" target="_top" xlink:title="Listen to renamed and deleted events in order to keep the configured document&#45;templates synchronized ...">
<polygon fill="white" stroke="#666666" points="264.5,-858.5 132.5,-858.5 132.5,-828.5 264.5,-828.5 264.5,-858.5"/>
<text text-anchor="start" x="140.5" y="-846.5" font-family="Helvetica,sans-Serif" font-size="10.00">MailingListsEmailChanged</text>
<text text-anchor="middle" x="198.5" y="-835.5" font-family="Helvetica,sans-Serif" font-size="10.00">Listener</text>
</a>
</g>
</g>
<!-- Node0&#45;&gt;Node11 -->
<g id="edge11" class="edge">
<title>Node0&#45;&gt;Node11</title>
<path fill="none" stroke="#63b8ff" d="M43.53,-655.41C49.27,-693.64 66.85,-774.98 116,-819.5 120.81,-823.86 126.37,-827.43 132.29,-830.35"/>
<polygon fill="#63b8ff" stroke="#63b8ff" points="47.03,-655.15 42.21,-645.71 40.09,-656.09 47.03,-655.15"/>
</g>
<!-- Node12 -->
<g id="node13" class="node">
<title>Node12</title>
<g id="a_node13"><a xlink:href="class_o_c_a_1_1_c_a_f_e_v_d_b_1_1_listener_1_1_mailing_lists_registration_confirmation_listener.html" target="_top" xlink:title="Listen to renamed and deleted events in order to keep the configured document&#45;templates synchronized ...">
<polygon fill="white" stroke="#666666" points="259,-810.5 138,-810.5 138,-780.5 259,-780.5 259,-810.5"/>
<text text-anchor="start" x="146" y="-798.5" font-family="Helvetica,sans-Serif" font-size="10.00">MailingListsRegistration</text>
<text text-anchor="middle" x="198.5" y="-787.5" font-family="Helvetica,sans-Serif" font-size="10.00">ConfirmationListener</text>
</a>
</g>
</g>
<!-- Node0&#45;&gt;Node12 -->
<g id="edge12" class="edge">
<title>Node0&#45;&gt;Node12</title>
<path fill="none" stroke="#63b8ff" d="M46.83,-655.37C56.31,-685.48 77.95,-740.85 116,-771.5 122.43,-776.68 129.95,-780.75 137.77,-783.93"/>
<polygon fill="#63b8ff" stroke="#63b8ff" points="50.23,-654.53 44.02,-645.94 43.52,-656.53 50.23,-654.53"/>
</g>
<!-- Node13 -->
<g id="node14" class="node">
<title>Node13</title>
<g id="a_node14"><a xlink:href="class_o_c_a_1_1_c_a_f_e_v_d_b_1_1_listener_1_1_musician_email_persistance_listener.html" target="_top" xlink:title="Make sure that known sanitizations are performed.">
<polygon fill="white" stroke="#666666" points="264.5,-762.5 132.5,-762.5 132.5,-732.5 264.5,-732.5 264.5,-762.5"/>
<text text-anchor="start" x="140.5" y="-750.5" font-family="Helvetica,sans-Serif" font-size="10.00">MusicianEmailPersistance</text>
<text text-anchor="middle" x="198.5" y="-739.5" font-family="Helvetica,sans-Serif" font-size="10.00">Listener</text>
</a>
</g>
</g>
<!-- Node0&#45;&gt;Node13 -->
<g id="edge13" class="edge">
<title>Node0&#45;&gt;Node13</title>
<path fill="none" stroke="#63b8ff" d="M52.64,-654.17C65.63,-674.43 88.47,-705.52 116,-723.5 121.06,-726.81 126.6,-729.67 132.32,-732.15"/>
<polygon fill="#63b8ff" stroke="#63b8ff" points="55.66,-652.38 47.42,-645.72 49.7,-656.06 55.66,-652.38"/>
</g>
<!-- Node14 -->
<g id="node15" class="node">
<title>Node14</title>
<g id="a_node15"><a xlink:href="class_o_c_a_1_1_c_a_f_e_v_d_b_1_1_listener_1_1_participant_field_cloud_folder_listener.html" target="_top" xlink:title="Listen to changes to the configured participant&#45;field cloud&#45;folder directories and update the DB cont...">
<polygon fill="white" stroke="#666666" points="267,-714.5 130,-714.5 130,-684.5 267,-684.5 267,-714.5"/>
<text text-anchor="start" x="138" y="-702.5" font-family="Helvetica,sans-Serif" font-size="10.00">ParticipantFieldCloudFolder</text>
<text text-anchor="middle" x="198.5" y="-691.5" font-family="Helvetica,sans-Serif" font-size="10.00">Listener</text>
</a>
</g>
</g>
<!-- Node0&#45;&gt;Node14 -->
<g id="edge14" class="edge">
<title>Node0&#45;&gt;Node14</title>
<path fill="none" stroke="#63b8ff" d="M66.45,-650.19C80.66,-658.49 98.9,-668.41 116,-675.5 123.49,-678.61 131.53,-681.49 139.53,-684.1"/>
<polygon fill="#63b8ff" stroke="#63b8ff" points="68.57,-647.38 58.19,-645.27 64.99,-653.39 68.57,-647.38"/>
</g>
<!-- Node15 -->
<g id="node16" class="node">
<title>Node15</title>
<g id="a_node16"><a xlink:href="class_o_c_a_1_1_c_a_f_e_v_d_b_1_1_listener_1_1_password_updated_event_listener.html" target="_top" xlink:title="Perform re&#45;recryption action when the user password has been updated.">
<polygon fill="white" stroke="#666666" points="277,-666 120,-666 120,-647 277,-647 277,-666"/>
<text text-anchor="middle" x="198.5" y="-654" font-family="Helvetica,sans-Serif" font-size="10.00">PasswordUpdatedEventListener</text>
</a>
</g>
</g>
<!-- Node0&#45;&gt;Node15 -->
<g id="edge15" class="edge">
<title>Node0&#45;&gt;Node15</title>
<path fill="none" stroke="#63b8ff" d="M91.75,-641.63C102.88,-643.2 114.87,-644.88 126.64,-646.54"/>
<polygon fill="#63b8ff" stroke="#63b8ff" points="92.38,-638.19 81.99,-640.26 91.41,-645.12 92.38,-638.19"/>
</g>
<!-- Node16 -->
<g id="node17" class="node">
<title>Node16</title>
<g id="a_node17"><a xlink:href="class_o_c_a_1_1_c_a_f_e_v_d_b_1_1_listener_1_1_pre_change_project_participant_field_tooltip_listener.html" target="_top" xlink:title="Update README.md&#39;s when the tooltip changes.">
<polygon fill="white" stroke="#666666" points="270,-628.5 127,-628.5 127,-598.5 270,-598.5 270,-628.5"/>
<text text-anchor="start" x="135" y="-616.5" font-family="Helvetica,sans-Serif" font-size="10.00">PreChangeProjectParticipant</text>
<text text-anchor="middle" x="198.5" y="-605.5" font-family="Helvetica,sans-Serif" font-size="10.00">FieldTooltipListener</text>
</a>
</g>
</g>
<!-- Node0&#45;&gt;Node16 -->
<g id="edge16" class="edge">
<title>Node0&#45;&gt;Node16</title>
<path fill="none" stroke="#63b8ff" d="M91.75,-627.69C102.88,-626.2 114.87,-624.59 126.64,-623.01"/>
<polygon fill="#63b8ff" stroke="#63b8ff" points="91.44,-624.2 81.99,-629 92.37,-631.14 91.44,-624.2"/>
</g>
<!-- Node17 -->
<g id="node18" class="node">
<title>Node17</title>
<g id="a_node18"><a xlink:href="class_o_c_a_1_1_c_a_f_e_v_d_b_1_1_listener_1_1_pre_change_project_participant_field_type_listener.html" target="_top" xlink:title="Update README.md&#39;s when the field&#45;type changes.">
<polygon fill="white" stroke="#666666" points="270,-580.5 127,-580.5 127,-550.5 270,-550.5 270,-580.5"/>
<text text-anchor="start" x="135" y="-568.5" font-family="Helvetica,sans-Serif" font-size="10.00">PreChangeProjectParticipant</text>
<text text-anchor="middle" x="198.5" y="-557.5" font-family="Helvetica,sans-Serif" font-size="10.00">FieldTypeListener</text>
</a>
</g>
</g>
<!-- Node0&#45;&gt;Node17 -->
<g id="edge17" class="edge">
<title>Node0&#45;&gt;Node17</title>
<path fill="none" stroke="#63b8ff" d="M64.63,-618.19C79,-608.83 97.98,-597.4 116,-589.5 123.16,-586.36 130.85,-583.49 138.54,-580.92"/>
<polygon fill="#63b8ff" stroke="#63b8ff" points="62.71,-615.27 56.33,-623.73 66.59,-621.09 62.71,-615.27"/>
</g>
<!-- Node18 -->
<g id="node19" class="node">
<title>Node18</title>
<g id="a_node19"><a xlink:href="class_o_c_a_1_1_c_a_f_e_v_d_b_1_1_listener_1_1_pre_change_user_id_slug_listener.html" target="_top" xlink:title="Perform renaming action when the user&#45;id slug changes.">
<polygon fill="white" stroke="#666666" points="273,-532 124,-532 124,-513 273,-513 273,-532"/>
<text text-anchor="middle" x="198.5" y="-520" font-family="Helvetica,sans-Serif" font-size="10.00">PreChangeUserIdSlugListener</text>
</a>
</g>
</g>
<!-- Node0&#45;&gt;Node18 -->
<g id="edge18" class="edge">
<title>Node0&#45;&gt;Node18</title>
<path fill="none" stroke="#63b8ff" d="M51.66,-614.58C64.18,-593.15 86.98,-559.72 116,-541.5 121.91,-537.79 128.46,-534.81 135.22,-532.4"/>
<polygon fill="#63b8ff" stroke="#63b8ff" points="48.65,-612.79 46.81,-623.22 54.75,-616.21 48.65,-612.79"/>
</g>
<!-- Node19 -->
<g id="node20" class="node">
<title>Node19</title>
<g id="a_node20"><a xlink:href="class_o_c_a_1_1_c_a_f_e_v_d_b_1_1_listener_1_1_pre_persist_project_participant_field_listener.html" target="_top" xlink:title="Generate README.md&#39;s if the field referes to a file attachment.">
<polygon fill="white" stroke="#666666" points="268.5,-494.5 128.5,-494.5 128.5,-464.5 268.5,-464.5 268.5,-494.5"/>
<text text-anchor="start" x="136.5" y="-482.5" font-family="Helvetica,sans-Serif" font-size="10.00">PrePersistProjectParticipant</text>
<text text-anchor="middle" x="198.5" y="-471.5" font-family="Helvetica,sans-Serif" font-size="10.00">FieldListener</text>
</a>
</g>
</g>
<!-- Node0&#45;&gt;Node19 -->
<g id="edge19" class="edge">
<title>Node0&#45;&gt;Node19</title>
<path fill="none" stroke="#63b8ff" d="M47.46,-613.94C57.51,-585.25 79.62,-533.48 116,-504.5 120.63,-500.81 125.8,-497.67 131.24,-494.98"/>
<polygon fill="#63b8ff" stroke="#63b8ff" points="44.19,-612.66 44.36,-623.25 50.84,-614.87 44.19,-612.66"/>
</g>
<!-- Node20 -->
<g id="node21" class="node">
<title>Node20</title>
<g id="a_node21"><a xlink:href="class_o_c_a_1_1_c_a_f_e_v_d_b_1_1_listener_1_1_pre_project_updated_event_listener.html" target="_top" xlink:title="Update event categories etc.">
<polygon fill="white" stroke="#666666" points="278,-446 119,-446 119,-427 278,-427 278,-446"/>
<text text-anchor="middle" x="198.5" y="-434" font-family="Helvetica,sans-Serif" font-size="10.00">PreProjectUpdatedEventListener</text>
</a>
</g>
</g>
<!-- Node0&#45;&gt;Node20 -->
<g id="edge20" class="edge">
<title>Node0&#45;&gt;Node20</title>
<path fill="none" stroke="#63b8ff" d="M43.59,-613.46C49.39,-575.79 66.98,-496.92 116,-455.5 120.33,-451.84 125.23,-448.86 130.43,-446.43"/>
<polygon fill="#63b8ff" stroke="#63b8ff" points="40.17,-612.65 42.26,-623.04 47.1,-613.62 40.17,-612.65"/>
</g>
<!-- Node21 -->
<g id="node22" class="node">
<title>Node21</title>
<g id="a_node22"><a xlink:href="class_o_c_a_1_1_c_a_f_e_v_d_b_1_1_listener_1_1_pre_remove_project_participant_field_listener.html" target="_top" xlink:title="Remove README.md&#39;s etc.">
<polygon fill="white" stroke="#666666" points="271.5,-408.5 125.5,-408.5 125.5,-378.5 271.5,-378.5 271.5,-408.5"/>
<text text-anchor="start" x="133.5" y="-396.5" font-family="Helvetica,sans-Serif" font-size="10.00">PreRemoveProjectParticipant</text>
<text text-anchor="middle" x="198.5" y="-385.5" font-family="Helvetica,sans-Serif" font-size="10.00">FieldListener</text>
</a>
</g>
</g>
<!-- Node0&#45;&gt;Node21 -->
<g id="edge21" class="edge">
<title>Node0&#45;&gt;Node21</title>
<path fill="none" stroke="#63b8ff" d="M42.19,-613.48C45.76,-570.6 59.94,-472.55 116,-418.5 119.84,-414.8 124.2,-411.65 128.88,-408.96"/>
<polygon fill="#63b8ff" stroke="#63b8ff" points="38.72,-612.96 41.51,-623.18 45.7,-613.45 38.72,-612.96"/>
</g>
<!-- Node22 -->
<g id="node23" class="node">
<title>Node22</title>
<g id="a_node23"><a xlink:href="class_o_c_a_1_1_c_a_f_e_v_d_b_1_1_listener_1_1_pre_rename_project_participant_field_listener.html" target="_top" xlink:title="Rename associated folders etc.">
<polygon fill="white" stroke="#666666" points="271.5,-360.5 125.5,-360.5 125.5,-330.5 271.5,-330.5 271.5,-360.5"/>
<text text-anchor="start" x="133.5" y="-348.5" font-family="Helvetica,sans-Serif" font-size="10.00">PreRenameProjectParticipant</text>
<text text-anchor="middle" x="198.5" y="-337.5" font-family="Helvetica,sans-Serif" font-size="10.00">FieldListener</text>
</a>
</g>
</g>
<!-- Node0&#45;&gt;Node22 -->
<g id="edge22" class="edge">
<title>Node0&#45;&gt;Node22</title>
<path fill="none" stroke="#63b8ff" d="M40.54,-613.23C40.65,-563.4 48.08,-438.14 116,-369.5 119.22,-366.25 122.85,-363.43 126.75,-361"/>
<polygon fill="#63b8ff" stroke="#63b8ff" points="37.04,-613.21 40.63,-623.17 44.03,-613.14 37.04,-613.21"/>
</g>
<!-- Node23 -->
<g id="node24" class="node">
<title>Node23</title>
<g id="a_node24"><a xlink:href="class_o_c_a_1_1_c_a_f_e_v_d_b_1_1_listener_1_1_pre_rename_project_participant_field_option_listener.html" target="_top" xlink:title="Rename file&#45;system nodes if the field refers to file&#45;attachments.">
<polygon fill="white" stroke="#666666" points="271.5,-312.5 125.5,-312.5 125.5,-282.5 271.5,-282.5 271.5,-312.5"/>
<text text-anchor="start" x="133.5" y="-300.5" font-family="Helvetica,sans-Serif" font-size="10.00">PreRenameProjectParticipant</text>
<text text-anchor="middle" x="198.5" y="-289.5" font-family="Helvetica,sans-Serif" font-size="10.00">FieldOptionListener</text>
</a>
</g>
</g>
<!-- Node0&#45;&gt;Node23 -->
<g id="edge23" class="edge">
<title>Node0&#45;&gt;Node23</title>
<path fill="none" stroke="#63b8ff" d="M43.28,-613.66C50.56,-550.74 75.22,-364.42 116,-321.5 119.15,-318.19 122.73,-315.32 126.59,-312.85"/>
<polygon fill="#63b8ff" stroke="#63b8ff" points="39.83,-612.98 42.19,-623.31 46.79,-613.77 39.83,-612.98"/>
</g>
<!-- Node24 -->
<g id="node25" class="node">
<title>Node24</title>
<g id="a_node25"><a xlink:href="class_o_c_a_1_1_c_a_f_e_v_d_b_1_1_listener_1_1_project_deleted_event_listener.html" target="_top" xlink:title="Update calendar events if the project has been deleted.">
<polygon fill="white" stroke="#666666" points="269,-264 128,-264 128,-245 269,-245 269,-264"/>
<text text-anchor="middle" x="198.5" y="-252" font-family="Helvetica,sans-Serif" font-size="10.00">ProjectDeletedEventListener</text>
</a>
</g>
</g>
<!-- Node0&#45;&gt;Node24 -->
<g id="edge24" class="edge">
<title>Node0&#45;&gt;Node24</title>
<path fill="none" stroke="#63b8ff" d="M42.45,-613.58C47.68,-544.13 67.91,-322.77 116,-273.5 119.55,-269.86 123.66,-266.86 128.09,-264.4"/>
<polygon fill="#63b8ff" stroke="#63b8ff" points="38.98,-612.97 41.75,-623.2 45.97,-613.48 38.98,-612.97"/>
</g>
<!-- Node25 -->
<g id="node26" class="node">
<title>Node25</title>
<g id="a_node26"><a xlink:href="class_o_c_a_1_1_c_a_f_e_v_d_b_1_1_listener_1_1_sepa_bulk_transaction_announced_listener.html" target="_top" xlink:title="Listen to renamed and deleted events in order to keep the configured document&#45;templates synchronized ...">
<polygon fill="white" stroke="#666666" points="277.5,-226.5 119.5,-226.5 119.5,-196.5 277.5,-196.5 277.5,-226.5"/>
<text text-anchor="start" x="127.5" y="-214.5" font-family="Helvetica,sans-Serif" font-size="10.00">SepaBulkTransactionAnnounced</text>
<text text-anchor="middle" x="198.5" y="-203.5" font-family="Helvetica,sans-Serif" font-size="10.00">Listener</text>
</a>
</g>
</g>
<!-- Node0&#45;&gt;Node25 -->
<g id="edge25" class="edge">
<title>Node0&#45;&gt;Node25</title>
<path fill="none" stroke="#63b8ff" d="M42.18,-613.05C46.7,-538.66 65.26,-293.23 116,-236.5 119.35,-232.75 123.26,-229.55 127.5,-226.83"/>
<polygon fill="#63b8ff" stroke="#63b8ff" points="38.69,-612.82 41.6,-623.01 45.68,-613.23 38.69,-612.82"/>
</g>
<!-- Node26 -->
<g id="node27" class="node">
<title>Node26</title>
<g id="a_node27"><a xlink:href="class_o_c_a_1_1_c_a_f_e_v_d_b_1_1_listener_1_1_sepa_bulk_transaction_submitted_listener.html" target="_top" xlink:title="Listen to renamed and deleted events in order to keep the configured document&#45;templates synchronized ...">
<polygon fill="white" stroke="#666666" points="275.5,-178.5 121.5,-178.5 121.5,-148.5 275.5,-148.5 275.5,-178.5"/>
<text text-anchor="start" x="129.5" y="-166.5" font-family="Helvetica,sans-Serif" font-size="10.00">SepaBulkTransactionSubmitted</text>
<text text-anchor="middle" x="198.5" y="-155.5" font-family="Helvetica,sans-Serif" font-size="10.00">Listener</text>
</a>
</g>
</g>
<!-- Node0&#45;&gt;Node26 -->
<g id="edge26" class="edge">
<title>Node0&#45;&gt;Node26</title>
<path fill="none" stroke="#63b8ff" d="M41.65,-613.55C44.55,-534.01 58.76,-252.06 116,-187.5 118.94,-184.19 122.3,-181.32 125.96,-178.85"/>
<polygon fill="#63b8ff" stroke="#63b8ff" points="38.16,-613.25 41.32,-623.36 45.16,-613.49 38.16,-613.25"/>
</g>
<!-- Node27 -->
<g id="node28" class="node">
<title>Node27</title>
<g id="a_node28"><a xlink:href="class_o_c_a_1_1_c_a_f_e_v_d_b_1_1_listener_1_1_sub_admin_event_listener.html" target="_top" xlink:title="Track changes in sub&#45;admins and act accordingly.">
<polygon fill="white" stroke="#666666" points="259.5,-130 137.5,-130 137.5,-111 259.5,-111 259.5,-130"/>
<text text-anchor="middle" x="198.5" y="-118" font-family="Helvetica,sans-Serif" font-size="10.00">SubAdminEventListener</text>
</a>
</g>
</g>
<!-- Node0&#45;&gt;Node27 -->
<g id="edge27" class="edge">
<title>Node0&#45;&gt;Node27</title>
<path fill="none" stroke="#63b8ff" d="M41.17,-613.13C42.29,-527.46 50.83,-210.01 116,-139.5 121.82,-133.21 129.28,-128.8 137.33,-125.75"/>
<polygon fill="#63b8ff" stroke="#63b8ff" points="37.67,-613.08 41.06,-623.11 44.67,-613.15 37.67,-613.08"/>
</g>
<!-- Node28 -->
<g id="node29" class="node">
<title>Node28</title>
<g id="a_node29"><a xlink:href="class_o_c_a_1_1_c_a_f_e_v_d_b_1_1_listener_1_1_translation_not_found_listener.html" target="_top" xlink:title="Recorded untranslated strings.">
<polygon fill="white" stroke="#666666" points="269.5,-93 127.5,-93 127.5,-74 269.5,-74 269.5,-93"/>
<text text-anchor="middle" x="198.5" y="-81" font-family="Helvetica,sans-Serif" font-size="10.00">TranslationNotFoundListener</text>
</a>
</g>
</g>
<!-- Node0&#45;&gt;Node28 -->
<g id="edge28" class="edge">
<title>Node0&#45;&gt;Node28</title>
<path fill="none" stroke="#63b8ff" d="M40.92,-613.28C41.02,-523.88 46.02,-179.01 116,-102.5 119.33,-98.86 123.22,-95.84 127.45,-93.36"/>
<polygon fill="#63b8ff" stroke="#63b8ff" points="37.42,-613.25 40.93,-623.24 44.42,-613.24 37.42,-613.25"/>
</g>
<!-- Node29 -->
<g id="node30" class="node">
<title>Node29</title>
<g id="a_node30"><a xlink:href="class_o_c_a_1_1_c_a_f_e_v_d_b_1_1_listener_1_1_user_logged_in_event_listener.html" target="_top" xlink:title="Do early initialization of the encryption service.">
<polygon fill="white" stroke="#666666" points="267,-56 130,-56 130,-37 267,-37 267,-56"/>
<text text-anchor="middle" x="198.5" y="-44" font-family="Helvetica,sans-Serif" font-size="10.00">UserLoggedInEventListener</text>
</a>
</g>
</g>
<!-- Node0&#45;&gt;Node29 -->
<g id="edge29" class="edge">
<title>Node0&#45;&gt;Node29</title>
<path fill="none" stroke="#63b8ff" d="M40.7,-613.29C39.85,-520.11 41.22,-147.99 116,-65.5 119.9,-61.19 124.58,-57.77 129.68,-55.06"/>
<polygon fill="#63b8ff" stroke="#63b8ff" points="37.2,-613.06 40.81,-623.02 44.2,-612.98 37.2,-613.06"/>
</g>
<!-- Node30 -->
<g id="node31" class="node">
<title>Node30</title>
<g id="a_node31"><a xlink:href="class_o_c_a_1_1_c_a_f_e_v_d_b_1_1_listener_1_1_user_logged_out_event_listener.html" target="_top" xlink:title="Perform necessary tasks at logout time.">
<polygon fill="white" stroke="#666666" points="271,-19 126,-19 126,0 271,0 271,-19"/>
<text text-anchor="middle" x="198.5" y="-7" font-family="Helvetica,sans-Serif" font-size="10.00">UserLoggedOutEventListener</text>
</a>
</g>
</g>
<!-- Node0&#45;&gt;Node30 -->
<g id="edge30" class="edge">
<title>Node0&#45;&gt;Node30</title>
<path fill="none" stroke="#63b8ff" d="M42.19,-613.44C48.14,-511.58 75.93,-73.05 116,-28.5 119.3,-24.83 123.17,-21.79 127.38,-19.3"/>
<polygon fill="#63b8ff" stroke="#63b8ff" points="38.7,-613.14 41.62,-623.32 45.69,-613.54 38.7,-613.14"/>
</g>
</g>
</svg>
