<?xml version="1.0" encoding="UTF-8" standalone="no"?>
<!DOCTYPE svg PUBLIC "-//W3C//DTD SVG 1.1//EN"
 "http://www.w3.org/Graphics/SVG/1.1/DTD/svg11.dtd">
<!-- Generated by graphviz version 7.1.0 (20230121.1956)
 -->
<!-- Title: Graphical Class Hierarchy Pages: 1 -->
<svg width="308pt" height="64pt"
 viewBox="0.00 0.00 308.00 64.00" xmlns="http://www.w3.org/2000/svg" xmlns:xlink="http://www.w3.org/1999/xlink">
<g id="graph0" class="graph" transform="scale(1 1) rotate(0) translate(4 60)">
<title>Graphical Class Hierarchy</title>
<!-- Node0 -->
<g id="node1" class="node">
<title>Node0</title>
<g id="a_node1"><a xlink:title=" ">
<polygon fill="#e0e0e0" stroke="#999999" points="63,-37 0,-37 0,-18 63,-18 63,-37"/>
<text text-anchor="middle" x="31.5" y="-25" font-family="Helvetica,sans-Serif" font-size="10.00">QBMapper</text>
</a>
</g>
</g>
<!-- Node1 -->
<g id="node2" class="node">
<title>Node1</title>
<g id="a_node2"><a xlink:href="class_o_c_a_1_1_c_a_f_e_v_d_b_1_1_database_1_1_cloud_1_1_mapper_1_1_mapper.html" target="_top" xlink:title="Common mapper base class.">
<polygon fill="white" stroke="#666666" points="148,-37 99,-37 99,-18 148,-18 148,-37"/>
<text text-anchor="middle" x="123.5" y="-25" font-family="Helvetica,sans-Serif" font-size="10.00">Mapper</text>
</a>
</g>
</g>
<!-- Node0&#45;&gt;Node1 -->
<g id="edge1" class="edge">
<title>Node0&#45;&gt;Node1</title>
<path fill="none" stroke="#63b8ff" d="M74.82,-27.5C82.98,-27.5 91.26,-27.5 98.58,-27.5"/>
<polygon fill="#63b8ff" stroke="#63b8ff" points="74.99,-24 64.99,-27.5 74.99,-31 74.99,-24"/>
</g>
<!-- Node2 -->
<g id="node3" class="node">
<title>Node2</title>
<g id="a_node3"><a xlink:href="class_o_c_a_1_1_c_a_f_e_v_d_b_1_1_database_1_1_cloud_1_1_mapper_1_1_blog_mapper.html" target="_top" xlink:title="Mapper for the blog entities.">
<polygon fill="white" stroke="#666666" points="276,-56 208,-56 208,-37 276,-37 276,-56"/>
<text text-anchor="middle" x="242" y="-44" font-family="Helvetica,sans-Serif" font-size="10.00">BlogMapper</text>
</a>
</g>
</g>
<!-- Node1&#45;&gt;Node2 -->
<g id="edge2" class="edge">
<title>Node1&#45;&gt;Node2</title>
<path fill="none" stroke="#63b8ff" d="M159.5,-33.21C174.85,-35.71 192.78,-38.64 207.9,-41.1"/>
<polygon fill="#63b8ff" stroke="#63b8ff" points="160.28,-29.79 149.85,-31.63 159.16,-36.7 160.28,-29.79"/>
</g>
<!-- Node3 -->
<g id="node4" class="node">
<title>Node3</title>
<g id="a_node4"><a xlink:href="class_o_c_a_1_1_c_a_f_e_v_d_b_1_1_database_1_1_cloud_1_1_mapper_1_1_progress_status_mapper.html" target="_top" xlink:title="Mapper for progress status entities.">
<polygon fill="white" stroke="#666666" points="300,-19 184,-19 184,0 300,0 300,-19"/>
<text text-anchor="middle" x="242" y="-7" font-family="Helvetica,sans-Serif" font-size="10.00">ProgressStatusMapper</text>
</a>
</g>
</g>
<!-- Node1&#45;&gt;Node3 -->
<g id="edge3" class="edge">
<title>Node1&#45;&gt;Node3</title>
<path fill="none" stroke="#63b8ff" d="M159.5,-22.09C167.24,-20.9 175.62,-19.6 183.98,-18.31"/>
<polygon fill="#63b8ff" stroke="#63b8ff" points="159.2,-18.6 149.85,-23.58 160.27,-25.51 159.2,-18.6"/>
</g>
</g>
</svg>
