<?xml version="1.0" encoding="UTF-8" standalone="no"?>
<!DOCTYPE svg PUBLIC "-//W3C//DTD SVG 1.1//EN"
 "http://www.w3.org/Graphics/SVG/1.1/DTD/svg11.dtd">
<!-- Generated by graphviz version 7.1.0 (20230121.1956)
 -->
<!-- Title: IPageRenderer Pages: 1 -->
<svg width="518pt" height="471pt"
 viewBox="0.00 0.00 518.00 471.00" xmlns="http://www.w3.org/2000/svg" xmlns:xlink="http://www.w3.org/1999/xlink">
<g id="graph0" class="graph" transform="scale(1 1) rotate(0) translate(4 467)">
<title>IPageRenderer</title>
<!-- Node1 -->
<g id="node1" class="node">
<title>Node1</title>
<g id="a_node1"><a xlink:title="Page&#45;renderer interface.">
<polygon fill="#999999" stroke="#666666" points="177,-241 95,-241 95,-222 177,-222 177,-241"/>
<text text-anchor="middle" x="136" y="-229" font-family="Helvetica,sans-Serif" font-size="10.00">IPageRenderer</text>
</a>
</g>
</g>
<!-- Node3 -->
<g id="node3" class="node">
<title>Node3</title>
<g id="a_node3"><a xlink:href="class_o_c_a_1_1_c_a_f_e_v_d_b_1_1_page_renderer_1_1_p_m_e_table_view_base.html" target="_top" xlink:title="Base for phpMyEdit based table&#45;views.">
<polygon fill="white" stroke="#666666" points="319,-241 213,-241 213,-222 319,-222 319,-241"/>
<text text-anchor="middle" x="266" y="-229" font-family="Helvetica,sans-Serif" font-size="10.00">PMETableViewBase</text>
</a>
</g>
</g>
<!-- Node1&#45;&gt;Node3 -->
<g id="edge2" class="edge">
<title>Node1&#45;&gt;Node3</title>
<path fill="none" stroke="#63b8ff" d="M188.76,-231.5C196.6,-231.5 204.71,-231.5 212.57,-231.5"/>
<polygon fill="#63b8ff" stroke="#63b8ff" points="189.01,-228 179.01,-231.5 189.01,-235 189.01,-228"/>
</g>
<!-- Node2 -->
<g id="node2" class="node">
<title>Node2</title>
<g id="a_node2"><a xlink:href="interface_o_c_a_1_1_c_a_f_e_v_d_b_1_1_page_renderer_1_1_i_renderer.html" target="_top" xlink:title="HTML Renderer interface.">
<polygon fill="white" stroke="#666666" points="59,-241 0,-241 0,-222 59,-222 59,-241"/>
<text text-anchor="middle" x="29.5" y="-229" font-family="Helvetica,sans-Serif" font-size="10.00">IRenderer</text>
</a>
</g>
</g>
<!-- Node2&#45;&gt;Node1 -->
<g id="edge1" class="edge">
<title>Node2&#45;&gt;Node1</title>
<path fill="none" stroke="#63b8ff" d="M70.77,-231.5C78.56,-231.5 86.73,-231.5 94.53,-231.5"/>
<polygon fill="#63b8ff" stroke="#63b8ff" points="70.85,-228 60.85,-231.5 70.85,-235 70.85,-228"/>
</g>
<!-- Node4 -->
<g id="node4" class="node">
<title>Node4</title>
<g id="a_node4"><a xlink:href="class_o_c_a_1_1_c_a_f_e_v_d_b_1_1_page_renderer_1_1_instrument_families.html" target="_top" xlink:title="Table generator for Instruments table.">
<polygon fill="white" stroke="#666666" points="482.5,-463 382.5,-463 382.5,-444 482.5,-444 482.5,-463"/>
<text text-anchor="middle" x="432.5" y="-451" font-family="Helvetica,sans-Serif" font-size="10.00">InstrumentFamilies</text>
</a>
</g>
</g>
<!-- Node3&#45;&gt;Node4 -->
<g id="edge3" class="edge">
<title>Node3&#45;&gt;Node4</title>
<path fill="none" stroke="#63b8ff" d="M269.8,-252.6C276.5,-294.27 297.39,-387.24 355,-435.5 362.74,-441.98 372.4,-446.22 382.22,-448.97"/>
<polygon fill="#63b8ff" stroke="#63b8ff" points="273.3,-252.3 268.38,-242.92 266.37,-253.32 273.3,-252.3"/>
</g>
<!-- Node5 -->
<g id="node5" class="node">
<title>Node5</title>
<g id="a_node5"><a xlink:href="class_o_c_a_1_1_c_a_f_e_v_d_b_1_1_page_renderer_1_1_instrument_insurances.html" target="_top" xlink:title="Render the instrument insurances of the club&#45;members.">
<polygon fill="white" stroke="#666666" points="488,-426 377,-426 377,-407 488,-407 488,-426"/>
<text text-anchor="middle" x="432.5" y="-414" font-family="Helvetica,sans-Serif" font-size="10.00">InstrumentInsurances</text>
</a>
</g>
</g>
<!-- Node3&#45;&gt;Node5 -->
<g id="edge4" class="edge">
<title>Node3&#45;&gt;Node5</title>
<path fill="none" stroke="#63b8ff" d="M271.9,-252.18C281.46,-287.83 306.08,-360.65 355,-398.5 361.37,-403.43 368.86,-407.04 376.63,-409.68"/>
<polygon fill="#63b8ff" stroke="#63b8ff" points="275.35,-251.55 269.5,-242.71 268.56,-253.26 275.35,-251.55"/>
</g>
<!-- Node6 -->
<g id="node6" class="node">
<title>Node6</title>
<g id="a_node6"><a xlink:href="class_o_c_a_1_1_c_a_f_e_v_d_b_1_1_page_renderer_1_1_instruments.html" target="_top" xlink:title="Table generator for Instruments table.">
<polygon fill="white" stroke="#666666" points="466.5,-389 398.5,-389 398.5,-370 466.5,-370 466.5,-389"/>
<text text-anchor="middle" x="432.5" y="-377" font-family="Helvetica,sans-Serif" font-size="10.00">Instruments</text>
</a>
</g>
</g>
<!-- Node3&#45;&gt;Node6 -->
<g id="edge5" class="edge">
<title>Node3&#45;&gt;Node6</title>
<path fill="none" stroke="#63b8ff" d="M274.95,-251.62C287.46,-280.6 314.57,-333.64 355,-361.5 367.58,-370.17 383.8,-374.7 398.06,-377.05"/>
<polygon fill="#63b8ff" stroke="#63b8ff" points="278.25,-250.45 271.19,-242.55 271.78,-253.12 278.25,-250.45"/>
</g>
<!-- Node7 -->
<g id="node7" class="node">
<title>Node7</title>
<g id="a_node7"><a xlink:href="class_o_c_a_1_1_c_a_f_e_v_d_b_1_1_page_renderer_1_1_insurance_brokers.html" target="_top" xlink:title="Table generator for Instruments table.">
<polygon fill="white" stroke="#666666" points="479,-352 386,-352 386,-333 479,-333 479,-352"/>
<text text-anchor="middle" x="432.5" y="-340" font-family="Helvetica,sans-Serif" font-size="10.00">InsuranceBrokers</text>
</a>
</g>
</g>
<!-- Node3&#45;&gt;Node7 -->
<g id="edge6" class="edge">
<title>Node3&#45;&gt;Node7</title>
<path fill="none" stroke="#63b8ff" d="M279.92,-250.8C295.27,-272.17 322.88,-306.02 355,-324.5 364.34,-329.87 375.2,-333.65 385.76,-336.29"/>
<polygon fill="#63b8ff" stroke="#63b8ff" points="282.86,-248.89 274.27,-242.68 277.11,-252.89 282.86,-248.89"/>
</g>
<!-- Node8 -->
<g id="node8" class="node">
<title>Node8</title>
<g id="a_node8"><a xlink:href="class_o_c_a_1_1_c_a_f_e_v_d_b_1_1_page_renderer_1_1_insurance_rates.html" target="_top" xlink:title="Table generator for Instruments table.">
<polygon fill="white" stroke="#666666" points="475.5,-315 389.5,-315 389.5,-296 475.5,-296 475.5,-315"/>
<text text-anchor="middle" x="432.5" y="-303" font-family="Helvetica,sans-Serif" font-size="10.00">InsuranceRates</text>
</a>
</g>
</g>
<!-- Node3&#45;&gt;Node8 -->
<g id="edge7" class="edge">
<title>Node3&#45;&gt;Node8</title>
<path fill="none" stroke="#63b8ff" d="M288.48,-248.09C305.63,-260.59 330.73,-277.27 355,-287.5 365.69,-292 377.71,-295.5 389.01,-298.17"/>
<polygon fill="#63b8ff" stroke="#63b8ff" points="290.69,-245.37 280.58,-242.19 286.5,-250.98 290.69,-245.37"/>
</g>
<!-- Node9 -->
<g id="node9" class="node">
<title>Node9</title>
<g id="a_node9"><a xlink:href="class_o_c_a_1_1_c_a_f_e_v_d_b_1_1_page_renderer_1_1_musicians.html" target="_top" xlink:title="Table generator for Musicians table.">
<polygon fill="white" stroke="#666666" points="463,-278 402,-278 402,-259 463,-259 463,-278"/>
<text text-anchor="middle" x="432.5" y="-266" font-family="Helvetica,sans-Serif" font-size="10.00">Musicians</text>
</a>
</g>
</g>
<!-- Node3&#45;&gt;Node9 -->
<g id="edge8" class="edge">
<title>Node3&#45;&gt;Node9</title>
<path fill="none" stroke="#63b8ff" d="M322.16,-243.91C348.7,-249.88 379.47,-256.8 401.6,-261.77"/>
<polygon fill="#63b8ff" stroke="#63b8ff" points="323.08,-240.53 312.56,-241.75 321.55,-247.36 323.08,-240.53"/>
</g>
<!-- Node10 -->
<g id="node10" class="node">
<title>Node10</title>
<g id="a_node10"><a xlink:href="class_o_c_a_1_1_c_a_f_e_v_d_b_1_1_page_renderer_1_1_project_instrumentation_numbers.html" target="_top" xlink:title="Table generator for Instruments table.">
<polygon fill="white" stroke="#666666" points="510,-241 355,-241 355,-222 510,-222 510,-241"/>
<text text-anchor="middle" x="432.5" y="-229" font-family="Helvetica,sans-Serif" font-size="10.00">ProjectInstrumentationNumbers</text>
</a>
</g>
</g>
<!-- Node3&#45;&gt;Node10 -->
<g id="edge9" class="edge">
<title>Node3&#45;&gt;Node10</title>
<path fill="none" stroke="#63b8ff" d="M330.42,-231.5C338.32,-231.5 346.47,-231.5 354.55,-231.5"/>
<polygon fill="#63b8ff" stroke="#63b8ff" points="330.56,-228 320.56,-231.5 330.56,-235 330.56,-228"/>
</g>
<!-- Node11 -->
<g id="node11" class="node">
<title>Node11</title>
<g id="a_node11"><a xlink:href="class_o_c_a_1_1_c_a_f_e_v_d_b_1_1_page_renderer_1_1_project_participant_fields.html" target="_top" xlink:title="Table generator for Instruments table.">
<polygon fill="white" stroke="#666666" points="492.5,-204 372.5,-204 372.5,-185 492.5,-185 492.5,-204"/>
<text text-anchor="middle" x="432.5" y="-192" font-family="Helvetica,sans-Serif" font-size="10.00">ProjectParticipantFields</text>
</a>
</g>
</g>
<!-- Node3&#45;&gt;Node11 -->
<g id="edge10" class="edge">
<title>Node3&#45;&gt;Node11</title>
<path fill="none" stroke="#63b8ff" d="M322.21,-219.08C343.39,-214.32 367.27,-208.95 387.3,-204.44"/>
<polygon fill="#63b8ff" stroke="#63b8ff" points="321.55,-215.64 312.56,-221.25 323.08,-222.47 321.55,-215.64"/>
</g>
<!-- Node12 -->
<g id="node12" class="node">
<title>Node12</title>
<g id="a_node12"><a xlink:href="class_o_c_a_1_1_c_a_f_e_v_d_b_1_1_page_renderer_1_1_project_participants.html" target="_top" xlink:title="Table generator for Instruments table.">
<polygon fill="white" stroke="#666666" points="482,-167 383,-167 383,-148 482,-148 482,-167"/>
<text text-anchor="middle" x="432.5" y="-155" font-family="Helvetica,sans-Serif" font-size="10.00">ProjectParticipants</text>
</a>
</g>
</g>
<!-- Node3&#45;&gt;Node12 -->
<g id="edge11" class="edge">
<title>Node3&#45;&gt;Node12</title>
<path fill="none" stroke="#63b8ff" d="M288.48,-214.91C305.63,-202.41 330.73,-185.73 355,-175.5 363.68,-171.84 373.23,-168.85 382.56,-166.43"/>
<polygon fill="#63b8ff" stroke="#63b8ff" points="286.5,-212.02 280.58,-220.81 290.69,-217.63 286.5,-212.02"/>
</g>
<!-- Node13 -->
<g id="node13" class="node">
<title>Node13</title>
<g id="a_node13"><a xlink:href="class_o_c_a_1_1_c_a_f_e_v_d_b_1_1_page_renderer_1_1_project_payments.html" target="_top" xlink:title="Table generator for Instruments table.">
<polygon fill="white" stroke="#666666" points="478.5,-130 386.5,-130 386.5,-111 478.5,-111 478.5,-130"/>
<text text-anchor="middle" x="432.5" y="-118" font-family="Helvetica,sans-Serif" font-size="10.00">ProjectPayments</text>
</a>
</g>
</g>
<!-- Node3&#45;&gt;Node13 -->
<g id="edge12" class="edge">
<title>Node3&#45;&gt;Node13</title>
<path fill="none" stroke="#63b8ff" d="M279.92,-212.2C295.27,-190.83 322.88,-156.98 355,-138.5 364.46,-133.06 375.48,-129.26 386.16,-126.61"/>
<polygon fill="#63b8ff" stroke="#63b8ff" points="277.11,-210.11 274.27,-220.32 282.86,-214.11 277.11,-210.11"/>
</g>
<!-- Node14 -->
<g id="node14" class="node">
<title>Node14</title>
<g id="a_node14"><a xlink:href="class_o_c_a_1_1_c_a_f_e_v_d_b_1_1_page_renderer_1_1_projects.html" target="_top" xlink:title="Table generator for Projects table.">
<polygon fill="white" stroke="#666666" points="459,-93 406,-93 406,-74 459,-74 459,-93"/>
<text text-anchor="middle" x="432.5" y="-81" font-family="Helvetica,sans-Serif" font-size="10.00">Projects</text>
</a>
</g>
</g>
<!-- Node3&#45;&gt;Node14 -->
<g id="edge13" class="edge">
<title>Node3&#45;&gt;Node14</title>
<path fill="none" stroke="#63b8ff" d="M274.95,-211.38C287.46,-182.4 314.57,-129.36 355,-101.5 369.94,-91.2 390.01,-86.75 405.84,-84.84"/>
<polygon fill="#63b8ff" stroke="#63b8ff" points="271.78,-209.88 271.19,-220.45 278.25,-212.55 271.78,-209.88"/>
</g>
<!-- Node15 -->
<g id="node15" class="node">
<title>Node15</title>
<g id="a_node15"><a xlink:href="class_o_c_a_1_1_c_a_f_e_v_d_b_1_1_page_renderer_1_1_sepa_bank_accounts.html" target="_top" xlink:title="TBD.">
<polygon fill="white" stroke="#666666" points="484,-56 381,-56 381,-37 484,-37 484,-56"/>
<text text-anchor="middle" x="432.5" y="-44" font-family="Helvetica,sans-Serif" font-size="10.00">SepaBankAccounts</text>
</a>
</g>
</g>
<!-- Node3&#45;&gt;Node15 -->
<g id="edge14" class="edge">
<title>Node3&#45;&gt;Node15</title>
<path fill="none" stroke="#63b8ff" d="M271.9,-210.82C281.46,-175.17 306.08,-102.35 355,-64.5 362.45,-58.74 371.44,-54.78 380.6,-52.06"/>
<polygon fill="#63b8ff" stroke="#63b8ff" points="268.56,-209.74 269.5,-220.29 275.35,-211.45 268.56,-209.74"/>
</g>
<!-- Node16 -->
<g id="node16" class="node">
<title>Node16</title>
<g id="a_node16"><a xlink:href="class_o_c_a_1_1_c_a_f_e_v_d_b_1_1_page_renderer_1_1_sepa_bulk_transactions.html" target="_top" xlink:title="TBD.">
<polygon fill="white" stroke="#666666" points="490,-19 375,-19 375,0 490,0 490,-19"/>
<text text-anchor="middle" x="432.5" y="-7" font-family="Helvetica,sans-Serif" font-size="10.00">SepaBulkTransactions</text>
</a>
</g>
</g>
<!-- Node3&#45;&gt;Node16 -->
<g id="edge15" class="edge">
<title>Node3&#45;&gt;Node16</title>
<path fill="none" stroke="#63b8ff" d="M269.8,-210.4C276.5,-168.73 297.39,-75.76 355,-27.5 360.75,-22.68 367.56,-19.1 374.71,-16.45"/>
<polygon fill="#63b8ff" stroke="#63b8ff" points="266.37,-209.68 268.38,-220.08 273.3,-210.7 266.37,-209.68"/>
</g>
</g>
</svg>
