<?xml version="1.0" encoding="UTF-8" standalone="no"?>
<!DOCTYPE svg PUBLIC "-//W3C//DTD SVG 1.1//EN"
 "http://www.w3.org/Graphics/SVG/1.1/DTD/svg11.dtd">
<!-- Generated by graphviz version 7.1.0 (20230121.1956)
 -->
<!-- Title: update Pages: 1 -->
<svg width="222pt" height="226pt"
 viewBox="0.00 0.00 222.00 226.00" xmlns="http://www.w3.org/2000/svg" xmlns:xlink="http://www.w3.org/1999/xlink">
<g id="graph0" class="graph" transform="scale(1 1) rotate(0) translate(4 222)">
<title>update</title>
<!-- Node1 -->
<g id="node1" class="node">
<title>Node1</title>
<g id="a_node1"><a xlink:title="Update to the given values, where null arguments are simply ignored.">
<polygon fill="#999999" stroke="#666666" points="214,-118 168,-118 168,-99 214,-99 214,-118"/>
<text text-anchor="middle" x="191" y="-106" font-family="Helvetica,sans-Serif" font-size="10.00">update</text>
</a>
</g>
</g>
<!-- Node2 -->
<g id="node2" class="node">
<title>Node2</title>
<g id="a_node2"><a xlink:href="class_o_c_a_1_1_c_a_f_e_v_d_b_1_1_common_1_1_abstract_progress_status.html#a58e95c1e3550af42d009d6692bc77b25" target="_top" xlink:title="{Add the given amount to the progress&#45;status counter.bool|int Current value of the counter or false i...">
<polygon fill="white" stroke="#666666" points="132,-218 0,-218 0,-177 132,-177 132,-218"/>
<text text-anchor="start" x="8" y="-206" font-family="Helvetica,sans-Serif" font-size="10.00">OCA\CAFEVDB\Common</text>
<text text-anchor="start" x="8" y="-195" font-family="Helvetica,sans-Serif" font-size="10.00">\AbstractProgressStatus</text>
<text text-anchor="middle" x="66" y="-184" font-family="Helvetica,sans-Serif" font-size="10.00">\increment</text>
</a>
</g>
</g>
<!-- Node1&#45;&gt;Node2 -->
<g id="edge1" class="edge">
<title>Node1&#45;&gt;Node2</title>
<path fill="none" stroke="#63b8ff" d="M175.68,-126.68C164.77,-139.62 148.81,-156.73 132,-168.5 127.85,-171.41 123.36,-174.13 118.75,-176.64"/>
<polygon fill="#63b8ff" stroke="#63b8ff" points="178.09,-129.26 181.71,-119.3 172.67,-124.83 178.09,-129.26"/>
</g>
<!-- Node3 -->
<g id="node3" class="node">
<title>Node3</title>
<g id="a_node3"><a xlink:href="class_o_c_a_1_1_c_a_f_e_v_d_b_1_1_common_1_1_abstract_progress_status.html#a54b218bca4b02eacd7ebd688eebdda1d" target="_top" xlink:title="{Set the current value and sync.void}">
<polygon fill="white" stroke="#666666" points="132,-159 0,-159 0,-118 132,-118 132,-159"/>
<text text-anchor="start" x="8" y="-147" font-family="Helvetica,sans-Serif" font-size="10.00">OCA\CAFEVDB\Common</text>
<text text-anchor="start" x="8" y="-136" font-family="Helvetica,sans-Serif" font-size="10.00">\AbstractProgressStatus</text>
<text text-anchor="middle" x="66" y="-125" font-family="Helvetica,sans-Serif" font-size="10.00">\setCurrent</text>
</a>
</g>
</g>
<!-- Node1&#45;&gt;Node3 -->
<g id="edge2" class="edge">
<title>Node1&#45;&gt;Node3</title>
<path fill="none" stroke="#63b8ff" d="M156.8,-116.6C149.17,-118.46 140.8,-120.5 132.33,-122.57"/>
<polygon fill="#63b8ff" stroke="#63b8ff" points="157.37,-120.06 166.26,-114.29 155.71,-113.26 157.37,-120.06"/>
</g>
<!-- Node4 -->
<g id="node4" class="node">
<title>Node4</title>
<g id="a_node4"><a xlink:href="class_o_c_a_1_1_c_a_f_e_v_d_b_1_1_common_1_1_abstract_progress_status.html#a87449bdd364c33ff024d32896342bf31" target="_top" xlink:title="{Set the data value and sync.void}">
<polygon fill="white" stroke="#666666" points="132,-100 0,-100 0,-59 132,-59 132,-100"/>
<text text-anchor="start" x="8" y="-88" font-family="Helvetica,sans-Serif" font-size="10.00">OCA\CAFEVDB\Common</text>
<text text-anchor="start" x="8" y="-77" font-family="Helvetica,sans-Serif" font-size="10.00">\AbstractProgressStatus</text>
<text text-anchor="middle" x="66" y="-66" font-family="Helvetica,sans-Serif" font-size="10.00">\setData</text>
</a>
</g>
</g>
<!-- Node1&#45;&gt;Node4 -->
<g id="edge3" class="edge">
<title>Node1&#45;&gt;Node4</title>
<path fill="none" stroke="#63b8ff" d="M156.53,-100.61C148.98,-98.83 140.7,-96.88 132.33,-94.9"/>
<polygon fill="#63b8ff" stroke="#63b8ff" points="155.72,-104.01 166.25,-102.9 157.32,-97.2 155.72,-104.01"/>
</g>
<!-- Node5 -->
<g id="node5" class="node">
<title>Node5</title>
<g id="a_node5"><a xlink:href="class_o_c_a_1_1_c_a_f_e_v_d_b_1_1_common_1_1_abstract_progress_status.html#a186796ac9898d948be13005f114e45f5" target="_top" xlink:title="{Set the target value and sync.void}">
<polygon fill="white" stroke="#666666" points="132,-41 0,-41 0,0 132,0 132,-41"/>
<text text-anchor="start" x="8" y="-29" font-family="Helvetica,sans-Serif" font-size="10.00">OCA\CAFEVDB\Common</text>
<text text-anchor="start" x="8" y="-18" font-family="Helvetica,sans-Serif" font-size="10.00">\AbstractProgressStatus</text>
<text text-anchor="middle" x="66" y="-7" font-family="Helvetica,sans-Serif" font-size="10.00">\setTarget</text>
</a>
</g>
</g>
<!-- Node1&#45;&gt;Node5 -->
<g id="edge4" class="edge">
<title>Node1&#45;&gt;Node5</title>
<path fill="none" stroke="#63b8ff" d="M174.82,-90.23C163.86,-77.87 148.2,-61.79 132,-50.5 127.31,-47.23 122.21,-44.17 116.99,-41.34"/>
<polygon fill="#63b8ff" stroke="#63b8ff" points="172.05,-92.38 181.23,-97.67 177.36,-87.81 172.05,-92.38"/>
</g>
</g>
</svg>
