<?xml version="1.0" encoding="UTF-8" standalone="no"?>
<!DOCTYPE svg PUBLIC "-//W3C//DTD SVG 1.1//EN"
 "http://www.w3.org/Graphics/SVG/1.1/DTD/svg11.dtd">
<!-- Generated by graphviz version 7.1.0 (20230121.1956)
 -->
<!-- Title: IMigration Pages: 1 -->
<!--zoomable 199 -->
<svg id="main" version="1.1" xmlns="http://www.w3.org/2000/svg" xmlns:xlink="http://www.w3.org/1999/xlink" xml:space="preserve" onload="init(evt)">
<style type="text/css"><![CDATA[
.edge:hover path { stroke: red; }
.edge:hover polygon { stroke: red; fill: red; }
]]></style>
<script type="text/javascript"><![CDATA[
var edges = document.getElementsByTagName('g');
if (edges && edges.length) {
  for (var i=0;i<edges.length;i++) {
    if (edges[i].id.substr(0,4)=='edge') {
      edges[i].setAttribute('class','edge');
    }
  }
}
]]></script>
        <defs>
                <circle id="rim" cx="0" cy="0" r="7"/>
                <circle id="rim2" cx="0" cy="0" r="3.5"/>
                <g id="zoomPlus">
                        <use xlink:href="#rim" fill="#404040">
                                <set attributeName="fill" to="#808080" begin="zoomplus.mouseover" end="zoomplus.mouseout"/>
                        </use>
                        <path d="M-4,0h8M0,-4v8" fill="none" stroke="white" stroke-width="1.5" pointer-events="none"/>
                </g>
                <g id="zoomMin">
                        <use xlink:href="#rim" fill="#404040">
                                <set attributeName="fill" to="#808080" begin="zoomminus.mouseover" end="zoomminus.mouseout"/>
                        </use>
                        <path d="M-4,0h8" fill="none" stroke="white" stroke-width="1.5" pointer-events="none"/>
                </g>
                <g id="dirArrow">
                        <path fill="none" stroke="white" stroke-width="1.5" d="M0,-3.0v7 M-2.5,-0.5L0,-3.0L2.5,-0.5"/>
                </g>
               <g id="resetDef">
                       <use xlink:href="#rim2" fill="#404040">
                               <set attributeName="fill" to="#808080" begin="reset.mouseover" end="reset.mouseout"/>
                       </use>
               </g>
        </defs>

<script type="text/javascript">
var viewWidth = 552;
var viewHeight = 199;
var sectionId = 'dynsection-0';
</script>
<script xlink:href="svgpan.js"/>
<svg id="graph" class="graph">
<g id="viewport">
<title>IMigration</title>
<!-- Node1 -->
<g id="node1" class="node">
<title>Node1</title>
<g id="a_node1"><a xlink:title="Uni&#45;directional migrations for the orchestra DB.">
<polygon fill="#999999" stroke="#666666" points="59,-59 0,-59 0,-40 59,-40 59,-59"/>
<text text-anchor="middle" x="29.5" y="-47" font-family="Helvetica,sans-Serif" font-size="10.00">IMigration</text>
</a>
</g>
</g>
<!-- Node2 -->
<g id="node2" class="node">
<title>Node2</title>
<g id="a_node2"><a xlink:href="class_o_c_a_1_1_c_a_f_e_v_d_b_1_1_maintenance_1_1_migrations_1_1_abstract_migration.html" target="_top" xlink:title="Abstract migration class, the derived classes have to fill AbstractMigration::$sql.">
<polygon fill="white" stroke="#666666" points="195,-99 102,-99 102,-80 195,-80 195,-99"/>
<text text-anchor="middle" x="148.5" y="-87" font-family="Helvetica,sans-Serif" font-size="10.00">AbstractMigration</text>
</a>
</g>
</g>
<!-- Node1&#45;&gt;Node2 -->
<g id="edge1" class="edge">
<title>Node1&#45;&gt;Node2</title>
<path fill="none" stroke="#63b8ff" d="M70.01,-63.01C85.9,-68.44 103.87,-74.58 118.51,-79.59"/>
<polygon fill="#63b8ff" stroke="#63b8ff" points="71.45,-59.8 60.85,-59.88 69.18,-66.42 71.45,-59.8"/>
</g>
<!-- Node11 -->
<g id="node11" class="node">
<title>Node11</title>
<g id="a_node11"><a xlink:href="class_o_c_a_1_1_c_a_f_e_v_d_b_1_1_maintenance_1_1_migrations_1_1_initial_database_setup.html" target="_top" xlink:title="The initial data&#45;base structure.">
<polygon fill="white" stroke="#666666" points="202,-41 95,-41 95,-22 202,-22 202,-41"/>
<text text-anchor="middle" x="148.5" y="-29" font-family="Helvetica,sans-Serif" font-size="10.00">InitialDatabaseSetup</text>
</a>
</g>
</g>
<!-- Node1&#45;&gt;Node11 -->
<g id="edge10" class="edge">
<title>Node1&#45;&gt;Node11</title>
<path fill="none" stroke="#63b8ff" d="M70.72,-43.31C78.46,-42.12 86.67,-40.86 94.74,-39.62"/>
<polygon fill="#63b8ff" stroke="#63b8ff" points="70.27,-39.84 60.92,-44.82 71.33,-46.76 70.27,-39.84"/>
</g>
<!-- Node3 -->
<g id="node3" class="node">
<title>Node3</title>
<g id="a_node3"><a xlink:href="class_o_c_a_1_1_c_a_f_e_v_d_b_1_1_maintenance_1_1_migrations_1_1_participant_drop_bank_account_columns.html" target="_top" xlink:title="Change participantAccess field to enum.">
<polygon fill="white" stroke="#666666" points="383,-190.5 240,-190.5 240,-160.5 383,-160.5 383,-190.5"/>
<text text-anchor="start" x="248" y="-178.5" font-family="Helvetica,sans-Serif" font-size="10.00">ParticipantDropBankAccount</text>
<text text-anchor="middle" x="311.5" y="-167.5" font-family="Helvetica,sans-Serif" font-size="10.00">Columns</text>
</a>
</g>
</g>
<!-- Node2&#45;&gt;Node3 -->
<g id="edge2" class="edge">
<title>Node2&#45;&gt;Node3</title>
<path fill="none" stroke="#63b8ff" d="M169.75,-106.27C187.02,-119.92 212.96,-138.93 238,-151.5 244.28,-154.65 251.07,-157.53 257.88,-160.11"/>
<polygon fill="#63b8ff" stroke="#63b8ff" points="172.27,-103.81 162.28,-100.26 167.88,-109.26 172.27,-103.81"/>
</g>
<!-- Node5 -->
<g id="node5" class="node">
<title>Node5</title>
<g id="a_node5"><a xlink:href="class_o_c_a_1_1_c_a_f_e_v_d_b_1_1_maintenance_1_1_migrations_1_1_participant_field_access_enum.html" target="_top" xlink:title="Change participantAccess field to enum.">
<polygon fill="white" stroke="#666666" points="383,-142 240,-142 240,-123 383,-123 383,-142"/>
<text text-anchor="middle" x="311.5" y="-130" font-family="Helvetica,sans-Serif" font-size="10.00">ParticipantFieldAccessEnum</text>
</a>
</g>
</g>
<!-- Node2&#45;&gt;Node5 -->
<g id="edge4" class="edge">
<title>Node2&#45;&gt;Node5</title>
<path fill="none" stroke="#63b8ff" d="M196.92,-102.44C210.2,-106.04 224.66,-109.94 238,-113.5 249.06,-116.45 261.09,-119.62 272.11,-122.5"/>
<polygon fill="#63b8ff" stroke="#63b8ff" points="198.11,-99.14 187.54,-99.89 196.27,-105.89 198.11,-99.14"/>
</g>
<!-- Node7 -->
<g id="node7" class="node">
<title>Node7</title>
<g id="a_node7"><a xlink:href="class_o_c_a_1_1_c_a_f_e_v_d_b_1_1_maintenance_1_1_migrations_1_1_participant_field_drop_unused_columns.html" target="_top" xlink:title="Change participantAccess field to enum.">
<polygon fill="white" stroke="#666666" points="381,-104.5 242,-104.5 242,-74.5 381,-74.5 381,-104.5"/>
<text text-anchor="start" x="250" y="-92.5" font-family="Helvetica,sans-Serif" font-size="10.00">ParticipantFieldDropUnused</text>
<text text-anchor="middle" x="311.5" y="-81.5" font-family="Helvetica,sans-Serif" font-size="10.00">Columns</text>
</a>
</g>
</g>
<!-- Node2&#45;&gt;Node7 -->
<g id="edge6" class="edge">
<title>Node2&#45;&gt;Node7</title>
<path fill="none" stroke="#63b8ff" d="M206.68,-89.5C217.96,-89.5 229.9,-89.5 241.52,-89.5"/>
<polygon fill="#63b8ff" stroke="#63b8ff" points="206.72,-86 196.72,-89.5 206.72,-93 206.72,-86"/>
</g>
<!-- Node9 -->
<g id="node9" class="node">
<title>Node9</title>
<g id="a_node9"><a xlink:href="class_o_c_a_1_1_c_a_f_e_v_d_b_1_1_maintenance_1_1_migrations_1_1_participant_fields_add_liabilities.html" target="_top" xlink:title="Change participantAccess field to enum.">
<polygon fill="white" stroke="#666666" points="385,-56 238,-56 238,-37 385,-37 385,-56"/>
<text text-anchor="middle" x="311.5" y="-44" font-family="Helvetica,sans-Serif" font-size="10.00">ParticipantFieldsAddLiabilities</text>
</a>
</g>
</g>
<!-- Node2&#45;&gt;Node9 -->
<g id="edge8" class="edge">
<title>Node2&#45;&gt;Node9</title>
<path fill="none" stroke="#63b8ff" d="M196.92,-76.56C210.2,-72.96 224.66,-69.06 238,-65.5 249.06,-62.55 261.09,-59.38 272.11,-56.5"/>
<polygon fill="#63b8ff" stroke="#63b8ff" points="196.27,-73.11 187.54,-79.11 198.11,-79.86 196.27,-73.11"/>
</g>
<!-- Node4 -->
<g id="node4" class="node">
<title>Node4</title>
<g id="a_node4"><a xlink:href="class_o_c_a_1_1_c_a_f_e_v_d_b_1_1_maintenance_1_1_migrations_1_1_version20230227090000.html" target="_top" xlink:title="Wrapper class which gives the migration a proper sequence number and redirects to the actual implemen...">
<polygon fill="white" stroke="#666666" points="544,-185 421,-185 421,-166 544,-166 544,-185"/>
<text text-anchor="middle" x="482.5" y="-173" font-family="Helvetica,sans-Serif" font-size="10.00">Version20230227090000</text>
</a>
</g>
</g>
<!-- Node3&#45;&gt;Node4 -->
<g id="edge3" class="edge">
<title>Node3&#45;&gt;Node4</title>
<path fill="none" stroke="#63b8ff" d="M394.68,-175.5C403.47,-175.5 412.28,-175.5 420.75,-175.5"/>
<polygon fill="#63b8ff" stroke="#63b8ff" points="394.71,-172 384.71,-175.5 394.71,-179 394.71,-172"/>
</g>
<!-- Node6 -->
<g id="node6" class="node">
<title>Node6</title>
<g id="a_node6"><a xlink:href="class_o_c_a_1_1_c_a_f_e_v_d_b_1_1_maintenance_1_1_migrations_1_1_version20230206204000.html" target="_top" xlink:title="Wrapper class which gives the migration a proper sequence number and redirects to the actual implemen...">
<polygon fill="white" stroke="#666666" points="544,-142 421,-142 421,-123 544,-123 544,-142"/>
<text text-anchor="middle" x="482.5" y="-130" font-family="Helvetica,sans-Serif" font-size="10.00">Version20230206204000</text>
</a>
</g>
</g>
<!-- Node5&#45;&gt;Node6 -->
<g id="edge5" class="edge">
<title>Node5&#45;&gt;Node6</title>
<path fill="none" stroke="#63b8ff" d="M394.68,-132.5C403.47,-132.5 412.28,-132.5 420.75,-132.5"/>
<polygon fill="#63b8ff" stroke="#63b8ff" points="394.71,-129 384.71,-132.5 394.71,-136 394.71,-129"/>
</g>
<!-- Node8 -->
<g id="node8" class="node">
<title>Node8</title>
<g id="a_node8"><a xlink:href="class_o_c_a_1_1_c_a_f_e_v_d_b_1_1_maintenance_1_1_migrations_1_1_version20230206203000.html" target="_top" xlink:title="Wrapper class which gives the migration a proper sequence number and redirects to the actual implemen...">
<polygon fill="white" stroke="#666666" points="544,-99 421,-99 421,-80 544,-80 544,-99"/>
<text text-anchor="middle" x="482.5" y="-87" font-family="Helvetica,sans-Serif" font-size="10.00">Version20230206203000</text>
</a>
</g>
</g>
<!-- Node7&#45;&gt;Node8 -->
<g id="edge7" class="edge">
<title>Node7&#45;&gt;Node8</title>
<path fill="none" stroke="#63b8ff" d="M392.67,-89.5C402.1,-89.5 411.6,-89.5 420.7,-89.5"/>
<polygon fill="#63b8ff" stroke="#63b8ff" points="392.75,-86 382.75,-89.5 392.75,-93 392.75,-86"/>
</g>
<!-- Node10 -->
<g id="node10" class="node">
<title>Node10</title>
<g id="a_node10"><a xlink:href="class_o_c_a_1_1_c_a_f_e_v_d_b_1_1_maintenance_1_1_migrations_1_1_version20230207133000.html" target="_top" xlink:title="Wrapper class which gives the migration a proper sequence number and redirects to the actual implemen...">
<polygon fill="white" stroke="#666666" points="544,-56 421,-56 421,-37 544,-37 544,-56"/>
<text text-anchor="middle" x="482.5" y="-44" font-family="Helvetica,sans-Serif" font-size="10.00">Version20230207133000</text>
</a>
</g>
</g>
<!-- Node9&#45;&gt;Node10 -->
<g id="edge9" class="edge">
<title>Node9&#45;&gt;Node10</title>
<path fill="none" stroke="#63b8ff" d="M396.57,-46.5C404.66,-46.5 412.77,-46.5 420.58,-46.5"/>
<polygon fill="#63b8ff" stroke="#63b8ff" points="396.67,-43 386.67,-46.5 396.67,-50 396.67,-43"/>
</g>
<!-- Node12 -->
<g id="node12" class="node">
<title>Node12</title>
<g id="a_node12"><a xlink:href="class_o_c_a_1_1_c_a_f_e_v_d_b_1_1_maintenance_1_1_migrations_1_1_version00000000000000.html" target="_top" xlink:title="Wrapper class which gives the migration a proper sequence number and redirects to the actual implemen...">
<polygon fill="white" stroke="#666666" points="373,-19 250,-19 250,0 373,0 373,-19"/>
<text text-anchor="middle" x="311.5" y="-7" font-family="Helvetica,sans-Serif" font-size="10.00">Version00000000000000</text>
</a>
</g>
</g>
<!-- Node11&#45;&gt;Node12 -->
<g id="edge11" class="edge">
<title>Node11&#45;&gt;Node12</title>
<path fill="none" stroke="#63b8ff" d="M213.44,-22.76C225.34,-21.14 237.75,-19.44 249.56,-17.83"/>
<polygon fill="#63b8ff" stroke="#63b8ff" points="213.15,-19.27 203.72,-24.09 214.1,-26.21 213.15,-19.27"/>
</g>
</g>
</svg>
        <g id="navigator" transform="translate(0 0)" fill="#404254">
                <rect fill="#f2f5e9" fill-opacity="0.5" stroke="#606060" stroke-width=".5" x="0" y="0" width="60" height="60"/>
                <use id="zoomplus" xlink:href="#zoomPlus" x="17" y="9" onmousedown="handleZoom(evt,'in')"/>
                <use id="zoomminus" xlink:href="#zoomMin" x="42" y="9" onmousedown="handleZoom(evt,'out')"/>
                <use id="reset" xlink:href="#resetDef" x="30" y="36" onmousedown="handleReset()"/>
                <g id="arrowUp" xlink:href="#dirArrow" transform="translate(30 24)" onmousedown="handlePan(0,-1)">
                  <use xlink:href="#rim" fill="#404040">
                        <set attributeName="fill" to="#808080" begin="arrowUp.mouseover" end="arrowUp.mouseout"/>
                  </use>
                  <path fill="none" stroke="white" stroke-width="1.5" d="M0,-3.0v7 M-2.5,-0.5L0,-3.0L2.5,-0.5"/>
                </g>
                <g id="arrowRight" xlink:href="#dirArrow" transform="rotate(90) translate(36 -43)" onmousedown="handlePan(1,0)">
                  <use xlink:href="#rim" fill="#404040">
                        <set attributeName="fill" to="#808080" begin="arrowRight.mouseover" end="arrowRight.mouseout"/>
                  </use>
                  <path fill="none" stroke="white" stroke-width="1.5" d="M0,-3.0v7 M-2.5,-0.5L0,-3.0L2.5,-0.5"/>
                </g>
                <g id="arrowDown" xlink:href="#dirArrow" transform="rotate(180) translate(-30 -48)" onmousedown="handlePan(0,1)">
                  <use xlink:href="#rim" fill="#404040">
                        <set attributeName="fill" to="#808080" begin="arrowDown.mouseover" end="arrowDown.mouseout"/>
                  </use>
                  <path fill="none" stroke="white" stroke-width="1.5" d="M0,-3.0v7 M-2.5,-0.5L0,-3.0L2.5,-0.5"/>
                </g>
                <g id="arrowLeft" xlink:href="#dirArrow" transform="rotate(270) translate(-36 17)" onmousedown="handlePan(-1,0)">
                  <use xlink:href="#rim" fill="#404040">
                        <set attributeName="fill" to="#808080" begin="arrowLeft.mouseover" end="arrowLeft.mouseout"/>
                  </use>
                  <path fill="none" stroke="white" stroke-width="1.5" d="M0,-3.0v7 M-2.5,-0.5L0,-3.0L2.5,-0.5"/>
                </g>
        </g>
        <svg viewBox="0 0 15 15" width="100%" height="30px" preserveAspectRatio="xMaxYMin meet">
         <g id="arrow_out" transform="scale(0.3 0.3)">
          <a xlink:href="interface_o_c_a_1_1_c_a_f_e_v_d_b_1_1_maintenance_1_1_i_migration__inherit__graph_org.svg" target="_base">
           <rect id="button" ry="5" rx="5" y="6" x="6" height="38" width="38"
                fill="#f2f5e9" fill-opacity="0.5" stroke="#606060" stroke-width="1.0"/>
           <path id="arrow"
             d="M 11.500037,31.436501 C 11.940474,20.09759 22.043105,11.32322 32.158766,21.979434 L 37.068811,17.246167 C 37.068811,17.246167 37.088388,32 37.088388,32 L 22.160133,31.978069 C 22.160133,31.978069 26.997745,27.140456 26.997745,27.140456 C 18.528582,18.264221 13.291696,25.230495 11.500037,31.436501 z"
             style="fill:#404040;"/>
          </a>
         </g>
        </svg>
</svg>
