<?xml version="1.0" encoding="UTF-8" standalone="no"?>
<!DOCTYPE svg PUBLIC "-//W3C//DTD SVG 1.1//EN"
 "http://www.w3.org/Graphics/SVG/1.1/DTD/svg11.dtd">
<!-- Generated by graphviz version 7.1.0 (20230121.1956)
 -->
<!-- Title: getCurrent Pages: 1 -->
<svg width="422pt" height="226pt"
 viewBox="0.00 0.00 422.00 226.00" xmlns="http://www.w3.org/2000/svg" xmlns:xlink="http://www.w3.org/1999/xlink">
<g id="graph0" class="graph" transform="scale(1 1) rotate(0) translate(4 222)">
<title>getCurrent</title>
<!-- Node1 -->
<g id="node1" class="node">
<title>Node1</title>
<g id="a_node1"><a xlink:title="Return the cached value of the current state.">
<polygon fill="#999999" stroke="#666666" points="414,-118 352,-118 352,-99 414,-99 414,-118"/>
<text text-anchor="middle" x="383" y="-106" font-family="Helvetica,sans-Serif" font-size="10.00">getCurrent</text>
</a>
</g>
</g>
<!-- Node2 -->
<g id="node2" class="node">
<title>Node2</title>
<g id="a_node2"><a xlink:href="class_o_c_a_1_1_c_a_f_e_v_d_b_1_1_common_1_1_abstract_progress_status.html#a58e95c1e3550af42d009d6692bc77b25" target="_top" xlink:title="{Add the given amount to the progress&#45;status counter.bool|int Current value of the counter or false i...">
<polygon fill="white" stroke="#666666" points="315,-218 183,-218 183,-177 315,-177 315,-218"/>
<text text-anchor="start" x="191" y="-206" font-family="Helvetica,sans-Serif" font-size="10.00">OCA\CAFEVDB\Common</text>
<text text-anchor="start" x="191" y="-195" font-family="Helvetica,sans-Serif" font-size="10.00">\AbstractProgressStatus</text>
<text text-anchor="middle" x="249" y="-184" font-family="Helvetica,sans-Serif" font-size="10.00">\increment</text>
</a>
</g>
</g>
<!-- Node1&#45;&gt;Node2 -->
<g id="edge1" class="edge">
<title>Node1&#45;&gt;Node2</title>
<path fill="none" stroke="#63b8ff" d="M365.63,-126.2C352.99,-139.13 334.57,-156.44 316,-168.5 311.59,-171.36 306.85,-174.07 302.01,-176.59"/>
<polygon fill="#63b8ff" stroke="#63b8ff" points="367.97,-128.81 372.34,-119.16 362.91,-123.98 367.97,-128.81"/>
</g>
<!-- Node3 -->
<g id="node3" class="node">
<title>Node3</title>
<g id="a_node3"><a xlink:href="class_o_c_a_1_1_c_a_f_e_v_d_b_1_1_controller_1_1_progress_status_controller.html#adb141c8ddbf823f25281b1ff95a3420c" target="_top" xlink:title=" ">
<polygon fill="white" stroke="#666666" points="316,-159 182,-159 182,-118 316,-118 316,-159"/>
<text text-anchor="start" x="190" y="-147" font-family="Helvetica,sans-Serif" font-size="10.00">OCA\CAFEVDB\Controller</text>
<text text-anchor="start" x="190" y="-136" font-family="Helvetica,sans-Serif" font-size="10.00">\ProgressStatusController</text>
<text text-anchor="middle" x="249" y="-125" font-family="Helvetica,sans-Serif" font-size="10.00">\progressResponse</text>
</a>
</g>
</g>
<!-- Node1&#45;&gt;Node3 -->
<g id="edge2" class="edge">
<title>Node1&#45;&gt;Node3</title>
<path fill="none" stroke="#63b8ff" d="M340.53,-117.93C332.85,-119.67 324.65,-121.53 316.45,-123.4"/>
<polygon fill="#63b8ff" stroke="#63b8ff" points="341.26,-121.35 350.24,-115.72 339.71,-114.52 341.26,-121.35"/>
</g>
<!-- Node6 -->
<g id="node6" class="node">
<title>Node6</title>
<g id="a_node6"><a xlink:href="class_o_c_a_1_1_c_a_f_e_v_d_b_1_1_common_1_1_abstract_progress_status.html#a87449bdd364c33ff024d32896342bf31" target="_top" xlink:title="{Set the data value and sync.void}">
<polygon fill="white" stroke="#666666" points="315,-100 183,-100 183,-59 315,-59 315,-100"/>
<text text-anchor="start" x="191" y="-88" font-family="Helvetica,sans-Serif" font-size="10.00">OCA\CAFEVDB\Common</text>
<text text-anchor="start" x="191" y="-77" font-family="Helvetica,sans-Serif" font-size="10.00">\AbstractProgressStatus</text>
<text text-anchor="middle" x="249" y="-66" font-family="Helvetica,sans-Serif" font-size="10.00">\setData</text>
</a>
</g>
</g>
<!-- Node1&#45;&gt;Node6 -->
<g id="edge5" class="edge">
<title>Node1&#45;&gt;Node6</title>
<path fill="none" stroke="#63b8ff" d="M340.75,-99.44C332.67,-97.66 324.02,-95.76 315.38,-93.86"/>
<polygon fill="#63b8ff" stroke="#63b8ff" points="339.72,-102.79 350.24,-101.52 341.22,-95.96 339.72,-102.79"/>
</g>
<!-- Node7 -->
<g id="node7" class="node">
<title>Node7</title>
<g id="a_node7"><a xlink:href="class_o_c_a_1_1_c_a_f_e_v_d_b_1_1_common_1_1_abstract_progress_status.html#a186796ac9898d948be13005f114e45f5" target="_top" xlink:title="{Set the target value and sync.void}">
<polygon fill="white" stroke="#666666" points="315,-41 183,-41 183,0 315,0 315,-41"/>
<text text-anchor="start" x="191" y="-29" font-family="Helvetica,sans-Serif" font-size="10.00">OCA\CAFEVDB\Common</text>
<text text-anchor="start" x="191" y="-18" font-family="Helvetica,sans-Serif" font-size="10.00">\AbstractProgressStatus</text>
<text text-anchor="middle" x="249" y="-7" font-family="Helvetica,sans-Serif" font-size="10.00">\setTarget</text>
</a>
</g>
</g>
<!-- Node1&#45;&gt;Node7 -->
<g id="edge6" class="edge">
<title>Node1&#45;&gt;Node7</title>
<path fill="none" stroke="#63b8ff" d="M365.14,-90.68C352.49,-78.02 334.27,-61.26 316,-49.5 311.58,-46.66 306.83,-43.96 301.99,-41.45"/>
<polygon fill="#63b8ff" stroke="#63b8ff" points="362.4,-92.88 371.89,-97.59 367.41,-87.99 362.4,-92.88"/>
</g>
<!-- Node4 -->
<g id="node4" class="node">
<title>Node4</title>
<g id="a_node4"><a xlink:href="class_o_c_a_1_1_c_a_f_e_v_d_b_1_1_controller_1_1_progress_status_controller.html#ad9c56458219c1917c2f3fbe9a02b070a" target="_top" xlink:title=" ">
<polygon fill="white" stroke="#666666" points="140,-186 6,-186 6,-145 140,-145 140,-186"/>
<text text-anchor="start" x="14" y="-174" font-family="Helvetica,sans-Serif" font-size="10.00">OCA\CAFEVDB\Controller</text>
<text text-anchor="start" x="14" y="-163" font-family="Helvetica,sans-Serif" font-size="10.00">\ProgressStatusController</text>
<text text-anchor="middle" x="73" y="-152" font-family="Helvetica,sans-Serif" font-size="10.00">\action</text>
</a>
</g>
</g>
<!-- Node3&#45;&gt;Node4 -->
<g id="edge3" class="edge">
<title>Node3&#45;&gt;Node4</title>
<path fill="none" stroke="#63b8ff" d="M170.48,-150.53C160.44,-152.09 150.22,-153.67 140.38,-155.2"/>
<polygon fill="#63b8ff" stroke="#63b8ff" points="170.88,-154.01 180.23,-149.02 169.81,-147.09 170.88,-154.01"/>
</g>
<!-- Node5 -->
<g id="node5" class="node">
<title>Node5</title>
<g id="a_node5"><a xlink:href="class_o_c_a_1_1_c_a_f_e_v_d_b_1_1_controller_1_1_progress_status_controller.html#a5ac35cd9b27eb36bb68f58f665b440e5" target="_top" xlink:title=" ">
<polygon fill="white" stroke="#666666" points="146,-126.5 0,-126.5 0,-96.5 146,-96.5 146,-126.5"/>
<text text-anchor="start" x="8" y="-114.5" font-family="Helvetica,sans-Serif" font-size="10.00">OCA\CAFEVDB\Controller</text>
<text text-anchor="middle" x="73" y="-103.5" font-family="Helvetica,sans-Serif" font-size="10.00">\ProgressStatusController\get</text>
</a>
</g>
</g>
<!-- Node3&#45;&gt;Node5 -->
<g id="edge4" class="edge">
<title>Node3&#45;&gt;Node5</title>
<path fill="none" stroke="#63b8ff" d="M170.52,-126.48C162.52,-125.24 154.42,-123.98 146.48,-122.75"/>
<polygon fill="#63b8ff" stroke="#63b8ff" points="169.81,-129.91 180.23,-127.98 170.88,-122.99 169.81,-129.91"/>
</g>
</g>
</svg>
