<?xml version="1.0" encoding="UTF-8" standalone="no"?>
<!DOCTYPE svg PUBLIC "-//W3C//DTD SVG 1.1//EN"
 "http://www.w3.org/Graphics/SVG/1.1/DTD/svg11.dtd">
<!-- Generated by graphviz version 7.1.0 (20230121.1956)
 -->
<!-- Title: shareOwner Pages: 1 -->
<svg width="421pt" height="65pt"
 viewBox="0.00 0.00 421.00 65.00" xmlns="http://www.w3.org/2000/svg" xmlns:xlink="http://www.w3.org/1999/xlink">
<g id="graph0" class="graph" transform="scale(1 1) rotate(0) translate(4 61)">
<title>shareOwner</title>
<!-- Node1 -->
<g id="node1" class="node">
<title>Node1</title>
<g id="a_node1"><a xlink:title=" ">
<polygon fill="#999999" stroke="#666666" points="69,-38 0,-38 0,-19 69,-19 69,-38"/>
<text text-anchor="middle" x="34.5" y="-26" font-family="Helvetica,sans-Serif" font-size="10.00">shareOwner</text>
</a>
</g>
</g>
<!-- Node2 -->
<g id="node2" class="node">
<title>Node2</title>
<g id="a_node2"><a xlink:href="namespace_o_c_a_1_1_c_a_f_e_v_d_b_1_1_traits.html#a41c11b7ac132f68b944624210a5135be" target="_top" xlink:title=" ">
<polygon fill="white" stroke="#666666" points="182,-57 105,-57 105,-38 182,-38 182,-57"/>
<text text-anchor="middle" x="143.5" y="-45" font-family="Helvetica,sans-Serif" font-size="10.00">shareOwnerId</text>
</a>
</g>
</g>
<!-- Node1&#45;&gt;Node2 -->
<g id="edge1" class="edge">
<title>Node1&#45;&gt;Node2</title>
<path fill="none" stroke="#63b8ff" d="M69.36,-34.51C77.1,-35.89 85.48,-37.38 93.72,-38.84"/>
<polygon fill="#63b8ff" stroke="#63b8ff" points="92.83,-42.23 103.29,-40.54 94.05,-35.34 92.83,-42.23"/>
</g>
<!-- Node5 -->
<g id="node5" class="node">
<title>Node5</title>
<g id="a_node5"><a xlink:href="namespace_o_c_a_1_1_c_a_f_e_v_d_b_1_1_traits.html#a5a4242e631a8146a621343f49290b458" target="_top" xlink:title=" ">
<polygon fill="white" stroke="#666666" points="277,-19 242,-19 242,0 277,0 277,-19"/>
<text text-anchor="middle" x="259.5" y="-7" font-family="Helvetica,sans-Serif" font-size="10.00">user</text>
</a>
</g>
</g>
<!-- Node1&#45;&gt;Node5 -->
<g id="edge4" class="edge">
<title>Node1&#45;&gt;Node5</title>
<path fill="none" stroke="#63b8ff" d="M69.37,-25.61C113.41,-21.86 189.53,-15.38 230.49,-11.89"/>
<polygon fill="#63b8ff" stroke="#63b8ff" points="230.58,-15.39 240.25,-11.05 229.99,-8.42 230.58,-15.39"/>
</g>
<!-- Node3 -->
<g id="node3" class="node">
<title>Node3</title>
<g id="a_node3"><a xlink:href="namespace_o_c_a_1_1_c_a_f_e_v_d_b_1_1_traits.html#aa57ee6dad7c7f33cff6983ad79080946" target="_top" xlink:title="Get a possibly encrypted config value.">
<polygon fill="white" stroke="#666666" points="301,-56 218,-56 218,-37 301,-37 301,-56"/>
<text text-anchor="middle" x="259.5" y="-44" font-family="Helvetica,sans-Serif" font-size="10.00">getConfigValue</text>
</a>
</g>
</g>
<!-- Node2&#45;&gt;Node3 -->
<g id="edge2" class="edge">
<title>Node2&#45;&gt;Node3</title>
<path fill="none" stroke="#63b8ff" d="M182.46,-47.17C190.03,-47.1 198.11,-47.03 206.07,-46.96"/>
<polygon fill="#63b8ff" stroke="#63b8ff" points="206.09,-50.46 216.06,-46.87 206.03,-43.46 206.09,-50.46"/>
</g>
<!-- Node4 -->
<g id="node4" class="node">
<title>Node4</title>
<g id="a_node4"><a xlink:href="namespace_o_c_a_1_1_c_a_f_e_v_d_b_1_1_traits.html#a4bb87734b0f297c2a6d2095820942c48" target="_top" xlink:title="Return the stored config&#45;service for convenience.">
<polygon fill="white" stroke="#666666" points="413,-37 337,-37 337,-18 413,-18 413,-37"/>
<text text-anchor="middle" x="375" y="-25" font-family="Helvetica,sans-Serif" font-size="10.00">configService</text>
</a>
</g>
</g>
<!-- Node3&#45;&gt;Node4 -->
<g id="edge3" class="edge">
<title>Node3&#45;&gt;Node4</title>
<path fill="none" stroke="#63b8ff" d="M301.48,-39.64C309.33,-38.33 317.62,-36.94 325.68,-35.59"/>
<polygon fill="#63b8ff" stroke="#63b8ff" points="326.08,-39.07 335.36,-33.97 324.92,-32.17 326.08,-39.07"/>
</g>
<!-- Node5&#45;&gt;Node4 -->
<g id="edge5" class="edge">
<title>Node5&#45;&gt;Node4</title>
<path fill="none" stroke="#63b8ff" d="M277.25,-12.16C289.99,-14.18 308.22,-17.07 325.42,-19.8"/>
<polygon fill="#63b8ff" stroke="#63b8ff" points="324.59,-23.21 335.02,-21.32 325.69,-16.29 324.59,-23.21"/>
</g>
</g>
</svg>
