<?xml version="1.0" encoding="UTF-8" standalone="no"?>
<!DOCTYPE svg PUBLIC "-//W3C//DTD SVG 1.1//EN"
 "http://www.w3.org/Graphics/SVG/1.1/DTD/svg11.dtd">
<!-- Generated by graphviz version 7.1.0 (20230121.1956)
 -->
<!-- Title: di Pages: 1 -->
<svg width="157pt" height="82pt"
 viewBox="0.00 0.00 157.00 82.00" xmlns="http://www.w3.org/2000/svg" xmlns:xlink="http://www.w3.org/1999/xlink">
<g id="graph0" class="graph" transform="scale(1 1) rotate(0) translate(4 78)">
<title>di</title>
<!-- Node1 -->
<g id="node1" class="node">
<title>Node1</title>
<g id="a_node1"><a xlink:title="Dependency injection of $className.">
<polygon fill="#999999" stroke="#666666" points="149,-46 120,-46 120,-27 149,-27 149,-46"/>
<text text-anchor="middle" x="134.5" y="-34" font-family="Helvetica,sans-Serif" font-size="10.00">di</text>
</a>
</g>
</g>
<!-- Node2 -->
<g id="node2" class="node">
<title>Node2</title>
<g id="a_node2"><a xlink:href="namespace_o_c_a_1_1_c_a_f_e_v_d_b_1_1_traits.html#a12530ef8e22b2cc5507292bf7e1bc876" target="_top" xlink:title=" ">
<polygon fill="white" stroke="#666666" points="74.5,-74 9.5,-74 9.5,-55 74.5,-55 74.5,-74"/>
<text text-anchor="middle" x="42" y="-62" font-family="Helvetica,sans-Serif" font-size="10.00">appVersion</text>
</a>
</g>
</g>
<!-- Node1&#45;&gt;Node2 -->
<g id="edge1" class="edge">
<title>Node1&#45;&gt;Node2</title>
<path fill="none" stroke="#63b8ff" d="M108.9,-44.11C98.43,-47.35 86.08,-51.17 74.92,-54.62"/>
<polygon fill="#63b8ff" stroke="#63b8ff" points="109.79,-47.5 118.31,-41.2 107.72,-40.81 109.79,-47.5"/>
</g>
<!-- Node3 -->
<g id="node3" class="node">
<title>Node3</title>
<g id="a_node3"><a xlink:href="namespace_o_c_a_1_1_c_a_f_e_v_d_b_1_1_traits.html#a472bbe777a54645edcf8a79726eca3dc" target="_top" xlink:title=" ">
<polygon fill="white" stroke="#666666" points="84,-19 0,-19 0,0 84,0 84,-19"/>
<text text-anchor="middle" x="42" y="-7" font-family="Helvetica,sans-Serif" font-size="10.00">toolTipsService</text>
</a>
</g>
</g>
<!-- Node1&#45;&gt;Node3 -->
<g id="edge2" class="edge">
<title>Node1&#45;&gt;Node3</title>
<path fill="none" stroke="#63b8ff" d="M108.96,-29.18C98.96,-26.2 87.23,-22.7 76.47,-19.48"/>
<polygon fill="#63b8ff" stroke="#63b8ff" points="107.72,-32.46 118.3,-31.97 109.72,-25.75 107.72,-32.46"/>
</g>
<!-- Node3&#45;&gt;Node3 -->
<g id="edge3" class="edge">
<title>Node3&#45;&gt;Node3</title>
<path fill="none" stroke="#63b8ff" d="M58.42,-30.43C56.36,-34.29 50.89,-37 42,-37 25.74,-37 20.91,-27.94 27.52,-19.37"/>
<polygon fill="#63b8ff" stroke="#63b8ff" points="61.91,-30.11 56.74,-20.86 55.02,-31.31 61.91,-30.11"/>
</g>
</g>
</svg>
