<?xml version="1.0" encoding="UTF-8" standalone="no"?>
<!DOCTYPE svg PUBLIC "-//W3C//DTD SVG 1.1//EN"
 "http://www.w3.org/Graphics/SVG/1.1/DTD/svg11.dtd">
<!-- Generated by graphviz version 7.1.0 (20230121.1956)
 -->
<!-- Title: offsetExists Pages: 1 -->
<svg width="274pt" height="64pt"
 viewBox="0.00 0.00 274.00 64.00" xmlns="http://www.w3.org/2000/svg" xmlns:xlink="http://www.w3.org/1999/xlink">
<g id="graph0" class="graph" transform="scale(1 1) rotate(0) translate(4 60)">
<title>offsetExists</title>
<!-- Node1 -->
<g id="node1" class="node">
<title>Node1</title>
<g id="a_node1"><a xlink:title="{}">
<polygon fill="#999999" stroke="#666666" points="266,-37 197,-37 197,-18 266,-18 266,-37"/>
<text text-anchor="middle" x="231.5" y="-25" font-family="Helvetica,sans-Serif" font-size="10.00">offsetExists</text>
</a>
</g>
</g>
<!-- Node2 -->
<g id="node2" class="node">
<title>Node2</title>
<g id="a_node2"><a xlink:href="namespace_o_c_a_1_1_c_a_f_e_v_d_b_1_1_database_1_1_doctrine_1_1_o_r_m_1_1_traits.html#a3d6a26d211a99287459a423d3965f11f" target="_top" xlink:title="{}">
<polygon fill="white" stroke="#666666" points="161,-56 104,-56 104,-37 161,-37 161,-56"/>
<text text-anchor="middle" x="132.5" y="-44" font-family="Helvetica,sans-Serif" font-size="10.00">offsetGet</text>
</a>
</g>
</g>
<!-- Node1&#45;&gt;Node2 -->
<g id="edge1" class="edge">
<title>Node1&#45;&gt;Node2</title>
<path fill="none" stroke="#63b8ff" d="M185.28,-36.36C177.16,-37.95 168.92,-39.56 161.47,-41.02"/>
<polygon fill="#63b8ff" stroke="#63b8ff" points="185.95,-39.79 195.09,-34.44 184.6,-32.92 185.95,-39.79"/>
</g>
<!-- Node4 -->
<g id="node4" class="node">
<title>Node4</title>
<g id="a_node4"><a xlink:href="namespace_o_c_a_1_1_c_a_f_e_v_d_b_1_1_database_1_1_doctrine_1_1_o_r_m_1_1_traits.html#abd3a144f8df4dea56d1ac58da5bc762a" target="_top" xlink:title="{}">
<polygon fill="white" stroke="#666666" points="160.5,-19 104.5,-19 104.5,0 160.5,0 160.5,-19"/>
<text text-anchor="middle" x="132.5" y="-7" font-family="Helvetica,sans-Serif" font-size="10.00">offsetSet</text>
</a>
</g>
</g>
<!-- Node1&#45;&gt;Node4 -->
<g id="edge3" class="edge">
<title>Node1&#45;&gt;Node4</title>
<path fill="none" stroke="#63b8ff" d="M185.34,-19.12C176.98,-17.57 168.48,-15.99 160.85,-14.57"/>
<polygon fill="#63b8ff" stroke="#63b8ff" points="184.62,-22.54 195.09,-20.93 185.89,-15.66 184.62,-22.54"/>
</g>
<!-- Node3 -->
<g id="node3" class="node">
<title>Node3</title>
<g id="a_node3"><a xlink:href="namespace_o_c_a_1_1_c_a_f_e_v_d_b_1_1_database_1_1_doctrine_1_1_o_r_m_1_1_traits.html#a658defb34762c8f40085aec87e16ba1a" target="_top" xlink:title=" ">
<polygon fill="white" stroke="#666666" points="58,-56 10,-56 10,-37 58,-37 58,-56"/>
<text text-anchor="middle" x="34" y="-44" font-family="Helvetica,sans-Serif" font-size="10.00">toArray</text>
</a>
</g>
</g>
<!-- Node2&#45;&gt;Node3 -->
<g id="edge2" class="edge">
<title>Node2&#45;&gt;Node3</title>
<path fill="none" stroke="#63b8ff" d="M92.37,-46.5C80.8,-46.5 68.51,-46.5 58.29,-46.5"/>
<polygon fill="#63b8ff" stroke="#63b8ff" points="92.07,-50 102.07,-46.5 92.07,-43 92.07,-50"/>
</g>
<!-- Node5 -->
<g id="node5" class="node">
<title>Node5</title>
<g id="a_node5"><a xlink:href="namespace_o_c_a_1_1_c_a_f_e_v_d_b_1_1_database_1_1_doctrine_1_1_o_r_m_1_1_traits.html#a1bb2b81cc0daac39879f608d2a9ede38" target="_top" xlink:title="{}">
<polygon fill="white" stroke="#666666" points="68,-19 0,-19 0,0 68,0 68,-19"/>
<text text-anchor="middle" x="34" y="-7" font-family="Helvetica,sans-Serif" font-size="10.00">offsetUnset</text>
</a>
</g>
</g>
<!-- Node4&#45;&gt;Node5 -->
<g id="edge4" class="edge">
<title>Node4&#45;&gt;Node5</title>
<path fill="none" stroke="#63b8ff" d="M92.65,-9.5C84.58,-9.5 76.14,-9.5 68.29,-9.5"/>
<polygon fill="#63b8ff" stroke="#63b8ff" points="92.59,-13 102.59,-9.5 92.59,-6 92.59,-13"/>
</g>
</g>
</svg>
