<?xml version="1.0" encoding="UTF-8" standalone="no"?>
<!DOCTYPE svg PUBLIC "-//W3C//DTD SVG 1.1//EN"
 "http://www.w3.org/Graphics/SVG/1.1/DTD/svg11.dtd">
<!-- Generated by graphviz version 7.1.0 (20230121.1956)
 -->
<!-- Title: storageValue Pages: 1 -->
<svg width="387pt" height="82pt"
 viewBox="0.00 0.00 387.00 82.00" xmlns="http://www.w3.org/2000/svg" xmlns:xlink="http://www.w3.org/1999/xlink">
<g id="graph0" class="graph" transform="scale(1 1) rotate(0) translate(4 78)">
<title>storageValue</title>
<!-- Node1 -->
<g id="node1" class="node">
<title>Node1</title>
<g id="a_node1"><a xlink:title="Parse a storage user input value and return its value in bytes.">
<polygon fill="#999999" stroke="#666666" points="73,-55 0,-55 0,-36 73,-36 73,-55"/>
<text text-anchor="middle" x="36.5" y="-43" font-family="Helvetica,sans-Serif" font-size="10.00">storageValue</text>
</a>
</g>
</g>
<!-- Node2 -->
<g id="node2" class="node">
<title>Node2</title>
<g id="a_node2"><a xlink:href="namespace_o_c_a_1_1_c_a_f_e_v_d_b_1_1_toolkit_1_1_traits.html#ad6fe802e02722fba4dbf037b5542237f" target="_top" xlink:title="Try to parse a floating point value.">
<polygon fill="white" stroke="#666666" points="168,-74 109,-74 109,-55 168,-55 168,-74"/>
<text text-anchor="middle" x="138.5" y="-62" font-family="Helvetica,sans-Serif" font-size="10.00">floatValue</text>
</a>
</g>
</g>
<!-- Node1&#45;&gt;Node2 -->
<g id="edge1" class="edge">
<title>Node1&#45;&gt;Node2</title>
<path fill="none" stroke="#63b8ff" d="M73.32,-52.31C81.24,-53.81 89.68,-55.41 97.75,-56.95"/>
<polygon fill="#63b8ff" stroke="#63b8ff" points="96.85,-60.34 107.33,-58.77 98.16,-53.46 96.85,-60.34"/>
</g>
<!-- Node4 -->
<g id="node4" class="node">
<title>Node4</title>
<g id="a_node4"><a xlink:href="namespace_o_c_a_1_1_c_a_f_e_v_d_b_1_1_toolkit_1_1_traits.html#ab8e67cfd6a09d264ed60634dd794bb30" target="_top" xlink:title="Log an informational message.">
<polygon fill="white" stroke="#666666" points="161.5,-37 115.5,-37 115.5,-18 161.5,-18 161.5,-37"/>
<text text-anchor="middle" x="138.5" y="-25" font-family="Helvetica,sans-Serif" font-size="10.00">logInfo</text>
</a>
</g>
</g>
<!-- Node1&#45;&gt;Node4 -->
<g id="edge3" class="edge">
<title>Node1&#45;&gt;Node4</title>
<path fill="none" stroke="#63b8ff" d="M73.32,-39.05C83.39,-37.24 94.3,-35.28 104.21,-33.49"/>
<polygon fill="#63b8ff" stroke="#63b8ff" points="104.58,-36.98 113.8,-31.77 103.34,-30.09 104.58,-36.98"/>
</g>
<!-- Node3 -->
<g id="node3" class="node">
<title>Node3</title>
<g id="a_node3"><a xlink:href="namespace_o_c_a_1_1_c_a_f_e_v_d_b_1_1_toolkit_1_1_traits.html#ad532b661eb33c3e755bd3fa8ff1bd7af" target="_top" xlink:title="Return the locale as string, e.g.">
<polygon fill="white" stroke="#666666" points="263,-74 204,-74 204,-55 263,-55 263,-74"/>
<text text-anchor="middle" x="233.5" y="-62" font-family="Helvetica,sans-Serif" font-size="10.00">getLocale</text>
</a>
</g>
</g>
<!-- Node2&#45;&gt;Node3 -->
<g id="edge2" class="edge">
<title>Node2&#45;&gt;Node3</title>
<path fill="none" stroke="#63b8ff" d="M168.42,-64.5C175.94,-64.5 184.18,-64.5 192.18,-64.5"/>
<polygon fill="#63b8ff" stroke="#63b8ff" points="192.09,-68 202.09,-64.5 192.09,-61 192.09,-68"/>
</g>
<!-- Node5 -->
<g id="node5" class="node">
<title>Node5</title>
<g id="a_node5"><a xlink:href="namespace_o_c_a_1_1_c_a_f_e_v_d_b_1_1_toolkit_1_1_traits.html#a15cbaddba041ee5582b2bec28a58c7c9" target="_top" xlink:title="Log the given message at the specified level.">
<polygon fill="white" stroke="#666666" points="248,-37 219,-37 219,-18 248,-18 248,-37"/>
<text text-anchor="middle" x="233.5" y="-25" font-family="Helvetica,sans-Serif" font-size="10.00">log</text>
</a>
</g>
</g>
<!-- Node4&#45;&gt;Node5 -->
<g id="edge4" class="edge">
<title>Node4&#45;&gt;Node5</title>
<path fill="none" stroke="#63b8ff" d="M161.54,-27.5C175.25,-27.5 192.92,-27.5 207.2,-27.5"/>
<polygon fill="#63b8ff" stroke="#63b8ff" points="207.18,-31 217.18,-27.5 207.18,-24 207.18,-31"/>
</g>
<!-- Node6 -->
<g id="node6" class="node">
<title>Node6</title>
<g id="a_node6"><a xlink:href="namespace_o_c_a_1_1_c_a_f_e_v_d_b_1_1_toolkit_1_1_traits.html#a97e3b3adabf67bc7d3650ed14214ddaa" target="_top" xlink:title="Return the stored logger class.">
<polygon fill="white" stroke="#666666" points="360.5,-56 317.5,-56 317.5,-37 360.5,-37 360.5,-56"/>
<text text-anchor="middle" x="339" y="-44" font-family="Helvetica,sans-Serif" font-size="10.00">logger</text>
</a>
</g>
</g>
<!-- Node5&#45;&gt;Node6 -->
<g id="edge5" class="edge">
<title>Node5&#45;&gt;Node6</title>
<path fill="none" stroke="#63b8ff" d="M248.46,-30.06C263.08,-32.75 286.55,-37.06 305.8,-40.59"/>
<polygon fill="#63b8ff" stroke="#63b8ff" points="305.16,-44.03 315.63,-42.39 306.43,-37.15 305.16,-44.03"/>
</g>
<!-- Node7 -->
<g id="node7" class="node">
<title>Node7</title>
<g id="a_node7"><a xlink:href="namespace_o_c_a_1_1_c_a_f_e_v_d_b_1_1_toolkit_1_1_traits.html#ab690a84fb4e720f43308bc354c392bee" target="_top" xlink:title="Map PSR log&#45;levels to ILogger log&#45;levels as the PsrLoggerAdapter only understands those.">
<polygon fill="white" stroke="#666666" points="379,-19 299,-19 299,0 379,0 379,-19"/>
<text text-anchor="middle" x="339" y="-7" font-family="Helvetica,sans-Serif" font-size="10.00">mapLogLevels</text>
</a>
</g>
</g>
<!-- Node5&#45;&gt;Node7 -->
<g id="edge6" class="edge">
<title>Node5&#45;&gt;Node7</title>
<path fill="none" stroke="#63b8ff" d="M248.46,-25.07C258.75,-23.28 273.42,-20.73 287.92,-18.21"/>
<polygon fill="#63b8ff" stroke="#63b8ff" points="288.15,-21.72 297.4,-16.56 286.95,-14.83 288.15,-21.72"/>
</g>
</g>
</svg>
