<?xml version="1.0" encoding="UTF-8" standalone="no"?>
<!DOCTYPE svg PUBLIC "-//W3C//DTD SVG 1.1//EN"
 "http://www.w3.org/Graphics/SVG/1.1/DTD/svg11.dtd">
<!-- Generated by graphviz version 7.1.0 (20230121.1956)
 -->
<!-- Title: getClubMembersProjectName Pages: 1 -->
<svg width="387pt" height="27pt"
 viewBox="0.00 0.00 387.00 27.00" xmlns="http://www.w3.org/2000/svg" xmlns:xlink="http://www.w3.org/1999/xlink">
<g id="graph0" class="graph" transform="scale(1 1) rotate(0) translate(4 23)">
<title>getClubMembersProjectName</title>
<!-- Node1 -->
<g id="node1" class="node">
<title>Node1</title>
<g id="a_node1"><a xlink:title=" ">
<polygon fill="#999999" stroke="#666666" points="148,-19 0,-19 0,0 148,0 148,-19"/>
<text text-anchor="middle" x="74" y="-7" font-family="Helvetica,sans-Serif" font-size="10.00">getClubMembersProjectName</text>
</a>
</g>
</g>
<!-- Node2 -->
<g id="node2" class="node">
<title>Node2</title>
<g id="a_node2"><a xlink:href="namespace_o_c_a_1_1_c_a_f_e_v_d_b_1_1_traits.html#aa57ee6dad7c7f33cff6983ad79080946" target="_top" xlink:title="Get a possibly encrypted config value.">
<polygon fill="white" stroke="#666666" points="267,-19 184,-19 184,0 267,0 267,-19"/>
<text text-anchor="middle" x="225.5" y="-7" font-family="Helvetica,sans-Serif" font-size="10.00">getConfigValue</text>
</a>
</g>
</g>
<!-- Node1&#45;&gt;Node2 -->
<g id="edge1" class="edge">
<title>Node1&#45;&gt;Node2</title>
<path fill="none" stroke="#63b8ff" d="M148.44,-9.5C156.48,-9.5 164.54,-9.5 172.25,-9.5"/>
<polygon fill="#63b8ff" stroke="#63b8ff" points="172.12,-13 182.12,-9.5 172.12,-6 172.12,-13"/>
</g>
<!-- Node3 -->
<g id="node3" class="node">
<title>Node3</title>
<g id="a_node3"><a xlink:href="namespace_o_c_a_1_1_c_a_f_e_v_d_b_1_1_traits.html#a4bb87734b0f297c2a6d2095820942c48" target="_top" xlink:title="Return the stored config&#45;service for convenience.">
<polygon fill="white" stroke="#666666" points="379,-19 303,-19 303,0 379,0 379,-19"/>
<text text-anchor="middle" x="341" y="-7" font-family="Helvetica,sans-Serif" font-size="10.00">configService</text>
</a>
</g>
</g>
<!-- Node2&#45;&gt;Node3 -->
<g id="edge2" class="edge">
<title>Node2&#45;&gt;Node3</title>
<path fill="none" stroke="#63b8ff" d="M267.48,-9.5C275.24,-9.5 283.43,-9.5 291.41,-9.5"/>
<polygon fill="#63b8ff" stroke="#63b8ff" points="291.34,-13 301.34,-9.5 291.34,-6 291.34,-13"/>
</g>
</g>
</svg>
