<?xml version="1.0" encoding="UTF-8" standalone="no"?>
<svg
   xmlns:dc="http://purl.org/dc/elements/1.1/"
   xmlns:cc="http://creativecommons.org/ns#"
   xmlns:rdf="http://www.w3.org/1999/02/22-rdf-syntax-ns#"
   xmlns:svg="http://www.w3.org/2000/svg"
   xmlns="http://www.w3.org/2000/svg"
   xmlns:sodipodi="http://sodipodi.sourceforge.net/DTD/sodipodi-0.dtd"
   xmlns:inkscape="http://www.inkscape.org/namespaces/inkscape"
   id="svg2989"
   version="1.1"
   inkscape:version="0.91 r13725"
   width="16"
   height="16"
   sodipodi:docname="cloud-icon.svg">
  <metadata
     id="metadata2999">
    <rdf:RDF>
      <cc:Work
         rdf:about="">
        <dc:format>image/svg+xml</dc:format>
        <dc:type
           rdf:resource="http://purl.org/dc/dcmitype/StillImage" />
        <dc:title></dc:title>
      </cc:Work>
    </rdf:RDF>
  </metadata>
  <defs
     id="defs2997" />
  <sodipodi:namedview
     pagecolor="#ffffff"
     bordercolor="#666666"
     borderopacity="1"
     objecttolerance="10"
     gridtolerance="10"
     guidetolerance="10"
     inkscape:pageopacity="0"
     inkscape:pageshadow="2"
     inkscape:window-width="2024"
     inkscape:window-height="1103"
     id="namedview2995"
     showgrid="false"
     inkscape:zoom="52.073884"
     inkscape:cx="8.7995779"
     inkscape:cy="7.9765703"
     inkscape:window-x="507"
     inkscape:window-y="131"
     inkscape:window-maximized="0"
     inkscape:current-layer="svg2989"
     fit-margin-top="0"
     fit-margin-left="0"
     fit-margin-right="0"
     fit-margin-bottom="0" />
  <g
     id="g3334"
     style="opacity:1;fill:#000000;fill-opacity:1;stroke:none;stroke-opacity:1"
     transform="translate(3.2e-6,3.2e-7)"
     mask="none">
    <g
       id="g2991"
       transform="matrix(0.00833333,0,0,-0.00833333,0,13.866664)"
       style="fill:#000000;fill-opacity:1;stroke:none;stroke-opacity:1">
      <path
         style="fill:#000000;fill-opacity:1;stroke:none;stroke-opacity:1"
         inkscape:connector-curvature="0"
         id="path2993"
         d="M 1920,384 Q 1920,225 1807.5,112.5 1695,0 1536,0 L 448,0 Q 263,0 131.5,131.5 0,263 0,448 0,580 71,689.5 142,799 258,853 q -2,28 -2,43 0,212 150,362 150,150 362,150 158,0 286.5,-88 128.5,-88 187.5,-230 70,62 166,62 106,0 181,-75 75,-75 75,-181 0,-75 -41,-138 129,-30 213,-134.5 84,-104.5 84,-239.5 z" />
    </g>
  </g>
</svg>
