<?xml version="1.0" encoding="UTF-8" standalone="no"?>
<svg
   xmlns:dc="http://purl.org/dc/elements/1.1/"
   xmlns:cc="http://creativecommons.org/ns#"
   xmlns:rdf="http://www.w3.org/1999/02/22-rdf-syntax-ns#"
   xmlns:svg="http://www.w3.org/2000/svg"
   xmlns="http://www.w3.org/2000/svg"
   xmlns:xlink="http://www.w3.org/1999/xlink"
   xmlns:sodipodi="http://sodipodi.sourceforge.net/DTD/sodipodi-0.dtd"
   xmlns:inkscape="http://www.inkscape.org/namespaces/inkscape"
   sodipodi:docname="logo-stempel.svg"
   inkscape:version="1.0.2 (e86c870879, 2021-01-15)"
   version="1.1"
   id="svg2"
   height="42mm"
   width="42mm"
   inkscape:export-filename="/home/claus/camerata/logo/logo-contour-1200.png"
   inkscape:export-xdpi="1759.41"
   inkscape:export-ydpi="1759.41">
  <sodipodi:namedview
     id="base"
     pagecolor="#ffffff"
     bordercolor="#666666"
     borderopacity="1.0"
     inkscape:pageopacity="0"
     inkscape:pageshadow="2"
     inkscape:zoom="7.9195959"
     inkscape:cx="0.90480494"
     inkscape:cy="89.89111"
     inkscape:document-units="px"
     inkscape:current-layer="layer1"
     showgrid="true"
     units="mm"
     inkscape:window-width="3840"
     inkscape:window-height="1979"
     inkscape:window-x="2160"
     inkscape:window-y="721"
     inkscape:window-maximized="1"
     showborder="true"
     inkscape:showpageshadow="true"
     inkscape:document-rotation="0"
     fit-margin-top="0"
     fit-margin-left="0"
     fit-margin-right="0"
     fit-margin-bottom="0">
    <sodipodi:guide
       id="guide3773"
       orientation="0,250"
       position="0.35625001,-9.7854409" />
    <sodipodi:guide
       id="guide3775"
       orientation="-250,0"
       position="267.02291,-9.7854409" />
    <sodipodi:guide
       id="guide3777"
       orientation="0,-250"
       position="267.02291,256.88123" />
    <sodipodi:guide
       id="guide3779"
       orientation="250,0"
       position="0.35625001,256.88123" />
    <inkscape:grid
       type="xygrid"
       id="grid940" />
  </sodipodi:namedview>
  <defs
     id="defs4" />
  <metadata
     id="metadata7">
    <rdf:RDF>
      <cc:Work
         rdf:about="">
        <dc:format>image/svg+xml</dc:format>
        <dc:type
           rdf:resource="http://purl.org/dc/dcmitype/StillImage" />
        <dc:title></dc:title>
      </cc:Work>
    </rdf:RDF>
  </metadata>
  <g
     transform="translate(0.33398438,-989.95532)"
     id="layer1"
     inkscape:groupmode="layer"
     inkscape:label="Layer 1">
    <ellipse
       style="opacity:1;fill:#ff0000;fill-opacity:0.010102;stroke:#000000;stroke-width:0.133333;stroke-miterlimit:4;stroke-dasharray:none;stroke-opacity:0"
       id="path890"
       cx="-466.30011"
       cy="-965.55206"
       transform="matrix(-0.93010458,-0.3672948,0.36732538,-0.9300925,0,0)"
       rx="65.77179"
       ry="65.769699" />
    <ellipse
       style="opacity:1;fill:#ff0000;fill-opacity:0.010102;stroke:#000000;stroke-width:0.667949;stroke-miterlimit:4;stroke-dasharray:none;stroke-opacity:1"
       id="path855"
       inkscape:label="path855"
       cy="-768.3269"
       cx="-747.91272"
       transform="matrix(-0.76602671,-0.64280874,0.64280579,-0.76602919,0,0)"
       rx="79.036453"
       ry="79.036507" />
    <ellipse
       style="opacity:1;fill:#ff0000;fill-opacity:0.010102;stroke:#000000;stroke-width:0.133333;stroke-miterlimit:4;stroke-dasharray:none;stroke-opacity:0.0154546"
       id="ellipse52"
       cx="820.19897"
       cy="690.74103"
       transform="matrix(-0.58607061,0.81025998,0.81034055,0.58595921,0,0)"
       rx="73.307404"
       ry="73.306534" />
    <g
       id="g4216"
       transform="matrix(1.8112731,0,0,1.8112731,21.204477,-782.25492)">
      <text
         xml:space="preserve"
         style="font-style:normal;font-variant:normal;font-weight:normal;font-stretch:normal;line-height:0%;font-family:Arial;-inkscape-font-specification:Arial;text-align:start;letter-spacing:0px;word-spacing:0px;writing-mode:lr-tb;text-anchor:start;fill:none;fill-opacity:1;stroke:#000000;stroke-width:2;stroke-linejoin:miter;stroke-miterlimit:4;stroke-dasharray:none;stroke-opacity:1"
         x="18.872702"
         y="1052.1096"
         id="text2993"><tspan
           sodipodi:role="line"
           id="tspan2995"
           x="18.872702"
           y="1052.1096"
           style="font-style:normal;font-variant:normal;font-weight:normal;font-stretch:normal;font-size:84px;line-height:125%;font-family:Arial;-inkscape-font-specification:Arial;text-align:start;writing-mode:lr-tb;text-anchor:start;fill:none;fill-opacity:1;stroke:#000000;stroke-width:2;stroke-linejoin:miter;stroke-miterlimit:4;stroke-dasharray:none;stroke-opacity:1">f</tspan></text>
      <g
         style="fill:#ffffff;fill-opacity:1;stroke:none;stroke-width:2;stroke-miterlimit:4;stroke-dasharray:none;stroke-opacity:1"
         id="g4160">
        <g
           style="fill:#ffffff;fill-opacity:1;stroke:none;stroke-width:2;stroke-miterlimit:4;stroke-dasharray:none;stroke-opacity:1"
           id="g4156">
          <path
             id="text2985"
             transform="translate(0,991.11221)"
             d="m 17.681641,18.105469 c -3.210938,0 -6.1875,0.761719 -8.9296879,2.285156 -2.71875,1.5 -4.7460937,3.761719 -6.0820312,6.785156 -1.3359375,3.023438 -2.00390628,6.550781 -2.00390628,10.582031 0,6.234376 1.54687498,11.027344 4.64062498,14.378907 3.1171875,3.328125 7.2304684,4.992187 12.3398434,4.992187 4.078125,0 7.511719,-1.207031 10.300782,-3.621094 0.192237,-0.166606 0.366554,-0.348181 0.548828,-0.523437 0.339639,0.423766 0.705473,0.832975 1.125,1.216797 2.203125,1.992187 5.355468,2.988281 9.457031,2.988281 2.484375,0 4.804687,-0.410156 6.960937,-1.230469 2.179688,-0.820312 4.441407,-2.226562 6.785157,-4.21875 0.1875,1.757813 0.609375,3.292969 1.265625,4.605469 h 6.609375 C 59.902344,54.916016 59.363281,53.427734 59.082031,51.880859 58.824219,50.310547 58.695312,46.583984 58.695312,40.701172 v -8.4375 c 0,-2.8125 -0.105468,-4.757813 -0.316406,-5.835938 -0.375,-1.734375 -1.03125,-3.164062 -1.96875,-4.289062 -0.9375,-1.148438 -2.402344,-2.097656 -4.394531,-2.847656 -1.992187,-0.75 -4.582031,-1.125 -7.769531,-1.125 -3.210938,0 -6.035156,0.445312 -8.472656,1.335937 -2.4375,0.867188 -4.300782,2.121094 -5.589844,3.761719 -0.08531,0.10702 -0.16397,0.222448 -0.246094,0.333984 -0.6641,-0.897634 -1.426989,-1.702712 -2.306641,-2.398437 -2.578125,-2.0625 -5.894531,-3.09375 -9.949218,-3.09375 z m 0.246093,5.203125 c 2.109375,0 3.902344,0.632812 5.378907,1.898437 1.5,1.265625 2.542968,3.152344 3.128906,5.660157 l 4.601562,-0.708985 2.556641,0.347656 c 0.679688,-2.648437 1.722656,-4.488281 3.128906,-5.519531 1.429688,-1.054687 3.632813,-1.582031 6.609375,-1.582031 3.1875,0 5.589844,0.714844 7.207031,2.144531 1.195313,1.054688 1.792969,2.871094 1.792969,5.449219 0,0.234375 -0.01172,0.785156 -0.03516,1.652344 -2.414063,0.84375 -6.175781,1.570312 -11.285156,2.179687 -2.507813,0.304688 -4.382813,0.621094 -5.625,0.949219 -1.6875,0.46875 -3.210938,1.160156 -4.570313,2.074219 -1.335937,0.914062 -2.425781,2.132812 -3.269531,3.65625 -0.196784,0.359833 -0.366047,0.730659 -0.515625,1.109375 l -0.06836,-0.0098 c -0.0215,0.152731 -0.05184,0.294451 -0.07617,0.443359 -0.2375,0.694389 -0.411544,1.414354 -0.496094,2.169922 -0.56764,1.871735 -1.426334,3.350996 -2.591797,4.417969 -1.664062,1.523437 -3.738281,2.285156 -6.222656,2.285156 -3.09375,0 -5.601563,-1.136719 -7.523438,-3.410156 -1.9218746,-2.273437 -2.8828121,-5.917969 -2.8828121,-10.933594 0,-4.945312 0.9960937,-8.554687 2.9882811,-10.828125 1.992188,-2.296875 4.582031,-3.445312 7.769531,-3.445312 z m 34.369141,14.298828 v 2.320312 c 0,2.789063 -0.339844,4.898438 -1.019531,6.328125 -0.890625,1.851563 -2.285156,3.316407 -4.183594,4.394532 -1.898438,1.054687 -4.066406,1.582031 -6.503906,1.582031 -2.460938,0 -4.335938,-0.5625 -5.625,-1.6875 -1.265625,-1.125 -1.898438,-2.53125 -1.898438,-4.21875 0,-1.101563 0.292969,-2.097656 0.878906,-2.988281 0.585938,-0.914063 1.417969,-1.605469 2.496094,-2.074219 1.078125,-0.46875 2.917969,-0.890625 5.519532,-1.265625 C 46.554688,39.341797 50,38.544922 52.296875,37.607422 Z"
             style="font-style:normal;font-variant:normal;font-weight:normal;font-stretch:normal;font-size:72px;line-height:125%;font-family:Arial;-inkscape-font-specification:Arial;text-align:start;letter-spacing:0px;word-spacing:0px;writing-mode:lr-tb;text-anchor:start;fill:#ffffff;fill-opacity:1;stroke:#000000;stroke-width:2;stroke-miterlimit:4;stroke-dasharray:none;stroke-opacity:1"
             inkscape:connector-curvature="0" />
        </g>
      </g>
    </g>
    <text
       xml:space="preserve"
       style="line-height:0%;font-family:'Courier New';-inkscape-font-specification:'Courier New, Normal'"
       x="-84.243446"
       y="1029.7607"
       id="text866"><tspan
         sodipodi:role="line"
         id="tspan864"
         x="-84.243446"
         y="1029.7607"
         style="font-size:40px;line-height:1"> </tspan></text>
    <text
       xml:space="preserve"
       style="font-weight:bold;font-size:16px;line-height:1;font-family:Arial;-inkscape-font-specification:'Arial, Bold'"
       id="text37"><textPath
         xlink:href="#path890"
         id="textPath42"><tspan
           id="tspan35">camerata academica</tspan></textPath></text>
    <text
       xml:space="preserve"
       style="font-weight:bold;font-size:16px;line-height:1;font-family:Arial;-inkscape-font-specification:'Arial, Bold'"
       id="text47"><textPath
         xlink:href="#ellipse52"
         id="textPath63"><tspan
           id="tspan45">freiburg e.V.</tspan></textPath></text>
  </g>
</svg>
