<?xml version="1.0" encoding="UTF-8" standalone="no"?>
<svg
   xmlns:dc="http://purl.org/dc/elements/1.1/"
   xmlns:cc="http://creativecommons.org/ns#"
   xmlns:rdf="http://www.w3.org/1999/02/22-rdf-syntax-ns#"
   xmlns:svg="http://www.w3.org/2000/svg"
   xmlns="http://www.w3.org/2000/svg"
   xmlns:sodipodi="http://sodipodi.sourceforge.net/DTD/sodipodi-0.dtd"
   xmlns:inkscape="http://www.inkscape.org/namespaces/inkscape"
   height="32"
   width="32"
   version="1.1"
   id="svg2"
   inkscape:version="0.48.5 r10040"
   sodipodi:docname="save-contacts.svg"
   inkscape:export-filename="/var/www/localhost/htdocs/owncloud7/apps/cafevdb/img/save-contacts.png"
   inkscape:export-xdpi="2.7"
   inkscape:export-ydpi="2.7">
  <metadata
     id="metadata10">
    <rdf:RDF>
      <cc:Work
         rdf:about="">
        <dc:format>image/svg+xml</dc:format>
        <dc:type
           rdf:resource="http://purl.org/dc/dcmitype/StillImage" />
        <dc:title />
      </cc:Work>
    </rdf:RDF>
  </metadata>
  <defs
     id="defs8" />
  <sodipodi:namedview
     pagecolor="#ffffff"
     bordercolor="#666666"
     borderopacity="1"
     objecttolerance="10"
     gridtolerance="10"
     guidetolerance="10"
     inkscape:pageopacity="0"
     inkscape:pageshadow="2"
     inkscape:window-width="1879"
     inkscape:window-height="1080"
     id="namedview6"
     showgrid="false"
     inkscape:zoom="7.375"
     inkscape:cx="-29.830508"
     inkscape:cy="16"
     inkscape:window-x="213"
     inkscape:window-y="0"
     inkscape:window-maximized="0"
     inkscape:current-layer="svg2"
     fit-margin-top="0"
     fit-margin-left="0"
     fit-margin-right="0"
     fit-margin-bottom="0" />
  <g
     transform="matrix(0.01624294,0,0,-0.01624294,0,29.920904)"
     id="g3003">
    <path
       d="m 384,0 h 768 V 384 H 384 V 0 z m 896,0 h 128 v 896 q 0,14 -10,38.5 -10,24.5 -20,34.5 l -281,281 q -10,10 -34,20 -24,10 -39,10 V 864 q 0,-40 -28,-68 -28,-28 -68,-28 H 352 q -40,0 -68,28 -28,28 -28,68 v 416 H 128 V 0 h 128 v 416 q 0,40 28,68 28,28 68,28 h 832 q 40,0 68,-28 28,-28 28,-68 V 0 z M 896,928 v 320 q 0,13 -9.5,22.5 -9.5,9.5 -22.5,9.5 H 672 q -13,0 -22.5,-9.5 Q 640,1261 640,1248 V 928 q 0,-13 9.5,-22.5 Q 659,896 672,896 h 192 q 13,0 22.5,9.5 9.5,9.5 9.5,22.5 z m 640,-32 V -32 q 0,-40 -28,-68 -28,-28 -68,-28 H 96 q -40,0 -68,28 -28,28 -28,68 v 1344 q 0,40 28,68 28,28 68,28 h 928 q 40,0 88,-20 48,-20 76,-48 l 280,-280 q 28,-28 48,-76 20,-48 20,-88 z"
       id="path3005"
       inkscape:connector-curvature="0"
       style="fill:currentColor" />
  </g>
  <path
     style="fill:#dcdcdc;fill-opacity:0.90869565;stroke:#000000;stroke-width:0;stroke-miterlimit:4;stroke-opacity:1;stroke-dasharray:none"
     d="M 15.513894,30.848065 C 12.674558,30.547078 8.6469642,29.321537 8.2870522,28.649035 8.1978869,28.482429 8.1677529,27.662225 8.21582,26.710361 l 0.083325,-1.64989 -1.3829464,-0.09869 C 4.1933648,24.76746 0.84508554,24.010421 0.14735788,23.431358 -0.10169774,23.22466 -0.06111983,22.470215 0.35282731,19.611133 0.51042128,18.522651 0.66104973,17.985158 0.8505938,17.834929 1.276692,17.497216 2.8848972,16.687265 4.3613391,16.066793 5.1030613,15.755087 5.8774449,15.388824 6.0821946,15.252875 6.4412997,15.014438 6.4480162,14.973573 6.2720758,14.097502 6.1411368,13.445509 5.9112068,12.965149 5.4570116,12.394703 4.6912575,11.432957 4.3652694,10.425123 4.243769,8.6438024 4.1647719,7.4855576 4.1965599,7.2141475 4.474445,6.6746642 5.1544127,5.3545809 6.3785642,4.5557386 7.9098652,4.4328206 8.7164401,4.3680766 9.027788,4.4210296 9.7295495,4.7423065 c 0.9729115,0.445414 1.8185475,1.226998 2.1274535,1.9663152 0.494326,1.1830879 0.124109,4.1304173 -0.659173,5.2477263 -1.037,1.479231 -1.144074,1.694576 -1.2271175,2.467961 l -0.087393,0.813881 1.0352015,0.41442 c 0.569361,0.227931 1.800953,0.7736 2.736872,1.212601 l 1.70167,0.798179 0.995511,-0.379499 0.995512,-0.379498 0.04689,-0.977165 c 0.05791,-1.207009 -0.270605,-2.017904 -1.384865,-3.418214 -1.014499,-1.274939 -1.185389,-1.703894 -1.48639,-3.7310362 -0.394428,-2.6563341 -0.345465,-3.3845255 0.312486,-4.6473526 0.737537,-1.4155793 1.175976,-1.8472507 2.582476,-2.5426108 1.116775,-0.5521232 1.249615,-0.580075 2.756795,-0.580075 1.385455,0 1.695281,0.052411 2.477492,0.4190967 1.062846,0.4982435 2.20767,1.512322 2.747804,2.4339895 0.530926,0.9059592 0.665664,1.9458269 0.510211,3.9376623 -0.195864,2.5095931 -0.445366,3.2110021 -1.781774,5.0090001 -1.106404,1.488557 -1.156093,1.593142 -1.260564,2.653348 -0.06104,0.619421 -0.04561,1.166854 0.03514,1.247614 0.07914,0.07914 1.157476,0.567783 2.396288,1.085859 3.210732,1.342742 4.784554,2.140716 5.525204,2.801439 0.597245,0.532795 0.655916,0.658642 0.782612,1.678691 0.330126,2.657906 0.505125,6.01881 0.330396,6.345298 -0.394677,0.737458 -4.562693,1.929075 -7.816368,2.234665 -1.982138,0.186164 -6.824905,0.182489 -8.608037,-0.0065 l 0,4e-6 z"
     id="path3008"
     inkscape:connector-curvature="0" />
</svg>
