<?xml version="1.0" encoding="UTF-8" standalone="no"?>
<svg
   height="16"
   width="16"
   version="1.1"
   viewbox="0 0 16 16"
   id="svg4"
   sodipodi:docname="time.svg"
   inkscape:version="1.1.2 (0a00cf5339, 2022-02-04)"
   xmlns:inkscape="http://www.inkscape.org/namespaces/inkscape"
   xmlns:sodipodi="http://sodipodi.sourceforge.net/DTD/sodipodi-0.dtd"
   xmlns="http://www.w3.org/2000/svg"
   xmlns:svg="http://www.w3.org/2000/svg">
  <defs
     id="defs8" />
  <sodipodi:namedview
     id="namedview6"
     pagecolor="#ffffff"
     bordercolor="#666666"
     borderopacity="1.0"
     inkscape:pageshadow="2"
     inkscape:pageopacity="0.0"
     inkscape:pagecheckerboard="0"
     showgrid="false"
     inkscape:zoom="54.5625"
     inkscape:cx="8"
     inkscape:cy="8"
     inkscape:window-width="3840"
     inkscape:window-height="2003"
     inkscape:window-x="2160"
     inkscape:window-y="721"
     inkscape:window-maximized="1"
     inkscape:current-layer="svg4" />
  <path
     fill="#969696"
     d="m4 1c-0.5 0-1 0.5-1 1v2c0 0.5 0.5 1 1 1s1-0.5 1-1v-2c0-0.5-0.5-1-1-1zm8 0c-0.5 0-1 0.5-1 1v2c0 0.5 0.5 1 1 1s1-0.5 1-1v-2c0-0.5-0.5-1-1-1zm-6.5 2v1c0 0.831-0.5 1.5-1.5 1.5s-1.5-0.5-1.5-1.5v-0.9375c-0.8841 0.227-1.5 1.0247-1.5 1.9375v8c0 1.108 0.892 2 2 2h10c1.108 0 2-0.892 2-2v-8c0-0.9128-0.61588-1.7105-1.5-1.9375v0.9375c0 0.831-0.5 1.5-1.5 1.5s-1.5-0.5-1.5-1.5v-1zm7.5 5v5h-10v-5z"
     id="path2"
     style="fill:#000000;fill-opacity:1" />
</svg>
